# Unit disc for one arc run, masked to its span by the shader
# Generated by tools/gen_meshes.py. Edit the script, not this file.
v 0.000000 0.000000 0.000000
v 0.000000 0.000000 1.060000
v 0.069327 0.000000 1.057730
v 0.138358 0.000000 1.050932
v 0.206796 0.000000 1.039632
v 0.274348 0.000000 1.023881
v 0.340726 0.000000 1.003746
v 0.405644 0.000000 0.979312
v 0.468826 0.000000 0.950685
v 0.530000 0.000000 0.917987
v 0.588904 0.000000 0.881358
v 0.645287 0.000000 0.840955
v 0.698907 0.000000 0.796950
v 0.749533 0.000000 0.749533
v 0.796950 0.000000 0.698907
v 0.840955 0.000000 0.645287
v 0.881358 0.000000 0.588904
v 0.917987 0.000000 0.530000
v 0.950685 0.000000 0.468826
v 0.979312 0.000000 0.405644
v 1.003746 0.000000 0.340726
v 1.023881 0.000000 0.274348
v 1.039632 0.000000 0.206796
v 1.050932 0.000000 0.138358
v 1.057730 0.000000 0.069327
v 1.060000 0.000000 0.000000
v 1.057730 0.000000 -0.069327
v 1.050932 0.000000 -0.138358
v 1.039632 0.000000 -0.206796
v 1.023881 0.000000 -0.274348
v 1.003746 0.000000 -0.340726
v 0.979312 0.000000 -0.405644
v 0.950685 0.000000 -0.468826
v 0.917987 0.000000 -0.530000
v 0.881358 0.000000 -0.588904
v 0.840955 0.000000 -0.645287
v 0.796950 0.000000 -0.698907
v 0.749533 0.000000 -0.749533
v 0.698907 0.000000 -0.796950
v 0.645287 0.000000 -0.840955
v 0.588904 0.000000 -0.881358
v 0.530000 0.000000 -0.917987
v 0.468826 0.000000 -0.950685
v 0.405644 0.000000 -0.979312
v 0.340726 0.000000 -1.003746
v 0.274348 0.000000 -1.023881
v 0.206796 0.000000 -1.039632
v 0.138358 0.000000 -1.050932
v 0.069327 0.000000 -1.057730
v 0.000000 0.000000 -1.060000
v -0.069327 0.000000 -1.057730
v -0.138358 0.000000 -1.050932
v -0.206796 0.000000 -1.039632
v -0.274348 0.000000 -1.023881
v -0.340726 0.000000 -1.003746
v -0.405644 0.000000 -0.979312
v -0.468826 0.000000 -0.950685
v -0.530000 0.000000 -0.917987
v -0.588904 0.000000 -0.881358
v -0.645287 0.000000 -0.840955
v -0.698907 0.000000 -0.796950
v -0.749533 0.000000 -0.749533
v -0.796950 0.000000 -0.698907
v -0.840955 0.000000 -0.645287
v -0.881358 0.000000 -0.588904
v -0.917987 0.000000 -0.530000
v -0.950685 0.000000 -0.468826
v -0.979312 0.000000 -0.405644
v -1.003746 0.000000 -0.340726
v -1.023881 0.000000 -0.274348
v -1.039632 0.000000 -0.206796
v -1.050932 0.000000 -0.138358
v -1.057730 0.000000 -0.069327
v -1.060000 0.000000 -0.000000
v -1.057730 0.000000 0.069327
v -1.050932 0.000000 0.138358
v -1.039632 0.000000 0.206796
v -1.023881 0.000000 0.274348
v -1.003746 0.000000 0.340726
v -0.979312 0.000000 0.405644
v -0.950685 0.000000 0.468826
v -0.917987 0.000000 0.530000
v -0.881358 0.000000 0.588904
v -0.840955 0.000000 0.645287
v -0.796950 0.000000 0.698907
v -0.749533 0.000000 0.749533
v -0.698907 0.000000 0.796950
v -0.645287 0.000000 0.840955
v -0.588904 0.000000 0.881358
v -0.530000 0.000000 0.917987
v -0.468826 0.000000 0.950685
v -0.405644 0.000000 0.979312
v -0.340726 0.000000 1.003746
v -0.274348 0.000000 1.023881
v -0.206796 0.000000 1.039632
v -0.138358 0.000000 1.050932
v -0.069327 0.000000 1.057730
v -0.000000 0.000000 1.060000
vn 0.000000 1.000000 0.000000
f 1//1 2//1 3//1
f 1//1 3//1 4//1
f 1//1 4//1 5//1
f 1//1 5//1 6//1
f 1//1 6//1 7//1
f 1//1 7//1 8//1
f 1//1 8//1 9//1
f 1//1 9//1 10//1
f 1//1 10//1 11//1
f 1//1 11//1 12//1
f 1//1 12//1 13//1
f 1//1 13//1 14//1
f 1//1 14//1 15//1
f 1//1 15//1 16//1
f 1//1 16//1 17//1
f 1//1 17//1 18//1
f 1//1 18//1 19//1
f 1//1 19//1 20//1
f 1//1 20//1 21//1
f 1//1 21//1 22//1
f 1//1 22//1 23//1
f 1//1 23//1 24//1
f 1//1 24//1 25//1
f 1//1 25//1 26//1
f 1//1 26//1 27//1
f 1//1 27//1 28//1
f 1//1 28//1 29//1
f 1//1 29//1 30//1
f 1//1 30//1 31//1
f 1//1 31//1 32//1
f 1//1 32//1 33//1
f 1//1 33//1 34//1
f 1//1 34//1 35//1
f 1//1 35//1 36//1
f 1//1 36//1 37//1
f 1//1 37//1 38//1
f 1//1 38//1 39//1
f 1//1 39//1 40//1
f 1//1 40//1 41//1
f 1//1 41//1 42//1
f 1//1 42//1 43//1
f 1//1 43//1 44//1
f 1//1 44//1 45//1
f 1//1 45//1 46//1
f 1//1 46//1 47//1
f 1//1 47//1 48//1
f 1//1 48//1 49//1
f 1//1 49//1 50//1
f 1//1 50//1 51//1
f 1//1 51//1 52//1
f 1//1 52//1 53//1
f 1//1 53//1 54//1
f 1//1 54//1 55//1
f 1//1 55//1 56//1
f 1//1 56//1 57//1
f 1//1 57//1 58//1
f 1//1 58//1 59//1
f 1//1 59//1 60//1
f 1//1 60//1 61//1
f 1//1 61//1 62//1
f 1//1 62//1 63//1
f 1//1 63//1 64//1
f 1//1 64//1 65//1
f 1//1 65//1 66//1
f 1//1 66//1 67//1
f 1//1 67//1 68//1
f 1//1 68//1 69//1
f 1//1 69//1 70//1
f 1//1 70//1 71//1
f 1//1 71//1 72//1
f 1//1 72//1 73//1
f 1//1 73//1 74//1
f 1//1 74//1 75//1
f 1//1 75//1 76//1
f 1//1 76//1 77//1
f 1//1 77//1 78//1
f 1//1 78//1 79//1
f 1//1 79//1 80//1
f 1//1 80//1 81//1
f 1//1 81//1 82//1
f 1//1 82//1 83//1
f 1//1 83//1 84//1
f 1//1 84//1 85//1
f 1//1 85//1 86//1
f 1//1 86//1 87//1
f 1//1 87//1 88//1
f 1//1 88//1 89//1
f 1//1 89//1 90//1
f 1//1 90//1 91//1
f 1//1 91//1 92//1
f 1//1 92//1 93//1
f 1//1 93//1 94//1
f 1//1 94//1 95//1
f 1//1 95//1 96//1
f 1//1 96//1 97//1
f 1//1 97//1 98//1
