# Wreck plate 0, extruded irregular polygon, scaled in code
# Generated by tools/gen_meshes.py. Edit the script, not this file.
v 0.000000 0.160000 1.000000
v 0.589655 0.160000 0.191591
v 0.517251 0.160000 -0.711935
v -0.264503 0.160000 -0.364058
v -0.703782 0.160000 0.228673
v 0.000000 -0.160000 1.000000
v 0.589655 -0.160000 0.191591
v 0.517251 -0.160000 -0.711935
v -0.264503 -0.160000 -0.364058
v -0.703782 -0.160000 0.228673
vn 0.000000 1.000000 0.000000
vn 0.000000 -1.000000 0.000000
vn 0.807917 0.000000 0.589296
vn 0.996805 0.000000 -0.079879
vn -0.406559 0.000000 -0.913625
vn -0.803415 0.000000 -0.595419
vn -0.738711 0.000000 0.674022
f 1//1 2//1 3//1
f 6//2 8//2 7//2
f 1//1 3//1 4//1
f 6//2 9//2 8//2
f 1//1 4//1 5//1
f 6//2 10//2 9//2
f 1//3 6//3 7//3
f 1//3 7//3 2//3
f 2//4 7//4 8//4
f 2//4 8//4 3//4
f 3//5 8//5 9//5
f 3//5 9//5 4//5
f 4//6 9//6 10//6
f 4//6 10//6 5//6
f 5//7 10//7 6//7
f 5//7 6//7 1//7
