# Helion battlecruiser, fragment 0 of 8
# Generated by tools. Edit the generator script.
v 0.144172 0.288344 -2.128937
v -0.144172 0.576687 -2.128937
v 0.144172 0.576687 -2.128937
v 0.648773 0.000000 -1.752552
v 0.120143 0.000000 -1.752552
v 0.120143 0.865031 -1.752552
v 0.648773 0.865031 -1.752552
v 0.648773 0.000000 -1.079751
v 0.528630 0.432515 -2.321166
v 0.664556 0.296589 -2.321166
v 0.528630 0.240286 -2.321166
v 0.720859 0.432515 -2.321166
v 0.664556 0.568442 -2.321166
v 0.528630 0.624744 -2.321166
v 0.392703 0.568442 -2.321166
v 0.336401 0.432515 -2.321166
v 0.392703 0.296589 -2.321166
v 0.664556 0.296589 -1.552249
v 0.528630 0.240286 -1.552249
v 0.720859 0.432515 -1.552249
v 0.664556 0.568442 -1.552249
v 0.528630 0.624744 -1.552249
v 0.392703 0.568442 -1.552249
v 0.336401 0.432515 -1.552249
v 0.392703 0.296589 -1.552249
v 0.528630 0.432515 -1.552249
v 0.024029 0.394070 -1.898262
v 0.504601 0.394070 -1.898262
v 0.504601 0.470961 -1.898262
v 0.024029 0.470961 -1.898262
v 0.504601 0.394070 -1.975153
v 0.024029 0.394070 -1.975153
v 0.024029 0.470961 -1.975153
v 0.504601 0.470961 -1.975153
v 0.528630 0.206646 -1.936708
v 0.615066 0.223839 -1.936708
v 0.606171 0.245315 -1.904714
v 0.528630 0.229891 -1.904714
v 0.591778 0.280063 -1.916934
v 0.528630 0.267502 -1.916934
v 0.591778 0.280063 -1.956481
v 0.528630 0.267502 -1.956481
v 0.606171 0.245315 -1.968701
v 0.528630 0.229891 -1.968701
v 0.688343 0.272802 -1.936708
v 0.671907 0.289238 -1.904714
v 0.645312 0.315833 -1.916934
v 0.645312 0.315833 -1.956481
v 0.671907 0.289238 -1.968701
v 0.737306 0.346079 -1.936708
v 0.715830 0.354974 -1.904714
v 0.681083 0.369367 -1.916934
v 0.681083 0.369367 -1.956481
v 0.715830 0.354974 -1.968701
v 0.754499 0.432515 -1.936708
v 0.731254 0.432515 -1.904714
v 0.693643 0.432515 -1.916934
v 0.693643 0.432515 -1.956481
v 0.731254 0.432515 -1.968701
v 0.737306 0.518952 -1.936708
v 0.715830 0.510056 -1.904714
v 0.681083 0.495663 -1.916934
v 0.681083 0.495663 -1.956481
v 0.715830 0.510056 -1.968701
v 0.688343 0.592229 -1.936708
v 0.671907 0.575792 -1.904714
v 0.645312 0.549198 -1.916934
v 0.645312 0.549198 -1.956481
v 0.671907 0.575792 -1.968701
v 0.615066 0.641191 -1.936708
v 0.606171 0.619716 -1.904714
v 0.591778 0.584968 -1.916934
v 0.591778 0.584968 -1.956481
v 0.606171 0.619716 -1.968701
v 0.528630 0.658384 -1.936708
v 0.528630 0.635140 -1.904714
v 0.528630 0.597529 -1.916934
v 0.528630 0.597529 -1.956481
v 0.528630 0.635140 -1.968701
v 0.442193 0.641191 -1.936708
v 0.451089 0.619716 -1.904714
v 0.465482 0.584968 -1.916934
v 0.465482 0.584968 -1.956481
v 0.451089 0.619716 -1.968701
v 0.368916 0.592229 -1.936708
v 0.385353 0.575792 -1.904714
v 0.411948 0.549198 -1.916934
v 0.411948 0.549198 -1.956481
v 0.385353 0.575792 -1.968701
v 0.319954 0.518952 -1.936708
v 0.341429 0.510056 -1.904714
v 0.376177 0.495663 -1.916934
v 0.376177 0.495663 -1.956481
v 0.341429 0.510056 -1.968701
v 0.302761 0.432515 -1.936708
v 0.326005 0.432515 -1.904714
v 0.363616 0.432515 -1.916934
v 0.363616 0.432515 -1.956481
v 0.326005 0.432515 -1.968701
v 0.319954 0.346079 -1.936708
v 0.341429 0.354974 -1.904714
v 0.376177 0.369367 -1.916934
v 0.376177 0.369367 -1.956481
v 0.341429 0.354974 -1.968701
v 0.368916 0.272802 -1.936708
v 0.385353 0.289238 -1.904714
v 0.411948 0.315833 -1.916934
v 0.411948 0.315833 -1.956481
v 0.385353 0.289238 -1.968701
v 0.442193 0.223839 -1.936708
v 0.451089 0.245315 -1.904714
v 0.465482 0.280063 -1.916934
v 0.465482 0.280063 -1.956481
v 0.451089 0.245315 -1.968701
v 0.528630 0.432515 -2.350000
v 0.653682 0.307463 -2.350000
v 0.528630 0.255665 -2.350000
v 0.705481 0.432515 -2.350000
v 0.653682 0.557568 -2.350000
v 0.528630 0.609366 -2.350000
v 0.403578 0.557568 -2.350000
v 0.351779 0.432515 -2.350000
v 0.403578 0.307463 -2.350000
v 0.653682 0.307463 -2.253885
v 0.528630 0.255665 -2.253885
v 0.705481 0.432515 -2.253885
v 0.653682 0.557568 -2.253885
v 0.528630 0.609366 -2.253885
v 0.403578 0.557568 -2.253885
v 0.351779 0.432515 -2.253885
v 0.403578 0.307463 -2.253885
v 0.528630 0.432515 -2.253885
v 0.048057 0.480573 -2.128937
v 0.384458 0.432515 -1.584352
vt 0.968750 0.531250
vt 0.843750 0.656250
vt 0.968750 0.656250
vt 0.460938 0.382812
vt 0.335938 0.382812
vt 0.335938 0.476562
vt 0.460938 0.476562
vt 0.343750 0.664062
vt 0.546875 0.664062
vt 0.546875 0.992188
vt 0.484375 0.296875
vt 0.109375 0.296875
vt 0.109375 0.375000
vt 0.539062 0.234375
vt 0.572208 0.206754
vt 0.539062 0.195312
vt 0.585938 0.234375
vt 0.572208 0.261996
vt 0.539062 0.273438
vt 0.505917 0.261996
vt 0.492188 0.234375
vt 0.505917 0.206754
vt 0.589844 0.664062
vt 0.614703 0.664062
vt 0.614703 0.992188
vt 0.589844 0.992188
vt 0.492188 0.308316
vt 0.492188 0.335938
vt 0.867188 0.335938
vt 0.867188 0.308316
vt 0.492188 0.363559
vt 0.867188 0.363559
vt 0.564985 0.664062
vt 0.564985 0.992188
vt 0.062730 0.261996
vt 0.007812 0.234375
vt 0.062730 0.206754
vt 0.437500 0.195312
vt 0.470646 0.206754
vt 0.437500 0.234375
vt 0.484375 0.234375
vt 0.470646 0.261996
vt 0.437500 0.273438
vt 0.404354 0.261996
vt 0.390625 0.234375
vt 0.404354 0.206754
vt 0.843750 0.531250
vt 0.968750 0.531250
vt 0.968750 0.656250
vt 0.843750 0.656250
vt 0.968750 0.531250
vt 0.843750 0.531250
vt 0.843750 0.656250
vt 0.968750 0.656250
vt 0.843750 0.656250
vt 0.968750 0.656250
vt 0.968750 0.531250
vt 0.843750 0.531250
vt 0.843750 0.531250
vt 0.968750 0.531250
vt 0.968750 0.656250
vt 0.843750 0.656250
vt 0.718750 0.242188
vt 0.766585 0.242188
vt 0.761663 0.273438
vt 0.718750 0.273438
vt 0.515625 0.103171
vt 0.558538 0.104237
vt 0.550572 0.106641
vt 0.515625 0.105772
vt 0.718750 0.261501
vt 0.753697 0.261501
vt 0.753697 0.222874
vt 0.718750 0.222874
vt 0.515625 0.105772
vt 0.550572 0.106641
vt 0.558538 0.104237
vt 0.515625 0.103171
vt 0.718750 0.210938
vt 0.761663 0.210938
vt 0.807138 0.242188
vt 0.798042 0.273438
vt 0.594917 0.107276
vt 0.580199 0.109116
vt 0.783324 0.261501
vt 0.783324 0.222874
vt 0.580199 0.109116
vt 0.594917 0.107276
vt 0.798042 0.210938
vt 0.515625 0.106139
vt 0.515625 0.111208
vt 0.640625 0.111823
vt 0.640625 0.107276
vt 0.619225 0.111823
vt 0.599995 0.112819
vt 0.592879 0.109116
vt 0.592879 0.112819
vt 0.438371 0.112819
vt 0.438371 0.109116
vt 0.599995 0.112819
vt 0.619225 0.111823
vt 0.390625 0.107276
vt 0.390625 0.111823
vt 0.515625 0.117188
vt 0.640625 0.117188
vt 0.627761 0.117188
vt 0.606946 0.117188
vt 0.592879 0.117188
vt 0.438371 0.117188
vt 0.606946 0.117188
vt 0.627761 0.117188
vt 0.390625 0.117188
vt 0.515625 0.123167
vt 0.640625 0.122552
vt 0.619225 0.122552
vt 0.599995 0.121556
vt 0.592879 0.121556
vt 0.438371 0.121556
vt 0.599995 0.121556
vt 0.619225 0.122552
vt 0.390625 0.122552
vt 0.515625 0.128236
vt 0.640625 0.127099
vt 0.594917 0.127099
vt 0.580199 0.125259
vt 0.592879 0.125259
vt 0.438371 0.125259
vt 0.580199 0.125259
vt 0.594917 0.127099
vt 0.390625 0.127099
vt 0.558538 0.130138
vt 0.550572 0.127734
vt 0.550572 0.127734
vt 0.558538 0.130138
vt 0.515625 0.131204
vt 0.515625 0.128603
vt 0.515625 0.128603
vt 0.515625 0.131204
vt 0.670915 0.242188
vt 0.675837 0.273438
vt 0.472712 0.130138
vt 0.480678 0.127734
vt 0.683803 0.261501
vt 0.683803 0.222874
vt 0.480678 0.127734
vt 0.472712 0.130138
vt 0.675837 0.210938
vt 0.630362 0.242188
vt 0.639458 0.273438
vt 0.436333 0.127099
vt 0.451051 0.125259
vt 0.654176 0.261501
vt 0.654176 0.222874
vt 0.451051 0.125259
vt 0.436333 0.127099
vt 0.639458 0.210938
vt 0.412025 0.122552
vt 0.431255 0.121556
vt 0.431255 0.121556
vt 0.412025 0.122552
vt 0.403489 0.117188
vt 0.424304 0.117188
vt 0.424304 0.117188
vt 0.403489 0.117188
vt 0.412025 0.111823
vt 0.431255 0.112819
vt 0.431255 0.112819
vt 0.412025 0.111823
vt 0.436333 0.107276
vt 0.451051 0.109116
vt 0.451051 0.109116
vt 0.436333 0.107276
vt 0.472712 0.104237
vt 0.480678 0.106641
vt 0.480678 0.106641
vt 0.472712 0.104237
vt 0.054687 0.328125
vt 0.087833 0.294979
vt 0.054687 0.281250
vt 0.101562 0.328125
vt 0.087833 0.361271
vt 0.054687 0.375000
vt 0.021542 0.361271
vt 0.007812 0.328125
vt 0.021542 0.294979
vt 0.054687 0.281250
vt 0.087833 0.281250
vt 0.087833 0.375000
vt 0.054687 0.375000
vt 0.007812 0.294979
vt 0.007812 0.328125
vt 0.101562 0.328125
vt 0.101562 0.294979
vt 0.007812 0.361271
vt 0.101562 0.361271
vt 0.021542 0.281250
vt 0.021542 0.375000
vt 0.054687 0.281250
vt 0.087833 0.294979
vt 0.054687 0.328125
vt 0.101562 0.328125
vt 0.087833 0.361271
vt 0.054687 0.375000
vt 0.021542 0.361271
vt 0.007812 0.328125
vt 0.021542 0.294979
vt 0.646667 0.646667
vt 0.940000 0.060000
vt 0.060000 0.940000
vt 0.940000 0.940000
vt 0.500000 0.280000
vt 0.060000 0.060000
vt 0.060000 0.940000
vt 0.940000 0.060000
vt 0.940000 0.060000
vn 0.000000 0.000000 -1.000000
vn 0.000000 0.000000 -1.000000
vn 0.000000 -1.000000 0.000000
vn 1.000000 0.000000 0.000000
vn 0.000000 0.000000 -1.000000
vn 0.382683 -0.923880 0.000000
vn 0.923880 -0.382683 0.000000
vn 0.923880 0.382683 -0.000000
vn 0.382683 0.923880 0.000000
vn -0.382683 0.923880 0.000000
vn -0.923880 0.382683 -0.000000
vn -0.923880 -0.382683 0.000000
vn -0.382683 -0.923880 0.000000
vn 0.000000 0.000000 1.000000
vn 0.000000 0.000000 1.000000
vn 0.000000 0.000000 -1.000000
vn -0.000000 1.000000 0.000000
vn 0.000000 -1.000000 0.000000
vn -1.000000 0.000000 0.000000
vn 1.000000 0.000000 0.000000
vn 0.158879 -0.798741 0.580319
vn -0.061352 0.308435 0.949265
vn -0.195090 0.980785 0.000000
vn -0.061352 0.308435 -0.949265
vn 0.158879 -0.798741 -0.580319
vn 0.452450 -0.677140 0.580319
vn -0.174714 0.261478 0.949265
vn -0.555570 0.831470 0.000000
vn -0.174714 0.261478 -0.949265
vn 0.452450 -0.677140 -0.580319
vn 0.677140 -0.452450 0.580319
vn -0.261478 0.174714 0.949265
vn -0.831470 0.555570 0.000000
vn -0.261478 0.174714 -0.949265
vn 0.677140 -0.452450 -0.580319
vn 0.798741 -0.158879 0.580319
vn -0.308435 0.061352 0.949265
vn -0.980785 0.195090 0.000000
vn -0.308435 0.061352 -0.949265
vn 0.798741 -0.158879 -0.580319
vn 0.798741 0.158879 0.580319
vn -0.308435 -0.061352 0.949265
vn -0.980785 -0.195090 0.000000
vn -0.308435 -0.061352 -0.949265
vn 0.798741 0.158879 -0.580319
vn 0.677140 0.452450 0.580319
vn -0.261478 -0.174714 0.949265
vn -0.831470 -0.555570 0.000000
vn -0.261478 -0.174714 -0.949265
vn 0.677140 0.452450 -0.580319
vn 0.452450 0.677140 0.580319
vn -0.174714 -0.261478 0.949265
vn -0.555570 -0.831470 0.000000
vn -0.174714 -0.261478 -0.949265
vn 0.452450 0.677140 -0.580319
vn 0.158879 0.798741 0.580319
vn -0.061352 -0.308435 0.949265
vn -0.195090 -0.980785 0.000000
vn -0.061352 -0.308435 -0.949265
vn 0.158879 0.798741 -0.580319
vn -0.158879 0.798741 0.580319
vn 0.061352 -0.308435 0.949265
vn 0.195090 -0.980785 0.000000
vn 0.061352 -0.308435 -0.949265
vn -0.158879 0.798741 -0.580319
vn -0.452450 0.677140 0.580319
vn 0.174714 -0.261478 0.949265
vn 0.555570 -0.831470 0.000000
vn 0.174714 -0.261478 -0.949265
vn -0.452450 0.677140 -0.580319
vn -0.677140 0.452450 0.580319
vn 0.261478 -0.174714 0.949265
vn 0.831470 -0.555570 0.000000
vn 0.261478 -0.174714 -0.949265
vn -0.677140 0.452450 -0.580319
vn -0.798741 0.158879 0.580319
vn 0.308435 -0.061352 0.949265
vn 0.980785 -0.195090 0.000000
vn 0.308435 -0.061352 -0.949265
vn -0.798741 0.158879 -0.580319
vn -0.798741 -0.158879 0.580319
vn 0.308435 0.061352 0.949265
vn 0.980785 0.195090 0.000000
vn 0.308435 0.061352 -0.949265
vn -0.798741 -0.158879 -0.580319
vn -0.677140 -0.452450 0.580319
vn 0.261478 0.174714 0.949265
vn 0.831470 0.555570 0.000000
vn 0.261478 0.174714 -0.949265
vn -0.677140 -0.452450 -0.580319
vn -0.452450 -0.677140 0.580319
vn 0.174714 0.261478 0.949265
vn 0.555570 0.831470 0.000000
vn 0.174714 0.261478 -0.949265
vn -0.452450 -0.677140 -0.580319
vn -0.158879 -0.798741 0.580319
vn 0.061352 0.308435 0.949265
vn 0.195090 0.980785 0.000000
vn 0.061352 0.308435 -0.949265
vn -0.158879 -0.798741 -0.580319
vn 0.000000 0.000000 -1.000000
vn 0.382683 -0.923880 0.000000
vn 0.923880 -0.382683 0.000000
vn 0.923880 0.382683 0.000000
vn 0.382683 0.923880 0.000000
vn -0.382683 0.923880 0.000000
vn -0.923880 0.382683 0.000000
vn -0.923880 -0.382683 0.000000
vn -0.382683 -0.923880 0.000000
vn 0.000000 0.000000 1.000000
vn 0.000000 1.000000 0.000000
vn 0.000000 -1.000000 0.000000
vn 0.000000 1.000000 0.000000
vn 0.000000 -1.000000 0.000000
usemtl skin
f 1/1/1 2/2/1 3/3/1
f 4/4/2 5/5/2 6/6/2
f 4/4/2 6/6/2 7/7/2
f 5/8/3 4/9/3 8/10/3
f 8/11/4 4/12/4 7/13/4
f 9/14/5 10/15/5 11/16/5
f 9/14/5 12/17/5 10/15/5
f 9/14/5 13/18/5 12/17/5
f 9/14/5 14/19/5 13/18/5
f 9/14/5 15/20/5 14/19/5
f 9/14/5 16/21/5 15/20/5
f 9/14/5 17/22/5 16/21/5
f 9/14/5 11/16/5 17/22/5
f 11/23/6 10/24/6 18/25/6
f 11/23/6 18/25/6 19/26/6
f 10/27/7 12/28/7 20/29/7
f 10/27/7 20/29/7 18/30/7
f 12/28/8 13/31/8 21/32/8
f 12/28/8 21/32/8 20/29/8
f 13/24/9 14/23/9 22/26/9
f 13/24/9 22/26/9 21/25/9
f 14/23/10 15/33/10 23/34/10
f 14/23/10 23/34/10 22/26/10
f 15/35/11 16/36/11 24/36/11
f 15/35/11 24/36/11 23/35/11
f 16/36/12 17/37/12 25/37/12
f 16/36/12 25/37/12 24/36/12
f 17/33/13 11/23/13 19/26/13
f 17/33/13 19/26/13 25/34/13
f 19/38/14 18/39/14 26/40/14
f 18/39/14 20/41/14 26/40/14
f 20/41/14 21/42/14 26/40/14
f 21/42/14 22/43/14 26/40/14
f 22/43/14 23/44/14 26/40/14
f 23/44/14 24/45/14 26/40/14
f 24/45/14 25/46/14 26/40/14
f 25/46/14 19/38/14 26/40/14
f 27/47/15 28/48/15 29/49/15
f 27/47/15 29/49/15 30/50/15
f 31/51/16 32/52/16 33/53/16
f 31/51/16 33/53/16 34/54/16
f 30/55/17 29/56/17 34/57/17
f 30/55/17 34/57/17 33/58/17
f 32/58/18 31/57/18 28/56/18
f 32/58/18 28/56/18 27/55/18
f 32/59/19 27/60/19 30/61/19
f 32/59/19 30/61/19 33/62/19
f 28/60/20 31/59/20 34/62/20
f 28/60/20 34/62/20 29/61/20
f 35/63/21 36/64/21 37/65/21
f 35/63/21 37/65/21 38/66/21
f 38/67/22 37/68/22 39/69/22
f 38/67/22 39/69/22 40/70/22
f 40/71/23 39/72/23 41/73/23
f 40/71/23 41/73/23 42/74/23
f 42/75/24 41/76/24 43/77/24
f 42/75/24 43/77/24 44/78/24
f 44/79/25 43/80/25 36/64/25
f 44/79/25 36/64/25 35/63/25
f 36/64/26 45/81/26 46/82/26
f 36/64/26 46/82/26 37/65/26
f 37/68/27 46/83/27 47/84/27
f 37/68/27 47/84/27 39/69/27
f 39/72/28 47/85/28 48/86/28
f 39/72/28 48/86/28 41/73/28
f 41/76/29 48/87/29 49/88/29
f 41/76/29 49/88/29 43/77/29
f 43/80/30 49/89/30 45/81/30
f 43/80/30 45/81/30 36/64/30
f 45/90/31 50/91/31 51/92/31
f 45/90/31 51/92/31 46/93/31
f 46/83/32 51/94/32 52/95/32
f 46/83/32 52/95/32 47/84/32
f 47/96/33 52/97/33 53/98/33
f 47/96/33 53/98/33 48/99/33
f 48/87/34 53/100/34 54/101/34
f 48/87/34 54/101/34 49/88/34
f 49/102/35 54/103/35 50/91/35
f 49/102/35 50/91/35 45/90/35
f 50/91/36 55/104/36 56/105/36
f 50/91/36 56/105/36 51/92/36
f 51/94/37 56/106/37 57/107/37
f 51/94/37 57/107/37 52/95/37
f 52/97/38 57/108/38 58/109/38
f 52/97/38 58/109/38 53/98/38
f 53/100/39 58/110/39 59/111/39
f 53/100/39 59/111/39 54/101/39
f 54/103/40 59/112/40 55/104/40
f 54/103/40 55/104/40 50/91/40
f 55/104/41 60/113/41 61/114/41
f 55/104/41 61/114/41 56/105/41
f 56/106/42 61/115/42 62/116/42
f 56/106/42 62/116/42 57/107/42
f 57/108/43 62/117/43 63/118/43
f 57/108/43 63/118/43 58/109/43
f 58/110/44 63/119/44 64/120/44
f 58/110/44 64/120/44 59/111/44
f 59/112/45 64/121/45 60/113/45
f 59/112/45 60/113/45 55/104/45
f 60/113/46 65/122/46 66/123/46
f 60/113/46 66/123/46 61/114/46
f 61/115/47 66/124/47 67/125/47
f 61/115/47 67/125/47 62/116/47
f 62/117/48 67/126/48 68/127/48
f 62/117/48 68/127/48 63/118/48
f 63/119/49 68/128/49 69/129/49
f 63/119/49 69/129/49 64/120/49
f 64/121/50 69/130/50 65/122/50
f 64/121/50 65/122/50 60/113/50
f 65/81/51 70/64/51 71/65/51
f 65/81/51 71/65/51 66/82/51
f 66/124/52 71/131/52 72/132/52
f 66/124/52 72/132/52 67/125/52
f 67/85/53 72/72/53 73/73/53
f 67/85/53 73/73/53 68/86/53
f 68/128/54 73/133/54 74/134/54
f 68/128/54 74/134/54 69/129/54
f 69/89/55 74/80/55 70/64/55
f 69/89/55 70/64/55 65/81/55
f 70/64/56 75/63/56 76/66/56
f 70/64/56 76/66/56 71/65/56
f 71/131/57 76/135/57 77/136/57
f 71/131/57 77/136/57 72/132/57
f 72/72/58 77/71/58 78/74/58
f 72/72/58 78/74/58 73/73/58
f 73/133/59 78/137/59 79/138/59
f 73/133/59 79/138/59 74/134/59
f 74/80/60 79/79/60 75/63/60
f 74/80/60 75/63/60 70/64/60
f 75/63/61 80/139/61 81/140/61
f 75/63/61 81/140/61 76/66/61
f 76/135/62 81/141/62 82/142/62
f 76/135/62 82/142/62 77/136/62
f 77/71/63 82/143/63 83/144/63
f 77/71/63 83/144/63 78/74/63
f 78/137/64 83/145/64 84/146/64
f 78/137/64 84/146/64 79/138/64
f 79/79/65 84/147/65 80/139/65
f 79/79/65 80/139/65 75/63/65
f 80/139/66 85/148/66 86/149/66
f 80/139/66 86/149/66 81/140/66
f 81/141/67 86/150/67 87/151/67
f 81/141/67 87/151/67 82/142/67
f 82/143/68 87/152/68 88/153/68
f 82/143/68 88/153/68 83/144/68
f 83/145/69 88/154/69 89/155/69
f 83/145/69 89/155/69 84/146/69
f 84/147/70 89/156/70 85/148/70
f 84/147/70 85/148/70 80/139/70
f 85/122/71 90/113/71 91/114/71
f 85/122/71 91/114/71 86/123/71
f 86/150/72 91/157/72 92/158/72
f 86/150/72 92/158/72 87/151/72
f 87/126/73 92/117/73 93/118/73
f 87/126/73 93/118/73 88/127/73
f 88/154/74 93/159/74 94/160/74
f 88/154/74 94/160/74 89/155/74
f 89/130/75 94/121/75 90/113/75
f 89/130/75 90/113/75 85/122/75
f 90/113/76 95/104/76 96/105/76
f 90/113/76 96/105/76 91/114/76
f 91/157/77 96/161/77 97/162/77
f 91/157/77 97/162/77 92/158/77
f 92/117/78 97/108/78 98/109/78
f 92/117/78 98/109/78 93/118/78
f 93/159/79 98/163/79 99/164/79
f 93/159/79 99/164/79 94/160/79
f 94/121/80 99/112/80 95/104/80
f 94/121/80 95/104/80 90/113/80
f 95/104/81 100/91/81 101/92/81
f 95/104/81 101/92/81 96/105/81
f 96/161/82 101/165/82 102/166/82
f 96/161/82 102/166/82 97/162/82
f 97/108/83 102/97/83 103/98/83
f 97/108/83 103/98/83 98/109/83
f 98/163/84 103/167/84 104/168/84
f 98/163/84 104/168/84 99/164/84
f 99/112/85 104/103/85 100/91/85
f 99/112/85 100/91/85 95/104/85
f 100/91/86 105/90/86 106/93/86
f 100/91/86 106/93/86 101/92/86
f 101/165/87 106/169/87 107/170/87
f 101/165/87 107/170/87 102/166/87
f 102/97/88 107/96/88 108/99/88
f 102/97/88 108/99/88 103/98/88
f 103/167/89 108/171/89 109/172/89
f 103/167/89 109/172/89 104/168/89
f 104/103/90 109/102/90 105/90/90
f 104/103/90 105/90/90 100/91/90
f 105/148/91 110/139/91 111/140/91
f 105/148/91 111/140/91 106/149/91
f 106/169/92 111/173/92 112/174/92
f 106/169/92 112/174/92 107/170/92
f 107/152/93 112/143/93 113/144/93
f 107/152/93 113/144/93 108/153/93
f 108/171/94 113/175/94 114/176/94
f 108/171/94 114/176/94 109/172/94
f 109/156/95 114/147/95 110/139/95
f 109/156/95 110/139/95 105/148/95
f 110/139/96 35/63/96 38/66/96
f 110/139/96 38/66/96 111/140/96
f 111/173/97 38/67/97 40/70/97
f 111/173/97 40/70/97 112/174/97
f 112/143/98 40/71/98 42/74/98
f 112/143/98 42/74/98 113/144/98
f 113/175/99 42/75/99 44/78/99
f 113/175/99 44/78/99 114/176/99
f 114/147/100 44/79/100 35/63/100
f 114/147/100 35/63/100 110/139/100
f 115/177/101 116/178/101 117/179/101
f 115/177/101 118/180/101 116/178/101
f 115/177/101 119/181/101 118/180/101
f 115/177/101 120/182/101 119/181/101
f 115/177/101 121/183/101 120/182/101
f 115/177/101 122/184/101 121/183/101
f 115/177/101 123/185/101 122/184/101
f 115/177/101 117/179/101 123/185/101
f 117/186/102 116/187/102 124/188/102
f 117/186/102 124/188/102 125/189/102
f 116/190/103 118/191/103 126/192/103
f 116/190/103 126/192/103 124/193/103
f 118/191/104 119/194/104 127/195/104
f 118/191/104 127/195/104 126/192/104
f 119/187/105 120/186/105 128/189/105
f 119/187/105 128/189/105 127/188/105
f 120/186/106 121/196/106 129/197/106
f 120/186/106 129/197/106 128/189/106
f 121/194/107 122/191/107 130/192/107
f 121/194/107 130/192/107 129/195/107
f 122/191/108 123/190/108 131/193/108
f 122/191/108 131/193/108 130/192/108
f 123/196/109 117/186/109 125/189/109
f 123/196/109 125/189/109 131/197/109
f 125/198/110 124/199/110 132/200/110
f 124/199/110 126/201/110 132/200/110
f 126/201/110 127/202/110 132/200/110
f 127/202/110 128/203/110 132/200/110
f 128/203/110 129/204/110 132/200/110
f 129/204/110 130/205/110 132/200/110
f 130/205/110 131/206/110 132/200/110
f 131/206/110 125/198/110 132/200/110
usemtl interior
f 133/207/111 1/208/111 2/209/111
f 133/207/112 2/209/112 1/208/112
f 133/207/111 2/209/111 3/210/111
f 133/207/112 3/210/112 2/209/112
f 133/207/111 3/210/111 1/208/111
f 133/207/112 1/208/112 3/210/112
f 134/211/113 5/212/113 8/213/113
f 134/211/114 8/213/114 5/212/114
f 134/211/113 8/213/113 7/214/113
f 134/211/114 7/214/114 8/213/114
f 134/211/113 7/214/113 6/215/113
f 134/211/114 6/215/114 7/214/114
f 134/211/113 6/215/113 5/212/113
f 134/211/114 5/212/114 6/215/114
