# Helion battleship, fragment 1 of 8
# Generated by tools. Edit the generator script.
v 0.148193 0.518675 -2.232771
v -0.148193 0.518675 -2.232771
v -0.148193 0.815060 -2.232771
v 0.444578 0.790361 -1.845889
v -0.444578 0.790361 -1.845889
v -0.444578 1.333735 -1.845889
v -0.444578 1.333735 -1.154323
v 0.444578 0.000000 -1.845889
v -0.444578 0.000000 -1.845889
v -0.444578 0.543373 -1.845889
v -0.444578 0.543373 -1.154323
v -0.123494 0.222289 -1.845889
v -0.666867 0.222289 -1.845889
v -0.666867 1.111446 -1.845889
v -0.123494 1.111446 -1.845889
v -0.666867 1.111446 -1.154323
v -0.543373 1.062048 -2.430361
v -0.403656 0.922331 -2.430361
v -0.543373 0.864458 -2.430361
v -0.345783 1.062048 -2.430361
v -0.403656 1.201766 -2.430361
v -0.543373 1.259639 -2.430361
v -0.683091 1.201766 -2.430361
v -0.740964 1.062048 -2.430361
v -0.683091 0.922331 -2.430361
v -0.403656 0.922331 -1.640000
v -0.543373 0.864458 -1.640000
v -0.345783 1.062048 -1.640000
v -0.403656 1.201766 -1.640000
v -0.543373 1.259639 -1.640000
v -0.683091 1.201766 -1.640000
v -0.740964 1.062048 -1.640000
v -0.683091 0.922331 -1.640000
v -0.543373 1.062048 -1.640000
v -0.048695 0.751146 -1.995663
v -0.448191 1.041689 -1.995663
v -0.494678 0.977769 -1.995663
v -0.095182 0.687227 -1.995663
v -0.448191 1.041689 -2.074699
v -0.048695 0.751146 -2.074699
v -0.095182 0.687227 -2.074699
v -0.494678 0.977769 -2.074699
v -0.543373 0.829880 -2.035181
v -0.454526 0.847552 -2.035181
v -0.463670 0.869627 -2.002295
v -0.543373 0.853773 -2.002295
v -0.478464 0.905344 -2.014856
v -0.543373 0.892432 -2.014856
v -0.478464 0.905344 -2.055505
v -0.543373 0.892432 -2.055505
v -0.463670 0.869627 -2.068067
v -0.543373 0.853773 -2.068067
v -0.379205 0.897880 -2.035181
v -0.396100 0.914775 -2.002295
v -0.423437 0.942112 -2.014856
v -0.423437 0.942112 -2.055505
v -0.396100 0.914775 -2.068067
v -0.328878 0.973201 -2.035181
v -0.350952 0.982345 -2.002295
v -0.386669 0.997139 -2.014856
v -0.386669 0.997139 -2.055505
v -0.350952 0.982345 -2.068067
v -0.311205 1.062048 -2.035181
v -0.335098 1.062048 -2.002295
v -0.373758 1.062048 -2.014856
v -0.373758 1.062048 -2.055505
v -0.335098 1.062048 -2.068067
v -0.328878 1.150895 -2.035181
v -0.350952 1.141752 -2.002295
v -0.386669 1.126957 -2.014856
v -0.386669 1.126957 -2.055505
v -0.350952 1.141752 -2.068067
v -0.379205 1.226216 -2.035181
v -0.396100 1.209321 -2.002295
v -0.423437 1.181985 -2.014856
v -0.423437 1.181985 -2.055505
v -0.396100 1.209321 -2.068067
v -0.454526 1.276544 -2.035181
v -0.463670 1.254470 -2.002295
v -0.478464 1.218753 -2.014856
v -0.478464 1.218753 -2.055505
v -0.463670 1.254470 -2.068067
v -0.543373 1.294217 -2.035181
v -0.543373 1.270324 -2.002295
v -0.543373 1.231664 -2.014856
v -0.543373 1.231664 -2.055505
v -0.543373 1.270324 -2.068067
v -0.632221 1.276544 -2.035181
v -0.623077 1.254470 -2.002295
v -0.608283 1.218753 -2.014856
v -0.608283 1.218753 -2.055505
v -0.623077 1.254470 -2.068067
v -0.707542 1.226216 -2.035181
v -0.690647 1.209321 -2.002295
v -0.663310 1.181985 -2.014856
v -0.663310 1.181985 -2.055505
v -0.690647 1.209321 -2.068067
v -0.757869 1.150895 -2.035181
v -0.735795 1.141752 -2.002295
v -0.700078 1.126957 -2.014856
v -0.700078 1.126957 -2.055505
v -0.735795 1.141752 -2.068067
v -0.775542 1.062048 -2.035181
v -0.751649 1.062048 -2.002295
v -0.712989 1.062048 -2.014856
v -0.712989 1.062048 -2.055505
v -0.751649 1.062048 -2.068067
v -0.757869 0.973201 -2.035181
v -0.735795 0.982345 -2.002295
v -0.700078 0.997139 -2.014856
v -0.700078 0.997139 -2.055505
v -0.735795 0.982345 -2.068067
v -0.707542 0.897880 -2.035181
v -0.690647 0.914775 -2.002295
v -0.663310 0.942112 -2.014856
v -0.663310 0.942112 -2.055505
v -0.690647 0.914775 -2.068067
v -0.632221 0.847552 -2.035181
v -0.623077 0.869627 -2.002295
v -0.608283 0.905344 -2.014856
v -0.608283 0.905344 -2.055505
v -0.623077 0.869627 -2.068067
v -0.543373 1.062048 -2.460000
v -0.414833 0.933508 -2.460000
v -0.543373 0.880265 -2.460000
v -0.361590 1.062048 -2.460000
v -0.414833 1.190588 -2.460000
v -0.543373 1.243831 -2.460000
v -0.671914 1.190588 -2.460000
v -0.725157 1.062048 -2.460000
v -0.671914 0.933508 -2.460000
v -0.414833 0.933508 -2.361205
v -0.543373 0.880265 -2.361205
v -0.361590 1.062048 -2.361205
v -0.414833 1.190588 -2.361205
v -0.543373 1.243831 -2.361205
v -0.671914 1.190588 -2.361205
v -0.725157 1.062048 -2.361205
v -0.671914 0.933508 -2.361205
v -0.543373 1.062048 -2.361205
v -0.543373 0.271687 -2.430361
v -0.403656 0.131969 -2.430361
v -0.543373 0.074096 -2.430361
v -0.345783 0.271687 -2.430361
v -0.403656 0.411404 -2.430361
v -0.543373 0.469277 -2.430361
v -0.683091 0.411404 -2.430361
v -0.740964 0.271687 -2.430361
v -0.683091 0.131969 -2.430361
v -0.403656 0.131969 -1.640000
v -0.543373 0.074096 -1.640000
v -0.345783 0.271687 -1.640000
v -0.403656 0.411404 -1.640000
v -0.543373 0.469277 -1.640000
v -0.683091 0.411404 -1.640000
v -0.740964 0.271687 -1.640000
v -0.683091 0.131969 -1.640000
v -0.543373 0.271687 -1.640000
v -0.095182 0.646508 -1.995663
v -0.494678 0.355965 -1.995663
v -0.448191 0.292046 -1.995663
v -0.048695 0.582589 -1.995663
v -0.494678 0.355965 -2.074699
v -0.095182 0.646508 -2.074699
v -0.048695 0.582589 -2.074699
v -0.448191 0.292046 -2.074699
v -0.543373 0.039518 -2.035181
v -0.454526 0.057191 -2.035181
v -0.463670 0.079265 -2.002295
v -0.543373 0.063411 -2.002295
v -0.478464 0.114982 -2.014856
v -0.543373 0.102071 -2.014856
v -0.478464 0.114982 -2.055505
v -0.543373 0.102071 -2.055505
v -0.463670 0.079265 -2.068067
v -0.543373 0.063411 -2.068067
v -0.379205 0.107519 -2.035181
v -0.396100 0.124414 -2.002295
v -0.423437 0.151750 -2.014856
v -0.423437 0.151750 -2.055505
v -0.396100 0.124414 -2.068067
v -0.328878 0.182840 -2.035181
v -0.350952 0.191983 -2.002295
v -0.386669 0.206778 -2.014856
v -0.386669 0.206778 -2.055505
v -0.350952 0.191983 -2.068067
v -0.311205 0.271687 -2.035181
v -0.335098 0.271687 -2.002295
v -0.373758 0.271687 -2.014856
v -0.373758 0.271687 -2.055505
v -0.335098 0.271687 -2.068067
v -0.328878 0.360534 -2.035181
v -0.350952 0.351390 -2.002295
v -0.386669 0.336596 -2.014856
v -0.386669 0.336596 -2.055505
v -0.350952 0.351390 -2.068067
v -0.379205 0.435855 -2.035181
v -0.396100 0.418960 -2.002295
v -0.423437 0.391623 -2.014856
v -0.423437 0.391623 -2.055505
v -0.396100 0.418960 -2.068067
v -0.454526 0.486183 -2.035181
v -0.463670 0.464108 -2.002295
v -0.478464 0.428391 -2.014856
v -0.478464 0.428391 -2.055505
v -0.463670 0.464108 -2.068067
v -0.543373 0.503855 -2.035181
v -0.543373 0.479962 -2.002295
v -0.543373 0.441303 -2.014856
v -0.543373 0.441303 -2.055505
v -0.543373 0.479962 -2.068067
v -0.632221 0.486183 -2.035181
v -0.623077 0.464108 -2.002295
v -0.608283 0.428391 -2.014856
v -0.608283 0.428391 -2.055505
v -0.623077 0.464108 -2.068067
v -0.707542 0.435855 -2.035181
v -0.690647 0.418960 -2.002295
v -0.663310 0.391623 -2.014856
v -0.663310 0.391623 -2.055505
v -0.690647 0.418960 -2.068067
v -0.757869 0.360534 -2.035181
v -0.735795 0.351390 -2.002295
v -0.700078 0.336596 -2.014856
v -0.700078 0.336596 -2.055505
v -0.735795 0.351390 -2.068067
v -0.775542 0.271687 -2.035181
v -0.751649 0.271687 -2.002295
v -0.712989 0.271687 -2.014856
v -0.712989 0.271687 -2.055505
v -0.751649 0.271687 -2.068067
v -0.757869 0.182840 -2.035181
v -0.735795 0.191983 -2.002295
v -0.700078 0.206778 -2.014856
v -0.700078 0.206778 -2.055505
v -0.735795 0.191983 -2.068067
v -0.707542 0.107519 -2.035181
v -0.690647 0.124414 -2.002295
v -0.663310 0.151750 -2.014856
v -0.663310 0.151750 -2.055505
v -0.690647 0.124414 -2.068067
v -0.632221 0.057191 -2.035181
v -0.623077 0.079265 -2.002295
v -0.608283 0.114982 -2.014856
v -0.608283 0.114982 -2.055505
v -0.623077 0.079265 -2.068067
v -0.543373 0.271687 -2.460000
v -0.414833 0.143147 -2.460000
v -0.543373 0.089904 -2.460000
v -0.361590 0.271687 -2.460000
v -0.414833 0.400227 -2.460000
v -0.543373 0.453470 -2.460000
v -0.671914 0.400227 -2.460000
v -0.725157 0.271687 -2.460000
v -0.671914 0.143147 -2.460000
v -0.414833 0.143147 -2.361205
v -0.543373 0.089904 -2.361205
v -0.361590 0.271687 -2.361205
v -0.414833 0.400227 -2.361205
v -0.543373 0.453470 -2.361205
v -0.671914 0.400227 -2.361205
v -0.725157 0.271687 -2.361205
v -0.671914 0.143147 -2.361205
v -0.543373 0.271687 -2.361205
v -0.049398 0.617470 -2.232771
v -0.222289 0.271687 -1.672998
v -0.222289 1.062048 -1.672998
v -0.395181 0.666867 -1.672998
vt 0.968750 0.531250
vt 0.843750 0.531250
vt 0.843750 0.656250
vt 0.460938 0.382812
vt 0.335938 0.382812
vt 0.335938 0.476562
vt 0.109375 0.296875
vt 0.484375 0.375000
vt 0.109375 0.375000
vt 0.460938 0.382812
vt 0.335938 0.382812
vt 0.335938 0.476562
vt 0.109375 0.296875
vt 0.484375 0.375000
vt 0.109375 0.375000
vt 0.460938 0.382812
vt 0.335938 0.382812
vt 0.335938 0.476562
vt 0.460938 0.476562
vt 0.343750 0.992188
vt 0.546875 0.664062
vt 0.343750 0.664062
vt 0.109375 0.296875
vt 0.484375 0.375000
vt 0.109375 0.375000
vt 0.539062 0.234375
vt 0.572208 0.206754
vt 0.539062 0.195312
vt 0.585938 0.234375
vt 0.572208 0.261996
vt 0.539062 0.273438
vt 0.505917 0.261996
vt 0.492188 0.234375
vt 0.505917 0.206754
vt 0.589844 0.664062
vt 0.614703 0.664062
vt 0.614703 0.992188
vt 0.589844 0.992188
vt 0.327895 0.206754
vt 0.382812 0.234375
vt 0.327895 0.261996
vt 0.564985 0.664062
vt 0.564985 0.992188
vt 0.492188 0.363559
vt 0.492188 0.335938
vt 0.867188 0.335938
vt 0.867188 0.363559
vt 0.492188 0.308316
vt 0.867188 0.308316
vt 0.437500 0.195312
vt 0.470646 0.206754
vt 0.437500 0.234375
vt 0.484375 0.234375
vt 0.470646 0.261996
vt 0.437500 0.273438
vt 0.404354 0.261996
vt 0.390625 0.234375
vt 0.404354 0.206754
vt 0.968750 0.553791
vt 0.856779 0.656250
vt 0.843750 0.633709
vt 0.955721 0.531250
vt 0.856779 0.656250
vt 0.968750 0.553791
vt 0.955721 0.531250
vt 0.843750 0.633709
vt 0.955721 0.656250
vt 0.843750 0.656250
vt 0.843750 0.531250
vt 0.955721 0.531250
vt 0.968750 0.531250
vt 0.856779 0.531250
vt 0.856779 0.656250
vt 0.968750 0.656250
vt 0.843750 0.553791
vt 0.968750 0.553791
vt 0.968750 0.531250
vt 0.843750 0.531250
vt 0.968750 0.656250
vt 0.843750 0.656250
vt 0.843750 0.633709
vt 0.968750 0.633709
vt 0.718750 0.242187
vt 0.766585 0.242187
vt 0.761663 0.273438
vt 0.718750 0.273438
vt 0.515625 0.103171
vt 0.558538 0.104237
vt 0.550572 0.106641
vt 0.515625 0.105772
vt 0.718750 0.261501
vt 0.753697 0.261501
vt 0.753697 0.222874
vt 0.718750 0.222874
vt 0.515625 0.105772
vt 0.550572 0.106641
vt 0.558538 0.104237
vt 0.515625 0.103171
vt 0.718750 0.210938
vt 0.761663 0.210938
vt 0.807138 0.242187
vt 0.798042 0.273438
vt 0.594917 0.107276
vt 0.580199 0.109116
vt 0.783324 0.261501
vt 0.783324 0.222874
vt 0.580199 0.109116
vt 0.594917 0.107276
vt 0.798042 0.210938
vt 0.515625 0.106139
vt 0.515625 0.111208
vt 0.640625 0.111823
vt 0.640625 0.107276
vt 0.619225 0.111823
vt 0.599995 0.112819
vt 0.592879 0.109116
vt 0.592879 0.112819
vt 0.438371 0.112819
vt 0.438371 0.109116
vt 0.599995 0.112819
vt 0.619225 0.111823
vt 0.390625 0.107276
vt 0.390625 0.111823
vt 0.515625 0.117188
vt 0.640625 0.117188
vt 0.627761 0.117188
vt 0.606946 0.117188
vt 0.592879 0.117188
vt 0.438371 0.117188
vt 0.606946 0.117188
vt 0.627761 0.117188
vt 0.390625 0.117188
vt 0.515625 0.123167
vt 0.640625 0.122552
vt 0.619225 0.122552
vt 0.599995 0.121556
vt 0.592879 0.121556
vt 0.438371 0.121556
vt 0.599995 0.121556
vt 0.619225 0.122552
vt 0.390625 0.122552
vt 0.515625 0.128236
vt 0.640625 0.127099
vt 0.594917 0.127099
vt 0.580199 0.125259
vt 0.592879 0.125259
vt 0.438371 0.125259
vt 0.580199 0.125259
vt 0.594917 0.127099
vt 0.390625 0.127099
vt 0.558538 0.130138
vt 0.550572 0.127734
vt 0.550572 0.127734
vt 0.558538 0.130138
vt 0.515625 0.131204
vt 0.515625 0.128603
vt 0.515625 0.128603
vt 0.515625 0.131204
vt 0.670915 0.242187
vt 0.675837 0.273438
vt 0.472712 0.130138
vt 0.480678 0.127734
vt 0.683803 0.261501
vt 0.683803 0.222874
vt 0.480678 0.127734
vt 0.472712 0.130138
vt 0.675837 0.210938
vt 0.630362 0.242187
vt 0.639458 0.273438
vt 0.436333 0.127099
vt 0.451051 0.125259
vt 0.654176 0.261501
vt 0.654176 0.222874
vt 0.451051 0.125259
vt 0.436333 0.127099
vt 0.639458 0.210938
vt 0.412025 0.122552
vt 0.431255 0.121556
vt 0.431255 0.121556
vt 0.412025 0.122552
vt 0.403489 0.117188
vt 0.424304 0.117188
vt 0.424304 0.117188
vt 0.403489 0.117188
vt 0.412025 0.111823
vt 0.431255 0.112819
vt 0.431255 0.112819
vt 0.412025 0.111823
vt 0.436333 0.107276
vt 0.451051 0.109116
vt 0.451051 0.109116
vt 0.436333 0.107276
vt 0.472712 0.104237
vt 0.480678 0.106641
vt 0.480678 0.106641
vt 0.472712 0.104237
vt 0.054688 0.328125
vt 0.087833 0.294979
vt 0.054688 0.281250
vt 0.101562 0.328125
vt 0.087833 0.361271
vt 0.054688 0.375000
vt 0.021542 0.361271
vt 0.007812 0.328125
vt 0.021542 0.294979
vt 0.054688 0.281250
vt 0.087833 0.281250
vt 0.087833 0.375000
vt 0.054688 0.375000
vt 0.007812 0.294979
vt 0.007812 0.328125
vt 0.101562 0.328125
vt 0.101562 0.294979
vt 0.007812 0.361271
vt 0.101562 0.361271
vt 0.021542 0.281250
vt 0.021542 0.375000
vt 0.054688 0.281250
vt 0.087833 0.294979
vt 0.054688 0.328125
vt 0.101562 0.328125
vt 0.087833 0.361271
vt 0.054688 0.375000
vt 0.021542 0.361271
vt 0.007812 0.328125
vt 0.021542 0.294979
vt 0.539062 0.234375
vt 0.572208 0.206754
vt 0.539062 0.195312
vt 0.585938 0.234375
vt 0.572208 0.261996
vt 0.539062 0.273438
vt 0.505917 0.261996
vt 0.492188 0.234375
vt 0.505917 0.206754
vt 0.589844 0.664062
vt 0.614703 0.664062
vt 0.614703 0.992188
vt 0.589844 0.992188
vt 0.327895 0.206754
vt 0.382812 0.234375
vt 0.327895 0.261996
vt 0.564985 0.664062
vt 0.564985 0.992188
vt 0.492188 0.363559
vt 0.492188 0.335938
vt 0.867188 0.335938
vt 0.867188 0.363559
vt 0.492188 0.308316
vt 0.867188 0.308316
vt 0.437500 0.195312
vt 0.470646 0.206754
vt 0.437500 0.234375
vt 0.484375 0.234375
vt 0.470646 0.261996
vt 0.437500 0.273438
vt 0.404354 0.261996
vt 0.390625 0.234375
vt 0.404354 0.206754
vt 0.955721 0.656250
vt 0.843750 0.553791
vt 0.856779 0.531250
vt 0.968750 0.633709
vt 0.843750 0.553791
vt 0.955721 0.656250
vt 0.968750 0.633709
vt 0.856779 0.531250
vt 0.968750 0.656250
vt 0.856779 0.656250
vt 0.856779 0.531250
vt 0.968750 0.531250
vt 0.955721 0.531250
vt 0.843750 0.531250
vt 0.843750 0.656250
vt 0.955721 0.656250
vt 0.843750 0.656250
vt 0.968750 0.656250
vt 0.968750 0.633709
vt 0.843750 0.633709
vt 0.968750 0.553791
vt 0.843750 0.553791
vt 0.843750 0.531250
vt 0.968750 0.531250
vt 0.718750 0.242187
vt 0.766585 0.242187
vt 0.761663 0.273438
vt 0.718750 0.273438
vt 0.515625 0.103171
vt 0.558538 0.104237
vt 0.550572 0.106641
vt 0.515625 0.105772
vt 0.718750 0.261501
vt 0.753697 0.261501
vt 0.753697 0.222874
vt 0.718750 0.222874
vt 0.515625 0.105772
vt 0.550572 0.106641
vt 0.558538 0.104237
vt 0.515625 0.103171
vt 0.718750 0.210938
vt 0.761663 0.210938
vt 0.807138 0.242187
vt 0.798042 0.273438
vt 0.594917 0.107276
vt 0.580199 0.109116
vt 0.783324 0.261501
vt 0.783324 0.222874
vt 0.580199 0.109116
vt 0.594917 0.107276
vt 0.798042 0.210938
vt 0.515625 0.106139
vt 0.515625 0.111208
vt 0.640625 0.111823
vt 0.640625 0.107276
vt 0.619225 0.111823
vt 0.599995 0.112819
vt 0.592879 0.109116
vt 0.592879 0.112819
vt 0.438371 0.112819
vt 0.438371 0.109116
vt 0.599995 0.112819
vt 0.619225 0.111823
vt 0.390625 0.107276
vt 0.390625 0.111823
vt 0.515625 0.117188
vt 0.640625 0.117188
vt 0.627761 0.117188
vt 0.606946 0.117188
vt 0.592879 0.117188
vt 0.438371 0.117188
vt 0.606946 0.117188
vt 0.627761 0.117188
vt 0.390625 0.117188
vt 0.515625 0.123167
vt 0.640625 0.122552
vt 0.619225 0.122552
vt 0.599995 0.121556
vt 0.592879 0.121556
vt 0.438371 0.121556
vt 0.599995 0.121556
vt 0.619225 0.122552
vt 0.390625 0.122552
vt 0.515625 0.128236
vt 0.640625 0.127099
vt 0.594917 0.127099
vt 0.580199 0.125259
vt 0.592879 0.125259
vt 0.438371 0.125259
vt 0.580199 0.125259
vt 0.594917 0.127099
vt 0.390625 0.127099
vt 0.558538 0.130138
vt 0.550572 0.127734
vt 0.550572 0.127734
vt 0.558538 0.130138
vt 0.515625 0.131204
vt 0.515625 0.128603
vt 0.515625 0.128603
vt 0.515625 0.131204
vt 0.670915 0.242187
vt 0.675837 0.273438
vt 0.472712 0.130138
vt 0.480678 0.127734
vt 0.683803 0.261501
vt 0.683803 0.222874
vt 0.480678 0.127734
vt 0.472712 0.130138
vt 0.675837 0.210938
vt 0.630362 0.242187
vt 0.639458 0.273438
vt 0.436333 0.127099
vt 0.451051 0.125259
vt 0.654176 0.261501
vt 0.654176 0.222874
vt 0.451051 0.125259
vt 0.436333 0.127099
vt 0.639458 0.210938
vt 0.412025 0.122552
vt 0.431255 0.121556
vt 0.431255 0.121556
vt 0.412025 0.122552
vt 0.403489 0.117188
vt 0.424304 0.117188
vt 0.424304 0.117188
vt 0.403489 0.117188
vt 0.412025 0.111823
vt 0.431255 0.112819
vt 0.431255 0.112819
vt 0.412025 0.111823
vt 0.436333 0.107276
vt 0.451051 0.109116
vt 0.451051 0.109116
vt 0.436333 0.107276
vt 0.472712 0.104237
vt 0.480678 0.106641
vt 0.480678 0.106641
vt 0.472712 0.104237
vt 0.054688 0.328125
vt 0.087833 0.294979
vt 0.054688 0.281250
vt 0.101562 0.328125
vt 0.087833 0.361271
vt 0.054688 0.375000
vt 0.021542 0.361271
vt 0.007812 0.328125
vt 0.021542 0.294979
vt 0.054688 0.281250
vt 0.087833 0.281250
vt 0.087833 0.375000
vt 0.054688 0.375000
vt 0.007812 0.294979
vt 0.007812 0.328125
vt 0.101562 0.328125
vt 0.101562 0.294979
vt 0.007812 0.361271
vt 0.101562 0.361271
vt 0.021542 0.281250
vt 0.021542 0.375000
vt 0.054688 0.281250
vt 0.087833 0.294979
vt 0.054688 0.328125
vt 0.101562 0.328125
vt 0.087833 0.361271
vt 0.054688 0.375000
vt 0.021542 0.361271
vt 0.007812 0.328125
vt 0.021542 0.294979
vt 0.353333 0.353333
vt 0.060000 0.940000
vt 0.060000 0.060000
vt 0.940000 0.060000
vt 0.280000 0.280000
vt 0.060000 0.060000
vt 0.060000 0.940000
vt 0.060000 0.060000
vt 0.940000 0.060000
vt 0.280000 0.280000
vt 0.940000 0.060000
vt 0.060000 0.060000
vt 0.060000 0.940000
vt 0.060000 0.060000
vt 0.500000 0.280000
vt 0.060000 0.060000
vt 0.060000 0.060000
vt 0.940000 0.940000
vt 0.940000 0.060000
vn 0.000000 0.000000 -1.000000
vn 0.000000 0.000000 -1.000000
vn -1.000000 0.000000 0.000000
vn 0.000000 0.000000 -1.000000
vn -1.000000 0.000000 0.000000
vn 0.000000 0.000000 -1.000000
vn -0.000000 1.000000 0.000000
vn -1.000000 0.000000 0.000000
vn 0.000000 0.000000 -1.000000
vn 0.382683 -0.923880 0.000000
vn 0.923880 -0.382683 0.000000
vn 0.923880 0.382683 -0.000000
vn 0.382683 0.923880 0.000000
vn -0.382683 0.923880 0.000000
vn -0.923880 0.382683 -0.000000
vn -0.923880 -0.382683 0.000000
vn -0.382683 -0.923880 0.000000
vn 0.000000 0.000000 1.000000
vn 0.000000 0.000000 1.000000
vn 0.000000 0.000000 -1.000000
vn -0.588172 -0.808736 0.000000
vn 0.588172 0.808736 0.000000
vn 0.808736 -0.588172 0.000000
vn -0.808736 0.588172 0.000000
vn 0.158879 -0.798741 0.580319
vn -0.061352 0.308435 0.949265
vn -0.195090 0.980785 0.000000
vn -0.061352 0.308435 -0.949265
vn 0.158879 -0.798741 -0.580319
vn 0.452450 -0.677140 0.580319
vn -0.174714 0.261478 0.949265
vn -0.555570 0.831470 0.000000
vn -0.174714 0.261478 -0.949265
vn 0.452450 -0.677140 -0.580319
vn 0.677140 -0.452450 0.580319
vn -0.261478 0.174714 0.949265
vn -0.831470 0.555570 0.000000
vn -0.261478 0.174714 -0.949265
vn 0.677140 -0.452450 -0.580319
vn 0.798741 -0.158879 0.580319
vn -0.308435 0.061352 0.949265
vn -0.980785 0.195090 0.000000
vn -0.308435 0.061352 -0.949265
vn 0.798741 -0.158879 -0.580319
vn 0.798741 0.158879 0.580319
vn -0.308435 -0.061352 0.949265
vn -0.980785 -0.195090 0.000000
vn -0.308435 -0.061352 -0.949265
vn 0.798741 0.158879 -0.580319
vn 0.677140 0.452450 0.580319
vn -0.261478 -0.174714 0.949265
vn -0.831470 -0.555570 0.000000
vn -0.261478 -0.174714 -0.949265
vn 0.677140 0.452450 -0.580319
vn 0.452450 0.677140 0.580319
vn -0.174714 -0.261478 0.949265
vn -0.555570 -0.831470 0.000000
vn -0.174714 -0.261478 -0.949265
vn 0.452450 0.677140 -0.580319
vn 0.158879 0.798741 0.580319
vn -0.061352 -0.308435 0.949265
vn -0.195090 -0.980785 0.000000
vn -0.061352 -0.308435 -0.949265
vn 0.158879 0.798741 -0.580319
vn -0.158879 0.798741 0.580319
vn 0.061352 -0.308435 0.949265
vn 0.195090 -0.980785 0.000000
vn 0.061352 -0.308435 -0.949265
vn -0.158879 0.798741 -0.580319
vn -0.452450 0.677140 0.580319
vn 0.174714 -0.261478 0.949265
vn 0.555570 -0.831470 0.000000
vn 0.174714 -0.261478 -0.949265
vn -0.452450 0.677140 -0.580319
vn -0.677140 0.452450 0.580319
vn 0.261478 -0.174714 0.949265
vn 0.831470 -0.555570 0.000000
vn 0.261478 -0.174714 -0.949265
vn -0.677140 0.452450 -0.580319
vn -0.798741 0.158879 0.580319
vn 0.308435 -0.061352 0.949265
vn 0.980785 -0.195090 0.000000
vn 0.308435 -0.061352 -0.949265
vn -0.798741 0.158879 -0.580319
vn -0.798741 -0.158879 0.580319
vn 0.308435 0.061352 0.949265
vn 0.980785 0.195090 0.000000
vn 0.308435 0.061352 -0.949265
vn -0.798741 -0.158879 -0.580319
vn -0.677140 -0.452450 0.580319
vn 0.261478 0.174714 0.949265
vn 0.831470 0.555570 0.000000
vn 0.261478 0.174714 -0.949265
vn -0.677140 -0.452450 -0.580319
vn -0.452450 -0.677140 0.580319
vn 0.174714 0.261478 0.949265
vn 0.555570 0.831470 0.000000
vn 0.174714 0.261478 -0.949265
vn -0.452450 -0.677140 -0.580319
vn -0.158879 -0.798741 0.580319
vn 0.061352 0.308435 0.949265
vn 0.195090 0.980785 0.000000
vn 0.061352 0.308435 -0.949265
vn -0.158879 -0.798741 -0.580319
vn 0.000000 0.000000 -1.000000
vn 0.382683 -0.923880 0.000000
vn 0.923880 -0.382683 0.000000
vn 0.923880 0.382683 0.000000
vn 0.382683 0.923880 0.000000
vn -0.382683 0.923880 0.000000
vn -0.923880 0.382683 0.000000
vn -0.923880 -0.382683 0.000000
vn -0.382683 -0.923880 0.000000
vn 0.000000 0.000000 1.000000
vn 0.000000 0.000000 -1.000000
vn 0.382683 -0.923880 0.000000
vn 0.923880 -0.382683 0.000000
vn 0.923880 0.382683 -0.000000
vn 0.382683 0.923880 0.000000
vn -0.382683 0.923880 -0.000000
vn -0.923880 0.382683 -0.000000
vn -0.923880 -0.382683 0.000000
vn -0.382683 -0.923880 0.000000
vn 0.000000 0.000000 1.000000
vn 0.000000 0.000000 1.000000
vn 0.000000 0.000000 -1.000000
vn 0.588172 -0.808736 0.000000
vn -0.588172 0.808736 0.000000
vn 0.808736 0.588172 -0.000000
vn -0.808736 -0.588172 -0.000000
vn 0.158879 -0.798741 0.580319
vn -0.061352 0.308435 0.949265
vn -0.195090 0.980785 0.000000
vn -0.061352 0.308435 -0.949265
vn 0.158879 -0.798741 -0.580319
vn 0.452450 -0.677140 0.580319
vn -0.174714 0.261478 0.949265
vn -0.555570 0.831470 0.000000
vn -0.174714 0.261478 -0.949265
vn 0.452450 -0.677140 -0.580319
vn 0.677140 -0.452450 0.580319
vn -0.261478 0.174714 0.949265
vn -0.831470 0.555570 0.000000
vn -0.261478 0.174714 -0.949265
vn 0.677140 -0.452450 -0.580319
vn 0.798741 -0.158879 0.580319
vn -0.308435 0.061352 0.949265
vn -0.980785 0.195090 0.000000
vn -0.308435 0.061352 -0.949265
vn 0.798741 -0.158879 -0.580319
vn 0.798741 0.158879 0.580319
vn -0.308435 -0.061352 0.949265
vn -0.980785 -0.195090 0.000000
vn -0.308435 -0.061352 -0.949265
vn 0.798741 0.158879 -0.580319
vn 0.677140 0.452450 0.580319
vn -0.261478 -0.174714 0.949265
vn -0.831470 -0.555570 0.000000
vn -0.261478 -0.174714 -0.949265
vn 0.677140 0.452450 -0.580319
vn 0.452450 0.677140 0.580319
vn -0.174714 -0.261478 0.949265
vn -0.555570 -0.831470 0.000000
vn -0.174714 -0.261478 -0.949265
vn 0.452450 0.677140 -0.580319
vn 0.158879 0.798741 0.580319
vn -0.061352 -0.308435 0.949265
vn -0.195090 -0.980785 0.000000
vn -0.061352 -0.308435 -0.949265
vn 0.158879 0.798741 -0.580319
vn -0.158879 0.798741 0.580319
vn 0.061352 -0.308435 0.949265
vn 0.195090 -0.980785 0.000000
vn 0.061352 -0.308435 -0.949265
vn -0.158879 0.798741 -0.580319
vn -0.452450 0.677140 0.580319
vn 0.174714 -0.261478 0.949265
vn 0.555570 -0.831470 0.000000
vn 0.174714 -0.261478 -0.949265
vn -0.452450 0.677140 -0.580319
vn -0.677140 0.452450 0.580319
vn 0.261478 -0.174714 0.949265
vn 0.831470 -0.555570 0.000000
vn 0.261478 -0.174714 -0.949265
vn -0.677140 0.452450 -0.580319
vn -0.798741 0.158879 0.580319
vn 0.308435 -0.061352 0.949265
vn 0.980785 -0.195090 0.000000
vn 0.308435 -0.061352 -0.949265
vn -0.798741 0.158879 -0.580319
vn -0.798741 -0.158879 0.580319
vn 0.308435 0.061352 0.949265
vn 0.980785 0.195090 0.000000
vn 0.308435 0.061352 -0.949265
vn -0.798741 -0.158879 -0.580319
vn -0.677140 -0.452450 0.580319
vn 0.261478 0.174714 0.949265
vn 0.831470 0.555570 0.000000
vn 0.261478 0.174714 -0.949265
vn -0.677140 -0.452450 -0.580319
vn -0.452450 -0.677140 0.580319
vn 0.174714 0.261478 0.949265
vn 0.555570 0.831470 0.000000
vn 0.174714 0.261478 -0.949265
vn -0.452450 -0.677140 -0.580319
vn -0.158879 -0.798741 0.580319
vn 0.061352 0.308435 0.949265
vn 0.195090 0.980785 0.000000
vn 0.061352 0.308435 -0.949265
vn -0.158879 -0.798741 -0.580319
vn 0.000000 0.000000 -1.000000
vn 0.382683 -0.923880 0.000000
vn 0.923880 -0.382683 0.000000
vn 0.923880 0.382683 0.000000
vn 0.382683 0.923880 0.000000
vn -0.382683 0.923880 0.000000
vn -0.923880 0.382683 0.000000
vn -0.923880 -0.382683 0.000000
vn -0.382683 -0.923880 0.000000
vn 0.000000 0.000000 1.000000
vn 0.000000 1.000000 0.000000
vn 0.000000 -1.000000 0.000000
vn 0.000000 1.000000 0.000000
vn 0.000000 -1.000000 0.000000
vn 0.000000 1.000000 0.000000
vn 0.000000 -1.000000 0.000000
vn 0.000000 1.000000 0.000000
vn 0.000000 -1.000000 0.000000
usemtl skin
f 1/1/1 2/2/1 3/3/1
f 4/4/2 5/5/2 6/6/2
f 5/7/3 7/8/3 6/9/3
f 8/10/4 9/11/4 10/12/4
f 9/13/5 11/14/5 10/15/5
f 12/16/6 13/17/6 14/18/6
f 12/16/6 14/18/6 15/19/6
f 16/20/7 15/21/7 14/22/7
f 13/23/8 16/24/8 14/25/8
f 17/26/9 18/27/9 19/28/9
f 17/26/9 20/29/9 18/27/9
f 17/26/9 21/30/9 20/29/9
f 17/26/9 22/31/9 21/30/9
f 17/26/9 23/32/9 22/31/9
f 17/26/9 24/33/9 23/32/9
f 17/26/9 25/34/9 24/33/9
f 17/26/9 19/28/9 25/34/9
f 19/35/10 18/36/10 26/37/10
f 19/35/10 26/37/10 27/38/10
f 18/39/11 20/40/11 28/40/11
f 18/39/11 28/40/11 26/39/11
f 20/40/12 21/41/12 29/41/12
f 20/40/12 29/41/12 28/40/12
f 21/36/13 22/35/13 30/38/13
f 21/36/13 30/38/13 29/37/13
f 22/35/14 23/42/14 31/43/14
f 22/35/14 31/43/14 30/38/14
f 23/44/15 24/45/15 32/46/15
f 23/44/15 32/46/15 31/47/15
f 24/45/16 25/48/16 33/49/16
f 24/45/16 33/49/16 32/46/16
f 25/42/17 19/35/17 27/38/17
f 25/42/17 27/38/17 33/43/17
f 27/50/18 26/51/18 34/52/18
f 26/51/18 28/53/18 34/52/18
f 28/53/18 29/54/18 34/52/18
f 29/54/18 30/55/18 34/52/18
f 30/55/18 31/56/18 34/52/18
f 31/56/18 32/57/18 34/52/18
f 32/57/18 33/58/18 34/52/18
f 33/58/18 27/50/18 34/52/18
f 35/59/19 36/60/19 37/61/19
f 35/59/19 37/61/19 38/62/19
f 39/63/20 40/64/20 41/65/20
f 39/63/20 41/65/20 42/66/20
f 38/67/21 37/68/21 42/69/21
f 38/67/21 42/69/21 41/70/21
f 40/71/22 39/72/22 36/73/22
f 40/71/22 36/73/22 35/74/22
f 40/75/23 35/76/23 38/77/23
f 40/75/23 38/77/23 41/78/23
f 36/79/24 39/80/24 42/81/24
f 36/79/24 42/81/24 37/82/24
f 43/83/25 44/84/25 45/85/25
f 43/83/25 45/85/25 46/86/25
f 46/87/26 45/88/26 47/89/26
f 46/87/26 47/89/26 48/90/26
f 48/91/27 47/92/27 49/93/27
f 48/91/27 49/93/27 50/94/27
f 50/95/28 49/96/28 51/97/28
f 50/95/28 51/97/28 52/98/28
f 52/99/29 51/100/29 44/84/29
f 52/99/29 44/84/29 43/83/29
f 44/84/30 53/101/30 54/102/30
f 44/84/30 54/102/30 45/85/30
f 45/88/31 54/103/31 55/104/31
f 45/88/31 55/104/31 47/89/31
f 47/92/32 55/105/32 56/106/32
f 47/92/32 56/106/32 49/93/32
f 49/96/33 56/107/33 57/108/33
f 49/96/33 57/108/33 51/97/33
f 51/100/34 57/109/34 53/101/34
f 51/100/34 53/101/34 44/84/34
f 53/110/35 58/111/35 59/112/35
f 53/110/35 59/112/35 54/113/35
f 54/103/36 59/114/36 60/115/36
f 54/103/36 60/115/36 55/104/36
f 55/116/37 60/117/37 61/118/37
f 55/116/37 61/118/37 56/119/37
f 56/107/38 61/120/38 62/121/38
f 56/107/38 62/121/38 57/108/38
f 57/122/39 62/123/39 58/111/39
f 57/122/39 58/111/39 53/110/39
f 58/111/40 63/124/40 64/125/40
f 58/111/40 64/125/40 59/112/40
f 59/114/41 64/126/41 65/127/41
f 59/114/41 65/127/41 60/115/41
f 60/117/42 65/128/42 66/129/42
f 60/117/42 66/129/42 61/118/42
f 61/120/43 66/130/43 67/131/43
f 61/120/43 67/131/43 62/121/43
f 62/123/44 67/132/44 63/124/44
f 62/123/44 63/124/44 58/111/44
f 63/124/45 68/133/45 69/134/45
f 63/124/45 69/134/45 64/125/45
f 64/126/46 69/135/46 70/136/46
f 64/126/46 70/136/46 65/127/46
f 65/128/47 70/137/47 71/138/47
f 65/128/47 71/138/47 66/129/47
f 66/130/48 71/139/48 72/140/48
f 66/130/48 72/140/48 67/131/48
f 67/132/49 72/141/49 68/133/49
f 67/132/49 68/133/49 63/124/49
f 68/133/50 73/142/50 74/143/50
f 68/133/50 74/143/50 69/134/50
f 69/135/51 74/144/51 75/145/51
f 69/135/51 75/145/51 70/136/51
f 70/137/52 75/146/52 76/147/52
f 70/137/52 76/147/52 71/138/52
f 71/139/53 76/148/53 77/149/53
f 71/139/53 77/149/53 72/140/53
f 72/141/54 77/150/54 73/142/54
f 72/141/54 73/142/54 68/133/54
f 73/101/55 78/84/55 79/85/55
f 73/101/55 79/85/55 74/102/55
f 74/144/56 79/151/56 80/152/56
f 74/144/56 80/152/56 75/145/56
f 75/105/57 80/92/57 81/93/57
f 75/105/57 81/93/57 76/106/57
f 76/148/58 81/153/58 82/154/58
f 76/148/58 82/154/58 77/149/58
f 77/109/59 82/100/59 78/84/59
f 77/109/59 78/84/59 73/101/59
f 78/84/60 83/83/60 84/86/60
f 78/84/60 84/86/60 79/85/60
f 79/151/61 84/155/61 85/156/61
f 79/151/61 85/156/61 80/152/61
f 80/92/62 85/91/62 86/94/62
f 80/92/62 86/94/62 81/93/62
f 81/153/63 86/157/63 87/158/63
f 81/153/63 87/158/63 82/154/63
f 82/100/64 87/99/64 83/83/64
f 82/100/64 83/83/64 78/84/64
f 83/83/65 88/159/65 89/160/65
f 83/83/65 89/160/65 84/86/65
f 84/155/66 89/161/66 90/162/66
f 84/155/66 90/162/66 85/156/66
f 85/91/67 90/163/67 91/164/67
f 85/91/67 91/164/67 86/94/67
f 86/157/68 91/165/68 92/166/68
f 86/157/68 92/166/68 87/158/68
f 87/99/69 92/167/69 88/159/69
f 87/99/69 88/159/69 83/83/69
f 88/159/70 93/168/70 94/169/70
f 88/159/70 94/169/70 89/160/70
f 89/161/71 94/170/71 95/171/71
f 89/161/71 95/171/71 90/162/71
f 90/163/72 95/172/72 96/173/72
f 90/163/72 96/173/72 91/164/72
f 91/165/73 96/174/73 97/175/73
f 91/165/73 97/175/73 92/166/73
f 92/167/74 97/176/74 93/168/74
f 92/167/74 93/168/74 88/159/74
f 93/142/75 98/133/75 99/134/75
f 93/142/75 99/134/75 94/143/75
f 94/170/76 99/177/76 100/178/76
f 94/170/76 100/178/76 95/171/76
f 95/146/77 100/137/77 101/138/77
f 95/146/77 101/138/77 96/147/77
f 96/174/78 101/179/78 102/180/78
f 96/174/78 102/180/78 97/175/78
f 97/150/79 102/141/79 98/133/79
f 97/150/79 98/133/79 93/142/79
f 98/133/80 103/124/80 104/125/80
f 98/133/80 104/125/80 99/134/80
f 99/177/81 104/181/81 105/182/81
f 99/177/81 105/182/81 100/178/81
f 100/137/82 105/128/82 106/129/82
f 100/137/82 106/129/82 101/138/82
f 101/179/83 106/183/83 107/184/83
f 101/179/83 107/184/83 102/180/83
f 102/141/84 107/132/84 103/124/84
f 102/141/84 103/124/84 98/133/84
f 103/124/85 108/111/85 109/112/85
f 103/124/85 109/112/85 104/125/85
f 104/181/86 109/185/86 110/186/86
f 104/181/86 110/186/86 105/182/86
f 105/128/87 110/117/87 111/118/87
f 105/128/87 111/118/87 106/129/87
f 106/183/88 111/187/88 112/188/88
f 106/183/88 112/188/88 107/184/88
f 107/132/89 112/123/89 108/111/89
f 107/132/89 108/111/89 103/124/89
f 108/111/90 113/110/90 114/113/90
f 108/111/90 114/113/90 109/112/90
f 109/185/91 114/189/91 115/190/91
f 109/185/91 115/190/91 110/186/91
f 110/117/92 115/116/92 116/119/92
f 110/117/92 116/119/92 111/118/92
f 111/187/93 116/191/93 117/192/93
f 111/187/93 117/192/93 112/188/93
f 112/123/94 117/122/94 113/110/94
f 112/123/94 113/110/94 108/111/94
f 113/168/95 118/159/95 119/160/95
f 113/168/95 119/160/95 114/169/95
f 114/189/96 119/193/96 120/194/96
f 114/189/96 120/194/96 115/190/96
f 115/172/97 120/163/97 121/164/97
f 115/172/97 121/164/97 116/173/97
f 116/191/98 121/195/98 122/196/98
f 116/191/98 122/196/98 117/192/98
f 117/176/99 122/167/99 118/159/99
f 117/176/99 118/159/99 113/168/99
f 118/159/100 43/83/100 46/86/100
f 118/159/100 46/86/100 119/160/100
f 119/193/101 46/87/101 48/90/101
f 119/193/101 48/90/101 120/194/101
f 120/163/102 48/91/102 50/94/102
f 120/163/102 50/94/102 121/164/102
f 121/195/103 50/95/103 52/98/103
f 121/195/103 52/98/103 122/196/103
f 122/167/104 52/99/104 43/83/104
f 122/167/104 43/83/104 118/159/104
f 123/197/105 124/198/105 125/199/105
f 123/197/105 126/200/105 124/198/105
f 123/197/105 127/201/105 126/200/105
f 123/197/105 128/202/105 127/201/105
f 123/197/105 129/203/105 128/202/105
f 123/197/105 130/204/105 129/203/105
f 123/197/105 131/205/105 130/204/105
f 123/197/105 125/199/105 131/205/105
f 125/206/106 124/207/106 132/208/106
f 125/206/106 132/208/106 133/209/106
f 124/210/107 126/211/107 134/212/107
f 124/210/107 134/212/107 132/213/107
f 126/211/108 127/214/108 135/215/108
f 126/211/108 135/215/108 134/212/108
f 127/207/109 128/206/109 136/209/109
f 127/207/109 136/209/109 135/208/109
f 128/206/110 129/216/110 137/217/110
f 128/206/110 137/217/110 136/209/110
f 129/214/111 130/211/111 138/212/111
f 129/214/111 138/212/111 137/215/111
f 130/211/112 131/210/112 139/213/112
f 130/211/112 139/213/112 138/212/112
f 131/216/113 125/206/113 133/209/113
f 131/216/113 133/209/113 139/217/113
f 133/218/114 132/219/114 140/220/114
f 132/219/114 134/221/114 140/220/114
f 134/221/114 135/222/114 140/220/114
f 135/222/114 136/223/114 140/220/114
f 136/223/114 137/224/114 140/220/114
f 137/224/114 138/225/114 140/220/114
f 138/225/114 139/226/114 140/220/114
f 139/226/114 133/218/114 140/220/114
f 141/227/115 142/228/115 143/229/115
f 141/227/115 144/230/115 142/228/115
f 141/227/115 145/231/115 144/230/115
f 141/227/115 146/232/115 145/231/115
f 141/227/115 147/233/115 146/232/115
f 141/227/115 148/234/115 147/233/115
f 141/227/115 149/235/115 148/234/115
f 141/227/115 143/229/115 149/235/115
f 143/236/116 142/237/116 150/238/116
f 143/236/116 150/238/116 151/239/116
f 142/240/117 144/241/117 152/241/117
f 142/240/117 152/241/117 150/240/117
f 144/241/118 145/242/118 153/242/118
f 144/241/118 153/242/118 152/241/118
f 145/237/119 146/236/119 154/239/119
f 145/237/119 154/239/119 153/238/119
f 146/236/120 147/243/120 155/244/120
f 146/236/120 155/244/120 154/239/120
f 147/245/121 148/246/121 156/247/121
f 147/245/121 156/247/121 155/248/121
f 148/246/122 149/249/122 157/250/122
f 148/246/122 157/250/122 156/247/122
f 149/243/123 143/236/123 151/239/123
f 149/243/123 151/239/123 157/244/123
f 151/251/124 150/252/124 158/253/124
f 150/252/124 152/254/124 158/253/124
f 152/254/124 153/255/124 158/253/124
f 153/255/124 154/256/124 158/253/124
f 154/256/124 155/257/124 158/253/124
f 155/257/124 156/258/124 158/253/124
f 156/258/124 157/259/124 158/253/124
f 157/259/124 151/251/124 158/253/124
f 159/260/125 160/261/125 161/262/125
f 159/260/125 161/262/125 162/263/125
f 163/264/126 164/265/126 165/266/126
f 163/264/126 165/266/126 166/267/126
f 162/268/127 161/269/127 166/270/127
f 162/268/127 166/270/127 165/271/127
f 164/272/128 163/273/128 160/274/128
f 164/272/128 160/274/128 159/275/128
f 164/276/129 159/277/129 162/278/129
f 164/276/129 162/278/129 165/279/129
f 160/280/130 163/281/130 166/282/130
f 160/280/130 166/282/130 161/283/130
f 167/284/131 168/285/131 169/286/131
f 167/284/131 169/286/131 170/287/131
f 170/288/132 169/289/132 171/290/132
f 170/288/132 171/290/132 172/291/132
f 172/292/133 171/293/133 173/294/133
f 172/292/133 173/294/133 174/295/133
f 174/296/134 173/297/134 175/298/134
f 174/296/134 175/298/134 176/299/134
f 176/300/135 175/301/135 168/285/135
f 176/300/135 168/285/135 167/284/135
f 168/285/136 177/302/136 178/303/136
f 168/285/136 178/303/136 169/286/136
f 169/289/137 178/304/137 179/305/137
f 169/289/137 179/305/137 171/290/137
f 171/293/138 179/306/138 180/307/138
f 171/293/138 180/307/138 173/294/138
f 173/297/139 180/308/139 181/309/139
f 173/297/139 181/309/139 175/298/139
f 175/301/140 181/310/140 177/302/140
f 175/301/140 177/302/140 168/285/140
f 177/311/141 182/312/141 183/313/141
f 177/311/141 183/313/141 178/314/141
f 178/304/142 183/315/142 184/316/142
f 178/304/142 184/316/142 179/305/142
f 179/317/143 184/318/143 185/319/143
f 179/317/143 185/319/143 180/320/143
f 180/308/144 185/321/144 186/322/144
f 180/308/144 186/322/144 181/309/144
f 181/323/145 186/324/145 182/312/145
f 181/323/145 182/312/145 177/311/145
f 182/312/146 187/325/146 188/326/146
f 182/312/146 188/326/146 183/313/146
f 183/315/147 188/327/147 189/328/147
f 183/315/147 189/328/147 184/316/147
f 184/318/148 189/329/148 190/330/148
f 184/318/148 190/330/148 185/319/148
f 185/321/149 190/331/149 191/332/149
f 185/321/149 191/332/149 186/322/149
f 186/324/150 191/333/150 187/325/150
f 186/324/150 187/325/150 182/312/150
f 187/325/151 192/334/151 193/335/151
f 187/325/151 193/335/151 188/326/151
f 188/327/152 193/336/152 194/337/152
f 188/327/152 194/337/152 189/328/152
f 189/329/153 194/338/153 195/339/153
f 189/329/153 195/339/153 190/330/153
f 190/331/154 195/340/154 196/341/154
f 190/331/154 196/341/154 191/332/154
f 191/333/155 196/342/155 192/334/155
f 191/333/155 192/334/155 187/325/155
f 192/334/156 197/343/156 198/344/156
f 192/334/156 198/344/156 193/335/156
f 193/336/157 198/345/157 199/346/157
f 193/336/157 199/346/157 194/337/157
f 194/338/158 199/347/158 200/348/158
f 194/338/158 200/348/158 195/339/158
f 195/340/159 200/349/159 201/350/159
f 195/340/159 201/350/159 196/341/159
f 196/342/160 201/351/160 197/343/160
f 196/342/160 197/343/160 192/334/160
f 197/302/161 202/285/161 203/286/161
f 197/302/161 203/286/161 198/303/161
f 198/345/162 203/352/162 204/353/162
f 198/345/162 204/353/162 199/346/162
f 199/306/163 204/293/163 205/294/163
f 199/306/163 205/294/163 200/307/163
f 200/349/164 205/354/164 206/355/164
f 200/349/164 206/355/164 201/350/164
f 201/310/165 206/301/165 202/285/165
f 201/310/165 202/285/165 197/302/165
f 202/285/166 207/284/166 208/287/166
f 202/285/166 208/287/166 203/286/166
f 203/352/167 208/356/167 209/357/167
f 203/352/167 209/357/167 204/353/167
f 204/293/168 209/292/168 210/295/168
f 204/293/168 210/295/168 205/294/168
f 205/354/169 210/358/169 211/359/169
f 205/354/169 211/359/169 206/355/169
f 206/301/170 211/300/170 207/284/170
f 206/301/170 207/284/170 202/285/170
f 207/284/171 212/360/171 213/361/171
f 207/284/171 213/361/171 208/287/171
f 208/356/172 213/362/172 214/363/172
f 208/356/172 214/363/172 209/357/172
f 209/292/173 214/364/173 215/365/173
f 209/292/173 215/365/173 210/295/173
f 210/358/174 215/366/174 216/367/174
f 210/358/174 216/367/174 211/359/174
f 211/300/175 216/368/175 212/360/175
f 211/300/175 212/360/175 207/284/175
f 212/360/176 217/369/176 218/370/176
f 212/360/176 218/370/176 213/361/176
f 213/362/177 218/371/177 219/372/177
f 213/362/177 219/372/177 214/363/177
f 214/364/178 219/373/178 220/374/178
f 214/364/178 220/374/178 215/365/178
f 215/366/179 220/375/179 221/376/179
f 215/366/179 221/376/179 216/367/179
f 216/368/180 221/377/180 217/369/180
f 216/368/180 217/369/180 212/360/180
f 217/343/181 222/334/181 223/335/181
f 217/343/181 223/335/181 218/344/181
f 218/371/182 223/378/182 224/379/182
f 218/371/182 224/379/182 219/372/182
f 219/347/183 224/338/183 225/339/183
f 219/347/183 225/339/183 220/348/183
f 220/375/184 225/380/184 226/381/184
f 220/375/184 226/381/184 221/376/184
f 221/351/185 226/342/185 222/334/185
f 221/351/185 222/334/185 217/343/185
f 222/334/186 227/325/186 228/326/186
f 222/334/186 228/326/186 223/335/186
f 223/378/187 228/382/187 229/383/187
f 223/378/187 229/383/187 224/379/187
f 224/338/188 229/329/188 230/330/188
f 224/338/188 230/330/188 225/339/188
f 225/380/189 230/384/189 231/385/189
f 225/380/189 231/385/189 226/381/189
f 226/342/190 231/333/190 227/325/190
f 226/342/190 227/325/190 222/334/190
f 227/325/191 232/312/191 233/313/191
f 227/325/191 233/313/191 228/326/191
f 228/382/192 233/386/192 234/387/192
f 228/382/192 234/387/192 229/383/192
f 229/329/193 234/318/193 235/319/193
f 229/329/193 235/319/193 230/330/193
f 230/384/194 235/388/194 236/389/194
f 230/384/194 236/389/194 231/385/194
f 231/333/195 236/324/195 232/312/195
f 231/333/195 232/312/195 227/325/195
f 232/312/196 237/311/196 238/314/196
f 232/312/196 238/314/196 233/313/196
f 233/386/197 238/390/197 239/391/197
f 233/386/197 239/391/197 234/387/197
f 234/318/198 239/317/198 240/320/198
f 234/318/198 240/320/198 235/319/198
f 235/388/199 240/392/199 241/393/199
f 235/388/199 241/393/199 236/389/199
f 236/324/200 241/323/200 237/311/200
f 236/324/200 237/311/200 232/312/200
f 237/369/201 242/360/201 243/361/201
f 237/369/201 243/361/201 238/370/201
f 238/390/202 243/394/202 244/395/202
f 238/390/202 244/395/202 239/391/202
f 239/373/203 244/364/203 245/365/203
f 239/373/203 245/365/203 240/374/203
f 240/392/204 245/396/204 246/397/204
f 240/392/204 246/397/204 241/393/204
f 241/377/205 246/368/205 242/360/205
f 241/377/205 242/360/205 237/369/205
f 242/360/206 167/284/206 170/287/206
f 242/360/206 170/287/206 243/361/206
f 243/394/207 170/288/207 172/291/207
f 243/394/207 172/291/207 244/395/207
f 244/364/208 172/292/208 174/295/208
f 244/364/208 174/295/208 245/365/208
f 245/396/209 174/296/209 176/299/209
f 245/396/209 176/299/209 246/397/209
f 246/368/210 176/300/210 167/284/210
f 246/368/210 167/284/210 242/360/210
f 247/398/211 248/399/211 249/400/211
f 247/398/211 250/401/211 248/399/211
f 247/398/211 251/402/211 250/401/211
f 247/398/211 252/403/211 251/402/211
f 247/398/211 253/404/211 252/403/211
f 247/398/211 254/405/211 253/404/211
f 247/398/211 255/406/211 254/405/211
f 247/398/211 249/400/211 255/406/211
f 249/407/212 248/408/212 256/409/212
f 249/407/212 256/409/212 257/410/212
f 248/411/213 250/412/213 258/413/213
f 248/411/213 258/413/213 256/414/213
f 250/412/214 251/415/214 259/416/214
f 250/412/214 259/416/214 258/413/214
f 251/408/215 252/407/215 260/410/215
f 251/408/215 260/410/215 259/409/215
f 252/407/216 253/417/216 261/418/216
f 252/407/216 261/418/216 260/410/216
f 253/415/217 254/412/217 262/413/217
f 253/415/217 262/413/217 261/416/217
f 254/412/218 255/411/218 263/414/218
f 254/412/218 263/414/218 262/413/218
f 255/417/219 249/407/219 257/410/219
f 255/417/219 257/410/219 263/418/219
f 257/419/220 256/420/220 264/421/220
f 256/420/220 258/422/220 264/421/220
f 258/422/220 259/423/220 264/421/220
f 259/423/220 260/424/220 264/421/220
f 260/424/220 261/425/220 264/421/220
f 261/425/220 262/426/220 264/421/220
f 262/426/220 263/427/220 264/421/220
f 263/427/220 257/419/220 264/421/220
usemtl interior
f 265/428/221 1/429/221 2/430/221
f 265/428/222 2/430/222 1/429/222
f 265/428/221 2/430/221 3/431/221
f 265/428/222 3/431/222 2/430/222
f 265/428/221 3/431/221 1/429/221
f 265/428/222 1/429/222 3/431/222
f 266/432/223 10/433/223 11/434/223
f 266/432/224 11/434/224 10/433/224
f 266/432/223 11/434/223 9/435/223
f 266/432/224 9/435/224 11/434/224
f 266/432/223 9/435/223 8/436/223
f 266/432/224 8/436/224 9/435/224
f 266/432/223 8/436/223 10/433/223
f 266/432/224 10/433/224 8/436/224
f 267/437/225 4/438/225 6/439/225
f 267/437/226 6/439/226 4/438/226
f 267/437/225 6/439/225 7/440/225
f 267/437/226 7/440/226 6/439/226
f 267/437/225 7/440/225 5/441/225
f 267/437/226 5/441/226 7/440/226
f 267/437/225 5/441/225 4/438/225
f 267/437/226 4/438/226 5/441/226
f 268/442/227 12/443/227 13/444/227
f 268/442/228 13/444/228 12/443/228
f 268/442/227 13/444/227 16/445/227
f 268/442/228 16/445/228 13/444/228
f 268/442/227 16/445/227 15/446/227
f 268/442/228 15/446/228 16/445/228
f 268/442/227 15/446/227 12/443/227
f 268/442/228 12/443/228 15/446/228
