# Terran heavy cruiser, from tools/gen_fleet.py
# Generated by tools. Edit the generator script.
v 0.000000 0.721695 1.017139
v 0.229093 0.721695 1.646567
v 0.000000 0.721695 1.686963
v 0.430554 0.721695 1.530254
v 0.580084 0.721695 1.352051
v 0.659647 0.721695 1.133453
v 0.659647 0.721695 0.900826
v 0.580084 0.721695 0.682228
v 0.430554 0.721695 0.504025
v 0.229093 0.721695 0.387711
v 0.000000 0.721695 0.347316
v -0.229093 0.721695 0.387711
v -0.430554 0.721695 0.504025
v -0.580084 0.721695 0.682228
v -0.659647 0.721695 0.900826
v -0.659647 0.721695 1.133453
v -0.580084 0.721695 1.352051
v -0.430554 0.721695 1.530254
v -0.229093 0.721695 1.646567
v 0.374880 0.762291 2.047113
v 0.000000 0.762291 2.113214
v 0.704543 0.762291 1.856781
v 0.949229 0.762291 1.565177
v 1.079423 0.762291 1.207471
v 1.079423 0.762291 0.826808
v 0.949229 0.762291 0.469102
v 0.704543 0.762291 0.177497
v 0.374880 0.762291 -0.012834
v 0.000000 0.762291 -0.078935
v -0.374880 0.762291 -0.012834
v -0.704543 0.762291 0.177497
v -0.949229 0.762291 0.469102
v -1.079423 0.762291 0.826808
v -1.079423 0.762291 1.207471
v -0.949229 0.762291 1.565177
v -0.704543 0.762291 1.856781
v -0.374880 0.762291 2.047113
v 0.416533 0.762291 2.161554
v 0.000000 0.762291 2.235000
v 0.782826 0.762291 1.950075
v 1.054698 0.762291 1.626070
v 1.199359 0.762291 1.228619
v 1.199359 0.762291 0.805660
v 1.054698 0.762291 0.408209
v 0.782826 0.762291 0.084204
v 0.416533 0.762291 -0.127276
v 0.000000 0.762291 -0.200721
v -0.416533 0.762291 -0.127276
v -0.782826 0.762291 0.084204
v -1.054698 0.762291 0.408209
v -1.199359 0.762291 0.805660
v -1.199359 0.762291 1.228619
v -1.054698 0.762291 1.626070
v -0.782826 0.762291 1.950075
v -0.416533 0.762291 2.161554
v 0.416533 0.992331 2.161554
v 0.000000 0.992331 2.235000
v 0.782826 0.992331 1.950075
v 1.054698 0.992331 1.626070
v 1.199359 0.992331 1.228619
v 1.199359 0.992331 0.805660
v 1.054698 0.992331 0.408209
v 0.782826 0.992331 0.084204
v 0.416533 0.992331 -0.127276
v 0.000000 0.992331 -0.200721
v -0.416533 0.992331 -0.127276
v -0.782826 0.992331 0.084204
v -1.054698 0.992331 0.408209
v -1.199359 0.992331 0.805660
v -1.199359 0.992331 1.228619
v -1.054698 0.992331 1.626070
v -0.782826 0.992331 1.950075
v -0.416533 0.992331 2.161554
v 0.374880 0.992331 2.047113
v 0.000000 0.992331 2.113214
v 0.704543 0.992331 1.856781
v 0.949229 0.992331 1.565177
v 1.079423 0.992331 1.207471
v 1.079423 0.992331 0.826808
v 0.949229 0.992331 0.469102
v 0.704543 0.992331 0.177497
v 0.374880 0.992331 -0.012834
v 0.000000 0.992331 -0.078935
v -0.374880 0.992331 -0.012834
v -0.704543 0.992331 0.177497
v -0.949229 0.992331 0.469102
v -1.079423 0.992331 0.826808
v -1.079423 0.992331 1.207471
v -0.949229 0.992331 1.565177
v -0.704543 0.992331 1.856781
v -0.374880 0.992331 2.047113
v 0.366549 1.033377 2.024224
v 0.000000 1.033377 2.088857
v 0.688887 1.033377 1.838122
v 0.928135 1.033377 1.552998
v 1.055436 1.033377 1.203241
v 1.055436 1.033377 0.831037
v 0.928135 1.033377 0.481281
v 0.688887 1.033377 0.196156
v 0.366549 1.033377 0.010054
v 0.000000 1.033377 -0.054578
v -0.366549 1.033377 0.010054
v -0.688887 1.033377 0.196156
v -0.928135 1.033377 0.481281
v -1.055436 1.033377 0.831037
v -1.055436 1.033377 1.203241
v -0.928135 1.033377 1.552998
v -0.688887 1.033377 1.838122
v -0.366549 1.033377 2.024224
v 0.229093 1.033377 1.646567
v 0.000000 1.033377 1.686963
v 0.430554 1.033377 1.530254
v 0.580084 1.033377 1.352051
v 0.659647 1.033377 1.133453
v 0.659647 1.033377 0.900826
v 0.580084 1.033377 0.682228
v 0.430554 1.033377 0.504025
v 0.229093 1.033377 0.387711
v 0.000000 1.033377 0.347316
v -0.229093 1.033377 0.387711
v -0.430554 1.033377 0.504025
v -0.580084 1.033377 0.682228
v -0.659647 1.033377 0.900826
v -0.659647 1.033377 1.133453
v -0.580084 1.033377 1.352051
v -0.430554 1.033377 1.530254
v -0.229093 1.033377 1.646567
v 0.208266 1.086151 1.589347
v 0.000000 1.086151 1.626070
v 0.391413 1.086151 1.483607
v 0.527349 1.086151 1.321604
v 0.599679 1.086151 1.122879
v 0.599679 1.086151 0.911400
v 0.527349 1.086151 0.712674
v 0.391413 1.086151 0.550672
v 0.208266 1.086151 0.444932
v 0.000000 1.086151 0.408209
v -0.208266 1.086151 0.444932
v -0.391413 1.086151 0.550672
v -0.527349 1.086151 0.712674
v -0.599679 1.086151 0.911400
v -0.599679 1.086151 1.122879
v -0.527349 1.086151 1.321604
v -0.391413 1.086151 1.483607
v -0.208266 1.086151 1.589347
v 0.104133 1.109606 1.303243
v 0.000000 1.109606 1.321604
v 0.195706 1.109606 1.250373
v 0.263675 1.109606 1.169372
v 0.299840 1.109606 1.070009
v 0.299840 1.109606 0.964269
v 0.263675 1.109606 0.864907
v 0.195706 1.109606 0.783905
v 0.104133 1.109606 0.731036
v 0.000000 1.109606 0.712674
v -0.104133 1.109606 0.731036
v -0.195706 1.109606 0.783905
v -0.263675 1.109606 0.864907
v -0.299840 1.109606 0.964269
v -0.299840 1.109606 1.070009
v -0.263675 1.109606 1.169372
v -0.195706 1.109606 1.250373
v -0.104133 1.109606 1.303243
v 0.000000 1.109606 1.017139
v -0.248083 0.784844 -0.020298
v 0.248083 0.784844 -0.020298
v 0.248083 0.929183 -0.020298
v -0.248083 0.929183 -0.020298
v 0.248083 0.784844 -0.290933
v -0.248083 0.784844 -0.290933
v -0.248083 0.929183 -0.290933
v 0.248083 0.929183 -0.290933
v 0.000000 0.721695 0.746504
v 0.159076 0.721695 0.798190
v 0.137764 0.586377 0.827524
v 0.000000 0.586377 0.782762
v 0.257390 0.721695 0.933508
v 0.222906 0.586377 0.944713
v 0.257390 0.721695 1.100770
v 0.222906 0.586377 1.089566
v 0.159076 0.721695 1.236088
v 0.137764 0.586377 1.206755
v 0.000000 0.721695 1.287775
v 0.000000 0.586377 1.251517
v -0.159076 0.721695 1.236088
v -0.137764 0.586377 1.206755
v -0.257390 0.721695 1.100770
v -0.222906 0.586377 1.089566
v -0.257390 0.721695 0.933508
v -0.222906 0.586377 0.944713
v -0.159076 0.721695 0.798190
v -0.137764 0.586377 0.827524
v 0.079538 0.487318 0.907665
v 0.000000 0.487318 0.881821
v 0.128695 0.487318 0.975324
v 0.128695 0.487318 1.058955
v 0.079538 0.487318 1.126614
v 0.000000 0.487318 1.152457
v -0.079538 0.487318 1.126614
v -0.128695 0.487318 1.058955
v -0.128695 0.487318 0.975324
v -0.079538 0.487318 0.907665
v 0.000000 0.451060 1.017139
v 0.000000 1.100585 1.236354
v 0.153095 1.100585 1.389449
v 0.000000 1.100585 1.452863
v 0.216509 1.100585 1.236354
v 0.153095 1.100585 1.083260
v 0.000000 1.100585 1.019846
v -0.153095 1.100585 1.083260
v -0.216509 1.100585 1.236354
v -0.153095 1.100585 1.389449
v 0.153095 1.208840 1.389449
v 0.000000 1.208840 1.452863
v 0.216509 1.208840 1.236354
v 0.153095 1.208840 1.083260
v 0.000000 1.208840 1.019846
v -0.153095 1.208840 1.083260
v -0.216509 1.208840 1.236354
v -0.153095 1.208840 1.389449
v 0.000000 1.208840 1.236354
v -0.108254 0.224603 0.073257
v 0.108254 0.224603 0.073257
v 0.108254 0.723147 0.284038
v -0.108254 0.723147 0.284038
v 0.108254 0.575905 -0.757650
v -0.108254 0.575905 -0.757650
v -0.108254 1.074449 -0.546869
v 0.108254 1.074449 -0.546869
v -0.446549 0.076680 0.372124
v 0.446549 0.076680 0.372124
v 0.446549 0.645015 0.372124
v -0.446549 0.645015 0.372124
v 0.307623 0.165088 -1.811004
v -0.307623 0.165088 -1.811004
v -0.307623 0.556607 -1.811004
v 0.307623 0.556607 -1.811004
v 0.000000 0.112765 0.390166
v 0.094937 0.131649 0.390166
v 0.086588 0.151806 0.420195
v 0.000000 0.134582 0.420195
v 0.073079 0.184419 0.408725
v 0.000000 0.169883 0.408725
v 0.073079 0.184419 0.371608
v 0.000000 0.169883 0.371608
v 0.086588 0.151806 0.360138
v 0.000000 0.134582 0.360138
v 0.175421 0.185427 0.390166
v 0.159994 0.200854 0.420195
v 0.135032 0.225815 0.408725
v 0.135032 0.225815 0.371608
v 0.159994 0.200854 0.360138
v 0.229199 0.265910 0.390166
v 0.209042 0.274260 0.420195
v 0.176428 0.287769 0.408725
v 0.176428 0.287769 0.371608
v 0.209042 0.274260 0.360138
v 0.248083 0.360848 0.390166
v 0.226266 0.360848 0.420195
v 0.190965 0.360848 0.408725
v 0.190965 0.360848 0.371608
v 0.226266 0.360848 0.360138
v 0.229199 0.455785 0.390166
v 0.209042 0.447436 0.420195
v 0.176428 0.433927 0.408725
v 0.176428 0.433927 0.371608
v 0.209042 0.447436 0.360138
v 0.175421 0.536269 0.390166
v 0.159994 0.520842 0.420195
v 0.135032 0.495880 0.408725
v 0.135032 0.495880 0.371608
v 0.159994 0.520842 0.360138
v 0.094937 0.590046 0.390166
v 0.086588 0.569890 0.420195
v 0.073079 0.537276 0.408725
v 0.073079 0.537276 0.371608
v 0.086588 0.569890 0.360138
v 0.000000 0.608930 0.390166
v 0.000000 0.587113 0.420195
v 0.000000 0.551812 0.408725
v 0.000000 0.551812 0.371608
v 0.000000 0.587113 0.360138
v -0.094937 0.590046 0.390166
v -0.086588 0.569890 0.420195
v -0.073079 0.537276 0.408725
v -0.073079 0.537276 0.371608
v -0.086588 0.569890 0.360138
v -0.175421 0.536269 0.390166
v -0.159994 0.520842 0.420195
v -0.135032 0.495880 0.408725
v -0.135032 0.495880 0.371608
v -0.159994 0.520842 0.360138
v -0.229199 0.455785 0.390166
v -0.209042 0.447436 0.420195
v -0.176428 0.433927 0.408725
v -0.176428 0.433927 0.371608
v -0.209042 0.447436 0.360138
v -0.248083 0.360848 0.390166
v -0.226266 0.360848 0.420195
v -0.190965 0.360848 0.408725
v -0.190965 0.360848 0.371608
v -0.226266 0.360848 0.360138
v -0.229199 0.265910 0.390166
v -0.209042 0.274260 0.420195
v -0.176428 0.287769 0.408725
v -0.176428 0.287769 0.371608
v -0.209042 0.274260 0.360138
v -0.175421 0.185427 0.390166
v -0.159994 0.200854 0.420195
v -0.135032 0.225815 0.408725
v -0.135032 0.225815 0.371608
v -0.159994 0.200854 0.360138
v -0.094937 0.131649 0.390166
v -0.086588 0.151806 0.420195
v -0.073079 0.184419 0.408725
v -0.073079 0.184419 0.371608
v -0.086588 0.151806 0.360138
v 0.000000 0.180424 0.381145
v 0.106050 0.214882 0.381145
v 0.076356 0.255752 0.413622
v 0.000000 0.230942 0.413622
v 0.171593 0.305094 0.381145
v 0.123547 0.320705 0.413622
v 0.171593 0.416602 0.381145
v 0.123547 0.400991 0.413622
v 0.106050 0.506814 0.381145
v 0.076356 0.465943 0.413622
v 0.000000 0.541271 0.381145
v 0.000000 0.490753 0.413622
v -0.106050 0.506814 0.381145
v -0.076356 0.465943 0.413622
v -0.171593 0.416602 0.381145
v -0.123547 0.400991 0.413622
v -0.171593 0.305094 0.381145
v -0.123547 0.320705 0.413622
v -0.106050 0.214882 0.381145
v -0.076356 0.255752 0.413622
v 0.000000 0.360848 0.435272
v -0.162381 0.595399 0.299955
v 0.162381 0.595399 0.299955
v 0.162381 0.721695 0.299955
v -0.162381 0.721695 0.299955
v 0.162381 0.595399 -0.006766
v -0.162381 0.595399 -0.006766
v -0.162381 0.721695 -0.006766
v 0.162381 0.721695 -0.006766
v 0.022553 0.144339 -1.592691
v 0.022553 0.144339 -0.780784
v 0.022553 0.000000 -1.024356
v -0.022553 0.144339 -1.592691
v -0.022553 0.000000 -1.024356
v -0.022553 0.144339 -0.780784
v 0.022553 0.000000 -1.430310
v -0.022553 0.000000 -1.430310
v -1.806493 1.365808 0.254849
v -1.499773 1.365808 0.254849
v -1.499773 1.611185 0.254849
v -1.806493 1.611185 0.254849
v -1.523228 1.384572 -2.235000
v -1.783038 1.384572 -2.235000
v -1.783038 1.592421 -2.235000
v -1.523228 1.592421 -2.235000
v -1.698239 1.607576 -0.218223
v -1.608027 1.607576 -0.218223
v -1.608027 1.650878 -0.218223
v -1.698239 1.650878 -0.218223
v -1.608027 1.607576 -1.761929
v -1.698239 1.607576 -1.761929
v -1.698239 1.650878 -1.761929
v -1.608027 1.650878 -1.761929
v -1.752366 1.407306 -1.882813
v -1.553900 1.407306 -1.882813
v -1.553900 1.569687 -1.882813
v -1.752366 1.569687 -1.882813
v -1.553900 1.407306 -1.926114
v -1.752366 1.407306 -1.926114
v -1.752366 1.569687 -1.926114
v -1.553900 1.569687 -1.926114
v 1.499773 1.365808 0.254849
v 1.806493 1.365808 0.254849
v 1.806493 1.611185 0.254849
v 1.499773 1.611185 0.254849
v 1.783038 1.384572 -2.235000
v 1.523228 1.384572 -2.235000
v 1.523228 1.592421 -2.235000
v 1.783038 1.592421 -2.235000
v 1.608027 1.607576 -0.218223
v 1.698239 1.607576 -0.218223
v 1.698239 1.650878 -0.218223
v 1.608027 1.650878 -0.218223
v 1.698239 1.607576 -1.761929
v 1.608027 1.607576 -1.761929
v 1.608027 1.650878 -1.761929
v 1.698239 1.650878 -1.761929
v 1.553900 1.407306 -1.882813
v 1.752366 1.407306 -1.882813
v 1.752366 1.569687 -1.882813
v 1.553900 1.569687 -1.882813
v 1.752366 1.407306 -1.926114
v 1.553900 1.407306 -1.926114
v 1.553900 1.569687 -1.926114
v 1.752366 1.569687 -1.926114
v -1.653133 1.335136 0.245827
v -1.562990 1.364425 0.245827
v -1.575067 1.381048 0.322508
v -1.653133 1.355683 0.322508
v -1.507279 1.441106 0.245827
v -1.526820 1.447455 0.322508
v -1.507279 1.535887 0.245827
v -1.526820 1.529538 0.322508
v -1.562990 1.612568 0.245827
v -1.575067 1.595945 0.322508
v -1.653133 1.641857 0.245827
v -1.653133 1.621310 0.322508
v -1.743276 1.612568 0.245827
v -1.731199 1.595945 0.322508
v -1.798987 1.535887 0.245827
v -1.779447 1.529538 0.322508
v -1.798987 1.441106 0.245827
v -1.779447 1.447455 0.322508
v -1.743276 1.364425 0.245827
v -1.731199 1.381048 0.322508
v -1.608062 1.426461 0.378641
v -1.653133 1.411816 0.378641
v -1.580206 1.464801 0.378641
v -1.580206 1.512192 0.378641
v -1.608062 1.550532 0.378641
v -1.653133 1.565177 0.378641
v -1.698205 1.550532 0.378641
v -1.726060 1.512192 0.378641
v -1.726060 1.464801 0.378641
v -1.698205 1.426461 0.378641
v -1.653133 1.488496 0.399188
v -0.396932 0.586377 -0.793414
v -0.324763 0.586377 -0.793414
v -1.508794 1.398285 -1.073071
v -1.580964 1.398285 -1.073071
v -0.324763 0.586377 -1.024356
v -0.396932 0.586377 -1.024356
v -1.580964 1.398285 -1.304013
v -1.508794 1.398285 -1.304013
v 1.653133 1.335136 0.245827
v 1.743276 1.364425 0.245827
v 1.731199 1.381048 0.322508
v 1.653133 1.355683 0.322508
v 1.798987 1.441106 0.245827
v 1.779447 1.447455 0.322508
v 1.798987 1.535887 0.245827
v 1.779447 1.529538 0.322508
v 1.743276 1.612568 0.245827
v 1.731199 1.595945 0.322508
v 1.653133 1.641857 0.245827
v 1.653133 1.621310 0.322508
v 1.562990 1.612568 0.245827
v 1.575067 1.595945 0.322508
v 1.507279 1.535887 0.245827
v 1.526820 1.529538 0.322508
v 1.507279 1.441106 0.245827
v 1.526820 1.447455 0.322508
v 1.562990 1.364425 0.245827
v 1.575067 1.381048 0.322508
v 1.698205 1.426461 0.378641
v 1.653133 1.411816 0.378641
v 1.726060 1.464801 0.378641
v 1.726060 1.512192 0.378641
v 1.698205 1.550532 0.378641
v 1.653133 1.565177 0.378641
v 1.608062 1.550532 0.378641
v 1.580206 1.512192 0.378641
v 1.580206 1.464801 0.378641
v 1.608062 1.426461 0.378641
v 1.653133 1.488496 0.399188
v 0.324763 0.586377 -0.793414
v 0.396932 0.586377 -0.793414
v 1.580964 1.398285 -1.073071
v 1.508794 1.398285 -1.073071
v 0.396932 0.586377 -1.024356
v 0.324763 0.586377 -1.024356
v 1.508794 1.398285 -1.304013
v 1.580964 1.398285 -1.304013
vt 0.171875 0.828125
vt 0.203213 0.912918
vt 0.171875 0.918359
vt 0.230771 0.897249
vt 0.251226 0.873242
vt 0.262109 0.843794
vt 0.262109 0.812456
vt 0.251226 0.783008
vt 0.230771 0.759001
vt 0.203213 0.743332
vt 0.171875 0.737891
vt 0.140537 0.743332
vt 0.112979 0.759001
vt 0.092524 0.783008
vt 0.081641 0.812456
vt 0.081641 0.843794
vt 0.092524 0.873242
vt 0.112979 0.897249
vt 0.140537 0.912918
vt 0.223155 0.966876
vt 0.171875 0.975781
vt 0.268251 0.941236
vt 0.301722 0.901953
vt 0.319531 0.853765
vt 0.319531 0.802485
vt 0.301722 0.754297
vt 0.268251 0.715014
vt 0.223155 0.689374
vt 0.171875 0.680469
vt 0.120595 0.689374
vt 0.075499 0.715014
vt 0.042028 0.754297
vt 0.024219 0.802485
vt 0.024219 0.853765
vt 0.042028 0.901953
vt 0.075499 0.941236
vt 0.120595 0.966876
vt 0.228853 0.982293
vt 0.171875 0.992188
vt 0.278959 0.953804
vt 0.316149 0.910156
vt 0.335938 0.856614
vt 0.335938 0.799636
vt 0.316149 0.746094
vt 0.278959 0.702446
vt 0.228853 0.673957
vt 0.171875 0.664062
vt 0.114897 0.673957
vt 0.064791 0.702446
vt 0.027601 0.746094
vt 0.007813 0.799636
vt 0.007812 0.856614
vt 0.027601 0.910156
vt 0.064791 0.953804
vt 0.114897 0.982293
vt 0.195313 0.145531
vt 0.260431 0.145531
vt 0.260431 0.173328
vt 0.195313 0.173328
vt 0.317694 0.145531
vt 0.317694 0.173328
vt 0.338946 0.145531
vt 0.289063 0.145531
vt 0.289063 0.173328
vt 0.338946 0.173328
vt 0.227872 0.145531
vt 0.227872 0.173328
vt 0.162753 0.145531
vt 0.162753 0.173328
vt 0.101563 0.145531
vt 0.101563 0.173328
vt 0.051679 0.145531
vt 0.051679 0.173328
vt 0.700507 0.145531
vt 0.643243 0.145531
vt 0.643243 0.173328
vt 0.700507 0.173328
vt 0.578125 0.145531
vt 0.578125 0.173328
vt 0.513007 0.145531
vt 0.513007 0.173328
vt 0.455743 0.145531
vt 0.455743 0.173328
vt 0.072931 0.145531
vt 0.130194 0.145531
vt 0.130194 0.173328
vt 0.072931 0.173328
vt 0.253919 0.173328
vt 0.252616 0.178289
vt 0.195313 0.178289
vt 0.305456 0.173328
vt 0.303009 0.178289
vt 0.324582 0.173328
vt 0.279688 0.173328
vt 0.277813 0.178289
vt 0.321710 0.178289
vt 0.224616 0.173328
vt 0.223964 0.178289
vt 0.166009 0.173328
vt 0.166661 0.178289
vt 0.110938 0.173328
vt 0.112813 0.178289
vt 0.066043 0.173328
vt 0.068915 0.178289
vt 0.688269 0.173328
vt 0.636731 0.173328
vt 0.635429 0.178289
vt 0.685821 0.178289
vt 0.578125 0.178289
vt 0.519519 0.173328
vt 0.520821 0.178289
vt 0.467981 0.173328
vt 0.470429 0.178289
vt 0.085169 0.173328
vt 0.136706 0.173328
vt 0.138009 0.178289
vt 0.087616 0.178289
vt 0.171875 0.972500
vt 0.222016 0.963793
vt 0.266109 0.938723
vt 0.298836 0.900313
vt 0.316250 0.853195
vt 0.316250 0.803055
vt 0.298836 0.755938
vt 0.266109 0.717527
vt 0.222016 0.692457
vt 0.171875 0.683750
vt 0.121734 0.692457
vt 0.077641 0.717527
vt 0.044914 0.755937
vt 0.027500 0.803055
vt 0.027500 0.853195
vt 0.044914 0.900312
vt 0.077641 0.938723
vt 0.121734 0.963793
vt 0.200364 0.905209
vt 0.171875 0.910156
vt 0.225417 0.890965
vt 0.244012 0.869141
vt 0.253906 0.842370
vt 0.253906 0.813880
vt 0.244012 0.787109
vt 0.225417 0.765285
vt 0.200364 0.751041
vt 0.171875 0.746094
vt 0.143386 0.751041
vt 0.118333 0.765285
vt 0.099738 0.787109
vt 0.089844 0.813880
vt 0.089844 0.842370
vt 0.099738 0.869141
vt 0.118333 0.890965
vt 0.143386 0.905209
vt 0.186120 0.866667
vt 0.171875 0.869141
vt 0.198646 0.859545
vt 0.207944 0.848633
vt 0.212891 0.835247
vt 0.212891 0.821003
vt 0.207944 0.807617
vt 0.198646 0.796705
vt 0.186120 0.789583
vt 0.171875 0.787109
vt 0.157630 0.789583
vt 0.145104 0.796705
vt 0.135806 0.807617
vt 0.130859 0.821003
vt 0.130859 0.835247
vt 0.135806 0.848633
vt 0.145104 0.859545
vt 0.157630 0.866667
vt 0.007812 0.281250
vt 0.101562 0.281250
vt 0.101562 0.375000
vt 0.007812 0.375000
vt 0.101562 0.281250
vt 0.007812 0.281250
vt 0.007812 0.375000
vt 0.101562 0.375000
vt 0.007812 0.375000
vt 0.101562 0.375000
vt 0.101562 0.281250
vt 0.007812 0.281250
vt 0.007812 0.281250
vt 0.101562 0.281250
vt 0.101562 0.375000
vt 0.007812 0.375000
vt 0.718750 0.476562
vt 0.747720 0.476562
vt 0.743839 0.429688
vt 0.718750 0.429688
vt 0.680827 0.476562
vt 0.704265 0.476562
vt 0.706205 0.429688
vt 0.685908 0.429688
vt 0.733235 0.476562
vt 0.731295 0.429688
vt 0.756673 0.476562
vt 0.751592 0.429688
vt 0.747720 0.476562
vt 0.718750 0.476562
vt 0.718750 0.429688
vt 0.743839 0.429688
vt 0.689780 0.476562
vt 0.693661 0.429688
vt 0.689780 0.476562
vt 0.693661 0.429688
vt 0.733235 0.395373
vt 0.718750 0.395373
vt 0.642277 0.396846
vt 0.657782 0.417143
vt 0.640625 0.422445
vt 0.631673 0.410726
vt 0.725993 0.395373
vt 0.711507 0.395373
vt 0.657782 0.442232
vt 0.642277 0.462529
vt 0.631673 0.448649
vt 0.640625 0.436930
vt 0.718750 0.395373
vt 0.733235 0.395373
vt 0.617188 0.470282
vt 0.592098 0.462529
vt 0.602702 0.448649
vt 0.704265 0.395373
vt 0.576593 0.442232
vt 0.593750 0.436930
vt 0.576593 0.417143
vt 0.592098 0.396846
vt 0.602702 0.410726
vt 0.593750 0.422445
vt 0.704265 0.395373
vt 0.617188 0.406250
vt 0.617188 0.429688
vt 0.617188 0.453125
vt 0.617188 0.429688
vt 0.650333 0.462833
vt 0.617188 0.476562
vt 0.664062 0.429688
vt 0.650333 0.396542
vt 0.617188 0.382812
vt 0.584042 0.396542
vt 0.570312 0.429688
vt 0.584042 0.462833
vt 0.718750 0.382812
vt 0.751896 0.382812
vt 0.751896 0.476562
vt 0.718750 0.476562
vt 0.751896 0.382812
vt 0.718750 0.382812
vt 0.718750 0.476562
vt 0.751896 0.476562
vt 0.685604 0.382812
vt 0.685604 0.476562
vt 0.751896 0.382812
vt 0.718750 0.382812
vt 0.718750 0.476562
vt 0.751896 0.476562
vt 0.685604 0.382812
vt 0.685604 0.476562
vt 0.685604 0.382812
vt 0.685604 0.476562
vt 0.187500 0.484375
vt 0.312500 0.484375
vt 0.312500 0.585202
vt 0.187500 0.585202
vt 0.312500 0.555423
vt 0.187500 0.555423
vt 0.187500 0.656250
vt 0.312500 0.656250
vt 0.320312 0.656250
vt 0.382812 0.656250
vt 0.382812 0.519153
vt 0.320312 0.519153
vt 0.320312 0.484375
vt 0.382812 0.484375
vt 0.382812 0.621472
vt 0.320312 0.621472
vt 0.187500 0.555423
vt 0.287207 0.484375
vt 0.312500 0.585202
vt 0.212793 0.656250
vt 0.203125 0.382812
vt 0.328125 0.382812
vt 0.328125 0.476562
vt 0.203125 0.476562
vt 0.441493 0.397396
vt 0.355382 0.397396
vt 0.355382 0.461979
vt 0.441493 0.461979
vt 0.343750 0.992188
vt 0.546875 0.992188
vt 0.515278 0.664062
vt 0.375347 0.664062
vt 0.109375 0.309028
vt 0.484375 0.296875
vt 0.484375 0.375000
vt 0.109375 0.362847
vt 0.617188 0.429688
vt 0.635126 0.429688
vt 0.633548 0.476562
vt 0.617188 0.476562
vt 0.718750 0.386935
vt 0.735111 0.390189
vt 0.732558 0.396352
vt 0.718750 0.393605
vt 0.617188 0.458658
vt 0.630996 0.458658
vt 0.630996 0.400717
vt 0.617188 0.400717
vt 0.718750 0.393605
vt 0.732558 0.396352
vt 0.735111 0.390189
vt 0.718750 0.386935
vt 0.617188 0.382813
vt 0.633548 0.382813
vt 0.650333 0.429688
vt 0.647418 0.476562
vt 0.748981 0.399457
vt 0.744264 0.404173
vt 0.642702 0.458658
vt 0.642702 0.400717
vt 0.744264 0.404173
vt 0.748981 0.399457
vt 0.647418 0.382813
vt 0.718750 0.396542
vt 0.718750 0.411749
vt 0.765625 0.413327
vt 0.765625 0.399457
vt 0.758248 0.413327
vt 0.752086 0.415879
vt 0.747720 0.404173
vt 0.747720 0.415879
vt 0.689780 0.415879
vt 0.689780 0.404173
vt 0.752086 0.415879
vt 0.758248 0.413327
vt 0.671875 0.399457
vt 0.671875 0.413327
vt 0.718750 0.429688
vt 0.765625 0.429688
vt 0.761503 0.429688
vt 0.754833 0.429688
vt 0.747720 0.429688
vt 0.689780 0.429688
vt 0.754833 0.429688
vt 0.761503 0.429688
vt 0.671875 0.429688
vt 0.718750 0.447626
vt 0.765625 0.446048
vt 0.758248 0.446048
vt 0.752086 0.443496
vt 0.747720 0.443496
vt 0.689780 0.443496
vt 0.752086 0.443496
vt 0.758248 0.446048
vt 0.671875 0.446048
vt 0.718750 0.462833
vt 0.765625 0.459918
vt 0.748981 0.459918
vt 0.744264 0.455202
vt 0.747720 0.455202
vt 0.689780 0.455202
vt 0.744264 0.455202
vt 0.748981 0.459918
vt 0.671875 0.459918
vt 0.735111 0.469186
vt 0.732558 0.463023
vt 0.732558 0.463023
vt 0.735111 0.469186
vt 0.718750 0.472440
vt 0.718750 0.465770
vt 0.718750 0.465770
vt 0.718750 0.472440
vt 0.599249 0.429688
vt 0.600827 0.476562
vt 0.702389 0.469186
vt 0.704942 0.463023
vt 0.603379 0.458658
vt 0.603379 0.400717
vt 0.704942 0.463023
vt 0.702389 0.469186
vt 0.600827 0.382812
vt 0.584042 0.429688
vt 0.586957 0.476562
vt 0.688519 0.459918
vt 0.693236 0.455202
vt 0.591673 0.458658
vt 0.591673 0.400717
vt 0.693236 0.455202
vt 0.688519 0.459918
vt 0.586957 0.382812
vt 0.679252 0.446048
vt 0.685414 0.443496
vt 0.685414 0.443496
vt 0.679252 0.446048
vt 0.675997 0.429688
vt 0.682667 0.429688
vt 0.682667 0.429688
vt 0.675997 0.429688
vt 0.679252 0.413327
vt 0.685414 0.415879
vt 0.685414 0.415879
vt 0.679252 0.413327
vt 0.688519 0.399457
vt 0.693236 0.404173
vt 0.693236 0.404173
vt 0.688519 0.399457
vt 0.702389 0.390189
vt 0.704942 0.396352
vt 0.704942 0.396352
vt 0.702389 0.390189
vt 0.054688 0.281250
vt 0.083658 0.290202
vt 0.075546 0.300821
vt 0.054688 0.294375
vt 0.101562 0.313640
vt 0.088437 0.317696
vt 0.101562 0.342610
vt 0.088437 0.338554
vt 0.083658 0.366048
vt 0.075546 0.355429
vt 0.054688 0.375000
vt 0.054688 0.361875
vt 0.025717 0.366048
vt 0.033829 0.355429
vt 0.007812 0.342610
vt 0.020938 0.338554
vt 0.007812 0.313640
vt 0.020938 0.317696
vt 0.025717 0.290202
vt 0.033829 0.300821
vt 0.054688 0.328125
vt 0.671875 0.382812
vt 0.765625 0.382812
vt 0.765625 0.476562
vt 0.671875 0.476562
vt 0.765625 0.382812
vt 0.671875 0.382812
vt 0.671875 0.476562
vt 0.765625 0.476562
vt 0.570312 0.476562
vt 0.664062 0.476562
vt 0.664062 0.382812
vt 0.570312 0.382812
vt 0.671875 0.382812
vt 0.765625 0.382812
vt 0.765625 0.476562
vt 0.671875 0.476562
vt 0.671875 0.476562
vt 0.765625 0.476562
vt 0.737500 0.382812
vt 0.690625 0.382812
vt 0.664062 0.382812
vt 0.570313 0.382812
vt 0.570313 0.476562
vt 0.664062 0.476562
vt 0.570312 0.448438
vt 0.664062 0.448438
vt 0.570312 0.401563
vt 0.664062 0.401563
vt 0.390625 0.195312
vt 0.484375 0.195312
vt 0.484375 0.262559
vt 0.390625 0.262559
vt 0.578768 0.200455
vt 0.499357 0.200455
vt 0.499357 0.257417
vt 0.578768 0.257417
vt 0.554688 0.992188
vt 0.625000 0.992188
vt 0.619623 0.664062
vt 0.560064 0.664062
vt 0.492188 0.302017
vt 0.867188 0.296875
vt 0.867188 0.364122
vt 0.492188 0.358979
vt 0.382812 0.195312
vt 0.354136 0.200455
vt 0.354136 0.257417
vt 0.382812 0.262559
vt 0.423713 0.261570
vt 0.451287 0.261570
vt 0.451287 0.273438
vt 0.423713 0.273438
vt 0.552849 0.261570
vt 0.525276 0.261570
vt 0.525276 0.273438
vt 0.552849 0.273438
vt 0.579504 0.929844
vt 0.600184 0.929844
vt 0.600184 0.726406
vt 0.579504 0.726406
vt 0.563438 0.363133
vt 0.795937 0.363133
vt 0.795937 0.375000
vt 0.563438 0.375000
vt 0.250460 0.261570
vt 0.250460 0.273438
vt 0.407169 0.206685
vt 0.467831 0.206685
vt 0.467831 0.251187
vt 0.407169 0.251187
vt 0.569393 0.206685
vt 0.508732 0.206685
vt 0.508732 0.251187
vt 0.569393 0.251187
vt 0.567096 0.710476
vt 0.612592 0.710476
vt 0.612592 0.704769
vt 0.567096 0.704769
vt 0.538709 0.308248
vt 0.545231 0.308248
vt 0.545231 0.352749
vt 0.538709 0.352749
vt 0.316636 0.206685
vt 0.316636 0.251187
vt 0.390625 0.195312
vt 0.484375 0.195312
vt 0.484375 0.262559
vt 0.390625 0.262559
vt 0.578768 0.200455
vt 0.499357 0.200455
vt 0.499357 0.257417
vt 0.578768 0.257417
vt 0.554688 0.992188
vt 0.625000 0.992188
vt 0.619623 0.664062
vt 0.560064 0.664062
vt 0.036489 0.200455
vt 0.007812 0.195312
vt 0.007812 0.262559
vt 0.036489 0.257417
vt 0.867188 0.296875
vt 0.492188 0.302017
vt 0.492188 0.358979
vt 0.867188 0.364122
vt 0.423713 0.261570
vt 0.451287 0.261570
vt 0.451287 0.273438
vt 0.423713 0.273438
vt 0.552849 0.261570
vt 0.525276 0.261570
vt 0.525276 0.273438
vt 0.552849 0.273438
vt 0.579504 0.929844
vt 0.600184 0.929844
vt 0.600184 0.726406
vt 0.579504 0.726406
vt 0.140165 0.261570
vt 0.140165 0.273438
vt 0.795937 0.363133
vt 0.563438 0.363133
vt 0.563438 0.375000
vt 0.795937 0.375000
vt 0.407169 0.206685
vt 0.467831 0.206685
vt 0.467831 0.251187
vt 0.407169 0.251187
vt 0.569393 0.206685
vt 0.508732 0.206685
vt 0.508732 0.251187
vt 0.569393 0.251187
vt 0.567096 0.710476
vt 0.612592 0.710476
vt 0.612592 0.704769
vt 0.567096 0.704769
vt 0.073989 0.206685
vt 0.073989 0.251187
vt 0.545231 0.308248
vt 0.538709 0.308248
vt 0.538709 0.352749
vt 0.545231 0.352749
vt 0.054688 0.281250
vt 0.083658 0.281250
vt 0.079777 0.328125
vt 0.054688 0.328125
vt 0.007812 0.290202
vt 0.007812 0.313640
vt 0.054688 0.315580
vt 0.054688 0.295283
vt 0.007812 0.342610
vt 0.054688 0.340670
vt 0.007812 0.366048
vt 0.054688 0.360967
vt 0.025717 0.281250
vt 0.029598 0.328125
vt 0.054688 0.287530
vt 0.079777 0.295283
vt 0.069173 0.309164
vt 0.069173 0.362440
vt 0.054688 0.362440
vt 0.095282 0.315580
vt 0.078125 0.320882
vt 0.089002 0.335368
vt 0.089002 0.320882
vt 0.095282 0.340670
vt 0.079777 0.360967
vt 0.069173 0.347086
vt 0.078125 0.335368
vt 0.040202 0.362440
vt 0.029598 0.360967
vt 0.014093 0.340670
vt 0.031250 0.335368
vt 0.040202 0.347086
vt 0.014093 0.315580
vt 0.029598 0.295283
vt 0.040202 0.309164
vt 0.031250 0.320882
vt 0.054688 0.304688
vt 0.054688 0.328125
vt 0.054688 0.351562
vt 0.305319 0.484375
vt 0.312500 0.484375
vt 0.194681 0.656250
vt 0.187500 0.656250
vt 0.312500 0.484375
vt 0.305319 0.484375
vt 0.187500 0.656250
vt 0.194681 0.656250
vt 0.320312 0.562114
vt 0.323903 0.562114
vt 0.323903 0.484375
vt 0.320312 0.484375
vt 0.379222 0.578511
vt 0.382812 0.578511
vt 0.382812 0.656250
vt 0.379222 0.656250
vt 0.054687 0.281250
vt 0.083658 0.281250
vt 0.079777 0.328125
vt 0.054687 0.328125
vt 0.007812 0.290202
vt 0.007812 0.313640
vt 0.054688 0.315580
vt 0.054688 0.295283
vt 0.007812 0.342610
vt 0.054688 0.340670
vt 0.007812 0.366048
vt 0.054688 0.360967
vt 0.025717 0.281250
vt 0.029598 0.328125
vt 0.054687 0.287530
vt 0.079777 0.295283
vt 0.069173 0.309164
vt 0.069173 0.362440
vt 0.054687 0.362440
vt 0.095282 0.315580
vt 0.078125 0.320882
vt 0.089002 0.335368
vt 0.089002 0.320882
vt 0.095282 0.340670
vt 0.079777 0.360967
vt 0.069173 0.347086
vt 0.078125 0.335368
vt 0.054687 0.351562
vt 0.040202 0.362440
vt 0.029598 0.360967
vt 0.014093 0.340670
vt 0.031250 0.335368
vt 0.040202 0.347086
vt 0.014093 0.315580
vt 0.029598 0.295283
vt 0.040202 0.309164
vt 0.031250 0.320882
vt 0.054687 0.304688
vt 0.054687 0.328125
vt 0.187500 0.484375
vt 0.194681 0.484375
vt 0.312500 0.656250
vt 0.305319 0.656250
vt 0.194681 0.484375
vt 0.187500 0.484375
vt 0.305319 0.656250
vt 0.312500 0.656250
vt 0.379222 0.562114
vt 0.382812 0.562114
vt 0.382812 0.484375
vt 0.379222 0.484375
vt 0.320312 0.578511
vt 0.323903 0.578511
vt 0.323903 0.656250
vt 0.320312 0.656250
vn 0.000000 -1.000000 0.000000
vn 0.016715 -0.995356 0.094796
vn 0.048129 -0.995356 0.083362
vn 0.073738 -0.995356 0.061874
vn 0.090453 -0.995356 0.032922
vn 0.096258 -0.995356 0.000000
vn 0.090453 -0.995356 -0.032922
vn 0.073738 -0.995356 -0.061874
vn 0.048129 -0.995356 -0.083362
vn 0.016715 -0.995356 -0.094796
vn -0.016715 -0.995356 -0.094796
vn -0.048129 -0.995356 -0.083362
vn -0.073738 -0.995356 -0.061874
vn -0.090453 -0.995356 -0.032922
vn -0.096258 -0.995356 -0.000000
vn -0.090453 -0.995356 0.032922
vn -0.073738 -0.995356 0.061874
vn -0.048129 -0.995356 0.083362
vn -0.016715 -0.995356 0.094796
vn 0.173648 0.000000 0.984808
vn 0.500000 0.000000 0.866025
vn 0.766044 0.000000 0.642788
vn 0.939693 0.000000 0.342020
vn 1.000000 0.000000 0.000000
vn 0.939693 0.000000 -0.342020
vn 0.766044 0.000000 -0.642788
vn 0.500000 0.000000 -0.866025
vn 0.173648 0.000000 -0.984808
vn -0.173648 0.000000 -0.984808
vn -0.500000 0.000000 -0.866025
vn -0.766044 0.000000 -0.642788
vn -0.939693 0.000000 -0.342020
vn -1.000000 0.000000 -0.000000
vn -0.939693 0.000000 0.342020
vn -0.766044 0.000000 0.642788
vn -0.500000 0.000000 0.866025
vn -0.173648 0.000000 0.984808
vn 0.000000 1.000000 0.000000
vn 0.149925 0.504552 0.850264
vn 0.431691 0.504552 0.747710
vn 0.661388 0.504552 0.554971
vn 0.811313 0.504552 0.295294
vn 0.863381 0.504552 0.000000
vn 0.811313 0.504552 -0.295294
vn 0.661388 0.504552 -0.554971
vn 0.431691 0.504552 -0.747710
vn 0.149925 0.504552 -0.850264
vn -0.149925 0.504552 -0.850264
vn -0.431691 0.504552 -0.747710
vn -0.661388 0.504552 -0.554971
vn -0.811313 0.504552 -0.295294
vn -0.863381 0.504552 -0.000000
vn -0.811313 0.504552 0.295294
vn -0.661388 0.504552 0.554971
vn -0.431691 0.504552 0.747710
vn -0.149925 0.504552 0.850264
vn 0.114720 0.750700 0.650607
vn 0.330322 0.750700 0.572134
vn 0.506082 0.750700 0.424653
vn 0.620802 0.750700 0.225953
vn 0.660643 0.750700 0.000000
vn 0.620802 0.750700 -0.225953
vn 0.506082 0.750700 -0.424653
vn 0.330322 0.750700 -0.572134
vn 0.114720 0.750700 -0.650607
vn -0.114720 0.750700 -0.650607
vn -0.330322 0.750700 -0.572134
vn -0.506082 0.750700 -0.424653
vn -0.620802 0.750700 -0.225953
vn -0.660643 0.750700 -0.000000
vn -0.620802 0.750700 0.225953
vn -0.506082 0.750700 0.424653
vn -0.330322 0.750700 0.572134
vn -0.114720 0.750700 0.650607
vn 0.013542 0.996954 0.076802
vn 0.038994 0.996954 0.067539
vn 0.059742 0.996954 0.050129
vn 0.073284 0.996954 0.026673
vn 0.077987 0.996954 0.000000
vn 0.073284 0.996954 -0.026673
vn 0.059742 0.996954 -0.050129
vn 0.038994 0.996954 -0.067539
vn 0.013542 0.996954 -0.076802
vn -0.013542 0.996954 -0.076802
vn -0.038994 0.996954 -0.067539
vn -0.059742 0.996954 -0.050129
vn -0.073284 0.996954 -0.026673
vn -0.077987 0.996954 -0.000000
vn -0.073284 0.996954 0.026673
vn -0.059742 0.996954 0.050129
vn -0.038994 0.996954 0.067539
vn -0.013542 0.996954 0.076802
vn 0.000000 0.000000 1.000000
vn 0.000000 0.000000 -1.000000
vn -0.000000 1.000000 0.000000
vn 0.000000 -1.000000 0.000000
vn -1.000000 0.000000 0.000000
vn 1.000000 0.000000 0.000000
vn 0.299447 -0.246943 -0.921602
vn 0.783962 -0.246943 -0.569582
vn 0.969030 -0.246943 -0.000000
vn 0.783962 -0.246943 0.569582
vn 0.299447 -0.246943 0.921602
vn -0.299447 -0.246943 0.921602
vn -0.783962 -0.246943 0.569582
vn -0.969030 -0.246943 0.000000
vn -0.783962 -0.246943 -0.569582
vn -0.299447 -0.246943 -0.921602
vn 0.223919 -0.689152 -0.689152
vn 0.586227 -0.689152 -0.425919
vn 0.724617 -0.689152 -0.000000
vn 0.586227 -0.689152 0.425919
vn 0.223919 -0.689152 0.689152
vn -0.223919 -0.689152 0.689152
vn -0.586227 -0.689152 0.425919
vn -0.724617 -0.689152 0.000000
vn -0.586227 -0.689152 -0.425919
vn -0.223919 -0.689152 -0.689152
vn 0.083800 -0.962528 -0.257909
vn 0.219390 -0.962528 -0.159396
vn 0.271181 -0.962528 -0.000000
vn 0.219390 -0.962528 0.159396
vn 0.083800 -0.962528 0.257909
vn -0.083800 -0.962528 0.257909
vn -0.219390 -0.962528 0.159396
vn -0.271181 -0.962528 0.000000
vn -0.219390 -0.962528 -0.159396
vn -0.083800 -0.962528 -0.257909
vn 0.000000 -1.000000 0.000000
vn 0.382683 0.000000 0.923880
vn 0.923880 0.000000 0.382683
vn 0.923880 0.000000 -0.382683
vn 0.382683 0.000000 -0.923880
vn -0.382683 0.000000 -0.923880
vn -0.923880 0.000000 -0.382683
vn -0.923880 0.000000 0.382683
vn -0.382683 0.000000 0.923880
vn 0.000000 1.000000 0.000000
vn 0.000000 -0.389418 0.921061
vn 0.000000 0.389418 -0.921061
vn -0.000000 0.921061 0.389418
vn 0.000000 -0.921061 -0.389418
vn -1.000000 0.000000 0.000000
vn 1.000000 0.000000 0.000000
vn 0.000000 0.000000 1.000000
vn 0.000000 0.000000 -1.000000
vn 0.000000 0.999181 -0.040463
vn 0.000000 -0.999181 -0.040463
vn -0.997981 0.000000 -0.063508
vn 0.997981 0.000000 -0.063508
vn 0.158879 -0.798741 0.580319
vn -0.061352 0.308435 0.949265
vn -0.195090 0.980785 0.000000
vn -0.061352 0.308435 -0.949265
vn 0.158879 -0.798741 -0.580319
vn 0.452450 -0.677140 0.580319
vn -0.174714 0.261478 0.949265
vn -0.555570 0.831470 0.000000
vn -0.174714 0.261478 -0.949265
vn 0.452450 -0.677140 -0.580319
vn 0.677140 -0.452450 0.580319
vn -0.261478 0.174714 0.949265
vn -0.831470 0.555570 0.000000
vn -0.261478 0.174714 -0.949265
vn 0.677140 -0.452450 -0.580319
vn 0.798741 -0.158879 0.580319
vn -0.308435 0.061352 0.949265
vn -0.980785 0.195090 0.000000
vn -0.308435 0.061352 -0.949265
vn 0.798741 -0.158879 -0.580319
vn 0.798741 0.158879 0.580319
vn -0.308435 -0.061352 0.949265
vn -0.980785 -0.195090 0.000000
vn -0.308435 -0.061352 -0.949265
vn 0.798741 0.158879 -0.580319
vn 0.677140 0.452450 0.580319
vn -0.261478 -0.174714 0.949265
vn -0.831470 -0.555570 0.000000
vn -0.261478 -0.174714 -0.949265
vn 0.677140 0.452450 -0.580319
vn 0.452450 0.677140 0.580319
vn -0.174714 -0.261478 0.949265
vn -0.555570 -0.831470 0.000000
vn -0.174714 -0.261478 -0.949265
vn 0.452450 0.677140 -0.580319
vn 0.158879 0.798741 0.580319
vn -0.061352 -0.308435 0.949265
vn -0.195090 -0.980785 0.000000
vn -0.061352 -0.308435 -0.949265
vn 0.158879 0.798741 -0.580319
vn -0.158879 0.798741 0.580319
vn 0.061352 -0.308435 0.949265
vn 0.195090 -0.980785 0.000000
vn 0.061352 -0.308435 -0.949265
vn -0.158879 0.798741 -0.580319
vn -0.452450 0.677140 0.580319
vn 0.174714 -0.261478 0.949265
vn 0.555570 -0.831470 0.000000
vn 0.174714 -0.261478 -0.949265
vn -0.452450 0.677140 -0.580319
vn -0.677140 0.452450 0.580319
vn 0.261478 -0.174714 0.949265
vn 0.831470 -0.555570 0.000000
vn 0.261478 -0.174714 -0.949265
vn -0.677140 0.452450 -0.580319
vn -0.798741 0.158879 0.580319
vn 0.308435 -0.061352 0.949265
vn 0.980785 -0.195090 0.000000
vn 0.308435 -0.061352 -0.949265
vn -0.798741 0.158879 -0.580319
vn -0.798741 -0.158879 0.580319
vn 0.308435 0.061352 0.949265
vn 0.980785 0.195090 0.000000
vn 0.308435 0.061352 -0.949265
vn -0.798741 -0.158879 -0.580319
vn -0.677140 -0.452450 0.580319
vn 0.261478 0.174714 0.949265
vn 0.831470 0.555570 0.000000
vn 0.261478 0.174714 -0.949265
vn -0.677140 -0.452450 -0.580319
vn -0.452450 -0.677140 0.580319
vn 0.174714 0.261478 0.949265
vn 0.555570 0.831470 0.000000
vn 0.174714 0.261478 -0.949265
vn -0.452450 -0.677140 -0.580319
vn -0.158879 -0.798741 0.580319
vn 0.061352 0.308435 0.949265
vn 0.195090 0.980785 0.000000
vn 0.061352 0.308435 -0.949265
vn -0.158879 -0.798741 -0.580319
vn 0.173052 -0.532599 0.828487
vn 0.453056 -0.329164 0.828487
vn 0.560008 -0.000000 0.828487
vn 0.453056 0.329164 0.828487
vn 0.173052 0.532599 0.828487
vn -0.173052 0.532599 0.828487
vn -0.453056 0.329164 0.828487
vn -0.560008 0.000000 0.828487
vn -0.453056 -0.329164 0.828487
vn -0.173052 -0.532599 0.828487
vn 0.053340 -0.164165 0.984990
vn 0.139647 -0.101460 0.984990
vn 0.172613 -0.000000 0.984990
vn 0.139647 0.101460 0.984990
vn 0.053340 0.164165 0.984990
vn -0.053340 0.164165 0.984990
vn -0.139647 0.101460 0.984990
vn -0.172613 0.000000 0.984990
vn -0.139647 -0.101460 0.984990
vn -0.053340 -0.164165 0.984990
vn 0.000000 0.000000 1.000000
vn 0.000000 0.000000 -1.000000
vn -0.000000 1.000000 0.000000
vn 0.000000 -1.000000 0.000000
vn -1.000000 0.000000 0.000000
vn 1.000000 0.000000 0.000000
vn 1.000000 -0.000000 0.000000
vn -1.000000 0.000000 0.000000
vn 0.000000 1.000000 0.000000
vn 0.000000 -0.860292 0.509802
vn -0.000000 -1.000000 0.000000
vn -0.000000 -0.747409 -0.664364
vn 0.000000 0.000000 1.000000
vn 0.000000 0.000000 -1.000000
vn 0.000000 0.999972 -0.007536
vn 0.000000 -0.999972 -0.007536
vn -0.999956 0.000000 -0.009420
vn 0.999956 0.000000 -0.009420
vn -0.000000 1.000000 0.000000
vn 0.000000 -1.000000 0.000000
vn -1.000000 0.000000 0.000000
vn 1.000000 0.000000 0.000000
vn 0.000000 0.000000 1.000000
vn 0.000000 0.000000 -1.000000
vn 0.000000 0.999972 -0.007536
vn 0.000000 -0.999972 -0.007536
vn -0.999956 0.000000 -0.009420
vn 0.999956 0.000000 -0.009420
vn -0.000000 1.000000 0.000000
vn 0.000000 -1.000000 0.000000
vn -1.000000 0.000000 0.000000
vn 1.000000 0.000000 0.000000
vn 0.299447 -0.921602 0.246943
vn 0.783962 -0.569582 0.246943
vn 0.969030 -0.000000 0.246943
vn 0.783962 0.569582 0.246943
vn 0.299447 0.921602 0.246943
vn -0.299447 0.921602 0.246943
vn -0.783962 0.569582 0.246943
vn -0.969030 0.000000 0.246943
vn -0.783962 -0.569582 0.246943
vn -0.299447 -0.921602 0.246943
vn 0.223919 -0.689152 0.689152
vn 0.586227 -0.425919 0.689152
vn 0.724617 -0.000000 0.689152
vn 0.586227 0.425919 0.689152
vn 0.223919 0.689152 0.689152
vn -0.223919 0.689152 0.689152
vn -0.586227 0.425919 0.689152
vn -0.724617 0.000000 0.689152
vn -0.586227 -0.425919 0.689152
vn -0.223919 -0.689152 0.689152
vn 0.083800 -0.257909 0.962528
vn 0.219390 -0.159396 0.962528
vn 0.271181 -0.000000 0.962528
vn 0.219390 0.159396 0.962528
vn 0.083800 0.257909 0.962528
vn -0.083800 0.257909 0.962528
vn -0.219390 0.159396 0.962528
vn -0.271181 0.000000 0.962528
vn -0.219390 -0.159396 0.962528
vn -0.083800 -0.257909 0.962528
vn -0.000000 0.325667 0.945485
vn -0.000000 -0.325667 -0.945485
vn -0.000000 1.000000 0.000000
vn 0.000000 -1.000000 0.000000
vn -0.565528 -0.824729 0.000000
vn 0.565528 0.824729 0.000000
vn 0.299447 -0.921602 0.246943
vn 0.783962 -0.569582 0.246943
vn 0.969030 -0.000000 0.246943
vn 0.783962 0.569582 0.246943
vn 0.299447 0.921602 0.246943
vn -0.299447 0.921602 0.246943
vn -0.783962 0.569582 0.246943
vn -0.969030 0.000000 0.246943
vn -0.783962 -0.569582 0.246943
vn -0.299447 -0.921602 0.246943
vn 0.223919 -0.689152 0.689152
vn 0.586227 -0.425919 0.689152
vn 0.724617 -0.000000 0.689152
vn 0.586227 0.425919 0.689152
vn 0.223919 0.689152 0.689152
vn -0.223919 0.689152 0.689152
vn -0.586227 0.425919 0.689152
vn -0.724617 0.000000 0.689152
vn -0.586227 -0.425919 0.689152
vn -0.223919 -0.689152 0.689152
vn 0.083800 -0.257909 0.962528
vn 0.219390 -0.159396 0.962528
vn 0.271181 -0.000000 0.962528
vn 0.219390 0.159396 0.962528
vn 0.083800 0.257909 0.962528
vn -0.083800 0.257909 0.962528
vn -0.219390 0.159396 0.962528
vn -0.271181 0.000000 0.962528
vn -0.219390 -0.159396 0.962528
vn -0.083800 -0.257909 0.962528
vn -0.000000 0.325667 0.945485
vn -0.000000 -0.325667 -0.945485
vn -0.000000 1.000000 0.000000
vn 0.000000 -1.000000 0.000000
vn -0.565528 0.824729 0.000000
vn 0.565528 -0.824729 0.000000
f 1/1/1 2/2/1 3/3/1
f 1/1/1 4/4/1 2/2/1
f 1/1/1 5/5/1 4/4/1
f 1/1/1 6/6/1 5/5/1
f 1/1/1 7/7/1 6/6/1
f 1/1/1 8/8/1 7/7/1
f 1/1/1 9/9/1 8/8/1
f 1/1/1 10/10/1 9/9/1
f 1/1/1 11/11/1 10/10/1
f 1/1/1 12/12/1 11/11/1
f 1/1/1 13/13/1 12/12/1
f 1/1/1 14/14/1 13/13/1
f 1/1/1 15/15/1 14/14/1
f 1/1/1 16/16/1 15/15/1
f 1/1/1 17/17/1 16/16/1
f 1/1/1 18/18/1 17/17/1
f 1/1/1 19/19/1 18/18/1
f 1/1/1 3/3/1 19/19/1
f 3/3/2 2/2/2 20/20/2
f 3/3/2 20/20/2 21/21/2
f 2/2/3 4/4/3 22/22/3
f 2/2/3 22/22/3 20/20/3
f 4/4/4 5/5/4 23/23/4
f 4/4/4 23/23/4 22/22/4
f 5/5/5 6/6/5 24/24/5
f 5/5/5 24/24/5 23/23/5
f 6/6/6 7/7/6 25/25/6
f 6/6/6 25/25/6 24/24/6
f 7/7/7 8/8/7 26/26/7
f 7/7/7 26/26/7 25/25/7
f 8/8/8 9/9/8 27/27/8
f 8/8/8 27/27/8 26/26/8
f 9/9/9 10/10/9 28/28/9
f 9/9/9 28/28/9 27/27/9
f 10/10/10 11/11/10 29/29/10
f 10/10/10 29/29/10 28/28/10
f 11/11/11 12/12/11 30/30/11
f 11/11/11 30/30/11 29/29/11
f 12/12/12 13/13/12 31/31/12
f 12/12/12 31/31/12 30/30/12
f 13/13/13 14/14/13 32/32/13
f 13/13/13 32/32/13 31/31/13
f 14/14/14 15/15/14 33/33/14
f 14/14/14 33/33/14 32/32/14
f 15/15/15 16/16/15 34/34/15
f 15/15/15 34/34/15 33/33/15
f 16/16/16 17/17/16 35/35/16
f 16/16/16 35/35/16 34/34/16
f 17/17/17 18/18/17 36/36/17
f 17/17/17 36/36/17 35/35/17
f 18/18/18 19/19/18 37/37/18
f 18/18/18 37/37/18 36/36/18
f 19/19/19 3/3/19 21/21/19
f 19/19/19 21/21/19 37/37/19
f 21/21/1 20/20/1 38/38/1
f 21/21/1 38/38/1 39/39/1
f 20/20/1 22/22/1 40/40/1
f 20/20/1 40/40/1 38/38/1
f 22/22/1 23/23/1 41/41/1
f 22/22/1 41/41/1 40/40/1
f 23/23/1 24/24/1 42/42/1
f 23/23/1 42/42/1 41/41/1
f 24/24/1 25/25/1 43/43/1
f 24/24/1 43/43/1 42/42/1
f 25/25/1 26/26/1 44/44/1
f 25/25/1 44/44/1 43/43/1
f 26/26/1 27/27/1 45/45/1
f 26/26/1 45/45/1 44/44/1
f 27/27/1 28/28/1 46/46/1
f 27/27/1 46/46/1 45/45/1
f 28/28/1 29/29/1 47/47/1
f 28/28/1 47/47/1 46/46/1
f 29/29/1 30/30/1 48/48/1
f 29/29/1 48/48/1 47/47/1
f 30/30/1 31/31/1 49/49/1
f 30/30/1 49/49/1 48/48/1
f 31/31/1 32/32/1 50/50/1
f 31/31/1 50/50/1 49/49/1
f 32/32/1 33/33/1 51/51/1
f 32/32/1 51/51/1 50/50/1
f 33/33/1 34/34/1 52/52/1
f 33/33/1 52/52/1 51/51/1
f 34/34/1 35/35/1 53/53/1
f 34/34/1 53/53/1 52/52/1
f 35/35/1 36/36/1 54/54/1
f 35/35/1 54/54/1 53/53/1
f 36/36/1 37/37/1 55/55/1
f 36/36/1 55/55/1 54/54/1
f 37/37/1 21/21/1 39/39/1
f 37/37/1 39/39/1 55/55/1
f 39/56/20 38/57/20 56/58/20
f 39/56/20 56/58/20 57/59/20
f 38/57/21 40/60/21 58/61/21
f 38/57/21 58/61/21 56/58/21
f 40/62/22 41/63/22 59/64/22
f 40/62/22 59/64/22 58/65/22
f 41/63/23 42/66/23 60/67/23
f 41/63/23 60/67/23 59/64/23
f 42/66/24 43/68/24 61/69/24
f 42/66/24 61/69/24 60/67/24
f 43/68/25 44/70/25 62/71/25
f 43/68/25 62/71/25 61/69/25
f 44/70/26 45/72/26 63/73/26
f 44/70/26 63/73/26 62/71/26
f 45/74/27 46/75/27 64/76/27
f 45/74/27 64/76/27 63/77/27
f 46/75/28 47/78/28 65/79/28
f 46/75/28 65/79/28 64/76/28
f 47/78/29 48/80/29 66/81/29
f 47/78/29 66/81/29 65/79/29
f 48/80/30 49/82/30 67/83/30
f 48/80/30 67/83/30 66/81/30
f 49/72/31 50/70/31 68/71/31
f 49/72/31 68/71/31 67/73/31
f 50/70/32 51/68/32 69/69/32
f 50/70/32 69/69/32 68/71/32
f 51/68/33 52/66/33 70/67/33
f 51/68/33 70/67/33 69/69/33
f 52/66/34 53/63/34 71/64/34
f 52/66/34 71/64/34 70/67/34
f 53/63/35 54/62/35 72/65/35
f 53/63/35 72/65/35 71/64/35
f 54/84/36 55/85/36 73/86/36
f 54/84/36 73/86/36 72/87/36
f 55/85/37 39/56/37 57/59/37
f 55/85/37 57/59/37 73/86/37
f 57/39/38 56/38/38 74/20/38
f 57/39/38 74/20/38 75/21/38
f 56/38/38 58/40/38 76/22/38
f 56/38/38 76/22/38 74/20/38
f 58/40/38 59/41/38 77/23/38
f 58/40/38 77/23/38 76/22/38
f 59/41/38 60/42/38 78/24/38
f 59/41/38 78/24/38 77/23/38
f 60/42/38 61/43/38 79/25/38
f 60/42/38 79/25/38 78/24/38
f 61/43/38 62/44/38 80/26/38
f 61/43/38 80/26/38 79/25/38
f 62/44/38 63/45/38 81/27/38
f 62/44/38 81/27/38 80/26/38
f 63/45/38 64/46/38 82/28/38
f 63/45/38 82/28/38 81/27/38
f 64/46/38 65/47/38 83/29/38
f 64/46/38 83/29/38 82/28/38
f 65/47/38 66/48/38 84/30/38
f 65/47/38 84/30/38 83/29/38
f 66/48/38 67/49/38 85/31/38
f 66/48/38 85/31/38 84/30/38
f 67/49/38 68/50/38 86/32/38
f 67/49/38 86/32/38 85/31/38
f 68/50/38 69/51/38 87/33/38
f 68/50/38 87/33/38 86/32/38
f 69/51/38 70/52/38 88/34/38
f 69/51/38 88/34/38 87/33/38
f 70/52/38 71/53/38 89/35/38
f 70/52/38 89/35/38 88/34/38
f 71/53/38 72/54/38 90/36/38
f 71/53/38 90/36/38 89/35/38
f 72/54/38 73/55/38 91/37/38
f 72/54/38 91/37/38 90/36/38
f 73/55/38 57/39/38 75/21/38
f 73/55/38 75/21/38 91/37/38
f 75/59/39 74/88/39 92/89/39
f 75/59/39 92/89/39 93/90/39
f 74/88/40 76/91/40 94/92/40
f 74/88/40 94/92/40 92/89/40
f 76/93/41 77/94/41 95/95/41
f 76/93/41 95/95/41 94/96/41
f 77/94/42 78/97/42 96/98/42
f 77/94/42 96/98/42 95/95/42
f 78/97/43 79/99/43 97/100/43
f 78/97/43 97/100/43 96/98/43
f 79/99/44 80/101/44 98/102/44
f 79/99/44 98/102/44 97/100/44
f 80/101/45 81/103/45 99/104/45
f 80/101/45 99/104/45 98/102/45
f 81/105/46 82/106/46 100/107/46
f 81/105/46 100/107/46 99/108/46
f 82/106/47 83/79/47 101/109/47
f 82/106/47 101/109/47 100/107/47
f 83/79/48 84/110/48 102/111/48
f 83/79/48 102/111/48 101/109/48
f 84/110/49 85/112/49 103/113/49
f 84/110/49 103/113/49 102/111/49
f 85/103/50 86/101/50 104/102/50
f 85/103/50 104/102/50 103/104/50
f 86/101/51 87/99/51 105/100/51
f 86/101/51 105/100/51 104/102/51
f 87/99/52 88/97/52 106/98/52
f 87/99/52 106/98/52 105/100/52
f 88/97/53 89/94/53 107/95/53
f 88/97/53 107/95/53 106/98/53
f 89/94/54 90/93/54 108/96/54
f 89/94/54 108/96/54 107/95/54
f 90/114/55 91/115/55 109/116/55
f 90/114/55 109/116/55 108/117/55
f 91/115/56 75/59/56 93/90/56
f 91/115/56 93/90/56 109/116/56
f 93/118/38 92/119/38 110/2/38
f 93/118/38 110/2/38 111/3/38
f 92/119/38 94/120/38 112/4/38
f 92/119/38 112/4/38 110/2/38
f 94/120/38 95/121/38 113/5/38
f 94/120/38 113/5/38 112/4/38
f 95/121/38 96/122/38 114/6/38
f 95/121/38 114/6/38 113/5/38
f 96/122/38 97/123/38 115/7/38
f 96/122/38 115/7/38 114/6/38
f 97/123/38 98/124/38 116/8/38
f 97/123/38 116/8/38 115/7/38
f 98/124/38 99/125/38 117/9/38
f 98/124/38 117/9/38 116/8/38
f 99/125/38 100/126/38 118/10/38
f 99/125/38 118/10/38 117/9/38
f 100/126/38 101/127/38 119/11/38
f 100/126/38 119/11/38 118/10/38
f 101/127/38 102/128/38 120/12/38
f 101/127/38 120/12/38 119/11/38
f 102/128/38 103/129/38 121/13/38
f 102/128/38 121/13/38 120/12/38
f 103/129/38 104/130/38 122/14/38
f 103/129/38 122/14/38 121/13/38
f 104/130/38 105/131/38 123/15/38
f 104/130/38 123/15/38 122/14/38
f 105/131/38 106/132/38 124/16/38
f 105/131/38 124/16/38 123/15/38
f 106/132/38 107/133/38 125/17/38
f 106/132/38 125/17/38 124/16/38
f 107/133/38 108/134/38 126/18/38
f 107/133/38 126/18/38 125/17/38
f 108/134/38 109/135/38 127/19/38
f 108/134/38 127/19/38 126/18/38
f 109/135/38 93/118/38 111/3/38
f 109/135/38 111/3/38 127/19/38
f 111/3/57 110/2/57 128/136/57
f 111/3/57 128/136/57 129/137/57
f 110/2/58 112/4/58 130/138/58
f 110/2/58 130/138/58 128/136/58
f 112/4/59 113/5/59 131/139/59
f 112/4/59 131/139/59 130/138/59
f 113/5/60 114/6/60 132/140/60
f 113/5/60 132/140/60 131/139/60
f 114/6/61 115/7/61 133/141/61
f 114/6/61 133/141/61 132/140/61
f 115/7/62 116/8/62 134/142/62
f 115/7/62 134/142/62 133/141/62
f 116/8/63 117/9/63 135/143/63
f 116/8/63 135/143/63 134/142/63
f 117/9/64 118/10/64 136/144/64
f 117/9/64 136/144/64 135/143/64
f 118/10/65 119/11/65 137/145/65
f 118/10/65 137/145/65 136/144/65
f 119/11/66 120/12/66 138/146/66
f 119/11/66 138/146/66 137/145/66
f 120/12/67 121/13/67 139/147/67
f 120/12/67 139/147/67 138/146/67
f 121/13/68 122/14/68 140/148/68
f 121/13/68 140/148/68 139/147/68
f 122/14/69 123/15/69 141/149/69
f 122/14/69 141/149/69 140/148/69
f 123/15/70 124/16/70 142/150/70
f 123/15/70 142/150/70 141/149/70
f 124/16/71 125/17/71 143/151/71
f 124/16/71 143/151/71 142/150/71
f 125/17/72 126/18/72 144/152/72
f 125/17/72 144/152/72 143/151/72
f 126/18/73 127/19/73 145/153/73
f 126/18/73 145/153/73 144/152/73
f 127/19/74 111/3/74 129/137/74
f 127/19/74 129/137/74 145/153/74
f 129/137/75 128/136/75 146/154/75
f 129/137/75 146/154/75 147/155/75
f 128/136/76 130/138/76 148/156/76
f 128/136/76 148/156/76 146/154/76
f 130/138/77 131/139/77 149/157/77
f 130/138/77 149/157/77 148/156/77
f 131/139/78 132/140/78 150/158/78
f 131/139/78 150/158/78 149/157/78
f 132/140/79 133/141/79 151/159/79
f 132/140/79 151/159/79 150/158/79
f 133/141/80 134/142/80 152/160/80
f 133/141/80 152/160/80 151/159/80
f 134/142/81 135/143/81 153/161/81
f 134/142/81 153/161/81 152/160/81
f 135/143/82 136/144/82 154/162/82
f 135/143/82 154/162/82 153/161/82
f 136/144/83 137/145/83 155/163/83
f 136/144/83 155/163/83 154/162/83
f 137/145/84 138/146/84 156/164/84
f 137/145/84 156/164/84 155/163/84
f 138/146/85 139/147/85 157/165/85
f 138/146/85 157/165/85 156/164/85
f 139/147/86 140/148/86 158/166/86
f 139/147/86 158/166/86 157/165/86
f 140/148/87 141/149/87 159/167/87
f 140/148/87 159/167/87 158/166/87
f 141/149/88 142/150/88 160/168/88
f 141/149/88 160/168/88 159/167/88
f 142/150/89 143/151/89 161/169/89
f 142/150/89 161/169/89 160/168/89
f 143/151/90 144/152/90 162/170/90
f 143/151/90 162/170/90 161/169/90
f 144/152/91 145/153/91 163/171/91
f 144/152/91 163/171/91 162/170/91
f 145/153/92 129/137/92 147/155/92
f 145/153/92 147/155/92 163/171/92
f 147/155/38 146/154/38 164/1/38
f 146/154/38 148/156/38 164/1/38
f 148/156/38 149/157/38 164/1/38
f 149/157/38 150/158/38 164/1/38
f 150/158/38 151/159/38 164/1/38
f 151/159/38 152/160/38 164/1/38
f 152/160/38 153/161/38 164/1/38
f 153/161/38 154/162/38 164/1/38
f 154/162/38 155/163/38 164/1/38
f 155/163/38 156/164/38 164/1/38
f 156/164/38 157/165/38 164/1/38
f 157/165/38 158/166/38 164/1/38
f 158/166/38 159/167/38 164/1/38
f 159/167/38 160/168/38 164/1/38
f 160/168/38 161/169/38 164/1/38
f 161/169/38 162/170/38 164/1/38
f 162/170/38 163/171/38 164/1/38
f 163/171/38 147/155/38 164/1/38
f 165/172/93 166/173/93 167/174/93
f 165/172/93 167/174/93 168/175/93
f 169/176/94 170/177/94 171/178/94
f 169/176/94 171/178/94 172/179/94
f 168/180/95 167/181/95 172/182/95
f 168/180/95 172/182/95 171/183/95
f 170/183/96 169/182/96 166/181/96
f 170/183/96 166/181/96 165/180/96
f 170/184/97 165/185/97 168/186/97
f 170/184/97 168/186/97 171/187/97
f 166/185/98 169/184/98 172/187/98
f 166/185/98 172/187/98 167/186/98
f 173/188/99 174/189/99 175/190/99
f 173/188/99 175/190/99 176/191/99
f 174/192/100 177/193/100 178/194/100
f 174/192/100 178/194/100 175/195/100
f 177/193/101 179/196/101 180/197/101
f 177/193/101 180/197/101 178/194/101
f 179/196/102 181/198/102 182/199/102
f 179/196/102 182/199/102 180/197/102
f 181/200/103 183/201/103 184/202/103
f 181/200/103 184/202/103 182/203/103
f 183/201/104 185/204/104 186/205/104
f 183/201/104 186/205/104 184/202/104
f 185/198/105 187/196/105 188/197/105
f 185/198/105 188/197/105 186/199/105
f 187/196/106 189/193/106 190/194/106
f 187/196/106 190/194/106 188/197/106
f 189/193/107 191/192/107 192/195/107
f 189/193/107 192/195/107 190/194/107
f 191/206/108 173/188/108 176/191/108
f 191/206/108 176/191/108 192/207/108
f 176/191/109 175/190/109 193/208/109
f 176/191/109 193/208/109 194/209/109
f 175/210/110 178/211/110 195/212/110
f 175/210/110 195/212/110 193/213/110
f 178/194/111 180/197/111 196/214/111
f 178/194/111 196/214/111 195/215/111
f 180/216/112 182/217/112 197/218/112
f 180/216/112 197/218/112 196/219/112
f 182/203/113 184/202/113 198/220/113
f 182/203/113 198/220/113 197/221/113
f 184/222/114 186/223/114 199/224/114
f 184/202/114 199/225/114 198/220/114
f 186/223/115 188/226/115 200/227/115
f 186/223/115 200/227/115 199/224/115
f 188/197/116 190/194/116 201/215/116
f 188/197/116 201/215/116 200/214/116
f 190/228/117 192/229/117 202/230/117
f 190/228/117 202/230/117 201/231/117
f 192/207/118 176/191/118 194/209/118
f 192/207/118 194/209/118 202/232/118
f 194/233/119 193/213/119 203/234/119
f 193/213/120 195/212/120 203/234/120
f 195/212/121 196/219/121 203/234/121
f 196/219/122 197/218/122 203/234/122
f 197/218/123 198/235/123 203/234/123
f 198/235/124 199/224/124 203/234/124
f 199/224/125 200/227/125 203/234/125
f 200/227/126 201/231/126 203/234/126
f 201/231/127 202/230/127 203/234/127
f 202/230/128 194/233/128 203/234/128
f 204/236/129 205/237/129 206/238/129
f 204/236/129 207/239/129 205/237/129
f 204/236/129 208/240/129 207/239/129
f 204/236/129 209/241/129 208/240/129
f 204/236/129 210/242/129 209/241/129
f 204/236/129 211/243/129 210/242/129
f 204/236/129 212/244/129 211/243/129
f 204/236/129 206/238/129 212/244/129
f 206/245/130 205/246/130 213/247/130
f 206/245/130 213/247/130 214/248/130
f 205/249/131 207/250/131 215/251/131
f 205/249/131 215/251/131 213/252/131
f 207/250/132 208/253/132 216/254/132
f 207/250/132 216/254/132 215/251/132
f 208/255/133 209/256/133 217/257/133
f 208/255/133 217/257/133 216/258/133
f 209/256/134 210/259/134 218/260/134
f 209/256/134 218/260/134 217/257/134
f 210/253/135 211/250/135 219/251/135
f 210/253/135 219/251/135 218/254/135
f 211/250/136 212/249/136 220/252/136
f 211/250/136 220/252/136 219/251/136
f 212/261/137 206/245/137 214/248/137
f 212/261/137 214/248/137 220/262/137
f 214/238/138 213/237/138 221/236/138
f 213/237/138 215/239/138 221/236/138
f 215/239/138 216/240/138 221/236/138
f 216/240/138 217/241/138 221/236/138
f 217/241/138 218/242/138 221/236/138
f 218/242/138 219/243/138 221/236/138
f 219/243/138 220/244/138 221/236/138
f 220/244/138 214/238/138 221/236/138
f 222/263/139 223/264/139 224/265/139
f 222/263/139 224/265/139 225/266/139
f 226/267/140 227/268/140 228/269/140
f 226/267/140 228/269/140 229/270/140
f 225/271/141 224/272/141 229/273/141
f 225/271/141 229/273/141 228/274/141
f 227/275/142 226/276/142 223/277/142
f 227/275/142 223/277/142 222/278/142
f 227/279/143 222/280/143 225/281/143
f 227/279/143 225/281/143 228/282/143
f 223/280/144 226/279/144 229/282/144
f 223/280/144 229/282/144 224/281/144
f 230/283/145 231/284/145 232/285/145
f 230/283/145 232/285/145 233/286/145
f 234/287/146 235/288/146 236/289/146
f 234/287/146 236/289/146 237/290/146
f 233/291/147 232/292/147 237/293/147
f 233/291/147 237/293/147 236/294/147
f 235/294/148 234/293/148 231/292/148
f 235/294/148 231/292/148 230/291/148
f 235/295/149 230/296/149 233/297/149
f 235/295/149 233/297/149 236/298/149
f 231/296/150 234/295/150 237/298/150
f 231/296/150 237/298/150 232/297/150
f 238/299/151 239/300/151 240/301/151
f 238/299/151 240/301/151 241/302/151
f 241/303/152 240/304/152 242/305/152
f 241/303/152 242/305/152 243/306/152
f 243/307/153 242/308/153 244/309/153
f 243/307/153 244/309/153 245/310/153
f 245/311/154 244/312/154 246/313/154
f 245/311/154 246/313/154 247/314/154
f 247/315/155 246/316/155 239/300/155
f 247/315/155 239/300/155 238/299/155
f 239/300/156 248/317/156 249/318/156
f 239/300/156 249/318/156 240/301/156
f 240/304/157 249/319/157 250/320/157
f 240/304/157 250/320/157 242/305/157
f 242/308/158 250/321/158 251/322/158
f 242/308/158 251/322/158 244/309/158
f 244/312/159 251/323/159 252/324/159
f 244/312/159 252/324/159 246/313/159
f 246/316/160 252/325/160 248/317/160
f 246/316/160 248/317/160 239/300/160
f 248/326/161 253/327/161 254/328/161
f 248/326/161 254/328/161 249/329/161
f 249/319/162 254/330/162 255/331/162
f 249/319/162 255/331/162 250/320/162
f 250/332/163 255/333/163 256/334/163
f 250/332/163 256/334/163 251/335/163
f 251/323/164 256/336/164 257/337/164
f 251/323/164 257/337/164 252/324/164
f 252/338/165 257/339/165 253/327/165
f 252/338/165 253/327/165 248/326/165
f 253/327/166 258/340/166 259/341/166
f 253/327/166 259/341/166 254/328/166
f 254/330/167 259/342/167 260/343/167
f 254/330/167 260/343/167 255/331/167
f 255/333/168 260/344/168 261/345/168
f 255/333/168 261/345/168 256/334/168
f 256/336/169 261/346/169 262/347/169
f 256/336/169 262/347/169 257/337/169
f 257/339/170 262/348/170 258/340/170
f 257/339/170 258/340/170 253/327/170
f 258/340/171 263/349/171 264/350/171
f 258/340/171 264/350/171 259/341/171
f 259/342/172 264/351/172 265/352/172
f 259/342/172 265/352/172 260/343/172
f 260/344/173 265/353/173 266/354/173
f 260/344/173 266/354/173 261/345/173
f 261/346/174 266/355/174 267/356/174
f 261/346/174 267/356/174 262/347/174
f 262/348/175 267/357/175 263/349/175
f 262/348/175 263/349/175 258/340/175
f 263/349/176 268/358/176 269/359/176
f 263/349/176 269/359/176 264/350/176
f 264/351/177 269/360/177 270/361/177
f 264/351/177 270/361/177 265/352/177
f 265/353/178 270/362/178 271/363/178
f 265/353/178 271/363/178 266/354/178
f 266/355/179 271/364/179 272/365/179
f 266/355/179 272/365/179 267/356/179
f 267/357/180 272/366/180 268/358/180
f 267/357/180 268/358/180 263/349/180
f 268/317/181 273/300/181 274/301/181
f 268/317/181 274/301/181 269/318/181
f 269/360/182 274/367/182 275/368/182
f 269/360/182 275/368/182 270/361/182
f 270/321/183 275/308/183 276/309/183
f 270/321/183 276/309/183 271/322/183
f 271/364/184 276/369/184 277/370/184
f 271/364/184 277/370/184 272/365/184
f 272/325/185 277/316/185 273/300/185
f 272/325/185 273/300/185 268/317/185
f 273/300/186 278/299/186 279/302/186
f 273/300/186 279/302/186 274/301/186
f 274/367/187 279/371/187 280/372/187
f 274/367/187 280/372/187 275/368/187
f 275/308/188 280/307/188 281/310/188
f 275/308/188 281/310/188 276/309/188
f 276/369/189 281/373/189 282/374/189
f 276/369/189 282/374/189 277/370/189
f 277/316/190 282/315/190 278/299/190
f 277/316/190 278/299/190 273/300/190
f 278/299/191 283/375/191 284/376/191
f 278/299/191 284/376/191 279/302/191
f 279/371/192 284/377/192 285/378/192
f 279/371/192 285/378/192 280/372/192
f 280/307/193 285/379/193 286/380/193
f 280/307/193 286/380/193 281/310/193
f 281/373/194 286/381/194 287/382/194
f 281/373/194 287/382/194 282/374/194
f 282/315/195 287/383/195 283/375/195
f 282/315/195 283/375/195 278/299/195
f 283/375/196 288/384/196 289/385/196
f 283/375/196 289/385/196 284/376/196
f 284/377/197 289/386/197 290/387/197
f 284/377/197 290/387/197 285/378/197
f 285/379/198 290/388/198 291/389/198
f 285/379/198 291/389/198 286/380/198
f 286/381/199 291/390/199 292/391/199
f 286/381/199 292/391/199 287/382/199
f 287/383/200 292/392/200 288/384/200
f 287/383/200 288/384/200 283/375/200
f 288/358/201 293/349/201 294/350/201
f 288/358/201 294/350/201 289/359/201
f 289/386/202 294/393/202 295/394/202
f 289/386/202 295/394/202 290/387/202
f 290/362/203 295/353/203 296/354/203
f 290/362/203 296/354/203 291/363/203
f 291/390/204 296/395/204 297/396/204
f 291/390/204 297/396/204 292/391/204
f 292/366/205 297/357/205 293/349/205
f 292/366/205 293/349/205 288/358/205
f 293/349/206 298/340/206 299/341/206
f 293/349/206 299/341/206 294/350/206
f 294/393/207 299/397/207 300/398/207
f 294/393/207 300/398/207 295/394/207
f 295/353/208 300/344/208 301/345/208
f 295/353/208 301/345/208 296/354/208
f 296/395/209 301/399/209 302/400/209
f 296/395/209 302/400/209 297/396/209
f 297/357/210 302/348/210 298/340/210
f 297/357/210 298/340/210 293/349/210
f 298/340/211 303/327/211 304/328/211
f 298/340/211 304/328/211 299/341/211
f 299/397/212 304/401/212 305/402/212
f 299/397/212 305/402/212 300/398/212
f 300/344/213 305/333/213 306/334/213
f 300/344/213 306/334/213 301/345/213
f 301/399/214 306/403/214 307/404/214
f 301/399/214 307/404/214 302/400/214
f 302/348/215 307/339/215 303/327/215
f 302/348/215 303/327/215 298/340/215
f 303/327/216 308/326/216 309/329/216
f 303/327/216 309/329/216 304/328/216
f 304/401/217 309/405/217 310/406/217
f 304/401/217 310/406/217 305/402/217
f 305/333/218 310/332/218 311/335/218
f 305/333/218 311/335/218 306/334/218
f 306/403/219 311/407/219 312/408/219
f 306/403/219 312/408/219 307/404/219
f 307/339/220 312/338/220 308/326/220
f 307/339/220 308/326/220 303/327/220
f 308/384/221 313/375/221 314/376/221
f 308/384/221 314/376/221 309/385/221
f 309/405/222 314/409/222 315/410/222
f 309/405/222 315/410/222 310/406/222
f 310/388/223 315/379/223 316/380/223
f 310/388/223 316/380/223 311/389/223
f 311/407/224 316/411/224 317/412/224
f 311/407/224 317/412/224 312/408/224
f 312/392/225 317/383/225 313/375/225
f 312/392/225 313/375/225 308/384/225
f 313/375/226 238/299/226 241/302/226
f 313/375/226 241/302/226 314/376/226
f 314/409/227 241/303/227 243/306/227
f 314/409/227 243/306/227 315/410/227
f 315/379/228 243/307/228 245/310/228
f 315/379/228 245/310/228 316/380/228
f 316/411/229 245/311/229 247/314/229
f 316/411/229 247/314/229 317/412/229
f 317/383/230 247/315/230 238/299/230
f 317/383/230 238/299/230 313/375/230
f 318/413/231 319/414/231 320/415/231
f 318/413/231 320/415/231 321/416/231
f 319/414/232 322/417/232 323/418/232
f 319/414/232 323/418/232 320/415/232
f 322/417/233 324/419/233 325/420/233
f 322/417/233 325/420/233 323/418/233
f 324/419/234 326/421/234 327/422/234
f 324/419/234 327/422/234 325/420/234
f 326/421/235 328/423/235 329/424/235
f 326/421/235 329/424/235 327/422/235
f 328/423/236 330/425/236 331/426/236
f 328/423/236 331/426/236 329/424/236
f 330/425/237 332/427/237 333/428/237
f 330/425/237 333/428/237 331/426/237
f 332/427/238 334/429/238 335/430/238
f 332/427/238 335/430/238 333/428/238
f 334/429/239 336/431/239 337/432/239
f 334/429/239 337/432/239 335/430/239
f 336/431/240 318/413/240 321/416/240
f 336/431/240 321/416/240 337/432/240
f 321/416/241 320/415/241 338/433/241
f 320/415/242 323/418/242 338/433/242
f 323/418/243 325/420/243 338/433/243
f 325/420/244 327/422/244 338/433/244
f 327/422/245 329/424/245 338/433/245
f 329/424/246 331/426/246 338/433/246
f 331/426/247 333/428/247 338/433/247
f 333/428/248 335/430/248 338/433/248
f 335/430/249 337/432/249 338/433/249
f 337/432/250 321/416/250 338/433/250
f 339/434/251 340/435/251 341/436/251
f 339/434/251 341/436/251 342/437/251
f 343/438/252 344/439/252 345/440/252
f 343/438/252 345/440/252 346/441/252
f 342/442/253 341/443/253 346/444/253
f 342/442/253 346/444/253 345/445/253
f 344/445/254 343/444/254 340/443/254
f 344/445/254 340/443/254 339/442/254
f 344/446/255 339/447/255 342/448/255
f 344/446/255 342/448/255 345/449/255
f 340/447/256 343/446/256 346/449/256
f 340/447/256 346/449/256 341/448/256
f 347/450/257 348/451/257 349/452/257
f 350/450/258 351/452/258 352/451/258
f 347/450/257 349/452/257 353/453/257
f 350/450/258 354/453/258 351/452/258
f 347/454/259 350/455/259 352/456/259
f 347/454/259 352/456/259 348/457/259
f 348/457/260 352/456/260 351/458/260
f 348/457/260 351/458/260 349/459/260
f 349/459/261 351/458/261 354/460/261
f 349/459/261 354/460/261 353/461/261
f 353/461/262 354/460/262 350/455/262
f 353/461/262 350/455/262 347/454/262
f 355/462/263 356/463/263 357/464/263
f 355/462/263 357/464/263 358/465/263
f 359/466/264 360/467/264 361/468/264
f 359/466/264 361/468/264 362/469/264
f 358/470/265 357/471/265 362/472/265
f 358/470/265 362/472/265 361/473/265
f 360/473/266 359/472/266 356/471/266
f 360/473/266 356/471/266 355/470/266
f 360/474/267 355/475/267 358/476/267
f 360/474/267 358/476/267 361/477/267
f 356/478/268 359/479/268 362/480/268
f 356/478/268 362/480/268 357/481/268
f 363/482/263 364/483/263 365/484/263
f 363/482/263 365/484/263 366/485/263
f 367/486/264 368/487/264 369/488/264
f 367/486/264 369/488/264 370/489/264
f 366/490/269 365/491/269 370/492/269
f 366/490/269 370/492/269 369/493/269
f 368/493/270 367/492/270 364/491/270
f 368/493/270 364/491/270 363/490/270
f 368/494/271 363/495/271 366/496/271
f 368/494/271 366/496/271 369/497/271
f 364/498/272 367/498/272 370/499/272
f 364/498/272 370/499/272 365/499/272
f 371/500/263 372/501/263 373/502/263
f 371/500/263 373/502/263 374/503/263
f 375/504/264 376/505/264 377/506/264
f 375/504/264 377/506/264 378/507/264
f 374/508/269 373/509/269 378/510/269
f 374/508/269 378/510/269 377/511/269
f 376/511/270 375/510/270 372/509/270
f 376/511/270 372/509/270 371/508/270
f 376/512/271 371/513/271 374/514/271
f 376/512/271 374/514/271 377/515/271
f 372/516/272 375/516/272 378/517/272
f 372/516/272 378/517/272 373/517/272
f 379/518/273 380/519/273 381/520/273
f 379/518/273 381/520/273 382/521/273
f 383/522/274 384/523/274 385/524/274
f 383/522/274 385/524/274 386/525/274
f 382/526/275 381/527/275 386/528/275
f 382/526/275 386/528/275 385/529/275
f 384/529/276 383/528/276 380/527/276
f 384/529/276 380/527/276 379/526/276
f 384/530/277 379/531/277 382/532/277
f 384/530/277 382/532/277 385/533/277
f 380/534/278 383/535/278 386/536/278
f 380/534/278 386/536/278 381/537/278
f 387/538/273 388/539/273 389/540/273
f 387/538/273 389/540/273 390/541/273
f 391/542/274 392/543/274 393/544/274
f 391/542/274 393/544/274 394/545/274
f 390/546/279 389/547/279 394/548/279
f 390/546/279 394/548/279 393/549/279
f 392/549/280 391/548/280 388/547/280
f 392/549/280 388/547/280 387/546/280
f 392/550/281 387/550/281 390/551/281
f 392/550/281 390/551/281 393/551/281
f 388/552/282 391/553/282 394/554/282
f 388/552/282 394/554/282 389/555/282
f 395/556/273 396/557/273 397/558/273
f 395/556/273 397/558/273 398/559/273
f 399/560/274 400/561/274 401/562/274
f 399/560/274 401/562/274 402/563/274
f 398/564/279 397/565/279 402/566/279
f 398/564/279 402/566/279 401/567/279
f 400/567/280 399/566/280 396/565/280
f 400/567/280 396/565/280 395/564/280
f 400/568/281 395/568/281 398/569/281
f 400/568/281 398/569/281 401/569/281
f 396/570/282 399/571/282 402/572/282
f 396/570/282 402/572/282 397/573/282
f 403/574/283 404/575/283 405/576/283
f 403/574/283 405/576/283 406/577/283
f 404/578/284 407/579/284 408/580/284
f 404/578/284 408/580/284 405/581/284
f 407/579/285 409/582/285 410/583/285
f 407/579/285 410/583/285 408/580/285
f 409/582/286 411/584/286 412/585/286
f 409/582/286 412/585/286 410/583/286
f 411/575/287 413/574/287 414/577/287
f 411/575/287 414/577/287 412/576/287
f 413/574/288 415/586/288 416/587/288
f 413/574/288 416/587/288 414/577/288
f 415/584/289 417/582/289 418/583/289
f 415/584/289 418/583/289 416/585/289
f 417/582/290 419/579/290 420/580/290
f 417/582/290 420/580/290 418/583/290
f 419/579/291 421/578/291 422/581/291
f 419/579/291 422/581/291 420/580/291
f 421/586/292 403/574/292 406/577/292
f 421/586/292 406/577/292 422/587/292
f 406/588/293 405/589/293 423/590/293
f 406/577/293 423/591/293 424/592/293
f 405/589/294 408/593/294 425/594/294
f 405/589/294 425/594/294 423/590/294
f 408/580/295 410/583/295 426/595/295
f 408/580/295 426/595/295 425/596/295
f 410/597/296 412/598/296 427/599/296
f 410/597/296 427/599/296 426/600/296
f 412/576/297 414/577/297 428/592/297
f 412/576/297 428/592/297 427/591/297
f 414/577/298 416/587/298 429/601/298
f 414/577/298 429/601/298 428/592/298
f 416/602/299 418/603/299 430/604/299
f 416/602/299 430/604/299 429/605/299
f 418/583/300 420/580/300 431/596/300
f 418/583/300 431/596/300 430/595/300
f 420/606/301 422/607/301 432/608/301
f 420/606/301 432/608/301 431/609/301
f 422/587/302 406/577/302 424/592/302
f 422/607/302 424/610/302 432/608/302
f 424/610/303 423/590/303 433/611/303
f 423/590/304 425/594/304 433/611/304
f 425/594/305 426/600/305 433/611/305
f 426/600/306 427/599/306 433/611/306
f 427/599/307 428/612/307 433/611/307
f 428/612/308 429/605/308 433/611/308
f 429/605/309 430/604/309 433/611/309
f 430/604/310 431/609/310 433/611/310
f 431/609/311 432/608/311 433/611/311
f 432/608/312 424/610/312 433/611/312
f 434/613/313 435/614/313 436/615/313
f 434/613/313 436/615/313 437/616/313
f 438/617/314 439/618/314 440/619/314
f 438/617/314 440/619/314 441/620/314
f 437/621/315 436/622/315 441/623/315
f 437/621/315 441/623/315 440/624/315
f 439/625/316 438/626/316 435/627/316
f 439/625/316 435/627/316 434/628/316
f 439/625/317 434/628/317 437/621/317
f 439/625/317 437/621/317 440/624/317
f 435/627/318 438/626/318 441/623/318
f 435/627/318 441/623/318 436/622/318
f 442/629/319 443/630/319 444/631/319
f 442/629/319 444/631/319 445/632/319
f 443/633/320 446/634/320 447/635/320
f 443/633/320 447/635/320 444/636/320
f 446/634/321 448/637/321 449/638/321
f 446/634/321 449/638/321 447/635/321
f 448/637/322 450/639/322 451/640/322
f 448/637/322 451/640/322 449/638/322
f 450/630/323 452/629/323 453/632/323
f 450/630/323 453/632/323 451/631/323
f 452/629/324 454/641/324 455/642/324
f 452/629/324 455/642/324 453/632/324
f 454/639/325 456/637/325 457/638/325
f 454/639/325 457/638/325 455/640/325
f 456/637/326 458/634/326 459/635/326
f 456/637/326 459/635/326 457/638/326
f 458/634/327 460/633/327 461/636/327
f 458/634/327 461/636/327 459/635/327
f 460/641/328 442/629/328 445/632/328
f 460/641/328 445/632/328 461/642/328
f 445/643/329 444/644/329 462/645/329
f 445/632/329 462/646/329 463/647/329
f 444/644/330 447/648/330 464/649/330
f 444/644/330 464/649/330 462/645/330
f 447/635/331 449/638/331 465/650/331
f 447/635/331 465/650/331 464/651/331
f 449/652/332 451/653/332 466/654/332
f 449/652/332 466/654/332 465/655/332
f 451/631/333 453/632/333 467/647/333
f 451/653/333 467/656/333 466/654/333
f 453/632/334 455/642/334 468/657/334
f 453/632/334 468/657/334 467/647/334
f 455/658/335 457/659/335 469/660/335
f 455/658/335 469/660/335 468/661/335
f 457/638/336 459/635/336 470/651/336
f 457/638/336 470/651/336 469/650/336
f 459/662/337 461/663/337 471/664/337
f 459/662/337 471/664/337 470/665/337
f 461/642/338 445/632/338 463/647/338
f 461/663/338 463/666/338 471/664/338
f 463/666/339 462/645/339 472/667/339
f 462/645/340 464/649/340 472/667/340
f 464/649/341 465/655/341 472/667/341
f 465/655/342 466/654/342 472/667/342
f 466/654/343 467/656/343 472/667/343
f 467/656/344 468/661/344 472/667/344
f 468/661/345 469/660/345 472/667/345
f 469/660/346 470/665/346 472/667/346
f 470/665/347 471/664/347 472/667/347
f 471/664/348 463/666/348 472/667/348
f 473/668/349 474/669/349 475/670/349
f 473/668/349 475/670/349 476/671/349
f 477/672/350 478/673/350 479/674/350
f 477/672/350 479/674/350 480/675/350
f 476/676/351 475/677/351 480/678/351
f 476/676/351 480/678/351 479/679/351
f 478/680/352 477/681/352 474/682/352
f 478/680/352 474/682/352 473/683/352
f 478/680/353 473/683/353 476/676/353
f 478/680/353 476/676/353 479/679/353
f 474/682/354 477/681/354 480/678/354
f 474/682/354 480/678/354 475/677/354
