# Bloom battlecruiser, from tools/gen_fleet.py
# Generated by tools. Edit the generator script.
v 0.172761 0.205731 0.388130
v 0.323107 0.247853 1.064555
v 0.172761 0.247853 1.138905
v 0.443675 0.247853 0.856231
v 0.510585 0.247853 0.555193
v 0.510585 0.247853 0.221067
v 0.443675 0.247853 -0.079971
v 0.323107 0.247853 -0.288295
v 0.172761 0.247853 -0.362645
v 0.022415 0.247853 -0.288295
v -0.098153 0.247853 -0.079971
v -0.165063 0.247853 0.221067
v -0.165063 0.247853 0.555193
v -0.098153 0.247853 0.856231
v 0.022415 0.247853 1.064555
v 0.450564 0.367803 1.638001
v 0.172761 0.367803 1.775382
v 0.673344 0.367803 1.253067
v 0.796978 0.367803 0.696823
v 0.796978 0.367803 0.079438
v 0.673344 0.367803 -0.476807
v 0.450564 0.367803 -0.861740
v 0.172761 0.367803 -0.999121
v -0.105042 0.367803 -0.861740
v -0.327822 0.367803 -0.476807
v -0.451456 0.367803 0.079438
v -0.451456 0.367803 0.696823
v -0.327822 0.367803 1.253067
v -0.105042 0.367803 1.638001
v 0.535728 0.547322 2.021164
v 0.172761 0.547322 2.200662
v 0.826805 0.547322 1.518225
v 0.988340 0.547322 0.791456
v 0.988340 0.547322 -0.015196
v 0.826805 0.547322 -0.741965
v 0.535728 0.547322 -1.244904
v 0.172761 0.547322 -1.424401
v -0.190206 0.547322 -1.244904
v -0.481282 0.547322 -0.741965
v -0.642818 0.547322 -0.015196
v -0.642818 0.547322 0.791456
v -0.481282 0.547322 1.518225
v -0.190206 0.547322 2.021164
v 0.565633 0.759079 2.155714
v 0.172761 0.759079 2.350000
v 0.880693 0.759079 1.611336
v 1.055537 0.759079 0.824687
v 1.055537 0.759079 -0.048427
v 0.880693 0.759079 -0.835076
v 0.565633 0.759079 -1.379454
v 0.172761 0.759079 -1.573740
v -0.220111 0.759079 -1.379454
v -0.535170 0.759079 -0.835076
v -0.710015 0.759079 -0.048427
v -0.710015 0.759079 0.824687
v -0.535170 0.759079 1.611336
v -0.220111 0.759079 2.155714
v 0.535728 0.970836 2.021164
v 0.172761 0.970836 2.200662
v 0.826805 0.970836 1.518225
v 0.988340 0.970836 0.791456
v 0.988340 0.970836 -0.015196
v 0.826805 0.970836 -0.741965
v 0.535728 0.970836 -1.244904
v 0.172761 0.970836 -1.424401
v -0.190206 0.970836 -1.244904
v -0.481282 0.970836 -0.741965
v -0.642818 0.970836 -0.015196
v -0.642818 0.970836 0.791456
v -0.481282 0.970836 1.518225
v -0.190206 0.970836 2.021164
v 0.450564 1.150355 1.638001
v 0.172761 1.150355 1.775382
v 0.673344 1.150355 1.253067
v 0.796978 1.150355 0.696823
v 0.796978 1.150355 0.079438
v 0.673344 1.150355 -0.476807
v 0.450564 1.150355 -0.861740
v 0.172761 1.150355 -0.999121
v -0.105042 1.150355 -0.861740
v -0.327822 1.150355 -0.476807
v -0.451456 1.150355 0.079438
v -0.451456 1.150355 0.696823
v -0.327822 1.150355 1.253067
v -0.105042 1.150355 1.638001
v 0.323107 1.270306 1.064555
v 0.172761 1.270306 1.138905
v 0.443675 1.270306 0.856231
v 0.510585 1.270306 0.555193
v 0.510585 1.270306 0.221067
v 0.443675 1.270306 -0.079971
v 0.323107 1.270306 -0.288295
v 0.172761 1.270306 -0.362645
v 0.022415 1.270306 -0.288295
v -0.098153 1.270306 -0.079971
v -0.165063 1.270306 0.221067
v -0.165063 1.270306 0.555193
v -0.098153 1.270306 0.856231
v 0.022415 1.270306 1.064555
v 0.172761 1.312427 0.388130
v -0.112206 0.890813 1.362359
v -0.008658 0.944190 1.589502
v -0.145211 0.944190 1.622714
v 0.088343 0.944190 1.469529
v 0.108741 0.944190 1.308621
v 0.044745 0.944190 1.168238
v -0.079202 0.944190 1.102004
v -0.215755 0.944190 1.135216
v -0.312756 0.944190 1.255189
v -0.333154 0.944190 1.416097
v -0.269157 0.944190 1.556479
v 0.055339 1.083932 1.729884
v -0.165609 1.083932 1.783622
v 0.212290 1.083932 1.535764
v 0.245294 1.083932 1.275409
v 0.141746 1.083932 1.048265
v -0.058804 1.083932 0.941095
v -0.279751 1.083932 0.994833
v -0.436702 1.083932 1.188954
v -0.469707 1.083932 1.449309
v -0.366158 1.083932 1.676452
v 0.055339 1.256662 1.729884
v -0.165609 1.256662 1.783622
v 0.212290 1.256662 1.535764
v 0.245294 1.256662 1.275409
v 0.141746 1.256662 1.048265
v -0.058804 1.256662 0.941095
v -0.279751 1.256662 0.994833
v -0.436702 1.256662 1.188954
v -0.469707 1.256662 1.449309
v -0.366158 1.256662 1.676452
v -0.008658 1.396405 1.589502
v -0.145211 1.396405 1.622714
v 0.088343 1.396405 1.469529
v 0.108741 1.396405 1.308621
v 0.044745 1.396405 1.168238
v -0.079202 1.396405 1.102004
v -0.215755 1.396405 1.135216
v -0.312756 1.396405 1.255189
v -0.333154 1.396405 1.416097
v -0.269157 1.396405 1.556479
v -0.112206 1.449781 1.362359
v 0.038804 1.378524 1.221117
v 0.030676 1.418440 1.146142
v 0.006734 1.463471 1.186933
v 0.012481 1.435246 1.239948
v -0.046812 1.431158 1.112760
v -0.048058 1.472464 1.163328
v -0.116172 1.403960 1.154352
v -0.097103 1.453231 1.192738
v -0.108045 1.364044 1.229326
v -0.091356 1.425007 1.245753
v -0.030557 1.351326 1.262709
v -0.036564 1.416014 1.269358
v -0.043813 1.466191 1.228193
v 0.162577 1.197712 1.527234
v 0.218786 1.209987 1.530228
v 0.203006 1.234598 1.563236
v 0.163260 1.225919 1.561118
v 0.237709 1.262239 1.515039
v 0.216386 1.271546 1.552496
v 0.200423 1.302216 1.496857
v 0.190021 1.299815 1.539639
v 0.144214 1.289942 1.493863
v 0.150276 1.291135 1.537522
v 0.125291 1.237690 1.509051
v 0.136895 1.254188 1.548261
v 0.174628 1.268211 1.566257
v -0.056146 0.909834 1.375477
v 0.026198 0.909104 1.383910
v 0.009658 0.861489 1.422292
v -0.048567 0.862005 1.416329
v 0.060729 0.933422 1.455102
v 0.034076 0.878685 1.472633
v 0.012917 0.958470 1.517862
v 0.000268 0.896396 1.517010
v -0.069427 0.959200 1.509429
v -0.057958 0.896912 1.511047
v -0.103958 0.934882 1.438237
v -0.082376 0.879717 1.460707
v -0.025200 0.856439 1.474954
v -0.436224 0.007158 0.589562
v -0.434201 0.099063 1.092185
v -0.670757 0.099063 1.102447
v -0.198417 0.099063 0.889939
v -0.053468 0.099063 0.572959
v -0.054718 0.099063 0.262321
v -0.201691 0.099063 0.076678
v -0.438248 0.099063 0.086940
v -0.674031 0.099063 0.289186
v -0.818981 0.099063 0.606166
v -0.817730 0.099063 0.916804
v -0.432950 0.339675 1.402823
v -0.815707 0.339675 1.419427
v -0.051444 0.339675 1.075582
v 0.183089 0.339675 0.562697
v 0.181066 0.339675 0.060075
v -0.056741 0.339675 -0.240302
v -0.439498 0.339675 -0.223699
v -0.821004 0.339675 0.103543
v -1.055537 0.339675 0.616427
v -1.053514 0.339675 1.119050
v -0.432950 0.637086 1.402823
v -0.815707 0.637086 1.419427
v -0.051444 0.637086 1.075582
v 0.183089 0.637086 0.562697
v 0.181066 0.637086 0.060075
v -0.056741 0.637086 -0.240302
v -0.439498 0.637086 -0.223699
v -0.821004 0.637086 0.103543
v -1.055537 0.637086 0.616427
v -1.053514 0.637086 1.119050
v -0.434201 0.877698 1.092185
v -0.670757 0.877698 1.102447
v -0.198417 0.877698 0.889939
v -0.053468 0.877698 0.572959
v -0.054718 0.877698 0.262321
v -0.201691 0.877698 0.076678
v -0.438248 0.877698 0.086940
v -0.674031 0.877698 0.289186
v -0.818981 0.877698 0.606166
v -0.817730 0.877698 0.916804
v -0.436224 0.969603 0.589562
v -0.193943 0.869851 0.255352
v -0.202843 0.901200 0.186606
v -0.230852 0.939706 0.220121
v -0.224558 0.917540 0.268732
v -0.271445 0.901933 0.153725
v -0.279360 0.940224 0.196871
v -0.331146 0.871316 0.189589
v -0.321576 0.918575 0.222231
v -0.322246 0.839968 0.258335
v -0.315283 0.896408 0.270841
v -0.253645 0.839235 0.291216
v -0.266774 0.895891 0.294092
v -0.277426 0.937722 0.255013
v -0.780245 0.389148 1.350627
v -0.737851 0.336475 1.357645
v -0.752098 0.344439 1.407047
v -0.782075 0.381684 1.402084
v -0.677354 0.345264 1.387373
v -0.709319 0.350654 1.428068
v -0.659251 0.406726 1.410083
v -0.696519 0.394114 1.444126
v -0.701645 0.459398 1.403064
v -0.726496 0.431359 1.439163
v -0.762142 0.450609 1.373336
v -0.769274 0.425144 1.418142
v -0.747394 0.383741 1.440812
v -0.145327 0.333234 1.076062
v -0.100294 0.338744 1.098251
v -0.123914 0.341145 1.128756
v -0.155757 0.337249 1.113065
v -0.086871 0.383523 1.117365
v -0.114422 0.372808 1.142272
v -0.118480 0.422792 1.114290
v -0.136773 0.400576 1.140097
v -0.163513 0.417283 1.092101
v -0.168616 0.396680 1.124407
v -0.176937 0.372504 1.072987
v -0.178108 0.365017 1.110891
v -0.152213 0.365143 1.139590
v -0.308653 0.490615 -0.307598
v -0.160474 0.607851 -0.013560
v -0.371635 0.607851 0.006498
v -0.005913 0.607851 -0.145930
v 0.033011 0.607851 -0.340052
v -0.058569 0.607851 -0.521777
v -0.245672 0.607851 -0.621693
v -0.456833 0.607851 -0.601636
v -0.611394 0.607851 -0.469265
v -0.650318 0.607851 -0.275143
v -0.558738 0.607851 -0.093418
v -0.068894 0.914779 0.168166
v -0.410559 0.914779 0.200620
v 0.181190 0.914779 -0.046014
v 0.244171 0.914779 -0.360110
v 0.095992 0.914779 -0.654148
v -0.206748 0.914779 -0.815815
v -0.548413 0.914779 -0.783361
v -0.798497 0.914779 -0.569181
v -0.861478 0.914779 -0.255085
v -0.713299 0.914779 0.038952
v -0.068894 1.294162 0.168166
v -0.410559 1.294162 0.200620
v 0.181190 1.294162 -0.046014
v 0.244171 1.294162 -0.360110
v 0.095992 1.294162 -0.654148
v -0.206748 1.294162 -0.815815
v -0.548413 1.294162 -0.783361
v -0.798497 1.294162 -0.569181
v -0.861478 1.294162 -0.255085
v -0.713299 1.294162 0.038952
v -0.160474 1.601089 -0.013560
v -0.371635 1.601089 0.006498
v -0.005913 1.601089 -0.145930
v 0.033011 1.601089 -0.340052
v -0.058569 1.601089 -0.521777
v -0.245672 1.601089 -0.621693
v -0.456833 1.601089 -0.601636
v -0.611394 1.601089 -0.469265
v -0.650318 1.601089 -0.275143
v -0.558738 1.601089 -0.093418
v -0.308653 1.718325 -0.307598
v -0.180187 1.633761 -0.308213
v -0.150587 1.645290 -0.354284
v -0.168668 1.683314 -0.346431
v -0.189598 1.675162 -0.313854
v -0.176862 1.654867 -0.402756
v -0.187248 1.690086 -0.380706
v -0.232738 1.652915 -0.405156
v -0.226758 1.688706 -0.382403
v -0.262338 1.641386 -0.359085
v -0.247688 1.680554 -0.349826
v -0.236062 1.631809 -0.310613
v -0.229108 1.673782 -0.315551
v -0.208889 1.697921 -0.344584
v -0.558931 1.528437 -0.588216
v -0.638111 1.527938 -0.603629
v -0.637346 1.551302 -0.546486
v -0.581358 1.551654 -0.535587
v -0.686377 1.476050 -0.565092
v -0.671476 1.514612 -0.519236
v -0.655465 1.424660 -0.511141
v -0.649617 1.478274 -0.481087
v -0.576285 1.425159 -0.495727
v -0.593629 1.478626 -0.470188
v -0.528019 1.477047 -0.534265
v -0.559499 1.515316 -0.497438
v -0.618921 1.530876 -0.491212
v 0.225441 1.000270 -0.355245
v 0.253590 1.032256 -0.345864
v 0.235268 1.031481 -0.317958
v 0.215364 1.008864 -0.324592
v 0.239757 1.073582 -0.343809
v 0.225487 1.060703 -0.316506
v 0.197775 1.082923 -0.351136
v 0.195801 1.067308 -0.321686
v 0.169626 1.050937 -0.360517
v 0.175896 1.044691 -0.328320
v 0.183459 1.009611 -0.362572
v 0.185678 1.015469 -0.329773
v 0.203086 1.036631 -0.310691
v -0.455963 0.000000 0.492593
v -0.345578 0.096207 0.762581
v -0.515878 0.096207 0.786253
v -0.217442 0.096207 0.635782
v -0.180412 0.096207 0.454290
v -0.248634 0.096207 0.287429
v -0.396048 0.096207 0.198933
v -0.566347 0.096207 0.222606
v -0.694484 0.096207 0.349405
v -0.731514 0.096207 0.530896
v -0.663292 0.096207 0.697758
v -0.277357 0.348079 0.929442
v -0.552908 0.348079 0.967745
v -0.070028 0.348079 0.724277
v -0.010113 0.348079 0.430617
v -0.120497 0.348079 0.160630
v -0.359018 0.348079 0.017441
v -0.634569 0.348079 0.055745
v -0.841898 0.348079 0.260909
v -0.901813 0.348079 0.554569
v -0.791429 0.348079 0.824556
v -0.277357 0.659410 0.929442
v -0.552908 0.659410 0.967745
v -0.070028 0.659410 0.724277
v -0.010113 0.659410 0.430617
v -0.120497 0.659410 0.160630
v -0.359018 0.659410 0.017441
v -0.634569 0.659410 0.055745
v -0.841898 0.659410 0.260909
v -0.901813 0.659410 0.554569
v -0.791429 0.659410 0.824556
v -0.345578 0.911283 0.762581
v -0.515878 0.911283 0.786253
v -0.217442 0.911283 0.635782
v -0.180412 0.911283 0.454290
v -0.248634 0.911283 0.287429
v -0.396048 0.911283 0.198933
v -0.566347 0.911283 0.222606
v -0.694484 0.911283 0.349405
v -0.731514 0.911283 0.530896
v -0.663292 0.911283 0.697758
v -0.455963 1.007489 0.492593
v -0.188401 0.729037 0.205028
v -0.187242 0.780973 0.170804
v -0.210337 0.796130 0.209583
v -0.211157 0.759406 0.233783
v -0.239765 0.802798 0.145606
v -0.247477 0.811563 0.191765
v -0.293447 0.772687 0.154633
v -0.285436 0.790272 0.198148
v -0.294607 0.720752 0.188857
v -0.286256 0.753548 0.222348
v -0.242084 0.698927 0.214055
v -0.249117 0.738115 0.240166
v -0.251351 0.784770 0.230933
v -0.478279 0.715680 0.885900
v -0.447478 0.686742 0.908935
v -0.448769 0.715445 0.931991
v -0.470549 0.735907 0.915702
v -0.400878 0.698476 0.911651
v -0.415817 0.723743 0.933911
v -0.385078 0.739148 0.891331
v -0.404645 0.752502 0.919543
v -0.415879 0.768085 0.868296
v -0.426425 0.772964 0.903254
v -0.462480 0.756351 0.865581
v -0.459376 0.764667 0.901334
v -0.440048 0.751160 0.929638
v -0.697683 0.466334 0.893850
v -0.684666 0.420181 0.891284
v -0.681847 0.426285 0.927418
v -0.691051 0.458920 0.929232
v -0.638989 0.407641 0.899185
v -0.649548 0.417418 0.933005
v -0.606328 0.441253 0.909651
v -0.626454 0.441185 0.940406
v -0.619344 0.487406 0.912217
v -0.635658 0.473820 0.942220
v -0.665022 0.499946 0.904316
v -0.667956 0.482687 0.936633
v -0.661547 0.448503 0.948516
v -0.159318 0.830012 0.445265
v -0.119934 0.892735 0.880103
v -0.315581 0.892735 0.914505
v 0.060670 0.892735 0.679607
v 0.157246 0.892735 0.389601
v 0.132905 0.892735 0.120856
v -0.003055 0.892735 -0.023975
v -0.198702 0.892735 0.010427
v -0.379305 0.892735 0.210922
v -0.475881 0.892735 0.500929
v -0.451541 0.892735 0.769673
v -0.095593 1.056945 1.148847
v -0.412157 1.056945 1.204511
v 0.196630 1.056945 0.824439
v 0.352893 1.056945 0.355199
v 0.313509 1.056945 -0.079639
v 0.093521 1.056945 -0.313982
v -0.223042 1.056945 -0.258318
v -0.515265 1.056945 0.066091
v -0.671528 1.056945 0.535331
v -0.632144 1.056945 0.970169
v -0.095593 1.259920 1.148847
v -0.412157 1.259920 1.204511
v 0.196630 1.259920 0.824439
v 0.352893 1.259920 0.355199
v 0.313509 1.259920 -0.079639
v 0.093521 1.259920 -0.313982
v -0.223042 1.259920 -0.258318
v -0.515265 1.259920 0.066091
v -0.671528 1.259920 0.535331
v -0.632144 1.259920 0.970169
v -0.119934 1.424131 0.880103
v -0.315581 1.424131 0.914505
v 0.060670 1.424131 0.679607
v 0.157246 1.424131 0.389601
v 0.132905 1.424131 0.120856
v -0.003055 1.424131 -0.023975
v -0.198702 1.424131 0.010427
v -0.379305 1.424131 0.210922
v -0.475881 1.424131 0.500929
v -0.451541 1.424131 0.769673
v -0.159318 1.486854 0.445265
v 0.271076 0.981384 -0.019416
v 0.262341 1.037975 0.012028
v 0.235190 1.006996 0.040366
v 0.241367 0.966979 0.018132
v 0.204089 1.067507 0.010556
v 0.194000 1.027878 0.039325
v 0.154571 1.040448 -0.022359
v 0.158986 1.008744 0.016050
v 0.163306 0.983856 -0.053803
v 0.165162 0.968728 -0.006184
v 0.221559 0.954324 -0.052331
v 0.206353 0.947845 -0.005143
v 0.194938 0.978312 0.032822
v -0.018882 1.403486 0.604808
v 0.031161 1.410619 0.605796
v 0.018431 1.447051 0.608626
v -0.016954 1.442007 0.607927
v 0.054419 1.432082 0.566369
v 0.034878 1.462227 0.580747
v 0.027635 1.446412 0.525954
v 0.015939 1.472361 0.552169
v -0.022407 1.439279 0.524966
v -0.019447 1.467317 0.551470
v -0.045666 1.417816 0.564393
v -0.035893 1.452140 0.579349
v -0.002531 1.470536 0.586123
v 0.052944 1.219599 0.871870
v 0.124983 1.223542 0.893967
v 0.100551 1.262468 0.928939
v 0.049612 1.259680 0.913313
v 0.165986 1.284884 0.878176
v 0.129545 1.305843 0.917773
v 0.134950 1.342283 0.840288
v 0.107599 1.346431 0.890982
v 0.062911 1.338341 0.818191
v 0.056660 1.343643 0.875357
v 0.021908 1.276999 0.833981
v 0.027666 1.300267 0.886522
v 0.072251 1.312215 0.921230
v 0.000116 1.015228 -1.870698
v 0.035980 0.994940 -1.865749
v 0.000116 0.974060 -1.865448
v 0.035980 1.036108 -1.870999
v 0.000116 1.056396 -1.875947
v -0.035749 1.035516 -1.875646
v -0.035749 0.994348 -1.870397
v 0.043617 1.065084 -1.032336
v -0.054196 1.008138 -1.031515
v 0.043617 1.177359 -1.046654
v -0.054196 1.232689 -1.060149
v -0.152008 1.175743 -1.059328
v -0.152008 1.063467 -1.045011
v -0.054196 1.120413 -1.045832
v 0.544644 1.052272 -1.825059
v 0.580583 1.031772 -1.828306
v 0.544644 1.011162 -1.830744
v 0.580583 1.072882 -1.822621
v 0.544644 1.093382 -1.819375
v 0.508705 1.072771 -1.821813
v 0.508705 1.031661 -1.827497
v 0.651566 0.888885 -1.056612
v 0.553551 0.832674 -1.063261
v 0.651566 1.001003 -1.041109
v 0.553551 1.056910 -1.032255
v 0.455537 1.000698 -1.038905
v 0.455537 0.888580 -1.054407
v 0.553551 0.944792 -1.047758
v 0.310203 0.495965 -2.340405
v 0.345361 0.474546 -2.335164
v 0.310203 0.454693 -2.344759
v 0.345361 0.515818 -2.330810
v 0.310203 0.537237 -2.336051
v 0.275044 0.517384 -2.345646
v 0.275044 0.476112 -2.350000
v 0.127473 0.299766 -1.020093
v 0.031587 0.245620 -1.046262
v 0.127473 0.412326 -1.008218
v 0.031587 0.470740 -1.022511
v -0.064300 0.416594 -1.048679
v -0.064300 0.304034 -1.060555
v 0.031587 0.358180 -1.034386
vt 0.500000 0.578125
vt 0.518628 0.605061
vt 0.500000 0.608022
vt 0.533566 0.596766
vt 0.541856 0.584778
vt 0.541856 0.571472
vt 0.533566 0.559484
vt 0.518628 0.551189
vt 0.500000 0.548228
vt 0.481372 0.551189
vt 0.466434 0.559484
vt 0.458144 0.571472
vt 0.458144 0.584778
vt 0.466434 0.596766
vt 0.481372 0.605061
vt 0.534419 0.627897
vt 0.500000 0.633368
vt 0.562022 0.612568
vt 0.577340 0.590418
vt 0.577340 0.565832
vt 0.562022 0.543682
vt 0.534419 0.528353
vt 0.500000 0.522882
vt 0.465581 0.528353
vt 0.437978 0.543682
vt 0.422660 0.565832
vt 0.422660 0.590418
vt 0.437978 0.612568
vt 0.465581 0.627897
vt 0.544971 0.643155
vt 0.500000 0.650303
vt 0.581035 0.623127
vt 0.601049 0.594186
vt 0.601049 0.562064
vt 0.581035 0.533123
vt 0.544971 0.513095
vt 0.500000 0.505947
vt 0.455029 0.513095
vt 0.418965 0.533123
vt 0.398951 0.562064
vt 0.398951 0.594186
vt 0.418965 0.623127
vt 0.455029 0.643155
vt 0.726562 0.548228
vt 0.771534 0.548228
vt 0.775239 0.578125
vt 0.726562 0.578125
vt 0.817605 0.548228
vt 0.789566 0.548228
vt 0.794757 0.578125
vt 0.825106 0.578125
vt 0.749048 0.548228
vt 0.750901 0.578125
vt 0.704077 0.548228
vt 0.702224 0.578125
vt 0.663559 0.548228
vt 0.658368 0.578125
vt 0.635520 0.548228
vt 0.628019 0.578125
vt 0.771534 0.548228
vt 0.726562 0.548228
vt 0.726562 0.578125
vt 0.775239 0.578125
vt 0.681591 0.548228
vt 0.677886 0.578125
vt 0.681591 0.548228
vt 0.677886 0.578125
vt 0.771534 0.608022
vt 0.726562 0.608022
vt 0.789566 0.608022
vt 0.817605 0.608022
vt 0.749048 0.608022
vt 0.704077 0.608022
vt 0.663559 0.608022
vt 0.635520 0.608022
vt 0.726562 0.608022
vt 0.771534 0.608022
vt 0.681591 0.608022
vt 0.681591 0.608022
vt 0.500000 0.578125
vt 0.531680 0.620250
vt 0.489902 0.626409
vt 0.561357 0.598000
vt 0.567597 0.568159
vt 0.548018 0.542125
vt 0.510098 0.529841
vt 0.468320 0.536000
vt 0.438643 0.558250
vt 0.432403 0.588091
vt 0.451982 0.614125
vt 0.551259 0.646284
vt 0.483662 0.656250
vt 0.599277 0.610284
vt 0.754388 0.514921
vt 0.712610 0.514921
vt 0.703987 0.553983
vt 0.771585 0.553983
vt 0.577695 0.519875
vt 0.609375 0.562000
vt 0.516338 0.500000
vt 0.448741 0.509966
vt 0.400723 0.545966
vt 0.698737 0.514921
vt 0.740515 0.514921
vt 0.749138 0.553983
vt 0.681540 0.553983
vt 0.422305 0.636375
vt 0.390625 0.594250
vt 0.710224 0.553983
vt 0.777822 0.553983
vt 0.777822 0.602267
vt 0.710224 0.602267
vt 0.821985 0.553983
vt 0.771585 0.602267
vt 0.821985 0.602267
vt 0.703987 0.602267
vt 0.645013 0.553983
vt 0.645013 0.602267
vt 0.804258 0.553983
vt 0.742901 0.553983
vt 0.742901 0.602267
vt 0.804258 0.602267
vt 0.675303 0.553983
vt 0.675303 0.602267
vt 0.631140 0.553983
vt 0.681540 0.602267
vt 0.631140 0.602267
vt 0.749138 0.602267
vt 0.808112 0.553983
vt 0.808112 0.602267
vt 0.648867 0.553983
vt 0.648867 0.602267
vt 0.712610 0.641329
vt 0.754388 0.641329
vt 0.740515 0.641329
vt 0.698737 0.641329
vt 0.736745 0.403862
vt 0.691860 0.434753
vt 0.716280 0.469603
vt 0.748018 0.447759
vt 0.659146 0.402798
vt 0.612271 0.382812
vt 0.611517 0.413086
vt 0.644663 0.427217
vt 0.570312 0.407712
vt 0.581848 0.430693
vt 0.696775 0.423547
vt 0.741659 0.392655
vt 0.751493 0.439835
vt 0.719755 0.461679
vt 0.676791 0.392655
vt 0.723666 0.382812
vt 0.720033 0.432875
vt 0.686887 0.439835
vt 0.765625 0.403862
vt 0.749702 0.447759
vt 0.648139 0.458956
vt 0.614085 0.451918
vt 0.585324 0.462431
vt 0.715647 0.471708
vt 0.601407 0.426028
vt 0.648282 0.429905
vt 0.635122 0.472650
vt 0.601976 0.469909
vt 0.718968 0.393824
vt 0.699299 0.440699
vt 0.747804 0.449048
vt 0.761713 0.415903
vt 0.664062 0.410236
vt 0.632968 0.386690
vt 0.624294 0.442092
vt 0.646281 0.458742
vt 0.586093 0.382812
vt 0.591148 0.439351
vt 0.671875 0.465551
vt 0.691544 0.418676
vt 0.742321 0.433476
vt 0.728413 0.466622
vt 0.715091 0.382812
vt 0.758971 0.408117
vt 0.703539 0.408117
vt 0.736685 0.415903
vt 0.713019 0.446057
vt 0.747843 0.449048
vt 0.725856 0.474408
vt 0.692711 0.466622
vt 0.681552 0.433476
vt 0.035030 0.329963
vt 0.081905 0.329297
vt 0.072490 0.285857
vt 0.039344 0.286328
vt 0.013365 0.329297
vt 0.060240 0.351482
vt 0.071782 0.301545
vt 0.038637 0.285857
vt 0.101562 0.374334
vt 0.101002 0.317703
vt 0.074345 0.374334
vt 0.027470 0.375000
vt 0.033999 0.318174
vt 0.067144 0.317703
vt 0.096010 0.375000
vt 0.049135 0.352814
vt 0.063930 0.302487
vt 0.097076 0.318174
vt 0.007812 0.329963
vt 0.034711 0.286328
vt 0.039344 0.308148
vt 0.072490 0.312074
vt 0.052646 0.346748
vt 0.086390 0.345220
vt 0.067144 0.374439
vt 0.052646 0.281250
vt 0.033999 0.370513
vt 0.020099 0.337368
vt 0.500000 0.578125
vt 0.500357 0.625443
vt 0.458580 0.626409
vt 0.541998 0.606403
vt 0.567597 0.576562
vt 0.567377 0.547318
vt 0.541420 0.529841
vt 0.499643 0.530807
vt 0.458002 0.549847
vt 0.432403 0.579688
vt 0.432623 0.608932
vt 0.500578 0.654687
vt 0.432981 0.656250
vt 0.567955 0.623880
vt 0.766152 0.514921
vt 0.724374 0.514921
vt 0.723022 0.553983
vt 0.790619 0.553983
vt 0.683433 0.514921
vt 0.656777 0.553983
vt 0.567019 0.500000
vt 0.609018 0.528278
vt 0.499422 0.501563
vt 0.432045 0.532370
vt 0.686973 0.514921
vt 0.728751 0.514921
vt 0.730103 0.553983
vt 0.662506 0.553983
vt 0.769692 0.514921
vt 0.796348 0.553983
vt 0.390982 0.627972
vt 0.659543 0.553983
vt 0.727141 0.553983
vt 0.727141 0.602267
vt 0.659543 0.602267
vt 0.794517 0.553983
vt 0.794517 0.602267
vt 0.723022 0.602267
vt 0.790619 0.602267
vt 0.656777 0.602267
vt 0.617188 0.553983
vt 0.617188 0.602267
vt 0.793582 0.553983
vt 0.725984 0.553983
vt 0.725984 0.602267
vt 0.793582 0.602267
vt 0.658608 0.553983
vt 0.658608 0.602267
vt 0.730103 0.602267
vt 0.662506 0.602267
vt 0.796348 0.602267
vt 0.835938 0.553983
vt 0.835938 0.602267
vt 0.724374 0.641329
vt 0.766152 0.641329
vt 0.683433 0.641329
vt 0.728751 0.641329
vt 0.686973 0.641329
vt 0.769692 0.641329
vt 0.739751 0.411234
vt 0.693836 0.440336
vt 0.716221 0.476082
vt 0.748687 0.455504
vt 0.657981 0.404774
vt 0.611106 0.382812
vt 0.605698 0.411629
vt 0.638843 0.427158
vt 0.671875 0.441016
vt 0.695828 0.412594
vt 0.717629 0.456465
vt 0.700692 0.476562
vt 0.741743 0.383492
vt 0.750096 0.435887
vt 0.677956 0.383492
vt 0.724831 0.382812
vt 0.715860 0.435407
vt 0.682715 0.435887
vt 0.765625 0.411234
vt 0.744706 0.455504
vt 0.643143 0.459625
vt 0.607019 0.450462
vt 0.576852 0.428567
vt 0.581152 0.461034
vt 0.708582 0.474239
vt 0.007812 0.321422
vt 0.014850 0.281250
vt 0.064384 0.287324
vt 0.059408 0.315730
vt 0.041568 0.288287
vt 0.087745 0.318095
vt 0.063346 0.358899
vt 0.030694 0.337821
vt 0.044658 0.287953
vt 0.067428 0.334828
vt 0.101562 0.325209
vt 0.085461 0.292064
vt 0.101562 0.334828
vt 0.069203 0.375000
vt 0.050235 0.353615
vt 0.073116 0.325209
vt 0.069203 0.333828
vt 0.023027 0.304021
vt 0.017583 0.348946
vt 0.050235 0.370024
vt 0.030583 0.368297
vt 0.075509 0.348875
vt 0.098240 0.317298
vt 0.030694 0.287324
vt 0.063346 0.292064
vt 0.034284 0.317298
vt 0.017583 0.348875
vt 0.041496 0.285411
vt 0.087769 0.315436
vt 0.063499 0.356712
vt 0.030779 0.335481
vt 0.041998 0.287017
vt 0.067862 0.333892
vt 0.101562 0.322677
vt 0.083274 0.289531
vt 0.101562 0.333892
vt 0.069082 0.375000
vt 0.050286 0.351744
vt 0.073253 0.322677
vt 0.069082 0.337138
vt 0.022809 0.307114
vt 0.017566 0.350827
vt 0.050286 0.372058
vt 0.033676 0.369233
vt 0.007812 0.322358
vt 0.059101 0.314520
vt 0.077390 0.347666
vt 0.011973 0.281250
vt 0.062043 0.285453
vt 0.030779 0.285453
vt 0.063499 0.289531
vt 0.034420 0.314652
vt 0.017566 0.347666
vt 0.097934 0.314652
vt 0.500000 0.578125
vt 0.529317 0.623326
vt 0.487539 0.626409
vt 0.559896 0.602977
vt 0.567597 0.573136
vt 0.549479 0.545201
vt 0.512461 0.529841
vt 0.470683 0.532924
vt 0.440104 0.553273
vt 0.432403 0.583114
vt 0.450521 0.611049
vt 0.714102 0.514921
vt 0.755879 0.514921
vt 0.773998 0.553983
vt 0.706401 0.553983
vt 0.786459 0.514921
vt 0.823477 0.553983
vt 0.761355 0.514921
vt 0.719578 0.514921
vt 0.715261 0.553983
vt 0.782859 0.553983
vt 0.680468 0.514921
vt 0.651980 0.553983
vt 0.776041 0.514921
vt 0.739023 0.514921
vt 0.746724 0.553983
vt 0.806621 0.553983
vt 0.697246 0.514921
vt 0.679127 0.553983
vt 0.666666 0.514921
vt 0.629648 0.553983
vt 0.691770 0.514921
vt 0.733547 0.514921
vt 0.737864 0.553983
vt 0.670266 0.553983
vt 0.772657 0.514921
vt 0.801145 0.553983
vt 0.677084 0.514921
vt 0.646504 0.553983
vt 0.773998 0.602267
vt 0.706401 0.602267
vt 0.823477 0.602267
vt 0.715261 0.602267
vt 0.782859 0.602267
vt 0.651980 0.602267
vt 0.746724 0.602267
vt 0.806621 0.602267
vt 0.679127 0.602267
vt 0.629648 0.602267
vt 0.737864 0.602267
vt 0.670266 0.602267
vt 0.801145 0.602267
vt 0.646504 0.602267
vt 0.755879 0.641329
vt 0.714102 0.641329
vt 0.786459 0.641329
vt 0.719578 0.641329
vt 0.761355 0.641329
vt 0.680468 0.641329
vt 0.739023 0.641329
vt 0.776041 0.641329
vt 0.697246 0.641329
vt 0.666666 0.641329
vt 0.733547 0.641329
vt 0.691770 0.641329
vt 0.772657 0.641329
vt 0.677084 0.641329
vt 0.101562 0.284017
vt 0.057009 0.300366
vt 0.064603 0.354287
vt 0.096107 0.342726
vt 0.010134 0.313947
vt 0.031458 0.363890
vt 0.079519 0.313947
vt 0.032644 0.311180
vt 0.037661 0.361933
vt 0.070807 0.363890
vt 0.007812 0.311180
vt 0.052366 0.294831
vt 0.061320 0.350373
vt 0.029816 0.361933
vt 0.099241 0.281250
vt 0.094466 0.340769
vt 0.029856 0.281250
vt 0.076731 0.284017
vt 0.068835 0.342726
vt 0.035689 0.340769
vt 0.068835 0.369545
vt 0.086394 0.338041
vt 0.052652 0.339827
vt 0.070807 0.304895
vt 0.037661 0.303254
vt 0.020103 0.334758
vt 0.035689 0.367904
vt 0.083262 0.292079
vt 0.036387 0.281250
vt 0.036840 0.321396
vt 0.069985 0.329053
vt 0.007812 0.357492
vt 0.034887 0.319187
vt 0.067104 0.347654
vt 0.047959 0.374740
vt 0.072791 0.281250
vt 0.093905 0.320829
vt 0.026113 0.281250
vt 0.072988 0.281618
vt 0.062720 0.321089
vt 0.029575 0.320829
vt 0.101562 0.319923
vt 0.082926 0.348174
vt 0.056545 0.319923
vt 0.018641 0.357860
vt 0.055616 0.375000
vt 0.082418 0.348174
vt 0.047747 0.360229
vt 0.016634 0.340541
vt 0.016634 0.347654
vt 0.047747 0.359661
vt 0.082926 0.355855
vt 0.632633 0.396052
vt 0.664062 0.413005
vt 0.643605 0.463431
vt 0.621381 0.451444
vt 0.702067 0.419093
vt 0.705779 0.465968
vt 0.755118 0.451359
vt 0.752493 0.418213
vt 0.648617 0.416717
vt 0.601742 0.403477
vt 0.599538 0.456694
vt 0.632684 0.466056
vt 0.692539 0.476562
vt 0.675587 0.440282
vt 0.733769 0.433197
vt 0.745756 0.458851
vt 0.671875 0.393407
vt 0.731144 0.400051
vt 0.585758 0.382812
vt 0.588235 0.442082
vt 0.722944 0.392560
vt 0.745168 0.418213
vt 0.709235 0.424056
vt 0.734246 0.451359
vt 0.701100 0.458851
vt 0.678876 0.433197
vt 0.689798 0.400051
vt 0.500000 0.578125
vt 0.527079 0.622517
vt 0.485302 0.626409
vt 0.558513 0.601668
vt 0.567597 0.571827
vt 0.550862 0.544392
vt 0.514698 0.529841
vt 0.472921 0.533733
vt 0.441487 0.554582
vt 0.432403 0.584423
vt 0.449138 0.611858
vt 0.711864 0.514921
vt 0.753642 0.514921
vt 0.770378 0.553983
vt 0.702780 0.553983
vt 0.785076 0.514921
vt 0.821239 0.553983
vt 0.759523 0.514921
vt 0.717746 0.514921
vt 0.712296 0.553983
vt 0.779894 0.553983
vt 0.679336 0.514921
vt 0.650148 0.553983
vt 0.777424 0.514921
vt 0.741261 0.514921
vt 0.750345 0.553983
vt 0.808858 0.553983
vt 0.699483 0.514921
vt 0.682747 0.553983
vt 0.668049 0.514921
vt 0.631886 0.553983
vt 0.693602 0.514921
vt 0.735379 0.514921
vt 0.740829 0.553983
vt 0.673231 0.553983
vt 0.773789 0.514921
vt 0.802977 0.553983
vt 0.675701 0.514921
vt 0.644267 0.553983
vt 0.770378 0.602267
vt 0.702780 0.602267
vt 0.821239 0.602267
vt 0.712296 0.602267
vt 0.779894 0.602267
vt 0.650148 0.602267
vt 0.750345 0.602267
vt 0.808858 0.602267
vt 0.682747 0.602267
vt 0.631886 0.602267
vt 0.740829 0.602267
vt 0.673231 0.602267
vt 0.802977 0.602267
vt 0.644267 0.602267
vt 0.753642 0.641329
vt 0.711864 0.641329
vt 0.785076 0.641329
vt 0.717746 0.641329
vt 0.759523 0.641329
vt 0.679336 0.641329
vt 0.741261 0.641329
vt 0.777424 0.641329
vt 0.699483 0.641329
vt 0.668049 0.641329
vt 0.735379 0.641329
vt 0.693602 0.641329
vt 0.773789 0.641329
vt 0.675701 0.641329
vt 0.066726 0.306312
vt 0.032795 0.349539
vt 0.071241 0.362155
vt 0.095235 0.331589
vt 0.101562 0.306232
vt 0.055700 0.281250
vt 0.048966 0.327014
vt 0.081395 0.344679
vt 0.008825 0.290199
vt 0.015820 0.333342
vt 0.016762 0.342643
vt 0.050693 0.299416
vt 0.083897 0.326712
vt 0.059904 0.357279
vt 0.007812 0.299416
vt 0.053675 0.281250
vt 0.047534 0.313867
vt 0.015104 0.326712
vt 0.100550 0.306312
vt 0.080680 0.331589
vt 0.081395 0.362155
vt 0.045583 0.352700
vt 0.045583 0.365846
vt 0.015820 0.357279
vt 0.035691 0.312714
vt 0.067296 0.281250
vt 0.098928 0.312460
vt 0.076580 0.334708
vt 0.038795 0.281250
vt 0.085670 0.294009
vt 0.070642 0.321481
vt 0.037497 0.312460
vt 0.071022 0.294009
vt 0.043143 0.338231
vt 0.081849 0.352751
vt 0.101562 0.321481
vt 0.101562 0.316580
vt 0.070580 0.284976
vt 0.059972 0.332939
vt 0.081880 0.355287
vt 0.023705 0.281250
vt 0.026827 0.330304
vt 0.007812 0.356937
vt 0.056867 0.365978
vt 0.015589 0.334708
vt 0.046269 0.351292
vt 0.081880 0.352751
vt 0.046269 0.369137
vt 0.026827 0.365978
vt 0.676078 0.442424
vt 0.671875 0.395549
vt 0.731065 0.401748
vt 0.734037 0.434894
vt 0.583670 0.382812
vt 0.630545 0.395754
vt 0.619709 0.451153
vt 0.586563 0.442002
vt 0.664062 0.412899
vt 0.643409 0.463277
vt 0.701962 0.416951
vt 0.706165 0.463826
vt 0.755311 0.450027
vt 0.752339 0.416882
vt 0.650705 0.417102
vt 0.603830 0.404160
vt 0.600818 0.457097
vt 0.633964 0.466249
vt 0.693223 0.476562
vt 0.746160 0.459033
vt 0.678681 0.434894
vt 0.688126 0.401748
vt 0.708958 0.424314
vt 0.721271 0.392742
vt 0.744972 0.416882
vt 0.735527 0.450027
vt 0.702381 0.459033
vt 0.500000 0.578125
vt 0.508410 0.622869
vt 0.466632 0.626409
vt 0.546975 0.602238
vt 0.567597 0.572397
vt 0.562400 0.544744
vt 0.533368 0.529841
vt 0.491590 0.533381
vt 0.453025 0.554012
vt 0.432403 0.583853
vt 0.437600 0.611506
vt 0.513607 0.650522
vt 0.446010 0.656250
vt 0.576007 0.617141
vt 0.609375 0.568857
vt 0.600965 0.524113
vt 0.553990 0.500000
vt 0.486393 0.505728
vt 0.423993 0.539109
vt 0.390625 0.587393
vt 0.399035 0.632137
vt 0.672572 0.553983
vt 0.740170 0.553983
vt 0.740170 0.602267
vt 0.672572 0.602267
vt 0.827919 0.553983
vt 0.781185 0.553983
vt 0.781185 0.602267
vt 0.827919 0.602267
vt 0.713588 0.553983
vt 0.713588 0.602267
vt 0.650946 0.553983
vt 0.650946 0.602267
vt 0.617188 0.553983
vt 0.617188 0.602267
vt 0.780553 0.553983
vt 0.712955 0.553983
vt 0.712955 0.602267
vt 0.780553 0.602267
vt 0.625206 0.553983
vt 0.671940 0.553983
vt 0.671940 0.602267
vt 0.625206 0.602267
vt 0.739537 0.553983
vt 0.739537 0.602267
vt 0.802179 0.553983
vt 0.802179 0.602267
vt 0.835937 0.553983
vt 0.835938 0.602267
vt 0.042047 0.307526
vt 0.073351 0.351863
vt 0.101562 0.327592
vt 0.079427 0.296241
vt 0.094534 0.351863
vt 0.047659 0.375000
vt 0.039540 0.343952
vt 0.072686 0.327592
vt 0.071886 0.375000
vt 0.039116 0.353800
vt 0.077355 0.328961
vt 0.100526 0.343952
vt 0.007812 0.309463
vt 0.055220 0.297610
vt 0.014841 0.281250
vt 0.061716 0.282715
vt 0.049481 0.329693
vt 0.016335 0.328657
vt 0.101562 0.315485
vt 0.077656 0.352865
vt 0.077656 0.296241
vt 0.040295 0.305120
vt 0.011365 0.328961
vt 0.094052 0.305120
vt 0.040295 0.367490
vt 0.032901 0.281250
vt 0.079776 0.290959
vt 0.067853 0.340549
vt 0.034707 0.333684
vt 0.098392 0.290959
vt 0.054209 0.320174
vt 0.070321 0.361207
vt 0.101562 0.340549
vt 0.008920 0.339680
vt 0.038296 0.375000
vt 0.076474 0.339680
vt 0.029599 0.329971
vt 0.032372 0.368135
vt 0.065518 0.375000
vt 0.007812 0.329971
vt 0.051995 0.300756
vt 0.068755 0.347477
vt 0.037513 0.368135
vt 0.097284 0.281250
vt 0.100779 0.333684
vt 0.048217 0.372516
vt 0.067853 0.375000
vt 0.083258 0.343758
vt 0.048217 0.349783
vt 0.065518 0.311734
vt 0.032372 0.310951
vt 0.016967 0.342192
vt 0.034707 0.374217
vt 0.590507 0.428253
vt 0.637382 0.446958
vt 0.621485 0.476562
vt 0.588339 0.463336
vt 0.738945 0.385727
vt 0.765625 0.431069
vt 0.741913 0.446561
vt 0.723047 0.414500
vt 0.722654 0.431069
vt 0.690581 0.473497
vt 0.733494 0.476562
vt 0.756173 0.446561
vt 0.643868 0.401518
vt 0.596993 0.382812
vt 0.592925 0.431204
vt 0.626071 0.444431
vt 0.671875 0.470583
vt 0.685242 0.425240
vt 0.729719 0.442440
vt 0.720267 0.474502
vt 0.717315 0.382812
vt 0.752398 0.412439
vt 0.689902 0.412439
vt 0.704633 0.451271
vt 0.727633 0.476562
vt 0.603070 0.470037
vt 0.759099 0.451271
vt 0.675622 0.442440
vt 0.787295 0.524871
vt 0.827399 0.512615
vt 0.787295 0.500000
vt 0.827399 0.537486
vt 0.787295 0.549743
vt 0.747190 0.537128
vt 0.747190 0.512257
vt 0.560732 0.501943
vt 0.600836 0.501887
vt 0.609375 0.656098
vt 0.500000 0.656250
vt 0.619829 0.512615
vt 0.618469 0.537486
vt 0.832016 0.622823
vt 0.835725 0.554992
vt 0.600836 0.500916
vt 0.560732 0.500000
vt 0.500000 0.650952
vt 0.609375 0.653449
vt 0.520628 0.500056
vt 0.390625 0.651104
vt 0.617266 0.537128
vt 0.618625 0.512257
vt 0.832441 0.554015
vt 0.828733 0.621846
vt 0.520628 0.501027
vt 0.390625 0.653753
vt 0.726562 0.520588
vt 0.835938 0.554992
vt 0.726562 0.588419
vt 0.835938 0.622823
vt 0.726562 0.656250
vt 0.617188 0.621846
vt 0.617188 0.554015
vt 0.716623 0.631612
vt 0.756727 0.619326
vt 0.716623 0.606973
vt 0.756727 0.643964
vt 0.716623 0.656250
vt 0.676518 0.643897
vt 0.676518 0.619259
vt 0.490060 0.500000
vt 0.530164 0.500477
vt 0.609375 0.651484
vt 0.500000 0.650183
vt 0.617855 0.619326
vt 0.619413 0.643964
vt 0.833512 0.600885
vt 0.829265 0.533689
vt 0.530164 0.501589
vt 0.490060 0.502225
vt 0.500000 0.656250
vt 0.609375 0.654518
vt 0.449956 0.501748
vt 0.390625 0.654949
vt 0.619634 0.643897
vt 0.618077 0.619259
vt 0.829869 0.533507
vt 0.834116 0.600702
vt 0.449956 0.500635
vt 0.390625 0.651915
vt 0.726562 0.500000
vt 0.835938 0.533689
vt 0.726562 0.567196
vt 0.835938 0.600885
vt 0.726562 0.634391
vt 0.617188 0.600702
vt 0.617188 0.533507
vt 0.817164 0.634136
vt 0.835938 0.622660
vt 0.817164 0.612022
vt 0.835938 0.644774
vt 0.817164 0.656250
vt 0.798390 0.645612
vt 0.798390 0.623499
vt 0.590601 0.500610
vt 0.609375 0.501728
vt 0.493028 0.654867
vt 0.441826 0.651820
vt 0.619606 0.622660
vt 0.620316 0.644774
vt 0.835938 0.589322
vt 0.834002 0.529012
vt 0.609375 0.502235
vt 0.590601 0.501624
vt 0.441826 0.654586
vt 0.493028 0.656250
vt 0.571827 0.500507
vt 0.390625 0.651538
vt 0.617897 0.645612
vt 0.617188 0.623499
vt 0.827405 0.531299
vt 0.829341 0.591609
vt 0.571827 0.500000
vt 0.390625 0.650155
vt 0.668389 0.500000
vt 0.719590 0.529012
vt 0.668389 0.560310
vt 0.719590 0.589322
vt 0.668389 0.620621
vt 0.617188 0.591609
vt 0.617188 0.531299
vn 0.027691 -0.998047 0.055994
vn 0.077427 -0.995990 0.044811
vn 0.111600 -0.993444 0.024805
vn 0.123726 -0.992316 0.000000
vn 0.111600 -0.993444 -0.024805
vn 0.077427 -0.995990 -0.044811
vn 0.027691 -0.998047 -0.055994
vn -0.027691 -0.998047 -0.055994
vn -0.077427 -0.995990 -0.044811
vn -0.111600 -0.993444 -0.024805
vn -0.123726 -0.992316 -0.000000
vn -0.111600 -0.993444 0.024805
vn -0.077427 -0.995990 0.044811
vn -0.027691 -0.998047 0.055994
vn 0.091205 -0.978605 0.184429
vn 0.250006 -0.957372 0.144691
vn 0.351972 -0.932735 0.078231
vn 0.386317 -0.922366 0.000000
vn 0.351972 -0.932735 -0.078231
vn 0.250006 -0.957372 -0.144691
vn 0.091205 -0.978605 -0.184429
vn -0.091205 -0.978605 -0.184429
vn -0.250006 -0.957372 -0.144691
vn -0.351972 -0.932735 -0.078231
vn -0.386317 -0.922366 -0.000000
vn -0.351972 -0.932735 0.078231
vn -0.250006 -0.957372 0.144691
vn -0.091205 -0.978605 0.184429
vn 0.188857 -0.904705 0.381894
vn 0.484617 -0.828542 0.280473
vn 0.638979 -0.756000 0.142023
vn 0.684179 -0.729314 0.000000
vn 0.638979 -0.756000 -0.142023
vn 0.484617 -0.828542 -0.280473
vn 0.188857 -0.904705 -0.381894
vn -0.188857 -0.904705 -0.381894
vn -0.484617 -0.828542 -0.280473
vn -0.638979 -0.756000 -0.142023
vn -0.684179 -0.729314 -0.000000
vn -0.638979 -0.756000 0.142023
vn -0.484617 -0.828542 0.280473
vn -0.188857 -0.904705 0.381894
vn 0.374694 -0.534343 0.757682
vn 0.792057 -0.403127 0.458404
vn 0.923138 -0.325140 0.205182
vn 0.953159 -0.302468 0.000000
vn 0.923138 -0.325140 -0.205182
vn 0.792057 -0.403127 -0.458404
vn 0.374694 -0.534343 -0.757682
vn -0.374694 -0.534343 -0.757682
vn -0.792057 -0.403127 -0.458404
vn -0.923138 -0.325140 -0.205182
vn -0.953159 -0.302468 -0.000000
vn -0.923138 -0.325140 0.205182
vn -0.792057 -0.403127 0.458404
vn -0.374694 -0.534343 0.757682
vn 0.374694 0.534343 0.757682
vn 0.792057 0.403127 0.458404
vn 0.923138 0.325140 0.205182
vn 0.953159 0.302468 0.000000
vn 0.923138 0.325140 -0.205182
vn 0.792057 0.403127 -0.458404
vn 0.374694 0.534343 -0.757682
vn -0.374694 0.534343 -0.757682
vn -0.792057 0.403127 -0.458404
vn -0.923138 0.325140 -0.205182
vn -0.953159 0.302468 -0.000000
vn -0.923138 0.325140 0.205182
vn -0.792057 0.403127 0.458404
vn -0.374694 0.534343 0.757682
vn 0.188857 0.904705 0.381894
vn 0.484617 0.828542 0.280473
vn 0.638979 0.756000 0.142023
vn 0.684179 0.729314 0.000000
vn 0.638979 0.756000 -0.142023
vn 0.484617 0.828542 -0.280473
vn 0.188857 0.904705 -0.381894
vn -0.188857 0.904705 -0.381894
vn -0.484617 0.828542 -0.280473
vn -0.638979 0.756000 -0.142023
vn -0.684179 0.729314 -0.000000
vn -0.638979 0.756000 0.142023
vn -0.484617 0.828542 0.280473
vn -0.188857 0.904705 0.381894
vn 0.091205 0.978605 0.184429
vn 0.250006 0.957372 0.144691
vn 0.351972 0.932735 0.078231
vn 0.386317 0.922366 0.000000
vn 0.351972 0.932735 -0.078231
vn 0.250006 0.957372 -0.144691
vn 0.091205 0.978605 -0.184429
vn -0.091205 0.978605 -0.184429
vn -0.250006 0.957372 -0.144691
vn -0.351972 0.932735 -0.078231
vn -0.386317 0.922366 -0.000000
vn -0.351972 0.932735 0.078231
vn -0.250006 0.957372 0.144691
vn -0.091205 0.978605 0.184429
vn 0.027691 0.998047 0.055994
vn 0.077427 0.995990 0.044811
vn 0.111600 0.993444 0.024805
vn 0.123726 0.992316 0.000000
vn 0.111600 0.993444 -0.024805
vn 0.077427 0.995990 -0.044811
vn 0.027691 0.998047 -0.055994
vn -0.027691 0.998047 -0.055994
vn -0.077427 0.995990 -0.044811
vn -0.111600 0.993444 -0.024805
vn -0.123726 0.992316 -0.000000
vn -0.111600 0.993444 0.024805
vn -0.077427 0.995990 0.044811
vn -0.027691 0.998047 0.055994
vn 0.050272 -0.977113 0.206696
vn 0.180762 -0.972607 0.146150
vn 0.241752 -0.969854 0.030646
vn 0.211512 -0.972607 -0.096423
vn 0.100257 -0.977113 -0.187613
vn -0.050272 -0.977113 -0.206696
vn -0.180762 -0.972607 -0.146150
vn -0.241752 -0.969854 -0.030646
vn -0.211512 -0.972607 0.096423
vn -0.100257 -0.977113 0.187613
vn 0.160215 -0.735121 0.658732
vn 0.553247 -0.702729 0.447314
vn 0.723012 -0.684729 0.091654
vn 0.647363 -0.702729 -0.295115
vn 0.319517 -0.735121 -0.597917
vn -0.160215 -0.735121 -0.658732
vn -0.553247 -0.702729 -0.447314
vn -0.723012 -0.684729 -0.091654
vn -0.647363 -0.702729 0.295115
vn -0.319517 -0.735121 0.597917
vn 0.236327 0.000000 0.971674
vn 0.777625 -0.000000 0.628729
vn 0.992061 -0.000000 0.125761
vn 0.909911 0.000000 -0.414804
vn 0.471309 0.000000 -0.881968
vn -0.236327 0.000000 -0.971674
vn -0.777625 0.000000 -0.628729
vn -0.992061 -0.000000 -0.125761
vn -0.909911 0.000000 0.414804
vn -0.471309 0.000000 0.881968
vn 0.160215 0.735121 0.658732
vn 0.553247 0.702729 0.447314
vn 0.723012 0.684729 0.091654
vn 0.647363 0.702729 -0.295115
vn 0.319517 0.735121 -0.597917
vn -0.160215 0.735121 -0.658732
vn -0.553247 0.702729 -0.447314
vn -0.723012 0.684729 -0.091654
vn -0.647363 0.702729 0.295115
vn -0.319517 0.735121 0.597917
vn 0.050272 0.977113 0.206696
vn 0.180762 0.972607 0.146150
vn 0.241752 0.969854 0.030646
vn 0.211512 0.972607 -0.096423
vn 0.100257 0.977113 -0.187613
vn -0.050272 0.977113 -0.206696
vn -0.180762 0.972607 -0.146150
vn -0.241752 0.969854 -0.030646
vn -0.211512 0.972607 0.096423
vn -0.100257 0.977113 0.187613
vn 0.914986 0.388814 0.107818
vn 0.369701 0.724041 -0.582311
vn -0.565581 0.631815 -0.530027
vn -0.955577 0.204362 0.212387
vn -0.410292 -0.130865 0.902516
vn 0.524989 -0.038639 0.850231
vn 0.374508 0.834686 0.403786
vn 0.124549 0.988354 0.087431
vn -0.304184 0.946077 0.111398
vn -0.482959 0.750133 0.451721
vn -0.233000 0.596465 0.768076
vn 0.195734 0.638741 0.744109
vn 0.132939 -0.763055 0.632514
vn 0.841651 -0.154380 0.517484
vn 0.668435 0.715618 0.202696
vn -0.213494 0.976940 0.002939
vn -0.922206 0.368265 0.117969
vn -0.748990 -0.501733 0.432757
vn -0.028209 -0.113083 0.993185
vn 0.296665 0.165934 0.940455
vn 0.217263 0.564741 0.796156
vn -0.187014 0.684531 0.704587
vn -0.511888 0.405514 0.757317
vn -0.432485 0.006707 0.901616
vn 0.072562 -0.641085 -0.764032
vn 0.839860 -0.486227 -0.241285
vn 0.752672 -0.162134 0.638120
vn -0.101813 0.007101 0.994778
vn -0.869111 -0.147757 0.472032
vn -0.781923 -0.471850 -0.407373
vn 0.000891 -0.995489 -0.094870
vn 0.352620 -0.924502 0.144757
vn 0.312654 -0.775938 0.547876
vn -0.079043 -0.698360 0.711368
vn -0.430772 -0.769347 0.471741
vn -0.390805 -0.917912 0.068622
vn 0.007801 -0.983666 0.179833
vn 0.151985 -0.972371 0.177188
vn 0.236542 -0.965582 0.108167
vn 0.233439 -0.972371 -0.000940
vn 0.141128 -0.983666 -0.111731
vn -0.007801 -0.983666 -0.179833
vn -0.151985 -0.972371 -0.177188
vn -0.236542 -0.965582 -0.108167
vn -0.233439 -0.972371 0.000940
vn -0.141128 -0.983666 0.111731
vn 0.026551 -0.790352 0.612077
vn 0.464228 -0.701132 0.541208
vn 0.683950 -0.659086 0.312758
vn 0.713025 -0.701132 -0.002870
vn 0.480341 -0.790352 -0.380284
vn -0.026551 -0.790352 -0.612077
vn -0.464228 -0.701132 -0.541208
vn -0.683950 -0.659086 -0.312758
vn -0.713025 -0.701132 0.002870
vn -0.480341 -0.790352 0.380284
vn 0.043338 0.000000 0.999060
vn 0.651062 0.000000 0.759024
vn 0.909426 -0.000000 0.415865
vn 0.999992 0.000000 -0.004026
vn 0.784034 -0.000000 -0.620717
vn -0.043338 0.000000 -0.999060
vn -0.651062 0.000000 -0.759024
vn -0.909426 -0.000000 -0.415865
vn -0.999992 0.000000 0.004026
vn -0.784034 -0.000000 0.620717
vn 0.026551 0.790352 0.612077
vn 0.464228 0.701132 0.541208
vn 0.683950 0.659086 0.312758
vn 0.713025 0.701132 -0.002870
vn 0.480341 0.790352 -0.380284
vn -0.026551 0.790352 -0.612077
vn -0.464228 0.701132 -0.541208
vn -0.683950 0.659086 -0.312758
vn -0.713025 0.701132 0.002870
vn -0.480341 0.790352 0.380284
vn 0.007801 0.983666 0.179833
vn 0.151985 0.972371 0.177188
vn 0.236542 0.965582 0.108167
vn 0.233439 0.972371 -0.000940
vn 0.141128 0.983666 -0.111731
vn -0.007801 0.983666 -0.179833
vn -0.151985 0.972371 -0.177188
vn -0.236542 0.965582 -0.108167
vn -0.233439 0.972371 0.000940
vn -0.141128 0.983666 0.111731
vn 0.850453 0.511439 0.123121
vn 0.296844 0.740601 -0.602821
vn -0.619654 0.527134 -0.581514
vn -0.982543 0.084505 0.165736
vn -0.428933 -0.144657 0.891678
vn 0.487565 0.068810 0.870371
vn 0.243668 0.893961 0.376110
vn -0.010107 0.999009 0.043338
vn -0.430230 0.901156 0.053106
vn -0.596578 0.698255 0.395645
vn -0.342803 0.593207 0.728417
vn 0.077320 0.691060 0.718650
vn -0.765689 -0.632123 -0.118911
vn 0.056875 -0.982950 0.174859
vn 0.685242 -0.421337 0.594069
vn 0.491046 0.491101 0.719510
vn -0.331518 0.841927 0.425741
vn -0.959886 0.280315 0.006531
vn -0.654934 -0.445832 0.610160
vn -0.277870 -0.606651 0.744824
vn 0.010174 -0.349208 0.936990
vn -0.078846 0.069054 0.994492
vn -0.455910 0.229873 0.859828
vn -0.743953 -0.027570 0.667662
vn 0.059904 -0.990429 0.124346
vn 0.688915 -0.449310 0.568785
vn 0.493229 0.455075 0.741372
vn -0.331468 0.818341 0.469519
vn -0.960479 0.277222 0.025079
vn -0.764793 -0.627163 -0.147508
vn -0.273073 -0.644459 0.714215
vn 0.015266 -0.396410 0.917947
vn -0.074437 0.018160 0.997060
vn -0.452478 0.184681 0.872443
vn -0.740817 -0.063368 0.668712
vn -0.651114 -0.477938 0.589598
vn 0.033761 -0.934097 0.355420
vn 0.223941 -0.938870 0.261483
vn 0.329456 -0.941857 0.066061
vn 0.307439 -0.938870 -0.154933
vn 0.168176 -0.934097 -0.314929
vn -0.033761 -0.934097 -0.355420
vn -0.223941 -0.938870 -0.261483
vn -0.329456 -0.941857 -0.066061
vn -0.307439 -0.938870 0.154933
vn -0.168176 -0.934097 0.314929
vn 0.080454 -0.525489 0.846988
vn 0.546937 -0.541310 0.638626
vn 0.817679 -0.551833 0.163957
vn 0.750866 -0.541310 -0.378396
vn 0.400774 -0.525489 -0.750494
vn -0.080454 -0.525489 -0.846988
vn -0.546937 -0.541310 -0.638626
vn -0.817679 -0.551833 -0.163957
vn -0.750866 -0.541310 0.378396
vn -0.400774 -0.525489 0.750494
vn 0.094563 0.000000 0.995519
vn 0.650479 0.000000 0.759525
vn 0.980483 -0.000000 0.196602
vn 0.893013 0.000000 -0.450030
vn 0.471056 -0.000000 -0.882103
vn -0.094563 0.000000 -0.995519
vn -0.650479 0.000000 -0.759525
vn -0.980483 0.000000 -0.196602
vn -0.893013 0.000000 0.450030
vn -0.471056 -0.000000 0.882103
vn 0.080454 0.525489 0.846988
vn 0.546937 0.541310 0.638626
vn 0.817679 0.551833 0.163957
vn 0.750866 0.541310 -0.378396
vn 0.400774 0.525489 -0.750494
vn -0.080454 0.525489 -0.846988
vn -0.546937 0.541310 -0.638626
vn -0.817679 0.551833 -0.163957
vn -0.750866 0.541310 0.378396
vn -0.400774 0.525489 0.750494
vn 0.033761 0.934097 0.355420
vn 0.223941 0.938870 0.261483
vn 0.329456 0.941857 0.066061
vn 0.307439 0.938870 -0.154933
vn 0.168176 0.934097 -0.314929
vn -0.033761 0.934097 -0.355420
vn -0.223941 0.938870 -0.261483
vn -0.329456 0.941857 -0.066061
vn -0.307439 0.938870 0.154933
vn -0.168176 0.934097 0.314929
vn 0.783137 0.255284 0.567033
vn 0.815420 0.460251 -0.351083
vn 0.017643 0.534307 -0.845107
vn -0.812416 0.403394 -0.421013
vn -0.844699 0.198427 0.497103
vn -0.046922 0.124372 0.991126
vn 0.326588 0.845966 0.421524
vn 0.341386 0.939923 0.000659
vn -0.024315 0.973870 -0.225801
vn -0.404814 0.913860 -0.031397
vn -0.419613 0.819903 0.389468
vn -0.053911 0.785956 0.615928
vn 0.067842 0.923169 -0.378359
vn -0.790744 0.570249 -0.222576
vn -0.907657 -0.125518 0.400505
vn -0.165984 -0.468364 0.867804
vn 0.692602 -0.115444 0.712022
vn 0.809515 0.580323 0.088940
vn -0.077512 0.926503 0.368217
vn -0.471088 0.764724 0.439628
vn -0.524681 0.445785 0.725249
vn -0.184698 0.288624 0.939459
vn 0.208878 0.450402 0.868048
vn 0.262471 0.769342 0.582427
vn 0.629295 -0.669544 0.394586
vn 0.807614 0.243639 0.537028
vn 0.112367 0.874757 0.471354
vn -0.761199 0.592691 0.263237
vn -0.939518 -0.320492 0.120795
vn -0.244271 -0.951610 0.186469
vn 0.142494 -0.391971 0.908875
vn 0.224236 0.026633 0.974171
vn -0.094465 0.315937 0.944066
vn -0.494908 0.186639 0.848665
vn -0.576650 -0.231965 0.783369
vn -0.257949 -0.521269 0.813475
vn 0.044369 -0.946652 0.319188
vn 0.236439 -0.941810 0.238934
vn 0.337363 -0.938855 0.068832
vn 0.311144 -0.941810 -0.127211
vn 0.165864 -0.946652 -0.276294
vn -0.044369 -0.946652 -0.319188
vn -0.236439 -0.941810 -0.238934
vn -0.337363 -0.938855 -0.068832
vn -0.311144 -0.941810 0.127211
vn -0.165864 -0.946652 0.276294
vn 0.113140 -0.569854 0.813920
vn 0.586671 -0.551664 0.592861
vn 0.823883 -0.541257 0.168096
vn 0.772032 -0.551664 -0.315646
vn 0.422950 -0.569854 -0.704542
vn -0.113140 -0.569854 -0.813920
vn -0.586671 -0.551664 -0.592861
vn -0.823883 -0.541257 -0.168096
vn -0.772032 -0.551664 0.315646
vn -0.422950 -0.569854 0.704542
vn 0.137682 0.000000 0.990476
vn 0.703386 -0.000000 0.710808
vn 0.979814 -0.000000 0.199911
vn 0.925625 0.000000 -0.378442
vn 0.514697 -0.000000 -0.857372
vn -0.137682 0.000000 -0.990476
vn -0.703386 -0.000000 -0.710808
vn -0.979814 0.000000 -0.199911
vn -0.925625 0.000000 0.378442
vn -0.514697 0.000000 0.857372
vn 0.113140 0.569854 0.813920
vn 0.586671 0.551664 0.592861
vn 0.823883 0.541257 0.168096
vn 0.772032 0.551664 -0.315646
vn 0.422950 0.569854 -0.704542
vn -0.113140 0.569854 -0.813920
vn -0.586671 0.551664 -0.592861
vn -0.823883 0.541257 -0.168096
vn -0.772032 0.551664 0.315646
vn -0.422950 0.569854 0.704542
vn 0.044369 0.946652 0.319188
vn 0.236439 0.941810 0.238934
vn 0.337363 0.938855 0.068832
vn 0.311144 0.941810 -0.127211
vn 0.165864 0.946652 -0.276294
vn -0.044369 0.946652 -0.319188
vn -0.236439 0.941810 -0.238934
vn -0.337363 0.938855 -0.068832
vn -0.311144 0.941810 0.127211
vn -0.165864 0.946652 0.276294
vn 0.871199 0.256424 0.418640
vn 0.422497 0.900780 -0.100457
vn -0.505293 0.828400 -0.241727
vn -0.984382 0.111663 0.136101
vn -0.535680 -0.532693 0.655198
vn 0.392110 -0.460313 0.796468
vn 0.274100 0.524898 0.805823
vn 0.068415 0.820271 0.567869
vn -0.356884 0.787092 0.503111
vn -0.576498 0.458540 0.676307
vn -0.370813 0.163166 0.914262
vn 0.054486 0.196345 0.979020
vn -0.763258 -0.425115 0.486534
vn 0.110660 -0.619353 0.777275
vn 0.815204 -0.027658 0.578514
vn 0.645830 0.758275 0.089011
vn -0.228088 0.952513 -0.201731
vn -0.932631 0.360818 -0.002969
vn -0.479832 0.173827 0.859968
vn -0.079228 0.084789 0.993244
vn 0.243735 0.356022 0.902132
vn 0.166094 0.716293 0.677744
vn -0.234510 0.805332 0.544468
vn -0.557473 0.534099 0.635580
vn -0.953611 -0.275667 0.120967
vn -0.289401 -0.939874 0.181340
vn 0.597121 -0.701408 0.389195
vn 0.819433 0.201264 0.536677
vn 0.155222 0.865471 0.476305
vn -0.731300 0.627005 0.268449
vn -0.585628 -0.208706 0.783251
vn -0.281154 -0.513178 0.810926
vn 0.125228 -0.403866 0.906207
vn 0.227136 0.009920 0.973813
vn -0.077338 0.314392 0.946138
vn -0.483720 0.205079 0.850857
vn 0.024710 -0.989768 0.140530
vn 0.142789 -0.981360 0.128623
vn 0.205466 -0.976269 0.068423
vn 0.191395 -0.981360 -0.017335
vn 0.104030 -0.989768 -0.097658
vn -0.024710 -0.989768 -0.140530
vn -0.142789 -0.981360 -0.128623
vn -0.205466 -0.976269 -0.068423
vn -0.191395 -0.981360 0.017335
vn -0.104030 -0.989768 0.097658
vn 0.090258 -0.853447 0.513305
vn 0.474379 -0.769654 0.427314
vn 0.649700 -0.728752 0.216358
vn 0.635859 -0.769654 -0.057591
vn 0.379984 -0.853447 -0.356708
vn -0.090258 -0.853447 -0.513305
vn -0.474379 -0.769654 -0.427314
vn -0.649700 -0.728752 -0.216358
vn -0.635859 -0.769654 0.057591
vn -0.379984 -0.853447 0.356708
vn 0.173181 0.000000 0.984890
vn 0.743003 -0.000000 0.669288
vn 0.948774 0.000000 0.315954
vn 0.995923 0.000000 -0.090203
vn 0.729084 -0.000000 -0.684424
vn -0.173181 0.000000 -0.984890
vn -0.743003 -0.000000 -0.669288
vn -0.948774 -0.000000 -0.315954
vn -0.995923 0.000000 0.090203
vn -0.729084 -0.000000 0.684424
vn 0.090258 0.853447 0.513305
vn 0.474379 0.769654 0.427314
vn 0.649700 0.728752 0.216358
vn 0.635859 0.769654 -0.057591
vn 0.379984 0.853447 -0.356708
vn -0.090258 0.853447 -0.513305
vn -0.474379 0.769654 -0.427314
vn -0.649700 0.728752 -0.216358
vn -0.635859 0.769654 0.057591
vn -0.379984 0.853447 0.356708
vn 0.024710 0.989768 0.140530
vn 0.142789 0.981360 0.128623
vn 0.205466 0.976269 0.068423
vn 0.191395 0.981360 -0.017335
vn 0.104030 0.989768 -0.097658
vn -0.024710 0.989768 -0.140530
vn -0.142789 0.981360 -0.128623
vn -0.205466 0.976269 -0.068423
vn -0.191395 0.981360 0.017335
vn -0.104030 0.989768 0.097658
vn 0.804066 -0.189083 0.563671
vn 0.246813 0.527362 0.813002
vn -0.649700 0.547930 0.526937
vn -0.988959 -0.147947 -0.008459
vn -0.431706 -0.864393 -0.257790
vn 0.464807 -0.884961 0.028275
vn 0.163967 -0.459659 0.872828
vn -0.091478 -0.131241 0.987121
vn -0.502439 -0.121812 0.855989
vn -0.657956 -0.440803 0.610563
vn -0.402511 -0.769221 0.496270
vn 0.008451 -0.778650 0.627402
vn -0.008238 -0.080291 0.996737
vn 0.779669 0.227087 0.583564
vn 0.741777 0.611830 -0.274647
vn -0.084024 0.689197 -0.719686
vn -0.871931 0.381819 -0.306513
vn -0.834038 -0.002925 0.551699
vn -0.105880 0.637056 0.763511
vn 0.255297 0.777958 0.574112
vn 0.237927 0.954325 0.180708
vn -0.140620 0.989789 -0.023298
vn -0.501797 0.848888 0.166101
vn -0.484427 0.672521 0.559505
vn -0.168872 -0.715256 0.678152
vn 0.645280 -0.245061 0.723573
vn 0.717065 0.610142 0.336965
vn -0.025304 0.995150 -0.095064
vn -0.839456 0.524954 -0.140485
vn -0.911241 -0.330249 0.246123
vn -0.292301 -0.018123 0.956155
vn 0.080907 0.197415 0.976976
vn 0.113813 0.589440 0.799754
vn -0.226489 0.765928 0.601712
vn -0.599697 0.550390 0.580891
vn -0.632603 0.158365 0.758112
vn 0.065175 -0.126225 -0.989858
vn 0.502400 -0.861962 0.067943
vn 0.999958 -0.001156 -0.009065
vn 0.502400 0.851428 -0.150546
vn -0.492716 0.843207 -0.215019
vn -0.990274 -0.017599 -0.138011
vn -0.492716 -0.870183 0.003469
vn -0.065175 0.126225 0.989858
vn -0.011351 0.136961 -0.990511
vn 0.497516 -0.843616 -0.201968
vn 0.995926 0.012351 -0.089322
vn 0.497516 0.866767 0.034532
vn -0.499306 0.865218 0.045741
vn -0.997716 0.009251 -0.066905
vn -0.499306 -0.845165 -0.190759
vn 0.011351 -0.136961 0.990511
vn 0.207536 0.102633 -0.972828
vn 0.498178 -0.866461 -0.032617
vn 0.986770 -0.017010 0.161233
vn 0.498178 0.854192 0.148912
vn -0.479005 0.875943 -0.057258
vn -0.967597 0.026492 -0.251108
vn -0.479005 -0.844710 -0.238787
vn -0.207536 -0.102633 0.972828
f 1/1/1 2/2/1 3/3/1
f 1/1/2 4/4/2 2/2/2
f 1/1/3 5/5/3 4/4/3
f 1/1/4 6/6/4 5/5/4
f 1/1/5 7/7/5 6/6/5
f 1/1/6 8/8/6 7/7/6
f 1/1/7 9/9/7 8/8/7
f 1/1/8 10/10/8 9/9/8
f 1/1/9 11/11/9 10/10/9
f 1/1/10 12/12/10 11/11/10
f 1/1/11 13/13/11 12/12/11
f 1/1/12 14/14/12 13/13/12
f 1/1/13 15/15/13 14/14/13
f 1/1/14 3/3/14 15/15/14
f 3/3/15 2/2/15 16/16/15
f 3/3/15 16/16/15 17/17/15
f 2/2/16 4/4/16 18/18/16
f 2/2/16 18/18/16 16/16/16
f 4/4/17 5/5/17 19/19/17
f 4/4/17 19/19/17 18/18/17
f 5/5/18 6/6/18 20/20/18
f 5/5/18 20/20/18 19/19/18
f 6/6/19 7/7/19 21/21/19
f 6/6/19 21/21/19 20/20/19
f 7/7/20 8/8/20 22/22/20
f 7/7/20 22/22/20 21/21/20
f 8/8/21 9/9/21 23/23/21
f 8/8/21 23/23/21 22/22/21
f 9/9/22 10/10/22 24/24/22
f 9/9/22 24/24/22 23/23/22
f 10/10/23 11/11/23 25/25/23
f 10/10/23 25/25/23 24/24/23
f 11/11/24 12/12/24 26/26/24
f 11/11/24 26/26/24 25/25/24
f 12/12/25 13/13/25 27/27/25
f 12/12/25 27/27/25 26/26/25
f 13/13/26 14/14/26 28/28/26
f 13/13/26 28/28/26 27/27/26
f 14/14/27 15/15/27 29/29/27
f 14/14/27 29/29/27 28/28/27
f 15/15/28 3/3/28 17/17/28
f 15/15/28 17/17/28 29/29/28
f 17/17/29 16/16/29 30/30/29
f 17/17/29 30/30/29 31/31/29
f 16/16/30 18/18/30 32/32/30
f 16/16/30 32/32/30 30/30/30
f 18/18/31 19/19/31 33/33/31
f 18/18/31 33/33/31 32/32/31
f 19/19/32 20/20/32 34/34/32
f 19/19/32 34/34/32 33/33/32
f 20/20/33 21/21/33 35/35/33
f 20/20/33 35/35/33 34/34/33
f 21/21/34 22/22/34 36/36/34
f 21/21/34 36/36/34 35/35/34
f 22/22/35 23/23/35 37/37/35
f 22/22/35 37/37/35 36/36/35
f 23/23/36 24/24/36 38/38/36
f 23/23/36 38/38/36 37/37/36
f 24/24/37 25/25/37 39/39/37
f 24/24/37 39/39/37 38/38/37
f 25/25/38 26/26/38 40/40/38
f 25/25/38 40/40/38 39/39/38
f 26/26/39 27/27/39 41/41/39
f 26/26/39 41/41/39 40/40/39
f 27/27/40 28/28/40 42/42/40
f 27/27/40 42/42/40 41/41/40
f 28/28/41 29/29/41 43/43/41
f 28/28/41 43/43/41 42/42/41
f 29/29/42 17/17/42 31/31/42
f 29/29/42 31/31/42 43/43/42
f 31/44/43 30/45/43 44/46/43
f 31/44/43 44/46/43 45/47/43
f 30/48/44 32/49/44 46/50/44
f 30/48/44 46/50/44 44/51/44
f 32/49/45 33/52/45 47/53/45
f 32/49/45 47/53/45 46/50/45
f 33/52/46 34/54/46 48/55/46
f 33/52/46 48/55/46 47/53/46
f 34/54/47 35/56/47 49/57/47
f 34/54/47 49/57/47 48/55/47
f 35/56/48 36/58/48 50/59/48
f 35/56/48 50/59/48 49/57/48
f 36/60/49 37/61/49 51/62/49
f 36/60/49 51/62/49 50/63/49
f 37/61/50 38/64/50 52/65/50
f 37/61/50 52/65/50 51/62/50
f 38/58/51 39/56/51 53/57/51
f 38/58/51 53/57/51 52/59/51
f 39/56/52 40/54/52 54/55/52
f 39/56/52 54/55/52 53/57/52
f 40/54/53 41/52/53 55/53/53
f 40/54/53 55/53/53 54/55/53
f 41/52/54 42/49/54 56/50/54
f 41/52/54 56/50/54 55/53/54
f 42/49/55 43/48/55 57/51/55
f 42/49/55 57/51/55 56/50/55
f 43/66/56 31/44/56 45/47/56
f 43/66/56 45/47/56 57/67/56
f 45/47/57 44/46/57 58/68/57
f 45/47/57 58/68/57 59/69/57
f 44/51/58 46/50/58 60/70/58
f 44/51/58 60/70/58 58/71/58
f 46/50/59 47/53/59 61/72/59
f 46/50/59 61/72/59 60/70/59
f 47/53/60 48/55/60 62/73/60
f 47/53/60 62/73/60 61/72/60
f 48/55/61 49/57/61 63/74/61
f 48/55/61 63/74/61 62/73/61
f 49/57/62 50/59/62 64/75/62
f 49/57/62 64/75/62 63/74/62
f 50/63/63 51/62/63 65/76/63
f 50/63/63 65/76/63 64/77/63
f 51/62/64 52/65/64 66/78/64
f 51/62/64 66/78/64 65/76/64
f 52/59/65 53/57/65 67/74/65
f 52/59/65 67/74/65 66/75/65
f 53/57/66 54/55/66 68/73/66
f 53/57/66 68/73/66 67/74/66
f 54/55/67 55/53/67 69/72/67
f 54/55/67 69/72/67 68/73/67
f 55/53/68 56/50/68 70/70/68
f 55/53/68 70/70/68 69/72/68
f 56/50/69 57/51/69 71/71/69
f 56/50/69 71/71/69 70/70/69
f 57/67/70 45/47/70 59/69/70
f 57/67/70 59/69/70 71/79/70
f 59/31/71 58/30/71 72/16/71
f 59/31/71 72/16/71 73/17/71
f 58/30/72 60/32/72 74/18/72
f 58/30/72 74/18/72 72/16/72
f 60/32/73 61/33/73 75/19/73
f 60/32/73 75/19/73 74/18/73
f 61/33/74 62/34/74 76/20/74
f 61/33/74 76/20/74 75/19/74
f 62/34/75 63/35/75 77/21/75
f 62/34/75 77/21/75 76/20/75
f 63/35/76 64/36/76 78/22/76
f 63/35/76 78/22/76 77/21/76
f 64/36/77 65/37/77 79/23/77
f 64/36/77 79/23/77 78/22/77
f 65/37/78 66/38/78 80/24/78
f 65/37/78 80/24/78 79/23/78
f 66/38/79 67/39/79 81/25/79
f 66/38/79 81/25/79 80/24/79
f 67/39/80 68/40/80 82/26/80
f 67/39/80 82/26/80 81/25/80
f 68/40/81 69/41/81 83/27/81
f 68/40/81 83/27/81 82/26/81
f 69/41/82 70/42/82 84/28/82
f 69/41/82 84/28/82 83/27/82
f 70/42/83 71/43/83 85/29/83
f 70/42/83 85/29/83 84/28/83
f 71/43/84 59/31/84 73/17/84
f 71/43/84 73/17/84 85/29/84
f 73/17/85 72/16/85 86/2/85
f 73/17/85 86/2/85 87/3/85
f 72/16/86 74/18/86 88/4/86
f 72/16/86 88/4/86 86/2/86
f 74/18/87 75/19/87 89/5/87
f 74/18/87 89/5/87 88/4/87
f 75/19/88 76/20/88 90/6/88
f 75/19/88 90/6/88 89/5/88
f 76/20/89 77/21/89 91/7/89
f 76/20/89 91/7/89 90/6/89
f 77/21/90 78/22/90 92/8/90
f 77/21/90 92/8/90 91/7/90
f 78/22/91 79/23/91 93/9/91
f 78/22/91 93/9/91 92/8/91
f 79/23/92 80/24/92 94/10/92
f 79/23/92 94/10/92 93/9/92
f 80/24/93 81/25/93 95/11/93
f 80/24/93 95/11/93 94/10/93
f 81/25/94 82/26/94 96/12/94
f 81/25/94 96/12/94 95/11/94
f 82/26/95 83/27/95 97/13/95
f 82/26/95 97/13/95 96/12/95
f 83/27/96 84/28/96 98/14/96
f 83/27/96 98/14/96 97/13/96
f 84/28/97 85/29/97 99/15/97
f 84/28/97 99/15/97 98/14/97
f 85/29/98 73/17/98 87/3/98
f 85/29/98 87/3/98 99/15/98
f 87/3/99 86/2/99 100/1/99
f 86/2/100 88/4/100 100/1/100
f 88/4/101 89/5/101 100/1/101
f 89/5/102 90/6/102 100/1/102
f 90/6/103 91/7/103 100/1/103
f 91/7/104 92/8/104 100/1/104
f 92/8/105 93/9/105 100/1/105
f 93/9/106 94/10/106 100/1/106
f 94/10/107 95/11/107 100/1/107
f 95/11/108 96/12/108 100/1/108
f 96/12/109 97/13/109 100/1/109
f 97/13/110 98/14/110 100/1/110
f 98/14/111 99/15/111 100/1/111
f 99/15/112 87/3/112 100/1/112
f 101/80/113 102/81/113 103/82/113
f 101/80/114 104/83/114 102/81/114
f 101/80/115 105/84/115 104/83/115
f 101/80/116 106/85/116 105/84/116
f 101/80/117 107/86/117 106/85/117
f 101/80/118 108/87/118 107/86/118
f 101/80/119 109/88/119 108/87/119
f 101/80/120 110/89/120 109/88/120
f 101/80/121 111/90/121 110/89/121
f 101/80/122 103/82/122 111/90/122
f 103/82/123 102/81/123 112/91/123
f 103/82/123 112/91/123 113/92/123
f 102/81/124 104/83/124 114/93/124
f 102/81/124 114/93/124 112/91/124
f 104/94/125 105/95/125 115/96/125
f 104/94/125 115/96/125 114/97/125
f 105/84/126 106/85/126 116/98/126
f 105/84/126 116/98/126 115/99/126
f 106/85/127 107/86/127 117/100/127
f 106/85/127 117/100/127 116/98/127
f 107/86/128 108/87/128 118/101/128
f 107/86/128 118/101/128 117/100/128
f 108/87/129 109/88/129 119/102/129
f 108/87/129 119/102/129 118/101/129
f 109/103/130 110/104/130 120/105/130
f 109/103/130 120/105/130 119/106/130
f 110/89/131 111/90/131 121/107/131
f 110/89/131 121/107/131 120/108/131
f 111/90/132 103/82/132 113/92/132
f 111/90/132 113/92/132 121/107/132
f 113/109/133 112/110/133 122/111/133
f 113/109/133 122/111/133 123/112/133
f 112/113/134 114/97/134 124/114/134
f 112/113/134 124/114/134 122/115/134
f 114/97/135 115/96/135 125/116/135
f 114/97/135 125/116/135 124/114/135
f 115/96/136 116/117/136 126/118/136
f 115/96/136 126/118/136 125/116/136
f 116/119/137 117/120/137 127/121/137
f 116/119/137 127/121/137 126/122/137
f 117/120/138 118/123/138 128/124/138
f 117/120/138 128/124/138 127/121/138
f 118/125/139 119/106/139 129/126/139
f 118/125/139 129/126/139 128/127/139
f 119/106/140 120/105/140 130/128/140
f 119/106/140 130/128/140 129/126/140
f 120/105/141 121/129/141 131/130/141
f 120/105/141 131/130/141 130/128/141
f 121/131/142 113/109/142 123/112/142
f 121/131/142 123/112/142 131/132/142
f 123/92/143 122/91/143 132/81/143
f 123/92/143 132/81/143 133/82/143
f 122/91/144 124/93/144 134/83/144
f 122/91/144 134/83/144 132/81/144
f 124/114/145 125/116/145 135/133/145
f 124/114/145 135/133/145 134/134/145
f 125/99/146 126/98/146 136/85/146
f 125/99/146 136/85/146 135/84/146
f 126/98/147 127/100/147 137/86/147
f 126/98/147 137/86/147 136/85/147
f 127/100/148 128/101/148 138/87/148
f 127/100/148 138/87/148 137/86/148
f 128/101/149 129/102/149 139/88/149
f 128/101/149 139/88/149 138/87/149
f 129/126/150 130/128/150 140/135/150
f 129/126/150 140/135/150 139/136/150
f 130/108/151 131/107/151 141/90/151
f 130/108/151 141/90/151 140/89/151
f 131/107/152 123/92/152 133/82/152
f 131/107/152 133/82/152 141/90/152
f 133/82/153 132/81/153 142/80/153
f 132/81/154 134/83/154 142/80/154
f 134/83/155 135/84/155 142/80/155
f 135/84/156 136/85/156 142/80/156
f 136/85/157 137/86/157 142/80/157
f 137/86/158 138/87/158 142/80/158
f 138/87/159 139/88/159 142/80/159
f 139/88/160 140/89/160 142/80/160
f 140/89/161 141/90/161 142/80/161
f 141/90/162 133/82/162 142/80/162
f 143/137/163 144/138/163 145/139/163
f 143/137/163 145/139/163 146/140/163
f 144/141/164 147/142/164 148/143/164
f 144/141/164 148/143/164 145/144/164
f 147/142/165 149/145/165 150/146/165
f 147/142/165 150/146/165 148/143/165
f 149/147/166 151/148/166 152/149/166
f 149/147/166 152/149/166 150/150/166
f 151/151/167 153/152/167 154/153/167
f 151/151/167 154/153/167 152/154/167
f 153/152/168 143/155/168 146/156/168
f 153/152/168 146/156/168 154/153/168
f 146/157/169 145/144/169 155/158/169
f 145/144/170 148/143/170 155/158/170
f 148/143/171 150/146/171 155/158/171
f 150/146/172 152/159/172 155/158/172
f 152/154/173 154/153/173 155/160/173
f 154/153/174 146/156/174 155/160/174
f 156/161/175 157/162/175 158/163/175
f 156/161/175 158/163/175 159/164/175
f 157/165/176 160/166/176 161/167/176
f 157/165/176 161/167/176 158/168/176
f 160/169/177 162/170/177 163/171/177
f 160/169/177 163/171/177 161/172/177
f 162/170/178 164/173/178 165/174/178
f 162/170/178 165/174/178 163/171/178
f 164/175/179 166/176/179 167/177/179
f 164/175/179 167/177/179 165/178/179
f 166/176/180 156/179/180 159/180/180
f 166/176/180 159/180/180 167/177/180
f 159/181/181 158/182/181 168/183/181
f 158/182/182 161/184/182 168/183/182
f 161/184/183 163/185/183 168/183/183
f 163/185/184 165/186/184 168/183/184
f 165/186/185 167/187/185 168/183/185
f 167/187/186 159/181/186 168/183/186
f 169/188/187 170/189/187 171/190/187
f 169/188/187 171/190/187 172/191/187
f 170/192/188 173/193/188 174/194/188
f 170/192/188 174/194/188 171/195/188
f 173/193/189 175/196/189 176/197/189
f 173/193/189 176/197/189 174/194/189
f 175/198/190 177/199/190 178/200/190
f 175/198/190 178/200/190 176/201/190
f 177/202/191 179/203/191 180/204/191
f 177/202/191 180/204/191 178/205/191
f 179/203/192 169/206/192 172/207/192
f 179/203/192 172/207/192 180/204/192
f 172/208/193 171/209/193 181/210/193
f 171/209/194 174/211/194 181/210/194
f 174/211/195 176/212/195 181/210/195
f 176/201/196 178/200/196 181/213/196
f 178/214/197 180/215/197 181/210/197
f 180/215/198 172/208/198 181/210/198
f 182/216/199 183/217/199 184/218/199
f 182/216/200 185/219/200 183/217/200
f 182/216/201 186/220/201 185/219/201
f 182/216/202 187/221/202 186/220/202
f 182/216/203 188/222/203 187/221/203
f 182/216/204 189/223/204 188/222/204
f 182/216/205 190/224/205 189/223/205
f 182/216/206 191/225/206 190/224/206
f 182/216/207 192/226/207 191/225/207
f 182/216/208 184/218/208 192/226/208
f 184/218/209 183/217/209 193/227/209
f 184/218/209 193/227/209 194/228/209
f 183/217/210 185/219/210 195/229/210
f 183/217/210 195/229/210 193/227/210
f 185/230/211 186/231/211 196/232/211
f 185/230/211 196/232/211 195/233/211
f 186/231/212 187/234/212 197/235/212
f 186/231/212 197/235/212 196/232/212
f 187/221/213 188/222/213 198/236/213
f 187/221/213 198/236/213 197/237/213
f 188/222/214 189/223/214 199/238/214
f 188/222/214 199/238/214 198/236/214
f 189/223/215 190/224/215 200/239/215
f 189/223/215 200/239/215 199/238/215
f 190/240/216 191/241/216 201/242/216
f 190/240/216 201/242/216 200/243/216
f 191/241/217 192/244/217 202/245/217
f 191/241/217 202/245/217 201/242/217
f 192/226/218 184/218/218 194/228/218
f 192/226/218 194/228/218 202/246/218
f 194/247/219 193/248/219 203/249/219
f 194/247/219 203/249/219 204/250/219
f 193/248/220 195/251/220 205/252/220
f 193/248/220 205/252/220 203/249/220
f 195/233/221 196/232/221 206/253/221
f 195/233/221 206/253/221 205/254/221
f 196/232/222 197/235/222 207/255/222
f 196/232/222 207/255/222 206/253/222
f 197/235/223 198/256/223 208/257/223
f 197/235/223 208/257/223 207/255/223
f 198/258/224 199/259/224 209/260/224
f 198/258/224 209/260/224 208/261/224
f 199/259/225 200/262/225 210/263/225
f 199/259/225 210/263/225 209/260/225
f 200/243/226 201/242/226 211/264/226
f 200/243/226 211/264/226 210/265/226
f 201/242/227 202/245/227 212/266/227
f 201/242/227 212/266/227 211/264/227
f 202/245/228 194/267/228 204/268/228
f 202/245/228 204/268/228 212/266/228
f 204/228/229 203/227/229 213/217/229
f 204/228/229 213/217/229 214/218/229
f 203/227/230 205/229/230 215/219/230
f 203/227/230 215/219/230 213/217/230
f 205/254/231 206/253/231 216/269/231
f 205/254/231 216/269/231 215/270/231
f 206/253/232 207/255/232 217/271/232
f 206/253/232 217/271/232 216/269/232
f 207/237/233 208/236/233 218/222/233
f 207/237/233 218/222/233 217/221/233
f 208/236/234 209/238/234 219/223/234
f 208/236/234 219/223/234 218/222/234
f 209/238/235 210/239/235 220/224/235
f 209/238/235 220/224/235 219/223/235
f 210/265/236 211/264/236 221/272/236
f 210/265/236 221/272/236 220/273/236
f 211/264/237 212/266/237 222/274/237
f 211/264/237 222/274/237 221/272/237
f 212/246/238 204/228/238 214/218/238
f 212/246/238 214/218/238 222/226/238
f 214/218/239 213/217/239 223/216/239
f 213/217/240 215/219/240 223/216/240
f 215/219/241 216/220/241 223/216/241
f 216/220/242 217/221/242 223/216/242
f 217/221/243 218/222/243 223/216/243
f 218/222/244 219/223/244 223/216/244
f 219/223/245 220/224/245 223/216/245
f 220/224/246 221/225/246 223/216/246
f 221/225/247 222/226/247 223/216/247
f 222/226/248 214/218/248 223/216/248
f 224/275/249 225/276/249 226/277/249
f 224/275/249 226/277/249 227/278/249
f 225/279/250 228/280/250 229/281/250
f 225/279/250 229/281/250 226/282/250
f 228/283/251 230/284/251 231/285/251
f 228/283/251 231/285/251 229/286/251
f 230/284/252 232/287/252 233/288/252
f 230/284/252 233/288/252 231/285/252
f 232/289/253 234/290/253 235/291/253
f 232/289/253 235/291/253 233/292/253
f 234/290/254 224/293/254 227/294/254
f 234/290/254 227/294/254 235/291/254
f 227/295/255 226/282/255 236/296/255
f 226/282/256 229/281/256 236/296/256
f 229/281/257 231/297/257 236/296/257
f 231/297/258 233/298/258 236/296/258
f 233/292/259 235/291/259 236/299/259
f 235/291/260 227/294/260 236/299/260
f 237/300/261 238/301/261 239/302/261
f 237/300/261 239/302/261 240/303/261
f 238/304/262 241/305/262 242/306/262
f 238/304/262 242/306/262 239/307/262
f 241/308/263 243/309/263 244/310/263
f 241/308/263 244/310/263 242/311/263
f 243/312/264 245/313/264 246/314/264
f 243/312/264 246/314/264 244/315/264
f 245/316/265 247/317/265 248/318/265
f 245/316/265 248/318/265 246/319/265
f 247/320/266 237/300/266 240/303/266
f 247/320/266 240/303/266 248/321/266
f 240/303/267 239/302/267 249/322/267
f 239/323/268 242/324/268 249/325/268
f 242/324/269 244/315/269 249/325/269
f 244/315/270 246/314/270 249/325/270
f 246/314/271 248/326/271 249/325/271
f 248/321/272 240/303/272 249/322/272
f 250/327/273 251/328/273 252/329/273
f 250/327/273 252/329/273 253/330/273
f 251/331/274 254/332/274 255/333/274
f 251/331/274 255/333/274 252/334/274
f 254/335/275 256/336/275 257/337/275
f 254/335/275 257/337/275 255/338/275
f 256/339/276 258/340/276 259/341/276
f 256/339/276 259/341/276 257/342/276
f 258/343/277 260/344/277 261/345/277
f 258/343/277 261/345/277 259/346/277
f 260/344/278 250/347/278 253/348/278
f 260/344/278 253/348/278 261/345/278
f 253/349/279 252/350/279 262/351/279
f 252/350/280 255/338/280 262/351/280
f 255/338/281 257/337/281 262/351/281
f 257/337/282 259/352/282 262/351/282
f 259/346/283 261/345/283 262/353/283
f 261/345/284 253/348/284 262/353/284
f 263/354/285 264/355/285 265/356/285
f 263/354/286 266/357/286 264/355/286
f 263/354/287 267/358/287 266/357/287
f 263/354/288 268/359/288 267/358/288
f 263/354/289 269/360/289 268/359/289
f 263/354/290 270/361/290 269/360/290
f 263/354/291 271/362/291 270/361/291
f 263/354/292 272/363/292 271/362/292
f 263/354/293 273/364/293 272/363/293
f 263/354/294 265/356/294 273/364/294
f 265/365/295 264/366/295 274/367/295
f 265/365/295 274/367/295 275/368/295
f 264/366/296 266/369/296 276/370/296
f 264/366/296 276/370/296 274/367/296
f 266/371/297 267/372/297 277/373/297
f 266/371/297 277/373/297 276/374/297
f 267/372/298 268/375/298 278/376/298
f 267/372/298 278/376/298 277/373/298
f 268/377/299 269/378/299 279/379/299
f 268/377/299 279/379/299 278/380/299
f 269/378/300 270/381/300 280/382/300
f 269/378/300 280/382/300 279/379/300
f 270/381/301 271/383/301 281/384/301
f 270/381/301 281/384/301 280/382/301
f 271/385/302 272/386/302 282/387/302
f 271/385/302 282/387/302 281/388/302
f 272/386/303 273/389/303 283/390/303
f 272/386/303 283/390/303 282/387/303
f 273/391/304 265/365/304 275/368/304
f 273/391/304 275/368/304 283/392/304
f 275/368/305 274/367/305 284/393/305
f 275/368/305 284/393/305 285/394/305
f 274/367/306 276/370/306 286/395/306
f 274/367/306 286/395/306 284/393/306
f 276/374/307 277/373/307 287/396/307
f 276/374/307 287/396/307 286/397/307
f 277/373/308 278/376/308 288/398/308
f 277/373/308 288/398/308 287/396/308
f 278/380/309 279/379/309 289/399/309
f 278/380/309 289/399/309 288/400/309
f 279/379/310 280/382/310 290/401/310
f 279/379/310 290/401/310 289/399/310
f 280/382/311 281/384/311 291/402/311
f 280/382/311 291/402/311 290/401/311
f 281/388/312 282/387/312 292/403/312
f 281/388/312 292/403/312 291/404/312
f 282/387/313 283/390/313 293/405/313
f 282/387/313 293/405/313 292/403/313
f 283/392/314 275/368/314 285/394/314
f 283/392/314 285/394/314 293/406/314
f 285/394/315 284/393/315 294/407/315
f 285/394/315 294/407/315 295/408/315
f 284/393/316 286/395/316 296/409/316
f 284/393/316 296/409/316 294/407/316
f 286/397/317 287/396/317 297/410/317
f 286/397/317 297/410/317 296/411/317
f 287/396/318 288/398/318 298/412/318
f 287/396/318 298/412/318 297/410/318
f 288/400/319 289/399/319 299/413/319
f 288/400/319 299/413/319 298/414/319
f 289/399/320 290/401/320 300/415/320
f 289/399/320 300/415/320 299/413/320
f 290/401/321 291/402/321 301/416/321
f 290/401/321 301/416/321 300/415/321
f 291/404/322 292/403/322 302/417/322
f 291/404/322 302/417/322 301/418/322
f 292/403/323 293/405/323 303/419/323
f 292/403/323 303/419/323 302/417/323
f 293/406/324 285/394/324 295/408/324
f 293/406/324 295/408/324 303/420/324
f 295/356/325 294/355/325 304/354/325
f 294/355/326 296/357/326 304/354/326
f 296/357/327 297/358/327 304/354/327
f 297/358/328 298/359/328 304/354/328
f 298/359/329 299/360/329 304/354/329
f 299/360/330 300/361/330 304/354/330
f 300/361/331 301/362/331 304/354/331
f 301/362/332 302/363/332 304/354/332
f 302/363/333 303/364/333 304/354/333
f 303/364/334 295/356/334 304/354/334
f 305/421/335 306/422/335 307/423/335
f 305/421/335 307/423/335 308/424/335
f 306/422/336 309/425/336 310/426/336
f 306/422/336 310/426/336 307/423/336
f 309/427/337 311/428/337 312/429/337
f 309/427/337 312/429/337 310/430/337
f 311/431/338 313/432/338 314/433/338
f 311/431/338 314/433/338 312/434/338
f 313/432/339 315/435/339 316/436/339
f 313/432/339 316/436/339 314/433/339
f 315/437/340 305/438/340 308/439/340
f 315/437/340 308/439/340 316/440/340
f 308/441/341 307/442/341 317/443/341
f 307/442/342 310/444/342 317/443/342
f 310/444/343 312/445/343 317/443/343
f 312/445/344 314/446/344 317/443/344
f 314/446/345 316/447/345 317/443/345
f 316/447/346 308/441/346 317/443/346
f 318/448/347 319/449/347 320/450/347
f 318/448/347 320/450/347 321/451/347
f 319/452/348 322/453/348 323/454/348
f 319/452/348 323/454/348 320/455/348
f 322/453/349 324/456/349 325/457/349
f 322/453/349 325/457/349 323/454/349
f 324/458/350 326/459/350 327/460/350
f 324/458/350 327/460/350 325/461/350
f 326/459/351 328/462/351 329/463/351
f 326/459/351 329/463/351 327/460/351
f 328/464/352 318/465/352 321/466/352
f 328/464/352 321/466/352 329/467/352
f 321/451/353 320/450/353 330/468/353
f 320/450/354 323/469/354 330/468/354
f 323/470/355 325/461/355 330/471/355
f 325/461/356 327/460/356 330/471/356
f 327/460/357 329/463/357 330/471/357
f 329/472/358 321/451/358 330/468/358
f 331/473/359 332/474/359 333/475/359
f 331/473/359 333/475/359 334/476/359
f 332/477/360 335/478/360 336/479/360
f 332/477/360 336/479/360 333/480/360
f 335/481/361 337/482/361 338/483/361
f 335/481/361 338/483/361 336/484/361
f 337/485/362 339/486/362 340/487/362
f 337/485/362 340/487/362 338/488/362
f 339/486/363 341/489/363 342/490/363
f 339/486/363 342/490/363 340/487/363
f 341/491/364 331/473/364 334/476/364
f 341/491/364 334/476/364 342/492/364
f 334/493/365 333/494/365 343/495/365
f 333/494/366 336/496/366 343/495/366
f 336/496/367 338/497/367 343/495/367
f 338/497/368 340/498/368 343/495/368
f 340/498/369 342/499/369 343/495/369
f 342/499/370 334/493/370 343/495/370
f 344/500/371 345/501/371 346/502/371
f 344/500/372 347/503/372 345/501/372
f 344/500/373 348/504/373 347/503/373
f 344/500/374 349/505/374 348/504/374
f 344/500/375 350/506/375 349/505/375
f 344/500/376 351/507/376 350/506/376
f 344/500/377 352/508/377 351/507/377
f 344/500/378 353/509/378 352/508/378
f 344/500/379 354/510/379 353/509/379
f 344/500/380 346/502/380 354/510/380
f 346/511/381 345/512/381 355/513/381
f 346/511/381 355/513/381 356/514/381
f 345/512/382 347/515/382 357/516/382
f 345/512/382 357/516/382 355/513/382
f 347/517/383 348/518/383 358/519/383
f 347/517/383 358/519/383 357/520/383
f 348/518/384 349/521/384 359/522/384
f 348/518/384 359/522/384 358/519/384
f 349/523/385 350/524/385 360/525/385
f 349/523/385 360/525/385 359/526/385
f 350/524/386 351/527/386 361/528/386
f 350/524/386 361/528/386 360/525/386
f 351/527/387 352/529/387 362/530/387
f 351/527/387 362/530/387 361/528/387
f 352/531/388 353/532/388 363/533/388
f 352/531/388 363/533/388 362/534/388
f 353/532/389 354/535/389 364/536/389
f 353/532/389 364/536/389 363/533/389
f 354/537/390 346/511/390 356/514/390
f 354/537/390 356/514/390 364/538/390
f 356/514/391 355/513/391 365/539/391
f 356/514/391 365/539/391 366/540/391
f 355/513/392 357/516/392 367/541/392
f 355/513/392 367/541/392 365/539/392
f 357/520/393 358/519/393 368/542/393
f 357/520/393 368/542/393 367/543/393
f 358/519/394 359/522/394 369/544/394
f 358/519/394 369/544/394 368/542/394
f 359/526/395 360/525/395 370/545/395
f 359/526/395 370/545/395 369/546/395
f 360/525/396 361/528/396 371/547/396
f 360/525/396 371/547/396 370/545/396
f 361/528/397 362/530/397 372/548/397
f 361/528/397 372/548/397 371/547/397
f 362/534/398 363/533/398 373/549/398
f 362/534/398 373/549/398 372/550/398
f 363/533/399 364/536/399 374/551/399
f 363/533/399 374/551/399 373/549/399
f 364/538/400 356/514/400 366/540/400
f 364/538/400 366/540/400 374/552/400
f 366/540/401 365/539/401 375/553/401
f 366/540/401 375/553/401 376/554/401
f 365/539/402 367/541/402 377/555/402
f 365/539/402 377/555/402 375/553/402
f 367/543/403 368/542/403 378/556/403
f 367/543/403 378/556/403 377/557/403
f 368/542/404 369/544/404 379/558/404
f 368/542/404 379/558/404 378/556/404
f 369/546/405 370/545/405 380/559/405
f 369/546/405 380/559/405 379/560/405
f 370/545/406 371/547/406 381/561/406
f 370/545/406 381/561/406 380/559/406
f 371/547/407 372/548/407 382/562/407
f 371/547/407 382/562/407 381/561/407
f 372/550/408 373/549/408 383/563/408
f 372/550/408 383/563/408 382/564/408
f 373/549/409 374/551/409 384/565/409
f 373/549/409 384/565/409 383/563/409
f 374/552/410 366/540/410 376/554/410
f 374/552/410 376/554/410 384/566/410
f 376/502/411 375/501/411 385/500/411
f 375/501/412 377/503/412 385/500/412
f 377/503/413 378/504/413 385/500/413
f 378/504/414 379/505/414 385/500/414
f 379/505/415 380/506/415 385/500/415
f 380/506/416 381/507/416 385/500/416
f 381/507/417 382/508/417 385/500/417
f 382/508/418 383/509/418 385/500/418
f 383/509/419 384/510/419 385/500/419
f 384/510/420 376/502/420 385/500/420
f 386/567/421 387/568/421 388/569/421
f 386/567/421 388/569/421 389/570/421
f 387/571/422 390/572/422 391/573/422
f 387/571/422 391/573/422 388/574/422
f 390/572/423 392/575/423 393/576/423
f 390/572/423 393/576/423 391/573/423
f 392/577/424 394/578/424 395/579/424
f 392/577/424 395/579/424 393/580/424
f 394/581/425 396/582/425 397/583/425
f 394/581/425 397/583/425 395/584/425
f 396/582/426 386/585/426 389/586/426
f 396/582/426 389/586/426 397/583/426
f 389/586/427 388/587/427 398/588/427
f 388/574/428 391/573/428 398/589/428
f 391/573/429 393/576/429 398/589/429
f 393/590/430 395/584/430 398/588/430
f 395/584/431 397/583/431 398/588/431
f 397/583/432 389/586/432 398/588/432
f 399/591/433 400/592/433 401/593/433
f 399/591/433 401/593/433 402/594/433
f 400/595/434 403/596/434 404/597/434
f 400/595/434 404/597/434 401/598/434
f 403/599/435 405/600/435 406/601/435
f 403/599/435 406/601/435 404/602/435
f 405/603/436 407/604/436 408/605/436
f 405/603/436 408/605/436 406/606/436
f 407/604/437 409/607/437 410/608/437
f 407/604/437 410/608/437 408/605/437
f 409/609/438 399/591/438 402/594/438
f 409/609/438 402/594/438 410/610/438
f 402/611/439 401/598/439 411/612/439
f 401/598/440 404/597/440 411/612/440
f 404/597/441 406/613/441 411/612/441
f 406/606/442 408/605/442 411/614/442
f 408/605/443 410/608/443 411/614/443
f 410/615/444 402/611/444 411/612/444
f 412/616/445 413/617/445 414/618/445
f 412/616/445 414/618/445 415/619/445
f 413/620/446 416/621/446 417/622/446
f 413/620/446 417/622/446 414/623/446
f 416/621/447 418/624/447 419/625/447
f 416/621/447 419/625/447 417/622/447
f 418/626/448 420/627/448 421/628/448
f 418/626/448 421/628/448 419/629/448
f 420/630/449 422/631/449 423/632/449
f 420/630/449 423/632/449 421/633/449
f 422/634/450 412/616/450 415/619/450
f 422/634/450 415/619/450 423/635/450
f 415/636/451 414/637/451 424/638/451
f 414/637/452 417/639/452 424/638/452
f 417/639/453 419/640/453 424/638/453
f 419/640/454 421/641/454 424/638/454
f 421/641/455 423/642/455 424/638/455
f 423/642/456 415/636/456 424/638/456
f 425/643/457 426/644/457 427/645/457
f 425/643/458 428/646/458 426/644/458
f 425/643/459 429/647/459 428/646/459
f 425/643/460 430/648/460 429/647/460
f 425/643/461 431/649/461 430/648/461
f 425/643/462 432/650/462 431/649/462
f 425/643/463 433/651/463 432/650/463
f 425/643/464 434/652/464 433/651/464
f 425/643/465 435/653/465 434/652/465
f 425/643/466 427/645/466 435/653/466
f 427/645/467 426/644/467 436/654/467
f 427/645/467 436/654/467 437/655/467
f 426/644/468 428/646/468 438/656/468
f 426/644/468 438/656/468 436/654/468
f 428/646/469 429/647/469 439/657/469
f 428/646/469 439/657/469 438/656/469
f 429/647/470 430/648/470 440/658/470
f 429/647/470 440/658/470 439/657/470
f 430/648/471 431/649/471 441/659/471
f 430/648/471 441/659/471 440/658/471
f 431/649/472 432/650/472 442/660/472
f 431/649/472 442/660/472 441/659/472
f 432/650/473 433/651/473 443/661/473
f 432/650/473 443/661/473 442/660/473
f 433/651/474 434/652/474 444/662/474
f 433/651/474 444/662/474 443/661/474
f 434/652/475 435/653/475 445/663/475
f 434/652/475 445/663/475 444/662/475
f 435/653/476 427/645/476 437/655/476
f 435/653/476 437/655/476 445/663/476
f 437/664/477 436/665/477 446/666/477
f 437/664/477 446/666/477 447/667/477
f 436/668/478 438/669/478 448/670/478
f 436/668/478 448/670/478 446/671/478
f 438/669/479 439/672/479 449/673/479
f 438/669/479 449/673/479 448/670/479
f 439/672/480 440/674/480 450/675/480
f 439/672/480 450/675/480 449/673/480
f 440/674/481 441/676/481 451/677/481
f 440/674/481 451/677/481 450/675/481
f 441/678/482 442/679/482 452/680/482
f 441/678/482 452/680/482 451/681/482
f 442/682/483 443/683/483 453/684/483
f 442/682/483 453/684/483 452/685/483
f 443/683/484 444/686/484 454/687/484
f 443/683/484 454/687/484 453/684/484
f 444/686/485 445/688/485 455/689/485
f 444/686/485 455/689/485 454/687/485
f 445/688/486 437/690/486 447/691/486
f 445/688/486 447/691/486 455/689/486
f 447/655/487 446/654/487 456/644/487
f 447/655/487 456/644/487 457/645/487
f 446/654/488 448/656/488 458/646/488
f 446/654/488 458/646/488 456/644/488
f 448/656/489 449/657/489 459/647/489
f 448/656/489 459/647/489 458/646/489
f 449/657/490 450/658/490 460/648/490
f 449/657/490 460/648/490 459/647/490
f 450/658/491 451/659/491 461/649/491
f 450/658/491 461/649/491 460/648/491
f 451/659/492 452/660/492 462/650/492
f 451/659/492 462/650/492 461/649/492
f 452/660/493 453/661/493 463/651/493
f 452/660/493 463/651/493 462/650/493
f 453/661/494 454/662/494 464/652/494
f 453/661/494 464/652/494 463/651/494
f 454/662/495 455/663/495 465/653/495
f 454/662/495 465/653/495 464/652/495
f 455/663/496 447/655/496 457/645/496
f 455/663/496 457/645/496 465/653/496
f 457/645/497 456/644/497 466/643/497
f 456/644/498 458/646/498 466/643/498
f 458/646/499 459/647/499 466/643/499
f 459/647/500 460/648/500 466/643/500
f 460/648/501 461/649/501 466/643/501
f 461/649/502 462/650/502 466/643/502
f 462/650/503 463/651/503 466/643/503
f 463/651/504 464/652/504 466/643/504
f 464/652/505 465/653/505 466/643/505
f 465/653/506 457/645/506 466/643/506
f 467/692/507 468/693/507 469/694/507
f 467/692/507 469/694/507 470/695/507
f 468/696/508 471/697/508 472/698/508
f 468/696/508 472/698/508 469/699/508
f 471/700/509 473/701/509 474/702/509
f 471/700/509 474/702/509 472/703/509
f 473/701/510 475/704/510 476/705/510
f 473/701/510 476/705/510 474/702/510
f 475/706/511 477/707/511 478/708/511
f 475/706/511 478/708/511 476/709/511
f 477/707/512 467/710/512 470/711/512
f 477/707/512 470/711/512 478/708/512
f 470/712/513 469/699/513 479/713/513
f 469/699/514 472/698/514 479/713/514
f 472/698/515 474/714/515 479/713/515
f 474/702/516 476/705/516 479/715/516
f 476/709/517 478/708/517 479/716/517
f 478/708/518 470/711/518 479/716/518
f 480/717/519 481/718/519 482/719/519
f 480/717/519 482/719/519 483/720/519
f 481/721/520 484/722/520 485/723/520
f 481/721/520 485/723/520 482/724/520
f 484/722/521 486/725/521 487/726/521
f 484/722/521 487/726/521 485/723/521
f 486/727/522 488/728/522 489/729/522
f 486/727/522 489/729/522 487/730/522
f 488/731/523 490/732/523 491/733/523
f 488/731/523 491/733/523 489/734/523
f 490/732/524 480/735/524 483/736/524
f 490/732/524 483/736/524 491/733/524
f 483/720/525 482/719/525 492/737/525
f 482/738/526 485/739/526 492/740/526
f 485/739/527 487/741/527 492/740/527
f 487/741/528 489/742/528 492/740/528
f 489/742/529 491/743/529 492/740/529
f 491/743/530 483/744/530 492/740/530
f 493/745/531 494/746/531 495/747/531
f 493/745/531 495/747/531 496/748/531
f 494/749/532 497/750/532 498/751/532
f 494/749/532 498/751/532 495/752/532
f 497/753/533 499/754/533 500/755/533
f 497/753/533 500/755/533 498/756/533
f 499/757/534 501/758/534 502/759/534
f 499/757/534 502/759/534 500/760/534
f 501/761/535 503/762/535 504/763/535
f 501/761/535 504/763/535 502/764/535
f 503/762/536 493/765/536 496/766/536
f 503/762/536 496/766/536 504/763/536
f 496/767/537 495/752/537 505/768/537
f 495/752/538 498/751/538 505/768/538
f 498/751/539 500/769/539 505/768/539
f 500/760/540 502/759/540 505/770/540
f 502/764/541 504/763/541 505/771/541
f 504/772/542 496/767/542 505/768/542
f 506/773/543 507/774/543 508/775/543
f 506/773/543 509/776/543 507/774/543
f 506/773/543 510/777/543 509/776/543
f 506/773/543 511/778/543 510/777/543
f 506/773/543 512/779/543 511/778/543
f 506/773/543 508/775/543 512/779/543
f 508/780/544 507/781/544 513/782/544
f 508/780/544 513/782/544 514/783/544
f 507/784/545 509/785/545 515/786/545
f 507/784/545 515/786/545 513/787/545
f 509/788/546 510/789/546 516/790/546
f 509/788/546 516/790/546 515/791/546
f 510/789/547 511/792/547 517/793/547
f 510/789/547 517/793/547 516/790/547
f 511/794/548 512/795/548 518/796/548
f 511/794/548 518/796/548 517/797/548
f 512/798/549 508/780/549 514/783/549
f 512/798/549 514/783/549 518/799/549
f 514/800/550 513/801/550 519/802/550
f 513/801/550 515/803/550 519/802/550
f 515/803/550 516/804/550 519/802/550
f 516/804/550 517/805/550 519/802/550
f 517/805/550 518/806/550 519/802/550
f 518/806/550 514/800/550 519/802/550
f 520/807/551 521/808/551 522/809/551
f 520/807/551 523/810/551 521/808/551
f 520/807/551 524/811/551 523/810/551
f 520/807/551 525/812/551 524/811/551
f 520/807/551 526/813/551 525/812/551
f 520/807/551 522/809/551 526/813/551
f 522/814/552 521/815/552 527/816/552
f 522/814/552 527/816/552 528/817/552
f 521/818/553 523/819/553 529/820/553
f 521/818/553 529/820/553 527/821/553
f 523/822/554 524/823/554 530/824/554
f 523/822/554 530/824/554 529/825/554
f 524/823/555 525/826/555 531/827/555
f 524/823/555 531/827/555 530/824/555
f 525/828/556 526/829/556 532/830/556
f 525/828/556 532/830/556 531/831/556
f 526/832/557 522/814/557 528/817/557
f 526/832/557 528/817/557 532/833/557
f 528/834/558 527/835/558 533/836/558
f 527/835/558 529/837/558 533/836/558
f 529/837/558 530/838/558 533/836/558
f 530/838/558 531/839/558 533/836/558
f 531/839/558 532/840/558 533/836/558
f 532/840/558 528/834/558 533/836/558
f 534/841/559 535/842/559 536/843/559
f 534/841/559 537/844/559 535/842/559
f 534/841/559 538/845/559 537/844/559
f 534/841/559 539/846/559 538/845/559
f 534/841/559 540/847/559 539/846/559
f 534/841/559 536/843/559 540/847/559
f 536/848/560 535/849/560 541/850/560
f 536/848/560 541/850/560 542/851/560
f 535/852/561 537/853/561 543/854/561
f 535/852/561 543/854/561 541/855/561
f 537/856/562 538/857/562 544/858/562
f 537/856/562 544/858/562 543/859/562
f 538/857/563 539/860/563 545/861/563
f 538/857/563 545/861/563 544/858/563
f 539/862/564 540/863/564 546/864/564
f 539/862/564 546/864/564 545/865/564
f 540/866/565 536/848/565 542/851/565
f 540/866/565 542/851/565 546/867/565
f 542/868/566 541/869/566 547/870/566
f 541/869/566 543/871/566 547/870/566
f 543/871/566 544/872/566 547/870/566
f 544/872/566 545/873/566 547/870/566
f 545/873/566 546/874/566 547/870/566
f 546/874/566 542/868/566 547/870/566
