# Kthaari destroyer, from tools/gen_fleet.py
# Generated by tools. Edit the generator script.
v -0.446667 0.218179 1.623462
v 0.446667 0.218179 1.623462
v 0.446667 0.383103 1.623462
v -0.446667 0.383103 1.623462
v 0.558333 0.197564 1.108077
v -0.558333 0.197564 1.108077
v -0.558333 0.403718 1.108077
v 0.558333 0.403718 1.108077
v -0.201000 0.335000 1.576218
v -0.168788 0.335000 1.576218
v -0.201000 0.302788 1.576218
v -0.201000 0.367212 1.576218
v -0.233212 0.335000 1.576218
v -0.201000 0.335000 1.876859
v 0.201000 0.335000 1.576218
v 0.233212 0.335000 1.576218
v 0.201000 0.302788 1.576218
v 0.201000 0.367212 1.576218
v 0.168788 0.335000 1.576218
v 0.201000 0.335000 1.876859
v -0.469000 0.300641 1.580513
v -0.418787 0.271651 1.580513
v -0.469000 0.242660 1.580513
v -0.418787 0.329631 1.580513
v -0.469000 0.358622 1.580513
v -0.519213 0.329631 1.580513
v -0.519213 0.271651 1.580513
v -0.431805 0.279167 1.945577
v -0.469000 0.257692 1.945577
v -0.431805 0.322115 1.945577
v -0.469000 0.343590 1.945577
v -0.506195 0.322115 1.945577
v -0.506195 0.279167 1.945577
v -0.439244 0.283462 2.010000
v -0.469000 0.266282 2.010000
v -0.439244 0.317821 2.010000
v -0.469000 0.335000 2.010000
v -0.498756 0.317821 2.010000
v -0.498756 0.283462 2.010000
v 0.469000 0.300641 1.580513
v 0.519213 0.271651 1.580513
v 0.469000 0.242660 1.580513
v 0.519213 0.329631 1.580513
v 0.469000 0.358622 1.580513
v 0.418787 0.329631 1.580513
v 0.418787 0.271651 1.580513
v 0.506195 0.279167 1.945577
v 0.469000 0.257692 1.945577
v 0.506195 0.322115 1.945577
v 0.469000 0.343590 1.945577
v 0.431805 0.322115 1.945577
v 0.431805 0.279167 1.945577
v 0.498756 0.283462 2.010000
v 0.469000 0.266282 2.010000
v 0.498756 0.317821 2.010000
v 0.469000 0.335000 2.010000
v 0.439244 0.317821 2.010000
v 0.439244 0.283462 2.010000
v -0.128846 0.146026 1.176795
v 0.128846 0.146026 1.176795
v 0.128846 0.369359 1.176795
v -0.128846 0.369359 1.176795
v 0.128846 0.146026 0.146026
v -0.128846 0.146026 0.146026
v -0.128846 0.369359 0.146026
v 0.128846 0.369359 0.146026
v -0.401571 0.032212 0.214744
v 0.401571 0.032212 0.214744
v 0.401571 0.397276 0.214744
v -0.401571 0.397276 0.214744
v 0.472436 0.000000 -1.245513
v -0.472436 0.000000 -1.245513
v -0.472436 0.429487 -1.245513
v 0.472436 0.429487 -1.245513
v -0.141731 0.214744 -1.309936
v -0.080992 0.154005 -1.309936
v -0.141731 0.128846 -1.309936
v -0.055833 0.214744 -1.309936
v -0.080992 0.275482 -1.309936
v -0.141731 0.300641 -1.309936
v -0.202469 0.275482 -1.309936
v -0.227628 0.214744 -1.309936
v -0.202469 0.154005 -1.309936
v -0.080992 0.154005 -1.181090
v -0.141731 0.128846 -1.181090
v -0.055833 0.214744 -1.181090
v -0.080992 0.275482 -1.181090
v -0.141731 0.300641 -1.181090
v -0.202469 0.275482 -1.181090
v -0.227628 0.214744 -1.181090
v -0.202469 0.154005 -1.181090
v -0.141731 0.214744 -1.181090
v 0.141731 0.214744 -1.309936
v 0.202469 0.154005 -1.309936
v 0.141731 0.128846 -1.309936
v 0.227628 0.214744 -1.309936
v 0.202469 0.275482 -1.309936
v 0.141731 0.300641 -1.309936
v 0.080992 0.275482 -1.309936
v 0.055833 0.214744 -1.309936
v 0.080992 0.154005 -1.309936
v 0.202469 0.154005 -1.181090
v 0.141731 0.128846 -1.181090
v 0.227628 0.214744 -1.181090
v 0.202469 0.275482 -1.181090
v 0.141731 0.300641 -1.181090
v 0.080992 0.275482 -1.181090
v 0.055833 0.214744 -1.181090
v 0.080992 0.154005 -1.181090
v 0.141731 0.214744 -1.181090
v 0.000000 0.400282 -0.237077
v 0.060587 0.400282 -0.256763
v 0.055975 0.439728 -0.263111
v 0.000000 0.439728 -0.244923
v 0.098032 0.400282 -0.308301
v 0.090570 0.439728 -0.310726
v 0.098032 0.400282 -0.372006
v 0.090570 0.439728 -0.369582
v 0.060587 0.400282 -0.423545
v 0.055975 0.439728 -0.417197
v 0.000000 0.400282 -0.443231
v 0.000000 0.439728 -0.435385
v -0.060587 0.400282 -0.423545
v -0.055975 0.439728 -0.417197
v -0.098032 0.400282 -0.372006
v -0.090570 0.439728 -0.369582
v -0.098032 0.400282 -0.308301
v -0.090570 0.439728 -0.310726
v -0.060587 0.400282 -0.256763
v -0.055975 0.439728 -0.263111
v 0.042842 0.473168 -0.281188
v 0.000000 0.473168 -0.267267
v 0.069319 0.473168 -0.317631
v 0.069319 0.473168 -0.362677
v 0.042842 0.473168 -0.399120
v 0.000000 0.473168 -0.413040
v -0.042842 0.473168 -0.399120
v -0.069319 0.473168 -0.362677
v -0.069319 0.473168 -0.317631
v -0.042842 0.473168 -0.281188
v 0.023186 0.495513 -0.308241
v 0.000000 0.495513 -0.300708
v 0.037515 0.495513 -0.327964
v 0.037515 0.495513 -0.352343
v 0.023186 0.495513 -0.372066
v 0.000000 0.495513 -0.379600
v -0.023186 0.495513 -0.372066
v -0.037515 0.495513 -0.352343
v -0.037515 0.495513 -0.327964
v -0.023186 0.495513 -0.308241
v 0.000000 0.503359 -0.340154
v -0.725961 0.203705 -0.326410
v -0.393976 0.136409 -0.111667
v -0.272712 0.111827 -0.755897
v -0.746439 0.102683 -0.326410
v -0.293190 0.010805 -0.755897
v -0.414454 0.035386 -0.111667
v -0.725961 0.203705 -0.841795
v -0.746439 0.102683 -0.841795
v -1.328306 0.325807 -1.193974
v -1.348784 0.224784 -1.193974
v -1.486153 0.357804 -0.893333
v -1.506631 0.256782 -0.893333
v 0.725961 0.203705 -0.326410
v 0.272712 0.111827 -0.755897
v 0.393976 0.136409 -0.111667
v 0.746439 0.102683 -0.326410
v 0.414454 0.035386 -0.111667
v 0.293190 0.010805 -0.755897
v 0.725961 0.203705 -0.841795
v 0.746439 0.102683 -0.841795
v 1.328306 0.325807 -1.193974
v 1.348784 0.224784 -1.193974
v 1.486153 0.357804 -0.893333
v 1.506631 0.256782 -0.893333
v -0.764788 0.206098 -0.451473
v -0.630092 0.178794 -0.451473
v -0.621559 0.220886 -0.451473
v -0.756256 0.248191 -0.451473
v -0.630092 0.178794 -0.691986
v -0.764788 0.206098 -0.691986
v -0.756256 0.248191 -0.691986
v -0.621559 0.220886 -0.691986
v -1.016786 0.257181 -0.611799
v -0.882090 0.229876 -0.611799
v -0.873557 0.271969 -0.611799
v -1.008254 0.299273 -0.611799
v -0.882090 0.229876 -0.852312
v -1.016786 0.257181 -0.852312
v -1.008254 0.299273 -0.852312
v -0.873557 0.271969 -0.852312
v -1.268784 0.308263 -0.779433
v -1.134088 0.280959 -0.779433
v -1.125555 0.323051 -0.779433
v -1.260252 0.350356 -0.779433
v -1.134088 0.280959 -1.019946
v -1.268784 0.308263 -1.019946
v -1.260252 0.350356 -1.019946
v -1.125555 0.323051 -1.019946
v 0.630092 0.178794 -0.451473
v 0.764788 0.206098 -0.451473
v 0.756256 0.248191 -0.451473
v 0.621559 0.220886 -0.451473
v 0.764788 0.206098 -0.691986
v 0.630092 0.178794 -0.691986
v 0.621559 0.220886 -0.691986
v 0.756256 0.248191 -0.691986
v 0.882090 0.229876 -0.611799
v 1.016786 0.257181 -0.611799
v 1.008254 0.299273 -0.611799
v 0.873557 0.271969 -0.611799
v 1.016786 0.257181 -0.852312
v 0.882090 0.229876 -0.852312
v 0.873557 0.271969 -0.852312
v 1.008254 0.299273 -0.852312
v 1.134088 0.280959 -0.779433
v 1.268784 0.308263 -0.779433
v 1.260252 0.350356 -0.779433
v 1.125555 0.323051 -0.779433
v 1.268784 0.308263 -1.019946
v 1.134088 0.280959 -1.019946
v 1.125555 0.323051 -1.019946
v 1.260252 0.350356 -1.019946
v -1.536329 0.062084 -0.807436
v -1.288085 0.062084 -0.807436
v -1.288085 0.260679 -0.807436
v -1.536329 0.260679 -0.807436
v -1.307068 0.077271 -2.010000
v -1.517345 0.077271 -2.010000
v -1.517345 0.245492 -2.010000
v -1.307068 0.245492 -2.010000
v -1.448713 0.257758 -1.035923
v -1.375700 0.257758 -1.035923
v -1.375700 0.292804 -1.035923
v -1.448713 0.292804 -1.035923
v -1.375700 0.257758 -1.781513
v -1.448713 0.257758 -1.781513
v -1.448713 0.292804 -1.781513
v -1.375700 0.292804 -1.781513
v -1.492521 0.095670 -1.838721
v -1.331893 0.095670 -1.838721
v -1.331893 0.227093 -1.838721
v -1.492521 0.227093 -1.838721
v -1.331893 0.095670 -1.873767
v -1.492521 0.095670 -1.873767
v -1.492521 0.227093 -1.873767
v -1.331893 0.227093 -1.873767
v 1.288085 0.062084 -0.807436
v 1.536329 0.062084 -0.807436
v 1.536329 0.260679 -0.807436
v 1.288085 0.260679 -0.807436
v 1.517345 0.077271 -2.010000
v 1.307068 0.077271 -2.010000
v 1.307068 0.245492 -2.010000
v 1.517345 0.245492 -2.010000
v 1.375700 0.257758 -1.035923
v 1.448713 0.257758 -1.035923
v 1.448713 0.292804 -1.035923
v 1.375700 0.292804 -1.035923
v 1.448713 0.257758 -1.781513
v 1.375700 0.257758 -1.781513
v 1.375700 0.292804 -1.781513
v 1.448713 0.292804 -1.781513
v 1.331893 0.095670 -1.838721
v 1.492521 0.095670 -1.838721
v 1.492521 0.227093 -1.838721
v 1.331893 0.227093 -1.838721
v 1.492521 0.095670 -1.873767
v 1.331893 0.095670 -1.873767
v 1.331893 0.227093 -1.873767
v 1.492521 0.227093 -1.873767
v -1.412207 0.044561 -0.818173
v -1.343541 0.066872 -0.818173
v -1.352741 0.079533 -0.759763
v -1.412207 0.060212 -0.759763
v -1.301104 0.125282 -0.818173
v -1.315989 0.130118 -0.759763
v -1.301104 0.197481 -0.818173
v -1.315989 0.192644 -0.759763
v -1.343541 0.255891 -0.818173
v -1.352741 0.243229 -0.759763
v -1.412207 0.278202 -0.818173
v -1.412207 0.262551 -0.759763
v -1.480872 0.255891 -0.818173
v -1.471673 0.243229 -0.759763
v -1.523310 0.197481 -0.818173
v -1.508425 0.192644 -0.759763
v -1.523310 0.125282 -0.818173
v -1.508425 0.130118 -0.759763
v -1.480872 0.066872 -0.818173
v -1.471673 0.079533 -0.759763
v -1.377874 0.114126 -0.717004
v -1.412207 0.102971 -0.717004
v -1.356655 0.143332 -0.717004
v -1.356655 0.179431 -0.717004
v -1.377874 0.208636 -0.717004
v -1.412207 0.219792 -0.717004
v -1.446540 0.208636 -0.717004
v -1.467758 0.179431 -0.717004
v -1.467758 0.143332 -0.717004
v -1.446540 0.114126 -0.717004
v -1.412207 0.161381 -0.701353
v -1.412207 0.118433 -0.850385
v -1.355717 0.085818 -0.850385
v -1.412207 0.053204 -0.850385
v -1.355717 0.151047 -0.850385
v -1.412207 0.183661 -0.850385
v -1.468696 0.151047 -0.850385
v -1.468696 0.085818 -0.850385
v -1.370363 0.094274 -0.120256
v -1.412207 0.070115 -0.120256
v -1.370363 0.142591 -0.120256
v -1.412207 0.166750 -0.120256
v -1.454051 0.142591 -0.120256
v -1.454051 0.094274 -0.120256
v -1.378732 0.099106 0.008590
v -1.412207 0.079779 0.008590
v -1.378732 0.137759 0.008590
v -1.412207 0.157086 0.008590
v -1.445682 0.137759 0.008590
v -1.445682 0.099106 0.008590
v 1.412207 0.044561 -0.818173
v 1.480872 0.066872 -0.818173
v 1.471673 0.079533 -0.759763
v 1.412207 0.060212 -0.759763
v 1.523310 0.125282 -0.818173
v 1.508425 0.130118 -0.759763
v 1.523310 0.197481 -0.818173
v 1.508425 0.192644 -0.759763
v 1.480872 0.255891 -0.818173
v 1.471673 0.243229 -0.759763
v 1.412207 0.278202 -0.818173
v 1.412207 0.262551 -0.759763
v 1.343541 0.255891 -0.818173
v 1.352741 0.243229 -0.759763
v 1.301104 0.197481 -0.818173
v 1.315989 0.192644 -0.759763
v 1.301104 0.125282 -0.818173
v 1.315989 0.130118 -0.759763
v 1.343541 0.066872 -0.818173
v 1.352741 0.079533 -0.759763
v 1.446540 0.114126 -0.717004
v 1.412207 0.102971 -0.717004
v 1.467758 0.143332 -0.717004
v 1.467758 0.179431 -0.717004
v 1.446540 0.208636 -0.717004
v 1.412207 0.219792 -0.717004
v 1.377874 0.208636 -0.717004
v 1.356655 0.179431 -0.717004
v 1.356655 0.143332 -0.717004
v 1.377874 0.114126 -0.717004
v 1.412207 0.161381 -0.701353
v 1.412207 0.118433 -0.850385
v 1.468696 0.085818 -0.850385
v 1.412207 0.053204 -0.850385
v 1.468696 0.151047 -0.850385
v 1.412207 0.183661 -0.850385
v 1.355717 0.151047 -0.850385
v 1.355717 0.085818 -0.850385
v 1.454051 0.094274 -0.120256
v 1.412207 0.070115 -0.120256
v 1.454051 0.142591 -0.120256
v 1.412207 0.166750 -0.120256
v 1.370363 0.142591 -0.120256
v 1.370363 0.094274 -0.120256
v 1.445682 0.099106 0.008590
v 1.412207 0.079779 0.008590
v 1.445682 0.137759 0.008590
v 1.412207 0.157086 0.008590
v 1.378732 0.137759 0.008590
v 1.378732 0.099106 0.008590
vt 0.478125 0.392188
vt 0.553125 0.392188
vt 0.553125 0.467187
vt 0.478125 0.467187
vt 0.195312 0.382812
vt 0.007812 0.382812
vt 0.007812 0.476562
vt 0.195312 0.476562
vt 0.025000 0.656250
vt 0.162500 0.656250
vt 0.179688 0.484375
vt 0.007812 0.484375
vt 0.007812 0.382812
vt 0.195312 0.392188
vt 0.195312 0.467187
vt 0.007812 0.476562
vt 0.718750 0.429688
vt 0.765625 0.429688
vt 0.718750 0.382812
vt 0.718750 0.476562
vt 0.671875 0.429688
vt 0.617188 0.382812
vt 0.664062 0.382812
vt 0.617188 0.476562
vt 0.570312 0.382812
vt 0.718750 0.429688
vt 0.765625 0.429688
vt 0.718750 0.382812
vt 0.718750 0.476562
vt 0.671875 0.429688
vt 0.617188 0.382812
vt 0.664062 0.382812
vt 0.617188 0.476562
vt 0.570312 0.382812
vt 0.718750 0.429688
vt 0.765625 0.406250
vt 0.718750 0.382812
vt 0.765625 0.453125
vt 0.718750 0.476562
vt 0.671875 0.453125
vt 0.671875 0.406250
vt 0.617188 0.382812
vt 0.664062 0.382812
vt 0.651910 0.462500
vt 0.617188 0.462500
vt 0.671875 0.406250
vt 0.671875 0.453125
vt 0.751563 0.447049
vt 0.751563 0.412326
vt 0.570312 0.382812
vt 0.582465 0.462500
vt 0.644965 0.476562
vt 0.617188 0.476562
vt 0.765625 0.443576
vt 0.765625 0.415799
vt 0.589410 0.476562
vt 0.718750 0.429688
vt 0.765625 0.406250
vt 0.718750 0.382812
vt 0.765625 0.453125
vt 0.718750 0.476562
vt 0.671875 0.453125
vt 0.671875 0.406250
vt 0.617188 0.382812
vt 0.664062 0.382812
vt 0.651910 0.462500
vt 0.617188 0.462500
vt 0.671875 0.406250
vt 0.671875 0.453125
vt 0.751563 0.447049
vt 0.751563 0.412326
vt 0.570312 0.382812
vt 0.582465 0.462500
vt 0.644965 0.476562
vt 0.617188 0.476562
vt 0.765625 0.443576
vt 0.765625 0.415799
vt 0.589410 0.476562
vt 0.187500 0.484375
vt 0.312500 0.484375
vt 0.312500 0.656250
vt 0.187500 0.656250
vt 0.312500 0.484375
vt 0.187500 0.484375
vt 0.187500 0.656250
vt 0.312500 0.656250
vt 0.320312 0.656250
vt 0.382812 0.656250
vt 0.382812 0.484375
vt 0.320312 0.484375
vt 0.187500 0.484375
vt 0.312500 0.484375
vt 0.312500 0.656250
vt 0.187500 0.656250
vt 0.212500 0.389844
vt 0.318750 0.389844
vt 0.318750 0.469531
vt 0.212500 0.469531
vt 0.460938 0.382812
vt 0.335938 0.382812
vt 0.335938 0.476562
vt 0.460938 0.476562
vt 0.358984 0.992188
vt 0.531641 0.992188
vt 0.546875 0.664062
vt 0.343750 0.664062
vt 0.109375 0.296875
vt 0.484375 0.302734
vt 0.484375 0.369141
vt 0.109375 0.375000
vt 0.054687 0.328125
vt 0.087833 0.294979
vt 0.054687 0.281250
vt 0.101562 0.328125
vt 0.087833 0.361271
vt 0.054687 0.375000
vt 0.021542 0.361271
vt 0.007812 0.328125
vt 0.021542 0.294979
vt 0.054687 0.281250
vt 0.087833 0.281250
vt 0.087833 0.375000
vt 0.054687 0.375000
vt 0.007812 0.294979
vt 0.007812 0.328125
vt 0.101562 0.328125
vt 0.101562 0.294979
vt 0.007812 0.361271
vt 0.101562 0.361271
vt 0.021542 0.281250
vt 0.021542 0.375000
vt 0.054687 0.281250
vt 0.087833 0.294979
vt 0.054687 0.328125
vt 0.101562 0.328125
vt 0.087833 0.361271
vt 0.054687 0.375000
vt 0.021542 0.361271
vt 0.007812 0.328125
vt 0.021542 0.294979
vt 0.054688 0.328125
vt 0.087833 0.294979
vt 0.054688 0.281250
vt 0.101562 0.328125
vt 0.087833 0.361271
vt 0.054688 0.375000
vt 0.021542 0.361271
vt 0.007812 0.328125
vt 0.021542 0.294979
vt 0.054688 0.281250
vt 0.087833 0.281250
vt 0.087833 0.375000
vt 0.054688 0.375000
vt 0.007812 0.294979
vt 0.007812 0.328125
vt 0.101562 0.328125
vt 0.101562 0.294979
vt 0.007812 0.361271
vt 0.101562 0.361271
vt 0.021542 0.281250
vt 0.021542 0.375000
vt 0.054688 0.281250
vt 0.087833 0.294979
vt 0.054688 0.328125
vt 0.101562 0.328125
vt 0.087833 0.361271
vt 0.054688 0.375000
vt 0.021542 0.361271
vt 0.007812 0.328125
vt 0.021542 0.294979
vt 0.718750 0.382812
vt 0.747720 0.382812
vt 0.745515 0.418689
vt 0.718750 0.418689
vt 0.756673 0.382812
vt 0.733235 0.382812
vt 0.732133 0.418689
vt 0.753786 0.418689
vt 0.704265 0.382812
vt 0.705367 0.418689
vt 0.680827 0.382812
vt 0.683714 0.418689
vt 0.747720 0.382812
vt 0.718750 0.382812
vt 0.718750 0.418689
vt 0.745515 0.418689
vt 0.689780 0.382812
vt 0.691985 0.418689
vt 0.689780 0.382812
vt 0.691985 0.418689
vt 0.739235 0.449104
vt 0.718750 0.449104
vt 0.728993 0.449104
vt 0.745565 0.449104
vt 0.708507 0.449104
vt 0.691935 0.449104
vt 0.718750 0.449104
vt 0.739235 0.449104
vt 0.698265 0.449104
vt 0.698265 0.449104
vt 0.617188 0.462833
vt 0.637673 0.456503
vt 0.628274 0.444200
vt 0.617188 0.447626
vt 0.650333 0.439930
vt 0.635126 0.435231
vt 0.650333 0.419445
vt 0.635126 0.424144
vt 0.637673 0.402872
vt 0.628274 0.415175
vt 0.617188 0.396542
vt 0.617188 0.411749
vt 0.596702 0.402872
vt 0.606101 0.415175
vt 0.584042 0.419445
vt 0.599249 0.424144
vt 0.584042 0.439930
vt 0.599249 0.435231
vt 0.596702 0.456503
vt 0.606101 0.444200
vt 0.617188 0.429688
vt 0.850295 0.948785
vt 0.942780 0.992188
vt 0.976562 0.861979
vt 0.844590 0.948785
vt 0.970858 0.861979
vt 0.937075 0.992188
vt 0.850295 0.844618
vt 0.844590 0.844618
vt 0.682491 0.773438
vt 0.676786 0.773438
vt 0.638517 0.834201
vt 0.632812 0.834201
vt 0.382812 0.112874
vt 0.159598 0.101562
vt 0.159598 0.110660
vt 0.382812 0.103776
vt 0.382812 0.110660
vt 0.238842 0.109837
vt 0.245066 0.118935
vt 0.376589 0.101562
vt 0.055784 0.120833
vt 0.062007 0.129931
vt 0.007812 0.129931
vt 0.111979 0.123715
vt 0.111979 0.132812
vt 0.007812 0.120833
vt 0.014036 0.132812
vt 0.238842 0.109837
vt 0.245066 0.118935
vt 0.007812 0.123715
vt 0.339736 0.103776
vt 0.345959 0.112874
vt 0.759080 0.948785
vt 0.632812 0.861979
vt 0.666595 0.992188
vt 0.764785 0.948785
vt 0.672300 0.992188
vt 0.638517 0.861979
vt 0.759080 0.844618
vt 0.764785 0.844618
vt 0.926884 0.773438
vt 0.932589 0.773438
vt 0.970858 0.834201
vt 0.976562 0.834201
vt 0.382812 0.112874
vt 0.159598 0.110660
vt 0.159598 0.101562
vt 0.382812 0.103776
vt 0.007812 0.110660
vt 0.145559 0.118935
vt 0.151783 0.109837
vt 0.014036 0.101562
vt 0.328618 0.129931
vt 0.334841 0.120833
vt 0.007812 0.129931
vt 0.111979 0.132812
vt 0.111979 0.123715
vt 0.007812 0.120833
vt 0.376589 0.132812
vt 0.145559 0.118935
vt 0.151783 0.109837
vt 0.382812 0.123715
vt 0.044666 0.112874
vt 0.050889 0.103776
vt 0.744878 0.397733
vt 0.764389 0.382812
vt 0.765625 0.405814
vt 0.746114 0.420734
vt 0.764389 0.382812
vt 0.744878 0.397733
vt 0.746114 0.420734
vt 0.765625 0.405814
vt 0.644552 0.476562
vt 0.664062 0.476562
vt 0.664062 0.436898
vt 0.644552 0.436898
vt 0.643316 0.436898
vt 0.662827 0.436898
vt 0.662827 0.476562
vt 0.643316 0.476562
vt 0.725961 0.397733
vt 0.765625 0.397733
vt 0.765625 0.420734
vt 0.725961 0.420734
vt 0.765625 0.382812
vt 0.725961 0.382812
vt 0.725961 0.405814
vt 0.765625 0.405814
vt 0.708377 0.425647
vt 0.727887 0.410727
vt 0.729123 0.433728
vt 0.709613 0.448648
vt 0.727887 0.410727
vt 0.708377 0.425647
vt 0.709613 0.448648
vt 0.729123 0.433728
vt 0.608050 0.450122
vt 0.627561 0.450122
vt 0.627561 0.410458
vt 0.608050 0.410458
vt 0.606814 0.410458
vt 0.626325 0.410458
vt 0.626325 0.450122
vt 0.606814 0.450122
vt 0.699521 0.425647
vt 0.739185 0.425647
vt 0.739185 0.448648
vt 0.699521 0.448648
vt 0.739185 0.410727
vt 0.699521 0.410727
vt 0.699521 0.433728
vt 0.739185 0.433728
vt 0.671875 0.453561
vt 0.691386 0.438641
vt 0.692622 0.461642
vt 0.673111 0.476562
vt 0.691386 0.438641
vt 0.671875 0.453561
vt 0.673111 0.476562
vt 0.692622 0.461642
vt 0.571548 0.422477
vt 0.591059 0.422477
vt 0.591059 0.382812
vt 0.571548 0.382812
vt 0.570312 0.382812
vt 0.589823 0.382812
vt 0.589823 0.422477
vt 0.570312 0.422477
vt 0.671875 0.453561
vt 0.711539 0.453561
vt 0.711539 0.476562
vt 0.671875 0.476562
vt 0.711539 0.438641
vt 0.671875 0.438641
vt 0.671875 0.461642
vt 0.711539 0.461642
vt 0.673111 0.382812
vt 0.692622 0.397733
vt 0.691386 0.420734
vt 0.671875 0.405814
vt 0.692622 0.397733
vt 0.673111 0.382812
vt 0.671875 0.405814
vt 0.691386 0.420734
vt 0.570312 0.476562
vt 0.589823 0.476562
vt 0.589823 0.436898
vt 0.570312 0.436898
vt 0.571548 0.436898
vt 0.591059 0.436898
vt 0.591059 0.476562
vt 0.571548 0.476562
vt 0.725961 0.382812
vt 0.765625 0.382812
vt 0.765625 0.405814
vt 0.725961 0.405814
vt 0.765625 0.397733
vt 0.725961 0.397733
vt 0.725961 0.420734
vt 0.765625 0.420734
vt 0.709613 0.410727
vt 0.729123 0.425647
vt 0.727887 0.448648
vt 0.708377 0.433728
vt 0.729123 0.425647
vt 0.709613 0.410727
vt 0.708377 0.433728
vt 0.727887 0.448648
vt 0.606814 0.450122
vt 0.626325 0.450122
vt 0.626325 0.410458
vt 0.606814 0.410458
vt 0.608050 0.410458
vt 0.627561 0.410458
vt 0.627561 0.450122
vt 0.608050 0.450122
vt 0.699521 0.410727
vt 0.739185 0.410727
vt 0.739185 0.433728
vt 0.699521 0.433728
vt 0.739185 0.425647
vt 0.699521 0.425647
vt 0.699521 0.448648
vt 0.739185 0.448648
vt 0.746114 0.438641
vt 0.765625 0.453561
vt 0.764389 0.476562
vt 0.744878 0.461642
vt 0.765625 0.453561
vt 0.746114 0.438641
vt 0.744878 0.461642
vt 0.764389 0.476562
vt 0.643316 0.422477
vt 0.662827 0.422477
vt 0.662827 0.382812
vt 0.643316 0.382812
vt 0.644552 0.382812
vt 0.664062 0.382812
vt 0.664062 0.422477
vt 0.644552 0.422477
vt 0.671875 0.438641
vt 0.711539 0.438641
vt 0.711539 0.461642
vt 0.671875 0.461642
vt 0.711539 0.453561
vt 0.671875 0.453561
vt 0.671875 0.476562
vt 0.711539 0.476562
vt 0.390625 0.195312
vt 0.484375 0.195312
vt 0.484375 0.262559
vt 0.390625 0.262559
vt 0.578768 0.200455
vt 0.499357 0.200455
vt 0.499357 0.257417
vt 0.578768 0.257417
vt 0.554688 0.992188
vt 0.625000 0.992188
vt 0.619623 0.664062
vt 0.560064 0.664062
vt 0.492188 0.302017
vt 0.867188 0.296875
vt 0.867188 0.364122
vt 0.492188 0.358979
vt 0.382812 0.195312
vt 0.354136 0.200455
vt 0.354136 0.257417
vt 0.382812 0.262559
vt 0.423713 0.261570
vt 0.451287 0.261570
vt 0.451287 0.273438
vt 0.423713 0.273438
vt 0.552849 0.261570
vt 0.525276 0.261570
vt 0.525276 0.273438
vt 0.552849 0.273438
vt 0.579504 0.929844
vt 0.600184 0.929844
vt 0.600184 0.726406
vt 0.579504 0.726406
vt 0.563438 0.363133
vt 0.795938 0.363133
vt 0.795938 0.375000
vt 0.563438 0.375000
vt 0.250460 0.261570
vt 0.250460 0.273438
vt 0.407169 0.206685
vt 0.467831 0.206685
vt 0.467831 0.251187
vt 0.407169 0.251187
vt 0.569393 0.206685
vt 0.508732 0.206685
vt 0.508732 0.251187
vt 0.569393 0.251187
vt 0.567096 0.710797
vt 0.612592 0.710797
vt 0.612592 0.701234
vt 0.567096 0.701234
vt 0.534670 0.308248
vt 0.545598 0.308248
vt 0.545598 0.352749
vt 0.534670 0.352749
vt 0.316636 0.206685
vt 0.316636 0.251187
vt 0.390625 0.195312
vt 0.484375 0.195312
vt 0.484375 0.262559
vt 0.390625 0.262559
vt 0.578768 0.200455
vt 0.499357 0.200455
vt 0.499357 0.257417
vt 0.578768 0.257417
vt 0.554688 0.992188
vt 0.625000 0.992188
vt 0.619623 0.664062
vt 0.560064 0.664062
vt 0.036489 0.200455
vt 0.007812 0.195312
vt 0.007812 0.262559
vt 0.036489 0.257417
vt 0.867188 0.296875
vt 0.492188 0.302017
vt 0.492188 0.358979
vt 0.867188 0.364122
vt 0.423713 0.261570
vt 0.451287 0.261570
vt 0.451287 0.273438
vt 0.423713 0.273438
vt 0.552849 0.261570
vt 0.525276 0.261570
vt 0.525276 0.273438
vt 0.552849 0.273438
vt 0.579504 0.929844
vt 0.600184 0.929844
vt 0.600184 0.726406
vt 0.579504 0.726406
vt 0.140165 0.261570
vt 0.140165 0.273438
vt 0.795938 0.363133
vt 0.563438 0.363133
vt 0.563438 0.375000
vt 0.795938 0.375000
vt 0.407169 0.206685
vt 0.467831 0.206685
vt 0.467831 0.251187
vt 0.407169 0.251187
vt 0.569393 0.206685
vt 0.508732 0.206685
vt 0.508732 0.251187
vt 0.569393 0.251187
vt 0.567096 0.710797
vt 0.612592 0.710797
vt 0.612592 0.701234
vt 0.567096 0.701234
vt 0.073989 0.206685
vt 0.073989 0.251187
vt 0.545598 0.308248
vt 0.534670 0.308248
vt 0.534670 0.352749
vt 0.545598 0.352749
vt 0.054688 0.281250
vt 0.083658 0.281250
vt 0.079777 0.328125
vt 0.054688 0.328125
vt 0.007812 0.290202
vt 0.007812 0.313640
vt 0.054688 0.315580
vt 0.054688 0.295283
vt 0.007812 0.342610
vt 0.054688 0.340670
vt 0.007812 0.366048
vt 0.054688 0.360967
vt 0.025717 0.281250
vt 0.029598 0.328125
vt 0.054688 0.287530
vt 0.079777 0.295283
vt 0.069173 0.309164
vt 0.054688 0.304688
vt 0.095282 0.315580
vt 0.078125 0.320882
vt 0.089002 0.335368
vt 0.089002 0.320882
vt 0.095282 0.340670
vt 0.079777 0.360967
vt 0.069173 0.347086
vt 0.078125 0.335368
vt 0.054688 0.368720
vt 0.054688 0.351562
vt 0.029598 0.360967
vt 0.040202 0.347086
vt 0.014093 0.340670
vt 0.031250 0.335368
vt 0.014093 0.315580
vt 0.029598 0.295283
vt 0.040202 0.309164
vt 0.031250 0.320882
vt 0.054688 0.328125
vt 0.718750 0.429688
vt 0.765625 0.406250
vt 0.718750 0.382812
vt 0.765625 0.453125
vt 0.718750 0.476562
vt 0.671875 0.453125
vt 0.671875 0.406250
vt 0.617188 0.382812
vt 0.664062 0.382812
vt 0.651910 0.462500
vt 0.617188 0.462500
vt 0.671875 0.406250
vt 0.671875 0.453125
vt 0.751563 0.447049
vt 0.751563 0.412326
vt 0.570312 0.382812
vt 0.582465 0.462500
vt 0.644965 0.476562
vt 0.617188 0.476562
vt 0.765625 0.443576
vt 0.765625 0.415799
vt 0.589410 0.476562
vt 0.054687 0.281250
vt 0.083658 0.281250
vt 0.079777 0.328125
vt 0.054687 0.328125
vt 0.007812 0.290202
vt 0.007812 0.313640
vt 0.054688 0.315580
vt 0.054688 0.295283
vt 0.007812 0.342610
vt 0.054688 0.340670
vt 0.007812 0.366048
vt 0.054688 0.360967
vt 0.025717 0.281250
vt 0.029598 0.328125
vt 0.054687 0.287530
vt 0.079777 0.295283
vt 0.069173 0.309164
vt 0.054687 0.304688
vt 0.095282 0.315580
vt 0.078125 0.320882
vt 0.089002 0.335368
vt 0.089002 0.320882
vt 0.095282 0.340670
vt 0.079777 0.360967
vt 0.069173 0.347086
vt 0.078125 0.335368
vt 0.054687 0.368720
vt 0.054687 0.351562
vt 0.054687 0.362440
vt 0.069173 0.362440
vt 0.029598 0.360967
vt 0.040202 0.347086
vt 0.014093 0.340670
vt 0.031250 0.335368
vt 0.014093 0.315580
vt 0.029598 0.295283
vt 0.040202 0.309164
vt 0.031250 0.320882
vt 0.054687 0.328125
vt 0.718750 0.429688
vt 0.765625 0.406250
vt 0.718750 0.382812
vt 0.765625 0.453125
vt 0.718750 0.476562
vt 0.671875 0.453125
vt 0.671875 0.406250
vt 0.617188 0.382812
vt 0.664062 0.382812
vt 0.651910 0.462500
vt 0.617188 0.462500
vt 0.671875 0.406250
vt 0.671875 0.453125
vt 0.751563 0.447049
vt 0.751563 0.412326
vt 0.570312 0.382812
vt 0.582465 0.462500
vt 0.644965 0.476562
vt 0.617188 0.476562
vt 0.765625 0.443576
vt 0.765625 0.415799
vt 0.589410 0.476562
vn 0.000000 0.000000 1.000000
vn 0.000000 0.000000 -1.000000
vn -0.000000 0.999201 0.039968
vn 0.000000 -0.999201 0.039968
vn -0.977323 0.000000 0.211753
vn 0.977323 0.000000 0.211753
vn 0.000000 0.000000 -1.000000
vn 0.705086 -0.705086 0.075545
vn 0.705086 0.705086 0.075545
vn -0.705086 0.705086 0.075545
vn -0.705086 -0.705086 0.075545
vn 0.000000 0.000000 -1.000000
vn 0.705086 -0.705086 0.075545
vn 0.705086 0.705086 0.075545
vn -0.705086 0.705086 0.075545
vn -0.705086 -0.705086 0.075545
vn 0.000000 0.000000 -1.000000
vn 0.499682 -0.865475 0.035637
vn 0.999365 -0.000000 0.035637
vn 0.499682 0.865475 0.035637
vn -0.499682 0.865475 0.035637
vn -0.999365 0.000000 0.035637
vn -0.499682 -0.865475 0.035637
vn 0.496700 -0.860309 0.114708
vn 0.993399 -0.000000 0.114708
vn 0.496700 0.860309 0.114708
vn -0.496700 0.860309 0.114708
vn -0.993399 0.000000 0.114708
vn -0.496700 -0.860309 0.114708
vn 0.000000 0.000000 -1.000000
vn 0.499682 -0.865475 0.035637
vn 0.999365 -0.000000 0.035637
vn 0.499682 0.865475 0.035637
vn -0.499682 0.865475 0.035637
vn -0.999365 0.000000 0.035637
vn -0.499682 -0.865475 0.035637
vn 0.496700 -0.860309 0.114708
vn 0.993399 -0.000000 0.114708
vn 0.496700 0.860309 0.114708
vn -0.496700 0.860309 0.114708
vn -0.993399 0.000000 0.114708
vn -0.496700 -0.860309 0.114708
vn 0.000000 0.000000 1.000000
vn 0.000000 0.000000 -1.000000
vn -0.000000 1.000000 0.000000
vn 0.000000 -1.000000 0.000000
vn -1.000000 0.000000 0.000000
vn 1.000000 0.000000 0.000000
vn 0.000000 0.000000 1.000000
vn 0.000000 0.000000 -1.000000
vn -0.000000 0.999757 0.022053
vn 0.000000 -0.999757 0.022053
vn -0.998825 0.000000 0.048472
vn 0.998825 0.000000 0.048472
vn 0.000000 0.000000 -1.000000
vn 0.382683 -0.923880 0.000000
vn 0.923880 -0.382683 0.000000
vn 0.923880 0.382683 0.000000
vn 0.382683 0.923880 0.000000
vn -0.382683 0.923880 0.000000
vn -0.923880 0.382683 -0.000000
vn -0.923880 -0.382683 0.000000
vn -0.382683 -0.923880 0.000000
vn 0.000000 0.000000 1.000000
vn 0.000000 0.000000 -1.000000
vn 0.382683 -0.923880 0.000000
vn 0.923880 -0.382683 0.000000
vn 0.923880 0.382683 0.000000
vn 0.382683 0.923880 0.000000
vn -0.382683 0.923880 0.000000
vn -0.923880 0.382683 -0.000000
vn -0.923880 -0.382683 0.000000
vn -0.382683 -0.923880 0.000000
vn 0.000000 0.000000 1.000000
vn 0.303632 0.185880 0.934482
vn 0.794918 0.185880 0.577542
vn 0.982572 0.185880 0.000000
vn 0.794918 0.185880 -0.577542
vn 0.303632 0.185880 -0.934482
vn -0.303632 0.185880 -0.934482
vn -0.794918 0.185880 -0.577542
vn -0.982572 0.185880 -0.000000
vn -0.794918 0.185880 0.577542
vn -0.303632 0.185880 0.934482
vn 0.260811 0.536342 0.802692
vn 0.682811 0.536342 0.496091
vn 0.844001 0.536342 0.000000
vn 0.682811 0.536342 -0.496091
vn 0.260811 0.536342 -0.802692
vn -0.260811 0.536342 -0.802692
vn -0.682811 0.536342 -0.496091
vn -0.844001 0.536342 -0.000000
vn -0.682811 0.536342 0.496091
vn -0.260811 0.536342 0.802692
vn 0.177645 0.818245 0.546734
vn 0.465079 0.818245 0.337900
vn 0.574870 0.818245 0.000000
vn 0.465079 0.818245 -0.337900
vn 0.177645 0.818245 -0.546734
vn -0.177645 0.818245 -0.546734
vn -0.465079 0.818245 -0.337900
vn -0.574870 0.818245 0.000000
vn -0.465079 0.818245 0.337900
vn -0.177645 0.818245 0.546734
vn 0.063262 0.978821 0.194700
vn 0.165621 0.978821 0.120331
vn 0.204719 0.978821 0.000000
vn 0.165621 0.978821 -0.120331
vn 0.063262 0.978821 -0.194700
vn -0.063262 0.978821 -0.194700
vn -0.165621 0.978821 -0.120331
vn -0.204719 0.978821 0.000000
vn -0.165621 0.978821 0.120331
vn -0.063262 0.978821 0.194700
vn 0.198669 0.980067 0.000000
vn -0.198669 -0.980067 0.000000
vn 0.962476 -0.195104 0.188613
vn 0.178974 -0.036280 -0.983185
vn 0.487273 -0.098775 -0.867646
vn -0.863909 0.175123 -0.472221
vn -0.578321 0.117232 0.807342
vn -0.524754 0.106373 0.844582
vn -0.198669 0.980067 0.000000
vn 0.198669 -0.980067 0.000000
vn -0.962476 -0.195104 0.188613
vn -0.178974 -0.036280 -0.983185
vn -0.487273 -0.098775 -0.867646
vn 0.863909 0.175123 -0.472221
vn 0.578321 0.117232 0.807342
vn 0.524754 0.106373 0.844582
vn -0.000000 0.000000 1.000000
vn 0.000000 0.000000 -1.000000
vn 0.198669 0.980067 0.000000
vn -0.198669 -0.980067 0.000000
vn -0.980067 0.198669 0.000000
vn 0.980067 -0.198669 0.000000
vn 0.000000 0.000000 1.000000
vn -0.000000 0.000000 -1.000000
vn -0.198669 0.980067 0.000000
vn 0.198669 -0.980067 0.000000
vn -0.980067 -0.198669 0.000000
vn 0.980067 0.198669 0.000000
vn 0.000000 0.000000 1.000000
vn 0.000000 0.000000 -1.000000
vn 0.000000 0.999920 -0.012628
vn 0.000000 -0.999920 -0.012628
vn -0.999875 0.000000 -0.015784
vn 0.999875 0.000000 -0.015784
vn -0.000000 1.000000 0.000000
vn 0.000000 -1.000000 0.000000
vn -1.000000 0.000000 0.000000
vn 1.000000 0.000000 0.000000
vn 0.000000 0.000000 1.000000
vn 0.000000 0.000000 -1.000000
vn 0.000000 0.999920 -0.012628
vn 0.000000 -0.999920 -0.012628
vn -0.999875 0.000000 -0.015784
vn 0.999875 0.000000 -0.015784
vn -0.000000 1.000000 0.000000
vn 0.000000 -1.000000 0.000000
vn -1.000000 0.000000 0.000000
vn 1.000000 0.000000 0.000000
vn 0.299447 -0.921602 0.246943
vn 0.783962 -0.569582 0.246943
vn 0.969030 -0.000000 0.246943
vn 0.783962 0.569582 0.246943
vn 0.299447 0.921602 0.246943
vn -0.299447 0.921602 0.246943
vn -0.783962 0.569582 0.246943
vn -0.969030 0.000000 0.246943
vn -0.783962 -0.569582 0.246943
vn -0.299447 -0.921602 0.246943
vn 0.223919 -0.689152 0.689152
vn 0.586227 -0.425919 0.689152
vn 0.724617 -0.000000 0.689152
vn 0.586227 0.425919 0.689152
vn 0.223919 0.689152 0.689152
vn -0.223919 0.689152 0.689152
vn -0.586227 0.425919 0.689152
vn -0.724617 0.000000 0.689152
vn -0.586227 -0.425919 0.689152
vn -0.223919 -0.689152 0.689152
vn 0.083800 -0.257909 0.962528
vn 0.219390 -0.159396 0.962528
vn 0.271181 -0.000000 0.962528
vn 0.219390 0.159396 0.962528
vn 0.083800 0.257909 0.962528
vn -0.083800 0.257909 0.962528
vn -0.219390 0.159396 0.962528
vn -0.271181 0.000000 0.962528
vn -0.219390 -0.159396 0.962528
vn -0.083800 -0.257909 0.962528
vn 0.000000 0.000000 -1.000000
vn 0.499899 -0.865851 0.020055
vn 0.999799 -0.000000 0.020055
vn 0.499899 0.865851 0.020055
vn -0.499899 0.865851 0.020055
vn -0.999799 0.000000 0.020055
vn -0.499899 -0.865851 0.020055
vn 0.498949 -0.864204 0.064815
vn 0.997897 -0.000000 0.064815
vn 0.498949 0.864204 0.064815
vn -0.498949 0.864204 0.064815
vn -0.997897 0.000000 0.064815
vn -0.498949 -0.864204 0.064815
vn 0.299447 -0.921602 0.246943
vn 0.783962 -0.569582 0.246943
vn 0.969030 -0.000000 0.246943
vn 0.783962 0.569582 0.246943
vn 0.299447 0.921602 0.246943
vn -0.299447 0.921602 0.246943
vn -0.783962 0.569582 0.246943
vn -0.969030 0.000000 0.246943
vn -0.783962 -0.569582 0.246943
vn -0.299447 -0.921602 0.246943
vn 0.223919 -0.689152 0.689152
vn 0.586227 -0.425919 0.689152
vn 0.724617 -0.000000 0.689152
vn 0.586227 0.425919 0.689152
vn 0.223919 0.689152 0.689152
vn -0.223919 0.689152 0.689152
vn -0.586227 0.425919 0.689152
vn -0.724617 0.000000 0.689152
vn -0.586227 -0.425919 0.689152
vn -0.223919 -0.689152 0.689152
vn 0.083800 -0.257909 0.962528
vn 0.219390 -0.159396 0.962528
vn 0.271181 -0.000000 0.962528
vn 0.219390 0.159396 0.962528
vn 0.083800 0.257909 0.962528
vn -0.083800 0.257909 0.962528
vn -0.219390 0.159396 0.962528
vn -0.271181 0.000000 0.962528
vn -0.219390 -0.159396 0.962528
vn -0.083800 -0.257909 0.962528
vn 0.000000 0.000000 -1.000000
vn 0.499899 -0.865851 0.020055
vn 0.999799 -0.000000 0.020055
vn 0.499899 0.865851 0.020055
vn -0.499899 0.865851 0.020055
vn -0.999799 0.000000 0.020055
vn -0.499899 -0.865851 0.020055
vn 0.498949 -0.864204 0.064815
vn 0.997897 -0.000000 0.064815
vn 0.498949 0.864204 0.064815
vn -0.498949 0.864204 0.064815
vn -0.997897 0.000000 0.064815
vn -0.498949 -0.864204 0.064815
f 1/1/1 2/2/1 3/3/1
f 1/1/1 3/3/1 4/4/1
f 5/5/2 6/6/2 7/7/2
f 5/5/2 7/7/2 8/8/2
f 4/9/3 3/10/3 8/11/3
f 4/9/3 8/11/3 7/12/3
f 6/12/4 5/11/4 2/10/4
f 6/12/4 2/10/4 1/9/4
f 6/13/5 1/14/5 4/15/5
f 6/13/5 4/15/5 7/16/5
f 2/14/6 5/13/6 8/16/6
f 2/14/6 8/16/6 3/15/6
f 9/17/7 10/18/7 11/19/7
f 9/17/7 12/20/7 10/18/7
f 9/17/7 13/21/7 12/20/7
f 9/17/7 11/19/7 13/21/7
f 11/22/8 10/23/8 14/24/8
f 10/23/9 12/22/9 14/24/9
f 12/22/10 13/25/10 14/24/10
f 13/25/11 11/22/11 14/24/11
f 15/26/12 16/27/12 17/28/12
f 15/26/12 18/29/12 16/27/12
f 15/26/12 19/30/12 18/29/12
f 15/26/12 17/28/12 19/30/12
f 17/31/13 16/32/13 20/33/13
f 16/32/14 18/31/14 20/33/14
f 18/31/15 19/34/15 20/33/15
f 19/34/16 17/31/16 20/33/16
f 21/35/17 22/36/17 23/37/17
f 21/35/17 24/38/17 22/36/17
f 21/35/17 25/39/17 24/38/17
f 21/35/17 26/40/17 25/39/17
f 21/35/17 27/41/17 26/40/17
f 21/35/17 23/37/17 27/41/17
f 23/42/18 22/43/18 28/44/18
f 23/42/18 28/44/18 29/45/18
f 22/46/19 24/47/19 30/48/19
f 22/46/19 30/48/19 28/49/19
f 24/43/20 25/42/20 31/45/20
f 24/43/20 31/45/20 30/44/20
f 25/42/21 26/50/21 32/51/21
f 25/42/21 32/51/21 31/45/21
f 26/47/22 27/46/22 33/49/22
f 26/47/22 33/49/22 32/48/22
f 27/50/23 23/42/23 29/45/23
f 27/50/23 29/45/23 33/51/23
f 29/45/24 28/44/24 34/52/24
f 29/45/24 34/52/24 35/53/24
f 28/49/25 30/48/25 36/54/25
f 28/49/25 36/54/25 34/55/25
f 30/44/26 31/45/26 37/53/26
f 30/44/26 37/53/26 36/52/26
f 31/45/27 32/51/27 38/56/27
f 31/45/27 38/56/27 37/53/27
f 32/48/28 33/49/28 39/55/28
f 32/48/28 39/55/28 38/54/28
f 33/51/29 29/45/29 35/53/29
f 33/51/29 35/53/29 39/56/29
f 40/57/30 41/58/30 42/59/30
f 40/57/30 43/60/30 41/58/30
f 40/57/30 44/61/30 43/60/30
f 40/57/30 45/62/30 44/61/30
f 40/57/30 46/63/30 45/62/30
f 40/57/30 42/59/30 46/63/30
f 42/64/31 41/65/31 47/66/31
f 42/64/31 47/66/31 48/67/31
f 41/68/32 43/69/32 49/70/32
f 41/68/32 49/70/32 47/71/32
f 43/65/33 44/64/33 50/67/33
f 43/65/33 50/67/33 49/66/33
f 44/64/34 45/72/34 51/73/34
f 44/64/34 51/73/34 50/67/34
f 45/69/35 46/68/35 52/71/35
f 45/69/35 52/71/35 51/70/35
f 46/72/36 42/64/36 48/67/36
f 46/72/36 48/67/36 52/73/36
f 48/67/37 47/66/37 53/74/37
f 48/67/37 53/74/37 54/75/37
f 47/71/38 49/70/38 55/76/38
f 47/71/38 55/76/38 53/77/38
f 49/66/39 50/67/39 56/75/39
f 49/66/39 56/75/39 55/74/39
f 50/67/40 51/73/40 57/78/40
f 50/67/40 57/78/40 56/75/40
f 51/70/41 52/71/41 58/77/41
f 51/70/41 58/77/41 57/76/41
f 52/73/42 48/67/42 54/75/42
f 52/73/42 54/75/42 58/78/42
f 59/79/43 60/80/43 61/81/43
f 59/79/43 61/81/43 62/82/43
f 63/83/44 64/84/44 65/85/44
f 63/83/44 65/85/44 66/86/44
f 62/87/45 61/88/45 66/89/45
f 62/87/45 66/89/45 65/90/45
f 64/90/46 63/89/46 60/88/46
f 64/90/46 60/88/46 59/87/46
f 64/91/47 59/92/47 62/93/47
f 64/91/47 62/93/47 65/94/47
f 60/92/48 63/91/48 66/94/48
f 60/92/48 66/94/48 61/93/48
f 67/95/49 68/96/49 69/97/49
f 67/95/49 69/97/49 70/98/49
f 71/99/50 72/100/50 73/101/50
f 71/99/50 73/101/50 74/102/50
f 70/103/51 69/104/51 74/105/51
f 70/103/51 74/105/51 73/106/51
f 72/106/52 71/105/52 68/104/52
f 72/106/52 68/104/52 67/103/52
f 72/107/53 67/108/53 70/109/53
f 72/107/53 70/109/53 73/110/53
f 68/108/54 71/107/54 74/110/54
f 68/108/54 74/110/54 69/109/54
f 75/111/55 76/112/55 77/113/55
f 75/111/55 78/114/55 76/112/55
f 75/111/55 79/115/55 78/114/55
f 75/111/55 80/116/55 79/115/55
f 75/111/55 81/117/55 80/116/55
f 75/111/55 82/118/55 81/117/55
f 75/111/55 83/119/55 82/118/55
f 75/111/55 77/113/55 83/119/55
f 77/120/56 76/121/56 84/122/56
f 77/120/56 84/122/56 85/123/56
f 76/124/57 78/125/57 86/126/57
f 76/124/57 86/126/57 84/127/57
f 78/125/58 79/128/58 87/129/58
f 78/125/58 87/129/58 86/126/58
f 79/121/59 80/120/59 88/123/59
f 79/121/59 88/123/59 87/122/59
f 80/120/60 81/130/60 89/131/60
f 80/120/60 89/131/60 88/123/60
f 81/128/61 82/125/61 90/126/61
f 81/128/61 90/126/61 89/129/61
f 82/125/62 83/124/62 91/127/62
f 82/125/62 91/127/62 90/126/62
f 83/130/63 77/120/63 85/123/63
f 83/130/63 85/123/63 91/131/63
f 85/132/64 84/133/64 92/134/64
f 84/133/64 86/135/64 92/134/64
f 86/135/64 87/136/64 92/134/64
f 87/136/64 88/137/64 92/134/64
f 88/137/64 89/138/64 92/134/64
f 89/138/64 90/139/64 92/134/64
f 90/139/64 91/140/64 92/134/64
f 91/140/64 85/132/64 92/134/64
f 93/141/65 94/142/65 95/143/65
f 93/141/65 96/144/65 94/142/65
f 93/141/65 97/145/65 96/144/65
f 93/141/65 98/146/65 97/145/65
f 93/141/65 99/147/65 98/146/65
f 93/141/65 100/148/65 99/147/65
f 93/141/65 101/149/65 100/148/65
f 93/141/65 95/143/65 101/149/65
f 95/150/66 94/151/66 102/152/66
f 95/150/66 102/152/66 103/153/66
f 94/154/67 96/155/67 104/156/67
f 94/154/67 104/156/67 102/157/67
f 96/155/68 97/158/68 105/159/68
f 96/155/68 105/159/68 104/156/68
f 97/151/69 98/150/69 106/153/69
f 97/151/69 106/153/69 105/152/69
f 98/150/70 99/160/70 107/161/70
f 98/150/70 107/161/70 106/153/70
f 99/158/71 100/155/71 108/156/71
f 99/158/71 108/156/71 107/159/71
f 100/155/72 101/154/72 109/157/72
f 100/155/72 109/157/72 108/156/72
f 101/160/73 95/150/73 103/153/73
f 101/160/73 103/153/73 109/161/73
f 103/162/74 102/163/74 110/164/74
f 102/163/74 104/165/74 110/164/74
f 104/165/74 105/166/74 110/164/74
f 105/166/74 106/167/74 110/164/74
f 106/167/74 107/168/74 110/164/74
f 107/168/74 108/169/74 110/164/74
f 108/169/74 109/170/74 110/164/74
f 109/170/74 103/162/74 110/164/74
f 111/171/75 112/172/75 113/173/75
f 111/171/75 113/173/75 114/174/75
f 112/175/76 115/176/76 116/177/76
f 112/175/76 116/177/76 113/178/76
f 115/176/77 117/179/77 118/180/77
f 115/176/77 118/180/77 116/177/77
f 117/179/78 119/181/78 120/182/78
f 117/179/78 120/182/78 118/180/78
f 119/183/79 121/184/79 122/185/79
f 119/183/79 122/185/79 120/186/79
f 121/184/80 123/187/80 124/188/80
f 121/184/80 124/188/80 122/185/80
f 123/181/81 125/179/81 126/180/81
f 123/181/81 126/180/81 124/182/81
f 125/179/82 127/176/82 128/177/82
f 125/179/82 128/177/82 126/180/82
f 127/176/83 129/175/83 130/178/83
f 127/176/83 130/178/83 128/177/83
f 129/189/84 111/171/84 114/174/84
f 129/189/84 114/174/84 130/190/84
f 114/174/85 113/173/85 131/191/85
f 114/174/85 131/191/85 132/192/85
f 113/178/86 116/177/86 133/193/86
f 113/178/86 133/193/86 131/194/86
f 116/177/87 118/180/87 134/195/87
f 116/177/87 134/195/87 133/193/87
f 118/180/88 120/182/88 135/196/88
f 118/180/88 135/196/88 134/195/88
f 120/186/89 122/185/89 136/197/89
f 120/186/89 136/197/89 135/198/89
f 122/185/90 124/188/90 137/199/90
f 122/185/90 137/199/90 136/197/90
f 124/182/91 126/180/91 138/195/91
f 124/182/91 138/195/91 137/196/91
f 126/180/92 128/177/92 139/193/92
f 126/180/92 139/193/92 138/195/92
f 128/177/93 130/178/93 140/194/93
f 128/177/93 140/194/93 139/193/93
f 130/190/94 114/174/94 132/192/94
f 130/190/94 132/192/94 140/200/94
f 132/201/95 131/202/95 141/203/95
f 132/201/95 141/203/95 142/204/95
f 131/202/96 133/205/96 143/206/96
f 131/202/96 143/206/96 141/203/96
f 133/205/97 134/207/97 144/208/97
f 133/205/97 144/208/97 143/206/97
f 134/207/98 135/209/98 145/210/98
f 134/207/98 145/210/98 144/208/98
f 135/209/99 136/211/99 146/212/99
f 135/209/99 146/212/99 145/210/99
f 136/211/100 137/213/100 147/214/100
f 136/211/100 147/214/100 146/212/100
f 137/213/101 138/215/101 148/216/101
f 137/213/101 148/216/101 147/214/101
f 138/215/102 139/217/102 149/218/102
f 138/215/102 149/218/102 148/216/102
f 139/217/103 140/219/103 150/220/103
f 139/217/103 150/220/103 149/218/103
f 140/219/104 132/201/104 142/204/104
f 140/219/104 142/204/104 150/220/104
f 142/204/105 141/203/105 151/221/105
f 141/203/106 143/206/106 151/221/106
f 143/206/107 144/208/107 151/221/107
f 144/208/108 145/210/108 151/221/108
f 145/210/109 146/212/109 151/221/109
f 146/212/110 147/214/110 151/221/110
f 147/214/111 148/216/111 151/221/111
f 148/216/112 149/218/112 151/221/112
f 149/218/113 150/220/113 151/221/113
f 150/220/114 142/204/114 151/221/114
f 152/222/115 153/223/115 154/224/115
f 155/225/116 156/226/116 157/227/116
f 152/222/115 154/224/115 158/228/115
f 155/225/116 159/229/116 156/226/116
f 152/222/115 158/228/115 160/230/115
f 155/225/116 161/231/116 159/229/116
f 160/230/115 162/232/115 152/222/115
f 161/231/116 155/225/116 163/233/116
f 153/234/117 156/235/117 154/236/117
f 153/234/117 157/237/117 156/235/117
f 154/238/118 159/239/118 158/240/118
f 154/238/118 156/241/118 159/239/118
f 158/240/119 161/242/119 160/243/119
f 158/240/119 159/239/119 161/242/119
f 160/244/120 163/245/120 162/246/120
f 160/244/120 161/247/120 163/245/120
f 162/248/121 155/249/121 152/250/121
f 162/248/121 163/251/121 155/249/121
f 152/250/122 157/252/122 153/253/122
f 152/250/122 155/249/122 157/252/122
f 164/254/123 165/255/123 166/256/123
f 167/257/124 168/258/124 169/259/124
f 164/254/123 170/260/123 165/255/123
f 167/257/124 169/259/124 171/261/124
f 164/254/123 172/262/123 170/260/123
f 167/257/124 171/261/124 173/263/124
f 172/262/123 164/254/123 174/264/123
f 173/263/124 175/265/124 167/257/124
f 166/266/125 165/267/125 169/268/125
f 166/266/125 169/268/125 168/269/125
f 165/270/126 170/271/126 171/272/126
f 165/270/126 171/272/126 169/273/126
f 170/271/127 172/274/127 173/275/127
f 170/271/127 173/275/127 171/272/127
f 172/276/128 174/277/128 175/278/128
f 172/276/128 175/278/128 173/279/128
f 174/280/129 164/281/129 167/282/129
f 174/280/129 167/282/129 175/283/129
f 164/281/130 166/284/130 168/285/130
f 164/281/130 168/285/130 167/282/130
f 176/286/131 177/287/131 178/288/131
f 176/286/131 178/288/131 179/289/131
f 180/290/132 181/291/132 182/292/132
f 180/290/132 182/292/132 183/293/132
f 179/294/133 178/295/133 183/296/133
f 179/294/133 183/296/133 182/297/133
f 181/298/134 180/299/134 177/300/134
f 181/298/134 177/300/134 176/301/134
f 181/302/135 176/303/135 179/304/135
f 181/302/135 179/304/135 182/305/135
f 177/306/136 180/307/136 183/308/136
f 177/306/136 183/308/136 178/309/136
f 184/310/131 185/311/131 186/312/131
f 184/310/131 186/312/131 187/313/131
f 188/314/132 189/315/132 190/316/132
f 188/314/132 190/316/132 191/317/132
f 187/318/133 186/319/133 191/320/133
f 187/318/133 191/320/133 190/321/133
f 189/322/134 188/323/134 185/324/134
f 189/322/134 185/324/134 184/325/134
f 189/326/135 184/327/135 187/328/135
f 189/326/135 187/328/135 190/329/135
f 185/330/136 188/331/136 191/332/136
f 185/330/136 191/332/136 186/333/136
f 192/334/131 193/335/131 194/336/131
f 192/334/131 194/336/131 195/337/131
f 196/338/132 197/339/132 198/340/132
f 196/338/132 198/340/132 199/341/132
f 195/342/133 194/343/133 199/344/133
f 195/342/133 199/344/133 198/345/133
f 197/346/134 196/347/134 193/348/134
f 197/346/134 193/348/134 192/349/134
f 197/350/135 192/351/135 195/352/135
f 197/350/135 195/352/135 198/353/135
f 193/354/136 196/355/136 199/356/136
f 193/354/136 199/356/136 194/357/136
f 200/358/137 201/359/137 202/360/137
f 200/358/137 202/360/137 203/361/137
f 204/362/138 205/363/138 206/364/138
f 204/362/138 206/364/138 207/365/138
f 203/366/139 202/367/139 207/368/139
f 203/366/139 207/368/139 206/369/139
f 205/370/140 204/371/140 201/372/140
f 205/370/140 201/372/140 200/373/140
f 205/374/141 200/375/141 203/376/141
f 205/374/141 203/376/141 206/377/141
f 201/378/142 204/379/142 207/380/142
f 201/378/142 207/380/142 202/381/142
f 208/382/137 209/383/137 210/384/137
f 208/382/137 210/384/137 211/385/137
f 212/386/138 213/387/138 214/388/138
f 212/386/138 214/388/138 215/389/138
f 211/390/139 210/391/139 215/392/139
f 211/390/139 215/392/139 214/393/139
f 213/394/140 212/395/140 209/396/140
f 213/394/140 209/396/140 208/397/140
f 213/398/141 208/399/141 211/400/141
f 213/398/141 211/400/141 214/401/141
f 209/402/142 212/403/142 215/404/142
f 209/402/142 215/404/142 210/405/142
f 216/406/137 217/407/137 218/408/137
f 216/406/137 218/408/137 219/409/137
f 220/410/138 221/411/138 222/412/138
f 220/410/138 222/412/138 223/413/138
f 219/414/139 218/415/139 223/416/139
f 219/414/139 223/416/139 222/417/139
f 221/418/140 220/419/140 217/420/140
f 221/418/140 217/420/140 216/421/140
f 221/422/141 216/423/141 219/424/141
f 221/422/141 219/424/141 222/425/141
f 217/426/142 220/427/142 223/428/142
f 217/426/142 223/428/142 218/429/142
f 224/430/143 225/431/143 226/432/143
f 224/430/143 226/432/143 227/433/143
f 228/434/144 229/435/144 230/436/144
f 228/434/144 230/436/144 231/437/144
f 227/438/145 226/439/145 231/440/145
f 227/438/145 231/440/145 230/441/145
f 229/441/146 228/440/146 225/439/146
f 229/441/146 225/439/146 224/438/146
f 229/442/147 224/443/147 227/444/147
f 229/442/147 227/444/147 230/445/147
f 225/446/148 228/447/148 231/448/148
f 225/446/148 231/448/148 226/449/148
f 232/450/143 233/451/143 234/452/143
f 232/450/143 234/452/143 235/453/143
f 236/454/144 237/455/144 238/456/144
f 236/454/144 238/456/144 239/457/144
f 235/458/149 234/459/149 239/460/149
f 235/458/149 239/460/149 238/461/149
f 237/461/150 236/460/150 233/459/150
f 237/461/150 233/459/150 232/458/150
f 237/462/151 232/463/151 235/464/151
f 237/462/151 235/464/151 238/465/151
f 233/466/152 236/466/152 239/467/152
f 233/466/152 239/467/152 234/467/152
f 240/468/143 241/469/143 242/470/143
f 240/468/143 242/470/143 243/471/143
f 244/472/144 245/473/144 246/474/144
f 244/472/144 246/474/144 247/475/144
f 243/476/149 242/477/149 247/478/149
f 243/476/149 247/478/149 246/479/149
f 245/479/150 244/478/150 241/477/150
f 245/479/150 241/477/150 240/476/150
f 245/480/151 240/481/151 243/482/151
f 245/480/151 243/482/151 246/483/151
f 241/484/152 244/484/152 247/485/152
f 241/484/152 247/485/152 242/485/152
f 248/486/153 249/487/153 250/488/153
f 248/486/153 250/488/153 251/489/153
f 252/490/154 253/491/154 254/492/154
f 252/490/154 254/492/154 255/493/154
f 251/494/155 250/495/155 255/496/155
f 251/494/155 255/496/155 254/497/155
f 253/497/156 252/496/156 249/495/156
f 253/497/156 249/495/156 248/494/156
f 253/498/157 248/499/157 251/500/157
f 253/498/157 251/500/157 254/501/157
f 249/502/158 252/503/158 255/504/158
f 249/502/158 255/504/158 250/505/158
f 256/506/153 257/507/153 258/508/153
f 256/506/153 258/508/153 259/509/153
f 260/510/154 261/511/154 262/512/154
f 260/510/154 262/512/154 263/513/154
f 259/514/159 258/515/159 263/516/159
f 259/514/159 263/516/159 262/517/159
f 261/517/160 260/516/160 257/515/160
f 261/517/160 257/515/160 256/514/160
f 261/518/161 256/518/161 259/519/161
f 261/518/161 259/519/161 262/519/161
f 257/520/162 260/521/162 263/522/162
f 257/520/162 263/522/162 258/523/162
f 264/524/153 265/525/153 266/526/153
f 264/524/153 266/526/153 267/527/153
f 268/528/154 269/529/154 270/530/154
f 268/528/154 270/530/154 271/531/154
f 267/532/159 266/533/159 271/534/159
f 267/532/159 271/534/159 270/535/159
f 269/535/160 268/534/160 265/533/160
f 269/535/160 265/533/160 264/532/160
f 269/536/161 264/536/161 267/537/161
f 269/536/161 267/537/161 270/537/161
f 265/538/162 268/539/162 271/540/162
f 265/538/162 271/540/162 266/541/162
f 272/542/163 273/543/163 274/544/163
f 272/542/163 274/544/163 275/545/163
f 273/546/164 276/547/164 277/548/164
f 273/546/164 277/548/164 274/549/164
f 276/547/165 278/550/165 279/551/165
f 276/547/165 279/551/165 277/548/165
f 278/550/166 280/552/166 281/553/166
f 278/550/166 281/553/166 279/551/166
f 280/543/167 282/542/167 283/545/167
f 280/543/167 283/545/167 281/544/167
f 282/542/168 284/554/168 285/555/168
f 282/542/168 285/555/168 283/545/168
f 284/552/169 286/550/169 287/551/169
f 284/552/169 287/551/169 285/553/169
f 286/550/170 288/547/170 289/548/170
f 286/550/170 289/548/170 287/551/170
f 288/547/171 290/546/171 291/549/171
f 288/547/171 291/549/171 289/548/171
f 290/554/172 272/542/172 275/545/172
f 290/554/172 275/545/172 291/555/172
f 275/556/173 274/557/173 292/558/173
f 275/556/173 292/558/173 293/559/173
f 274/557/174 277/560/174 294/561/174
f 274/557/174 294/561/174 292/558/174
f 277/548/175 279/551/175 295/562/175
f 277/548/175 295/562/175 294/563/175
f 279/564/176 281/565/176 296/566/176
f 279/564/176 296/566/176 295/567/176
f 281/565/177 283/568/177 297/569/177
f 281/565/177 297/569/177 296/566/177
f 283/568/178 285/570/178 298/571/178
f 283/568/178 298/571/178 297/569/178
f 285/570/179 287/572/179 299/573/179
f 285/570/179 299/573/179 298/571/179
f 287/551/180 289/548/180 300/563/180
f 287/551/180 300/563/180 299/562/180
f 289/574/181 291/575/181 301/576/181
f 289/574/181 301/576/181 300/577/181
f 291/575/182 275/556/182 293/559/182
f 291/575/182 293/559/182 301/576/182
f 293/559/183 292/558/183 302/578/183
f 292/558/184 294/561/184 302/578/184
f 294/561/185 295/567/185 302/578/185
f 295/567/186 296/566/186 302/578/186
f 296/566/187 297/569/187 302/578/187
f 297/569/188 298/571/188 302/578/188
f 298/571/189 299/573/189 302/578/189
f 299/573/190 300/577/190 302/578/190
f 300/577/191 301/576/191 302/578/191
f 301/576/192 293/559/192 302/578/192
f 303/579/193 304/580/193 305/581/193
f 303/579/193 306/582/193 304/580/193
f 303/579/193 307/583/193 306/582/193
f 303/579/193 308/584/193 307/583/193
f 303/579/193 309/585/193 308/584/193
f 303/579/193 305/581/193 309/585/193
f 305/586/194 304/587/194 310/588/194
f 305/586/194 310/588/194 311/589/194
f 304/590/195 306/591/195 312/592/195
f 304/590/195 312/592/195 310/593/195
f 306/587/196 307/586/196 313/589/196
f 306/587/196 313/589/196 312/588/196
f 307/586/197 308/594/197 314/595/197
f 307/586/197 314/595/197 313/589/197
f 308/591/198 309/590/198 315/593/198
f 308/591/198 315/593/198 314/592/198
f 309/594/199 305/586/199 311/589/199
f 309/594/199 311/589/199 315/595/199
f 311/589/200 310/588/200 316/596/200
f 311/589/200 316/596/200 317/597/200
f 310/593/201 312/592/201 318/598/201
f 310/593/201 318/598/201 316/599/201
f 312/588/202 313/589/202 319/597/202
f 312/588/202 319/597/202 318/596/202
f 313/589/203 314/595/203 320/600/203
f 313/589/203 320/600/203 319/597/203
f 314/592/204 315/593/204 321/599/204
f 314/592/204 321/599/204 320/598/204
f 315/595/205 311/589/205 317/597/205
f 315/595/205 317/597/205 321/600/205
f 322/601/206 323/602/206 324/603/206
f 322/601/206 324/603/206 325/604/206
f 323/605/207 326/606/207 327/607/207
f 323/605/207 327/607/207 324/608/207
f 326/606/208 328/609/208 329/610/208
f 326/606/208 329/610/208 327/607/208
f 328/609/209 330/611/209 331/612/209
f 328/609/209 331/612/209 329/610/209
f 330/602/210 332/601/210 333/604/210
f 330/602/210 333/604/210 331/603/210
f 332/601/211 334/613/211 335/614/211
f 332/601/211 335/614/211 333/604/211
f 334/611/212 336/609/212 337/610/212
f 334/611/212 337/610/212 335/612/212
f 336/609/213 338/606/213 339/607/213
f 336/609/213 339/607/213 337/610/213
f 338/606/214 340/605/214 341/608/214
f 338/606/214 341/608/214 339/607/214
f 340/613/215 322/601/215 325/604/215
f 340/613/215 325/604/215 341/614/215
f 325/615/216 324/616/216 342/617/216
f 325/615/216 342/617/216 343/618/216
f 324/616/217 327/619/217 344/620/217
f 324/616/217 344/620/217 342/617/217
f 327/607/218 329/610/218 345/621/218
f 327/607/218 345/621/218 344/622/218
f 329/623/219 331/624/219 346/625/219
f 329/623/219 346/625/219 345/626/219
f 331/624/220 333/627/220 347/628/220
f 331/603/220 347/629/220 346/630/220
f 333/627/221 335/631/221 348/632/221
f 333/627/221 348/632/221 347/628/221
f 335/631/222 337/633/222 349/634/222
f 335/631/222 349/634/222 348/632/222
f 337/610/223 339/607/223 350/622/223
f 337/610/223 350/622/223 349/621/223
f 339/635/224 341/636/224 351/637/224
f 339/635/224 351/637/224 350/638/224
f 341/636/225 325/615/225 343/618/225
f 341/636/225 343/618/225 351/637/225
f 343/618/226 342/617/226 352/639/226
f 342/617/227 344/620/227 352/639/227
f 344/620/228 345/626/228 352/639/228
f 345/626/229 346/625/229 352/639/229
f 346/625/230 347/628/230 352/639/230
f 347/628/231 348/632/231 352/639/231
f 348/632/232 349/634/232 352/639/232
f 349/634/233 350/638/233 352/639/233
f 350/638/234 351/637/234 352/639/234
f 351/637/235 343/618/235 352/639/235
f 353/640/236 354/641/236 355/642/236
f 353/640/236 356/643/236 354/641/236
f 353/640/236 357/644/236 356/643/236
f 353/640/236 358/645/236 357/644/236
f 353/640/236 359/646/236 358/645/236
f 353/640/236 355/642/236 359/646/236
f 355/647/237 354/648/237 360/649/237
f 355/647/237 360/649/237 361/650/237
f 354/651/238 356/652/238 362/653/238
f 354/651/238 362/653/238 360/654/238
f 356/648/239 357/647/239 363/650/239
f 356/648/239 363/650/239 362/649/239
f 357/647/240 358/655/240 364/656/240
f 357/647/240 364/656/240 363/650/240
f 358/652/241 359/651/241 365/654/241
f 358/652/241 365/654/241 364/653/241
f 359/655/242 355/647/242 361/650/242
f 359/655/242 361/650/242 365/656/242
f 361/650/243 360/649/243 366/657/243
f 361/650/243 366/657/243 367/658/243
f 360/654/244 362/653/244 368/659/244
f 360/654/244 368/659/244 366/660/244
f 362/649/245 363/650/245 369/658/245
f 362/649/245 369/658/245 368/657/245
f 363/650/246 364/656/246 370/661/246
f 363/650/246 370/661/246 369/658/246
f 364/653/247 365/654/247 371/660/247
f 364/653/247 371/660/247 370/659/247
f 365/656/248 361/650/248 367/658/248
f 365/656/248 367/658/248 371/661/248
