# Vaelith tender, fragment 7 of 8
# Generated by tools. Edit the generator script.
v -0.069906 0.299300 2.226209
v 0.069906 0.299300 2.226209
v 0.069906 0.371639 2.218951
v -0.069906 0.371639 2.218951
v 0.199732 0.343100 1.258287
v -0.199732 0.136416 1.279025
v -0.199732 0.343100 1.258287
v -0.000000 0.286178 2.211467
v 0.028176 0.295288 2.210553
v 0.024401 0.302850 2.233882
v -0.000000 0.294961 2.234674
v 0.045590 0.319136 2.208160
v 0.039482 0.323503 2.231810
v 0.045590 0.348614 2.205203
v 0.039482 0.349032 2.229249
v 0.028176 0.372462 2.202810
v 0.024401 0.369685 2.227177
v -0.000000 0.381571 2.201896
v -0.000000 0.377574 2.226385
v -0.028176 0.372462 2.202810
v -0.024401 0.369685 2.227177
v -0.045590 0.348614 2.205203
v -0.039482 0.349032 2.229249
v -0.045590 0.319136 2.208160
v -0.039482 0.323503 2.231810
v -0.028176 0.295288 2.210553
v -0.024401 0.302850 2.233882
v 0.014088 0.318726 2.249923
v -0.000000 0.314171 2.250380
v 0.022795 0.330650 2.248727
v 0.022795 0.345389 2.247248
v 0.014088 0.357313 2.246052
v -0.000000 0.361867 2.245595
v -0.014088 0.357313 2.246052
v -0.022795 0.345389 2.247248
v -0.022795 0.330650 2.248727
v -0.014088 0.318726 2.249923
v -0.000000 0.338660 2.254378
v -0.223700 0.167375 1.585833
v -0.195300 0.167375 1.667309
v -0.261230 0.167375 1.663527
v -0.146005 0.167375 1.623363
v -0.142223 0.167375 1.557432
v -0.186169 0.167375 1.508138
v -0.252100 0.167375 1.504356
v -0.301394 0.167375 1.548302
v -0.305176 0.167375 1.614233
v -0.195300 0.232089 1.667309
v -0.261230 0.232089 1.663527
v -0.146005 0.232089 1.623363
v -0.142223 0.232089 1.557432
v -0.186169 0.232089 1.508138
v -0.252100 0.232089 1.504356
v -0.301394 0.232089 1.548302
v -0.305176 0.232089 1.614233
v -0.223700 0.232089 1.585833
v -0.585014 0.188946 2.209829
v -0.487896 0.188946 2.256742
v -0.487896 0.296802 2.256742
v -0.585014 0.296802 2.209829
v -0.175141 0.188946 1.609289
v -0.272259 0.188946 1.562376
v -0.272259 0.296802 1.562376
v -0.175141 0.296802 1.609289
v -0.581558 0.106257 2.227469
v -0.503863 0.106257 2.265000
v -0.503863 0.235684 2.265000
v -0.581558 0.235684 2.227469
v -0.466333 0.106257 2.187306
v -0.544027 0.106257 2.149775
v -0.544027 0.235684 2.149775
v -0.466333 0.235684 2.187306
v -0.247668 0.119839 1.813527
v 0.247668 0.391475 1.813527
v -0.247668 0.391475 1.813527
v -0.082556 0.300930 1.813527
v -0.000000 0.333875 2.206681
v -0.021638 0.310866 1.743285
vt 0.499219 0.447731
vt 0.532031 0.447731
vt 0.532031 0.476562
vt 0.499219 0.476562
vt 0.063672 0.654961
vt 0.123828 0.654961
vt 0.179688 0.484375
vt 0.007812 0.488057
vt 0.123828 0.656250
vt 0.063672 0.656250
vt 0.011830 0.382812
vt 0.195312 0.447731
vt 0.193906 0.476562
vt 0.007812 0.465188
vt 0.054688 0.298347
vt 0.083658 0.296715
vt 0.079777 0.338389
vt 0.054688 0.339803
vt 0.023277 0.290202
vt 0.019003 0.313640
vt 0.061250 0.317932
vt 0.064951 0.297635
vt 0.013719 0.342610
vt 0.056674 0.343021
vt 0.009445 0.366048
vt 0.052972 0.363319
vt 0.083658 0.282883
vt 0.054688 0.281250
vt 0.054688 0.324996
vt 0.079777 0.326410
vt 0.025717 0.282883
vt 0.029598 0.326410
vt 0.025717 0.296715
vt 0.029598 0.338389
vt 0.054688 0.289882
vt 0.079777 0.297635
vt 0.069173 0.313237
vt 0.054688 0.308761
vt 0.095282 0.317932
vt 0.078125 0.324955
vt 0.088827 0.339441
vt 0.091469 0.324955
vt 0.095282 0.343021
vt 0.079777 0.363319
vt 0.069173 0.351159
vt 0.078125 0.339441
vt 0.054688 0.359311
vt 0.069173 0.360127
vt 0.040202 0.360127
vt 0.029598 0.363319
vt 0.014093 0.343021
vt 0.031250 0.339441
vt 0.040202 0.351159
vt 0.014093 0.317932
vt 0.029598 0.297635
vt 0.040202 0.313237
vt 0.031250 0.324955
vt 0.054688 0.332828
vt 0.054688 0.355636
vt 0.646812 0.392855
vt 0.652825 0.402897
vt 0.638866 0.402430
vt 0.663262 0.397480
vt 0.664062 0.389354
vt 0.654758 0.383279
vt 0.640799 0.382812
vt 0.630362 0.388229
vt 0.629561 0.396355
vt 0.740428 0.412883
vt 0.754387 0.412883
vt 0.754387 0.444723
vt 0.740428 0.444723
vt 0.764824 0.412883
vt 0.764824 0.444723
vt 0.686543 0.412883
vt 0.678417 0.412883
vt 0.678417 0.444723
vt 0.686543 0.444723
vt 0.672341 0.412883
vt 0.672341 0.444723
vt 0.756321 0.412883
vt 0.742361 0.412883
vt 0.742361 0.444723
vt 0.756321 0.444723
vt 0.731925 0.412883
vt 0.731925 0.444723
vt 0.677291 0.412883
vt 0.685417 0.412883
vt 0.685417 0.444723
vt 0.677291 0.444723
vt 0.691493 0.412883
vt 0.691493 0.444723
vt 0.671875 0.423496
vt 0.692437 0.423496
vt 0.692437 0.476562
vt 0.671875 0.476562
vt 0.758656 0.423496
vt 0.738093 0.423496
vt 0.738093 0.476562
vt 0.758656 0.476562
vt 0.570312 0.469763
vt 0.590875 0.475545
vt 0.657093 0.395746
vt 0.636531 0.389963
vt 0.679026 0.423496
vt 0.758825 0.423496
vt 0.758825 0.476562
vt 0.679026 0.476562
vt 0.764607 0.423496
vt 0.684808 0.423496
vt 0.684808 0.476562
vt 0.764607 0.476562
vt 0.672607 0.382812
vt 0.689057 0.382812
vt 0.689057 0.446492
vt 0.672607 0.446492
vt 0.697003 0.382812
vt 0.680553 0.382812
vt 0.680553 0.446492
vt 0.697003 0.446492
vt 0.571044 0.471937
vt 0.587494 0.476562
vt 0.595440 0.466987
vt 0.578991 0.462361
vt 0.751423 0.382812
vt 0.760999 0.382812
vt 0.760999 0.446492
vt 0.751423 0.446492
vt 0.765625 0.382812
vt 0.756049 0.382812
vt 0.756049 0.446492
vt 0.765625 0.446492
vt 0.203125 0.382812
vt 0.328125 0.476562
vt 0.203125 0.476562
vt 0.353333 0.646667
vt 0.060000 0.060000
vt 0.060000 0.940000
vt 0.940000 0.940000
vt 0.500000 0.500000
vt 0.940000 0.500000
vt 0.855967 0.228065
vt 0.635967 0.060000
vt 0.364033 0.060000
vt 0.144033 0.228065
vt 0.060000 0.500000
vt 0.144033 0.771935
vt 0.364033 0.940000
vt 0.635967 0.940000
vt 0.855967 0.771935
vt 0.500943 0.452333
vt 0.933401 0.346000
vt 0.060000 0.940000
vt 0.933401 0.654000
vt 0.940000 0.654000
vt 0.078854 0.060000
vt 0.060000 0.060000
vn -0.000000 0.099833 0.995004
vn 0.000000 0.999559 -0.029695
vn 0.000000 -0.985534 0.169479
vn -0.990955 0.013397 0.133521
vn 0.299447 -0.892345 0.337716
vn 0.783962 -0.542083 0.302572
vn 0.969030 0.024653 0.245709
vn 0.783962 0.591389 0.188846
vn 0.299447 0.941651 0.153702
vn -0.299447 0.941651 0.153702
vn -0.783962 0.591389 0.188846
vn -0.969030 0.024653 0.245709
vn -0.783962 -0.542083 0.302572
vn -0.299447 -0.892345 0.337716
vn 0.223919 -0.616908 0.754509
vn 0.586227 -0.354991 0.728230
vn 0.724617 0.068800 0.685709
vn 0.586227 0.492592 0.643188
vn 0.223919 0.754509 0.616908
vn -0.223919 0.754509 0.616908
vn -0.586227 0.492592 0.643188
vn -0.724617 0.068800 0.685709
vn -0.586227 -0.354991 0.728230
vn -0.223919 -0.616908 0.754509
vn 0.083800 -0.160528 0.983468
vn 0.219390 -0.062508 0.973633
vn 0.271181 0.096092 0.957720
vn 0.219390 0.254693 0.941807
vn 0.083800 0.352713 0.931972
vn -0.083800 0.352713 0.931972
vn -0.219390 0.254693 0.941807
vn -0.271181 0.096092 0.957720
vn -0.219390 -0.062508 0.973633
vn -0.083800 -0.160528 0.983468
vn 0.000000 -1.000000 0.000000
vn -0.057270 0.000000 0.998359
vn 0.665451 0.000000 0.746442
vn 0.998359 0.000000 0.057270
vn 0.746442 0.000000 -0.665451
vn 0.057270 0.000000 -0.998359
vn -0.665451 0.000000 -0.746442
vn -0.998359 0.000000 -0.057270
vn -0.746442 0.000000 0.665451
vn -0.000000 1.000000 0.000000
vn -0.434966 0.000000 0.900447
vn 0.434966 0.000000 -0.900447
vn -0.900447 0.000000 -0.434966
vn 0.900447 0.000000 0.434966
vn 0.000000 0.000000 1.000000
vn 0.000000 1.000000 0.000000
vn 0.000000 -1.000000 0.000000
vn 0.000000 1.000000 0.000000
vn 0.000000 -1.000000 0.000000
vn 0.000000 1.000000 0.000000
vn 0.000000 -1.000000 0.000000
usemtl skin
f 1/1/1 2/2/1 3/3/1
f 1/1/1 3/3/1 4/4/1
f 4/5/2 3/6/2 5/7/2
f 6/8/3 2/9/3 1/10/3
f 6/11/4 1/12/4 4/13/4
f 6/11/4 4/13/4 7/14/4
f 8/15/5 9/16/5 10/17/5
f 8/15/5 10/17/5 11/18/5
f 9/19/6 12/20/6 13/21/6
f 9/19/6 13/21/6 10/22/6
f 12/20/7 14/23/7 15/24/7
f 12/20/7 15/24/7 13/21/7
f 14/23/8 16/25/8 17/26/8
f 14/23/8 17/26/8 15/24/8
f 16/27/9 18/28/9 19/29/9
f 16/27/9 19/29/9 17/30/9
f 18/28/10 20/31/10 21/32/10
f 18/28/10 21/32/10 19/29/10
f 20/25/11 22/23/11 23/24/11
f 20/25/11 23/24/11 21/26/11
f 22/23/12 24/20/12 25/21/12
f 22/23/12 25/21/12 23/24/12
f 24/20/13 26/19/13 27/22/13
f 24/20/13 27/22/13 25/21/13
f 26/33/14 8/15/14 11/18/14
f 26/33/14 11/18/14 27/34/14
f 11/35/15 10/36/15 28/37/15
f 11/35/15 28/37/15 29/38/15
f 10/36/16 13/39/16 30/40/16
f 10/36/16 30/40/16 28/37/16
f 13/21/17 15/24/17 31/41/17
f 13/21/17 31/41/17 30/42/17
f 15/43/18 17/44/18 32/45/18
f 15/43/18 32/45/18 31/46/18
f 17/30/19 19/29/19 33/47/19
f 17/30/19 33/47/19 32/48/19
f 19/29/20 21/32/20 34/49/20
f 19/29/20 34/49/20 33/47/20
f 21/50/21 23/51/21 35/52/21
f 21/50/21 35/52/21 34/53/21
f 23/24/22 25/21/22 36/42/22
f 23/24/22 36/42/22 35/41/22
f 25/54/23 27/55/23 37/56/23
f 25/54/23 37/56/23 36/57/23
f 27/55/24 11/35/24 29/38/24
f 27/55/24 29/38/24 37/56/24
f 29/38/25 28/37/25 38/58/25
f 28/37/26 30/40/26 38/58/26
f 30/40/27 31/46/27 38/58/27
f 31/46/28 32/45/28 38/58/28
f 32/45/29 33/59/29 38/58/29
f 33/59/30 34/53/30 38/58/30
f 34/53/31 35/52/31 38/58/31
f 35/52/32 36/57/32 38/58/32
f 36/57/33 37/56/33 38/58/33
f 37/56/34 29/38/34 38/58/34
f 39/60/35 40/61/35 41/62/35
f 39/60/35 42/63/35 40/61/35
f 39/60/35 43/64/35 42/63/35
f 39/60/35 44/65/35 43/64/35
f 39/60/35 45/66/35 44/65/35
f 39/60/35 46/67/35 45/66/35
f 39/60/35 47/68/35 46/67/35
f 39/60/35 41/62/35 47/68/35
f 41/69/36 40/70/36 48/71/36
f 41/69/36 48/71/36 49/72/36
f 40/70/37 42/73/37 50/74/37
f 40/70/37 50/74/37 48/71/37
f 42/75/38 43/76/38 51/77/38
f 42/75/38 51/77/38 50/78/38
f 43/76/39 44/79/39 52/80/39
f 43/76/39 52/80/39 51/77/39
f 44/81/40 45/82/40 53/83/40
f 44/81/40 53/83/40 52/84/40
f 45/82/41 46/85/41 54/86/41
f 45/82/41 54/86/41 53/83/41
f 46/87/42 47/88/42 55/89/42
f 46/87/42 55/89/42 54/90/42
f 47/88/43 41/91/43 49/92/43
f 47/88/43 49/92/43 55/89/43
f 49/62/44 48/61/44 56/60/44
f 48/61/44 50/63/44 56/60/44
f 50/63/44 51/64/44 56/60/44
f 51/64/44 52/65/44 56/60/44
f 52/65/44 53/66/44 56/60/44
f 53/66/44 54/67/44 56/60/44
f 54/67/44 55/68/44 56/60/44
f 55/68/44 49/62/44 56/60/44
f 57/93/45 58/94/45 59/95/45
f 57/93/45 59/95/45 60/96/45
f 61/97/46 62/98/46 63/99/46
f 61/97/46 63/99/46 64/100/46
f 60/101/44 59/102/44 64/103/44
f 60/101/44 64/103/44 63/104/44
f 62/104/35 61/103/35 58/102/35
f 62/104/35 58/102/35 57/101/35
f 62/105/47 57/106/47 60/107/47
f 62/105/47 60/107/47 63/108/47
f 58/109/48 61/110/48 64/111/48
f 58/109/48 64/111/48 59/112/48
f 65/113/45 66/114/45 67/115/45
f 65/113/45 67/115/45 68/116/45
f 69/117/46 70/118/46 71/119/46
f 69/117/46 71/119/46 72/120/46
f 68/121/44 67/122/44 72/123/44
f 68/121/44 72/123/44 71/124/44
f 70/124/35 69/123/35 66/122/35
f 70/124/35 66/122/35 65/121/35
f 70/125/47 65/126/47 68/127/47
f 70/125/47 68/127/47 71/128/47
f 66/129/48 69/130/48 72/131/48
f 66/129/48 72/131/48 67/132/48
f 73/133/49 74/134/49 75/135/49
usemtl interior
f 76/136/50 73/137/50 75/138/50
f 76/136/51 75/138/51 73/137/51
f 76/136/50 75/138/50 74/139/50
f 76/136/51 74/139/51 75/138/51
f 76/136/50 74/139/50 73/137/50
f 76/136/51 73/137/51 74/139/51
f 77/140/52 18/141/52 20/142/52
f 77/140/53 20/142/53 18/141/53
f 77/140/52 20/142/52 22/143/52
f 77/140/53 22/143/53 20/142/53
f 77/140/52 22/143/52 24/144/52
f 77/140/53 24/144/53 22/143/53
f 77/140/52 24/144/52 26/145/52
f 77/140/53 26/145/53 24/144/53
f 77/140/52 26/145/52 8/146/52
f 77/140/53 8/146/53 26/145/53
f 77/140/52 8/146/52 9/147/52
f 77/140/53 9/147/53 8/146/53
f 77/140/52 9/147/52 12/148/52
f 77/140/53 12/148/53 9/147/53
f 77/140/52 12/148/52 14/149/52
f 77/140/53 14/149/53 12/148/53
f 77/140/52 14/149/52 16/150/52
f 77/140/53 16/150/53 14/149/53
f 77/140/52 16/150/52 18/141/52
f 77/140/53 18/141/53 16/150/53
f 78/151/54 4/152/54 5/153/54
f 78/151/55 5/153/55 4/152/55
f 78/151/54 5/153/54 3/154/54
f 78/151/55 3/154/55 5/153/55
f 78/151/54 3/154/54 2/155/54
f 78/151/55 2/155/55 3/154/55
f 78/151/54 2/155/54 6/156/54
f 78/151/55 6/156/55 2/155/55
f 78/151/54 6/156/54 7/157/54
f 78/151/55 7/157/55 6/156/55
f 78/151/54 7/157/54 4/152/54
f 78/151/55 4/152/55 7/157/55
