# Terran frigate, from tools/gen_fleet.py
# Generated by tools. Edit the generator script.
v 0.000000 0.284644 -0.052862
v 0.122334 0.284644 0.640929
v 0.000000 0.284644 0.651632
v 0.240951 0.284644 0.609146
v 0.352247 0.284644 0.557248
v 0.452840 0.284644 0.486812
v 0.539674 0.284644 0.399978
v 0.610110 0.284644 0.299385
v 0.662008 0.284644 0.188089
v 0.693792 0.284644 0.069472
v 0.704494 0.284644 -0.052862
v 0.693792 0.284644 -0.175197
v 0.662008 0.284644 -0.293814
v 0.610110 0.284644 -0.405110
v 0.539674 0.284644 -0.505703
v 0.452840 0.284644 -0.592536
v 0.352247 0.284644 -0.662973
v 0.240951 0.284644 -0.714871
v 0.122334 0.284644 -0.746654
v 0.000000 0.284644 -0.757357
v -0.122334 0.284644 -0.746654
v -0.240951 0.284644 -0.714871
v -0.352247 0.284644 -0.662973
v -0.452840 0.284644 -0.592536
v -0.539674 0.284644 -0.505703
v -0.610110 0.284644 -0.405110
v -0.662008 0.284644 -0.293814
v -0.693792 0.284644 -0.175197
v -0.704494 0.284644 -0.052862
v -0.693792 0.284644 0.069472
v -0.662008 0.284644 0.188089
v -0.610110 0.284644 0.299385
v -0.539674 0.284644 0.399978
v -0.452840 0.284644 0.486812
v -0.352247 0.284644 0.557248
v -0.240951 0.284644 0.609146
v -0.122334 0.284644 0.640929
v 0.200183 0.327341 1.082433
v 0.000000 0.327341 1.099946
v 0.394284 0.327341 1.030424
v 0.576404 0.327341 0.945499
v 0.741011 0.327341 0.830240
v 0.883103 0.327341 0.688149
v 0.998362 0.327341 0.523542
v 1.083286 0.327341 0.341421
v 1.135295 0.327341 0.147321
v 1.152809 0.327341 -0.052862
v 1.135295 0.327341 -0.253046
v 1.083286 0.327341 -0.447146
v 0.998362 0.327341 -0.629267
v 0.883103 0.327341 -0.793874
v 0.741011 0.327341 -0.935965
v 0.576404 0.327341 -1.051224
v 0.394284 0.327341 -1.136149
v 0.200183 0.327341 -1.188158
v 0.000000 0.327341 -1.205671
v -0.200183 0.327341 -1.188158
v -0.394284 0.327341 -1.136149
v -0.576404 0.327341 -1.051224
v -0.741011 0.327341 -0.935965
v -0.883103 0.327341 -0.793874
v -0.998362 0.327341 -0.629267
v -1.083286 0.327341 -0.447146
v -1.135295 0.327341 -0.253046
v -1.152809 0.327341 -0.052862
v -1.135295 0.327341 0.147321
v -1.083286 0.327341 0.341421
v -0.998362 0.327341 0.523542
v -0.883103 0.327341 0.688149
v -0.741011 0.327341 0.830240
v -0.576404 0.327341 0.945499
v -0.394284 0.327341 1.030424
v -0.200183 0.327341 1.082433
v 0.222426 0.327341 1.208577
v 0.000000 0.327341 1.228036
v 0.438093 0.327341 1.150789
v 0.640449 0.327341 1.056428
v 0.823346 0.327341 0.928363
v 0.981225 0.327341 0.770483
v 1.109291 0.327341 0.587587
v 1.203651 0.327341 0.385231
v 1.261439 0.327341 0.169563
v 1.280899 0.327341 -0.052862
v 1.261439 0.327341 -0.275288
v 1.203651 0.327341 -0.490956
v 1.109291 0.327341 -0.693312
v 0.981225 0.327341 -0.876208
v 0.823346 0.327341 -1.034088
v 0.640449 0.327341 -1.162153
v 0.438093 0.327341 -1.256514
v 0.222426 0.327341 -1.314302
v 0.000000 0.327341 -1.333761
v -0.222426 0.327341 -1.314302
v -0.438093 0.327341 -1.256514
v -0.640449 0.327341 -1.162153
v -0.823346 0.327341 -1.034088
v -0.981225 0.327341 -0.876208
v -1.109291 0.327341 -0.693312
v -1.203651 0.327341 -0.490956
v -1.261439 0.327341 -0.275288
v -1.280899 0.327341 -0.052862
v -1.261439 0.327341 0.169563
v -1.203651 0.327341 0.385231
v -1.109291 0.327341 0.587587
v -0.981225 0.327341 0.770483
v -0.823346 0.327341 0.928363
v -0.640449 0.327341 1.056428
v -0.438093 0.327341 1.150789
v -0.222426 0.327341 1.208577
v 0.222426 0.569288 1.208577
v 0.000000 0.569288 1.228036
v 0.438093 0.569288 1.150789
v 0.640449 0.569288 1.056428
v 0.823346 0.569288 0.928363
v 0.981225 0.569288 0.770483
v 1.109291 0.569288 0.587587
v 1.203651 0.569288 0.385231
v 1.261439 0.569288 0.169563
v 1.280899 0.569288 -0.052862
v 1.261439 0.569288 -0.275288
v 1.203651 0.569288 -0.490956
v 1.109291 0.569288 -0.693312
v 0.981225 0.569288 -0.876208
v 0.823346 0.569288 -1.034088
v 0.640449 0.569288 -1.162153
v 0.438093 0.569288 -1.256514
v 0.222426 0.569288 -1.314302
v 0.000000 0.569288 -1.333761
v -0.222426 0.569288 -1.314302
v -0.438093 0.569288 -1.256514
v -0.640449 0.569288 -1.162153
v -0.823346 0.569288 -1.034088
v -0.981225 0.569288 -0.876208
v -1.109291 0.569288 -0.693312
v -1.203651 0.569288 -0.490956
v -1.261439 0.569288 -0.275288
v -1.280899 0.569288 -0.052862
v -1.261439 0.569288 0.169563
v -1.203651 0.569288 0.385231
v -1.109291 0.569288 0.587587
v -0.981225 0.569288 0.770483
v -0.823346 0.569288 0.928363
v -0.640449 0.569288 1.056428
v -0.438093 0.569288 1.150789
v -0.222426 0.569288 1.208577
v 0.200183 0.569288 1.082433
v 0.000000 0.569288 1.099946
v 0.394284 0.569288 1.030424
v 0.576404 0.569288 0.945499
v 0.741011 0.569288 0.830240
v 0.883103 0.569288 0.688149
v 0.998362 0.569288 0.523542
v 1.083286 0.569288 0.341421
v 1.135295 0.569288 0.147321
v 1.152809 0.569288 -0.052862
v 1.135295 0.569288 -0.253046
v 1.083286 0.569288 -0.447146
v 0.998362 0.569288 -0.629267
v 0.883103 0.569288 -0.793874
v 0.741011 0.569288 -0.935965
v 0.576404 0.569288 -1.051224
v 0.394284 0.569288 -1.136149
v 0.200183 0.569288 -1.188158
v 0.000000 0.569288 -1.205671
v -0.200183 0.569288 -1.188158
v -0.394284 0.569288 -1.136149
v -0.576404 0.569288 -1.051224
v -0.741011 0.569288 -0.935965
v -0.883103 0.569288 -0.793874
v -0.998362 0.569288 -0.629267
v -1.083286 0.569288 -0.447146
v -1.135295 0.569288 -0.253046
v -1.152809 0.569288 -0.052862
v -1.135295 0.569288 0.147321
v -1.083286 0.569288 0.341421
v -0.998362 0.569288 0.523542
v -0.883103 0.569288 0.688149
v -0.741011 0.569288 0.830240
v -0.576404 0.569288 0.945499
v -0.394284 0.569288 1.030424
v -0.200183 0.569288 1.082433
v 0.195735 0.612459 1.057204
v 0.000000 0.612459 1.074329
v 0.385522 0.612459 1.006351
v 0.563596 0.612459 0.923314
v 0.724544 0.612459 0.810616
v 0.863478 0.612459 0.671682
v 0.976176 0.612459 0.510733
v 1.059213 0.612459 0.332660
v 1.110066 0.612459 0.142872
v 1.127191 0.612459 -0.052862
v 1.110066 0.612459 -0.248597
v 1.059213 0.612459 -0.438385
v 0.976176 0.612459 -0.616458
v 0.863478 0.612459 -0.777407
v 0.724544 0.612459 -0.916341
v 0.563596 0.612459 -1.029039
v 0.385522 0.612459 -1.112076
v 0.195735 0.612459 -1.162929
v 0.000000 0.612459 -1.180054
v -0.195735 0.612459 -1.162929
v -0.385522 0.612459 -1.112076
v -0.563596 0.612459 -1.029039
v -0.724544 0.612459 -0.916341
v -0.863478 0.612459 -0.777407
v -0.976176 0.612459 -0.616458
v -1.059213 0.612459 -0.438385
v -1.110066 0.612459 -0.248597
v -1.127191 0.612459 -0.052862
v -1.110066 0.612459 0.142872
v -1.059213 0.612459 0.332660
v -0.976176 0.612459 0.510733
v -0.863478 0.612459 0.671682
v -0.724544 0.612459 0.810616
v -0.563596 0.612459 0.923314
v -0.385522 0.612459 1.006351
v -0.195735 0.612459 1.057204
v 0.122334 0.612459 0.640929
v 0.000000 0.612459 0.651632
v 0.240951 0.612459 0.609146
v 0.352247 0.612459 0.557248
v 0.452840 0.612459 0.486812
v 0.539674 0.612459 0.399978
v 0.610110 0.612459 0.299385
v 0.662008 0.612459 0.188089
v 0.693792 0.612459 0.069472
v 0.704494 0.612459 -0.052862
v 0.693792 0.612459 -0.175197
v 0.662008 0.612459 -0.293814
v 0.610110 0.612459 -0.405110
v 0.539674 0.612459 -0.505703
v 0.452840 0.612459 -0.592536
v 0.352247 0.612459 -0.662973
v 0.240951 0.612459 -0.714871
v 0.122334 0.612459 -0.746654
v 0.000000 0.612459 -0.757357
v -0.122334 0.612459 -0.746654
v -0.240951 0.612459 -0.714871
v -0.352247 0.612459 -0.662973
v -0.452840 0.612459 -0.592536
v -0.539674 0.612459 -0.505703
v -0.610110 0.612459 -0.405110
v -0.662008 0.612459 -0.293814
v -0.693792 0.612459 -0.175197
v -0.704494 0.612459 -0.052862
v -0.693792 0.612459 0.069472
v -0.662008 0.612459 0.188089
v -0.610110 0.612459 0.299385
v -0.539674 0.612459 0.399978
v -0.452840 0.612459 0.486812
v -0.352247 0.612459 0.557248
v -0.240951 0.612459 0.609146
v -0.122334 0.612459 0.640929
v 0.111213 0.667965 0.577857
v 0.000000 0.667965 0.587587
v 0.219047 0.667965 0.548963
v 0.320225 0.667965 0.501783
v 0.411673 0.667965 0.437750
v 0.490613 0.667965 0.358810
v 0.554645 0.667965 0.267362
v 0.601826 0.667965 0.166184
v 0.630720 0.667965 0.058350
v 0.640449 0.667965 -0.052862
v 0.630720 0.667965 -0.164075
v 0.601826 0.667965 -0.271909
v 0.554645 0.667965 -0.373087
v 0.490613 0.667965 -0.464535
v 0.411673 0.667965 -0.543475
v 0.320225 0.667965 -0.607508
v 0.219047 0.667965 -0.654688
v 0.111213 0.667965 -0.683582
v 0.000000 0.667965 -0.693312
v -0.111213 0.667965 -0.683582
v -0.219047 0.667965 -0.654688
v -0.320225 0.667965 -0.607508
v -0.411673 0.667965 -0.543475
v -0.490613 0.667965 -0.464535
v -0.554645 0.667965 -0.373087
v -0.601826 0.667965 -0.271909
v -0.630720 0.667965 -0.164075
v -0.640449 0.667965 -0.052862
v -0.630720 0.667965 0.058350
v -0.601826 0.667965 0.166184
v -0.554645 0.667965 0.267362
v -0.490613 0.667965 0.358810
v -0.411673 0.667965 0.437750
v -0.320225 0.667965 0.501783
v -0.219047 0.667965 0.548963
v -0.111213 0.667965 0.577857
v 0.055606 0.692634 0.262497
v 0.000000 0.692634 0.267362
v 0.109523 0.692634 0.248050
v 0.160112 0.692634 0.224460
v 0.205836 0.692634 0.192444
v 0.245306 0.692634 0.152974
v 0.277323 0.692634 0.107250
v 0.300913 0.692634 0.056661
v 0.315360 0.692634 0.002744
v 0.320225 0.692634 -0.052862
v 0.315360 0.692634 -0.108469
v 0.300913 0.692634 -0.162386
v 0.277323 0.692634 -0.212975
v 0.245306 0.692634 -0.258699
v 0.205836 0.692634 -0.298169
v 0.160112 0.692634 -0.330185
v 0.109523 0.692634 -0.353775
v 0.055606 0.692634 -0.368222
v 0.000000 0.692634 -0.373087
v -0.055606 0.692634 -0.368222
v -0.109523 0.692634 -0.353775
v -0.160112 0.692634 -0.330185
v -0.205836 0.692634 -0.298169
v -0.245306 0.692634 -0.258699
v -0.277323 0.692634 -0.212975
v -0.300913 0.692634 -0.162386
v -0.315360 0.692634 -0.108469
v -0.320225 0.692634 -0.052862
v -0.315360 0.692634 0.002744
v -0.300913 0.692634 0.056661
v -0.277323 0.692634 0.107250
v -0.245306 0.692634 0.152974
v -0.205836 0.692634 0.192444
v -0.160112 0.692634 0.224460
v -0.109523 0.692634 0.248050
v -0.055606 0.692634 0.262497
v 0.000000 0.692634 -0.052862
v -0.260924 0.351061 -1.123667
v 0.260924 0.351061 -1.123667
v 0.260924 0.502871 -1.123667
v -0.260924 0.502871 -1.123667
v 0.260924 0.351061 -1.408311
v -0.260924 0.351061 -1.408311
v -0.260924 0.502871 -1.408311
v 0.260924 0.502871 -1.408311
v 0.000000 0.284644 -0.337507
v 0.167310 0.284644 -0.283144
v 0.144894 0.142322 -0.252293
v 0.000000 0.142322 -0.299372
v 0.270713 0.284644 -0.140822
v 0.234444 0.142322 -0.129038
v 0.270713 0.284644 0.035097
v 0.234444 0.142322 0.023313
v 0.167310 0.284644 0.177419
v 0.144894 0.142322 0.146568
v 0.000000 0.284644 0.231782
v 0.000000 0.142322 0.193647
v -0.167310 0.284644 0.177419
v -0.144894 0.142322 0.146568
v -0.270713 0.284644 0.035097
v -0.234444 0.142322 0.023313
v -0.270713 0.284644 -0.140822
v -0.234444 0.142322 -0.129038
v -0.167310 0.284644 -0.283144
v -0.144894 0.142322 -0.252293
v 0.083655 0.038135 -0.168003
v 0.000000 0.038135 -0.195185
v 0.135356 0.038135 -0.096842
v 0.135356 0.038135 -0.008883
v 0.083655 0.038135 0.062279
v 0.000000 0.038135 0.089460
v -0.083655 0.038135 0.062279
v -0.135356 0.038135 -0.008883
v -0.135356 0.038135 -0.096842
v -0.083655 0.038135 -0.168003
v 0.000000 0.000000 -0.052862
v 0.000000 0.683146 0.177699
v 0.161019 0.683146 0.338718
v 0.000000 0.683146 0.405415
v 0.227715 0.683146 0.177699
v 0.161019 0.683146 0.016680
v 0.000000 0.683146 -0.050016
v -0.161019 0.683146 0.016680
v -0.227715 0.683146 0.177699
v -0.161019 0.683146 0.338718
v 0.161019 0.797004 0.338718
v 0.000000 0.797004 0.405415
v 0.227715 0.797004 0.177699
v 0.161019 0.797004 0.016680
v 0.000000 0.797004 -0.050016
v -0.161019 0.797004 0.016680
v -0.227715 0.797004 0.177699
v -0.161019 0.797004 0.338718
v 0.000000 0.797004 0.177699
v -1.900000 1.389064 1.260567
v -1.577403 1.389064 1.260567
v -1.577403 1.647141 1.260567
v -1.900000 1.647141 1.260567
v -1.602072 1.408799 -1.016586
v -1.875331 1.408799 -1.016586
v -1.875331 1.627406 -1.016586
v -1.602072 1.627406 -1.016586
v -1.786142 1.643346 0.827908
v -1.691261 1.643346 0.827908
v -1.691261 1.688889 0.827908
v -1.786142 1.688889 0.827908
v -1.691261 1.643346 -0.583927
v -1.786142 1.643346 -0.583927
v -1.786142 1.688889 -0.583927
v -1.691261 1.688889 -0.583927
v -1.843071 1.432709 -0.693990
v -1.634332 1.432709 -0.693990
v -1.634332 1.603496 -0.693990
v -1.843071 1.603496 -0.693990
v -1.634332 1.432709 -0.739533
v -1.843071 1.432709 -0.739533
v -1.843071 1.603496 -0.739533
v -1.634332 1.603496 -0.739533
v 1.577403 1.389064 1.260567
v 1.900000 1.389064 1.260567
v 1.900000 1.647141 1.260567
v 1.577403 1.647141 1.260567
v 1.875331 1.408799 -1.016586
v 1.602072 1.408799 -1.016586
v 1.602072 1.627406 -1.016586
v 1.875331 1.627406 -1.016586
v 1.691261 1.643346 0.827908
v 1.786142 1.643346 0.827908
v 1.786142 1.688889 0.827908
v 1.691261 1.688889 0.827908
v 1.786142 1.643346 -0.583927
v 1.691261 1.643346 -0.583927
v 1.691261 1.688889 -0.583927
v 1.786142 1.688889 -0.583927
v 1.634332 1.432709 -0.693990
v 1.843071 1.432709 -0.693990
v 1.843071 1.603496 -0.693990
v 1.634332 1.603496 -0.693990
v 1.843071 1.432709 -0.739533
v 1.634332 1.432709 -0.739533
v 1.634332 1.603496 -0.739533
v 1.843071 1.603496 -0.739533
v -1.738702 1.356804 1.247013
v -1.643893 1.387609 1.247013
v -1.656595 1.405092 1.327662
v -1.738702 1.378414 1.327662
v -1.585298 1.468258 1.247013
v -1.605850 1.474936 1.327662
v -1.585298 1.567946 1.247013
v -1.605850 1.561268 1.327662
v -1.643893 1.648596 1.247013
v -1.656595 1.631113 1.327662
v -1.738702 1.679401 1.247013
v -1.738702 1.657791 1.327662
v -1.833510 1.648596 1.247013
v -1.820808 1.631113 1.327662
v -1.892105 1.567946 1.247013
v -1.871553 1.561268 1.327662
v -1.892105 1.468258 1.247013
v -1.871553 1.474936 1.327662
v -1.833510 1.387609 1.247013
v -1.820808 1.405092 1.327662
v -1.691297 1.452856 1.386701
v -1.738702 1.437453 1.386701
v -1.662000 1.493180 1.386701
v -1.662000 1.543024 1.386701
v -1.691297 1.583349 1.386701
v -1.738702 1.598752 1.386701
v -1.786106 1.583349 1.386701
v -1.815404 1.543024 1.386701
v -1.815404 1.493180 1.386701
v -1.786106 1.452856 1.386701
v -1.738702 1.518102 1.408311
v -0.742447 0.426966 -0.315684
v -0.666542 0.426966 -0.315684
v -1.538095 1.423221 0.107894
v -1.614000 1.423221 0.107894
v -0.666542 0.426966 -0.558580
v -0.742447 0.426966 -0.558580
v -1.614000 1.423221 -0.135003
v -1.538095 1.423221 -0.135003
v 1.738702 1.356804 1.247013
v 1.833510 1.387609 1.247013
v 1.820808 1.405092 1.327662
v 1.738702 1.378414 1.327662
v 1.892105 1.468258 1.247013
v 1.871553 1.474936 1.327662
v 1.892105 1.567946 1.247013
v 1.871553 1.561268 1.327662
v 1.833510 1.648596 1.247013
v 1.820808 1.631113 1.327662
v 1.738702 1.679401 1.247013
v 1.738702 1.657791 1.327662
v 1.643893 1.648596 1.247013
v 1.656595 1.631113 1.327662
v 1.585298 1.567946 1.247013
v 1.605850 1.561268 1.327662
v 1.585298 1.468258 1.247013
v 1.605850 1.474936 1.327662
v 1.643893 1.387609 1.247013
v 1.656595 1.405092 1.327662
v 1.786106 1.452856 1.386701
v 1.738702 1.437453 1.386701
v 1.815404 1.493180 1.386701
v 1.815404 1.543024 1.386701
v 1.786106 1.583349 1.386701
v 1.738702 1.598752 1.386701
v 1.691297 1.583349 1.386701
v 1.662000 1.543024 1.386701
v 1.662000 1.493180 1.386701
v 1.691297 1.452856 1.386701
v 1.738702 1.518102 1.408311
v 0.666542 0.426966 -0.315684
v 0.742447 0.426966 -0.315684
v 1.614000 1.423221 0.107894
v 1.538095 1.423221 0.107894
v 0.742447 0.426966 -0.558580
v 0.666542 0.426966 -0.558580
v 1.538095 1.423221 -0.135003
v 1.614000 1.423221 -0.135003
vt 0.171875 0.828125
vt 0.187544 0.916989
vt 0.171875 0.918359
vt 0.202737 0.912918
vt 0.216992 0.906270
vt 0.229877 0.897249
vt 0.240999 0.886127
vt 0.250020 0.873242
vt 0.256668 0.858987
vt 0.260739 0.843794
vt 0.262109 0.828125
vt 0.260739 0.812456
vt 0.256668 0.797263
vt 0.250020 0.783008
vt 0.240999 0.770123
vt 0.229877 0.759001
vt 0.216992 0.749980
vt 0.202737 0.743332
vt 0.187544 0.739261
vt 0.171875 0.737891
vt 0.156206 0.739261
vt 0.141013 0.743332
vt 0.126758 0.749980
vt 0.113873 0.759001
vt 0.102751 0.770123
vt 0.093730 0.783008
vt 0.087082 0.797263
vt 0.083011 0.812456
vt 0.081641 0.828125
vt 0.083011 0.843794
vt 0.087082 0.858987
vt 0.093730 0.873242
vt 0.102751 0.886127
vt 0.113873 0.897249
vt 0.126758 0.906270
vt 0.141013 0.912918
vt 0.156206 0.916989
vt 0.197515 0.973538
vt 0.171875 0.975781
vt 0.222376 0.966876
vt 0.245703 0.955999
vt 0.266787 0.941236
vt 0.284986 0.923037
vt 0.299749 0.901953
vt 0.310626 0.878626
vt 0.317288 0.853765
vt 0.319531 0.828125
vt 0.317288 0.802485
vt 0.310626 0.777624
vt 0.299749 0.754297
vt 0.284986 0.733213
vt 0.266787 0.715014
vt 0.245703 0.700251
vt 0.222376 0.689374
vt 0.197515 0.682712
vt 0.171875 0.680469
vt 0.146235 0.682712
vt 0.121374 0.689374
vt 0.098047 0.700251
vt 0.076963 0.715014
vt 0.058764 0.733213
vt 0.044001 0.754297
vt 0.033124 0.777624
vt 0.026462 0.802485
vt 0.024219 0.828125
vt 0.026462 0.853765
vt 0.033124 0.878626
vt 0.044001 0.901953
vt 0.058764 0.923037
vt 0.076963 0.941236
vt 0.098047 0.955999
vt 0.121374 0.966876
vt 0.146235 0.973538
vt 0.200364 0.989695
vt 0.171875 0.992188
vt 0.227988 0.982293
vt 0.253906 0.970207
vt 0.277332 0.953804
vt 0.297554 0.933582
vt 0.313957 0.910156
vt 0.326043 0.884238
vt 0.333445 0.856614
vt 0.335938 0.828125
vt 0.333445 0.799636
vt 0.326043 0.772012
vt 0.313957 0.746094
vt 0.297554 0.722668
vt 0.277332 0.702446
vt 0.253906 0.686043
vt 0.227988 0.673957
vt 0.200364 0.666555
vt 0.171875 0.664062
vt 0.143386 0.666555
vt 0.115762 0.673957
vt 0.089844 0.686043
vt 0.066418 0.702446
vt 0.046196 0.722668
vt 0.029793 0.746094
vt 0.017707 0.772012
vt 0.010305 0.799636
vt 0.007812 0.828125
vt 0.010305 0.856614
vt 0.017707 0.884238
vt 0.029793 0.910156
vt 0.046196 0.933582
vt 0.066418 0.953804
vt 0.089844 0.970207
vt 0.115762 0.982293
vt 0.143386 0.989695
vt 0.195312 0.145531
vt 0.227872 0.145531
vt 0.227872 0.173328
vt 0.195312 0.173328
vt 0.259441 0.145531
vt 0.259441 0.173328
vt 0.289062 0.145531
vt 0.289062 0.173328
vt 0.315835 0.145531
vt 0.315835 0.173328
vt 0.338946 0.145531
vt 0.338946 0.173328
vt 0.315835 0.145531
vt 0.289062 0.145531
vt 0.289062 0.173328
vt 0.315835 0.173328
vt 0.259441 0.145531
vt 0.259441 0.173328
vt 0.227872 0.145531
vt 0.227872 0.173328
vt 0.195312 0.145531
vt 0.195312 0.173328
vt 0.162753 0.145531
vt 0.162753 0.173328
vt 0.131184 0.145531
vt 0.131184 0.173328
vt 0.101563 0.145531
vt 0.101563 0.173328
vt 0.074790 0.145531
vt 0.074790 0.173328
vt 0.051679 0.145531
vt 0.051679 0.173328
vt 0.698648 0.145531
vt 0.671875 0.145531
vt 0.671875 0.173328
vt 0.698648 0.173328
vt 0.642254 0.145531
vt 0.642254 0.173328
vt 0.610684 0.145531
vt 0.610684 0.173328
vt 0.578125 0.145531
vt 0.578125 0.173328
vt 0.545566 0.145531
vt 0.545566 0.173328
vt 0.513996 0.145531
vt 0.513996 0.173328
vt 0.484375 0.145531
vt 0.484375 0.173328
vt 0.457602 0.145531
vt 0.457602 0.173328
vt 0.434492 0.145531
vt 0.434492 0.173328
vt 0.051679 0.145531
vt 0.074790 0.145531
vt 0.074790 0.173328
vt 0.051679 0.173328
vt 0.101563 0.145531
vt 0.101563 0.173328
vt 0.131184 0.145531
vt 0.131184 0.173328
vt 0.162753 0.145531
vt 0.162753 0.173328
vt 0.224616 0.173328
vt 0.223964 0.178289
vt 0.195312 0.178289
vt 0.253028 0.173328
vt 0.251746 0.178289
vt 0.279687 0.173328
vt 0.277813 0.178289
vt 0.303783 0.173328
vt 0.301372 0.178289
vt 0.324582 0.173328
vt 0.321710 0.178289
vt 0.303783 0.173328
vt 0.279688 0.173328
vt 0.277813 0.178289
vt 0.301372 0.178289
vt 0.253028 0.173328
vt 0.251746 0.178289
vt 0.224616 0.173328
vt 0.223964 0.178289
vt 0.195312 0.178289
vt 0.166009 0.173328
vt 0.166661 0.178289
vt 0.137597 0.173328
vt 0.138879 0.178289
vt 0.110938 0.173328
vt 0.112813 0.178289
vt 0.086842 0.173328
vt 0.089253 0.178289
vt 0.066043 0.173328
vt 0.068915 0.178289
vt 0.707395 0.173328
vt 0.684185 0.178289
vt 0.704522 0.178289
vt 0.686595 0.173328
vt 0.662500 0.173328
vt 0.660625 0.178289
vt 0.635841 0.173328
vt 0.634558 0.178289
vt 0.607428 0.173328
vt 0.606777 0.178289
vt 0.578125 0.178289
vt 0.548822 0.173328
vt 0.549473 0.178289
vt 0.520409 0.173328
vt 0.521692 0.178289
vt 0.493750 0.173328
vt 0.495625 0.178289
vt 0.469655 0.173328
vt 0.472065 0.178289
vt 0.448855 0.173328
vt 0.451728 0.178289
vt 0.324582 0.173328
vt 0.321710 0.178289
vt 0.086842 0.173328
vt 0.110938 0.173328
vt 0.112813 0.178289
vt 0.089253 0.178289
vt 0.137597 0.173328
vt 0.138879 0.178289
vt 0.166009 0.173328
vt 0.166661 0.178289
vt 0.171875 0.972500
vt 0.196945 0.970307
vt 0.221254 0.963793
vt 0.244062 0.953157
vt 0.264677 0.938723
vt 0.282473 0.920927
vt 0.296907 0.900313
vt 0.307543 0.877504
vt 0.314057 0.853195
vt 0.316250 0.828125
vt 0.314057 0.803055
vt 0.307543 0.778746
vt 0.296907 0.755938
vt 0.282473 0.735323
vt 0.264677 0.717527
vt 0.244063 0.703093
vt 0.221254 0.692457
vt 0.196945 0.685943
vt 0.171875 0.683750
vt 0.146805 0.685943
vt 0.122496 0.692457
vt 0.099687 0.703093
vt 0.079073 0.717527
vt 0.061277 0.735323
vt 0.046843 0.755937
vt 0.036207 0.778746
vt 0.029693 0.803055
vt 0.027500 0.828125
vt 0.029693 0.853195
vt 0.036207 0.877504
vt 0.046843 0.900312
vt 0.061277 0.920927
vt 0.079073 0.938723
vt 0.099688 0.953157
vt 0.122496 0.963793
vt 0.146805 0.970307
vt 0.186120 0.908910
vt 0.171875 0.910156
vt 0.199931 0.905209
vt 0.212891 0.899166
vt 0.224604 0.890965
vt 0.234715 0.880854
vt 0.242916 0.869141
vt 0.248959 0.856181
vt 0.252660 0.842370
vt 0.253906 0.828125
vt 0.252660 0.813880
vt 0.248959 0.800069
vt 0.242916 0.787109
vt 0.234715 0.775396
vt 0.224604 0.765285
vt 0.212891 0.757084
vt 0.199931 0.751041
vt 0.186120 0.747340
vt 0.171875 0.746094
vt 0.157630 0.747340
vt 0.143819 0.751041
vt 0.130859 0.757084
vt 0.119146 0.765285
vt 0.109035 0.775396
vt 0.100834 0.787109
vt 0.094791 0.800069
vt 0.091090 0.813880
vt 0.089844 0.828125
vt 0.091090 0.842370
vt 0.094791 0.856181
vt 0.100834 0.869141
vt 0.109035 0.880854
vt 0.119146 0.890965
vt 0.130859 0.899166
vt 0.143819 0.905209
vt 0.157630 0.908910
vt 0.178997 0.868518
vt 0.171875 0.869141
vt 0.185903 0.866667
vt 0.192383 0.863646
vt 0.198239 0.859545
vt 0.203295 0.854489
vt 0.207396 0.848633
vt 0.210417 0.842153
vt 0.212268 0.835247
vt 0.212891 0.828125
vt 0.212268 0.821003
vt 0.210417 0.814097
vt 0.207396 0.807617
vt 0.203295 0.801761
vt 0.198239 0.796705
vt 0.192383 0.792604
vt 0.185903 0.789583
vt 0.178997 0.787732
vt 0.171875 0.787109
vt 0.164753 0.787732
vt 0.157847 0.789583
vt 0.151367 0.792604
vt 0.145511 0.796705
vt 0.140455 0.801761
vt 0.136354 0.807617
vt 0.133333 0.814097
vt 0.131482 0.821003
vt 0.130859 0.828125
vt 0.131482 0.835247
vt 0.133333 0.842153
vt 0.136354 0.848633
vt 0.140455 0.854489
vt 0.145511 0.859545
vt 0.151367 0.863646
vt 0.157847 0.866667
vt 0.164753 0.868518
vt 0.007812 0.281250
vt 0.101562 0.281250
vt 0.101562 0.375000
vt 0.007812 0.375000
vt 0.101562 0.281250
vt 0.007812 0.281250
vt 0.007812 0.375000
vt 0.101562 0.375000
vt 0.007812 0.375000
vt 0.101562 0.375000
vt 0.101562 0.281250
vt 0.007812 0.281250
vt 0.007812 0.281250
vt 0.101562 0.281250
vt 0.101562 0.375000
vt 0.007812 0.375000
vt 0.718750 0.476562
vt 0.747720 0.476562
vt 0.743839 0.429688
vt 0.718750 0.429688
vt 0.680827 0.476562
vt 0.704265 0.476562
vt 0.706205 0.429688
vt 0.685908 0.429688
vt 0.733235 0.476562
vt 0.731295 0.429688
vt 0.756673 0.476562
vt 0.751592 0.429688
vt 0.747720 0.476562
vt 0.718750 0.476562
vt 0.718750 0.429688
vt 0.743839 0.429688
vt 0.689780 0.476562
vt 0.693661 0.429688
vt 0.689780 0.476562
vt 0.693661 0.429688
vt 0.617188 0.389093
vt 0.642277 0.396846
vt 0.631673 0.410726
vt 0.617188 0.406250
vt 0.657782 0.417143
vt 0.640625 0.422445
vt 0.725993 0.395373
vt 0.711507 0.395373
vt 0.657782 0.442232
vt 0.642277 0.462529
vt 0.631673 0.448649
vt 0.640625 0.436930
vt 0.718750 0.395373
vt 0.733235 0.395373
vt 0.704265 0.395373
vt 0.592098 0.462529
vt 0.576593 0.442232
vt 0.593750 0.436930
vt 0.602702 0.448649
vt 0.576593 0.417143
vt 0.592098 0.396846
vt 0.602702 0.410726
vt 0.593750 0.422445
vt 0.617188 0.429688
vt 0.617188 0.453125
vt 0.617188 0.429688
vt 0.650333 0.462833
vt 0.617188 0.476562
vt 0.664062 0.429688
vt 0.650333 0.396542
vt 0.617188 0.382812
vt 0.584042 0.396542
vt 0.570312 0.429688
vt 0.584042 0.462833
vt 0.718750 0.382812
vt 0.751896 0.382812
vt 0.751896 0.476562
vt 0.718750 0.476562
vt 0.751896 0.382812
vt 0.718750 0.382812
vt 0.718750 0.476562
vt 0.751896 0.476562
vt 0.685604 0.382812
vt 0.685604 0.476562
vt 0.751896 0.382812
vt 0.718750 0.382812
vt 0.718750 0.476562
vt 0.751896 0.476562
vt 0.685604 0.382812
vt 0.685604 0.476562
vt 0.685604 0.382812
vt 0.685604 0.476562
vt 0.390625 0.195312
vt 0.484375 0.195312
vt 0.484375 0.262559
vt 0.390625 0.262559
vt 0.578768 0.200455
vt 0.499357 0.200455
vt 0.499357 0.257417
vt 0.578768 0.257417
vt 0.554688 0.992188
vt 0.625000 0.992188
vt 0.619623 0.664062
vt 0.560064 0.664062
vt 0.492188 0.302017
vt 0.867188 0.296875
vt 0.867188 0.364122
vt 0.492188 0.358979
vt 0.382812 0.195312
vt 0.354136 0.200455
vt 0.354136 0.257417
vt 0.382812 0.262559
vt 0.423713 0.261570
vt 0.451287 0.261570
vt 0.451287 0.273438
vt 0.423713 0.273438
vt 0.552849 0.261570
vt 0.525276 0.261570
vt 0.525276 0.273438
vt 0.552849 0.273438
vt 0.579504 0.929844
vt 0.600184 0.929844
vt 0.600184 0.726406
vt 0.579504 0.726406
vt 0.563438 0.363133
vt 0.795937 0.363133
vt 0.795937 0.375000
vt 0.563438 0.375000
vt 0.250460 0.261570
vt 0.250460 0.273438
vt 0.407169 0.206685
vt 0.467831 0.206685
vt 0.467831 0.251187
vt 0.407169 0.251187
vt 0.569393 0.206685
vt 0.508732 0.206685
vt 0.508732 0.251187
vt 0.569393 0.251187
vt 0.567096 0.710547
vt 0.612592 0.710547
vt 0.612592 0.703984
vt 0.567096 0.703984
vt 0.537812 0.308248
vt 0.545312 0.308248
vt 0.545312 0.352749
vt 0.537812 0.352749
vt 0.316636 0.206685
vt 0.316636 0.251187
vt 0.390625 0.195312
vt 0.484375 0.195312
vt 0.484375 0.262559
vt 0.390625 0.262559
vt 0.578768 0.200455
vt 0.499357 0.200455
vt 0.499357 0.257417
vt 0.578768 0.257417
vt 0.554688 0.992188
vt 0.625000 0.992188
vt 0.619623 0.664062
vt 0.560064 0.664062
vt 0.036489 0.200455
vt 0.007812 0.195312
vt 0.007812 0.262559
vt 0.036489 0.257417
vt 0.867188 0.296875
vt 0.492188 0.302017
vt 0.492188 0.358979
vt 0.867188 0.364122
vt 0.423713 0.261570
vt 0.451287 0.261570
vt 0.451287 0.273438
vt 0.423713 0.273438
vt 0.552849 0.261570
vt 0.525276 0.261570
vt 0.525276 0.273438
vt 0.552849 0.273438
vt 0.579504 0.929844
vt 0.600184 0.929844
vt 0.600184 0.726406
vt 0.579504 0.726406
vt 0.140165 0.261570
vt 0.140165 0.273438
vt 0.795937 0.363133
vt 0.563438 0.363133
vt 0.563438 0.375000
vt 0.795937 0.375000
vt 0.407169 0.206685
vt 0.467831 0.206685
vt 0.467831 0.251187
vt 0.407169 0.251187
vt 0.569393 0.206685
vt 0.508732 0.206685
vt 0.508732 0.251187
vt 0.569393 0.251187
vt 0.567096 0.710547
vt 0.612592 0.710547
vt 0.612592 0.703984
vt 0.567096 0.703984
vt 0.073989 0.206685
vt 0.073989 0.251187
vt 0.545312 0.308248
vt 0.537812 0.308248
vt 0.537812 0.352749
vt 0.545312 0.352749
vt 0.054688 0.281250
vt 0.083658 0.281250
vt 0.079777 0.328125
vt 0.054688 0.328125
vt 0.007812 0.290202
vt 0.007812 0.313640
vt 0.054688 0.315580
vt 0.054688 0.295283
vt 0.007812 0.342610
vt 0.054688 0.340670
vt 0.007812 0.366048
vt 0.054688 0.360967
vt 0.025717 0.281250
vt 0.029598 0.328125
vt 0.054688 0.287530
vt 0.079777 0.295283
vt 0.069173 0.309164
vt 0.054688 0.304688
vt 0.095282 0.315580
vt 0.078125 0.320882
vt 0.089002 0.335368
vt 0.089002 0.320882
vt 0.095282 0.340670
vt 0.079777 0.360967
vt 0.069173 0.347086
vt 0.078125 0.335368
vt 0.054688 0.362440
vt 0.054688 0.351562
vt 0.054688 0.368720
vt 0.029598 0.360967
vt 0.040202 0.347086
vt 0.040202 0.362440
vt 0.014093 0.340670
vt 0.031250 0.335368
vt 0.014093 0.315580
vt 0.029598 0.295283
vt 0.040202 0.309164
vt 0.031250 0.320882
vt 0.054688 0.328125
vt 0.302486 0.484375
vt 0.312500 0.484375
vt 0.197514 0.656250
vt 0.187500 0.656250
vt 0.312500 0.484375
vt 0.302486 0.484375
vt 0.187500 0.656250
vt 0.197514 0.656250
vt 0.320312 0.656250
vt 0.325320 0.656250
vt 0.325320 0.593610
vt 0.320312 0.593610
vt 0.377805 0.484375
vt 0.382812 0.484375
vt 0.382812 0.547015
vt 0.377805 0.547015
vt 0.187500 0.484375
vt 0.233056 0.484375
vt 0.312500 0.656250
vt 0.266944 0.656250
vt 0.054687 0.281250
vt 0.083658 0.281250
vt 0.079777 0.328125
vt 0.054687 0.328125
vt 0.007812 0.290202
vt 0.007812 0.313640
vt 0.054688 0.315580
vt 0.054688 0.295283
vt 0.007812 0.342610
vt 0.054688 0.340670
vt 0.007812 0.366048
vt 0.054688 0.360967
vt 0.025717 0.281250
vt 0.029598 0.328125
vt 0.054687 0.287530
vt 0.079777 0.295283
vt 0.069173 0.309164
vt 0.054687 0.304688
vt 0.095282 0.315580
vt 0.078125 0.320882
vt 0.089002 0.335368
vt 0.089002 0.320882
vt 0.095282 0.340670
vt 0.079777 0.360967
vt 0.069173 0.347086
vt 0.078125 0.335368
vt 0.054687 0.362440
vt 0.054687 0.351562
vt 0.054687 0.368720
vt 0.029598 0.360967
vt 0.040202 0.347086
vt 0.040202 0.362440
vt 0.014093 0.340670
vt 0.031250 0.335368
vt 0.014093 0.315580
vt 0.029598 0.295283
vt 0.040202 0.309164
vt 0.031250 0.320882
vt 0.054687 0.328125
vt 0.187500 0.484375
vt 0.197514 0.484375
vt 0.312500 0.656250
vt 0.302486 0.656250
vt 0.197514 0.484375
vt 0.187500 0.484375
vt 0.302486 0.656250
vt 0.312500 0.656250
vt 0.377805 0.656250
vt 0.382812 0.656250
vt 0.382812 0.593610
vt 0.377805 0.593610
vt 0.320312 0.484375
vt 0.325320 0.484375
vt 0.325320 0.547015
vt 0.320312 0.547015
vt 0.187500 0.484375
vt 0.233056 0.484375
vt 0.312500 0.656250
vt 0.266944 0.656250
vn 0.000000 -1.000000 0.000000
vn 0.008294 -0.995461 0.094806
vn 0.024631 -0.995461 0.091925
vn 0.040220 -0.995461 0.086251
vn 0.054586 -0.995461 0.077957
vn 0.067294 -0.995461 0.067294
vn 0.077957 -0.995461 0.054586
vn 0.086251 -0.995461 0.040220
vn 0.091925 -0.995461 0.024631
vn 0.094806 -0.995461 0.008294
vn 0.094806 -0.995461 -0.008294
vn 0.091925 -0.995461 -0.024631
vn 0.086251 -0.995461 -0.040220
vn 0.077957 -0.995461 -0.054586
vn 0.067294 -0.995461 -0.067294
vn 0.054586 -0.995461 -0.077957
vn 0.040220 -0.995461 -0.086251
vn 0.024631 -0.995461 -0.091925
vn 0.008294 -0.995461 -0.094806
vn -0.008294 -0.995461 -0.094806
vn -0.024631 -0.995461 -0.091925
vn -0.040220 -0.995461 -0.086251
vn -0.054586 -0.995461 -0.077957
vn -0.067294 -0.995461 -0.067294
vn -0.077957 -0.995461 -0.054586
vn -0.086251 -0.995461 -0.040220
vn -0.091925 -0.995461 -0.024631
vn -0.094806 -0.995461 -0.008294
vn -0.094806 -0.995461 0.008294
vn -0.091925 -0.995461 0.024631
vn -0.086251 -0.995461 0.040220
vn -0.077957 -0.995461 0.054586
vn -0.067294 -0.995461 0.067294
vn -0.054586 -0.995461 0.077957
vn -0.040220 -0.995461 0.086251
vn -0.024631 -0.995461 0.091925
vn -0.008294 -0.995461 0.094806
vn 0.087156 0.000000 0.996195
vn 0.258819 0.000000 0.965926
vn 0.422618 0.000000 0.906308
vn 0.573576 0.000000 0.819152
vn 0.707107 0.000000 0.707107
vn 0.819152 0.000000 0.573576
vn 0.906308 0.000000 0.422618
vn 0.965926 0.000000 0.258819
vn 0.996195 0.000000 0.087156
vn 0.996195 0.000000 -0.087156
vn 0.965926 0.000000 -0.258819
vn 0.906308 0.000000 -0.422618
vn 0.819152 0.000000 -0.573576
vn 0.707107 0.000000 -0.707107
vn 0.573576 0.000000 -0.819152
vn 0.422618 0.000000 -0.906308
vn 0.258819 0.000000 -0.965926
vn 0.087156 0.000000 -0.996195
vn -0.087156 0.000000 -0.996195
vn -0.258819 0.000000 -0.965926
vn -0.422618 0.000000 -0.906308
vn -0.573576 0.000000 -0.819152
vn -0.707107 0.000000 -0.707107
vn -0.819152 0.000000 -0.573576
vn -0.906308 0.000000 -0.422618
vn -0.965926 0.000000 -0.258819
vn -0.996195 0.000000 -0.087156
vn -0.996195 0.000000 0.087156
vn -0.965926 0.000000 0.258819
vn -0.906308 0.000000 0.422618
vn -0.819152 0.000000 0.573576
vn -0.707107 0.000000 0.707107
vn -0.573576 0.000000 0.819152
vn -0.422618 0.000000 0.906308
vn -0.258819 0.000000 0.965926
vn -0.087156 0.000000 0.996195
vn 0.000000 1.000000 0.000000
vn 0.075027 0.508882 0.857561
vn 0.222801 0.508882 0.831504
vn 0.363805 0.508882 0.780183
vn 0.493755 0.508882 0.705156
vn 0.608703 0.508882 0.608703
vn 0.705156 0.508882 0.493755
vn 0.780183 0.508882 0.363805
vn 0.831504 0.508882 0.222801
vn 0.857561 0.508882 0.075027
vn 0.857561 0.508882 -0.075027
vn 0.831504 0.508882 -0.222801
vn 0.780183 0.508882 -0.363805
vn 0.705156 0.508882 -0.493755
vn 0.608703 0.508882 -0.608703
vn 0.493755 0.508882 -0.705156
vn 0.363805 0.508882 -0.780183
vn 0.222801 0.508882 -0.831504
vn 0.075027 0.508882 -0.857561
vn -0.075027 0.508882 -0.857561
vn -0.222801 0.508882 -0.831504
vn -0.363805 0.508882 -0.780183
vn -0.493755 0.508882 -0.705156
vn -0.608703 0.508882 -0.608703
vn -0.705156 0.508882 -0.493755
vn -0.780183 0.508882 -0.363805
vn -0.831504 0.508882 -0.222801
vn -0.857561 0.508882 -0.075027
vn -0.857561 0.508882 0.075027
vn -0.831504 0.508882 0.222801
vn -0.780183 0.508882 0.363805
vn -0.705156 0.508882 0.493755
vn -0.608703 0.508882 0.608703
vn -0.493755 0.508882 0.705156
vn -0.363805 0.508882 0.780183
vn -0.222801 0.508882 0.831504
vn -0.075027 0.508882 0.857561
vn 0.057205 0.754452 0.653858
vn 0.169877 0.754452 0.633991
vn 0.277388 0.754452 0.594860
vn 0.376470 0.754452 0.537655
vn 0.464114 0.754452 0.464114
vn 0.537655 0.754452 0.376470
vn 0.594860 0.754452 0.277388
vn 0.633991 0.754452 0.169877
vn 0.653858 0.754452 0.057205
vn 0.653858 0.754452 -0.057205
vn 0.633991 0.754452 -0.169877
vn 0.594860 0.754452 -0.277388
vn 0.537655 0.754452 -0.376470
vn 0.464114 0.754452 -0.464114
vn 0.376470 0.754452 -0.537655
vn 0.277388 0.754452 -0.594860
vn 0.169877 0.754452 -0.633991
vn 0.057205 0.754452 -0.653858
vn -0.057205 0.754452 -0.653858
vn -0.169877 0.754452 -0.633991
vn -0.277388 0.754452 -0.594860
vn -0.376470 0.754452 -0.537655
vn -0.464114 0.754452 -0.464114
vn -0.537655 0.754452 -0.376470
vn -0.594860 0.754452 -0.277388
vn -0.633991 0.754452 -0.169877
vn -0.653858 0.754452 -0.057205
vn -0.653858 0.754452 0.057205
vn -0.633991 0.754452 0.169877
vn -0.594860 0.754452 0.277388
vn -0.537655 0.754452 0.376470
vn -0.464114 0.754452 0.464114
vn -0.376470 0.754452 0.537655
vn -0.277388 0.754452 0.594860
vn -0.169877 0.754452 0.633991
vn -0.057205 0.754452 0.653858
vn 0.006720 0.997023 0.076808
vn 0.019955 0.997023 0.074474
vn 0.032584 0.997023 0.069877
vn 0.044223 0.997023 0.063158
vn 0.054519 0.997023 0.054519
vn 0.063158 0.997023 0.044223
vn 0.069877 0.997023 0.032584
vn 0.074474 0.997023 0.019955
vn 0.076808 0.997023 0.006720
vn 0.076808 0.997023 -0.006720
vn 0.074474 0.997023 -0.019955
vn 0.069877 0.997023 -0.032584
vn 0.063158 0.997023 -0.044223
vn 0.054519 0.997023 -0.054519
vn 0.044223 0.997023 -0.063158
vn 0.032584 0.997023 -0.069877
vn 0.019955 0.997023 -0.074474
vn 0.006720 0.997023 -0.076808
vn -0.006720 0.997023 -0.076808
vn -0.019955 0.997023 -0.074474
vn -0.032584 0.997023 -0.069877
vn -0.044223 0.997023 -0.063158
vn -0.054519 0.997023 -0.054519
vn -0.063158 0.997023 -0.044223
vn -0.069877 0.997023 -0.032584
vn -0.074474 0.997023 -0.019955
vn -0.076808 0.997023 -0.006720
vn -0.076808 0.997023 0.006720
vn -0.074474 0.997023 0.019955
vn -0.069877 0.997023 0.032584
vn -0.063158 0.997023 0.044223
vn -0.054519 0.997023 0.054519
vn -0.044223 0.997023 0.063158
vn -0.032584 0.997023 0.069877
vn -0.019955 0.997023 0.074474
vn -0.006720 0.997023 0.076808
vn 0.000000 0.000000 1.000000
vn 0.000000 0.000000 -1.000000
vn -0.000000 1.000000 0.000000
vn 0.000000 -1.000000 0.000000
vn -1.000000 0.000000 0.000000
vn 1.000000 0.000000 0.000000
vn 0.299447 -0.246943 -0.921602
vn 0.783962 -0.246943 -0.569582
vn 0.969030 -0.246943 0.000000
vn 0.783962 -0.246943 0.569582
vn 0.299447 -0.246943 0.921602
vn -0.299447 -0.246943 0.921602
vn -0.783962 -0.246943 0.569582
vn -0.969030 -0.246943 -0.000000
vn -0.783962 -0.246943 -0.569582
vn -0.299447 -0.246943 -0.921602
vn 0.223919 -0.689152 -0.689152
vn 0.586227 -0.689152 -0.425919
vn 0.724617 -0.689152 -0.000000
vn 0.586227 -0.689152 0.425919
vn 0.223919 -0.689152 0.689152
vn -0.223919 -0.689152 0.689152
vn -0.586227 -0.689152 0.425919
vn -0.724617 -0.689152 0.000000
vn -0.586227 -0.689152 -0.425919
vn -0.223919 -0.689152 -0.689152
vn 0.083800 -0.962528 -0.257909
vn 0.219390 -0.962528 -0.159396
vn 0.271181 -0.962528 -0.000000
vn 0.219390 -0.962528 0.159396
vn 0.083800 -0.962528 0.257909
vn -0.083800 -0.962528 0.257909
vn -0.219390 -0.962528 0.159396
vn -0.271181 -0.962528 0.000000
vn -0.219390 -0.962528 -0.159396
vn -0.083800 -0.962528 -0.257909
vn 0.000000 -1.000000 0.000000
vn 0.382683 0.000000 0.923880
vn 0.923880 0.000000 0.382683
vn 0.923880 0.000000 -0.382683
vn 0.382683 0.000000 -0.923880
vn -0.382683 0.000000 -0.923880
vn -0.923880 0.000000 -0.382683
vn -0.923880 0.000000 0.382683
vn -0.382683 0.000000 0.923880
vn 0.000000 1.000000 0.000000
vn 0.000000 0.000000 1.000000
vn 0.000000 0.000000 -1.000000
vn 0.000000 0.999962 -0.008666
vn 0.000000 -0.999962 -0.008666
vn -0.999941 0.000000 -0.010833
vn 0.999941 0.000000 -0.010833
vn -0.000000 1.000000 0.000000
vn 0.000000 -1.000000 0.000000
vn -1.000000 0.000000 0.000000
vn 1.000000 0.000000 0.000000
vn 0.000000 0.000000 1.000000
vn 0.000000 0.000000 -1.000000
vn 0.000000 0.999962 -0.008666
vn 0.000000 -0.999962 -0.008666
vn -0.999941 0.000000 -0.010833
vn 0.999941 0.000000 -0.010833
vn -0.000000 1.000000 0.000000
vn 0.000000 -1.000000 0.000000
vn -1.000000 0.000000 0.000000
vn 1.000000 0.000000 0.000000
vn 0.299447 -0.921602 0.246943
vn 0.783962 -0.569582 0.246943
vn 0.969030 -0.000000 0.246943
vn 0.783962 0.569582 0.246943
vn 0.299447 0.921602 0.246943
vn -0.299447 0.921602 0.246943
vn -0.783962 0.569582 0.246943
vn -0.969030 0.000000 0.246943
vn -0.783962 -0.569582 0.246943
vn -0.299447 -0.921602 0.246943
vn 0.223919 -0.689152 0.689152
vn 0.586227 -0.425919 0.689152
vn 0.724617 -0.000000 0.689152
vn 0.586227 0.425919 0.689152
vn 0.223919 0.689152 0.689152
vn -0.223919 0.689152 0.689152
vn -0.586227 0.425919 0.689152
vn -0.724617 0.000000 0.689152
vn -0.586227 -0.425919 0.689152
vn -0.223919 -0.689152 0.689152
vn 0.083800 -0.257909 0.962528
vn 0.219390 -0.159396 0.962528
vn 0.271181 -0.000000 0.962528
vn 0.219390 0.159396 0.962528
vn 0.083800 0.257909 0.962528
vn -0.083800 0.257909 0.962528
vn -0.219390 0.159396 0.962528
vn -0.271181 0.000000 0.962528
vn -0.219390 -0.159396 0.962528
vn -0.083800 -0.257909 0.962528
vn 0.000000 -0.391273 0.920275
vn 0.000000 0.391273 -0.920275
vn -0.000000 1.000000 0.000000
vn 0.000000 -1.000000 0.000000
vn -0.752640 -0.658432 0.000000
vn 0.752640 0.658432 0.000000
vn 0.299447 -0.921602 0.246943
vn 0.783962 -0.569582 0.246943
vn 0.969030 -0.000000 0.246943
vn 0.783962 0.569582 0.246943
vn 0.299447 0.921602 0.246943
vn -0.299447 0.921602 0.246943
vn -0.783962 0.569582 0.246943
vn -0.969030 0.000000 0.246943
vn -0.783962 -0.569582 0.246943
vn -0.299447 -0.921602 0.246943
vn 0.223919 -0.689152 0.689152
vn 0.586227 -0.425919 0.689152
vn 0.724617 -0.000000 0.689152
vn 0.586227 0.425919 0.689152
vn 0.223919 0.689152 0.689152
vn -0.223919 0.689152 0.689152
vn -0.586227 0.425919 0.689152
vn -0.724617 0.000000 0.689152
vn -0.586227 -0.425919 0.689152
vn -0.223919 -0.689152 0.689152
vn 0.083800 -0.257909 0.962528
vn 0.219390 -0.159396 0.962528
vn 0.271181 -0.000000 0.962528
vn 0.219390 0.159396 0.962528
vn 0.083800 0.257909 0.962528
vn -0.083800 0.257909 0.962528
vn -0.219390 0.159396 0.962528
vn -0.271181 0.000000 0.962528
vn -0.219390 -0.159396 0.962528
vn -0.083800 -0.257909 0.962528
vn 0.000000 -0.391273 0.920275
vn 0.000000 0.391273 -0.920275
vn -0.000000 1.000000 0.000000
vn 0.000000 -1.000000 0.000000
vn -0.752640 0.658432 0.000000
vn 0.752640 -0.658432 0.000000
f 1/1/1 2/2/1 3/3/1
f 1/1/1 4/4/1 2/2/1
f 1/1/1 5/5/1 4/4/1
f 1/1/1 6/6/1 5/5/1
f 1/1/1 7/7/1 6/6/1
f 1/1/1 8/8/1 7/7/1
f 1/1/1 9/9/1 8/8/1
f 1/1/1 10/10/1 9/9/1
f 1/1/1 11/11/1 10/10/1
f 1/1/1 12/12/1 11/11/1
f 1/1/1 13/13/1 12/12/1
f 1/1/1 14/14/1 13/13/1
f 1/1/1 15/15/1 14/14/1
f 1/1/1 16/16/1 15/15/1
f 1/1/1 17/17/1 16/16/1
f 1/1/1 18/18/1 17/17/1
f 1/1/1 19/19/1 18/18/1
f 1/1/1 20/20/1 19/19/1
f 1/1/1 21/21/1 20/20/1
f 1/1/1 22/22/1 21/21/1
f 1/1/1 23/23/1 22/22/1
f 1/1/1 24/24/1 23/23/1
f 1/1/1 25/25/1 24/24/1
f 1/1/1 26/26/1 25/25/1
f 1/1/1 27/27/1 26/26/1
f 1/1/1 28/28/1 27/27/1
f 1/1/1 29/29/1 28/28/1
f 1/1/1 30/30/1 29/29/1
f 1/1/1 31/31/1 30/30/1
f 1/1/1 32/32/1 31/31/1
f 1/1/1 33/33/1 32/32/1
f 1/1/1 34/34/1 33/33/1
f 1/1/1 35/35/1 34/34/1
f 1/1/1 36/36/1 35/35/1
f 1/1/1 37/37/1 36/36/1
f 1/1/1 3/3/1 37/37/1
f 3/3/2 2/2/2 38/38/2
f 3/3/2 38/38/2 39/39/2
f 2/2/3 4/4/3 40/40/3
f 2/2/3 40/40/3 38/38/3
f 4/4/4 5/5/4 41/41/4
f 4/4/4 41/41/4 40/40/4
f 5/5/5 6/6/5 42/42/5
f 5/5/5 42/42/5 41/41/5
f 6/6/6 7/7/6 43/43/6
f 6/6/6 43/43/6 42/42/6
f 7/7/7 8/8/7 44/44/7
f 7/7/7 44/44/7 43/43/7
f 8/8/8 9/9/8 45/45/8
f 8/8/8 45/45/8 44/44/8
f 9/9/9 10/10/9 46/46/9
f 9/9/9 46/46/9 45/45/9
f 10/10/10 11/11/10 47/47/10
f 10/10/10 47/47/10 46/46/10
f 11/11/11 12/12/11 48/48/11
f 11/11/11 48/48/11 47/47/11
f 12/12/12 13/13/12 49/49/12
f 12/12/12 49/49/12 48/48/12
f 13/13/13 14/14/13 50/50/13
f 13/13/13 50/50/13 49/49/13
f 14/14/14 15/15/14 51/51/14
f 14/14/14 51/51/14 50/50/14
f 15/15/15 16/16/15 52/52/15
f 15/15/15 52/52/15 51/51/15
f 16/16/16 17/17/16 53/53/16
f 16/16/16 53/53/16 52/52/16
f 17/17/17 18/18/17 54/54/17
f 17/17/17 54/54/17 53/53/17
f 18/18/18 19/19/18 55/55/18
f 18/18/18 55/55/18 54/54/18
f 19/19/19 20/20/19 56/56/19
f 19/19/19 56/56/19 55/55/19
f 20/20/20 21/21/20 57/57/20
f 20/20/20 57/57/20 56/56/20
f 21/21/21 22/22/21 58/58/21
f 21/21/21 58/58/21 57/57/21
f 22/22/22 23/23/22 59/59/22
f 22/22/22 59/59/22 58/58/22
f 23/23/23 24/24/23 60/60/23
f 23/23/23 60/60/23 59/59/23
f 24/24/24 25/25/24 61/61/24
f 24/24/24 61/61/24 60/60/24
f 25/25/25 26/26/25 62/62/25
f 25/25/25 62/62/25 61/61/25
f 26/26/26 27/27/26 63/63/26
f 26/26/26 63/63/26 62/62/26
f 27/27/27 28/28/27 64/64/27
f 27/27/27 64/64/27 63/63/27
f 28/28/28 29/29/28 65/65/28
f 28/28/28 65/65/28 64/64/28
f 29/29/29 30/30/29 66/66/29
f 29/29/29 66/66/29 65/65/29
f 30/30/30 31/31/30 67/67/30
f 30/30/30 67/67/30 66/66/30
f 31/31/31 32/32/31 68/68/31
f 31/31/31 68/68/31 67/67/31
f 32/32/32 33/33/32 69/69/32
f 32/32/32 69/69/32 68/68/32
f 33/33/33 34/34/33 70/70/33
f 33/33/33 70/70/33 69/69/33
f 34/34/34 35/35/34 71/71/34
f 34/34/34 71/71/34 70/70/34
f 35/35/35 36/36/35 72/72/35
f 35/35/35 72/72/35 71/71/35
f 36/36/36 37/37/36 73/73/36
f 36/36/36 73/73/36 72/72/36
f 37/37/37 3/3/37 39/39/37
f 37/37/37 39/39/37 73/73/37
f 39/39/1 38/38/1 74/74/1
f 39/39/1 74/74/1 75/75/1
f 38/38/1 40/40/1 76/76/1
f 38/38/1 76/76/1 74/74/1
f 40/40/1 41/41/1 77/77/1
f 40/40/1 77/77/1 76/76/1
f 41/41/1 42/42/1 78/78/1
f 41/41/1 78/78/1 77/77/1
f 42/42/1 43/43/1 79/79/1
f 42/42/1 79/79/1 78/78/1
f 43/43/1 44/44/1 80/80/1
f 43/43/1 80/80/1 79/79/1
f 44/44/1 45/45/1 81/81/1
f 44/44/1 81/81/1 80/80/1
f 45/45/1 46/46/1 82/82/1
f 45/45/1 82/82/1 81/81/1
f 46/46/1 47/47/1 83/83/1
f 46/46/1 83/83/1 82/82/1
f 47/47/1 48/48/1 84/84/1
f 47/47/1 84/84/1 83/83/1
f 48/48/1 49/49/1 85/85/1
f 48/48/1 85/85/1 84/84/1
f 49/49/1 50/50/1 86/86/1
f 49/49/1 86/86/1 85/85/1
f 50/50/1 51/51/1 87/87/1
f 50/50/1 87/87/1 86/86/1
f 51/51/1 52/52/1 88/88/1
f 51/51/1 88/88/1 87/87/1
f 52/52/1 53/53/1 89/89/1
f 52/52/1 89/89/1 88/88/1
f 53/53/1 54/54/1 90/90/1
f 53/53/1 90/90/1 89/89/1
f 54/54/1 55/55/1 91/91/1
f 54/54/1 91/91/1 90/90/1
f 55/55/1 56/56/1 92/92/1
f 55/55/1 92/92/1 91/91/1
f 56/56/1 57/57/1 93/93/1
f 56/56/1 93/93/1 92/92/1
f 57/57/1 58/58/1 94/94/1
f 57/57/1 94/94/1 93/93/1
f 58/58/1 59/59/1 95/95/1
f 58/58/1 95/95/1 94/94/1
f 59/59/1 60/60/1 96/96/1
f 59/59/1 96/96/1 95/95/1
f 60/60/1 61/61/1 97/97/1
f 60/60/1 97/97/1 96/96/1
f 61/61/1 62/62/1 98/98/1
f 61/61/1 98/98/1 97/97/1
f 62/62/1 63/63/1 99/99/1
f 62/62/1 99/99/1 98/98/1
f 63/63/1 64/64/1 100/100/1
f 63/63/1 100/100/1 99/99/1
f 64/64/1 65/65/1 101/101/1
f 64/64/1 101/101/1 100/100/1
f 65/65/1 66/66/1 102/102/1
f 65/65/1 102/102/1 101/101/1
f 66/66/1 67/67/1 103/103/1
f 66/66/1 103/103/1 102/102/1
f 67/67/1 68/68/1 104/104/1
f 67/67/1 104/104/1 103/103/1
f 68/68/1 69/69/1 105/105/1
f 68/68/1 105/105/1 104/104/1
f 69/69/1 70/70/1 106/106/1
f 69/69/1 106/106/1 105/105/1
f 70/70/1 71/71/1 107/107/1
f 70/70/1 107/107/1 106/106/1
f 71/71/1 72/72/1 108/108/1
f 71/71/1 108/108/1 107/107/1
f 72/72/1 73/73/1 109/109/1
f 72/72/1 109/109/1 108/108/1
f 73/73/1 39/39/1 75/75/1
f 73/73/1 75/75/1 109/109/1
f 75/110/38 74/111/38 110/112/38
f 75/110/38 110/112/38 111/113/38
f 74/111/39 76/114/39 112/115/39
f 74/111/39 112/115/39 110/112/39
f 76/114/40 77/116/40 113/117/40
f 76/114/40 113/117/40 112/115/40
f 77/116/41 78/118/41 114/119/41
f 77/116/41 114/119/41 113/117/41
f 78/118/42 79/120/42 115/121/42
f 78/118/42 115/121/42 114/119/42
f 79/122/43 80/123/43 116/124/43
f 79/122/43 116/124/43 115/125/43
f 80/123/44 81/126/44 117/127/44
f 80/123/44 117/127/44 116/124/44
f 81/126/45 82/128/45 118/129/45
f 81/126/45 118/129/45 117/127/45
f 82/128/46 83/130/46 119/131/46
f 82/128/46 119/131/46 118/129/46
f 83/130/47 84/132/47 120/133/47
f 83/130/47 120/133/47 119/131/47
f 84/132/48 85/134/48 121/135/48
f 84/132/48 121/135/48 120/133/48
f 85/134/49 86/136/49 122/137/49
f 85/134/49 122/137/49 121/135/49
f 86/136/50 87/138/50 123/139/50
f 86/136/50 123/139/50 122/137/50
f 87/138/51 88/140/51 124/141/51
f 87/138/51 124/141/51 123/139/51
f 88/142/52 89/143/52 125/144/52
f 88/142/52 125/144/52 124/145/52
f 89/143/53 90/146/53 126/147/53
f 89/143/53 126/147/53 125/144/53
f 90/146/54 91/148/54 127/149/54
f 90/146/54 127/149/54 126/147/54
f 91/148/55 92/150/55 128/151/55
f 91/148/55 128/151/55 127/149/55
f 92/150/56 93/152/56 129/153/56
f 92/150/56 129/153/56 128/151/56
f 93/152/57 94/154/57 130/155/57
f 93/152/57 130/155/57 129/153/57
f 94/154/58 95/156/58 131/157/58
f 94/154/58 131/157/58 130/155/58
f 95/156/59 96/158/59 132/159/59
f 95/156/59 132/159/59 131/157/59
f 96/158/60 97/160/60 133/161/60
f 96/158/60 133/161/60 132/159/60
f 97/138/61 98/136/61 134/137/61
f 97/138/61 134/137/61 133/139/61
f 98/136/62 99/134/62 135/135/62
f 98/136/62 135/135/62 134/137/62
f 99/134/63 100/132/63 136/133/63
f 99/134/63 136/133/63 135/135/63
f 100/132/64 101/130/64 137/131/64
f 100/132/64 137/131/64 136/133/64
f 101/130/65 102/128/65 138/129/65
f 101/130/65 138/129/65 137/131/65
f 102/128/66 103/126/66 139/127/66
f 102/128/66 139/127/66 138/129/66
f 103/126/67 104/123/67 140/124/67
f 103/126/67 140/124/67 139/127/67
f 104/123/68 105/122/68 141/125/68
f 104/123/68 141/125/68 140/124/68
f 105/162/69 106/163/69 142/164/69
f 105/162/69 142/164/69 141/165/69
f 106/163/70 107/166/70 143/167/70
f 106/163/70 143/167/70 142/164/70
f 107/166/71 108/168/71 144/169/71
f 107/166/71 144/169/71 143/167/71
f 108/168/72 109/170/72 145/171/72
f 108/168/72 145/171/72 144/169/72
f 109/170/73 75/110/73 111/113/73
f 109/170/73 111/113/73 145/171/73
f 111/75/74 110/74/74 146/38/74
f 111/75/74 146/38/74 147/39/74
f 110/74/74 112/76/74 148/40/74
f 110/74/74 148/40/74 146/38/74
f 112/76/74 113/77/74 149/41/74
f 112/76/74 149/41/74 148/40/74
f 113/77/74 114/78/74 150/42/74
f 113/77/74 150/42/74 149/41/74
f 114/78/74 115/79/74 151/43/74
f 114/78/74 151/43/74 150/42/74
f 115/79/74 116/80/74 152/44/74
f 115/79/74 152/44/74 151/43/74
f 116/80/74 117/81/74 153/45/74
f 116/80/74 153/45/74 152/44/74
f 117/81/74 118/82/74 154/46/74
f 117/81/74 154/46/74 153/45/74
f 118/82/74 119/83/74 155/47/74
f 118/82/74 155/47/74 154/46/74
f 119/83/74 120/84/74 156/48/74
f 119/83/74 156/48/74 155/47/74
f 120/84/74 121/85/74 157/49/74
f 120/84/74 157/49/74 156/48/74
f 121/85/74 122/86/74 158/50/74
f 121/85/74 158/50/74 157/49/74
f 122/86/74 123/87/74 159/51/74
f 122/86/74 159/51/74 158/50/74
f 123/87/74 124/88/74 160/52/74
f 123/87/74 160/52/74 159/51/74
f 124/88/74 125/89/74 161/53/74
f 124/88/74 161/53/74 160/52/74
f 125/89/74 126/90/74 162/54/74
f 125/89/74 162/54/74 161/53/74
f 126/90/74 127/91/74 163/55/74
f 126/90/74 163/55/74 162/54/74
f 127/91/74 128/92/74 164/56/74
f 127/91/74 164/56/74 163/55/74
f 128/92/74 129/93/74 165/57/74
f 128/92/74 165/57/74 164/56/74
f 129/93/74 130/94/74 166/58/74
f 129/93/74 166/58/74 165/57/74
f 130/94/74 131/95/74 167/59/74
f 130/94/74 167/59/74 166/58/74
f 131/95/74 132/96/74 168/60/74
f 131/95/74 168/60/74 167/59/74
f 132/96/74 133/97/74 169/61/74
f 132/96/74 169/61/74 168/60/74
f 133/97/74 134/98/74 170/62/74
f 133/97/74 170/62/74 169/61/74
f 134/98/74 135/99/74 171/63/74
f 134/98/74 171/63/74 170/62/74
f 135/99/74 136/100/74 172/64/74
f 135/99/74 172/64/74 171/63/74
f 136/100/74 137/101/74 173/65/74
f 136/100/74 173/65/74 172/64/74
f 137/101/74 138/102/74 174/66/74
f 137/101/74 174/66/74 173/65/74
f 138/102/74 139/103/74 175/67/74
f 138/102/74 175/67/74 174/66/74
f 139/103/74 140/104/74 176/68/74
f 139/103/74 176/68/74 175/67/74
f 140/104/74 141/105/74 177/69/74
f 140/104/74 177/69/74 176/68/74
f 141/105/74 142/106/74 178/70/74
f 141/105/74 178/70/74 177/69/74
f 142/106/74 143/107/74 179/71/74
f 142/106/74 179/71/74 178/70/74
f 143/107/74 144/108/74 180/72/74
f 143/107/74 180/72/74 179/71/74
f 144/108/74 145/109/74 181/73/74
f 144/108/74 181/73/74 180/72/74
f 145/109/74 111/75/74 147/39/74
f 145/109/74 147/39/74 181/73/74
f 147/113/75 146/172/75 182/173/75
f 147/113/75 182/173/75 183/174/75
f 146/172/76 148/175/76 184/176/76
f 146/172/76 184/176/76 182/173/76
f 148/175/77 149/177/77 185/178/77
f 148/175/77 185/178/77 184/176/77
f 149/177/78 150/179/78 186/180/78
f 149/177/78 186/180/78 185/178/78
f 150/179/79 151/181/79 187/182/79
f 150/179/79 187/182/79 186/180/79
f 151/183/80 152/184/80 188/185/80
f 151/183/80 188/185/80 187/186/80
f 152/184/81 153/187/81 189/188/81
f 152/184/81 189/188/81 188/185/81
f 153/187/82 154/189/82 190/190/82
f 153/187/82 190/190/82 189/188/82
f 154/189/83 155/131/83 191/191/83
f 154/189/83 191/191/83 190/190/83
f 155/131/84 156/192/84 192/193/84
f 155/131/84 192/193/84 191/191/84
f 156/192/85 157/194/85 193/195/85
f 156/192/85 193/195/85 192/193/85
f 157/194/86 158/196/86 194/197/86
f 157/194/86 194/197/86 193/195/86
f 158/196/87 159/198/87 195/199/87
f 158/196/87 195/199/87 194/197/87
f 159/198/88 160/200/88 196/201/88
f 159/202/88 196/203/88 195/204/88
f 160/205/89 161/206/89 197/207/89
f 160/205/89 197/207/89 196/203/89
f 161/206/90 162/208/90 198/209/90
f 161/206/90 198/209/90 197/207/90
f 162/208/91 163/210/91 199/211/91
f 162/208/91 199/211/91 198/209/91
f 163/210/92 164/151/92 200/212/92
f 163/210/92 200/212/92 199/211/92
f 164/151/93 165/213/93 201/214/93
f 164/151/93 201/214/93 200/212/93
f 165/213/94 166/215/94 202/216/94
f 165/213/94 202/216/94 201/214/94
f 166/215/95 167/217/95 203/218/95
f 166/215/95 203/218/95 202/216/95
f 167/217/96 168/219/96 204/220/96
f 167/217/96 204/220/96 203/218/96
f 168/219/97 169/221/97 205/222/97
f 168/219/97 205/222/97 204/220/97
f 169/198/98 170/196/98 206/197/98
f 169/198/98 206/197/98 205/199/98
f 170/196/99 171/194/99 207/195/99
f 170/196/99 207/195/99 206/197/99
f 171/194/100 172/192/100 208/193/100
f 171/194/100 208/193/100 207/195/100
f 172/192/101 173/131/101 209/191/101
f 172/192/101 209/191/101 208/193/101
f 173/131/102 174/189/102 210/190/102
f 173/131/102 210/190/102 209/191/102
f 174/189/103 175/187/103 211/188/103
f 174/189/103 211/188/103 210/190/103
f 175/187/104 176/184/104 212/185/104
f 175/187/104 212/185/104 211/188/104
f 176/184/105 177/183/105 213/186/105
f 176/184/105 213/186/105 212/185/105
f 177/183/106 178/223/106 214/224/106
f 177/183/106 214/224/106 213/186/106
f 178/225/107 179/226/107 215/227/107
f 178/225/107 215/227/107 214/228/107
f 179/226/108 180/229/108 216/230/108
f 179/226/108 216/230/108 215/227/108
f 180/229/109 181/231/109 217/232/109
f 180/229/109 217/232/109 216/230/109
f 181/231/110 147/113/110 183/174/110
f 181/231/110 183/174/110 217/232/110
f 183/233/74 182/234/74 218/2/74
f 183/233/74 218/2/74 219/3/74
f 182/234/74 184/235/74 220/4/74
f 182/234/74 220/4/74 218/2/74
f 184/235/74 185/236/74 221/5/74
f 184/235/74 221/5/74 220/4/74
f 185/236/74 186/237/74 222/6/74
f 185/236/74 222/6/74 221/5/74
f 186/237/74 187/238/74 223/7/74
f 186/237/74 223/7/74 222/6/74
f 187/238/74 188/239/74 224/8/74
f 187/238/74 224/8/74 223/7/74
f 188/239/74 189/240/74 225/9/74
f 188/239/74 225/9/74 224/8/74
f 189/240/74 190/241/74 226/10/74
f 189/240/74 226/10/74 225/9/74
f 190/241/74 191/242/74 227/11/74
f 190/241/74 227/11/74 226/10/74
f 191/242/74 192/243/74 228/12/74
f 191/242/74 228/12/74 227/11/74
f 192/243/74 193/244/74 229/13/74
f 192/243/74 229/13/74 228/12/74
f 193/244/74 194/245/74 230/14/74
f 193/244/74 230/14/74 229/13/74
f 194/245/74 195/246/74 231/15/74
f 194/245/74 231/15/74 230/14/74
f 195/246/74 196/247/74 232/16/74
f 195/246/74 232/16/74 231/15/74
f 196/247/74 197/248/74 233/17/74
f 196/247/74 233/17/74 232/16/74
f 197/248/74 198/249/74 234/18/74
f 197/248/74 234/18/74 233/17/74
f 198/249/74 199/250/74 235/19/74
f 198/249/74 235/19/74 234/18/74
f 199/250/74 200/251/74 236/20/74
f 199/250/74 236/20/74 235/19/74
f 200/251/74 201/252/74 237/21/74
f 200/251/74 237/21/74 236/20/74
f 201/252/74 202/253/74 238/22/74
f 201/252/74 238/22/74 237/21/74
f 202/253/74 203/254/74 239/23/74
f 202/253/74 239/23/74 238/22/74
f 203/254/74 204/255/74 240/24/74
f 203/254/74 240/24/74 239/23/74
f 204/255/74 205/256/74 241/25/74
f 204/255/74 241/25/74 240/24/74
f 205/256/74 206/257/74 242/26/74
f 205/256/74 242/26/74 241/25/74
f 206/257/74 207/258/74 243/27/74
f 206/257/74 243/27/74 242/26/74
f 207/258/74 208/259/74 244/28/74
f 207/258/74 244/28/74 243/27/74
f 208/259/74 209/260/74 245/29/74
f 208/259/74 245/29/74 244/28/74
f 209/260/74 210/261/74 246/30/74
f 209/260/74 246/30/74 245/29/74
f 210/261/74 211/262/74 247/31/74
f 210/261/74 247/31/74 246/30/74
f 211/262/74 212/263/74 248/32/74
f 211/262/74 248/32/74 247/31/74
f 212/263/74 213/264/74 249/33/74
f 212/263/74 249/33/74 248/32/74
f 213/264/74 214/265/74 250/34/74
f 213/264/74 250/34/74 249/33/74
f 214/265/74 215/266/74 251/35/74
f 214/265/74 251/35/74 250/34/74
f 215/266/74 216/267/74 252/36/74
f 215/266/74 252/36/74 251/35/74
f 216/267/74 217/268/74 253/37/74
f 216/267/74 253/37/74 252/36/74
f 217/268/74 183/233/74 219/3/74
f 217/268/74 219/3/74 253/37/74
f 219/3/111 218/2/111 254/269/111
f 219/3/111 254/269/111 255/270/111
f 218/2/112 220/4/112 256/271/112
f 218/2/112 256/271/112 254/269/112
f 220/4/113 221/5/113 257/272/113
f 220/4/113 257/272/113 256/271/113
f 221/5/114 222/6/114 258/273/114
f 221/5/114 258/273/114 257/272/114
f 222/6/115 223/7/115 259/274/115
f 222/6/115 259/274/115 258/273/115
f 223/7/116 224/8/116 260/275/116
f 223/7/116 260/275/116 259/274/116
f 224/8/117 225/9/117 261/276/117
f 224/8/117 261/276/117 260/275/117
f 225/9/118 226/10/118 262/277/118
f 225/9/118 262/277/118 261/276/118
f 226/10/119 227/11/119 263/278/119
f 226/10/119 263/278/119 262/277/119
f 227/11/120 228/12/120 264/279/120
f 227/11/120 264/279/120 263/278/120
f 228/12/121 229/13/121 265/280/121
f 228/12/121 265/280/121 264/279/121
f 229/13/122 230/14/122 266/281/122
f 229/13/122 266/281/122 265/280/122
f 230/14/123 231/15/123 267/282/123
f 230/14/123 267/282/123 266/281/123
f 231/15/124 232/16/124 268/283/124
f 231/15/124 268/283/124 267/282/124
f 232/16/125 233/17/125 269/284/125
f 232/16/125 269/284/125 268/283/125
f 233/17/126 234/18/126 270/285/126
f 233/17/126 270/285/126 269/284/126
f 234/18/127 235/19/127 271/286/127
f 234/18/127 271/286/127 270/285/127
f 235/19/128 236/20/128 272/287/128
f 235/19/128 272/287/128 271/286/128
f 236/20/129 237/21/129 273/288/129
f 236/20/129 273/288/129 272/287/129
f 237/21/130 238/22/130 274/289/130
f 237/21/130 274/289/130 273/288/130
f 238/22/131 239/23/131 275/290/131
f 238/22/131 275/290/131 274/289/131
f 239/23/132 240/24/132 276/291/132
f 239/23/132 276/291/132 275/290/132
f 240/24/133 241/25/133 277/292/133
f 240/24/133 277/292/133 276/291/133
f 241/25/134 242/26/134 278/293/134
f 241/25/134 278/293/134 277/292/134
f 242/26/135 243/27/135 279/294/135
f 242/26/135 279/294/135 278/293/135
f 243/27/136 244/28/136 280/295/136
f 243/27/136 280/295/136 279/294/136
f 244/28/137 245/29/137 281/296/137
f 244/28/137 281/296/137 280/295/137
f 245/29/138 246/30/138 282/297/138
f 245/29/138 282/297/138 281/296/138
f 246/30/139 247/31/139 283/298/139
f 246/30/139 283/298/139 282/297/139
f 247/31/140 248/32/140 284/299/140
f 247/31/140 284/299/140 283/298/140
f 248/32/141 249/33/141 285/300/141
f 248/32/141 285/300/141 284/299/141
f 249/33/142 250/34/142 286/301/142
f 249/33/142 286/301/142 285/300/142
f 250/34/143 251/35/143 287/302/143
f 250/34/143 287/302/143 286/301/143
f 251/35/144 252/36/144 288/303/144
f 251/35/144 288/303/144 287/302/144
f 252/36/145 253/37/145 289/304/145
f 252/36/145 289/304/145 288/303/145
f 253/37/146 219/3/146 255/270/146
f 253/37/146 255/270/146 289/304/146
f 255/270/147 254/269/147 290/305/147
f 255/270/147 290/305/147 291/306/147
f 254/269/148 256/271/148 292/307/148
f 254/269/148 292/307/148 290/305/148
f 256/271/149 257/272/149 293/308/149
f 256/271/149 293/308/149 292/307/149
f 257/272/150 258/273/150 294/309/150
f 257/272/150 294/309/150 293/308/150
f 258/273/151 259/274/151 295/310/151
f 258/273/151 295/310/151 294/309/151
f 259/274/152 260/275/152 296/311/152
f 259/274/152 296/311/152 295/310/152
f 260/275/153 261/276/153 297/312/153
f 260/275/153 297/312/153 296/311/153
f 261/276/154 262/277/154 298/313/154
f 261/276/154 298/313/154 297/312/154
f 262/277/155 263/278/155 299/314/155
f 262/277/155 299/314/155 298/313/155
f 263/278/156 264/279/156 300/315/156
f 263/278/156 300/315/156 299/314/156
f 264/279/157 265/280/157 301/316/157
f 264/279/157 301/316/157 300/315/157
f 265/280/158 266/281/158 302/317/158
f 265/280/158 302/317/158 301/316/158
f 266/281/159 267/282/159 303/318/159
f 266/281/159 303/318/159 302/317/159
f 267/282/160 268/283/160 304/319/160
f 267/282/160 304/319/160 303/318/160
f 268/283/161 269/284/161 305/320/161
f 268/283/161 305/320/161 304/319/161
f 269/284/162 270/285/162 306/321/162
f 269/284/162 306/321/162 305/320/162
f 270/285/163 271/286/163 307/322/163
f 270/285/163 307/322/163 306/321/163
f 271/286/164 272/287/164 308/323/164
f 271/286/164 308/323/164 307/322/164
f 272/287/165 273/288/165 309/324/165
f 272/287/165 309/324/165 308/323/165
f 273/288/166 274/289/166 310/325/166
f 273/288/166 310/325/166 309/324/166
f 274/289/167 275/290/167 311/326/167
f 274/289/167 311/326/167 310/325/167
f 275/290/168 276/291/168 312/327/168
f 275/290/168 312/327/168 311/326/168
f 276/291/169 277/292/169 313/328/169
f 276/291/169 313/328/169 312/327/169
f 277/292/170 278/293/170 314/329/170
f 277/292/170 314/329/170 313/328/170
f 278/293/171 279/294/171 315/330/171
f 278/293/171 315/330/171 314/329/171
f 279/294/172 280/295/172 316/331/172
f 279/294/172 316/331/172 315/330/172
f 280/295/173 281/296/173 317/332/173
f 280/295/173 317/332/173 316/331/173
f 281/296/174 282/297/174 318/333/174
f 281/296/174 318/333/174 317/332/174
f 282/297/175 283/298/175 319/334/175
f 282/297/175 319/334/175 318/333/175
f 283/298/176 284/299/176 320/335/176
f 283/298/176 320/335/176 319/334/176
f 284/299/177 285/300/177 321/336/177
f 284/299/177 321/336/177 320/335/177
f 285/300/178 286/301/178 322/337/178
f 285/300/178 322/337/178 321/336/178
f 286/301/179 287/302/179 323/338/179
f 286/301/179 323/338/179 322/337/179
f 287/302/180 288/303/180 324/339/180
f 287/302/180 324/339/180 323/338/180
f 288/303/181 289/304/181 325/340/181
f 288/303/181 325/340/181 324/339/181
f 289/304/182 255/270/182 291/306/182
f 289/304/182 291/306/182 325/340/182
f 291/306/74 290/305/74 326/1/74
f 290/305/74 292/307/74 326/1/74
f 292/307/74 293/308/74 326/1/74
f 293/308/74 294/309/74 326/1/74
f 294/309/74 295/310/74 326/1/74
f 295/310/74 296/311/74 326/1/74
f 296/311/74 297/312/74 326/1/74
f 297/312/74 298/313/74 326/1/74
f 298/313/74 299/314/74 326/1/74
f 299/314/74 300/315/74 326/1/74
f 300/315/74 301/316/74 326/1/74
f 301/316/74 302/317/74 326/1/74
f 302/317/74 303/318/74 326/1/74
f 303/318/74 304/319/74 326/1/74
f 304/319/74 305/320/74 326/1/74
f 305/320/74 306/321/74 326/1/74
f 306/321/74 307/322/74 326/1/74
f 307/322/74 308/323/74 326/1/74
f 308/323/74 309/324/74 326/1/74
f 309/324/74 310/325/74 326/1/74
f 310/325/74 311/326/74 326/1/74
f 311/326/74 312/327/74 326/1/74
f 312/327/74 313/328/74 326/1/74
f 313/328/74 314/329/74 326/1/74
f 314/329/74 315/330/74 326/1/74
f 315/330/74 316/331/74 326/1/74
f 316/331/74 317/332/74 326/1/74
f 317/332/74 318/333/74 326/1/74
f 318/333/74 319/334/74 326/1/74
f 319/334/74 320/335/74 326/1/74
f 320/335/74 321/336/74 326/1/74
f 321/336/74 322/337/74 326/1/74
f 322/337/74 323/338/74 326/1/74
f 323/338/74 324/339/74 326/1/74
f 324/339/74 325/340/74 326/1/74
f 325/340/74 291/306/74 326/1/74
f 327/341/183 328/342/183 329/343/183
f 327/341/183 329/343/183 330/344/183
f 331/345/184 332/346/184 333/347/184
f 331/345/184 333/347/184 334/348/184
f 330/349/185 329/350/185 334/351/185
f 330/349/185 334/351/185 333/352/185
f 332/352/186 331/351/186 328/350/186
f 332/352/186 328/350/186 327/349/186
f 332/353/187 327/354/187 330/355/187
f 332/353/187 330/355/187 333/356/187
f 328/354/188 331/353/188 334/356/188
f 328/354/188 334/356/188 329/355/188
f 335/357/189 336/358/189 337/359/189
f 335/357/189 337/359/189 338/360/189
f 336/361/190 339/362/190 340/363/190
f 336/361/190 340/363/190 337/364/190
f 339/362/191 341/365/191 342/366/191
f 339/362/191 342/366/191 340/363/191
f 341/365/192 343/367/192 344/368/192
f 341/365/192 344/368/192 342/366/192
f 343/369/193 345/370/193 346/371/193
f 343/369/193 346/371/193 344/372/193
f 345/370/194 347/373/194 348/374/194
f 345/370/194 348/374/194 346/371/194
f 347/367/195 349/365/195 350/366/195
f 347/367/195 350/366/195 348/368/195
f 349/365/196 351/362/196 352/363/196
f 349/365/196 352/363/196 350/366/196
f 351/362/197 353/361/197 354/364/197
f 351/362/197 354/364/197 352/363/197
f 353/375/198 335/357/198 338/360/198
f 353/375/198 338/360/198 354/376/198
f 338/377/199 337/378/199 355/379/199
f 338/377/199 355/379/199 356/380/199
f 337/378/200 340/381/200 357/382/200
f 337/378/200 357/382/200 355/379/200
f 340/363/201 342/366/201 358/383/201
f 340/363/201 358/383/201 357/384/201
f 342/385/202 344/386/202 359/387/202
f 342/385/202 359/387/202 358/388/202
f 344/372/203 346/371/203 360/389/203
f 344/372/203 360/389/203 359/390/203
f 346/371/204 348/374/204 361/391/204
f 346/371/204 361/391/204 360/389/204
f 348/392/205 350/393/205 362/394/205
f 348/392/205 362/394/205 361/395/205
f 350/366/206 352/363/206 363/384/206
f 350/366/206 363/384/206 362/383/206
f 352/396/207 354/397/207 364/398/207
f 352/396/207 364/398/207 363/399/207
f 354/397/208 338/377/208 356/380/208
f 354/397/208 356/380/208 364/398/208
f 356/380/209 355/379/209 365/400/209
f 355/379/210 357/382/210 365/400/210
f 357/382/211 358/388/211 365/400/211
f 358/388/212 359/387/212 365/400/212
f 359/387/213 360/401/213 365/400/213
f 360/401/214 361/395/214 365/400/214
f 361/395/215 362/394/215 365/400/215
f 362/394/216 363/399/216 365/400/216
f 363/399/217 364/398/217 365/400/217
f 364/398/218 356/380/218 365/400/218
f 366/402/219 367/403/219 368/404/219
f 366/402/219 369/405/219 367/403/219
f 366/402/219 370/406/219 369/405/219
f 366/402/219 371/407/219 370/406/219
f 366/402/219 372/408/219 371/407/219
f 366/402/219 373/409/219 372/408/219
f 366/402/219 374/410/219 373/409/219
f 366/402/219 368/404/219 374/410/219
f 368/411/220 367/412/220 375/413/220
f 368/411/220 375/413/220 376/414/220
f 367/415/221 369/416/221 377/417/221
f 367/415/221 377/417/221 375/418/221
f 369/416/222 370/419/222 378/420/222
f 369/416/222 378/420/222 377/417/222
f 370/421/223 371/422/223 379/423/223
f 370/421/223 379/423/223 378/424/223
f 371/422/224 372/425/224 380/426/224
f 371/422/224 380/426/224 379/423/224
f 372/419/225 373/416/225 381/417/225
f 372/419/225 381/417/225 380/420/225
f 373/416/226 374/415/226 382/418/226
f 373/416/226 382/418/226 381/417/226
f 374/427/227 368/411/227 376/414/227
f 374/427/227 376/414/227 382/428/227
f 376/404/228 375/403/228 383/402/228
f 375/403/228 377/405/228 383/402/228
f 377/405/228 378/406/228 383/402/228
f 378/406/228 379/407/228 383/402/228
f 379/407/228 380/408/228 383/402/228
f 380/408/228 381/409/228 383/402/228
f 381/409/228 382/410/228 383/402/228
f 382/410/228 376/404/228 383/402/228
f 384/429/229 385/430/229 386/431/229
f 384/429/229 386/431/229 387/432/229
f 388/433/230 389/434/230 390/435/230
f 388/433/230 390/435/230 391/436/230
f 387/437/231 386/438/231 391/439/231
f 387/437/231 391/439/231 390/440/231
f 389/440/232 388/439/232 385/438/232
f 389/440/232 385/438/232 384/437/232
f 389/441/233 384/442/233 387/443/233
f 389/441/233 387/443/233 390/444/233
f 385/445/234 388/446/234 391/447/234
f 385/445/234 391/447/234 386/448/234
f 392/449/229 393/450/229 394/451/229
f 392/449/229 394/451/229 395/452/229
f 396/453/230 397/454/230 398/455/230
f 396/453/230 398/455/230 399/456/230
f 395/457/235 394/458/235 399/459/235
f 395/457/235 399/459/235 398/460/235
f 397/460/236 396/459/236 393/458/236
f 397/460/236 393/458/236 392/457/236
f 397/461/237 392/462/237 395/463/237
f 397/461/237 395/463/237 398/464/237
f 393/465/238 396/465/238 399/466/238
f 393/465/238 399/466/238 394/466/238
f 400/467/229 401/468/229 402/469/229
f 400/467/229 402/469/229 403/470/229
f 404/471/230 405/472/230 406/473/230
f 404/471/230 406/473/230 407/474/230
f 403/475/235 402/476/235 407/477/235
f 403/475/235 407/477/235 406/478/235
f 405/478/236 404/477/236 401/476/236
f 405/478/236 401/476/236 400/475/236
f 405/479/237 400/480/237 403/481/237
f 405/479/237 403/481/237 406/482/237
f 401/483/238 404/483/238 407/484/238
f 401/483/238 407/484/238 402/484/238
f 408/485/239 409/486/239 410/487/239
f 408/485/239 410/487/239 411/488/239
f 412/489/240 413/490/240 414/491/240
f 412/489/240 414/491/240 415/492/240
f 411/493/241 410/494/241 415/495/241
f 411/493/241 415/495/241 414/496/241
f 413/496/242 412/495/242 409/494/242
f 413/496/242 409/494/242 408/493/242
f 413/497/243 408/498/243 411/499/243
f 413/497/243 411/499/243 414/500/243
f 409/501/244 412/502/244 415/503/244
f 409/501/244 415/503/244 410/504/244
f 416/505/239 417/506/239 418/507/239
f 416/505/239 418/507/239 419/508/239
f 420/509/240 421/510/240 422/511/240
f 420/509/240 422/511/240 423/512/240
f 419/513/245 418/514/245 423/515/245
f 419/513/245 423/515/245 422/516/245
f 421/516/246 420/515/246 417/514/246
f 421/516/246 417/514/246 416/513/246
f 421/517/247 416/517/247 419/518/247
f 421/517/247 419/518/247 422/518/247
f 417/519/248 420/520/248 423/521/248
f 417/519/248 423/521/248 418/522/248
f 424/523/239 425/524/239 426/525/239
f 424/523/239 426/525/239 427/526/239
f 428/527/240 429/528/240 430/529/240
f 428/527/240 430/529/240 431/530/240
f 427/531/245 426/532/245 431/533/245
f 427/531/245 431/533/245 430/534/245
f 429/534/246 428/533/246 425/532/246
f 429/534/246 425/532/246 424/531/246
f 429/535/247 424/535/247 427/536/247
f 429/535/247 427/536/247 430/536/247
f 425/537/248 428/538/248 431/539/248
f 425/537/248 431/539/248 426/540/248
f 432/541/249 433/542/249 434/543/249
f 432/541/249 434/543/249 435/544/249
f 433/545/250 436/546/250 437/547/250
f 433/545/250 437/547/250 434/548/250
f 436/546/251 438/549/251 439/550/251
f 436/546/251 439/550/251 437/547/251
f 438/549/252 440/551/252 441/552/252
f 438/549/252 441/552/252 439/550/252
f 440/542/253 442/541/253 443/544/253
f 440/542/253 443/544/253 441/543/253
f 442/541/254 444/553/254 445/554/254
f 442/541/254 445/554/254 443/544/254
f 444/551/255 446/549/255 447/550/255
f 444/551/255 447/550/255 445/552/255
f 446/549/256 448/546/256 449/547/256
f 446/549/256 449/547/256 447/550/256
f 448/546/257 450/545/257 451/548/257
f 448/546/257 451/548/257 449/547/257
f 450/553/258 432/541/258 435/544/258
f 450/553/258 435/544/258 451/554/258
f 435/555/259 434/556/259 452/557/259
f 435/555/259 452/557/259 453/558/259
f 434/556/260 437/559/260 454/560/260
f 434/556/260 454/560/260 452/557/260
f 437/547/261 439/550/261 455/561/261
f 437/547/261 455/561/261 454/562/261
f 439/563/262 441/564/262 456/565/262
f 439/563/262 456/565/262 455/566/262
f 441/543/263 443/544/263 457/567/263
f 441/564/263 457/568/263 456/565/263
f 443/569/264 445/570/264 458/571/264
f 443/544/264 458/572/264 457/567/264
f 445/570/265 447/573/265 459/574/265
f 445/570/265 459/574/265 458/571/265
f 447/550/266 449/547/266 460/562/266
f 447/550/266 460/562/266 459/561/266
f 449/575/267 451/576/267 461/577/267
f 449/575/267 461/577/267 460/578/267
f 451/576/268 435/555/268 453/558/268
f 451/554/268 453/567/268 461/572/268
f 453/558/269 452/557/269 462/579/269
f 452/557/270 454/560/270 462/579/270
f 454/560/271 455/566/271 462/579/271
f 455/566/272 456/565/272 462/579/272
f 456/565/273 457/568/273 462/579/273
f 457/568/274 458/571/274 462/579/274
f 458/571/275 459/574/275 462/579/275
f 459/574/276 460/578/276 462/579/276
f 460/578/277 461/577/277 462/579/277
f 461/577/278 453/558/278 462/579/278
f 463/580/279 464/581/279 465/582/279
f 463/580/279 465/582/279 466/583/279
f 467/584/280 468/585/280 469/586/280
f 467/584/280 469/586/280 470/587/280
f 466/588/281 465/589/281 470/590/281
f 466/588/281 470/590/281 469/591/281
f 468/592/282 467/593/282 464/594/282
f 468/592/282 464/594/282 463/595/282
f 468/596/283 463/597/283 466/598/283
f 468/596/283 466/598/283 469/599/283
f 464/597/284 467/596/284 470/599/284
f 464/597/284 470/599/284 465/598/284
f 471/600/285 472/601/285 473/602/285
f 471/600/285 473/602/285 474/603/285
f 472/604/286 475/605/286 476/606/286
f 472/604/286 476/606/286 473/607/286
f 475/605/287 477/608/287 478/609/287
f 475/605/287 478/609/287 476/606/287
f 477/608/288 479/610/288 480/611/288
f 477/608/288 480/611/288 478/609/288
f 479/601/289 481/600/289 482/603/289
f 479/601/289 482/603/289 480/602/289
f 481/600/290 483/612/290 484/613/290
f 481/600/290 484/613/290 482/603/290
f 483/610/291 485/608/291 486/609/291
f 483/610/291 486/609/291 484/611/291
f 485/608/292 487/605/292 488/606/292
f 485/608/292 488/606/292 486/609/292
f 487/605/293 489/604/293 490/607/293
f 487/605/293 490/607/293 488/606/293
f 489/612/294 471/600/294 474/603/294
f 489/612/294 474/603/294 490/613/294
f 474/614/295 473/615/295 491/616/295
f 474/614/295 491/616/295 492/617/295
f 473/615/296 476/618/296 493/619/296
f 473/615/296 493/619/296 491/616/296
f 476/606/297 478/609/297 494/620/297
f 476/606/297 494/620/297 493/621/297
f 478/622/298 480/623/298 495/624/298
f 478/622/298 495/624/298 494/625/298
f 480/602/299 482/603/299 496/626/299
f 480/623/299 496/627/299 495/624/299
f 482/628/300 484/629/300 497/630/300
f 482/603/300 497/631/300 496/626/300
f 484/629/301 486/632/301 498/633/301
f 484/629/301 498/633/301 497/630/301
f 486/609/302 488/606/302 499/621/302
f 486/609/302 499/621/302 498/620/302
f 488/634/303 490/635/303 500/636/303
f 488/634/303 500/636/303 499/637/303
f 490/635/304 474/614/304 492/617/304
f 490/635/304 492/617/304 500/636/304
f 492/617/305 491/616/305 501/638/305
f 491/616/306 493/619/306 501/638/306
f 493/619/307 494/625/307 501/638/307
f 494/625/308 495/624/308 501/638/308
f 495/624/309 496/627/309 501/638/309
f 496/627/310 497/630/310 501/638/310
f 497/630/311 498/633/311 501/638/311
f 498/633/312 499/637/312 501/638/312
f 499/637/313 500/636/313 501/638/313
f 500/636/314 492/617/314 501/638/314
f 502/639/315 503/640/315 504/641/315
f 502/639/315 504/641/315 505/642/315
f 506/643/316 507/644/316 508/645/316
f 506/643/316 508/645/316 509/646/316
f 505/647/317 504/648/317 509/649/317
f 505/647/317 509/649/317 508/650/317
f 507/651/318 506/652/318 503/653/318
f 507/651/318 503/653/318 502/654/318
f 507/655/319 502/656/319 505/657/319
f 507/655/319 505/657/319 508/658/319
f 503/656/320 506/655/320 509/658/320
f 503/656/320 509/658/320 504/657/320
