# Sarn frigate, from tools/gen_fleet.py
# Generated by tools. Edit the generator script.
v 0.000000 0.000000 0.410239
v 0.913964 0.329027 0.410239
v 0.000000 0.329027 1.315063
v 0.000000 0.329027 -0.494585
v -0.913964 0.329027 0.410239
v 0.000000 0.658054 0.410239
v 0.000000 0.437240 0.916941
v 0.063977 0.437240 0.916941
v 0.000000 0.437240 0.980918
v 0.000000 0.437240 0.852963
v -0.063977 0.437240 0.916941
v 0.000000 0.601754 0.916941
v 0.000000 0.510942 0.714260
v 0.063977 0.510942 0.714260
v 0.000000 0.510942 0.778237
v 0.000000 0.510942 0.650283
v -0.063977 0.510942 0.714260
v 0.000000 0.675456 0.714260
v 0.000000 0.584644 0.511579
v 0.063977 0.584644 0.511579
v 0.000000 0.584644 0.575557
v 0.000000 0.584644 0.447602
v -0.063977 0.584644 0.511579
v 0.000000 0.749158 0.511579
v 0.000000 0.584644 0.308899
v 0.063977 0.584644 0.308899
v 0.000000 0.584644 0.372876
v 0.000000 0.584644 0.244921
v -0.063977 0.584644 0.308899
v 0.000000 0.749158 0.308899
v 0.000000 0.510942 0.106218
v 0.063977 0.510942 0.106218
v 0.000000 0.510942 0.170196
v 0.000000 0.510942 0.042241
v -0.063977 0.510942 0.106218
v 0.000000 0.675456 0.106218
v 0.000000 0.437240 -0.096462
v 0.063977 0.437240 -0.096462
v 0.000000 0.437240 -0.032485
v 0.000000 0.437240 -0.160440
v -0.063977 0.437240 -0.096462
v 0.000000 0.601754 -0.096462
v -0.566658 0.255910 0.816953
v -0.566658 0.255910 0.908349
v -0.566658 0.402144 0.908349
v -0.566658 0.402144 0.816953
v -0.347306 0.255910 0.908349
v -0.347306 0.255910 0.816953
v -0.347306 0.402144 0.816953
v -0.347306 0.402144 0.908349
v -0.566658 0.255910 -0.087871
v -0.566658 0.255910 0.003525
v -0.566658 0.402144 0.003525
v -0.566658 0.402144 -0.087871
v -0.347306 0.255910 0.003525
v -0.347306 0.255910 -0.087871
v -0.347306 0.402144 -0.087871
v -0.347306 0.402144 0.003525
v 0.566658 0.255910 0.908349
v 0.566658 0.255910 0.816953
v 0.566658 0.402144 0.816953
v 0.566658 0.402144 0.908349
v 0.347306 0.255910 0.816953
v 0.347306 0.255910 0.908349
v 0.347306 0.402144 0.908349
v 0.347306 0.402144 0.816953
v 0.566658 0.255910 0.003525
v 0.566658 0.255910 -0.087871
v 0.566658 0.402144 -0.087871
v 0.566658 0.402144 0.003525
v 0.347306 0.255910 -0.087871
v 0.347306 0.255910 0.003525
v 0.347306 0.402144 0.003525
v 0.347306 0.402144 -0.087871
v 0.000000 0.329027 0.732216
v 0.338268 0.329027 0.687682
v 0.328806 0.392348 0.652369
v 0.000000 0.392348 0.695657
v 0.309882 0.392348 0.581743
v 0.000000 0.392348 0.622540
v 0.300420 0.329027 0.546430
v 0.000000 0.329027 0.585981
v 0.309882 0.265706 0.581743
v 0.000000 0.265706 0.622540
v 0.328806 0.265706 0.652369
v 0.000000 0.265706 0.695657
v 0.653484 0.329027 0.557115
v 0.635205 0.392348 0.525454
v 0.598646 0.392348 0.462133
v 0.580367 0.329027 0.430472
v 0.598646 0.265706 0.462133
v 0.635205 0.265706 0.525454
v 0.924166 0.329027 0.349413
v 0.898315 0.392348 0.323563
v 0.846614 0.392348 0.271861
v 0.820763 0.329027 0.246010
v 0.846614 0.265706 0.271861
v 0.898315 0.265706 0.323563
v 1.131868 0.329027 0.078731
v 1.100207 0.392348 0.060452
v 1.036886 0.392348 0.023894
v 1.005225 0.329027 0.005614
v 1.036886 0.265706 0.023894
v 1.100207 0.265706 0.060452
v 1.262434 0.329027 -0.236484
v 1.227121 0.392348 -0.245946
v 1.156496 0.392348 -0.264871
v 1.121183 0.329027 -0.274333
v 1.156496 0.265706 -0.264871
v 1.227121 0.265706 -0.245946
v 1.306968 0.329027 -0.574753
v 1.270410 0.392348 -0.574753
v 1.197292 0.392348 -0.574753
v 1.160734 0.329027 -0.574753
v 1.197292 0.265706 -0.574753
v 1.270410 0.265706 -0.574753
v 1.262434 0.329027 -0.913021
v 1.227121 0.392348 -0.903559
v 1.156496 0.392348 -0.884635
v 1.121183 0.329027 -0.875173
v 1.156496 0.265706 -0.884635
v 1.227121 0.265706 -0.903559
v 1.131868 0.329027 -1.228237
v 1.100207 0.392348 -1.209957
v 1.036886 0.392348 -1.173399
v 1.005225 0.329027 -1.155120
v 1.036886 0.265706 -1.173399
v 1.100207 0.265706 -1.209957
v 0.924166 0.329027 -1.498919
v 0.898315 0.392348 -1.473068
v 0.846614 0.392348 -1.421366
v 0.820763 0.329027 -1.395515
v 0.846614 0.265706 -1.421366
v 0.898315 0.265706 -1.473068
v 0.653484 0.329027 -1.706620
v 0.635205 0.392348 -1.674960
v 0.598646 0.392348 -1.611638
v 0.580367 0.329027 -1.579978
v 0.598646 0.265706 -1.611638
v 0.635205 0.265706 -1.674960
v 0.338268 0.329027 -1.837187
v 0.328806 0.392348 -1.801874
v 0.309882 0.392348 -1.731248
v 0.300420 0.329027 -1.695935
v 0.309882 0.265706 -1.731248
v 0.328806 0.265706 -1.801874
v 0.000000 0.329027 -1.881721
v 0.000000 0.392348 -1.845162
v 0.000000 0.392348 -1.772045
v 0.000000 0.329027 -1.735487
v 0.000000 0.265706 -1.772045
v 0.000000 0.265706 -1.845162
v -0.338268 0.329027 -1.837187
v -0.328806 0.392348 -1.801874
v -0.309882 0.392348 -1.731248
v -0.300420 0.329027 -1.695935
v -0.309882 0.265706 -1.731248
v -0.328806 0.265706 -1.801874
v -0.653484 0.329027 -1.706620
v -0.635205 0.392348 -1.674960
v -0.598646 0.392348 -1.611638
v -0.580367 0.329027 -1.579978
v -0.598646 0.265706 -1.611638
v -0.635205 0.265706 -1.674960
v -0.924166 0.329027 -1.498919
v -0.898315 0.392348 -1.473068
v -0.846614 0.392348 -1.421366
v -0.820763 0.329027 -1.395515
v -0.846614 0.265706 -1.421366
v -0.898315 0.265706 -1.473068
v -1.131868 0.329027 -1.228237
v -1.100207 0.392348 -1.209957
v -1.036886 0.392348 -1.173399
v -1.005225 0.329027 -1.155120
v -1.036886 0.265706 -1.173399
v -1.100207 0.265706 -1.209957
v -1.262434 0.329027 -0.913021
v -1.227121 0.392348 -0.903559
v -1.156496 0.392348 -0.884635
v -1.121183 0.329027 -0.875173
v -1.156496 0.265706 -0.884635
v -1.227121 0.265706 -0.903559
v -1.306968 0.329027 -0.574753
v -1.270410 0.392348 -0.574753
v -1.197292 0.392348 -0.574753
v -1.160734 0.329027 -0.574753
v -1.197292 0.265706 -0.574753
v -1.270410 0.265706 -0.574753
v -1.262434 0.329027 -0.236484
v -1.227121 0.392348 -0.245946
v -1.156496 0.392348 -0.264871
v -1.121183 0.329027 -0.274333
v -1.156496 0.265706 -0.264871
v -1.227121 0.265706 -0.245946
v -1.131868 0.329027 0.078731
v -1.100207 0.392348 0.060452
v -1.036886 0.392348 0.023894
v -1.005225 0.329027 0.005614
v -1.036886 0.265706 0.023894
v -1.100207 0.265706 0.060452
v -0.924166 0.329027 0.349413
v -0.898315 0.392348 0.323563
v -0.846614 0.392348 0.271861
v -0.820763 0.329027 0.246010
v -0.846614 0.265706 0.271861
v -0.898315 0.265706 0.323563
v -0.653484 0.329027 0.557115
v -0.635205 0.392348 0.525454
v -0.598646 0.392348 0.462133
v -0.580367 0.329027 0.430472
v -0.598646 0.265706 0.462133
v -0.635205 0.265706 0.525454
v -0.338268 0.329027 0.687682
v -0.328806 0.392348 0.652369
v -0.309882 0.392348 0.581743
v -0.300420 0.329027 0.546430
v -0.309882 0.265706 0.581743
v -0.328806 0.265706 0.652369
v 0.977150 0.237631 -1.100282
v 1.159943 0.237631 -1.100282
v 1.159943 0.420423 -1.100282
v 0.977150 0.420423 -1.100282
v 1.159943 0.237631 -1.283074
v 0.977150 0.237631 -1.283074
v 0.977150 0.420423 -1.283074
v 1.159943 0.420423 -1.283074
v -0.091396 0.237631 -1.717207
v 0.091396 0.237631 -1.717207
v 0.091396 0.420423 -1.717207
v -0.091396 0.420423 -1.717207
v 0.091396 0.237631 -1.900000
v -0.091396 0.237631 -1.900000
v -0.091396 0.420423 -1.900000
v 0.091396 0.420423 -1.900000
v -1.159943 0.237631 -1.100282
v -0.977150 0.237631 -1.100282
v -0.977150 0.420423 -1.100282
v -1.159943 0.420423 -1.100282
v -0.977150 0.237631 -1.283074
v -1.159943 0.237631 -1.283074
v -1.159943 0.420423 -1.283074
v -0.977150 0.420423 -1.283074
v -1.159943 0.237631 0.133569
v -0.977150 0.237631 0.133569
v -0.977150 0.420423 0.133569
v -1.159943 0.420423 0.133569
v -0.977150 0.237631 -0.049223
v -1.159943 0.237631 -0.049223
v -1.159943 0.420423 -0.049223
v -0.977150 0.420423 -0.049223
v -0.091396 0.237631 0.750495
v 0.091396 0.237631 0.750495
v 0.091396 0.420423 0.750495
v -0.091396 0.420423 0.750495
v 0.091396 0.237631 0.567702
v -0.091396 0.237631 0.567702
v -0.091396 0.420423 0.567702
v 0.091396 0.420423 0.567702
v 0.977150 0.237631 0.133569
v 1.159943 0.237631 0.133569
v 1.159943 0.420423 0.133569
v 0.977150 0.420423 0.133569
v 1.159943 0.237631 -0.049223
v 0.977150 0.237631 -0.049223
v 0.977150 0.420423 -0.049223
v 1.159943 0.420423 -0.049223
v 1.233851 0.329027 -0.986036
v 1.337254 0.225624 -0.986036
v 1.233851 0.182793 -0.986036
v 1.380085 0.329027 -0.986036
v 1.337254 0.432430 -0.986036
v 1.233851 0.475261 -0.986036
v 1.130448 0.432430 -0.986036
v 1.087617 0.329027 -0.986036
v 1.130448 0.225624 -0.986036
v 1.337254 0.225624 -0.346262
v 1.233851 0.182793 -0.346262
v 1.380085 0.329027 -0.346262
v 1.337254 0.432430 -0.346262
v 1.233851 0.475261 -0.346262
v 1.130448 0.432430 -0.346262
v 1.087617 0.329027 -0.346262
v 1.130448 0.225624 -0.346262
v 1.233851 0.329027 -0.346262
v 1.233851 0.447842 -0.958617
v 1.317866 0.413042 -0.958617
v 1.294342 0.389518 -0.986036
v 1.233851 0.414574 -0.986036
v 1.352666 0.329027 -0.958617
v 1.319398 0.329027 -0.986036
v 1.317866 0.245012 -0.958617
v 1.294342 0.268536 -0.986036
v 1.233851 0.210212 -0.958617
v 1.233851 0.243480 -0.986036
v 1.149836 0.245012 -0.958617
v 1.173360 0.268536 -0.986036
v 1.115036 0.329027 -0.958617
v 1.148304 0.329027 -0.986036
v 1.149836 0.413042 -0.958617
v 1.173360 0.389518 -0.986036
v 1.233851 0.329027 -1.004316
v -1.233851 0.329027 -0.986036
v -1.130448 0.225624 -0.986036
v -1.233851 0.182793 -0.986036
v -1.087617 0.329027 -0.986036
v -1.130448 0.432430 -0.986036
v -1.233851 0.475261 -0.986036
v -1.337254 0.432430 -0.986036
v -1.380085 0.329027 -0.986036
v -1.337254 0.225624 -0.986036
v -1.130448 0.225624 -0.346262
v -1.233851 0.182793 -0.346262
v -1.087617 0.329027 -0.346262
v -1.130448 0.432430 -0.346262
v -1.233851 0.475261 -0.346262
v -1.337254 0.432430 -0.346262
v -1.380085 0.329027 -0.346262
v -1.337254 0.225624 -0.346262
v -1.233851 0.329027 -0.346262
v -1.233851 0.447842 -0.958617
v -1.149836 0.413042 -0.958617
v -1.173360 0.389518 -0.986036
v -1.233851 0.414574 -0.986036
v -1.115036 0.329027 -0.958617
v -1.148304 0.329027 -0.986036
v -1.149836 0.245012 -0.958617
v -1.173360 0.268536 -0.986036
v -1.233851 0.210212 -0.958617
v -1.233851 0.243480 -0.986036
v -1.317866 0.245012 -0.958617
v -1.294342 0.268536 -0.986036
v -1.352666 0.329027 -0.958617
v -1.319398 0.329027 -0.986036
v -1.317866 0.413042 -0.958617
v -1.294342 0.389518 -0.986036
v -1.233851 0.329027 -1.004316
v -1.270410 0.274189 -0.181748
v 0.000000 0.274189 -0.181748
v 0.000000 0.383865 -0.181748
v -1.270410 0.383865 -0.181748
v 0.000000 0.274189 -0.419379
v -1.270410 0.274189 -0.419379
v -1.270410 0.383865 -0.419379
v 0.000000 0.383865 -0.419379
v 0.000000 0.274189 -0.181748
v 1.270410 0.274189 -0.181748
v 1.270410 0.383865 -0.181748
v 0.000000 0.383865 -0.181748
v 1.270410 0.274189 -0.419379
v 0.000000 0.274189 -0.419379
v 0.000000 0.383865 -0.419379
v 1.270410 0.383865 -0.419379
v 0.000000 0.329027 1.077433
v 0.221624 0.201072 1.077433
v 0.000000 0.073117 1.077433
v 0.221624 0.456982 1.077433
v 0.000000 0.584937 1.077433
v -0.221624 0.456982 1.077433
v -0.221624 0.201072 1.077433
v 0.000000 0.329027 1.900000
v -0.032642 0.438703 1.168829
v -0.032642 0.438703 1.625811
v -0.032642 0.548378 1.488716
v 0.032642 0.438703 1.168829
v 0.032642 0.548378 1.488716
v 0.032642 0.438703 1.625811
v -0.032642 0.548378 1.260225
v 0.032642 0.548378 1.260225
v -0.078661 0.245921 1.168829
v -0.078661 0.245921 1.625811
v -0.173643 0.191083 1.488716
v -0.111303 0.302458 1.168829
v -0.206285 0.247620 1.488716
v -0.111303 0.302458 1.625811
v -0.173643 0.191083 1.260225
v -0.206285 0.247620 1.260225
v 0.111303 0.302458 1.168829
v 0.111303 0.302458 1.625811
v 0.206285 0.247620 1.488716
v 0.078661 0.245921 1.168829
v 0.173643 0.191083 1.488716
v 0.078661 0.245921 1.625811
v 0.206285 0.247620 1.260225
v 0.173643 0.191083 1.260225
vt 0.445312 0.828125
vt 0.546875 0.828125
vt 0.445312 0.992188
vt 0.445312 0.664062
vt 0.343750 0.828125
vt 0.617188 0.429688
vt 0.664062 0.429688
vt 0.617188 0.476562
vt 0.617188 0.382812
vt 0.570312 0.429688
vt 0.765625 0.382812
vt 0.718750 0.382812
vt 0.718750 0.476562
vt 0.671875 0.382812
vt 0.617188 0.429688
vt 0.664062 0.429688
vt 0.617188 0.476562
vt 0.617188 0.382812
vt 0.570312 0.429688
vt 0.765625 0.382812
vt 0.718750 0.382812
vt 0.718750 0.476562
vt 0.765625 0.382812
vt 0.718750 0.382812
vt 0.718750 0.476562
vt 0.671875 0.382812
vt 0.617188 0.429688
vt 0.664062 0.429688
vt 0.617188 0.476562
vt 0.617188 0.382812
vt 0.570312 0.429688
vt 0.765625 0.382812
vt 0.718750 0.382812
vt 0.718750 0.476562
vt 0.671875 0.382812
vt 0.617188 0.429688
vt 0.664062 0.429688
vt 0.617188 0.476562
vt 0.617188 0.382812
vt 0.570312 0.429688
vt 0.718750 0.382812
vt 0.765625 0.382812
vt 0.718750 0.476562
vt 0.718750 0.382812
vt 0.671875 0.382812
vt 0.718750 0.476562
vt 0.718750 0.382812
vt 0.671875 0.382812
vt 0.718750 0.476562
vt 0.671875 0.382812
vt 0.617188 0.429688
vt 0.664062 0.429688
vt 0.617188 0.476562
vt 0.617188 0.382812
vt 0.570312 0.429688
vt 0.765625 0.382812
vt 0.718750 0.382812
vt 0.718750 0.476562
vt 0.765625 0.382812
vt 0.718750 0.382812
vt 0.718750 0.476562
vt 0.671875 0.382812
vt 0.617188 0.429688
vt 0.664062 0.429688
vt 0.617188 0.476562
vt 0.617188 0.382812
vt 0.570312 0.429688
vt 0.718750 0.382812
vt 0.765625 0.382812
vt 0.718750 0.476562
vt 0.718750 0.382812
vt 0.671875 0.382812
vt 0.718750 0.476562
vt 0.671875 0.382812
vt 0.851562 0.210938
vt 0.945312 0.210938
vt 0.945312 0.273438
vt 0.851562 0.273438
vt 0.851562 0.210938
vt 0.851562 0.273438
vt 0.945312 0.273438
vt 0.945312 0.210938
vt 0.945312 0.210938
vt 0.851562 0.210938
vt 0.851562 0.273438
vt 0.945312 0.273438
vt 0.773438 0.140625
vt 0.835938 0.140625
vt 0.835938 0.187500
vt 0.773438 0.187500
vt 0.851562 0.210938
vt 0.945312 0.210938
vt 0.945312 0.273438
vt 0.851562 0.273438
vt 0.851562 0.210938
vt 0.851562 0.273438
vt 0.945312 0.273438
vt 0.945312 0.210938
vt 0.945312 0.210938
vt 0.851562 0.210938
vt 0.851562 0.273438
vt 0.945312 0.273438
vt 0.773438 0.140625
vt 0.835938 0.140625
vt 0.835938 0.187500
vt 0.773438 0.187500
vt 0.945312 0.210938
vt 0.851562 0.210938
vt 0.851562 0.273438
vt 0.945312 0.273438
vt 0.945312 0.273438
vt 0.945312 0.210938
vt 0.851562 0.210938
vt 0.851562 0.273438
vt 0.773438 0.140625
vt 0.835938 0.140625
vt 0.835938 0.187500
vt 0.773438 0.187500
vt 0.945312 0.210938
vt 0.851562 0.210938
vt 0.851562 0.273438
vt 0.945312 0.273438
vt 0.945312 0.210938
vt 0.851562 0.210938
vt 0.851562 0.273438
vt 0.945312 0.273438
vt 0.945312 0.273438
vt 0.945312 0.210938
vt 0.851562 0.210938
vt 0.851562 0.273438
vt 0.773438 0.140625
vt 0.835938 0.140625
vt 0.835938 0.187500
vt 0.773438 0.187500
vt 0.945312 0.210938
vt 0.851562 0.210938
vt 0.851562 0.273438
vt 0.945312 0.273438
vt 0.515625 0.117188
vt 0.547977 0.117188
vt 0.547072 0.132812
vt 0.515625 0.132812
vt 0.718750 0.272563
vt 0.750197 0.271528
vt 0.748387 0.269840
vt 0.718750 0.270815
vt 0.515625 0.132812
vt 0.545262 0.132812
vt 0.544358 0.117188
vt 0.515625 0.117188
vt 0.545262 0.101562
vt 0.515625 0.101562
vt 0.515625 0.101562
vt 0.547072 0.101562
vt 0.578125 0.117188
vt 0.576377 0.132812
vt 0.779502 0.268494
vt 0.776005 0.266980
vt 0.572880 0.132812
vt 0.571132 0.117188
vt 0.572880 0.101562
vt 0.576377 0.101562
vt 0.604013 0.117188
vt 0.601541 0.132812
vt 0.804666 0.263666
vt 0.799721 0.262430
vt 0.596596 0.132812
vt 0.594124 0.117188
vt 0.596596 0.101562
vt 0.601541 0.101562
vt 0.604013 0.117188
vt 0.578125 0.117188
vt 0.576377 0.132812
vt 0.601541 0.132812
vt 0.823975 0.257375
vt 0.817919 0.256501
vt 0.596596 0.132812
vt 0.572880 0.132812
vt 0.571132 0.117188
vt 0.594124 0.117188
vt 0.572880 0.101562
vt 0.596596 0.101562
vt 0.601541 0.101562
vt 0.576377 0.101562
vt 0.547977 0.117188
vt 0.547072 0.132812
vt 0.836113 0.250049
vt 0.829359 0.249597
vt 0.545262 0.132812
vt 0.544358 0.117188
vt 0.545262 0.101562
vt 0.547072 0.101562
vt 0.515625 0.117188
vt 0.515625 0.132812
vt 0.840253 0.242188
vt 0.833260 0.242188
vt 0.515625 0.101562
vt 0.483273 0.117188
vt 0.484178 0.132812
vt 0.836113 0.234326
vt 0.829359 0.234778
vt 0.485988 0.132812
vt 0.486892 0.117188
vt 0.485988 0.101562
vt 0.484178 0.101562
vt 0.453125 0.117188
vt 0.454873 0.132812
vt 0.823975 0.227000
vt 0.817919 0.227874
vt 0.458370 0.132812
vt 0.460118 0.117188
vt 0.458370 0.101562
vt 0.454873 0.101562
vt 0.427237 0.117188
vt 0.429709 0.132812
vt 0.804666 0.220709
vt 0.799721 0.221945
vt 0.434654 0.132812
vt 0.437126 0.117188
vt 0.434654 0.101562
vt 0.429709 0.101562
vt 0.604013 0.117188
vt 0.578125 0.117188
vt 0.576377 0.132812
vt 0.601541 0.132812
vt 0.779502 0.215881
vt 0.776005 0.217395
vt 0.596596 0.132812
vt 0.572880 0.132812
vt 0.571132 0.117188
vt 0.594124 0.117188
vt 0.572880 0.101562
vt 0.596596 0.101562
vt 0.601541 0.101562
vt 0.576377 0.101562
vt 0.547977 0.117188
vt 0.547072 0.132812
vt 0.750197 0.212847
vt 0.748387 0.214535
vt 0.545262 0.132812
vt 0.544358 0.117188
vt 0.545262 0.101562
vt 0.547072 0.101562
vt 0.718750 0.211812
vt 0.718750 0.213560
vt 0.483273 0.117188
vt 0.484178 0.132812
vt 0.687303 0.212847
vt 0.689113 0.214535
vt 0.485988 0.132812
vt 0.486892 0.117188
vt 0.485988 0.101562
vt 0.484178 0.101562
vt 0.453125 0.117188
vt 0.454873 0.132812
vt 0.657998 0.215881
vt 0.661495 0.217395
vt 0.458370 0.132812
vt 0.460118 0.117188
vt 0.458370 0.101562
vt 0.454873 0.101562
vt 0.427237 0.117188
vt 0.429709 0.132812
vt 0.632834 0.220709
vt 0.637779 0.221945
vt 0.434654 0.132812
vt 0.437126 0.117188
vt 0.434654 0.101562
vt 0.429709 0.101562
vt 0.613525 0.227000
vt 0.619581 0.227874
vt 0.601387 0.234326
vt 0.608141 0.234778
vt 0.597247 0.242188
vt 0.604240 0.242188
vt 0.601387 0.250049
vt 0.608141 0.249597
vt 0.613525 0.257375
vt 0.619581 0.256501
vt 0.632834 0.263666
vt 0.637779 0.262430
vt 0.427237 0.117188
vt 0.453125 0.117188
vt 0.454873 0.132812
vt 0.429709 0.132812
vt 0.657998 0.268494
vt 0.661495 0.266980
vt 0.434654 0.132812
vt 0.458370 0.132812
vt 0.460118 0.117188
vt 0.437126 0.117188
vt 0.458370 0.101562
vt 0.434654 0.101562
vt 0.429709 0.101562
vt 0.454873 0.101562
vt 0.483273 0.117188
vt 0.484178 0.132812
vt 0.687303 0.271528
vt 0.689113 0.269840
vt 0.485988 0.132812
vt 0.486892 0.117188
vt 0.485988 0.101562
vt 0.484178 0.101562
vt 0.671875 0.382812
vt 0.765625 0.382812
vt 0.765625 0.476562
vt 0.671875 0.476562
vt 0.765625 0.382812
vt 0.671875 0.382812
vt 0.671875 0.476562
vt 0.765625 0.476562
vt 0.570312 0.476562
vt 0.664062 0.476562
vt 0.664062 0.382812
vt 0.570312 0.382812
vt 0.671875 0.382812
vt 0.765625 0.382812
vt 0.765625 0.476562
vt 0.671875 0.476562
vt 0.671875 0.382812
vt 0.765625 0.382812
vt 0.765625 0.476562
vt 0.671875 0.476562
vt 0.765625 0.382812
vt 0.671875 0.382812
vt 0.671875 0.476562
vt 0.765625 0.476562
vt 0.570312 0.476562
vt 0.664062 0.476562
vt 0.664062 0.382812
vt 0.570312 0.382812
vt 0.671875 0.382812
vt 0.765625 0.382812
vt 0.765625 0.476562
vt 0.671875 0.476562
vt 0.671875 0.382812
vt 0.765625 0.382812
vt 0.765625 0.476562
vt 0.671875 0.476562
vt 0.765625 0.382812
vt 0.671875 0.382812
vt 0.671875 0.476562
vt 0.765625 0.476562
vt 0.570312 0.476562
vt 0.664062 0.476562
vt 0.664062 0.382812
vt 0.570312 0.382812
vt 0.671875 0.382812
vt 0.765625 0.382812
vt 0.765625 0.476562
vt 0.671875 0.476562
vt 0.671875 0.382812
vt 0.765625 0.382812
vt 0.765625 0.476562
vt 0.671875 0.476562
vt 0.765625 0.382812
vt 0.671875 0.382812
vt 0.671875 0.476562
vt 0.765625 0.476562
vt 0.570312 0.476562
vt 0.664062 0.476562
vt 0.664062 0.382812
vt 0.570312 0.382812
vt 0.671875 0.382812
vt 0.765625 0.382812
vt 0.765625 0.476562
vt 0.671875 0.476562
vt 0.671875 0.382812
vt 0.765625 0.382812
vt 0.765625 0.476562
vt 0.671875 0.476562
vt 0.765625 0.382812
vt 0.671875 0.382812
vt 0.671875 0.476562
vt 0.765625 0.476562
vt 0.570312 0.476562
vt 0.664062 0.476562
vt 0.664062 0.382812
vt 0.570312 0.382812
vt 0.671875 0.382812
vt 0.765625 0.382812
vt 0.765625 0.476562
vt 0.671875 0.476562
vt 0.671875 0.382812
vt 0.765625 0.382812
vt 0.765625 0.476562
vt 0.671875 0.476562
vt 0.765625 0.382812
vt 0.671875 0.382812
vt 0.671875 0.476562
vt 0.765625 0.476562
vt 0.570312 0.476562
vt 0.664062 0.476562
vt 0.664062 0.382812
vt 0.570312 0.382812
vt 0.671875 0.382812
vt 0.765625 0.382812
vt 0.765625 0.476562
vt 0.671875 0.476562
vt 0.539062 0.234375
vt 0.572208 0.206754
vt 0.539062 0.195312
vt 0.585938 0.234375
vt 0.572208 0.261996
vt 0.539062 0.273438
vt 0.505917 0.261996
vt 0.492188 0.234375
vt 0.505917 0.206754
vt 0.589844 0.664062
vt 0.614703 0.664062
vt 0.614703 0.992188
vt 0.589844 0.992188
vt 0.492188 0.308316
vt 0.492188 0.335938
vt 0.867188 0.335938
vt 0.867188 0.308316
vt 0.492188 0.363559
vt 0.867188 0.363559
vt 0.564985 0.664062
vt 0.564985 0.992188
vt 0.437500 0.195312
vt 0.470646 0.206754
vt 0.437500 0.234375
vt 0.484375 0.234375
vt 0.470646 0.261996
vt 0.437500 0.273438
vt 0.404354 0.261996
vt 0.390625 0.234375
vt 0.404354 0.206754
vt 0.054688 0.375000
vt 0.087833 0.361271
vt 0.078552 0.351990
vt 0.054688 0.361875
vt 0.101562 0.328125
vt 0.088437 0.328125
vt 0.087833 0.294979
vt 0.078552 0.304260
vt 0.054688 0.281250
vt 0.054688 0.294375
vt 0.021542 0.294979
vt 0.030823 0.304260
vt 0.007812 0.328125
vt 0.020937 0.328125
vt 0.021542 0.361271
vt 0.030823 0.351990
vt 0.054688 0.328125
vt 0.539062 0.234375
vt 0.572208 0.206754
vt 0.539062 0.195312
vt 0.585938 0.234375
vt 0.572208 0.261996
vt 0.539062 0.273438
vt 0.505917 0.261996
vt 0.492188 0.234375
vt 0.505917 0.206754
vt 0.589844 0.664062
vt 0.614703 0.664062
vt 0.614703 0.992188
vt 0.589844 0.992188
vt 0.492188 0.308316
vt 0.492188 0.335938
vt 0.867188 0.335938
vt 0.867188 0.308316
vt 0.492188 0.363559
vt 0.867188 0.363559
vt 0.564985 0.664062
vt 0.564985 0.992188
vt 0.437500 0.195312
vt 0.470646 0.206754
vt 0.437500 0.234375
vt 0.484375 0.234375
vt 0.470646 0.261996
vt 0.437500 0.273438
vt 0.404354 0.261996
vt 0.390625 0.234375
vt 0.404354 0.206754
vt 0.054688 0.375000
vt 0.087833 0.361271
vt 0.078552 0.351990
vt 0.054688 0.361875
vt 0.101562 0.328125
vt 0.088438 0.328125
vt 0.087833 0.294979
vt 0.078552 0.304260
vt 0.054688 0.281250
vt 0.054688 0.294375
vt 0.021542 0.294979
vt 0.030823 0.304260
vt 0.007812 0.328125
vt 0.020938 0.328125
vt 0.021542 0.361271
vt 0.030823 0.351990
vt 0.054688 0.328125
vt 0.187500 0.484375
vt 0.312500 0.484375
vt 0.312500 0.656250
vt 0.187500 0.656250
vt 0.312500 0.484375
vt 0.187500 0.484375
vt 0.187500 0.656250
vt 0.312500 0.656250
vt 0.320312 0.656250
vt 0.382812 0.656250
vt 0.382812 0.484375
vt 0.320312 0.484375
vt 0.187500 0.484375
vt 0.312500 0.484375
vt 0.312500 0.656250
vt 0.187500 0.656250
vt 0.187500 0.484375
vt 0.312500 0.484375
vt 0.312500 0.656250
vt 0.187500 0.656250
vt 0.312500 0.484375
vt 0.187500 0.484375
vt 0.187500 0.656250
vt 0.312500 0.656250
vt 0.320312 0.656250
vt 0.382812 0.656250
vt 0.382812 0.484375
vt 0.320312 0.484375
vt 0.187500 0.484375
vt 0.312500 0.484375
vt 0.312500 0.656250
vt 0.187500 0.656250
vt 0.101562 0.429688
vt 0.195312 0.406250
vt 0.101562 0.382812
vt 0.195312 0.453125
vt 0.101563 0.476562
vt 0.007813 0.453125
vt 0.007812 0.406250
vt 0.093750 0.484375
vt 0.179688 0.484375
vt 0.093750 0.656250
vt 0.007812 0.406250
vt 0.007812 0.453125
vt 0.195312 0.429688
vt 0.007813 0.484375
vt 0.671875 0.382812
vt 0.765625 0.382812
vt 0.737500 0.476562
vt 0.690625 0.476562
vt 0.570312 0.382812
vt 0.664062 0.382812
vt 0.664062 0.476562
vt 0.570312 0.476562
vt 0.664062 0.448437
vt 0.570312 0.448437
vt 0.664062 0.401563
vt 0.570312 0.401563
vt 0.671875 0.476562
vt 0.765625 0.476562
vt 0.765625 0.382812
vt 0.671875 0.382812
vt 0.664062 0.382812
vt 0.664062 0.476562
vt 0.594290 0.448437
vt 0.640085 0.382812
vt 0.570312 0.448437
vt 0.640085 0.476562
vt 0.594290 0.401563
vt 0.570312 0.401563
vt 0.671875 0.428972
vt 0.671875 0.476562
vt 0.765625 0.476562
vt 0.765625 0.428972
vt 0.737500 0.430403
vt 0.737500 0.382812
vt 0.690625 0.430403
vt 0.690625 0.382812
vt 0.695853 0.382812
vt 0.671875 0.430403
vt 0.741647 0.476562
vt 0.765625 0.428972
vt 0.594290 0.382812
vt 0.594290 0.476562
vt 0.664062 0.448437
vt 0.570312 0.382812
vt 0.640085 0.448437
vt 0.570312 0.476562
vt 0.664062 0.401563
vt 0.640085 0.401563
vt 0.671875 0.476562
vt 0.671875 0.428972
vt 0.765625 0.428972
vt 0.765625 0.476562
vt 0.737500 0.382812
vt 0.737500 0.430403
vt 0.690625 0.382812
vt 0.690625 0.430403
vt 0.765625 0.430403
vt 0.741647 0.382812
vt 0.671875 0.428972
vt 0.695853 0.476562
vn 0.320481 -0.890224 0.323718
vn 0.320481 -0.890224 -0.323718
vn -0.320481 -0.890224 -0.323718
vn -0.320481 -0.890224 0.323718
vn 0.320481 0.890224 0.323718
vn 0.320481 0.890224 -0.323718
vn -0.320481 0.890224 -0.323718
vn -0.320481 0.890224 0.323718
vn 0.000000 -1.000000 0.000000
vn 0.681799 0.265144 0.681799
vn 0.681799 0.265144 -0.681799
vn -0.681799 0.265144 -0.681799
vn -0.681799 0.265144 0.681799
vn 0.000000 -1.000000 0.000000
vn 0.681799 0.265144 0.681799
vn 0.681799 0.265144 -0.681799
vn -0.681799 0.265144 -0.681799
vn -0.681799 0.265144 0.681799
vn 0.000000 -1.000000 0.000000
vn 0.681799 0.265144 0.681799
vn 0.681799 0.265144 -0.681799
vn -0.681799 0.265144 -0.681799
vn -0.681799 0.265144 0.681799
vn 0.000000 -1.000000 0.000000
vn 0.681799 0.265144 0.681799
vn 0.681799 0.265144 -0.681799
vn -0.681799 0.265144 -0.681799
vn -0.681799 0.265144 0.681799
vn 0.000000 -1.000000 0.000000
vn 0.681799 0.265144 0.681799
vn 0.681799 0.265144 -0.681799
vn -0.681799 0.265144 -0.681799
vn -0.681799 0.265144 0.681799
vn 0.000000 -1.000000 0.000000
vn 0.681799 0.265144 0.681799
vn 0.681799 0.265144 -0.681799
vn -0.681799 0.265144 -0.681799
vn -0.681799 0.265144 0.681799
vn -1.000000 0.000000 0.000000
vn 1.000000 0.000000 0.000000
vn 0.000000 1.000000 0.000000
vn 0.000000 -1.000000 0.000000
vn 0.000000 0.000000 -1.000000
vn 0.000000 0.000000 1.000000
vn -1.000000 0.000000 0.000000
vn 1.000000 0.000000 0.000000
vn 0.000000 1.000000 0.000000
vn 0.000000 -1.000000 0.000000
vn 0.000000 0.000000 -1.000000
vn 0.000000 0.000000 1.000000
vn 1.000000 0.000000 0.000000
vn -1.000000 0.000000 0.000000
vn 0.000000 1.000000 0.000000
vn 0.000000 -1.000000 0.000000
vn 0.000000 0.000000 1.000000
vn 0.000000 0.000000 -1.000000
vn 1.000000 0.000000 0.000000
vn -1.000000 0.000000 0.000000
vn 0.000000 1.000000 0.000000
vn 0.000000 -1.000000 0.000000
vn 0.000000 0.000000 1.000000
vn 0.000000 0.000000 -1.000000
vn 0.113281 0.496782 0.860451
vn 0.000000 1.000000 0.000000
vn -0.113281 0.496782 -0.860451
vn -0.113281 -0.496782 -0.860451
vn 0.000000 -1.000000 0.000000
vn 0.113281 -0.496782 0.860451
vn 0.332122 0.496782 0.801813
vn -0.332122 0.496782 -0.801813
vn -0.332122 -0.496782 -0.801813
vn 0.332122 -0.496782 0.801813
vn 0.528329 0.496782 0.688532
vn -0.528329 0.496782 -0.688532
vn -0.528329 -0.496782 -0.688532
vn 0.528329 -0.496782 0.688532
vn 0.688532 0.496782 0.528329
vn -0.688532 0.496782 -0.528329
vn -0.688532 -0.496782 -0.528329
vn 0.688532 -0.496782 0.528329
vn 0.801813 0.496782 0.332122
vn -0.801813 0.496782 -0.332122
vn -0.801813 -0.496782 -0.332122
vn 0.801813 -0.496782 0.332122
vn 0.860451 0.496782 0.113281
vn -0.860451 0.496782 -0.113281
vn -0.860451 -0.496782 -0.113281
vn 0.860451 -0.496782 0.113281
vn 0.860451 0.496782 -0.113281
vn -0.860451 0.496782 0.113281
vn -0.860451 -0.496782 0.113281
vn 0.860451 -0.496782 -0.113281
vn 0.801813 0.496782 -0.332122
vn -0.801813 0.496782 0.332122
vn -0.801813 -0.496782 0.332122
vn 0.801813 -0.496782 -0.332122
vn 0.688532 0.496782 -0.528329
vn -0.688532 0.496782 0.528329
vn -0.688532 -0.496782 0.528329
vn 0.688532 -0.496782 -0.528329
vn 0.528329 0.496782 -0.688532
vn -0.528329 0.496782 0.688532
vn -0.528329 -0.496782 0.688532
vn 0.528329 -0.496782 -0.688532
vn 0.332122 0.496782 -0.801813
vn -0.332122 0.496782 0.801813
vn -0.332122 -0.496782 0.801813
vn 0.332122 -0.496782 -0.801813
vn 0.113281 0.496782 -0.860451
vn -0.113281 0.496782 0.860451
vn -0.113281 -0.496782 0.860451
vn 0.113281 -0.496782 -0.860451
vn 0.000000 0.000000 1.000000
vn 0.000000 0.000000 -1.000000
vn -0.000000 1.000000 0.000000
vn 0.000000 -1.000000 0.000000
vn -1.000000 0.000000 0.000000
vn 1.000000 0.000000 0.000000
vn 0.000000 0.000000 1.000000
vn 0.000000 0.000000 -1.000000
vn -0.000000 1.000000 0.000000
vn 0.000000 -1.000000 0.000000
vn -1.000000 0.000000 0.000000
vn 1.000000 0.000000 0.000000
vn 0.000000 0.000000 1.000000
vn 0.000000 0.000000 -1.000000
vn -0.000000 1.000000 0.000000
vn 0.000000 -1.000000 0.000000
vn -1.000000 0.000000 0.000000
vn 1.000000 0.000000 0.000000
vn 0.000000 0.000000 1.000000
vn 0.000000 0.000000 -1.000000
vn -0.000000 1.000000 0.000000
vn 0.000000 -1.000000 0.000000
vn -1.000000 0.000000 0.000000
vn 1.000000 0.000000 0.000000
vn 0.000000 0.000000 1.000000
vn 0.000000 0.000000 -1.000000
vn -0.000000 1.000000 0.000000
vn 0.000000 -1.000000 0.000000
vn -1.000000 0.000000 0.000000
vn 1.000000 0.000000 0.000000
vn 0.000000 0.000000 1.000000
vn 0.000000 0.000000 -1.000000
vn -0.000000 1.000000 0.000000
vn 0.000000 -1.000000 0.000000
vn -1.000000 0.000000 0.000000
vn 1.000000 0.000000 0.000000
vn 0.000000 0.000000 -1.000000
vn 0.382683 -0.923880 0.000000
vn 0.923880 -0.382683 0.000000
vn 0.923880 0.382683 -0.000000
vn 0.382683 0.923880 0.000000
vn -0.382683 0.923880 0.000000
vn -0.923880 0.382683 -0.000000
vn -0.923880 -0.382683 0.000000
vn -0.382683 -0.923880 0.000000
vn 0.000000 0.000000 1.000000
vn 0.254750 0.615021 -0.746225
vn 0.615021 0.254750 -0.746225
vn 0.615021 -0.254750 -0.746225
vn 0.254750 -0.615021 -0.746225
vn -0.254750 -0.615021 -0.746225
vn -0.615021 -0.254750 -0.746225
vn -0.615021 0.254750 -0.746225
vn -0.254750 0.615021 -0.746225
vn 0.086231 0.208180 -0.974282
vn 0.208180 0.086231 -0.974282
vn 0.208180 -0.086231 -0.974282
vn 0.086231 -0.208180 -0.974282
vn -0.086231 -0.208180 -0.974282
vn -0.208180 -0.086231 -0.974282
vn -0.208180 0.086231 -0.974282
vn -0.086231 0.208180 -0.974282
vn 0.000000 0.000000 -1.000000
vn 0.382683 -0.923880 0.000000
vn 0.923880 -0.382683 0.000000
vn 0.923880 0.382683 -0.000000
vn 0.382683 0.923880 0.000000
vn -0.382683 0.923880 0.000000
vn -0.923880 0.382683 -0.000000
vn -0.923880 -0.382683 0.000000
vn -0.382683 -0.923880 0.000000
vn 0.000000 0.000000 1.000000
vn 0.254750 0.615021 -0.746225
vn 0.615021 0.254750 -0.746225
vn 0.615021 -0.254750 -0.746225
vn 0.254750 -0.615021 -0.746225
vn -0.254750 -0.615021 -0.746225
vn -0.615021 -0.254750 -0.746225
vn -0.615021 0.254750 -0.746225
vn -0.254750 0.615021 -0.746225
vn 0.086231 0.208180 -0.974282
vn 0.208180 0.086231 -0.974282
vn 0.208180 -0.086231 -0.974282
vn 0.086231 -0.208180 -0.974282
vn -0.086231 -0.208180 -0.974282
vn -0.208180 -0.086231 -0.974282
vn -0.208180 0.086231 -0.974282
vn -0.086231 0.208180 -0.974282
vn 0.000000 0.000000 1.000000
vn 0.000000 0.000000 -1.000000
vn -0.000000 1.000000 0.000000
vn 0.000000 -1.000000 0.000000
vn -1.000000 0.000000 0.000000
vn 1.000000 0.000000 0.000000
vn 0.000000 0.000000 1.000000
vn 0.000000 0.000000 -1.000000
vn -0.000000 1.000000 0.000000
vn 0.000000 -1.000000 0.000000
vn -1.000000 0.000000 0.000000
vn 1.000000 0.000000 0.000000
vn 0.000000 0.000000 -1.000000
vn 0.482784 -0.836206 0.260153
vn 0.965567 -0.000000 0.260153
vn 0.482784 0.836206 0.260153
vn -0.482784 0.836206 0.260153
vn -0.965567 0.000000 0.260153
vn -0.482784 -0.836206 0.260153
vn -1.000000 0.000000 0.000000
vn 1.000000 -0.000000 0.000000
vn 0.000000 -1.000000 0.000000
vn -0.000000 0.780869 0.624695
vn -0.000000 1.000000 0.000000
vn 0.000000 0.640184 -0.768221
vn 0.500000 -0.866025 0.000000
vn -0.500000 0.866025 0.000000
vn 0.866025 0.500000 0.000000
vn -0.676252 -0.390434 0.624695
vn -0.866025 -0.500000 0.000000
vn -0.554416 -0.320092 -0.768221
vn 0.500000 0.866025 -0.000000
vn -0.500000 -0.866025 0.000000
vn -0.866025 0.500000 0.000000
vn 0.676252 -0.390434 0.624695
vn 0.866025 -0.500000 0.000000
vn 0.554416 -0.320092 -0.768221
f 1/1/1 2/2/1 3/3/1
f 1/1/2 4/4/2 2/2/2
f 1/1/3 5/5/3 4/4/3
f 1/1/4 3/3/4 5/5/4
f 3/3/5 2/2/5 6/1/5
f 2/2/6 4/4/6 6/1/6
f 4/4/7 5/5/7 6/1/7
f 5/5/8 3/3/8 6/1/8
f 7/6/9 8/7/9 9/8/9
f 7/6/9 10/9/9 8/7/9
f 7/6/9 11/10/9 10/9/9
f 7/6/9 9/8/9 11/10/9
f 9/11/10 8/12/10 12/13/10
f 8/12/11 10/14/11 12/13/11
f 10/14/12 11/12/12 12/13/12
f 11/12/13 9/11/13 12/13/13
f 13/15/14 14/16/14 15/17/14
f 13/15/14 16/18/14 14/16/14
f 13/15/14 17/19/14 16/18/14
f 13/15/14 15/17/14 17/19/14
f 15/20/15 14/21/15 18/22/15
f 14/23/16 16/24/16 18/25/16
f 16/24/17 17/26/17 18/25/17
f 17/21/18 15/20/18 18/22/18
f 19/27/19 20/28/19 21/29/19
f 19/27/19 22/30/19 20/28/19
f 19/27/19 23/31/19 22/30/19
f 19/27/19 21/29/19 23/31/19
f 21/32/20 20/33/20 24/34/20
f 20/33/21 22/35/21 24/34/21
f 22/35/22 23/33/22 24/34/22
f 23/33/23 21/32/23 24/34/23
f 25/36/24 26/37/24 27/38/24
f 25/36/24 28/39/24 26/37/24
f 25/36/24 29/40/24 28/39/24
f 25/36/24 27/38/24 29/40/24
f 27/41/25 26/42/25 30/43/25
f 26/44/26 28/45/26 30/46/26
f 28/47/27 29/48/27 30/49/27
f 29/50/28 27/41/28 30/43/28
f 31/51/29 32/52/29 33/53/29
f 31/51/29 34/54/29 32/52/29
f 31/51/29 35/55/29 34/54/29
f 31/51/29 33/53/29 35/55/29
f 33/56/30 32/57/30 36/58/30
f 32/59/31 34/60/31 36/61/31
f 34/60/32 35/62/32 36/61/32
f 35/57/33 33/56/33 36/58/33
f 37/63/34 38/64/34 39/65/34
f 37/63/34 40/66/34 38/64/34
f 37/63/34 41/67/34 40/66/34
f 37/63/34 39/65/34 41/67/34
f 39/68/35 38/69/35 42/70/35
f 38/71/36 40/72/36 42/73/36
f 40/72/37 41/71/37 42/73/37
f 41/74/38 39/68/38 42/70/38
f 43/75/39 44/76/39 45/77/39
f 43/75/39 45/77/39 46/78/39
f 47/76/40 48/75/40 49/78/40
f 47/76/40 49/78/40 50/77/40
f 46/79/41 45/80/41 50/81/41
f 46/79/41 50/81/41 49/82/41
f 48/82/42 47/81/42 44/80/42
f 48/82/42 44/80/42 43/79/42
f 48/83/43 43/84/43 46/85/43
f 48/83/43 46/85/43 49/86/43
f 44/87/44 47/88/44 50/89/44
f 44/87/44 50/89/44 45/90/44
f 51/91/45 52/92/45 53/93/45
f 51/91/45 53/93/45 54/94/45
f 55/92/46 56/91/46 57/94/46
f 55/92/46 57/94/46 58/93/46
f 54/95/47 53/96/47 58/97/47
f 54/95/47 58/97/47 57/98/47
f 56/98/48 55/97/48 52/96/48
f 56/98/48 52/96/48 51/95/48
f 56/99/49 51/100/49 54/101/49
f 56/99/49 54/101/49 57/102/49
f 52/103/50 55/104/50 58/105/50
f 52/103/50 58/105/50 53/106/50
f 59/107/51 60/108/51 61/109/51
f 59/107/51 61/109/51 62/110/51
f 63/108/52 64/107/52 65/110/52
f 63/108/52 65/110/52 66/109/52
f 62/111/53 61/112/53 66/113/53
f 62/111/53 66/113/53 65/114/53
f 64/114/54 63/113/54 60/112/54
f 64/114/54 60/112/54 59/111/54
f 64/115/55 59/116/55 62/117/55
f 64/115/55 62/117/55 65/118/55
f 60/119/56 63/120/56 66/121/56
f 60/119/56 66/121/56 61/122/56
f 67/123/57 68/124/57 69/125/57
f 67/123/57 69/125/57 70/126/57
f 71/124/58 72/123/58 73/126/58
f 71/124/58 73/126/58 74/125/58
f 70/127/59 69/128/59 74/129/59
f 70/127/59 74/129/59 73/130/59
f 72/130/60 71/129/60 68/128/60
f 72/130/60 68/128/60 67/127/60
f 72/131/61 67/132/61 70/133/61
f 72/131/61 70/133/61 73/134/61
f 68/135/62 71/136/62 74/137/62
f 68/135/62 74/137/62 69/138/62
f 75/139/63 76/140/63 77/141/63
f 75/139/63 77/141/63 78/142/63
f 78/143/64 77/144/64 79/145/64
f 78/143/64 79/145/64 80/146/64
f 80/147/65 79/148/65 81/149/65
f 80/147/65 81/149/65 82/150/65
f 82/150/66 81/149/66 83/151/66
f 82/150/66 83/151/66 84/152/66
f 84/146/67 83/145/67 85/144/67
f 84/146/67 85/144/67 86/143/67
f 86/153/68 85/154/68 76/140/68
f 86/153/68 76/140/68 75/139/68
f 76/140/69 87/155/69 88/156/69
f 76/140/69 88/156/69 77/141/69
f 77/144/64 88/157/64 89/158/64
f 77/144/64 89/158/64 79/145/64
f 79/148/70 89/159/70 90/160/70
f 79/148/70 90/160/70 81/149/70
f 81/149/71 90/160/71 91/161/71
f 81/149/71 91/161/71 83/151/71
f 83/145/67 91/158/67 92/157/67
f 83/145/67 92/157/67 85/144/67
f 85/154/72 92/162/72 87/155/72
f 85/154/72 87/155/72 76/140/72
f 87/155/73 93/163/73 94/164/73
f 87/155/73 94/164/73 88/156/73
f 88/157/64 94/165/64 95/166/64
f 88/157/64 95/166/64 89/158/64
f 89/159/74 95/167/74 96/168/74
f 89/159/74 96/168/74 90/160/74
f 90/160/75 96/168/75 97/169/75
f 90/160/75 97/169/75 91/161/75
f 91/158/67 97/166/67 98/165/67
f 91/158/67 98/165/67 92/157/67
f 92/162/76 98/170/76 93/163/76
f 92/162/76 93/163/76 87/155/76
f 93/171/77 99/172/77 100/173/77
f 93/171/77 100/173/77 94/174/77
f 94/165/64 100/175/64 101/176/64
f 94/165/64 101/176/64 95/166/64
f 95/177/78 101/178/78 102/179/78
f 95/177/78 102/179/78 96/180/78
f 96/180/79 102/179/79 103/181/79
f 96/180/79 103/181/79 97/182/79
f 97/166/67 103/176/67 104/175/67
f 97/166/67 104/175/67 98/165/67
f 98/183/80 104/184/80 99/172/80
f 98/183/80 99/172/80 93/171/80
f 99/172/81 105/185/81 106/186/81
f 99/172/81 106/186/81 100/173/81
f 100/175/64 106/187/64 107/188/64
f 100/175/64 107/188/64 101/176/64
f 101/178/82 107/189/82 108/190/82
f 101/178/82 108/190/82 102/179/82
f 102/179/83 108/190/83 109/191/83
f 102/179/83 109/191/83 103/181/83
f 103/176/67 109/188/67 110/187/67
f 103/176/67 110/187/67 104/175/67
f 104/184/84 110/192/84 105/185/84
f 104/184/84 105/185/84 99/172/84
f 105/185/85 111/193/85 112/194/85
f 105/185/85 112/194/85 106/186/85
f 106/187/64 112/195/64 113/196/64
f 106/187/64 113/196/64 107/188/64
f 107/189/86 113/194/86 114/193/86
f 107/189/86 114/193/86 108/190/86
f 108/190/87 114/193/87 115/197/87
f 108/190/87 115/197/87 109/191/87
f 109/188/67 115/196/67 116/195/67
f 109/188/67 116/195/67 110/187/67
f 110/192/88 116/197/88 111/193/88
f 110/192/88 111/193/88 105/185/88
f 111/193/89 117/198/89 118/199/89
f 111/193/89 118/199/89 112/194/89
f 112/195/64 118/200/64 119/201/64
f 112/195/64 119/201/64 113/196/64
f 113/194/90 119/202/90 120/203/90
f 113/194/90 120/203/90 114/193/90
f 114/193/91 120/203/91 121/204/91
f 114/193/91 121/204/91 115/197/91
f 115/196/67 121/201/67 122/200/67
f 115/196/67 122/200/67 116/195/67
f 116/197/92 122/205/92 117/198/92
f 116/197/92 117/198/92 111/193/92
f 117/198/93 123/206/93 124/207/93
f 117/198/93 124/207/93 118/199/93
f 118/200/64 124/208/64 125/209/64
f 118/200/64 125/209/64 119/201/64
f 119/202/94 125/210/94 126/211/94
f 119/202/94 126/211/94 120/203/94
f 120/203/95 126/211/95 127/212/95
f 120/203/95 127/212/95 121/204/95
f 121/201/67 127/209/67 128/208/67
f 121/201/67 128/208/67 122/200/67
f 122/205/96 128/213/96 123/206/96
f 122/205/96 123/206/96 117/198/96
f 123/206/97 129/214/97 130/215/97
f 123/206/97 130/215/97 124/207/97
f 124/208/64 130/216/64 131/217/64
f 124/208/64 131/217/64 125/209/64
f 125/210/98 131/218/98 132/219/98
f 125/210/98 132/219/98 126/211/98
f 126/211/99 132/219/99 133/220/99
f 126/211/99 133/220/99 127/212/99
f 127/209/67 133/217/67 134/216/67
f 127/209/67 134/216/67 128/208/67
f 128/213/100 134/221/100 129/214/100
f 128/213/100 129/214/100 123/206/100
f 129/222/101 135/223/101 136/224/101
f 129/222/101 136/224/101 130/225/101
f 130/216/64 136/226/64 137/227/64
f 130/216/64 137/227/64 131/217/64
f 131/228/102 137/229/102 138/230/102
f 131/228/102 138/230/102 132/231/102
f 132/231/103 138/230/103 139/232/103
f 132/231/103 139/232/103 133/233/103
f 133/217/67 139/227/67 140/226/67
f 133/217/67 140/226/67 134/216/67
f 134/234/104 140/235/104 135/223/104
f 134/234/104 135/223/104 129/222/104
f 135/223/105 141/236/105 142/237/105
f 135/223/105 142/237/105 136/224/105
f 136/226/64 142/238/64 143/239/64
f 136/226/64 143/239/64 137/227/64
f 137/229/106 143/240/106 144/241/106
f 137/229/106 144/241/106 138/230/106
f 138/230/107 144/241/107 145/242/107
f 138/230/107 145/242/107 139/232/107
f 139/227/67 145/239/67 146/238/67
f 139/227/67 146/238/67 140/226/67
f 140/235/108 146/243/108 141/236/108
f 140/235/108 141/236/108 135/223/108
f 141/236/109 147/150/109 148/147/109
f 141/236/109 148/147/109 142/237/109
f 142/238/64 148/244/64 149/245/64
f 142/238/64 149/245/64 143/239/64
f 143/240/110 149/142/110 150/139/110
f 143/240/110 150/139/110 144/241/110
f 144/241/111 150/139/111 151/153/111
f 144/241/111 151/153/111 145/242/111
f 145/239/67 151/245/67 152/244/67
f 145/239/67 152/244/67 146/238/67
f 146/243/112 152/152/112 147/150/112
f 146/243/112 147/150/112 141/236/112
f 147/150/65 153/246/65 154/247/65
f 147/150/65 154/247/65 148/147/65
f 148/244/64 154/248/64 155/249/64
f 148/244/64 155/249/64 149/245/64
f 149/142/63 155/250/63 156/251/63
f 149/142/63 156/251/63 150/139/63
f 150/139/68 156/251/68 157/252/68
f 150/139/68 157/252/68 151/153/68
f 151/245/67 157/249/67 158/248/67
f 151/245/67 158/248/67 152/244/67
f 152/152/66 158/253/66 153/246/66
f 152/152/66 153/246/66 147/150/66
f 153/246/70 159/254/70 160/255/70
f 153/246/70 160/255/70 154/247/70
f 154/248/64 160/256/64 161/257/64
f 154/248/64 161/257/64 155/249/64
f 155/250/69 161/258/69 162/259/69
f 155/250/69 162/259/69 156/251/69
f 156/251/72 162/259/72 163/260/72
f 156/251/72 163/260/72 157/252/72
f 157/249/67 163/257/67 164/256/67
f 157/249/67 164/256/67 158/248/67
f 158/253/71 164/261/71 159/254/71
f 158/253/71 159/254/71 153/246/71
f 159/254/74 165/262/74 166/263/74
f 159/254/74 166/263/74 160/255/74
f 160/256/64 166/264/64 167/265/64
f 160/256/64 167/265/64 161/257/64
f 161/258/73 167/266/73 168/267/73
f 161/258/73 168/267/73 162/259/73
f 162/259/76 168/267/76 169/268/76
f 162/259/76 169/268/76 163/260/76
f 163/257/67 169/265/67 170/264/67
f 163/257/67 170/264/67 164/256/67
f 164/261/75 170/269/75 165/262/75
f 164/261/75 165/262/75 159/254/75
f 165/214/78 171/206/78 172/207/78
f 165/214/78 172/207/78 166/215/78
f 166/264/64 172/270/64 173/271/64
f 166/264/64 173/271/64 167/265/64
f 167/218/77 173/210/77 174/211/77
f 167/218/77 174/211/77 168/219/77
f 168/219/80 174/211/80 175/212/80
f 168/219/80 175/212/80 169/220/80
f 169/265/67 175/271/67 176/270/67
f 169/265/67 176/270/67 170/264/67
f 170/221/79 176/213/79 171/206/79
f 170/221/79 171/206/79 165/214/79
f 171/206/82 177/198/82 178/199/82
f 171/206/82 178/199/82 172/207/82
f 172/270/64 178/272/64 179/273/64
f 172/270/64 179/273/64 173/271/64
f 173/210/81 179/202/81 180/203/81
f 173/210/81 180/203/81 174/211/81
f 174/211/84 180/203/84 181/204/84
f 174/211/84 181/204/84 175/212/84
f 175/271/67 181/273/67 182/272/67
f 175/271/67 182/272/67 176/270/67
f 176/213/83 182/205/83 177/198/83
f 176/213/83 177/198/83 171/206/83
f 177/198/86 183/193/86 184/194/86
f 177/198/86 184/194/86 178/199/86
f 178/272/64 184/274/64 185/275/64
f 178/272/64 185/275/64 179/273/64
f 179/202/85 185/194/85 186/193/85
f 179/202/85 186/193/85 180/203/85
f 180/203/88 186/193/88 187/197/88
f 180/203/88 187/197/88 181/204/88
f 181/273/67 187/275/67 188/274/67
f 181/273/67 188/274/67 182/272/67
f 182/205/87 188/197/87 183/193/87
f 182/205/87 183/193/87 177/198/87
f 183/193/90 189/185/90 190/186/90
f 183/193/90 190/186/90 184/194/90
f 184/274/64 190/276/64 191/277/64
f 184/274/64 191/277/64 185/275/64
f 185/194/89 191/189/89 192/190/89
f 185/194/89 192/190/89 186/193/89
f 186/193/92 192/190/92 193/191/92
f 186/193/92 193/191/92 187/197/92
f 187/275/67 193/277/67 194/276/67
f 187/275/67 194/276/67 188/274/67
f 188/197/91 194/192/91 189/185/91
f 188/197/91 189/185/91 183/193/91
f 189/185/94 195/172/94 196/173/94
f 189/185/94 196/173/94 190/186/94
f 190/276/64 196/278/64 197/279/64
f 190/276/64 197/279/64 191/277/64
f 191/189/93 197/178/93 198/179/93
f 191/189/93 198/179/93 192/190/93
f 192/190/96 198/179/96 199/181/96
f 192/190/96 199/181/96 193/191/96
f 193/277/67 199/279/67 200/278/67
f 193/277/67 200/278/67 194/276/67
f 194/192/95 200/184/95 195/172/95
f 194/192/95 195/172/95 189/185/95
f 195/172/98 201/171/98 202/174/98
f 195/172/98 202/174/98 196/173/98
f 196/278/64 202/280/64 203/281/64
f 196/278/64 203/281/64 197/279/64
f 197/178/97 203/177/97 204/180/97
f 197/178/97 204/180/97 198/179/97
f 198/179/100 204/180/100 205/182/100
f 198/179/100 205/182/100 199/181/100
f 199/279/67 205/281/67 206/280/67
f 199/279/67 206/280/67 200/278/67
f 200/184/99 206/183/99 201/171/99
f 200/184/99 201/171/99 195/172/99
f 201/282/102 207/283/102 208/284/102
f 201/282/102 208/284/102 202/285/102
f 202/280/64 208/286/64 209/287/64
f 202/280/64 209/287/64 203/281/64
f 203/288/101 209/289/101 210/290/101
f 203/288/101 210/290/101 204/291/101
f 204/291/104 210/290/104 211/292/104
f 204/291/104 211/292/104 205/293/104
f 205/281/67 211/287/67 212/286/67
f 205/281/67 212/286/67 206/280/67
f 206/294/103 212/295/103 207/283/103
f 206/294/103 207/283/103 201/282/103
f 207/283/106 213/296/106 214/297/106
f 207/283/106 214/297/106 208/284/106
f 208/286/64 214/298/64 215/299/64
f 208/286/64 215/299/64 209/287/64
f 209/289/105 215/300/105 216/301/105
f 209/289/105 216/301/105 210/290/105
f 210/290/108 216/301/108 217/302/108
f 210/290/108 217/302/108 211/292/108
f 211/287/67 217/299/67 218/298/67
f 211/287/67 218/298/67 212/286/67
f 212/295/107 218/303/107 213/296/107
f 212/295/107 213/296/107 207/283/107
f 213/296/110 75/139/110 78/142/110
f 213/296/110 78/142/110 214/297/110
f 214/298/64 78/143/64 80/146/64
f 214/298/64 80/146/64 215/299/64
f 215/300/109 80/147/109 82/150/109
f 215/300/109 82/150/109 216/301/109
f 216/301/112 82/150/112 84/152/112
f 216/301/112 84/152/112 217/302/112
f 217/299/67 84/146/67 86/143/67
f 217/299/67 86/143/67 218/298/67
f 218/303/111 86/153/111 75/139/111
f 218/303/111 75/139/111 213/296/111
f 219/304/113 220/305/113 221/306/113
f 219/304/113 221/306/113 222/307/113
f 223/308/114 224/309/114 225/310/114
f 223/308/114 225/310/114 226/311/114
f 222/312/115 221/313/115 226/314/115
f 222/312/115 226/314/115 225/315/115
f 224/315/116 223/314/116 220/313/116
f 224/315/116 220/313/116 219/312/116
f 224/316/117 219/317/117 222/318/117
f 224/316/117 222/318/117 225/319/117
f 220/317/118 223/316/118 226/319/118
f 220/317/118 226/319/118 221/318/118
f 227/320/119 228/321/119 229/322/119
f 227/320/119 229/322/119 230/323/119
f 231/324/120 232/325/120 233/326/120
f 231/324/120 233/326/120 234/327/120
f 230/328/121 229/329/121 234/330/121
f 230/328/121 234/330/121 233/331/121
f 232/331/122 231/330/122 228/329/122
f 232/331/122 228/329/122 227/328/122
f 232/332/123 227/333/123 230/334/123
f 232/332/123 230/334/123 233/335/123
f 228/333/124 231/332/124 234/335/124
f 228/333/124 234/335/124 229/334/124
f 235/336/125 236/337/125 237/338/125
f 235/336/125 237/338/125 238/339/125
f 239/340/126 240/341/126 241/342/126
f 239/340/126 241/342/126 242/343/126
f 238/344/127 237/345/127 242/346/127
f 238/344/127 242/346/127 241/347/127
f 240/347/128 239/346/128 236/345/128
f 240/347/128 236/345/128 235/344/128
f 240/348/129 235/349/129 238/350/129
f 240/348/129 238/350/129 241/351/129
f 236/349/130 239/348/130 242/351/130
f 236/349/130 242/351/130 237/350/130
f 243/352/131 244/353/131 245/354/131
f 243/352/131 245/354/131 246/355/131
f 247/356/132 248/357/132 249/358/132
f 247/356/132 249/358/132 250/359/132
f 246/360/133 245/361/133 250/362/133
f 246/360/133 250/362/133 249/363/133
f 248/363/134 247/362/134 244/361/134
f 248/363/134 244/361/134 243/360/134
f 248/364/135 243/365/135 246/366/135
f 248/364/135 246/366/135 249/367/135
f 244/365/136 247/364/136 250/367/136
f 244/365/136 250/367/136 245/366/136
f 251/368/137 252/369/137 253/370/137
f 251/368/137 253/370/137 254/371/137
f 255/372/138 256/373/138 257/374/138
f 255/372/138 257/374/138 258/375/138
f 254/376/139 253/377/139 258/378/139
f 254/376/139 258/378/139 257/379/139
f 256/379/140 255/378/140 252/377/140
f 256/379/140 252/377/140 251/376/140
f 256/380/141 251/381/141 254/382/141
f 256/380/141 254/382/141 257/383/141
f 252/381/142 255/380/142 258/383/142
f 252/381/142 258/383/142 253/382/142
f 259/384/143 260/385/143 261/386/143
f 259/384/143 261/386/143 262/387/143
f 263/388/144 264/389/144 265/390/144
f 263/388/144 265/390/144 266/391/144
f 262/392/145 261/393/145 266/394/145
f 262/392/145 266/394/145 265/395/145
f 264/395/146 263/394/146 260/393/146
f 264/395/146 260/393/146 259/392/146
f 264/396/147 259/397/147 262/398/147
f 264/396/147 262/398/147 265/399/147
f 260/397/148 263/396/148 266/399/148
f 260/397/148 266/399/148 261/398/148
f 267/400/149 268/401/149 269/402/149
f 267/400/149 270/403/149 268/401/149
f 267/400/149 271/404/149 270/403/149
f 267/400/149 272/405/149 271/404/149
f 267/400/149 273/406/149 272/405/149
f 267/400/149 274/407/149 273/406/149
f 267/400/149 275/408/149 274/407/149
f 267/400/149 269/402/149 275/408/149
f 269/409/150 268/410/150 276/411/150
f 269/409/150 276/411/150 277/412/150
f 268/413/151 270/414/151 278/415/151
f 268/413/151 278/415/151 276/416/151
f 270/414/152 271/417/152 279/418/152
f 270/414/152 279/418/152 278/415/152
f 271/410/153 272/409/153 280/412/153
f 271/410/153 280/412/153 279/411/153
f 272/409/154 273/419/154 281/420/154
f 272/409/154 281/420/154 280/412/154
f 273/417/155 274/414/155 282/415/155
f 273/417/155 282/415/155 281/418/155
f 274/414/156 275/413/156 283/416/156
f 274/414/156 283/416/156 282/415/156
f 275/419/157 269/409/157 277/412/157
f 275/419/157 277/412/157 283/420/157
f 277/421/158 276/422/158 284/423/158
f 276/422/158 278/424/158 284/423/158
f 278/424/158 279/425/158 284/423/158
f 279/425/158 280/426/158 284/423/158
f 280/426/158 281/427/158 284/423/158
f 281/427/158 282/428/158 284/423/158
f 282/428/158 283/429/158 284/423/158
f 283/429/158 277/421/158 284/423/158
f 285/430/159 286/431/159 287/432/159
f 285/430/159 287/432/159 288/433/159
f 286/431/160 289/434/160 290/435/160
f 286/431/160 290/435/160 287/432/160
f 289/434/161 291/436/161 292/437/161
f 289/434/161 292/437/161 290/435/161
f 291/436/162 293/438/162 294/439/162
f 291/436/162 294/439/162 292/437/162
f 293/438/163 295/440/163 296/441/163
f 293/438/163 296/441/163 294/439/163
f 295/440/164 297/442/164 298/443/164
f 295/440/164 298/443/164 296/441/164
f 297/442/165 299/444/165 300/445/165
f 297/442/165 300/445/165 298/443/165
f 299/444/166 285/430/166 288/433/166
f 299/444/166 288/433/166 300/445/166
f 288/433/167 287/432/167 301/446/167
f 287/432/168 290/435/168 301/446/168
f 290/435/169 292/437/169 301/446/169
f 292/437/170 294/439/170 301/446/170
f 294/439/171 296/441/171 301/446/171
f 296/441/172 298/443/172 301/446/172
f 298/443/173 300/445/173 301/446/173
f 300/445/174 288/433/174 301/446/174
f 302/447/175 303/448/175 304/449/175
f 302/447/175 305/450/175 303/448/175
f 302/447/175 306/451/175 305/450/175
f 302/447/175 307/452/175 306/451/175
f 302/447/175 308/453/175 307/452/175
f 302/447/175 309/454/175 308/453/175
f 302/447/175 310/455/175 309/454/175
f 302/447/175 304/449/175 310/455/175
f 304/456/176 303/457/176 311/458/176
f 304/456/176 311/458/176 312/459/176
f 303/460/177 305/461/177 313/462/177
f 303/460/177 313/462/177 311/463/177
f 305/461/178 306/464/178 314/465/178
f 305/461/178 314/465/178 313/462/178
f 306/457/179 307/456/179 315/459/179
f 306/457/179 315/459/179 314/458/179
f 307/456/180 308/466/180 316/467/180
f 307/456/180 316/467/180 315/459/180
f 308/464/181 309/461/181 317/462/181
f 308/464/181 317/462/181 316/465/181
f 309/461/182 310/460/182 318/463/182
f 309/461/182 318/463/182 317/462/182
f 310/466/183 304/456/183 312/459/183
f 310/466/183 312/459/183 318/467/183
f 312/468/184 311/469/184 319/470/184
f 311/469/184 313/471/184 319/470/184
f 313/471/184 314/472/184 319/470/184
f 314/472/184 315/473/184 319/470/184
f 315/473/184 316/474/184 319/470/184
f 316/474/184 317/475/184 319/470/184
f 317/475/184 318/476/184 319/470/184
f 318/476/184 312/468/184 319/470/184
f 320/477/185 321/478/185 322/479/185
f 320/477/185 322/479/185 323/480/185
f 321/478/186 324/481/186 325/482/186
f 321/478/186 325/482/186 322/479/186
f 324/481/187 326/483/187 327/484/187
f 324/481/187 327/484/187 325/482/187
f 326/483/188 328/485/188 329/486/188
f 326/483/188 329/486/188 327/484/188
f 328/485/189 330/487/189 331/488/189
f 328/485/189 331/488/189 329/486/189
f 330/487/190 332/489/190 333/490/190
f 330/487/190 333/490/190 331/488/190
f 332/489/191 334/491/191 335/492/191
f 332/489/191 335/492/191 333/490/191
f 334/491/192 320/477/192 323/480/192
f 334/491/192 323/480/192 335/492/192
f 323/480/193 322/479/193 336/493/193
f 322/479/194 325/482/194 336/493/194
f 325/482/195 327/484/195 336/493/195
f 327/484/196 329/486/196 336/493/196
f 329/486/197 331/488/197 336/493/197
f 331/488/198 333/490/198 336/493/198
f 333/490/199 335/492/199 336/493/199
f 335/492/200 323/480/200 336/493/200
f 337/494/201 338/495/201 339/496/201
f 337/494/201 339/496/201 340/497/201
f 341/498/202 342/499/202 343/500/202
f 341/498/202 343/500/202 344/501/202
f 340/502/203 339/503/203 344/504/203
f 340/502/203 344/504/203 343/505/203
f 342/505/204 341/504/204 338/503/204
f 342/505/204 338/503/204 337/502/204
f 342/506/205 337/507/205 340/508/205
f 342/506/205 340/508/205 343/509/205
f 338/507/206 341/506/206 344/509/206
f 338/507/206 344/509/206 339/508/206
f 345/510/207 346/511/207 347/512/207
f 345/510/207 347/512/207 348/513/207
f 349/514/208 350/515/208 351/516/208
f 349/514/208 351/516/208 352/517/208
f 348/518/209 347/519/209 352/520/209
f 348/518/209 352/520/209 351/521/209
f 350/521/210 349/520/210 346/519/210
f 350/521/210 346/519/210 345/518/210
f 350/522/211 345/523/211 348/524/211
f 350/522/211 348/524/211 351/525/211
f 346/523/212 349/522/212 352/525/212
f 346/523/212 352/525/212 347/524/212
f 353/526/213 354/527/213 355/528/213
f 353/526/213 356/529/213 354/527/213
f 353/526/213 357/530/213 356/529/213
f 353/526/213 358/531/213 357/530/213
f 353/526/213 359/532/213 358/531/213
f 353/526/213 355/528/213 359/532/213
f 355/533/214 354/534/214 360/535/214
f 354/536/215 356/537/215 360/538/215
f 356/534/216 357/533/216 360/535/216
f 357/533/217 358/539/217 360/535/217
f 358/537/218 359/536/218 360/538/218
f 359/539/219 355/533/219 360/535/219
f 361/540/220 362/541/220 363/542/220
f 364/540/221 365/542/221 366/541/221
f 361/540/220 363/542/220 367/543/220
f 364/540/221 368/543/221 365/542/221
f 361/544/222 364/545/222 366/546/222
f 361/544/222 366/546/222 362/547/222
f 362/547/223 366/546/223 365/548/223
f 362/547/223 365/548/223 363/549/223
f 363/549/224 365/548/224 368/550/224
f 363/549/224 368/550/224 367/551/224
f 367/552/225 368/553/225 364/554/225
f 367/552/225 364/554/225 361/555/225
f 369/556/226 370/557/226 371/558/226
f 372/559/227 373/560/227 374/561/227
f 369/556/226 371/558/226 375/562/226
f 372/559/227 376/563/227 373/560/227
f 369/564/228 372/565/228 374/566/228
f 369/564/228 374/566/228 370/567/228
f 370/567/229 374/566/229 373/568/229
f 370/567/229 373/568/229 371/569/229
f 371/569/230 373/568/230 376/570/230
f 371/569/230 376/570/230 375/571/230
f 375/572/231 376/573/231 372/574/231
f 375/572/231 372/574/231 369/575/231
f 377/576/232 378/577/232 379/578/232
f 380/579/233 381/580/233 382/581/233
f 377/576/232 379/578/232 383/582/232
f 380/579/233 384/583/233 381/580/233
f 377/584/234 380/585/234 382/586/234
f 377/584/234 382/586/234 378/587/234
f 378/587/235 382/586/235 381/588/235
f 378/587/235 381/588/235 379/589/235
f 379/589/236 381/588/236 384/590/236
f 379/589/236 384/590/236 383/591/236
f 383/592/237 384/593/237 380/594/237
f 383/592/237 380/594/237 377/595/237
