# Helion freighter, fragment 0 of 8
# Generated by tools. Edit the generator script.
v 0.119652 0.339013 -2.221534
v -0.119652 0.578317 -2.221534
v 0.119652 0.578317 -2.221534
v 0.438723 0.458665 -2.381070
v 0.551532 0.345856 -2.381070
v 0.438723 0.299129 -2.381070
v 0.598259 0.458665 -2.381070
v 0.551532 0.571474 -2.381070
v 0.438723 0.618201 -2.381070
v 0.325914 0.571474 -2.381070
v 0.279187 0.458665 -2.381070
v 0.325914 0.345856 -2.381070
v 0.551532 0.345856 -1.742927
v 0.438723 0.299129 -1.742927
v 0.598259 0.458665 -1.742927
v 0.551532 0.571474 -1.742927
v 0.438723 0.618201 -1.742927
v 0.325914 0.571474 -1.742927
v 0.279187 0.458665 -1.742927
v 0.325914 0.345856 -1.742927
v 0.438723 0.458665 -1.742927
v 0.019942 0.426758 -2.030091
v 0.418781 0.426758 -2.030091
v 0.418781 0.490572 -2.030091
v 0.019942 0.490572 -2.030091
v 0.418781 0.426758 -2.093905
v 0.019942 0.426758 -2.093905
v 0.019942 0.490572 -2.093905
v 0.418781 0.490572 -2.093905
v 0.438723 0.271211 -2.061998
v 0.510459 0.285480 -2.061998
v 0.503076 0.303303 -2.035446
v 0.438723 0.290502 -2.035446
v 0.491131 0.332141 -2.045588
v 0.438723 0.321716 -2.045588
v 0.491131 0.332141 -2.078409
v 0.438723 0.321716 -2.078409
v 0.503076 0.303303 -2.088551
v 0.438723 0.290502 -2.088551
v 0.571273 0.326115 -2.061998
v 0.557632 0.339756 -2.035446
v 0.535561 0.361827 -2.045588
v 0.535561 0.361827 -2.078409
v 0.557632 0.339756 -2.088551
v 0.611908 0.386929 -2.061998
v 0.594085 0.394312 -2.035446
v 0.565247 0.406257 -2.045588
v 0.565247 0.406257 -2.078409
v 0.594085 0.394312 -2.088551
v 0.626177 0.458665 -2.061998
v 0.606886 0.458665 -2.035446
v 0.575672 0.458665 -2.045588
v 0.575672 0.458665 -2.078409
v 0.606886 0.458665 -2.088551
v 0.611908 0.530401 -2.061998
v 0.594085 0.523018 -2.035446
v 0.565247 0.511073 -2.045588
v 0.565247 0.511073 -2.078409
v 0.594085 0.523018 -2.088551
v 0.571273 0.591215 -2.061998
v 0.557632 0.577574 -2.035446
v 0.535561 0.555503 -2.045588
v 0.535561 0.555503 -2.078409
v 0.557632 0.577574 -2.088551
v 0.510459 0.631850 -2.061998
v 0.503076 0.614027 -2.035446
v 0.491131 0.585189 -2.045588
v 0.491131 0.585189 -2.078409
v 0.503076 0.614027 -2.088551
v 0.438723 0.646119 -2.061998
v 0.438723 0.626828 -2.035446
v 0.438723 0.595614 -2.045588
v 0.438723 0.595614 -2.078409
v 0.438723 0.626828 -2.088551
v 0.366987 0.631850 -2.061998
v 0.374370 0.614027 -2.035446
v 0.386315 0.585189 -2.045588
v 0.386315 0.585189 -2.078409
v 0.374370 0.614027 -2.088551
v 0.306173 0.591215 -2.061998
v 0.319814 0.577574 -2.035446
v 0.341886 0.555503 -2.045588
v 0.341886 0.555503 -2.078409
v 0.319814 0.577574 -2.088551
v 0.265538 0.530401 -2.061998
v 0.283361 0.523018 -2.035446
v 0.312199 0.511073 -2.045588
v 0.312199 0.511073 -2.078409
v 0.283361 0.523018 -2.088551
v 0.251269 0.458665 -2.061998
v 0.270560 0.458665 -2.035446
v 0.301774 0.458665 -2.045588
v 0.301774 0.458665 -2.078409
v 0.270560 0.458665 -2.088551
v 0.265538 0.386929 -2.061998
v 0.283361 0.394312 -2.035446
v 0.312199 0.406257 -2.045588
v 0.312199 0.406257 -2.078409
v 0.283361 0.394312 -2.088551
v 0.306173 0.326115 -2.061998
v 0.319814 0.339756 -2.035446
v 0.341886 0.361827 -2.045588
v 0.341886 0.361827 -2.078409
v 0.319814 0.339756 -2.088551
v 0.366987 0.285480 -2.061998
v 0.374370 0.303303 -2.035446
v 0.386315 0.332141 -2.045588
v 0.386315 0.332141 -2.078409
v 0.374370 0.303303 -2.088551
v 0.438723 0.458665 -2.405000
v 0.542507 0.354881 -2.405000
v 0.438723 0.311892 -2.405000
v 0.585496 0.458665 -2.405000
v 0.542507 0.562449 -2.405000
v 0.438723 0.605438 -2.405000
v 0.334939 0.562449 -2.405000
v 0.291950 0.458665 -2.405000
v 0.334939 0.354881 -2.405000
v 0.542507 0.354881 -2.325232
v 0.438723 0.311892 -2.325232
v 0.585496 0.458665 -2.325232
v 0.542507 0.562449 -2.325232
v 0.438723 0.605438 -2.325232
v 0.334939 0.562449 -2.325232
v 0.291950 0.458665 -2.325232
v 0.334939 0.354881 -2.325232
v 0.438723 0.458665 -2.325232
v 0.039884 0.498549 -2.221534
vt 0.968750 0.531250
vt 0.843750 0.656250
vt 0.968750 0.656250
vt 0.539062 0.234375
vt 0.572208 0.206754
vt 0.539062 0.195312
vt 0.585938 0.234375
vt 0.572208 0.261996
vt 0.539062 0.273438
vt 0.505917 0.261996
vt 0.492188 0.234375
vt 0.505917 0.206754
vt 0.589844 0.664062
vt 0.614703 0.664062
vt 0.614703 0.992188
vt 0.589844 0.992188
vt 0.492188 0.308316
vt 0.492188 0.335938
vt 0.867188 0.335938
vt 0.867188 0.308316
vt 0.492188 0.363559
vt 0.867188 0.363559
vt 0.564985 0.664062
vt 0.564985 0.992188
vt 0.062730 0.261996
vt 0.007812 0.234375
vt 0.062730 0.206754
vt 0.437500 0.195312
vt 0.470646 0.206754
vt 0.437500 0.234375
vt 0.484375 0.234375
vt 0.470646 0.261996
vt 0.437500 0.273438
vt 0.404354 0.261996
vt 0.390625 0.234375
vt 0.404354 0.206754
vt 0.843750 0.531250
vt 0.968750 0.531250
vt 0.968750 0.656250
vt 0.843750 0.656250
vt 0.968750 0.531250
vt 0.843750 0.531250
vt 0.843750 0.656250
vt 0.968750 0.656250
vt 0.843750 0.656250
vt 0.968750 0.656250
vt 0.968750 0.531250
vt 0.843750 0.531250
vt 0.843750 0.531250
vt 0.968750 0.531250
vt 0.968750 0.656250
vt 0.843750 0.656250
vt 0.718750 0.242188
vt 0.766585 0.242188
vt 0.761663 0.273438
vt 0.718750 0.273438
vt 0.515625 0.103171
vt 0.558538 0.104237
vt 0.550572 0.106641
vt 0.515625 0.105772
vt 0.718750 0.261501
vt 0.753697 0.261501
vt 0.753697 0.222874
vt 0.718750 0.222874
vt 0.515625 0.105772
vt 0.550572 0.106641
vt 0.558538 0.104237
vt 0.515625 0.103171
vt 0.718750 0.210938
vt 0.761663 0.210938
vt 0.807138 0.242188
vt 0.798042 0.273438
vt 0.594917 0.107276
vt 0.580199 0.109116
vt 0.783324 0.261501
vt 0.783324 0.222874
vt 0.580199 0.109116
vt 0.594917 0.107276
vt 0.798042 0.210938
vt 0.515625 0.106139
vt 0.515625 0.111208
vt 0.640625 0.111823
vt 0.640625 0.107276
vt 0.619225 0.111823
vt 0.599995 0.112819
vt 0.592879 0.109116
vt 0.592879 0.112819
vt 0.438371 0.112819
vt 0.438371 0.109116
vt 0.599995 0.112819
vt 0.619225 0.111823
vt 0.390625 0.107276
vt 0.390625 0.111823
vt 0.515625 0.117188
vt 0.640625 0.117188
vt 0.627761 0.117188
vt 0.606946 0.117188
vt 0.592879 0.117188
vt 0.438371 0.117188
vt 0.606946 0.117188
vt 0.627761 0.117188
vt 0.390625 0.117188
vt 0.515625 0.123167
vt 0.640625 0.122552
vt 0.619225 0.122552
vt 0.599995 0.121556
vt 0.592879 0.121556
vt 0.438371 0.121556
vt 0.599995 0.121556
vt 0.619225 0.122552
vt 0.390625 0.122552
vt 0.515625 0.128236
vt 0.640625 0.127099
vt 0.594917 0.127099
vt 0.580199 0.125259
vt 0.592879 0.125259
vt 0.438371 0.125259
vt 0.580199 0.125259
vt 0.594917 0.127099
vt 0.390625 0.127099
vt 0.558538 0.130138
vt 0.550572 0.127734
vt 0.550572 0.127734
vt 0.558538 0.130138
vt 0.515625 0.131204
vt 0.515625 0.128603
vt 0.515625 0.128603
vt 0.515625 0.131204
vt 0.670915 0.242188
vt 0.675837 0.273438
vt 0.472712 0.130138
vt 0.480678 0.127734
vt 0.683803 0.261501
vt 0.683803 0.222874
vt 0.480678 0.127734
vt 0.472712 0.130138
vt 0.675837 0.210938
vt 0.630362 0.242188
vt 0.639458 0.273438
vt 0.436333 0.127099
vt 0.451051 0.125259
vt 0.654176 0.261501
vt 0.654176 0.222874
vt 0.451051 0.125259
vt 0.436333 0.127099
vt 0.639458 0.210938
vt 0.412025 0.122552
vt 0.431255 0.121556
vt 0.431255 0.121556
vt 0.412025 0.122552
vt 0.403489 0.117188
vt 0.424304 0.117188
vt 0.424304 0.117188
vt 0.403489 0.117188
vt 0.412025 0.111823
vt 0.431255 0.112819
vt 0.431255 0.112819
vt 0.412025 0.111823
vt 0.436333 0.107276
vt 0.451051 0.109116
vt 0.451051 0.109116
vt 0.436333 0.107276
vt 0.472712 0.104237
vt 0.480678 0.106641
vt 0.480678 0.106641
vt 0.472712 0.104237
vt 0.054688 0.328125
vt 0.087833 0.294979
vt 0.054688 0.281250
vt 0.101562 0.328125
vt 0.087833 0.361271
vt 0.054688 0.375000
vt 0.021542 0.361271
vt 0.007812 0.328125
vt 0.021542 0.294979
vt 0.054688 0.281250
vt 0.087833 0.281250
vt 0.087833 0.375000
vt 0.054688 0.375000
vt 0.007812 0.294979
vt 0.007812 0.328125
vt 0.101562 0.328125
vt 0.101562 0.294979
vt 0.007812 0.361271
vt 0.101562 0.361271
vt 0.021542 0.281250
vt 0.021542 0.375000
vt 0.054688 0.281250
vt 0.087833 0.294979
vt 0.054688 0.328125
vt 0.101562 0.328125
vt 0.087833 0.361271
vt 0.054688 0.375000
vt 0.021542 0.361271
vt 0.007812 0.328125
vt 0.021542 0.294979
vt 0.646667 0.646667
vt 0.060000 0.940000
vt 0.940000 0.940000
vt 0.940000 0.060000
vn 0.000000 0.000000 -1.000000
vn 0.000000 0.000000 -1.000000
vn 0.382683 -0.923880 0.000000
vn 0.923880 -0.382683 0.000000
vn 0.923880 0.382683 0.000000
vn 0.382683 0.923880 0.000000
vn -0.382683 0.923880 -0.000000
vn -0.923880 0.382683 -0.000000
vn -0.923880 -0.382683 0.000000
vn -0.382683 -0.923880 0.000000
vn 0.000000 0.000000 1.000000
vn 0.000000 0.000000 1.000000
vn 0.000000 0.000000 -1.000000
vn -0.000000 1.000000 0.000000
vn 0.000000 -1.000000 0.000000
vn -1.000000 0.000000 0.000000
vn 1.000000 0.000000 0.000000
vn 0.158879 -0.798741 0.580319
vn -0.061352 0.308435 0.949265
vn -0.195090 0.980785 0.000000
vn -0.061352 0.308435 -0.949265
vn 0.158879 -0.798741 -0.580319
vn 0.452450 -0.677140 0.580319
vn -0.174714 0.261478 0.949265
vn -0.555570 0.831470 0.000000
vn -0.174714 0.261478 -0.949265
vn 0.452450 -0.677140 -0.580319
vn 0.677140 -0.452450 0.580319
vn -0.261478 0.174714 0.949265
vn -0.831470 0.555570 0.000000
vn -0.261478 0.174714 -0.949265
vn 0.677140 -0.452450 -0.580319
vn 0.798741 -0.158879 0.580319
vn -0.308435 0.061352 0.949265
vn -0.980785 0.195090 0.000000
vn -0.308435 0.061352 -0.949265
vn 0.798741 -0.158879 -0.580319
vn 0.798741 0.158879 0.580319
vn -0.308435 -0.061352 0.949265
vn -0.980785 -0.195090 0.000000
vn -0.308435 -0.061352 -0.949265
vn 0.798741 0.158879 -0.580319
vn 0.677140 0.452450 0.580319
vn -0.261478 -0.174714 0.949265
vn -0.831470 -0.555570 0.000000
vn -0.261478 -0.174714 -0.949265
vn 0.677140 0.452450 -0.580319
vn 0.452450 0.677140 0.580319
vn -0.174714 -0.261478 0.949265
vn -0.555570 -0.831470 0.000000
vn -0.174714 -0.261478 -0.949265
vn 0.452450 0.677140 -0.580319
vn 0.158879 0.798741 0.580319
vn -0.061352 -0.308435 0.949265
vn -0.195090 -0.980785 0.000000
vn -0.061352 -0.308435 -0.949265
vn 0.158879 0.798741 -0.580319
vn -0.158879 0.798741 0.580319
vn 0.061352 -0.308435 0.949265
vn 0.195090 -0.980785 0.000000
vn 0.061352 -0.308435 -0.949265
vn -0.158879 0.798741 -0.580319
vn -0.452450 0.677140 0.580319
vn 0.174714 -0.261478 0.949265
vn 0.555570 -0.831470 0.000000
vn 0.174714 -0.261478 -0.949265
vn -0.452450 0.677140 -0.580319
vn -0.677140 0.452450 0.580319
vn 0.261478 -0.174714 0.949265
vn 0.831470 -0.555570 0.000000
vn 0.261478 -0.174714 -0.949265
vn -0.677140 0.452450 -0.580319
vn -0.798741 0.158879 0.580319
vn 0.308435 -0.061352 0.949265
vn 0.980785 -0.195090 0.000000
vn 0.308435 -0.061352 -0.949265
vn -0.798741 0.158879 -0.580319
vn -0.798741 -0.158879 0.580319
vn 0.308435 0.061352 0.949265
vn 0.980785 0.195090 0.000000
vn 0.308435 0.061352 -0.949265
vn -0.798741 -0.158879 -0.580319
vn -0.677140 -0.452450 0.580319
vn 0.261478 0.174714 0.949265
vn 0.831470 0.555570 0.000000
vn 0.261478 0.174714 -0.949265
vn -0.677140 -0.452450 -0.580319
vn -0.452450 -0.677140 0.580319
vn 0.174714 0.261478 0.949265
vn 0.555570 0.831470 0.000000
vn 0.174714 0.261478 -0.949265
vn -0.452450 -0.677140 -0.580319
vn -0.158879 -0.798741 0.580319
vn 0.061352 0.308435 0.949265
vn 0.195090 0.980785 0.000000
vn 0.061352 0.308435 -0.949265
vn -0.158879 -0.798741 -0.580319
vn 0.000000 0.000000 -1.000000
vn 0.382683 -0.923880 0.000000
vn 0.923880 -0.382683 0.000000
vn 0.923880 0.382683 0.000000
vn 0.382683 0.923880 0.000000
vn -0.382683 0.923880 0.000000
vn -0.923880 0.382683 -0.000000
vn -0.923880 -0.382683 0.000000
vn -0.382683 -0.923880 0.000000
vn 0.000000 0.000000 1.000000
vn 0.000000 1.000000 0.000000
vn 0.000000 -1.000000 0.000000
usemtl skin
f 1/1/1 2/2/1 3/3/1
f 4/4/2 5/5/2 6/6/2
f 4/4/2 7/7/2 5/5/2
f 4/4/2 8/8/2 7/7/2
f 4/4/2 9/9/2 8/8/2
f 4/4/2 10/10/2 9/9/2
f 4/4/2 11/11/2 10/10/2
f 4/4/2 12/12/2 11/11/2
f 4/4/2 6/6/2 12/12/2
f 6/13/3 5/14/3 13/15/3
f 6/13/3 13/15/3 14/16/3
f 5/17/4 7/18/4 15/19/4
f 5/17/4 15/19/4 13/20/4
f 7/18/5 8/21/5 16/22/5
f 7/18/5 16/22/5 15/19/5
f 8/14/6 9/13/6 17/16/6
f 8/14/6 17/16/6 16/15/6
f 9/13/7 10/23/7 18/24/7
f 9/13/7 18/24/7 17/16/7
f 10/25/8 11/26/8 19/26/8
f 10/25/8 19/26/8 18/25/8
f 11/26/9 12/27/9 20/27/9
f 11/26/9 20/27/9 19/26/9
f 12/23/10 6/13/10 14/16/10
f 12/23/10 14/16/10 20/24/10
f 14/28/11 13/29/11 21/30/11
f 13/29/11 15/31/11 21/30/11
f 15/31/11 16/32/11 21/30/11
f 16/32/11 17/33/11 21/30/11
f 17/33/11 18/34/11 21/30/11
f 18/34/11 19/35/11 21/30/11
f 19/35/11 20/36/11 21/30/11
f 20/36/11 14/28/11 21/30/11
f 22/37/12 23/38/12 24/39/12
f 22/37/12 24/39/12 25/40/12
f 26/41/13 27/42/13 28/43/13
f 26/41/13 28/43/13 29/44/13
f 25/45/14 24/46/14 29/47/14
f 25/45/14 29/47/14 28/48/14
f 27/48/15 26/47/15 23/46/15
f 27/48/15 23/46/15 22/45/15
f 27/49/16 22/50/16 25/51/16
f 27/49/16 25/51/16 28/52/16
f 23/50/17 26/49/17 29/52/17
f 23/50/17 29/52/17 24/51/17
f 30/53/18 31/54/18 32/55/18
f 30/53/18 32/55/18 33/56/18
f 33/57/19 32/58/19 34/59/19
f 33/57/19 34/59/19 35/60/19
f 35/61/20 34/62/20 36/63/20
f 35/61/20 36/63/20 37/64/20
f 37/65/21 36/66/21 38/67/21
f 37/65/21 38/67/21 39/68/21
f 39/69/22 38/70/22 31/54/22
f 39/69/22 31/54/22 30/53/22
f 31/54/23 40/71/23 41/72/23
f 31/54/23 41/72/23 32/55/23
f 32/58/24 41/73/24 42/74/24
f 32/58/24 42/74/24 34/59/24
f 34/62/25 42/75/25 43/76/25
f 34/62/25 43/76/25 36/63/25
f 36/66/26 43/77/26 44/78/26
f 36/66/26 44/78/26 38/67/26
f 38/70/27 44/79/27 40/71/27
f 38/70/27 40/71/27 31/54/27
f 40/80/28 45/81/28 46/82/28
f 40/80/28 46/82/28 41/83/28
f 41/73/29 46/84/29 47/85/29
f 41/73/29 47/85/29 42/74/29
f 42/86/30 47/87/30 48/88/30
f 42/86/30 48/88/30 43/89/30
f 43/77/31 48/90/31 49/91/31
f 43/77/31 49/91/31 44/78/31
f 44/92/32 49/93/32 45/81/32
f 44/92/32 45/81/32 40/80/32
f 45/81/33 50/94/33 51/95/33
f 45/81/33 51/95/33 46/82/33
f 46/84/34 51/96/34 52/97/34
f 46/84/34 52/97/34 47/85/34
f 47/87/35 52/98/35 53/99/35
f 47/87/35 53/99/35 48/88/35
f 48/90/36 53/100/36 54/101/36
f 48/90/36 54/101/36 49/91/36
f 49/93/37 54/102/37 50/94/37
f 49/93/37 50/94/37 45/81/37
f 50/94/38 55/103/38 56/104/38
f 50/94/38 56/104/38 51/95/38
f 51/96/39 56/105/39 57/106/39
f 51/96/39 57/106/39 52/97/39
f 52/98/40 57/107/40 58/108/40
f 52/98/40 58/108/40 53/99/40
f 53/100/41 58/109/41 59/110/41
f 53/100/41 59/110/41 54/101/41
f 54/102/42 59/111/42 55/103/42
f 54/102/42 55/103/42 50/94/42
f 55/103/43 60/112/43 61/113/43
f 55/103/43 61/113/43 56/104/43
f 56/105/44 61/114/44 62/115/44
f 56/105/44 62/115/44 57/106/44
f 57/107/45 62/116/45 63/117/45
f 57/107/45 63/117/45 58/108/45
f 58/109/46 63/118/46 64/119/46
f 58/109/46 64/119/46 59/110/46
f 59/111/47 64/120/47 60/112/47
f 59/111/47 60/112/47 55/103/47
f 60/71/48 65/54/48 66/55/48
f 60/71/48 66/55/48 61/72/48
f 61/114/49 66/121/49 67/122/49
f 61/114/49 67/122/49 62/115/49
f 62/75/50 67/62/50 68/63/50
f 62/75/50 68/63/50 63/76/50
f 63/118/51 68/123/51 69/124/51
f 63/118/51 69/124/51 64/119/51
f 64/79/52 69/70/52 65/54/52
f 64/79/52 65/54/52 60/71/52
f 65/54/53 70/53/53 71/56/53
f 65/54/53 71/56/53 66/55/53
f 66/121/54 71/125/54 72/126/54
f 66/121/54 72/126/54 67/122/54
f 67/62/55 72/61/55 73/64/55
f 67/62/55 73/64/55 68/63/55
f 68/123/56 73/127/56 74/128/56
f 68/123/56 74/128/56 69/124/56
f 69/70/57 74/69/57 70/53/57
f 69/70/57 70/53/57 65/54/57
f 70/53/58 75/129/58 76/130/58
f 70/53/58 76/130/58 71/56/58
f 71/125/59 76/131/59 77/132/59
f 71/125/59 77/132/59 72/126/59
f 72/61/60 77/133/60 78/134/60
f 72/61/60 78/134/60 73/64/60
f 73/127/61 78/135/61 79/136/61
f 73/127/61 79/136/61 74/128/61
f 74/69/62 79/137/62 75/129/62
f 74/69/62 75/129/62 70/53/62
f 75/129/63 80/138/63 81/139/63
f 75/129/63 81/139/63 76/130/63
f 76/131/64 81/140/64 82/141/64
f 76/131/64 82/141/64 77/132/64
f 77/133/65 82/142/65 83/143/65
f 77/133/65 83/143/65 78/134/65
f 78/135/66 83/144/66 84/145/66
f 78/135/66 84/145/66 79/136/66
f 79/137/67 84/146/67 80/138/67
f 79/137/67 80/138/67 75/129/67
f 80/112/68 85/103/68 86/104/68
f 80/112/68 86/104/68 81/113/68
f 81/140/69 86/147/69 87/148/69
f 81/140/69 87/148/69 82/141/69
f 82/116/70 87/107/70 88/108/70
f 82/116/70 88/108/70 83/117/70
f 83/144/71 88/149/71 89/150/71
f 83/144/71 89/150/71 84/145/71
f 84/120/72 89/111/72 85/103/72
f 84/120/72 85/103/72 80/112/72
f 85/103/73 90/94/73 91/95/73
f 85/103/73 91/95/73 86/104/73
f 86/147/74 91/151/74 92/152/74
f 86/147/74 92/152/74 87/148/74
f 87/107/75 92/98/75 93/99/75
f 87/107/75 93/99/75 88/108/75
f 88/149/76 93/153/76 94/154/76
f 88/149/76 94/154/76 89/150/76
f 89/111/77 94/102/77 90/94/77
f 89/111/77 90/94/77 85/103/77
f 90/94/78 95/81/78 96/82/78
f 90/94/78 96/82/78 91/95/78
f 91/151/79 96/155/79 97/156/79
f 91/151/79 97/156/79 92/152/79
f 92/98/80 97/87/80 98/88/80
f 92/98/80 98/88/80 93/99/80
f 93/153/81 98/157/81 99/158/81
f 93/153/81 99/158/81 94/154/81
f 94/102/82 99/93/82 95/81/82
f 94/102/82 95/81/82 90/94/82
f 95/81/83 100/80/83 101/83/83
f 95/81/83 101/83/83 96/82/83
f 96/155/84 101/159/84 102/160/84
f 96/155/84 102/160/84 97/156/84
f 97/87/85 102/86/85 103/89/85
f 97/87/85 103/89/85 98/88/85
f 98/157/86 103/161/86 104/162/86
f 98/157/86 104/162/86 99/158/86
f 99/93/87 104/92/87 100/80/87
f 99/93/87 100/80/87 95/81/87
f 100/138/88 105/129/88 106/130/88
f 100/138/88 106/130/88 101/139/88
f 101/159/89 106/163/89 107/164/89
f 101/159/89 107/164/89 102/160/89
f 102/142/90 107/133/90 108/134/90
f 102/142/90 108/134/90 103/143/90
f 103/161/91 108/165/91 109/166/91
f 103/161/91 109/166/91 104/162/91
f 104/146/92 109/137/92 105/129/92
f 104/146/92 105/129/92 100/138/92
f 105/129/93 30/53/93 33/56/93
f 105/129/93 33/56/93 106/130/93
f 106/163/94 33/57/94 35/60/94
f 106/163/94 35/60/94 107/164/94
f 107/133/95 35/61/95 37/64/95
f 107/133/95 37/64/95 108/134/95
f 108/165/96 37/65/96 39/68/96
f 108/165/96 39/68/96 109/166/96
f 109/137/97 39/69/97 30/53/97
f 109/137/97 30/53/97 105/129/97
f 110/167/98 111/168/98 112/169/98
f 110/167/98 113/170/98 111/168/98
f 110/167/98 114/171/98 113/170/98
f 110/167/98 115/172/98 114/171/98
f 110/167/98 116/173/98 115/172/98
f 110/167/98 117/174/98 116/173/98
f 110/167/98 118/175/98 117/174/98
f 110/167/98 112/169/98 118/175/98
f 112/176/99 111/177/99 119/178/99
f 112/176/99 119/178/99 120/179/99
f 111/180/100 113/181/100 121/182/100
f 111/180/100 121/182/100 119/183/100
f 113/181/101 114/184/101 122/185/101
f 113/181/101 122/185/101 121/182/101
f 114/177/102 115/176/102 123/179/102
f 114/177/102 123/179/102 122/178/102
f 115/176/103 116/186/103 124/187/103
f 115/176/103 124/187/103 123/179/103
f 116/184/104 117/181/104 125/182/104
f 116/184/104 125/182/104 124/185/104
f 117/181/105 118/180/105 126/183/105
f 117/181/105 126/183/105 125/182/105
f 118/186/106 112/176/106 120/179/106
f 118/186/106 120/179/106 126/187/106
f 120/188/107 119/189/107 127/190/107
f 119/189/107 121/191/107 127/190/107
f 121/191/107 122/192/107 127/190/107
f 122/192/107 123/193/107 127/190/107
f 123/193/107 124/194/107 127/190/107
f 124/194/107 125/195/107 127/190/107
f 125/195/107 126/196/107 127/190/107
f 126/196/107 120/188/107 127/190/107
usemtl interior
f 128/197/108 2/198/108 3/199/108
f 128/197/109 3/199/109 2/198/109
f 128/197/108 3/199/108 1/200/108
f 128/197/109 1/200/109 3/199/109
f 128/197/108 1/200/108 2/198/108
f 128/197/109 2/198/109 1/200/109
