# Helion dreadnought, fragment 1 of 8
# Generated by tools. Edit the generator script.
v 0.136842 0.821053 -2.390175
v -0.136842 0.821053 -2.390175
v -0.136842 1.094737 -2.390175
v 0.410526 1.071930 -1.914695
v -0.410526 1.071930 -1.914695
v -0.410526 1.573684 -1.914695
v -0.410526 1.573684 -1.276098
v 0.410526 1.573684 -1.914695
v 0.410526 0.342105 -1.914695
v -0.410526 0.342105 -1.914695
v -0.410526 0.843860 -1.914695
v -0.410526 0.843860 -1.276098
v -0.114035 0.547368 -1.914695
v -0.615789 0.547368 -1.914695
v -0.615789 1.368421 -1.914695
v -0.114035 1.368421 -1.914695
v -0.615789 1.368421 -1.276098
v 0.091228 0.000000 -1.948632
v -0.091228 0.000000 -1.948632
v -0.091228 0.182456 -1.948632
v -0.501754 1.322807 -2.572632
v -0.372738 1.193791 -2.572632
v -0.501754 1.140351 -2.572632
v -0.319298 1.322807 -2.572632
v -0.372738 1.451823 -2.572632
v -0.501754 1.505263 -2.572632
v -0.630770 1.451823 -2.572632
v -0.684211 1.322807 -2.572632
v -0.630770 1.193791 -2.572632
v -0.372738 1.193791 -1.842807
v -0.501754 1.140351 -1.842807
v -0.319298 1.322807 -1.842807
v -0.372738 1.451823 -1.842807
v -0.501754 1.505263 -1.842807
v -0.630770 1.451823 -1.842807
v -0.684211 1.322807 -1.842807
v -0.630770 1.193791 -1.842807
v -0.501754 1.322807 -1.842807
v -0.044966 1.035718 -2.171228
v -0.413863 1.304007 -2.171228
v -0.456789 1.244984 -2.171228
v -0.087892 0.976695 -2.171228
v -0.413863 1.304007 -2.244211
v -0.044966 1.035718 -2.244211
v -0.087892 0.976695 -2.244211
v -0.456789 1.244984 -2.244211
v -0.501754 1.108421 -2.207719
v -0.419712 1.124740 -2.207719
v -0.428156 1.145124 -2.177352
v -0.501754 1.130484 -2.177352
v -0.441817 1.178105 -2.188951
v -0.501754 1.166183 -2.188951
v -0.441817 1.178105 -2.226487
v -0.501754 1.166183 -2.226487
v -0.428156 1.145124 -2.238086
v -0.501754 1.130484 -2.238086
v -0.350161 1.171213 -2.207719
v -0.365761 1.186814 -2.177352
v -0.391004 1.212057 -2.188951
v -0.391004 1.212057 -2.226487
v -0.365761 1.186814 -2.238086
v -0.303688 1.240765 -2.207719
v -0.324071 1.249208 -2.177352
v -0.357052 1.262869 -2.188951
v -0.357052 1.262869 -2.226487
v -0.324071 1.249208 -2.238086
v -0.287368 1.322807 -2.207719
v -0.309431 1.322807 -2.177352
v -0.345130 1.322807 -2.188951
v -0.345130 1.322807 -2.226487
v -0.309431 1.322807 -2.238086
v -0.303688 1.404849 -2.207719
v -0.324071 1.396406 -2.177352
v -0.357052 1.382745 -2.188951
v -0.357052 1.382745 -2.226487
v -0.324071 1.396406 -2.238086
v -0.350161 1.474401 -2.207719
v -0.365761 1.458800 -2.177352
v -0.391004 1.433557 -2.188951
v -0.391004 1.433557 -2.226487
v -0.365761 1.458800 -2.238086
v -0.419712 1.520874 -2.207719
v -0.428156 1.500490 -2.177352
v -0.441817 1.467509 -2.188951
v -0.441817 1.467509 -2.226487
v -0.428156 1.500490 -2.238086
v -0.501754 1.537193 -2.207719
v -0.501754 1.515130 -2.177352
v -0.501754 1.479431 -2.188951
v -0.501754 1.479431 -2.226487
v -0.501754 1.515130 -2.238086
v -0.583796 1.520874 -2.207719
v -0.575353 1.500490 -2.177352
v -0.561692 1.467509 -2.188951
v -0.561692 1.467509 -2.226487
v -0.575353 1.500490 -2.238086
v -0.653348 1.474401 -2.207719
v -0.637747 1.458800 -2.177352
v -0.612505 1.433557 -2.188951
v -0.612505 1.433557 -2.226487
v -0.637747 1.458800 -2.238086
v -0.699821 1.404849 -2.207719
v -0.679438 1.396406 -2.177352
v -0.646456 1.382745 -2.188951
v -0.646456 1.382745 -2.226487
v -0.679438 1.396406 -2.238086
v -0.716140 1.322807 -2.207719
v -0.694077 1.322807 -2.177352
v -0.658379 1.322807 -2.188951
v -0.658379 1.322807 -2.226487
v -0.694077 1.322807 -2.238086
v -0.699821 1.240765 -2.207719
v -0.679438 1.249208 -2.177352
v -0.646456 1.262869 -2.188951
v -0.646456 1.262869 -2.226487
v -0.679438 1.249208 -2.238086
v -0.653348 1.171213 -2.207719
v -0.637747 1.186814 -2.177352
v -0.612505 1.212057 -2.188951
v -0.612505 1.212057 -2.226487
v -0.637747 1.186814 -2.238086
v -0.583796 1.124740 -2.207719
v -0.575353 1.145124 -2.177352
v -0.561692 1.178105 -2.188951
v -0.561692 1.178105 -2.226487
v -0.575353 1.145124 -2.238086
v -0.501754 1.322807 -2.600000
v -0.383060 1.204112 -2.600000
v -0.501754 1.154947 -2.600000
v -0.333895 1.322807 -2.600000
v -0.383060 1.441502 -2.600000
v -0.501754 1.490667 -2.600000
v -0.620449 1.441502 -2.600000
v -0.669614 1.322807 -2.600000
v -0.620449 1.204112 -2.600000
v -0.383060 1.204112 -2.508772
v -0.501754 1.154947 -2.508772
v -0.333895 1.322807 -2.508772
v -0.383060 1.441502 -2.508772
v -0.501754 1.490667 -2.508772
v -0.620449 1.441502 -2.508772
v -0.669614 1.322807 -2.508772
v -0.620449 1.204112 -2.508772
v -0.501754 1.322807 -2.508772
v -0.501754 0.592982 -2.572632
v -0.372738 0.463966 -2.572632
v -0.501754 0.410526 -2.572632
v -0.319298 0.592982 -2.572632
v -0.372738 0.721998 -2.572632
v -0.501754 0.775439 -2.572632
v -0.630770 0.721998 -2.572632
v -0.684211 0.592982 -2.572632
v -0.630770 0.463966 -2.572632
v -0.372738 0.463966 -1.842807
v -0.501754 0.410526 -1.842807
v -0.319298 0.592982 -1.842807
v -0.372738 0.721998 -1.842807
v -0.501754 0.775439 -1.842807
v -0.630770 0.721998 -1.842807
v -0.684211 0.592982 -1.842807
v -0.630770 0.463966 -1.842807
v -0.501754 0.592982 -1.842807
v -0.087892 0.939095 -2.171228
v -0.456789 0.670806 -2.171228
v -0.413863 0.611782 -2.171228
v -0.044966 0.880071 -2.171228
v -0.456789 0.670806 -2.244211
v -0.087892 0.939095 -2.244211
v -0.044966 0.880071 -2.244211
v -0.413863 0.611782 -2.244211
v -0.501754 0.378596 -2.207719
v -0.419712 0.394916 -2.207719
v -0.428156 0.415299 -2.177352
v -0.501754 0.400659 -2.177352
v -0.441817 0.448280 -2.188951
v -0.501754 0.436358 -2.188951
v -0.441817 0.448280 -2.226487
v -0.501754 0.436358 -2.226487
v -0.428156 0.415299 -2.238086
v -0.501754 0.400659 -2.238086
v -0.350161 0.441389 -2.207719
v -0.365761 0.456990 -2.177352
v -0.391004 0.482232 -2.188951
v -0.391004 0.482232 -2.226487
v -0.365761 0.456990 -2.238086
v -0.303688 0.510940 -2.207719
v -0.324071 0.519384 -2.177352
v -0.357052 0.533045 -2.188951
v -0.357052 0.533045 -2.226487
v -0.324071 0.519384 -2.238086
v -0.287368 0.592982 -2.207719
v -0.309431 0.592982 -2.177352
v -0.345130 0.592982 -2.188951
v -0.345130 0.592982 -2.226487
v -0.309431 0.592982 -2.238086
v -0.303688 0.675024 -2.207719
v -0.324071 0.666581 -2.177352
v -0.357052 0.652920 -2.188951
v -0.357052 0.652920 -2.226487
v -0.324071 0.666581 -2.238086
v -0.350161 0.744576 -2.207719
v -0.365761 0.728975 -2.177352
v -0.391004 0.703733 -2.188951
v -0.391004 0.703733 -2.226487
v -0.365761 0.728975 -2.238086
v -0.419712 0.791049 -2.207719
v -0.428156 0.770666 -2.177352
v -0.441817 0.737685 -2.188951
v -0.441817 0.737685 -2.226487
v -0.428156 0.770666 -2.238086
v -0.501754 0.807368 -2.207719
v -0.501754 0.785305 -2.177352
v -0.501754 0.749607 -2.188951
v -0.501754 0.749607 -2.226487
v -0.501754 0.785305 -2.238086
v -0.583796 0.791049 -2.207719
v -0.575353 0.770666 -2.177352
v -0.561692 0.737685 -2.188951
v -0.561692 0.737685 -2.226487
v -0.575353 0.770666 -2.238086
v -0.653348 0.744576 -2.207719
v -0.637747 0.728975 -2.177352
v -0.612505 0.703733 -2.188951
v -0.612505 0.703733 -2.226487
v -0.637747 0.728975 -2.238086
v -0.699821 0.675024 -2.207719
v -0.679438 0.666581 -2.177352
v -0.646456 0.652920 -2.188951
v -0.646456 0.652920 -2.226487
v -0.679438 0.666581 -2.238086
v -0.716140 0.592982 -2.207719
v -0.694077 0.592982 -2.177352
v -0.658379 0.592982 -2.188951
v -0.658379 0.592982 -2.226487
v -0.694077 0.592982 -2.238086
v -0.699821 0.510940 -2.207719
v -0.679438 0.519384 -2.177352
v -0.646456 0.533045 -2.188951
v -0.646456 0.533045 -2.226487
v -0.679438 0.519384 -2.238086
v -0.653348 0.441389 -2.207719
v -0.637747 0.456990 -2.177352
v -0.612505 0.482232 -2.188951
v -0.612505 0.482232 -2.226487
v -0.637747 0.456990 -2.238086
v -0.583796 0.394916 -2.207719
v -0.575353 0.415299 -2.177352
v -0.561692 0.448280 -2.188951
v -0.561692 0.448280 -2.226487
v -0.575353 0.415299 -2.238086
v -0.501754 0.592982 -2.600000
v -0.383060 0.474288 -2.600000
v -0.501754 0.425123 -2.600000
v -0.333895 0.592982 -2.600000
v -0.383060 0.711677 -2.600000
v -0.501754 0.760842 -2.600000
v -0.620449 0.711677 -2.600000
v -0.669614 0.592982 -2.600000
v -0.620449 0.474288 -2.600000
v -0.383060 0.474288 -2.508772
v -0.501754 0.425123 -2.508772
v -0.333895 0.592982 -2.508772
v -0.383060 0.711677 -2.508772
v -0.501754 0.760842 -2.508772
v -0.620449 0.711677 -2.508772
v -0.669614 0.592982 -2.508772
v -0.620449 0.474288 -2.508772
v -0.501754 0.592982 -2.508772
v -0.030409 0.060819 -1.948632
v -0.082105 1.372982 -1.786975
v -0.205263 0.592982 -1.755046
v -0.045614 0.912281 -2.390175
v -0.364912 0.957895 -1.755046
vt 0.968750 0.531250
vt 0.843750 0.531250
vt 0.843750 0.656250
vt 0.460938 0.382812
vt 0.335938 0.382812
vt 0.335938 0.476562
vt 0.343750 0.992188
vt 0.546875 0.664062
vt 0.343750 0.664062
vt 0.109375 0.296875
vt 0.484375 0.375000
vt 0.109375 0.375000
vt 0.460938 0.382812
vt 0.335938 0.382812
vt 0.335938 0.476562
vt 0.109375 0.296875
vt 0.484375 0.375000
vt 0.109375 0.375000
vt 0.460938 0.382812
vt 0.335938 0.382812
vt 0.335938 0.476562
vt 0.460938 0.476562
vt 0.343750 0.992188
vt 0.546875 0.664062
vt 0.343750 0.664062
vt 0.109375 0.296875
vt 0.484375 0.375000
vt 0.109375 0.375000
vt 0.968750 0.531250
vt 0.843750 0.531250
vt 0.843750 0.656250
vt 0.539062 0.234375
vt 0.572208 0.206754
vt 0.539062 0.195312
vt 0.585938 0.234375
vt 0.572208 0.261996
vt 0.539062 0.273438
vt 0.505917 0.261996
vt 0.492188 0.234375
vt 0.505917 0.206754
vt 0.589844 0.664062
vt 0.614703 0.664062
vt 0.614703 0.992188
vt 0.589844 0.992188
vt 0.327895 0.206754
vt 0.382812 0.234375
vt 0.327895 0.261996
vt 0.564985 0.664062
vt 0.564985 0.992188
vt 0.492188 0.363559
vt 0.492188 0.335938
vt 0.867188 0.335938
vt 0.867188 0.363559
vt 0.492188 0.308316
vt 0.867188 0.308316
vt 0.437500 0.195312
vt 0.470646 0.206754
vt 0.437500 0.234375
vt 0.484375 0.234375
vt 0.470646 0.261996
vt 0.437500 0.273438
vt 0.404354 0.261996
vt 0.390625 0.234375
vt 0.404354 0.206754
vt 0.968750 0.553791
vt 0.856779 0.656250
vt 0.843750 0.633709
vt 0.955721 0.531250
vt 0.856779 0.656250
vt 0.968750 0.553791
vt 0.955721 0.531250
vt 0.843750 0.633709
vt 0.955721 0.656250
vt 0.843750 0.656250
vt 0.843750 0.531250
vt 0.955721 0.531250
vt 0.968750 0.531250
vt 0.856779 0.531250
vt 0.856779 0.656250
vt 0.968750 0.656250
vt 0.843750 0.553791
vt 0.968750 0.553791
vt 0.968750 0.531250
vt 0.843750 0.531250
vt 0.968750 0.656250
vt 0.843750 0.656250
vt 0.843750 0.633709
vt 0.968750 0.633709
vt 0.718750 0.242188
vt 0.766585 0.242188
vt 0.761663 0.273438
vt 0.718750 0.273438
vt 0.515625 0.103171
vt 0.558538 0.104237
vt 0.550572 0.106641
vt 0.515625 0.105772
vt 0.718750 0.261501
vt 0.753697 0.261501
vt 0.753697 0.222874
vt 0.718750 0.222874
vt 0.515625 0.105772
vt 0.550572 0.106641
vt 0.558538 0.104237
vt 0.515625 0.103171
vt 0.718750 0.210938
vt 0.761663 0.210938
vt 0.807138 0.242188
vt 0.798042 0.273438
vt 0.594917 0.107276
vt 0.580199 0.109116
vt 0.783324 0.261501
vt 0.783324 0.222874
vt 0.580199 0.109116
vt 0.594917 0.107276
vt 0.798042 0.210938
vt 0.515625 0.106139
vt 0.515625 0.111208
vt 0.640625 0.111823
vt 0.640625 0.107276
vt 0.619225 0.111823
vt 0.599995 0.112819
vt 0.592879 0.109116
vt 0.592879 0.112819
vt 0.438371 0.112819
vt 0.438371 0.109116
vt 0.599995 0.112819
vt 0.619225 0.111823
vt 0.390625 0.107276
vt 0.390625 0.111823
vt 0.515625 0.117188
vt 0.640625 0.117188
vt 0.627761 0.117188
vt 0.606946 0.117188
vt 0.592879 0.117188
vt 0.438371 0.117188
vt 0.606946 0.117188
vt 0.627761 0.117188
vt 0.390625 0.117188
vt 0.515625 0.123167
vt 0.640625 0.122552
vt 0.619225 0.122552
vt 0.599995 0.121556
vt 0.592879 0.121556
vt 0.438371 0.121556
vt 0.599995 0.121556
vt 0.619225 0.122552
vt 0.390625 0.122552
vt 0.515625 0.128236
vt 0.640625 0.127099
vt 0.594917 0.127099
vt 0.580199 0.125259
vt 0.592879 0.125259
vt 0.438371 0.125259
vt 0.580199 0.125259
vt 0.594917 0.127099
vt 0.390625 0.127099
vt 0.558538 0.130138
vt 0.550572 0.127734
vt 0.550572 0.127734
vt 0.558538 0.130138
vt 0.515625 0.131204
vt 0.515625 0.128603
vt 0.515625 0.128603
vt 0.515625 0.131204
vt 0.670915 0.242188
vt 0.675837 0.273438
vt 0.472712 0.130138
vt 0.480678 0.127734
vt 0.683803 0.261501
vt 0.683803 0.222874
vt 0.480678 0.127734
vt 0.472712 0.130138
vt 0.675837 0.210938
vt 0.630362 0.242188
vt 0.639458 0.273438
vt 0.436333 0.127099
vt 0.451051 0.125259
vt 0.654176 0.261501
vt 0.654176 0.222874
vt 0.451051 0.125259
vt 0.436333 0.127099
vt 0.639458 0.210938
vt 0.412025 0.122552
vt 0.431255 0.121556
vt 0.431255 0.121556
vt 0.412025 0.122552
vt 0.403489 0.117188
vt 0.424304 0.117188
vt 0.424304 0.117188
vt 0.403489 0.117188
vt 0.412025 0.111823
vt 0.431255 0.112819
vt 0.431255 0.112819
vt 0.412025 0.111823
vt 0.436333 0.107276
vt 0.451051 0.109116
vt 0.451051 0.109116
vt 0.436333 0.107276
vt 0.472712 0.104237
vt 0.480678 0.106641
vt 0.480678 0.106641
vt 0.472712 0.104237
vt 0.054687 0.328125
vt 0.087833 0.294979
vt 0.054687 0.281250
vt 0.101562 0.328125
vt 0.087833 0.361271
vt 0.054687 0.375000
vt 0.021542 0.361271
vt 0.007812 0.328125
vt 0.021542 0.294979
vt 0.054687 0.281250
vt 0.087833 0.281250
vt 0.087833 0.375000
vt 0.054687 0.375000
vt 0.007812 0.294979
vt 0.007812 0.328125
vt 0.101562 0.328125
vt 0.101562 0.294979
vt 0.007812 0.361271
vt 0.101562 0.361271
vt 0.021542 0.281250
vt 0.021542 0.375000
vt 0.054687 0.281250
vt 0.087833 0.294979
vt 0.054687 0.328125
vt 0.101562 0.328125
vt 0.087833 0.361271
vt 0.054687 0.375000
vt 0.021542 0.361271
vt 0.007812 0.328125
vt 0.021542 0.294979
vt 0.539062 0.234375
vt 0.572208 0.206754
vt 0.539062 0.195312
vt 0.585938 0.234375
vt 0.572208 0.261996
vt 0.539062 0.273438
vt 0.505917 0.261996
vt 0.492188 0.234375
vt 0.505917 0.206754
vt 0.589844 0.664062
vt 0.614703 0.664062
vt 0.614703 0.992188
vt 0.589844 0.992188
vt 0.327895 0.206754
vt 0.382812 0.234375
vt 0.327895 0.261996
vt 0.564985 0.664062
vt 0.564985 0.992188
vt 0.492188 0.363559
vt 0.492188 0.335938
vt 0.867188 0.335938
vt 0.867188 0.363559
vt 0.492188 0.308316
vt 0.867188 0.308316
vt 0.437500 0.195312
vt 0.470646 0.206754
vt 0.437500 0.234375
vt 0.484375 0.234375
vt 0.470646 0.261996
vt 0.437500 0.273438
vt 0.404354 0.261996
vt 0.390625 0.234375
vt 0.404354 0.206754
vt 0.955721 0.656250
vt 0.843750 0.553791
vt 0.856779 0.531250
vt 0.968750 0.633709
vt 0.843750 0.553791
vt 0.955721 0.656250
vt 0.968750 0.633709
vt 0.856779 0.531250
vt 0.968750 0.656250
vt 0.856779 0.656250
vt 0.856779 0.531250
vt 0.968750 0.531250
vt 0.955721 0.531250
vt 0.843750 0.531250
vt 0.843750 0.656250
vt 0.955721 0.656250
vt 0.843750 0.656250
vt 0.968750 0.656250
vt 0.968750 0.633709
vt 0.843750 0.633709
vt 0.968750 0.553791
vt 0.843750 0.553791
vt 0.843750 0.531250
vt 0.968750 0.531250
vt 0.718750 0.242188
vt 0.766585 0.242188
vt 0.761663 0.273438
vt 0.718750 0.273438
vt 0.515625 0.103171
vt 0.558538 0.104237
vt 0.550572 0.106641
vt 0.515625 0.105772
vt 0.718750 0.261501
vt 0.753697 0.261501
vt 0.753697 0.222874
vt 0.718750 0.222874
vt 0.515625 0.105772
vt 0.550572 0.106641
vt 0.558538 0.104237
vt 0.515625 0.103171
vt 0.718750 0.210938
vt 0.761663 0.210938
vt 0.807138 0.242188
vt 0.798042 0.273438
vt 0.594917 0.107276
vt 0.580199 0.109116
vt 0.783324 0.261501
vt 0.783324 0.222874
vt 0.580199 0.109116
vt 0.594917 0.107276
vt 0.798042 0.210938
vt 0.515625 0.106139
vt 0.515625 0.111208
vt 0.640625 0.111823
vt 0.640625 0.107276
vt 0.619225 0.111823
vt 0.599995 0.112819
vt 0.592879 0.109116
vt 0.592879 0.112819
vt 0.438371 0.112819
vt 0.438371 0.109116
vt 0.599995 0.112819
vt 0.619225 0.111823
vt 0.390625 0.107276
vt 0.390625 0.111823
vt 0.515625 0.117188
vt 0.640625 0.117188
vt 0.627761 0.117188
vt 0.606946 0.117188
vt 0.592879 0.117188
vt 0.438371 0.117188
vt 0.606946 0.117188
vt 0.627761 0.117188
vt 0.390625 0.117188
vt 0.515625 0.123167
vt 0.640625 0.122552
vt 0.619225 0.122552
vt 0.599995 0.121556
vt 0.592879 0.121556
vt 0.438371 0.121556
vt 0.599995 0.121556
vt 0.619225 0.122552
vt 0.390625 0.122552
vt 0.515625 0.128236
vt 0.640625 0.127099
vt 0.594917 0.127099
vt 0.580199 0.125259
vt 0.592879 0.125259
vt 0.438371 0.125259
vt 0.580199 0.125259
vt 0.594917 0.127099
vt 0.390625 0.127099
vt 0.558538 0.130138
vt 0.550572 0.127734
vt 0.550572 0.127734
vt 0.558538 0.130138
vt 0.515625 0.131204
vt 0.515625 0.128603
vt 0.515625 0.128603
vt 0.515625 0.131204
vt 0.670915 0.242188
vt 0.675837 0.273438
vt 0.472712 0.130138
vt 0.480678 0.127734
vt 0.683803 0.261501
vt 0.683803 0.222874
vt 0.480678 0.127734
vt 0.472712 0.130138
vt 0.675837 0.210938
vt 0.630362 0.242188
vt 0.639458 0.273438
vt 0.436333 0.127099
vt 0.451051 0.125259
vt 0.654176 0.261501
vt 0.654176 0.222874
vt 0.451051 0.125259
vt 0.436333 0.127099
vt 0.639458 0.210938
vt 0.412025 0.122552
vt 0.431255 0.121556
vt 0.431255 0.121556
vt 0.412025 0.122552
vt 0.403489 0.117188
vt 0.424304 0.117188
vt 0.424304 0.117188
vt 0.403489 0.117188
vt 0.412025 0.111823
vt 0.431255 0.112819
vt 0.431255 0.112819
vt 0.412025 0.111823
vt 0.436333 0.107276
vt 0.451051 0.109116
vt 0.451051 0.109116
vt 0.436333 0.107276
vt 0.472712 0.104237
vt 0.480678 0.106641
vt 0.480678 0.106641
vt 0.472712 0.104237
vt 0.054687 0.328125
vt 0.087833 0.294979
vt 0.054687 0.281250
vt 0.101562 0.328125
vt 0.087833 0.361271
vt 0.054687 0.375000
vt 0.021542 0.361271
vt 0.007812 0.328125
vt 0.021542 0.294979
vt 0.054687 0.281250
vt 0.087833 0.281250
vt 0.087833 0.375000
vt 0.054687 0.375000
vt 0.007812 0.294979
vt 0.007812 0.328125
vt 0.101562 0.328125
vt 0.101562 0.294979
vt 0.007812 0.361271
vt 0.101562 0.361271
vt 0.021542 0.281250
vt 0.021542 0.375000
vt 0.054687 0.281250
vt 0.087833 0.294979
vt 0.054687 0.328125
vt 0.101562 0.328125
vt 0.087833 0.361271
vt 0.054687 0.375000
vt 0.021542 0.361271
vt 0.007812 0.328125
vt 0.021542 0.294979
vt 0.353333 0.353333
vt 0.940000 0.060000
vt 0.060000 0.940000
vt 0.060000 0.060000
vt 0.412000 0.236000
vt 0.940000 0.060000
vt 0.060000 0.060000
vt 0.940000 0.060000
vt 0.060000 0.940000
vt 0.060000 0.060000
vt 0.280000 0.280000
vt 0.940000 0.060000
vt 0.060000 0.060000
vt 0.060000 0.940000
vt 0.060000 0.060000
vt 0.353333 0.353333
vt 0.060000 0.940000
vt 0.940000 0.060000
vt 0.060000 0.060000
vt 0.500000 0.280000
vt 0.060000 0.060000
vt 0.060000 0.060000
vt 0.940000 0.940000
vt 0.940000 0.060000
vn 0.000000 0.000000 -1.000000
vn 0.000000 0.000000 -1.000000
vn -0.000000 1.000000 0.000000
vn -1.000000 0.000000 0.000000
vn 0.000000 0.000000 -1.000000
vn -1.000000 0.000000 0.000000
vn 0.000000 0.000000 -1.000000
vn -0.000000 1.000000 0.000000
vn -1.000000 0.000000 0.000000
vn 0.000000 0.000000 -1.000000
vn 0.000000 0.000000 -1.000000
vn 0.382683 -0.923880 0.000000
vn 0.923880 -0.382683 0.000000
vn 0.923880 0.382683 0.000000
vn 0.382683 0.923880 0.000000
vn -0.382683 0.923880 0.000000
vn -0.923880 0.382683 0.000000
vn -0.923880 -0.382683 0.000000
vn -0.382683 -0.923880 0.000000
vn 0.000000 0.000000 1.000000
vn 0.000000 0.000000 1.000000
vn 0.000000 0.000000 -1.000000
vn -0.588172 -0.808736 0.000000
vn 0.588172 0.808736 0.000000
vn 0.808736 -0.588172 0.000000
vn -0.808736 0.588172 0.000000
vn 0.158879 -0.798741 0.580319
vn -0.061352 0.308435 0.949265
vn -0.195090 0.980785 0.000000
vn -0.061352 0.308435 -0.949265
vn 0.158879 -0.798741 -0.580319
vn 0.452450 -0.677140 0.580319
vn -0.174714 0.261478 0.949265
vn -0.555570 0.831470 0.000000
vn -0.174714 0.261478 -0.949265
vn 0.452450 -0.677140 -0.580319
vn 0.677140 -0.452450 0.580319
vn -0.261478 0.174714 0.949265
vn -0.831470 0.555570 0.000000
vn -0.261478 0.174714 -0.949265
vn 0.677140 -0.452450 -0.580319
vn 0.798741 -0.158879 0.580319
vn -0.308435 0.061352 0.949265
vn -0.980785 0.195090 0.000000
vn -0.308435 0.061352 -0.949265
vn 0.798741 -0.158879 -0.580319
vn 0.798741 0.158879 0.580319
vn -0.308435 -0.061352 0.949265
vn -0.980785 -0.195090 0.000000
vn -0.308435 -0.061352 -0.949265
vn 0.798741 0.158879 -0.580319
vn 0.677140 0.452450 0.580319
vn -0.261478 -0.174714 0.949265
vn -0.831470 -0.555570 0.000000
vn -0.261478 -0.174714 -0.949265
vn 0.677140 0.452450 -0.580319
vn 0.452450 0.677140 0.580319
vn -0.174714 -0.261478 0.949265
vn -0.555570 -0.831470 0.000000
vn -0.174714 -0.261478 -0.949265
vn 0.452450 0.677140 -0.580319
vn 0.158879 0.798741 0.580319
vn -0.061352 -0.308435 0.949265
vn -0.195090 -0.980785 0.000000
vn -0.061352 -0.308435 -0.949265
vn 0.158879 0.798741 -0.580319
vn -0.158879 0.798741 0.580319
vn 0.061352 -0.308435 0.949265
vn 0.195090 -0.980785 0.000000
vn 0.061352 -0.308435 -0.949265
vn -0.158879 0.798741 -0.580319
vn -0.452450 0.677140 0.580319
vn 0.174714 -0.261478 0.949265
vn 0.555570 -0.831470 0.000000
vn 0.174714 -0.261478 -0.949265
vn -0.452450 0.677140 -0.580319
vn -0.677140 0.452450 0.580319
vn 0.261478 -0.174714 0.949265
vn 0.831470 -0.555570 0.000000
vn 0.261478 -0.174714 -0.949265
vn -0.677140 0.452450 -0.580319
vn -0.798741 0.158879 0.580319
vn 0.308435 -0.061352 0.949265
vn 0.980785 -0.195090 0.000000
vn 0.308435 -0.061352 -0.949265
vn -0.798741 0.158879 -0.580319
vn -0.798741 -0.158879 0.580319
vn 0.308435 0.061352 0.949265
vn 0.980785 0.195090 0.000000
vn 0.308435 0.061352 -0.949265
vn -0.798741 -0.158879 -0.580319
vn -0.677140 -0.452450 0.580319
vn 0.261478 0.174714 0.949265
vn 0.831470 0.555570 0.000000
vn 0.261478 0.174714 -0.949265
vn -0.677140 -0.452450 -0.580319
vn -0.452450 -0.677140 0.580319
vn 0.174714 0.261478 0.949265
vn 0.555570 0.831470 0.000000
vn 0.174714 0.261478 -0.949265
vn -0.452450 -0.677140 -0.580319
vn -0.158879 -0.798741 0.580319
vn 0.061352 0.308435 0.949265
vn 0.195090 0.980785 0.000000
vn 0.061352 0.308435 -0.949265
vn -0.158879 -0.798741 -0.580319
vn 0.000000 0.000000 -1.000000
vn 0.382683 -0.923880 0.000000
vn 0.923880 -0.382683 0.000000
vn 0.923880 0.382683 0.000000
vn 0.382683 0.923880 0.000000
vn -0.382683 0.923880 0.000000
vn -0.923880 0.382683 0.000000
vn -0.923880 -0.382683 0.000000
vn -0.382683 -0.923880 0.000000
vn 0.000000 0.000000 1.000000
vn 0.000000 0.000000 -1.000000
vn 0.382683 -0.923880 0.000000
vn 0.923880 -0.382683 0.000000
vn 0.923880 0.382683 -0.000000
vn 0.382683 0.923880 0.000000
vn -0.382683 0.923880 0.000000
vn -0.923880 0.382683 -0.000000
vn -0.923880 -0.382683 0.000000
vn -0.382683 -0.923880 0.000000
vn 0.000000 0.000000 1.000000
vn 0.000000 0.000000 1.000000
vn 0.000000 0.000000 -1.000000
vn 0.588172 -0.808736 0.000000
vn -0.588172 0.808736 0.000000
vn 0.808736 0.588172 -0.000000
vn -0.808736 -0.588172 -0.000000
vn 0.158879 -0.798741 0.580319
vn -0.061352 0.308435 0.949265
vn -0.195090 0.980785 0.000000
vn -0.061352 0.308435 -0.949265
vn 0.158879 -0.798741 -0.580319
vn 0.452450 -0.677140 0.580319
vn -0.174714 0.261478 0.949265
vn -0.555570 0.831470 0.000000
vn -0.174714 0.261478 -0.949265
vn 0.452450 -0.677140 -0.580319
vn 0.677140 -0.452450 0.580319
vn -0.261478 0.174714 0.949265
vn -0.831470 0.555570 0.000000
vn -0.261478 0.174714 -0.949265
vn 0.677140 -0.452450 -0.580319
vn 0.798741 -0.158879 0.580319
vn -0.308435 0.061352 0.949265
vn -0.980785 0.195090 0.000000
vn -0.308435 0.061352 -0.949265
vn 0.798741 -0.158879 -0.580319
vn 0.798741 0.158879 0.580319
vn -0.308435 -0.061352 0.949265
vn -0.980785 -0.195090 0.000000
vn -0.308435 -0.061352 -0.949265
vn 0.798741 0.158879 -0.580319
vn 0.677140 0.452450 0.580319
vn -0.261478 -0.174714 0.949265
vn -0.831470 -0.555570 0.000000
vn -0.261478 -0.174714 -0.949265
vn 0.677140 0.452450 -0.580319
vn 0.452450 0.677140 0.580319
vn -0.174714 -0.261478 0.949265
vn -0.555570 -0.831470 0.000000
vn -0.174714 -0.261478 -0.949265
vn 0.452450 0.677140 -0.580319
vn 0.158879 0.798741 0.580319
vn -0.061352 -0.308435 0.949265
vn -0.195090 -0.980785 0.000000
vn -0.061352 -0.308435 -0.949265
vn 0.158879 0.798741 -0.580319
vn -0.158879 0.798741 0.580319
vn 0.061352 -0.308435 0.949265
vn 0.195090 -0.980785 0.000000
vn 0.061352 -0.308435 -0.949265
vn -0.158879 0.798741 -0.580319
vn -0.452450 0.677140 0.580319
vn 0.174714 -0.261478 0.949265
vn 0.555570 -0.831470 0.000000
vn 0.174714 -0.261478 -0.949265
vn -0.452450 0.677140 -0.580319
vn -0.677140 0.452450 0.580319
vn 0.261478 -0.174714 0.949265
vn 0.831470 -0.555570 0.000000
vn 0.261478 -0.174714 -0.949265
vn -0.677140 0.452450 -0.580319
vn -0.798741 0.158879 0.580319
vn 0.308435 -0.061352 0.949265
vn 0.980785 -0.195090 0.000000
vn 0.308435 -0.061352 -0.949265
vn -0.798741 0.158879 -0.580319
vn -0.798741 -0.158879 0.580319
vn 0.308435 0.061352 0.949265
vn 0.980785 0.195090 0.000000
vn 0.308435 0.061352 -0.949265
vn -0.798741 -0.158879 -0.580319
vn -0.677140 -0.452450 0.580319
vn 0.261478 0.174714 0.949265
vn 0.831470 0.555570 0.000000
vn 0.261478 0.174714 -0.949265
vn -0.677140 -0.452450 -0.580319
vn -0.452450 -0.677140 0.580319
vn 0.174714 0.261478 0.949265
vn 0.555570 0.831470 0.000000
vn 0.174714 0.261478 -0.949265
vn -0.452450 -0.677140 -0.580319
vn -0.158879 -0.798741 0.580319
vn 0.061352 0.308435 0.949265
vn 0.195090 0.980785 0.000000
vn 0.061352 0.308435 -0.949265
vn -0.158879 -0.798741 -0.580319
vn 0.000000 0.000000 -1.000000
vn 0.382683 -0.923880 0.000000
vn 0.923880 -0.382683 0.000000
vn 0.923880 0.382683 0.000000
vn 0.382683 0.923880 0.000000
vn -0.382683 0.923880 0.000000
vn -0.923880 0.382683 0.000000
vn -0.923880 -0.382683 0.000000
vn -0.382683 -0.923880 0.000000
vn 0.000000 0.000000 1.000000
vn 0.000000 1.000000 0.000000
vn 0.000000 -1.000000 0.000000
vn 0.000000 1.000000 0.000000
vn 0.000000 -1.000000 0.000000
vn 0.000000 1.000000 0.000000
vn 0.000000 -1.000000 0.000000
vn 0.000000 1.000000 0.000000
vn 0.000000 -1.000000 0.000000
vn 0.000000 1.000000 0.000000
vn 0.000000 -1.000000 0.000000
usemtl skin
f 1/1/1 2/2/1 3/3/1
f 4/4/2 5/5/2 6/6/2
f 7/7/3 8/8/3 6/9/3
f 5/10/4 7/11/4 6/12/4
f 9/13/5 10/14/5 11/15/5
f 10/16/6 12/17/6 11/18/6
f 13/19/7 14/20/7 15/21/7
f 13/19/7 15/21/7 16/22/7
f 17/23/8 16/24/8 15/25/8
f 14/26/9 17/27/9 15/28/9
f 18/29/10 19/30/10 20/31/10
f 21/32/11 22/33/11 23/34/11
f 21/32/11 24/35/11 22/33/11
f 21/32/11 25/36/11 24/35/11
f 21/32/11 26/37/11 25/36/11
f 21/32/11 27/38/11 26/37/11
f 21/32/11 28/39/11 27/38/11
f 21/32/11 29/40/11 28/39/11
f 21/32/11 23/34/11 29/40/11
f 23/41/12 22/42/12 30/43/12
f 23/41/12 30/43/12 31/44/12
f 22/45/13 24/46/13 32/46/13
f 22/45/13 32/46/13 30/45/13
f 24/46/14 25/47/14 33/47/14
f 24/46/14 33/47/14 32/46/14
f 25/42/15 26/41/15 34/44/15
f 25/42/15 34/44/15 33/43/15
f 26/41/16 27/48/16 35/49/16
f 26/41/16 35/49/16 34/44/16
f 27/50/17 28/51/17 36/52/17
f 27/50/17 36/52/17 35/53/17
f 28/51/18 29/54/18 37/55/18
f 28/51/18 37/55/18 36/52/18
f 29/48/19 23/41/19 31/44/19
f 29/48/19 31/44/19 37/49/19
f 31/56/20 30/57/20 38/58/20
f 30/57/20 32/59/20 38/58/20
f 32/59/20 33/60/20 38/58/20
f 33/60/20 34/61/20 38/58/20
f 34/61/20 35/62/20 38/58/20
f 35/62/20 36/63/20 38/58/20
f 36/63/20 37/64/20 38/58/20
f 37/64/20 31/56/20 38/58/20
f 39/65/21 40/66/21 41/67/21
f 39/65/21 41/67/21 42/68/21
f 43/69/22 44/70/22 45/71/22
f 43/69/22 45/71/22 46/72/22
f 42/73/23 41/74/23 46/75/23
f 42/73/23 46/75/23 45/76/23
f 44/77/24 43/78/24 40/79/24
f 44/77/24 40/79/24 39/80/24
f 44/81/25 39/82/25 42/83/25
f 44/81/25 42/83/25 45/84/25
f 40/85/26 43/86/26 46/87/26
f 40/85/26 46/87/26 41/88/26
f 47/89/27 48/90/27 49/91/27
f 47/89/27 49/91/27 50/92/27
f 50/93/28 49/94/28 51/95/28
f 50/93/28 51/95/28 52/96/28
f 52/97/29 51/98/29 53/99/29
f 52/97/29 53/99/29 54/100/29
f 54/101/30 53/102/30 55/103/30
f 54/101/30 55/103/30 56/104/30
f 56/105/31 55/106/31 48/90/31
f 56/105/31 48/90/31 47/89/31
f 48/90/32 57/107/32 58/108/32
f 48/90/32 58/108/32 49/91/32
f 49/94/33 58/109/33 59/110/33
f 49/94/33 59/110/33 51/95/33
f 51/98/34 59/111/34 60/112/34
f 51/98/34 60/112/34 53/99/34
f 53/102/35 60/113/35 61/114/35
f 53/102/35 61/114/35 55/103/35
f 55/106/36 61/115/36 57/107/36
f 55/106/36 57/107/36 48/90/36
f 57/116/37 62/117/37 63/118/37
f 57/116/37 63/118/37 58/119/37
f 58/109/38 63/120/38 64/121/38
f 58/109/38 64/121/38 59/110/38
f 59/122/39 64/123/39 65/124/39
f 59/122/39 65/124/39 60/125/39
f 60/113/40 65/126/40 66/127/40
f 60/113/40 66/127/40 61/114/40
f 61/128/41 66/129/41 62/117/41
f 61/128/41 62/117/41 57/116/41
f 62/117/42 67/130/42 68/131/42
f 62/117/42 68/131/42 63/118/42
f 63/120/43 68/132/43 69/133/43
f 63/120/43 69/133/43 64/121/43
f 64/123/44 69/134/44 70/135/44
f 64/123/44 70/135/44 65/124/44
f 65/126/45 70/136/45 71/137/45
f 65/126/45 71/137/45 66/127/45
f 66/129/46 71/138/46 67/130/46
f 66/129/46 67/130/46 62/117/46
f 67/130/47 72/139/47 73/140/47
f 67/130/47 73/140/47 68/131/47
f 68/132/48 73/141/48 74/142/48
f 68/132/48 74/142/48 69/133/48
f 69/134/49 74/143/49 75/144/49
f 69/134/49 75/144/49 70/135/49
f 70/136/50 75/145/50 76/146/50
f 70/136/50 76/146/50 71/137/50
f 71/138/51 76/147/51 72/139/51
f 71/138/51 72/139/51 67/130/51
f 72/139/52 77/148/52 78/149/52
f 72/139/52 78/149/52 73/140/52
f 73/141/53 78/150/53 79/151/53
f 73/141/53 79/151/53 74/142/53
f 74/143/54 79/152/54 80/153/54
f 74/143/54 80/153/54 75/144/54
f 75/145/55 80/154/55 81/155/55
f 75/145/55 81/155/55 76/146/55
f 76/147/56 81/156/56 77/148/56
f 76/147/56 77/148/56 72/139/56
f 77/107/57 82/90/57 83/91/57
f 77/107/57 83/91/57 78/108/57
f 78/150/58 83/157/58 84/158/58
f 78/150/58 84/158/58 79/151/58
f 79/111/59 84/98/59 85/99/59
f 79/111/59 85/99/59 80/112/59
f 80/154/60 85/159/60 86/160/60
f 80/154/60 86/160/60 81/155/60
f 81/115/61 86/106/61 82/90/61
f 81/115/61 82/90/61 77/107/61
f 82/90/62 87/89/62 88/92/62
f 82/90/62 88/92/62 83/91/62
f 83/157/63 88/161/63 89/162/63
f 83/157/63 89/162/63 84/158/63
f 84/98/64 89/97/64 90/100/64
f 84/98/64 90/100/64 85/99/64
f 85/159/65 90/163/65 91/164/65
f 85/159/65 91/164/65 86/160/65
f 86/106/66 91/105/66 87/89/66
f 86/106/66 87/89/66 82/90/66
f 87/89/67 92/165/67 93/166/67
f 87/89/67 93/166/67 88/92/67
f 88/161/68 93/167/68 94/168/68
f 88/161/68 94/168/68 89/162/68
f 89/97/69 94/169/69 95/170/69
f 89/97/69 95/170/69 90/100/69
f 90/163/70 95/171/70 96/172/70
f 90/163/70 96/172/70 91/164/70
f 91/105/71 96/173/71 92/165/71
f 91/105/71 92/165/71 87/89/71
f 92/165/72 97/174/72 98/175/72
f 92/165/72 98/175/72 93/166/72
f 93/167/73 98/176/73 99/177/73
f 93/167/73 99/177/73 94/168/73
f 94/169/74 99/178/74 100/179/74
f 94/169/74 100/179/74 95/170/74
f 95/171/75 100/180/75 101/181/75
f 95/171/75 101/181/75 96/172/75
f 96/173/76 101/182/76 97/174/76
f 96/173/76 97/174/76 92/165/76
f 97/148/77 102/139/77 103/140/77
f 97/148/77 103/140/77 98/149/77
f 98/176/78 103/183/78 104/184/78
f 98/176/78 104/184/78 99/177/78
f 99/152/79 104/143/79 105/144/79
f 99/152/79 105/144/79 100/153/79
f 100/180/80 105/185/80 106/186/80
f 100/180/80 106/186/80 101/181/80
f 101/156/81 106/147/81 102/139/81
f 101/156/81 102/139/81 97/148/81
f 102/139/82 107/130/82 108/131/82
f 102/139/82 108/131/82 103/140/82
f 103/183/83 108/187/83 109/188/83
f 103/183/83 109/188/83 104/184/83
f 104/143/84 109/134/84 110/135/84
f 104/143/84 110/135/84 105/144/84
f 105/185/85 110/189/85 111/190/85
f 105/185/85 111/190/85 106/186/85
f 106/147/86 111/138/86 107/130/86
f 106/147/86 107/130/86 102/139/86
f 107/130/87 112/117/87 113/118/87
f 107/130/87 113/118/87 108/131/87
f 108/187/88 113/191/88 114/192/88
f 108/187/88 114/192/88 109/188/88
f 109/134/89 114/123/89 115/124/89
f 109/134/89 115/124/89 110/135/89
f 110/189/90 115/193/90 116/194/90
f 110/189/90 116/194/90 111/190/90
f 111/138/91 116/129/91 112/117/91
f 111/138/91 112/117/91 107/130/91
f 112/117/92 117/116/92 118/119/92
f 112/117/92 118/119/92 113/118/92
f 113/191/93 118/195/93 119/196/93
f 113/191/93 119/196/93 114/192/93
f 114/123/94 119/122/94 120/125/94
f 114/123/94 120/125/94 115/124/94
f 115/193/95 120/197/95 121/198/95
f 115/193/95 121/198/95 116/194/95
f 116/129/96 121/128/96 117/116/96
f 116/129/96 117/116/96 112/117/96
f 117/174/97 122/165/97 123/166/97
f 117/174/97 123/166/97 118/175/97
f 118/195/98 123/199/98 124/200/98
f 118/195/98 124/200/98 119/196/98
f 119/178/99 124/169/99 125/170/99
f 119/178/99 125/170/99 120/179/99
f 120/197/100 125/201/100 126/202/100
f 120/197/100 126/202/100 121/198/100
f 121/182/101 126/173/101 122/165/101
f 121/182/101 122/165/101 117/174/101
f 122/165/102 47/89/102 50/92/102
f 122/165/102 50/92/102 123/166/102
f 123/199/103 50/93/103 52/96/103
f 123/199/103 52/96/103 124/200/103
f 124/169/104 52/97/104 54/100/104
f 124/169/104 54/100/104 125/170/104
f 125/201/105 54/101/105 56/104/105
f 125/201/105 56/104/105 126/202/105
f 126/173/106 56/105/106 47/89/106
f 126/173/106 47/89/106 122/165/106
f 127/203/107 128/204/107 129/205/107
f 127/203/107 130/206/107 128/204/107
f 127/203/107 131/207/107 130/206/107
f 127/203/107 132/208/107 131/207/107
f 127/203/107 133/209/107 132/208/107
f 127/203/107 134/210/107 133/209/107
f 127/203/107 135/211/107 134/210/107
f 127/203/107 129/205/107 135/211/107
f 129/212/108 128/213/108 136/214/108
f 129/212/108 136/214/108 137/215/108
f 128/216/109 130/217/109 138/218/109
f 128/216/109 138/218/109 136/219/109
f 130/217/110 131/220/110 139/221/110
f 130/217/110 139/221/110 138/218/110
f 131/213/111 132/212/111 140/215/111
f 131/213/111 140/215/111 139/214/111
f 132/212/112 133/222/112 141/223/112
f 132/212/112 141/223/112 140/215/112
f 133/220/113 134/217/113 142/218/113
f 133/220/113 142/218/113 141/221/113
f 134/217/114 135/216/114 143/219/114
f 134/217/114 143/219/114 142/218/114
f 135/222/115 129/212/115 137/215/115
f 135/222/115 137/215/115 143/223/115
f 137/224/116 136/225/116 144/226/116
f 136/225/116 138/227/116 144/226/116
f 138/227/116 139/228/116 144/226/116
f 139/228/116 140/229/116 144/226/116
f 140/229/116 141/230/116 144/226/116
f 141/230/116 142/231/116 144/226/116
f 142/231/116 143/232/116 144/226/116
f 143/232/116 137/224/116 144/226/116
f 145/233/117 146/234/117 147/235/117
f 145/233/117 148/236/117 146/234/117
f 145/233/117 149/237/117 148/236/117
f 145/233/117 150/238/117 149/237/117
f 145/233/117 151/239/117 150/238/117
f 145/233/117 152/240/117 151/239/117
f 145/233/117 153/241/117 152/240/117
f 145/233/117 147/235/117 153/241/117
f 147/242/118 146/243/118 154/244/118
f 147/242/118 154/244/118 155/245/118
f 146/246/119 148/247/119 156/247/119
f 146/246/119 156/247/119 154/246/119
f 148/247/120 149/248/120 157/248/120
f 148/247/120 157/248/120 156/247/120
f 149/243/121 150/242/121 158/245/121
f 149/243/121 158/245/121 157/244/121
f 150/242/122 151/249/122 159/250/122
f 150/242/122 159/250/122 158/245/122
f 151/251/123 152/252/123 160/253/123
f 151/251/123 160/253/123 159/254/123
f 152/252/124 153/255/124 161/256/124
f 152/252/124 161/256/124 160/253/124
f 153/249/125 147/242/125 155/245/125
f 153/249/125 155/245/125 161/250/125
f 155/257/126 154/258/126 162/259/126
f 154/258/126 156/260/126 162/259/126
f 156/260/126 157/261/126 162/259/126
f 157/261/126 158/262/126 162/259/126
f 158/262/126 159/263/126 162/259/126
f 159/263/126 160/264/126 162/259/126
f 160/264/126 161/265/126 162/259/126
f 161/265/126 155/257/126 162/259/126
f 163/266/127 164/267/127 165/268/127
f 163/266/127 165/268/127 166/269/127
f 167/270/128 168/271/128 169/272/128
f 167/270/128 169/272/128 170/273/128
f 166/274/129 165/275/129 170/276/129
f 166/274/129 170/276/129 169/277/129
f 168/278/130 167/279/130 164/280/130
f 168/278/130 164/280/130 163/281/130
f 168/282/131 163/283/131 166/284/131
f 168/282/131 166/284/131 169/285/131
f 164/286/132 167/287/132 170/288/132
f 164/286/132 170/288/132 165/289/132
f 171/290/133 172/291/133 173/292/133
f 171/290/133 173/292/133 174/293/133
f 174/294/134 173/295/134 175/296/134
f 174/294/134 175/296/134 176/297/134
f 176/298/135 175/299/135 177/300/135
f 176/298/135 177/300/135 178/301/135
f 178/302/136 177/303/136 179/304/136
f 178/302/136 179/304/136 180/305/136
f 180/306/137 179/307/137 172/291/137
f 180/306/137 172/291/137 171/290/137
f 172/291/138 181/308/138 182/309/138
f 172/291/138 182/309/138 173/292/138
f 173/295/139 182/310/139 183/311/139
f 173/295/139 183/311/139 175/296/139
f 175/299/140 183/312/140 184/313/140
f 175/299/140 184/313/140 177/300/140
f 177/303/141 184/314/141 185/315/141
f 177/303/141 185/315/141 179/304/141
f 179/307/142 185/316/142 181/308/142
f 179/307/142 181/308/142 172/291/142
f 181/317/143 186/318/143 187/319/143
f 181/317/143 187/319/143 182/320/143
f 182/310/144 187/321/144 188/322/144
f 182/310/144 188/322/144 183/311/144
f 183/323/145 188/324/145 189/325/145
f 183/323/145 189/325/145 184/326/145
f 184/314/146 189/327/146 190/328/146
f 184/314/146 190/328/146 185/315/146
f 185/329/147 190/330/147 186/318/147
f 185/329/147 186/318/147 181/317/147
f 186/318/148 191/331/148 192/332/148
f 186/318/148 192/332/148 187/319/148
f 187/321/149 192/333/149 193/334/149
f 187/321/149 193/334/149 188/322/149
f 188/324/150 193/335/150 194/336/150
f 188/324/150 194/336/150 189/325/150
f 189/327/151 194/337/151 195/338/151
f 189/327/151 195/338/151 190/328/151
f 190/330/152 195/339/152 191/331/152
f 190/330/152 191/331/152 186/318/152
f 191/331/153 196/340/153 197/341/153
f 191/331/153 197/341/153 192/332/153
f 192/333/154 197/342/154 198/343/154
f 192/333/154 198/343/154 193/334/154
f 193/335/155 198/344/155 199/345/155
f 193/335/155 199/345/155 194/336/155
f 194/337/156 199/346/156 200/347/156
f 194/337/156 200/347/156 195/338/156
f 195/339/157 200/348/157 196/340/157
f 195/339/157 196/340/157 191/331/157
f 196/340/158 201/349/158 202/350/158
f 196/340/158 202/350/158 197/341/158
f 197/342/159 202/351/159 203/352/159
f 197/342/159 203/352/159 198/343/159
f 198/344/160 203/353/160 204/354/160
f 198/344/160 204/354/160 199/345/160
f 199/346/161 204/355/161 205/356/161
f 199/346/161 205/356/161 200/347/161
f 200/348/162 205/357/162 201/349/162
f 200/348/162 201/349/162 196/340/162
f 201/308/163 206/291/163 207/292/163
f 201/308/163 207/292/163 202/309/163
f 202/351/164 207/358/164 208/359/164
f 202/351/164 208/359/164 203/352/164
f 203/312/165 208/299/165 209/300/165
f 203/312/165 209/300/165 204/313/165
f 204/355/166 209/360/166 210/361/166
f 204/355/166 210/361/166 205/356/166
f 205/316/167 210/307/167 206/291/167
f 205/316/167 206/291/167 201/308/167
f 206/291/168 211/290/168 212/293/168
f 206/291/168 212/293/168 207/292/168
f 207/358/169 212/362/169 213/363/169
f 207/358/169 213/363/169 208/359/169
f 208/299/170 213/298/170 214/301/170
f 208/299/170 214/301/170 209/300/170
f 209/360/171 214/364/171 215/365/171
f 209/360/171 215/365/171 210/361/171
f 210/307/172 215/306/172 211/290/172
f 210/307/172 211/290/172 206/291/172
f 211/290/173 216/366/173 217/367/173
f 211/290/173 217/367/173 212/293/173
f 212/362/174 217/368/174 218/369/174
f 212/362/174 218/369/174 213/363/174
f 213/298/175 218/370/175 219/371/175
f 213/298/175 219/371/175 214/301/175
f 214/364/176 219/372/176 220/373/176
f 214/364/176 220/373/176 215/365/176
f 215/306/177 220/374/177 216/366/177
f 215/306/177 216/366/177 211/290/177
f 216/366/178 221/375/178 222/376/178
f 216/366/178 222/376/178 217/367/178
f 217/368/179 222/377/179 223/378/179
f 217/368/179 223/378/179 218/369/179
f 218/370/180 223/379/180 224/380/180
f 218/370/180 224/380/180 219/371/180
f 219/372/181 224/381/181 225/382/181
f 219/372/181 225/382/181 220/373/181
f 220/374/182 225/383/182 221/375/182
f 220/374/182 221/375/182 216/366/182
f 221/349/183 226/340/183 227/341/183
f 221/349/183 227/341/183 222/350/183
f 222/377/184 227/384/184 228/385/184
f 222/377/184 228/385/184 223/378/184
f 223/353/185 228/344/185 229/345/185
f 223/353/185 229/345/185 224/354/185
f 224/381/186 229/386/186 230/387/186
f 224/381/186 230/387/186 225/382/186
f 225/357/187 230/348/187 226/340/187
f 225/357/187 226/340/187 221/349/187
f 226/340/188 231/331/188 232/332/188
f 226/340/188 232/332/188 227/341/188
f 227/384/189 232/388/189 233/389/189
f 227/384/189 233/389/189 228/385/189
f 228/344/190 233/335/190 234/336/190
f 228/344/190 234/336/190 229/345/190
f 229/386/191 234/390/191 235/391/191
f 229/386/191 235/391/191 230/387/191
f 230/348/192 235/339/192 231/331/192
f 230/348/192 231/331/192 226/340/192
f 231/331/193 236/318/193 237/319/193
f 231/331/193 237/319/193 232/332/193
f 232/388/194 237/392/194 238/393/194
f 232/388/194 238/393/194 233/389/194
f 233/335/195 238/324/195 239/325/195
f 233/335/195 239/325/195 234/336/195
f 234/390/196 239/394/196 240/395/196
f 234/390/196 240/395/196 235/391/196
f 235/339/197 240/330/197 236/318/197
f 235/339/197 236/318/197 231/331/197
f 236/318/198 241/317/198 242/320/198
f 236/318/198 242/320/198 237/319/198
f 237/392/199 242/396/199 243/397/199
f 237/392/199 243/397/199 238/393/199
f 238/324/200 243/323/200 244/326/200
f 238/324/200 244/326/200 239/325/200
f 239/394/201 244/398/201 245/399/201
f 239/394/201 245/399/201 240/395/201
f 240/330/202 245/329/202 241/317/202
f 240/330/202 241/317/202 236/318/202
f 241/375/203 246/366/203 247/367/203
f 241/375/203 247/367/203 242/376/203
f 242/396/204 247/400/204 248/401/204
f 242/396/204 248/401/204 243/397/204
f 243/379/205 248/370/205 249/371/205
f 243/379/205 249/371/205 244/380/205
f 244/398/206 249/402/206 250/403/206
f 244/398/206 250/403/206 245/399/206
f 245/383/207 250/374/207 246/366/207
f 245/383/207 246/366/207 241/375/207
f 246/366/208 171/290/208 174/293/208
f 246/366/208 174/293/208 247/367/208
f 247/400/209 174/294/209 176/297/209
f 247/400/209 176/297/209 248/401/209
f 248/370/210 176/298/210 178/301/210
f 248/370/210 178/301/210 249/371/210
f 249/402/211 178/302/211 180/305/211
f 249/402/211 180/305/211 250/403/211
f 250/374/212 180/306/212 171/290/212
f 250/374/212 171/290/212 246/366/212
f 251/404/213 252/405/213 253/406/213
f 251/404/213 254/407/213 252/405/213
f 251/404/213 255/408/213 254/407/213
f 251/404/213 256/409/213 255/408/213
f 251/404/213 257/410/213 256/409/213
f 251/404/213 258/411/213 257/410/213
f 251/404/213 259/412/213 258/411/213
f 251/404/213 253/406/213 259/412/213
f 253/413/214 252/414/214 260/415/214
f 253/413/214 260/415/214 261/416/214
f 252/417/215 254/418/215 262/419/215
f 252/417/215 262/419/215 260/420/215
f 254/418/216 255/421/216 263/422/216
f 254/418/216 263/422/216 262/419/216
f 255/414/217 256/413/217 264/416/217
f 255/414/217 264/416/217 263/415/217
f 256/413/218 257/423/218 265/424/218
f 256/413/218 265/424/218 264/416/218
f 257/421/219 258/418/219 266/419/219
f 257/421/219 266/419/219 265/422/219
f 258/418/220 259/417/220 267/420/220
f 258/418/220 267/420/220 266/419/220
f 259/423/221 253/413/221 261/416/221
f 259/423/221 261/416/221 267/424/221
f 261/425/222 260/426/222 268/427/222
f 260/426/222 262/428/222 268/427/222
f 262/428/222 263/429/222 268/427/222
f 263/429/222 264/430/222 268/427/222
f 264/430/222 265/431/222 268/427/222
f 265/431/222 266/432/222 268/427/222
f 266/432/222 267/433/222 268/427/222
f 267/433/222 261/425/222 268/427/222
usemtl interior
f 269/434/223 18/435/223 20/436/223
f 269/434/224 20/436/224 18/435/224
f 269/434/223 20/436/223 19/437/223
f 269/434/224 19/437/224 20/436/224
f 269/434/223 19/437/223 18/435/223
f 269/434/224 18/435/224 19/437/224
f 270/438/225 4/439/225 6/440/225
f 270/438/226 6/440/226 4/439/226
f 270/438/225 6/440/225 8/441/225
f 270/438/226 8/441/226 6/440/226
f 270/438/225 8/441/225 7/442/225
f 270/438/226 7/442/226 8/441/226
f 270/438/225 7/442/225 5/443/225
f 270/438/226 5/443/226 7/442/226
f 270/438/225 5/443/225 4/439/225
f 270/438/226 4/439/226 5/443/226
f 271/444/227 9/445/227 11/446/227
f 271/444/228 11/446/228 9/445/228
f 271/444/227 11/446/227 12/447/227
f 271/444/228 12/447/228 11/446/228
f 271/444/227 12/447/227 10/448/227
f 271/444/228 10/448/228 12/447/228
f 271/444/227 10/448/227 9/445/227
f 271/444/228 9/445/228 10/448/228
f 272/449/229 1/450/229 3/451/229
f 272/449/230 3/451/230 1/450/230
f 272/449/229 3/451/229 2/452/229
f 272/449/230 2/452/230 3/451/230
f 272/449/229 2/452/229 1/450/229
f 272/449/230 1/450/230 2/452/230
f 273/453/231 13/454/231 14/455/231
f 273/453/232 14/455/232 13/454/232
f 273/453/231 14/455/231 17/456/231
f 273/453/232 17/456/232 14/455/232
f 273/453/231 17/456/231 16/457/231
f 273/453/232 16/457/232 17/456/232
f 273/453/231 16/457/231 13/454/231
f 273/453/232 13/454/232 16/457/232
