# Helion tender, fragment 7 of 8
# Generated by tools. Edit the generator script.
v -0.603991 0.322129 1.673024
v 0.603991 0.603991 1.673024
v -0.603991 0.603991 1.673024
v 0.603991 0.603991 1.189831
v -0.603991 0.603991 1.189831
v -0.603991 0.322129 1.189831
v 0.603991 0.322129 1.673024
v -0.664391 0.342262 1.471693
v -0.583858 0.342262 1.471693
v -0.583858 0.422794 1.471693
v -0.664391 0.422794 1.471693
v -0.583858 0.342262 1.391161
v -0.664391 0.342262 1.391161
v -0.664391 0.422794 1.391161
v -0.583858 0.422794 1.391161
v -0.301996 0.595938 1.673024
v -0.245051 0.595938 1.649437
v -0.252680 0.636204 1.641807
v -0.301996 0.636204 1.662235
v -0.221464 0.595938 1.592492
v -0.232253 0.636204 1.592492
v -0.245051 0.595938 1.535547
v -0.252680 0.636204 1.543176
v -0.301996 0.595938 1.511960
v -0.301996 0.636204 1.522749
v -0.358941 0.595938 1.535547
v -0.351311 0.636204 1.543176
v -0.382528 0.595938 1.592492
v -0.371739 0.636204 1.592492
v -0.358941 0.595938 1.649437
v -0.351311 0.636204 1.641807
v -0.273523 0.665681 1.620964
v -0.301996 0.665681 1.632758
v -0.261730 0.665681 1.592492
v -0.273523 0.665681 1.564019
v -0.301996 0.665681 1.552226
v -0.330468 0.665681 1.564019
v -0.342262 0.665681 1.592492
v -0.330468 0.665681 1.620964
v -0.301996 0.676470 1.592492
v -0.241597 0.321726 1.511960
v -0.208900 0.321726 1.592555
v -0.275466 0.321726 1.592069
v -0.161488 0.321726 1.545829
v -0.161002 0.321726 1.479263
v -0.207727 0.321726 1.431851
v -0.274293 0.321726 1.431365
v -0.321706 0.321726 1.478090
v -0.322192 0.321726 1.544656
v -0.208900 0.386957 1.592555
v -0.275466 0.386957 1.592069
v -0.161488 0.386957 1.545829
v -0.161002 0.386957 1.479263
v -0.207727 0.386957 1.431851
v -0.274293 0.386957 1.431365
v -0.321706 0.386957 1.478090
v -0.322192 0.386957 1.544656
v -0.241597 0.386957 1.511960
v -0.581907 0.368837 2.242420
v -0.528501 0.368837 2.265000
v -0.528501 0.426821 2.265000
v -0.581907 0.426821 2.242420
v -0.214894 0.368837 1.523249
v -0.268300 0.368837 1.500670
v -0.268300 0.426821 1.500670
v -0.214894 0.426821 1.523249
v -0.572408 0.260119 2.238567
v -0.532354 0.260119 2.255502
v -0.532354 0.390581 2.255502
v -0.572408 0.390581 2.238567
v -0.515419 0.260119 2.215447
v -0.555474 0.260119 2.198512
v -0.555474 0.390581 2.198512
v -0.515419 0.390581 2.215447
v -0.086284 0.483193 1.465941
v -0.301996 0.595938 1.592492
vt 0.468750 0.382812
vt 0.562500 0.476562
vt 0.468750 0.476562
vt 0.007812 0.656250
vt 0.179688 0.484375
vt 0.007812 0.484375
vt 0.179688 0.656250
vt 0.007812 0.382812
vt 0.195312 0.382812
vt 0.195312 0.476562
vt 0.007812 0.476562
vt 0.671875 0.382812
vt 0.765625 0.382812
vt 0.765625 0.476562
vt 0.671875 0.476562
vt 0.765625 0.382812
vt 0.671875 0.382812
vt 0.671875 0.476562
vt 0.765625 0.476562
vt 0.570312 0.476562
vt 0.664062 0.476562
vt 0.664062 0.382812
vt 0.570312 0.382812
vt 0.671875 0.382812
vt 0.765625 0.382812
vt 0.765625 0.476562
vt 0.671875 0.476562
vt 0.718750 0.382812
vt 0.751896 0.382812
vt 0.747455 0.429687
vt 0.718750 0.429687
vt 0.751896 0.382812
vt 0.718750 0.382812
vt 0.718750 0.429687
vt 0.747455 0.429687
vt 0.685604 0.382812
vt 0.690045 0.429687
vt 0.751896 0.382812
vt 0.718750 0.382812
vt 0.718750 0.429687
vt 0.747455 0.429687
vt 0.685604 0.382812
vt 0.690045 0.429687
vt 0.685604 0.382812
vt 0.690045 0.429687
vt 0.617188 0.470282
vt 0.645892 0.458392
vt 0.633760 0.446260
vt 0.617188 0.453125
vt 0.657782 0.429687
vt 0.640625 0.429687
vt 0.645892 0.400983
vt 0.633760 0.413115
vt 0.617188 0.389093
vt 0.617188 0.406250
vt 0.718750 0.464002
vt 0.735323 0.464002
vt 0.702177 0.464002
vt 0.600615 0.413115
vt 0.588483 0.400983
vt 0.576593 0.429687
vt 0.593750 0.429687
vt 0.588483 0.458392
vt 0.600615 0.446260
vt 0.617188 0.429687
vt 0.646111 0.391876
vt 0.653394 0.400940
vt 0.638567 0.400885
vt 0.663954 0.395685
vt 0.664062 0.388199
vt 0.653655 0.382867
vt 0.638829 0.382812
vt 0.628268 0.388067
vt 0.628160 0.395553
vt 0.740130 0.417459
vt 0.754956 0.417459
vt 0.754956 0.454144
vt 0.740130 0.454144
vt 0.765517 0.417459
vt 0.765517 0.454144
vt 0.684748 0.417459
vt 0.677262 0.417459
vt 0.677262 0.454144
vt 0.684748 0.454144
vt 0.671930 0.417459
vt 0.671930 0.454144
vt 0.755218 0.417459
vt 0.740391 0.417459
vt 0.740391 0.454144
vt 0.755218 0.454144
vt 0.729831 0.417459
vt 0.729831 0.454144
vt 0.677130 0.417459
vt 0.684616 0.417459
vt 0.684616 0.454144
vt 0.677130 0.454144
vt 0.689948 0.417459
vt 0.689948 0.454144
vt 0.671875 0.443954
vt 0.683770 0.443954
vt 0.683770 0.476562
vt 0.671875 0.476562
vt 0.753621 0.443954
vt 0.741726 0.443954
vt 0.741726 0.476562
vt 0.753621 0.476562
vt 0.570312 0.474023
vt 0.582208 0.476562
vt 0.652059 0.393146
vt 0.640164 0.390607
vt 0.679669 0.443954
vt 0.763086 0.443954
vt 0.763086 0.476562
vt 0.679669 0.476562
vt 0.765625 0.443954
vt 0.682208 0.443954
vt 0.682208 0.476562
vt 0.765625 0.476562
vt 0.673991 0.382812
vt 0.682912 0.382812
vt 0.682912 0.456182
vt 0.673991 0.456182
vt 0.686684 0.382812
vt 0.677763 0.382812
vt 0.677763 0.456182
vt 0.686684 0.456182
vt 0.572428 0.473590
vt 0.581350 0.475494
vt 0.585122 0.470990
vt 0.576200 0.469085
vt 0.758148 0.382812
vt 0.762652 0.382812
vt 0.762652 0.456182
vt 0.758148 0.456182
vt 0.764557 0.382812
vt 0.760052 0.382812
vt 0.760052 0.456182
vt 0.764557 0.456182
vt 0.437143 0.562857
vt 0.060000 0.940000
vt 0.940000 0.940000
vt 0.060000 0.940000
vt 0.940000 0.060000
vt 0.060000 0.060000
vt 0.060000 0.060000
vt 0.940000 0.940000
vt 0.500000 0.500000
vt 0.811127 0.811127
vt 0.500000 0.940000
vt 0.188873 0.811127
vt 0.060000 0.500000
vt 0.188873 0.188873
vt 0.500000 0.060000
vt 0.811127 0.188873
vt 0.940000 0.500000
vn 0.000000 0.000000 1.000000
vn -0.000000 1.000000 0.000000
vn 0.000000 -1.000000 0.000000
vn -1.000000 0.000000 0.000000
vn 0.000000 0.000000 1.000000
vn 0.000000 0.000000 -1.000000
vn -0.000000 1.000000 0.000000
vn 0.000000 -1.000000 0.000000
vn -1.000000 0.000000 0.000000
vn 1.000000 0.000000 0.000000
vn 0.371470 0.240299 0.896809
vn 0.896809 0.240299 0.371470
vn 0.896809 0.240299 -0.371470
vn 0.371470 0.240299 -0.896809
vn -0.371470 0.240299 -0.896809
vn -0.896809 0.240299 -0.371470
vn -0.896809 0.240299 0.371470
vn -0.371470 0.240299 0.896809
vn 0.281085 0.678598 0.678598
vn 0.678598 0.678598 0.281085
vn 0.678598 0.678598 -0.281085
vn 0.281085 0.678598 -0.678598
vn -0.281085 0.678598 -0.678598
vn -0.678598 0.678598 -0.281085
vn -0.678598 0.678598 0.281085
vn -0.281085 0.678598 0.678598
vn 0.106596 0.960422 0.257344
vn 0.257344 0.960422 0.106596
vn 0.257344 0.960422 -0.106596
vn 0.106596 0.960422 -0.257344
vn -0.106596 0.960422 -0.257344
vn -0.257344 0.960422 -0.106596
vn -0.257344 0.960422 0.106596
vn -0.106596 0.960422 0.257344
vn 0.000000 -1.000000 0.000000
vn -0.007301 0.000000 0.999973
vn 0.701925 0.000000 0.712250
vn 0.999973 0.000000 0.007301
vn 0.712250 0.000000 -0.701925
vn 0.007301 0.000000 -0.999973
vn -0.701925 0.000000 -0.712250
vn -0.999973 0.000000 -0.007301
vn -0.712250 0.000000 0.701925
vn -0.000000 1.000000 0.000000
vn -0.389418 0.000000 0.921061
vn 0.389418 0.000000 -0.921061
vn -0.921061 0.000000 -0.389418
vn 0.921061 0.000000 0.389418
vn 0.000000 1.000000 0.000000
vn 0.000000 -1.000000 0.000000
vn 0.000000 1.000000 0.000000
vn 0.000000 -1.000000 0.000000
usemtl skin
f 1/1/1 2/2/1 3/3/1
f 3/4/2 4/5/2 5/6/2
f 6/6/3 7/7/3 1/4/3
f 6/8/4 1/9/4 3/10/4
f 6/8/4 3/10/4 5/11/4
f 8/12/5 9/13/5 10/14/5
f 8/12/5 10/14/5 11/15/5
f 12/16/6 13/17/6 14/18/6
f 12/16/6 14/18/6 15/19/6
f 11/20/7 10/21/7 15/22/7
f 11/20/7 15/22/7 14/23/7
f 13/23/8 12/22/8 9/21/8
f 13/23/8 9/21/8 8/20/8
f 13/24/9 8/25/9 11/26/9
f 13/24/9 11/26/9 14/27/9
f 9/25/10 12/24/10 15/27/10
f 9/25/10 15/27/10 10/26/10
f 16/28/11 17/29/11 18/30/11
f 16/28/11 18/30/11 19/31/11
f 17/32/12 20/33/12 21/34/12
f 17/32/12 21/34/12 18/35/12
f 20/33/13 22/36/13 23/37/13
f 20/33/13 23/37/13 21/34/13
f 22/38/14 24/39/14 25/40/14
f 22/38/14 25/40/14 23/41/14
f 24/39/15 26/42/15 27/43/15
f 24/39/15 27/43/15 25/40/15
f 26/36/16 28/33/16 29/34/16
f 26/36/16 29/34/16 27/37/16
f 28/33/17 30/32/17 31/35/17
f 28/33/17 31/35/17 29/34/17
f 30/44/18 16/28/18 19/31/18
f 30/44/18 19/31/18 31/45/18
f 19/46/19 18/47/19 32/48/19
f 19/46/19 32/48/19 33/49/19
f 18/47/20 21/50/20 34/51/20
f 18/47/20 34/51/20 32/48/20
f 21/50/21 23/52/21 35/53/21
f 21/50/21 35/53/21 34/51/21
f 23/52/22 25/54/22 36/55/22
f 23/41/22 36/56/22 35/57/22
f 25/40/23 27/43/23 37/58/23
f 25/54/23 37/59/23 36/55/23
f 27/60/24 29/61/24 38/62/24
f 27/60/24 38/62/24 37/59/24
f 29/61/25 31/63/25 39/64/25
f 29/61/25 39/64/25 38/62/25
f 31/63/26 19/46/26 33/49/26
f 31/63/26 33/49/26 39/64/26
f 33/49/27 32/48/27 40/65/27
f 32/48/28 34/51/28 40/65/28
f 34/51/29 35/53/29 40/65/29
f 35/53/30 36/55/30 40/65/30
f 36/55/31 37/59/31 40/65/31
f 37/59/32 38/62/32 40/65/32
f 38/62/33 39/64/33 40/65/33
f 39/64/34 33/49/34 40/65/34
f 41/66/35 42/67/35 43/68/35
f 41/66/35 44/69/35 42/67/35
f 41/66/35 45/70/35 44/69/35
f 41/66/35 46/71/35 45/70/35
f 41/66/35 47/72/35 46/71/35
f 41/66/35 48/73/35 47/72/35
f 41/66/35 49/74/35 48/73/35
f 41/66/35 43/68/35 49/74/35
f 43/75/36 42/76/36 50/77/36
f 43/75/36 50/77/36 51/78/36
f 42/76/37 44/79/37 52/80/37
f 42/76/37 52/80/37 50/77/37
f 44/81/38 45/82/38 53/83/38
f 44/81/38 53/83/38 52/84/38
f 45/82/39 46/85/39 54/86/39
f 45/82/39 54/86/39 53/83/39
f 46/87/40 47/88/40 55/89/40
f 46/87/40 55/89/40 54/90/40
f 47/88/41 48/91/41 56/92/41
f 47/88/41 56/92/41 55/89/41
f 48/93/42 49/94/42 57/95/42
f 48/93/42 57/95/42 56/96/42
f 49/94/43 43/97/43 51/98/43
f 49/94/43 51/98/43 57/95/43
f 51/68/44 50/67/44 58/66/44
f 50/67/44 52/69/44 58/66/44
f 52/69/44 53/70/44 58/66/44
f 53/70/44 54/71/44 58/66/44
f 54/71/44 55/72/44 58/66/44
f 55/72/44 56/73/44 58/66/44
f 56/73/44 57/74/44 58/66/44
f 57/74/44 51/68/44 58/66/44
f 59/99/45 60/100/45 61/101/45
f 59/99/45 61/101/45 62/102/45
f 63/103/46 64/104/46 65/105/46
f 63/103/46 65/105/46 66/106/46
f 62/107/44 61/108/44 66/109/44
f 62/107/44 66/109/44 65/110/44
f 64/110/35 63/109/35 60/108/35
f 64/110/35 60/108/35 59/107/35
f 64/111/47 59/112/47 62/113/47
f 64/111/47 62/113/47 65/114/47
f 60/115/48 63/116/48 66/117/48
f 60/115/48 66/117/48 61/118/48
f 67/119/45 68/120/45 69/121/45
f 67/119/45 69/121/45 70/122/45
f 71/123/46 72/124/46 73/125/46
f 71/123/46 73/125/46 74/126/46
f 70/127/44 69/128/44 74/129/44
f 70/127/44 74/129/44 73/130/44
f 72/130/35 71/129/35 68/128/35
f 72/130/35 68/128/35 67/127/35
f 72/131/47 67/132/47 70/133/47
f 72/131/47 70/133/47 73/134/47
f 68/135/48 71/136/48 74/137/48
f 68/135/48 74/137/48 69/138/48
usemtl interior
f 75/139/49 1/140/49 2/141/49
f 75/139/50 2/141/50 1/140/50
f 75/139/49 2/141/49 3/142/49
f 75/139/50 3/142/50 2/141/50
f 75/139/49 3/142/49 4/143/49
f 75/139/50 4/143/50 3/142/50
f 75/139/49 4/143/49 5/144/49
f 75/139/50 5/144/50 4/143/50
f 75/139/49 5/144/49 6/145/49
f 75/139/50 6/145/50 5/144/50
f 75/139/49 6/145/49 7/146/49
f 75/139/50 7/146/50 6/145/50
f 75/139/49 7/146/49 1/140/49
f 75/139/50 1/140/50 7/146/50
f 76/147/51 17/148/51 20/149/51
f 76/147/52 20/149/52 17/148/52
f 76/147/51 20/149/51 22/150/51
f 76/147/52 22/150/52 20/149/52
f 76/147/51 22/150/51 24/151/51
f 76/147/52 24/151/52 22/150/52
f 76/147/51 24/151/51 26/152/51
f 76/147/52 26/152/52 24/151/52
f 76/147/51 26/152/51 28/153/51
f 76/147/52 28/153/52 26/152/52
f 76/147/51 28/153/51 30/154/51
f 76/147/52 30/154/52 28/153/52
f 76/147/51 30/154/51 16/155/51
f 76/147/52 16/155/52 30/154/52
f 76/147/51 16/155/51 17/148/51
f 76/147/52 17/148/52 16/155/52
