# Sarn frigate, fragment 7 of 8
# Generated by tools. Edit the generator script.
v 0.000000 0.329027 1.077433
v 0.221624 0.201072 1.077433
v 0.000000 0.073117 1.077433
v 0.221624 0.456982 1.077433
v 0.000000 0.584937 1.077433
v -0.221624 0.456982 1.077433
v -0.221624 0.201072 1.077433
v 0.000000 0.329027 1.900000
v -0.032642 0.438703 1.168829
v -0.032642 0.438703 1.625811
v -0.032642 0.548378 1.488716
v 0.032642 0.438703 1.168829
v 0.032642 0.548378 1.488716
v 0.032642 0.438703 1.625811
v -0.032642 0.548378 1.260225
v 0.032642 0.548378 1.260225
v -0.078661 0.245921 1.168829
v -0.078661 0.245921 1.625811
v -0.173643 0.191083 1.488716
v -0.111303 0.302458 1.168829
v -0.206285 0.247620 1.488716
v -0.111303 0.302458 1.625811
v -0.173643 0.191083 1.260225
v -0.206285 0.247620 1.260225
v 0.111303 0.302458 1.168829
v 0.111303 0.302458 1.625811
v 0.206285 0.247620 1.488716
v 0.078661 0.245921 1.168829
v 0.173643 0.191083 1.488716
v 0.078661 0.245921 1.625811
v 0.206285 0.247620 1.260225
v 0.173643 0.191083 1.260225
vt 0.101562 0.429688
vt 0.195312 0.406250
vt 0.101562 0.382812
vt 0.195312 0.453125
vt 0.101563 0.476562
vt 0.007813 0.453125
vt 0.007812 0.406250
vt 0.093750 0.484375
vt 0.179688 0.484375
vt 0.093750 0.656250
vt 0.007812 0.406250
vt 0.007812 0.453125
vt 0.195312 0.429688
vt 0.007813 0.484375
vt 0.671875 0.382812
vt 0.765625 0.382812
vt 0.737500 0.476562
vt 0.690625 0.476562
vt 0.570312 0.382812
vt 0.664062 0.382812
vt 0.664062 0.476562
vt 0.570312 0.476562
vt 0.664062 0.448437
vt 0.570312 0.448437
vt 0.664062 0.401563
vt 0.570312 0.401563
vt 0.671875 0.476562
vt 0.765625 0.476562
vt 0.765625 0.382812
vt 0.671875 0.382812
vt 0.664062 0.382812
vt 0.664062 0.476562
vt 0.594290 0.448437
vt 0.640085 0.382812
vt 0.570312 0.448437
vt 0.640085 0.476562
vt 0.594290 0.401563
vt 0.570312 0.401563
vt 0.671875 0.428972
vt 0.671875 0.476562
vt 0.765625 0.476562
vt 0.765625 0.428972
vt 0.737500 0.430403
vt 0.737500 0.382812
vt 0.690625 0.430403
vt 0.690625 0.382812
vt 0.695853 0.382812
vt 0.671875 0.430403
vt 0.741647 0.476562
vt 0.765625 0.428972
vt 0.594290 0.382812
vt 0.594290 0.476562
vt 0.664062 0.448437
vt 0.570312 0.382812
vt 0.640085 0.448437
vt 0.570312 0.476562
vt 0.664062 0.401563
vt 0.640085 0.401563
vt 0.671875 0.476562
vt 0.671875 0.428972
vt 0.765625 0.428972
vt 0.765625 0.476562
vt 0.737500 0.382812
vt 0.737500 0.430403
vt 0.690625 0.382812
vt 0.690625 0.430403
vt 0.765625 0.430403
vt 0.741647 0.382812
vt 0.671875 0.428972
vt 0.695853 0.476562
vn 0.000000 0.000000 -1.000000
vn 0.482784 -0.836206 0.260153
vn 0.965567 -0.000000 0.260153
vn 0.482784 0.836206 0.260153
vn -0.482784 0.836206 0.260153
vn -0.965567 0.000000 0.260153
vn -0.482784 -0.836206 0.260153
vn -1.000000 0.000000 0.000000
vn 1.000000 -0.000000 0.000000
vn 0.000000 -1.000000 0.000000
vn -0.000000 0.780869 0.624695
vn -0.000000 1.000000 0.000000
vn 0.000000 0.640184 -0.768221
vn 0.500000 -0.866025 0.000000
vn -0.500000 0.866025 0.000000
vn 0.866025 0.500000 0.000000
vn -0.676252 -0.390434 0.624695
vn -0.866025 -0.500000 0.000000
vn -0.554416 -0.320092 -0.768221
vn 0.500000 0.866025 -0.000000
vn -0.500000 -0.866025 0.000000
vn -0.866025 0.500000 0.000000
vn 0.676252 -0.390434 0.624695
vn 0.866025 -0.500000 0.000000
vn 0.554416 -0.320092 -0.768221
usemtl skin
f 1/1/1 2/2/1 3/3/1
f 1/1/1 4/4/1 2/2/1
f 1/1/1 5/5/1 4/4/1
f 1/1/1 6/6/1 5/5/1
f 1/1/1 7/7/1 6/6/1
f 1/1/1 3/3/1 7/7/1
f 3/8/2 2/9/2 8/10/2
f 2/11/3 4/12/3 8/13/3
f 4/9/4 5/8/4 8/10/4
f 5/8/5 6/14/5 8/10/5
f 6/12/6 7/11/6 8/13/6
f 7/14/7 3/8/7 8/10/7
f 9/15/8 10/16/8 11/17/8
f 12/15/9 13/17/9 14/16/9
f 9/15/8 11/17/8 15/18/8
f 12/15/9 16/18/9 13/17/9
f 9/19/10 12/20/10 14/21/10
f 9/19/10 14/21/10 10/22/10
f 10/22/11 14/21/11 13/23/11
f 10/22/11 13/23/11 11/24/11
f 11/24/12 13/23/12 16/25/12
f 11/24/12 16/25/12 15/26/12
f 15/27/13 16/28/13 12/29/13
f 15/27/13 12/29/13 9/30/13
f 17/31/14 18/32/14 19/33/14
f 20/34/15 21/35/15 22/36/15
f 17/31/14 19/33/14 23/37/14
f 20/34/15 24/38/15 21/35/15
f 17/39/16 20/40/16 22/41/16
f 17/39/16 22/41/16 18/42/16
f 18/42/17 22/41/17 21/43/17
f 18/42/17 21/43/17 19/44/17
f 19/44/18 21/43/18 24/45/18
f 19/44/18 24/45/18 23/46/18
f 23/47/19 24/48/19 20/49/19
f 23/47/19 20/49/19 17/50/19
f 25/51/20 26/52/20 27/53/20
f 28/54/21 29/55/21 30/56/21
f 25/51/20 27/53/20 31/57/20
f 28/54/21 32/58/21 29/55/21
f 25/59/22 28/60/22 30/61/22
f 25/59/22 30/61/22 26/62/22
f 26/62/23 30/61/23 29/63/23
f 26/62/23 29/63/23 27/64/23
f 27/64/24 29/63/24 32/65/24
f 27/64/24 32/65/24 31/66/24
f 31/67/25 32/68/25 28/69/25
f 31/67/25 28/69/25 25/70/25
