# Helion destroyer, from tools/gen_fleet.py
# Generated by tools. Edit the generator script.
v -0.174783 0.611739 1.380783
v 0.174783 0.611739 1.380783
v 0.174783 0.961304 1.380783
v -0.174783 0.961304 1.380783
v 0.174783 0.611739 -1.742000
v -0.174783 0.611739 -1.742000
v -0.174783 0.961304 -1.742000
v 0.174783 0.961304 -1.742000
v -0.873913 0.582609 2.010000
v 0.873913 0.582609 2.010000
v 0.873913 0.990435 2.010000
v -0.873913 0.990435 2.010000
v 0.873913 0.582609 1.310870
v -0.873913 0.582609 1.310870
v -0.873913 0.990435 1.310870
v 0.873913 0.990435 1.310870
v -0.961304 0.611739 1.718696
v -0.844783 0.611739 1.718696
v -0.844783 0.728261 1.718696
v -0.961304 0.728261 1.718696
v -0.844783 0.611739 1.602174
v -0.961304 0.611739 1.602174
v -0.961304 0.728261 1.602174
v -0.844783 0.728261 1.602174
v 0.844783 0.611739 1.718696
v 0.961304 0.611739 1.718696
v 0.961304 0.728261 1.718696
v 0.844783 0.728261 1.718696
v 0.961304 0.611739 1.602174
v 0.844783 0.611739 1.602174
v 0.844783 0.728261 1.602174
v 0.961304 0.728261 1.602174
v -0.436957 0.978783 2.010000
v -0.354563 0.978783 1.975872
v -0.365602 1.037043 1.964833
v -0.436957 1.037043 1.994389
v -0.320435 0.978783 1.893478
v -0.336046 1.037043 1.893478
v -0.354563 0.978783 1.811085
v -0.365602 1.037043 1.822124
v -0.436957 0.978783 1.776957
v -0.436957 1.037043 1.792567
v -0.519350 0.978783 1.811085
v -0.508311 1.037043 1.822124
v -0.553478 0.978783 1.893478
v -0.537867 1.037043 1.893478
v -0.519350 0.978783 1.975872
v -0.508311 1.037043 1.964833
v -0.395760 1.079693 1.934675
v -0.436957 1.079693 1.951739
v -0.378696 1.079693 1.893478
v -0.395760 1.079693 1.852282
v -0.436957 1.079693 1.835217
v -0.478153 1.079693 1.852282
v -0.495217 1.079693 1.893478
v -0.478153 1.079693 1.934675
v -0.436957 1.095304 1.893478
v -0.524348 0.000000 1.413875
v 0.524348 0.000000 1.413875
v 0.524348 0.640870 1.413875
v -0.524348 0.640870 1.413875
v 0.524348 0.000000 0.598223
v -0.524348 0.000000 0.598223
v -0.524348 0.640870 0.598223
v 0.524348 0.640870 0.598223
v -0.524348 0.000000 -0.772073
v 0.524348 0.000000 -0.772073
v 0.524348 0.640870 -0.772073
v -0.524348 0.640870 -0.772073
v 0.524348 0.000000 -1.587725
v -0.524348 0.000000 -1.587725
v -0.524348 0.640870 -1.587725
v 0.524348 0.640870 -1.587725
v -0.640870 0.786522 -1.975043
v -0.476083 0.621735 -1.975043
v -0.640870 0.553478 -1.975043
v -0.407826 0.786522 -1.975043
v -0.476083 0.951308 -1.975043
v -0.640870 1.019565 -1.975043
v -0.805656 0.951308 -1.975043
v -0.873913 0.786522 -1.975043
v -0.805656 0.621735 -1.975043
v -0.476083 0.621735 -1.042870
v -0.640870 0.553478 -1.042870
v -0.407826 0.786522 -1.042870
v -0.476083 0.951308 -1.042870
v -0.640870 1.019565 -1.042870
v -0.805656 0.951308 -1.042870
v -0.873913 0.786522 -1.042870
v -0.805656 0.621735 -1.042870
v -0.640870 0.786522 -1.042870
v 0.640870 0.786522 -1.975043
v 0.805656 0.621735 -1.975043
v 0.640870 0.553478 -1.975043
v 0.873913 0.786522 -1.975043
v 0.805656 0.951308 -1.975043
v 0.640870 1.019565 -1.975043
v 0.476083 0.951308 -1.975043
v 0.407826 0.786522 -1.975043
v 0.476083 0.621735 -1.975043
v 0.805656 0.621735 -1.042870
v 0.640870 0.553478 -1.042870
v 0.873913 0.786522 -1.042870
v 0.805656 0.951308 -1.042870
v 0.640870 1.019565 -1.042870
v 0.476083 0.951308 -1.042870
v 0.407826 0.786522 -1.042870
v 0.476083 0.621735 -1.042870
v 0.640870 0.786522 -1.042870
v -0.029130 0.833130 -1.462348
v -0.611739 0.833130 -1.462348
v -0.611739 0.739913 -1.462348
v -0.029130 0.739913 -1.462348
v -0.611739 0.833130 -1.555565
v -0.029130 0.833130 -1.555565
v -0.029130 0.739913 -1.555565
v -0.611739 0.739913 -1.555565
v -0.640870 0.512696 -1.508957
v -0.536081 0.533539 -1.508957
v -0.546865 0.559574 -1.470170
v -0.640870 0.540876 -1.470170
v -0.564314 0.601700 -1.484985
v -0.640870 0.586472 -1.484985
v -0.564314 0.601700 -1.532928
v -0.640870 0.586472 -1.532928
v -0.546865 0.559574 -1.547743
v -0.640870 0.540876 -1.547743
v -0.447245 0.592897 -1.508957
v -0.467172 0.612824 -1.470170
v -0.499413 0.645065 -1.484985
v -0.499413 0.645065 -1.532928
v -0.467172 0.612824 -1.547743
v -0.387887 0.681733 -1.508957
v -0.413922 0.692517 -1.470170
v -0.456048 0.709966 -1.484985
v -0.456048 0.709966 -1.532928
v -0.413922 0.692517 -1.547743
v -0.367043 0.786522 -1.508957
v -0.395224 0.786522 -1.470170
v -0.440820 0.786522 -1.484985
v -0.440820 0.786522 -1.532928
v -0.395224 0.786522 -1.547743
v -0.387887 0.891310 -1.508957
v -0.413922 0.880526 -1.470170
v -0.456048 0.863077 -1.484985
v -0.456048 0.863077 -1.532928
v -0.413922 0.880526 -1.547743
v -0.447245 0.980146 -1.508957
v -0.467172 0.960220 -1.470170
v -0.499413 0.927978 -1.484985
v -0.499413 0.927978 -1.532928
v -0.467172 0.960220 -1.547743
v -0.536081 1.039504 -1.508957
v -0.546865 1.013469 -1.470170
v -0.564314 0.971344 -1.484985
v -0.564314 0.971344 -1.532928
v -0.546865 1.013469 -1.547743
v -0.640870 1.060348 -1.508957
v -0.640870 1.032168 -1.470170
v -0.640870 0.986571 -1.484985
v -0.640870 0.986571 -1.532928
v -0.640870 1.032168 -1.547743
v -0.745658 1.039504 -1.508957
v -0.734874 1.013469 -1.470170
v -0.717425 0.971344 -1.484985
v -0.717425 0.971344 -1.532928
v -0.734874 1.013469 -1.547743
v -0.834494 0.980146 -1.508957
v -0.814568 0.960220 -1.470170
v -0.782326 0.927978 -1.484985
v -0.782326 0.927978 -1.532928
v -0.814568 0.960220 -1.547743
v -0.893852 0.891310 -1.508957
v -0.867817 0.880526 -1.470170
v -0.825691 0.863077 -1.484985
v -0.825691 0.863077 -1.532928
v -0.867817 0.880526 -1.547743
v -0.914696 0.786522 -1.508957
v -0.886516 0.786522 -1.470170
v -0.840919 0.786522 -1.484985
v -0.840919 0.786522 -1.532928
v -0.886516 0.786522 -1.547743
v -0.893852 0.681733 -1.508957
v -0.867817 0.692517 -1.470170
v -0.825691 0.709966 -1.484985
v -0.825691 0.709966 -1.532928
v -0.867817 0.692517 -1.547743
v -0.834494 0.592897 -1.508957
v -0.814568 0.612824 -1.470170
v -0.782326 0.645065 -1.484985
v -0.782326 0.645065 -1.532928
v -0.814568 0.612824 -1.547743
v -0.745658 0.533539 -1.508957
v -0.734874 0.559574 -1.470170
v -0.717425 0.601700 -1.484985
v -0.717425 0.601700 -1.532928
v -0.734874 0.559574 -1.547743
v -0.640870 0.786522 -2.010000
v -0.489266 0.634918 -2.010000
v -0.640870 0.572122 -2.010000
v -0.426470 0.786522 -2.010000
v -0.489266 0.938125 -2.010000
v -0.640870 1.000922 -2.010000
v -0.792473 0.938125 -2.010000
v -0.855270 0.786522 -2.010000
v -0.792473 0.634918 -2.010000
v -0.489266 0.634918 -1.893478
v -0.640870 0.572122 -1.893478
v -0.426470 0.786522 -1.893478
v -0.489266 0.938125 -1.893478
v -0.640870 1.000922 -1.893478
v -0.792473 0.938125 -1.893478
v -0.855270 0.786522 -1.893478
v -0.792473 0.634918 -1.893478
v -0.640870 0.786522 -1.893478
v 0.029130 0.739913 -1.462348
v 0.611739 0.739913 -1.462348
v 0.611739 0.833130 -1.462348
v 0.029130 0.833130 -1.462348
v 0.611739 0.739913 -1.555565
v 0.029130 0.739913 -1.555565
v 0.029130 0.833130 -1.555565
v 0.611739 0.833130 -1.555565
v 0.640870 0.512696 -1.508957
v 0.745658 0.533539 -1.508957
v 0.734874 0.559574 -1.470170
v 0.640870 0.540876 -1.470170
v 0.717425 0.601700 -1.484985
v 0.640870 0.586472 -1.484985
v 0.717425 0.601700 -1.532928
v 0.640870 0.586472 -1.532928
v 0.734874 0.559574 -1.547743
v 0.640870 0.540876 -1.547743
v 0.834494 0.592897 -1.508957
v 0.814568 0.612824 -1.470170
v 0.782326 0.645065 -1.484985
v 0.782326 0.645065 -1.532928
v 0.814568 0.612824 -1.547743
v 0.893852 0.681733 -1.508957
v 0.867817 0.692517 -1.470170
v 0.825691 0.709966 -1.484985
v 0.825691 0.709966 -1.532928
v 0.867817 0.692517 -1.547743
v 0.914696 0.786522 -1.508957
v 0.886516 0.786522 -1.470170
v 0.840919 0.786522 -1.484985
v 0.840919 0.786522 -1.532928
v 0.886516 0.786522 -1.547743
v 0.893852 0.891310 -1.508957
v 0.867817 0.880526 -1.470170
v 0.825691 0.863077 -1.484985
v 0.825691 0.863077 -1.532928
v 0.867817 0.880526 -1.547743
v 0.834494 0.980146 -1.508957
v 0.814568 0.960220 -1.470170
v 0.782326 0.927978 -1.484985
v 0.782326 0.927978 -1.532928
v 0.814568 0.960220 -1.547743
v 0.745658 1.039504 -1.508957
v 0.734874 1.013469 -1.470170
v 0.717425 0.971344 -1.484985
v 0.717425 0.971344 -1.532928
v 0.734874 1.013469 -1.547743
v 0.640870 1.060348 -1.508957
v 0.640870 1.032168 -1.470170
v 0.640870 0.986571 -1.484985
v 0.640870 0.986571 -1.532928
v 0.640870 1.032168 -1.547743
v 0.536081 1.039504 -1.508957
v 0.546865 1.013469 -1.470170
v 0.564314 0.971344 -1.484985
v 0.564314 0.971344 -1.532928
v 0.546865 1.013469 -1.547743
v 0.447245 0.980146 -1.508957
v 0.467172 0.960220 -1.470170
v 0.499413 0.927978 -1.484985
v 0.499413 0.927978 -1.532928
v 0.467172 0.960220 -1.547743
v 0.387887 0.891310 -1.508957
v 0.413922 0.880526 -1.470170
v 0.456048 0.863077 -1.484985
v 0.456048 0.863077 -1.532928
v 0.413922 0.880526 -1.547743
v 0.367043 0.786522 -1.508957
v 0.395224 0.786522 -1.470170
v 0.440820 0.786522 -1.484985
v 0.440820 0.786522 -1.532928
v 0.395224 0.786522 -1.547743
v 0.387887 0.681733 -1.508957
v 0.413922 0.692517 -1.470170
v 0.456048 0.709966 -1.484985
v 0.456048 0.709966 -1.532928
v 0.413922 0.692517 -1.547743
v 0.447245 0.592897 -1.508957
v 0.467172 0.612824 -1.470170
v 0.499413 0.645065 -1.484985
v 0.499413 0.645065 -1.532928
v 0.467172 0.612824 -1.547743
v 0.536081 0.533539 -1.508957
v 0.546865 0.559574 -1.470170
v 0.564314 0.601700 -1.484985
v 0.564314 0.601700 -1.532928
v 0.546865 0.559574 -1.547743
v 0.640870 0.786522 -2.010000
v 0.792473 0.634918 -2.010000
v 0.640870 0.572122 -2.010000
v 0.855270 0.786522 -2.010000
v 0.792473 0.938125 -2.010000
v 0.640870 1.000922 -2.010000
v 0.489266 0.938125 -2.010000
v 0.426470 0.786522 -2.010000
v 0.489266 0.634918 -2.010000
v 0.792473 0.634918 -1.893478
v 0.640870 0.572122 -1.893478
v 0.855270 0.786522 -1.893478
v 0.792473 0.938125 -1.893478
v 0.640870 1.000922 -1.893478
v 0.489266 0.938125 -1.893478
v 0.426470 0.786522 -1.893478
v 0.489266 0.634918 -1.893478
v 0.640870 0.786522 -1.893478
vt 0.843750 0.531250
vt 0.968750 0.531250
vt 0.968750 0.656250
vt 0.843750 0.656250
vt 0.968750 0.531250
vt 0.843750 0.531250
vt 0.843750 0.656250
vt 0.968750 0.656250
vt 0.843750 0.656250
vt 0.968750 0.656250
vt 0.968750 0.531250
vt 0.843750 0.531250
vt 0.843750 0.531250
vt 0.968750 0.531250
vt 0.968750 0.656250
vt 0.843750 0.656250
vt 0.468750 0.382812
vt 0.562500 0.382812
vt 0.562500 0.476562
vt 0.468750 0.476562
vt 0.195312 0.382812
vt 0.007812 0.382812
vt 0.007812 0.476562
vt 0.195312 0.476562
vt 0.007812 0.656250
vt 0.179688 0.656250
vt 0.179688 0.484375
vt 0.007812 0.484375
vt 0.007812 0.382812
vt 0.195312 0.382812
vt 0.195312 0.476562
vt 0.007812 0.476562
vt 0.671875 0.382812
vt 0.765625 0.382812
vt 0.765625 0.476562
vt 0.671875 0.476562
vt 0.765625 0.382812
vt 0.671875 0.382812
vt 0.671875 0.476562
vt 0.765625 0.476562
vt 0.570312 0.476562
vt 0.664062 0.476562
vt 0.664062 0.382812
vt 0.570312 0.382812
vt 0.671875 0.382812
vt 0.765625 0.382812
vt 0.765625 0.476562
vt 0.671875 0.476562
vt 0.671875 0.382812
vt 0.765625 0.382812
vt 0.765625 0.476562
vt 0.671875 0.476562
vt 0.765625 0.382812
vt 0.671875 0.382812
vt 0.671875 0.476562
vt 0.765625 0.476562
vt 0.570312 0.476562
vt 0.664062 0.476562
vt 0.664062 0.382812
vt 0.570312 0.382812
vt 0.671875 0.382812
vt 0.765625 0.382812
vt 0.765625 0.476562
vt 0.671875 0.476562
vt 0.718750 0.382812
vt 0.751896 0.382812
vt 0.747455 0.429688
vt 0.718750 0.429688
vt 0.751896 0.382812
vt 0.718750 0.382812
vt 0.718750 0.429688
vt 0.747455 0.429688
vt 0.685604 0.382812
vt 0.690045 0.429688
vt 0.751896 0.382812
vt 0.718750 0.382812
vt 0.718750 0.429688
vt 0.747455 0.429688
vt 0.685604 0.382812
vt 0.690045 0.429688
vt 0.685604 0.382812
vt 0.690045 0.429688
vt 0.617188 0.470282
vt 0.645892 0.458392
vt 0.633760 0.446260
vt 0.735323 0.464002
vt 0.718750 0.464002
vt 0.718750 0.464002
vt 0.640625 0.429688
vt 0.657782 0.429688
vt 0.645892 0.400983
vt 0.633760 0.413115
vt 0.702177 0.464002
vt 0.617188 0.389093
vt 0.617188 0.406250
vt 0.588483 0.400983
vt 0.600615 0.413115
vt 0.593750 0.429688
vt 0.576593 0.429688
vt 0.588483 0.458392
vt 0.600615 0.446260
vt 0.735323 0.464002
vt 0.617188 0.453125
vt 0.617188 0.429688
vt 0.203125 0.382812
vt 0.328125 0.382812
vt 0.328125 0.476562
vt 0.203125 0.476562
vt 0.460938 0.382812
vt 0.335938 0.382812
vt 0.335938 0.476562
vt 0.460938 0.476562
vt 0.343750 0.992188
vt 0.546875 0.992188
vt 0.546875 0.664062
vt 0.343750 0.664062
vt 0.109375 0.296875
vt 0.484375 0.296875
vt 0.484375 0.375000
vt 0.109375 0.375000
vt 0.203125 0.382812
vt 0.328125 0.382812
vt 0.328125 0.476562
vt 0.203125 0.476562
vt 0.460938 0.382812
vt 0.335938 0.382812
vt 0.335938 0.476562
vt 0.460938 0.476562
vt 0.343750 0.992188
vt 0.546875 0.992188
vt 0.546875 0.664062
vt 0.343750 0.664062
vt 0.109375 0.296875
vt 0.484375 0.296875
vt 0.484375 0.375000
vt 0.109375 0.375000
vt 0.539062 0.234375
vt 0.572208 0.206754
vt 0.539062 0.195312
vt 0.585938 0.234375
vt 0.572208 0.261996
vt 0.539062 0.273438
vt 0.505917 0.261996
vt 0.492188 0.234375
vt 0.505917 0.206754
vt 0.589844 0.664062
vt 0.614703 0.664062
vt 0.614703 0.992188
vt 0.589844 0.992188
vt 0.327895 0.206754
vt 0.382812 0.234375
vt 0.327895 0.261996
vt 0.564985 0.664062
vt 0.564985 0.992188
vt 0.492188 0.363559
vt 0.492188 0.335938
vt 0.867188 0.335938
vt 0.867188 0.363559
vt 0.492188 0.308316
vt 0.867188 0.308316
vt 0.437500 0.195312
vt 0.470646 0.206754
vt 0.437500 0.234375
vt 0.484375 0.234375
vt 0.470646 0.261996
vt 0.437500 0.273438
vt 0.404354 0.261996
vt 0.390625 0.234375
vt 0.404354 0.206754
vt 0.539062 0.234375
vt 0.572208 0.206754
vt 0.539062 0.195312
vt 0.585938 0.234375
vt 0.572208 0.261996
vt 0.539062 0.273438
vt 0.505917 0.261996
vt 0.492188 0.234375
vt 0.505917 0.206754
vt 0.589844 0.664062
vt 0.614703 0.664062
vt 0.614703 0.992188
vt 0.589844 0.992188
vt 0.492188 0.308316
vt 0.492188 0.335938
vt 0.867188 0.335938
vt 0.867188 0.308316
vt 0.492188 0.363559
vt 0.867188 0.363559
vt 0.564985 0.664062
vt 0.564985 0.992188
vt 0.062730 0.261996
vt 0.007812 0.234375
vt 0.062730 0.206754
vt 0.437500 0.195312
vt 0.470646 0.206754
vt 0.437500 0.234375
vt 0.484375 0.234375
vt 0.470646 0.261996
vt 0.437500 0.273438
vt 0.404354 0.261996
vt 0.390625 0.234375
vt 0.404354 0.206754
vt 0.968750 0.656250
vt 0.843750 0.656250
vt 0.843750 0.531250
vt 0.968750 0.531250
vt 0.843750 0.656250
vt 0.968750 0.656250
vt 0.968750 0.531250
vt 0.843750 0.531250
vt 0.968750 0.656250
vt 0.843750 0.656250
vt 0.843750 0.531250
vt 0.968750 0.531250
vt 0.843750 0.656250
vt 0.968750 0.656250
vt 0.968750 0.531250
vt 0.843750 0.531250
vt 0.718750 0.242188
vt 0.766585 0.242188
vt 0.761663 0.273438
vt 0.718750 0.273438
vt 0.515625 0.103171
vt 0.558538 0.104237
vt 0.550572 0.106641
vt 0.515625 0.105772
vt 0.718750 0.261501
vt 0.753697 0.261501
vt 0.753697 0.222874
vt 0.718750 0.222874
vt 0.515625 0.105772
vt 0.550572 0.106641
vt 0.558538 0.104237
vt 0.515625 0.103171
vt 0.718750 0.210938
vt 0.761663 0.210938
vt 0.807138 0.242188
vt 0.798042 0.273438
vt 0.594917 0.107276
vt 0.580199 0.109116
vt 0.783324 0.261501
vt 0.783324 0.222874
vt 0.580199 0.109116
vt 0.594917 0.107276
vt 0.798042 0.210938
vt 0.515625 0.106139
vt 0.515625 0.111208
vt 0.640625 0.111823
vt 0.640625 0.107276
vt 0.619225 0.111823
vt 0.599995 0.112819
vt 0.592879 0.109116
vt 0.592879 0.112819
vt 0.438371 0.112819
vt 0.438371 0.109116
vt 0.599995 0.112819
vt 0.619225 0.111823
vt 0.390625 0.107276
vt 0.390625 0.111823
vt 0.515625 0.117188
vt 0.640625 0.117188
vt 0.627761 0.117188
vt 0.606946 0.117188
vt 0.592879 0.117188
vt 0.438371 0.117188
vt 0.606946 0.117188
vt 0.627761 0.117188
vt 0.390625 0.117188
vt 0.515625 0.123167
vt 0.640625 0.122552
vt 0.619225 0.122552
vt 0.599995 0.121556
vt 0.592879 0.121556
vt 0.438371 0.121556
vt 0.599995 0.121556
vt 0.619225 0.122552
vt 0.390625 0.122552
vt 0.515625 0.128236
vt 0.640625 0.127099
vt 0.594917 0.127099
vt 0.580199 0.125259
vt 0.592879 0.125259
vt 0.438371 0.125259
vt 0.580199 0.125259
vt 0.594917 0.127099
vt 0.390625 0.127099
vt 0.558538 0.130138
vt 0.550572 0.127734
vt 0.550572 0.127734
vt 0.558538 0.130138
vt 0.515625 0.131204
vt 0.515625 0.128603
vt 0.515625 0.128603
vt 0.515625 0.131204
vt 0.670915 0.242188
vt 0.675837 0.273438
vt 0.472712 0.130138
vt 0.480678 0.127734
vt 0.683803 0.261501
vt 0.683803 0.222874
vt 0.480678 0.127734
vt 0.472712 0.130138
vt 0.675837 0.210938
vt 0.630362 0.242188
vt 0.639458 0.273438
vt 0.436333 0.127099
vt 0.451051 0.125259
vt 0.654176 0.261501
vt 0.654176 0.222874
vt 0.451051 0.125259
vt 0.436333 0.127099
vt 0.639458 0.210938
vt 0.412025 0.122552
vt 0.431255 0.121556
vt 0.431255 0.121556
vt 0.412025 0.122552
vt 0.403489 0.117188
vt 0.424304 0.117188
vt 0.424304 0.117188
vt 0.403489 0.117188
vt 0.412025 0.111823
vt 0.431255 0.112819
vt 0.431255 0.112819
vt 0.412025 0.111823
vt 0.436333 0.107276
vt 0.451051 0.109116
vt 0.451051 0.109116
vt 0.436333 0.107276
vt 0.472712 0.104237
vt 0.480678 0.106641
vt 0.480678 0.106641
vt 0.472712 0.104237
vt 0.054687 0.328125
vt 0.087833 0.294979
vt 0.054687 0.281250
vt 0.101562 0.328125
vt 0.087833 0.361271
vt 0.054687 0.375000
vt 0.021542 0.361271
vt 0.007812 0.328125
vt 0.021542 0.294979
vt 0.054687 0.281250
vt 0.087833 0.281250
vt 0.087833 0.375000
vt 0.054687 0.375000
vt 0.007812 0.294979
vt 0.007812 0.328125
vt 0.101562 0.328125
vt 0.101562 0.294979
vt 0.007812 0.361271
vt 0.101562 0.361271
vt 0.021542 0.281250
vt 0.021542 0.375000
vt 0.054687 0.281250
vt 0.087833 0.294979
vt 0.054687 0.328125
vt 0.101562 0.328125
vt 0.087833 0.361271
vt 0.054687 0.375000
vt 0.021542 0.361271
vt 0.007812 0.328125
vt 0.021542 0.294979
vt 0.843750 0.531250
vt 0.968750 0.531250
vt 0.968750 0.656250
vt 0.843750 0.656250
vt 0.968750 0.531250
vt 0.843750 0.531250
vt 0.843750 0.656250
vt 0.968750 0.656250
vt 0.843750 0.656250
vt 0.968750 0.656250
vt 0.968750 0.531250
vt 0.843750 0.531250
vt 0.843750 0.531250
vt 0.968750 0.531250
vt 0.968750 0.656250
vt 0.843750 0.656250
vt 0.718750 0.242188
vt 0.766585 0.242188
vt 0.761663 0.273438
vt 0.718750 0.273438
vt 0.515625 0.103171
vt 0.558538 0.104237
vt 0.550572 0.106641
vt 0.515625 0.105772
vt 0.718750 0.261501
vt 0.753697 0.261501
vt 0.753697 0.222874
vt 0.718750 0.222874
vt 0.515625 0.105772
vt 0.550572 0.106641
vt 0.558538 0.104237
vt 0.515625 0.103171
vt 0.718750 0.210938
vt 0.761663 0.210938
vt 0.807138 0.242188
vt 0.798042 0.273438
vt 0.594917 0.107276
vt 0.580199 0.109116
vt 0.783324 0.261501
vt 0.783324 0.222874
vt 0.580199 0.109116
vt 0.594917 0.107276
vt 0.798042 0.210938
vt 0.515625 0.106139
vt 0.515625 0.111208
vt 0.640625 0.111823
vt 0.640625 0.107276
vt 0.619225 0.111823
vt 0.599995 0.112819
vt 0.592879 0.109116
vt 0.592879 0.112819
vt 0.438371 0.112819
vt 0.438371 0.109116
vt 0.599995 0.112819
vt 0.619225 0.111823
vt 0.390625 0.107276
vt 0.390625 0.111823
vt 0.515625 0.117188
vt 0.640625 0.117188
vt 0.627761 0.117188
vt 0.606946 0.117188
vt 0.592879 0.117188
vt 0.438371 0.117188
vt 0.606946 0.117188
vt 0.627761 0.117188
vt 0.390625 0.117188
vt 0.515625 0.123167
vt 0.640625 0.122552
vt 0.619225 0.122552
vt 0.599995 0.121556
vt 0.592879 0.121556
vt 0.438371 0.121556
vt 0.599995 0.121556
vt 0.619225 0.122552
vt 0.390625 0.122552
vt 0.515625 0.128236
vt 0.640625 0.127099
vt 0.594917 0.127099
vt 0.580199 0.125259
vt 0.592879 0.125259
vt 0.438371 0.125259
vt 0.580199 0.125259
vt 0.594917 0.127099
vt 0.390625 0.127099
vt 0.558538 0.130138
vt 0.550572 0.127734
vt 0.550572 0.127734
vt 0.558538 0.130138
vt 0.515625 0.131204
vt 0.515625 0.128603
vt 0.515625 0.128603
vt 0.515625 0.131204
vt 0.670915 0.242188
vt 0.675837 0.273438
vt 0.472712 0.130138
vt 0.480678 0.127734
vt 0.683803 0.261501
vt 0.683803 0.222874
vt 0.480678 0.127734
vt 0.472712 0.130138
vt 0.675837 0.210938
vt 0.630362 0.242188
vt 0.639458 0.273438
vt 0.436333 0.127099
vt 0.451051 0.125259
vt 0.654176 0.261501
vt 0.654176 0.222874
vt 0.451051 0.125259
vt 0.436333 0.127099
vt 0.639458 0.210938
vt 0.412025 0.122552
vt 0.431255 0.121556
vt 0.431255 0.121556
vt 0.412025 0.122552
vt 0.403489 0.117188
vt 0.424304 0.117188
vt 0.424304 0.117188
vt 0.403489 0.117188
vt 0.412025 0.111823
vt 0.431255 0.112819
vt 0.431255 0.112819
vt 0.412025 0.111823
vt 0.436333 0.107276
vt 0.451051 0.109116
vt 0.451051 0.109116
vt 0.436333 0.107276
vt 0.472712 0.104237
vt 0.480678 0.106641
vt 0.480678 0.106641
vt 0.472712 0.104237
vt 0.054688 0.328125
vt 0.087833 0.294979
vt 0.054688 0.281250
vt 0.101562 0.328125
vt 0.087833 0.361271
vt 0.054688 0.375000
vt 0.021542 0.361271
vt 0.007812 0.328125
vt 0.021542 0.294979
vt 0.054688 0.281250
vt 0.087833 0.281250
vt 0.087833 0.375000
vt 0.054688 0.375000
vt 0.007812 0.294979
vt 0.007812 0.328125
vt 0.101562 0.328125
vt 0.101562 0.294979
vt 0.007812 0.361271
vt 0.101562 0.361271
vt 0.021542 0.281250
vt 0.021542 0.375000
vt 0.054688 0.281250
vt 0.087833 0.294979
vt 0.054688 0.328125
vt 0.101562 0.328125
vt 0.087833 0.361271
vt 0.054688 0.375000
vt 0.021542 0.361271
vt 0.007812 0.328125
vt 0.021542 0.294979
vn 0.000000 0.000000 1.000000
vn 0.000000 0.000000 -1.000000
vn -0.000000 1.000000 0.000000
vn 0.000000 -1.000000 0.000000
vn -1.000000 0.000000 0.000000
vn 1.000000 0.000000 0.000000
vn 0.000000 0.000000 1.000000
vn 0.000000 0.000000 -1.000000
vn -0.000000 1.000000 0.000000
vn 0.000000 -1.000000 0.000000
vn -1.000000 0.000000 0.000000
vn 1.000000 0.000000 0.000000
vn 0.000000 0.000000 1.000000
vn 0.000000 0.000000 -1.000000
vn -0.000000 1.000000 0.000000
vn 0.000000 -1.000000 0.000000
vn -1.000000 0.000000 0.000000
vn 1.000000 0.000000 0.000000
vn 0.000000 0.000000 1.000000
vn 0.000000 0.000000 -1.000000
vn -0.000000 1.000000 0.000000
vn 0.000000 -1.000000 0.000000
vn -1.000000 0.000000 0.000000
vn 1.000000 0.000000 0.000000
vn 0.371470 0.240299 0.896809
vn 0.896809 0.240299 0.371470
vn 0.896809 0.240299 -0.371470
vn 0.371470 0.240299 -0.896809
vn -0.371470 0.240299 -0.896809
vn -0.896809 0.240299 -0.371470
vn -0.896809 0.240299 0.371470
vn -0.371470 0.240299 0.896809
vn 0.281085 0.678598 0.678598
vn 0.678598 0.678598 0.281085
vn 0.678598 0.678598 -0.281085
vn 0.281085 0.678598 -0.678598
vn -0.281085 0.678598 -0.678598
vn -0.678598 0.678598 -0.281085
vn -0.678598 0.678598 0.281085
vn -0.281085 0.678598 0.678598
vn 0.106596 0.960422 0.257344
vn 0.257344 0.960422 0.106596
vn 0.257344 0.960422 -0.106596
vn 0.106596 0.960422 -0.257344
vn -0.106596 0.960422 -0.257344
vn -0.257344 0.960422 -0.106596
vn -0.257344 0.960422 0.106596
vn -0.106596 0.960422 0.257344
vn 0.000000 0.000000 1.000000
vn 0.000000 0.000000 -1.000000
vn -0.000000 1.000000 0.000000
vn 0.000000 -1.000000 0.000000
vn -1.000000 0.000000 0.000000
vn 1.000000 0.000000 0.000000
vn 0.000000 0.000000 1.000000
vn 0.000000 0.000000 -1.000000
vn -0.000000 1.000000 0.000000
vn 0.000000 -1.000000 0.000000
vn -1.000000 0.000000 0.000000
vn 1.000000 0.000000 0.000000
vn 0.000000 0.000000 -1.000000
vn 0.382683 -0.923880 0.000000
vn 0.923880 -0.382683 0.000000
vn 0.923880 0.382683 0.000000
vn 0.382683 0.923880 0.000000
vn -0.382683 0.923880 0.000000
vn -0.923880 0.382683 -0.000000
vn -0.923880 -0.382683 0.000000
vn -0.382683 -0.923880 0.000000
vn 0.000000 0.000000 1.000000
vn 0.000000 0.000000 -1.000000
vn 0.382683 -0.923880 0.000000
vn 0.923880 -0.382683 0.000000
vn 0.923880 0.382683 0.000000
vn 0.382683 0.923880 0.000000
vn -0.382683 0.923880 0.000000
vn -0.923880 0.382683 -0.000000
vn -0.923880 -0.382683 0.000000
vn -0.382683 -0.923880 0.000000
vn 0.000000 0.000000 1.000000
vn 0.000000 0.000000 1.000000
vn 0.000000 0.000000 -1.000000
vn -0.000000 -1.000000 0.000000
vn 0.000000 1.000000 0.000000
vn 1.000000 0.000000 -0.000000
vn -1.000000 0.000000 -0.000000
vn 0.158879 -0.798741 0.580319
vn -0.061352 0.308435 0.949265
vn -0.195090 0.980785 0.000000
vn -0.061352 0.308435 -0.949265
vn 0.158879 -0.798741 -0.580319
vn 0.452450 -0.677140 0.580319
vn -0.174714 0.261478 0.949265
vn -0.555570 0.831470 0.000000
vn -0.174714 0.261478 -0.949265
vn 0.452450 -0.677140 -0.580319
vn 0.677140 -0.452450 0.580319
vn -0.261478 0.174714 0.949265
vn -0.831470 0.555570 0.000000
vn -0.261478 0.174714 -0.949265
vn 0.677140 -0.452450 -0.580319
vn 0.798741 -0.158879 0.580319
vn -0.308435 0.061352 0.949265
vn -0.980785 0.195090 0.000000
vn -0.308435 0.061352 -0.949265
vn 0.798741 -0.158879 -0.580319
vn 0.798741 0.158879 0.580319
vn -0.308435 -0.061352 0.949265
vn -0.980785 -0.195090 0.000000
vn -0.308435 -0.061352 -0.949265
vn 0.798741 0.158879 -0.580319
vn 0.677140 0.452450 0.580319
vn -0.261478 -0.174714 0.949265
vn -0.831470 -0.555570 0.000000
vn -0.261478 -0.174714 -0.949265
vn 0.677140 0.452450 -0.580319
vn 0.452450 0.677140 0.580319
vn -0.174714 -0.261478 0.949265
vn -0.555570 -0.831470 0.000000
vn -0.174714 -0.261478 -0.949265
vn 0.452450 0.677140 -0.580319
vn 0.158879 0.798741 0.580319
vn -0.061352 -0.308435 0.949265
vn -0.195090 -0.980785 0.000000
vn -0.061352 -0.308435 -0.949265
vn 0.158879 0.798741 -0.580319
vn -0.158879 0.798741 0.580319
vn 0.061352 -0.308435 0.949265
vn 0.195090 -0.980785 0.000000
vn 0.061352 -0.308435 -0.949265
vn -0.158879 0.798741 -0.580319
vn -0.452450 0.677140 0.580319
vn 0.174714 -0.261478 0.949265
vn 0.555570 -0.831470 0.000000
vn 0.174714 -0.261478 -0.949265
vn -0.452450 0.677140 -0.580319
vn -0.677140 0.452450 0.580319
vn 0.261478 -0.174714 0.949265
vn 0.831470 -0.555570 0.000000
vn 0.261478 -0.174714 -0.949265
vn -0.677140 0.452450 -0.580319
vn -0.798741 0.158879 0.580319
vn 0.308435 -0.061352 0.949265
vn 0.980785 -0.195090 0.000000
vn 0.308435 -0.061352 -0.949265
vn -0.798741 0.158879 -0.580319
vn -0.798741 -0.158879 0.580319
vn 0.308435 0.061352 0.949265
vn 0.980785 0.195090 0.000000
vn 0.308435 0.061352 -0.949265
vn -0.798741 -0.158879 -0.580319
vn -0.677140 -0.452450 0.580319
vn 0.261478 0.174714 0.949265
vn 0.831470 0.555570 0.000000
vn 0.261478 0.174714 -0.949265
vn -0.677140 -0.452450 -0.580319
vn -0.452450 -0.677140 0.580319
vn 0.174714 0.261478 0.949265
vn 0.555570 0.831470 0.000000
vn 0.174714 0.261478 -0.949265
vn -0.452450 -0.677140 -0.580319
vn -0.158879 -0.798741 0.580319
vn 0.061352 0.308435 0.949265
vn 0.195090 0.980785 0.000000
vn 0.061352 0.308435 -0.949265
vn -0.158879 -0.798741 -0.580319
vn 0.000000 0.000000 -1.000000
vn 0.382683 -0.923880 0.000000
vn 0.923880 -0.382683 0.000000
vn 0.923880 0.382683 0.000000
vn 0.382683 0.923880 0.000000
vn -0.382683 0.923880 0.000000
vn -0.923880 0.382683 0.000000
vn -0.923880 -0.382683 0.000000
vn -0.382683 -0.923880 0.000000
vn 0.000000 0.000000 1.000000
vn 0.000000 0.000000 1.000000
vn 0.000000 0.000000 -1.000000
vn -0.000000 1.000000 0.000000
vn 0.000000 -1.000000 0.000000
vn -1.000000 0.000000 0.000000
vn 1.000000 0.000000 0.000000
vn 0.158879 -0.798741 0.580319
vn -0.061352 0.308435 0.949265
vn -0.195090 0.980785 0.000000
vn -0.061352 0.308435 -0.949265
vn 0.158879 -0.798741 -0.580319
vn 0.452450 -0.677140 0.580319
vn -0.174714 0.261478 0.949265
vn -0.555570 0.831470 0.000000
vn -0.174714 0.261478 -0.949265
vn 0.452450 -0.677140 -0.580319
vn 0.677140 -0.452450 0.580319
vn -0.261478 0.174714 0.949265
vn -0.831470 0.555570 0.000000
vn -0.261478 0.174714 -0.949265
vn 0.677140 -0.452450 -0.580319
vn 0.798741 -0.158879 0.580319
vn -0.308435 0.061352 0.949265
vn -0.980785 0.195090 0.000000
vn -0.308435 0.061352 -0.949265
vn 0.798741 -0.158879 -0.580319
vn 0.798741 0.158879 0.580319
vn -0.308435 -0.061352 0.949265
vn -0.980785 -0.195090 0.000000
vn -0.308435 -0.061352 -0.949265
vn 0.798741 0.158879 -0.580319
vn 0.677140 0.452450 0.580319
vn -0.261478 -0.174714 0.949265
vn -0.831470 -0.555570 0.000000
vn -0.261478 -0.174714 -0.949265
vn 0.677140 0.452450 -0.580319
vn 0.452450 0.677140 0.580319
vn -0.174714 -0.261478 0.949265
vn -0.555570 -0.831470 0.000000
vn -0.174714 -0.261478 -0.949265
vn 0.452450 0.677140 -0.580319
vn 0.158879 0.798741 0.580319
vn -0.061352 -0.308435 0.949265
vn -0.195090 -0.980785 0.000000
vn -0.061352 -0.308435 -0.949265
vn 0.158879 0.798741 -0.580319
vn -0.158879 0.798741 0.580319
vn 0.061352 -0.308435 0.949265
vn 0.195090 -0.980785 0.000000
vn 0.061352 -0.308435 -0.949265
vn -0.158879 0.798741 -0.580319
vn -0.452450 0.677140 0.580319
vn 0.174714 -0.261478 0.949265
vn 0.555570 -0.831470 0.000000
vn 0.174714 -0.261478 -0.949265
vn -0.452450 0.677140 -0.580319
vn -0.677140 0.452450 0.580319
vn 0.261478 -0.174714 0.949265
vn 0.831470 -0.555570 0.000000
vn 0.261478 -0.174714 -0.949265
vn -0.677140 0.452450 -0.580319
vn -0.798741 0.158879 0.580319
vn 0.308435 -0.061352 0.949265
vn 0.980785 -0.195090 0.000000
vn 0.308435 -0.061352 -0.949265
vn -0.798741 0.158879 -0.580319
vn -0.798741 -0.158879 0.580319
vn 0.308435 0.061352 0.949265
vn 0.980785 0.195090 0.000000
vn 0.308435 0.061352 -0.949265
vn -0.798741 -0.158879 -0.580319
vn -0.677140 -0.452450 0.580319
vn 0.261478 0.174714 0.949265
vn 0.831470 0.555570 0.000000
vn 0.261478 0.174714 -0.949265
vn -0.677140 -0.452450 -0.580319
vn -0.452450 -0.677140 0.580319
vn 0.174714 0.261478 0.949265
vn 0.555570 0.831470 0.000000
vn 0.174714 0.261478 -0.949265
vn -0.452450 -0.677140 -0.580319
vn -0.158879 -0.798741 0.580319
vn 0.061352 0.308435 0.949265
vn 0.195090 0.980785 0.000000
vn 0.061352 0.308435 -0.949265
vn -0.158879 -0.798741 -0.580319
vn 0.000000 0.000000 -1.000000
vn 0.382683 -0.923880 0.000000
vn 0.923880 -0.382683 0.000000
vn 0.923880 0.382683 0.000000
vn 0.382683 0.923880 0.000000
vn -0.382683 0.923880 0.000000
vn -0.923880 0.382683 0.000000
vn -0.923880 -0.382683 0.000000
vn -0.382683 -0.923880 0.000000
vn 0.000000 0.000000 1.000000
f 1/1/1 2/2/1 3/3/1
f 1/1/1 3/3/1 4/4/1
f 5/5/2 6/6/2 7/7/2
f 5/5/2 7/7/2 8/8/2
f 4/9/3 3/10/3 8/11/3
f 4/9/3 8/11/3 7/12/3
f 6/12/4 5/11/4 2/10/4
f 6/12/4 2/10/4 1/9/4
f 6/13/5 1/14/5 4/15/5
f 6/13/5 4/15/5 7/16/5
f 2/14/6 5/13/6 8/16/6
f 2/14/6 8/16/6 3/15/6
f 9/17/7 10/18/7 11/19/7
f 9/17/7 11/19/7 12/20/7
f 13/21/8 14/22/8 15/23/8
f 13/21/8 15/23/8 16/24/8
f 12/25/9 11/26/9 16/27/9
f 12/25/9 16/27/9 15/28/9
f 14/28/10 13/27/10 10/26/10
f 14/28/10 10/26/10 9/25/10
f 14/29/11 9/30/11 12/31/11
f 14/29/11 12/31/11 15/32/11
f 10/30/12 13/29/12 16/32/12
f 10/30/12 16/32/12 11/31/12
f 17/33/13 18/34/13 19/35/13
f 17/33/13 19/35/13 20/36/13
f 21/37/14 22/38/14 23/39/14
f 21/37/14 23/39/14 24/40/14
f 20/41/15 19/42/15 24/43/15
f 20/41/15 24/43/15 23/44/15
f 22/44/16 21/43/16 18/42/16
f 22/44/16 18/42/16 17/41/16
f 22/45/17 17/46/17 20/47/17
f 22/45/17 20/47/17 23/48/17
f 18/46/18 21/45/18 24/48/18
f 18/46/18 24/48/18 19/47/18
f 25/49/19 26/50/19 27/51/19
f 25/49/19 27/51/19 28/52/19
f 29/53/20 30/54/20 31/55/20
f 29/53/20 31/55/20 32/56/20
f 28/57/21 27/58/21 32/59/21
f 28/57/21 32/59/21 31/60/21
f 30/60/22 29/59/22 26/58/22
f 30/60/22 26/58/22 25/57/22
f 30/61/23 25/62/23 28/63/23
f 30/61/23 28/63/23 31/64/23
f 26/62/24 29/61/24 32/64/24
f 26/62/24 32/64/24 27/63/24
f 33/65/25 34/66/25 35/67/25
f 33/65/25 35/67/25 36/68/25
f 34/69/26 37/70/26 38/71/26
f 34/69/26 38/71/26 35/72/26
f 37/70/27 39/73/27 40/74/27
f 37/70/27 40/74/27 38/71/27
f 39/75/28 41/76/28 42/77/28
f 39/75/28 42/77/28 40/78/28
f 41/76/29 43/79/29 44/80/29
f 41/76/29 44/80/29 42/77/29
f 43/73/30 45/70/30 46/71/30
f 43/73/30 46/71/30 44/74/30
f 45/70/31 47/69/31 48/72/31
f 45/70/31 48/72/31 46/71/31
f 47/81/32 33/65/32 36/68/32
f 47/81/32 36/68/32 48/82/32
f 36/83/33 35/84/33 49/85/33
f 36/68/33 49/86/33 50/87/33
f 35/72/34 38/71/34 51/88/34
f 35/84/34 51/89/34 49/85/34
f 38/90/35 40/91/35 52/92/35
f 38/71/35 52/93/35 51/88/35
f 40/91/36 42/94/36 53/95/36
f 40/91/36 53/95/36 52/92/36
f 42/94/37 44/96/37 54/97/37
f 42/94/37 54/97/37 53/95/37
f 44/74/38 46/71/38 55/88/38
f 44/96/38 55/98/38 54/97/38
f 46/99/39 48/100/39 56/101/39
f 46/71/39 56/102/39 55/88/39
f 48/82/40 36/68/40 50/87/40
f 48/100/40 50/103/40 56/101/40
f 50/103/41 49/85/41 57/104/41
f 49/85/42 51/89/42 57/104/42
f 51/89/43 52/92/43 57/104/43
f 52/92/44 53/95/44 57/104/44
f 53/95/45 54/97/45 57/104/45
f 54/97/46 55/98/46 57/104/46
f 55/98/47 56/101/47 57/104/47
f 56/101/48 50/103/48 57/104/48
f 58/105/49 59/106/49 60/107/49
f 58/105/49 60/107/49 61/108/49
f 62/109/50 63/110/50 64/111/50
f 62/109/50 64/111/50 65/112/50
f 61/113/51 60/114/51 65/115/51
f 61/113/51 65/115/51 64/116/51
f 63/116/52 62/115/52 59/114/52
f 63/116/52 59/114/52 58/113/52
f 63/117/53 58/118/53 61/119/53
f 63/117/53 61/119/53 64/120/53
f 59/118/54 62/117/54 65/120/54
f 59/118/54 65/120/54 60/119/54
f 66/121/55 67/122/55 68/123/55
f 66/121/55 68/123/55 69/124/55
f 70/125/56 71/126/56 72/127/56
f 70/125/56 72/127/56 73/128/56
f 69/129/57 68/130/57 73/131/57
f 69/129/57 73/131/57 72/132/57
f 71/132/58 70/131/58 67/130/58
f 71/132/58 67/130/58 66/129/58
f 71/133/59 66/134/59 69/135/59
f 71/133/59 69/135/59 72/136/59
f 67/134/60 70/133/60 73/136/60
f 67/134/60 73/136/60 68/135/60
f 74/137/61 75/138/61 76/139/61
f 74/137/61 77/140/61 75/138/61
f 74/137/61 78/141/61 77/140/61
f 74/137/61 79/142/61 78/141/61
f 74/137/61 80/143/61 79/142/61
f 74/137/61 81/144/61 80/143/61
f 74/137/61 82/145/61 81/144/61
f 74/137/61 76/139/61 82/145/61
f 76/146/62 75/147/62 83/148/62
f 76/146/62 83/148/62 84/149/62
f 75/150/63 77/151/63 85/151/63
f 75/150/63 85/151/63 83/150/63
f 77/151/64 78/152/64 86/152/64
f 77/151/64 86/152/64 85/151/64
f 78/147/65 79/146/65 87/149/65
f 78/147/65 87/149/65 86/148/65
f 79/146/66 80/153/66 88/154/66
f 79/146/66 88/154/66 87/149/66
f 80/155/67 81/156/67 89/157/67
f 80/155/67 89/157/67 88/158/67
f 81/156/68 82/159/68 90/160/68
f 81/156/68 90/160/68 89/157/68
f 82/153/69 76/146/69 84/149/69
f 82/153/69 84/149/69 90/154/69
f 84/161/70 83/162/70 91/163/70
f 83/162/70 85/164/70 91/163/70
f 85/164/70 86/165/70 91/163/70
f 86/165/70 87/166/70 91/163/70
f 87/166/70 88/167/70 91/163/70
f 88/167/70 89/168/70 91/163/70
f 89/168/70 90/169/70 91/163/70
f 90/169/70 84/161/70 91/163/70
f 92/170/71 93/171/71 94/172/71
f 92/170/71 95/173/71 93/171/71
f 92/170/71 96/174/71 95/173/71
f 92/170/71 97/175/71 96/174/71
f 92/170/71 98/176/71 97/175/71
f 92/170/71 99/177/71 98/176/71
f 92/170/71 100/178/71 99/177/71
f 92/170/71 94/172/71 100/178/71
f 94/179/72 93/180/72 101/181/72
f 94/179/72 101/181/72 102/182/72
f 93/183/73 95/184/73 103/185/73
f 93/183/73 103/185/73 101/186/73
f 95/184/74 96/187/74 104/188/74
f 95/184/74 104/188/74 103/185/74
f 96/180/75 97/179/75 105/182/75
f 96/180/75 105/182/75 104/181/75
f 97/179/76 98/189/76 106/190/76
f 97/179/76 106/190/76 105/182/76
f 98/191/77 99/192/77 107/192/77
f 98/191/77 107/192/77 106/191/77
f 99/192/78 100/193/78 108/193/78
f 99/192/78 108/193/78 107/192/78
f 100/189/79 94/179/79 102/182/79
f 100/189/79 102/182/79 108/190/79
f 102/194/80 101/195/80 109/196/80
f 101/195/80 103/197/80 109/196/80
f 103/197/80 104/198/80 109/196/80
f 104/198/80 105/199/80 109/196/80
f 105/199/80 106/200/80 109/196/80
f 106/200/80 107/201/80 109/196/80
f 107/201/80 108/202/80 109/196/80
f 108/202/80 102/194/80 109/196/80
f 110/203/81 111/204/81 112/205/81
f 110/203/81 112/205/81 113/206/81
f 114/207/82 115/208/82 116/209/82
f 114/207/82 116/209/82 117/210/82
f 113/211/83 112/212/83 117/213/83
f 113/211/83 117/213/83 116/214/83
f 115/214/84 114/213/84 111/212/84
f 115/214/84 111/212/84 110/211/84
f 115/215/85 110/216/85 113/217/85
f 115/215/85 113/217/85 116/218/85
f 111/216/86 114/215/86 117/218/86
f 111/216/86 117/218/86 112/217/86
f 118/219/87 119/220/87 120/221/87
f 118/219/87 120/221/87 121/222/87
f 121/223/88 120/224/88 122/225/88
f 121/223/88 122/225/88 123/226/88
f 123/227/89 122/228/89 124/229/89
f 123/227/89 124/229/89 125/230/89
f 125/231/90 124/232/90 126/233/90
f 125/231/90 126/233/90 127/234/90
f 127/235/91 126/236/91 119/220/91
f 127/235/91 119/220/91 118/219/91
f 119/220/92 128/237/92 129/238/92
f 119/220/92 129/238/92 120/221/92
f 120/224/93 129/239/93 130/240/93
f 120/224/93 130/240/93 122/225/93
f 122/228/94 130/241/94 131/242/94
f 122/228/94 131/242/94 124/229/94
f 124/232/95 131/243/95 132/244/95
f 124/232/95 132/244/95 126/233/95
f 126/236/96 132/245/96 128/237/96
f 126/236/96 128/237/96 119/220/96
f 128/246/97 133/247/97 134/248/97
f 128/246/97 134/248/97 129/249/97
f 129/239/98 134/250/98 135/251/98
f 129/239/98 135/251/98 130/240/98
f 130/252/99 135/253/99 136/254/99
f 130/252/99 136/254/99 131/255/99
f 131/243/100 136/256/100 137/257/100
f 131/243/100 137/257/100 132/244/100
f 132/258/101 137/259/101 133/247/101
f 132/258/101 133/247/101 128/246/101
f 133/247/102 138/260/102 139/261/102
f 133/247/102 139/261/102 134/248/102
f 134/250/103 139/262/103 140/263/103
f 134/250/103 140/263/103 135/251/103
f 135/253/104 140/264/104 141/265/104
f 135/253/104 141/265/104 136/254/104
f 136/256/105 141/266/105 142/267/105
f 136/256/105 142/267/105 137/257/105
f 137/259/106 142/268/106 138/260/106
f 137/259/106 138/260/106 133/247/106
f 138/260/107 143/269/107 144/270/107
f 138/260/107 144/270/107 139/261/107
f 139/262/108 144/271/108 145/272/108
f 139/262/108 145/272/108 140/263/108
f 140/264/109 145/273/109 146/274/109
f 140/264/109 146/274/109 141/265/109
f 141/266/110 146/275/110 147/276/110
f 141/266/110 147/276/110 142/267/110
f 142/268/111 147/277/111 143/269/111
f 142/268/111 143/269/111 138/260/111
f 143/269/112 148/278/112 149/279/112
f 143/269/112 149/279/112 144/270/112
f 144/271/113 149/280/113 150/281/113
f 144/271/113 150/281/113 145/272/113
f 145/273/114 150/282/114 151/283/114
f 145/273/114 151/283/114 146/274/114
f 146/275/115 151/284/115 152/285/115
f 146/275/115 152/285/115 147/276/115
f 147/277/116 152/286/116 148/278/116
f 147/277/116 148/278/116 143/269/116
f 148/237/117 153/220/117 154/221/117
f 148/237/117 154/221/117 149/238/117
f 149/280/118 154/287/118 155/288/118
f 149/280/118 155/288/118 150/281/118
f 150/241/119 155/228/119 156/229/119
f 150/241/119 156/229/119 151/242/119
f 151/284/120 156/289/120 157/290/120
f 151/284/120 157/290/120 152/285/120
f 152/245/121 157/236/121 153/220/121
f 152/245/121 153/220/121 148/237/121
f 153/220/122 158/219/122 159/222/122
f 153/220/122 159/222/122 154/221/122
f 154/287/123 159/291/123 160/292/123
f 154/287/123 160/292/123 155/288/123
f 155/228/124 160/227/124 161/230/124
f 155/228/124 161/230/124 156/229/124
f 156/289/125 161/293/125 162/294/125
f 156/289/125 162/294/125 157/290/125
f 157/236/126 162/235/126 158/219/126
f 157/236/126 158/219/126 153/220/126
f 158/219/127 163/295/127 164/296/127
f 158/219/127 164/296/127 159/222/127
f 159/291/128 164/297/128 165/298/128
f 159/291/128 165/298/128 160/292/128
f 160/227/129 165/299/129 166/300/129
f 160/227/129 166/300/129 161/230/129
f 161/293/130 166/301/130 167/302/130
f 161/293/130 167/302/130 162/294/130
f 162/235/131 167/303/131 163/295/131
f 162/235/131 163/295/131 158/219/131
f 163/295/132 168/304/132 169/305/132
f 163/295/132 169/305/132 164/296/132
f 164/297/133 169/306/133 170/307/133
f 164/297/133 170/307/133 165/298/133
f 165/299/134 170/308/134 171/309/134
f 165/299/134 171/309/134 166/300/134
f 166/301/135 171/310/135 172/311/135
f 166/301/135 172/311/135 167/302/135
f 167/303/136 172/312/136 168/304/136
f 167/303/136 168/304/136 163/295/136
f 168/278/137 173/269/137 174/270/137
f 168/278/137 174/270/137 169/279/137
f 169/306/138 174/313/138 175/314/138
f 169/306/138 175/314/138 170/307/138
f 170/282/139 175/273/139 176/274/139
f 170/282/139 176/274/139 171/283/139
f 171/310/140 176/315/140 177/316/140
f 171/310/140 177/316/140 172/311/140
f 172/286/141 177/277/141 173/269/141
f 172/286/141 173/269/141 168/278/141
f 173/269/142 178/260/142 179/261/142
f 173/269/142 179/261/142 174/270/142
f 174/313/143 179/317/143 180/318/143
f 174/313/143 180/318/143 175/314/143
f 175/273/144 180/264/144 181/265/144
f 175/273/144 181/265/144 176/274/144
f 176/315/145 181/319/145 182/320/145
f 176/315/145 182/320/145 177/316/145
f 177/277/146 182/268/146 178/260/146
f 177/277/146 178/260/146 173/269/146
f 178/260/147 183/247/147 184/248/147
f 178/260/147 184/248/147 179/261/147
f 179/317/148 184/321/148 185/322/148
f 179/317/148 185/322/148 180/318/148
f 180/264/149 185/253/149 186/254/149
f 180/264/149 186/254/149 181/265/149
f 181/319/150 186/323/150 187/324/150
f 181/319/150 187/324/150 182/320/150
f 182/268/151 187/259/151 183/247/151
f 182/268/151 183/247/151 178/260/151
f 183/247/152 188/246/152 189/249/152
f 183/247/152 189/249/152 184/248/152
f 184/321/153 189/325/153 190/326/153
f 184/321/153 190/326/153 185/322/153
f 185/253/154 190/252/154 191/255/154
f 185/253/154 191/255/154 186/254/154
f 186/323/155 191/327/155 192/328/155
f 186/323/155 192/328/155 187/324/155
f 187/259/156 192/258/156 188/246/156
f 187/259/156 188/246/156 183/247/156
f 188/304/157 193/295/157 194/296/157
f 188/304/157 194/296/157 189/305/157
f 189/325/158 194/329/158 195/330/158
f 189/325/158 195/330/158 190/326/158
f 190/308/159 195/299/159 196/300/159
f 190/308/159 196/300/159 191/309/159
f 191/327/160 196/331/160 197/332/160
f 191/327/160 197/332/160 192/328/160
f 192/312/161 197/303/161 193/295/161
f 192/312/161 193/295/161 188/304/161
f 193/295/162 118/219/162 121/222/162
f 193/295/162 121/222/162 194/296/162
f 194/329/163 121/223/163 123/226/163
f 194/329/163 123/226/163 195/330/163
f 195/299/164 123/227/164 125/230/164
f 195/299/164 125/230/164 196/300/164
f 196/331/165 125/231/165 127/234/165
f 196/331/165 127/234/165 197/332/165
f 197/303/166 127/235/166 118/219/166
f 197/303/166 118/219/166 193/295/166
f 198/333/167 199/334/167 200/335/167
f 198/333/167 201/336/167 199/334/167
f 198/333/167 202/337/167 201/336/167
f 198/333/167 203/338/167 202/337/167
f 198/333/167 204/339/167 203/338/167
f 198/333/167 205/340/167 204/339/167
f 198/333/167 206/341/167 205/340/167
f 198/333/167 200/335/167 206/341/167
f 200/342/168 199/343/168 207/344/168
f 200/342/168 207/344/168 208/345/168
f 199/346/169 201/347/169 209/348/169
f 199/346/169 209/348/169 207/349/169
f 201/347/170 202/350/170 210/351/170
f 201/347/170 210/351/170 209/348/170
f 202/343/171 203/342/171 211/345/171
f 202/343/171 211/345/171 210/344/171
f 203/342/172 204/352/172 212/353/172
f 203/342/172 212/353/172 211/345/172
f 204/350/173 205/347/173 213/348/173
f 204/350/173 213/348/173 212/351/173
f 205/347/174 206/346/174 214/349/174
f 205/347/174 214/349/174 213/348/174
f 206/352/175 200/342/175 208/345/175
f 206/352/175 208/345/175 214/353/175
f 208/354/176 207/355/176 215/356/176
f 207/355/176 209/357/176 215/356/176
f 209/357/176 210/358/176 215/356/176
f 210/358/176 211/359/176 215/356/176
f 211/359/176 212/360/176 215/356/176
f 212/360/176 213/361/176 215/356/176
f 213/361/176 214/362/176 215/356/176
f 214/362/176 208/354/176 215/356/176
f 216/363/177 217/364/177 218/365/177
f 216/363/177 218/365/177 219/366/177
f 220/367/178 221/368/178 222/369/178
f 220/367/178 222/369/178 223/370/178
f 219/371/179 218/372/179 223/373/179
f 219/371/179 223/373/179 222/374/179
f 221/374/180 220/373/180 217/372/180
f 221/374/180 217/372/180 216/371/180
f 221/375/181 216/376/181 219/377/181
f 221/375/181 219/377/181 222/378/181
f 217/376/182 220/375/182 223/378/182
f 217/376/182 223/378/182 218/377/182
f 224/379/183 225/380/183 226/381/183
f 224/379/183 226/381/183 227/382/183
f 227/383/184 226/384/184 228/385/184
f 227/383/184 228/385/184 229/386/184
f 229/387/185 228/388/185 230/389/185
f 229/387/185 230/389/185 231/390/185
f 231/391/186 230/392/186 232/393/186
f 231/391/186 232/393/186 233/394/186
f 233/395/187 232/396/187 225/380/187
f 233/395/187 225/380/187 224/379/187
f 225/380/188 234/397/188 235/398/188
f 225/380/188 235/398/188 226/381/188
f 226/384/189 235/399/189 236/400/189
f 226/384/189 236/400/189 228/385/189
f 228/388/190 236/401/190 237/402/190
f 228/388/190 237/402/190 230/389/190
f 230/392/191 237/403/191 238/404/191
f 230/392/191 238/404/191 232/393/191
f 232/396/192 238/405/192 234/397/192
f 232/396/192 234/397/192 225/380/192
f 234/406/193 239/407/193 240/408/193
f 234/406/193 240/408/193 235/409/193
f 235/399/194 240/410/194 241/411/194
f 235/399/194 241/411/194 236/400/194
f 236/412/195 241/413/195 242/414/195
f 236/412/195 242/414/195 237/415/195
f 237/403/196 242/416/196 243/417/196
f 237/403/196 243/417/196 238/404/196
f 238/418/197 243/419/197 239/407/197
f 238/418/197 239/407/197 234/406/197
f 239/407/198 244/420/198 245/421/198
f 239/407/198 245/421/198 240/408/198
f 240/410/199 245/422/199 246/423/199
f 240/410/199 246/423/199 241/411/199
f 241/413/200 246/424/200 247/425/200
f 241/413/200 247/425/200 242/414/200
f 242/416/201 247/426/201 248/427/201
f 242/416/201 248/427/201 243/417/201
f 243/419/202 248/428/202 244/420/202
f 243/419/202 244/420/202 239/407/202
f 244/420/203 249/429/203 250/430/203
f 244/420/203 250/430/203 245/421/203
f 245/422/204 250/431/204 251/432/204
f 245/422/204 251/432/204 246/423/204
f 246/424/205 251/433/205 252/434/205
f 246/424/205 252/434/205 247/425/205
f 247/426/206 252/435/206 253/436/206
f 247/426/206 253/436/206 248/427/206
f 248/428/207 253/437/207 249/429/207
f 248/428/207 249/429/207 244/420/207
f 249/429/208 254/438/208 255/439/208
f 249/429/208 255/439/208 250/430/208
f 250/431/209 255/440/209 256/441/209
f 250/431/209 256/441/209 251/432/209
f 251/433/210 256/442/210 257/443/210
f 251/433/210 257/443/210 252/434/210
f 252/435/211 257/444/211 258/445/211
f 252/435/211 258/445/211 253/436/211
f 253/437/212 258/446/212 254/438/212
f 253/437/212 254/438/212 249/429/212
f 254/397/213 259/380/213 260/381/213
f 254/397/213 260/381/213 255/398/213
f 255/440/214 260/447/214 261/448/214
f 255/440/214 261/448/214 256/441/214
f 256/401/215 261/388/215 262/389/215
f 256/401/215 262/389/215 257/402/215
f 257/444/216 262/449/216 263/450/216
f 257/444/216 263/450/216 258/445/216
f 258/405/217 263/396/217 259/380/217
f 258/405/217 259/380/217 254/397/217
f 259/380/218 264/379/218 265/382/218
f 259/380/218 265/382/218 260/381/218
f 260/447/219 265/451/219 266/452/219
f 260/447/219 266/452/219 261/448/219
f 261/388/220 266/387/220 267/390/220
f 261/388/220 267/390/220 262/389/220
f 262/449/221 267/453/221 268/454/221
f 262/449/221 268/454/221 263/450/221
f 263/396/222 268/395/222 264/379/222
f 263/396/222 264/379/222 259/380/222
f 264/379/223 269/455/223 270/456/223
f 264/379/223 270/456/223 265/382/223
f 265/451/224 270/457/224 271/458/224
f 265/451/224 271/458/224 266/452/224
f 266/387/225 271/459/225 272/460/225
f 266/387/225 272/460/225 267/390/225
f 267/453/226 272/461/226 273/462/226
f 267/453/226 273/462/226 268/454/226
f 268/395/227 273/463/227 269/455/227
f 268/395/227 269/455/227 264/379/227
f 269/455/228 274/464/228 275/465/228
f 269/455/228 275/465/228 270/456/228
f 270/457/229 275/466/229 276/467/229
f 270/457/229 276/467/229 271/458/229
f 271/459/230 276/468/230 277/469/230
f 271/459/230 277/469/230 272/460/230
f 272/461/231 277/470/231 278/471/231
f 272/461/231 278/471/231 273/462/231
f 273/463/232 278/472/232 274/464/232
f 273/463/232 274/464/232 269/455/232
f 274/438/233 279/429/233 280/430/233
f 274/438/233 280/430/233 275/439/233
f 275/466/234 280/473/234 281/474/234
f 275/466/234 281/474/234 276/467/234
f 276/442/235 281/433/235 282/434/235
f 276/442/235 282/434/235 277/443/235
f 277/470/236 282/475/236 283/476/236
f 277/470/236 283/476/236 278/471/236
f 278/446/237 283/437/237 279/429/237
f 278/446/237 279/429/237 274/438/237
f 279/429/238 284/420/238 285/421/238
f 279/429/238 285/421/238 280/430/238
f 280/473/239 285/477/239 286/478/239
f 280/473/239 286/478/239 281/474/239
f 281/433/240 286/424/240 287/425/240
f 281/433/240 287/425/240 282/434/240
f 282/475/241 287/479/241 288/480/241
f 282/475/241 288/480/241 283/476/241
f 283/437/242 288/428/242 284/420/242
f 283/437/242 284/420/242 279/429/242
f 284/420/243 289/407/243 290/408/243
f 284/420/243 290/408/243 285/421/243
f 285/477/244 290/481/244 291/482/244
f 285/477/244 291/482/244 286/478/244
f 286/424/245 291/413/245 292/414/245
f 286/424/245 292/414/245 287/425/245
f 287/479/246 292/483/246 293/484/246
f 287/479/246 293/484/246 288/480/246
f 288/428/247 293/419/247 289/407/247
f 288/428/247 289/407/247 284/420/247
f 289/407/248 294/406/248 295/409/248
f 289/407/248 295/409/248 290/408/248
f 290/481/249 295/485/249 296/486/249
f 290/481/249 296/486/249 291/482/249
f 291/413/250 296/412/250 297/415/250
f 291/413/250 297/415/250 292/414/250
f 292/483/251 297/487/251 298/488/251
f 292/483/251 298/488/251 293/484/251
f 293/419/252 298/418/252 294/406/252
f 293/419/252 294/406/252 289/407/252
f 294/464/253 299/455/253 300/456/253
f 294/464/253 300/456/253 295/465/253
f 295/485/254 300/489/254 301/490/254
f 295/485/254 301/490/254 296/486/254
f 296/468/255 301/459/255 302/460/255
f 296/468/255 302/460/255 297/469/255
f 297/487/256 302/491/256 303/492/256
f 297/487/256 303/492/256 298/488/256
f 298/472/257 303/463/257 299/455/257
f 298/472/257 299/455/257 294/464/257
f 299/455/258 224/379/258 227/382/258
f 299/455/258 227/382/258 300/456/258
f 300/489/259 227/383/259 229/386/259
f 300/489/259 229/386/259 301/490/259
f 301/459/260 229/387/260 231/390/260
f 301/459/260 231/390/260 302/460/260
f 302/491/261 231/391/261 233/394/261
f 302/491/261 233/394/261 303/492/261
f 303/463/262 233/395/262 224/379/262
f 303/463/262 224/379/262 299/455/262
f 304/493/263 305/494/263 306/495/263
f 304/493/263 307/496/263 305/494/263
f 304/493/263 308/497/263 307/496/263
f 304/493/263 309/498/263 308/497/263
f 304/493/263 310/499/263 309/498/263
f 304/493/263 311/500/263 310/499/263
f 304/493/263 312/501/263 311/500/263
f 304/493/263 306/495/263 312/501/263
f 306/502/264 305/503/264 313/504/264
f 306/502/264 313/504/264 314/505/264
f 305/506/265 307/507/265 315/508/265
f 305/506/265 315/508/265 313/509/265
f 307/507/266 308/510/266 316/511/266
f 307/507/266 316/511/266 315/508/266
f 308/503/267 309/502/267 317/505/267
f 308/503/267 317/505/267 316/504/267
f 309/502/268 310/512/268 318/513/268
f 309/502/268 318/513/268 317/505/268
f 310/510/269 311/507/269 319/508/269
f 310/510/269 319/508/269 318/511/269
f 311/507/270 312/506/270 320/509/270
f 311/507/270 320/509/270 319/508/270
f 312/512/271 306/502/271 314/505/271
f 312/512/271 314/505/271 320/513/271
f 314/514/272 313/515/272 321/516/272
f 313/515/272 315/517/272 321/516/272
f 315/517/272 316/518/272 321/516/272
f 316/518/272 317/519/272 321/516/272
f 317/519/272 318/520/272 321/516/272
f 318/520/272 319/521/272 321/516/272
f 319/521/272 320/522/272 321/516/272
f 320/522/272 314/514/272 321/516/272
