# Helion destroyer, fragment 0 of 8
# Generated by tools. Edit the generator script.
v 0.174783 0.611739 -1.742000
v -0.174783 0.961304 -1.742000
v 0.174783 0.961304 -1.742000
v 0.524348 0.000000 -1.587725
v -0.524348 0.640870 -1.587725
v 0.524348 0.640870 -1.587725
v 0.640870 0.786522 -1.975043
v 0.805656 0.621735 -1.975043
v 0.640870 0.553478 -1.975043
v 0.873913 0.786522 -1.975043
v 0.805656 0.951308 -1.975043
v 0.640870 1.019565 -1.975043
v 0.476083 0.951308 -1.975043
v 0.407826 0.786522 -1.975043
v 0.476083 0.621735 -1.975043
v 0.805656 0.621735 -1.042870
v 0.873913 0.786522 -1.042870
v 0.805656 0.951308 -1.042870
v 0.640870 1.019565 -1.042870
v 0.476083 0.951308 -1.042870
v 0.407826 0.786522 -1.042870
v 0.476083 0.621735 -1.042870
v 0.640870 0.553478 -1.042870
v 0.029130 0.739913 -1.462348
v 0.611739 0.739913 -1.462348
v 0.611739 0.833130 -1.462348
v 0.029130 0.833130 -1.462348
v 0.611739 0.739913 -1.555565
v 0.029130 0.739913 -1.555565
v 0.029130 0.833130 -1.555565
v 0.611739 0.833130 -1.555565
v 0.640870 0.512696 -1.508957
v 0.745658 0.533539 -1.508957
v 0.734874 0.559574 -1.470170
v 0.640870 0.540876 -1.470170
v 0.717425 0.601700 -1.484985
v 0.640870 0.586472 -1.484985
v 0.717425 0.601700 -1.532928
v 0.640870 0.586472 -1.532928
v 0.734874 0.559574 -1.547743
v 0.640870 0.540876 -1.547743
v 0.834494 0.592897 -1.508957
v 0.814568 0.612824 -1.470170
v 0.782326 0.645065 -1.484985
v 0.782326 0.645065 -1.532928
v 0.814568 0.612824 -1.547743
v 0.893852 0.681733 -1.508957
v 0.867817 0.692517 -1.470170
v 0.825691 0.709966 -1.484985
v 0.825691 0.709966 -1.532928
v 0.867817 0.692517 -1.547743
v 0.914696 0.786522 -1.508957
v 0.886516 0.786522 -1.470170
v 0.840919 0.786522 -1.484985
v 0.840919 0.786522 -1.532928
v 0.886516 0.786522 -1.547743
v 0.893852 0.891310 -1.508957
v 0.867817 0.880526 -1.470170
v 0.825691 0.863077 -1.484985
v 0.825691 0.863077 -1.532928
v 0.867817 0.880526 -1.547743
v 0.834494 0.980146 -1.508957
v 0.814568 0.960220 -1.470170
v 0.782326 0.927978 -1.484985
v 0.782326 0.927978 -1.532928
v 0.814568 0.960220 -1.547743
v 0.745658 1.039504 -1.508957
v 0.734874 1.013469 -1.470170
v 0.717425 0.971344 -1.484985
v 0.717425 0.971344 -1.532928
v 0.734874 1.013469 -1.547743
v 0.640870 1.060348 -1.508957
v 0.640870 1.032168 -1.470170
v 0.640870 0.986571 -1.484985
v 0.640870 0.986571 -1.532928
v 0.640870 1.032168 -1.547743
v 0.536081 1.039504 -1.508957
v 0.546865 1.013469 -1.470170
v 0.564314 0.971344 -1.484985
v 0.564314 0.971344 -1.532928
v 0.546865 1.013469 -1.547743
v 0.447245 0.980146 -1.508957
v 0.467172 0.960220 -1.470170
v 0.499413 0.927978 -1.484985
v 0.499413 0.927978 -1.532928
v 0.467172 0.960220 -1.547743
v 0.387887 0.891310 -1.508957
v 0.413922 0.880526 -1.470170
v 0.456048 0.863077 -1.484985
v 0.456048 0.863077 -1.532928
v 0.413922 0.880526 -1.547743
v 0.367043 0.786522 -1.508957
v 0.395224 0.786522 -1.470170
v 0.440820 0.786522 -1.484985
v 0.440820 0.786522 -1.532928
v 0.395224 0.786522 -1.547743
v 0.387887 0.681733 -1.508957
v 0.413922 0.692517 -1.470170
v 0.456048 0.709966 -1.484985
v 0.456048 0.709966 -1.532928
v 0.413922 0.692517 -1.547743
v 0.447245 0.592897 -1.508957
v 0.467172 0.612824 -1.470170
v 0.499413 0.645065 -1.484985
v 0.499413 0.645065 -1.532928
v 0.467172 0.612824 -1.547743
v 0.536081 0.533539 -1.508957
v 0.546865 0.559574 -1.470170
v 0.564314 0.601700 -1.484985
v 0.564314 0.601700 -1.532928
v 0.546865 0.559574 -1.547743
v 0.640870 0.786522 -2.010000
v 0.792473 0.634918 -2.010000
v 0.640870 0.572122 -2.010000
v 0.855270 0.786522 -2.010000
v 0.792473 0.938125 -2.010000
v 0.640870 1.000922 -2.010000
v 0.489266 0.938125 -2.010000
v 0.426470 0.786522 -2.010000
v 0.489266 0.634918 -2.010000
v 0.792473 0.634918 -1.893478
v 0.640870 0.572122 -1.893478
v 0.855270 0.786522 -1.893478
v 0.792473 0.938125 -1.893478
v 0.640870 1.000922 -1.893478
v 0.489266 0.938125 -1.893478
v 0.426470 0.786522 -1.893478
v 0.489266 0.634918 -1.893478
v 0.640870 0.786522 -1.893478
v 0.604703 0.750355 -1.297099
v 0.058261 0.844783 -1.742000
v 0.174783 0.427246 -1.587725
vt 0.968750 0.531250
vt 0.843750 0.656250
vt 0.968750 0.656250
vt 0.460938 0.382812
vt 0.335938 0.476562
vt 0.460938 0.476562
vt 0.539062 0.234375
vt 0.572208 0.206754
vt 0.539062 0.195312
vt 0.585938 0.234375
vt 0.572208 0.261996
vt 0.539062 0.273438
vt 0.505917 0.261996
vt 0.492188 0.234375
vt 0.505917 0.206754
vt 0.589844 0.664062
vt 0.614703 0.664062
vt 0.614703 0.992188
vt 0.492188 0.308316
vt 0.492188 0.335938
vt 0.867188 0.335938
vt 0.867188 0.308316
vt 0.492188 0.363559
vt 0.867188 0.363559
vt 0.589844 0.992188
vt 0.564985 0.664062
vt 0.564985 0.992188
vt 0.062730 0.261996
vt 0.007812 0.234375
vt 0.062730 0.206754
vt 0.843750 0.531250
vt 0.968750 0.531250
vt 0.968750 0.656250
vt 0.843750 0.656250
vt 0.968750 0.531250
vt 0.843750 0.531250
vt 0.843750 0.656250
vt 0.968750 0.656250
vt 0.843750 0.656250
vt 0.968750 0.656250
vt 0.968750 0.531250
vt 0.843750 0.531250
vt 0.843750 0.531250
vt 0.968750 0.531250
vt 0.968750 0.656250
vt 0.843750 0.656250
vt 0.718750 0.242188
vt 0.766585 0.242188
vt 0.761663 0.273438
vt 0.718750 0.273438
vt 0.515625 0.103171
vt 0.558538 0.104237
vt 0.550572 0.106641
vt 0.515625 0.105772
vt 0.718750 0.261501
vt 0.753697 0.261501
vt 0.753697 0.222874
vt 0.718750 0.222874
vt 0.515625 0.105772
vt 0.550572 0.106641
vt 0.558538 0.104237
vt 0.515625 0.103171
vt 0.718750 0.210938
vt 0.761663 0.210938
vt 0.807138 0.242188
vt 0.798042 0.273438
vt 0.594917 0.107276
vt 0.580199 0.109116
vt 0.783324 0.261501
vt 0.783324 0.222874
vt 0.580199 0.109116
vt 0.594917 0.107276
vt 0.798042 0.210938
vt 0.515625 0.106139
vt 0.515625 0.111208
vt 0.640625 0.111823
vt 0.640625 0.107276
vt 0.619225 0.111823
vt 0.599995 0.112819
vt 0.592879 0.109116
vt 0.592879 0.112819
vt 0.438371 0.112819
vt 0.438371 0.109116
vt 0.599995 0.112819
vt 0.619225 0.111823
vt 0.390625 0.107276
vt 0.390625 0.111823
vt 0.515625 0.117188
vt 0.640625 0.117188
vt 0.627761 0.117188
vt 0.606946 0.117188
vt 0.592879 0.117188
vt 0.438371 0.117188
vt 0.606946 0.117188
vt 0.627761 0.117188
vt 0.390625 0.117188
vt 0.515625 0.123167
vt 0.640625 0.122552
vt 0.619225 0.122552
vt 0.599995 0.121556
vt 0.592879 0.121556
vt 0.438371 0.121556
vt 0.599995 0.121556
vt 0.619225 0.122552
vt 0.390625 0.122552
vt 0.515625 0.128236
vt 0.640625 0.127099
vt 0.594917 0.127099
vt 0.580199 0.125259
vt 0.592879 0.125259
vt 0.438371 0.125259
vt 0.580199 0.125259
vt 0.594917 0.127099
vt 0.390625 0.127099
vt 0.558538 0.130138
vt 0.550572 0.127734
vt 0.550572 0.127734
vt 0.558538 0.130138
vt 0.515625 0.131204
vt 0.515625 0.128603
vt 0.515625 0.128603
vt 0.515625 0.131204
vt 0.670915 0.242188
vt 0.675837 0.273438
vt 0.472712 0.130138
vt 0.480678 0.127734
vt 0.683803 0.261501
vt 0.683803 0.222874
vt 0.480678 0.127734
vt 0.472712 0.130138
vt 0.675837 0.210938
vt 0.630362 0.242188
vt 0.639458 0.273438
vt 0.436333 0.127099
vt 0.451051 0.125259
vt 0.654176 0.261501
vt 0.654176 0.222874
vt 0.451051 0.125259
vt 0.436333 0.127099
vt 0.639458 0.210938
vt 0.412025 0.122552
vt 0.431255 0.121556
vt 0.431255 0.121556
vt 0.412025 0.122552
vt 0.403489 0.117188
vt 0.424304 0.117188
vt 0.424304 0.117188
vt 0.403489 0.117188
vt 0.412025 0.111823
vt 0.431255 0.112819
vt 0.431255 0.112819
vt 0.412025 0.111823
vt 0.436333 0.107276
vt 0.451051 0.109116
vt 0.451051 0.109116
vt 0.436333 0.107276
vt 0.472712 0.104237
vt 0.480678 0.106641
vt 0.480678 0.106641
vt 0.472712 0.104237
vt 0.054688 0.328125
vt 0.087833 0.294979
vt 0.054688 0.281250
vt 0.101562 0.328125
vt 0.087833 0.361271
vt 0.054688 0.375000
vt 0.021542 0.361271
vt 0.007812 0.328125
vt 0.021542 0.294979
vt 0.054688 0.281250
vt 0.087833 0.281250
vt 0.087833 0.375000
vt 0.054688 0.375000
vt 0.007812 0.294979
vt 0.007812 0.328125
vt 0.101562 0.328125
vt 0.101562 0.294979
vt 0.007812 0.361271
vt 0.101562 0.361271
vt 0.021542 0.281250
vt 0.021542 0.375000
vt 0.054688 0.281250
vt 0.087833 0.294979
vt 0.054688 0.328125
vt 0.101562 0.328125
vt 0.087833 0.361271
vt 0.054688 0.375000
vt 0.021542 0.361271
vt 0.007812 0.328125
vt 0.021542 0.294979
vt 0.700000 0.431716
vt 0.060000 0.500000
vt 0.940000 0.811127
vt 0.940000 0.940000
vt 0.940000 0.811127
vt 0.940000 0.500000
vt 0.940000 0.188873
vt 0.940000 0.060000
vt 0.060000 0.060000
vt 0.940000 0.188873
vt 0.060000 0.188873
vt 0.940000 0.500000
vt 0.646667 0.646667
vt 0.060000 0.940000
vt 0.940000 0.060000
vt 0.940000 0.940000
vt 0.646667 0.646667
vt 0.940000 0.060000
vt 0.940000 0.940000
vt 0.060000 0.940000
vn 0.000000 0.000000 -1.000000
vn 0.000000 0.000000 -1.000000
vn 0.000000 0.000000 -1.000000
vn 0.382683 -0.923880 0.000000
vn 0.923880 -0.382683 0.000000
vn 0.923880 0.382683 0.000000
vn 0.382683 0.923880 0.000000
vn -0.382683 0.923880 0.000000
vn -0.923880 0.382683 -0.000000
vn -0.923880 -0.382683 0.000000
vn -0.382683 -0.923880 0.000000
vn 0.000000 0.000000 1.000000
vn 0.000000 0.000000 -1.000000
vn -0.000000 1.000000 0.000000
vn 0.000000 -1.000000 0.000000
vn -1.000000 0.000000 0.000000
vn 1.000000 0.000000 0.000000
vn 0.158879 -0.798741 0.580319
vn -0.061352 0.308435 0.949265
vn -0.195090 0.980785 0.000000
vn -0.061352 0.308435 -0.949265
vn 0.158879 -0.798741 -0.580319
vn 0.452450 -0.677140 0.580319
vn -0.174714 0.261478 0.949265
vn -0.555570 0.831470 0.000000
vn -0.174714 0.261478 -0.949265
vn 0.452450 -0.677140 -0.580319
vn 0.677140 -0.452450 0.580319
vn -0.261478 0.174714 0.949265
vn -0.831470 0.555570 0.000000
vn -0.261478 0.174714 -0.949265
vn 0.677140 -0.452450 -0.580319
vn 0.798741 -0.158879 0.580319
vn -0.308435 0.061352 0.949265
vn -0.980785 0.195090 0.000000
vn -0.308435 0.061352 -0.949265
vn 0.798741 -0.158879 -0.580319
vn 0.798741 0.158879 0.580319
vn -0.308435 -0.061352 0.949265
vn -0.980785 -0.195090 0.000000
vn -0.308435 -0.061352 -0.949265
vn 0.798741 0.158879 -0.580319
vn 0.677140 0.452450 0.580319
vn -0.261478 -0.174714 0.949265
vn -0.831470 -0.555570 0.000000
vn -0.261478 -0.174714 -0.949265
vn 0.677140 0.452450 -0.580319
vn 0.452450 0.677140 0.580319
vn -0.174714 -0.261478 0.949265
vn -0.555570 -0.831470 0.000000
vn -0.174714 -0.261478 -0.949265
vn 0.452450 0.677140 -0.580319
vn 0.158879 0.798741 0.580319
vn -0.061352 -0.308435 0.949265
vn -0.195090 -0.980785 0.000000
vn -0.061352 -0.308435 -0.949265
vn 0.158879 0.798741 -0.580319
vn -0.158879 0.798741 0.580319
vn 0.061352 -0.308435 0.949265
vn 0.195090 -0.980785 0.000000
vn 0.061352 -0.308435 -0.949265
vn -0.158879 0.798741 -0.580319
vn -0.452450 0.677140 0.580319
vn 0.174714 -0.261478 0.949265
vn 0.555570 -0.831470 0.000000
vn 0.174714 -0.261478 -0.949265
vn -0.452450 0.677140 -0.580319
vn -0.677140 0.452450 0.580319
vn 0.261478 -0.174714 0.949265
vn 0.831470 -0.555570 0.000000
vn 0.261478 -0.174714 -0.949265
vn -0.677140 0.452450 -0.580319
vn -0.798741 0.158879 0.580319
vn 0.308435 -0.061352 0.949265
vn 0.980785 -0.195090 0.000000
vn 0.308435 -0.061352 -0.949265
vn -0.798741 0.158879 -0.580319
vn -0.798741 -0.158879 0.580319
vn 0.308435 0.061352 0.949265
vn 0.980785 0.195090 0.000000
vn 0.308435 0.061352 -0.949265
vn -0.798741 -0.158879 -0.580319
vn -0.677140 -0.452450 0.580319
vn 0.261478 0.174714 0.949265
vn 0.831470 0.555570 0.000000
vn 0.261478 0.174714 -0.949265
vn -0.677140 -0.452450 -0.580319
vn -0.452450 -0.677140 0.580319
vn 0.174714 0.261478 0.949265
vn 0.555570 0.831470 0.000000
vn 0.174714 0.261478 -0.949265
vn -0.452450 -0.677140 -0.580319
vn -0.158879 -0.798741 0.580319
vn 0.061352 0.308435 0.949265
vn 0.195090 0.980785 0.000000
vn 0.061352 0.308435 -0.949265
vn -0.158879 -0.798741 -0.580319
vn 0.000000 0.000000 -1.000000
vn 0.382683 -0.923880 0.000000
vn 0.923880 -0.382683 0.000000
vn 0.923880 0.382683 0.000000
vn 0.382683 0.923880 0.000000
vn -0.382683 0.923880 0.000000
vn -0.923880 0.382683 0.000000
vn -0.923880 -0.382683 0.000000
vn -0.382683 -0.923880 0.000000
vn 0.000000 0.000000 1.000000
vn 0.000000 1.000000 0.000000
vn 0.000000 -1.000000 0.000000
vn 0.000000 1.000000 0.000000
vn 0.000000 -1.000000 0.000000
vn 0.000000 1.000000 0.000000
vn 0.000000 -1.000000 0.000000
usemtl skin
f 1/1/1 2/2/1 3/3/1
f 4/4/2 5/5/2 6/6/2
f 7/7/3 8/8/3 9/9/3
f 7/7/3 10/10/3 8/8/3
f 7/7/3 11/11/3 10/10/3
f 7/7/3 12/12/3 11/11/3
f 7/7/3 13/13/3 12/12/3
f 7/7/3 14/14/3 13/13/3
f 7/7/3 15/15/3 14/14/3
f 7/7/3 9/9/3 15/15/3
f 9/16/4 8/17/4 16/18/4
f 8/19/5 10/20/5 17/21/5
f 8/19/5 17/21/5 16/22/5
f 10/20/6 11/23/6 18/24/6
f 10/20/6 18/24/6 17/21/6
f 11/17/7 12/16/7 19/25/7
f 11/17/7 19/25/7 18/18/7
f 12/16/8 13/26/8 20/27/8
f 12/16/8 20/27/8 19/25/8
f 13/28/9 14/29/9 21/29/9
f 13/28/9 21/29/9 20/28/9
f 14/29/10 15/30/10 22/30/10
f 15/26/11 9/16/11 23/25/11
f 24/31/12 25/32/12 26/33/12
f 24/31/12 26/33/12 27/34/12
f 28/35/13 29/36/13 30/37/13
f 28/35/13 30/37/13 31/38/13
f 27/39/14 26/40/14 31/41/14
f 27/39/14 31/41/14 30/42/14
f 29/42/15 28/41/15 25/40/15
f 29/42/15 25/40/15 24/39/15
f 29/43/16 24/44/16 27/45/16
f 29/43/16 27/45/16 30/46/16
f 25/44/17 28/43/17 31/46/17
f 25/44/17 31/46/17 26/45/17
f 32/47/18 33/48/18 34/49/18
f 32/47/18 34/49/18 35/50/18
f 35/51/19 34/52/19 36/53/19
f 35/51/19 36/53/19 37/54/19
f 37/55/20 36/56/20 38/57/20
f 37/55/20 38/57/20 39/58/20
f 39/59/21 38/60/21 40/61/21
f 39/59/21 40/61/21 41/62/21
f 41/63/22 40/64/22 33/48/22
f 41/63/22 33/48/22 32/47/22
f 33/48/23 42/65/23 43/66/23
f 33/48/23 43/66/23 34/49/23
f 34/52/24 43/67/24 44/68/24
f 34/52/24 44/68/24 36/53/24
f 36/56/25 44/69/25 45/70/25
f 36/56/25 45/70/25 38/57/25
f 38/60/26 45/71/26 46/72/26
f 38/60/26 46/72/26 40/61/26
f 40/64/27 46/73/27 42/65/27
f 40/64/27 42/65/27 33/48/27
f 42/74/28 47/75/28 48/76/28
f 42/74/28 48/76/28 43/77/28
f 43/67/29 48/78/29 49/79/29
f 43/67/29 49/79/29 44/68/29
f 44/80/30 49/81/30 50/82/30
f 44/80/30 50/82/30 45/83/30
f 45/71/31 50/84/31 51/85/31
f 45/71/31 51/85/31 46/72/31
f 46/86/32 51/87/32 47/75/32
f 46/86/32 47/75/32 42/74/32
f 47/75/33 52/88/33 53/89/33
f 47/75/33 53/89/33 48/76/33
f 48/78/34 53/90/34 54/91/34
f 48/78/34 54/91/34 49/79/34
f 49/81/35 54/92/35 55/93/35
f 49/81/35 55/93/35 50/82/35
f 50/84/36 55/94/36 56/95/36
f 50/84/36 56/95/36 51/85/36
f 51/87/37 56/96/37 52/88/37
f 51/87/37 52/88/37 47/75/37
f 52/88/38 57/97/38 58/98/38
f 52/88/38 58/98/38 53/89/38
f 53/90/39 58/99/39 59/100/39
f 53/90/39 59/100/39 54/91/39
f 54/92/40 59/101/40 60/102/40
f 54/92/40 60/102/40 55/93/40
f 55/94/41 60/103/41 61/104/41
f 55/94/41 61/104/41 56/95/41
f 56/96/42 61/105/42 57/97/42
f 56/96/42 57/97/42 52/88/42
f 57/97/43 62/106/43 63/107/43
f 57/97/43 63/107/43 58/98/43
f 58/99/44 63/108/44 64/109/44
f 58/99/44 64/109/44 59/100/44
f 59/101/45 64/110/45 65/111/45
f 59/101/45 65/111/45 60/102/45
f 60/103/46 65/112/46 66/113/46
f 60/103/46 66/113/46 61/104/46
f 61/105/47 66/114/47 62/106/47
f 61/105/47 62/106/47 57/97/47
f 62/65/48 67/48/48 68/49/48
f 62/65/48 68/49/48 63/66/48
f 63/108/49 68/115/49 69/116/49
f 63/108/49 69/116/49 64/109/49
f 64/69/50 69/56/50 70/57/50
f 64/69/50 70/57/50 65/70/50
f 65/112/51 70/117/51 71/118/51
f 65/112/51 71/118/51 66/113/51
f 66/73/52 71/64/52 67/48/52
f 66/73/52 67/48/52 62/65/52
f 67/48/53 72/47/53 73/50/53
f 67/48/53 73/50/53 68/49/53
f 68/115/54 73/119/54 74/120/54
f 68/115/54 74/120/54 69/116/54
f 69/56/55 74/55/55 75/58/55
f 69/56/55 75/58/55 70/57/55
f 70/117/56 75/121/56 76/122/56
f 70/117/56 76/122/56 71/118/56
f 71/64/57 76/63/57 72/47/57
f 71/64/57 72/47/57 67/48/57
f 72/47/58 77/123/58 78/124/58
f 72/47/58 78/124/58 73/50/58
f 73/119/59 78/125/59 79/126/59
f 73/119/59 79/126/59 74/120/59
f 74/55/60 79/127/60 80/128/60
f 74/55/60 80/128/60 75/58/60
f 75/121/61 80/129/61 81/130/61
f 75/121/61 81/130/61 76/122/61
f 76/63/62 81/131/62 77/123/62
f 76/63/62 77/123/62 72/47/62
f 77/123/63 82/132/63 83/133/63
f 77/123/63 83/133/63 78/124/63
f 78/125/64 83/134/64 84/135/64
f 78/125/64 84/135/64 79/126/64
f 79/127/65 84/136/65 85/137/65
f 79/127/65 85/137/65 80/128/65
f 80/129/66 85/138/66 86/139/66
f 80/129/66 86/139/66 81/130/66
f 81/131/67 86/140/67 82/132/67
f 81/131/67 82/132/67 77/123/67
f 82/106/68 87/97/68 88/98/68
f 82/106/68 88/98/68 83/107/68
f 83/134/69 88/141/69 89/142/69
f 83/134/69 89/142/69 84/135/69
f 84/110/70 89/101/70 90/102/70
f 84/110/70 90/102/70 85/111/70
f 85/138/71 90/143/71 91/144/71
f 85/138/71 91/144/71 86/139/71
f 86/114/72 91/105/72 87/97/72
f 86/114/72 87/97/72 82/106/72
f 87/97/73 92/88/73 93/89/73
f 87/97/73 93/89/73 88/98/73
f 88/141/74 93/145/74 94/146/74
f 88/141/74 94/146/74 89/142/74
f 89/101/75 94/92/75 95/93/75
f 89/101/75 95/93/75 90/102/75
f 90/143/76 95/147/76 96/148/76
f 90/143/76 96/148/76 91/144/76
f 91/105/77 96/96/77 92/88/77
f 91/105/77 92/88/77 87/97/77
f 92/88/78 97/75/78 98/76/78
f 92/88/78 98/76/78 93/89/78
f 93/145/79 98/149/79 99/150/79
f 93/145/79 99/150/79 94/146/79
f 94/92/80 99/81/80 100/82/80
f 94/92/80 100/82/80 95/93/80
f 95/147/81 100/151/81 101/152/81
f 95/147/81 101/152/81 96/148/81
f 96/96/82 101/87/82 97/75/82
f 96/96/82 97/75/82 92/88/82
f 97/75/83 102/74/83 103/77/83
f 97/75/83 103/77/83 98/76/83
f 98/149/84 103/153/84 104/154/84
f 98/149/84 104/154/84 99/150/84
f 99/81/85 104/80/85 105/83/85
f 99/81/85 105/83/85 100/82/85
f 100/151/86 105/155/86 106/156/86
f 100/151/86 106/156/86 101/152/86
f 101/87/87 106/86/87 102/74/87
f 101/87/87 102/74/87 97/75/87
f 102/132/88 107/123/88 108/124/88
f 102/132/88 108/124/88 103/133/88
f 103/153/89 108/157/89 109/158/89
f 103/153/89 109/158/89 104/154/89
f 104/136/90 109/127/90 110/128/90
f 104/136/90 110/128/90 105/137/90
f 105/155/91 110/159/91 111/160/91
f 105/155/91 111/160/91 106/156/91
f 106/140/92 111/131/92 107/123/92
f 106/140/92 107/123/92 102/132/92
f 107/123/93 32/47/93 35/50/93
f 107/123/93 35/50/93 108/124/93
f 108/157/94 35/51/94 37/54/94
f 108/157/94 37/54/94 109/158/94
f 109/127/95 37/55/95 39/58/95
f 109/127/95 39/58/95 110/128/95
f 110/159/96 39/59/96 41/62/96
f 110/159/96 41/62/96 111/160/96
f 111/131/97 41/63/97 32/47/97
f 111/131/97 32/47/97 107/123/97
f 112/161/98 113/162/98 114/163/98
f 112/161/98 115/164/98 113/162/98
f 112/161/98 116/165/98 115/164/98
f 112/161/98 117/166/98 116/165/98
f 112/161/98 118/167/98 117/166/98
f 112/161/98 119/168/98 118/167/98
f 112/161/98 120/169/98 119/168/98
f 112/161/98 114/163/98 120/169/98
f 114/170/99 113/171/99 121/172/99
f 114/170/99 121/172/99 122/173/99
f 113/174/100 115/175/100 123/176/100
f 113/174/100 123/176/100 121/177/100
f 115/175/101 116/178/101 124/179/101
f 115/175/101 124/179/101 123/176/101
f 116/171/102 117/170/102 125/173/102
f 116/171/102 125/173/102 124/172/102
f 117/170/103 118/180/103 126/181/103
f 117/170/103 126/181/103 125/173/103
f 118/178/104 119/175/104 127/176/104
f 118/178/104 127/176/104 126/179/104
f 119/175/105 120/174/105 128/177/105
f 119/175/105 128/177/105 127/176/105
f 120/180/106 114/170/106 122/173/106
f 120/180/106 122/173/106 128/181/106
f 122/182/107 121/183/107 129/184/107
f 121/183/107 123/185/107 129/184/107
f 123/185/107 124/186/107 129/184/107
f 124/186/107 125/187/107 129/184/107
f 125/187/107 126/188/107 129/184/107
f 126/188/107 127/189/107 129/184/107
f 127/189/107 128/190/107 129/184/107
f 128/190/107 122/182/107 129/184/107
usemtl interior
f 130/191/108 9/192/108 16/193/108
f 130/191/109 16/193/109 9/192/109
f 130/191/108 16/193/108 17/194/108
f 130/191/109 17/194/109 16/193/109
f 130/191/108 17/194/108 18/195/108
f 130/191/109 18/195/109 17/194/109
f 130/191/108 18/195/108 19/196/108
f 130/191/109 19/196/109 18/195/109
f 130/191/108 19/196/108 20/197/108
f 130/191/109 20/197/109 19/196/109
f 130/191/108 20/197/108 21/198/108
f 130/191/109 21/198/109 20/197/109
f 130/191/108 21/198/108 14/199/108
f 130/191/109 14/199/109 21/198/109
f 130/191/108 14/199/108 22/200/108
f 130/191/109 22/200/109 14/199/109
f 130/191/108 22/200/108 15/201/108
f 130/191/109 15/201/109 22/200/109
f 130/191/108 15/201/108 23/202/108
f 130/191/109 23/202/109 15/201/109
f 130/191/108 23/202/108 9/192/108
f 130/191/109 9/192/109 23/202/109
f 131/203/110 1/204/110 2/205/110
f 131/203/111 2/205/111 1/204/111
f 131/203/110 2/205/110 3/206/110
f 131/203/111 3/206/111 2/205/111
f 131/203/110 3/206/110 1/204/110
f 131/203/111 1/204/111 3/206/111
f 132/207/112 4/208/112 6/209/112
f 132/207/113 6/209/113 4/208/113
f 132/207/112 6/209/112 5/210/112
f 132/207/113 5/210/113 6/209/113
f 132/207/112 5/210/112 4/208/112
f 132/207/113 4/208/113 5/210/113
