# Kthaari battleship, from tools/gen_fleet.py
# Generated by tools. Edit the generator script.
v -0.391193 0.707671 2.121468
v 0.391193 0.707671 2.121468
v 0.391193 0.852111 2.121468
v -0.391193 0.852111 2.121468
v 0.488991 0.689616 1.670092
v -0.488991 0.689616 1.670092
v -0.488991 0.870166 1.670092
v 0.488991 0.870166 1.670092
v -0.176037 0.809983 2.080092
v -0.157229 0.809983 2.080092
v -0.176037 0.791175 2.080092
v -0.176037 0.828790 2.080092
v -0.194844 0.809983 2.080092
v -0.176037 0.809983 2.343394
v 0.176037 0.809983 2.080092
v 0.194844 0.809983 2.080092
v 0.176037 0.791175 2.080092
v 0.176037 0.828790 2.080092
v 0.157229 0.809983 2.080092
v 0.176037 0.809983 2.343394
v -0.410752 0.779891 2.083853
v -0.381435 0.762964 2.083853
v -0.410752 0.746038 2.083853
v -0.381435 0.796817 2.083853
v -0.410752 0.813744 2.083853
v -0.440070 0.796817 2.083853
v -0.440070 0.762964 2.083853
v -0.389035 0.767353 2.403578
v -0.410752 0.754814 2.403578
v -0.389035 0.792429 2.403578
v -0.410752 0.804967 2.403578
v -0.432469 0.792429 2.403578
v -0.432469 0.767353 2.403578
v -0.393379 0.769860 2.460000
v -0.410752 0.759830 2.460000
v -0.393379 0.789921 2.460000
v -0.410752 0.799952 2.460000
v -0.428126 0.789921 2.460000
v -0.428126 0.769860 2.460000
v 0.410752 0.779891 2.083853
v 0.440070 0.762964 2.083853
v 0.410752 0.746038 2.083853
v 0.440070 0.796817 2.083853
v 0.410752 0.813744 2.083853
v 0.381435 0.796817 2.083853
v 0.381435 0.762964 2.083853
v 0.432469 0.767353 2.403578
v 0.410752 0.754814 2.403578
v 0.432469 0.792429 2.403578
v 0.410752 0.804967 2.403578
v 0.389035 0.792429 2.403578
v 0.389035 0.767353 2.403578
v 0.428126 0.769860 2.460000
v 0.410752 0.759830 2.460000
v 0.428126 0.789921 2.460000
v 0.410752 0.799952 2.460000
v 0.393379 0.789921 2.460000
v 0.393379 0.769860 2.460000
v -0.112844 0.644478 1.730275
v 0.112844 0.644478 1.730275
v 0.112844 0.840074 1.730275
v -0.112844 0.840074 1.730275
v 0.112844 0.644478 0.105321
v -0.112844 0.644478 0.105321
v -0.112844 0.840074 0.105321
v 0.112844 0.840074 0.105321
v -0.351697 0.544799 0.165505
v 0.351697 0.544799 0.165505
v 0.351697 0.864524 0.165505
v -0.351697 0.864524 0.165505
v 0.413761 0.516588 -1.433119
v -0.413761 0.516588 -1.433119
v -0.413761 0.892735 -1.433119
v 0.413761 0.892735 -1.433119
v -0.124128 0.704662 -1.470734
v -0.070933 0.651466 -1.470734
v -0.124128 0.629432 -1.470734
v -0.048899 0.704662 -1.470734
v -0.070933 0.757857 -1.470734
v -0.124128 0.779891 -1.470734
v -0.177324 0.757857 -1.470734
v -0.199358 0.704662 -1.470734
v -0.177324 0.651466 -1.470734
v -0.070933 0.651466 -1.395505
v -0.124128 0.629432 -1.395505
v -0.048899 0.704662 -1.395505
v -0.070933 0.757857 -1.395505
v -0.124128 0.779891 -1.395505
v -0.177324 0.757857 -1.395505
v -0.199358 0.704662 -1.395505
v -0.177324 0.651466 -1.395505
v -0.124128 0.704662 -1.395505
v 0.124128 0.704662 -1.470734
v 0.177324 0.651466 -1.470734
v 0.124128 0.629432 -1.470734
v 0.199358 0.704662 -1.470734
v 0.177324 0.757857 -1.470734
v 0.124128 0.779891 -1.470734
v 0.070933 0.757857 -1.470734
v 0.048899 0.704662 -1.470734
v 0.070933 0.651466 -1.470734
v 0.177324 0.651466 -1.395505
v 0.124128 0.629432 -1.395505
v 0.199358 0.704662 -1.395505
v 0.177324 0.757857 -1.395505
v 0.124128 0.779891 -1.395505
v 0.070933 0.757857 -1.395505
v 0.048899 0.704662 -1.395505
v 0.070933 0.651466 -1.395505
v 0.124128 0.704662 -1.395505
v 0.000000 0.873426 -0.351697
v 0.053062 0.873426 -0.368938
v 0.049023 0.907973 -0.374498
v 0.000000 0.907973 -0.358569
v 0.085857 0.873426 -0.414076
v 0.079321 0.907973 -0.416199
v 0.085857 0.873426 -0.469869
v 0.079321 0.907973 -0.467746
v 0.053062 0.873426 -0.515007
v 0.049023 0.907973 -0.509447
v 0.000000 0.873426 -0.532248
v 0.000000 0.907973 -0.525376
v -0.053062 0.873426 -0.515007
v -0.049023 0.907973 -0.509447
v -0.085857 0.873426 -0.469869
v -0.079321 0.907973 -0.467746
v -0.085857 0.873426 -0.414076
v -0.079321 0.907973 -0.416199
v -0.053062 0.873426 -0.368938
v -0.049023 0.907973 -0.374498
v 0.037521 0.937260 -0.390330
v 0.000000 0.937260 -0.378138
v 0.060710 0.937260 -0.422247
v 0.060710 0.937260 -0.461698
v 0.037521 0.937260 -0.493615
v 0.000000 0.937260 -0.505807
v -0.037521 0.937260 -0.493615
v -0.060710 0.937260 -0.461698
v -0.060710 0.937260 -0.422247
v -0.037521 0.937260 -0.390330
v 0.020306 0.956829 -0.414024
v 0.000000 0.956829 -0.407426
v 0.032856 0.956829 -0.431297
v 0.032856 0.956829 -0.452648
v 0.020306 0.956829 -0.469921
v 0.000000 0.956829 -0.476519
v -0.020306 0.956829 -0.469921
v -0.032856 0.956829 -0.452648
v -0.032856 0.956829 -0.431297
v -0.020306 0.956829 -0.414024
v 0.000000 0.963701 -0.441972
v -0.210642 0.877689 -0.314083
v 0.210642 0.877689 -0.314083
v 0.210642 1.058239 -0.314083
v -0.210642 1.058239 -0.314083
v 0.263303 0.855120 -1.273257
v -0.263303 0.855120 -1.273257
v -0.263303 1.080808 -1.273257
v 0.263303 1.080808 -1.273257
v -1.305464 0.936147 -1.293945
v -0.331742 0.634939 -0.248257
v -0.228217 0.602915 -0.850092
v -1.332142 0.849903 -1.293945
v -0.254896 0.516672 -0.850092
v -0.358420 0.548696 -0.248257
v -1.215627 0.908357 -1.557248
v -1.242305 0.822114 -1.557248
v 1.305464 0.936147 -1.293945
v 0.228217 0.602915 -0.850092
v 0.331742 0.634939 -0.248257
v 1.332142 0.849903 -1.293945
v 0.358420 0.548696 -0.248257
v 0.254896 0.516672 -0.850092
v 1.215627 0.908357 -1.557248
v 1.242305 0.822114 -1.557248
v -0.667906 0.735646 -0.729515
v -0.552915 0.700075 -0.729515
v -0.545505 0.724031 -0.729515
v -0.660496 0.759602 -0.729515
v -0.552915 0.700075 -0.940157
v -0.667906 0.735646 -0.940157
v -0.660496 0.759602 -0.940157
v -0.545505 0.724031 -0.940157
v -0.899358 0.807242 -0.936674
v -0.784367 0.771672 -0.936674
v -0.776957 0.795628 -0.936674
v -0.891948 0.831199 -0.936674
v -0.784367 0.771672 -1.147316
v -0.899358 0.807242 -1.147316
v -0.891948 0.831199 -1.147316
v -0.776957 0.795628 -1.147316
v -1.130811 0.878839 -1.143833
v -1.015820 0.843268 -1.143833
v -1.008409 0.867225 -1.143833
v -1.123400 0.902795 -1.143833
v -1.015820 0.843268 -1.354475
v -1.130811 0.878839 -1.354475
v -1.123400 0.902795 -1.354475
v -1.008409 0.867225 -1.354475
v 0.552915 0.700075 -0.729515
v 0.667906 0.735646 -0.729515
v 0.660496 0.759602 -0.729515
v 0.545505 0.724031 -0.729515
v 0.667906 0.735646 -0.940157
v 0.552915 0.700075 -0.940157
v 0.545505 0.724031 -0.940157
v 0.660496 0.759602 -0.940157
v 0.784367 0.771672 -0.936674
v 0.899358 0.807242 -0.936674
v 0.891948 0.831199 -0.936674
v 0.776957 0.795628 -0.936674
v 0.899358 0.807242 -1.147316
v 0.784367 0.771672 -1.147316
v 0.776957 0.795628 -1.147316
v 0.891948 0.831199 -1.147316
v 1.015820 0.843268 -1.143833
v 1.130811 0.878839 -1.143833
v 1.123400 0.902795 -1.143833
v 1.008409 0.867225 -1.143833
v 1.130811 0.878839 -1.354475
v 1.015820 0.843268 -1.354475
v 1.008409 0.867225 -1.354475
v 1.123400 0.902795 -1.354475
v -1.379596 0.678395 -1.218716
v -1.162183 0.678395 -1.218716
v -1.162183 0.852325 -1.218716
v -1.379596 0.852325 -1.218716
v -1.178809 0.691695 -2.271927
v -1.362970 0.691695 -2.271927
v -1.362970 0.839024 -2.271927
v -1.178809 0.839024 -2.271927
v -1.302862 0.849767 -1.418826
v -1.238917 0.849767 -1.418826
v -1.238917 0.880461 -1.418826
v -1.302862 0.880461 -1.418826
v -1.238917 0.849767 -2.071817
v -1.302862 0.849767 -2.071817
v -1.302862 0.880461 -2.071817
v -1.238917 0.880461 -2.071817
v -1.341229 0.707809 -2.121919
v -1.200550 0.707809 -2.121919
v -1.200550 0.822910 -2.121919
v -1.341229 0.822910 -2.121919
v -1.200550 0.707809 -2.152613
v -1.341229 0.707809 -2.152613
v -1.341229 0.822910 -2.152613
v -1.200550 0.822910 -2.152613
v 1.162183 0.678395 -1.218716
v 1.379596 0.678395 -1.218716
v 1.379596 0.852325 -1.218716
v 1.162183 0.852325 -1.218716
v 1.362970 0.691695 -2.271927
v 1.178809 0.691695 -2.271927
v 1.178809 0.839024 -2.271927
v 1.362970 0.839024 -2.271927
v 1.238917 0.849767 -1.418826
v 1.302862 0.849767 -1.418826
v 1.302862 0.880461 -1.418826
v 1.238917 0.880461 -1.418826
v 1.302862 0.849767 -2.071817
v 1.238917 0.849767 -2.071817
v 1.238917 0.880461 -2.071817
v 1.302862 0.880461 -2.071817
v 1.200550 0.707809 -2.121919
v 1.341229 0.707809 -2.121919
v 1.341229 0.822910 -2.121919
v 1.200550 0.822910 -2.121919
v 1.341229 0.707809 -2.152613
v 1.200550 0.707809 -2.152613
v 1.200550 0.822910 -2.152613
v 1.341229 0.822910 -2.152613
v -1.270890 0.663048 -1.224985
v -1.210752 0.682588 -1.224985
v -1.218809 0.693677 -1.173829
v -1.270890 0.676755 -1.173829
v -1.173585 0.733744 -1.224985
v -1.186622 0.737979 -1.173829
v -1.173585 0.796976 -1.224985
v -1.186622 0.792740 -1.173829
v -1.210752 0.848132 -1.224985
v -1.218809 0.837042 -1.173829
v -1.270890 0.867672 -1.224985
v -1.270890 0.853964 -1.173829
v -1.331027 0.848132 -1.224985
v -1.322970 0.837042 -1.173829
v -1.368194 0.796976 -1.224985
v -1.355158 0.792740 -1.173829
v -1.368194 0.733744 -1.224985
v -1.355158 0.737979 -1.173829
v -1.331027 0.682588 -1.224985
v -1.322970 0.693677 -1.173829
v -1.240821 0.723974 -1.136380
v -1.270890 0.714204 -1.136380
v -1.222237 0.749552 -1.136380
v -1.222237 0.781168 -1.136380
v -1.240821 0.806746 -1.136380
v -1.270890 0.816516 -1.136380
v -1.300958 0.806746 -1.136380
v -1.319542 0.781168 -1.136380
v -1.319542 0.749552 -1.136380
v -1.300958 0.723974 -1.136380
v -1.270890 0.765360 -1.122673
v -1.270890 0.727745 -1.256330
v -1.237907 0.708703 -1.256330
v -1.270890 0.689660 -1.256330
v -1.237907 0.746787 -1.256330
v -1.270890 0.765830 -1.256330
v -1.303872 0.746787 -1.256330
v -1.303872 0.708703 -1.256330
v -1.246458 0.713640 -0.616881
v -1.270890 0.699534 -0.616881
v -1.246458 0.741851 -0.616881
v -1.270890 0.755956 -0.616881
v -1.295321 0.741851 -0.616881
v -1.295321 0.713640 -0.616881
v -1.251345 0.716461 -0.504037
v -1.270890 0.705176 -0.504037
v -1.251345 0.739029 -0.504037
v -1.270890 0.750314 -0.504037
v -1.290435 0.739029 -0.504037
v -1.290435 0.716461 -0.504037
v 1.270890 0.663048 -1.224985
v 1.331027 0.682588 -1.224985
v 1.322970 0.693677 -1.173829
v 1.270890 0.676755 -1.173829
v 1.368194 0.733744 -1.224985
v 1.355158 0.737979 -1.173829
v 1.368194 0.796976 -1.224985
v 1.355158 0.792740 -1.173829
v 1.331027 0.848132 -1.224985
v 1.322970 0.837042 -1.173829
v 1.270890 0.867672 -1.224985
v 1.270890 0.853964 -1.173829
v 1.210752 0.848132 -1.224985
v 1.218809 0.837042 -1.173829
v 1.173585 0.796976 -1.224985
v 1.186622 0.792740 -1.173829
v 1.173585 0.733744 -1.224985
v 1.186622 0.737979 -1.173829
v 1.210752 0.682588 -1.224985
v 1.218809 0.693677 -1.173829
v 1.300958 0.723974 -1.136380
v 1.270890 0.714204 -1.136380
v 1.319542 0.749552 -1.136380
v 1.319542 0.781168 -1.136380
v 1.300958 0.806746 -1.136380
v 1.270890 0.816516 -1.136380
v 1.240821 0.806746 -1.136380
v 1.222237 0.781168 -1.136380
v 1.222237 0.749552 -1.136380
v 1.240821 0.723974 -1.136380
v 1.270890 0.765360 -1.122673
v 1.270890 0.727745 -1.256330
v 1.303872 0.708703 -1.256330
v 1.270890 0.689660 -1.256330
v 1.303872 0.746787 -1.256330
v 1.270890 0.765830 -1.256330
v 1.237907 0.746787 -1.256330
v 1.237907 0.708703 -1.256330
v 1.295321 0.713640 -0.616881
v 1.270890 0.699534 -0.616881
v 1.295321 0.741851 -0.616881
v 1.270890 0.755956 -0.616881
v 1.246458 0.741851 -0.616881
v 1.246458 0.713640 -0.616881
v 1.290435 0.716461 -0.504037
v 1.270890 0.705176 -0.504037
v 1.290435 0.739029 -0.504037
v 1.270890 0.750314 -0.504037
v 1.251345 0.739029 -0.504037
v 1.251345 0.716461 -0.504037
v -1.332142 0.243456 -1.482018
v -0.358420 0.544664 -0.436330
v -0.254896 0.576688 -1.038165
v -1.305464 0.157213 -1.482018
v -0.228217 0.490444 -1.038165
v -0.331742 0.458421 -0.436330
v -1.242305 0.271246 -1.745321
v -1.215627 0.185003 -1.745321
v 1.332142 0.243456 -1.482018
v 0.254896 0.576688 -1.038165
v 0.358420 0.544664 -0.436330
v 1.305464 0.157213 -1.482018
v 0.331742 0.458421 -0.436330
v 0.228217 0.490444 -1.038165
v 1.242305 0.271246 -1.745321
v 1.215627 0.185003 -1.745321
v -0.692732 0.437968 -0.917588
v -0.577741 0.473539 -0.917588
v -0.585151 0.497495 -0.917588
v -0.700142 0.461924 -0.917588
v -0.577741 0.473539 -1.128230
v -0.692732 0.437968 -1.128230
v -0.700142 0.461924 -1.128230
v -0.585151 0.497495 -1.128230
v -0.924184 0.366371 -1.124747
v -0.809193 0.401942 -1.124747
v -0.816604 0.425899 -1.124747
v -0.931594 0.390328 -1.124747
v -0.809193 0.401942 -1.335390
v -0.924184 0.366371 -1.335390
v -0.931594 0.390328 -1.335390
v -0.816604 0.425899 -1.335390
v -1.155636 0.294775 -1.331907
v -1.040645 0.330346 -1.331907
v -1.048056 0.354302 -1.331907
v -1.163047 0.318731 -1.331907
v -1.040645 0.330346 -1.542549
v -1.155636 0.294775 -1.542549
v -1.163047 0.318731 -1.542549
v -1.048056 0.354302 -1.542549
v 0.577741 0.473539 -0.917588
v 0.692732 0.437968 -0.917588
v 0.700142 0.461924 -0.917588
v 0.585151 0.497495 -0.917588
v 0.692732 0.437968 -1.128230
v 0.577741 0.473539 -1.128230
v 0.585151 0.497495 -1.128230
v 0.700142 0.461924 -1.128230
v 0.809193 0.401942 -1.124747
v 0.924184 0.366371 -1.124747
v 0.931594 0.390328 -1.124747
v 0.816604 0.425899 -1.124747
v 0.924184 0.366371 -1.335390
v 0.809193 0.401942 -1.335390
v 0.816604 0.425899 -1.335390
v 0.931594 0.390328 -1.335390
v 1.040645 0.330346 -1.331907
v 1.155636 0.294775 -1.331907
v 1.163047 0.318731 -1.331907
v 1.048056 0.354302 -1.331907
v 1.155636 0.294775 -1.542549
v 1.040645 0.330346 -1.542549
v 1.048056 0.354302 -1.542549
v 1.163047 0.318731 -1.542549
v -1.379596 0.015347 -1.406789
v -1.162183 0.015347 -1.406789
v -1.162183 0.189277 -1.406789
v -1.379596 0.189277 -1.406789
v -1.178809 0.028647 -2.460000
v -1.362970 0.028647 -2.460000
v -1.362970 0.175977 -2.460000
v -1.178809 0.175977 -2.460000
v -1.302862 0.186719 -1.606899
v -1.238917 0.186719 -1.606899
v -1.238917 0.217413 -1.606899
v -1.302862 0.217413 -1.606899
v -1.238917 0.186719 -2.259890
v -1.302862 0.186719 -2.259890
v -1.302862 0.217413 -2.259890
v -1.238917 0.217413 -2.259890
v -1.341229 0.044761 -2.309993
v -1.200550 0.044761 -2.309993
v -1.200550 0.159862 -2.309993
v -1.341229 0.159862 -2.309993
v -1.200550 0.044761 -2.340686
v -1.341229 0.044761 -2.340686
v -1.341229 0.159862 -2.340686
v -1.200550 0.159862 -2.340686
v 1.162183 0.015347 -1.406789
v 1.379596 0.015347 -1.406789
v 1.379596 0.189277 -1.406789
v 1.162183 0.189277 -1.406789
v 1.362970 0.028647 -2.460000
v 1.178809 0.028647 -2.460000
v 1.178809 0.175977 -2.460000
v 1.362970 0.175977 -2.460000
v 1.238917 0.186719 -1.606899
v 1.302862 0.186719 -1.606899
v 1.302862 0.217413 -1.606899
v 1.238917 0.217413 -1.606899
v 1.302862 0.186719 -2.259890
v 1.238917 0.186719 -2.259890
v 1.238917 0.217413 -2.259890
v 1.302862 0.217413 -2.259890
v 1.200550 0.044761 -2.309993
v 1.341229 0.044761 -2.309993
v 1.341229 0.159862 -2.309993
v 1.200550 0.159862 -2.309993
v 1.341229 0.044761 -2.340686
v 1.200550 0.044761 -2.340686
v 1.200550 0.159862 -2.340686
v 1.341229 0.159862 -2.340686
v -1.270890 0.000000 -1.413058
v -1.210752 0.019540 -1.413058
v -1.218809 0.030629 -1.361902
v -1.270890 0.013707 -1.361902
v -1.173585 0.070696 -1.413058
v -1.186622 0.074932 -1.361902
v -1.173585 0.133928 -1.413058
v -1.186622 0.129692 -1.361902
v -1.210752 0.185084 -1.413058
v -1.218809 0.173995 -1.361902
v -1.270890 0.204624 -1.413058
v -1.270890 0.190917 -1.361902
v -1.331027 0.185084 -1.413058
v -1.322970 0.173995 -1.361902
v -1.368194 0.133928 -1.413058
v -1.355158 0.129692 -1.361902
v -1.368194 0.070696 -1.413058
v -1.355158 0.074932 -1.361902
v -1.331027 0.019540 -1.413058
v -1.322970 0.030629 -1.361902
v -1.240821 0.060926 -1.324453
v -1.270890 0.051156 -1.324453
v -1.222237 0.086504 -1.324453
v -1.222237 0.118120 -1.324453
v -1.240821 0.143698 -1.324453
v -1.270890 0.153468 -1.324453
v -1.300958 0.143698 -1.324453
v -1.319542 0.118120 -1.324453
v -1.319542 0.086504 -1.324453
v -1.300958 0.060926 -1.324453
v -1.270890 0.102312 -1.310746
v -1.270890 0.064697 -1.444404
v -1.237907 0.045655 -1.444404
v -1.270890 0.026612 -1.444404
v -1.237907 0.083740 -1.444404
v -1.270890 0.102782 -1.444404
v -1.303872 0.083740 -1.444404
v -1.303872 0.045655 -1.444404
v -1.246458 0.050592 -0.804954
v -1.270890 0.036486 -0.804954
v -1.246458 0.078803 -0.804954
v -1.270890 0.092908 -0.804954
v -1.295321 0.078803 -0.804954
v -1.295321 0.050592 -0.804954
v -1.251345 0.053413 -0.692110
v -1.270890 0.042128 -0.692110
v -1.251345 0.075982 -0.692110
v -1.270890 0.087266 -0.692110
v -1.290435 0.075982 -0.692110
v -1.290435 0.053413 -0.692110
v 1.270890 0.000000 -1.413058
v 1.331027 0.019540 -1.413058
v 1.322970 0.030629 -1.361902
v 1.270890 0.013707 -1.361902
v 1.368194 0.070696 -1.413058
v 1.355158 0.074932 -1.361902
v 1.368194 0.133928 -1.413058
v 1.355158 0.129692 -1.361902
v 1.331027 0.185084 -1.413058
v 1.322970 0.173995 -1.361902
v 1.270890 0.204624 -1.413058
v 1.270890 0.190917 -1.361902
v 1.210752 0.185084 -1.413058
v 1.218809 0.173995 -1.361902
v 1.173585 0.133928 -1.413058
v 1.186622 0.129692 -1.361902
v 1.173585 0.070696 -1.413058
v 1.186622 0.074932 -1.361902
v 1.210752 0.019540 -1.413058
v 1.218809 0.030629 -1.361902
v 1.300958 0.060926 -1.324453
v 1.270890 0.051156 -1.324453
v 1.319542 0.086504 -1.324453
v 1.319542 0.118120 -1.324453
v 1.300958 0.143698 -1.324453
v 1.270890 0.153468 -1.324453
v 1.240821 0.143698 -1.324453
v 1.222237 0.118120 -1.324453
v 1.222237 0.086504 -1.324453
v 1.240821 0.060926 -1.324453
v 1.270890 0.102312 -1.310746
v 1.270890 0.064697 -1.444404
v 1.303872 0.045655 -1.444404
v 1.270890 0.026612 -1.444404
v 1.303872 0.083740 -1.444404
v 1.270890 0.102782 -1.444404
v 1.237907 0.083740 -1.444404
v 1.237907 0.045655 -1.444404
v 1.295321 0.050592 -0.804954
v 1.270890 0.036486 -0.804954
v 1.295321 0.078803 -0.804954
v 1.270890 0.092908 -0.804954
v 1.246458 0.078803 -0.804954
v 1.246458 0.050592 -0.804954
v 1.290435 0.053413 -0.692110
v 1.270890 0.042128 -0.692110
v 1.290435 0.075982 -0.692110
v 1.270890 0.087266 -0.692110
v 1.251345 0.075982 -0.692110
v 1.251345 0.053413 -0.692110
vt 0.478125 0.392188
vt 0.553125 0.392188
vt 0.553125 0.467187
vt 0.478125 0.467187
vt 0.195312 0.382812
vt 0.007812 0.382812
vt 0.007812 0.476562
vt 0.195312 0.476562
vt 0.025000 0.656250
vt 0.162500 0.656250
vt 0.179688 0.484375
vt 0.007812 0.484375
vt 0.007812 0.382812
vt 0.195312 0.392188
vt 0.195312 0.467187
vt 0.007812 0.476562
vt 0.718750 0.429688
vt 0.765625 0.429688
vt 0.718750 0.382812
vt 0.718750 0.476562
vt 0.671875 0.429688
vt 0.617188 0.382812
vt 0.664062 0.382812
vt 0.617188 0.476562
vt 0.570312 0.382812
vt 0.718750 0.429688
vt 0.765625 0.429688
vt 0.718750 0.382812
vt 0.718750 0.476562
vt 0.671875 0.429688
vt 0.617188 0.382812
vt 0.664062 0.382812
vt 0.617188 0.476562
vt 0.570312 0.382812
vt 0.718750 0.429687
vt 0.765625 0.406250
vt 0.718750 0.382812
vt 0.765625 0.453125
vt 0.718750 0.476562
vt 0.671875 0.453125
vt 0.671875 0.406250
vt 0.617188 0.382812
vt 0.664062 0.382812
vt 0.651910 0.462500
vt 0.617188 0.462500
vt 0.671875 0.406250
vt 0.671875 0.453125
vt 0.751563 0.447049
vt 0.751563 0.412326
vt 0.570312 0.382812
vt 0.582465 0.462500
vt 0.644965 0.476562
vt 0.617188 0.476562
vt 0.765625 0.443576
vt 0.765625 0.415799
vt 0.589410 0.476562
vt 0.718750 0.429687
vt 0.765625 0.406250
vt 0.718750 0.382812
vt 0.765625 0.453125
vt 0.718750 0.476562
vt 0.671875 0.453125
vt 0.671875 0.406250
vt 0.617188 0.382812
vt 0.664062 0.382812
vt 0.651910 0.462500
vt 0.617188 0.462500
vt 0.671875 0.406250
vt 0.671875 0.453125
vt 0.751563 0.447049
vt 0.751563 0.412326
vt 0.570312 0.382812
vt 0.582465 0.462500
vt 0.644965 0.476562
vt 0.617188 0.476562
vt 0.765625 0.443576
vt 0.765625 0.415799
vt 0.589410 0.476562
vt 0.187500 0.484375
vt 0.312500 0.484375
vt 0.312500 0.656250
vt 0.187500 0.656250
vt 0.312500 0.484375
vt 0.187500 0.484375
vt 0.187500 0.656250
vt 0.312500 0.656250
vt 0.320312 0.656250
vt 0.382812 0.656250
vt 0.382812 0.484375
vt 0.320312 0.484375
vt 0.187500 0.484375
vt 0.312500 0.484375
vt 0.312500 0.656250
vt 0.187500 0.656250
vt 0.212500 0.389844
vt 0.318750 0.389844
vt 0.318750 0.469531
vt 0.212500 0.469531
vt 0.460938 0.382812
vt 0.335938 0.382812
vt 0.335938 0.476562
vt 0.460938 0.476562
vt 0.358984 0.992188
vt 0.531641 0.992188
vt 0.546875 0.664062
vt 0.343750 0.664062
vt 0.109375 0.296875
vt 0.484375 0.302734
vt 0.484375 0.369141
vt 0.109375 0.375000
vt 0.054688 0.328125
vt 0.087833 0.294979
vt 0.054688 0.281250
vt 0.101562 0.328125
vt 0.087833 0.361271
vt 0.054688 0.375000
vt 0.021542 0.361271
vt 0.007812 0.328125
vt 0.021542 0.294979
vt 0.054688 0.281250
vt 0.087833 0.281250
vt 0.087833 0.375000
vt 0.054688 0.375000
vt 0.007812 0.294979
vt 0.007812 0.328125
vt 0.101562 0.328125
vt 0.101562 0.294979
vt 0.007812 0.361271
vt 0.101562 0.361271
vt 0.021542 0.281250
vt 0.021542 0.375000
vt 0.054688 0.281250
vt 0.087833 0.294979
vt 0.054688 0.328125
vt 0.101562 0.328125
vt 0.087833 0.361271
vt 0.054688 0.375000
vt 0.021542 0.361271
vt 0.007812 0.328125
vt 0.021542 0.294979
vt 0.054688 0.328125
vt 0.087833 0.294979
vt 0.054688 0.281250
vt 0.101562 0.328125
vt 0.087833 0.361271
vt 0.054688 0.375000
vt 0.021542 0.361271
vt 0.007812 0.328125
vt 0.021542 0.294979
vt 0.054688 0.281250
vt 0.087833 0.281250
vt 0.087833 0.375000
vt 0.054688 0.375000
vt 0.007812 0.294979
vt 0.007812 0.328125
vt 0.101562 0.328125
vt 0.101562 0.294979
vt 0.007812 0.361271
vt 0.101562 0.361271
vt 0.021542 0.281250
vt 0.021542 0.375000
vt 0.054688 0.281250
vt 0.087833 0.294979
vt 0.054688 0.328125
vt 0.101562 0.328125
vt 0.087833 0.361271
vt 0.054688 0.375000
vt 0.021542 0.361271
vt 0.007812 0.328125
vt 0.021542 0.294979
vt 0.718750 0.382812
vt 0.747720 0.382812
vt 0.745515 0.418689
vt 0.718750 0.418689
vt 0.756673 0.382812
vt 0.733235 0.382812
vt 0.732133 0.418689
vt 0.753786 0.418689
vt 0.704265 0.382812
vt 0.705367 0.418689
vt 0.680827 0.382812
vt 0.683714 0.418689
vt 0.747720 0.382812
vt 0.718750 0.382812
vt 0.718750 0.418689
vt 0.745515 0.418689
vt 0.689780 0.382812
vt 0.691985 0.418689
vt 0.689780 0.382812
vt 0.691985 0.418689
vt 0.739235 0.449104
vt 0.718750 0.449104
vt 0.728993 0.449104
vt 0.745565 0.449104
vt 0.708507 0.449104
vt 0.691935 0.449104
vt 0.718750 0.449104
vt 0.739235 0.449104
vt 0.698265 0.449104
vt 0.698265 0.449104
vt 0.617188 0.462833
vt 0.637673 0.456503
vt 0.628274 0.444200
vt 0.617188 0.447626
vt 0.650333 0.439930
vt 0.635126 0.435231
vt 0.650333 0.419445
vt 0.635126 0.424144
vt 0.637673 0.402872
vt 0.628274 0.415175
vt 0.617188 0.396542
vt 0.617188 0.411749
vt 0.596702 0.402872
vt 0.606101 0.415175
vt 0.584042 0.419445
vt 0.599249 0.424144
vt 0.584042 0.439930
vt 0.599249 0.435231
vt 0.596702 0.456503
vt 0.606101 0.444200
vt 0.617188 0.429688
vt 0.215625 0.392188
vt 0.315625 0.392188
vt 0.315625 0.467187
vt 0.215625 0.467187
vt 0.460938 0.382812
vt 0.335938 0.382812
vt 0.335938 0.476562
vt 0.460938 0.476562
vt 0.364063 0.992188
vt 0.526563 0.992188
vt 0.546875 0.664062
vt 0.343750 0.664062
vt 0.109375 0.296875
vt 0.484375 0.304688
vt 0.484375 0.367188
vt 0.109375 0.375000
vt 0.641120 0.817439
vt 0.944326 0.992188
vt 0.976562 0.891613
vt 0.632812 0.817439
vt 0.968255 0.891613
vt 0.936019 0.992188
vt 0.669094 0.773438
vt 0.660787 0.773438
vt 0.382812 0.110373
vt 0.210399 0.101562
vt 0.210399 0.107987
vt 0.382812 0.103948
vt 0.382812 0.107987
vt 0.038330 0.124317
vt 0.047392 0.130742
vt 0.373750 0.101562
vt 0.007812 0.130742
vt 0.083244 0.126388
vt 0.083244 0.132812
vt 0.007812 0.124317
vt 0.016875 0.132812
vt 0.338583 0.103948
vt 0.347646 0.110373
vt 0.007812 0.126388
vt 0.968255 0.817439
vt 0.632812 0.891613
vt 0.665049 0.992188
vt 0.976562 0.817439
vt 0.673356 0.992188
vt 0.641120 0.891613
vt 0.940281 0.773438
vt 0.948588 0.773438
vt 0.382812 0.110373
vt 0.210399 0.107987
vt 0.210399 0.101562
vt 0.382812 0.103948
vt 0.007812 0.107987
vt 0.343233 0.130742
vt 0.352295 0.124317
vt 0.016875 0.101562
vt 0.007812 0.130742
vt 0.083244 0.132812
vt 0.083244 0.126388
vt 0.007812 0.124317
vt 0.373750 0.132812
vt 0.042979 0.110373
vt 0.052042 0.103948
vt 0.382812 0.126388
vt 0.746020 0.399263
vt 0.764438 0.382812
vt 0.765625 0.393891
vt 0.747207 0.410341
vt 0.764438 0.382812
vt 0.746020 0.399263
vt 0.747207 0.410341
vt 0.765625 0.393891
vt 0.645644 0.476562
vt 0.664062 0.476562
vt 0.664062 0.444964
vt 0.645644 0.444964
vt 0.644457 0.444964
vt 0.662876 0.444964
vt 0.662876 0.476562
vt 0.644457 0.476562
vt 0.734027 0.399263
vt 0.765625 0.399263
vt 0.765625 0.410341
vt 0.734027 0.410341
vt 0.765625 0.382812
vt 0.734027 0.382812
vt 0.734027 0.393891
vt 0.765625 0.393891
vt 0.708947 0.432373
vt 0.727366 0.415923
vt 0.728553 0.427002
vt 0.710134 0.443452
vt 0.727366 0.415923
vt 0.708947 0.432373
vt 0.710134 0.443452
vt 0.728553 0.427002
vt 0.608572 0.445487
vt 0.626990 0.445487
vt 0.626990 0.413888
vt 0.608572 0.413888
vt 0.607385 0.413888
vt 0.625803 0.413888
vt 0.625803 0.445487
vt 0.607385 0.445487
vt 0.702951 0.432373
vt 0.734549 0.432373
vt 0.734549 0.443452
vt 0.702951 0.443452
vt 0.734549 0.415923
vt 0.702951 0.415923
vt 0.702951 0.427002
vt 0.734549 0.427002
vt 0.671875 0.465484
vt 0.690293 0.449034
vt 0.691480 0.460112
vt 0.673062 0.476562
vt 0.690293 0.449034
vt 0.671875 0.465484
vt 0.673062 0.476562
vt 0.691480 0.460112
vt 0.571499 0.414411
vt 0.589918 0.414411
vt 0.589918 0.382812
vt 0.571499 0.382812
vt 0.570312 0.382812
vt 0.588731 0.382812
vt 0.588731 0.414411
vt 0.570312 0.414411
vt 0.671875 0.465484
vt 0.703473 0.465484
vt 0.703473 0.476562
vt 0.671875 0.476562
vt 0.703473 0.449034
vt 0.671875 0.449034
vt 0.671875 0.460112
vt 0.703473 0.460112
vt 0.673062 0.382812
vt 0.691480 0.399263
vt 0.690293 0.410341
vt 0.671875 0.393891
vt 0.691480 0.399263
vt 0.673062 0.382812
vt 0.671875 0.393891
vt 0.690293 0.410341
vt 0.570312 0.476562
vt 0.588731 0.476562
vt 0.588731 0.444964
vt 0.570312 0.444964
vt 0.571499 0.444964
vt 0.589918 0.444964
vt 0.589918 0.476562
vt 0.571499 0.476562
vt 0.734027 0.382812
vt 0.765625 0.382812
vt 0.765625 0.393891
vt 0.734027 0.393891
vt 0.765625 0.399263
vt 0.734027 0.399263
vt 0.734027 0.410341
vt 0.765625 0.410341
vt 0.710134 0.415923
vt 0.728553 0.432373
vt 0.727366 0.443452
vt 0.708947 0.427002
vt 0.728553 0.432373
vt 0.710134 0.415923
vt 0.708947 0.427002
vt 0.727366 0.443452
vt 0.607385 0.445487
vt 0.625803 0.445487
vt 0.625803 0.413888
vt 0.607385 0.413888
vt 0.608572 0.413888
vt 0.626990 0.413888
vt 0.626990 0.445487
vt 0.608572 0.445487
vt 0.702951 0.415923
vt 0.734549 0.415923
vt 0.734549 0.427002
vt 0.702951 0.427002
vt 0.734549 0.432373
vt 0.702951 0.432373
vt 0.702951 0.443452
vt 0.734549 0.443452
vt 0.747207 0.449034
vt 0.765625 0.465484
vt 0.764438 0.476562
vt 0.746020 0.460112
vt 0.765625 0.465484
vt 0.747207 0.449034
vt 0.746020 0.460112
vt 0.764438 0.476562
vt 0.644457 0.414411
vt 0.662876 0.414411
vt 0.662876 0.382812
vt 0.644457 0.382812
vt 0.645644 0.382812
vt 0.664062 0.382812
vt 0.664062 0.414411
vt 0.645644 0.414411
vt 0.671875 0.449034
vt 0.703473 0.449034
vt 0.703473 0.460112
vt 0.671875 0.460112
vt 0.703473 0.465484
vt 0.671875 0.465484
vt 0.671875 0.476562
vt 0.703473 0.476562
vt 0.390625 0.195312
vt 0.484375 0.195312
vt 0.484375 0.262559
vt 0.390625 0.262559
vt 0.578768 0.200455
vt 0.499357 0.200455
vt 0.499357 0.257417
vt 0.578768 0.257417
vt 0.554688 0.992188
vt 0.625000 0.992188
vt 0.619623 0.664062
vt 0.560064 0.664062
vt 0.492188 0.302017
vt 0.867188 0.296875
vt 0.867188 0.364122
vt 0.492188 0.358979
vt 0.382812 0.195312
vt 0.354136 0.200455
vt 0.354136 0.257417
vt 0.382812 0.262559
vt 0.423713 0.261570
vt 0.451287 0.261570
vt 0.451287 0.273438
vt 0.423713 0.273438
vt 0.552849 0.261570
vt 0.525276 0.261570
vt 0.525276 0.273438
vt 0.552849 0.273438
vt 0.579504 0.929844
vt 0.600184 0.929844
vt 0.600184 0.726406
vt 0.579504 0.726406
vt 0.563438 0.363133
vt 0.795937 0.363133
vt 0.795937 0.375000
vt 0.563438 0.375000
vt 0.250460 0.261570
vt 0.250460 0.273438
vt 0.407169 0.206685
vt 0.467831 0.206685
vt 0.467831 0.251187
vt 0.407169 0.251187
vt 0.569393 0.206685
vt 0.508732 0.206685
vt 0.508732 0.251187
vt 0.569393 0.251187
vt 0.567096 0.710797
vt 0.612592 0.710797
vt 0.612592 0.701234
vt 0.567096 0.701234
vt 0.534670 0.308248
vt 0.545598 0.308248
vt 0.545598 0.352749
vt 0.534670 0.352749
vt 0.316636 0.206685
vt 0.316636 0.251187
vt 0.390625 0.195312
vt 0.484375 0.195312
vt 0.484375 0.262559
vt 0.390625 0.262559
vt 0.578768 0.200455
vt 0.499357 0.200455
vt 0.499357 0.257417
vt 0.578768 0.257417
vt 0.554688 0.992188
vt 0.625000 0.992188
vt 0.619623 0.664062
vt 0.560064 0.664062
vt 0.036489 0.200455
vt 0.007812 0.195312
vt 0.007812 0.262559
vt 0.036489 0.257417
vt 0.867188 0.296875
vt 0.492188 0.302017
vt 0.492188 0.358979
vt 0.867188 0.364122
vt 0.423713 0.261570
vt 0.451287 0.261570
vt 0.451287 0.273438
vt 0.423713 0.273438
vt 0.552849 0.261570
vt 0.525276 0.261570
vt 0.525276 0.273438
vt 0.552849 0.273438
vt 0.579504 0.929844
vt 0.600184 0.929844
vt 0.600184 0.726406
vt 0.579504 0.726406
vt 0.140165 0.261570
vt 0.140165 0.273438
vt 0.795937 0.363133
vt 0.563438 0.363133
vt 0.563438 0.375000
vt 0.795937 0.375000
vt 0.407169 0.206685
vt 0.467831 0.206685
vt 0.467831 0.251187
vt 0.407169 0.251187
vt 0.569393 0.206685
vt 0.508732 0.206685
vt 0.508732 0.251187
vt 0.569393 0.251187
vt 0.567096 0.710797
vt 0.612592 0.710797
vt 0.612592 0.701234
vt 0.567096 0.701234
vt 0.073989 0.206685
vt 0.073989 0.251187
vt 0.545598 0.308248
vt 0.534670 0.308248
vt 0.534670 0.352749
vt 0.545598 0.352749
vt 0.054687 0.281250
vt 0.083658 0.281250
vt 0.079777 0.328125
vt 0.054687 0.328125
vt 0.007812 0.290202
vt 0.007812 0.313640
vt 0.054688 0.315580
vt 0.054688 0.295283
vt 0.007812 0.342610
vt 0.054688 0.340670
vt 0.007812 0.366048
vt 0.054688 0.360967
vt 0.025717 0.281250
vt 0.029598 0.328125
vt 0.069173 0.362440
vt 0.054687 0.362440
vt 0.079777 0.295283
vt 0.095282 0.315580
vt 0.078125 0.320882
vt 0.069173 0.309164
vt 0.089002 0.335368
vt 0.089002 0.320882
vt 0.095282 0.340670
vt 0.079777 0.360967
vt 0.069173 0.347086
vt 0.078125 0.335368
vt 0.040202 0.362440
vt 0.029598 0.360967
vt 0.014093 0.340670
vt 0.031250 0.335368
vt 0.040202 0.347086
vt 0.014093 0.315580
vt 0.029598 0.295283
vt 0.040202 0.309164
vt 0.031250 0.320882
vt 0.054687 0.304688
vt 0.054687 0.328125
vt 0.054687 0.351562
vt 0.718750 0.429687
vt 0.765625 0.406250
vt 0.718750 0.382812
vt 0.765625 0.453125
vt 0.718750 0.476562
vt 0.671875 0.453125
vt 0.671875 0.406250
vt 0.617187 0.382812
vt 0.664062 0.382812
vt 0.651910 0.462500
vt 0.617187 0.462500
vt 0.671875 0.406250
vt 0.671875 0.453125
vt 0.751563 0.447049
vt 0.751563 0.412326
vt 0.570312 0.382812
vt 0.582465 0.462500
vt 0.644965 0.476562
vt 0.617187 0.476562
vt 0.765625 0.443576
vt 0.765625 0.415799
vt 0.589410 0.476562
vt 0.054688 0.281250
vt 0.083658 0.281250
vt 0.079777 0.328125
vt 0.054688 0.328125
vt 0.007812 0.290202
vt 0.007812 0.313640
vt 0.054688 0.315580
vt 0.054688 0.295283
vt 0.007812 0.342610
vt 0.054688 0.340670
vt 0.007812 0.366048
vt 0.054688 0.360967
vt 0.025717 0.281250
vt 0.029598 0.328125
vt 0.069173 0.362440
vt 0.054688 0.362440
vt 0.079777 0.295283
vt 0.095282 0.315580
vt 0.078125 0.320882
vt 0.069173 0.309164
vt 0.089002 0.335368
vt 0.089002 0.320882
vt 0.095282 0.340670
vt 0.079777 0.360967
vt 0.069173 0.347086
vt 0.078125 0.335368
vt 0.040202 0.362440
vt 0.029598 0.360967
vt 0.014093 0.340670
vt 0.031250 0.335368
vt 0.040202 0.347086
vt 0.014093 0.315580
vt 0.029598 0.295283
vt 0.040202 0.309164
vt 0.031250 0.320882
vt 0.054688 0.304688
vt 0.054688 0.328125
vt 0.054688 0.351562
vt 0.718750 0.429687
vt 0.765625 0.406250
vt 0.718750 0.382812
vt 0.765625 0.453125
vt 0.718750 0.476562
vt 0.671875 0.453125
vt 0.671875 0.406250
vt 0.617188 0.382812
vt 0.664062 0.382812
vt 0.651910 0.462500
vt 0.617188 0.462500
vt 0.671875 0.406250
vt 0.671875 0.453125
vt 0.751563 0.447049
vt 0.751563 0.412326
vt 0.570312 0.382812
vt 0.582465 0.462500
vt 0.644965 0.476562
vt 0.617188 0.476562
vt 0.765625 0.443576
vt 0.765625 0.415799
vt 0.589410 0.476562
vt 0.632812 0.817439
vt 0.936019 0.992188
vt 0.968255 0.891613
vt 0.641120 0.817439
vt 0.976562 0.891613
vt 0.944326 0.992188
vt 0.660787 0.773438
vt 0.669094 0.773438
vt 0.382812 0.130427
vt 0.210399 0.126388
vt 0.210399 0.132812
vt 0.382812 0.124002
vt 0.373750 0.132812
vt 0.047392 0.103633
vt 0.038330 0.110058
vt 0.382812 0.126388
vt 0.007812 0.110058
vt 0.083244 0.101562
vt 0.083244 0.107987
vt 0.007812 0.103633
vt 0.007812 0.107987
vt 0.347646 0.124002
vt 0.338583 0.130427
vt 0.016875 0.101562
vt 0.976562 0.817439
vt 0.641120 0.891613
vt 0.673356 0.992188
vt 0.968255 0.817439
vt 0.665049 0.992188
vt 0.632812 0.891613
vt 0.948588 0.773438
vt 0.940281 0.773438
vt 0.382812 0.130427
vt 0.210399 0.132812
vt 0.210399 0.126388
vt 0.382812 0.124002
vt 0.016875 0.132812
vt 0.352295 0.110058
vt 0.343233 0.103633
vt 0.007812 0.126388
vt 0.007812 0.110058
vt 0.083244 0.107987
vt 0.083244 0.101562
vt 0.007812 0.103633
vt 0.382812 0.107987
vt 0.052042 0.130427
vt 0.042979 0.124002
vt 0.373750 0.101562
vt 0.747207 0.449034
vt 0.765625 0.465484
vt 0.764438 0.476562
vt 0.746020 0.460112
vt 0.765625 0.465484
vt 0.747207 0.449034
vt 0.746020 0.460112
vt 0.764438 0.476562
vt 0.644457 0.476562
vt 0.662876 0.476562
vt 0.662876 0.444964
vt 0.644457 0.444964
vt 0.645644 0.444964
vt 0.664062 0.444964
vt 0.664062 0.476562
vt 0.645644 0.476562
vt 0.734027 0.449034
vt 0.765625 0.449034
vt 0.765625 0.460112
vt 0.734027 0.460112
vt 0.765625 0.465484
vt 0.734027 0.465484
vt 0.734027 0.476562
vt 0.765625 0.476562
vt 0.710134 0.415923
vt 0.728553 0.432373
vt 0.727366 0.443452
vt 0.708947 0.427002
vt 0.728553 0.432373
vt 0.710134 0.415923
vt 0.708947 0.427002
vt 0.727366 0.443452
vt 0.607385 0.445487
vt 0.625803 0.445487
vt 0.625803 0.413888
vt 0.607385 0.413888
vt 0.608572 0.413888
vt 0.626990 0.413888
vt 0.626990 0.445487
vt 0.608572 0.445487
vt 0.702951 0.415923
vt 0.734549 0.415923
vt 0.734549 0.427002
vt 0.702951 0.427002
vt 0.734549 0.432373
vt 0.702951 0.432373
vt 0.702951 0.443452
vt 0.734549 0.443452
vt 0.673062 0.382812
vt 0.691480 0.399263
vt 0.690293 0.410341
vt 0.671875 0.393891
vt 0.691480 0.399263
vt 0.673062 0.382812
vt 0.671875 0.393891
vt 0.690293 0.410341
vt 0.570312 0.414411
vt 0.588731 0.414411
vt 0.588731 0.382812
vt 0.570312 0.382812
vt 0.571499 0.382812
vt 0.589918 0.382812
vt 0.589918 0.414411
vt 0.571499 0.414411
vt 0.671875 0.382812
vt 0.703473 0.382812
vt 0.703473 0.393891
vt 0.671875 0.393891
vt 0.703473 0.399263
vt 0.671875 0.399263
vt 0.671875 0.410341
vt 0.703473 0.410341
vt 0.671875 0.465484
vt 0.690293 0.449034
vt 0.691480 0.460112
vt 0.673062 0.476562
vt 0.690293 0.449034
vt 0.671875 0.465484
vt 0.673062 0.476562
vt 0.691480 0.460112
vt 0.571499 0.476562
vt 0.589918 0.476562
vt 0.589918 0.444964
vt 0.571499 0.444964
vt 0.570312 0.444964
vt 0.588731 0.444964
vt 0.588731 0.476562
vt 0.570312 0.476562
vt 0.734027 0.465484
vt 0.765625 0.465484
vt 0.765625 0.476562
vt 0.734027 0.476562
vt 0.765625 0.449034
vt 0.734027 0.449034
vt 0.734027 0.460112
vt 0.765625 0.460112
vt 0.708947 0.432373
vt 0.727366 0.415923
vt 0.728553 0.427002
vt 0.710134 0.443452
vt 0.727366 0.415923
vt 0.708947 0.432373
vt 0.710134 0.443452
vt 0.728553 0.427002
vt 0.608572 0.445487
vt 0.626990 0.445487
vt 0.626990 0.413888
vt 0.608572 0.413888
vt 0.607385 0.413888
vt 0.625803 0.413888
vt 0.625803 0.445487
vt 0.607385 0.445487
vt 0.702951 0.432373
vt 0.734549 0.432373
vt 0.734549 0.443452
vt 0.702951 0.443452
vt 0.734549 0.415923
vt 0.702951 0.415923
vt 0.702951 0.427002
vt 0.734549 0.427002
vt 0.746020 0.399263
vt 0.764438 0.382812
vt 0.765625 0.393891
vt 0.747207 0.410341
vt 0.764438 0.382812
vt 0.746020 0.399263
vt 0.747207 0.410341
vt 0.765625 0.393891
vt 0.645644 0.414411
vt 0.664062 0.414411
vt 0.664062 0.382812
vt 0.645644 0.382812
vt 0.644457 0.382812
vt 0.662876 0.382812
vt 0.662876 0.414411
vt 0.644457 0.414411
vt 0.671875 0.399263
vt 0.703473 0.399263
vt 0.703473 0.410341
vt 0.671875 0.410341
vt 0.703473 0.382812
vt 0.671875 0.382812
vt 0.671875 0.393891
vt 0.703473 0.393891
vt 0.390625 0.195312
vt 0.484375 0.195312
vt 0.484375 0.262559
vt 0.390625 0.262559
vt 0.578768 0.200455
vt 0.499357 0.200455
vt 0.499357 0.257417
vt 0.578768 0.257417
vt 0.554688 0.992188
vt 0.625000 0.992188
vt 0.619623 0.664062
vt 0.560064 0.664062
vt 0.492188 0.302017
vt 0.867188 0.296875
vt 0.867188 0.364122
vt 0.492188 0.358979
vt 0.382812 0.195312
vt 0.354136 0.200455
vt 0.354136 0.257417
vt 0.382812 0.262559
vt 0.423713 0.261570
vt 0.451287 0.261570
vt 0.451287 0.273438
vt 0.423713 0.273438
vt 0.552849 0.261570
vt 0.525276 0.261570
vt 0.525276 0.273438
vt 0.552849 0.273438
vt 0.579504 0.929844
vt 0.600184 0.929844
vt 0.600184 0.726406
vt 0.579504 0.726406
vt 0.563438 0.363133
vt 0.795937 0.363133
vt 0.795937 0.375000
vt 0.563438 0.375000
vt 0.250460 0.261570
vt 0.250460 0.273438
vt 0.407169 0.206685
vt 0.467831 0.206685
vt 0.467831 0.251187
vt 0.407169 0.251187
vt 0.569393 0.206685
vt 0.508732 0.206685
vt 0.508732 0.251187
vt 0.569393 0.251187
vt 0.567096 0.710797
vt 0.612592 0.710797
vt 0.612592 0.701234
vt 0.567096 0.701234
vt 0.534670 0.308248
vt 0.545598 0.308248
vt 0.545598 0.352749
vt 0.534670 0.352749
vt 0.316636 0.206685
vt 0.316636 0.251187
vt 0.390625 0.195312
vt 0.484375 0.195312
vt 0.484375 0.262559
vt 0.390625 0.262559
vt 0.578768 0.200455
vt 0.499357 0.200455
vt 0.499357 0.257417
vt 0.578768 0.257417
vt 0.554688 0.992188
vt 0.625000 0.992188
vt 0.619623 0.664062
vt 0.560064 0.664062
vt 0.036489 0.200455
vt 0.007812 0.195312
vt 0.007812 0.262559
vt 0.036489 0.257417
vt 0.867188 0.296875
vt 0.492188 0.302017
vt 0.492188 0.358979
vt 0.867188 0.364122
vt 0.423713 0.261570
vt 0.451287 0.261570
vt 0.451287 0.273438
vt 0.423713 0.273438
vt 0.552849 0.261570
vt 0.525276 0.261570
vt 0.525276 0.273438
vt 0.552849 0.273438
vt 0.579504 0.929844
vt 0.600184 0.929844
vt 0.600184 0.726406
vt 0.579504 0.726406
vt 0.140165 0.261570
vt 0.140165 0.273438
vt 0.795937 0.363133
vt 0.563438 0.363133
vt 0.563438 0.375000
vt 0.795937 0.375000
vt 0.407169 0.206685
vt 0.467831 0.206685
vt 0.467831 0.251187
vt 0.407169 0.251187
vt 0.569393 0.206685
vt 0.508732 0.206685
vt 0.508732 0.251187
vt 0.569393 0.251187
vt 0.567096 0.710797
vt 0.612592 0.710797
vt 0.612592 0.701234
vt 0.567096 0.701234
vt 0.073989 0.206685
vt 0.073989 0.251187
vt 0.545598 0.308248
vt 0.534670 0.308248
vt 0.534670 0.352749
vt 0.545598 0.352749
vt 0.054687 0.281250
vt 0.083658 0.281250
vt 0.079777 0.328125
vt 0.054687 0.328125
vt 0.007812 0.290202
vt 0.007812 0.313640
vt 0.054688 0.315580
vt 0.054688 0.295283
vt 0.007812 0.342610
vt 0.054688 0.340670
vt 0.007812 0.366048
vt 0.054688 0.360967
vt 0.025717 0.281250
vt 0.029598 0.328125
vt 0.054687 0.287530
vt 0.079777 0.295283
vt 0.069173 0.309164
vt 0.069173 0.362440
vt 0.054687 0.362440
vt 0.095282 0.315580
vt 0.078125 0.320882
vt 0.089002 0.335368
vt 0.089002 0.320882
vt 0.095282 0.340670
vt 0.079777 0.360967
vt 0.069173 0.347086
vt 0.078125 0.335368
vt 0.040202 0.362440
vt 0.029598 0.360967
vt 0.014093 0.340670
vt 0.031250 0.335368
vt 0.040202 0.347086
vt 0.014093 0.315580
vt 0.029598 0.295283
vt 0.040202 0.309164
vt 0.031250 0.320882
vt 0.054687 0.304688
vt 0.054687 0.328125
vt 0.054687 0.351562
vt 0.718750 0.429688
vt 0.765625 0.406250
vt 0.718750 0.382812
vt 0.765625 0.453125
vt 0.718750 0.476562
vt 0.671875 0.453125
vt 0.671875 0.406250
vt 0.617187 0.382812
vt 0.664062 0.382812
vt 0.651910 0.462500
vt 0.617187 0.462500
vt 0.671875 0.406250
vt 0.671875 0.453125
vt 0.751563 0.447049
vt 0.751563 0.412326
vt 0.570312 0.382812
vt 0.582465 0.462500
vt 0.644965 0.476562
vt 0.617187 0.476562
vt 0.765625 0.443576
vt 0.765625 0.415799
vt 0.589410 0.476562
vt 0.054688 0.281250
vt 0.083658 0.281250
vt 0.079777 0.328125
vt 0.054688 0.328125
vt 0.007812 0.290202
vt 0.007812 0.313640
vt 0.054688 0.315580
vt 0.054688 0.295283
vt 0.007812 0.342610
vt 0.054688 0.340670
vt 0.007812 0.366048
vt 0.054688 0.360967
vt 0.025717 0.281250
vt 0.029598 0.328125
vt 0.054688 0.287530
vt 0.079777 0.295283
vt 0.069173 0.309164
vt 0.069173 0.362440
vt 0.054688 0.362440
vt 0.095282 0.315580
vt 0.078125 0.320882
vt 0.089002 0.335368
vt 0.089002 0.320882
vt 0.095282 0.340670
vt 0.079777 0.360967
vt 0.069173 0.347086
vt 0.078125 0.335368
vt 0.040202 0.362440
vt 0.029598 0.360967
vt 0.014093 0.340670
vt 0.031250 0.335368
vt 0.040202 0.347086
vt 0.014093 0.315580
vt 0.029598 0.295283
vt 0.040202 0.309164
vt 0.031250 0.320882
vt 0.054688 0.304688
vt 0.054688 0.328125
vt 0.054688 0.351562
vt 0.718750 0.429688
vt 0.765625 0.406250
vt 0.718750 0.382812
vt 0.765625 0.453125
vt 0.718750 0.476562
vt 0.671875 0.453125
vt 0.671875 0.406250
vt 0.617188 0.382812
vt 0.664062 0.382812
vt 0.651910 0.462500
vt 0.617188 0.462500
vt 0.671875 0.406250
vt 0.671875 0.453125
vt 0.751563 0.447049
vt 0.751563 0.412326
vt 0.570312 0.382812
vt 0.582465 0.462500
vt 0.644965 0.476562
vt 0.617188 0.476562
vt 0.765625 0.443576
vt 0.765625 0.415799
vt 0.589410 0.476562
vn 0.000000 0.000000 1.000000
vn 0.000000 0.000000 -1.000000
vn -0.000000 0.999201 0.039968
vn 0.000000 -0.999201 0.039968
vn -0.977323 0.000000 0.211753
vn 0.977323 0.000000 0.211753
vn 0.000000 0.000000 -1.000000
vn 0.706207 -0.706207 0.050443
vn 0.706207 0.706207 0.050443
vn -0.706207 0.706207 0.050443
vn -0.706207 -0.706207 0.050443
vn 0.000000 0.000000 -1.000000
vn 0.706207 -0.706207 0.050443
vn 0.706207 0.706207 0.050443
vn -0.706207 0.706207 0.050443
vn -0.706207 -0.706207 0.050443
vn 0.000000 0.000000 -1.000000
vn 0.499859 -0.865781 0.023767
vn 0.999718 -0.000000 0.023767
vn 0.499859 0.865781 0.023767
vn -0.499859 0.865781 0.023767
vn -0.999718 0.000000 0.023767
vn -0.499859 -0.865781 0.023767
vn 0.498525 -0.863471 0.076753
vn 0.997050 -0.000000 0.076753
vn 0.498525 0.863471 0.076753
vn -0.498525 0.863471 0.076753
vn -0.997050 0.000000 0.076753
vn -0.498525 -0.863471 0.076753
vn 0.000000 0.000000 -1.000000
vn 0.499859 -0.865781 0.023767
vn 0.999718 -0.000000 0.023767
vn 0.499859 0.865781 0.023767
vn -0.499859 0.865781 0.023767
vn -0.999718 0.000000 0.023767
vn -0.499859 -0.865781 0.023767
vn 0.498525 -0.863471 0.076753
vn 0.997050 -0.000000 0.076753
vn 0.498525 0.863471 0.076753
vn -0.498525 0.863471 0.076753
vn -0.997050 0.000000 0.076753
vn -0.498525 -0.863471 0.076753
vn 0.000000 0.000000 1.000000
vn 0.000000 0.000000 -1.000000
vn -0.000000 1.000000 0.000000
vn 0.000000 -1.000000 0.000000
vn -1.000000 0.000000 0.000000
vn 1.000000 0.000000 0.000000
vn 0.000000 0.000000 1.000000
vn 0.000000 0.000000 -1.000000
vn -0.000000 0.999844 0.017644
vn 0.000000 -0.999844 0.017644
vn -0.999247 0.000000 0.038794
vn 0.999247 0.000000 0.038794
vn 0.000000 0.000000 -1.000000
vn 0.382683 -0.923880 0.000000
vn 0.923880 -0.382683 0.000000
vn 0.923880 0.382683 0.000000
vn 0.382683 0.923880 0.000000
vn -0.382683 0.923880 0.000000
vn -0.923880 0.382683 0.000000
vn -0.923880 -0.382683 0.000000
vn -0.382683 -0.923880 0.000000
vn 0.000000 0.000000 1.000000
vn 0.000000 0.000000 -1.000000
vn 0.382683 -0.923880 0.000000
vn 0.923880 -0.382683 0.000000
vn 0.923880 0.382683 0.000000
vn 0.382683 0.923880 0.000000
vn -0.382683 0.923880 0.000000
vn -0.923880 0.382683 0.000000
vn -0.923880 -0.382683 0.000000
vn -0.382683 -0.923880 0.000000
vn 0.000000 0.000000 1.000000
vn 0.303632 0.185880 0.934482
vn 0.794918 0.185880 0.577542
vn 0.982572 0.185880 0.000000
vn 0.794918 0.185880 -0.577542
vn 0.303632 0.185880 -0.934482
vn -0.303632 0.185880 -0.934482
vn -0.794918 0.185880 -0.577542
vn -0.982572 0.185880 0.000000
vn -0.794918 0.185880 0.577542
vn -0.303632 0.185880 0.934482
vn 0.260811 0.536342 0.802692
vn 0.682811 0.536342 0.496091
vn 0.844001 0.536342 0.000000
vn 0.682811 0.536342 -0.496091
vn 0.260811 0.536342 -0.802692
vn -0.260811 0.536342 -0.802692
vn -0.682811 0.536342 -0.496091
vn -0.844001 0.536342 -0.000000
vn -0.682811 0.536342 0.496091
vn -0.260811 0.536342 0.802692
vn 0.177645 0.818245 0.546734
vn 0.465079 0.818245 0.337900
vn 0.574870 0.818245 0.000000
vn 0.465079 0.818245 -0.337900
vn 0.177645 0.818245 -0.546734
vn -0.177645 0.818245 -0.546734
vn -0.465079 0.818245 -0.337900
vn -0.574870 0.818245 -0.000000
vn -0.465079 0.818245 0.337900
vn -0.177645 0.818245 0.546734
vn 0.063262 0.978821 0.194700
vn 0.165621 0.978821 0.120331
vn 0.204719 0.978821 0.000000
vn 0.165621 0.978821 -0.120331
vn 0.063262 0.978821 -0.194700
vn -0.063262 0.978821 -0.194700
vn -0.165621 0.978821 -0.120331
vn -0.204719 0.978821 0.000000
vn -0.165621 0.978821 0.120331
vn -0.063262 0.978821 0.194700
vn 0.000000 0.000000 1.000000
vn 0.000000 0.000000 -1.000000
vn -0.000000 0.999723 0.023523
vn 0.000000 -0.999723 0.023523
vn -0.998496 0.000000 0.054819
vn 0.998496 0.000000 0.054819
vn 0.295520 0.955336 -0.000000
vn -0.295520 -0.955336 0.000000
vn 0.940217 -0.290843 0.177207
vn 0.539450 -0.166871 -0.825317
vn -0.899680 0.278304 -0.336336
vn -0.684119 0.211623 0.697994
vn -0.295520 0.955336 -0.000000
vn 0.295520 -0.955336 0.000000
vn -0.940217 -0.290843 0.177207
vn -0.539450 -0.166871 -0.825317
vn 0.899680 0.278304 -0.336336
vn 0.684119 0.211623 0.697994
vn 0.000000 0.000000 1.000000
vn 0.000000 0.000000 -1.000000
vn 0.295520 0.955336 0.000000
vn -0.295520 -0.955336 0.000000
vn -0.955336 0.295520 0.000000
vn 0.955336 -0.295520 0.000000
vn 0.000000 0.000000 1.000000
vn 0.000000 0.000000 -1.000000
vn -0.295520 0.955336 0.000000
vn 0.295520 -0.955336 0.000000
vn -0.955336 -0.295520 0.000000
vn 0.955336 0.295520 0.000000
vn 0.000000 0.000000 1.000000
vn 0.000000 0.000000 -1.000000
vn 0.000000 0.999920 -0.012628
vn 0.000000 -0.999920 -0.012628
vn -0.999875 0.000000 -0.015784
vn 0.999875 0.000000 -0.015784
vn -0.000000 1.000000 0.000000
vn 0.000000 -1.000000 0.000000
vn -1.000000 0.000000 0.000000
vn 1.000000 0.000000 0.000000
vn 0.000000 0.000000 1.000000
vn 0.000000 0.000000 -1.000000
vn 0.000000 0.999920 -0.012628
vn 0.000000 -0.999920 -0.012628
vn -0.999875 0.000000 -0.015784
vn 0.999875 0.000000 -0.015784
vn -0.000000 1.000000 0.000000
vn 0.000000 -1.000000 0.000000
vn -1.000000 0.000000 0.000000
vn 1.000000 0.000000 0.000000
vn 0.299447 -0.921602 0.246943
vn 0.783962 -0.569582 0.246943
vn 0.969030 -0.000000 0.246943
vn 0.783962 0.569582 0.246943
vn 0.299447 0.921602 0.246943
vn -0.299447 0.921602 0.246943
vn -0.783962 0.569582 0.246943
vn -0.969030 0.000000 0.246943
vn -0.783962 -0.569582 0.246943
vn -0.299447 -0.921602 0.246943
vn 0.223919 -0.689152 0.689152
vn 0.586227 -0.425919 0.689152
vn 0.724617 -0.000000 0.689152
vn 0.586227 0.425919 0.689152
vn 0.223919 0.689152 0.689152
vn -0.223919 0.689152 0.689152
vn -0.586227 0.425919 0.689152
vn -0.724617 0.000000 0.689152
vn -0.586227 -0.425919 0.689152
vn -0.223919 -0.689152 0.689152
vn 0.083800 -0.257909 0.962528
vn 0.219390 -0.159396 0.962528
vn 0.271181 -0.000000 0.962528
vn 0.219390 0.159396 0.962528
vn 0.083800 0.257909 0.962528
vn -0.083800 0.257909 0.962528
vn -0.219390 0.159396 0.962528
vn -0.271181 0.000000 0.962528
vn -0.219390 -0.159396 0.962528
vn -0.083800 -0.257909 0.962528
vn 0.000000 0.000000 -1.000000
vn 0.499955 -0.865948 0.013371
vn 0.999911 -0.000000 0.013371
vn 0.499955 0.865948 0.013371
vn -0.499955 0.865948 0.013371
vn -0.999911 0.000000 0.013371
vn -0.499955 -0.865948 0.013371
vn 0.499532 -0.865215 0.043261
vn 0.999064 -0.000000 0.043261
vn 0.499532 0.865215 0.043261
vn -0.499532 0.865215 0.043261
vn -0.999064 0.000000 0.043261
vn -0.499532 -0.865215 0.043261
vn 0.299447 -0.921602 0.246943
vn 0.783962 -0.569582 0.246943
vn 0.969030 -0.000000 0.246943
vn 0.783962 0.569582 0.246943
vn 0.299447 0.921602 0.246943
vn -0.299447 0.921602 0.246943
vn -0.783962 0.569582 0.246943
vn -0.969030 0.000000 0.246943
vn -0.783962 -0.569582 0.246943
vn -0.299447 -0.921602 0.246943
vn 0.223919 -0.689152 0.689152
vn 0.586227 -0.425919 0.689152
vn 0.724617 -0.000000 0.689152
vn 0.586227 0.425919 0.689152
vn 0.223919 0.689152 0.689152
vn -0.223919 0.689152 0.689152
vn -0.586227 0.425919 0.689152
vn -0.724617 0.000000 0.689152
vn -0.586227 -0.425919 0.689152
vn -0.223919 -0.689152 0.689152
vn 0.083800 -0.257909 0.962528
vn 0.219390 -0.159396 0.962528
vn 0.271181 -0.000000 0.962528
vn 0.219390 0.159396 0.962528
vn 0.083800 0.257909 0.962528
vn -0.083800 0.257909 0.962528
vn -0.219390 0.159396 0.962528
vn -0.271181 0.000000 0.962528
vn -0.219390 -0.159396 0.962528
vn -0.083800 -0.257909 0.962528
vn 0.000000 0.000000 -1.000000
vn 0.499955 -0.865948 0.013371
vn 0.999911 -0.000000 0.013371
vn 0.499955 0.865948 0.013371
vn -0.499955 0.865948 0.013371
vn -0.999911 0.000000 0.013371
vn -0.499955 -0.865948 0.013371
vn 0.499532 -0.865215 0.043261
vn 0.999064 -0.000000 0.043261
vn 0.499532 0.865215 0.043261
vn -0.499532 0.865215 0.043261
vn -0.999064 0.000000 0.043261
vn -0.499532 -0.865215 0.043261
vn -0.295520 0.955336 0.000000
vn 0.295520 -0.955336 0.000000
vn 0.940217 0.290843 0.177207
vn 0.539450 0.166871 -0.825317
vn -0.899680 -0.278304 -0.336336
vn -0.684119 -0.211623 0.697994
vn 0.295520 0.955336 0.000000
vn -0.295520 -0.955336 0.000000
vn -0.940217 0.290843 0.177207
vn -0.539450 0.166871 -0.825317
vn 0.899680 -0.278304 -0.336336
vn 0.684119 -0.211623 0.697994
vn 0.000000 0.000000 1.000000
vn 0.000000 0.000000 -1.000000
vn -0.295520 0.955336 0.000000
vn 0.295520 -0.955336 0.000000
vn -0.955336 -0.295520 0.000000
vn 0.955336 0.295520 0.000000
vn 0.000000 0.000000 1.000000
vn 0.000000 0.000000 -1.000000
vn 0.295520 0.955336 0.000000
vn -0.295520 -0.955336 0.000000
vn -0.955336 0.295520 0.000000
vn 0.955336 -0.295520 0.000000
vn 0.000000 0.000000 1.000000
vn 0.000000 0.000000 -1.000000
vn 0.000000 0.999920 -0.012628
vn 0.000000 -0.999920 -0.012628
vn -0.999875 0.000000 -0.015784
vn 0.999875 0.000000 -0.015784
vn -0.000000 1.000000 0.000000
vn 0.000000 -1.000000 0.000000
vn -1.000000 0.000000 0.000000
vn 1.000000 0.000000 0.000000
vn 0.000000 0.000000 1.000000
vn 0.000000 0.000000 -1.000000
vn 0.000000 0.999920 -0.012628
vn 0.000000 -0.999920 -0.012628
vn -0.999875 0.000000 -0.015784
vn 0.999875 0.000000 -0.015784
vn -0.000000 1.000000 0.000000
vn 0.000000 -1.000000 0.000000
vn -1.000000 0.000000 0.000000
vn 1.000000 0.000000 0.000000
vn 0.299447 -0.921602 0.246943
vn 0.783962 -0.569582 0.246943
vn 0.969030 -0.000000 0.246943
vn 0.783962 0.569582 0.246943
vn 0.299447 0.921602 0.246943
vn -0.299447 0.921602 0.246943
vn -0.783962 0.569582 0.246943
vn -0.969030 0.000000 0.246943
vn -0.783962 -0.569582 0.246943
vn -0.299447 -0.921602 0.246943
vn 0.223919 -0.689152 0.689152
vn 0.586227 -0.425919 0.689152
vn 0.724617 -0.000000 0.689152
vn 0.586227 0.425919 0.689152
vn 0.223919 0.689152 0.689152
vn -0.223919 0.689152 0.689152
vn -0.586227 0.425919 0.689152
vn -0.724617 0.000000 0.689152
vn -0.586227 -0.425919 0.689152
vn -0.223919 -0.689152 0.689152
vn 0.083800 -0.257909 0.962528
vn 0.219390 -0.159396 0.962528
vn 0.271181 -0.000000 0.962528
vn 0.219390 0.159396 0.962528
vn 0.083800 0.257909 0.962528
vn -0.083800 0.257909 0.962528
vn -0.219390 0.159396 0.962528
vn -0.271181 0.000000 0.962528
vn -0.219390 -0.159396 0.962528
vn -0.083800 -0.257909 0.962528
vn 0.000000 0.000000 -1.000000
vn 0.499955 -0.865948 0.013371
vn 0.999911 -0.000000 0.013371
vn 0.499955 0.865948 0.013371
vn -0.499955 0.865948 0.013371
vn -0.999911 0.000000 0.013371
vn -0.499955 -0.865948 0.013371
vn 0.499532 -0.865215 0.043261
vn 0.999064 -0.000000 0.043261
vn 0.499532 0.865215 0.043261
vn -0.499532 0.865215 0.043261
vn -0.999064 0.000000 0.043261
vn -0.499532 -0.865215 0.043261
vn 0.299447 -0.921602 0.246943
vn 0.783962 -0.569582 0.246943
vn 0.969030 -0.000000 0.246943
vn 0.783962 0.569582 0.246943
vn 0.299447 0.921602 0.246943
vn -0.299447 0.921602 0.246943
vn -0.783962 0.569582 0.246943
vn -0.969030 0.000000 0.246943
vn -0.783962 -0.569582 0.246943
vn -0.299447 -0.921602 0.246943
vn 0.223919 -0.689152 0.689152
vn 0.586227 -0.425919 0.689152
vn 0.724617 -0.000000 0.689152
vn 0.586227 0.425919 0.689152
vn 0.223919 0.689152 0.689152
vn -0.223919 0.689152 0.689152
vn -0.586227 0.425919 0.689152
vn -0.724617 0.000000 0.689152
vn -0.586227 -0.425919 0.689152
vn -0.223919 -0.689152 0.689152
vn 0.083800 -0.257909 0.962528
vn 0.219390 -0.159396 0.962528
vn 0.271181 -0.000000 0.962528
vn 0.219390 0.159396 0.962528
vn 0.083800 0.257909 0.962528
vn -0.083800 0.257909 0.962528
vn -0.219390 0.159396 0.962528
vn -0.271181 0.000000 0.962528
vn -0.219390 -0.159396 0.962528
vn -0.083800 -0.257909 0.962528
vn 0.000000 0.000000 -1.000000
vn 0.499955 -0.865948 0.013371
vn 0.999911 -0.000000 0.013371
vn 0.499955 0.865948 0.013371
vn -0.499955 0.865948 0.013371
vn -0.999911 0.000000 0.013371
vn -0.499955 -0.865948 0.013371
vn 0.499532 -0.865215 0.043261
vn 0.999064 -0.000000 0.043261
vn 0.499532 0.865215 0.043261
vn -0.499532 0.865215 0.043261
vn -0.999064 0.000000 0.043261
vn -0.499532 -0.865215 0.043261
f 1/1/1 2/2/1 3/3/1
f 1/1/1 3/3/1 4/4/1
f 5/5/2 6/6/2 7/7/2
f 5/5/2 7/7/2 8/8/2
f 4/9/3 3/10/3 8/11/3
f 4/9/3 8/11/3 7/12/3
f 6/12/4 5/11/4 2/10/4
f 6/12/4 2/10/4 1/9/4
f 6/13/5 1/14/5 4/15/5
f 6/13/5 4/15/5 7/16/5
f 2/14/6 5/13/6 8/16/6
f 2/14/6 8/16/6 3/15/6
f 9/17/7 10/18/7 11/19/7
f 9/17/7 12/20/7 10/18/7
f 9/17/7 13/21/7 12/20/7
f 9/17/7 11/19/7 13/21/7
f 11/22/8 10/23/8 14/24/8
f 10/23/9 12/22/9 14/24/9
f 12/22/10 13/25/10 14/24/10
f 13/25/11 11/22/11 14/24/11
f 15/26/12 16/27/12 17/28/12
f 15/26/12 18/29/12 16/27/12
f 15/26/12 19/30/12 18/29/12
f 15/26/12 17/28/12 19/30/12
f 17/31/13 16/32/13 20/33/13
f 16/32/14 18/31/14 20/33/14
f 18/31/15 19/34/15 20/33/15
f 19/34/16 17/31/16 20/33/16
f 21/35/17 22/36/17 23/37/17
f 21/35/17 24/38/17 22/36/17
f 21/35/17 25/39/17 24/38/17
f 21/35/17 26/40/17 25/39/17
f 21/35/17 27/41/17 26/40/17
f 21/35/17 23/37/17 27/41/17
f 23/42/18 22/43/18 28/44/18
f 23/42/18 28/44/18 29/45/18
f 22/46/19 24/47/19 30/48/19
f 22/46/19 30/48/19 28/49/19
f 24/43/20 25/42/20 31/45/20
f 24/43/20 31/45/20 30/44/20
f 25/42/21 26/50/21 32/51/21
f 25/42/21 32/51/21 31/45/21
f 26/47/22 27/46/22 33/49/22
f 26/47/22 33/49/22 32/48/22
f 27/50/23 23/42/23 29/45/23
f 27/50/23 29/45/23 33/51/23
f 29/45/24 28/44/24 34/52/24
f 29/45/24 34/52/24 35/53/24
f 28/49/25 30/48/25 36/54/25
f 28/49/25 36/54/25 34/55/25
f 30/44/26 31/45/26 37/53/26
f 30/44/26 37/53/26 36/52/26
f 31/45/27 32/51/27 38/56/27
f 31/45/27 38/56/27 37/53/27
f 32/48/28 33/49/28 39/55/28
f 32/48/28 39/55/28 38/54/28
f 33/51/29 29/45/29 35/53/29
f 33/51/29 35/53/29 39/56/29
f 40/57/30 41/58/30 42/59/30
f 40/57/30 43/60/30 41/58/30
f 40/57/30 44/61/30 43/60/30
f 40/57/30 45/62/30 44/61/30
f 40/57/30 46/63/30 45/62/30
f 40/57/30 42/59/30 46/63/30
f 42/64/31 41/65/31 47/66/31
f 42/64/31 47/66/31 48/67/31
f 41/68/32 43/69/32 49/70/32
f 41/68/32 49/70/32 47/71/32
f 43/65/33 44/64/33 50/67/33
f 43/65/33 50/67/33 49/66/33
f 44/64/34 45/72/34 51/73/34
f 44/64/34 51/73/34 50/67/34
f 45/69/35 46/68/35 52/71/35
f 45/69/35 52/71/35 51/70/35
f 46/72/36 42/64/36 48/67/36
f 46/72/36 48/67/36 52/73/36
f 48/67/37 47/66/37 53/74/37
f 48/67/37 53/74/37 54/75/37
f 47/71/38 49/70/38 55/76/38
f 47/71/38 55/76/38 53/77/38
f 49/66/39 50/67/39 56/75/39
f 49/66/39 56/75/39 55/74/39
f 50/67/40 51/73/40 57/78/40
f 50/67/40 57/78/40 56/75/40
f 51/70/41 52/71/41 58/77/41
f 51/70/41 58/77/41 57/76/41
f 52/73/42 48/67/42 54/75/42
f 52/73/42 54/75/42 58/78/42
f 59/79/43 60/80/43 61/81/43
f 59/79/43 61/81/43 62/82/43
f 63/83/44 64/84/44 65/85/44
f 63/83/44 65/85/44 66/86/44
f 62/87/45 61/88/45 66/89/45
f 62/87/45 66/89/45 65/90/45
f 64/90/46 63/89/46 60/88/46
f 64/90/46 60/88/46 59/87/46
f 64/91/47 59/92/47 62/93/47
f 64/91/47 62/93/47 65/94/47
f 60/92/48 63/91/48 66/94/48
f 60/92/48 66/94/48 61/93/48
f 67/95/49 68/96/49 69/97/49
f 67/95/49 69/97/49 70/98/49
f 71/99/50 72/100/50 73/101/50
f 71/99/50 73/101/50 74/102/50
f 70/103/51 69/104/51 74/105/51
f 70/103/51 74/105/51 73/106/51
f 72/106/52 71/105/52 68/104/52
f 72/106/52 68/104/52 67/103/52
f 72/107/53 67/108/53 70/109/53
f 72/107/53 70/109/53 73/110/53
f 68/108/54 71/107/54 74/110/54
f 68/108/54 74/110/54 69/109/54
f 75/111/55 76/112/55 77/113/55
f 75/111/55 78/114/55 76/112/55
f 75/111/55 79/115/55 78/114/55
f 75/111/55 80/116/55 79/115/55
f 75/111/55 81/117/55 80/116/55
f 75/111/55 82/118/55 81/117/55
f 75/111/55 83/119/55 82/118/55
f 75/111/55 77/113/55 83/119/55
f 77/120/56 76/121/56 84/122/56
f 77/120/56 84/122/56 85/123/56
f 76/124/57 78/125/57 86/126/57
f 76/124/57 86/126/57 84/127/57
f 78/125/58 79/128/58 87/129/58
f 78/125/58 87/129/58 86/126/58
f 79/121/59 80/120/59 88/123/59
f 79/121/59 88/123/59 87/122/59
f 80/120/60 81/130/60 89/131/60
f 80/120/60 89/131/60 88/123/60
f 81/128/61 82/125/61 90/126/61
f 81/128/61 90/126/61 89/129/61
f 82/125/62 83/124/62 91/127/62
f 82/125/62 91/127/62 90/126/62
f 83/130/63 77/120/63 85/123/63
f 83/130/63 85/123/63 91/131/63
f 85/132/64 84/133/64 92/134/64
f 84/133/64 86/135/64 92/134/64
f 86/135/64 87/136/64 92/134/64
f 87/136/64 88/137/64 92/134/64
f 88/137/64 89/138/64 92/134/64
f 89/138/64 90/139/64 92/134/64
f 90/139/64 91/140/64 92/134/64
f 91/140/64 85/132/64 92/134/64
f 93/141/65 94/142/65 95/143/65
f 93/141/65 96/144/65 94/142/65
f 93/141/65 97/145/65 96/144/65
f 93/141/65 98/146/65 97/145/65
f 93/141/65 99/147/65 98/146/65
f 93/141/65 100/148/65 99/147/65
f 93/141/65 101/149/65 100/148/65
f 93/141/65 95/143/65 101/149/65
f 95/150/66 94/151/66 102/152/66
f 95/150/66 102/152/66 103/153/66
f 94/154/67 96/155/67 104/156/67
f 94/154/67 104/156/67 102/157/67
f 96/155/68 97/158/68 105/159/68
f 96/155/68 105/159/68 104/156/68
f 97/151/69 98/150/69 106/153/69
f 97/151/69 106/153/69 105/152/69
f 98/150/70 99/160/70 107/161/70
f 98/150/70 107/161/70 106/153/70
f 99/158/71 100/155/71 108/156/71
f 99/158/71 108/156/71 107/159/71
f 100/155/72 101/154/72 109/157/72
f 100/155/72 109/157/72 108/156/72
f 101/160/73 95/150/73 103/153/73
f 101/160/73 103/153/73 109/161/73
f 103/162/74 102/163/74 110/164/74
f 102/163/74 104/165/74 110/164/74
f 104/165/74 105/166/74 110/164/74
f 105/166/74 106/167/74 110/164/74
f 106/167/74 107/168/74 110/164/74
f 107/168/74 108/169/74 110/164/74
f 108/169/74 109/170/74 110/164/74
f 109/170/74 103/162/74 110/164/74
f 111/171/75 112/172/75 113/173/75
f 111/171/75 113/173/75 114/174/75
f 112/175/76 115/176/76 116/177/76
f 112/175/76 116/177/76 113/178/76
f 115/176/77 117/179/77 118/180/77
f 115/176/77 118/180/77 116/177/77
f 117/179/78 119/181/78 120/182/78
f 117/179/78 120/182/78 118/180/78
f 119/183/79 121/184/79 122/185/79
f 119/183/79 122/185/79 120/186/79
f 121/184/80 123/187/80 124/188/80
f 121/184/80 124/188/80 122/185/80
f 123/181/81 125/179/81 126/180/81
f 123/181/81 126/180/81 124/182/81
f 125/179/82 127/176/82 128/177/82
f 125/179/82 128/177/82 126/180/82
f 127/176/83 129/175/83 130/178/83
f 127/176/83 130/178/83 128/177/83
f 129/189/84 111/171/84 114/174/84
f 129/189/84 114/174/84 130/190/84
f 114/174/85 113/173/85 131/191/85
f 114/174/85 131/191/85 132/192/85
f 113/178/86 116/177/86 133/193/86
f 113/178/86 133/193/86 131/194/86
f 116/177/87 118/180/87 134/195/87
f 116/177/87 134/195/87 133/193/87
f 118/180/88 120/182/88 135/196/88
f 118/180/88 135/196/88 134/195/88
f 120/186/89 122/185/89 136/197/89
f 120/186/89 136/197/89 135/198/89
f 122/185/90 124/188/90 137/199/90
f 122/185/90 137/199/90 136/197/90
f 124/182/91 126/180/91 138/195/91
f 124/182/91 138/195/91 137/196/91
f 126/180/92 128/177/92 139/193/92
f 126/180/92 139/193/92 138/195/92
f 128/177/93 130/178/93 140/194/93
f 128/177/93 140/194/93 139/193/93
f 130/190/94 114/174/94 132/192/94
f 130/190/94 132/192/94 140/200/94
f 132/201/95 131/202/95 141/203/95
f 132/201/95 141/203/95 142/204/95
f 131/202/96 133/205/96 143/206/96
f 131/202/96 143/206/96 141/203/96
f 133/205/97 134/207/97 144/208/97
f 133/205/97 144/208/97 143/206/97
f 134/207/98 135/209/98 145/210/98
f 134/207/98 145/210/98 144/208/98
f 135/209/99 136/211/99 146/212/99
f 135/209/99 146/212/99 145/210/99
f 136/211/100 137/213/100 147/214/100
f 136/211/100 147/214/100 146/212/100
f 137/213/101 138/215/101 148/216/101
f 137/213/101 148/216/101 147/214/101
f 138/215/102 139/217/102 149/218/102
f 138/215/102 149/218/102 148/216/102
f 139/217/103 140/219/103 150/220/103
f 139/217/103 150/220/103 149/218/103
f 140/219/104 132/201/104 142/204/104
f 140/219/104 142/204/104 150/220/104
f 142/204/105 141/203/105 151/221/105
f 141/203/106 143/206/106 151/221/106
f 143/206/107 144/208/107 151/221/107
f 144/208/108 145/210/108 151/221/108
f 145/210/109 146/212/109 151/221/109
f 146/212/110 147/214/110 151/221/110
f 147/214/111 148/216/111 151/221/111
f 148/216/112 149/218/112 151/221/112
f 149/218/113 150/220/113 151/221/113
f 150/220/114 142/204/114 151/221/114
f 152/222/115 153/223/115 154/224/115
f 152/222/115 154/224/115 155/225/115
f 156/226/116 157/227/116 158/228/116
f 156/226/116 158/228/116 159/229/116
f 155/230/117 154/231/117 159/232/117
f 155/230/117 159/232/117 158/233/117
f 157/233/118 156/232/118 153/231/118
f 157/233/118 153/231/118 152/230/118
f 157/234/119 152/235/119 155/236/119
f 157/234/119 155/236/119 158/237/119
f 153/235/120 156/234/120 159/237/120
f 153/235/120 159/237/120 154/236/120
f 160/238/121 161/239/121 162/240/121
f 163/241/122 164/242/122 165/243/122
f 162/240/121 166/244/121 160/238/121
f 164/242/122 163/241/122 167/245/122
f 161/246/123 164/247/123 162/248/123
f 161/246/123 165/249/123 164/247/123
f 162/250/124 167/251/124 166/252/124
f 162/250/124 164/253/124 167/251/124
f 166/254/125 163/255/125 160/256/125
f 166/254/125 167/257/125 163/255/125
f 160/258/126 165/259/126 161/260/126
f 160/258/126 163/261/126 165/259/126
f 168/262/127 169/263/127 170/264/127
f 171/265/128 172/266/128 173/267/128
f 169/263/127 168/262/127 174/268/127
f 173/267/128 175/269/128 171/265/128
f 170/270/129 169/271/129 173/272/129
f 170/270/129 173/272/129 172/273/129
f 169/274/130 174/275/130 175/276/130
f 169/274/130 175/276/130 173/277/130
f 174/278/131 168/279/131 171/280/131
f 174/278/131 171/280/131 175/281/131
f 168/282/132 170/283/132 172/284/132
f 168/282/132 172/284/132 171/285/132
f 176/286/133 177/287/133 178/288/133
f 176/286/133 178/288/133 179/289/133
f 180/290/134 181/291/134 182/292/134
f 180/290/134 182/292/134 183/293/134
f 179/294/135 178/295/135 183/296/135
f 179/294/135 183/296/135 182/297/135
f 181/298/136 180/299/136 177/300/136
f 181/298/136 177/300/136 176/301/136
f 181/302/137 176/303/137 179/304/137
f 181/302/137 179/304/137 182/305/137
f 177/306/138 180/307/138 183/308/138
f 177/306/138 183/308/138 178/309/138
f 184/310/133 185/311/133 186/312/133
f 184/310/133 186/312/133 187/313/133
f 188/314/134 189/315/134 190/316/134
f 188/314/134 190/316/134 191/317/134
f 187/318/135 186/319/135 191/320/135
f 187/318/135 191/320/135 190/321/135
f 189/322/136 188/323/136 185/324/136
f 189/322/136 185/324/136 184/325/136
f 189/326/137 184/327/137 187/328/137
f 189/326/137 187/328/137 190/329/137
f 185/330/138 188/331/138 191/332/138
f 185/330/138 191/332/138 186/333/138
f 192/334/133 193/335/133 194/336/133
f 192/334/133 194/336/133 195/337/133
f 196/338/134 197/339/134 198/340/134
f 196/338/134 198/340/134 199/341/134
f 195/342/135 194/343/135 199/344/135
f 195/342/135 199/344/135 198/345/135
f 197/346/136 196/347/136 193/348/136
f 197/346/136 193/348/136 192/349/136
f 197/350/137 192/351/137 195/352/137
f 197/350/137 195/352/137 198/353/137
f 193/354/138 196/355/138 199/356/138
f 193/354/138 199/356/138 194/357/138
f 200/358/139 201/359/139 202/360/139
f 200/358/139 202/360/139 203/361/139
f 204/362/140 205/363/140 206/364/140
f 204/362/140 206/364/140 207/365/140
f 203/366/141 202/367/141 207/368/141
f 203/366/141 207/368/141 206/369/141
f 205/370/142 204/371/142 201/372/142
f 205/370/142 201/372/142 200/373/142
f 205/374/143 200/375/143 203/376/143
f 205/374/143 203/376/143 206/377/143
f 201/378/144 204/379/144 207/380/144
f 201/378/144 207/380/144 202/381/144
f 208/382/139 209/383/139 210/384/139
f 208/382/139 210/384/139 211/385/139
f 212/386/140 213/387/140 214/388/140
f 212/386/140 214/388/140 215/389/140
f 211/390/141 210/391/141 215/392/141
f 211/390/141 215/392/141 214/393/141
f 213/394/142 212/395/142 209/396/142
f 213/394/142 209/396/142 208/397/142
f 213/398/143 208/399/143 211/400/143
f 213/398/143 211/400/143 214/401/143
f 209/402/144 212/403/144 215/404/144
f 209/402/144 215/404/144 210/405/144
f 216/406/139 217/407/139 218/408/139
f 216/406/139 218/408/139 219/409/139
f 220/410/140 221/411/140 222/412/140
f 220/410/140 222/412/140 223/413/140
f 219/414/141 218/415/141 223/416/141
f 219/414/141 223/416/141 222/417/141
f 221/418/142 220/419/142 217/420/142
f 221/418/142 217/420/142 216/421/142
f 221/422/143 216/423/143 219/424/143
f 221/422/143 219/424/143 222/425/143
f 217/426/144 220/427/144 223/428/144
f 217/426/144 223/428/144 218/429/144
f 224/430/145 225/431/145 226/432/145
f 224/430/145 226/432/145 227/433/145
f 228/434/146 229/435/146 230/436/146
f 228/434/146 230/436/146 231/437/146
f 227/438/147 226/439/147 231/440/147
f 227/438/147 231/440/147 230/441/147
f 229/441/148 228/440/148 225/439/148
f 229/441/148 225/439/148 224/438/148
f 229/442/149 224/443/149 227/444/149
f 229/442/149 227/444/149 230/445/149
f 225/446/150 228/447/150 231/448/150
f 225/446/150 231/448/150 226/449/150
f 232/450/145 233/451/145 234/452/145
f 232/450/145 234/452/145 235/453/145
f 236/454/146 237/455/146 238/456/146
f 236/454/146 238/456/146 239/457/146
f 235/458/151 234/459/151 239/460/151
f 235/458/151 239/460/151 238/461/151
f 237/461/152 236/460/152 233/459/152
f 237/461/152 233/459/152 232/458/152
f 237/462/153 232/463/153 235/464/153
f 237/462/153 235/464/153 238/465/153
f 233/466/154 236/466/154 239/467/154
f 233/466/154 239/467/154 234/467/154
f 240/468/145 241/469/145 242/470/145
f 240/468/145 242/470/145 243/471/145
f 244/472/146 245/473/146 246/474/146
f 244/472/146 246/474/146 247/475/146
f 243/476/151 242/477/151 247/478/151
f 243/476/151 247/478/151 246/479/151
f 245/479/152 244/478/152 241/477/152
f 245/479/152 241/477/152 240/476/152
f 245/480/153 240/481/153 243/482/153
f 245/480/153 243/482/153 246/483/153
f 241/484/154 244/484/154 247/485/154
f 241/484/154 247/485/154 242/485/154
f 248/486/155 249/487/155 250/488/155
f 248/486/155 250/488/155 251/489/155
f 252/490/156 253/491/156 254/492/156
f 252/490/156 254/492/156 255/493/156
f 251/494/157 250/495/157 255/496/157
f 251/494/157 255/496/157 254/497/157
f 253/497/158 252/496/158 249/495/158
f 253/497/158 249/495/158 248/494/158
f 253/498/159 248/499/159 251/500/159
f 253/498/159 251/500/159 254/501/159
f 249/502/160 252/503/160 255/504/160
f 249/502/160 255/504/160 250/505/160
f 256/506/155 257/507/155 258/508/155
f 256/506/155 258/508/155 259/509/155
f 260/510/156 261/511/156 262/512/156
f 260/510/156 262/512/156 263/513/156
f 259/514/161 258/515/161 263/516/161
f 259/514/161 263/516/161 262/517/161
f 261/517/162 260/516/162 257/515/162
f 261/517/162 257/515/162 256/514/162
f 261/518/163 256/518/163 259/519/163
f 261/518/163 259/519/163 262/519/163
f 257/520/164 260/521/164 263/522/164
f 257/520/164 263/522/164 258/523/164
f 264/524/155 265/525/155 266/526/155
f 264/524/155 266/526/155 267/527/155
f 268/528/156 269/529/156 270/530/156
f 268/528/156 270/530/156 271/531/156
f 267/532/161 266/533/161 271/534/161
f 267/532/161 271/534/161 270/535/161
f 269/535/162 268/534/162 265/533/162
f 269/535/162 265/533/162 264/532/162
f 269/536/163 264/536/163 267/537/163
f 269/536/163 267/537/163 270/537/163
f 265/538/164 268/539/164 271/540/164
f 265/538/164 271/540/164 266/541/164
f 272/542/165 273/543/165 274/544/165
f 272/542/165 274/544/165 275/545/165
f 273/546/166 276/547/166 277/548/166
f 273/546/166 277/548/166 274/549/166
f 276/547/167 278/550/167 279/551/167
f 276/547/167 279/551/167 277/548/167
f 278/550/168 280/552/168 281/553/168
f 278/550/168 281/553/168 279/551/168
f 280/543/169 282/542/169 283/545/169
f 280/543/169 283/545/169 281/544/169
f 282/542/170 284/554/170 285/555/170
f 282/542/170 285/555/170 283/545/170
f 284/552/171 286/550/171 287/551/171
f 284/552/171 287/551/171 285/553/171
f 286/550/172 288/547/172 289/548/172
f 286/550/172 289/548/172 287/551/172
f 288/547/173 290/546/173 291/549/173
f 288/547/173 291/549/173 289/548/173
f 290/554/174 272/542/174 275/545/174
f 290/554/174 275/545/174 291/555/174
f 275/545/175 274/544/175 292/556/175
f 275/545/175 292/556/175 293/557/175
f 274/558/176 277/559/176 294/560/176
f 274/558/176 294/560/176 292/561/176
f 277/548/177 279/551/177 295/562/177
f 277/548/177 295/562/177 294/563/177
f 279/564/178 281/565/178 296/566/178
f 279/564/178 296/566/178 295/567/178
f 281/544/179 283/545/179 297/557/179
f 281/544/179 297/557/179 296/556/179
f 283/545/180 285/555/180 298/568/180
f 283/545/180 298/568/180 297/557/180
f 285/569/181 287/570/181 299/571/181
f 285/569/181 299/571/181 298/572/181
f 287/551/182 289/548/182 300/563/182
f 287/551/182 300/563/182 299/562/182
f 289/573/183 291/574/183 301/575/183
f 289/573/183 301/575/183 300/576/183
f 291/555/184 275/545/184 293/557/184
f 291/555/184 293/557/184 301/568/184
f 293/577/185 292/561/185 302/578/185
f 292/561/186 294/560/186 302/578/186
f 294/560/187 295/567/187 302/578/187
f 295/567/188 296/566/188 302/578/188
f 296/566/189 297/579/189 302/578/189
f 297/579/190 298/572/190 302/578/190
f 298/572/191 299/571/191 302/578/191
f 299/571/192 300/576/192 302/578/192
f 300/576/193 301/575/193 302/578/193
f 301/575/194 293/577/194 302/578/194
f 303/580/195 304/581/195 305/582/195
f 303/580/195 306/583/195 304/581/195
f 303/580/195 307/584/195 306/583/195
f 303/580/195 308/585/195 307/584/195
f 303/580/195 309/586/195 308/585/195
f 303/580/195 305/582/195 309/586/195
f 305/587/196 304/588/196 310/589/196
f 305/587/196 310/589/196 311/590/196
f 304/591/197 306/592/197 312/593/197
f 304/591/197 312/593/197 310/594/197
f 306/588/198 307/587/198 313/590/198
f 306/588/198 313/590/198 312/589/198
f 307/587/199 308/595/199 314/596/199
f 307/587/199 314/596/199 313/590/199
f 308/592/200 309/591/200 315/594/200
f 308/592/200 315/594/200 314/593/200
f 309/595/201 305/587/201 311/590/201
f 309/595/201 311/590/201 315/596/201
f 311/590/202 310/589/202 316/597/202
f 311/590/202 316/597/202 317/598/202
f 310/594/203 312/593/203 318/599/203
f 310/594/203 318/599/203 316/600/203
f 312/589/204 313/590/204 319/598/204
f 312/589/204 319/598/204 318/597/204
f 313/590/205 314/596/205 320/601/205
f 313/590/205 320/601/205 319/598/205
f 314/593/206 315/594/206 321/600/206
f 314/593/206 321/600/206 320/599/206
f 315/596/207 311/590/207 317/598/207
f 315/596/207 317/598/207 321/601/207
f 322/602/208 323/603/208 324/604/208
f 322/602/208 324/604/208 325/605/208
f 323/606/209 326/607/209 327/608/209
f 323/606/209 327/608/209 324/609/209
f 326/607/210 328/610/210 329/611/210
f 326/607/210 329/611/210 327/608/210
f 328/610/211 330/612/211 331/613/211
f 328/610/211 331/613/211 329/611/211
f 330/603/212 332/602/212 333/605/212
f 330/603/212 333/605/212 331/604/212
f 332/602/213 334/614/213 335/615/213
f 332/602/213 335/615/213 333/605/213
f 334/612/214 336/610/214 337/611/214
f 334/612/214 337/611/214 335/613/214
f 336/610/215 338/607/215 339/608/215
f 336/610/215 339/608/215 337/611/215
f 338/607/216 340/606/216 341/609/216
f 338/607/216 341/609/216 339/608/216
f 340/614/217 322/602/217 325/605/217
f 340/614/217 325/605/217 341/615/217
f 325/605/218 324/604/218 342/616/218
f 325/605/218 342/616/218 343/617/218
f 324/618/219 327/619/219 344/620/219
f 324/618/219 344/620/219 342/621/219
f 327/608/220 329/611/220 345/622/220
f 327/608/220 345/622/220 344/623/220
f 329/624/221 331/625/221 346/626/221
f 329/624/221 346/626/221 345/627/221
f 331/604/222 333/605/222 347/617/222
f 331/604/222 347/617/222 346/616/222
f 333/605/223 335/615/223 348/628/223
f 333/605/223 348/628/223 347/617/223
f 335/629/224 337/630/224 349/631/224
f 335/629/224 349/631/224 348/632/224
f 337/611/225 339/608/225 350/623/225
f 337/611/225 350/623/225 349/622/225
f 339/633/226 341/634/226 351/635/226
f 339/633/226 351/635/226 350/636/226
f 341/615/227 325/605/227 343/617/227
f 341/615/227 343/617/227 351/628/227
f 343/637/228 342/621/228 352/638/228
f 342/621/229 344/620/229 352/638/229
f 344/620/230 345/627/230 352/638/230
f 345/627/231 346/626/231 352/638/231
f 346/626/232 347/639/232 352/638/232
f 347/639/233 348/632/233 352/638/233
f 348/632/234 349/631/234 352/638/234
f 349/631/235 350/636/235 352/638/235
f 350/636/236 351/635/236 352/638/236
f 351/635/237 343/637/237 352/638/237
f 353/640/238 354/641/238 355/642/238
f 353/640/238 356/643/238 354/641/238
f 353/640/238 357/644/238 356/643/238
f 353/640/238 358/645/238 357/644/238
f 353/640/238 359/646/238 358/645/238
f 353/640/238 355/642/238 359/646/238
f 355/647/239 354/648/239 360/649/239
f 355/647/239 360/649/239 361/650/239
f 354/651/240 356/652/240 362/653/240
f 354/651/240 362/653/240 360/654/240
f 356/648/241 357/647/241 363/650/241
f 356/648/241 363/650/241 362/649/241
f 357/647/242 358/655/242 364/656/242
f 357/647/242 364/656/242 363/650/242
f 358/652/243 359/651/243 365/654/243
f 358/652/243 365/654/243 364/653/243
f 359/655/244 355/647/244 361/650/244
f 359/655/244 361/650/244 365/656/244
f 361/650/245 360/649/245 366/657/245
f 361/650/245 366/657/245 367/658/245
f 360/654/246 362/653/246 368/659/246
f 360/654/246 368/659/246 366/660/246
f 362/649/247 363/650/247 369/658/247
f 362/649/247 369/658/247 368/657/247
f 363/650/248 364/656/248 370/661/248
f 363/650/248 370/661/248 369/658/248
f 364/653/249 365/654/249 371/660/249
f 364/653/249 371/660/249 370/659/249
f 365/656/250 361/650/250 367/658/250
f 365/656/250 367/658/250 371/661/250
f 372/662/251 373/663/251 374/664/251
f 375/665/252 376/666/252 377/667/252
f 374/664/251 378/668/251 372/662/251
f 376/666/252 375/665/252 379/669/252
f 373/670/253 376/671/253 374/672/253
f 373/670/253 377/673/253 376/671/253
f 374/674/254 379/675/254 378/676/254
f 374/674/254 376/677/254 379/675/254
f 378/678/255 375/679/255 372/680/255
f 378/678/255 379/681/255 375/679/255
f 372/682/256 377/683/256 373/684/256
f 372/682/256 375/685/256 377/683/256
f 380/686/257 381/687/257 382/688/257
f 383/689/258 384/690/258 385/691/258
f 381/687/257 380/686/257 386/692/257
f 385/691/258 387/693/258 383/689/258
f 382/694/259 381/695/259 385/696/259
f 382/694/259 385/696/259 384/697/259
f 381/698/260 386/699/260 387/700/260
f 381/698/260 387/700/260 385/701/260
f 386/702/261 380/703/261 383/704/261
f 386/702/261 383/704/261 387/705/261
f 380/706/262 382/707/262 384/708/262
f 380/706/262 384/708/262 383/709/262
f 388/710/263 389/711/263 390/712/263
f 388/710/263 390/712/263 391/713/263
f 392/714/264 393/715/264 394/716/264
f 392/714/264 394/716/264 395/717/264
f 391/718/265 390/719/265 395/720/265
f 391/718/265 395/720/265 394/721/265
f 393/722/266 392/723/266 389/724/266
f 393/722/266 389/724/266 388/725/266
f 393/726/267 388/727/267 391/728/267
f 393/726/267 391/728/267 394/729/267
f 389/730/268 392/731/268 395/732/268
f 389/730/268 395/732/268 390/733/268
f 396/734/263 397/735/263 398/736/263
f 396/734/263 398/736/263 399/737/263
f 400/738/264 401/739/264 402/740/264
f 400/738/264 402/740/264 403/741/264
f 399/742/265 398/743/265 403/744/265
f 399/742/265 403/744/265 402/745/265
f 401/746/266 400/747/266 397/748/266
f 401/746/266 397/748/266 396/749/266
f 401/750/267 396/751/267 399/752/267
f 401/750/267 399/752/267 402/753/267
f 397/754/268 400/755/268 403/756/268
f 397/754/268 403/756/268 398/757/268
f 404/758/263 405/759/263 406/760/263
f 404/758/263 406/760/263 407/761/263
f 408/762/264 409/763/264 410/764/264
f 408/762/264 410/764/264 411/765/264
f 407/766/265 406/767/265 411/768/265
f 407/766/265 411/768/265 410/769/265
f 409/770/266 408/771/266 405/772/266
f 409/770/266 405/772/266 404/773/266
f 409/774/267 404/775/267 407/776/267
f 409/774/267 407/776/267 410/777/267
f 405/778/268 408/779/268 411/780/268
f 405/778/268 411/780/268 406/781/268
f 412/782/269 413/783/269 414/784/269
f 412/782/269 414/784/269 415/785/269
f 416/786/270 417/787/270 418/788/270
f 416/786/270 418/788/270 419/789/270
f 415/790/271 414/791/271 419/792/271
f 415/790/271 419/792/271 418/793/271
f 417/794/272 416/795/272 413/796/272
f 417/794/272 413/796/272 412/797/272
f 417/798/273 412/799/273 415/800/273
f 417/798/273 415/800/273 418/801/273
f 413/802/274 416/803/274 419/804/274
f 413/802/274 419/804/274 414/805/274
f 420/806/269 421/807/269 422/808/269
f 420/806/269 422/808/269 423/809/269
f 424/810/270 425/811/270 426/812/270
f 424/810/270 426/812/270 427/813/270
f 423/814/271 422/815/271 427/816/271
f 423/814/271 427/816/271 426/817/271
f 425/818/272 424/819/272 421/820/272
f 425/818/272 421/820/272 420/821/272
f 425/822/273 420/823/273 423/824/273
f 425/822/273 423/824/273 426/825/273
f 421/826/274 424/827/274 427/828/274
f 421/826/274 427/828/274 422/829/274
f 428/830/269 429/831/269 430/832/269
f 428/830/269 430/832/269 431/833/269
f 432/834/270 433/835/270 434/836/270
f 432/834/270 434/836/270 435/837/270
f 431/838/271 430/839/271 435/840/271
f 431/838/271 435/840/271 434/841/271
f 433/842/272 432/843/272 429/844/272
f 433/842/272 429/844/272 428/845/272
f 433/846/273 428/847/273 431/848/273
f 433/846/273 431/848/273 434/849/273
f 429/850/274 432/851/274 435/852/274
f 429/850/274 435/852/274 430/853/274
f 436/854/275 437/855/275 438/856/275
f 436/854/275 438/856/275 439/857/275
f 440/858/276 441/859/276 442/860/276
f 440/858/276 442/860/276 443/861/276
f 439/862/277 438/863/277 443/864/277
f 439/862/277 443/864/277 442/865/277
f 441/865/278 440/864/278 437/863/278
f 441/865/278 437/863/278 436/862/278
f 441/866/279 436/867/279 439/868/279
f 441/866/279 439/868/279 442/869/279
f 437/870/280 440/871/280 443/872/280
f 437/870/280 443/872/280 438/873/280
f 444/874/275 445/875/275 446/876/275
f 444/874/275 446/876/275 447/877/275
f 448/878/276 449/879/276 450/880/276
f 448/878/276 450/880/276 451/881/276
f 447/882/281 446/883/281 451/884/281
f 447/882/281 451/884/281 450/885/281
f 449/885/282 448/884/282 445/883/282
f 449/885/282 445/883/282 444/882/282
f 449/886/283 444/887/283 447/888/283
f 449/886/283 447/888/283 450/889/283
f 445/890/284 448/890/284 451/891/284
f 445/890/284 451/891/284 446/891/284
f 452/892/275 453/893/275 454/894/275
f 452/892/275 454/894/275 455/895/275
f 456/896/276 457/897/276 458/898/276
f 456/896/276 458/898/276 459/899/276
f 455/900/281 454/901/281 459/902/281
f 455/900/281 459/902/281 458/903/281
f 457/903/282 456/902/282 453/901/282
f 457/903/282 453/901/282 452/900/282
f 457/904/283 452/905/283 455/906/283
f 457/904/283 455/906/283 458/907/283
f 453/908/284 456/908/284 459/909/284
f 453/908/284 459/909/284 454/909/284
f 460/910/285 461/911/285 462/912/285
f 460/910/285 462/912/285 463/913/285
f 464/914/286 465/915/286 466/916/286
f 464/914/286 466/916/286 467/917/286
f 463/918/287 462/919/287 467/920/287
f 463/918/287 467/920/287 466/921/287
f 465/921/288 464/920/288 461/919/288
f 465/921/288 461/919/288 460/918/288
f 465/922/289 460/923/289 463/924/289
f 465/922/289 463/924/289 466/925/289
f 461/926/290 464/927/290 467/928/290
f 461/926/290 467/928/290 462/929/290
f 468/930/285 469/931/285 470/932/285
f 468/930/285 470/932/285 471/933/285
f 472/934/286 473/935/286 474/936/286
f 472/934/286 474/936/286 475/937/286
f 471/938/291 470/939/291 475/940/291
f 471/938/291 475/940/291 474/941/291
f 473/941/292 472/940/292 469/939/292
f 473/941/292 469/939/292 468/938/292
f 473/942/293 468/942/293 471/943/293
f 473/942/293 471/943/293 474/943/293
f 469/944/294 472/945/294 475/946/294
f 469/944/294 475/946/294 470/947/294
f 476/948/285 477/949/285 478/950/285
f 476/948/285 478/950/285 479/951/285
f 480/952/286 481/953/286 482/954/286
f 480/952/286 482/954/286 483/955/286
f 479/956/291 478/957/291 483/958/291
f 479/956/291 483/958/291 482/959/291
f 481/959/292 480/958/292 477/957/292
f 481/959/292 477/957/292 476/956/292
f 481/960/293 476/960/293 479/961/293
f 481/960/293 479/961/293 482/961/293
f 477/962/294 480/963/294 483/964/294
f 477/962/294 483/964/294 478/965/294
f 484/966/295 485/967/295 486/968/295
f 484/966/295 486/968/295 487/969/295
f 485/970/296 488/971/296 489/972/296
f 485/970/296 489/972/296 486/973/296
f 488/971/297 490/974/297 491/975/297
f 488/971/297 491/975/297 489/972/297
f 490/974/298 492/976/298 493/977/298
f 490/974/298 493/977/298 491/975/298
f 492/967/299 494/966/299 495/969/299
f 492/967/299 495/969/299 493/968/299
f 494/966/300 496/978/300 497/979/300
f 494/966/300 497/979/300 495/969/300
f 496/976/301 498/974/301 499/975/301
f 496/976/301 499/975/301 497/977/301
f 498/974/302 500/971/302 501/972/302
f 498/974/302 501/972/302 499/975/302
f 500/971/303 502/970/303 503/973/303
f 500/971/303 503/973/303 501/972/303
f 502/978/304 484/966/304 487/969/304
f 502/978/304 487/969/304 503/979/304
f 487/980/305 486/981/305 504/982/305
f 487/969/305 504/983/305 505/984/305
f 486/981/306 489/985/306 506/986/306
f 486/981/306 506/986/306 504/982/306
f 489/972/307 491/975/307 507/987/307
f 489/972/307 507/987/307 506/988/307
f 491/989/308 493/990/308 508/991/308
f 491/989/308 508/991/308 507/992/308
f 493/968/309 495/969/309 509/984/309
f 493/968/309 509/984/309 508/983/309
f 495/969/310 497/979/310 510/993/310
f 495/969/310 510/993/310 509/984/310
f 497/994/311 499/995/311 511/996/311
f 497/994/311 511/996/311 510/997/311
f 499/975/312 501/972/312 512/988/312
f 499/975/312 512/988/312 511/987/312
f 501/998/313 503/999/313 513/1000/313
f 501/998/313 513/1000/313 512/1001/313
f 503/979/314 487/969/314 505/984/314
f 503/999/314 505/1002/314 513/1000/314
f 505/1002/315 504/982/315 514/1003/315
f 504/982/316 506/986/316 514/1003/316
f 506/986/317 507/992/317 514/1003/317
f 507/992/318 508/991/318 514/1003/318
f 508/991/319 509/1004/319 514/1003/319
f 509/1004/320 510/997/320 514/1003/320
f 510/997/321 511/996/321 514/1003/321
f 511/996/322 512/1001/322 514/1003/322
f 512/1001/323 513/1000/323 514/1003/323
f 513/1000/324 505/1002/324 514/1003/324
f 515/1005/325 516/1006/325 517/1007/325
f 515/1005/325 518/1008/325 516/1006/325
f 515/1005/325 519/1009/325 518/1008/325
f 515/1005/325 520/1010/325 519/1009/325
f 515/1005/325 521/1011/325 520/1010/325
f 515/1005/325 517/1007/325 521/1011/325
f 517/1012/326 516/1013/326 522/1014/326
f 517/1012/326 522/1014/326 523/1015/326
f 516/1016/327 518/1017/327 524/1018/327
f 516/1016/327 524/1018/327 522/1019/327
f 518/1013/328 519/1012/328 525/1015/328
f 518/1013/328 525/1015/328 524/1014/328
f 519/1012/329 520/1020/329 526/1021/329
f 519/1012/329 526/1021/329 525/1015/329
f 520/1017/330 521/1016/330 527/1019/330
f 520/1017/330 527/1019/330 526/1018/330
f 521/1020/331 517/1012/331 523/1015/331
f 521/1020/331 523/1015/331 527/1021/331
f 523/1015/332 522/1014/332 528/1022/332
f 523/1015/332 528/1022/332 529/1023/332
f 522/1019/333 524/1018/333 530/1024/333
f 522/1019/333 530/1024/333 528/1025/333
f 524/1014/334 525/1015/334 531/1023/334
f 524/1014/334 531/1023/334 530/1022/334
f 525/1015/335 526/1021/335 532/1026/335
f 525/1015/335 532/1026/335 531/1023/335
f 526/1018/336 527/1019/336 533/1025/336
f 526/1018/336 533/1025/336 532/1024/336
f 527/1021/337 523/1015/337 529/1023/337
f 527/1021/337 529/1023/337 533/1026/337
f 534/1027/338 535/1028/338 536/1029/338
f 534/1027/338 536/1029/338 537/1030/338
f 535/1031/339 538/1032/339 539/1033/339
f 535/1031/339 539/1033/339 536/1034/339
f 538/1032/340 540/1035/340 541/1036/340
f 538/1032/340 541/1036/340 539/1033/340
f 540/1035/341 542/1037/341 543/1038/341
f 540/1035/341 543/1038/341 541/1036/341
f 542/1028/342 544/1027/342 545/1030/342
f 542/1028/342 545/1030/342 543/1029/342
f 544/1027/343 546/1039/343 547/1040/343
f 544/1027/343 547/1040/343 545/1030/343
f 546/1037/344 548/1035/344 549/1036/344
f 546/1037/344 549/1036/344 547/1038/344
f 548/1035/345 550/1032/345 551/1033/345
f 548/1035/345 551/1033/345 549/1036/345
f 550/1032/346 552/1031/346 553/1034/346
f 550/1032/346 553/1034/346 551/1033/346
f 552/1039/347 534/1027/347 537/1030/347
f 552/1039/347 537/1030/347 553/1040/347
f 537/1041/348 536/1042/348 554/1043/348
f 537/1030/348 554/1044/348 555/1045/348
f 536/1042/349 539/1046/349 556/1047/349
f 536/1042/349 556/1047/349 554/1043/349
f 539/1033/350 541/1036/350 557/1048/350
f 539/1033/350 557/1048/350 556/1049/350
f 541/1050/351 543/1051/351 558/1052/351
f 541/1050/351 558/1052/351 557/1053/351
f 543/1029/352 545/1030/352 559/1045/352
f 543/1029/352 559/1045/352 558/1044/352
f 545/1030/353 547/1040/353 560/1054/353
f 545/1030/353 560/1054/353 559/1045/353
f 547/1055/354 549/1056/354 561/1057/354
f 547/1055/354 561/1057/354 560/1058/354
f 549/1036/355 551/1033/355 562/1049/355
f 549/1036/355 562/1049/355 561/1048/355
f 551/1059/356 553/1060/356 563/1061/356
f 551/1059/356 563/1061/356 562/1062/356
f 553/1040/357 537/1030/357 555/1045/357
f 553/1060/357 555/1063/357 563/1061/357
f 555/1063/358 554/1043/358 564/1064/358
f 554/1043/359 556/1047/359 564/1064/359
f 556/1047/360 557/1053/360 564/1064/360
f 557/1053/361 558/1052/361 564/1064/361
f 558/1052/362 559/1065/362 564/1064/362
f 559/1065/363 560/1058/363 564/1064/363
f 560/1058/364 561/1057/364 564/1064/364
f 561/1057/365 562/1062/365 564/1064/365
f 562/1062/366 563/1061/366 564/1064/366
f 563/1061/367 555/1063/367 564/1064/367
f 565/1066/368 566/1067/368 567/1068/368
f 565/1066/368 568/1069/368 566/1067/368
f 565/1066/368 569/1070/368 568/1069/368
f 565/1066/368 570/1071/368 569/1070/368
f 565/1066/368 571/1072/368 570/1071/368
f 565/1066/368 567/1068/368 571/1072/368
f 567/1073/369 566/1074/369 572/1075/369
f 567/1073/369 572/1075/369 573/1076/369
f 566/1077/370 568/1078/370 574/1079/370
f 566/1077/370 574/1079/370 572/1080/370
f 568/1074/371 569/1073/371 575/1076/371
f 568/1074/371 575/1076/371 574/1075/371
f 569/1073/372 570/1081/372 576/1082/372
f 569/1073/372 576/1082/372 575/1076/372
f 570/1078/373 571/1077/373 577/1080/373
f 570/1078/373 577/1080/373 576/1079/373
f 571/1081/374 567/1073/374 573/1076/374
f 571/1081/374 573/1076/374 577/1082/374
f 573/1076/375 572/1075/375 578/1083/375
f 573/1076/375 578/1083/375 579/1084/375
f 572/1080/376 574/1079/376 580/1085/376
f 572/1080/376 580/1085/376 578/1086/376
f 574/1075/377 575/1076/377 581/1084/377
f 574/1075/377 581/1084/377 580/1083/377
f 575/1076/378 576/1082/378 582/1087/378
f 575/1076/378 582/1087/378 581/1084/378
f 576/1079/379 577/1080/379 583/1086/379
f 576/1079/379 583/1086/379 582/1085/379
f 577/1082/380 573/1076/380 579/1084/380
f 577/1082/380 579/1084/380 583/1087/380
