# Kthaari freighter, from tools/gen_fleet.py
# Generated by tools. Edit the generator script.
v -0.170220 0.375687 2.151390
v 0.170220 0.375687 2.151390
v 0.170220 0.545907 2.151390
v -0.170220 0.545907 2.151390
v 0.309491 0.306052 1.377663
v -0.309491 0.306052 1.377663
v -0.309491 0.615542 1.377663
v 0.309491 0.615542 1.377663
v -0.111417 0.495185 2.104106
v -0.085626 0.495185 2.104106
v -0.111417 0.469394 2.104106
v -0.111417 0.520976 2.104106
v -0.137208 0.495185 2.104106
v -0.111417 0.495185 2.405000
v 0.111417 0.495185 2.104106
v 0.137208 0.495185 2.104106
v 0.111417 0.469394 2.104106
v 0.111417 0.520976 2.104106
v 0.085626 0.495185 2.104106
v 0.111417 0.495185 2.405000
v -0.128954 0.306052 1.446439
v 0.128954 0.306052 1.446439
v 0.128954 0.529573 1.446439
v -0.128954 0.529573 1.446439
v 0.128954 0.306052 -0.960710
v -0.128954 0.306052 -0.960710
v -0.128954 0.529573 -0.960710
v 0.128954 0.529573 -0.960710
v -0.401908 0.192142 -0.891935
v 0.401908 0.192142 -0.891935
v 0.401908 0.557513 -0.891935
v -0.401908 0.557513 -0.891935
v 0.472833 0.159903 -2.353418
v -0.472833 0.159903 -2.353418
v -0.472833 0.589752 -2.353418
v 0.472833 0.589752 -2.353418
v -0.141850 0.374828 -2.405000
v -0.081060 0.314038 -2.405000
v -0.141850 0.288858 -2.405000
v -0.055880 0.374828 -2.405000
v -0.081060 0.435617 -2.405000
v -0.141850 0.460797 -2.405000
v -0.202640 0.435617 -2.405000
v -0.227819 0.374828 -2.405000
v -0.202640 0.314038 -2.405000
v -0.081060 0.314038 -2.301836
v -0.141850 0.288858 -2.301836
v -0.055880 0.374828 -2.301836
v -0.081060 0.435617 -2.301836
v -0.141850 0.460797 -2.301836
v -0.202640 0.435617 -2.301836
v -0.227819 0.374828 -2.301836
v -0.202640 0.314038 -2.301836
v -0.141850 0.374828 -2.301836
v 0.141850 0.374828 -2.405000
v 0.202640 0.314038 -2.405000
v 0.141850 0.288858 -2.405000
v 0.227819 0.374828 -2.405000
v 0.202640 0.435617 -2.405000
v 0.141850 0.460797 -2.405000
v 0.081060 0.435617 -2.405000
v 0.055880 0.374828 -2.405000
v 0.081060 0.314038 -2.405000
v 0.202640 0.314038 -2.301836
v 0.141850 0.288858 -2.301836
v 0.227819 0.374828 -2.301836
v 0.202640 0.435617 -2.301836
v 0.141850 0.460797 -2.301836
v 0.081060 0.435617 -2.301836
v 0.055880 0.374828 -2.301836
v 0.081060 0.314038 -2.301836
v 0.141850 0.374828 -2.301836
v 0.000000 0.564820 -1.344135
v 0.060638 0.564820 -1.363837
v 0.056022 0.604299 -1.370191
v 0.000000 0.604299 -1.351988
v 0.098114 0.564820 -1.415419
v 0.090646 0.604299 -1.417846
v 0.098114 0.564820 -1.479178
v 0.090646 0.604299 -1.476751
v 0.060638 0.564820 -1.530760
v 0.056022 0.604299 -1.524406
v 0.000000 0.564820 -1.550462
v 0.000000 0.604299 -1.542609
v -0.060638 0.564820 -1.530760
v -0.056022 0.604299 -1.524406
v -0.098114 0.564820 -1.479178
v -0.090646 0.604299 -1.476751
v -0.098114 0.564820 -1.415419
v -0.090646 0.604299 -1.417846
v -0.060638 0.564820 -1.363837
v -0.056022 0.604299 -1.370191
v 0.042878 0.637768 -1.388283
v 0.000000 0.637768 -1.374351
v 0.069377 0.637768 -1.424756
v 0.069377 0.637768 -1.469841
v 0.042878 0.637768 -1.506314
v 0.000000 0.637768 -1.520246
v -0.042878 0.637768 -1.506314
v -0.069377 0.637768 -1.469841
v -0.069377 0.637768 -1.424756
v -0.042878 0.637768 -1.388283
v 0.023205 0.660131 -1.415359
v 0.000000 0.660131 -1.407820
v 0.037547 0.660131 -1.435099
v 0.037547 0.660131 -1.459498
v 0.023205 0.660131 -1.479238
v 0.000000 0.660131 -1.486777
v -0.023205 0.660131 -1.479238
v -0.037547 0.660131 -1.459498
v -0.037547 0.660131 -1.435099
v -0.023205 0.660131 -1.415359
v 0.000000 0.667984 -1.447298
v -0.306912 0.065337 1.150703
v -0.014615 0.065337 1.150703
v -0.014615 0.323246 1.150703
v -0.306912 0.323246 1.150703
v -0.014615 0.065337 0.806825
v -0.306912 0.065337 0.806825
v -0.306912 0.323246 0.806825
v -0.014615 0.323246 0.806825
v 0.014615 0.065337 1.150703
v 0.306912 0.065337 1.150703
v 0.306912 0.323246 1.150703
v 0.014615 0.323246 1.150703
v 0.306912 0.065337 0.806825
v 0.014615 0.065337 0.806825
v 0.014615 0.323246 0.806825
v 0.306912 0.323246 0.806825
v -0.306912 0.065337 0.683029
v -0.014615 0.065337 0.683029
v -0.014615 0.323246 0.683029
v -0.306912 0.323246 0.683029
v -0.014615 0.065337 0.339150
v -0.306912 0.065337 0.339150
v -0.306912 0.323246 0.339150
v -0.014615 0.323246 0.339150
v 0.014615 0.065337 0.683029
v 0.306912 0.065337 0.683029
v 0.306912 0.323246 0.683029
v 0.014615 0.323246 0.683029
v 0.306912 0.065337 0.339150
v 0.014615 0.065337 0.339150
v 0.014615 0.323246 0.339150
v 0.306912 0.323246 0.339150
v -0.306912 0.065337 0.215354
v -0.014615 0.065337 0.215354
v -0.014615 0.323246 0.215354
v -0.306912 0.323246 0.215354
v -0.014615 0.065337 -0.128525
v -0.306912 0.065337 -0.128525
v -0.306912 0.323246 -0.128525
v -0.014615 0.323246 -0.128525
v 0.014615 0.065337 0.215354
v 0.306912 0.065337 0.215354
v 0.306912 0.323246 0.215354
v 0.014615 0.323246 0.215354
v 0.306912 0.065337 -0.128525
v 0.014615 0.065337 -0.128525
v 0.014615 0.323246 -0.128525
v 0.306912 0.323246 -0.128525
v -0.306912 0.065337 -0.252321
v -0.014615 0.065337 -0.252321
v -0.014615 0.323246 -0.252321
v -0.306912 0.323246 -0.252321
v -0.014615 0.065337 -0.596199
v -0.306912 0.065337 -0.596199
v -0.306912 0.323246 -0.596199
v -0.014615 0.323246 -0.596199
v 0.014615 0.065337 -0.252321
v 0.306912 0.065337 -0.252321
v 0.306912 0.323246 -0.252321
v 0.014615 0.323246 -0.252321
v 0.306912 0.065337 -0.596199
v 0.014615 0.065337 -0.596199
v 0.014615 0.323246 -0.596199
v 0.306912 0.323246 -0.596199
v -0.851099 0.297455 -1.261604
v -0.412783 0.297455 -1.175634
v -0.412783 0.297455 -1.777422
v -0.851099 0.194291 -1.261604
v -0.412783 0.194291 -1.777422
v -0.412783 0.194291 -1.175634
v -0.851099 0.297455 -1.734437
v -0.851099 0.194291 -1.734437
v 0.851099 0.297455 -1.261604
v 0.412783 0.297455 -1.777422
v 0.412783 0.297455 -1.175634
v 0.851099 0.194291 -1.261604
v 0.412783 0.194291 -1.175634
v 0.412783 0.194291 -1.777422
v 0.851099 0.297455 -1.734437
v 0.851099 0.194291 -1.734437
v -0.625949 0.293156 -1.363251
v -0.488398 0.293156 -1.363251
v -0.488398 0.327544 -1.363251
v -0.625949 0.327544 -1.363251
v -0.488398 0.293156 -1.603966
v -0.625949 0.293156 -1.603966
v -0.625949 0.327544 -1.603966
v -0.488398 0.327544 -1.603966
v -0.746274 0.293156 -1.369151
v -0.608723 0.293156 -1.369151
v -0.608723 0.327544 -1.369151
v -0.746274 0.327544 -1.369151
v -0.608723 0.293156 -1.609866
v -0.746274 0.293156 -1.609866
v -0.746274 0.327544 -1.609866
v -0.608723 0.327544 -1.609866
v -0.866600 0.293156 -1.375051
v -0.729048 0.293156 -1.375051
v -0.729048 0.327544 -1.375051
v -0.866600 0.327544 -1.375051
v -0.729048 0.293156 -1.615766
v -0.866600 0.293156 -1.615766
v -0.866600 0.327544 -1.615766
v -0.729048 0.327544 -1.615766
v 0.488398 0.293156 -1.363251
v 0.625949 0.293156 -1.363251
v 0.625949 0.327544 -1.363251
v 0.488398 0.327544 -1.363251
v 0.625949 0.293156 -1.603966
v 0.488398 0.293156 -1.603966
v 0.488398 0.327544 -1.603966
v 0.625949 0.327544 -1.603966
v 0.608723 0.293156 -1.369151
v 0.746274 0.293156 -1.369151
v 0.746274 0.327544 -1.369151
v 0.608723 0.327544 -1.369151
v 0.746274 0.293156 -1.609866
v 0.608723 0.293156 -1.609866
v 0.608723 0.327544 -1.609866
v 0.746274 0.327544 -1.609866
v 0.729048 0.293156 -1.375051
v 0.866600 0.293156 -1.375051
v 0.866600 0.327544 -1.375051
v 0.729048 0.327544 -1.375051
v 0.866600 0.293156 -1.615766
v 0.729048 0.293156 -1.615766
v 0.729048 0.327544 -1.615766
v 0.866600 0.327544 -1.615766
v -1.018310 0.017538 -1.149844
v -0.769858 0.017538 -1.149844
v -0.769858 0.216300 -1.149844
v -1.018310 0.216300 -1.149844
v -0.788857 0.032737 -2.353418
v -0.999311 0.032737 -2.353418
v -0.999311 0.201100 -2.353418
v -0.788857 0.201100 -2.353418
v -0.930621 0.213377 -1.378523
v -0.857547 0.213377 -1.378523
v -0.857547 0.248452 -1.378523
v -0.930621 0.248452 -1.378523
v -0.857547 0.213377 -2.124739
v -0.930621 0.213377 -2.124739
v -0.930621 0.248452 -2.124739
v -0.857547 0.248452 -2.124739
v -0.974466 0.051152 -2.181995
v -0.813702 0.051152 -2.181995
v -0.813702 0.182685 -2.181995
v -0.974466 0.182685 -2.181995
v -0.813702 0.051152 -2.217070
v -0.974466 0.051152 -2.217070
v -0.974466 0.182685 -2.217070
v -0.813702 0.182685 -2.217070
v 0.769858 0.017538 -1.149844
v 1.018310 0.017538 -1.149844
v 1.018310 0.216300 -1.149844
v 0.769858 0.216300 -1.149844
v 0.999311 0.032737 -2.353418
v 0.788857 0.032737 -2.353418
v 0.788857 0.201100 -2.353418
v 0.999311 0.201100 -2.353418
v 0.857547 0.213377 -1.378523
v 0.930621 0.213377 -1.378523
v 0.930621 0.248452 -1.378523
v 0.857547 0.248452 -1.378523
v 0.930621 0.213377 -2.124739
v 0.857547 0.213377 -2.124739
v 0.857547 0.248452 -2.124739
v 0.930621 0.248452 -2.124739
v 0.813702 0.051152 -2.181995
v 0.974466 0.051152 -2.181995
v 0.974466 0.182685 -2.181995
v 0.813702 0.182685 -2.181995
v 0.974466 0.051152 -2.217070
v 0.813702 0.051152 -2.217070
v 0.813702 0.182685 -2.217070
v 0.974466 0.182685 -2.217070
v -0.894084 0.000000 -1.158441
v -0.825361 0.022329 -1.158441
v -0.834568 0.035002 -1.099981
v -0.894084 0.015664 -1.099981
v -0.782888 0.080789 -1.158441
v -0.797785 0.085629 -1.099981
v -0.782888 0.153049 -1.158441
v -0.797785 0.148208 -1.099981
v -0.825361 0.211508 -1.158441
v -0.834568 0.198835 -1.099981
v -0.894084 0.233837 -1.158441
v -0.894084 0.218173 -1.099981
v -0.962807 0.211508 -1.158441
v -0.953600 0.198835 -1.099981
v -1.005280 0.153049 -1.158441
v -0.990383 0.148208 -1.099981
v -1.005280 0.080789 -1.158441
v -0.990383 0.085629 -1.099981
v -0.962807 0.022329 -1.158441
v -0.953600 0.035002 -1.099981
v -0.859722 0.069624 -1.057186
v -0.894084 0.058459 -1.057186
v -0.838486 0.098854 -1.057186
v -0.838486 0.134984 -1.057186
v -0.859722 0.164213 -1.057186
v -0.894084 0.175378 -1.057186
v -0.928446 0.164213 -1.057186
v -0.949682 0.134984 -1.057186
v -0.949682 0.098854 -1.057186
v -0.928446 0.069624 -1.057186
v -0.894084 0.116919 -1.041522
v -0.894084 0.073934 -1.192828
v -0.848854 0.047821 -1.192828
v -0.894084 0.021707 -1.192828
v -0.848854 0.100047 -1.192828
v -0.894084 0.126160 -1.192828
v -0.939314 0.100047 -1.192828
v -0.939314 0.047821 -1.192828
v -0.860581 0.054591 -0.462087
v -0.894084 0.035248 -0.462087
v -0.860581 0.093277 -0.462087
v -0.894084 0.112620 -0.462087
v -0.927587 0.093277 -0.462087
v -0.927587 0.054591 -0.462087
v -0.867281 0.058459 -0.333132
v -0.894084 0.042985 -0.333132
v -0.867281 0.089408 -0.333132
v -0.894084 0.104883 -0.333132
v -0.920887 0.089408 -0.333132
v -0.920887 0.058459 -0.333132
v 0.894084 0.000000 -1.158441
v 0.962807 0.022329 -1.158441
v 0.953600 0.035002 -1.099981
v 0.894084 0.015664 -1.099981
v 1.005280 0.080789 -1.158441
v 0.990383 0.085629 -1.099981
v 1.005280 0.153049 -1.158441
v 0.990383 0.148208 -1.099981
v 0.962807 0.211508 -1.158441
v 0.953600 0.198835 -1.099981
v 0.894084 0.233837 -1.158441
v 0.894084 0.218173 -1.099981
v 0.825361 0.211508 -1.158441
v 0.834568 0.198835 -1.099981
v 0.782888 0.153049 -1.158441
v 0.797785 0.148208 -1.099981
v 0.782888 0.080789 -1.158441
v 0.797785 0.085629 -1.099981
v 0.825361 0.022329 -1.158441
v 0.834568 0.035002 -1.099981
v 0.928446 0.069624 -1.057186
v 0.894084 0.058459 -1.057186
v 0.949682 0.098854 -1.057186
v 0.949682 0.134984 -1.057186
v 0.928446 0.164213 -1.057186
v 0.894084 0.175378 -1.057186
v 0.859722 0.164213 -1.057186
v 0.838486 0.134984 -1.057186
v 0.838486 0.098854 -1.057186
v 0.859722 0.069624 -1.057186
v 0.894084 0.116919 -1.041522
v 0.894084 0.073934 -1.192828
v 0.939314 0.047821 -1.192828
v 0.894084 0.021707 -1.192828
v 0.939314 0.100047 -1.192828
v 0.894084 0.126160 -1.192828
v 0.848854 0.100047 -1.192828
v 0.848854 0.047821 -1.192828
v 0.927587 0.054591 -0.462087
v 0.894084 0.035248 -0.462087
v 0.927587 0.093277 -0.462087
v 0.894084 0.112620 -0.462087
v 0.860581 0.093277 -0.462087
v 0.860581 0.054591 -0.462087
v 0.920887 0.058459 -0.333132
v 0.894084 0.042985 -0.333132
v 0.920887 0.089408 -0.333132
v 0.894084 0.104883 -0.333132
v 0.867281 0.089408 -0.333132
v 0.867281 0.058459 -0.333132
vt 0.489844 0.403906
vt 0.541406 0.403906
vt 0.541406 0.455469
vt 0.489844 0.455469
vt 0.195312 0.382812
vt 0.007812 0.382812
vt 0.007812 0.476562
vt 0.195312 0.476562
vt 0.046484 0.656250
vt 0.141016 0.656250
vt 0.179688 0.484375
vt 0.007812 0.484375
vt 0.007812 0.382812
vt 0.195312 0.403906
vt 0.195312 0.455469
vt 0.007812 0.476562
vt 0.718750 0.429688
vt 0.765625 0.429688
vt 0.718750 0.382812
vt 0.718750 0.476562
vt 0.671875 0.429688
vt 0.671875 0.382812
vt 0.671875 0.429688
vt 0.765625 0.429688
vt 0.671875 0.476562
vt 0.718750 0.429688
vt 0.765625 0.429688
vt 0.718750 0.382812
vt 0.718750 0.476562
vt 0.671875 0.429688
vt 0.671875 0.382812
vt 0.671875 0.429688
vt 0.765625 0.429688
vt 0.671875 0.476562
vt 0.187500 0.484375
vt 0.312500 0.484375
vt 0.312500 0.656250
vt 0.187500 0.656250
vt 0.312500 0.484375
vt 0.187500 0.484375
vt 0.187500 0.656250
vt 0.312500 0.656250
vt 0.320312 0.656250
vt 0.382812 0.656250
vt 0.382812 0.484375
vt 0.320312 0.484375
vt 0.187500 0.484375
vt 0.312500 0.484375
vt 0.312500 0.656250
vt 0.187500 0.656250
vt 0.212500 0.389844
vt 0.318750 0.389844
vt 0.318750 0.469531
vt 0.212500 0.469531
vt 0.460938 0.382812
vt 0.335938 0.382812
vt 0.335938 0.476562
vt 0.460938 0.476562
vt 0.358984 0.992188
vt 0.531641 0.992188
vt 0.546875 0.664062
vt 0.343750 0.664062
vt 0.109375 0.296875
vt 0.484375 0.302734
vt 0.484375 0.369141
vt 0.109375 0.375000
vt 0.054687 0.328125
vt 0.087833 0.294979
vt 0.054687 0.281250
vt 0.101562 0.328125
vt 0.087833 0.361271
vt 0.054687 0.375000
vt 0.021542 0.361271
vt 0.007812 0.328125
vt 0.021542 0.294979
vt 0.054687 0.281250
vt 0.087833 0.281250
vt 0.087833 0.375000
vt 0.054687 0.375000
vt 0.007812 0.294979
vt 0.007812 0.328125
vt 0.101562 0.328125
vt 0.101562 0.294979
vt 0.007812 0.361271
vt 0.101562 0.361271
vt 0.021542 0.281250
vt 0.021542 0.375000
vt 0.054687 0.281250
vt 0.087833 0.294979
vt 0.054687 0.328125
vt 0.101562 0.328125
vt 0.087833 0.361271
vt 0.054687 0.375000
vt 0.021542 0.361271
vt 0.007812 0.328125
vt 0.021542 0.294979
vt 0.054688 0.328125
vt 0.087833 0.294979
vt 0.054688 0.281250
vt 0.101562 0.328125
vt 0.087833 0.361271
vt 0.054688 0.375000
vt 0.021542 0.361271
vt 0.007812 0.328125
vt 0.021542 0.294979
vt 0.054688 0.281250
vt 0.087833 0.281250
vt 0.087833 0.375000
vt 0.054688 0.375000
vt 0.007812 0.294979
vt 0.007812 0.328125
vt 0.101562 0.328125
vt 0.101562 0.294979
vt 0.007812 0.361271
vt 0.101562 0.361271
vt 0.021542 0.281250
vt 0.021542 0.375000
vt 0.054688 0.281250
vt 0.087833 0.294979
vt 0.054688 0.328125
vt 0.101562 0.328125
vt 0.087833 0.361271
vt 0.054688 0.375000
vt 0.021542 0.361271
vt 0.007812 0.328125
vt 0.021542 0.294979
vt 0.718750 0.382812
vt 0.747720 0.382812
vt 0.745515 0.418689
vt 0.718750 0.418689
vt 0.756673 0.382812
vt 0.733235 0.382812
vt 0.732133 0.418689
vt 0.753786 0.418689
vt 0.704265 0.382812
vt 0.705367 0.418689
vt 0.680827 0.382812
vt 0.683714 0.418689
vt 0.747720 0.382812
vt 0.718750 0.382812
vt 0.718750 0.418689
vt 0.745515 0.418689
vt 0.689780 0.382812
vt 0.691985 0.418689
vt 0.689780 0.382812
vt 0.691985 0.418689
vt 0.739235 0.449104
vt 0.718750 0.449104
vt 0.728993 0.449104
vt 0.745565 0.449104
vt 0.708507 0.449104
vt 0.691935 0.449104
vt 0.718750 0.449104
vt 0.739235 0.449104
vt 0.698265 0.449104
vt 0.698265 0.449104
vt 0.617188 0.462833
vt 0.637673 0.456503
vt 0.628274 0.444200
vt 0.617188 0.447626
vt 0.650333 0.439930
vt 0.635126 0.435231
vt 0.650333 0.419445
vt 0.635126 0.424144
vt 0.637673 0.402872
vt 0.628274 0.415175
vt 0.617188 0.396542
vt 0.617188 0.411749
vt 0.596702 0.402872
vt 0.606101 0.415175
vt 0.584042 0.419445
vt 0.599249 0.424144
vt 0.584042 0.439930
vt 0.599249 0.435231
vt 0.596702 0.456503
vt 0.606101 0.444200
vt 0.617188 0.429688
vt 0.875000 0.382812
vt 0.968750 0.382812
vt 0.968750 0.476562
vt 0.875000 0.476562
vt 0.968750 0.382812
vt 0.875000 0.382812
vt 0.875000 0.476562
vt 0.968750 0.476562
vt 0.773438 0.476562
vt 0.867188 0.476562
vt 0.867188 0.382812
vt 0.773438 0.382812
vt 0.875000 0.382812
vt 0.968750 0.382812
vt 0.968750 0.476562
vt 0.875000 0.476562
vt 0.875000 0.382812
vt 0.968750 0.382812
vt 0.968750 0.476562
vt 0.875000 0.476562
vt 0.968750 0.382812
vt 0.875000 0.382812
vt 0.875000 0.476562
vt 0.968750 0.476562
vt 0.773438 0.476562
vt 0.867188 0.476562
vt 0.867188 0.382812
vt 0.773438 0.382812
vt 0.875000 0.382812
vt 0.968750 0.382812
vt 0.968750 0.476562
vt 0.875000 0.476562
vt 0.875000 0.382812
vt 0.968750 0.382812
vt 0.968750 0.476562
vt 0.875000 0.476562
vt 0.968750 0.382812
vt 0.875000 0.382812
vt 0.875000 0.476562
vt 0.968750 0.476562
vt 0.773438 0.476562
vt 0.867188 0.476562
vt 0.867188 0.382812
vt 0.773438 0.382812
vt 0.875000 0.382812
vt 0.968750 0.382812
vt 0.968750 0.476562
vt 0.875000 0.476562
vt 0.875000 0.382812
vt 0.968750 0.382812
vt 0.968750 0.476562
vt 0.875000 0.476562
vt 0.968750 0.382812
vt 0.875000 0.382812
vt 0.875000 0.476562
vt 0.968750 0.476562
vt 0.773438 0.476562
vt 0.867188 0.476562
vt 0.867188 0.382812
vt 0.773438 0.382812
vt 0.875000 0.382812
vt 0.968750 0.382812
vt 0.968750 0.476562
vt 0.875000 0.476562
vt 0.875000 0.382812
vt 0.968750 0.382812
vt 0.968750 0.476562
vt 0.875000 0.476562
vt 0.968750 0.382812
vt 0.875000 0.382812
vt 0.875000 0.476562
vt 0.968750 0.476562
vt 0.773438 0.476562
vt 0.867188 0.476562
vt 0.867188 0.382812
vt 0.773438 0.382812
vt 0.875000 0.382812
vt 0.968750 0.382812
vt 0.968750 0.476562
vt 0.875000 0.476562
vt 0.875000 0.382812
vt 0.968750 0.382812
vt 0.968750 0.476562
vt 0.875000 0.476562
vt 0.968750 0.382812
vt 0.875000 0.382812
vt 0.875000 0.476562
vt 0.968750 0.476562
vt 0.773438 0.476562
vt 0.867188 0.476562
vt 0.867188 0.382812
vt 0.773438 0.382812
vt 0.875000 0.382812
vt 0.968750 0.382812
vt 0.968750 0.476562
vt 0.875000 0.476562
vt 0.875000 0.382812
vt 0.968750 0.382812
vt 0.968750 0.476562
vt 0.875000 0.476562
vt 0.968750 0.382812
vt 0.875000 0.382812
vt 0.875000 0.476562
vt 0.968750 0.476562
vt 0.773438 0.476562
vt 0.867188 0.476562
vt 0.867188 0.382812
vt 0.773438 0.382812
vt 0.875000 0.382812
vt 0.968750 0.382812
vt 0.968750 0.476562
vt 0.875000 0.476562
vt 0.875000 0.382812
vt 0.968750 0.382812
vt 0.968750 0.476562
vt 0.875000 0.476562
vt 0.968750 0.382812
vt 0.875000 0.382812
vt 0.875000 0.476562
vt 0.968750 0.476562
vt 0.773438 0.476562
vt 0.867188 0.476562
vt 0.867188 0.382812
vt 0.773438 0.382812
vt 0.875000 0.382812
vt 0.968750 0.382812
vt 0.968750 0.476562
vt 0.875000 0.476562
vt 0.632812 0.960938
vt 0.976562 0.992188
vt 0.976562 0.773438
vt 0.632812 0.789062
vt 0.382812 0.132812
vt 0.007812 0.101562
vt 0.007812 0.132812
vt 0.382812 0.101562
vt 0.382812 0.132812
vt 0.007812 0.101562
vt 0.007812 0.132812
vt 0.382812 0.101562
vt 0.034598 0.132812
vt 0.329241 0.101562
vt 0.329241 0.132812
vt 0.034598 0.101562
vt 0.007812 0.132812
vt 0.382812 0.101562
vt 0.382812 0.132812
vt 0.007812 0.101562
vt 0.976562 0.960938
vt 0.632812 0.773438
vt 0.632812 0.992188
vt 0.976562 0.789062
vt 0.382812 0.132812
vt 0.007812 0.132812
vt 0.007812 0.101562
vt 0.382812 0.101562
vt 0.007812 0.132812
vt 0.382812 0.132812
vt 0.382812 0.101562
vt 0.007812 0.101562
vt 0.034598 0.132812
vt 0.329241 0.132812
vt 0.329241 0.101562
vt 0.034598 0.101562
vt 0.382812 0.132812
vt 0.007812 0.132812
vt 0.007812 0.101562
vt 0.382812 0.101562
vt 0.731528 0.382812
vt 0.765625 0.382812
vt 0.765625 0.476562
vt 0.731528 0.476562
vt 0.765625 0.382812
vt 0.731528 0.382812
vt 0.731528 0.476562
vt 0.765625 0.476562
vt 0.629966 0.476562
vt 0.664062 0.476562
vt 0.664062 0.387193
vt 0.629966 0.387193
vt 0.676256 0.382812
vt 0.765625 0.382812
vt 0.765625 0.476562
vt 0.676256 0.476562
vt 0.701702 0.382812
vt 0.735798 0.382812
vt 0.735798 0.476562
vt 0.701702 0.476562
vt 0.735798 0.382812
vt 0.701702 0.382812
vt 0.701702 0.476562
vt 0.735798 0.476562
vt 0.600139 0.474372
vt 0.634236 0.474372
vt 0.634236 0.385003
vt 0.600139 0.385003
vt 0.674065 0.382812
vt 0.763435 0.382812
vt 0.763435 0.476562
vt 0.674065 0.476562
vt 0.671875 0.382812
vt 0.705972 0.382812
vt 0.705972 0.476562
vt 0.671875 0.476562
vt 0.705972 0.382812
vt 0.671875 0.382812
vt 0.671875 0.476562
vt 0.705972 0.476562
vt 0.570312 0.472182
vt 0.604409 0.472182
vt 0.604409 0.382812
vt 0.570312 0.382812
vt 0.671875 0.382812
vt 0.761244 0.382812
vt 0.761244 0.476562
vt 0.671875 0.476562
vt 0.671875 0.382812
vt 0.705972 0.382812
vt 0.705972 0.476562
vt 0.671875 0.476562
vt 0.705972 0.382812
vt 0.671875 0.382812
vt 0.671875 0.476562
vt 0.705972 0.476562
vt 0.570312 0.476562
vt 0.604409 0.476562
vt 0.604409 0.387193
vt 0.570312 0.387193
vt 0.676256 0.382812
vt 0.765625 0.382812
vt 0.765625 0.476562
vt 0.676256 0.476562
vt 0.701702 0.382812
vt 0.735798 0.382812
vt 0.735798 0.476562
vt 0.701702 0.476562
vt 0.735798 0.382812
vt 0.701702 0.382812
vt 0.701702 0.476562
vt 0.735798 0.476562
vt 0.600139 0.474372
vt 0.634236 0.474372
vt 0.634236 0.385003
vt 0.600139 0.385003
vt 0.674065 0.382812
vt 0.763435 0.382812
vt 0.763435 0.476562
vt 0.674065 0.476562
vt 0.731528 0.382812
vt 0.765625 0.382812
vt 0.765625 0.476562
vt 0.731528 0.476562
vt 0.765625 0.382812
vt 0.731528 0.382812
vt 0.731528 0.476562
vt 0.765625 0.476562
vt 0.629966 0.472182
vt 0.664062 0.472182
vt 0.664062 0.382812
vt 0.629966 0.382812
vt 0.671875 0.382812
vt 0.761244 0.382812
vt 0.761244 0.476562
vt 0.671875 0.476562
vt 0.390625 0.195312
vt 0.484375 0.195312
vt 0.484375 0.262559
vt 0.390625 0.262559
vt 0.578768 0.200455
vt 0.499357 0.200455
vt 0.499357 0.257417
vt 0.578768 0.257417
vt 0.554688 0.992188
vt 0.625000 0.992188
vt 0.619623 0.664062
vt 0.560064 0.664062
vt 0.492188 0.302017
vt 0.867188 0.296875
vt 0.867188 0.364122
vt 0.492188 0.358979
vt 0.382812 0.195312
vt 0.354136 0.200455
vt 0.354136 0.257417
vt 0.382812 0.262559
vt 0.423713 0.261570
vt 0.451287 0.261570
vt 0.451287 0.273438
vt 0.423713 0.273438
vt 0.552849 0.261570
vt 0.525276 0.261570
vt 0.525276 0.273438
vt 0.552849 0.273438
vt 0.579504 0.929844
vt 0.600184 0.929844
vt 0.600184 0.726406
vt 0.579504 0.726406
vt 0.563437 0.363133
vt 0.795937 0.363133
vt 0.795937 0.375000
vt 0.563437 0.375000
vt 0.250460 0.261570
vt 0.250460 0.273438
vt 0.407169 0.206685
vt 0.467831 0.206685
vt 0.467831 0.251187
vt 0.407169 0.251187
vt 0.569393 0.206685
vt 0.508732 0.206685
vt 0.508732 0.251187
vt 0.569393 0.251187
vt 0.567096 0.710797
vt 0.612592 0.710797
vt 0.612592 0.701234
vt 0.567096 0.701234
vt 0.534670 0.308248
vt 0.545598 0.308248
vt 0.545598 0.352749
vt 0.534670 0.352749
vt 0.316636 0.206685
vt 0.316636 0.251187
vt 0.390625 0.195312
vt 0.484375 0.195312
vt 0.484375 0.262559
vt 0.390625 0.262559
vt 0.578768 0.200455
vt 0.499357 0.200455
vt 0.499357 0.257417
vt 0.578768 0.257417
vt 0.554688 0.992188
vt 0.625000 0.992188
vt 0.619623 0.664062
vt 0.560064 0.664062
vt 0.036489 0.200455
vt 0.007812 0.195312
vt 0.007812 0.262559
vt 0.036489 0.257417
vt 0.867188 0.296875
vt 0.492188 0.302017
vt 0.492188 0.358979
vt 0.867188 0.364122
vt 0.423713 0.261570
vt 0.451287 0.261570
vt 0.451287 0.273438
vt 0.423713 0.273438
vt 0.552849 0.261570
vt 0.525276 0.261570
vt 0.525276 0.273438
vt 0.552849 0.273438
vt 0.579504 0.929844
vt 0.600184 0.929844
vt 0.600184 0.726406
vt 0.579504 0.726406
vt 0.140165 0.261570
vt 0.140165 0.273438
vt 0.795937 0.363133
vt 0.563437 0.363133
vt 0.563437 0.375000
vt 0.795937 0.375000
vt 0.407169 0.206685
vt 0.467831 0.206685
vt 0.467831 0.251187
vt 0.407169 0.251187
vt 0.569393 0.206685
vt 0.508732 0.206685
vt 0.508732 0.251187
vt 0.569393 0.251187
vt 0.567096 0.710797
vt 0.612592 0.710797
vt 0.612592 0.701234
vt 0.567096 0.701234
vt 0.073989 0.206685
vt 0.073989 0.251187
vt 0.545598 0.308248
vt 0.534670 0.308248
vt 0.534670 0.352749
vt 0.545598 0.352749
vt 0.054687 0.281250
vt 0.083658 0.281250
vt 0.079777 0.328125
vt 0.054687 0.328125
vt 0.007812 0.290202
vt 0.007812 0.313640
vt 0.054687 0.315580
vt 0.054687 0.295283
vt 0.007812 0.342610
vt 0.054687 0.340670
vt 0.007812 0.366048
vt 0.054687 0.360967
vt 0.025717 0.281250
vt 0.029598 0.328125
vt 0.054687 0.287530
vt 0.079777 0.295283
vt 0.069173 0.309164
vt 0.054687 0.304688
vt 0.095282 0.315580
vt 0.078125 0.320882
vt 0.089002 0.335368
vt 0.089002 0.320882
vt 0.095282 0.340670
vt 0.079777 0.360967
vt 0.069173 0.347086
vt 0.078125 0.335368
vt 0.054687 0.368720
vt 0.054687 0.351562
vt 0.029598 0.360967
vt 0.040202 0.347086
vt 0.014093 0.340670
vt 0.031250 0.335368
vt 0.014093 0.315580
vt 0.029598 0.295283
vt 0.040202 0.309164
vt 0.031250 0.320882
vt 0.054687 0.328125
vt 0.718750 0.429688
vt 0.765625 0.406250
vt 0.718750 0.382812
vt 0.765625 0.453125
vt 0.718750 0.476562
vt 0.671875 0.453125
vt 0.671875 0.406250
vt 0.617188 0.382812
vt 0.664062 0.382812
vt 0.651910 0.462500
vt 0.617188 0.462500
vt 0.671875 0.406250
vt 0.671875 0.453125
vt 0.751563 0.447049
vt 0.751563 0.412326
vt 0.570312 0.382812
vt 0.582465 0.462500
vt 0.644965 0.476562
vt 0.617188 0.476562
vt 0.765625 0.443576
vt 0.765625 0.415799
vt 0.589410 0.476562
vt 0.054688 0.281250
vt 0.083658 0.281250
vt 0.079777 0.328125
vt 0.054688 0.328125
vt 0.007812 0.290202
vt 0.007812 0.313640
vt 0.054687 0.315580
vt 0.054687 0.295283
vt 0.007812 0.342610
vt 0.054687 0.340670
vt 0.007812 0.366048
vt 0.054687 0.360967
vt 0.025717 0.281250
vt 0.029598 0.328125
vt 0.054688 0.287530
vt 0.079777 0.295283
vt 0.069173 0.309164
vt 0.054688 0.304688
vt 0.095282 0.315580
vt 0.078125 0.320882
vt 0.089002 0.335368
vt 0.089002 0.320882
vt 0.095282 0.340670
vt 0.079777 0.360967
vt 0.069173 0.347086
vt 0.078125 0.335368
vt 0.054688 0.368720
vt 0.054688 0.351562
vt 0.029598 0.360967
vt 0.040202 0.347086
vt 0.014093 0.340670
vt 0.031250 0.335368
vt 0.014093 0.315580
vt 0.029598 0.295283
vt 0.040202 0.309164
vt 0.031250 0.320882
vt 0.054688 0.328125
vt 0.718750 0.429688
vt 0.765625 0.406250
vt 0.718750 0.382812
vt 0.765625 0.453125
vt 0.718750 0.476562
vt 0.671875 0.453125
vt 0.671875 0.406250
vt 0.617188 0.382812
vt 0.664062 0.382812
vt 0.651910 0.462500
vt 0.617188 0.462500
vt 0.671875 0.406250
vt 0.671875 0.453125
vt 0.751563 0.447049
vt 0.751563 0.412326
vt 0.570312 0.382812
vt 0.582465 0.462500
vt 0.644965 0.476562
vt 0.617188 0.476562
vt 0.765625 0.443576
vt 0.765625 0.415799
vt 0.589410 0.476562
vn 0.000000 0.000000 1.000000
vn 0.000000 0.000000 -1.000000
vn -0.000000 0.995974 0.089638
vn 0.000000 -0.995974 0.089638
vn -0.984183 0.000000 0.177153
vn 0.984183 0.000000 0.177153
vn 0.000000 0.000000 -1.000000
vn 0.705812 -0.705812 0.060498
vn 0.705812 0.705812 0.060498
vn -0.705812 0.705812 0.060498
vn -0.705812 -0.705812 0.060498
vn 0.000000 0.000000 -1.000000
vn 0.705812 -0.705812 0.060498
vn 0.705812 0.705812 0.060498
vn -0.705812 0.705812 0.060498
vn -0.705812 -0.705812 0.060498
vn 0.000000 0.000000 1.000000
vn 0.000000 0.000000 -1.000000
vn -0.000000 1.000000 0.000000
vn 0.000000 -1.000000 0.000000
vn -1.000000 0.000000 0.000000
vn 1.000000 0.000000 0.000000
vn 0.000000 0.000000 1.000000
vn 0.000000 0.000000 -1.000000
vn -0.000000 0.999757 0.022053
vn 0.000000 -0.999757 0.022053
vn -0.998825 0.000000 0.048472
vn 0.998825 0.000000 0.048472
vn 0.000000 0.000000 -1.000000
vn 0.382683 -0.923880 0.000000
vn 0.923880 -0.382683 0.000000
vn 0.923880 0.382683 0.000000
vn 0.382683 0.923880 0.000000
vn -0.382683 0.923880 0.000000
vn -0.923880 0.382683 0.000000
vn -0.923880 -0.382683 0.000000
vn -0.382683 -0.923880 0.000000
vn 0.000000 0.000000 1.000000
vn 0.000000 0.000000 -1.000000
vn 0.382683 -0.923880 0.000000
vn 0.923880 -0.382683 0.000000
vn 0.923880 0.382683 0.000000
vn 0.382683 0.923880 0.000000
vn -0.382683 0.923880 0.000000
vn -0.923880 0.382683 0.000000
vn -0.923880 -0.382683 0.000000
vn -0.382683 -0.923880 0.000000
vn 0.000000 0.000000 1.000000
vn 0.303632 0.185880 0.934482
vn 0.794918 0.185880 0.577542
vn 0.982572 0.185880 0.000000
vn 0.794918 0.185880 -0.577542
vn 0.303632 0.185880 -0.934482
vn -0.303632 0.185880 -0.934482
vn -0.794918 0.185880 -0.577542
vn -0.982572 0.185880 -0.000000
vn -0.794918 0.185880 0.577542
vn -0.303632 0.185880 0.934482
vn 0.260811 0.536342 0.802692
vn 0.682811 0.536342 0.496091
vn 0.844001 0.536342 0.000000
vn 0.682811 0.536342 -0.496091
vn 0.260811 0.536342 -0.802692
vn -0.260811 0.536342 -0.802692
vn -0.682811 0.536342 -0.496091
vn -0.844001 0.536342 -0.000000
vn -0.682811 0.536342 0.496091
vn -0.260811 0.536342 0.802692
vn 0.177645 0.818245 0.546734
vn 0.465079 0.818245 0.337900
vn 0.574870 0.818245 0.000000
vn 0.465079 0.818245 -0.337900
vn 0.177645 0.818245 -0.546734
vn -0.177645 0.818245 -0.546734
vn -0.465079 0.818245 -0.337900
vn -0.574870 0.818245 -0.000000
vn -0.465079 0.818245 0.337900
vn -0.177645 0.818245 0.546734
vn 0.063262 0.978821 0.194700
vn 0.165621 0.978821 0.120331
vn 0.204719 0.978821 0.000000
vn 0.165621 0.978821 -0.120331
vn 0.063262 0.978821 -0.194700
vn -0.063262 0.978821 -0.194700
vn -0.165621 0.978821 -0.120331
vn -0.204719 0.978821 0.000000
vn -0.165621 0.978821 0.120331
vn -0.063262 0.978821 0.194700
vn 0.000000 0.000000 1.000000
vn 0.000000 0.000000 -1.000000
vn -0.000000 1.000000 0.000000
vn 0.000000 -1.000000 0.000000
vn -1.000000 0.000000 0.000000
vn 1.000000 0.000000 0.000000
vn 0.000000 0.000000 1.000000
vn 0.000000 0.000000 -1.000000
vn -0.000000 1.000000 0.000000
vn 0.000000 -1.000000 0.000000
vn -1.000000 0.000000 0.000000
vn 1.000000 0.000000 0.000000
vn 0.000000 0.000000 1.000000
vn 0.000000 0.000000 -1.000000
vn -0.000000 1.000000 0.000000
vn 0.000000 -1.000000 0.000000
vn -1.000000 0.000000 0.000000
vn 1.000000 0.000000 0.000000
vn 0.000000 0.000000 1.000000
vn 0.000000 0.000000 -1.000000
vn -0.000000 1.000000 0.000000
vn 0.000000 -1.000000 0.000000
vn -1.000000 0.000000 0.000000
vn 1.000000 0.000000 0.000000
vn 0.000000 0.000000 1.000000
vn 0.000000 0.000000 -1.000000
vn -0.000000 1.000000 0.000000
vn 0.000000 -1.000000 0.000000
vn -1.000000 0.000000 0.000000
vn 1.000000 0.000000 0.000000
vn 0.000000 0.000000 1.000000
vn 0.000000 0.000000 -1.000000
vn -0.000000 1.000000 0.000000
vn 0.000000 -1.000000 0.000000
vn -1.000000 0.000000 0.000000
vn 1.000000 0.000000 0.000000
vn 0.000000 0.000000 1.000000
vn 0.000000 0.000000 -1.000000
vn -0.000000 1.000000 0.000000
vn 0.000000 -1.000000 0.000000
vn -1.000000 0.000000 0.000000
vn 1.000000 0.000000 0.000000
vn 0.000000 0.000000 1.000000
vn 0.000000 0.000000 -1.000000
vn -0.000000 1.000000 0.000000
vn 0.000000 -1.000000 0.000000
vn -1.000000 0.000000 0.000000
vn 1.000000 0.000000 0.000000
vn -0.000000 1.000000 0.000000
vn 0.000000 -1.000000 0.000000
vn 1.000000 0.000000 0.000000
vn -0.097600 0.000000 -0.995226
vn -1.000000 0.000000 0.000000
vn -0.192469 0.000000 0.981303
vn 0.000000 1.000000 0.000000
vn -0.000000 -1.000000 0.000000
vn -1.000000 0.000000 -0.000000
vn 0.097600 0.000000 -0.995226
vn 1.000000 0.000000 -0.000000
vn 0.192469 0.000000 0.981303
vn 0.000000 0.000000 1.000000
vn 0.000000 0.000000 -1.000000
vn -0.000000 1.000000 0.000000
vn 0.000000 -1.000000 0.000000
vn -1.000000 0.000000 0.000000
vn 1.000000 0.000000 0.000000
vn 0.000000 0.000000 1.000000
vn 0.000000 0.000000 -1.000000
vn -0.000000 1.000000 0.000000
vn 0.000000 -1.000000 0.000000
vn -1.000000 0.000000 0.000000
vn 1.000000 0.000000 0.000000
vn 0.000000 0.000000 1.000000
vn 0.000000 0.000000 -1.000000
vn 0.000000 0.999920 -0.012628
vn 0.000000 -0.999920 -0.012628
vn -0.999875 0.000000 -0.015784
vn 0.999875 0.000000 -0.015784
vn -0.000000 1.000000 0.000000
vn 0.000000 -1.000000 0.000000
vn -1.000000 0.000000 0.000000
vn 1.000000 0.000000 0.000000
vn 0.000000 0.000000 1.000000
vn 0.000000 0.000000 -1.000000
vn 0.000000 0.999920 -0.012628
vn 0.000000 -0.999920 -0.012628
vn -0.999875 0.000000 -0.015784
vn 0.999875 0.000000 -0.015784
vn -0.000000 1.000000 0.000000
vn 0.000000 -1.000000 0.000000
vn -1.000000 0.000000 0.000000
vn 1.000000 0.000000 0.000000
vn 0.299447 -0.921602 0.246943
vn 0.783962 -0.569582 0.246943
vn 0.969030 -0.000000 0.246943
vn 0.783962 0.569582 0.246943
vn 0.299447 0.921602 0.246943
vn -0.299447 0.921602 0.246943
vn -0.783962 0.569582 0.246943
vn -0.969030 0.000000 0.246943
vn -0.783962 -0.569582 0.246943
vn -0.299447 -0.921602 0.246943
vn 0.223919 -0.689152 0.689152
vn 0.586227 -0.425919 0.689152
vn 0.724617 -0.000000 0.689152
vn 0.586227 0.425919 0.689152
vn 0.223919 0.689152 0.689152
vn -0.223919 0.689152 0.689152
vn -0.586227 0.425919 0.689152
vn -0.724617 0.000000 0.689152
vn -0.586227 -0.425919 0.689152
vn -0.223919 -0.689152 0.689152
vn 0.083800 -0.257909 0.962528
vn 0.219390 -0.159396 0.962528
vn 0.271181 -0.000000 0.962528
vn 0.219390 0.159396 0.962528
vn 0.083800 0.257909 0.962528
vn -0.083800 0.257909 0.962528
vn -0.219390 0.159396 0.962528
vn -0.271181 0.000000 0.962528
vn -0.219390 -0.159396 0.962528
vn -0.083800 -0.257909 0.962528
vn 0.000000 0.000000 -1.000000
vn 0.499936 -0.865914 0.016045
vn 0.999871 -0.000000 0.016045
vn 0.499936 0.865914 0.016045
vn -0.499936 0.865914 0.016045
vn -0.999871 0.000000 0.016045
vn -0.499936 -0.865914 0.016045
vn 0.499326 -0.864859 0.051892
vn 0.998653 -0.000000 0.051892
vn 0.499326 0.864859 0.051892
vn -0.499326 0.864859 0.051892
vn -0.998653 0.000000 0.051892
vn -0.499326 -0.864859 0.051892
vn 0.299447 -0.921602 0.246943
vn 0.783962 -0.569582 0.246943
vn 0.969030 -0.000000 0.246943
vn 0.783962 0.569582 0.246943
vn 0.299447 0.921602 0.246943
vn -0.299447 0.921602 0.246943
vn -0.783962 0.569582 0.246943
vn -0.969030 0.000000 0.246943
vn -0.783962 -0.569582 0.246943
vn -0.299447 -0.921602 0.246943
vn 0.223919 -0.689152 0.689152
vn 0.586227 -0.425919 0.689152
vn 0.724617 -0.000000 0.689152
vn 0.586227 0.425919 0.689152
vn 0.223919 0.689152 0.689152
vn -0.223919 0.689152 0.689152
vn -0.586227 0.425919 0.689152
vn -0.724617 0.000000 0.689152
vn -0.586227 -0.425919 0.689152
vn -0.223919 -0.689152 0.689152
vn 0.083800 -0.257909 0.962528
vn 0.219390 -0.159396 0.962528
vn 0.271181 -0.000000 0.962528
vn 0.219390 0.159396 0.962528
vn 0.083800 0.257909 0.962528
vn -0.083800 0.257909 0.962528
vn -0.219390 0.159396 0.962528
vn -0.271181 0.000000 0.962528
vn -0.219390 -0.159396 0.962528
vn -0.083800 -0.257909 0.962528
vn 0.000000 0.000000 -1.000000
vn 0.499936 -0.865914 0.016045
vn 0.999871 -0.000000 0.016045
vn 0.499936 0.865914 0.016045
vn -0.499936 0.865914 0.016045
vn -0.999871 0.000000 0.016045
vn -0.499936 -0.865914 0.016045
vn 0.499326 -0.864859 0.051892
vn 0.998653 -0.000000 0.051892
vn 0.499326 0.864859 0.051892
vn -0.499326 0.864859 0.051892
vn -0.998653 0.000000 0.051892
vn -0.499326 -0.864859 0.051892
f 1/1/1 2/2/1 3/3/1
f 1/1/1 3/3/1 4/4/1
f 5/5/2 6/6/2 7/7/2
f 5/5/2 7/7/2 8/8/2
f 4/9/3 3/10/3 8/11/3
f 4/9/3 8/11/3 7/12/3
f 6/12/4 5/11/4 2/10/4
f 6/12/4 2/10/4 1/9/4
f 6/13/5 1/14/5 4/15/5
f 6/13/5 4/15/5 7/16/5
f 2/14/6 5/13/6 8/16/6
f 2/14/6 8/16/6 3/15/6
f 9/17/7 10/18/7 11/19/7
f 9/17/7 12/20/7 10/18/7
f 9/17/7 13/21/7 12/20/7
f 9/17/7 11/19/7 13/21/7
f 11/22/8 10/23/8 14/24/8
f 10/23/9 12/25/9 14/24/9
f 12/25/10 13/23/10 14/24/10
f 13/23/11 11/22/11 14/24/11
f 15/26/12 16/27/12 17/28/12
f 15/26/12 18/29/12 16/27/12
f 15/26/12 19/30/12 18/29/12
f 15/26/12 17/28/12 19/30/12
f 17/31/13 16/32/13 20/33/13
f 16/32/14 18/34/14 20/33/14
f 18/34/15 19/32/15 20/33/15
f 19/32/16 17/31/16 20/33/16
f 21/35/17 22/36/17 23/37/17
f 21/35/17 23/37/17 24/38/17
f 25/39/18 26/40/18 27/41/18
f 25/39/18 27/41/18 28/42/18
f 24/43/19 23/44/19 28/45/19
f 24/43/19 28/45/19 27/46/19
f 26/46/20 25/45/20 22/44/20
f 26/46/20 22/44/20 21/43/20
f 26/47/21 21/48/21 24/49/21
f 26/47/21 24/49/21 27/50/21
f 22/48/22 25/47/22 28/50/22
f 22/48/22 28/50/22 23/49/22
f 29/51/23 30/52/23 31/53/23
f 29/51/23 31/53/23 32/54/23
f 33/55/24 34/56/24 35/57/24
f 33/55/24 35/57/24 36/58/24
f 32/59/25 31/60/25 36/61/25
f 32/59/25 36/61/25 35/62/25
f 34/62/26 33/61/26 30/60/26
f 34/62/26 30/60/26 29/59/26
f 34/63/27 29/64/27 32/65/27
f 34/63/27 32/65/27 35/66/27
f 30/64/28 33/63/28 36/66/28
f 30/64/28 36/66/28 31/65/28
f 37/67/29 38/68/29 39/69/29
f 37/67/29 40/70/29 38/68/29
f 37/67/29 41/71/29 40/70/29
f 37/67/29 42/72/29 41/71/29
f 37/67/29 43/73/29 42/72/29
f 37/67/29 44/74/29 43/73/29
f 37/67/29 45/75/29 44/74/29
f 37/67/29 39/69/29 45/75/29
f 39/76/30 38/77/30 46/78/30
f 39/76/30 46/78/30 47/79/30
f 38/80/31 40/81/31 48/82/31
f 38/80/31 48/82/31 46/83/31
f 40/81/32 41/84/32 49/85/32
f 40/81/32 49/85/32 48/82/32
f 41/77/33 42/76/33 50/79/33
f 41/77/33 50/79/33 49/78/33
f 42/76/34 43/86/34 51/87/34
f 42/76/34 51/87/34 50/79/34
f 43/84/35 44/81/35 52/82/35
f 43/84/35 52/82/35 51/85/35
f 44/81/36 45/80/36 53/83/36
f 44/81/36 53/83/36 52/82/36
f 45/86/37 39/76/37 47/79/37
f 45/86/37 47/79/37 53/87/37
f 47/88/38 46/89/38 54/90/38
f 46/89/38 48/91/38 54/90/38
f 48/91/38 49/92/38 54/90/38
f 49/92/38 50/93/38 54/90/38
f 50/93/38 51/94/38 54/90/38
f 51/94/38 52/95/38 54/90/38
f 52/95/38 53/96/38 54/90/38
f 53/96/38 47/88/38 54/90/38
f 55/97/39 56/98/39 57/99/39
f 55/97/39 58/100/39 56/98/39
f 55/97/39 59/101/39 58/100/39
f 55/97/39 60/102/39 59/101/39
f 55/97/39 61/103/39 60/102/39
f 55/97/39 62/104/39 61/103/39
f 55/97/39 63/105/39 62/104/39
f 55/97/39 57/99/39 63/105/39
f 57/106/40 56/107/40 64/108/40
f 57/106/40 64/108/40 65/109/40
f 56/110/41 58/111/41 66/112/41
f 56/110/41 66/112/41 64/113/41
f 58/111/42 59/114/42 67/115/42
f 58/111/42 67/115/42 66/112/42
f 59/107/43 60/106/43 68/109/43
f 59/107/43 68/109/43 67/108/43
f 60/106/44 61/116/44 69/117/44
f 60/106/44 69/117/44 68/109/44
f 61/114/45 62/111/45 70/112/45
f 61/114/45 70/112/45 69/115/45
f 62/111/46 63/110/46 71/113/46
f 62/111/46 71/113/46 70/112/46
f 63/116/47 57/106/47 65/109/47
f 63/116/47 65/109/47 71/117/47
f 65/118/48 64/119/48 72/120/48
f 64/119/48 66/121/48 72/120/48
f 66/121/48 67/122/48 72/120/48
f 67/122/48 68/123/48 72/120/48
f 68/123/48 69/124/48 72/120/48
f 69/124/48 70/125/48 72/120/48
f 70/125/48 71/126/48 72/120/48
f 71/126/48 65/118/48 72/120/48
f 73/127/49 74/128/49 75/129/49
f 73/127/49 75/129/49 76/130/49
f 74/131/50 77/132/50 78/133/50
f 74/131/50 78/133/50 75/134/50
f 77/132/51 79/135/51 80/136/51
f 77/132/51 80/136/51 78/133/51
f 79/135/52 81/137/52 82/138/52
f 79/135/52 82/138/52 80/136/52
f 81/139/53 83/140/53 84/141/53
f 81/139/53 84/141/53 82/142/53
f 83/140/54 85/143/54 86/144/54
f 83/140/54 86/144/54 84/141/54
f 85/137/55 87/135/55 88/136/55
f 85/137/55 88/136/55 86/138/55
f 87/135/56 89/132/56 90/133/56
f 87/135/56 90/133/56 88/136/56
f 89/132/57 91/131/57 92/134/57
f 89/132/57 92/134/57 90/133/57
f 91/145/58 73/127/58 76/130/58
f 91/145/58 76/130/58 92/146/58
f 76/130/59 75/129/59 93/147/59
f 76/130/59 93/147/59 94/148/59
f 75/134/60 78/133/60 95/149/60
f 75/134/60 95/149/60 93/150/60
f 78/133/61 80/136/61 96/151/61
f 78/133/61 96/151/61 95/149/61
f 80/136/62 82/138/62 97/152/62
f 80/136/62 97/152/62 96/151/62
f 82/142/63 84/141/63 98/153/63
f 82/142/63 98/153/63 97/154/63
f 84/141/64 86/144/64 99/155/64
f 84/141/64 99/155/64 98/153/64
f 86/138/65 88/136/65 100/151/65
f 86/138/65 100/151/65 99/152/65
f 88/136/66 90/133/66 101/149/66
f 88/136/66 101/149/66 100/151/66
f 90/133/67 92/134/67 102/150/67
f 90/133/67 102/150/67 101/149/67
f 92/146/68 76/130/68 94/148/68
f 92/146/68 94/148/68 102/156/68
f 94/157/69 93/158/69 103/159/69
f 94/157/69 103/159/69 104/160/69
f 93/158/70 95/161/70 105/162/70
f 93/158/70 105/162/70 103/159/70
f 95/161/71 96/163/71 106/164/71
f 95/161/71 106/164/71 105/162/71
f 96/163/72 97/165/72 107/166/72
f 96/163/72 107/166/72 106/164/72
f 97/165/73 98/167/73 108/168/73
f 97/165/73 108/168/73 107/166/73
f 98/167/74 99/169/74 109/170/74
f 98/167/74 109/170/74 108/168/74
f 99/169/75 100/171/75 110/172/75
f 99/169/75 110/172/75 109/170/75
f 100/171/76 101/173/76 111/174/76
f 100/171/76 111/174/76 110/172/76
f 101/173/77 102/175/77 112/176/77
f 101/173/77 112/176/77 111/174/77
f 102/175/78 94/157/78 104/160/78
f 102/175/78 104/160/78 112/176/78
f 104/160/79 103/159/79 113/177/79
f 103/159/80 105/162/80 113/177/80
f 105/162/81 106/164/81 113/177/81
f 106/164/82 107/166/82 113/177/82
f 107/166/83 108/168/83 113/177/83
f 108/168/84 109/170/84 113/177/84
f 109/170/85 110/172/85 113/177/85
f 110/172/86 111/174/86 113/177/86
f 111/174/87 112/176/87 113/177/87
f 112/176/88 104/160/88 113/177/88
f 114/178/89 115/179/89 116/180/89
f 114/178/89 116/180/89 117/181/89
f 118/182/90 119/183/90 120/184/90
f 118/182/90 120/184/90 121/185/90
f 117/186/91 116/187/91 121/188/91
f 117/186/91 121/188/91 120/189/91
f 119/189/92 118/188/92 115/187/92
f 119/189/92 115/187/92 114/186/92
f 119/190/93 114/191/93 117/192/93
f 119/190/93 117/192/93 120/193/93
f 115/191/94 118/190/94 121/193/94
f 115/191/94 121/193/94 116/192/94
f 122/194/95 123/195/95 124/196/95
f 122/194/95 124/196/95 125/197/95
f 126/198/96 127/199/96 128/200/96
f 126/198/96 128/200/96 129/201/96
f 125/202/97 124/203/97 129/204/97
f 125/202/97 129/204/97 128/205/97
f 127/205/98 126/204/98 123/203/98
f 127/205/98 123/203/98 122/202/98
f 127/206/99 122/207/99 125/208/99
f 127/206/99 125/208/99 128/209/99
f 123/207/100 126/206/100 129/209/100
f 123/207/100 129/209/100 124/208/100
f 130/210/101 131/211/101 132/212/101
f 130/210/101 132/212/101 133/213/101
f 134/214/102 135/215/102 136/216/102
f 134/214/102 136/216/102 137/217/102
f 133/218/103 132/219/103 137/220/103
f 133/218/103 137/220/103 136/221/103
f 135/221/104 134/220/104 131/219/104
f 135/221/104 131/219/104 130/218/104
f 135/222/105 130/223/105 133/224/105
f 135/222/105 133/224/105 136/225/105
f 131/223/106 134/222/106 137/225/106
f 131/223/106 137/225/106 132/224/106
f 138/226/107 139/227/107 140/228/107
f 138/226/107 140/228/107 141/229/107
f 142/230/108 143/231/108 144/232/108
f 142/230/108 144/232/108 145/233/108
f 141/234/109 140/235/109 145/236/109
f 141/234/109 145/236/109 144/237/109
f 143/237/110 142/236/110 139/235/110
f 143/237/110 139/235/110 138/234/110
f 143/238/111 138/239/111 141/240/111
f 143/238/111 141/240/111 144/241/111
f 139/239/112 142/238/112 145/241/112
f 139/239/112 145/241/112 140/240/112
f 146/242/113 147/243/113 148/244/113
f 146/242/113 148/244/113 149/245/113
f 150/246/114 151/247/114 152/248/114
f 150/246/114 152/248/114 153/249/114
f 149/250/115 148/251/115 153/252/115
f 149/250/115 153/252/115 152/253/115
f 151/253/116 150/252/116 147/251/116
f 151/253/116 147/251/116 146/250/116
f 151/254/117 146/255/117 149/256/117
f 151/254/117 149/256/117 152/257/117
f 147/255/118 150/254/118 153/257/118
f 147/255/118 153/257/118 148/256/118
f 154/258/119 155/259/119 156/260/119
f 154/258/119 156/260/119 157/261/119
f 158/262/120 159/263/120 160/264/120
f 158/262/120 160/264/120 161/265/120
f 157/266/121 156/267/121 161/268/121
f 157/266/121 161/268/121 160/269/121
f 159/269/122 158/268/122 155/267/122
f 159/269/122 155/267/122 154/266/122
f 159/270/123 154/271/123 157/272/123
f 159/270/123 157/272/123 160/273/123
f 155/271/124 158/270/124 161/273/124
f 155/271/124 161/273/124 156/272/124
f 162/274/125 163/275/125 164/276/125
f 162/274/125 164/276/125 165/277/125
f 166/278/126 167/279/126 168/280/126
f 166/278/126 168/280/126 169/281/126
f 165/282/127 164/283/127 169/284/127
f 165/282/127 169/284/127 168/285/127
f 167/285/128 166/284/128 163/283/128
f 167/285/128 163/283/128 162/282/128
f 167/286/129 162/287/129 165/288/129
f 167/286/129 165/288/129 168/289/129
f 163/287/130 166/286/130 169/289/130
f 163/287/130 169/289/130 164/288/130
f 170/290/131 171/291/131 172/292/131
f 170/290/131 172/292/131 173/293/131
f 174/294/132 175/295/132 176/296/132
f 174/294/132 176/296/132 177/297/132
f 173/298/133 172/299/133 177/300/133
f 173/298/133 177/300/133 176/301/133
f 175/301/134 174/300/134 171/299/134
f 175/301/134 171/299/134 170/298/134
f 175/302/135 170/303/135 173/304/135
f 175/302/135 173/304/135 176/305/135
f 171/303/136 174/302/136 177/305/136
f 171/303/136 177/305/136 172/304/136
f 178/306/137 179/307/137 180/308/137
f 181/306/138 182/308/138 183/307/138
f 180/308/137 184/309/137 178/306/137
f 182/308/138 181/306/138 185/309/138
f 179/310/139 182/311/139 180/312/139
f 179/310/139 183/313/139 182/311/139
f 180/314/140 185/315/140 184/316/140
f 180/314/140 182/317/140 185/315/140
f 184/318/141 181/319/141 178/320/141
f 184/318/141 185/321/141 181/319/141
f 178/322/142 183/323/142 179/324/142
f 178/322/142 181/325/142 183/323/142
f 186/326/143 187/327/143 188/328/143
f 189/326/144 190/328/144 191/327/144
f 187/327/143 186/326/143 192/329/143
f 191/327/144 193/329/144 189/326/144
f 188/330/145 187/331/145 191/332/145
f 188/330/145 191/332/145 190/333/145
f 187/334/146 192/335/146 193/336/146
f 187/334/146 193/336/146 191/337/146
f 192/338/147 186/339/147 189/340/147
f 192/338/147 189/340/147 193/341/147
f 186/342/148 188/343/148 190/344/148
f 186/342/148 190/344/148 189/345/148
f 194/346/149 195/347/149 196/348/149
f 194/346/149 196/348/149 197/349/149
f 198/350/150 199/351/150 200/352/150
f 198/350/150 200/352/150 201/353/150
f 197/354/151 196/355/151 201/356/151
f 197/354/151 201/356/151 200/357/151
f 199/357/152 198/356/152 195/355/152
f 199/357/152 195/355/152 194/354/152
f 199/358/153 194/359/153 197/360/153
f 199/358/153 197/360/153 200/361/153
f 195/359/154 198/358/154 201/361/154
f 195/359/154 201/361/154 196/360/154
f 202/362/149 203/363/149 204/364/149
f 202/362/149 204/364/149 205/365/149
f 206/366/150 207/367/150 208/368/150
f 206/366/150 208/368/150 209/369/150
f 205/370/151 204/371/151 209/372/151
f 205/370/151 209/372/151 208/373/151
f 207/373/152 206/372/152 203/371/152
f 207/373/152 203/371/152 202/370/152
f 207/374/153 202/375/153 205/376/153
f 207/374/153 205/376/153 208/377/153
f 203/375/154 206/374/154 209/377/154
f 203/375/154 209/377/154 204/376/154
f 210/378/149 211/379/149 212/380/149
f 210/378/149 212/380/149 213/381/149
f 214/382/150 215/383/150 216/384/150
f 214/382/150 216/384/150 217/385/150
f 213/386/151 212/387/151 217/388/151
f 213/386/151 217/388/151 216/389/151
f 215/389/152 214/388/152 211/387/152
f 215/389/152 211/387/152 210/386/152
f 215/390/153 210/391/153 213/392/153
f 215/390/153 213/392/153 216/393/153
f 211/391/154 214/390/154 217/393/154
f 211/391/154 217/393/154 212/392/154
f 218/394/155 219/395/155 220/396/155
f 218/394/155 220/396/155 221/397/155
f 222/398/156 223/399/156 224/400/156
f 222/398/156 224/400/156 225/401/156
f 221/402/157 220/403/157 225/404/157
f 221/402/157 225/404/157 224/405/157
f 223/405/158 222/404/158 219/403/158
f 223/405/158 219/403/158 218/402/158
f 223/406/159 218/407/159 221/408/159
f 223/406/159 221/408/159 224/409/159
f 219/407/160 222/406/160 225/409/160
f 219/407/160 225/409/160 220/408/160
f 226/410/155 227/411/155 228/412/155
f 226/410/155 228/412/155 229/413/155
f 230/414/156 231/415/156 232/416/156
f 230/414/156 232/416/156 233/417/156
f 229/418/157 228/419/157 233/420/157
f 229/418/157 233/420/157 232/421/157
f 231/421/158 230/420/158 227/419/158
f 231/421/158 227/419/158 226/418/158
f 231/422/159 226/423/159 229/424/159
f 231/422/159 229/424/159 232/425/159
f 227/423/160 230/422/160 233/425/160
f 227/423/160 233/425/160 228/424/160
f 234/426/155 235/427/155 236/428/155
f 234/426/155 236/428/155 237/429/155
f 238/430/156 239/431/156 240/432/156
f 238/430/156 240/432/156 241/433/156
f 237/434/157 236/435/157 241/436/157
f 237/434/157 241/436/157 240/437/157
f 239/437/158 238/436/158 235/435/158
f 239/437/158 235/435/158 234/434/158
f 239/438/159 234/439/159 237/440/159
f 239/438/159 237/440/159 240/441/159
f 235/439/160 238/438/160 241/441/160
f 235/439/160 241/441/160 236/440/160
f 242/442/161 243/443/161 244/444/161
f 242/442/161 244/444/161 245/445/161
f 246/446/162 247/447/162 248/448/162
f 246/446/162 248/448/162 249/449/162
f 245/450/163 244/451/163 249/452/163
f 245/450/163 249/452/163 248/453/163
f 247/453/164 246/452/164 243/451/164
f 247/453/164 243/451/164 242/450/164
f 247/454/165 242/455/165 245/456/165
f 247/454/165 245/456/165 248/457/165
f 243/458/166 246/459/166 249/460/166
f 243/458/166 249/460/166 244/461/166
f 250/462/161 251/463/161 252/464/161
f 250/462/161 252/464/161 253/465/161
f 254/466/162 255/467/162 256/468/162
f 254/466/162 256/468/162 257/469/162
f 253/470/167 252/471/167 257/472/167
f 253/470/167 257/472/167 256/473/167
f 255/473/168 254/472/168 251/471/168
f 255/473/168 251/471/168 250/470/168
f 255/474/169 250/475/169 253/476/169
f 255/474/169 253/476/169 256/477/169
f 251/478/170 254/478/170 257/479/170
f 251/478/170 257/479/170 252/479/170
f 258/480/161 259/481/161 260/482/161
f 258/480/161 260/482/161 261/483/161
f 262/484/162 263/485/162 264/486/162
f 262/484/162 264/486/162 265/487/162
f 261/488/167 260/489/167 265/490/167
f 261/488/167 265/490/167 264/491/167
f 263/491/168 262/490/168 259/489/168
f 263/491/168 259/489/168 258/488/168
f 263/492/169 258/493/169 261/494/169
f 263/492/169 261/494/169 264/495/169
f 259/496/170 262/496/170 265/497/170
f 259/496/170 265/497/170 260/497/170
f 266/498/171 267/499/171 268/500/171
f 266/498/171 268/500/171 269/501/171
f 270/502/172 271/503/172 272/504/172
f 270/502/172 272/504/172 273/505/172
f 269/506/173 268/507/173 273/508/173
f 269/506/173 273/508/173 272/509/173
f 271/509/174 270/508/174 267/507/174
f 271/509/174 267/507/174 266/506/174
f 271/510/175 266/511/175 269/512/175
f 271/510/175 269/512/175 272/513/175
f 267/514/176 270/515/176 273/516/176
f 267/514/176 273/516/176 268/517/176
f 274/518/171 275/519/171 276/520/171
f 274/518/171 276/520/171 277/521/171
f 278/522/172 279/523/172 280/524/172
f 278/522/172 280/524/172 281/525/172
f 277/526/177 276/527/177 281/528/177
f 277/526/177 281/528/177 280/529/177
f 279/529/178 278/528/178 275/527/178
f 279/529/178 275/527/178 274/526/178
f 279/530/179 274/530/179 277/531/179
f 279/530/179 277/531/179 280/531/179
f 275/532/180 278/533/180 281/534/180
f 275/532/180 281/534/180 276/535/180
f 282/536/171 283/537/171 284/538/171
f 282/536/171 284/538/171 285/539/171
f 286/540/172 287/541/172 288/542/172
f 286/540/172 288/542/172 289/543/172
f 285/544/177 284/545/177 289/546/177
f 285/544/177 289/546/177 288/547/177
f 287/547/178 286/546/178 283/545/178
f 287/547/178 283/545/178 282/544/178
f 287/548/179 282/548/179 285/549/179
f 287/548/179 285/549/179 288/549/179
f 283/550/180 286/551/180 289/552/180
f 283/550/180 289/552/180 284/553/180
f 290/554/181 291/555/181 292/556/181
f 290/554/181 292/556/181 293/557/181
f 291/558/182 294/559/182 295/560/182
f 291/558/182 295/560/182 292/561/182
f 294/559/183 296/562/183 297/563/183
f 294/559/183 297/563/183 295/560/183
f 296/562/184 298/564/184 299/565/184
f 296/562/184 299/565/184 297/563/184
f 298/555/185 300/554/185 301/557/185
f 298/555/185 301/557/185 299/556/185
f 300/554/186 302/566/186 303/567/186
f 300/554/186 303/567/186 301/557/186
f 302/564/187 304/562/187 305/563/187
f 302/564/187 305/563/187 303/565/187
f 304/562/188 306/559/188 307/560/188
f 304/562/188 307/560/188 305/563/188
f 306/559/189 308/558/189 309/561/189
f 306/559/189 309/561/189 307/560/189
f 308/566/190 290/554/190 293/557/190
f 308/566/190 293/557/190 309/567/190
f 293/568/191 292/569/191 310/570/191
f 293/568/191 310/570/191 311/571/191
f 292/569/192 295/572/192 312/573/192
f 292/569/192 312/573/192 310/570/192
f 295/560/193 297/563/193 313/574/193
f 295/560/193 313/574/193 312/575/193
f 297/576/194 299/577/194 314/578/194
f 297/576/194 314/578/194 313/579/194
f 299/577/195 301/580/195 315/581/195
f 299/577/195 315/581/195 314/578/195
f 301/580/196 303/582/196 316/583/196
f 301/580/196 316/583/196 315/581/196
f 303/582/197 305/584/197 317/585/197
f 303/582/197 317/585/197 316/583/197
f 305/563/198 307/560/198 318/575/198
f 305/563/198 318/575/198 317/574/198
f 307/586/199 309/587/199 319/588/199
f 307/586/199 319/588/199 318/589/199
f 309/587/200 293/568/200 311/571/200
f 309/587/200 311/571/200 319/588/200
f 311/571/201 310/570/201 320/590/201
f 310/570/202 312/573/202 320/590/202
f 312/573/203 313/579/203 320/590/203
f 313/579/204 314/578/204 320/590/204
f 314/578/205 315/581/205 320/590/205
f 315/581/206 316/583/206 320/590/206
f 316/583/207 317/585/207 320/590/207
f 317/585/208 318/589/208 320/590/208
f 318/589/209 319/588/209 320/590/209
f 319/588/210 311/571/210 320/590/210
f 321/591/211 322/592/211 323/593/211
f 321/591/211 324/594/211 322/592/211
f 321/591/211 325/595/211 324/594/211
f 321/591/211 326/596/211 325/595/211
f 321/591/211 327/597/211 326/596/211
f 321/591/211 323/593/211 327/597/211
f 323/598/212 322/599/212 328/600/212
f 323/598/212 328/600/212 329/601/212
f 322/602/213 324/603/213 330/604/213
f 322/602/213 330/604/213 328/605/213
f 324/599/214 325/598/214 331/601/214
f 324/599/214 331/601/214 330/600/214
f 325/598/215 326/606/215 332/607/215
f 325/598/215 332/607/215 331/601/215
f 326/603/216 327/602/216 333/605/216
f 326/603/216 333/605/216 332/604/216
f 327/606/217 323/598/217 329/601/217
f 327/606/217 329/601/217 333/607/217
f 329/601/218 328/600/218 334/608/218
f 329/601/218 334/608/218 335/609/218
f 328/605/219 330/604/219 336/610/219
f 328/605/219 336/610/219 334/611/219
f 330/600/220 331/601/220 337/609/220
f 330/600/220 337/609/220 336/608/220
f 331/601/221 332/607/221 338/612/221
f 331/601/221 338/612/221 337/609/221
f 332/604/222 333/605/222 339/611/222
f 332/604/222 339/611/222 338/610/222
f 333/607/223 329/601/223 335/609/223
f 333/607/223 335/609/223 339/612/223
f 340/613/224 341/614/224 342/615/224
f 340/613/224 342/615/224 343/616/224
f 341/617/225 344/618/225 345/619/225
f 341/617/225 345/619/225 342/620/225
f 344/618/226 346/621/226 347/622/226
f 344/618/226 347/622/226 345/619/226
f 346/621/227 348/623/227 349/624/227
f 346/621/227 349/624/227 347/622/227
f 348/614/228 350/613/228 351/616/228
f 348/614/228 351/616/228 349/615/228
f 350/613/229 352/625/229 353/626/229
f 350/613/229 353/626/229 351/616/229
f 352/623/230 354/621/230 355/622/230
f 352/623/230 355/622/230 353/624/230
f 354/621/231 356/618/231 357/619/231
f 354/621/231 357/619/231 355/622/231
f 356/618/232 358/617/232 359/620/232
f 356/618/232 359/620/232 357/619/232
f 358/625/233 340/613/233 343/616/233
f 358/625/233 343/616/233 359/626/233
f 343/627/234 342/628/234 360/629/234
f 343/627/234 360/629/234 361/630/234
f 342/628/235 345/631/235 362/632/235
f 342/628/235 362/632/235 360/629/235
f 345/619/236 347/622/236 363/633/236
f 345/619/236 363/633/236 362/634/236
f 347/635/237 349/636/237 364/637/237
f 347/635/237 364/637/237 363/638/237
f 349/636/238 351/639/238 365/640/238
f 349/636/238 365/640/238 364/637/238
f 351/639/239 353/641/239 366/642/239
f 351/639/239 366/642/239 365/640/239
f 353/641/240 355/643/240 367/644/240
f 353/641/240 367/644/240 366/642/240
f 355/622/241 357/619/241 368/634/241
f 355/622/241 368/634/241 367/633/241
f 357/645/242 359/646/242 369/647/242
f 357/645/242 369/647/242 368/648/242
f 359/646/243 343/627/243 361/630/243
f 359/646/243 361/630/243 369/647/243
f 361/630/244 360/629/244 370/649/244
f 360/629/245 362/632/245 370/649/245
f 362/632/246 363/638/246 370/649/246
f 363/638/247 364/637/247 370/649/247
f 364/637/248 365/640/248 370/649/248
f 365/640/249 366/642/249 370/649/249
f 366/642/250 367/644/250 370/649/250
f 367/644/251 368/648/251 370/649/251
f 368/648/252 369/647/252 370/649/252
f 369/647/253 361/630/253 370/649/253
f 371/650/254 372/651/254 373/652/254
f 371/650/254 374/653/254 372/651/254
f 371/650/254 375/654/254 374/653/254
f 371/650/254 376/655/254 375/654/254
f 371/650/254 377/656/254 376/655/254
f 371/650/254 373/652/254 377/656/254
f 373/657/255 372/658/255 378/659/255
f 373/657/255 378/659/255 379/660/255
f 372/661/256 374/662/256 380/663/256
f 372/661/256 380/663/256 378/664/256
f 374/658/257 375/657/257 381/660/257
f 374/658/257 381/660/257 380/659/257
f 375/657/258 376/665/258 382/666/258
f 375/657/258 382/666/258 381/660/258
f 376/662/259 377/661/259 383/664/259
f 376/662/259 383/664/259 382/663/259
f 377/665/260 373/657/260 379/660/260
f 377/665/260 379/660/260 383/666/260
f 379/660/261 378/659/261 384/667/261
f 379/660/261 384/667/261 385/668/261
f 378/664/262 380/663/262 386/669/262
f 378/664/262 386/669/262 384/670/262
f 380/659/263 381/660/263 387/668/263
f 380/659/263 387/668/263 386/667/263
f 381/660/264 382/666/264 388/671/264
f 381/660/264 388/671/264 387/668/264
f 382/663/265 383/664/265 389/670/265
f 382/663/265 389/670/265 388/669/265
f 383/666/266 379/660/266 385/668/266
f 383/666/266 385/668/266 389/671/266
