# Top down wireframe of hull_bloom_battleship.obj, 474 edges
# Generated by tools/gen_meshes.py. Edit the script, not this file.
v 0.665000 0.000000 0.760000
v 0.735000 0.000000 0.760000
v 0.735000 0.000000 0.120000
v 0.665000 0.000000 0.120000
v -0.545000 0.000000 0.120000
v -0.615000 0.000000 0.120000
v -0.615000 0.000000 0.760000
v -0.545000 0.000000 0.760000
v 0.454983 0.000000 2.151631
v 0.425017 0.000000 2.088369
v 0.045017 0.000000 2.268369
v 0.074983 0.000000 2.331631
v 0.095000 0.000000 1.860000
v 0.025000 0.000000 1.860000
v 0.025000 0.000000 2.300000
v 0.095000 0.000000 2.300000
v 0.409684 0.000000 2.102510
v 0.470316 0.000000 2.137490
v 0.770316 0.000000 1.617490
v 0.709684 0.000000 1.582510
v 0.705791 0.000000 1.592603
v 0.774209 0.000000 1.607397
v 0.934209 0.000000 0.867397
v 0.865791 0.000000 0.852603
v 0.865000 0.000000 0.860000
v 0.935000 0.000000 0.860000
v 0.935000 0.000000 0.020000
v 0.865000 0.000000 0.020000
v 0.865751 0.000000 0.027210
v 0.934249 0.000000 0.012790
v 0.774249 0.000000 -0.747210
v 0.705751 0.000000 -0.732790
v 0.709988 0.000000 -0.721993
v 0.770012 0.000000 -0.758007
v 0.470012 0.000000 -1.258007
v 0.409988 0.000000 -1.221993
v 0.025000 0.000000 -1.000000
v 0.095000 0.000000 -1.000000
v 0.095000 0.000000 -1.440000
v 0.025000 0.000000 -1.440000
v 0.423699 0.000000 -1.209028
v 0.456301 0.000000 -1.270972
v 0.076301 0.000000 -1.470972
v 0.043699 0.000000 -1.409028
v 0.076301 0.000000 -1.409028
v 0.043699 0.000000 -1.470972
v -0.336301 0.000000 -1.270972
v -0.303699 0.000000 -1.209028
v -0.289988 0.000000 -1.221993
v -0.350012 0.000000 -1.258007
v -0.650012 0.000000 -0.758007
v -0.589988 0.000000 -0.721993
v -0.585751 0.000000 -0.732790
v -0.654249 0.000000 -0.747210
v -0.814249 0.000000 0.012790
v -0.745751 0.000000 0.027210
v -0.745000 0.000000 0.020000
v -0.815000 0.000000 0.020000
v -0.815000 0.000000 0.860000
v -0.745000 0.000000 0.860000
v -0.745791 0.000000 0.852603
v -0.814209 0.000000 0.867397
v -0.654209 0.000000 1.607397
v -0.585791 0.000000 1.592603
v -0.589684 0.000000 1.582510
v -0.650316 0.000000 1.617490
v -0.350316 0.000000 2.137490
v -0.289684 0.000000 2.102510
v 0.045017 0.000000 2.331631
v 0.074983 0.000000 2.268369
v -0.305017 0.000000 2.088369
v -0.334983 0.000000 2.151631
v 0.474648 0.000000 2.115050
v 0.405352 0.000000 2.124950
v 0.425352 0.000000 2.264950
v 0.494648 0.000000 2.255050
v 0.475652 0.000000 2.291305
v 0.444348 0.000000 2.228695
v 0.044348 0.000000 2.428695
v 0.075652 0.000000 2.491305
v 0.095000 0.000000 2.300000
v 0.025000 0.000000 2.300000
v 0.025000 0.000000 2.460000
v 0.095000 0.000000 2.460000
v 0.430082 0.000000 2.241836
v 0.489918 0.000000 2.278164
v 0.829918 0.000000 1.718164
v 0.770082 0.000000 1.681836
v 0.765814 0.000000 1.692496
v 0.834186 0.000000 1.707504
v 1.014186 0.000000 0.887504
v 0.945814 0.000000 0.872496
v 0.945000 0.000000 0.880000
v 1.015000 0.000000 0.880000
v 1.015000 0.000000 -0.020000
v 0.945000 0.000000 -0.020000
v 0.945854 0.000000 -0.012317
v 1.014146 0.000000 -0.027683
v 0.834146 0.000000 -0.827683
v 0.765854 0.000000 -0.812317
v 0.405352 0.000000 -1.244950
v 0.474648 0.000000 -1.235050
v 0.494648 0.000000 -1.375050
v 0.425352 0.000000 -1.384950
v 0.770082 0.000000 -0.801836
v 0.829918 0.000000 -0.838164
v 0.489918 0.000000 -1.398164
v 0.430082 0.000000 -1.361836
v 0.025000 0.000000 -1.440000
v 0.095000 0.000000 -1.440000
v 0.095000 0.000000 -1.580000
v 0.025000 0.000000 -1.580000
v 0.444348 0.000000 -1.348695
v 0.475652 0.000000 -1.411305
v 0.075652 0.000000 -1.611305
v 0.044348 0.000000 -1.548695
v -0.354648 0.000000 -1.235050
v -0.285352 0.000000 -1.244950
v -0.305352 0.000000 -1.384950
v -0.374648 0.000000 -1.375050
v 0.075652 0.000000 -1.548695
v 0.044348 0.000000 -1.611305
v -0.355652 0.000000 -1.411305
v -0.324348 0.000000 -1.348695
v -0.309611 0.000000 -1.362635
v -0.370389 0.000000 -1.397365
v -0.690389 0.000000 -0.837365
v -0.629611 0.000000 -0.802635
v -0.625854 0.000000 -0.812317
v -0.694146 0.000000 -0.827683
v -0.874146 0.000000 -0.027683
v -0.805854 0.000000 -0.012317
v -0.805000 0.000000 -0.020000
v -0.875000 0.000000 -0.020000
v -0.875000 0.000000 0.880000
v -0.805000 0.000000 0.880000
v -0.805814 0.000000 0.872496
v -0.874186 0.000000 0.887504
v -0.694186 0.000000 1.707504
v -0.625814 0.000000 1.692496
v -0.285352 0.000000 2.124950
v -0.354648 0.000000 2.115050
v -0.374648 0.000000 2.255050
v -0.305352 0.000000 2.264950
v -0.629611 0.000000 1.682635
v -0.690389 0.000000 1.717365
v -0.370389 0.000000 2.277365
v -0.309611 0.000000 2.242635
v 0.044348 0.000000 2.491305
v 0.075652 0.000000 2.428695
v -0.324348 0.000000 2.228695
v -0.355652 0.000000 2.291305
v -0.388932 0.000000 1.273204
v -0.411068 0.000000 1.206796
v -0.531068 0.000000 1.246796
v -0.508932 0.000000 1.313204
v -0.428481 0.000000 1.219657
v -0.371519 0.000000 1.260343
v -0.271519 0.000000 1.120343
v -0.328481 0.000000 1.079657
v -0.334730 0.000000 1.095659
v -0.265270 0.000000 1.104341
v -0.245270 0.000000 0.944341
v -0.314730 0.000000 0.935659
v -0.312772 0.000000 0.952289
v -0.247228 0.000000 0.927711
v -0.307228 0.000000 0.767711
v -0.372772 0.000000 0.792289
v -0.355652 0.000000 0.811305
v -0.324348 0.000000 0.748695
v -0.444348 0.000000 0.688695
v -0.475652 0.000000 0.751305
v -0.450385 0.000000 0.753653
v -0.469615 0.000000 0.686347
v -0.609615 0.000000 0.726347
v -0.590385 0.000000 0.793653
v -0.573112 0.000000 0.782406
v -0.626888 0.000000 0.737594
v -0.726888 0.000000 0.857594
v -0.673112 0.000000 0.902406
v -0.665214 0.000000 0.883865
v -0.734786 0.000000 0.876135
v -0.754786 0.000000 1.056135
v -0.685214 0.000000 1.063865
v -0.687830 0.000000 1.046213
v -0.752170 0.000000 1.073787
v -0.692170 0.000000 1.213787
v -0.627830 0.000000 1.186213
v -0.537365 0.000000 1.310389
v -0.502635 0.000000 1.249611
v -0.642635 0.000000 1.169611
v -0.677365 0.000000 1.230389
v -0.367830 0.000000 1.226213
v -0.432170 0.000000 1.253787
v -0.372170 0.000000 1.393787
v -0.307830 0.000000 1.366213
v -0.330791 0.000000 1.413767
v -0.349209 0.000000 1.346233
v -0.569209 0.000000 1.406233
v -0.550791 0.000000 1.473767
v -0.486045 0.000000 1.288489
v -0.553955 0.000000 1.271511
v -0.593955 0.000000 1.431511
v -0.526045 0.000000 1.448489
v -0.280585 0.000000 1.070878
v -0.319415 0.000000 1.129122
v -0.199415 0.000000 1.209122
v -0.160585 0.000000 1.150878
v -0.367330 0.000000 1.358136
v -0.312670 0.000000 1.401864
v -0.152670 0.000000 1.201864
v -0.207330 0.000000 1.158136
v -0.289615 0.000000 0.906347
v -0.270385 0.000000 0.973653
v -0.130385 0.000000 0.933653
v -0.149615 0.000000 0.866347
v -0.214648 0.000000 1.175050
v -0.145352 0.000000 1.184950
v -0.105352 0.000000 0.904950
v -0.174648 0.000000 0.895050
v -0.366888 0.000000 0.757594
v -0.313112 0.000000 0.802406
v -0.213112 0.000000 0.682406
v -0.266888 0.000000 0.637594
v -0.172308 0.000000 0.913462
v -0.107692 0.000000 0.886538
v -0.207692 0.000000 0.646538
v -0.272308 0.000000 0.673462
v -0.494786 0.000000 0.716135
v -0.425214 0.000000 0.723865
v -0.405214 0.000000 0.543865
v -0.474786 0.000000 0.536135
v -0.258007 0.000000 0.690012
v -0.221993 0.000000 0.629988
v -0.421993 0.000000 0.509988
v -0.458007 0.000000 0.570012
v -0.632772 0.000000 0.772289
v -0.567228 0.000000 0.747711
v -0.627228 0.000000 0.587711
v -0.692772 0.000000 0.612289
v -0.430791 0.000000 0.573767
v -0.449209 0.000000 0.506233
v -0.669209 0.000000 0.566233
v -0.650791 0.000000 0.633767
v -0.715652 0.000000 0.911305
v -0.684348 0.000000 0.848695
v -0.804348 0.000000 0.788695
v -0.835652 0.000000 0.851305
v -0.631694 0.000000 0.620586
v -0.688306 0.000000 0.579414
v -0.848306 0.000000 0.799414
v -0.791694 0.000000 0.840586
v -0.714246 0.000000 1.094524
v -0.725754 0.000000 1.025476
v -0.845754 0.000000 1.045476
v -0.834246 0.000000 1.114524
v -0.785103 0.000000 0.822684
v -0.854897 0.000000 0.817316
v -0.874897 0.000000 1.077316
v -0.805103 0.000000 1.082684
v -0.630878 0.000000 1.219415
v -0.689122 0.000000 1.180585
v -0.769122 0.000000 1.300585
v -0.710878 0.000000 1.339415
v -0.807692 0.000000 1.066538
v -0.872308 0.000000 1.093462
v -0.772308 0.000000 1.333462
v -0.707692 0.000000 1.306538
v -0.579415 0.000000 1.469122
v -0.540585 0.000000 1.410878
v -0.720585 0.000000 1.290878
v -0.759415 0.000000 1.349122
v -0.588932 0.000000 1.306796
v -0.611068 0.000000 1.373204
v -0.551068 0.000000 1.393204
v -0.528932 0.000000 1.326796
v -0.559415 0.000000 1.330878
v -0.520585 0.000000 1.389122
v -0.460585 0.000000 1.349122
v -0.499415 0.000000 1.290878
v -0.531068 0.000000 1.313204
v -0.508932 0.000000 1.246796
v -0.568932 0.000000 1.226796
v -0.591068 0.000000 1.293204
v -0.545000 0.000000 1.260000
v -0.615000 0.000000 1.260000
v -0.615000 0.000000 1.320000
v -0.545000 0.000000 1.320000
v -0.659415 0.000000 1.270878
v -0.620585 0.000000 1.329122
v -0.560585 0.000000 1.289122
v -0.599415 0.000000 1.230878
v -0.608932 0.000000 1.306796
v -0.631068 0.000000 1.373204
v -0.571068 0.000000 1.393204
v -0.548932 0.000000 1.326796
v -0.420000 0.000000 1.305000
v -0.420000 0.000000 1.375000
v -0.340000 0.000000 1.375000
v -0.340000 0.000000 1.305000
v -0.306796 0.000000 1.351068
v -0.373204 0.000000 1.328932
v -0.393204 0.000000 1.388932
v -0.326796 0.000000 1.411068
v -0.386796 0.000000 1.328932
v -0.453204 0.000000 1.351068
v -0.433204 0.000000 1.411068
v -0.366796 0.000000 1.388932
v -0.328932 0.000000 1.306796
v -0.351068 0.000000 1.373204
v -0.291068 0.000000 1.393204
v -0.268932 0.000000 1.326796
v -0.250878 0.000000 1.379415
v -0.309122 0.000000 1.340585
v -0.349122 0.000000 1.400585
v -0.290878 0.000000 1.439415
v -0.300000 0.000000 1.415000
v -0.300000 0.000000 1.345000
v -0.360000 0.000000 1.345000
v -0.360000 0.000000 1.415000
v -0.371068 0.000000 1.413204
v -0.348932 0.000000 1.346796
v -0.408932 0.000000 1.326796
v -0.431068 0.000000 1.393204
v -0.360000 0.000000 1.455000
v -0.360000 0.000000 1.385000
v -0.420000 0.000000 1.385000
v -0.420000 0.000000 1.455000
v -0.408932 0.000000 1.386796
v -0.431068 0.000000 1.453204
v -0.371068 0.000000 1.473204
v -0.348932 0.000000 1.406796
v 0.828489 0.000000 1.753955
v 0.811511 0.000000 1.686045
v 0.651511 0.000000 1.726045
v 0.668489 0.000000 1.793955
v 0.792373 0.000000 1.698512
v 0.847627 0.000000 1.741488
v 0.987627 0.000000 1.561488
v 0.932373 0.000000 1.518512
v 0.926233 0.000000 1.530791
v 0.993767 0.000000 1.549209
v 1.053767 0.000000 1.329209
v 0.986233 0.000000 1.310791
v 0.986233 0.000000 1.329209
v 1.053767 0.000000 1.310791
v 0.993767 0.000000 1.090791
v 0.926233 0.000000 1.109209
v 0.939657 0.000000 1.128481
v 0.980343 0.000000 1.071519
v 0.840343 0.000000 0.971519
v 0.799657 0.000000 1.028481
v 0.827593 0.000000 1.034167
v 0.812407 0.000000 0.965833
v 0.632407 0.000000 1.005833
v 0.647593 0.000000 1.074167
v 0.666340 0.000000 1.063048
v 0.613660 0.000000 1.016952
v 0.473660 0.000000 1.176952
v 0.526340 0.000000 1.223048
v 0.534524 0.000000 1.205754
v 0.465476 0.000000 1.194246
v 0.425476 0.000000 1.434246
v 0.494524 0.000000 1.445754
v 0.494435 0.000000 1.433739
v 0.425565 0.000000 1.446261
v 0.465565 0.000000 1.666261
v 0.534435 0.000000 1.653739
v 0.641450 0.000000 1.789680
v 0.678550 0.000000 1.730320
v 0.518550 0.000000 1.630320
v 0.481450 0.000000 1.689680
v 0.853767 0.000000 1.710791
v 0.786233 0.000000 1.729209
v 0.846233 0.000000 1.949209
v 0.913767 0.000000 1.930791
v 0.887334 0.000000 1.974223
v 0.872666 0.000000 1.905777
v 0.592666 0.000000 1.965777
v 0.607334 0.000000 2.034223
v 0.693955 0.000000 1.768489
v 0.626045 0.000000 1.751511
v 0.566045 0.000000 1.991511
v 0.633955 0.000000 2.008489
v 0.982778 0.000000 1.513426
v 0.937222 0.000000 1.566574
v 1.077222 0.000000 1.686574
v 1.122778 0.000000 1.633426
v 0.852479 0.000000 1.918376
v 0.907521 0.000000 1.961624
v 1.127521 0.000000 1.681624
v 1.072479 0.000000 1.638376
v 1.011511 0.000000 1.286045
v 1.028489 0.000000 1.353955
v 1.188489 0.000000 1.313955
v 1.171511 0.000000 1.246045
v 1.065751 0.000000 1.652790
v 1.134249 0.000000 1.667210
v 1.214249 0.000000 1.287210
v 1.145751 0.000000 1.272790
v 0.932373 0.000000 1.078512
v 0.987627 0.000000 1.121488
v 1.127627 0.000000 0.941488
v 1.072373 0.000000 0.898512
v 1.145833 0.000000 1.287593
v 1.214167 0.000000 1.272407
v 1.134167 0.000000 0.912407
v 1.065833 0.000000 0.927593
v 0.785476 0.000000 0.994246
v 0.854524 0.000000 1.005754
v 0.894524 0.000000 0.765754
v 0.825476 0.000000 0.754246
v 1.080585 0.000000 0.949122
v 1.119415 0.000000 0.890878
v 0.879415 0.000000 0.730878
v 0.840585 0.000000 0.789122
v 0.606233 0.000000 1.049209
v 0.673767 0.000000 1.030791
v 0.613767 0.000000 0.810791
v 0.546233 0.000000 0.829209
v 0.867334 0.000000 0.794223
v 0.852666 0.000000 0.725777
v 0.572666 0.000000 0.785777
v 0.587334 0.000000 0.854223
v 0.479657 0.000000 1.228481
v 0.520343 0.000000 1.171519
v 0.380343 0.000000 1.071519
v 0.339657 0.000000 1.128481
v 0.607521 0.000000 0.841624
v 0.552479 0.000000 0.798376
v 0.332479 0.000000 1.078376
v 0.387521 0.000000 1.121624
v 0.467593 0.000000 1.474167
v 0.452407 0.000000 1.405833
v 0.272407 0.000000 1.445833
v 0.287593 0.000000 1.514167
v 0.394249 0.000000 1.107210
v 0.325751 0.000000 1.092790
v 0.245751 0.000000 1.472790
v 0.314249 0.000000 1.487210
v 0.528000 0.000000 1.681000
v 0.472000 0.000000 1.639000
v 0.352000 0.000000 1.799000
v 0.408000 0.000000 1.841000
v 0.313578 0.000000 1.470124
v 0.246422 0.000000 1.489876
v 0.346422 0.000000 1.829876
v 0.413578 0.000000 1.810124
v 0.577837 0.000000 2.027089
v 0.622163 0.000000 1.972911
v 0.402163 0.000000 1.792911
v 0.357837 0.000000 1.847089
v 0.771068 0.000000 0.986796
v 0.748932 0.000000 1.053204
v 0.808932 0.000000 1.073204
v 0.831068 0.000000 1.006796
v 0.525000 0.000000 1.520000
v 0.595000 0.000000 1.520000
v 0.595000 0.000000 1.460000
v 0.525000 0.000000 1.460000
v 0.595000 0.000000 1.480000
v 0.525000 0.000000 1.480000
v 0.525000 0.000000 1.540000
v 0.595000 0.000000 1.540000
v 0.611068 0.000000 1.406796
v 0.588932 0.000000 1.473204
v 0.648932 0.000000 1.493204
v 0.671068 0.000000 1.426796
v 0.695000 0.000000 1.460000
v 0.625000 0.000000 1.460000
v 0.625000 0.000000 1.520000
v 0.695000 0.000000 1.520000
v 0.579415 0.000000 1.490878
v 0.540585 0.000000 1.549122
v 0.600585 0.000000 1.589122
v 0.639415 0.000000 1.530878
v 0.635000 0.000000 1.460000
v 0.565000 0.000000 1.460000
v 0.565000 0.000000 1.520000
v 0.635000 0.000000 1.520000
v 0.931068 0.000000 1.213204
v 0.908932 0.000000 1.146796
v 0.788932 0.000000 1.186796
v 0.811068 0.000000 1.253204
v 0.893112 0.000000 1.157594
v 0.946888 0.000000 1.202406
v 1.046888 0.000000 1.082406
v 0.993112 0.000000 1.037594
v 0.985680 0.000000 1.053136
v 1.054320 0.000000 1.066864
v 1.094320 0.000000 0.866864
v 1.025680 0.000000 0.853136
v 1.027830 0.000000 0.873787
v 1.092170 0.000000 0.846213
v 1.032170 0.000000 0.706213
v 0.967830 0.000000 0.733787
v 0.980585 0.000000 0.749122
v 1.019415 0.000000 0.690878
v 0.899415 0.000000 0.610878
v 0.860585 0.000000 0.669122
v 0.889615 0.000000 0.673653
v 0.870385 0.000000 0.606347
v 0.730385 0.000000 0.646347
v 0.749615 0.000000 0.713653
v 0.768481 0.000000 0.700343
v 0.711519 0.000000 0.659657
v 0.611519 0.000000 0.799657
v 0.668481 0.000000 0.840343
v 0.674786 0.000000 0.823865
v 0.605214 0.000000 0.816135
v 0.585214 0.000000 0.996135
v 0.654786 0.000000 1.003865
v 0.652772 0.000000 0.987711
v 0.587228 0.000000 1.012289
v 0.647228 0.000000 1.172289
v 0.712772 0.000000 1.147711
v 0.784348 0.000000 1.251305
v 0.815652 0.000000 1.188695
v 0.695652 0.000000 1.128695
v 0.664348 0.000000 1.191305
v 0.952772 0.000000 1.167711
v 0.887228 0.000000 1.192289
v 0.947228 0.000000 1.352289
v 1.012772 0.000000 1.327711
v 0.989209 0.000000 1.373767
v 0.970791 0.000000 1.306233
v 0.750791 0.000000 1.366233
v 0.769209 0.000000 1.433767
v 0.834167 0.000000 1.227593
v 0.765833 0.000000 1.212407
v 0.725833 0.000000 1.392407
v 0.794167 0.000000 1.407593
v 1.035652 0.000000 1.028695
v 1.004348 0.000000 1.091305
v 1.124348 0.000000 1.151305
v 1.155652 0.000000 1.088695
v 0.951694 0.000000 1.319414
v 1.008306 0.000000 1.360586
v 1.168306 0.000000 1.140586
v 1.111694 0.000000 1.099414
v 1.054246 0.000000 0.825476
v 1.065754 0.000000 0.894524
v 1.185754 0.000000 0.874524
v 1.174246 0.000000 0.805476
v 1.105352 0.000000 1.115050
v 1.174648 0.000000 1.124950
v 1.214648 0.000000 0.844950
v 1.145352 0.000000 0.835050
v 0.971519 0.000000 0.699657
v 1.028481 0.000000 0.740343
v 1.128481 0.000000 0.600343
v 1.071519 0.000000 0.559657
v 1.146548 0.000000 0.850293
v 1.213452 0.000000 0.829707
v 1.133452 0.000000 0.569707
v 1.066548 0.000000 0.590293
v 0.845214 0.000000 0.636135
v 0.914786 0.000000 0.643865
v 0.934786 0.000000 0.463865
v 0.865214 0.000000 0.456135
v 1.081993 0.000000 0.610012
v 1.118007 0.000000 0.549988
v 0.918007 0.000000 0.429988
v 0.881993 0.000000 0.490012
v 0.707228 0.000000 0.692289
v 0.772772 0.000000 0.667711
v 0.712772 0.000000 0.507711
v 0.647228 0.000000 0.532289
v 0.909209 0.000000 0.493767
v 0.890791 0.000000 0.426233
v 0.670791 0.000000 0.486233
v 0.689209 0.000000 0.553767
v 0.620585 0.000000 0.849122
v 0.659415 0.000000 0.790878
v 0.539415 0.000000 0.710878
v 0.500585 0.000000 0.769122
v 0.708306 0.000000 0.540586
v 0.651694 0.000000 0.499414
v 0.491694 0.000000 0.719414
v 0.548306 0.000000 0.760586
v 0.629615 0.000000 1.033653
v 0.610385 0.000000 0.966347
v 0.470385 0.000000 1.006347
v 0.489615 0.000000 1.073653
v 0.554693 0.000000 0.744626
v 0.485307 0.000000 0.735374
v 0.445307 0.000000 1.035374
v 0.514693 0.000000 1.044626
v 0.706888 0.000000 1.182406
v 0.653112 0.000000 1.137594
v 0.553112 0.000000 1.257594
v 0.606888 0.000000 1.302406
v 0.512308 0.000000 1.026538
v 0.447692 0.000000 1.053462
v 0.547692 0.000000 1.293462
v 0.612308 0.000000 1.266538
v 0.740585 0.000000 1.429122
v 0.779415 0.000000 1.370878
v 0.599415 0.000000 1.250878
v 0.560585 0.000000 1.309122
v 1.026864 0.000000 0.694320
v 1.013136 0.000000 0.625680
v 0.913136 0.000000 0.645680
v 0.926864 0.000000 0.714320
v 0.895251 0.000000 0.704749
v 0.944749 0.000000 0.655251
v 0.884749 0.000000 0.595251
v 0.835251 0.000000 0.644749
v 0.893204 0.000000 0.608932
v 0.826796 0.000000 0.631068
v 0.846796 0.000000 0.691068
v 0.913204 0.000000 0.668932
v 0.928932 0.000000 0.733204
v 0.951068 0.000000 0.666796
v 0.891068 0.000000 0.646796
v 0.868932 0.000000 0.713204
v 0.935000 0.000000 0.580000
v 0.865000 0.000000 0.580000
v 0.865000 0.000000 0.640000
v 0.935000 0.000000 0.640000
v 0.891511 0.000000 0.546045
v 0.908489 0.000000 0.613955
v 0.988489 0.000000 0.593955
v 0.971511 0.000000 0.526045
v 1.013204 0.000000 0.571068
v 0.946796 0.000000 0.548932
v 0.926796 0.000000 0.608932
v 0.993204 0.000000 0.631068
v 0.888932 0.000000 0.606796
v 0.911068 0.000000 0.673204
v 0.971068 0.000000 0.653204
v 0.948932 0.000000 0.586796
v 1.015251 0.000000 0.644749
v 1.064749 0.000000 0.595251
v 1.004749 0.000000 0.535251
v 0.955251 0.000000 0.584749
v 1.000585 0.000000 0.689122
v 1.039415 0.000000 0.630878
v 0.979415 0.000000 0.590878
v 0.940585 0.000000 0.649122
v 0.988932 0.000000 0.733204
v 1.011068 0.000000 0.666796
v 0.951068 0.000000 0.646796
v 0.928932 0.000000 0.713204
v 1.028489 0.000000 0.693955
v 1.011511 0.000000 0.626045
v 0.931511 0.000000 0.646045
v 0.948489 0.000000 0.713955
v 0.880000 0.000000 0.645000
v 0.880000 0.000000 0.715000
v 0.940000 0.000000 0.715000
v 0.940000 0.000000 0.645000
v 0.993204 0.000000 0.631068
v 0.926796 0.000000 0.608932
v 0.906796 0.000000 0.668932
v 0.973204 0.000000 0.691068
v 0.913204 0.000000 0.491068
v 0.846796 0.000000 0.468932
v 0.826796 0.000000 0.528932
v 0.893204 0.000000 0.551068
v 0.880000 0.000000 0.515000
v 0.880000 0.000000 0.445000
v 0.800000 0.000000 0.445000
v 0.800000 0.000000 0.515000
v 0.835000 0.000000 0.480000
v 0.765000 0.000000 0.480000
v 0.765000 0.000000 0.540000
v 0.835000 0.000000 0.540000
v 0.793204 0.000000 0.468932
v 0.726796 0.000000 0.491068
v 0.746796 0.000000 0.551068
v 0.813204 0.000000 0.528932
v 0.760000 0.000000 0.445000
v 0.760000 0.000000 0.515000
v 0.820000 0.000000 0.515000
v 0.820000 0.000000 0.445000
v 0.855000 0.000000 0.480000
v 0.785000 0.000000 0.480000
v 0.785000 0.000000 0.540000
v 0.855000 0.000000 0.540000
v 0.828489 0.000000 0.446045
v 0.811511 0.000000 0.513955
v 0.891511 0.000000 0.533955
v 0.908489 0.000000 0.466045
v 0.911068 0.000000 0.573204
v 0.888932 0.000000 0.506796
v 0.828932 0.000000 0.526796
v 0.851068 0.000000 0.593204
v 0.791068 0.000000 0.506796
v 0.768932 0.000000 0.573204
v 0.828932 0.000000 0.593204
v 0.851068 0.000000 0.526796
v 0.960000 0.000000 1.145000
v 0.960000 0.000000 1.215000
v 1.020000 0.000000 1.215000
v 1.020000 0.000000 1.145000
v -0.063483 0.000000 0.974826
v -0.056517 0.000000 0.905174
v -0.256517 0.000000 0.885174
v -0.263483 0.000000 0.954826
v -0.079415 0.000000 0.910878
v -0.040585 0.000000 0.969122
v 0.139415 0.000000 0.849122
v 0.100585 0.000000 0.790878
v 0.086796 0.000000 0.808932
v 0.153204 0.000000 0.831068
v 0.213204 0.000000 0.651068
v 0.146796 0.000000 0.628932
v 0.146476 0.000000 0.650057
v 0.213524 0.000000 0.629943
v 0.153524 0.000000 0.429943
v 0.086476 0.000000 0.450057
v 0.099000 0.000000 0.468000
v 0.141000 0.000000 0.412000
v -0.019000 0.000000 0.292000
v -0.061000 0.000000 0.348000
v -0.040000 0.000000 0.355000
v -0.040000 0.000000 0.285000
v -0.240000 0.000000 0.285000
v -0.240000 0.000000 0.355000
v -0.223002 0.000000 0.350596
v -0.256998 0.000000 0.289404
v -0.436998 0.000000 0.389404
v -0.403002 0.000000 0.450596
v -0.386796 0.000000 0.431068
v -0.453204 0.000000 0.408932
v -0.513204 0.000000 0.588932
v -0.446796 0.000000 0.611068
v -0.446476 0.000000 0.589943
v -0.513524 0.000000 0.610057
v -0.453524 0.000000 0.810057
v -0.386476 0.000000 0.789943
v -0.281000 0.000000 0.948000
v -0.239000 0.000000 0.892000
v -0.399000 0.000000 0.772000
v -0.441000 0.000000 0.828000
v -0.026796 0.000000 0.928932
v -0.093204 0.000000 0.951068
v -0.033204 0.000000 1.131068
v 0.033204 0.000000 1.108932
v 0.000000 0.000000 1.155000
v 0.000000 0.000000 1.085000
v -0.340000 0.000000 1.085000
v -0.340000 0.000000 1.155000
v -0.227503 0.000000 0.932999
v -0.292497 0.000000 0.907001
v -0.372497 0.000000 1.107001
v -0.307503 0.000000 1.132999
v 0.141000 0.000000 0.792000
v 0.099000 0.000000 0.848000
v 0.259000 0.000000 0.968000
v 0.301000 0.000000 0.912000
v -0.018927 0.000000 1.090559
v 0.018927 0.000000 1.149441
v 0.298927 0.000000 0.969441
v 0.261073 0.000000 0.910559
v 0.180000 0.000000 0.605000
v 0.180000 0.000000 0.675000
v 0.380000 0.000000 0.675000
v 0.380000 0.000000 0.605000
v 0.246796 0.000000 0.928932
v 0.313204 0.000000 0.951068
v 0.413204 0.000000 0.651068
v 0.346796 0.000000 0.628932
v 0.101450 0.000000 0.410320
v 0.138550 0.000000 0.469680
v 0.298550 0.000000 0.369680
v 0.261450 0.000000 0.310320
v 0.346796 0.000000 0.651068
v 0.413204 0.000000 0.628932
v 0.313204 0.000000 0.328932
v 0.246796 0.000000 0.351068
v -0.073204 0.000000 0.308932
v -0.006796 0.000000 0.331068
v 0.053204 0.000000 0.151068
v -0.013204 0.000000 0.128932
v 0.258660 0.000000 0.367742
v 0.301340 0.000000 0.312258
v 0.041340 0.000000 0.112258
v -0.001340 0.000000 0.167742
v -0.273524 0.000000 0.330057
v -0.206476 0.000000 0.309943
v -0.266476 0.000000 0.109943
v -0.333524 0.000000 0.130057
v 0.017817 0.000000 0.174932
v 0.022183 0.000000 0.105068
v -0.297817 0.000000 0.085068
v -0.302183 0.000000 0.154932
v -0.441000 0.000000 0.448000
v -0.399000 0.000000 0.392000
v -0.559000 0.000000 0.272000
v -0.601000 0.000000 0.328000
v -0.281073 0.000000 0.149441
v -0.318927 0.000000 0.090559
v -0.598927 0.000000 0.270559
v -0.561073 0.000000 0.329441
v -0.480000 0.000000 0.635000
v -0.480000 0.000000 0.565000
v -0.680000 0.000000 0.565000
v -0.680000 0.000000 0.635000
v -0.546796 0.000000 0.311068
v -0.613204 0.000000 0.288932
v -0.713204 0.000000 0.588932
v -0.646796 0.000000 0.611068
v -0.400585 0.000000 0.829122
v -0.439415 0.000000 0.770878
v -0.619415 0.000000 0.890878
v -0.580585 0.000000 0.949122
v -0.646045 0.000000 0.591511
v -0.713955 0.000000 0.608489
v -0.633955 0.000000 0.928489
v -0.566045 0.000000 0.911511
v -0.361340 0.000000 1.147742
v -0.318660 0.000000 1.092258
v -0.578660 0.000000 0.892258
v -0.621340 0.000000 0.947742
v 0.251068 0.000000 0.806796
v 0.228932 0.000000 0.873204
v 0.288932 0.000000 0.893204
v 0.311068 0.000000 0.826796
v 0.329122 0.000000 0.879415
v 0.270878 0.000000 0.840585
v 0.230878 0.000000 0.900585
v 0.289122 0.000000 0.939415
v 0.273204 0.000000 0.851068
v 0.206796 0.000000 0.828932
v 0.186796 0.000000 0.888932
v 0.253204 0.000000 0.911068
v 0.300000 0.000000 0.935000
v 0.300000 0.000000 0.865000
v 0.240000 0.000000 0.865000
v 0.240000 0.000000 0.935000
v 0.228932 0.000000 0.933204
v 0.251068 0.000000 0.866796
v 0.191068 0.000000 0.846796
v 0.168932 0.000000 0.913204
v 0.193204 0.000000 0.828932
v 0.126796 0.000000 0.851068
v 0.146796 0.000000 0.911068
v 0.213204 0.000000 0.888932
v 0.240000 0.000000 0.875000
v 0.240000 0.000000 0.805000
v 0.160000 0.000000 0.805000
v 0.160000 0.000000 0.875000
v -0.266045 0.000000 0.811511
v -0.333955 0.000000 0.828489
v -0.313955 0.000000 0.908489
v -0.246045 0.000000 0.891511
v -0.293204 0.000000 0.931068
v -0.226796 0.000000 0.908932
v -0.246796 0.000000 0.848932
v -0.313204 0.000000 0.871068
v -0.273136 0.000000 0.865680
v -0.286864 0.000000 0.934320
v -0.186864 0.000000 0.954320
v -0.173136 0.000000 0.885680
v -0.260000 0.000000 0.885000
v -0.260000 0.000000 0.955000
v -0.200000 0.000000 0.955000
v -0.200000 0.000000 0.885000
v -0.199415 0.000000 0.890878
v -0.160585 0.000000 0.949122
v -0.100585 0.000000 0.909122
v -0.139415 0.000000 0.850878
v -0.151305 0.000000 0.895652
v -0.088695 0.000000 0.864348
v -0.128695 0.000000 0.784348
v -0.191305 0.000000 0.815652
v -0.193204 0.000000 0.911068
v -0.126796 0.000000 0.888932
v -0.146796 0.000000 0.828932
v -0.213204 0.000000 0.851068
v -0.175652 0.000000 0.831305
v -0.144348 0.000000 0.768695
v -0.224348 0.000000 0.728695
v -0.255652 0.000000 0.791305
v -0.205000 0.000000 0.760000
v -0.275000 0.000000 0.760000
v -0.275000 0.000000 0.820000
v -0.205000 0.000000 0.820000
v -0.191068 0.000000 0.873204
v -0.168932 0.000000 0.806796
v -0.228932 0.000000 0.786796
v -0.251068 0.000000 0.853204
v -0.324749 0.000000 0.795251
v -0.275251 0.000000 0.844749
v -0.215251 0.000000 0.784749
v -0.264749 0.000000 0.735251
v -0.268932 0.000000 0.826796
v -0.291068 0.000000 0.893204
v -0.231068 0.000000 0.913204
v -0.208932 0.000000 0.846796
v -0.171068 0.000000 0.933204
v -0.148932 0.000000 0.866796
v -0.208932 0.000000 0.846796
v -0.231068 0.000000 0.913204
v -0.206796 0.000000 0.808932
v -0.273204 0.000000 0.831068
v -0.253204 0.000000 0.891068
v -0.186796 0.000000 0.868932
v -0.549943 0.000000 -0.146476
v -0.570057 0.000000 -0.213524
v -0.770057 0.000000 -0.153524
v -0.749943 0.000000 -0.086476
v -0.588673 0.000000 -0.200071
v -0.531327 0.000000 -0.159929
v -0.391327 0.000000 -0.359929
v -0.448673 0.000000 -0.400071
v -0.454223 0.000000 -0.387334
v -0.385777 0.000000 -0.372666
v -0.325777 0.000000 -0.652666
v -0.394223 0.000000 -0.667334
v -0.393955 0.000000 -0.651511
v -0.326045 0.000000 -0.668489
v -0.386045 0.000000 -0.908489
v -0.453955 0.000000 -0.891511
v -0.441000 0.000000 -0.872000
v -0.399000 0.000000 -0.928000
v -0.559000 0.000000 -1.048000
v -0.601000 0.000000 -0.992000
v -0.569943 0.000000 -0.986476
v -0.590057 0.000000 -1.053524
v -0.790057 0.000000 -0.993524
v -0.769943 0.000000 -0.926476
v -0.752670 0.000000 -0.938136
v -0.807330 0.000000 -0.981864
v -0.967330 0.000000 -0.781864
v -0.912670 0.000000 -0.738136
v -0.905777 0.000000 -0.752666
v -0.974223 0.000000 -0.767334
v -1.034223 0.000000 -0.487334
v -0.965777 0.000000 -0.472666
v -0.966796 0.000000 -0.491068
v -1.033204 0.000000 -0.468932
v -0.953204 0.000000 -0.228932
v -0.886796 0.000000 -0.251068
v -0.781000 0.000000 -0.092000
v -0.739000 0.000000 -0.148000
v -0.899000 0.000000 -0.268000
v -0.941000 0.000000 -0.212000
v -0.525896 0.000000 -0.187870
v -0.594104 0.000000 -0.172130
v -0.534104 0.000000 0.087870
v -0.465896 0.000000 0.072130
v -0.491511 0.000000 0.113955
v -0.508489 0.000000 0.046045
v -0.828489 0.000000 0.126045
v -0.811511 0.000000 0.193955
v -0.725777 0.000000 -0.112666
v -0.794223 0.000000 -0.127334
v -0.854223 0.000000 0.152666
v -0.785777 0.000000 0.167334
v -0.399000 0.000000 -0.408000
v -0.441000 0.000000 -0.352000
v -0.281000 0.000000 -0.232000
v -0.239000 0.000000 -0.288000
v -0.528594 0.000000 0.059816
v -0.471406 0.000000 0.100184
v -0.231406 0.000000 -0.239816
v -0.288594 0.000000 -0.280184
v -0.366864 0.000000 -0.694320
v -0.353136 0.000000 -0.625680
v -0.153136 0.000000 -0.665680
v -0.166864 0.000000 -0.734320
v -0.294130 0.000000 -0.267757
v -0.225870 0.000000 -0.252243
v -0.125870 0.000000 -0.692243
v -0.194130 0.000000 -0.707757
v -0.448673 0.000000 -0.920071
v -0.391327 0.000000 -0.879929
v -0.251327 0.000000 -1.079929
v -0.308673 0.000000 -1.120071
v -0.193524 0.000000 -0.689943
v -0.126476 0.000000 -0.710057
v -0.246476 0.000000 -1.110057
v -0.313524 0.000000 -1.089943
v -0.614648 0.000000 -1.024950
v -0.545352 0.000000 -1.015050
v -0.505352 0.000000 -1.295050
v -0.574648 0.000000 -1.304950
v -0.301340 0.000000 -1.072258
v -0.258660 0.000000 -1.127742
v -0.518660 0.000000 -1.327742
v -0.561340 0.000000 -1.272258
v -0.813452 0.000000 -0.949707
v -0.746548 0.000000 -0.970293
v -0.826548 0.000000 -1.230293
v -0.893452 0.000000 -1.209707
v -0.531511 0.000000 -1.266045
v -0.548489 0.000000 -1.333955
v -0.868489 0.000000 -1.253955
v -0.851511 0.000000 -1.186045
v -0.961000 0.000000 -0.732000
v -0.919000 0.000000 -0.788000
v -1.079000 0.000000 -0.908000
v -1.121000 0.000000 -0.852000
v -0.831406 0.000000 -1.199816
v -0.888594 0.000000 -1.240184
v -1.128594 0.000000 -0.900184
v -1.071406 0.000000 -0.859816
v -0.992407 0.000000 -0.445833
v -1.007593 0.000000 -0.514167
v -1.187593 0.000000 -0.474167
v -1.172407 0.000000 -0.405833
v -1.065565 0.000000 -0.873739
v -1.134435 0.000000 -0.886261
v -1.214435 0.000000 -0.446261
v -1.145565 0.000000 -0.433739
v -0.892670 0.000000 -0.218136
v -0.947330 0.000000 -0.261864
v -1.107330 0.000000 -0.061864
v -1.052670 0.000000 -0.018136
v -1.146045 0.000000 -0.448489
v -1.213955 0.000000 -0.431511
v -1.113955 0.000000 -0.031511
v -1.046045 0.000000 -0.048489
v -0.841340 0.000000 0.187742
v -0.798660 0.000000 0.132258
v -1.058660 0.000000 -0.067742
v -1.101340 0.000000 -0.012258
v -0.475251 0.000000 -0.895251
v -0.524749 0.000000 -0.944749
v -0.584749 0.000000 -0.884749
v -0.535251 0.000000 -0.835251
v -0.568489 0.000000 -0.826045
v -0.551511 0.000000 -0.893955
v -0.631511 0.000000 -0.913955
v -0.648489 0.000000 -0.846045
v -0.580000 0.000000 -0.825000
v -0.580000 0.000000 -0.895000
v -0.640000 0.000000 -0.895000
v -0.640000 0.000000 -0.825000
v -0.669122 0.000000 -0.860585
v -0.610878 0.000000 -0.899415
v -0.650878 0.000000 -0.959415
v -0.709122 0.000000 -0.920585
v -0.673204 0.000000 -0.848932
v -0.606796 0.000000 -0.871068
v -0.626796 0.000000 -0.931068
v -0.693204 0.000000 -0.908932
v -0.704749 0.000000 -0.964749
v -0.655251 0.000000 -0.915251
v -0.595251 0.000000 -0.975251
v -0.644749 0.000000 -1.024749
v -0.620000 0.000000 -1.035000
v -0.620000 0.000000 -0.965000
v -0.540000 0.000000 -0.965000
v -0.540000 0.000000 -1.035000
v -0.506796 0.000000 -0.988932
v -0.573204 0.000000 -1.011068
v -0.593204 0.000000 -0.951068
v -0.526796 0.000000 -0.928932
v -0.608932 0.000000 -0.993204
v -0.631068 0.000000 -0.926796
v -0.571068 0.000000 -0.906796
v -0.548932 0.000000 -0.973204
v -0.531305 0.000000 -0.904348
v -0.468695 0.000000 -0.935652
v -0.508695 0.000000 -1.015652
v -0.571305 0.000000 -0.984348
v -0.528932 0.000000 -0.866796
v -0.551068 0.000000 -0.933204
v -0.611068 0.000000 -0.913204
v -0.588932 0.000000 -0.846796
v -0.640585 0.000000 -0.949122
v -0.679415 0.000000 -0.890878
v -0.619415 0.000000 -0.850878
v -0.580585 0.000000 -0.909122
v -0.586045 0.000000 -0.968489
v -0.653955 0.000000 -0.951511
v -0.633955 0.000000 -0.871511
v -0.566045 0.000000 -0.888489
v -0.530878 0.000000 -0.920585
v -0.589122 0.000000 -0.959415
v -0.629122 0.000000 -0.899415
v -0.570878 0.000000 -0.860585
v -0.600000 0.000000 -0.625000
v -0.600000 0.000000 -0.695000
v -0.660000 0.000000 -0.695000
v -0.660000 0.000000 -0.625000
v 0.582907 0.000000 0.534879
v 0.577093 0.000000 0.465121
v 0.337093 0.000000 0.485121
v 0.342907 0.000000 0.554879
v 0.555251 0.000000 0.475251
v 0.604749 0.000000 0.524749
v 0.824749 0.000000 0.304749
v 0.775251 0.000000 0.255251
v 0.766593 0.000000 0.269560
v 0.833407 0.000000 0.290440
v 0.933407 0.000000 -0.029560
v 0.866593 0.000000 -0.050440
v 0.865307 0.000000 -0.035374
v 0.934693 0.000000 -0.044626
v 0.894693 0.000000 -0.344626
v 0.825307 0.000000 -0.335374
v 0.835251 0.000000 -0.315251
v 0.884749 0.000000 -0.364749
v 0.724749 0.000000 -0.524749
v 0.675251 0.000000 -0.475251
v 0.702684 0.000000 -0.465103
v 0.697316 0.000000 -0.534897
v 0.437316 0.000000 -0.514897
v 0.442684 0.000000 -0.445103
v 0.464749 0.000000 -0.455251
v 0.415251 0.000000 -0.504749
v 0.195251 0.000000 -0.284749
v 0.244749 0.000000 -0.235251
v 0.253407 0.000000 -0.249560
v 0.186593 0.000000 -0.270440
v 0.086593 0.000000 0.049560
v 0.153407 0.000000 0.070440
v 0.154693 0.000000 0.055374
v 0.085307 0.000000 0.064626
v 0.125307 0.000000 0.364626
v 0.194693 0.000000 0.355374
v 0.316747 0.000000 0.546159
v 0.363253 0.000000 0.493841
v 0.183253 0.000000 0.333841
v 0.136747 0.000000 0.386159
v 0.614693 0.000000 0.495374
v 0.545307 0.000000 0.504626
v 0.585307 0.000000 0.804626
v 0.654693 0.000000 0.795374
v 0.623483 0.000000 0.834826
v 0.616517 0.000000 0.765174
v 0.216517 0.000000 0.805174
v 0.223483 0.000000 0.874826
v 0.372772 0.000000 0.532289
v 0.307228 0.000000 0.507711
v 0.187228 0.000000 0.827711
v 0.252772 0.000000 0.852289
v 0.595968 0.000000 0.774555
v 0.644032 0.000000 0.825445
v 1.004032 0.000000 0.485445
v 0.955968 0.000000 0.434555
v 0.946925 0.000000 0.448551
v 1.013075 0.000000 0.471449
v 1.193075 0.000000 -0.048551
v 1.126925 0.000000 -0.071449
v 0.835251 0.000000 -0.364749
v 0.884749 0.000000 -0.315251
v 1.104749 0.000000 -0.535251
v 1.055251 0.000000 -0.584749
v 1.125440 0.000000 -0.054470
v 1.194560 0.000000 -0.065530
v 1.114560 0.000000 -0.565530
v 1.045440 0.000000 -0.554470
v 0.666593 0.000000 -0.510440
v 0.733407 0.000000 -0.489560
v 0.833407 0.000000 -0.809560
v 0.766593 0.000000 -0.830440
v 1.056184 0.000000 -0.534352
v 1.103816 0.000000 -0.585648
v 0.823816 0.000000 -0.845648
v 0.776184 0.000000 -0.794352
v 0.405307 0.000000 -0.475374
v 0.474693 0.000000 -0.484626
v 0.434693 0.000000 -0.784626
v 0.365307 0.000000 -0.775374
v 0.803483 0.000000 -0.785174
v 0.796517 0.000000 -0.854826
v 0.396517 0.000000 -0.814826
v 0.403483 0.000000 -0.745174
v 0.424032 0.000000 -0.754555
v 0.375968 0.000000 -0.805445
v 0.015968 0.000000 -0.465445
v 0.064032 0.000000 -0.414555
v 0.073452 0.000000 -0.429707
v 0.006548 0.000000 -0.450293
v -0.153452 0.000000 0.069707
v -0.086548 0.000000 0.090293
v 0.183544 0.000000 0.385898
v 0.136456 0.000000 0.334102
v -0.083544 0.000000 0.534102
v -0.036456 0.000000 0.585898
v -0.085270 0.000000 0.075659
v -0.154730 0.000000 0.084341
v -0.094730 0.000000 0.564341
v -0.025270 0.000000 0.555659
v 0.195251 0.000000 0.864749
v 0.244749 0.000000 0.815251
v -0.035251 0.000000 0.535251
v -0.084749 0.000000 0.584749
v 0.311068 0.000000 -0.046796
v 0.288932 0.000000 -0.113204
v 0.228932 0.000000 -0.093204
v 0.251068 0.000000 -0.026796
v 0.280000 0.000000 -0.015000
v 0.280000 0.000000 0.055000
v 0.340000 0.000000 0.055000
v 0.340000 0.000000 -0.015000
v 0.306796 0.000000 0.008932
v 0.373204 0.000000 0.031068
v 0.393204 0.000000 -0.028932
v 0.326796 0.000000 -0.051068
v 0.319415 0.000000 -0.109122
v 0.280585 0.000000 -0.050878
v 0.340585 0.000000 -0.010878
v 0.379415 0.000000 -0.069122
v 0.333204 0.000000 -0.048932
v 0.266796 0.000000 -0.071068
v 0.246796 0.000000 -0.011068
v 0.313204 0.000000 0.011068
v 0.126045 0.000000 0.228489
v 0.193955 0.000000 0.211511
v 0.173955 0.000000 0.131511
v 0.106045 0.000000 0.148489
v 0.124348 0.000000 0.108695
v 0.155652 0.000000 0.171305
v 0.235652 0.000000 0.131305
v 0.204348 0.000000 0.068695
v 0.239415 0.000000 0.070878
v 0.200585 0.000000 0.129122
v 0.260585 0.000000 0.169122
v 0.299415 0.000000 0.110878
v 0.219415 0.000000 0.110878
v 0.180585 0.000000 0.169122
v 0.240585 0.000000 0.209122
v 0.279415 0.000000 0.150878
v 0.313955 0.000000 0.131511
v 0.246045 0.000000 0.148489
v 0.266045 0.000000 0.228489
v 0.333955 0.000000 0.211511
v 0.308489 0.000000 0.253955
v 0.291511 0.000000 0.186045
v 0.211511 0.000000 0.206045
v 0.228489 0.000000 0.273955
v 0.171068 0.000000 0.186796
v 0.148932 0.000000 0.253204
v 0.208932 0.000000 0.273204
v 0.231068 0.000000 0.206796
v 0.179415 0.000000 0.190878
v 0.140585 0.000000 0.249122
v 0.200585 0.000000 0.289122
v 0.239415 0.000000 0.230878
v 0.235000 0.000000 0.140000
v 0.165000 0.000000 0.140000
v 0.165000 0.000000 0.220000
v 0.235000 0.000000 0.220000
v 0.279415 0.000000 0.209122
v 0.240585 0.000000 0.150878
v 0.180585 0.000000 0.190878
v 0.219415 0.000000 0.249122
v 0.260000 0.000000 0.255000
v 0.260000 0.000000 0.185000
v 0.200000 0.000000 0.185000
v 0.200000 0.000000 0.255000
v 0.260000 0.000000 1.595000
v 0.260000 0.000000 1.525000
v -0.020000 0.000000 1.525000
v -0.020000 0.000000 1.595000
v 0.236260 0.000000 1.534282
v 0.283740 0.000000 1.585718
v 0.543740 0.000000 1.345718
v 0.496260 0.000000 1.294282
v 0.488017 0.000000 1.305785
v 0.551983 0.000000 1.334215
v 0.711983 0.000000 0.974215
v 0.648017 0.000000 0.945785
v 0.645060 0.000000 0.962055
v 0.714940 0.000000 0.957945
v 0.694940 0.000000 0.617945
v 0.625060 0.000000 0.622055
v 0.631694 0.000000 0.640586
v 0.688306 0.000000 0.599414
v 0.528306 0.000000 0.379414
v 0.471694 0.000000 0.420586
v 0.502494 0.000000 0.434911
v 0.497506 0.000000 0.365089
v 0.217506 0.000000 0.385089
v 0.222494 0.000000 0.454911
v 0.242608 0.000000 0.446719
v 0.197392 0.000000 0.393281
v -0.062608 0.000000 0.613281
v -0.017392 0.000000 0.666719
v -0.008017 0.000000 0.654215
v -0.071983 0.000000 0.625785
v -0.231983 0.000000 0.985785
v -0.168017 0.000000 1.014215
v -0.165000 0.000000 1.000000
v -0.235000 0.000000 1.000000
v -0.235000 0.000000 1.360000
v -0.165000 0.000000 1.360000
v -0.046015 0.000000 1.583414
v 0.006015 0.000000 1.536586
v -0.173985 0.000000 1.336586
v -0.226015 0.000000 1.383414
v 0.295000 0.000000 1.560000
v 0.225000 0.000000 1.560000
v 0.225000 0.000000 1.900000
v 0.295000 0.000000 1.900000
v 0.261589 0.000000 1.934964
v 0.258411 0.000000 1.865036
v -0.181589 0.000000 1.885036
v -0.178411 0.000000 1.954964
v 0.011983 0.000000 1.574215
v -0.051983 0.000000 1.545785
v -0.211983 0.000000 1.905785
v -0.148017 0.000000 1.934215
v 0.237837 0.000000 1.872911
v 0.282163 0.000000 1.927089
v 0.722163 0.000000 1.567089
v 0.677837 0.000000 1.512911
v 0.668062 0.000000 1.525683
v 0.731938 0.000000 1.554317
v 0.991938 0.000000 0.974317
v 0.928062 0.000000 0.945683
v 0.637222 0.000000 0.593426
v 0.682778 0.000000 0.646574
v 0.962778 0.000000 0.406574
v 0.917222 0.000000 0.353426
v 0.925021 0.000000 0.961206
v 0.994979 0.000000 0.958794
v 0.974979 0.000000 0.378794
v 0.905021 0.000000 0.381206
v 0.467380 0.000000 0.387314
v 0.532620 0.000000 0.412686
v 0.672620 0.000000 0.052686
v 0.607380 0.000000 0.027314
v 0.913756 0.000000 0.403157
v 0.966244 0.000000 0.356843
v 0.666244 0.000000 0.016843
v 0.613756 0.000000 0.063157
v 0.185054 0.000000 0.421941
v 0.254946 0.000000 0.418059
v 0.234946 0.000000 0.058059
v 0.165054 0.000000 0.061941
v 0.641589 0.000000 0.074964
v 0.638411 0.000000 0.005036
v 0.198411 0.000000 0.025036
v 0.201589 0.000000 0.094964
v 0.223482 0.000000 0.085954
v 0.176518 0.000000 0.034046
v -0.243482 0.000000 0.414046
v -0.196518 0.000000 0.465954
v -0.188062 0.000000 0.454317
v -0.251938 0.000000 0.425683
v -0.511938 0.000000 1.005683
v -0.448062 0.000000 1.034317
v -0.177392 0.000000 1.386719
v -0.222608 0.000000 1.333281
v -0.482608 0.000000 1.553281
v -0.437392 0.000000 1.606719
v -0.445022 0.000000 1.018751
v -0.514978 0.000000 1.021249
v -0.494978 0.000000 1.581249
v -0.425022 0.000000 1.578751
v -0.207018 0.000000 1.942250
v -0.152982 0.000000 1.897750
v -0.432982 0.000000 1.557750
v -0.487018 0.000000 1.602250
v -0.088932 0.000000 1.013204
v -0.111068 0.000000 0.946796
v -0.171068 0.000000 0.966796
v -0.148932 0.000000 1.033204
v -0.125000 0.000000 1.000000
v -0.195000 0.000000 1.000000
v -0.195000 0.000000 1.080000
v -0.125000 0.000000 1.080000
v -0.144348 0.000000 1.048695
v -0.175652 0.000000 1.111305
v -0.095652 0.000000 1.151305
v -0.064348 0.000000 1.088695
v -0.099415 0.000000 1.090878
v -0.060585 0.000000 1.149122
v -0.000585 0.000000 1.109122
v -0.039415 0.000000 1.050878
v -0.111068 0.000000 1.086796
v -0.088932 0.000000 1.153204
v -0.028932 0.000000 1.133204
v -0.051068 0.000000 1.066796
v -0.055000 0.000000 1.080000
v 0.015000 0.000000 1.080000
v 0.015000 0.000000 1.000000
v -0.055000 0.000000 1.000000
v -0.073204 0.000000 1.111068
v -0.006796 0.000000 1.088932
v -0.026796 0.000000 1.028932
v -0.093204 0.000000 1.051068
v -0.091511 0.000000 0.946045
v -0.108489 0.000000 1.013955
v -0.028489 0.000000 1.033955
v -0.011511 0.000000 0.966045
v -0.065000 0.000000 1.020000
v -0.135000 0.000000 1.020000
v -0.135000 0.000000 1.080000
v -0.065000 0.000000 1.080000
v -0.051068 0.000000 1.133204
v -0.028932 0.000000 1.066796
v -0.088932 0.000000 1.046796
v -0.111068 0.000000 1.113204
v 0.200000 0.000000 1.755000
v 0.200000 0.000000 1.685000
v 0.140000 0.000000 1.685000
v 0.140000 0.000000 1.755000
v 0.220000 0.000000 1.835000
v 0.220000 0.000000 1.765000
v 0.160000 0.000000 1.765000
v 0.160000 0.000000 1.835000
v 0.873204 0.000000 0.668932
v 0.806796 0.000000 0.691068
v 0.826796 0.000000 0.751068
v 0.893204 0.000000 0.728932
v 0.871068 0.000000 0.773204
v 0.848932 0.000000 0.706796
v 0.788932 0.000000 0.726796
v 0.811068 0.000000 0.793204
v 0.860000 0.000000 0.775000
v 0.860000 0.000000 0.705000
v 0.780000 0.000000 0.705000
v 0.780000 0.000000 0.775000
v 0.764348 0.000000 0.771305
v 0.795652 0.000000 0.708695
v 0.715652 0.000000 0.668695
v 0.684348 0.000000 0.731305
v 0.740585 0.000000 0.809122
v 0.779415 0.000000 0.750878
v 0.719415 0.000000 0.710878
v 0.680585 0.000000 0.769122
v 0.665000 0.000000 0.700000
v 0.735000 0.000000 0.700000
v 0.735000 0.000000 0.640000
v 0.665000 0.000000 0.640000
v 0.688932 0.000000 0.606796
v 0.711068 0.000000 0.673204
v 0.771068 0.000000 0.653204
v 0.748932 0.000000 0.586796
v 0.795000 0.000000 0.620000
v 0.725000 0.000000 0.620000
v 0.725000 0.000000 0.680000
v 0.795000 0.000000 0.680000
v 0.688932 0.000000 0.666796
v 0.711068 0.000000 0.733204
v 0.771068 0.000000 0.713204
v 0.748932 0.000000 0.646796
v 0.819000 0.000000 0.708000
v 0.861000 0.000000 0.652000
v 0.781000 0.000000 0.592000
v 0.739000 0.000000 0.648000
v 0.800000 0.000000 0.795000
v 0.800000 0.000000 0.725000
v 0.740000 0.000000 0.725000
v 0.740000 0.000000 0.795000
v 0.819415 0.000000 0.749122
v 0.780585 0.000000 0.690878
v 0.720585 0.000000 0.730878
v 0.759415 0.000000 0.789122
v 0.729122 0.000000 0.680585
v 0.670878 0.000000 0.719415
v 0.710878 0.000000 0.779415
v 0.769122 0.000000 0.740585
v 0.793955 0.000000 0.688489
v 0.726045 0.000000 0.671511
v 0.706045 0.000000 0.751511
v 0.773955 0.000000 0.768489
v 0.151068 0.000000 0.713204
v 0.128932 0.000000 0.646796
v -0.051068 0.000000 0.706796
v -0.028932 0.000000 0.773204
v 0.109274 0.000000 0.663240
v 0.170726 0.000000 0.696760
v 0.290726 0.000000 0.476760
v 0.229274 0.000000 0.443240
v 0.225000 0.000000 0.460000
v 0.295000 0.000000 0.460000
v 0.295000 0.000000 0.200000
v 0.225000 0.000000 0.200000
v 0.227107 0.000000 0.211961
v 0.292893 0.000000 0.188039
v 0.212893 0.000000 -0.031961
v 0.147107 0.000000 -0.008039
v 0.165785 0.000000 0.011983
v 0.194215 0.000000 -0.051983
v 0.014215 0.000000 -0.131983
v -0.014215 0.000000 -0.068017
v 0.012289 0.000000 -0.067228
v -0.012289 0.000000 -0.132772
v -0.172289 0.000000 -0.072772
v -0.147711 0.000000 -0.007228
v -0.129274 0.000000 -0.023240
v -0.190726 0.000000 -0.056760
v -0.310726 0.000000 0.163240
v -0.249274 0.000000 0.196760
v -0.245103 0.000000 0.182684
v -0.314897 0.000000 0.177316
v -0.334897 0.000000 0.437316
v -0.265103 0.000000 0.442684
v -0.268137 0.000000 0.425517
v -0.331863 0.000000 0.454483
v -0.231863 0.000000 0.674483
v -0.168137 0.000000 0.645517
v -0.055652 0.000000 0.771305
v -0.024348 0.000000 0.708695
v -0.184348 0.000000 0.628695
v -0.215652 0.000000 0.691305
v 0.171863 0.000000 0.665517
v 0.108137 0.000000 0.694483
v 0.208137 0.000000 0.914483
v 0.271863 0.000000 0.885517
v 0.251772 0.000000 0.932961
v 0.228228 0.000000 0.867039
v -0.051772 0.000000 0.967039
v -0.028228 0.000000 1.032961
v -0.005000 0.000000 0.740000
v -0.075000 0.000000 0.740000
v -0.075000 0.000000 1.000000
v -0.005000 0.000000 1.000000
v 0.278550 0.000000 0.430320
v 0.241450 0.000000 0.489680
v 0.401450 0.000000 0.589680
v 0.438550 0.000000 0.530320
v 0.209067 0.000000 0.883624
v 0.270933 0.000000 0.916376
v 0.450933 0.000000 0.576376
v 0.389067 0.000000 0.543624
v 0.248932 0.000000 0.166796
v 0.271068 0.000000 0.233204
v 0.451068 0.000000 0.173204
v 0.428932 0.000000 0.106796
v 0.385040 0.000000 0.558335
v 0.454960 0.000000 0.561665
v 0.474960 0.000000 0.141665
v 0.405040 0.000000 0.138335
v 0.148695 0.000000 -0.035652
v 0.211305 0.000000 -0.004348
v 0.311305 0.000000 -0.204348
v 0.248695 0.000000 -0.235652
v 0.408017 0.000000 0.154215
v 0.471983 0.000000 0.125785
v 0.311983 0.000000 -0.234215
v 0.248017 0.000000 -0.205785
v -0.034897 0.000000 -0.102684
v 0.034897 0.000000 -0.097316
v 0.054897 0.000000 -0.357316
v -0.014897 0.000000 -0.362684
v 0.263407 0.000000 -0.189184
v 0.296593 0.000000 -0.250816
v 0.036593 0.000000 -0.390816
v 0.003407 0.000000 -0.329184
v -0.191305 0.000000 -0.024348
v -0.128695 0.000000 -0.055652
v -0.228695 0.000000 -0.255652
v -0.291305 0.000000 -0.224348
v 0.033787 0.000000 -0.327830
v 0.006213 0.000000 -0.392170
v -0.273787 0.000000 -0.272170
v -0.246213 0.000000 -0.207830
v -0.298550 0.000000 0.209680
v -0.261450 0.000000 0.150320
v -0.421450 0.000000 0.050320
v -0.458550 0.000000 0.109680
v -0.229495 0.000000 -0.222841
v -0.290505 0.000000 -0.257159
v -0.470505 0.000000 0.062841
v -0.409495 0.000000 0.097159
v -0.284348 0.000000 0.471305
v -0.315652 0.000000 0.408695
v -0.475652 0.000000 0.488695
v -0.444348 0.000000 0.551305
v -0.405036 0.000000 0.081589
v -0.474964 0.000000 0.078411
v -0.494964 0.000000 0.518411
v -0.425036 0.000000 0.521589
v -0.169988 0.000000 0.678007
v -0.230012 0.000000 0.641993
v -0.350012 0.000000 0.841993
v -0.289988 0.000000 0.878007
v -0.427636 0.000000 0.506674
v -0.492364 0.000000 0.533326
v -0.352364 0.000000 0.873326
v -0.287636 0.000000 0.846674
v -0.055652 0.000000 1.031305
v -0.024348 0.000000 0.968695
v -0.304348 0.000000 0.828695
v -0.335652 0.000000 0.891305
v -0.360000 0.000000 0.095000
v -0.360000 0.000000 0.025000
v -0.420000 0.000000 0.025000
v -0.420000 0.000000 0.095000
v -0.420000 0.000000 0.065000
v -0.420000 0.000000 0.135000
v -0.340000 0.000000 0.135000
v -0.340000 0.000000 0.065000
v -0.328932 0.000000 0.153204
v -0.351068 0.000000 0.086796
v -0.411068 0.000000 0.106796
v -0.388932 0.000000 0.173204
v 0.120585 0.000000 0.390878
v 0.159415 0.000000 0.449122
v 0.219415 0.000000 0.409122
v 0.180585 0.000000 0.350878
v 0.166045 0.000000 0.371511
v 0.233955 0.000000 0.388489
v 0.253955 0.000000 0.308489
v 0.186045 0.000000 0.291511
v 0.204348 0.000000 0.331305
v 0.235652 0.000000 0.268695
v 0.155652 0.000000 0.228695
v 0.124348 0.000000 0.291305
v 0.159415 0.000000 0.289122
v 0.120585 0.000000 0.230878
v 0.060585 0.000000 0.270878
v 0.099415 0.000000 0.329122
v 0.115000 0.000000 0.300000
v 0.045000 0.000000 0.300000
v 0.045000 0.000000 0.360000
v 0.115000 0.000000 0.360000
v 0.133204 0.000000 0.331068
v 0.066796 0.000000 0.308932
v 0.046796 0.000000 0.368932
v 0.113204 0.000000 0.391068
v 0.115251 0.000000 0.444749
v 0.164749 0.000000 0.395251
v 0.104749 0.000000 0.335251
v 0.055251 0.000000 0.384749
v 0.128932 0.000000 0.433204
v 0.151068 0.000000 0.366796
v 0.091068 0.000000 0.346796
v 0.068932 0.000000 0.413204
v 0.175000 0.000000 0.300000
v 0.105000 0.000000 0.300000
v 0.105000 0.000000 0.360000
v 0.175000 0.000000 0.360000
v 0.068932 0.000000 0.346796
v 0.091068 0.000000 0.413204
v 0.151068 0.000000 0.393204
v 0.128932 0.000000 0.326796
v -0.060000 0.000000 0.925000
v -0.060000 0.000000 0.995000
v 0.000000 0.000000 0.995000
v 0.000000 0.000000 0.925000
v -0.011068 0.000000 0.973204
v 0.011068 0.000000 0.906796
v -0.048932 0.000000 0.886796
v -0.071068 0.000000 0.953204
v 0.031068 0.000000 1.013204
v 0.008932 0.000000 0.946796
v -0.051068 0.000000 0.966796
v -0.028932 0.000000 1.033204
v 0.403483 0.000000 0.514826
v 0.396517 0.000000 0.445174
v 0.196517 0.000000 0.465174
v 0.203483 0.000000 0.534826
v 0.376747 0.000000 0.453841
v 0.423253 0.000000 0.506159
v 0.603253 0.000000 0.346159
v 0.556747 0.000000 0.293841
v 0.547692 0.000000 0.306538
v 0.612308 0.000000 0.333462
v 0.712308 0.000000 0.093462
v 0.647692 0.000000 0.066538
v 0.645103 0.000000 0.082684
v 0.714897 0.000000 0.077316
v 0.694897 0.000000 -0.182684
v 0.625103 0.000000 -0.177316
v 0.635251 0.000000 -0.155251
v 0.684749 0.000000 -0.204749
v 0.544749 0.000000 -0.344749
v 0.495251 0.000000 -0.295251
v 0.523865 0.000000 -0.285214
v 0.516135 0.000000 -0.354786
v 0.336135 0.000000 -0.334786
v 0.343865 0.000000 -0.265214
v 0.361864 0.000000 -0.272670
v 0.318136 0.000000 -0.327330
v 0.118136 0.000000 -0.167330
v 0.161864 0.000000 -0.112670
v 0.172308 0.000000 -0.126538
v 0.107692 0.000000 -0.153462
v 0.007692 0.000000 0.086538
v 0.072308 0.000000 0.113462
v 0.074897 0.000000 0.097316
v 0.005103 0.000000 0.102684
v 0.025103 0.000000 0.362684
v 0.094897 0.000000 0.357316
v 0.175251 0.000000 0.524749
v 0.224749 0.000000 0.475251
v 0.084749 0.000000 0.335251
v 0.035251 0.000000 0.384749
v 0.434897 0.000000 0.477316
v 0.365103 0.000000 0.482684
v 0.385103 0.000000 0.742684
v 0.454897 0.000000 0.737316
v 0.422183 0.000000 0.774932
v 0.417817 0.000000 0.705068
v 0.097817 0.000000 0.725068
v 0.102183 0.000000 0.794932
v 0.232667 0.000000 0.512564
v 0.167333 0.000000 0.487436
v 0.067333 0.000000 0.747436
v 0.132667 0.000000 0.772564
v 0.396119 0.000000 0.714413
v 0.443881 0.000000 0.765587
v 0.743881 0.000000 0.485587
v 0.696119 0.000000 0.434413
v 0.687503 0.000000 0.447001
v 0.752497 0.000000 0.472999
v 0.912497 0.000000 0.072999
v 0.847503 0.000000 0.047001
v 0.636747 0.000000 -0.206159
v 0.683253 0.000000 -0.153841
v 0.863253 0.000000 -0.313841
v 0.816747 0.000000 -0.366159
v 0.845174 0.000000 0.063483
v 0.914826 0.000000 0.056517
v 0.874826 0.000000 -0.343483
v 0.805174 0.000000 -0.336517
v 0.487333 0.000000 -0.332564
v 0.552667 0.000000 -0.307436
v 0.652667 0.000000 -0.567436
v 0.587333 0.000000 -0.592564
v 0.814200 0.000000 -0.316350
v 0.865800 0.000000 -0.363650
v 0.645800 0.000000 -0.603650
v 0.594200 0.000000 -0.556350
v 0.305103 0.000000 -0.297316
v 0.374897 0.000000 -0.302684
v 0.354897 0.000000 -0.562684
v 0.285103 0.000000 -0.557316
v 0.622328 0.000000 -0.545078
v 0.617672 0.000000 -0.614922
v 0.317672 0.000000 -0.594922
v 0.322328 0.000000 -0.525078
v 0.343881 0.000000 -0.534413
v 0.296119 0.000000 -0.585587
v -0.003881 0.000000 -0.305587
v 0.043881 0.000000 -0.254413
v 0.051917 0.000000 -0.265637
v -0.011917 0.000000 -0.294363
v -0.191917 0.000000 0.105637
v -0.128083 0.000000 0.134363
v 0.083253 0.000000 0.386159
v 0.036747 0.000000 0.333841
v -0.143253 0.000000 0.493841
v -0.096747 0.000000 0.546159
v -0.125174 0.000000 0.116517
v -0.194826 0.000000 0.123483
v -0.154826 0.000000 0.523483
v -0.085174 0.000000 0.516517
v 0.074200 0.000000 0.783650
v 0.125800 0.000000 0.736350
v -0.094200 0.000000 0.496350
v -0.145800 0.000000 0.543650
v 0.106796 0.000000 0.228932
v 0.173204 0.000000 0.251068
v 0.193204 0.000000 0.191068
v 0.126796 0.000000 0.168932
v 0.151511 0.000000 0.146045
v 0.168489 0.000000 0.213955
v 0.248489 0.000000 0.193955
v 0.231511 0.000000 0.126045
v 0.269122 0.000000 0.140585
v 0.210878 0.000000 0.179415
v 0.250878 0.000000 0.239415
v 0.309122 0.000000 0.200585
v 0.313955 0.000000 0.228489
v 0.246045 0.000000 0.211511
v 0.226045 0.000000 0.291511
v 0.293955 0.000000 0.308489
v 0.293204 0.000000 0.251068
v 0.226796 0.000000 0.228932
v 0.206796 0.000000 0.288932
v 0.273204 0.000000 0.311068
v 0.260000 0.000000 0.335000
v 0.260000 0.000000 0.265000
v 0.180000 0.000000 0.265000
v 0.180000 0.000000 0.335000
v 0.240000 0.000000 0.335000
v 0.240000 0.000000 0.265000
v 0.180000 0.000000 0.265000
v 0.180000 0.000000 0.335000
v 0.169122 0.000000 0.220585
v 0.110878 0.000000 0.259415
v 0.150878 0.000000 0.319415
v 0.209122 0.000000 0.280585
v 0.253204 0.000000 0.211068
v 0.186796 0.000000 0.188932
v 0.166796 0.000000 0.248932
v 0.233204 0.000000 0.271068
v 0.271068 0.000000 0.273204
v 0.248932 0.000000 0.206796
v 0.188932 0.000000 0.226796
v 0.211068 0.000000 0.293204
v -0.485401 0.000000 -2.465286
v -0.554599 0.000000 -2.454714
v -0.334599 0.000000 -1.014714
v -0.265401 0.000000 -1.025286
v -0.293136 0.000000 -0.985680
v -0.306864 0.000000 -1.054320
v -0.406864 0.000000 -1.034320
v -0.393136 0.000000 -0.965680
v -0.505160 0.000000 -2.463341
v -0.574840 0.000000 -2.456659
v -0.434840 0.000000 -0.996659
v -0.365160 0.000000 -1.003341
v -0.505164 0.000000 -2.463387
v -0.574836 0.000000 -2.456613
v -0.434836 0.000000 -1.016613
v -0.365164 0.000000 -1.023387
v -0.300000 0.000000 -0.985000
v -0.300000 0.000000 -1.055000
v -0.400000 0.000000 -1.055000
v -0.400000 0.000000 -0.985000
v -0.545052 0.000000 -2.461915
v -0.614948 0.000000 -2.458085
v -0.534948 0.000000 -0.998085
v -0.465052 0.000000 -1.001915
v -0.393136 0.000000 -0.985680
v -0.406864 0.000000 -1.054320
v -0.506864 0.000000 -1.034320
v -0.493136 0.000000 -0.965680
v -0.545054 0.000000 -2.441941
v -0.614946 0.000000 -2.438059
v -0.534946 0.000000 -0.998059
v -0.465054 0.000000 -1.001941
v -0.400000 0.000000 -0.965000
v -0.400000 0.000000 -1.035000
v -0.500000 0.000000 -1.035000
v -0.500000 0.000000 -0.965000
v -0.425284 0.000000 -1.824451
v -0.494716 0.000000 -1.815549
v -0.394716 0.000000 -1.035549
v -0.325284 0.000000 -1.044451
v -0.360000 0.000000 -1.005000
v -0.360000 0.000000 -1.075000
v -0.460000 0.000000 -1.075000
v -0.460000 0.000000 -1.005000
v -0.465046 0.000000 -1.821793
v -0.534954 0.000000 -1.818207
v -0.494954 0.000000 -1.038207
v -0.425046 0.000000 -1.041793
v -0.425299 0.000000 -1.824566
v -0.494701 0.000000 -1.815434
v -0.394701 0.000000 -1.055434
v -0.325299 0.000000 -1.064566
v -0.465048 0.000000 -1.821840
v -0.534952 0.000000 -1.818160
v -0.494952 0.000000 -1.058160
v -0.425048 0.000000 -1.061840
v -0.360000 0.000000 -1.025000
v -0.360000 0.000000 -1.095000
v -0.460000 0.000000 -1.095000
v -0.460000 0.000000 -1.025000
v -0.505011 0.000000 -1.819103
v -0.574989 0.000000 -1.820897
v -0.594989 0.000000 -1.040897
v -0.525011 0.000000 -1.039103
v -0.453136 0.000000 -1.025680
v -0.466864 0.000000 -1.094320
v -0.566864 0.000000 -1.074320
v -0.553136 0.000000 -1.005680
v -0.460000 0.000000 -1.005000
v -0.460000 0.000000 -1.075000
v -0.560000 0.000000 -1.075000
v -0.560000 0.000000 -1.005000
v 0.694972 0.000000 -2.038601
v 0.625028 0.000000 -2.041399
v 0.585028 0.000000 -1.041399
v 0.654972 0.000000 -1.038601
v 0.613136 0.000000 -1.005680
v 0.626864 0.000000 -1.074320
v 0.526864 0.000000 -1.094320
v 0.513136 0.000000 -1.025680
v 0.654819 0.000000 -2.036447
v 0.585181 0.000000 -2.043553
v 0.485181 0.000000 -1.063553
v 0.554819 0.000000 -1.056447
v 0.694972 0.000000 -2.018601
v 0.625028 0.000000 -2.021399
v 0.585028 0.000000 -1.021399
v 0.654972 0.000000 -1.018601
v 0.654826 0.000000 -2.016517
v 0.585174 0.000000 -2.023483
v 0.485174 0.000000 -1.023483
v 0.554826 0.000000 -1.016517
v 0.620000 0.000000 -0.985000
v 0.620000 0.000000 -1.055000
v 0.520000 0.000000 -1.055000
v 0.520000 0.000000 -0.985000
v 0.614560 0.000000 -2.034470
v 0.545440 0.000000 -2.045530
v 0.385440 0.000000 -1.045530
v 0.454560 0.000000 -1.034470
v 0.513136 0.000000 -0.985680
v 0.526864 0.000000 -1.054320
v 0.426864 0.000000 -1.074320
v 0.413136 0.000000 -1.005680
v 0.614543 0.000000 -2.034360
v 0.545457 0.000000 -2.045640
v 0.385457 0.000000 -1.065640
v 0.454543 0.000000 -1.054360
v 0.520000 0.000000 -1.025000
v 0.520000 0.000000 -1.095000
v 0.420000 0.000000 -1.095000
v 0.420000 0.000000 -1.025000
vn 0.000000 1.000000 0.000000
vn 0.000000 1.000000 0.000000
vn 0.000000 1.000000 0.000000
vn 0.000000 1.000000 0.000000
vn 0.000000 1.000000 0.000000
vn 0.000000 1.000000 0.000000
vn 0.000000 1.000000 0.000000
vn 0.000000 1.000000 0.000000
vn 0.000000 1.000000 0.000000
vn 0.000000 1.000000 0.000000
vn 0.000000 1.000000 0.000000
vn 0.000000 1.000000 0.000000
vn 0.000000 1.000000 0.000000
vn 0.000000 1.000000 0.000000
vn 0.000000 1.000000 0.000000
vn 0.000000 1.000000 0.000000
vn 0.000000 1.000000 0.000000
vn 0.000000 1.000000 0.000000
vn 0.000000 1.000000 0.000000
vn 0.000000 1.000000 0.000000
vn 0.000000 1.000000 0.000000
vn 0.000000 1.000000 0.000000
vn 0.000000 1.000000 0.000000
vn 0.000000 1.000000 0.000000
vn 0.000000 1.000000 0.000000
vn 0.000000 1.000000 0.000000
vn 0.000000 1.000000 0.000000
vn 0.000000 1.000000 0.000000
vn 0.000000 1.000000 0.000000
vn 0.000000 1.000000 0.000000
vn 0.000000 1.000000 0.000000
vn 0.000000 1.000000 0.000000
vn 0.000000 1.000000 0.000000
vn 0.000000 1.000000 0.000000
vn 0.000000 1.000000 0.000000
vn 0.000000 1.000000 0.000000
vn 0.000000 1.000000 0.000000
vn 0.000000 1.000000 0.000000
vn 0.000000 1.000000 0.000000
vn 0.000000 1.000000 0.000000
vn 0.000000 1.000000 0.000000
vn 0.000000 1.000000 0.000000
vn 0.000000 1.000000 0.000000
vn 0.000000 1.000000 0.000000
vn 0.000000 1.000000 0.000000
vn 0.000000 1.000000 0.000000
vn 0.000000 1.000000 0.000000
vn 0.000000 1.000000 0.000000
vn 0.000000 1.000000 0.000000
vn 0.000000 1.000000 0.000000
vn 0.000000 1.000000 0.000000
vn 0.000000 1.000000 0.000000
vn 0.000000 1.000000 0.000000
vn 0.000000 1.000000 0.000000
vn 0.000000 1.000000 0.000000
vn 0.000000 1.000000 0.000000
vn 0.000000 1.000000 0.000000
vn 0.000000 1.000000 0.000000
vn 0.000000 1.000000 0.000000
vn 0.000000 1.000000 0.000000
vn 0.000000 1.000000 0.000000
vn 0.000000 1.000000 0.000000
vn 0.000000 1.000000 0.000000
vn 0.000000 1.000000 0.000000
vn 0.000000 1.000000 0.000000
vn 0.000000 1.000000 0.000000
vn 0.000000 1.000000 0.000000
vn 0.000000 1.000000 0.000000
vn 0.000000 1.000000 0.000000
vn 0.000000 1.000000 0.000000
vn 0.000000 1.000000 0.000000
vn 0.000000 1.000000 0.000000
vn 0.000000 1.000000 0.000000
vn 0.000000 1.000000 0.000000
vn 0.000000 1.000000 0.000000
vn 0.000000 1.000000 0.000000
vn 0.000000 1.000000 0.000000
vn 0.000000 1.000000 0.000000
vn 0.000000 1.000000 0.000000
vn 0.000000 1.000000 0.000000
vn 0.000000 1.000000 0.000000
vn 0.000000 1.000000 0.000000
vn 0.000000 1.000000 0.000000
vn 0.000000 1.000000 0.000000
vn 0.000000 1.000000 0.000000
vn 0.000000 1.000000 0.000000
vn 0.000000 1.000000 0.000000
vn 0.000000 1.000000 0.000000
vn 0.000000 1.000000 0.000000
vn 0.000000 1.000000 0.000000
vn 0.000000 1.000000 0.000000
vn 0.000000 1.000000 0.000000
vn 0.000000 1.000000 0.000000
vn 0.000000 1.000000 0.000000
vn 0.000000 1.000000 0.000000
vn 0.000000 1.000000 0.000000
vn 0.000000 1.000000 0.000000
vn 0.000000 1.000000 0.000000
vn 0.000000 1.000000 0.000000
vn 0.000000 1.000000 0.000000
vn 0.000000 1.000000 0.000000
vn 0.000000 1.000000 0.000000
vn 0.000000 1.000000 0.000000
vn 0.000000 1.000000 0.000000
vn 0.000000 1.000000 0.000000
vn 0.000000 1.000000 0.000000
vn 0.000000 1.000000 0.000000
vn 0.000000 1.000000 0.000000
vn 0.000000 1.000000 0.000000
vn 0.000000 1.000000 0.000000
vn 0.000000 1.000000 0.000000
vn 0.000000 1.000000 0.000000
vn 0.000000 1.000000 0.000000
vn 0.000000 1.000000 0.000000
vn 0.000000 1.000000 0.000000
vn 0.000000 1.000000 0.000000
vn 0.000000 1.000000 0.000000
vn 0.000000 1.000000 0.000000
vn 0.000000 1.000000 0.000000
vn 0.000000 1.000000 0.000000
vn 0.000000 1.000000 0.000000
vn 0.000000 1.000000 0.000000
vn 0.000000 1.000000 0.000000
vn 0.000000 1.000000 0.000000
vn 0.000000 1.000000 0.000000
vn 0.000000 1.000000 0.000000
vn 0.000000 1.000000 0.000000
vn 0.000000 1.000000 0.000000
vn 0.000000 1.000000 0.000000
vn 0.000000 1.000000 0.000000
vn 0.000000 1.000000 0.000000
vn 0.000000 1.000000 0.000000
vn 0.000000 1.000000 0.000000
vn 0.000000 1.000000 0.000000
vn 0.000000 1.000000 0.000000
vn 0.000000 1.000000 0.000000
vn 0.000000 1.000000 0.000000
vn 0.000000 1.000000 0.000000
vn 0.000000 1.000000 0.000000
vn 0.000000 1.000000 0.000000
vn 0.000000 1.000000 0.000000
vn 0.000000 1.000000 0.000000
vn 0.000000 1.000000 0.000000
vn 0.000000 1.000000 0.000000
vn 0.000000 1.000000 0.000000
vn 0.000000 1.000000 0.000000
vn 0.000000 1.000000 0.000000
vn 0.000000 1.000000 0.000000
vn 0.000000 1.000000 0.000000
vn 0.000000 1.000000 0.000000
vn 0.000000 1.000000 0.000000
vn 0.000000 1.000000 0.000000
vn 0.000000 1.000000 0.000000
vn 0.000000 1.000000 0.000000
vn 0.000000 1.000000 0.000000
vn 0.000000 1.000000 0.000000
vn 0.000000 1.000000 0.000000
vn 0.000000 1.000000 0.000000
vn 0.000000 1.000000 0.000000
vn 0.000000 1.000000 0.000000
vn 0.000000 1.000000 0.000000
vn 0.000000 1.000000 0.000000
vn 0.000000 1.000000 0.000000
vn 0.000000 1.000000 0.000000
vn 0.000000 1.000000 0.000000
vn 0.000000 1.000000 0.000000
vn 0.000000 1.000000 0.000000
vn 0.000000 1.000000 0.000000
vn 0.000000 1.000000 0.000000
vn 0.000000 1.000000 0.000000
vn 0.000000 1.000000 0.000000
vn 0.000000 1.000000 0.000000
vn 0.000000 1.000000 0.000000
vn 0.000000 1.000000 0.000000
vn 0.000000 1.000000 0.000000
vn 0.000000 1.000000 0.000000
vn 0.000000 1.000000 0.000000
vn 0.000000 1.000000 0.000000
vn 0.000000 1.000000 0.000000
vn 0.000000 1.000000 0.000000
vn 0.000000 1.000000 0.000000
vn 0.000000 1.000000 0.000000
vn 0.000000 1.000000 0.000000
vn 0.000000 1.000000 0.000000
vn 0.000000 1.000000 0.000000
vn 0.000000 1.000000 0.000000
vn 0.000000 1.000000 0.000000
vn 0.000000 1.000000 0.000000
vn 0.000000 1.000000 0.000000
vn 0.000000 1.000000 0.000000
vn 0.000000 1.000000 0.000000
vn 0.000000 1.000000 0.000000
vn 0.000000 1.000000 0.000000
vn 0.000000 1.000000 0.000000
vn 0.000000 1.000000 0.000000
vn 0.000000 1.000000 0.000000
vn 0.000000 1.000000 0.000000
vn 0.000000 1.000000 0.000000
vn 0.000000 1.000000 0.000000
vn 0.000000 1.000000 0.000000
vn 0.000000 1.000000 0.000000
vn 0.000000 1.000000 0.000000
vn 0.000000 1.000000 0.000000
vn 0.000000 1.000000 0.000000
vn 0.000000 1.000000 0.000000
vn 0.000000 1.000000 0.000000
vn 0.000000 1.000000 0.000000
vn 0.000000 1.000000 0.000000
vn 0.000000 1.000000 0.000000
vn 0.000000 1.000000 0.000000
vn 0.000000 1.000000 0.000000
vn 0.000000 1.000000 0.000000
vn 0.000000 1.000000 0.000000
vn 0.000000 1.000000 0.000000
vn 0.000000 1.000000 0.000000
vn 0.000000 1.000000 0.000000
vn 0.000000 1.000000 0.000000
vn 0.000000 1.000000 0.000000
vn 0.000000 1.000000 0.000000
vn 0.000000 1.000000 0.000000
vn 0.000000 1.000000 0.000000
vn 0.000000 1.000000 0.000000
vn 0.000000 1.000000 0.000000
vn 0.000000 1.000000 0.000000
vn 0.000000 1.000000 0.000000
vn 0.000000 1.000000 0.000000
vn 0.000000 1.000000 0.000000
vn 0.000000 1.000000 0.000000
vn 0.000000 1.000000 0.000000
vn 0.000000 1.000000 0.000000
vn 0.000000 1.000000 0.000000
vn 0.000000 1.000000 0.000000
vn 0.000000 1.000000 0.000000
vn 0.000000 1.000000 0.000000
vn 0.000000 1.000000 0.000000
vn 0.000000 1.000000 0.000000
vn 0.000000 1.000000 0.000000
vn 0.000000 1.000000 0.000000
vn 0.000000 1.000000 0.000000
vn 0.000000 1.000000 0.000000
vn 0.000000 1.000000 0.000000
vn 0.000000 1.000000 0.000000
vn 0.000000 1.000000 0.000000
vn 0.000000 1.000000 0.000000
vn 0.000000 1.000000 0.000000
vn 0.000000 1.000000 0.000000
vn 0.000000 1.000000 0.000000
vn 0.000000 1.000000 0.000000
vn 0.000000 1.000000 0.000000
vn 0.000000 1.000000 0.000000
vn 0.000000 1.000000 0.000000
vn 0.000000 1.000000 0.000000
vn 0.000000 1.000000 0.000000
vn 0.000000 1.000000 0.000000
vn 0.000000 1.000000 0.000000
vn 0.000000 1.000000 0.000000
vn 0.000000 1.000000 0.000000
vn 0.000000 1.000000 0.000000
vn 0.000000 1.000000 0.000000
vn 0.000000 1.000000 0.000000
vn 0.000000 1.000000 0.000000
vn 0.000000 1.000000 0.000000
vn 0.000000 1.000000 0.000000
vn 0.000000 1.000000 0.000000
vn 0.000000 1.000000 0.000000
vn 0.000000 1.000000 0.000000
vn 0.000000 1.000000 0.000000
vn 0.000000 1.000000 0.000000
vn 0.000000 1.000000 0.000000
vn 0.000000 1.000000 0.000000
vn 0.000000 1.000000 0.000000
vn 0.000000 1.000000 0.000000
vn 0.000000 1.000000 0.000000
vn 0.000000 1.000000 0.000000
vn 0.000000 1.000000 0.000000
vn 0.000000 1.000000 0.000000
vn 0.000000 1.000000 0.000000
vn 0.000000 1.000000 0.000000
vn 0.000000 1.000000 0.000000
vn 0.000000 1.000000 0.000000
vn 0.000000 1.000000 0.000000
vn 0.000000 1.000000 0.000000
vn 0.000000 1.000000 0.000000
vn 0.000000 1.000000 0.000000
vn 0.000000 1.000000 0.000000
vn 0.000000 1.000000 0.000000
vn 0.000000 1.000000 0.000000
vn 0.000000 1.000000 0.000000
vn 0.000000 1.000000 0.000000
vn 0.000000 1.000000 0.000000
vn 0.000000 1.000000 0.000000
vn 0.000000 1.000000 0.000000
vn 0.000000 1.000000 0.000000
vn 0.000000 1.000000 0.000000
vn 0.000000 1.000000 0.000000
vn 0.000000 1.000000 0.000000
vn 0.000000 1.000000 0.000000
vn 0.000000 1.000000 0.000000
vn 0.000000 1.000000 0.000000
vn 0.000000 1.000000 0.000000
vn 0.000000 1.000000 0.000000
vn 0.000000 1.000000 0.000000
vn 0.000000 1.000000 0.000000
vn 0.000000 1.000000 0.000000
vn 0.000000 1.000000 0.000000
vn 0.000000 1.000000 0.000000
vn 0.000000 1.000000 0.000000
vn 0.000000 1.000000 0.000000
vn 0.000000 1.000000 0.000000
vn 0.000000 1.000000 0.000000
vn 0.000000 1.000000 0.000000
vn 0.000000 1.000000 0.000000
vn 0.000000 1.000000 0.000000
vn 0.000000 1.000000 0.000000
vn 0.000000 1.000000 0.000000
vn 0.000000 1.000000 0.000000
vn 0.000000 1.000000 0.000000
vn 0.000000 1.000000 0.000000
vn 0.000000 1.000000 0.000000
vn 0.000000 1.000000 0.000000
vn 0.000000 1.000000 0.000000
vn 0.000000 1.000000 0.000000
vn 0.000000 1.000000 0.000000
vn 0.000000 1.000000 0.000000
vn 0.000000 1.000000 0.000000
vn 0.000000 1.000000 0.000000
vn 0.000000 1.000000 0.000000
vn 0.000000 1.000000 0.000000
vn 0.000000 1.000000 0.000000
vn 0.000000 1.000000 0.000000
vn 0.000000 1.000000 0.000000
vn 0.000000 1.000000 0.000000
vn 0.000000 1.000000 0.000000
vn 0.000000 1.000000 0.000000
vn 0.000000 1.000000 0.000000
vn 0.000000 1.000000 0.000000
vn 0.000000 1.000000 0.000000
vn 0.000000 1.000000 0.000000
vn 0.000000 1.000000 0.000000
vn 0.000000 1.000000 0.000000
vn 0.000000 1.000000 0.000000
vn 0.000000 1.000000 0.000000
vn 0.000000 1.000000 0.000000
vn 0.000000 1.000000 0.000000
vn 0.000000 1.000000 0.000000
vn 0.000000 1.000000 0.000000
vn 0.000000 1.000000 0.000000
vn 0.000000 1.000000 0.000000
vn 0.000000 1.000000 0.000000
vn 0.000000 1.000000 0.000000
vn 0.000000 1.000000 0.000000
vn 0.000000 1.000000 0.000000
vn 0.000000 1.000000 0.000000
vn 0.000000 1.000000 0.000000
vn 0.000000 1.000000 0.000000
vn 0.000000 1.000000 0.000000
vn 0.000000 1.000000 0.000000
vn 0.000000 1.000000 0.000000
vn 0.000000 1.000000 0.000000
vn 0.000000 1.000000 0.000000
vn 0.000000 1.000000 0.000000
vn 0.000000 1.000000 0.000000
vn 0.000000 1.000000 0.000000
vn 0.000000 1.000000 0.000000
vn 0.000000 1.000000 0.000000
vn 0.000000 1.000000 0.000000
vn 0.000000 1.000000 0.000000
vn 0.000000 1.000000 0.000000
vn 0.000000 1.000000 0.000000
vn 0.000000 1.000000 0.000000
vn 0.000000 1.000000 0.000000
vn 0.000000 1.000000 0.000000
vn 0.000000 1.000000 0.000000
vn 0.000000 1.000000 0.000000
vn 0.000000 1.000000 0.000000
vn 0.000000 1.000000 0.000000
vn 0.000000 1.000000 0.000000
vn 0.000000 1.000000 0.000000
vn 0.000000 1.000000 0.000000
vn 0.000000 1.000000 0.000000
vn 0.000000 1.000000 0.000000
vn 0.000000 1.000000 0.000000
vn 0.000000 1.000000 0.000000
vn 0.000000 1.000000 0.000000
vn 0.000000 1.000000 0.000000
vn 0.000000 1.000000 0.000000
vn 0.000000 1.000000 0.000000
vn 0.000000 1.000000 0.000000
vn 0.000000 1.000000 0.000000
vn 0.000000 1.000000 0.000000
vn 0.000000 1.000000 0.000000
vn 0.000000 1.000000 0.000000
vn 0.000000 1.000000 0.000000
vn 0.000000 1.000000 0.000000
vn 0.000000 1.000000 0.000000
vn 0.000000 1.000000 0.000000
vn 0.000000 1.000000 0.000000
vn 0.000000 1.000000 0.000000
vn 0.000000 1.000000 0.000000
vn 0.000000 1.000000 0.000000
vn 0.000000 1.000000 0.000000
vn 0.000000 1.000000 0.000000
vn 0.000000 1.000000 0.000000
vn 0.000000 1.000000 0.000000
vn 0.000000 1.000000 0.000000
vn 0.000000 1.000000 0.000000
vn 0.000000 1.000000 0.000000
vn 0.000000 1.000000 0.000000
vn 0.000000 1.000000 0.000000
vn 0.000000 1.000000 0.000000
vn 0.000000 1.000000 0.000000
vn 0.000000 1.000000 0.000000
vn 0.000000 1.000000 0.000000
vn 0.000000 1.000000 0.000000
vn 0.000000 1.000000 0.000000
vn 0.000000 1.000000 0.000000
vn 0.000000 1.000000 0.000000
vn 0.000000 1.000000 0.000000
vn 0.000000 1.000000 0.000000
vn 0.000000 1.000000 0.000000
vn 0.000000 1.000000 0.000000
vn 0.000000 1.000000 0.000000
vn 0.000000 1.000000 0.000000
vn 0.000000 1.000000 0.000000
vn 0.000000 1.000000 0.000000
vn 0.000000 1.000000 0.000000
vn 0.000000 1.000000 0.000000
vn 0.000000 1.000000 0.000000
vn 0.000000 1.000000 0.000000
vn 0.000000 1.000000 0.000000
vn 0.000000 1.000000 0.000000
vn 0.000000 1.000000 0.000000
vn 0.000000 1.000000 0.000000
vn 0.000000 1.000000 0.000000
vn 0.000000 1.000000 0.000000
vn 0.000000 1.000000 0.000000
vn 0.000000 1.000000 0.000000
vn 0.000000 1.000000 0.000000
vn 0.000000 1.000000 0.000000
vn 0.000000 1.000000 0.000000
vn 0.000000 1.000000 0.000000
vn 0.000000 1.000000 0.000000
vn 0.000000 1.000000 0.000000
vn 0.000000 1.000000 0.000000
vn 0.000000 1.000000 0.000000
vn 0.000000 1.000000 0.000000
vn 0.000000 1.000000 0.000000
vn 0.000000 1.000000 0.000000
vn 0.000000 1.000000 0.000000
vn 0.000000 1.000000 0.000000
vn 0.000000 1.000000 0.000000
vn 0.000000 1.000000 0.000000
vn 0.000000 1.000000 0.000000
vn 0.000000 1.000000 0.000000
vn 0.000000 1.000000 0.000000
vn 0.000000 1.000000 0.000000
vn 0.000000 1.000000 0.000000
vn 0.000000 1.000000 0.000000
vn 0.000000 1.000000 0.000000
vn 0.000000 1.000000 0.000000
vn 0.000000 1.000000 0.000000
vn 0.000000 1.000000 0.000000
vn 0.000000 1.000000 0.000000
vn 0.000000 1.000000 0.000000
vn 0.000000 1.000000 0.000000
vn 0.000000 1.000000 0.000000
vn 0.000000 1.000000 0.000000
vn 0.000000 1.000000 0.000000
vn 0.000000 1.000000 0.000000
vn 0.000000 1.000000 0.000000
vn 0.000000 1.000000 0.000000
vn 0.000000 1.000000 0.000000
vn 0.000000 1.000000 0.000000
vn 0.000000 1.000000 0.000000
f 1//1 3//1 2//1
f 1//1 4//1 3//1
f 5//2 7//2 6//2
f 5//2 8//2 7//2
f 9//3 11//3 10//3
f 9//3 12//3 11//3
f 13//4 15//4 14//4
f 13//4 16//4 15//4
f 17//5 19//5 18//5
f 17//5 20//5 19//5
f 21//6 23//6 22//6
f 21//6 24//6 23//6
f 25//7 27//7 26//7
f 25//7 28//7 27//7
f 29//8 31//8 30//8
f 29//8 32//8 31//8
f 33//9 35//9 34//9
f 33//9 36//9 35//9
f 37//10 39//10 38//10
f 37//10 40//10 39//10
f 41//11 43//11 42//11
f 41//11 44//11 43//11
f 45//12 47//12 46//12
f 45//12 48//12 47//12
f 49//13 51//13 50//13
f 49//13 52//13 51//13
f 53//14 55//14 54//14
f 53//14 56//14 55//14
f 57//15 59//15 58//15
f 57//15 60//15 59//15
f 61//16 63//16 62//16
f 61//16 64//16 63//16
f 65//17 67//17 66//17
f 65//17 68//17 67//17
f 69//18 71//18 70//18
f 69//18 72//18 71//18
f 73//19 75//19 74//19
f 73//19 76//19 75//19
f 77//20 79//20 78//20
f 77//20 80//20 79//20
f 81//21 83//21 82//21
f 81//21 84//21 83//21
f 85//22 87//22 86//22
f 85//22 88//22 87//22
f 89//23 91//23 90//23
f 89//23 92//23 91//23
f 93//24 95//24 94//24
f 93//24 96//24 95//24
f 97//25 99//25 98//25
f 97//25 100//25 99//25
f 101//26 103//26 102//26
f 101//26 104//26 103//26
f 105//27 107//27 106//27
f 105//27 108//27 107//27
f 109//28 111//28 110//28
f 109//28 112//28 111//28
f 113//29 115//29 114//29
f 113//29 116//29 115//29
f 117//30 119//30 118//30
f 117//30 120//30 119//30
f 121//31 123//31 122//31
f 121//31 124//31 123//31
f 125//32 127//32 126//32
f 125//32 128//32 127//32
f 129//33 131//33 130//33
f 129//33 132//33 131//33
f 133//34 135//34 134//34
f 133//34 136//34 135//34
f 137//35 139//35 138//35
f 137//35 140//35 139//35
f 141//36 143//36 142//36
f 141//36 144//36 143//36
f 145//37 147//37 146//37
f 145//37 148//37 147//37
f 149//38 151//38 150//38
f 149//38 152//38 151//38
f 153//39 155//39 154//39
f 153//39 156//39 155//39
f 157//40 159//40 158//40
f 157//40 160//40 159//40
f 161//41 163//41 162//41
f 161//41 164//41 163//41
f 165//42 167//42 166//42
f 165//42 168//42 167//42
f 169//43 171//43 170//43
f 169//43 172//43 171//43
f 173//44 175//44 174//44
f 173//44 176//44 175//44
f 177//45 179//45 178//45
f 177//45 180//45 179//45
f 181//46 183//46 182//46
f 181//46 184//46 183//46
f 185//47 187//47 186//47
f 185//47 188//47 187//47
f 189//48 191//48 190//48
f 189//48 192//48 191//48
f 193//49 195//49 194//49
f 193//49 196//49 195//49
f 197//50 199//50 198//50
f 197//50 200//50 199//50
f 201//51 203//51 202//51
f 201//51 204//51 203//51
f 205//52 207//52 206//52
f 205//52 208//52 207//52
f 209//53 211//53 210//53
f 209//53 212//53 211//53
f 213//54 215//54 214//54
f 213//54 216//54 215//54
f 217//55 219//55 218//55
f 217//55 220//55 219//55
f 221//56 223//56 222//56
f 221//56 224//56 223//56
f 225//57 227//57 226//57
f 225//57 228//57 227//57
f 229//58 231//58 230//58
f 229//58 232//58 231//58
f 233//59 235//59 234//59
f 233//59 236//59 235//59
f 237//60 239//60 238//60
f 237//60 240//60 239//60
f 241//61 243//61 242//61
f 241//61 244//61 243//61
f 245//62 247//62 246//62
f 245//62 248//62 247//62
f 249//63 251//63 250//63
f 249//63 252//63 251//63
f 253//64 255//64 254//64
f 253//64 256//64 255//64
f 257//65 259//65 258//65
f 257//65 260//65 259//65
f 261//66 263//66 262//66
f 261//66 264//66 263//66
f 265//67 267//67 266//67
f 265//67 268//67 267//67
f 269//68 271//68 270//68
f 269//68 272//68 271//68
f 273//69 275//69 274//69
f 273//69 276//69 275//69
f 277//70 279//70 278//70
f 277//70 280//70 279//70
f 281//71 283//71 282//71
f 281//71 284//71 283//71
f 285//72 287//72 286//72
f 285//72 288//72 287//72
f 289//73 291//73 290//73
f 289//73 292//73 291//73
f 293//74 295//74 294//74
f 293//74 296//74 295//74
f 297//75 299//75 298//75
f 297//75 300//75 299//75
f 301//76 303//76 302//76
f 301//76 304//76 303//76
f 305//77 307//77 306//77
f 305//77 308//77 307//77
f 309//78 311//78 310//78
f 309//78 312//78 311//78
f 313//79 315//79 314//79
f 313//79 316//79 315//79
f 317//80 319//80 318//80
f 317//80 320//80 319//80
f 321//81 323//81 322//81
f 321//81 324//81 323//81
f 325//82 327//82 326//82
f 325//82 328//82 327//82
f 329//83 331//83 330//83
f 329//83 332//83 331//83
f 333//84 335//84 334//84
f 333//84 336//84 335//84
f 337//85 339//85 338//85
f 337//85 340//85 339//85
f 341//86 343//86 342//86
f 341//86 344//86 343//86
f 345//87 347//87 346//87
f 345//87 348//87 347//87
f 349//88 351//88 350//88
f 349//88 352//88 351//88
f 353//89 355//89 354//89
f 353//89 356//89 355//89
f 357//90 359//90 358//90
f 357//90 360//90 359//90
f 361//91 363//91 362//91
f 361//91 364//91 363//91
f 365//92 367//92 366//92
f 365//92 368//92 367//92
f 369//93 371//93 370//93
f 369//93 372//93 371//93
f 373//94 375//94 374//94
f 373//94 376//94 375//94
f 377//95 379//95 378//95
f 377//95 380//95 379//95
f 381//96 383//96 382//96
f 381//96 384//96 383//96
f 385//97 387//97 386//97
f 385//97 388//97 387//97
f 389//98 391//98 390//98
f 389//98 392//98 391//98
f 393//99 395//99 394//99
f 393//99 396//99 395//99
f 397//100 399//100 398//100
f 397//100 400//100 399//100
f 401//101 403//101 402//101
f 401//101 404//101 403//101
f 405//102 407//102 406//102
f 405//102 408//102 407//102
f 409//103 411//103 410//103
f 409//103 412//103 411//103
f 413//104 415//104 414//104
f 413//104 416//104 415//104
f 417//105 419//105 418//105
f 417//105 420//105 419//105
f 421//106 423//106 422//106
f 421//106 424//106 423//106
f 425//107 427//107 426//107
f 425//107 428//107 427//107
f 429//108 431//108 430//108
f 429//108 432//108 431//108
f 433//109 435//109 434//109
f 433//109 436//109 435//109
f 437//110 439//110 438//110
f 437//110 440//110 439//110
f 441//111 443//111 442//111
f 441//111 444//111 443//111
f 445//112 447//112 446//112
f 445//112 448//112 447//112
f 449//113 451//113 450//113
f 449//113 452//113 451//113
f 453//114 455//114 454//114
f 453//114 456//114 455//114
f 457//115 459//115 458//115
f 457//115 460//115 459//115
f 461//116 463//116 462//116
f 461//116 464//116 463//116
f 465//117 467//117 466//117
f 465//117 468//117 467//117
f 469//118 471//118 470//118
f 469//118 472//118 471//118
f 473//119 475//119 474//119
f 473//119 476//119 475//119
f 477//120 479//120 478//120
f 477//120 480//120 479//120
f 481//121 483//121 482//121
f 481//121 484//121 483//121
f 485//122 487//122 486//122
f 485//122 488//122 487//122
f 489//123 491//123 490//123
f 489//123 492//123 491//123
f 493//124 495//124 494//124
f 493//124 496//124 495//124
f 497//125 499//125 498//125
f 497//125 500//125 499//125
f 501//126 503//126 502//126
f 501//126 504//126 503//126
f 505//127 507//127 506//127
f 505//127 508//127 507//127
f 509//128 511//128 510//128
f 509//128 512//128 511//128
f 513//129 515//129 514//129
f 513//129 516//129 515//129
f 517//130 519//130 518//130
f 517//130 520//130 519//130
f 521//131 523//131 522//131
f 521//131 524//131 523//131
f 525//132 527//132 526//132
f 525//132 528//132 527//132
f 529//133 531//133 530//133
f 529//133 532//133 531//133
f 533//134 535//134 534//134
f 533//134 536//134 535//134
f 537//135 539//135 538//135
f 537//135 540//135 539//135
f 541//136 543//136 542//136
f 541//136 544//136 543//136
f 545//137 547//137 546//137
f 545//137 548//137 547//137
f 549//138 551//138 550//138
f 549//138 552//138 551//138
f 553//139 555//139 554//139
f 553//139 556//139 555//139
f 557//140 559//140 558//140
f 557//140 560//140 559//140
f 561//141 563//141 562//141
f 561//141 564//141 563//141
f 565//142 567//142 566//142
f 565//142 568//142 567//142
f 569//143 571//143 570//143
f 569//143 572//143 571//143
f 573//144 575//144 574//144
f 573//144 576//144 575//144
f 577//145 579//145 578//145
f 577//145 580//145 579//145
f 581//146 583//146 582//146
f 581//146 584//146 583//146
f 585//147 587//147 586//147
f 585//147 588//147 587//147
f 589//148 591//148 590//148
f 589//148 592//148 591//148
f 593//149 595//149 594//149
f 593//149 596//149 595//149
f 597//150 599//150 598//150
f 597//150 600//150 599//150
f 601//151 603//151 602//151
f 601//151 604//151 603//151
f 605//152 607//152 606//152
f 605//152 608//152 607//152
f 609//153 611//153 610//153
f 609//153 612//153 611//153
f 613//154 615//154 614//154
f 613//154 616//154 615//154
f 617//155 619//155 618//155
f 617//155 620//155 619//155
f 621//156 623//156 622//156
f 621//156 624//156 623//156
f 625//157 627//157 626//157
f 625//157 628//157 627//157
f 629//158 631//158 630//158
f 629//158 632//158 631//158
f 633//159 635//159 634//159
f 633//159 636//159 635//159
f 637//160 639//160 638//160
f 637//160 640//160 639//160
f 641//161 643//161 642//161
f 641//161 644//161 643//161
f 645//162 647//162 646//162
f 645//162 648//162 647//162
f 649//163 651//163 650//163
f 649//163 652//163 651//163
f 653//164 655//164 654//164
f 653//164 656//164 655//164
f 657//165 659//165 658//165
f 657//165 660//165 659//165
f 661//166 663//166 662//166
f 661//166 664//166 663//166
f 665//167 667//167 666//167
f 665//167 668//167 667//167
f 669//168 671//168 670//168
f 669//168 672//168 671//168
f 673//169 675//169 674//169
f 673//169 676//169 675//169
f 677//170 679//170 678//170
f 677//170 680//170 679//170
f 681//171 683//171 682//171
f 681//171 684//171 683//171
f 685//172 687//172 686//172
f 685//172 688//172 687//172
f 689//173 691//173 690//173
f 689//173 692//173 691//173
f 693//174 695//174 694//174
f 693//174 696//174 695//174
f 697//175 699//175 698//175
f 697//175 700//175 699//175
f 701//176 703//176 702//176
f 701//176 704//176 703//176
f 705//177 707//177 706//177
f 705//177 708//177 707//177
f 709//178 711//178 710//178
f 709//178 712//178 711//178
f 713//179 715//179 714//179
f 713//179 716//179 715//179
f 717//180 719//180 718//180
f 717//180 720//180 719//180
f 721//181 723//181 722//181
f 721//181 724//181 723//181
f 725//182 727//182 726//182
f 725//182 728//182 727//182
f 729//183 731//183 730//183
f 729//183 732//183 731//183
f 733//184 735//184 734//184
f 733//184 736//184 735//184
f 737//185 739//185 738//185
f 737//185 740//185 739//185
f 741//186 743//186 742//186
f 741//186 744//186 743//186
f 745//187 747//187 746//187
f 745//187 748//187 747//187
f 749//188 751//188 750//188
f 749//188 752//188 751//188
f 753//189 755//189 754//189
f 753//189 756//189 755//189
f 757//190 759//190 758//190
f 757//190 760//190 759//190
f 761//191 763//191 762//191
f 761//191 764//191 763//191
f 765//192 767//192 766//192
f 765//192 768//192 767//192
f 769//193 771//193 770//193
f 769//193 772//193 771//193
f 773//194 775//194 774//194
f 773//194 776//194 775//194
f 777//195 779//195 778//195
f 777//195 780//195 779//195
f 781//196 783//196 782//196
f 781//196 784//196 783//196
f 785//197 787//197 786//197
f 785//197 788//197 787//197
f 789//198 791//198 790//198
f 789//198 792//198 791//198
f 793//199 795//199 794//199
f 793//199 796//199 795//199
f 797//200 799//200 798//200
f 797//200 800//200 799//200
f 801//201 803//201 802//201
f 801//201 804//201 803//201
f 805//202 807//202 806//202
f 805//202 808//202 807//202
f 809//203 811//203 810//203
f 809//203 812//203 811//203
f 813//204 815//204 814//204
f 813//204 816//204 815//204
f 817//205 819//205 818//205
f 817//205 820//205 819//205
f 821//206 823//206 822//206
f 821//206 824//206 823//206
f 825//207 827//207 826//207
f 825//207 828//207 827//207
f 829//208 831//208 830//208
f 829//208 832//208 831//208
f 833//209 835//209 834//209
f 833//209 836//209 835//209
f 837//210 839//210 838//210
f 837//210 840//210 839//210
f 841//211 843//211 842//211
f 841//211 844//211 843//211
f 845//212 847//212 846//212
f 845//212 848//212 847//212
f 849//213 851//213 850//213
f 849//213 852//213 851//213
f 853//214 855//214 854//214
f 853//214 856//214 855//214
f 857//215 859//215 858//215
f 857//215 860//215 859//215
f 861//216 863//216 862//216
f 861//216 864//216 863//216
f 865//217 867//217 866//217
f 865//217 868//217 867//217
f 869//218 871//218 870//218
f 869//218 872//218 871//218
f 873//219 875//219 874//219
f 873//219 876//219 875//219
f 877//220 879//220 878//220
f 877//220 880//220 879//220
f 881//221 883//221 882//221
f 881//221 884//221 883//221
f 885//222 887//222 886//222
f 885//222 888//222 887//222
f 889//223 891//223 890//223
f 889//223 892//223 891//223
f 893//224 895//224 894//224
f 893//224 896//224 895//224
f 897//225 899//225 898//225
f 897//225 900//225 899//225
f 901//226 903//226 902//226
f 901//226 904//226 903//226
f 905//227 907//227 906//227
f 905//227 908//227 907//227
f 909//228 911//228 910//228
f 909//228 912//228 911//228
f 913//229 915//229 914//229
f 913//229 916//229 915//229
f 917//230 919//230 918//230
f 917//230 920//230 919//230
f 921//231 923//231 922//231
f 921//231 924//231 923//231
f 925//232 927//232 926//232
f 925//232 928//232 927//232
f 929//233 931//233 930//233
f 929//233 932//233 931//233
f 933//234 935//234 934//234
f 933//234 936//234 935//234
f 937//235 939//235 938//235
f 937//235 940//235 939//235
f 941//236 943//236 942//236
f 941//236 944//236 943//236
f 945//237 947//237 946//237
f 945//237 948//237 947//237
f 949//238 951//238 950//238
f 949//238 952//238 951//238
f 953//239 955//239 954//239
f 953//239 956//239 955//239
f 957//240 959//240 958//240
f 957//240 960//240 959//240
f 961//241 963//241 962//241
f 961//241 964//241 963//241
f 965//242 967//242 966//242
f 965//242 968//242 967//242
f 969//243 971//243 970//243
f 969//243 972//243 971//243
f 973//244 975//244 974//244
f 973//244 976//244 975//244
f 977//245 979//245 978//245
f 977//245 980//245 979//245
f 981//246 983//246 982//246
f 981//246 984//246 983//246
f 985//247 987//247 986//247
f 985//247 988//247 987//247
f 989//248 991//248 990//248
f 989//248 992//248 991//248
f 993//249 995//249 994//249
f 993//249 996//249 995//249
f 997//250 999//250 998//250
f 997//250 1000//250 999//250
f 1001//251 1003//251 1002//251
f 1001//251 1004//251 1003//251
f 1005//252 1007//252 1006//252
f 1005//252 1008//252 1007//252
f 1009//253 1011//253 1010//253
f 1009//253 1012//253 1011//253
f 1013//254 1015//254 1014//254
f 1013//254 1016//254 1015//254
f 1017//255 1019//255 1018//255
f 1017//255 1020//255 1019//255
f 1021//256 1023//256 1022//256
f 1021//256 1024//256 1023//256
f 1025//257 1027//257 1026//257
f 1025//257 1028//257 1027//257
f 1029//258 1031//258 1030//258
f 1029//258 1032//258 1031//258
f 1033//259 1035//259 1034//259
f 1033//259 1036//259 1035//259
f 1037//260 1039//260 1038//260
f 1037//260 1040//260 1039//260
f 1041//261 1043//261 1042//261
f 1041//261 1044//261 1043//261
f 1045//262 1047//262 1046//262
f 1045//262 1048//262 1047//262
f 1049//263 1051//263 1050//263
f 1049//263 1052//263 1051//263
f 1053//264 1055//264 1054//264
f 1053//264 1056//264 1055//264
f 1057//265 1059//265 1058//265
f 1057//265 1060//265 1059//265
f 1061//266 1063//266 1062//266
f 1061//266 1064//266 1063//266
f 1065//267 1067//267 1066//267
f 1065//267 1068//267 1067//267
f 1069//268 1071//268 1070//268
f 1069//268 1072//268 1071//268
f 1073//269 1075//269 1074//269
f 1073//269 1076//269 1075//269
f 1077//270 1079//270 1078//270
f 1077//270 1080//270 1079//270
f 1081//271 1083//271 1082//271
f 1081//271 1084//271 1083//271
f 1085//272 1087//272 1086//272
f 1085//272 1088//272 1087//272
f 1089//273 1091//273 1090//273
f 1089//273 1092//273 1091//273
f 1093//274 1095//274 1094//274
f 1093//274 1096//274 1095//274
f 1097//275 1099//275 1098//275
f 1097//275 1100//275 1099//275
f 1101//276 1103//276 1102//276
f 1101//276 1104//276 1103//276
f 1105//277 1107//277 1106//277
f 1105//277 1108//277 1107//277
f 1109//278 1111//278 1110//278
f 1109//278 1112//278 1111//278
f 1113//279 1115//279 1114//279
f 1113//279 1116//279 1115//279
f 1117//280 1119//280 1118//280
f 1117//280 1120//280 1119//280
f 1121//281 1123//281 1122//281
f 1121//281 1124//281 1123//281
f 1125//282 1127//282 1126//282
f 1125//282 1128//282 1127//282
f 1129//283 1131//283 1130//283
f 1129//283 1132//283 1131//283
f 1133//284 1135//284 1134//284
f 1133//284 1136//284 1135//284
f 1137//285 1139//285 1138//285
f 1137//285 1140//285 1139//285
f 1141//286 1143//286 1142//286
f 1141//286 1144//286 1143//286
f 1145//287 1147//287 1146//287
f 1145//287 1148//287 1147//287
f 1149//288 1151//288 1150//288
f 1149//288 1152//288 1151//288
f 1153//289 1155//289 1154//289
f 1153//289 1156//289 1155//289
f 1157//290 1159//290 1158//290
f 1157//290 1160//290 1159//290
f 1161//291 1163//291 1162//291
f 1161//291 1164//291 1163//291
f 1165//292 1167//292 1166//292
f 1165//292 1168//292 1167//292
f 1169//293 1171//293 1170//293
f 1169//293 1172//293 1171//293
f 1173//294 1175//294 1174//294
f 1173//294 1176//294 1175//294
f 1177//295 1179//295 1178//295
f 1177//295 1180//295 1179//295
f 1181//296 1183//296 1182//296
f 1181//296 1184//296 1183//296
f 1185//297 1187//297 1186//297
f 1185//297 1188//297 1187//297
f 1189//298 1191//298 1190//298
f 1189//298 1192//298 1191//298
f 1193//299 1195//299 1194//299
f 1193//299 1196//299 1195//299
f 1197//300 1199//300 1198//300
f 1197//300 1200//300 1199//300
f 1201//301 1203//301 1202//301
f 1201//301 1204//301 1203//301
f 1205//302 1207//302 1206//302
f 1205//302 1208//302 1207//302
f 1209//303 1211//303 1210//303
f 1209//303 1212//303 1211//303
f 1213//304 1215//304 1214//304
f 1213//304 1216//304 1215//304
f 1217//305 1219//305 1218//305
f 1217//305 1220//305 1219//305
f 1221//306 1223//306 1222//306
f 1221//306 1224//306 1223//306
f 1225//307 1227//307 1226//307
f 1225//307 1228//307 1227//307
f 1229//308 1231//308 1230//308
f 1229//308 1232//308 1231//308
f 1233//309 1235//309 1234//309
f 1233//309 1236//309 1235//309
f 1237//310 1239//310 1238//310
f 1237//310 1240//310 1239//310
f 1241//311 1243//311 1242//311
f 1241//311 1244//311 1243//311
f 1245//312 1247//312 1246//312
f 1245//312 1248//312 1247//312
f 1249//313 1251//313 1250//313
f 1249//313 1252//313 1251//313
f 1253//314 1255//314 1254//314
f 1253//314 1256//314 1255//314
f 1257//315 1259//315 1258//315
f 1257//315 1260//315 1259//315
f 1261//316 1263//316 1262//316
f 1261//316 1264//316 1263//316
f 1265//317 1267//317 1266//317
f 1265//317 1268//317 1267//317
f 1269//318 1271//318 1270//318
f 1269//318 1272//318 1271//318
f 1273//319 1275//319 1274//319
f 1273//319 1276//319 1275//319
f 1277//320 1279//320 1278//320
f 1277//320 1280//320 1279//320
f 1281//321 1283//321 1282//321
f 1281//321 1284//321 1283//321
f 1285//322 1287//322 1286//322
f 1285//322 1288//322 1287//322
f 1289//323 1291//323 1290//323
f 1289//323 1292//323 1291//323
f 1293//324 1295//324 1294//324
f 1293//324 1296//324 1295//324
f 1297//325 1299//325 1298//325
f 1297//325 1300//325 1299//325
f 1301//326 1303//326 1302//326
f 1301//326 1304//326 1303//326
f 1305//327 1307//327 1306//327
f 1305//327 1308//327 1307//327
f 1309//328 1311//328 1310//328
f 1309//328 1312//328 1311//328
f 1313//329 1315//329 1314//329
f 1313//329 1316//329 1315//329
f 1317//330 1319//330 1318//330
f 1317//330 1320//330 1319//330
f 1321//331 1323//331 1322//331
f 1321//331 1324//331 1323//331
f 1325//332 1327//332 1326//332
f 1325//332 1328//332 1327//332
f 1329//333 1331//333 1330//333
f 1329//333 1332//333 1331//333
f 1333//334 1335//334 1334//334
f 1333//334 1336//334 1335//334
f 1337//335 1339//335 1338//335
f 1337//335 1340//335 1339//335
f 1341//336 1343//336 1342//336
f 1341//336 1344//336 1343//336
f 1345//337 1347//337 1346//337
f 1345//337 1348//337 1347//337
f 1349//338 1351//338 1350//338
f 1349//338 1352//338 1351//338
f 1353//339 1355//339 1354//339
f 1353//339 1356//339 1355//339
f 1357//340 1359//340 1358//340
f 1357//340 1360//340 1359//340
f 1361//341 1363//341 1362//341
f 1361//341 1364//341 1363//341
f 1365//342 1367//342 1366//342
f 1365//342 1368//342 1367//342
f 1369//343 1371//343 1370//343
f 1369//343 1372//343 1371//343
f 1373//344 1375//344 1374//344
f 1373//344 1376//344 1375//344
f 1377//345 1379//345 1378//345
f 1377//345 1380//345 1379//345
f 1381//346 1383//346 1382//346
f 1381//346 1384//346 1383//346
f 1385//347 1387//347 1386//347
f 1385//347 1388//347 1387//347
f 1389//348 1391//348 1390//348
f 1389//348 1392//348 1391//348
f 1393//349 1395//349 1394//349
f 1393//349 1396//349 1395//349
f 1397//350 1399//350 1398//350
f 1397//350 1400//350 1399//350
f 1401//351 1403//351 1402//351
f 1401//351 1404//351 1403//351
f 1405//352 1407//352 1406//352
f 1405//352 1408//352 1407//352
f 1409//353 1411//353 1410//353
f 1409//353 1412//353 1411//353
f 1413//354 1415//354 1414//354
f 1413//354 1416//354 1415//354
f 1417//355 1419//355 1418//355
f 1417//355 1420//355 1419//355
f 1421//356 1423//356 1422//356
f 1421//356 1424//356 1423//356
f 1425//357 1427//357 1426//357
f 1425//357 1428//357 1427//357
f 1429//358 1431//358 1430//358
f 1429//358 1432//358 1431//358
f 1433//359 1435//359 1434//359
f 1433//359 1436//359 1435//359
f 1437//360 1439//360 1438//360
f 1437//360 1440//360 1439//360
f 1441//361 1443//361 1442//361
f 1441//361 1444//361 1443//361
f 1445//362 1447//362 1446//362
f 1445//362 1448//362 1447//362
f 1449//363 1451//363 1450//363
f 1449//363 1452//363 1451//363
f 1453//364 1455//364 1454//364
f 1453//364 1456//364 1455//364
f 1457//365 1459//365 1458//365
f 1457//365 1460//365 1459//365
f 1461//366 1463//366 1462//366
f 1461//366 1464//366 1463//366
f 1465//367 1467//367 1466//367
f 1465//367 1468//367 1467//367
f 1469//368 1471//368 1470//368
f 1469//368 1472//368 1471//368
f 1473//369 1475//369 1474//369
f 1473//369 1476//369 1475//369
f 1477//370 1479//370 1478//370
f 1477//370 1480//370 1479//370
f 1481//371 1483//371 1482//371
f 1481//371 1484//371 1483//371
f 1485//372 1487//372 1486//372
f 1485//372 1488//372 1487//372
f 1489//373 1491//373 1490//373
f 1489//373 1492//373 1491//373
f 1493//374 1495//374 1494//374
f 1493//374 1496//374 1495//374
f 1497//375 1499//375 1498//375
f 1497//375 1500//375 1499//375
f 1501//376 1503//376 1502//376
f 1501//376 1504//376 1503//376
f 1505//377 1507//377 1506//377
f 1505//377 1508//377 1507//377
f 1509//378 1511//378 1510//378
f 1509//378 1512//378 1511//378
f 1513//379 1515//379 1514//379
f 1513//379 1516//379 1515//379
f 1517//380 1519//380 1518//380
f 1517//380 1520//380 1519//380
f 1521//381 1523//381 1522//381
f 1521//381 1524//381 1523//381
f 1525//382 1527//382 1526//382
f 1525//382 1528//382 1527//382
f 1529//383 1531//383 1530//383
f 1529//383 1532//383 1531//383
f 1533//384 1535//384 1534//384
f 1533//384 1536//384 1535//384
f 1537//385 1539//385 1538//385
f 1537//385 1540//385 1539//385
f 1541//386 1543//386 1542//386
f 1541//386 1544//386 1543//386
f 1545//387 1547//387 1546//387
f 1545//387 1548//387 1547//387
f 1549//388 1551//388 1550//388
f 1549//388 1552//388 1551//388
f 1553//389 1555//389 1554//389
f 1553//389 1556//389 1555//389
f 1557//390 1559//390 1558//390
f 1557//390 1560//390 1559//390
f 1561//391 1563//391 1562//391
f 1561//391 1564//391 1563//391
f 1565//392 1567//392 1566//392
f 1565//392 1568//392 1567//392
f 1569//393 1571//393 1570//393
f 1569//393 1572//393 1571//393
f 1573//394 1575//394 1574//394
f 1573//394 1576//394 1575//394
f 1577//395 1579//395 1578//395
f 1577//395 1580//395 1579//395
f 1581//396 1583//396 1582//396
f 1581//396 1584//396 1583//396
f 1585//397 1587//397 1586//397
f 1585//397 1588//397 1587//397
f 1589//398 1591//398 1590//398
f 1589//398 1592//398 1591//398
f 1593//399 1595//399 1594//399
f 1593//399 1596//399 1595//399
f 1597//400 1599//400 1598//400
f 1597//400 1600//400 1599//400
f 1601//401 1603//401 1602//401
f 1601//401 1604//401 1603//401
f 1605//402 1607//402 1606//402
f 1605//402 1608//402 1607//402
f 1609//403 1611//403 1610//403
f 1609//403 1612//403 1611//403
f 1613//404 1615//404 1614//404
f 1613//404 1616//404 1615//404
f 1617//405 1619//405 1618//405
f 1617//405 1620//405 1619//405
f 1621//406 1623//406 1622//406
f 1621//406 1624//406 1623//406
f 1625//407 1627//407 1626//407
f 1625//407 1628//407 1627//407
f 1629//408 1631//408 1630//408
f 1629//408 1632//408 1631//408
f 1633//409 1635//409 1634//409
f 1633//409 1636//409 1635//409
f 1637//410 1639//410 1638//410
f 1637//410 1640//410 1639//410
f 1641//411 1643//411 1642//411
f 1641//411 1644//411 1643//411
f 1645//412 1647//412 1646//412
f 1645//412 1648//412 1647//412
f 1649//413 1651//413 1650//413
f 1649//413 1652//413 1651//413
f 1653//414 1655//414 1654//414
f 1653//414 1656//414 1655//414
f 1657//415 1659//415 1658//415
f 1657//415 1660//415 1659//415
f 1661//416 1663//416 1662//416
f 1661//416 1664//416 1663//416
f 1665//417 1667//417 1666//417
f 1665//417 1668//417 1667//417
f 1669//418 1671//418 1670//418
f 1669//418 1672//418 1671//418
f 1673//419 1675//419 1674//419
f 1673//419 1676//419 1675//419
f 1677//420 1679//420 1678//420
f 1677//420 1680//420 1679//420
f 1681//421 1683//421 1682//421
f 1681//421 1684//421 1683//421
f 1685//422 1687//422 1686//422
f 1685//422 1688//422 1687//422
f 1689//423 1691//423 1690//423
f 1689//423 1692//423 1691//423
f 1693//424 1695//424 1694//424
f 1693//424 1696//424 1695//424
f 1697//425 1699//425 1698//425
f 1697//425 1700//425 1699//425
f 1701//426 1703//426 1702//426
f 1701//426 1704//426 1703//426
f 1705//427 1707//427 1706//427
f 1705//427 1708//427 1707//427
f 1709//428 1711//428 1710//428
f 1709//428 1712//428 1711//428
f 1713//429 1715//429 1714//429
f 1713//429 1716//429 1715//429
f 1717//430 1719//430 1718//430
f 1717//430 1720//430 1719//430
f 1721//431 1723//431 1722//431
f 1721//431 1724//431 1723//431
f 1725//432 1727//432 1726//432
f 1725//432 1728//432 1727//432
f 1729//433 1731//433 1730//433
f 1729//433 1732//433 1731//433
f 1733//434 1735//434 1734//434
f 1733//434 1736//434 1735//434
f 1737//435 1739//435 1738//435
f 1737//435 1740//435 1739//435
f 1741//436 1743//436 1742//436
f 1741//436 1744//436 1743//436
f 1745//437 1747//437 1746//437
f 1745//437 1748//437 1747//437
f 1749//438 1751//438 1750//438
f 1749//438 1752//438 1751//438
f 1753//439 1755//439 1754//439
f 1753//439 1756//439 1755//439
f 1757//440 1759//440 1758//440
f 1757//440 1760//440 1759//440
f 1761//441 1763//441 1762//441
f 1761//441 1764//441 1763//441
f 1765//442 1767//442 1766//442
f 1765//442 1768//442 1767//442
f 1769//443 1771//443 1770//443
f 1769//443 1772//443 1771//443
f 1773//444 1775//444 1774//444
f 1773//444 1776//444 1775//444
f 1777//445 1779//445 1778//445
f 1777//445 1780//445 1779//445
f 1781//446 1783//446 1782//446
f 1781//446 1784//446 1783//446
f 1785//447 1787//447 1786//447
f 1785//447 1788//447 1787//447
f 1789//448 1791//448 1790//448
f 1789//448 1792//448 1791//448
f 1793//449 1795//449 1794//449
f 1793//449 1796//449 1795//449
f 1797//450 1799//450 1798//450
f 1797//450 1800//450 1799//450
f 1801//451 1803//451 1802//451
f 1801//451 1804//451 1803//451
f 1805//452 1807//452 1806//452
f 1805//452 1808//452 1807//452
f 1809//453 1811//453 1810//453
f 1809//453 1812//453 1811//453
f 1813//454 1815//454 1814//454
f 1813//454 1816//454 1815//454
f 1817//455 1819//455 1818//455
f 1817//455 1820//455 1819//455
f 1821//456 1823//456 1822//456
f 1821//456 1824//456 1823//456
f 1825//457 1827//457 1826//457
f 1825//457 1828//457 1827//457
f 1829//458 1831//458 1830//458
f 1829//458 1832//458 1831//458
f 1833//459 1835//459 1834//459
f 1833//459 1836//459 1835//459
f 1837//460 1839//460 1838//460
f 1837//460 1840//460 1839//460
f 1841//461 1843//461 1842//461
f 1841//461 1844//461 1843//461
f 1845//462 1847//462 1846//462
f 1845//462 1848//462 1847//462
f 1849//463 1851//463 1850//463
f 1849//463 1852//463 1851//463
f 1853//464 1855//464 1854//464
f 1853//464 1856//464 1855//464
f 1857//465 1859//465 1858//465
f 1857//465 1860//465 1859//465
f 1861//466 1863//466 1862//466
f 1861//466 1864//466 1863//466
f 1865//467 1867//467 1866//467
f 1865//467 1868//467 1867//467
f 1869//468 1871//468 1870//468
f 1869//468 1872//468 1871//468
f 1873//469 1875//469 1874//469
f 1873//469 1876//469 1875//469
f 1877//470 1879//470 1878//470
f 1877//470 1880//470 1879//470
f 1881//471 1883//471 1882//471
f 1881//471 1884//471 1883//471
f 1885//472 1887//472 1886//472
f 1885//472 1888//472 1887//472
f 1889//473 1891//473 1890//473
f 1889//473 1892//473 1891//473
f 1893//474 1895//474 1894//474
f 1893//474 1896//474 1895//474
