# Bloom frigate, fragment 5 of 8
# Generated by tools. Edit the generator script.
v -0.113815 1.115427 1.758842
v 0.374292 1.400192 1.571754
v -0.113815 1.400192 1.673877
v 0.259766 1.641604 1.353756
v -0.113815 1.641604 1.431918
v 0.765724 1.400192 1.285610
v 0.559355 1.641604 1.134751
v -0.601922 1.400192 1.571754
v -0.487396 1.641604 1.353756
v 0.088366 1.802910 1.027499
v -0.113815 1.802910 1.069800
v 0.250502 1.802910 0.908974
v 0.725614 1.641604 0.818280
v 0.340481 1.802910 0.737701
v -0.786985 1.641604 0.150553
v -0.953244 1.641604 0.467024
v -0.568111 1.802910 0.547603
v -0.478132 1.802910 0.376330
v -0.953244 1.641604 0.818280
v -0.568111 1.802910 0.737701
v -0.786985 1.641604 1.134751
v -0.478132 1.802910 0.908974
v -0.315996 1.802910 1.027499
v -0.113815 1.859553 0.642652
v 0.340481 1.802910 0.547603
v 0.250502 1.802910 0.376330
v 0.088366 1.802910 0.257806
v -0.113815 1.802910 0.215505
v -0.315996 1.802910 0.257806
v 0.413755 1.014717 0.315730
v 0.119475 1.014717 0.794965
v 0.119475 1.551576 0.794965
v 0.115411 1.014717 1.326372
v 0.115411 1.551576 1.326372
v 0.403115 1.551576 1.706973
v 0.872694 1.551576 1.791391
v 0.875206 1.985905 1.462963
v 0.584990 1.985905 1.410790
v 0.413755 1.551576 0.315730
v 0.409691 1.985905 0.847138
v 0.407179 1.985905 1.175566
v 0.879270 2.151803 0.931555
v 0.262429 1.071801 0.905125
v 0.645504 1.439783 1.096964
v 0.254878 1.439783 1.272920
v -0.115979 1.071801 0.485975
v 0.025676 1.071801 0.786561
v -0.128197 1.439783 1.081080
v -0.357399 1.439783 0.594722
v 0.645504 1.894634 1.096964
v 0.254878 1.894634 1.272920
v -0.345182 1.439783 -0.000383
v -0.357399 1.894634 0.594722
v -0.128197 1.894634 1.081080
v 0.503849 2.262616 0.796378
v 0.262429 2.262616 0.905125
v -0.345182 1.894634 -0.000383
v -0.115979 2.262616 0.485975
v 0.025676 2.262616 0.786561
v 0.274647 2.403173 0.310020
v -0.108428 2.262616 0.118180
v -0.118976 1.622515 0.868859
v 0.462185 1.537407 1.028778
v 0.047082 1.723821 0.559294
vt 0.726562 0.578125
vt 0.771534 0.608022
vt 0.726562 0.608022
vt 0.500000 0.650303
vt 0.544971 0.643155
vt 0.534419 0.627897
vt 0.500000 0.633368
vt 0.581035 0.623127
vt 0.562022 0.612568
vt 0.455029 0.643155
vt 0.465581 0.627897
vt 0.518628 0.605061
vt 0.500000 0.608022
vt 0.533566 0.596766
vt 0.577340 0.590418
vt 0.541856 0.584778
vt 0.437978 0.543682
vt 0.422660 0.565832
vt 0.458144 0.571472
vt 0.466434 0.559484
vt 0.422660 0.590418
vt 0.458144 0.584778
vt 0.437978 0.612568
vt 0.466434 0.596766
vt 0.481372 0.605061
vt 0.500000 0.578125
vt 0.541856 0.571472
vt 0.533566 0.559484
vt 0.518628 0.551189
vt 0.500000 0.548228
vt 0.481372 0.551189
vt 0.648227 0.553983
vt 0.709188 0.553983
vt 0.709188 0.602267
vt 0.776785 0.553983
vt 0.776785 0.602267
vt 0.825199 0.602267
vt 0.658383 0.602267
vt 0.725621 0.602267
vt 0.725981 0.641329
vt 0.684425 0.641329
vt 0.648227 0.602267
vt 0.715824 0.641329
vt 0.757602 0.641329
vt 0.787523 0.641329
vt 0.457863 0.621668
vt 0.499418 0.626409
vt 0.500000 0.578125
vt 0.432762 0.570455
vt 0.432403 0.600296
vt 0.724448 0.514921
vt 0.790739 0.553983
vt 0.723142 0.553983
vt 0.746549 0.514921
vt 0.780692 0.514921
vt 0.814147 0.553983
vt 0.758902 0.553983
vt 0.456916 0.616789
vt 0.497886 0.626409
vt 0.496579 0.656250
vt 0.430288 0.640685
vt 0.790739 0.602267
vt 0.723142 0.602267
vt 0.691304 0.553983
vt 0.758902 0.602267
vt 0.814147 0.602267
vt 0.656851 0.553983
vt 0.656851 0.602267
vt 0.766226 0.641329
vt 0.724448 0.641329
vt 0.691304 0.602267
vt 0.746549 0.641329
vt 0.780692 0.641329
vt 0.539663 0.617586
vt 0.500000 0.578125
vt 0.433709 0.562560
vt 0.432403 0.592401
vt 0.487091 0.453032
vt 0.676240 0.183537
vt 0.593237 0.118685
vt 0.489733 0.095539
vt 0.386230 0.118685
vt 0.303227 0.183537
vt 0.145114 0.060000
vt 0.060000 0.233162
vt 0.060000 0.425357
vt 0.145114 0.598519
vt 0.298484 0.718351
vt 0.239854 0.837632
vt 0.489733 0.893510
vt 0.489733 0.940000
vt 0.739612 0.837632
vt 0.940000 0.681064
vt 0.834352 0.598519
vt 0.919466 0.425357
vt 0.722303 0.381267
vt 0.722303 0.277252
vt 0.485221 0.464514
vt 0.889658 0.475480
vt 0.940000 0.475480
vt 0.744144 0.811610
vt 0.427243 0.940000
vt 0.376901 0.811610
vt 0.060000 0.475480
vt 0.345788 0.475480
vt 0.060000 0.060000
vt 0.345788 0.060000
vt 0.662689 0.060000
vt 0.490967 0.508824
vt 0.603870 0.940000
vt 0.847096 0.698950
vt 0.940000 0.308923
vt 0.847096 0.155080
vt 0.847096 0.450027
vt 0.603870 0.060000
vt 0.603870 0.537235
vt 0.303226 0.060000
vt 0.303226 0.537235
vt 0.060000 0.450027
vt 0.060000 0.691077
vt 0.060000 0.786157
vt 0.303226 0.940000
vn 0.196577 0.280335 0.939558
vn 0.146188 0.700302 0.698717
vn 0.415431 0.710255 0.568291
vn -0.146188 0.700302 0.698717
vn 0.084828 0.910177 0.405441
vn 0.238803 0.914472 0.326672
vn 0.347134 0.919913 0.182368
vn -0.347134 0.919913 -0.182368
vn -0.386317 0.922366 -0.000000
vn -0.347134 0.919913 0.182368
vn -0.238803 0.914472 0.326672
vn -0.084828 0.910177 0.405441
vn 0.027494 0.990947 0.131408
vn 0.077073 0.991435 0.105433
vn 0.111442 0.992045 0.058547
vn 0.123726 0.992316 0.000000
vn 0.111442 0.992045 -0.058547
vn 0.077073 0.991435 -0.105433
vn 0.027494 0.990947 -0.131408
vn -0.027494 0.990947 -0.131408
vn -0.077073 0.991435 -0.105433
vn -0.111442 0.992045 -0.058547
vn -0.123726 0.992316 -0.000000
vn -0.111442 0.992045 0.058547
vn -0.077073 0.991435 0.105433
vn -0.027494 0.990947 0.131408
vn -0.852161 -0.000000 -0.523279
vn -0.999971 0.000000 -0.007647
vn -0.797727 -0.000000 0.603019
vn -0.141871 0.597568 0.789167
vn -0.720269 0.534409 -0.442289
vn -0.831094 0.556096 -0.006356
vn -0.639632 0.597568 0.483511
vn -0.053429 0.953318 0.297205
vn -0.332707 0.943027 -0.002544
vn -0.240889 0.953318 0.182093
vn 0.304836 -0.670145 0.676743
vn -0.734294 -0.584008 0.346045
vn -0.332354 -0.670145 0.663662
vn 0.410702 0.000000 0.911770
vn -0.999789 -0.000000 -0.020526
vn -0.904583 0.000000 0.426296
vn -0.447777 0.000000 0.894145
vn 0.304836 0.670145 0.676743
vn -0.838320 0.544906 -0.017211
vn -0.734294 0.584008 0.346045
vn -0.332354 0.670145 0.663662
vn 0.103890 0.967477 0.230639
vn -0.341358 0.939907 -0.007008
vn -0.282022 0.950157 0.132907
vn -0.113269 0.967477 0.226181
vn 0.000000 1.000000 0.000000
vn 0.000000 -1.000000 0.000000
vn 0.000000 1.000000 0.000000
vn 0.000000 -1.000000 0.000000
vn 0.000000 1.000000 0.000000
vn 0.000000 -1.000000 0.000000
usemtl skin
f 1/1/1 2/2/1 3/3/1
f 3/4/2 2/5/2 4/6/2
f 3/4/2 4/6/2 5/7/2
f 2/5/3 6/8/3 7/9/3
f 2/5/3 7/9/3 4/6/3
f 8/10/4 3/4/4 5/7/4
f 8/10/4 5/7/4 9/11/4
f 5/7/5 4/6/5 10/12/5
f 5/7/5 10/12/5 11/13/5
f 4/6/6 7/9/6 12/14/6
f 4/6/6 12/14/6 10/12/6
f 7/9/7 13/15/7 14/16/7
f 7/9/7 14/16/7 12/14/7
f 15/17/8 16/18/8 17/19/8
f 15/17/8 17/19/8 18/20/8
f 16/18/9 19/21/9 20/22/9
f 16/18/9 20/22/9 17/19/9
f 19/21/10 21/23/10 22/24/10
f 19/21/10 22/24/10 20/22/10
f 21/23/11 9/11/11 23/25/11
f 21/23/11 23/25/11 22/24/11
f 9/11/12 5/7/12 11/13/12
f 9/11/12 11/13/12 23/25/12
f 11/13/13 10/12/13 24/26/13
f 10/12/14 12/14/14 24/26/14
f 12/14/15 14/16/15 24/26/15
f 14/16/16 25/27/16 24/26/16
f 25/27/17 26/28/17 24/26/17
f 26/28/18 27/29/18 24/26/18
f 27/29/19 28/30/19 24/26/19
f 28/30/20 29/31/20 24/26/20
f 29/31/21 18/20/21 24/26/21
f 18/20/22 17/19/22 24/26/22
f 17/19/23 20/22/23 24/26/23
f 20/22/24 22/24/24 24/26/24
f 22/24/25 23/25/25 24/26/25
f 23/25/26 11/13/26 24/26/26
f 30/32/27 31/33/27 32/34/27
f 31/33/28 33/35/28 34/36/28
f 31/33/28 34/36/28 32/34/28
f 33/35/29 35/37/29 34/36/29
f 35/38/30 36/39/30 37/40/30
f 35/38/30 37/40/30 38/41/30
f 39/42/31 32/34/31 40/43/31
f 32/34/32 34/36/32 41/44/32
f 32/34/32 41/44/32 40/43/32
f 34/36/33 35/37/33 38/45/33
f 34/36/33 38/45/33 41/44/33
f 38/46/34 37/47/34 42/48/34
f 40/49/35 41/50/35 42/48/35
f 41/50/36 38/46/36 42/48/36
f 43/51/37 44/52/37 45/53/37
f 46/54/38 47/55/38 48/56/38
f 46/54/38 48/56/38 49/57/38
f 47/58/39 43/59/39 45/60/39
f 47/58/39 45/60/39 48/61/39
f 45/53/40 44/52/40 50/62/40
f 45/53/40 50/62/40 51/63/40
f 52/64/41 49/57/41 53/65/41
f 49/57/42 48/56/42 54/66/42
f 49/57/42 54/66/42 53/65/42
f 48/67/43 45/53/43 51/63/43
f 48/67/43 51/63/43 54/68/43
f 51/63/44 50/62/44 55/69/44
f 51/63/44 55/69/44 56/70/44
f 57/71/45 53/65/45 58/72/45
f 53/65/46 54/66/46 59/73/46
f 53/65/46 59/73/46 58/72/46
f 54/61/47 51/60/47 56/59/47
f 54/61/47 56/59/47 59/58/47
f 56/59/48 55/74/48 60/75/48
f 61/76/49 58/77/49 60/75/49
f 58/77/50 59/58/50 60/75/50
f 59/58/51 56/59/51 60/75/51
usemtl interior
f 62/78/52 26/79/52 27/80/52
f 62/78/53 27/80/53 26/79/53
f 62/78/52 27/80/52 28/81/52
f 62/78/53 28/81/53 27/80/53
f 62/78/52 28/81/52 29/82/52
f 62/78/53 29/82/53 28/81/53
f 62/78/52 29/82/52 18/83/52
f 62/78/53 18/83/53 29/82/53
f 62/78/52 18/83/52 15/84/52
f 62/78/53 15/84/53 18/83/53
f 62/78/52 15/84/52 16/85/52
f 62/78/53 16/85/53 15/84/53
f 62/78/52 16/85/52 19/86/52
f 62/78/53 19/86/53 16/85/53
f 62/78/52 19/86/52 21/87/52
f 62/78/53 21/87/53 19/86/53
f 62/78/52 21/87/52 9/88/52
f 62/78/53 9/88/53 21/87/53
f 62/78/52 9/88/52 8/89/52
f 62/78/53 8/89/53 9/88/53
f 62/78/52 8/89/52 3/90/52
f 62/78/53 3/90/53 8/89/53
f 62/78/52 3/90/52 1/91/52
f 62/78/53 1/91/53 3/90/53
f 62/78/52 1/91/52 2/92/52
f 62/78/53 2/92/53 1/91/53
f 62/78/52 2/92/52 6/93/52
f 62/78/53 6/93/53 2/92/53
f 62/78/52 6/93/52 7/94/52
f 62/78/53 7/94/53 6/93/53
f 62/78/52 7/94/52 13/95/52
f 62/78/53 13/95/53 7/94/53
f 62/78/52 13/95/52 14/96/52
f 62/78/53 14/96/53 13/95/53
f 62/78/52 14/96/52 25/97/52
f 62/78/53 25/97/53 14/96/53
f 62/78/52 25/97/52 26/79/52
f 62/78/53 26/79/53 25/97/53
f 63/98/54 35/99/54 36/100/54
f 63/98/55 36/100/55 35/99/55
f 63/98/54 36/100/54 37/101/54
f 63/98/55 37/101/55 36/100/55
f 63/98/54 37/101/54 42/102/54
f 63/98/55 42/102/55 37/101/55
f 63/98/54 42/102/54 40/103/54
f 63/98/55 40/103/55 42/102/55
f 63/98/54 40/103/54 39/104/54
f 63/98/55 39/104/55 40/103/55
f 63/98/54 39/104/54 32/105/54
f 63/98/55 32/105/55 39/104/55
f 63/98/54 32/105/54 30/106/54
f 63/98/55 30/106/55 32/105/55
f 63/98/54 30/106/54 31/107/54
f 63/98/55 31/107/55 30/106/55
f 63/98/54 31/107/54 33/108/54
f 63/98/55 33/108/55 31/107/55
f 63/98/54 33/108/54 35/99/54
f 63/98/55 35/99/55 33/108/55
f 64/109/56 50/110/56 55/111/56
f 64/109/57 55/111/57 50/110/57
f 64/109/56 55/111/56 60/112/56
f 64/109/57 60/112/57 55/111/57
f 64/109/56 60/112/56 61/113/56
f 64/109/57 61/113/57 60/112/57
f 64/109/56 61/113/56 58/114/56
f 64/109/57 58/114/57 61/113/57
f 64/109/56 58/114/56 57/115/56
f 64/109/57 57/115/57 58/114/57
f 64/109/56 57/115/56 53/116/56
f 64/109/57 53/116/57 57/115/57
f 64/109/56 53/116/56 52/117/56
f 64/109/57 52/117/57 53/116/57
f 64/109/56 52/117/56 49/118/56
f 64/109/57 49/118/57 52/117/57
f 64/109/56 49/118/56 46/119/56
f 64/109/57 46/119/57 49/118/57
f 64/109/56 46/119/56 47/120/56
f 64/109/57 47/120/57 46/119/57
f 64/109/56 47/120/56 43/121/56
f 64/109/57 43/121/57 47/120/57
f 64/109/56 43/121/56 44/122/56
f 64/109/57 44/122/57 43/121/57
f 64/109/56 44/122/56 50/110/56
f 64/109/57 50/110/57 44/122/57
