# Sarn light cruiser, fragment 6 of 8
# Generated by tools. Edit the generator script.
v 0.000000 0.000000 0.303341
v 0.569959 0.290176 1.226675
v 0.000000 0.290176 1.609132
v 0.806044 0.290176 0.303341
v -0.569959 0.290176 1.226675
v 0.000000 0.580351 0.303341
v 0.000000 0.385611 1.034584
v 0.056423 0.385611 1.034584
v 0.000000 0.385611 1.091007
v 0.000000 0.385611 0.978161
v -0.056423 0.385611 1.034584
v 0.000000 0.530699 1.034584
v 0.000000 0.450611 0.742087
v 0.056423 0.450611 0.742087
v 0.000000 0.450611 0.798510
v 0.000000 0.450611 0.685664
v -0.056423 0.450611 0.742087
v 0.000000 0.595699 0.742087
v 0.699711 0.225692 1.137807
v 0.699711 0.225692 1.057203
v 0.699711 0.354659 1.057203
v 0.699711 0.354659 1.137807
v 0.506261 0.225692 1.057203
v 0.506261 0.225692 1.137807
v 0.506261 0.354659 1.137807
v 0.506261 0.354659 1.057203
v 0.059021 0.290176 0.534175
vt 0.445312 0.828125
vt 0.517128 0.944135
vt 0.445312 0.992188
vt 0.546875 0.828125
vt 0.373497 0.944135
vt 0.617188 0.429688
vt 0.664062 0.429688
vt 0.617188 0.476562
vt 0.617188 0.382812
vt 0.570312 0.429688
vt 0.718750 0.382812
vt 0.765625 0.382812
vt 0.718750 0.476562
vt 0.718750 0.382812
vt 0.671875 0.382812
vt 0.718750 0.476562
vt 0.671875 0.382812
vt 0.617188 0.429688
vt 0.664062 0.429688
vt 0.617188 0.476562
vt 0.617188 0.382812
vt 0.570312 0.429688
vt 0.718750 0.382812
vt 0.765625 0.382812
vt 0.718750 0.476562
vt 0.718750 0.382812
vt 0.671875 0.382812
vt 0.718750 0.476562
vt 0.671875 0.382812
vt 0.945312 0.210938
vt 0.851562 0.210938
vt 0.851562 0.273438
vt 0.945312 0.273438
vt 0.945312 0.273438
vt 0.945312 0.210938
vt 0.851562 0.210938
vt 0.851562 0.273438
vt 0.773438 0.140625
vt 0.835938 0.140625
vt 0.835938 0.187500
vt 0.773438 0.187500
vt 0.945312 0.210938
vt 0.851562 0.210938
vt 0.851562 0.273438
vt 0.945312 0.273438
vt 0.462254 0.280000
vt 0.940000 0.060000
vt 0.424508 0.060000
vt 0.060000 0.940000
vt 0.424508 0.060000
vn 0.144048 -0.966006 0.214668
vn 0.337456 -0.937379 0.086283
vn -0.144048 -0.966006 0.214668
vn 0.144048 0.966006 0.214668
vn 0.337456 0.937379 0.086283
vn -0.144048 0.966006 0.214668
vn 0.000000 -1.000000 0.000000
vn 0.681799 0.265144 0.681799
vn 0.681799 0.265144 -0.681799
vn -0.681799 0.265144 -0.681799
vn -0.681799 0.265144 0.681799
vn 0.000000 -1.000000 0.000000
vn 0.681799 0.265144 0.681799
vn 0.681799 0.265144 -0.681799
vn -0.681799 0.265144 -0.681799
vn -0.681799 0.265144 0.681799
vn 1.000000 0.000000 0.000000
vn -1.000000 0.000000 0.000000
vn 0.000000 1.000000 0.000000
vn 0.000000 -1.000000 0.000000
vn 0.000000 0.000000 1.000000
vn 0.000000 0.000000 -1.000000
vn 0.000000 1.000000 0.000000
vn 0.000000 -1.000000 0.000000
usemtl skin
f 1/1/1 2/2/1 3/3/1
f 1/1/2 4/4/2 2/2/2
f 1/1/3 3/3/3 5/5/3
f 3/3/4 2/2/4 6/1/4
f 2/2/5 4/4/5 6/1/5
f 5/5/6 3/3/6 6/1/6
f 7/6/7 8/7/7 9/8/7
f 7/6/7 10/9/7 8/7/7
f 7/6/7 11/10/7 10/9/7
f 7/6/7 9/8/7 11/10/7
f 9/11/8 8/12/8 12/13/8
f 8/14/9 10/15/9 12/16/9
f 10/15/10 11/14/10 12/16/10
f 11/17/11 9/11/11 12/13/11
f 13/18/12 14/19/12 15/20/12
f 13/18/12 16/21/12 14/19/12
f 13/18/12 17/22/12 16/21/12
f 13/18/12 15/20/12 17/22/12
f 15/23/13 14/24/13 18/25/13
f 14/26/14 16/27/14 18/28/14
f 16/27/15 17/26/15 18/28/15
f 17/29/16 15/23/16 18/25/16
f 19/30/17 20/31/17 21/32/17
f 19/30/17 21/32/17 22/33/17
f 23/31/18 24/30/18 25/33/18
f 23/31/18 25/33/18 26/32/18
f 22/34/19 21/35/19 26/36/19
f 22/34/19 26/36/19 25/37/19
f 24/37/20 23/36/20 20/35/20
f 24/37/20 20/35/20 19/34/20
f 24/38/21 19/39/21 22/40/21
f 24/38/21 22/40/21 25/41/21
f 20/42/22 23/43/22 26/44/22
f 20/42/22 26/44/22 21/45/22
usemtl interior
f 27/46/23 4/47/23 6/48/23
f 27/46/24 6/48/24 4/47/24
f 27/46/23 6/48/23 5/49/23
f 27/46/24 5/49/24 6/48/24
f 27/46/23 5/49/23 1/50/23
f 27/46/24 1/50/24 5/49/24
f 27/46/23 1/50/23 4/47/23
f 27/46/24 4/47/24 1/50/24
