# Helion light cruiser, fragment 7 of 8
# Generated by tools. Edit the generator script.
v -0.413625 0.413625 2.125000
v 0.413625 0.982360 2.125000
v -0.413625 0.982360 2.125000
v 0.413625 0.982360 1.297749
v -0.413625 0.982360 1.297749
v -0.413625 0.413625 1.297749
v 0.413625 0.413625 2.125000
v -0.491180 0.542883 1.763078
v -0.387774 0.542883 1.763078
v -0.387774 0.646290 1.763078
v -0.491180 0.646290 1.763078
v -0.387774 0.542883 1.659672
v -0.491180 0.542883 1.659672
v -0.491180 0.646290 1.659672
v -0.387774 0.646290 1.659672
v -0.206813 0.972019 2.021594
v -0.133693 0.972019 1.991307
v -0.143489 1.023723 1.981511
v -0.206813 1.023723 2.007740
v -0.103406 0.972019 1.918187
v -0.117260 1.023723 1.918187
v -0.133693 0.972019 1.845068
v -0.143489 1.023723 1.854864
v -0.206813 0.972019 1.814781
v -0.206813 1.023723 1.828635
v -0.279932 0.972019 1.845068
v -0.270136 1.023723 1.854864
v -0.310219 0.972019 1.918187
v -0.296365 1.023723 1.918187
v -0.279932 0.972019 1.991307
v -0.270136 1.023723 1.981511
v -0.170253 1.061572 1.954747
v -0.206813 1.061572 1.969891
v -0.155109 1.061572 1.918187
v -0.170253 1.061572 1.881628
v -0.206813 1.061572 1.866484
v -0.243372 1.061572 1.881628
v -0.258516 1.061572 1.918187
v -0.243372 1.061572 1.954747
v -0.206813 1.075426 1.918187
v 0.000000 0.697993 1.711375
v -0.206813 0.972019 1.918187
vt 0.468750 0.382812
vt 0.562500 0.476562
vt 0.468750 0.476562
vt 0.007812 0.656250
vt 0.179688 0.656250
vt 0.179688 0.484375
vt 0.007812 0.484375
vt 0.007812 0.382812
vt 0.195312 0.382812
vt 0.195312 0.476562
vt 0.007812 0.476562
vt 0.671875 0.382812
vt 0.765625 0.382812
vt 0.765625 0.476562
vt 0.671875 0.476562
vt 0.765625 0.382812
vt 0.671875 0.382812
vt 0.671875 0.476562
vt 0.765625 0.476562
vt 0.570312 0.476562
vt 0.664062 0.476562
vt 0.664062 0.382812
vt 0.570312 0.382812
vt 0.671875 0.382812
vt 0.765625 0.382812
vt 0.765625 0.476562
vt 0.671875 0.476562
vt 0.718750 0.382812
vt 0.751896 0.382812
vt 0.747455 0.429688
vt 0.718750 0.429688
vt 0.751896 0.382812
vt 0.718750 0.382812
vt 0.718750 0.429688
vt 0.747455 0.429688
vt 0.685604 0.382812
vt 0.690045 0.429688
vt 0.751896 0.382812
vt 0.718750 0.382812
vt 0.718750 0.429688
vt 0.747455 0.429688
vt 0.685604 0.382812
vt 0.690045 0.429688
vt 0.685604 0.382812
vt 0.690045 0.429688
vt 0.617188 0.470282
vt 0.645892 0.458392
vt 0.633760 0.446260
vt 0.617188 0.453125
vt 0.657782 0.429688
vt 0.640625 0.429688
vt 0.645892 0.400983
vt 0.633760 0.413115
vt 0.617188 0.389093
vt 0.617188 0.406250
vt 0.588483 0.400983
vt 0.600615 0.413115
vt 0.576593 0.429688
vt 0.593750 0.429688
vt 0.588483 0.458392
vt 0.600615 0.446260
vt 0.617188 0.429688
vt 0.500000 0.500000
vt 0.940000 0.940000
vt 0.940000 0.060000
vt 0.060000 0.060000
vt 0.060000 0.060000
vt 0.940000 0.940000
vt 0.060000 0.940000
vt 0.500000 0.500000
vt 0.811127 0.811127
vt 0.500000 0.940000
vt 0.188873 0.811127
vt 0.060000 0.500000
vt 0.188873 0.188873
vt 0.500000 0.060000
vt 0.811127 0.188873
vt 0.940000 0.500000
vn 0.000000 0.000000 1.000000
vn -0.000000 1.000000 0.000000
vn 0.000000 -1.000000 0.000000
vn -1.000000 0.000000 0.000000
vn 0.000000 0.000000 1.000000
vn 0.000000 0.000000 -1.000000
vn -0.000000 1.000000 0.000000
vn 0.000000 -1.000000 0.000000
vn -1.000000 0.000000 0.000000
vn 1.000000 0.000000 0.000000
vn 0.371470 0.240299 0.896809
vn 0.896809 0.240299 0.371470
vn 0.896809 0.240299 -0.371470
vn 0.371470 0.240299 -0.896809
vn -0.371470 0.240299 -0.896809
vn -0.896809 0.240299 -0.371470
vn -0.896809 0.240299 0.371470
vn -0.371470 0.240299 0.896809
vn 0.281085 0.678598 0.678598
vn 0.678598 0.678598 0.281085
vn 0.678598 0.678598 -0.281085
vn 0.281085 0.678598 -0.678598
vn -0.281085 0.678598 -0.678598
vn -0.678598 0.678598 -0.281085
vn -0.678598 0.678598 0.281085
vn -0.281085 0.678598 0.678598
vn 0.106596 0.960422 0.257344
vn 0.257344 0.960422 0.106596
vn 0.257344 0.960422 -0.106596
vn 0.106596 0.960422 -0.257344
vn -0.106596 0.960422 -0.257344
vn -0.257344 0.960422 -0.106596
vn -0.257344 0.960422 0.106596
vn -0.106596 0.960422 0.257344
vn 0.000000 1.000000 0.000000
vn 0.000000 -1.000000 0.000000
vn 0.000000 1.000000 0.000000
vn 0.000000 -1.000000 0.000000
usemtl skin
f 1/1/1 2/2/1 3/3/1
f 3/4/2 2/5/2 4/6/2
f 3/4/2 4/6/2 5/7/2
f 6/7/3 7/5/3 1/4/3
f 6/8/4 1/9/4 3/10/4
f 6/8/4 3/10/4 5/11/4
f 8/12/5 9/13/5 10/14/5
f 8/12/5 10/14/5 11/15/5
f 12/16/6 13/17/6 14/18/6
f 12/16/6 14/18/6 15/19/6
f 11/20/7 10/21/7 15/22/7
f 11/20/7 15/22/7 14/23/7
f 13/23/8 12/22/8 9/21/8
f 13/23/8 9/21/8 8/20/8
f 13/24/9 8/25/9 11/26/9
f 13/24/9 11/26/9 14/27/9
f 9/25/10 12/24/10 15/27/10
f 9/25/10 15/27/10 10/26/10
f 16/28/11 17/29/11 18/30/11
f 16/28/11 18/30/11 19/31/11
f 17/32/12 20/33/12 21/34/12
f 17/32/12 21/34/12 18/35/12
f 20/33/13 22/36/13 23/37/13
f 20/33/13 23/37/13 21/34/13
f 22/38/14 24/39/14 25/40/14
f 22/38/14 25/40/14 23/41/14
f 24/39/15 26/42/15 27/43/15
f 24/39/15 27/43/15 25/40/15
f 26/36/16 28/33/16 29/34/16
f 26/36/16 29/34/16 27/37/16
f 28/33/17 30/32/17 31/35/17
f 28/33/17 31/35/17 29/34/17
f 30/44/18 16/28/18 19/31/18
f 30/44/18 19/31/18 31/45/18
f 19/46/19 18/47/19 32/48/19
f 19/46/19 32/48/19 33/49/19
f 18/47/20 21/50/20 34/51/20
f 18/47/20 34/51/20 32/48/20
f 21/50/21 23/52/21 35/53/21
f 21/50/21 35/53/21 34/51/21
f 23/52/22 25/54/22 36/55/22
f 23/52/22 36/55/22 35/53/22
f 25/54/23 27/56/23 37/57/23
f 25/54/23 37/57/23 36/55/23
f 27/56/24 29/58/24 38/59/24
f 27/56/24 38/59/24 37/57/24
f 29/58/25 31/60/25 39/61/25
f 29/58/25 39/61/25 38/59/25
f 31/60/26 19/46/26 33/49/26
f 31/60/26 33/49/26 39/61/26
f 33/49/27 32/48/27 40/62/27
f 32/48/28 34/51/28 40/62/28
f 34/51/29 35/53/29 40/62/29
f 35/53/30 36/55/30 40/62/30
f 36/55/31 37/57/31 40/62/31
f 37/57/32 38/59/32 40/62/32
f 38/59/33 39/61/33 40/62/33
f 39/61/34 33/49/34 40/62/34
usemtl interior
f 41/63/35 2/64/35 4/65/35
f 41/63/36 4/65/36 2/64/36
f 41/63/35 4/65/35 5/66/35
f 41/63/36 5/66/36 4/65/36
f 41/63/35 5/66/35 6/67/35
f 41/63/36 6/67/36 5/66/36
f 41/63/35 6/67/35 7/68/35
f 41/63/36 7/68/36 6/67/36
f 41/63/35 7/68/35 1/69/35
f 41/63/36 1/69/36 7/68/36
f 41/63/35 1/69/35 2/64/35
f 41/63/36 2/64/36 1/69/36
f 42/70/37 17/71/37 20/72/37
f 42/70/38 20/72/38 17/71/38
f 42/70/37 20/72/37 22/73/37
f 42/70/38 22/73/38 20/72/38
f 42/70/37 22/73/37 24/74/37
f 42/70/38 24/74/38 22/73/38
f 42/70/37 24/74/37 26/75/37
f 42/70/38 26/75/38 24/74/38
f 42/70/37 26/75/37 28/76/37
f 42/70/38 28/76/38 26/75/38
f 42/70/37 28/76/37 30/77/37
f 42/70/38 30/77/38 28/76/38
f 42/70/37 30/77/37 16/78/37
f 42/70/38 16/78/38 30/77/38
f 42/70/37 16/78/37 17/71/37
f 42/70/38 17/71/38 16/78/38
