# Federation heavy cruiser, fragment 3 of 8
# Generated by tools. Edit the generator script.
v 0.000000 0.460000 0.200000
v 0.000000 0.100000 0.200000
v -0.478976 0.100000 0.261179
v -0.478976 0.460000 0.261179
v -0.911067 0.100000 0.438729
v -0.911067 0.460000 0.438729
v -1.253976 0.100000 0.715268
v -1.253976 0.460000 0.715268
v -1.474138 0.100000 1.063729
v -1.474138 0.460000 1.063729
v -0.340000 0.400000 0.550000
v 0.340000 0.400000 -0.550000
v -0.340000 0.400000 -0.550000
v -0.340000 0.060000 0.550000
v -0.340000 0.060000 -0.550000
v 0.340000 0.060000 -0.550000
v 0.340000 0.060000 0.550000
v -0.620000 0.500000 0.300000
v -0.620000 0.000000 0.300000
v 0.620000 0.000000 0.300000
v -0.780000 0.500000 -0.900000
v -1.560000 0.720000 0.800000
v -1.080000 0.720000 0.800000
v -1.040000 0.720000 -1.900000
v -1.560000 0.400000 0.800000
v -1.040000 0.400000 -1.900000
v -1.080000 0.400000 0.800000
v -1.600000 0.720000 -1.900000
vt 0.015625 0.484375
vt 0.015625 0.414062
vt 0.500000 0.414062
vt 0.500000 0.484375
vt 0.015625 0.484375
vt 0.015625 0.414062
vt 0.500000 0.414062
vt 0.500000 0.484375
vt 0.015625 0.484375
vt 0.015625 0.414062
vt 0.500000 0.414062
vt 0.500000 0.484375
vt 0.015625 0.484375
vt 0.015625 0.414062
vt 0.500000 0.414062
vt 0.500000 0.484375
vt 0.015625 0.148438
vt 0.156250 0.289062
vt 0.015625 0.289062
vt 0.171875 0.289062
vt 0.171875 0.226562
vt 0.312500 0.226562
vt 0.171875 0.289062
vt 0.171875 0.226562
vt 0.312500 0.226562
vt 0.312500 0.289062
vt 0.515625 0.640625
vt 0.515625 0.578125
vt 0.765625 0.578125
vt 0.515625 0.640625
vt 0.765625 0.578125
vt 0.765625 0.640625
vt 0.790179 0.500000
vt 0.897321 0.500000
vt 0.906250 0.984375
vt 0.781250 0.375000
vt 0.781250 0.281250
vt 0.906250 0.281250
vt 0.906250 0.375000
vt 0.015625 0.398438
vt 0.015625 0.304688
vt 0.500000 0.304688
vt 0.015625 0.398438
vt 0.500000 0.304688
vt 0.500000 0.398438
vn -0.126700 0.000000 -0.991941
vn -0.380072 0.000000 -0.924957
vn -0.627752 0.000000 -0.778413
vn -0.845400 0.000000 -0.534134
vn 0.000000 1.000000 0.000000
vn 0.000000 -1.000000 0.000000
vn -0.000000 0.000000 1.000000
vn -1.000000 0.000000 0.000000
vn -0.000000 0.000000 1.000000
vn -0.991228 0.000000 0.132164
vn 0.000000 1.000000 0.000000
vn 0.000000 -1.000000 0.000000
vn -0.000000 0.000000 1.000000
vn 0.999890 0.000000 0.014813
vn -0.999890 0.000000 0.014813
f 1/1/1 2/2/1 3/3/1
f 1/1/1 3/3/1 4/4/1
f 4/5/2 3/6/2 5/7/2
f 4/5/2 5/7/2 6/8/2
f 6/9/3 5/10/3 7/11/3
f 6/9/3 7/11/3 8/12/3
f 8/13/4 7/14/4 9/15/4
f 8/13/4 9/15/4 10/16/4
f 11/17/5 12/18/5 13/19/5
f 14/17/6 15/19/6 16/18/6
f 11/20/7 14/21/7 17/22/7
f 13/23/8 15/24/8 14/25/8
f 13/23/8 14/25/8 11/26/8
f 18/27/9 19/28/9 20/29/9
f 21/30/10 19/31/10 18/32/10
f 22/33/11 23/34/11 24/35/11
f 25/33/12 26/35/12 27/34/12
f 22/36/13 25/37/13 27/38/13
f 22/36/13 27/38/13 23/39/13
f 23/40/14 27/41/14 26/42/14
f 28/43/15 25/44/15 22/45/15
