# Helion battlecruiser, from tools/gen_fleet.py
# Generated by tools. Edit the generator script.
v -0.144172 0.288344 1.830982
v 0.144172 0.288344 1.830982
v 0.144172 0.576687 1.830982
v -0.144172 0.576687 1.830982
v 0.144172 0.288344 -2.128937
v -0.144172 0.288344 -2.128937
v -0.144172 0.576687 -2.128937
v 0.144172 0.576687 -2.128937
v -0.720859 0.264315 2.350000
v 0.720859 0.264315 2.350000
v 0.720859 0.600716 2.350000
v -0.720859 0.600716 2.350000
v 0.720859 0.264315 1.773313
v -0.720859 0.264315 1.773313
v -0.720859 0.600716 1.773313
v 0.720859 0.600716 1.773313
v -0.792945 0.288344 2.109714
v -0.696830 0.288344 2.109714
v -0.696830 0.384458 2.109714
v -0.792945 0.384458 2.109714
v -0.696830 0.288344 2.013599
v -0.792945 0.288344 2.013599
v -0.792945 0.384458 2.013599
v -0.696830 0.384458 2.013599
v 0.696830 0.288344 2.109714
v 0.792945 0.288344 2.109714
v 0.792945 0.384458 2.109714
v 0.696830 0.384458 2.109714
v 0.792945 0.288344 2.013599
v 0.696830 0.288344 2.013599
v 0.696830 0.384458 2.013599
v 0.792945 0.384458 2.013599
v -0.360429 0.591104 2.350000
v -0.292466 0.591104 2.321849
v -0.301572 0.639162 2.312743
v -0.360429 0.639162 2.337123
v -0.264315 0.591104 2.253885
v -0.277192 0.639162 2.253885
v -0.292466 0.591104 2.185922
v -0.301572 0.639162 2.195028
v -0.360429 0.591104 2.157771
v -0.360429 0.639162 2.170648
v -0.428393 0.591104 2.185922
v -0.419287 0.639162 2.195028
v -0.456544 0.591104 2.253885
v -0.443667 0.639162 2.253885
v -0.428393 0.591104 2.321849
v -0.419287 0.639162 2.312743
v -0.326448 0.674342 2.287867
v -0.360429 0.674342 2.301943
v -0.312372 0.674342 2.253885
v -0.326448 0.674342 2.219904
v -0.360429 0.674342 2.205828
v -0.394411 0.674342 2.219904
v -0.408487 0.674342 2.253885
v -0.394411 0.674342 2.287867
v -0.360429 0.687219 2.253885
v 0.120143 0.000000 1.692192
v 0.648773 0.000000 1.692192
v 0.648773 0.865031 1.692192
v 0.120143 0.865031 1.692192
v 0.648773 0.000000 1.019391
v 0.120143 0.000000 1.019391
v 0.120143 0.865031 1.019391
v 0.648773 0.865031 1.019391
v -0.648773 0.000000 1.692192
v -0.120143 0.000000 1.692192
v -0.120143 0.865031 1.692192
v -0.648773 0.865031 1.692192
v -0.120143 0.000000 1.019391
v -0.648773 0.000000 1.019391
v -0.648773 0.865031 1.019391
v -0.120143 0.865031 1.019391
v 0.120143 0.000000 0.306221
v 0.648773 0.000000 0.306221
v 0.648773 0.865031 0.306221
v 0.120143 0.865031 0.306221
v 0.648773 0.000000 -0.366581
v 0.120143 0.000000 -0.366581
v 0.120143 0.865031 -0.366581
v 0.648773 0.865031 -0.366581
v -0.648773 0.000000 0.306221
v -0.120143 0.000000 0.306221
v -0.120143 0.865031 0.306221
v -0.648773 0.865031 0.306221
v -0.120143 0.000000 -0.366581
v -0.648773 0.000000 -0.366581
v -0.648773 0.865031 -0.366581
v -0.120143 0.865031 -0.366581
v 0.120143 0.000000 -1.079751
v 0.648773 0.000000 -1.079751
v 0.648773 0.865031 -1.079751
v 0.120143 0.865031 -1.079751
v 0.648773 0.000000 -1.752552
v 0.120143 0.000000 -1.752552
v 0.120143 0.865031 -1.752552
v 0.648773 0.865031 -1.752552
v -0.648773 0.000000 -1.079751
v -0.120143 0.000000 -1.079751
v -0.120143 0.865031 -1.079751
v -0.648773 0.865031 -1.079751
v -0.120143 0.000000 -1.752552
v -0.648773 0.000000 -1.752552
v -0.648773 0.865031 -1.752552
v -0.120143 0.865031 -1.752552
v -0.528630 0.432515 -2.321166
v -0.392703 0.296589 -2.321166
v -0.528630 0.240286 -2.321166
v -0.336401 0.432515 -2.321166
v -0.392703 0.568442 -2.321166
v -0.528630 0.624744 -2.321166
v -0.664556 0.568442 -2.321166
v -0.720859 0.432515 -2.321166
v -0.664556 0.296589 -2.321166
v -0.392703 0.296589 -1.552249
v -0.528630 0.240286 -1.552249
v -0.336401 0.432515 -1.552249
v -0.392703 0.568442 -1.552249
v -0.528630 0.624744 -1.552249
v -0.664556 0.568442 -1.552249
v -0.720859 0.432515 -1.552249
v -0.664556 0.296589 -1.552249
v -0.528630 0.432515 -1.552249
v 0.528630 0.432515 -2.321166
v 0.664556 0.296589 -2.321166
v 0.528630 0.240286 -2.321166
v 0.720859 0.432515 -2.321166
v 0.664556 0.568442 -2.321166
v 0.528630 0.624744 -2.321166
v 0.392703 0.568442 -2.321166
v 0.336401 0.432515 -2.321166
v 0.392703 0.296589 -2.321166
v 0.664556 0.296589 -1.552249
v 0.528630 0.240286 -1.552249
v 0.720859 0.432515 -1.552249
v 0.664556 0.568442 -1.552249
v 0.528630 0.624744 -1.552249
v 0.392703 0.568442 -1.552249
v 0.336401 0.432515 -1.552249
v 0.392703 0.296589 -1.552249
v 0.528630 0.432515 -1.552249
v -0.024029 0.470961 -1.898262
v -0.504601 0.470961 -1.898262
v -0.504601 0.394070 -1.898262
v -0.024029 0.394070 -1.898262
v -0.504601 0.470961 -1.975153
v -0.024029 0.470961 -1.975153
v -0.024029 0.394070 -1.975153
v -0.504601 0.394070 -1.975153
v -0.528630 0.206646 -1.936708
v -0.442193 0.223839 -1.936708
v -0.451089 0.245315 -1.904714
v -0.528630 0.229891 -1.904714
v -0.465482 0.280063 -1.916934
v -0.528630 0.267502 -1.916934
v -0.465482 0.280063 -1.956481
v -0.528630 0.267502 -1.956481
v -0.451089 0.245315 -1.968701
v -0.528630 0.229891 -1.968701
v -0.368916 0.272802 -1.936708
v -0.385353 0.289238 -1.904714
v -0.411948 0.315833 -1.916934
v -0.411948 0.315833 -1.956481
v -0.385353 0.289238 -1.968701
v -0.319954 0.346079 -1.936708
v -0.341429 0.354974 -1.904714
v -0.376177 0.369367 -1.916934
v -0.376177 0.369367 -1.956481
v -0.341429 0.354974 -1.968701
v -0.302761 0.432515 -1.936708
v -0.326005 0.432515 -1.904714
v -0.363616 0.432515 -1.916934
v -0.363616 0.432515 -1.956481
v -0.326005 0.432515 -1.968701
v -0.319954 0.518952 -1.936708
v -0.341429 0.510056 -1.904714
v -0.376177 0.495663 -1.916934
v -0.376177 0.495663 -1.956481
v -0.341429 0.510056 -1.968701
v -0.368916 0.592229 -1.936708
v -0.385353 0.575792 -1.904714
v -0.411948 0.549198 -1.916934
v -0.411948 0.549198 -1.956481
v -0.385353 0.575792 -1.968701
v -0.442193 0.641191 -1.936708
v -0.451089 0.619716 -1.904714
v -0.465482 0.584968 -1.916934
v -0.465482 0.584968 -1.956481
v -0.451089 0.619716 -1.968701
v -0.528630 0.658384 -1.936708
v -0.528630 0.635140 -1.904714
v -0.528630 0.597529 -1.916934
v -0.528630 0.597529 -1.956481
v -0.528630 0.635140 -1.968701
v -0.615066 0.641191 -1.936708
v -0.606171 0.619716 -1.904714
v -0.591778 0.584968 -1.916934
v -0.591778 0.584968 -1.956481
v -0.606171 0.619716 -1.968701
v -0.688343 0.592229 -1.936708
v -0.671907 0.575792 -1.904714
v -0.645312 0.549198 -1.916934
v -0.645312 0.549198 -1.956481
v -0.671907 0.575792 -1.968701
v -0.737306 0.518952 -1.936708
v -0.715830 0.510056 -1.904714
v -0.681083 0.495663 -1.916934
v -0.681083 0.495663 -1.956481
v -0.715830 0.510056 -1.968701
v -0.754499 0.432515 -1.936708
v -0.731254 0.432515 -1.904714
v -0.693643 0.432515 -1.916934
v -0.693643 0.432515 -1.956481
v -0.731254 0.432515 -1.968701
v -0.737306 0.346079 -1.936708
v -0.715830 0.354974 -1.904714
v -0.681083 0.369367 -1.916934
v -0.681083 0.369367 -1.956481
v -0.715830 0.354974 -1.968701
v -0.688343 0.272802 -1.936708
v -0.671907 0.289238 -1.904714
v -0.645312 0.315833 -1.916934
v -0.645312 0.315833 -1.956481
v -0.671907 0.289238 -1.968701
v -0.615066 0.223839 -1.936708
v -0.606171 0.245315 -1.904714
v -0.591778 0.280063 -1.916934
v -0.591778 0.280063 -1.956481
v -0.606171 0.245315 -1.968701
v -0.528630 0.432515 -2.350000
v -0.403578 0.307463 -2.350000
v -0.528630 0.255665 -2.350000
v -0.351779 0.432515 -2.350000
v -0.403578 0.557568 -2.350000
v -0.528630 0.609366 -2.350000
v -0.653682 0.557568 -2.350000
v -0.705481 0.432515 -2.350000
v -0.653682 0.307463 -2.350000
v -0.403578 0.307463 -2.253885
v -0.528630 0.255665 -2.253885
v -0.351779 0.432515 -2.253885
v -0.403578 0.557568 -2.253885
v -0.528630 0.609366 -2.253885
v -0.653682 0.557568 -2.253885
v -0.705481 0.432515 -2.253885
v -0.653682 0.307463 -2.253885
v -0.528630 0.432515 -2.253885
v 0.024029 0.394070 -1.898262
v 0.504601 0.394070 -1.898262
v 0.504601 0.470961 -1.898262
v 0.024029 0.470961 -1.898262
v 0.504601 0.394070 -1.975153
v 0.024029 0.394070 -1.975153
v 0.024029 0.470961 -1.975153
v 0.504601 0.470961 -1.975153
v 0.528630 0.206646 -1.936708
v 0.615066 0.223839 -1.936708
v 0.606171 0.245315 -1.904714
v 0.528630 0.229891 -1.904714
v 0.591778 0.280063 -1.916934
v 0.528630 0.267502 -1.916934
v 0.591778 0.280063 -1.956481
v 0.528630 0.267502 -1.956481
v 0.606171 0.245315 -1.968701
v 0.528630 0.229891 -1.968701
v 0.688343 0.272802 -1.936708
v 0.671907 0.289238 -1.904714
v 0.645312 0.315833 -1.916934
v 0.645312 0.315833 -1.956481
v 0.671907 0.289238 -1.968701
v 0.737306 0.346079 -1.936708
v 0.715830 0.354974 -1.904714
v 0.681083 0.369367 -1.916934
v 0.681083 0.369367 -1.956481
v 0.715830 0.354974 -1.968701
v 0.754499 0.432515 -1.936708
v 0.731254 0.432515 -1.904714
v 0.693643 0.432515 -1.916934
v 0.693643 0.432515 -1.956481
v 0.731254 0.432515 -1.968701
v 0.737306 0.518952 -1.936708
v 0.715830 0.510056 -1.904714
v 0.681083 0.495663 -1.916934
v 0.681083 0.495663 -1.956481
v 0.715830 0.510056 -1.968701
v 0.688343 0.592229 -1.936708
v 0.671907 0.575792 -1.904714
v 0.645312 0.549198 -1.916934
v 0.645312 0.549198 -1.956481
v 0.671907 0.575792 -1.968701
v 0.615066 0.641191 -1.936708
v 0.606171 0.619716 -1.904714
v 0.591778 0.584968 -1.916934
v 0.591778 0.584968 -1.956481
v 0.606171 0.619716 -1.968701
v 0.528630 0.658384 -1.936708
v 0.528630 0.635140 -1.904714
v 0.528630 0.597529 -1.916934
v 0.528630 0.597529 -1.956481
v 0.528630 0.635140 -1.968701
v 0.442193 0.641191 -1.936708
v 0.451089 0.619716 -1.904714
v 0.465482 0.584968 -1.916934
v 0.465482 0.584968 -1.956481
v 0.451089 0.619716 -1.968701
v 0.368916 0.592229 -1.936708
v 0.385353 0.575792 -1.904714
v 0.411948 0.549198 -1.916934
v 0.411948 0.549198 -1.956481
v 0.385353 0.575792 -1.968701
v 0.319954 0.518952 -1.936708
v 0.341429 0.510056 -1.904714
v 0.376177 0.495663 -1.916934
v 0.376177 0.495663 -1.956481
v 0.341429 0.510056 -1.968701
v 0.302761 0.432515 -1.936708
v 0.326005 0.432515 -1.904714
v 0.363616 0.432515 -1.916934
v 0.363616 0.432515 -1.956481
v 0.326005 0.432515 -1.968701
v 0.319954 0.346079 -1.936708
v 0.341429 0.354974 -1.904714
v 0.376177 0.369367 -1.916934
v 0.376177 0.369367 -1.956481
v 0.341429 0.354974 -1.968701
v 0.368916 0.272802 -1.936708
v 0.385353 0.289238 -1.904714
v 0.411948 0.315833 -1.916934
v 0.411948 0.315833 -1.956481
v 0.385353 0.289238 -1.968701
v 0.442193 0.223839 -1.936708
v 0.451089 0.245315 -1.904714
v 0.465482 0.280063 -1.916934
v 0.465482 0.280063 -1.956481
v 0.451089 0.245315 -1.968701
v 0.528630 0.432515 -2.350000
v 0.653682 0.307463 -2.350000
v 0.528630 0.255665 -2.350000
v 0.705481 0.432515 -2.350000
v 0.653682 0.557568 -2.350000
v 0.528630 0.609366 -2.350000
v 0.403578 0.557568 -2.350000
v 0.351779 0.432515 -2.350000
v 0.403578 0.307463 -2.350000
v 0.653682 0.307463 -2.253885
v 0.528630 0.255665 -2.253885
v 0.705481 0.432515 -2.253885
v 0.653682 0.557568 -2.253885
v 0.528630 0.609366 -2.253885
v 0.403578 0.557568 -2.253885
v 0.351779 0.432515 -2.253885
v 0.403578 0.307463 -2.253885
v 0.528630 0.432515 -2.253885
vt 0.843750 0.531250
vt 0.968750 0.531250
vt 0.968750 0.656250
vt 0.843750 0.656250
vt 0.968750 0.531250
vt 0.843750 0.531250
vt 0.843750 0.656250
vt 0.968750 0.656250
vt 0.843750 0.656250
vt 0.968750 0.656250
vt 0.968750 0.531250
vt 0.843750 0.531250
vt 0.843750 0.531250
vt 0.968750 0.531250
vt 0.968750 0.656250
vt 0.843750 0.656250
vt 0.468750 0.382812
vt 0.562500 0.382812
vt 0.562500 0.476562
vt 0.468750 0.476562
vt 0.195312 0.382812
vt 0.007812 0.382812
vt 0.007812 0.476562
vt 0.195312 0.476562
vt 0.007812 0.656250
vt 0.179688 0.656250
vt 0.179688 0.484375
vt 0.007812 0.484375
vt 0.007812 0.382812
vt 0.195312 0.382812
vt 0.195312 0.476562
vt 0.007812 0.476562
vt 0.671875 0.382812
vt 0.765625 0.382812
vt 0.765625 0.476562
vt 0.671875 0.476562
vt 0.765625 0.382812
vt 0.671875 0.382812
vt 0.671875 0.476562
vt 0.765625 0.476562
vt 0.570312 0.476562
vt 0.664062 0.476562
vt 0.664062 0.382812
vt 0.570312 0.382812
vt 0.671875 0.382812
vt 0.765625 0.382812
vt 0.765625 0.476562
vt 0.671875 0.476562
vt 0.671875 0.382812
vt 0.765625 0.382812
vt 0.765625 0.476562
vt 0.671875 0.476562
vt 0.765625 0.382812
vt 0.671875 0.382812
vt 0.671875 0.476562
vt 0.765625 0.476562
vt 0.570312 0.476562
vt 0.664062 0.476562
vt 0.664062 0.382812
vt 0.570312 0.382812
vt 0.671875 0.382812
vt 0.765625 0.382812
vt 0.765625 0.476562
vt 0.671875 0.476562
vt 0.718750 0.382812
vt 0.751896 0.382812
vt 0.747455 0.429688
vt 0.718750 0.429688
vt 0.751896 0.382812
vt 0.718750 0.382812
vt 0.718750 0.429688
vt 0.747455 0.429688
vt 0.685604 0.382812
vt 0.690045 0.429688
vt 0.751896 0.382812
vt 0.718750 0.382812
vt 0.718750 0.429688
vt 0.747455 0.429688
vt 0.685604 0.382812
vt 0.690045 0.429688
vt 0.685604 0.382812
vt 0.690045 0.429688
vt 0.735323 0.464002
vt 0.718750 0.464002
vt 0.645892 0.458392
vt 0.657782 0.429687
vt 0.640625 0.429687
vt 0.718750 0.464002
vt 0.735323 0.464002
vt 0.645892 0.400983
vt 0.633760 0.413115
vt 0.718750 0.464002
vt 0.617188 0.406250
vt 0.617188 0.389093
vt 0.588483 0.400983
vt 0.600615 0.413115
vt 0.702177 0.464002
vt 0.576593 0.429687
vt 0.593750 0.429687
vt 0.588483 0.458392
vt 0.600615 0.446260
vt 0.617188 0.453125
vt 0.633760 0.446260
vt 0.617188 0.429687
vt 0.203125 0.382812
vt 0.328125 0.382812
vt 0.328125 0.476562
vt 0.203125 0.476562
vt 0.460938 0.382812
vt 0.335938 0.382812
vt 0.335938 0.476562
vt 0.460938 0.476562
vt 0.343750 0.992188
vt 0.546875 0.992188
vt 0.546875 0.664062
vt 0.343750 0.664062
vt 0.109375 0.296875
vt 0.484375 0.296875
vt 0.484375 0.375000
vt 0.109375 0.375000
vt 0.203125 0.382812
vt 0.328125 0.382812
vt 0.328125 0.476562
vt 0.203125 0.476562
vt 0.460938 0.382812
vt 0.335938 0.382812
vt 0.335938 0.476562
vt 0.460938 0.476562
vt 0.343750 0.992188
vt 0.546875 0.992188
vt 0.546875 0.664062
vt 0.343750 0.664062
vt 0.109375 0.296875
vt 0.484375 0.296875
vt 0.484375 0.375000
vt 0.109375 0.375000
vt 0.203125 0.382812
vt 0.328125 0.382812
vt 0.328125 0.476562
vt 0.203125 0.476562
vt 0.460938 0.382812
vt 0.335938 0.382812
vt 0.335938 0.476562
vt 0.460938 0.476562
vt 0.343750 0.992188
vt 0.546875 0.992188
vt 0.546875 0.664062
vt 0.343750 0.664062
vt 0.109375 0.296875
vt 0.484375 0.296875
vt 0.484375 0.375000
vt 0.109375 0.375000
vt 0.203125 0.382812
vt 0.328125 0.382812
vt 0.328125 0.476562
vt 0.203125 0.476562
vt 0.460938 0.382812
vt 0.335938 0.382812
vt 0.335938 0.476562
vt 0.460938 0.476562
vt 0.343750 0.992188
vt 0.546875 0.992188
vt 0.546875 0.664062
vt 0.343750 0.664062
vt 0.109375 0.296875
vt 0.484375 0.296875
vt 0.484375 0.375000
vt 0.109375 0.375000
vt 0.203125 0.382812
vt 0.328125 0.382812
vt 0.328125 0.476562
vt 0.203125 0.476562
vt 0.460938 0.382812
vt 0.335938 0.382812
vt 0.335938 0.476562
vt 0.460938 0.476562
vt 0.343750 0.992188
vt 0.546875 0.992188
vt 0.546875 0.664062
vt 0.343750 0.664062
vt 0.109375 0.296875
vt 0.484375 0.296875
vt 0.484375 0.375000
vt 0.109375 0.375000
vt 0.203125 0.382812
vt 0.328125 0.382812
vt 0.328125 0.476562
vt 0.203125 0.476562
vt 0.460938 0.382812
vt 0.335938 0.382812
vt 0.335938 0.476562
vt 0.460938 0.476562
vt 0.343750 0.992188
vt 0.546875 0.992188
vt 0.546875 0.664062
vt 0.343750 0.664062
vt 0.109375 0.296875
vt 0.484375 0.296875
vt 0.484375 0.375000
vt 0.109375 0.375000
vt 0.539062 0.234375
vt 0.572208 0.206754
vt 0.539062 0.195312
vt 0.585938 0.234375
vt 0.572208 0.261996
vt 0.539062 0.273438
vt 0.505917 0.261996
vt 0.492188 0.234375
vt 0.505917 0.206754
vt 0.589844 0.664062
vt 0.614703 0.664062
vt 0.614703 0.992188
vt 0.589844 0.992188
vt 0.327895 0.206754
vt 0.382812 0.234375
vt 0.327895 0.261996
vt 0.564985 0.664062
vt 0.564985 0.992188
vt 0.492188 0.363559
vt 0.492188 0.335938
vt 0.867188 0.335938
vt 0.867188 0.363559
vt 0.492188 0.308316
vt 0.867188 0.308316
vt 0.437500 0.195312
vt 0.470646 0.206754
vt 0.437500 0.234375
vt 0.484375 0.234375
vt 0.470646 0.261996
vt 0.437500 0.273438
vt 0.404354 0.261996
vt 0.390625 0.234375
vt 0.404354 0.206754
vt 0.539062 0.234375
vt 0.572208 0.206754
vt 0.539062 0.195312
vt 0.585938 0.234375
vt 0.572208 0.261996
vt 0.539062 0.273438
vt 0.505917 0.261996
vt 0.492188 0.234375
vt 0.505917 0.206754
vt 0.589844 0.664062
vt 0.614703 0.664062
vt 0.614703 0.992188
vt 0.589844 0.992188
vt 0.492188 0.308316
vt 0.492188 0.335938
vt 0.867188 0.335938
vt 0.867188 0.308316
vt 0.492188 0.363559
vt 0.867188 0.363559
vt 0.564985 0.664062
vt 0.564985 0.992188
vt 0.062730 0.261996
vt 0.007812 0.234375
vt 0.062730 0.206754
vt 0.437500 0.195312
vt 0.470646 0.206754
vt 0.437500 0.234375
vt 0.484375 0.234375
vt 0.470646 0.261996
vt 0.437500 0.273438
vt 0.404354 0.261996
vt 0.390625 0.234375
vt 0.404354 0.206754
vt 0.968750 0.656250
vt 0.843750 0.656250
vt 0.843750 0.531250
vt 0.968750 0.531250
vt 0.843750 0.656250
vt 0.968750 0.656250
vt 0.968750 0.531250
vt 0.843750 0.531250
vt 0.968750 0.656250
vt 0.843750 0.656250
vt 0.843750 0.531250
vt 0.968750 0.531250
vt 0.843750 0.656250
vt 0.968750 0.656250
vt 0.968750 0.531250
vt 0.843750 0.531250
vt 0.718750 0.242188
vt 0.766585 0.242188
vt 0.761663 0.273438
vt 0.718750 0.273438
vt 0.515625 0.103171
vt 0.558538 0.104237
vt 0.550572 0.106641
vt 0.515625 0.105772
vt 0.718750 0.261501
vt 0.753697 0.261501
vt 0.753697 0.222874
vt 0.718750 0.222874
vt 0.515625 0.105772
vt 0.550572 0.106641
vt 0.558538 0.104237
vt 0.515625 0.103171
vt 0.718750 0.210938
vt 0.761663 0.210938
vt 0.807138 0.242188
vt 0.798042 0.273438
vt 0.594917 0.107276
vt 0.580199 0.109116
vt 0.783324 0.261501
vt 0.783324 0.222874
vt 0.580199 0.109116
vt 0.594917 0.107276
vt 0.798042 0.210938
vt 0.515625 0.106139
vt 0.515625 0.111208
vt 0.640625 0.111823
vt 0.640625 0.107276
vt 0.619225 0.111823
vt 0.599995 0.112819
vt 0.592879 0.109116
vt 0.592879 0.112819
vt 0.438371 0.112819
vt 0.438371 0.109116
vt 0.599995 0.112819
vt 0.619225 0.111823
vt 0.390625 0.107276
vt 0.390625 0.111823
vt 0.515625 0.117188
vt 0.640625 0.117188
vt 0.627761 0.117188
vt 0.606946 0.117188
vt 0.592879 0.117188
vt 0.438371 0.117188
vt 0.606946 0.117188
vt 0.627761 0.117188
vt 0.390625 0.117188
vt 0.515625 0.123167
vt 0.640625 0.122552
vt 0.619225 0.122552
vt 0.599995 0.121556
vt 0.592879 0.121556
vt 0.438371 0.121556
vt 0.599995 0.121556
vt 0.619225 0.122552
vt 0.390625 0.122552
vt 0.515625 0.128236
vt 0.640625 0.127099
vt 0.594917 0.127099
vt 0.580199 0.125259
vt 0.592879 0.125259
vt 0.438371 0.125259
vt 0.580199 0.125259
vt 0.594917 0.127099
vt 0.390625 0.127099
vt 0.558538 0.130138
vt 0.550572 0.127734
vt 0.550572 0.127734
vt 0.558538 0.130138
vt 0.515625 0.131204
vt 0.515625 0.128603
vt 0.515625 0.128603
vt 0.515625 0.131204
vt 0.670915 0.242188
vt 0.675837 0.273438
vt 0.472712 0.130138
vt 0.480678 0.127734
vt 0.683803 0.261501
vt 0.683803 0.222874
vt 0.480678 0.127734
vt 0.472712 0.130138
vt 0.675837 0.210938
vt 0.630362 0.242188
vt 0.639458 0.273438
vt 0.436333 0.127099
vt 0.451051 0.125259
vt 0.654176 0.261501
vt 0.654176 0.222874
vt 0.451051 0.125259
vt 0.436333 0.127099
vt 0.639458 0.210938
vt 0.412025 0.122552
vt 0.431255 0.121556
vt 0.431255 0.121556
vt 0.412025 0.122552
vt 0.403489 0.117188
vt 0.424304 0.117188
vt 0.424304 0.117188
vt 0.403489 0.117188
vt 0.412025 0.111823
vt 0.431255 0.112819
vt 0.431255 0.112819
vt 0.412025 0.111823
vt 0.436333 0.107276
vt 0.451051 0.109116
vt 0.451051 0.109116
vt 0.436333 0.107276
vt 0.472712 0.104237
vt 0.480678 0.106641
vt 0.480678 0.106641
vt 0.472712 0.104237
vt 0.054688 0.328125
vt 0.087833 0.294979
vt 0.054688 0.281250
vt 0.101562 0.328125
vt 0.087833 0.361271
vt 0.054688 0.375000
vt 0.021542 0.361271
vt 0.007812 0.328125
vt 0.021542 0.294979
vt 0.054688 0.281250
vt 0.087833 0.281250
vt 0.087833 0.375000
vt 0.054688 0.375000
vt 0.007812 0.294979
vt 0.007812 0.328125
vt 0.101562 0.328125
vt 0.101562 0.294979
vt 0.007812 0.361271
vt 0.101562 0.361271
vt 0.021542 0.281250
vt 0.021542 0.375000
vt 0.054688 0.281250
vt 0.087833 0.294979
vt 0.054688 0.328125
vt 0.101562 0.328125
vt 0.087833 0.361271
vt 0.054688 0.375000
vt 0.021542 0.361271
vt 0.007812 0.328125
vt 0.021542 0.294979
vt 0.843750 0.531250
vt 0.968750 0.531250
vt 0.968750 0.656250
vt 0.843750 0.656250
vt 0.968750 0.531250
vt 0.843750 0.531250
vt 0.843750 0.656250
vt 0.968750 0.656250
vt 0.843750 0.656250
vt 0.968750 0.656250
vt 0.968750 0.531250
vt 0.843750 0.531250
vt 0.843750 0.531250
vt 0.968750 0.531250
vt 0.968750 0.656250
vt 0.843750 0.656250
vt 0.718750 0.242188
vt 0.766585 0.242188
vt 0.761663 0.273438
vt 0.718750 0.273438
vt 0.515625 0.103171
vt 0.558538 0.104237
vt 0.550572 0.106641
vt 0.515625 0.105772
vt 0.718750 0.261501
vt 0.753697 0.261501
vt 0.753697 0.222874
vt 0.718750 0.222874
vt 0.515625 0.105772
vt 0.550572 0.106641
vt 0.558538 0.104237
vt 0.515625 0.103171
vt 0.718750 0.210938
vt 0.761663 0.210938
vt 0.807138 0.242188
vt 0.798042 0.273438
vt 0.594917 0.107276
vt 0.580199 0.109116
vt 0.783324 0.261501
vt 0.783324 0.222874
vt 0.580199 0.109116
vt 0.594917 0.107276
vt 0.798042 0.210938
vt 0.515625 0.106139
vt 0.515625 0.111208
vt 0.640625 0.111823
vt 0.640625 0.107276
vt 0.619225 0.111823
vt 0.599995 0.112819
vt 0.592879 0.109116
vt 0.592879 0.112819
vt 0.438371 0.112819
vt 0.438371 0.109116
vt 0.599995 0.112819
vt 0.619225 0.111823
vt 0.390625 0.107276
vt 0.390625 0.111823
vt 0.515625 0.117188
vt 0.640625 0.117188
vt 0.627761 0.117188
vt 0.606946 0.117188
vt 0.592879 0.117188
vt 0.438371 0.117188
vt 0.606946 0.117188
vt 0.627761 0.117188
vt 0.390625 0.117188
vt 0.515625 0.123167
vt 0.640625 0.122552
vt 0.619225 0.122552
vt 0.599995 0.121556
vt 0.592879 0.121556
vt 0.438371 0.121556
vt 0.599995 0.121556
vt 0.619225 0.122552
vt 0.390625 0.122552
vt 0.515625 0.128236
vt 0.640625 0.127099
vt 0.594917 0.127099
vt 0.580199 0.125259
vt 0.592879 0.125259
vt 0.438371 0.125259
vt 0.580199 0.125259
vt 0.594917 0.127099
vt 0.390625 0.127099
vt 0.558538 0.130138
vt 0.550572 0.127734
vt 0.550572 0.127734
vt 0.558538 0.130138
vt 0.515625 0.131204
vt 0.515625 0.128603
vt 0.515625 0.128603
vt 0.515625 0.131204
vt 0.670915 0.242188
vt 0.675837 0.273438
vt 0.472712 0.130138
vt 0.480678 0.127734
vt 0.683803 0.261501
vt 0.683803 0.222874
vt 0.480678 0.127734
vt 0.472712 0.130138
vt 0.675837 0.210938
vt 0.630362 0.242188
vt 0.639458 0.273438
vt 0.436333 0.127099
vt 0.451051 0.125259
vt 0.654176 0.261501
vt 0.654176 0.222874
vt 0.451051 0.125259
vt 0.436333 0.127099
vt 0.639458 0.210938
vt 0.412025 0.122552
vt 0.431255 0.121556
vt 0.431255 0.121556
vt 0.412025 0.122552
vt 0.403489 0.117188
vt 0.424304 0.117188
vt 0.424304 0.117188
vt 0.403489 0.117188
vt 0.412025 0.111823
vt 0.431255 0.112819
vt 0.431255 0.112819
vt 0.412025 0.111823
vt 0.436333 0.107276
vt 0.451051 0.109116
vt 0.451051 0.109116
vt 0.436333 0.107276
vt 0.472712 0.104237
vt 0.480678 0.106641
vt 0.480678 0.106641
vt 0.472712 0.104237
vt 0.054687 0.328125
vt 0.087833 0.294979
vt 0.054687 0.281250
vt 0.101562 0.328125
vt 0.087833 0.361271
vt 0.054687 0.375000
vt 0.021542 0.361271
vt 0.007812 0.328125
vt 0.021542 0.294979
vt 0.054687 0.281250
vt 0.087833 0.281250
vt 0.087833 0.375000
vt 0.054687 0.375000
vt 0.007812 0.294979
vt 0.007812 0.328125
vt 0.101562 0.328125
vt 0.101562 0.294979
vt 0.007812 0.361271
vt 0.101562 0.361271
vt 0.021542 0.281250
vt 0.021542 0.375000
vt 0.054687 0.281250
vt 0.087833 0.294979
vt 0.054687 0.328125
vt 0.101562 0.328125
vt 0.087833 0.361271
vt 0.054687 0.375000
vt 0.021542 0.361271
vt 0.007812 0.328125
vt 0.021542 0.294979
vn 0.000000 0.000000 1.000000
vn 0.000000 0.000000 -1.000000
vn -0.000000 1.000000 0.000000
vn 0.000000 -1.000000 0.000000
vn -1.000000 0.000000 0.000000
vn 1.000000 0.000000 0.000000
vn 0.000000 0.000000 1.000000
vn 0.000000 0.000000 -1.000000
vn -0.000000 1.000000 0.000000
vn 0.000000 -1.000000 0.000000
vn -1.000000 0.000000 0.000000
vn 1.000000 0.000000 0.000000
vn 0.000000 0.000000 1.000000
vn 0.000000 0.000000 -1.000000
vn -0.000000 1.000000 0.000000
vn 0.000000 -1.000000 0.000000
vn -1.000000 0.000000 0.000000
vn 1.000000 0.000000 0.000000
vn 0.000000 0.000000 1.000000
vn 0.000000 0.000000 -1.000000
vn -0.000000 1.000000 0.000000
vn 0.000000 -1.000000 0.000000
vn -1.000000 0.000000 0.000000
vn 1.000000 0.000000 0.000000
vn 0.371470 0.240299 0.896809
vn 0.896809 0.240299 0.371470
vn 0.896809 0.240299 -0.371470
vn 0.371470 0.240299 -0.896809
vn -0.371470 0.240299 -0.896809
vn -0.896809 0.240299 -0.371470
vn -0.896809 0.240299 0.371470
vn -0.371470 0.240299 0.896809
vn 0.281085 0.678598 0.678598
vn 0.678598 0.678598 0.281085
vn 0.678598 0.678598 -0.281085
vn 0.281085 0.678598 -0.678598
vn -0.281085 0.678598 -0.678598
vn -0.678598 0.678598 -0.281085
vn -0.678598 0.678598 0.281085
vn -0.281085 0.678598 0.678598
vn 0.106596 0.960422 0.257344
vn 0.257344 0.960422 0.106596
vn 0.257344 0.960422 -0.106596
vn 0.106596 0.960422 -0.257344
vn -0.106596 0.960422 -0.257344
vn -0.257344 0.960422 -0.106596
vn -0.257344 0.960422 0.106596
vn -0.106596 0.960422 0.257344
vn 0.000000 0.000000 1.000000
vn 0.000000 0.000000 -1.000000
vn -0.000000 1.000000 0.000000
vn 0.000000 -1.000000 0.000000
vn -1.000000 0.000000 0.000000
vn 1.000000 0.000000 0.000000
vn 0.000000 0.000000 1.000000
vn 0.000000 0.000000 -1.000000
vn -0.000000 1.000000 0.000000
vn 0.000000 -1.000000 0.000000
vn -1.000000 0.000000 0.000000
vn 1.000000 0.000000 0.000000
vn 0.000000 0.000000 1.000000
vn 0.000000 0.000000 -1.000000
vn -0.000000 1.000000 0.000000
vn 0.000000 -1.000000 0.000000
vn -1.000000 0.000000 0.000000
vn 1.000000 0.000000 0.000000
vn 0.000000 0.000000 1.000000
vn 0.000000 0.000000 -1.000000
vn -0.000000 1.000000 0.000000
vn 0.000000 -1.000000 0.000000
vn -1.000000 0.000000 0.000000
vn 1.000000 0.000000 0.000000
vn 0.000000 0.000000 1.000000
vn 0.000000 0.000000 -1.000000
vn -0.000000 1.000000 0.000000
vn 0.000000 -1.000000 0.000000
vn -1.000000 0.000000 0.000000
vn 1.000000 0.000000 0.000000
vn 0.000000 0.000000 1.000000
vn 0.000000 0.000000 -1.000000
vn -0.000000 1.000000 0.000000
vn 0.000000 -1.000000 0.000000
vn -1.000000 0.000000 0.000000
vn 1.000000 0.000000 0.000000
vn 0.000000 0.000000 -1.000000
vn 0.382683 -0.923880 0.000000
vn 0.923880 -0.382683 0.000000
vn 0.923880 0.382683 -0.000000
vn 0.382683 0.923880 0.000000
vn -0.382683 0.923880 0.000000
vn -0.923880 0.382683 -0.000000
vn -0.923880 -0.382683 0.000000
vn -0.382683 -0.923880 0.000000
vn 0.000000 0.000000 1.000000
vn 0.000000 0.000000 -1.000000
vn 0.382683 -0.923880 0.000000
vn 0.923880 -0.382683 0.000000
vn 0.923880 0.382683 -0.000000
vn 0.382683 0.923880 0.000000
vn -0.382683 0.923880 0.000000
vn -0.923880 0.382683 -0.000000
vn -0.923880 -0.382683 0.000000
vn -0.382683 -0.923880 0.000000
vn 0.000000 0.000000 1.000000
vn 0.000000 0.000000 1.000000
vn 0.000000 0.000000 -1.000000
vn -0.000000 -1.000000 0.000000
vn 0.000000 1.000000 0.000000
vn 1.000000 0.000000 -0.000000
vn -1.000000 0.000000 -0.000000
vn 0.158879 -0.798741 0.580319
vn -0.061352 0.308435 0.949265
vn -0.195090 0.980785 0.000000
vn -0.061352 0.308435 -0.949265
vn 0.158879 -0.798741 -0.580319
vn 0.452450 -0.677140 0.580319
vn -0.174714 0.261478 0.949265
vn -0.555570 0.831470 0.000000
vn -0.174714 0.261478 -0.949265
vn 0.452450 -0.677140 -0.580319
vn 0.677140 -0.452450 0.580319
vn -0.261478 0.174714 0.949265
vn -0.831470 0.555570 0.000000
vn -0.261478 0.174714 -0.949265
vn 0.677140 -0.452450 -0.580319
vn 0.798741 -0.158879 0.580319
vn -0.308435 0.061352 0.949265
vn -0.980785 0.195090 0.000000
vn -0.308435 0.061352 -0.949265
vn 0.798741 -0.158879 -0.580319
vn 0.798741 0.158879 0.580319
vn -0.308435 -0.061352 0.949265
vn -0.980785 -0.195090 0.000000
vn -0.308435 -0.061352 -0.949265
vn 0.798741 0.158879 -0.580319
vn 0.677140 0.452450 0.580319
vn -0.261478 -0.174714 0.949265
vn -0.831470 -0.555570 0.000000
vn -0.261478 -0.174714 -0.949265
vn 0.677140 0.452450 -0.580319
vn 0.452450 0.677140 0.580319
vn -0.174714 -0.261478 0.949265
vn -0.555570 -0.831470 0.000000
vn -0.174714 -0.261478 -0.949265
vn 0.452450 0.677140 -0.580319
vn 0.158879 0.798741 0.580319
vn -0.061352 -0.308435 0.949265
vn -0.195090 -0.980785 0.000000
vn -0.061352 -0.308435 -0.949265
vn 0.158879 0.798741 -0.580319
vn -0.158879 0.798741 0.580319
vn 0.061352 -0.308435 0.949265
vn 0.195090 -0.980785 0.000000
vn 0.061352 -0.308435 -0.949265
vn -0.158879 0.798741 -0.580319
vn -0.452450 0.677140 0.580319
vn 0.174714 -0.261478 0.949265
vn 0.555570 -0.831470 0.000000
vn 0.174714 -0.261478 -0.949265
vn -0.452450 0.677140 -0.580319
vn -0.677140 0.452450 0.580319
vn 0.261478 -0.174714 0.949265
vn 0.831470 -0.555570 0.000000
vn 0.261478 -0.174714 -0.949265
vn -0.677140 0.452450 -0.580319
vn -0.798741 0.158879 0.580319
vn 0.308435 -0.061352 0.949265
vn 0.980785 -0.195090 0.000000
vn 0.308435 -0.061352 -0.949265
vn -0.798741 0.158879 -0.580319
vn -0.798741 -0.158879 0.580319
vn 0.308435 0.061352 0.949265
vn 0.980785 0.195090 0.000000
vn 0.308435 0.061352 -0.949265
vn -0.798741 -0.158879 -0.580319
vn -0.677140 -0.452450 0.580319
vn 0.261478 0.174714 0.949265
vn 0.831470 0.555570 0.000000
vn 0.261478 0.174714 -0.949265
vn -0.677140 -0.452450 -0.580319
vn -0.452450 -0.677140 0.580319
vn 0.174714 0.261478 0.949265
vn 0.555570 0.831470 0.000000
vn 0.174714 0.261478 -0.949265
vn -0.452450 -0.677140 -0.580319
vn -0.158879 -0.798741 0.580319
vn 0.061352 0.308435 0.949265
vn 0.195090 0.980785 0.000000
vn 0.061352 0.308435 -0.949265
vn -0.158879 -0.798741 -0.580319
vn 0.000000 0.000000 -1.000000
vn 0.382683 -0.923880 0.000000
vn 0.923880 -0.382683 0.000000
vn 0.923880 0.382683 0.000000
vn 0.382683 0.923880 0.000000
vn -0.382683 0.923880 0.000000
vn -0.923880 0.382683 0.000000
vn -0.923880 -0.382683 0.000000
vn -0.382683 -0.923880 0.000000
vn 0.000000 0.000000 1.000000
vn 0.000000 0.000000 1.000000
vn 0.000000 0.000000 -1.000000
vn -0.000000 1.000000 0.000000
vn 0.000000 -1.000000 0.000000
vn -1.000000 0.000000 0.000000
vn 1.000000 0.000000 0.000000
vn 0.158879 -0.798741 0.580319
vn -0.061352 0.308435 0.949265
vn -0.195090 0.980785 0.000000
vn -0.061352 0.308435 -0.949265
vn 0.158879 -0.798741 -0.580319
vn 0.452450 -0.677140 0.580319
vn -0.174714 0.261478 0.949265
vn -0.555570 0.831470 0.000000
vn -0.174714 0.261478 -0.949265
vn 0.452450 -0.677140 -0.580319
vn 0.677140 -0.452450 0.580319
vn -0.261478 0.174714 0.949265
vn -0.831470 0.555570 0.000000
vn -0.261478 0.174714 -0.949265
vn 0.677140 -0.452450 -0.580319
vn 0.798741 -0.158879 0.580319
vn -0.308435 0.061352 0.949265
vn -0.980785 0.195090 0.000000
vn -0.308435 0.061352 -0.949265
vn 0.798741 -0.158879 -0.580319
vn 0.798741 0.158879 0.580319
vn -0.308435 -0.061352 0.949265
vn -0.980785 -0.195090 0.000000
vn -0.308435 -0.061352 -0.949265
vn 0.798741 0.158879 -0.580319
vn 0.677140 0.452450 0.580319
vn -0.261478 -0.174714 0.949265
vn -0.831470 -0.555570 0.000000
vn -0.261478 -0.174714 -0.949265
vn 0.677140 0.452450 -0.580319
vn 0.452450 0.677140 0.580319
vn -0.174714 -0.261478 0.949265
vn -0.555570 -0.831470 0.000000
vn -0.174714 -0.261478 -0.949265
vn 0.452450 0.677140 -0.580319
vn 0.158879 0.798741 0.580319
vn -0.061352 -0.308435 0.949265
vn -0.195090 -0.980785 0.000000
vn -0.061352 -0.308435 -0.949265
vn 0.158879 0.798741 -0.580319
vn -0.158879 0.798741 0.580319
vn 0.061352 -0.308435 0.949265
vn 0.195090 -0.980785 0.000000
vn 0.061352 -0.308435 -0.949265
vn -0.158879 0.798741 -0.580319
vn -0.452450 0.677140 0.580319
vn 0.174714 -0.261478 0.949265
vn 0.555570 -0.831470 0.000000
vn 0.174714 -0.261478 -0.949265
vn -0.452450 0.677140 -0.580319
vn -0.677140 0.452450 0.580319
vn 0.261478 -0.174714 0.949265
vn 0.831470 -0.555570 0.000000
vn 0.261478 -0.174714 -0.949265
vn -0.677140 0.452450 -0.580319
vn -0.798741 0.158879 0.580319
vn 0.308435 -0.061352 0.949265
vn 0.980785 -0.195090 0.000000
vn 0.308435 -0.061352 -0.949265
vn -0.798741 0.158879 -0.580319
vn -0.798741 -0.158879 0.580319
vn 0.308435 0.061352 0.949265
vn 0.980785 0.195090 0.000000
vn 0.308435 0.061352 -0.949265
vn -0.798741 -0.158879 -0.580319
vn -0.677140 -0.452450 0.580319
vn 0.261478 0.174714 0.949265
vn 0.831470 0.555570 0.000000
vn 0.261478 0.174714 -0.949265
vn -0.677140 -0.452450 -0.580319
vn -0.452450 -0.677140 0.580319
vn 0.174714 0.261478 0.949265
vn 0.555570 0.831470 0.000000
vn 0.174714 0.261478 -0.949265
vn -0.452450 -0.677140 -0.580319
vn -0.158879 -0.798741 0.580319
vn 0.061352 0.308435 0.949265
vn 0.195090 0.980785 0.000000
vn 0.061352 0.308435 -0.949265
vn -0.158879 -0.798741 -0.580319
vn 0.000000 0.000000 -1.000000
vn 0.382683 -0.923880 0.000000
vn 0.923880 -0.382683 0.000000
vn 0.923880 0.382683 0.000000
vn 0.382683 0.923880 0.000000
vn -0.382683 0.923880 0.000000
vn -0.923880 0.382683 0.000000
vn -0.923880 -0.382683 0.000000
vn -0.382683 -0.923880 0.000000
vn 0.000000 0.000000 1.000000
f 1/1/1 2/2/1 3/3/1
f 1/1/1 3/3/1 4/4/1
f 5/5/2 6/6/2 7/7/2
f 5/5/2 7/7/2 8/8/2
f 4/9/3 3/10/3 8/11/3
f 4/9/3 8/11/3 7/12/3
f 6/12/4 5/11/4 2/10/4
f 6/12/4 2/10/4 1/9/4
f 6/13/5 1/14/5 4/15/5
f 6/13/5 4/15/5 7/16/5
f 2/14/6 5/13/6 8/16/6
f 2/14/6 8/16/6 3/15/6
f 9/17/7 10/18/7 11/19/7
f 9/17/7 11/19/7 12/20/7
f 13/21/8 14/22/8 15/23/8
f 13/21/8 15/23/8 16/24/8
f 12/25/9 11/26/9 16/27/9
f 12/25/9 16/27/9 15/28/9
f 14/28/10 13/27/10 10/26/10
f 14/28/10 10/26/10 9/25/10
f 14/29/11 9/30/11 12/31/11
f 14/29/11 12/31/11 15/32/11
f 10/30/12 13/29/12 16/32/12
f 10/30/12 16/32/12 11/31/12
f 17/33/13 18/34/13 19/35/13
f 17/33/13 19/35/13 20/36/13
f 21/37/14 22/38/14 23/39/14
f 21/37/14 23/39/14 24/40/14
f 20/41/15 19/42/15 24/43/15
f 20/41/15 24/43/15 23/44/15
f 22/44/16 21/43/16 18/42/16
f 22/44/16 18/42/16 17/41/16
f 22/45/17 17/46/17 20/47/17
f 22/45/17 20/47/17 23/48/17
f 18/46/18 21/45/18 24/48/18
f 18/46/18 24/48/18 19/47/18
f 25/49/19 26/50/19 27/51/19
f 25/49/19 27/51/19 28/52/19
f 29/53/20 30/54/20 31/55/20
f 29/53/20 31/55/20 32/56/20
f 28/57/21 27/58/21 32/59/21
f 28/57/21 32/59/21 31/60/21
f 30/60/22 29/59/22 26/58/22
f 30/60/22 26/58/22 25/57/22
f 30/61/23 25/62/23 28/63/23
f 30/61/23 28/63/23 31/64/23
f 26/62/24 29/61/24 32/64/24
f 26/62/24 32/64/24 27/63/24
f 33/65/25 34/66/25 35/67/25
f 33/65/25 35/67/25 36/68/25
f 34/69/26 37/70/26 38/71/26
f 34/69/26 38/71/26 35/72/26
f 37/70/27 39/73/27 40/74/27
f 37/70/27 40/74/27 38/71/27
f 39/75/28 41/76/28 42/77/28
f 39/75/28 42/77/28 40/78/28
f 41/76/29 43/79/29 44/80/29
f 41/76/29 44/80/29 42/77/29
f 43/73/30 45/70/30 46/71/30
f 43/73/30 46/71/30 44/74/30
f 45/70/31 47/69/31 48/72/31
f 45/70/31 48/72/31 46/71/31
f 47/81/32 33/65/32 36/68/32
f 47/81/32 36/68/32 48/82/32
f 36/68/33 35/67/33 49/83/33
f 36/68/33 49/83/33 50/84/33
f 35/85/34 38/86/34 51/87/34
f 35/72/34 51/88/34 49/89/34
f 38/86/35 40/90/35 52/91/35
f 38/86/35 52/91/35 51/87/35
f 40/78/36 42/77/36 53/92/36
f 40/90/36 53/93/36 52/91/36
f 42/94/37 44/95/37 54/96/37
f 42/77/37 54/97/37 53/92/37
f 44/95/38 46/98/38 55/99/38
f 44/95/38 55/99/38 54/96/38
f 46/98/39 48/100/39 56/101/39
f 46/98/39 56/101/39 55/99/39
f 48/82/40 36/68/40 50/84/40
f 48/100/40 50/102/40 56/101/40
f 50/102/41 49/103/41 57/104/41
f 49/103/42 51/87/42 57/104/42
f 51/87/43 52/91/43 57/104/43
f 52/91/44 53/93/44 57/104/44
f 53/93/45 54/96/45 57/104/45
f 54/96/46 55/99/46 57/104/46
f 55/99/47 56/101/47 57/104/47
f 56/101/48 50/102/48 57/104/48
f 58/105/49 59/106/49 60/107/49
f 58/105/49 60/107/49 61/108/49
f 62/109/50 63/110/50 64/111/50
f 62/109/50 64/111/50 65/112/50
f 61/113/51 60/114/51 65/115/51
f 61/113/51 65/115/51 64/116/51
f 63/116/52 62/115/52 59/114/52
f 63/116/52 59/114/52 58/113/52
f 63/117/53 58/118/53 61/119/53
f 63/117/53 61/119/53 64/120/53
f 59/118/54 62/117/54 65/120/54
f 59/118/54 65/120/54 60/119/54
f 66/121/55 67/122/55 68/123/55
f 66/121/55 68/123/55 69/124/55
f 70/125/56 71/126/56 72/127/56
f 70/125/56 72/127/56 73/128/56
f 69/129/57 68/130/57 73/131/57
f 69/129/57 73/131/57 72/132/57
f 71/132/58 70/131/58 67/130/58
f 71/132/58 67/130/58 66/129/58
f 71/133/59 66/134/59 69/135/59
f 71/133/59 69/135/59 72/136/59
f 67/134/60 70/133/60 73/136/60
f 67/134/60 73/136/60 68/135/60
f 74/137/61 75/138/61 76/139/61
f 74/137/61 76/139/61 77/140/61
f 78/141/62 79/142/62 80/143/62
f 78/141/62 80/143/62 81/144/62
f 77/145/63 76/146/63 81/147/63
f 77/145/63 81/147/63 80/148/63
f 79/148/64 78/147/64 75/146/64
f 79/148/64 75/146/64 74/145/64
f 79/149/65 74/150/65 77/151/65
f 79/149/65 77/151/65 80/152/65
f 75/150/66 78/149/66 81/152/66
f 75/150/66 81/152/66 76/151/66
f 82/153/67 83/154/67 84/155/67
f 82/153/67 84/155/67 85/156/67
f 86/157/68 87/158/68 88/159/68
f 86/157/68 88/159/68 89/160/68
f 85/161/69 84/162/69 89/163/69
f 85/161/69 89/163/69 88/164/69
f 87/164/70 86/163/70 83/162/70
f 87/164/70 83/162/70 82/161/70
f 87/165/71 82/166/71 85/167/71
f 87/165/71 85/167/71 88/168/71
f 83/166/72 86/165/72 89/168/72
f 83/166/72 89/168/72 84/167/72
f 90/169/73 91/170/73 92/171/73
f 90/169/73 92/171/73 93/172/73
f 94/173/74 95/174/74 96/175/74
f 94/173/74 96/175/74 97/176/74
f 93/177/75 92/178/75 97/179/75
f 93/177/75 97/179/75 96/180/75
f 95/180/76 94/179/76 91/178/76
f 95/180/76 91/178/76 90/177/76
f 95/181/77 90/182/77 93/183/77
f 95/181/77 93/183/77 96/184/77
f 91/182/78 94/181/78 97/184/78
f 91/182/78 97/184/78 92/183/78
f 98/185/79 99/186/79 100/187/79
f 98/185/79 100/187/79 101/188/79
f 102/189/80 103/190/80 104/191/80
f 102/189/80 104/191/80 105/192/80
f 101/193/81 100/194/81 105/195/81
f 101/193/81 105/195/81 104/196/81
f 103/196/82 102/195/82 99/194/82
f 103/196/82 99/194/82 98/193/82
f 103/197/83 98/198/83 101/199/83
f 103/197/83 101/199/83 104/200/83
f 99/198/84 102/197/84 105/200/84
f 99/198/84 105/200/84 100/199/84
f 106/201/85 107/202/85 108/203/85
f 106/201/85 109/204/85 107/202/85
f 106/201/85 110/205/85 109/204/85
f 106/201/85 111/206/85 110/205/85
f 106/201/85 112/207/85 111/206/85
f 106/201/85 113/208/85 112/207/85
f 106/201/85 114/209/85 113/208/85
f 106/201/85 108/203/85 114/209/85
f 108/210/86 107/211/86 115/212/86
f 108/210/86 115/212/86 116/213/86
f 107/214/87 109/215/87 117/215/87
f 107/214/87 117/215/87 115/214/87
f 109/215/88 110/216/88 118/216/88
f 109/215/88 118/216/88 117/215/88
f 110/211/89 111/210/89 119/213/89
f 110/211/89 119/213/89 118/212/89
f 111/210/90 112/217/90 120/218/90
f 111/210/90 120/218/90 119/213/90
f 112/219/91 113/220/91 121/221/91
f 112/219/91 121/221/91 120/222/91
f 113/220/92 114/223/92 122/224/92
f 113/220/92 122/224/92 121/221/92
f 114/217/93 108/210/93 116/213/93
f 114/217/93 116/213/93 122/218/93
f 116/225/94 115/226/94 123/227/94
f 115/226/94 117/228/94 123/227/94
f 117/228/94 118/229/94 123/227/94
f 118/229/94 119/230/94 123/227/94
f 119/230/94 120/231/94 123/227/94
f 120/231/94 121/232/94 123/227/94
f 121/232/94 122/233/94 123/227/94
f 122/233/94 116/225/94 123/227/94
f 124/234/95 125/235/95 126/236/95
f 124/234/95 127/237/95 125/235/95
f 124/234/95 128/238/95 127/237/95
f 124/234/95 129/239/95 128/238/95
f 124/234/95 130/240/95 129/239/95
f 124/234/95 131/241/95 130/240/95
f 124/234/95 132/242/95 131/241/95
f 124/234/95 126/236/95 132/242/95
f 126/243/96 125/244/96 133/245/96
f 126/243/96 133/245/96 134/246/96
f 125/247/97 127/248/97 135/249/97
f 125/247/97 135/249/97 133/250/97
f 127/248/98 128/251/98 136/252/98
f 127/248/98 136/252/98 135/249/98
f 128/244/99 129/243/99 137/246/99
f 128/244/99 137/246/99 136/245/99
f 129/243/100 130/253/100 138/254/100
f 129/243/100 138/254/100 137/246/100
f 130/255/101 131/256/101 139/256/101
f 130/255/101 139/256/101 138/255/101
f 131/256/102 132/257/102 140/257/102
f 131/256/102 140/257/102 139/256/102
f 132/253/103 126/243/103 134/246/103
f 132/253/103 134/246/103 140/254/103
f 134/258/104 133/259/104 141/260/104
f 133/259/104 135/261/104 141/260/104
f 135/261/104 136/262/104 141/260/104
f 136/262/104 137/263/104 141/260/104
f 137/263/104 138/264/104 141/260/104
f 138/264/104 139/265/104 141/260/104
f 139/265/104 140/266/104 141/260/104
f 140/266/104 134/258/104 141/260/104
f 142/267/105 143/268/105 144/269/105
f 142/267/105 144/269/105 145/270/105
f 146/271/106 147/272/106 148/273/106
f 146/271/106 148/273/106 149/274/106
f 145/275/107 144/276/107 149/277/107
f 145/275/107 149/277/107 148/278/107
f 147/278/108 146/277/108 143/276/108
f 147/278/108 143/276/108 142/275/108
f 147/279/109 142/280/109 145/281/109
f 147/279/109 145/281/109 148/282/109
f 143/280/110 146/279/110 149/282/110
f 143/280/110 149/282/110 144/281/110
f 150/283/111 151/284/111 152/285/111
f 150/283/111 152/285/111 153/286/111
f 153/287/112 152/288/112 154/289/112
f 153/287/112 154/289/112 155/290/112
f 155/291/113 154/292/113 156/293/113
f 155/291/113 156/293/113 157/294/113
f 157/295/114 156/296/114 158/297/114
f 157/295/114 158/297/114 159/298/114
f 159/299/115 158/300/115 151/284/115
f 159/299/115 151/284/115 150/283/115
f 151/284/116 160/301/116 161/302/116
f 151/284/116 161/302/116 152/285/116
f 152/288/117 161/303/117 162/304/117
f 152/288/117 162/304/117 154/289/117
f 154/292/118 162/305/118 163/306/118
f 154/292/118 163/306/118 156/293/118
f 156/296/119 163/307/119 164/308/119
f 156/296/119 164/308/119 158/297/119
f 158/300/120 164/309/120 160/301/120
f 158/300/120 160/301/120 151/284/120
f 160/310/121 165/311/121 166/312/121
f 160/310/121 166/312/121 161/313/121
f 161/303/122 166/314/122 167/315/122
f 161/303/122 167/315/122 162/304/122
f 162/316/123 167/317/123 168/318/123
f 162/316/123 168/318/123 163/319/123
f 163/307/124 168/320/124 169/321/124
f 163/307/124 169/321/124 164/308/124
f 164/322/125 169/323/125 165/311/125
f 164/322/125 165/311/125 160/310/125
f 165/311/126 170/324/126 171/325/126
f 165/311/126 171/325/126 166/312/126
f 166/314/127 171/326/127 172/327/127
f 166/314/127 172/327/127 167/315/127
f 167/317/128 172/328/128 173/329/128
f 167/317/128 173/329/128 168/318/128
f 168/320/129 173/330/129 174/331/129
f 168/320/129 174/331/129 169/321/129
f 169/323/130 174/332/130 170/324/130
f 169/323/130 170/324/130 165/311/130
f 170/324/131 175/333/131 176/334/131
f 170/324/131 176/334/131 171/325/131
f 171/326/132 176/335/132 177/336/132
f 171/326/132 177/336/132 172/327/132
f 172/328/133 177/337/133 178/338/133
f 172/328/133 178/338/133 173/329/133
f 173/330/134 178/339/134 179/340/134
f 173/330/134 179/340/134 174/331/134
f 174/332/135 179/341/135 175/333/135
f 174/332/135 175/333/135 170/324/135
f 175/333/136 180/342/136 181/343/136
f 175/333/136 181/343/136 176/334/136
f 176/335/137 181/344/137 182/345/137
f 176/335/137 182/345/137 177/336/137
f 177/337/138 182/346/138 183/347/138
f 177/337/138 183/347/138 178/338/138
f 178/339/139 183/348/139 184/349/139
f 178/339/139 184/349/139 179/340/139
f 179/341/140 184/350/140 180/342/140
f 179/341/140 180/342/140 175/333/140
f 180/301/141 185/284/141 186/285/141
f 180/301/141 186/285/141 181/302/141
f 181/344/142 186/351/142 187/352/142
f 181/344/142 187/352/142 182/345/142
f 182/305/143 187/292/143 188/293/143
f 182/305/143 188/293/143 183/306/143
f 183/348/144 188/353/144 189/354/144
f 183/348/144 189/354/144 184/349/144
f 184/309/145 189/300/145 185/284/145
f 184/309/145 185/284/145 180/301/145
f 185/284/146 190/283/146 191/286/146
f 185/284/146 191/286/146 186/285/146
f 186/351/147 191/355/147 192/356/147
f 186/351/147 192/356/147 187/352/147
f 187/292/148 192/291/148 193/294/148
f 187/292/148 193/294/148 188/293/148
f 188/353/149 193/357/149 194/358/149
f 188/353/149 194/358/149 189/354/149
f 189/300/150 194/299/150 190/283/150
f 189/300/150 190/283/150 185/284/150
f 190/283/151 195/359/151 196/360/151
f 190/283/151 196/360/151 191/286/151
f 191/355/152 196/361/152 197/362/152
f 191/355/152 197/362/152 192/356/152
f 192/291/153 197/363/153 198/364/153
f 192/291/153 198/364/153 193/294/153
f 193/357/154 198/365/154 199/366/154
f 193/357/154 199/366/154 194/358/154
f 194/299/155 199/367/155 195/359/155
f 194/299/155 195/359/155 190/283/155
f 195/359/156 200/368/156 201/369/156
f 195/359/156 201/369/156 196/360/156
f 196/361/157 201/370/157 202/371/157
f 196/361/157 202/371/157 197/362/157
f 197/363/158 202/372/158 203/373/158
f 197/363/158 203/373/158 198/364/158
f 198/365/159 203/374/159 204/375/159
f 198/365/159 204/375/159 199/366/159
f 199/367/160 204/376/160 200/368/160
f 199/367/160 200/368/160 195/359/160
f 200/342/161 205/333/161 206/334/161
f 200/342/161 206/334/161 201/343/161
f 201/370/162 206/377/162 207/378/162
f 201/370/162 207/378/162 202/371/162
f 202/346/163 207/337/163 208/338/163
f 202/346/163 208/338/163 203/347/163
f 203/374/164 208/379/164 209/380/164
f 203/374/164 209/380/164 204/375/164
f 204/350/165 209/341/165 205/333/165
f 204/350/165 205/333/165 200/342/165
f 205/333/166 210/324/166 211/325/166
f 205/333/166 211/325/166 206/334/166
f 206/377/167 211/381/167 212/382/167
f 206/377/167 212/382/167 207/378/167
f 207/337/168 212/328/168 213/329/168
f 207/337/168 213/329/168 208/338/168
f 208/379/169 213/383/169 214/384/169
f 208/379/169 214/384/169 209/380/169
f 209/341/170 214/332/170 210/324/170
f 209/341/170 210/324/170 205/333/170
f 210/324/171 215/311/171 216/312/171
f 210/324/171 216/312/171 211/325/171
f 211/381/172 216/385/172 217/386/172
f 211/381/172 217/386/172 212/382/172
f 212/328/173 217/317/173 218/318/173
f 212/328/173 218/318/173 213/329/173
f 213/383/174 218/387/174 219/388/174
f 213/383/174 219/388/174 214/384/174
f 214/332/175 219/323/175 215/311/175
f 214/332/175 215/311/175 210/324/175
f 215/311/176 220/310/176 221/313/176
f 215/311/176 221/313/176 216/312/176
f 216/385/177 221/389/177 222/390/177
f 216/385/177 222/390/177 217/386/177
f 217/317/178 222/316/178 223/319/178
f 217/317/178 223/319/178 218/318/178
f 218/387/179 223/391/179 224/392/179
f 218/387/179 224/392/179 219/388/179
f 219/323/180 224/322/180 220/310/180
f 219/323/180 220/310/180 215/311/180
f 220/368/181 225/359/181 226/360/181
f 220/368/181 226/360/181 221/369/181
f 221/389/182 226/393/182 227/394/182
f 221/389/182 227/394/182 222/390/182
f 222/372/183 227/363/183 228/364/183
f 222/372/183 228/364/183 223/373/183
f 223/391/184 228/395/184 229/396/184
f 223/391/184 229/396/184 224/392/184
f 224/376/185 229/367/185 225/359/185
f 224/376/185 225/359/185 220/368/185
f 225/359/186 150/283/186 153/286/186
f 225/359/186 153/286/186 226/360/186
f 226/393/187 153/287/187 155/290/187
f 226/393/187 155/290/187 227/394/187
f 227/363/188 155/291/188 157/294/188
f 227/363/188 157/294/188 228/364/188
f 228/395/189 157/295/189 159/298/189
f 228/395/189 159/298/189 229/396/189
f 229/367/190 159/299/190 150/283/190
f 229/367/190 150/283/190 225/359/190
f 230/397/191 231/398/191 232/399/191
f 230/397/191 233/400/191 231/398/191
f 230/397/191 234/401/191 233/400/191
f 230/397/191 235/402/191 234/401/191
f 230/397/191 236/403/191 235/402/191
f 230/397/191 237/404/191 236/403/191
f 230/397/191 238/405/191 237/404/191
f 230/397/191 232/399/191 238/405/191
f 232/406/192 231/407/192 239/408/192
f 232/406/192 239/408/192 240/409/192
f 231/410/193 233/411/193 241/412/193
f 231/410/193 241/412/193 239/413/193
f 233/411/194 234/414/194 242/415/194
f 233/411/194 242/415/194 241/412/194
f 234/407/195 235/406/195 243/409/195
f 234/407/195 243/409/195 242/408/195
f 235/406/196 236/416/196 244/417/196
f 235/406/196 244/417/196 243/409/196
f 236/414/197 237/411/197 245/412/197
f 236/414/197 245/412/197 244/415/197
f 237/411/198 238/410/198 246/413/198
f 237/411/198 246/413/198 245/412/198
f 238/416/199 232/406/199 240/409/199
f 238/416/199 240/409/199 246/417/199
f 240/418/200 239/419/200 247/420/200
f 239/419/200 241/421/200 247/420/200
f 241/421/200 242/422/200 247/420/200
f 242/422/200 243/423/200 247/420/200
f 243/423/200 244/424/200 247/420/200
f 244/424/200 245/425/200 247/420/200
f 245/425/200 246/426/200 247/420/200
f 246/426/200 240/418/200 247/420/200
f 248/427/201 249/428/201 250/429/201
f 248/427/201 250/429/201 251/430/201
f 252/431/202 253/432/202 254/433/202
f 252/431/202 254/433/202 255/434/202
f 251/435/203 250/436/203 255/437/203
f 251/435/203 255/437/203 254/438/203
f 253/438/204 252/437/204 249/436/204
f 253/438/204 249/436/204 248/435/204
f 253/439/205 248/440/205 251/441/205
f 253/439/205 251/441/205 254/442/205
f 249/440/206 252/439/206 255/442/206
f 249/440/206 255/442/206 250/441/206
f 256/443/207 257/444/207 258/445/207
f 256/443/207 258/445/207 259/446/207
f 259/447/208 258/448/208 260/449/208
f 259/447/208 260/449/208 261/450/208
f 261/451/209 260/452/209 262/453/209
f 261/451/209 262/453/209 263/454/209
f 263/455/210 262/456/210 264/457/210
f 263/455/210 264/457/210 265/458/210
f 265/459/211 264/460/211 257/444/211
f 265/459/211 257/444/211 256/443/211
f 257/444/212 266/461/212 267/462/212
f 257/444/212 267/462/212 258/445/212
f 258/448/213 267/463/213 268/464/213
f 258/448/213 268/464/213 260/449/213
f 260/452/214 268/465/214 269/466/214
f 260/452/214 269/466/214 262/453/214
f 262/456/215 269/467/215 270/468/215
f 262/456/215 270/468/215 264/457/215
f 264/460/216 270/469/216 266/461/216
f 264/460/216 266/461/216 257/444/216
f 266/470/217 271/471/217 272/472/217
f 266/470/217 272/472/217 267/473/217
f 267/463/218 272/474/218 273/475/218
f 267/463/218 273/475/218 268/464/218
f 268/476/219 273/477/219 274/478/219
f 268/476/219 274/478/219 269/479/219
f 269/467/220 274/480/220 275/481/220
f 269/467/220 275/481/220 270/468/220
f 270/482/221 275/483/221 271/471/221
f 270/482/221 271/471/221 266/470/221
f 271/471/222 276/484/222 277/485/222
f 271/471/222 277/485/222 272/472/222
f 272/474/223 277/486/223 278/487/223
f 272/474/223 278/487/223 273/475/223
f 273/477/224 278/488/224 279/489/224
f 273/477/224 279/489/224 274/478/224
f 274/480/225 279/490/225 280/491/225
f 274/480/225 280/491/225 275/481/225
f 275/483/226 280/492/226 276/484/226
f 275/483/226 276/484/226 271/471/226
f 276/484/227 281/493/227 282/494/227
f 276/484/227 282/494/227 277/485/227
f 277/486/228 282/495/228 283/496/228
f 277/486/228 283/496/228 278/487/228
f 278/488/229 283/497/229 284/498/229
f 278/488/229 284/498/229 279/489/229
f 279/490/230 284/499/230 285/500/230
f 279/490/230 285/500/230 280/491/230
f 280/492/231 285/501/231 281/493/231
f 280/492/231 281/493/231 276/484/231
f 281/493/232 286/502/232 287/503/232
f 281/493/232 287/503/232 282/494/232
f 282/495/233 287/504/233 288/505/233
f 282/495/233 288/505/233 283/496/233
f 283/497/234 288/506/234 289/507/234
f 283/497/234 289/507/234 284/498/234
f 284/499/235 289/508/235 290/509/235
f 284/499/235 290/509/235 285/500/235
f 285/501/236 290/510/236 286/502/236
f 285/501/236 286/502/236 281/493/236
f 286/461/237 291/444/237 292/445/237
f 286/461/237 292/445/237 287/462/237
f 287/504/238 292/511/238 293/512/238
f 287/504/238 293/512/238 288/505/238
f 288/465/239 293/452/239 294/453/239
f 288/465/239 294/453/239 289/466/239
f 289/508/240 294/513/240 295/514/240
f 289/508/240 295/514/240 290/509/240
f 290/469/241 295/460/241 291/444/241
f 290/469/241 291/444/241 286/461/241
f 291/444/242 296/443/242 297/446/242
f 291/444/242 297/446/242 292/445/242
f 292/511/243 297/515/243 298/516/243
f 292/511/243 298/516/243 293/512/243
f 293/452/244 298/451/244 299/454/244
f 293/452/244 299/454/244 294/453/244
f 294/513/245 299/517/245 300/518/245
f 294/513/245 300/518/245 295/514/245
f 295/460/246 300/459/246 296/443/246
f 295/460/246 296/443/246 291/444/246
f 296/443/247 301/519/247 302/520/247
f 296/443/247 302/520/247 297/446/247
f 297/515/248 302/521/248 303/522/248
f 297/515/248 303/522/248 298/516/248
f 298/451/249 303/523/249 304/524/249
f 298/451/249 304/524/249 299/454/249
f 299/517/250 304/525/250 305/526/250
f 299/517/250 305/526/250 300/518/250
f 300/459/251 305/527/251 301/519/251
f 300/459/251 301/519/251 296/443/251
f 301/519/252 306/528/252 307/529/252
f 301/519/252 307/529/252 302/520/252
f 302/521/253 307/530/253 308/531/253
f 302/521/253 308/531/253 303/522/253
f 303/523/254 308/532/254 309/533/254
f 303/523/254 309/533/254 304/524/254
f 304/525/255 309/534/255 310/535/255
f 304/525/255 310/535/255 305/526/255
f 305/527/256 310/536/256 306/528/256
f 305/527/256 306/528/256 301/519/256
f 306/502/257 311/493/257 312/494/257
f 306/502/257 312/494/257 307/503/257
f 307/530/258 312/537/258 313/538/258
f 307/530/258 313/538/258 308/531/258
f 308/506/259 313/497/259 314/498/259
f 308/506/259 314/498/259 309/507/259
f 309/534/260 314/539/260 315/540/260
f 309/534/260 315/540/260 310/535/260
f 310/510/261 315/501/261 311/493/261
f 310/510/261 311/493/261 306/502/261
f 311/493/262 316/484/262 317/485/262
f 311/493/262 317/485/262 312/494/262
f 312/537/263 317/541/263 318/542/263
f 312/537/263 318/542/263 313/538/263
f 313/497/264 318/488/264 319/489/264
f 313/497/264 319/489/264 314/498/264
f 314/539/265 319/543/265 320/544/265
f 314/539/265 320/544/265 315/540/265
f 315/501/266 320/492/266 316/484/266
f 315/501/266 316/484/266 311/493/266
f 316/484/267 321/471/267 322/472/267
f 316/484/267 322/472/267 317/485/267
f 317/541/268 322/545/268 323/546/268
f 317/541/268 323/546/268 318/542/268
f 318/488/269 323/477/269 324/478/269
f 318/488/269 324/478/269 319/489/269
f 319/543/270 324/547/270 325/548/270
f 319/543/270 325/548/270 320/544/270
f 320/492/271 325/483/271 321/471/271
f 320/492/271 321/471/271 316/484/271
f 321/471/272 326/470/272 327/473/272
f 321/471/272 327/473/272 322/472/272
f 322/545/273 327/549/273 328/550/273
f 322/545/273 328/550/273 323/546/273
f 323/477/274 328/476/274 329/479/274
f 323/477/274 329/479/274 324/478/274
f 324/547/275 329/551/275 330/552/275
f 324/547/275 330/552/275 325/548/275
f 325/483/276 330/482/276 326/470/276
f 325/483/276 326/470/276 321/471/276
f 326/528/277 331/519/277 332/520/277
f 326/528/277 332/520/277 327/529/277
f 327/549/278 332/553/278 333/554/278
f 327/549/278 333/554/278 328/550/278
f 328/532/279 333/523/279 334/524/279
f 328/532/279 334/524/279 329/533/279
f 329/551/280 334/555/280 335/556/280
f 329/551/280 335/556/280 330/552/280
f 330/536/281 335/527/281 331/519/281
f 330/536/281 331/519/281 326/528/281
f 331/519/282 256/443/282 259/446/282
f 331/519/282 259/446/282 332/520/282
f 332/553/283 259/447/283 261/450/283
f 332/553/283 261/450/283 333/554/283
f 333/523/284 261/451/284 263/454/284
f 333/523/284 263/454/284 334/524/284
f 334/555/285 263/455/285 265/458/285
f 334/555/285 265/458/285 335/556/285
f 335/527/286 265/459/286 256/443/286
f 335/527/286 256/443/286 331/519/286
f 336/557/287 337/558/287 338/559/287
f 336/557/287 339/560/287 337/558/287
f 336/557/287 340/561/287 339/560/287
f 336/557/287 341/562/287 340/561/287
f 336/557/287 342/563/287 341/562/287
f 336/557/287 343/564/287 342/563/287
f 336/557/287 344/565/287 343/564/287
f 336/557/287 338/559/287 344/565/287
f 338/566/288 337/567/288 345/568/288
f 338/566/288 345/568/288 346/569/288
f 337/570/289 339/571/289 347/572/289
f 337/570/289 347/572/289 345/573/289
f 339/571/290 340/574/290 348/575/290
f 339/571/290 348/575/290 347/572/290
f 340/567/291 341/566/291 349/569/291
f 340/567/291 349/569/291 348/568/291
f 341/566/292 342/576/292 350/577/292
f 341/566/292 350/577/292 349/569/292
f 342/574/293 343/571/293 351/572/293
f 342/574/293 351/572/293 350/575/293
f 343/571/294 344/570/294 352/573/294
f 343/571/294 352/573/294 351/572/294
f 344/576/295 338/566/295 346/569/295
f 344/576/295 346/569/295 352/577/295
f 346/578/296 345/579/296 353/580/296
f 345/579/296 347/581/296 353/580/296
f 347/581/296 348/582/296 353/580/296
f 348/582/296 349/583/296 353/580/296
f 349/583/296 350/584/296 353/580/296
f 350/584/296 351/585/296 353/580/296
f 351/585/296 352/586/296 353/580/296
f 352/586/296 346/578/296 353/580/296
