# Helion battlecruiser, fragment 4 of 8
# Generated by tools. Edit the generator script.
v -0.144172 0.576687 1.830982
v 0.144172 0.576687 1.830982
v 0.144172 0.576687 -2.128937
v -0.144172 0.288344 -2.128937
v 0.144172 0.288344 1.830982
v -0.144172 0.288344 1.830982
v 0.120143 0.000000 0.306221
v 0.648773 0.000000 0.306221
v 0.648773 0.865031 0.306221
v 0.120143 0.865031 0.306221
v 0.648773 0.000000 -0.366581
v 0.120143 0.000000 -0.366581
v 0.120143 0.865031 -0.366581
v 0.648773 0.865031 -0.366581
v 0.020596 0.411919 0.699576
vt 0.843750 0.656250
vt 0.968750 0.656250
vt 0.968750 0.531250
vt 0.843750 0.531250
vt 0.968750 0.531250
vt 0.843750 0.656250
vt 0.968750 0.656250
vt 0.203125 0.382812
vt 0.328125 0.382812
vt 0.328125 0.476562
vt 0.203125 0.476562
vt 0.460938 0.382812
vt 0.335938 0.382812
vt 0.335938 0.476562
vt 0.460938 0.476562
vt 0.343750 0.992188
vt 0.546875 0.992188
vt 0.546875 0.664062
vt 0.343750 0.664062
vt 0.109375 0.296875
vt 0.484375 0.296875
vt 0.484375 0.375000
vt 0.109375 0.375000
vt 0.688571 0.562857
vt 0.940000 0.060000
vt 0.940000 0.940000
vt 0.940000 0.940000
vt 0.060000 0.060000
vt 0.940000 0.060000
vt 0.940000 0.940000
vt 0.060000 0.940000
vn -0.000000 1.000000 0.000000
vn 0.000000 -1.000000 0.000000
vn 1.000000 0.000000 0.000000
vn 0.000000 0.000000 1.000000
vn 0.000000 0.000000 -1.000000
vn -0.000000 1.000000 0.000000
vn 0.000000 -1.000000 0.000000
vn -1.000000 0.000000 0.000000
vn 1.000000 0.000000 0.000000
vn 0.000000 1.000000 0.000000
vn 0.000000 -1.000000 0.000000
usemtl skin
f 1/1/1 2/2/1 3/3/1
f 4/4/2 5/2/2 6/1/2
f 5/5/3 3/6/3 2/7/3
f 7/8/4 8/9/4 9/10/4
f 7/8/4 9/10/4 10/11/4
f 11/12/5 12/13/5 13/14/5
f 11/12/5 13/14/5 14/15/5
f 10/16/6 9/17/6 14/18/6
f 10/16/6 14/18/6 13/19/6
f 12/19/7 11/18/7 8/17/7
f 12/19/7 8/17/7 7/16/7
f 12/20/8 7/21/8 10/22/8
f 12/20/8 10/22/8 13/23/8
f 8/21/9 11/20/9 14/23/9
f 8/21/9 14/23/9 9/22/9
usemtl interior
f 15/24/10 1/25/10 2/26/10
f 15/24/11 2/26/11 1/25/11
f 15/24/10 2/26/10 5/27/10
f 15/24/11 5/27/11 2/26/11
f 15/24/10 5/27/10 4/28/10
f 15/24/11 4/28/11 5/27/11
f 15/24/10 4/28/10 6/29/10
f 15/24/11 6/29/11 4/28/11
f 15/24/10 6/29/10 5/30/10
f 15/24/11 5/30/11 6/29/11
f 15/24/10 5/30/10 3/31/10
f 15/24/11 3/31/11 5/30/11
f 15/24/10 3/31/10 1/25/10
f 15/24/11 1/25/11 3/31/11
