# Kthaari tender, from tools/gen_fleet.py
# Generated by tools. Edit the generator script.
v -0.063097 0.468796 1.962479
v 0.063097 0.468796 1.962479
v 0.063097 0.531893 1.962479
v -0.063097 0.531893 1.962479
v 0.210322 0.395183 1.121190
v -0.210322 0.395183 1.121190
v -0.210322 0.605505 1.121190
v 0.210322 0.605505 1.121190
v -0.090859 0.528387 1.923920
v -0.069827 0.528387 1.923920
v -0.090859 0.507355 1.923920
v -0.090859 0.549420 1.923920
v -0.111891 0.528387 1.923920
v -0.090859 0.528387 2.169296
v 0.090859 0.528387 1.923920
v 0.111891 0.528387 1.923920
v 0.090859 0.507355 1.923920
v 0.090859 0.549420 1.923920
v 0.069827 0.528387 1.923920
v 0.090859 0.528387 2.169296
v -0.105161 0.374151 1.177276
v 0.105161 0.374151 1.177276
v 0.105161 0.556430 1.177276
v -0.105161 0.556430 1.177276
v 0.105161 0.374151 -0.337045
v -0.105161 0.374151 -0.337045
v -0.105161 0.556430 -0.337045
v 0.105161 0.556430 -0.337045
v -0.210322 0.366790 1.682050
v -0.189005 0.366790 1.754703
v -0.246623 0.366790 1.748497
v -0.143875 0.366790 1.718350
v -0.137669 0.366790 1.660733
v -0.174022 0.366790 1.615603
v -0.231639 0.366790 1.609396
v -0.276769 0.366790 1.645749
v -0.282976 0.366790 1.703367
v -0.189005 0.423577 1.754703
v -0.246623 0.423577 1.748497
v -0.143875 0.423577 1.718350
v -0.137669 0.423577 1.660733
v -0.174022 0.423577 1.615603
v -0.231639 0.423577 1.609396
v -0.276769 0.423577 1.645749
v -0.282976 0.423577 1.703367
v -0.210322 0.423577 1.682050
v -0.554354 0.385719 2.213088
v -0.471295 0.385719 2.258463
v -0.471295 0.480364 2.258463
v -0.554354 0.480364 2.213088
v -0.168793 0.385719 1.704737
v -0.251852 0.385719 1.659362
v -0.251852 0.480364 1.659362
v -0.168793 0.480364 1.704737
v -0.552098 0.313157 2.228700
v -0.485651 0.313157 2.265000
v -0.485651 0.426731 2.265000
v -0.552098 0.426731 2.228700
v -0.449350 0.313157 2.198553
v -0.515797 0.313157 2.162253
v -0.515797 0.426731 2.162253
v -0.449350 0.426731 2.198553
v 0.210322 0.366790 1.682050
v 0.282976 0.366790 1.703367
v 0.246623 0.366790 1.748497
v 0.276769 0.366790 1.645749
v 0.231639 0.366790 1.609396
v 0.174022 0.366790 1.615603
v 0.137669 0.366790 1.660733
v 0.143875 0.366790 1.718350
v 0.189005 0.366790 1.754703
v 0.282976 0.423577 1.703367
v 0.246623 0.423577 1.748497
v 0.276769 0.423577 1.645749
v 0.231639 0.423577 1.609396
v 0.174022 0.423577 1.615603
v 0.137669 0.423577 1.660733
v 0.143875 0.423577 1.718350
v 0.189005 0.423577 1.754703
v 0.210322 0.423577 1.682050
v 0.471295 0.385719 2.258463
v 0.554354 0.385719 2.213088
v 0.554354 0.480364 2.213088
v 0.471295 0.480364 2.258463
v 0.251852 0.385719 1.659362
v 0.168793 0.385719 1.704737
v 0.168793 0.480364 1.704737
v 0.251852 0.480364 1.659362
v 0.485651 0.313157 2.265000
v 0.552098 0.313157 2.228700
v 0.552098 0.426731 2.228700
v 0.485651 0.426731 2.265000
v 0.515797 0.313157 2.162253
v 0.449350 0.313157 2.198553
v 0.449350 0.426731 2.198553
v 0.515797 0.426731 2.162253
v 0.000000 0.184861 -0.876872
v 0.056399 0.196870 -0.694370
v 0.000000 0.196870 -0.674310
v 0.101627 0.196870 -0.750577
v 0.126727 0.196870 -0.831798
v 0.126727 0.196870 -0.921947
v 0.101627 0.196870 -1.003168
v 0.056399 0.196870 -1.059375
v 0.000000 0.196870 -1.079434
v -0.056399 0.196870 -1.059375
v -0.101627 0.196870 -1.003168
v -0.126727 0.196870 -0.921947
v -0.126727 0.196870 -0.831798
v -0.101627 0.196870 -0.750577
v -0.056399 0.196870 -0.694370
v 0.107277 0.231723 -0.529733
v 0.000000 0.231723 -0.491576
v 0.193307 0.231723 -0.636644
v 0.241050 0.231723 -0.791136
v 0.241050 0.231723 -0.962609
v 0.193307 0.231723 -1.117101
v 0.107277 0.231723 -1.224012
v 0.000000 0.231723 -1.262168
v -0.107277 0.231723 -1.224012
v -0.193307 0.231723 -1.117101
v -0.241050 0.231723 -0.962609
v -0.241050 0.231723 -0.791136
v -0.193307 0.231723 -0.636644
v -0.107277 0.231723 -0.529733
v 0.147654 0.286008 -0.399076
v 0.000000 0.286008 -0.346558
v 0.266064 0.286008 -0.546227
v 0.331776 0.286008 -0.758866
v 0.331776 0.286008 -0.994878
v 0.266064 0.286008 -1.207518
v 0.147654 0.286008 -1.354669
v 0.000000 0.286008 -1.407187
v -0.147654 0.286008 -1.354669
v -0.266064 0.286008 -1.207518
v -0.331776 0.286008 -0.994878
v -0.331776 0.286008 -0.758866
v -0.266064 0.286008 -0.546227
v -0.147654 0.286008 -0.399076
v 0.173578 0.354411 -0.315189
v 0.000000 0.354411 -0.253450
v 0.312777 0.354411 -0.488175
v 0.390027 0.354411 -0.738148
v 0.390027 0.354411 -1.015597
v 0.312777 0.354411 -1.265570
v 0.173578 0.354411 -1.438556
v 0.000000 0.354411 -1.500294
v -0.173578 0.354411 -1.438556
v -0.312777 0.354411 -1.265570
v -0.390027 0.354411 -1.015597
v -0.390027 0.354411 -0.738148
v -0.312777 0.354411 -0.488175
v -0.173578 0.354411 -0.315189
v 0.182511 0.430237 -0.286283
v 0.000000 0.430237 -0.221368
v 0.328873 0.430237 -0.468172
v 0.410098 0.430237 -0.731009
v 0.410098 0.430237 -1.022736
v 0.328873 0.430237 -1.285573
v 0.182511 0.430237 -1.467462
v 0.000000 0.430237 -1.532377
v -0.182511 0.430237 -1.467462
v -0.328873 0.430237 -1.285573
v -0.410098 0.430237 -1.022736
v -0.410098 0.430237 -0.731009
v -0.328873 0.430237 -0.468172
v -0.182511 0.430237 -0.286283
v 0.173578 0.506062 -0.315189
v 0.000000 0.506062 -0.253450
v 0.312777 0.506062 -0.488175
v 0.390027 0.506062 -0.738148
v 0.390027 0.506062 -1.015597
v 0.312777 0.506062 -1.265570
v 0.173578 0.506062 -1.438556
v 0.000000 0.506062 -1.500294
v -0.173578 0.506062 -1.438556
v -0.312777 0.506062 -1.265570
v -0.390027 0.506062 -1.015597
v -0.390027 0.506062 -0.738148
v -0.312777 0.506062 -0.488175
v -0.173578 0.506062 -0.315189
v 0.147654 0.574465 -0.399076
v 0.000000 0.574465 -0.346558
v 0.266064 0.574465 -0.546227
v 0.331776 0.574465 -0.758866
v 0.331776 0.574465 -0.994878
v 0.266064 0.574465 -1.207518
v 0.147654 0.574465 -1.354669
v 0.000000 0.574465 -1.407187
v -0.147654 0.574465 -1.354669
v -0.266064 0.574465 -1.207518
v -0.331776 0.574465 -0.994878
v -0.331776 0.574465 -0.758866
v -0.266064 0.574465 -0.546227
v -0.147654 0.574465 -0.399076
v 0.107277 0.628750 -0.529733
v 0.000000 0.628750 -0.491576
v 0.193307 0.628750 -0.636644
v 0.241050 0.628750 -0.791136
v 0.241050 0.628750 -0.962609
v 0.193307 0.628750 -1.117101
v 0.107277 0.628750 -1.224012
v 0.000000 0.628750 -1.262168
v -0.107277 0.628750 -1.224012
v -0.193307 0.628750 -1.117101
v -0.241050 0.628750 -0.962609
v -0.241050 0.628750 -0.791136
v -0.193307 0.628750 -0.636644
v -0.107277 0.628750 -0.529733
v 0.056399 0.663603 -0.694370
v 0.000000 0.663603 -0.674310
v 0.101627 0.663603 -0.750577
v 0.126727 0.663603 -0.831798
v 0.126727 0.663603 -0.921947
v 0.101627 0.663603 -1.003168
v 0.056399 0.663603 -1.059375
v 0.000000 0.663603 -1.079434
v -0.056399 0.663603 -1.059375
v -0.101627 0.663603 -1.003168
v -0.126727 0.663603 -0.921947
v -0.126727 0.663603 -0.831798
v -0.101627 0.663603 -0.750577
v -0.056399 0.663603 -0.694370
v 0.000000 0.675613 -0.876872
v -0.075716 0.430237 -1.443341
v -0.026143 0.380663 -1.443341
v -0.075716 0.360129 -1.443341
v -0.005609 0.430237 -1.443341
v -0.026143 0.479810 -1.443341
v -0.075716 0.500344 -1.443341
v -0.125290 0.479810 -1.443341
v -0.145824 0.430237 -1.443341
v -0.125290 0.380663 -1.443341
v -0.026143 0.380663 -1.359212
v -0.075716 0.360129 -1.359212
v -0.005609 0.430237 -1.359212
v -0.026143 0.479810 -1.359212
v -0.075716 0.500344 -1.359212
v -0.125290 0.479810 -1.359212
v -0.145824 0.430237 -1.359212
v -0.125290 0.380663 -1.359212
v -0.075716 0.430237 -1.359212
v 0.075716 0.430237 -1.443341
v 0.125290 0.380663 -1.443341
v 0.075716 0.360129 -1.443341
v 0.145824 0.430237 -1.443341
v 0.125290 0.479810 -1.443341
v 0.075716 0.500344 -1.443341
v 0.026143 0.479810 -1.443341
v 0.005609 0.430237 -1.443341
v 0.026143 0.380663 -1.443341
v 0.125290 0.380663 -1.359212
v 0.075716 0.360129 -1.359212
v 0.145824 0.430237 -1.359212
v 0.125290 0.479810 -1.359212
v 0.075716 0.500344 -1.359212
v 0.026143 0.479810 -1.359212
v 0.005609 0.430237 -1.359212
v 0.026143 0.380663 -1.359212
v 0.075716 0.430237 -1.359212
v 0.000000 0.655680 -0.649724
v 0.049450 0.655680 -0.665791
v 0.045686 0.687875 -0.670972
v 0.000000 0.687875 -0.656128
v 0.080011 0.655680 -0.707856
v 0.073921 0.687875 -0.709835
v 0.080011 0.655680 -0.759850
v 0.073921 0.687875 -0.757872
v 0.049450 0.655680 -0.801915
v 0.045686 0.687875 -0.796734
v 0.000000 0.655680 -0.817982
v 0.000000 0.687875 -0.811578
v -0.049450 0.655680 -0.801915
v -0.045686 0.687875 -0.796734
v -0.080011 0.655680 -0.759850
v -0.073921 0.687875 -0.757872
v -0.080011 0.655680 -0.707856
v -0.073921 0.687875 -0.709835
v -0.049450 0.655680 -0.665791
v -0.045686 0.687875 -0.670972
v 0.034966 0.715168 -0.685726
v 0.000000 0.715168 -0.674365
v 0.056577 0.715168 -0.715470
v 0.056577 0.715168 -0.752236
v 0.034966 0.715168 -0.781980
v 0.000000 0.715168 -0.793341
v -0.034966 0.715168 -0.781980
v -0.056577 0.715168 -0.752236
v -0.056577 0.715168 -0.715470
v -0.034966 0.715168 -0.685726
v 0.018924 0.733405 -0.707807
v 0.000000 0.733405 -0.701658
v 0.030619 0.733405 -0.723904
v 0.030619 0.733405 -0.743802
v 0.018924 0.733405 -0.759899
v 0.000000 0.733405 -0.766048
v -0.018924 0.733405 -0.759899
v -0.030619 0.733405 -0.743802
v -0.030619 0.733405 -0.723904
v -0.018924 0.733405 -0.707807
v 0.000000 0.739809 -0.733853
v -0.250284 0.177850 1.025844
v -0.011918 0.177850 1.025844
v -0.011918 0.388172 1.025844
v -0.250284 0.388172 1.025844
v -0.011918 0.177850 0.745414
v -0.250284 0.177850 0.745414
v -0.250284 0.388172 0.745414
v -0.011918 0.388172 0.745414
v 0.011918 0.177850 1.025844
v 0.250284 0.177850 1.025844
v 0.250284 0.388172 1.025844
v 0.011918 0.388172 1.025844
v 0.250284 0.177850 0.745414
v 0.011918 0.177850 0.745414
v 0.011918 0.388172 0.745414
v 0.250284 0.388172 0.745414
v -0.250284 0.177850 0.150903
v -0.011918 0.177850 0.150903
v -0.011918 0.388172 0.150903
v -0.250284 0.388172 0.150903
v -0.011918 0.177850 -0.129527
v -0.250284 0.177850 -0.129527
v -0.250284 0.388172 -0.129527
v -0.011918 0.388172 -0.129527
v 0.011918 0.177850 0.150903
v 0.250284 0.177850 0.150903
v 0.250284 0.388172 0.150903
v 0.011918 0.388172 0.150903
v 0.250284 0.177850 -0.129527
v 0.011918 0.177850 -0.129527
v 0.011918 0.388172 -0.129527
v 0.250284 0.388172 -0.129527
v -0.635367 0.327223 -0.722636
v -0.374376 0.366668 -0.547367
v -0.263949 0.383357 -1.073173
v -0.622795 0.244039 -0.722636
v -0.251377 0.300173 -1.073173
v -0.361804 0.283484 -0.547367
v -0.635367 0.327223 -1.143281
v -0.622795 0.244039 -1.143281
v -1.150070 0.249433 -1.598979
v -1.137498 0.166249 -1.598979
v -1.254050 0.233718 -1.353603
v -1.241478 0.150534 -1.353603
v 0.635367 0.327223 -0.722636
v 0.263949 0.383357 -1.073173
v 0.374376 0.366668 -0.547367
v 0.622795 0.244039 -0.722636
v 0.361804 0.283484 -0.547367
v 0.251377 0.300173 -1.073173
v 0.635367 0.327223 -1.143281
v 0.622795 0.244039 -1.143281
v 1.150070 0.249433 -1.598979
v 1.137498 0.166249 -1.598979
v 1.254050 0.233718 -1.353603
v 1.241478 0.150534 -1.353603
v -0.676574 0.317450 -0.828904
v -0.565661 0.334213 -0.828904
v -0.569852 0.361941 -0.828904
v -0.680764 0.345178 -0.828904
v -0.565661 0.334213 -1.025205
v -0.676574 0.317450 -1.025205
v -0.680764 0.345178 -1.025205
v -0.569852 0.361941 -1.025205
v -0.882628 0.286308 -1.018022
v -0.771716 0.303071 -1.018022
v -0.775906 0.330799 -1.018022
v -0.886819 0.314036 -1.018022
v -0.771716 0.303071 -1.214323
v -0.882628 0.286308 -1.214323
v -0.886819 0.314036 -1.214323
v -0.775906 0.330799 -1.214323
v -1.088683 0.255166 -1.214311
v -0.977770 0.271928 -1.214311
v -0.981961 0.299657 -1.214311
v -1.092873 0.282894 -1.214311
v -0.977770 0.271928 -1.410612
v -1.088683 0.255166 -1.410612
v -1.092873 0.282894 -1.410612
v -0.981961 0.299657 -1.410612
v 0.565661 0.334213 -0.828904
v 0.676574 0.317450 -0.828904
v 0.680764 0.345178 -0.828904
v 0.569852 0.361941 -0.828904
v 0.676574 0.317450 -1.025205
v 0.565661 0.334213 -1.025205
v 0.569852 0.361941 -1.025205
v 0.680764 0.345178 -1.025205
v 0.771716 0.303071 -1.018022
v 0.882628 0.286308 -1.018022
v 0.886819 0.314036 -1.018022
v 0.775906 0.330799 -1.018022
v 0.882628 0.286308 -1.214323
v 0.771716 0.303071 -1.214323
v 0.775906 0.330799 -1.214323
v 0.886819 0.314036 -1.214323
v 0.977770 0.271928 -1.214311
v 1.088683 0.255166 -1.214311
v 1.092873 0.282894 -1.214311
v 0.981961 0.299657 -1.214311
v 1.088683 0.255166 -1.410612
v 0.977770 0.271928 -1.410612
v 0.981961 0.299657 -1.410612
v 1.092873 0.282894 -1.410612
v -1.293613 0.014302 -1.283496
v -1.091003 0.014302 -1.283496
v -1.091003 0.176390 -1.283496
v -1.293613 0.176390 -1.283496
v -1.106496 0.026697 -2.265000
v -1.278119 0.026697 -2.265000
v -1.278119 0.163995 -2.265000
v -1.106496 0.163995 -2.265000
v -1.222104 0.174007 -1.469981
v -1.162512 0.174007 -1.469981
v -1.162512 0.202611 -1.469981
v -1.222104 0.202611 -1.469981
v -1.162512 0.174007 -2.078514
v -1.222104 0.174007 -2.078514
v -1.222104 0.202611 -2.078514
v -1.162512 0.202611 -2.078514
v -1.257858 0.041714 -2.125206
v -1.126757 0.041714 -2.125206
v -1.126757 0.148978 -2.125206
v -1.257858 0.148978 -2.125206
v -1.126757 0.041714 -2.153810
v -1.257858 0.041714 -2.153810
v -1.257858 0.148978 -2.153810
v -1.126757 0.148978 -2.153810
v 1.091003 0.014302 -1.283496
v 1.293613 0.014302 -1.283496
v 1.293613 0.176390 -1.283496
v 1.091003 0.176390 -1.283496
v 1.278119 0.026697 -2.265000
v 1.106496 0.026697 -2.265000
v 1.106496 0.163995 -2.265000
v 1.278119 0.163995 -2.265000
v 1.162512 0.174007 -1.469981
v 1.222104 0.174007 -1.469981
v 1.222104 0.202611 -1.469981
v 1.162512 0.202611 -1.469981
v 1.222104 0.174007 -2.078514
v 1.162512 0.174007 -2.078514
v 1.162512 0.202611 -2.078514
v 1.222104 0.202611 -2.078514
v 1.126757 0.041714 -2.125206
v 1.257858 0.041714 -2.125206
v 1.257858 0.148978 -2.125206
v 1.126757 0.148978 -2.125206
v 1.257858 0.041714 -2.153810
v 1.126757 0.041714 -2.153810
v 1.126757 0.148978 -2.153810
v 1.257858 0.148978 -2.153810
v -1.192308 0.000000 -1.290506
v -1.136265 0.018209 -1.290506
v -1.143773 0.028544 -1.242833
v -1.192308 0.012774 -1.242833
v -1.101628 0.065883 -1.290506
v -1.113777 0.069830 -1.242833
v -1.101628 0.124810 -1.290506
v -1.113777 0.120862 -1.242833
v -1.136265 0.172483 -1.290506
v -1.143773 0.162148 -1.242833
v -1.192308 0.190692 -1.290506
v -1.192308 0.177918 -1.242833
v -1.248351 0.172483 -1.290506
v -1.240843 0.162148 -1.242833
v -1.282987 0.124810 -1.290506
v -1.270839 0.120862 -1.242833
v -1.282987 0.065883 -1.290506
v -1.270839 0.069830 -1.242833
v -1.248351 0.018209 -1.290506
v -1.240843 0.028544 -1.242833
v -1.164286 0.056778 -1.207934
v -1.192308 0.047673 -1.207934
v -1.146968 0.080614 -1.207934
v -1.146968 0.110078 -1.207934
v -1.164286 0.133914 -1.207934
v -1.192308 0.143019 -1.207934
v -1.220329 0.133914 -1.207934
v -1.237648 0.110078 -1.207934
v -1.237648 0.080614 -1.207934
v -1.220329 0.056778 -1.207934
v -1.192308 0.095346 -1.195160
v -1.192308 0.060292 -1.318549
v -1.155424 0.038997 -1.318549
v -1.192308 0.017702 -1.318549
v -1.155424 0.081588 -1.318549
v -1.192308 0.102883 -1.318549
v -1.229192 0.081588 -1.318549
v -1.229192 0.038997 -1.318549
v -1.164986 0.044518 -0.722636
v -1.192308 0.028744 -0.722636
v -1.164986 0.076067 -0.722636
v -1.192308 0.091841 -0.722636
v -1.219630 0.076067 -0.722636
v -1.219630 0.044518 -0.722636
v -1.170450 0.047673 -0.617475
v -1.192308 0.035054 -0.617475
v -1.170450 0.072912 -0.617475
v -1.192308 0.085531 -0.617475
v -1.214165 0.072912 -0.617475
v -1.214165 0.047673 -0.617475
v 1.192308 0.000000 -1.290506
v 1.248351 0.018209 -1.290506
v 1.240843 0.028544 -1.242833
v 1.192308 0.012774 -1.242833
v 1.282987 0.065883 -1.290506
v 1.270839 0.069830 -1.242833
v 1.282987 0.124810 -1.290506
v 1.270839 0.120862 -1.242833
v 1.248351 0.172483 -1.290506
v 1.240843 0.162148 -1.242833
v 1.192308 0.190692 -1.290506
v 1.192308 0.177918 -1.242833
v 1.136265 0.172483 -1.290506
v 1.143773 0.162148 -1.242833
v 1.101628 0.124810 -1.290506
v 1.113777 0.120862 -1.242833
v 1.101628 0.065883 -1.290506
v 1.113777 0.069830 -1.242833
v 1.136265 0.018209 -1.290506
v 1.143773 0.028544 -1.242833
v 1.220329 0.056778 -1.207934
v 1.192308 0.047673 -1.207934
v 1.237648 0.080614 -1.207934
v 1.237648 0.110078 -1.207934
v 1.220329 0.133914 -1.207934
v 1.192308 0.143019 -1.207934
v 1.164286 0.133914 -1.207934
v 1.146968 0.110078 -1.207934
v 1.146968 0.080614 -1.207934
v 1.164286 0.056778 -1.207934
v 1.192308 0.095346 -1.195160
v 1.192308 0.060292 -1.318549
v 1.229192 0.038997 -1.318549
v 1.192308 0.017702 -1.318549
v 1.229192 0.081588 -1.318549
v 1.192308 0.102883 -1.318549
v 1.155424 0.081588 -1.318549
v 1.155424 0.038997 -1.318549
v 1.219630 0.044518 -0.722636
v 1.192308 0.028744 -0.722636
v 1.219630 0.076067 -0.722636
v 1.192308 0.091841 -0.722636
v 1.164986 0.076067 -0.722636
v 1.164986 0.044518 -0.722636
v 1.214165 0.047673 -0.617475
v 1.192308 0.035054 -0.617475
v 1.214165 0.072912 -0.617475
v 1.192308 0.085531 -0.617475
v 1.170450 0.072912 -0.617475
v 1.170450 0.047673 -0.617475
vt 0.501563 0.415625
vt 0.529687 0.415625
vt 0.529687 0.443750
vt 0.501563 0.443750
vt 0.195312 0.382812
vt 0.007812 0.382812
vt 0.007812 0.476562
vt 0.195312 0.476562
vt 0.067969 0.656250
vt 0.119531 0.656250
vt 0.179688 0.484375
vt 0.007812 0.484375
vt 0.007812 0.382812
vt 0.195312 0.415625
vt 0.195312 0.443750
vt 0.007812 0.476562
vt 0.718750 0.429688
vt 0.765625 0.429688
vt 0.718750 0.382812
vt 0.718750 0.476562
vt 0.671875 0.429688
vt 0.617188 0.382812
vt 0.664062 0.382812
vt 0.617188 0.476562
vt 0.570312 0.382812
vt 0.718750 0.429688
vt 0.765625 0.429688
vt 0.718750 0.382812
vt 0.718750 0.476562
vt 0.671875 0.429688
vt 0.617188 0.382812
vt 0.664062 0.382812
vt 0.617188 0.476562
vt 0.570312 0.382812
vt 0.187500 0.484375
vt 0.312500 0.484375
vt 0.312500 0.656250
vt 0.187500 0.656250
vt 0.312500 0.484375
vt 0.187500 0.484375
vt 0.187500 0.656250
vt 0.312500 0.656250
vt 0.320312 0.656250
vt 0.382812 0.656250
vt 0.382812 0.484375
vt 0.320312 0.484375
vt 0.187500 0.484375
vt 0.312500 0.484375
vt 0.312500 0.656250
vt 0.187500 0.656250
vt 0.647716 0.393202
vt 0.652512 0.403591
vt 0.639549 0.402704
vt 0.662666 0.398393
vt 0.664062 0.390153
vt 0.655883 0.383700
vt 0.642920 0.382812
vt 0.632766 0.388011
vt 0.631370 0.396250
vt 0.741112 0.412883
vt 0.754075 0.412883
vt 0.754075 0.444723
vt 0.741112 0.444723
vt 0.764229 0.412883
vt 0.764229 0.444723
vt 0.687455 0.412883
vt 0.679216 0.412883
vt 0.679216 0.444723
vt 0.687455 0.444723
vt 0.672762 0.412883
vt 0.672762 0.444723
vt 0.757446 0.412883
vt 0.744483 0.412883
vt 0.744483 0.444723
vt 0.757446 0.444723
vt 0.734329 0.412883
vt 0.734329 0.444723
vt 0.677073 0.412883
vt 0.685313 0.412883
vt 0.685313 0.444723
vt 0.677073 0.444723
vt 0.691766 0.412883
vt 0.691766 0.444723
vt 0.671875 0.423496
vt 0.690562 0.423496
vt 0.690562 0.476562
vt 0.671875 0.476562
vt 0.758622 0.423496
vt 0.739935 0.423496
vt 0.739935 0.476562
vt 0.758622 0.476562
vt 0.570312 0.469139
vt 0.589000 0.475628
vt 0.657060 0.396446
vt 0.638372 0.389957
vt 0.679020 0.423496
vt 0.758202 0.423496
vt 0.758202 0.476562
vt 0.679020 0.476562
vt 0.764690 0.423496
vt 0.685509 0.423496
vt 0.685509 0.476562
vt 0.764690 0.476562
vt 0.672383 0.382812
vt 0.687333 0.382812
vt 0.687333 0.446492
vt 0.672383 0.446492
vt 0.695500 0.382812
vt 0.680550 0.382812
vt 0.680550 0.446492
vt 0.695500 0.446492
vt 0.570820 0.471372
vt 0.585770 0.476562
vt 0.593937 0.467061
vt 0.578987 0.461870
vt 0.750932 0.382812
vt 0.760434 0.382812
vt 0.760434 0.446492
vt 0.750932 0.446492
vt 0.765625 0.382812
vt 0.756123 0.382812
vt 0.756123 0.446492
vt 0.765625 0.446492
vt 0.586659 0.393202
vt 0.603005 0.396250
vt 0.594826 0.402704
vt 0.601609 0.388011
vt 0.591455 0.382812
vt 0.578492 0.383700
vt 0.570312 0.390153
vt 0.571709 0.398393
vt 0.581863 0.403591
vt 0.691766 0.412883
vt 0.685313 0.412883
vt 0.685313 0.444723
vt 0.691766 0.444723
vt 0.677073 0.412883
vt 0.677073 0.444723
vt 0.703171 0.412883
vt 0.693017 0.412883
vt 0.693017 0.444723
vt 0.703171 0.444723
vt 0.680054 0.412883
vt 0.680054 0.444723
vt 0.672762 0.412883
vt 0.679216 0.412883
vt 0.679216 0.444723
vt 0.672762 0.444723
vt 0.687455 0.412883
vt 0.687455 0.444723
vt 0.673271 0.412883
vt 0.683425 0.412883
vt 0.683425 0.444723
vt 0.673271 0.444723
vt 0.696388 0.412883
vt 0.696388 0.444723
vt 0.746938 0.423496
vt 0.765625 0.423496
vt 0.765625 0.476562
vt 0.746938 0.476562
vt 0.697565 0.423496
vt 0.678878 0.423496
vt 0.678878 0.476562
vt 0.697565 0.476562
vt 0.645375 0.475628
vt 0.664062 0.469139
vt 0.596003 0.389957
vt 0.577315 0.396446
vt 0.685509 0.423496
vt 0.764690 0.423496
vt 0.764690 0.476562
vt 0.685509 0.476562
vt 0.758202 0.423496
vt 0.679020 0.423496
vt 0.679020 0.476562
vt 0.758202 0.476562
vt 0.750167 0.382812
vt 0.765117 0.382812
vt 0.765117 0.446492
vt 0.750167 0.446492
vt 0.756950 0.382812
vt 0.742000 0.382812
vt 0.742000 0.446492
vt 0.756950 0.446492
vt 0.648605 0.476562
vt 0.663555 0.471372
vt 0.655388 0.461870
vt 0.640438 0.467061
vt 0.756123 0.382812
vt 0.765625 0.382812
vt 0.765625 0.446492
vt 0.756123 0.446492
vt 0.760434 0.382812
vt 0.750932 0.382812
vt 0.750932 0.446492
vt 0.760434 0.446492
vt 0.445312 0.828125
vt 0.459280 0.873802
vt 0.445312 0.878823
vt 0.470481 0.859735
vt 0.476697 0.839406
vt 0.476697 0.816844
vt 0.470481 0.796515
vt 0.459280 0.782448
vt 0.445312 0.777427
vt 0.431345 0.782448
vt 0.420144 0.796515
vt 0.413928 0.816844
vt 0.413928 0.839406
vt 0.420144 0.859735
vt 0.431345 0.873802
vt 0.471880 0.915009
vt 0.445312 0.924559
vt 0.493186 0.888250
vt 0.505009 0.849583
vt 0.505009 0.806667
vt 0.493186 0.768000
vt 0.471880 0.741241
vt 0.445312 0.731691
vt 0.418745 0.741241
vt 0.397439 0.768000
vt 0.385616 0.806667
vt 0.385616 0.849583
vt 0.397439 0.888250
vt 0.418745 0.915009
vt 0.481880 0.947710
vt 0.445312 0.960854
vt 0.511204 0.910880
vt 0.527478 0.857660
vt 0.527478 0.798590
vt 0.511204 0.745370
vt 0.481880 0.708540
vt 0.445312 0.695396
vt 0.408745 0.708540
vt 0.379421 0.745370
vt 0.363147 0.798590
vt 0.363147 0.857660
vt 0.379421 0.910880
vt 0.408745 0.947710
vt 0.488300 0.968706
vt 0.445312 0.984158
vt 0.522773 0.925410
vt 0.391453 0.312977
vt 0.330629 0.312977
vt 0.336556 0.323867
vt 0.408058 0.323867
vt 0.263121 0.312977
vt 0.257194 0.323867
vt 0.202297 0.312977
vt 0.185692 0.323867
vt 0.488300 0.687544
vt 0.522773 0.730840
vt 0.445312 0.672092
vt 0.402325 0.687544
vt 0.367852 0.730840
vt 0.402325 0.968706
vt 0.367852 0.925410
vt 0.265625 0.415202
vt 0.292079 0.415202
vt 0.293440 0.429688
vt 0.265625 0.429688
vt 0.457539 0.323867
vt 0.413779 0.335938
vt 0.465807 0.335938
vt 0.338598 0.335938
vt 0.255152 0.335938
vt 0.179971 0.335938
vt 0.136211 0.323867
vt 0.127943 0.335938
vt 0.424891 0.415202
vt 0.398438 0.415202
vt 0.398438 0.429688
vt 0.426253 0.429688
vt 0.371984 0.415202
vt 0.370622 0.429688
vt 0.239171 0.415202
vt 0.237810 0.429688
vt 0.292079 0.444173
vt 0.265625 0.444173
vt 0.408058 0.348008
vt 0.457539 0.348008
vt 0.336556 0.348008
vt 0.257194 0.348008
vt 0.185692 0.348008
vt 0.136211 0.348008
vt 0.398438 0.444173
vt 0.424891 0.444173
vt 0.371984 0.444173
vt 0.239171 0.444173
vt 0.330629 0.358898
vt 0.391453 0.358898
vt 0.263121 0.358898
vt 0.202297 0.358898
vt 0.054688 0.328125
vt 0.087833 0.294979
vt 0.054688 0.281250
vt 0.101562 0.328125
vt 0.087833 0.361271
vt 0.054688 0.375000
vt 0.021542 0.361271
vt 0.007812 0.328125
vt 0.021542 0.294979
vt 0.054688 0.281250
vt 0.087833 0.281250
vt 0.087833 0.375000
vt 0.054688 0.375000
vt 0.007812 0.294979
vt 0.007812 0.328125
vt 0.101562 0.328125
vt 0.101562 0.294979
vt 0.007812 0.361271
vt 0.101562 0.361271
vt 0.021542 0.281250
vt 0.021542 0.375000
vt 0.054688 0.281250
vt 0.087833 0.294979
vt 0.054688 0.328125
vt 0.101562 0.328125
vt 0.087833 0.361271
vt 0.054688 0.375000
vt 0.021542 0.361271
vt 0.007812 0.328125
vt 0.021542 0.294979
vt 0.054688 0.328125
vt 0.087833 0.294979
vt 0.054688 0.281250
vt 0.101562 0.328125
vt 0.087833 0.361271
vt 0.054688 0.375000
vt 0.021542 0.361271
vt 0.007812 0.328125
vt 0.021542 0.294979
vt 0.054688 0.281250
vt 0.087833 0.281250
vt 0.087833 0.375000
vt 0.054688 0.375000
vt 0.007812 0.294979
vt 0.007812 0.328125
vt 0.101562 0.328125
vt 0.101562 0.294979
vt 0.007812 0.361271
vt 0.101562 0.361271
vt 0.021542 0.281250
vt 0.021542 0.375000
vt 0.054688 0.281250
vt 0.087833 0.294979
vt 0.054688 0.328125
vt 0.101562 0.328125
vt 0.087833 0.361271
vt 0.054688 0.375000
vt 0.021542 0.361271
vt 0.007812 0.328125
vt 0.021542 0.294979
vt 0.718750 0.382812
vt 0.747720 0.382812
vt 0.745515 0.418689
vt 0.718750 0.418689
vt 0.756673 0.382812
vt 0.733235 0.382812
vt 0.732133 0.418689
vt 0.753786 0.418689
vt 0.704265 0.382812
vt 0.705367 0.418689
vt 0.680827 0.382812
vt 0.683714 0.418689
vt 0.747720 0.382812
vt 0.718750 0.382812
vt 0.718750 0.418689
vt 0.745515 0.418689
vt 0.689780 0.382812
vt 0.691985 0.418689
vt 0.689780 0.382812
vt 0.691985 0.418689
vt 0.739235 0.449104
vt 0.718750 0.449104
vt 0.728993 0.449104
vt 0.745565 0.449104
vt 0.708507 0.449104
vt 0.691935 0.449104
vt 0.718750 0.449104
vt 0.739235 0.449104
vt 0.698265 0.449104
vt 0.698265 0.449104
vt 0.617188 0.462833
vt 0.637673 0.456503
vt 0.628274 0.444200
vt 0.617188 0.447626
vt 0.650333 0.439930
vt 0.635126 0.435231
vt 0.650333 0.419445
vt 0.635126 0.424144
vt 0.637673 0.402872
vt 0.628274 0.415175
vt 0.617188 0.396542
vt 0.617188 0.411749
vt 0.596702 0.402872
vt 0.606101 0.415175
vt 0.584042 0.419445
vt 0.599249 0.424144
vt 0.584042 0.439930
vt 0.599249 0.435231
vt 0.596702 0.456503
vt 0.606101 0.444200
vt 0.617188 0.429688
vt 0.875000 0.382812
vt 0.968750 0.382812
vt 0.968750 0.476562
vt 0.875000 0.476562
vt 0.968750 0.382812
vt 0.875000 0.382812
vt 0.875000 0.476562
vt 0.968750 0.476562
vt 0.773438 0.476562
vt 0.867188 0.476562
vt 0.867188 0.382812
vt 0.773438 0.382812
vt 0.875000 0.382812
vt 0.968750 0.382812
vt 0.968750 0.476562
vt 0.875000 0.476562
vt 0.875000 0.382812
vt 0.968750 0.382812
vt 0.968750 0.476562
vt 0.875000 0.476562
vt 0.968750 0.382812
vt 0.875000 0.382812
vt 0.875000 0.476562
vt 0.968750 0.476562
vt 0.773438 0.476562
vt 0.867188 0.476562
vt 0.867188 0.382812
vt 0.773438 0.382812
vt 0.875000 0.382812
vt 0.968750 0.382812
vt 0.968750 0.476562
vt 0.875000 0.476562
vt 0.875000 0.382812
vt 0.968750 0.382812
vt 0.968750 0.476562
vt 0.875000 0.476562
vt 0.968750 0.382812
vt 0.875000 0.382812
vt 0.875000 0.476562
vt 0.968750 0.476562
vt 0.773438 0.476562
vt 0.867188 0.476562
vt 0.867188 0.382812
vt 0.773438 0.382812
vt 0.875000 0.382812
vt 0.968750 0.382812
vt 0.968750 0.476562
vt 0.875000 0.476562
vt 0.875000 0.382812
vt 0.968750 0.382812
vt 0.968750 0.476562
vt 0.875000 0.476562
vt 0.968750 0.382812
vt 0.875000 0.382812
vt 0.875000 0.476562
vt 0.968750 0.476562
vt 0.773438 0.476562
vt 0.867188 0.476562
vt 0.867188 0.382812
vt 0.773438 0.382812
vt 0.875000 0.382812
vt 0.968750 0.382812
vt 0.968750 0.476562
vt 0.875000 0.476562
vt 0.844918 0.955729
vt 0.934394 0.992188
vt 0.972252 0.882812
vt 0.849228 0.955729
vt 0.976562 0.882812
vt 0.938704 0.992188
vt 0.844918 0.868229
vt 0.849228 0.868229
vt 0.668460 0.773438
vt 0.672771 0.773438
vt 0.632812 0.824479
vt 0.637123 0.824479
vt 0.382812 0.130572
vt 0.195312 0.121647
vt 0.195312 0.132812
vt 0.382812 0.119407
vt 0.378111 0.132812
vt 0.243902 0.114113
vt 0.239200 0.125278
vt 0.382812 0.121647
vt 0.051403 0.103672
vt 0.046701 0.114837
vt 0.007812 0.114837
vt 0.095312 0.101562
vt 0.095312 0.112728
vt 0.007812 0.103672
vt 0.007812 0.112728
vt 0.243902 0.114113
vt 0.239200 0.125278
vt 0.012514 0.101562
vt 0.341513 0.119407
vt 0.336811 0.130572
vt 0.764457 0.955729
vt 0.637123 0.882812
vt 0.674981 0.992188
vt 0.760147 0.955729
vt 0.670671 0.992188
vt 0.632812 0.882812
vt 0.764457 0.868229
vt 0.760147 0.868229
vt 0.940915 0.773438
vt 0.936604 0.773438
vt 0.976562 0.824479
vt 0.972252 0.824479
vt 0.382812 0.130572
vt 0.195312 0.132812
vt 0.195312 0.121647
vt 0.382812 0.119407
vt 0.012514 0.132812
vt 0.151425 0.125278
vt 0.146723 0.114113
vt 0.007812 0.121647
vt 0.343924 0.114837
vt 0.339222 0.103672
vt 0.007812 0.114837
vt 0.095312 0.112728
vt 0.095312 0.101562
vt 0.007812 0.103672
vt 0.382812 0.112728
vt 0.151425 0.125278
vt 0.146723 0.114113
vt 0.378111 0.101562
vt 0.053814 0.130572
vt 0.049112 0.119407
vt 0.745902 0.437499
vt 0.765625 0.452217
vt 0.764880 0.476562
vt 0.745157 0.461845
vt 0.765625 0.452217
vt 0.745902 0.437499
vt 0.745157 0.461845
vt 0.764880 0.476562
vt 0.643595 0.476562
vt 0.663317 0.476562
vt 0.663317 0.444926
vt 0.643595 0.444926
vt 0.644340 0.444926
vt 0.664062 0.444926
vt 0.664062 0.476562
vt 0.644340 0.476562
vt 0.733989 0.437499
vt 0.765625 0.437499
vt 0.765625 0.461845
vt 0.733989 0.461845
vt 0.765625 0.452217
vt 0.733989 0.452217
vt 0.733989 0.476562
vt 0.765625 0.476562
vt 0.709261 0.410156
vt 0.728984 0.424874
vt 0.728239 0.449219
vt 0.708516 0.434501
vt 0.728984 0.424874
vt 0.709261 0.410156
vt 0.708516 0.434501
vt 0.728239 0.449219
vt 0.606954 0.446084
vt 0.626676 0.446084
vt 0.626676 0.414447
vt 0.606954 0.414447
vt 0.607699 0.414447
vt 0.627421 0.414447
vt 0.627421 0.446084
vt 0.607699 0.446084
vt 0.703510 0.410156
vt 0.735146 0.410156
vt 0.735146 0.434501
vt 0.703510 0.434501
vt 0.735146 0.424874
vt 0.703510 0.424874
vt 0.703510 0.449219
vt 0.735146 0.449219
vt 0.672620 0.382812
vt 0.692343 0.397530
vt 0.691598 0.421876
vt 0.671875 0.407158
vt 0.692343 0.397530
vt 0.672620 0.382812
vt 0.671875 0.407158
vt 0.691598 0.421876
vt 0.570312 0.414449
vt 0.590035 0.414449
vt 0.590035 0.382812
vt 0.570312 0.382812
vt 0.571058 0.382812
vt 0.590780 0.382812
vt 0.590780 0.414449
vt 0.571058 0.414449
vt 0.671875 0.382812
vt 0.703511 0.382812
vt 0.703511 0.407158
vt 0.671875 0.407158
vt 0.703511 0.397530
vt 0.671875 0.397530
vt 0.671875 0.421876
vt 0.703511 0.421876
vt 0.671875 0.452217
vt 0.691598 0.437499
vt 0.692343 0.461845
vt 0.672620 0.476562
vt 0.691598 0.437499
vt 0.671875 0.452217
vt 0.672620 0.476562
vt 0.692343 0.461845
vt 0.571058 0.476562
vt 0.590780 0.476562
vt 0.590780 0.444926
vt 0.571058 0.444926
vt 0.570312 0.444926
vt 0.590035 0.444926
vt 0.590035 0.476562
vt 0.570312 0.476562
vt 0.733989 0.452217
vt 0.765625 0.452217
vt 0.765625 0.476562
vt 0.733989 0.476562
vt 0.765625 0.437499
vt 0.733989 0.437499
vt 0.733989 0.461845
vt 0.765625 0.461845
vt 0.708516 0.424874
vt 0.728239 0.410156
vt 0.728984 0.434501
vt 0.709261 0.449219
vt 0.728239 0.410156
vt 0.708516 0.424874
vt 0.709261 0.449219
vt 0.728984 0.434501
vt 0.607699 0.446084
vt 0.627421 0.446084
vt 0.627421 0.414447
vt 0.607699 0.414447
vt 0.606954 0.414447
vt 0.626676 0.414447
vt 0.626676 0.446084
vt 0.606954 0.446084
vt 0.703510 0.424874
vt 0.735146 0.424874
vt 0.735146 0.449219
vt 0.703510 0.449219
vt 0.735146 0.410156
vt 0.703510 0.410156
vt 0.703510 0.434501
vt 0.735146 0.434501
vt 0.745157 0.397530
vt 0.764880 0.382812
vt 0.765625 0.407158
vt 0.745902 0.421876
vt 0.764880 0.382812
vt 0.745157 0.397530
vt 0.745902 0.421876
vt 0.765625 0.407158
vt 0.644340 0.414449
vt 0.664062 0.414449
vt 0.664062 0.382812
vt 0.644340 0.382812
vt 0.643595 0.382812
vt 0.663317 0.382812
vt 0.663317 0.414449
vt 0.643595 0.414449
vt 0.671875 0.397530
vt 0.703511 0.397530
vt 0.703511 0.421876
vt 0.671875 0.421876
vt 0.703511 0.382812
vt 0.671875 0.382812
vt 0.671875 0.407158
vt 0.703511 0.407158
vt 0.390625 0.195312
vt 0.484375 0.195312
vt 0.484375 0.262559
vt 0.390625 0.262559
vt 0.578768 0.200455
vt 0.499357 0.200455
vt 0.499357 0.257417
vt 0.578768 0.257417
vt 0.554688 0.992188
vt 0.625000 0.992188
vt 0.619623 0.664062
vt 0.560064 0.664062
vt 0.492188 0.302017
vt 0.867188 0.296875
vt 0.867188 0.364122
vt 0.492188 0.358979
vt 0.382812 0.195312
vt 0.354136 0.200455
vt 0.354136 0.257417
vt 0.382812 0.262559
vt 0.423713 0.261570
vt 0.451287 0.261570
vt 0.451287 0.273438
vt 0.423713 0.273438
vt 0.552849 0.261570
vt 0.525276 0.261570
vt 0.525276 0.273438
vt 0.552849 0.273438
vt 0.579504 0.929844
vt 0.600184 0.929844
vt 0.600184 0.726406
vt 0.579504 0.726406
vt 0.563437 0.363133
vt 0.795937 0.363133
vt 0.795937 0.375000
vt 0.563437 0.375000
vt 0.250460 0.261570
vt 0.250460 0.273438
vt 0.407169 0.206685
vt 0.467831 0.206685
vt 0.467831 0.251187
vt 0.407169 0.251187
vt 0.569393 0.206685
vt 0.508732 0.206685
vt 0.508732 0.251187
vt 0.569393 0.251187
vt 0.567096 0.710797
vt 0.612592 0.710797
vt 0.612592 0.701234
vt 0.567096 0.701234
vt 0.534670 0.308248
vt 0.545598 0.308248
vt 0.545598 0.352749
vt 0.534670 0.352749
vt 0.316636 0.206685
vt 0.316636 0.251187
vt 0.390625 0.195312
vt 0.484375 0.195312
vt 0.484375 0.262559
vt 0.390625 0.262559
vt 0.578768 0.200455
vt 0.499357 0.200455
vt 0.499357 0.257417
vt 0.578768 0.257417
vt 0.554688 0.992188
vt 0.625000 0.992188
vt 0.619623 0.664062
vt 0.560064 0.664062
vt 0.036489 0.200455
vt 0.007812 0.195312
vt 0.007812 0.262559
vt 0.036489 0.257417
vt 0.867188 0.296875
vt 0.492188 0.302017
vt 0.492188 0.358979
vt 0.867188 0.364122
vt 0.423713 0.261570
vt 0.451287 0.261570
vt 0.451287 0.273438
vt 0.423713 0.273438
vt 0.552849 0.261570
vt 0.525276 0.261570
vt 0.525276 0.273438
vt 0.552849 0.273438
vt 0.579504 0.929844
vt 0.600184 0.929844
vt 0.600184 0.726406
vt 0.579504 0.726406
vt 0.140165 0.261570
vt 0.140165 0.273438
vt 0.795937 0.363133
vt 0.563437 0.363133
vt 0.563437 0.375000
vt 0.795937 0.375000
vt 0.407169 0.206685
vt 0.467831 0.206685
vt 0.467831 0.251187
vt 0.407169 0.251187
vt 0.569393 0.206685
vt 0.508732 0.206685
vt 0.508732 0.251187
vt 0.569393 0.251187
vt 0.567096 0.710797
vt 0.612592 0.710797
vt 0.612592 0.701234
vt 0.567096 0.701234
vt 0.073989 0.206685
vt 0.073989 0.251187
vt 0.545598 0.308248
vt 0.534670 0.308248
vt 0.534670 0.352749
vt 0.545598 0.352749
vt 0.054688 0.281250
vt 0.083658 0.281250
vt 0.079777 0.328125
vt 0.054688 0.328125
vt 0.007812 0.290202
vt 0.007812 0.313640
vt 0.054688 0.315580
vt 0.054688 0.295283
vt 0.007812 0.342610
vt 0.054688 0.340670
vt 0.007812 0.366048
vt 0.054688 0.360967
vt 0.025717 0.281250
vt 0.029598 0.328125
vt 0.069173 0.362440
vt 0.054688 0.362440
vt 0.079777 0.295283
vt 0.095282 0.315580
vt 0.078125 0.320882
vt 0.069173 0.309164
vt 0.089002 0.335368
vt 0.089002 0.320882
vt 0.095282 0.340670
vt 0.079777 0.360967
vt 0.069173 0.347086
vt 0.078125 0.335368
vt 0.054688 0.351562
vt 0.040202 0.362440
vt 0.029598 0.360967
vt 0.014093 0.340670
vt 0.031250 0.335368
vt 0.040202 0.347086
vt 0.014093 0.315580
vt 0.029598 0.295283
vt 0.040202 0.309164
vt 0.031250 0.320882
vt 0.054688 0.304688
vt 0.054688 0.328125
vt 0.718750 0.429688
vt 0.765625 0.406250
vt 0.718750 0.382812
vt 0.765625 0.453125
vt 0.718750 0.476562
vt 0.671875 0.453125
vt 0.671875 0.406250
vt 0.617187 0.382812
vt 0.664062 0.382812
vt 0.651910 0.462500
vt 0.617187 0.462500
vt 0.671875 0.406250
vt 0.671875 0.453125
vt 0.751563 0.447049
vt 0.751563 0.412326
vt 0.570312 0.382812
vt 0.582465 0.462500
vt 0.644965 0.476562
vt 0.617187 0.476562
vt 0.765625 0.443576
vt 0.765625 0.415799
vt 0.589410 0.476562
vt 0.054688 0.281250
vt 0.083658 0.281250
vt 0.079777 0.328125
vt 0.054688 0.328125
vt 0.007812 0.290202
vt 0.007812 0.313640
vt 0.054688 0.315580
vt 0.054688 0.295283
vt 0.007812 0.342610
vt 0.054688 0.340670
vt 0.007812 0.366048
vt 0.054688 0.360967
vt 0.025717 0.281250
vt 0.029598 0.328125
vt 0.069173 0.362440
vt 0.054688 0.362440
vt 0.079777 0.295283
vt 0.095282 0.315580
vt 0.078125 0.320882
vt 0.069173 0.309164
vt 0.089002 0.335368
vt 0.089002 0.320882
vt 0.095282 0.340670
vt 0.079777 0.360967
vt 0.069173 0.347086
vt 0.078125 0.335368
vt 0.054688 0.351562
vt 0.040202 0.362440
vt 0.029598 0.360967
vt 0.014093 0.340670
vt 0.031250 0.335368
vt 0.040202 0.347086
vt 0.014093 0.315580
vt 0.029598 0.295283
vt 0.040202 0.309164
vt 0.031250 0.320882
vt 0.054688 0.304688
vt 0.054688 0.328125
vt 0.718750 0.429688
vt 0.765625 0.406250
vt 0.718750 0.382812
vt 0.765625 0.453125
vt 0.718750 0.476562
vt 0.671875 0.453125
vt 0.671875 0.406250
vt 0.617188 0.382812
vt 0.664062 0.382812
vt 0.651910 0.462500
vt 0.617188 0.462500
vt 0.671875 0.406250
vt 0.671875 0.453125
vt 0.751563 0.447049
vt 0.751563 0.412326
vt 0.570312 0.382812
vt 0.582465 0.462500
vt 0.644965 0.476562
vt 0.617188 0.476562
vt 0.765625 0.443576
vt 0.765625 0.415799
vt 0.589410 0.476562
vn 0.000000 0.000000 1.000000
vn 0.000000 0.000000 -1.000000
vn -0.000000 0.996194 0.087167
vn 0.000000 -0.996194 0.087167
vn -0.985030 0.000000 0.172380
vn 0.985030 0.000000 0.172380
vn 0.000000 0.000000 -1.000000
vn 0.705812 -0.705812 0.060498
vn 0.705812 0.705812 0.060498
vn -0.705812 0.705812 0.060498
vn -0.705812 -0.705812 0.060498
vn 0.000000 0.000000 -1.000000
vn 0.705812 -0.705812 0.060498
vn 0.705812 0.705812 0.060498
vn -0.705812 0.705812 0.060498
vn -0.705812 -0.705812 0.060498
vn 0.000000 0.000000 1.000000
vn 0.000000 0.000000 -1.000000
vn -0.000000 1.000000 0.000000
vn 0.000000 -1.000000 0.000000
vn -1.000000 0.000000 0.000000
vn 1.000000 0.000000 0.000000
vn 0.000000 -1.000000 0.000000
vn -0.107095 0.000000 0.994249
vn 0.627312 0.000000 0.778768
vn 0.994249 0.000000 0.107095
vn 0.778768 0.000000 -0.627312
vn 0.107095 0.000000 -0.994249
vn -0.627312 0.000000 -0.778768
vn -0.994249 0.000000 -0.107095
vn -0.778768 0.000000 0.627312
vn -0.000000 1.000000 0.000000
vn -0.479426 0.000000 0.877583
vn 0.479426 0.000000 -0.877583
vn -0.877583 0.000000 -0.479426
vn 0.877583 0.000000 0.479426
vn 0.000000 -1.000000 0.000000
vn 0.778768 0.000000 0.627312
vn 0.994249 0.000000 -0.107095
vn 0.627312 0.000000 -0.778768
vn -0.107095 0.000000 -0.994249
vn -0.778768 0.000000 -0.627312
vn -0.994249 0.000000 0.107095
vn -0.627312 0.000000 0.778768
vn 0.107095 0.000000 0.994249
vn 0.000000 1.000000 0.000000
vn 0.479426 0.000000 0.877583
vn -0.479426 0.000000 -0.877583
vn -0.877583 0.000000 0.479426
vn 0.877583 0.000000 -0.479426
vn 0.021046 -0.998026 0.059171
vn 0.058917 -0.997136 0.047409
vn 0.085043 -0.996031 0.026281
vn 0.094344 -0.995540 0.000000
vn 0.085043 -0.996031 -0.026281
vn 0.058917 -0.997136 -0.047409
vn 0.021046 -0.998026 -0.059171
vn -0.021046 -0.998026 -0.059171
vn -0.058917 -0.997136 -0.047409
vn -0.085043 -0.996031 -0.026281
vn -0.094344 -0.995540 -0.000000
vn -0.085043 -0.996031 0.026281
vn -0.058917 -0.997136 0.047409
vn -0.021046 -0.998026 0.059171
vn 0.066491 -0.980119 0.186939
vn 0.184665 -0.971503 0.148596
vn 0.263983 -0.961071 0.081579
vn 0.291616 -0.956535 0.000000
vn 0.263983 -0.961071 -0.081579
vn 0.184665 -0.971503 -0.148596
vn 0.066491 -0.980119 -0.186939
vn -0.066491 -0.980119 -0.186939
vn -0.184665 -0.971503 -0.148596
vn -0.263983 -0.961071 -0.081579
vn -0.291616 -0.956535 -0.000000
vn -0.263983 -0.961071 0.081579
vn -0.184665 -0.971503 0.148596
vn -0.066491 -0.980119 0.186939
vn 0.123734 -0.929338 0.347881
vn 0.336471 -0.901932 0.270751
vn 0.469501 -0.870929 0.145091
vn 0.513445 -0.858123 0.000000
vn 0.469501 -0.870929 -0.145091
vn 0.336471 -0.901932 -0.270751
vn 0.123734 -0.929338 -0.347881
vn -0.123734 -0.929338 -0.347881
vn -0.336471 -0.901932 -0.270751
vn -0.469501 -0.870929 -0.145091
vn -0.513445 -0.858123 -0.000000
vn -0.469501 -0.870929 0.145091
vn -0.336471 -0.901932 0.270751
vn -0.123734 -0.929338 0.347881
vn 0.206065 -0.788596 0.579356
vn 0.533535 -0.728711 0.429325
vn 0.709085 -0.670209 0.219130
vn 0.761348 -0.648343 0.000000
vn 0.709085 -0.670209 -0.219130
vn 0.533535 -0.728711 -0.429325
vn 0.206065 -0.788596 -0.579356
vn -0.206065 -0.788596 -0.579356
vn -0.533535 -0.728711 -0.429325
vn -0.709085 -0.670209 -0.219130
vn -0.761348 -0.648343 -0.000000
vn -0.709085 -0.670209 0.219130
vn -0.533535 -0.728711 0.429325
vn -0.206065 -0.788596 0.579356
vn 0.311290 -0.370307 0.875198
vn 0.739674 -0.314036 0.595201
vn 0.919865 -0.270260 0.284268
vn 0.966705 -0.255895 0.000000
vn 0.919865 -0.270260 -0.284268
vn 0.739674 -0.314036 -0.595201
vn 0.311290 -0.370307 -0.875198
vn -0.311290 -0.370307 -0.875198
vn -0.739674 -0.314036 -0.595201
vn -0.919865 -0.270260 -0.284268
vn -0.966705 -0.255895 -0.000000
vn -0.919865 -0.270260 0.284268
vn -0.739674 -0.314036 0.595201
vn -0.311290 -0.370307 0.875198
vn 0.311290 0.370307 0.875198
vn 0.739674 0.314036 0.595201
vn 0.919865 0.270260 0.284268
vn 0.966705 0.255895 0.000000
vn 0.919865 0.270260 -0.284268
vn 0.739674 0.314036 -0.595201
vn 0.311290 0.370307 -0.875198
vn -0.311290 0.370307 -0.875198
vn -0.739674 0.314036 -0.595201
vn -0.919865 0.270260 -0.284268
vn -0.966705 0.255895 -0.000000
vn -0.919865 0.270260 0.284268
vn -0.739674 0.314036 0.595201
vn -0.311290 0.370307 0.875198
vn 0.206065 0.788596 0.579356
vn 0.533535 0.728711 0.429325
vn 0.709085 0.670209 0.219130
vn 0.761348 0.648343 0.000000
vn 0.709085 0.670209 -0.219130
vn 0.533535 0.728711 -0.429325
vn 0.206065 0.788596 -0.579356
vn -0.206065 0.788596 -0.579356
vn -0.533535 0.728711 -0.429325
vn -0.709085 0.670209 -0.219130
vn -0.761348 0.648343 -0.000000
vn -0.709085 0.670209 0.219130
vn -0.533535 0.728711 0.429325
vn -0.206065 0.788596 0.579356
vn 0.123734 0.929338 0.347881
vn 0.336471 0.901932 0.270751
vn 0.469501 0.870929 0.145091
vn 0.513445 0.858123 0.000000
vn 0.469501 0.870929 -0.145091
vn 0.336471 0.901932 -0.270751
vn 0.123734 0.929338 -0.347881
vn -0.123734 0.929338 -0.347881
vn -0.336471 0.901932 -0.270751
vn -0.469501 0.870929 -0.145091
vn -0.513445 0.858123 -0.000000
vn -0.469501 0.870929 0.145091
vn -0.336471 0.901932 0.270751
vn -0.123734 0.929338 0.347881
vn 0.066491 0.980119 0.186939
vn 0.184665 0.971503 0.148596
vn 0.263983 0.961071 0.081579
vn 0.291616 0.956535 0.000000
vn 0.263983 0.961071 -0.081579
vn 0.184665 0.971503 -0.148596
vn 0.066491 0.980119 -0.186939
vn -0.066491 0.980119 -0.186939
vn -0.184665 0.971503 -0.148596
vn -0.263983 0.961071 -0.081579
vn -0.291616 0.956535 -0.000000
vn -0.263983 0.961071 0.081579
vn -0.184665 0.971503 0.148596
vn -0.066491 0.980119 0.186939
vn 0.021046 0.998026 0.059171
vn 0.058917 0.997136 0.047409
vn 0.085043 0.996031 0.026281
vn 0.094344 0.995540 0.000000
vn 0.085043 0.996031 -0.026281
vn 0.058917 0.997136 -0.047409
vn 0.021046 0.998026 -0.059171
vn -0.021046 0.998026 -0.059171
vn -0.058917 0.997136 -0.047409
vn -0.085043 0.996031 -0.026281
vn -0.094344 0.995540 -0.000000
vn -0.085043 0.996031 0.026281
vn -0.058917 0.997136 0.047409
vn -0.021046 0.998026 0.059171
vn 0.000000 0.000000 -1.000000
vn 0.382683 -0.923880 0.000000
vn 0.923880 -0.382683 0.000000
vn 0.923880 0.382683 0.000000
vn 0.382683 0.923880 0.000000
vn -0.382683 0.923880 0.000000
vn -0.923880 0.382683 0.000000
vn -0.923880 -0.382683 0.000000
vn -0.382683 -0.923880 0.000000
vn 0.000000 0.000000 1.000000
vn 0.000000 0.000000 -1.000000
vn 0.382683 -0.923880 0.000000
vn 0.923880 -0.382683 0.000000
vn 0.923880 0.382683 0.000000
vn 0.382683 0.923880 0.000000
vn -0.382683 0.923880 0.000000
vn -0.923880 0.382683 0.000000
vn -0.923880 -0.382683 0.000000
vn -0.382683 -0.923880 0.000000
vn 0.000000 0.000000 1.000000
vn 0.303632 0.185880 0.934482
vn 0.794918 0.185880 0.577542
vn 0.982572 0.185880 0.000000
vn 0.794918 0.185880 -0.577542
vn 0.303632 0.185880 -0.934482
vn -0.303632 0.185880 -0.934482
vn -0.794918 0.185880 -0.577542
vn -0.982572 0.185880 -0.000000
vn -0.794918 0.185880 0.577542
vn -0.303632 0.185880 0.934482
vn 0.260811 0.536342 0.802692
vn 0.682811 0.536342 0.496091
vn 0.844001 0.536342 0.000000
vn 0.682811 0.536342 -0.496091
vn 0.260811 0.536342 -0.802692
vn -0.260811 0.536342 -0.802692
vn -0.682811 0.536342 -0.496091
vn -0.844001 0.536342 -0.000000
vn -0.682811 0.536342 0.496091
vn -0.260811 0.536342 0.802692
vn 0.177645 0.818245 0.546734
vn 0.465079 0.818245 0.337900
vn 0.574870 0.818245 0.000000
vn 0.465079 0.818245 -0.337900
vn 0.177645 0.818245 -0.546734
vn -0.177645 0.818245 -0.546734
vn -0.465079 0.818245 -0.337900
vn -0.574870 0.818245 -0.000000
vn -0.465079 0.818245 0.337900
vn -0.177645 0.818245 0.546734
vn 0.063262 0.978821 0.194700
vn 0.165621 0.978821 0.120331
vn 0.204719 0.978821 0.000000
vn 0.165621 0.978821 -0.120331
vn 0.063262 0.978821 -0.194700
vn -0.063262 0.978821 -0.194700
vn -0.165621 0.978821 -0.120331
vn -0.204719 0.978821 -0.000000
vn -0.165621 0.978821 0.120331
vn -0.063262 0.978821 0.194700
vn 0.000000 0.000000 1.000000
vn 0.000000 0.000000 -1.000000
vn -0.000000 1.000000 0.000000
vn 0.000000 -1.000000 0.000000
vn -1.000000 0.000000 0.000000
vn 1.000000 0.000000 0.000000
vn 0.000000 0.000000 1.000000
vn 0.000000 0.000000 -1.000000
vn -0.000000 1.000000 0.000000
vn 0.000000 -1.000000 0.000000
vn -1.000000 0.000000 0.000000
vn 1.000000 0.000000 0.000000
vn 0.000000 0.000000 1.000000
vn 0.000000 0.000000 -1.000000
vn -0.000000 1.000000 0.000000
vn 0.000000 -1.000000 0.000000
vn -1.000000 0.000000 0.000000
vn 1.000000 0.000000 0.000000
vn 0.000000 0.000000 1.000000
vn 0.000000 0.000000 -1.000000
vn -0.000000 1.000000 0.000000
vn 0.000000 -1.000000 0.000000
vn -1.000000 0.000000 0.000000
vn 1.000000 0.000000 0.000000
vn -0.149438 0.988771 -0.000000
vn 0.149438 -0.988771 0.000000
vn 0.967195 0.146177 0.207765
vn 0.181408 0.027417 -0.983026
vn 0.651288 0.098432 -0.752420
vn -0.908824 -0.137355 -0.393919
vn -0.702086 -0.106110 0.704142
vn -0.546955 -0.082664 0.833071
vn 0.149438 0.988771 -0.000000
vn -0.149438 -0.988771 0.000000
vn -0.967195 0.146177 0.207765
vn -0.181408 0.027417 -0.983026
vn -0.651288 0.098432 -0.752420
vn 0.908824 -0.137355 -0.393919
vn 0.702086 -0.106110 0.704142
vn 0.546955 -0.082664 0.833071
vn 0.000000 0.000000 1.000000
vn -0.000000 0.000000 -1.000000
vn -0.149438 0.988771 0.000000
vn 0.149438 -0.988771 0.000000
vn -0.988771 -0.149438 0.000000
vn 0.988771 0.149438 0.000000
vn -0.000000 0.000000 1.000000
vn 0.000000 0.000000 -1.000000
vn 0.149438 0.988771 0.000000
vn -0.149438 -0.988771 0.000000
vn -0.988771 0.149438 0.000000
vn 0.988771 -0.149438 0.000000
vn 0.000000 0.000000 1.000000
vn 0.000000 0.000000 -1.000000
vn 0.000000 0.999920 -0.012628
vn 0.000000 -0.999920 -0.012628
vn -0.999875 0.000000 -0.015784
vn 0.999875 0.000000 -0.015784
vn -0.000000 1.000000 0.000000
vn 0.000000 -1.000000 0.000000
vn -1.000000 0.000000 0.000000
vn 1.000000 0.000000 0.000000
vn 0.000000 0.000000 1.000000
vn 0.000000 0.000000 -1.000000
vn 0.000000 0.999920 -0.012628
vn 0.000000 -0.999920 -0.012628
vn -0.999875 0.000000 -0.015784
vn 0.999875 0.000000 -0.015784
vn -0.000000 1.000000 0.000000
vn 0.000000 -1.000000 0.000000
vn -1.000000 0.000000 0.000000
vn 1.000000 0.000000 0.000000
vn 0.299447 -0.921602 0.246943
vn 0.783962 -0.569582 0.246943
vn 0.969030 -0.000000 0.246943
vn 0.783962 0.569582 0.246943
vn 0.299447 0.921602 0.246943
vn -0.299447 0.921602 0.246943
vn -0.783962 0.569582 0.246943
vn -0.969030 0.000000 0.246943
vn -0.783962 -0.569582 0.246943
vn -0.299447 -0.921602 0.246943
vn 0.223919 -0.689152 0.689152
vn 0.586227 -0.425919 0.689152
vn 0.724617 -0.000000 0.689152
vn 0.586227 0.425919 0.689152
vn 0.223919 0.689152 0.689152
vn -0.223919 0.689152 0.689152
vn -0.586227 0.425919 0.689152
vn -0.724617 0.000000 0.689152
vn -0.586227 -0.425919 0.689152
vn -0.223919 -0.689152 0.689152
vn 0.083800 -0.257909 0.962528
vn 0.219390 -0.159396 0.962528
vn 0.271181 -0.000000 0.962528
vn 0.219390 0.159396 0.962528
vn 0.083800 0.257909 0.962528
vn -0.083800 0.257909 0.962528
vn -0.219390 0.159396 0.962528
vn -0.271181 0.000000 0.962528
vn -0.219390 -0.159396 0.962528
vn -0.083800 -0.257909 0.962528
vn 0.000000 0.000000 -1.000000
vn 0.499936 -0.865914 0.016045
vn 0.999871 -0.000000 0.016045
vn 0.499936 0.865914 0.016045
vn -0.499936 0.865914 0.016045
vn -0.999871 0.000000 0.016045
vn -0.499936 -0.865914 0.016045
vn 0.499326 -0.864859 0.051892
vn 0.998653 -0.000000 0.051892
vn 0.499326 0.864859 0.051892
vn -0.499326 0.864859 0.051892
vn -0.998653 0.000000 0.051892
vn -0.499326 -0.864859 0.051892
vn 0.299447 -0.921602 0.246943
vn 0.783962 -0.569582 0.246943
vn 0.969030 -0.000000 0.246943
vn 0.783962 0.569582 0.246943
vn 0.299447 0.921602 0.246943
vn -0.299447 0.921602 0.246943
vn -0.783962 0.569582 0.246943
vn -0.969030 0.000000 0.246943
vn -0.783962 -0.569582 0.246943
vn -0.299447 -0.921602 0.246943
vn 0.223919 -0.689152 0.689152
vn 0.586227 -0.425919 0.689152
vn 0.724617 -0.000000 0.689152
vn 0.586227 0.425919 0.689152
vn 0.223919 0.689152 0.689152
vn -0.223919 0.689152 0.689152
vn -0.586227 0.425919 0.689152
vn -0.724617 0.000000 0.689152
vn -0.586227 -0.425919 0.689152
vn -0.223919 -0.689152 0.689152
vn 0.083800 -0.257909 0.962528
vn 0.219390 -0.159396 0.962528
vn 0.271181 -0.000000 0.962528
vn 0.219390 0.159396 0.962528
vn 0.083800 0.257909 0.962528
vn -0.083800 0.257909 0.962528
vn -0.219390 0.159396 0.962528
vn -0.271181 0.000000 0.962528
vn -0.219390 -0.159396 0.962528
vn -0.083800 -0.257909 0.962528
vn 0.000000 0.000000 -1.000000
vn 0.499936 -0.865914 0.016045
vn 0.999871 -0.000000 0.016045
vn 0.499936 0.865914 0.016045
vn -0.499936 0.865914 0.016045
vn -0.999871 0.000000 0.016045
vn -0.499936 -0.865914 0.016045
vn 0.499326 -0.864859 0.051892
vn 0.998653 -0.000000 0.051892
vn 0.499326 0.864859 0.051892
vn -0.499326 0.864859 0.051892
vn -0.998653 0.000000 0.051892
vn -0.499326 -0.864859 0.051892
f 1/1/1 2/2/1 3/3/1
f 1/1/1 3/3/1 4/4/1
f 5/5/2 6/6/2 7/7/2
f 5/5/2 7/7/2 8/8/2
f 4/9/3 3/10/3 8/11/3
f 4/9/3 8/11/3 7/12/3
f 6/12/4 5/11/4 2/10/4
f 6/12/4 2/10/4 1/9/4
f 6/13/5 1/14/5 4/15/5
f 6/13/5 4/15/5 7/16/5
f 2/14/6 5/13/6 8/16/6
f 2/14/6 8/16/6 3/15/6
f 9/17/7 10/18/7 11/19/7
f 9/17/7 12/20/7 10/18/7
f 9/17/7 13/21/7 12/20/7
f 9/17/7 11/19/7 13/21/7
f 11/22/8 10/23/8 14/24/8
f 10/23/9 12/22/9 14/24/9
f 12/22/10 13/25/10 14/24/10
f 13/25/11 11/22/11 14/24/11
f 15/26/12 16/27/12 17/28/12
f 15/26/12 18/29/12 16/27/12
f 15/26/12 19/30/12 18/29/12
f 15/26/12 17/28/12 19/30/12
f 17/31/13 16/32/13 20/33/13
f 16/32/14 18/31/14 20/33/14
f 18/31/15 19/34/15 20/33/15
f 19/34/16 17/31/16 20/33/16
f 21/35/17 22/36/17 23/37/17
f 21/35/17 23/37/17 24/38/17
f 25/39/18 26/40/18 27/41/18
f 25/39/18 27/41/18 28/42/18
f 24/43/19 23/44/19 28/45/19
f 24/43/19 28/45/19 27/46/19
f 26/46/20 25/45/20 22/44/20
f 26/46/20 22/44/20 21/43/20
f 26/47/21 21/48/21 24/49/21
f 26/47/21 24/49/21 27/50/21
f 22/48/22 25/47/22 28/50/22
f 22/48/22 28/50/22 23/49/22
f 29/51/23 30/52/23 31/53/23
f 29/51/23 32/54/23 30/52/23
f 29/51/23 33/55/23 32/54/23
f 29/51/23 34/56/23 33/55/23
f 29/51/23 35/57/23 34/56/23
f 29/51/23 36/58/23 35/57/23
f 29/51/23 37/59/23 36/58/23
f 29/51/23 31/53/23 37/59/23
f 31/60/24 30/61/24 38/62/24
f 31/60/24 38/62/24 39/63/24
f 30/61/25 32/64/25 40/65/25
f 30/61/25 40/65/25 38/62/25
f 32/66/26 33/67/26 41/68/26
f 32/66/26 41/68/26 40/69/26
f 33/67/27 34/70/27 42/71/27
f 33/67/27 42/71/27 41/68/27
f 34/72/28 35/73/28 43/74/28
f 34/72/28 43/74/28 42/75/28
f 35/73/29 36/76/29 44/77/29
f 35/73/29 44/77/29 43/74/29
f 36/78/30 37/79/30 45/80/30
f 36/78/30 45/80/30 44/81/30
f 37/79/31 31/82/31 39/83/31
f 37/79/31 39/83/31 45/80/31
f 39/53/32 38/52/32 46/51/32
f 38/52/32 40/54/32 46/51/32
f 40/54/32 41/55/32 46/51/32
f 41/55/32 42/56/32 46/51/32
f 42/56/32 43/57/32 46/51/32
f 43/57/32 44/58/32 46/51/32
f 44/58/32 45/59/32 46/51/32
f 45/59/32 39/53/32 46/51/32
f 47/84/33 48/85/33 49/86/33
f 47/84/33 49/86/33 50/87/33
f 51/88/34 52/89/34 53/90/34
f 51/88/34 53/90/34 54/91/34
f 50/92/32 49/93/32 54/94/32
f 50/92/32 54/94/32 53/95/32
f 52/95/23 51/94/23 48/93/23
f 52/95/23 48/93/23 47/92/23
f 52/96/35 47/97/35 50/98/35
f 52/96/35 50/98/35 53/99/35
f 48/100/36 51/101/36 54/102/36
f 48/100/36 54/102/36 49/103/36
f 55/104/33 56/105/33 57/106/33
f 55/104/33 57/106/33 58/107/33
f 59/108/34 60/109/34 61/110/34
f 59/108/34 61/110/34 62/111/34
f 58/112/32 57/113/32 62/114/32
f 58/112/32 62/114/32 61/115/32
f 60/115/23 59/114/23 56/113/23
f 60/115/23 56/113/23 55/112/23
f 60/116/35 55/117/35 58/118/35
f 60/116/35 58/118/35 61/119/35
f 56/120/36 59/121/36 62/122/36
f 56/120/36 62/122/36 57/123/36
f 63/124/37 64/125/37 65/126/37
f 63/124/37 66/127/37 64/125/37
f 63/124/37 67/128/37 66/127/37
f 63/124/37 68/129/37 67/128/37
f 63/124/37 69/130/37 68/129/37
f 63/124/37 70/131/37 69/130/37
f 63/124/37 71/132/37 70/131/37
f 63/124/37 65/126/37 71/132/37
f 65/133/38 64/134/38 72/135/38
f 65/133/38 72/135/38 73/136/38
f 64/134/39 66/137/39 74/138/39
f 64/134/39 74/138/39 72/135/39
f 66/139/40 67/140/40 75/141/40
f 66/139/40 75/141/40 74/142/40
f 67/140/41 68/143/41 76/144/41
f 67/140/41 76/144/41 75/141/41
f 68/145/42 69/146/42 77/147/42
f 68/145/42 77/147/42 76/148/42
f 69/146/43 70/149/43 78/150/43
f 69/146/43 78/150/43 77/147/43
f 70/151/44 71/152/44 79/153/44
f 70/151/44 79/153/44 78/154/44
f 71/152/45 65/155/45 73/156/45
f 71/152/45 73/156/45 79/153/45
f 73/126/46 72/125/46 80/124/46
f 72/125/46 74/127/46 80/124/46
f 74/127/46 75/128/46 80/124/46
f 75/128/46 76/129/46 80/124/46
f 76/129/46 77/130/46 80/124/46
f 77/130/46 78/131/46 80/124/46
f 78/131/46 79/132/46 80/124/46
f 79/132/46 73/126/46 80/124/46
f 81/157/47 82/158/47 83/159/47
f 81/157/47 83/159/47 84/160/47
f 85/161/48 86/162/48 87/163/48
f 85/161/48 87/163/48 88/164/48
f 84/165/46 83/166/46 88/167/46
f 84/165/46 88/167/46 87/168/46
f 86/168/37 85/167/37 82/166/37
f 86/168/37 82/166/37 81/165/37
f 86/169/49 81/170/49 84/171/49
f 86/169/49 84/171/49 87/172/49
f 82/173/50 85/174/50 88/175/50
f 82/173/50 88/175/50 83/176/50
f 89/177/47 90/178/47 91/179/47
f 89/177/47 91/179/47 92/180/47
f 93/181/48 94/182/48 95/183/48
f 93/181/48 95/183/48 96/184/48
f 92/185/46 91/186/46 96/187/46
f 92/185/46 96/187/46 95/188/46
f 94/188/37 93/187/37 90/186/37
f 94/188/37 90/186/37 89/185/37
f 94/189/49 89/190/49 92/191/49
f 94/189/49 92/191/49 95/192/49
f 90/193/50 93/194/50 96/195/50
f 90/193/50 96/195/50 91/196/50
f 97/197/51 98/198/51 99/199/51
f 97/197/52 100/200/52 98/198/52
f 97/197/53 101/201/53 100/200/53
f 97/197/54 102/202/54 101/201/54
f 97/197/55 103/203/55 102/202/55
f 97/197/56 104/204/56 103/203/56
f 97/197/57 105/205/57 104/204/57
f 97/197/58 106/206/58 105/205/58
f 97/197/59 107/207/59 106/206/59
f 97/197/60 108/208/60 107/207/60
f 97/197/61 109/209/61 108/208/61
f 97/197/62 110/210/62 109/209/62
f 97/197/63 111/211/63 110/210/63
f 97/197/64 99/199/64 111/211/64
f 99/199/65 98/198/65 112/212/65
f 99/199/65 112/212/65 113/213/65
f 98/198/66 100/200/66 114/214/66
f 98/198/66 114/214/66 112/212/66
f 100/200/67 101/201/67 115/215/67
f 100/200/67 115/215/67 114/214/67
f 101/201/68 102/202/68 116/216/68
f 101/201/68 116/216/68 115/215/68
f 102/202/69 103/203/69 117/217/69
f 102/202/69 117/217/69 116/216/69
f 103/203/70 104/204/70 118/218/70
f 103/203/70 118/218/70 117/217/70
f 104/204/71 105/205/71 119/219/71
f 104/204/71 119/219/71 118/218/71
f 105/205/72 106/206/72 120/220/72
f 105/205/72 120/220/72 119/219/72
f 106/206/73 107/207/73 121/221/73
f 106/206/73 121/221/73 120/220/73
f 107/207/74 108/208/74 122/222/74
f 107/207/74 122/222/74 121/221/74
f 108/208/75 109/209/75 123/223/75
f 108/208/75 123/223/75 122/222/75
f 109/209/76 110/210/76 124/224/76
f 109/209/76 124/224/76 123/223/76
f 110/210/77 111/211/77 125/225/77
f 110/210/77 125/225/77 124/224/77
f 111/211/78 99/199/78 113/213/78
f 111/211/78 113/213/78 125/225/78
f 113/213/79 112/212/79 126/226/79
f 113/213/79 126/226/79 127/227/79
f 112/212/80 114/214/80 128/228/80
f 112/212/80 128/228/80 126/226/80
f 114/214/81 115/215/81 129/229/81
f 114/214/81 129/229/81 128/228/81
f 115/215/82 116/216/82 130/230/82
f 115/215/82 130/230/82 129/229/82
f 116/216/83 117/217/83 131/231/83
f 116/216/83 131/231/83 130/230/83
f 117/217/84 118/218/84 132/232/84
f 117/217/84 132/232/84 131/231/84
f 118/218/85 119/219/85 133/233/85
f 118/218/85 133/233/85 132/232/85
f 119/219/86 120/220/86 134/234/86
f 119/219/86 134/234/86 133/233/86
f 120/220/87 121/221/87 135/235/87
f 120/220/87 135/235/87 134/234/87
f 121/221/88 122/222/88 136/236/88
f 121/221/88 136/236/88 135/235/88
f 122/222/89 123/223/89 137/237/89
f 122/222/89 137/237/89 136/236/89
f 123/223/90 124/224/90 138/238/90
f 123/223/90 138/238/90 137/237/90
f 124/224/91 125/225/91 139/239/91
f 124/224/91 139/239/91 138/238/91
f 125/225/92 113/213/92 127/227/92
f 125/225/92 127/227/92 139/239/92
f 127/227/93 126/226/93 140/240/93
f 127/227/93 140/240/93 141/241/93
f 126/226/94 128/228/94 142/242/94
f 126/226/94 142/242/94 140/240/94
f 128/243/95 129/244/95 143/245/95
f 128/243/95 143/245/95 142/246/95
f 129/244/96 130/247/96 144/248/96
f 129/244/96 144/248/96 143/245/96
f 130/247/97 131/249/97 145/250/97
f 130/247/97 145/250/97 144/248/97
f 131/231/98 132/232/98 146/251/98
f 131/231/98 146/251/98 145/252/98
f 132/232/99 133/233/99 147/253/99
f 132/232/99 147/253/99 146/251/99
f 133/233/100 134/234/100 148/254/100
f 133/233/100 148/254/100 147/253/100
f 134/234/101 135/235/101 149/255/101
f 134/234/101 149/255/101 148/254/101
f 135/249/102 136/247/102 150/248/102
f 135/249/102 150/248/102 149/250/102
f 136/247/103 137/244/103 151/245/103
f 136/247/103 151/245/103 150/248/103
f 137/244/104 138/243/104 152/246/104
f 137/244/104 152/246/104 151/245/104
f 138/238/105 139/239/105 153/256/105
f 138/238/105 153/256/105 152/257/105
f 139/239/106 127/227/106 141/241/106
f 139/239/106 141/241/106 153/256/106
f 141/258/107 140/259/107 154/260/107
f 141/258/107 154/260/107 155/261/107
f 140/262/108 142/246/108 156/263/108
f 140/262/108 156/263/108 154/264/108
f 142/246/109 143/245/109 157/265/109
f 142/246/109 157/265/109 156/263/109
f 143/245/110 144/248/110 158/266/110
f 143/245/110 158/266/110 157/265/110
f 144/248/111 145/250/111 159/267/111
f 144/248/111 159/267/111 158/266/111
f 145/250/112 146/268/112 160/269/112
f 145/250/112 160/269/112 159/267/112
f 146/270/113 147/271/113 161/272/113
f 146/270/113 161/272/113 160/273/113
f 147/271/114 148/274/114 162/275/114
f 147/271/114 162/275/114 161/272/114
f 148/268/115 149/250/115 163/267/115
f 148/268/115 163/267/115 162/269/115
f 149/250/116 150/248/116 164/266/116
f 149/250/116 164/266/116 163/267/116
f 150/248/117 151/245/117 165/265/117
f 150/248/117 165/265/117 164/266/117
f 151/245/118 152/246/118 166/263/118
f 151/245/118 166/263/118 165/265/118
f 152/246/119 153/262/119 167/264/119
f 152/246/119 167/264/119 166/263/119
f 153/276/120 141/258/120 155/261/120
f 153/276/120 155/261/120 167/277/120
f 155/261/121 154/260/121 168/278/121
f 155/261/121 168/278/121 169/279/121
f 154/264/122 156/263/122 170/280/122
f 154/264/122 170/280/122 168/281/122
f 156/263/123 157/265/123 171/282/123
f 156/263/123 171/282/123 170/280/123
f 157/265/124 158/266/124 172/283/124
f 157/265/124 172/283/124 171/282/124
f 158/266/125 159/267/125 173/284/125
f 158/266/125 173/284/125 172/283/125
f 159/267/126 160/269/126 174/285/126
f 159/267/126 174/285/126 173/284/126
f 160/273/127 161/272/127 175/286/127
f 160/273/127 175/286/127 174/287/127
f 161/272/128 162/275/128 176/288/128
f 161/272/128 176/288/128 175/286/128
f 162/269/129 163/267/129 177/284/129
f 162/269/129 177/284/129 176/285/129
f 163/267/130 164/266/130 178/283/130
f 163/267/130 178/283/130 177/284/130
f 164/266/131 165/265/131 179/282/131
f 164/266/131 179/282/131 178/283/131
f 165/265/132 166/263/132 180/280/132
f 165/265/132 180/280/132 179/282/132
f 166/263/133 167/264/133 181/281/133
f 166/263/133 181/281/133 180/280/133
f 167/277/134 155/261/134 169/279/134
f 167/277/134 169/279/134 181/289/134
f 169/241/135 168/240/135 182/226/135
f 169/241/135 182/226/135 183/227/135
f 168/240/136 170/242/136 184/228/136
f 168/240/136 184/228/136 182/226/136
f 170/280/137 171/282/137 185/290/137
f 170/280/137 185/290/137 184/291/137
f 171/282/138 172/283/138 186/292/138
f 171/282/138 186/292/138 185/290/138
f 172/283/139 173/284/139 187/293/139
f 172/283/139 187/293/139 186/292/139
f 173/252/140 174/251/140 188/232/140
f 173/252/140 188/232/140 187/231/140
f 174/251/141 175/253/141 189/233/141
f 174/251/141 189/233/141 188/232/141
f 175/253/142 176/254/142 190/234/142
f 175/253/142 190/234/142 189/233/142
f 176/254/143 177/255/143 191/235/143
f 176/254/143 191/235/143 190/234/143
f 177/284/144 178/283/144 192/292/144
f 177/284/144 192/292/144 191/293/144
f 178/283/145 179/282/145 193/290/145
f 178/283/145 193/290/145 192/292/145
f 179/282/146 180/280/146 194/291/146
f 179/282/146 194/291/146 193/290/146
f 180/257/147 181/256/147 195/239/147
f 180/257/147 195/239/147 194/238/147
f 181/256/148 169/241/148 183/227/148
f 181/256/148 183/227/148 195/239/148
f 183/227/149 182/226/149 196/212/149
f 183/227/149 196/212/149 197/213/149
f 182/226/150 184/228/150 198/214/150
f 182/226/150 198/214/150 196/212/150
f 184/228/151 185/229/151 199/215/151
f 184/228/151 199/215/151 198/214/151
f 185/229/152 186/230/152 200/216/152
f 185/229/152 200/216/152 199/215/152
f 186/230/153 187/231/153 201/217/153
f 186/230/153 201/217/153 200/216/153
f 187/231/154 188/232/154 202/218/154
f 187/231/154 202/218/154 201/217/154
f 188/232/155 189/233/155 203/219/155
f 188/232/155 203/219/155 202/218/155
f 189/233/156 190/234/156 204/220/156
f 189/233/156 204/220/156 203/219/156
f 190/234/157 191/235/157 205/221/157
f 190/234/157 205/221/157 204/220/157
f 191/235/158 192/236/158 206/222/158
f 191/235/158 206/222/158 205/221/158
f 192/236/159 193/237/159 207/223/159
f 192/236/159 207/223/159 206/222/159
f 193/237/160 194/238/160 208/224/160
f 193/237/160 208/224/160 207/223/160
f 194/238/161 195/239/161 209/225/161
f 194/238/161 209/225/161 208/224/161
f 195/239/162 183/227/162 197/213/162
f 195/239/162 197/213/162 209/225/162
f 197/213/163 196/212/163 210/198/163
f 197/213/163 210/198/163 211/199/163
f 196/212/164 198/214/164 212/200/164
f 196/212/164 212/200/164 210/198/164
f 198/214/165 199/215/165 213/201/165
f 198/214/165 213/201/165 212/200/165
f 199/215/166 200/216/166 214/202/166
f 199/215/166 214/202/166 213/201/166
f 200/216/167 201/217/167 215/203/167
f 200/216/167 215/203/167 214/202/167
f 201/217/168 202/218/168 216/204/168
f 201/217/168 216/204/168 215/203/168
f 202/218/169 203/219/169 217/205/169
f 202/218/169 217/205/169 216/204/169
f 203/219/170 204/220/170 218/206/170
f 203/219/170 218/206/170 217/205/170
f 204/220/171 205/221/171 219/207/171
f 204/220/171 219/207/171 218/206/171
f 205/221/172 206/222/172 220/208/172
f 205/221/172 220/208/172 219/207/172
f 206/222/173 207/223/173 221/209/173
f 206/222/173 221/209/173 220/208/173
f 207/223/174 208/224/174 222/210/174
f 207/223/174 222/210/174 221/209/174
f 208/224/175 209/225/175 223/211/175
f 208/224/175 223/211/175 222/210/175
f 209/225/176 197/213/176 211/199/176
f 209/225/176 211/199/176 223/211/176
f 211/199/177 210/198/177 224/197/177
f 210/198/178 212/200/178 224/197/178
f 212/200/179 213/201/179 224/197/179
f 213/201/180 214/202/180 224/197/180
f 214/202/181 215/203/181 224/197/181
f 215/203/182 216/204/182 224/197/182
f 216/204/183 217/205/183 224/197/183
f 217/205/184 218/206/184 224/197/184
f 218/206/185 219/207/185 224/197/185
f 219/207/186 220/208/186 224/197/186
f 220/208/187 221/209/187 224/197/187
f 221/209/188 222/210/188 224/197/188
f 222/210/189 223/211/189 224/197/189
f 223/211/190 211/199/190 224/197/190
f 225/294/191 226/295/191 227/296/191
f 225/294/191 228/297/191 226/295/191
f 225/294/191 229/298/191 228/297/191
f 225/294/191 230/299/191 229/298/191
f 225/294/191 231/300/191 230/299/191
f 225/294/191 232/301/191 231/300/191
f 225/294/191 233/302/191 232/301/191
f 225/294/191 227/296/191 233/302/191
f 227/303/192 226/304/192 234/305/192
f 227/303/192 234/305/192 235/306/192
f 226/307/193 228/308/193 236/309/193
f 226/307/193 236/309/193 234/310/193
f 228/308/194 229/311/194 237/312/194
f 228/308/194 237/312/194 236/309/194
f 229/304/195 230/303/195 238/306/195
f 229/304/195 238/306/195 237/305/195
f 230/303/196 231/313/196 239/314/196
f 230/303/196 239/314/196 238/306/196
f 231/311/197 232/308/197 240/309/197
f 231/311/197 240/309/197 239/312/197
f 232/308/198 233/307/198 241/310/198
f 232/308/198 241/310/198 240/309/198
f 233/313/199 227/303/199 235/306/199
f 233/313/199 235/306/199 241/314/199
f 235/315/200 234/316/200 242/317/200
f 234/316/200 236/318/200 242/317/200
f 236/318/200 237/319/200 242/317/200
f 237/319/200 238/320/200 242/317/200
f 238/320/200 239/321/200 242/317/200
f 239/321/200 240/322/200 242/317/200
f 240/322/200 241/323/200 242/317/200
f 241/323/200 235/315/200 242/317/200
f 243/324/201 244/325/201 245/326/201
f 243/324/201 246/327/201 244/325/201
f 243/324/201 247/328/201 246/327/201
f 243/324/201 248/329/201 247/328/201
f 243/324/201 249/330/201 248/329/201
f 243/324/201 250/331/201 249/330/201
f 243/324/201 251/332/201 250/331/201
f 243/324/201 245/326/201 251/332/201
f 245/333/202 244/334/202 252/335/202
f 245/333/202 252/335/202 253/336/202
f 244/337/203 246/338/203 254/339/203
f 244/337/203 254/339/203 252/340/203
f 246/338/204 247/341/204 255/342/204
f 246/338/204 255/342/204 254/339/204
f 247/334/205 248/333/205 256/336/205
f 247/334/205 256/336/205 255/335/205
f 248/333/206 249/343/206 257/344/206
f 248/333/206 257/344/206 256/336/206
f 249/341/207 250/338/207 258/339/207
f 249/341/207 258/339/207 257/342/207
f 250/338/208 251/337/208 259/340/208
f 250/338/208 259/340/208 258/339/208
f 251/343/209 245/333/209 253/336/209
f 251/343/209 253/336/209 259/344/209
f 253/345/210 252/346/210 260/347/210
f 252/346/210 254/348/210 260/347/210
f 254/348/210 255/349/210 260/347/210
f 255/349/210 256/350/210 260/347/210
f 256/350/210 257/351/210 260/347/210
f 257/351/210 258/352/210 260/347/210
f 258/352/210 259/353/210 260/347/210
f 259/353/210 253/345/210 260/347/210
f 261/354/211 262/355/211 263/356/211
f 261/354/211 263/356/211 264/357/211
f 262/358/212 265/359/212 266/360/212
f 262/358/212 266/360/212 263/361/212
f 265/359/213 267/362/213 268/363/213
f 265/359/213 268/363/213 266/360/213
f 267/362/214 269/364/214 270/365/214
f 267/362/214 270/365/214 268/363/214
f 269/366/215 271/367/215 272/368/215
f 269/366/215 272/368/215 270/369/215
f 271/367/216 273/370/216 274/371/216
f 271/367/216 274/371/216 272/368/216
f 273/364/217 275/362/217 276/363/217
f 273/364/217 276/363/217 274/365/217
f 275/362/218 277/359/218 278/360/218
f 275/362/218 278/360/218 276/363/218
f 277/359/219 279/358/219 280/361/219
f 277/359/219 280/361/219 278/360/219
f 279/372/220 261/354/220 264/357/220
f 279/372/220 264/357/220 280/373/220
f 264/357/221 263/356/221 281/374/221
f 264/357/221 281/374/221 282/375/221
f 263/361/222 266/360/222 283/376/222
f 263/361/222 283/376/222 281/377/222
f 266/360/223 268/363/223 284/378/223
f 266/360/223 284/378/223 283/376/223
f 268/363/224 270/365/224 285/379/224
f 268/363/224 285/379/224 284/378/224
f 270/369/225 272/368/225 286/380/225
f 270/369/225 286/380/225 285/381/225
f 272/368/226 274/371/226 287/382/226
f 272/368/226 287/382/226 286/380/226
f 274/365/227 276/363/227 288/378/227
f 274/365/227 288/378/227 287/379/227
f 276/363/228 278/360/228 289/376/228
f 276/363/228 289/376/228 288/378/228
f 278/360/229 280/361/229 290/377/229
f 278/360/229 290/377/229 289/376/229
f 280/373/230 264/357/230 282/375/230
f 280/373/230 282/375/230 290/383/230
f 282/384/231 281/385/231 291/386/231
f 282/384/231 291/386/231 292/387/231
f 281/385/232 283/388/232 293/389/232
f 281/385/232 293/389/232 291/386/232
f 283/388/233 284/390/233 294/391/233
f 283/388/233 294/391/233 293/389/233
f 284/390/234 285/392/234 295/393/234
f 284/390/234 295/393/234 294/391/234
f 285/392/235 286/394/235 296/395/235
f 285/392/235 296/395/235 295/393/235
f 286/394/236 287/396/236 297/397/236
f 286/394/236 297/397/236 296/395/236
f 287/396/237 288/398/237 298/399/237
f 287/396/237 298/399/237 297/397/237
f 288/398/238 289/400/238 299/401/238
f 288/398/238 299/401/238 298/399/238
f 289/400/239 290/402/239 300/403/239
f 289/400/239 300/403/239 299/401/239
f 290/402/240 282/384/240 292/387/240
f 290/402/240 292/387/240 300/403/240
f 292/387/241 291/386/241 301/404/241
f 291/386/242 293/389/242 301/404/242
f 293/389/243 294/391/243 301/404/243
f 294/391/244 295/393/244 301/404/244
f 295/393/245 296/395/245 301/404/245
f 296/395/246 297/397/246 301/404/246
f 297/397/247 298/399/247 301/404/247
f 298/399/248 299/401/248 301/404/248
f 299/401/249 300/403/249 301/404/249
f 300/403/250 292/387/250 301/404/250
f 302/405/251 303/406/251 304/407/251
f 302/405/251 304/407/251 305/408/251
f 306/409/252 307/410/252 308/411/252
f 306/409/252 308/411/252 309/412/252
f 305/413/253 304/414/253 309/415/253
f 305/413/253 309/415/253 308/416/253
f 307/416/254 306/415/254 303/414/254
f 307/416/254 303/414/254 302/413/254
f 307/417/255 302/418/255 305/419/255
f 307/417/255 305/419/255 308/420/255
f 303/418/256 306/417/256 309/420/256
f 303/418/256 309/420/256 304/419/256
f 310/421/257 311/422/257 312/423/257
f 310/421/257 312/423/257 313/424/257
f 314/425/258 315/426/258 316/427/258
f 314/425/258 316/427/258 317/428/258
f 313/429/259 312/430/259 317/431/259
f 313/429/259 317/431/259 316/432/259
f 315/432/260 314/431/260 311/430/260
f 315/432/260 311/430/260 310/429/260
f 315/433/261 310/434/261 313/435/261
f 315/433/261 313/435/261 316/436/261
f 311/434/262 314/433/262 317/436/262
f 311/434/262 317/436/262 312/435/262
f 318/437/263 319/438/263 320/439/263
f 318/437/263 320/439/263 321/440/263
f 322/441/264 323/442/264 324/443/264
f 322/441/264 324/443/264 325/444/264
f 321/445/265 320/446/265 325/447/265
f 321/445/265 325/447/265 324/448/265
f 323/448/266 322/447/266 319/446/266
f 323/448/266 319/446/266 318/445/266
f 323/449/267 318/450/267 321/451/267
f 323/449/267 321/451/267 324/452/267
f 319/450/268 322/449/268 325/452/268
f 319/450/268 325/452/268 320/451/268
f 326/453/269 327/454/269 328/455/269
f 326/453/269 328/455/269 329/456/269
f 330/457/270 331/458/270 332/459/270
f 330/457/270 332/459/270 333/460/270
f 329/461/271 328/462/271 333/463/271
f 329/461/271 333/463/271 332/464/271
f 331/464/272 330/463/272 327/462/272
f 331/464/272 327/462/272 326/461/272
f 331/465/273 326/466/273 329/467/273
f 331/465/273 329/467/273 332/468/273
f 327/466/274 330/465/274 333/468/274
f 327/466/274 333/468/274 328/467/274
f 334/469/275 335/470/275 336/471/275
f 337/472/276 338/473/276 339/474/276
f 334/469/275 336/471/275 340/475/275
f 337/472/276 341/476/276 338/473/276
f 334/469/275 340/475/275 342/477/275
f 337/472/276 343/478/276 341/476/276
f 342/477/275 344/479/275 334/469/275
f 343/478/276 337/472/276 345/480/276
f 335/481/277 338/482/277 336/483/277
f 335/481/277 339/484/277 338/482/277
f 336/485/278 341/486/278 340/487/278
f 336/485/278 338/488/278 341/486/278
f 340/487/279 343/489/279 342/490/279
f 340/487/279 341/486/279 343/489/279
f 342/491/280 345/492/280 344/493/280
f 342/491/280 343/494/280 345/492/280
f 344/495/281 337/496/281 334/497/281
f 344/495/281 345/498/281 337/496/281
f 334/497/282 339/499/282 335/500/282
f 334/497/282 337/496/282 339/499/282
f 346/501/283 347/502/283 348/503/283
f 349/504/284 350/505/284 351/506/284
f 346/501/283 352/507/283 347/502/283
f 349/504/284 351/506/284 353/508/284
f 346/501/283 354/509/283 352/507/283
f 349/504/284 353/508/284 355/510/284
f 354/509/283 346/501/283 356/511/283
f 355/510/284 357/512/284 349/504/284
f 348/513/285 347/514/285 351/515/285
f 348/513/285 351/515/285 350/516/285
f 347/517/286 352/518/286 353/519/286
f 347/517/286 353/519/286 351/520/286
f 352/518/287 354/521/287 355/522/287
f 352/518/287 355/522/287 353/519/287
f 354/523/288 356/524/288 357/525/288
f 354/523/288 357/525/288 355/526/288
f 356/527/289 346/528/289 349/529/289
f 356/527/289 349/529/289 357/530/289
f 346/528/290 348/531/290 350/532/290
f 346/528/290 350/532/290 349/529/290
f 358/533/291 359/534/291 360/535/291
f 358/533/291 360/535/291 361/536/291
f 362/537/292 363/538/292 364/539/292
f 362/537/292 364/539/292 365/540/292
f 361/541/293 360/542/293 365/543/293
f 361/541/293 365/543/293 364/544/293
f 363/545/294 362/546/294 359/547/294
f 363/545/294 359/547/294 358/548/294
f 363/549/295 358/550/295 361/551/295
f 363/549/295 361/551/295 364/552/295
f 359/553/296 362/554/296 365/555/296
f 359/553/296 365/555/296 360/556/296
f 366/557/291 367/558/291 368/559/291
f 366/557/291 368/559/291 369/560/291
f 370/561/292 371/562/292 372/563/292
f 370/561/292 372/563/292 373/564/292
f 369/565/293 368/566/293 373/567/293
f 369/565/293 373/567/293 372/568/293
f 371/569/294 370/570/294 367/571/294
f 371/569/294 367/571/294 366/572/294
f 371/573/295 366/574/295 369/575/295
f 371/573/295 369/575/295 372/576/295
f 367/577/296 370/578/296 373/579/296
f 367/577/296 373/579/296 368/580/296
f 374/581/291 375/582/291 376/583/291
f 374/581/291 376/583/291 377/584/291
f 378/585/292 379/586/292 380/587/292
f 378/585/292 380/587/292 381/588/292
f 377/589/293 376/590/293 381/591/293
f 377/589/293 381/591/293 380/592/293
f 379/593/294 378/594/294 375/595/294
f 379/593/294 375/595/294 374/596/294
f 379/597/295 374/598/295 377/599/295
f 379/597/295 377/599/295 380/600/295
f 375/601/296 378/602/296 381/603/296
f 375/601/296 381/603/296 376/604/296
f 382/605/297 383/606/297 384/607/297
f 382/605/297 384/607/297 385/608/297
f 386/609/298 387/610/298 388/611/298
f 386/609/298 388/611/298 389/612/298
f 385/613/299 384/614/299 389/615/299
f 385/613/299 389/615/299 388/616/299
f 387/617/300 386/618/300 383/619/300
f 387/617/300 383/619/300 382/620/300
f 387/621/301 382/622/301 385/623/301
f 387/621/301 385/623/301 388/624/301
f 383/625/302 386/626/302 389/627/302
f 383/625/302 389/627/302 384/628/302
f 390/629/297 391/630/297 392/631/297
f 390/629/297 392/631/297 393/632/297
f 394/633/298 395/634/298 396/635/298
f 394/633/298 396/635/298 397/636/298
f 393/637/299 392/638/299 397/639/299
f 393/637/299 397/639/299 396/640/299
f 395/641/300 394/642/300 391/643/300
f 395/641/300 391/643/300 390/644/300
f 395/645/301 390/646/301 393/647/301
f 395/645/301 393/647/301 396/648/301
f 391/649/302 394/650/302 397/651/302
f 391/649/302 397/651/302 392/652/302
f 398/653/297 399/654/297 400/655/297
f 398/653/297 400/655/297 401/656/297
f 402/657/298 403/658/298 404/659/298
f 402/657/298 404/659/298 405/660/298
f 401/661/299 400/662/299 405/663/299
f 401/661/299 405/663/299 404/664/299
f 403/665/300 402/666/300 399/667/300
f 403/665/300 399/667/300 398/668/300
f 403/669/301 398/670/301 401/671/301
f 403/669/301 401/671/301 404/672/301
f 399/673/302 402/674/302 405/675/302
f 399/673/302 405/675/302 400/676/302
f 406/677/303 407/678/303 408/679/303
f 406/677/303 408/679/303 409/680/303
f 410/681/304 411/682/304 412/683/304
f 410/681/304 412/683/304 413/684/304
f 409/685/305 408/686/305 413/687/305
f 409/685/305 413/687/305 412/688/305
f 411/688/306 410/687/306 407/686/306
f 411/688/306 407/686/306 406/685/306
f 411/689/307 406/690/307 409/691/307
f 411/689/307 409/691/307 412/692/307
f 407/693/308 410/694/308 413/695/308
f 407/693/308 413/695/308 408/696/308
f 414/697/303 415/698/303 416/699/303
f 414/697/303 416/699/303 417/700/303
f 418/701/304 419/702/304 420/703/304
f 418/701/304 420/703/304 421/704/304
f 417/705/309 416/706/309 421/707/309
f 417/705/309 421/707/309 420/708/309
f 419/708/310 418/707/310 415/706/310
f 419/708/310 415/706/310 414/705/310
f 419/709/311 414/710/311 417/711/311
f 419/709/311 417/711/311 420/712/311
f 415/713/312 418/713/312 421/714/312
f 415/713/312 421/714/312 416/714/312
f 422/715/303 423/716/303 424/717/303
f 422/715/303 424/717/303 425/718/303
f 426/719/304 427/720/304 428/721/304
f 426/719/304 428/721/304 429/722/304
f 425/723/309 424/724/309 429/725/309
f 425/723/309 429/725/309 428/726/309
f 427/726/310 426/725/310 423/724/310
f 427/726/310 423/724/310 422/723/310
f 427/727/311 422/728/311 425/729/311
f 427/727/311 425/729/311 428/730/311
f 423/731/312 426/731/312 429/732/312
f 423/731/312 429/732/312 424/732/312
f 430/733/313 431/734/313 432/735/313
f 430/733/313 432/735/313 433/736/313
f 434/737/314 435/738/314 436/739/314
f 434/737/314 436/739/314 437/740/314
f 433/741/315 432/742/315 437/743/315
f 433/741/315 437/743/315 436/744/315
f 435/744/316 434/743/316 431/742/316
f 435/744/316 431/742/316 430/741/316
f 435/745/317 430/746/317 433/747/317
f 435/745/317 433/747/317 436/748/317
f 431/749/318 434/750/318 437/751/318
f 431/749/318 437/751/318 432/752/318
f 438/753/313 439/754/313 440/755/313
f 438/753/313 440/755/313 441/756/313
f 442/757/314 443/758/314 444/759/314
f 442/757/314 444/759/314 445/760/314
f 441/761/319 440/762/319 445/763/319
f 441/761/319 445/763/319 444/764/319
f 443/764/320 442/763/320 439/762/320
f 443/764/320 439/762/320 438/761/320
f 443/765/321 438/765/321 441/766/321
f 443/765/321 441/766/321 444/766/321
f 439/767/322 442/768/322 445/769/322
f 439/767/322 445/769/322 440/770/322
f 446/771/313 447/772/313 448/773/313
f 446/771/313 448/773/313 449/774/313
f 450/775/314 451/776/314 452/777/314
f 450/775/314 452/777/314 453/778/314
f 449/779/319 448/780/319 453/781/319
f 449/779/319 453/781/319 452/782/319
f 451/782/320 450/781/320 447/780/320
f 451/782/320 447/780/320 446/779/320
f 451/783/321 446/783/321 449/784/321
f 451/783/321 449/784/321 452/784/321
f 447/785/322 450/786/322 453/787/322
f 447/785/322 453/787/322 448/788/322
f 454/789/323 455/790/323 456/791/323
f 454/789/323 456/791/323 457/792/323
f 455/793/324 458/794/324 459/795/324
f 455/793/324 459/795/324 456/796/324
f 458/794/325 460/797/325 461/798/325
f 458/794/325 461/798/325 459/795/325
f 460/797/326 462/799/326 463/800/326
f 460/797/326 463/800/326 461/798/326
f 462/790/327 464/789/327 465/792/327
f 462/790/327 465/792/327 463/791/327
f 464/789/328 466/801/328 467/802/328
f 464/789/328 467/802/328 465/792/328
f 466/799/329 468/797/329 469/798/329
f 466/799/329 469/798/329 467/800/329
f 468/797/330 470/794/330 471/795/330
f 468/797/330 471/795/330 469/798/330
f 470/794/331 472/793/331 473/796/331
f 470/794/331 473/796/331 471/795/331
f 472/801/332 454/789/332 457/792/332
f 472/801/332 457/792/332 473/802/332
f 457/792/333 456/791/333 474/803/333
f 457/792/333 474/803/333 475/804/333
f 456/805/334 459/806/334 476/807/334
f 456/805/334 476/807/334 474/808/334
f 459/795/335 461/798/335 477/809/335
f 459/795/335 477/809/335 476/810/335
f 461/811/336 463/812/336 478/813/336
f 461/811/336 478/813/336 477/814/336
f 463/791/337 465/792/337 479/804/337
f 463/812/337 479/815/337 478/813/337
f 465/792/338 467/802/338 480/816/338
f 465/792/338 480/816/338 479/804/338
f 467/817/339 469/818/339 481/819/339
f 467/817/339 481/819/339 480/820/339
f 469/798/340 471/795/340 482/810/340
f 469/798/340 482/810/340 481/809/340
f 471/821/341 473/822/341 483/823/341
f 471/821/341 483/823/341 482/824/341
f 473/802/342 457/792/342 475/804/342
f 473/802/342 475/804/342 483/816/342
f 475/825/343 474/808/343 484/826/343
f 474/808/344 476/807/344 484/826/344
f 476/807/345 477/814/345 484/826/345
f 477/814/346 478/813/346 484/826/346
f 478/813/347 479/815/347 484/826/347
f 479/815/348 480/820/348 484/826/348
f 480/820/349 481/819/349 484/826/349
f 481/819/350 482/824/350 484/826/350
f 482/824/351 483/823/351 484/826/351
f 483/823/352 475/825/352 484/826/352
f 485/827/353 486/828/353 487/829/353
f 485/827/353 488/830/353 486/828/353
f 485/827/353 489/831/353 488/830/353
f 485/827/353 490/832/353 489/831/353
f 485/827/353 491/833/353 490/832/353
f 485/827/353 487/829/353 491/833/353
f 487/834/354 486/835/354 492/836/354
f 487/834/354 492/836/354 493/837/354
f 486/838/355 488/839/355 494/840/355
f 486/838/355 494/840/355 492/841/355
f 488/835/356 489/834/356 495/837/356
f 488/835/356 495/837/356 494/836/356
f 489/834/357 490/842/357 496/843/357
f 489/834/357 496/843/357 495/837/357
f 490/839/358 491/838/358 497/841/358
f 490/839/358 497/841/358 496/840/358
f 491/842/359 487/834/359 493/837/359
f 491/842/359 493/837/359 497/843/359
f 493/837/360 492/836/360 498/844/360
f 493/837/360 498/844/360 499/845/360
f 492/841/361 494/840/361 500/846/361
f 492/841/361 500/846/361 498/847/361
f 494/836/362 495/837/362 501/845/362
f 494/836/362 501/845/362 500/844/362
f 495/837/363 496/843/363 502/848/363
f 495/837/363 502/848/363 501/845/363
f 496/840/364 497/841/364 503/847/364
f 496/840/364 503/847/364 502/846/364
f 497/843/365 493/837/365 499/845/365
f 497/843/365 499/845/365 503/848/365
f 504/849/366 505/850/366 506/851/366
f 504/849/366 506/851/366 507/852/366
f 505/853/367 508/854/367 509/855/367
f 505/853/367 509/855/367 506/856/367
f 508/854/368 510/857/368 511/858/368
f 508/854/368 511/858/368 509/855/368
f 510/857/369 512/859/369 513/860/369
f 510/857/369 513/860/369 511/858/369
f 512/850/370 514/849/370 515/852/370
f 512/850/370 515/852/370 513/851/370
f 514/849/371 516/861/371 517/862/371
f 514/849/371 517/862/371 515/852/371
f 516/859/372 518/857/372 519/858/372
f 516/859/372 519/858/372 517/860/372
f 518/857/373 520/854/373 521/855/373
f 518/857/373 521/855/373 519/858/373
f 520/854/374 522/853/374 523/856/374
f 520/854/374 523/856/374 521/855/374
f 522/861/375 504/849/375 507/852/375
f 522/861/375 507/852/375 523/862/375
f 507/852/376 506/851/376 524/863/376
f 507/852/376 524/863/376 525/864/376
f 506/865/377 509/866/377 526/867/377
f 506/865/377 526/867/377 524/868/377
f 509/855/378 511/858/378 527/869/378
f 509/855/378 527/869/378 526/870/378
f 511/871/379 513/872/379 528/873/379
f 511/871/379 528/873/379 527/874/379
f 513/851/380 515/852/380 529/864/380
f 513/872/380 529/875/380 528/873/380
f 515/852/381 517/862/381 530/876/381
f 515/852/381 530/876/381 529/864/381
f 517/877/382 519/878/382 531/879/382
f 517/877/382 531/879/382 530/880/382
f 519/858/383 521/855/383 532/870/383
f 519/858/383 532/870/383 531/869/383
f 521/881/384 523/882/384 533/883/384
f 521/881/384 533/883/384 532/884/384
f 523/862/385 507/852/385 525/864/385
f 523/882/385 525/885/385 533/883/385
f 525/885/386 524/868/386 534/886/386
f 524/868/387 526/867/387 534/886/387
f 526/867/388 527/874/388 534/886/388
f 527/874/389 528/873/389 534/886/389
f 528/873/390 529/875/390 534/886/390
f 529/875/391 530/880/391 534/886/391
f 530/880/392 531/879/392 534/886/392
f 531/879/393 532/884/393 534/886/393
f 532/884/394 533/883/394 534/886/394
f 533/883/395 525/885/395 534/886/395
f 535/887/396 536/888/396 537/889/396
f 535/887/396 538/890/396 536/888/396
f 535/887/396 539/891/396 538/890/396
f 535/887/396 540/892/396 539/891/396
f 535/887/396 541/893/396 540/892/396
f 535/887/396 537/889/396 541/893/396
f 537/894/397 536/895/397 542/896/397
f 537/894/397 542/896/397 543/897/397
f 536/898/398 538/899/398 544/900/398
f 536/898/398 544/900/398 542/901/398
f 538/895/399 539/894/399 545/897/399
f 538/895/399 545/897/399 544/896/399
f 539/894/400 540/902/400 546/903/400
f 539/894/400 546/903/400 545/897/400
f 540/899/401 541/898/401 547/901/401
f 540/899/401 547/901/401 546/900/401
f 541/902/402 537/894/402 543/897/402
f 541/902/402 543/897/402 547/903/402
f 543/897/403 542/896/403 548/904/403
f 543/897/403 548/904/403 549/905/403
f 542/901/404 544/900/404 550/906/404
f 542/901/404 550/906/404 548/907/404
f 544/896/405 545/897/405 551/905/405
f 544/896/405 551/905/405 550/904/405
f 545/897/406 546/903/406 552/908/406
f 545/897/406 552/908/406 551/905/406
f 546/900/407 547/901/407 553/907/407
f 546/900/407 553/907/407 552/906/407
f 547/903/408 543/897/408 549/905/408
f 547/903/408 549/905/408 553/908/408
