# Helion tender, from tools/gen_fleet.py
# Generated by tools. Edit the generator script.
v -0.120294 0.340833 1.223521
v 0.120294 0.340833 1.223521
v 0.120294 0.581420 1.223521
v -0.120294 0.581420 1.223521
v 0.120294 0.340833 -2.080549
v -0.120294 0.340833 -2.080549
v -0.120294 0.581420 -2.080549
v 0.120294 0.581420 -2.080549
v -0.601469 0.320784 1.656579
v 0.601469 0.320784 1.656579
v 0.601469 0.601469 1.656579
v -0.601469 0.601469 1.656579
v 0.601469 0.320784 1.175404
v -0.601469 0.320784 1.175404
v -0.601469 0.601469 1.175404
v 0.601469 0.601469 1.175404
v -0.661616 0.340833 1.456089
v -0.581420 0.340833 1.456089
v -0.581420 0.421028 1.456089
v -0.661616 0.421028 1.456089
v -0.581420 0.340833 1.375893
v -0.661616 0.340833 1.375893
v -0.661616 0.421028 1.375893
v -0.581420 0.421028 1.375893
v 0.581420 0.340833 1.456089
v 0.661616 0.340833 1.456089
v 0.661616 0.421028 1.456089
v 0.581420 0.421028 1.456089
v 0.661616 0.340833 1.375893
v 0.581420 0.340833 1.375893
v 0.581420 0.421028 1.375893
v 0.661616 0.421028 1.375893
v -0.300735 0.593450 1.656579
v -0.244028 0.593450 1.633090
v -0.251625 0.633548 1.625493
v -0.300735 0.633548 1.645835
v -0.220539 0.593450 1.576383
v -0.231283 0.633548 1.576383
v -0.244028 0.593450 1.519676
v -0.251625 0.633548 1.527273
v -0.300735 0.593450 1.496187
v -0.300735 0.633548 1.506931
v -0.357442 0.593450 1.519676
v -0.349844 0.633548 1.527273
v -0.380930 0.593450 1.576383
v -0.370186 0.633548 1.576383
v -0.357442 0.593450 1.633090
v -0.349844 0.633548 1.625493
v -0.272381 0.662901 1.604737
v -0.300735 0.662901 1.616481
v -0.260637 0.662901 1.576383
v -0.272381 0.662901 1.548029
v -0.300735 0.662901 1.536285
v -0.329088 0.662901 1.548029
v -0.340833 0.662901 1.576383
v -0.329088 0.662901 1.604737
v -0.300735 0.673645 1.576383
v -0.240588 0.320383 1.496187
v -0.208028 0.320383 1.576446
v -0.274316 0.320383 1.575962
v -0.160813 0.320383 1.529915
v -0.160329 0.320383 1.463627
v -0.206860 0.320383 1.416413
v -0.273147 0.320383 1.415929
v -0.320362 0.320383 1.462459
v -0.320846 0.320383 1.528747
v -0.208028 0.385341 1.576446
v -0.274316 0.385341 1.575962
v -0.160813 0.385341 1.529915
v -0.160329 0.385341 1.463627
v -0.206860 0.385341 1.416413
v -0.273147 0.385341 1.415929
v -0.320362 0.385341 1.462459
v -0.320846 0.385341 1.528747
v -0.240588 0.385341 1.496187
v -0.602744 0.342035 2.213760
v -0.503026 0.342035 2.255920
v -0.503026 0.450300 2.255920
v -0.602744 0.450300 2.213760
v -0.190729 0.342035 1.517267
v -0.290447 0.342035 1.475107
v -0.290447 0.450300 1.475107
v -0.190729 0.450300 1.517267
v -0.598394 0.259033 2.231272
v -0.518619 0.259033 2.265000
v -0.518619 0.388950 2.265000
v -0.598394 0.388950 2.231272
v -0.484891 0.259033 2.185225
v -0.564666 0.259033 2.151497
v -0.564666 0.388950 2.151497
v -0.484891 0.388950 2.185225
v 0.240588 0.320383 1.496187
v 0.320846 0.320383 1.528747
v 0.274316 0.320383 1.575962
v 0.320362 0.320383 1.462459
v 0.273147 0.320383 1.415929
v 0.206860 0.320383 1.416413
v 0.160329 0.320383 1.463627
v 0.160813 0.320383 1.529915
v 0.208028 0.320383 1.576446
v 0.320846 0.385341 1.528747
v 0.274316 0.385341 1.575962
v 0.320362 0.385341 1.462459
v 0.273147 0.385341 1.415929
v 0.206860 0.385341 1.416413
v 0.160329 0.385341 1.463627
v 0.160813 0.385341 1.529915
v 0.208028 0.385341 1.576446
v 0.240588 0.385341 1.496187
v 0.503026 0.342035 2.255920
v 0.602744 0.342035 2.213760
v 0.602744 0.450300 2.213760
v 0.503026 0.450300 2.255920
v 0.290447 0.342035 1.475107
v 0.190729 0.342035 1.517267
v 0.190729 0.450300 1.517267
v 0.290447 0.450300 1.475107
v 0.518619 0.259033 2.265000
v 0.598394 0.259033 2.231272
v 0.598394 0.388950 2.231272
v 0.518619 0.388950 2.265000
v 0.564666 0.259033 2.151497
v 0.484891 0.259033 2.185225
v 0.484891 0.388950 2.185225
v 0.564666 0.388950 2.151497
v -0.360881 0.561371 -0.048706
v 0.360881 0.561371 -0.048706
v 0.360881 1.002449 -0.048706
v -0.360881 1.002449 -0.048706
v 0.360881 0.561371 -0.610078
v -0.360881 0.561371 -0.610078
v -0.360881 1.002449 -0.610078
v 0.360881 1.002449 -0.610078
v -0.421028 0.000000 1.047571
v -0.020049 0.000000 1.047571
v -0.020049 0.360881 1.047571
v -0.421028 0.360881 1.047571
v -0.020049 0.000000 0.606494
v -0.421028 0.000000 0.606494
v -0.421028 0.360881 0.606494
v -0.020049 0.360881 0.606494
v 0.020049 0.000000 1.047571
v 0.421028 0.000000 1.047571
v 0.421028 0.360881 1.047571
v 0.020049 0.360881 1.047571
v 0.421028 0.000000 0.606494
v 0.020049 0.000000 0.606494
v 0.020049 0.360881 0.606494
v 0.421028 0.360881 0.606494
v -0.421028 0.000000 -1.265278
v -0.020049 0.000000 -1.265278
v -0.020049 0.360881 -1.265278
v -0.421028 0.360881 -1.265278
v -0.020049 0.000000 -1.706355
v -0.421028 0.000000 -1.706355
v -0.421028 0.360881 -1.706355
v -0.020049 0.360881 -1.706355
v 0.020049 0.000000 -1.265278
v 0.421028 0.000000 -1.265278
v 0.421028 0.360881 -1.265278
v 0.020049 0.360881 -1.265278
v 0.421028 0.000000 -1.706355
v 0.020049 0.000000 -1.706355
v 0.020049 0.360881 -1.706355
v 0.421028 0.360881 -1.706355
v -0.441077 0.461126 -2.240941
v -0.327663 0.347712 -2.240941
v -0.441077 0.300735 -2.240941
v -0.280686 0.461126 -2.240941
v -0.327663 0.574540 -2.240941
v -0.441077 0.621518 -2.240941
v -0.554491 0.574540 -2.240941
v -0.601469 0.461126 -2.240941
v -0.554491 0.347712 -2.240941
v -0.327663 0.347712 -1.599374
v -0.441077 0.300735 -1.599374
v -0.280686 0.461126 -1.599374
v -0.327663 0.574540 -1.599374
v -0.441077 0.621518 -1.599374
v -0.554491 0.574540 -1.599374
v -0.601469 0.461126 -1.599374
v -0.554491 0.347712 -1.599374
v -0.441077 0.461126 -1.599374
v 0.441077 0.461126 -2.240941
v 0.554491 0.347712 -2.240941
v 0.441077 0.300735 -2.240941
v 0.601469 0.461126 -2.240941
v 0.554491 0.574540 -2.240941
v 0.441077 0.621518 -2.240941
v 0.327663 0.574540 -2.240941
v 0.280686 0.461126 -2.240941
v 0.327663 0.347712 -2.240941
v 0.554491 0.347712 -1.599374
v 0.441077 0.300735 -1.599374
v 0.601469 0.461126 -1.599374
v 0.554491 0.574540 -1.599374
v 0.441077 0.621518 -1.599374
v 0.327663 0.574540 -1.599374
v 0.280686 0.461126 -1.599374
v 0.327663 0.347712 -1.599374
v 0.441077 0.461126 -1.599374
v -0.020049 0.493205 -1.888079
v -0.421028 0.493205 -1.888079
v -0.421028 0.429048 -1.888079
v -0.020049 0.429048 -1.888079
v -0.421028 0.493205 -1.952236
v -0.020049 0.493205 -1.952236
v -0.020049 0.429048 -1.952236
v -0.421028 0.429048 -1.952236
v -0.441077 0.272666 -1.920158
v -0.368957 0.287012 -1.920158
v -0.376379 0.304930 -1.893463
v -0.441077 0.292061 -1.893463
v -0.388388 0.333923 -1.903659
v -0.441077 0.323443 -1.903659
v -0.388388 0.333923 -1.936656
v -0.441077 0.323443 -1.936656
v -0.376379 0.304930 -1.946852
v -0.441077 0.292061 -1.946852
v -0.307816 0.327865 -1.920158
v -0.321530 0.341579 -1.893463
v -0.343720 0.363769 -1.903659
v -0.343720 0.363769 -1.936656
v -0.321530 0.341579 -1.946852
v -0.266963 0.389006 -1.920158
v -0.284881 0.396428 -1.893463
v -0.313874 0.408437 -1.903659
v -0.313874 0.408437 -1.936656
v -0.284881 0.396428 -1.946852
v -0.252617 0.461126 -1.920158
v -0.272012 0.461126 -1.893463
v -0.303394 0.461126 -1.903659
v -0.303394 0.461126 -1.936656
v -0.272012 0.461126 -1.946852
v -0.266963 0.533247 -1.920158
v -0.284881 0.525825 -1.893463
v -0.313874 0.513816 -1.903659
v -0.313874 0.513816 -1.936656
v -0.284881 0.525825 -1.946852
v -0.307816 0.594388 -1.920158
v -0.321530 0.580674 -1.893463
v -0.343720 0.558484 -1.903659
v -0.343720 0.558484 -1.936656
v -0.321530 0.580674 -1.946852
v -0.368957 0.635241 -1.920158
v -0.376379 0.617322 -1.893463
v -0.388388 0.588330 -1.903659
v -0.388388 0.588330 -1.936656
v -0.376379 0.617322 -1.946852
v -0.441077 0.649587 -1.920158
v -0.441077 0.630192 -1.893463
v -0.441077 0.598810 -1.903659
v -0.441077 0.598810 -1.936656
v -0.441077 0.630192 -1.946852
v -0.513198 0.635241 -1.920158
v -0.505776 0.617322 -1.893463
v -0.493767 0.588330 -1.903659
v -0.493767 0.588330 -1.936656
v -0.505776 0.617322 -1.946852
v -0.574339 0.594388 -1.920158
v -0.560625 0.580674 -1.893463
v -0.538435 0.558484 -1.903659
v -0.538435 0.558484 -1.936656
v -0.560625 0.580674 -1.946852
v -0.615192 0.533247 -1.920158
v -0.597273 0.525825 -1.893463
v -0.568281 0.513816 -1.903659
v -0.568281 0.513816 -1.936656
v -0.597273 0.525825 -1.946852
v -0.629538 0.461126 -1.920158
v -0.610143 0.461126 -1.893463
v -0.578761 0.461126 -1.903659
v -0.578761 0.461126 -1.936656
v -0.610143 0.461126 -1.946852
v -0.615192 0.389006 -1.920158
v -0.597273 0.396428 -1.893463
v -0.568281 0.408437 -1.903659
v -0.568281 0.408437 -1.936656
v -0.597273 0.396428 -1.946852
v -0.574339 0.327865 -1.920158
v -0.560625 0.341579 -1.893463
v -0.538435 0.363769 -1.903659
v -0.538435 0.363769 -1.936656
v -0.560625 0.341579 -1.946852
v -0.513198 0.287012 -1.920158
v -0.505776 0.304930 -1.893463
v -0.493767 0.333923 -1.903659
v -0.493767 0.333923 -1.936656
v -0.505776 0.304930 -1.946852
v -0.441077 0.461126 -2.265000
v -0.336736 0.356785 -2.265000
v -0.441077 0.313566 -2.265000
v -0.293517 0.461126 -2.265000
v -0.336736 0.565467 -2.265000
v -0.441077 0.608687 -2.265000
v -0.545418 0.565467 -2.265000
v -0.588638 0.461126 -2.265000
v -0.545418 0.356785 -2.265000
v -0.336736 0.356785 -2.184804
v -0.441077 0.313566 -2.184804
v -0.293517 0.461126 -2.184804
v -0.336736 0.565467 -2.184804
v -0.441077 0.608687 -2.184804
v -0.545418 0.565467 -2.184804
v -0.588638 0.461126 -2.184804
v -0.545418 0.356785 -2.184804
v -0.441077 0.461126 -2.184804
v 0.020049 0.429048 -1.888079
v 0.421028 0.429048 -1.888079
v 0.421028 0.493205 -1.888079
v 0.020049 0.493205 -1.888079
v 0.421028 0.429048 -1.952236
v 0.020049 0.429048 -1.952236
v 0.020049 0.493205 -1.952236
v 0.421028 0.493205 -1.952236
v 0.441077 0.272666 -1.920158
v 0.513198 0.287012 -1.920158
v 0.505776 0.304930 -1.893463
v 0.441077 0.292061 -1.893463
v 0.493767 0.333923 -1.903659
v 0.441077 0.323443 -1.903659
v 0.493767 0.333923 -1.936656
v 0.441077 0.323443 -1.936656
v 0.505776 0.304930 -1.946852
v 0.441077 0.292061 -1.946852
v 0.574339 0.327865 -1.920158
v 0.560625 0.341579 -1.893463
v 0.538435 0.363769 -1.903659
v 0.538435 0.363769 -1.936656
v 0.560625 0.341579 -1.946852
v 0.615192 0.389006 -1.920158
v 0.597273 0.396428 -1.893463
v 0.568281 0.408437 -1.903659
v 0.568281 0.408437 -1.936656
v 0.597273 0.396428 -1.946852
v 0.629538 0.461126 -1.920158
v 0.610143 0.461126 -1.893463
v 0.578761 0.461126 -1.903659
v 0.578761 0.461126 -1.936656
v 0.610143 0.461126 -1.946852
v 0.615192 0.533247 -1.920158
v 0.597273 0.525825 -1.893463
v 0.568281 0.513816 -1.903659
v 0.568281 0.513816 -1.936656
v 0.597273 0.525825 -1.946852
v 0.574339 0.594388 -1.920158
v 0.560625 0.580674 -1.893463
v 0.538435 0.558484 -1.903659
v 0.538435 0.558484 -1.936656
v 0.560625 0.580674 -1.946852
v 0.513198 0.635241 -1.920158
v 0.505776 0.617322 -1.893463
v 0.493767 0.588330 -1.903659
v 0.493767 0.588330 -1.936656
v 0.505776 0.617322 -1.946852
v 0.441077 0.649587 -1.920158
v 0.441077 0.630192 -1.893463
v 0.441077 0.598810 -1.903659
v 0.441077 0.598810 -1.936656
v 0.441077 0.630192 -1.946852
v 0.368957 0.635241 -1.920158
v 0.376379 0.617322 -1.893463
v 0.388388 0.588330 -1.903659
v 0.388388 0.588330 -1.936656
v 0.376379 0.617322 -1.946852
v 0.307816 0.594388 -1.920158
v 0.321530 0.580674 -1.893463
v 0.343720 0.558484 -1.903659
v 0.343720 0.558484 -1.936656
v 0.321530 0.580674 -1.946852
v 0.266963 0.533247 -1.920158
v 0.284881 0.525825 -1.893463
v 0.313874 0.513816 -1.903659
v 0.313874 0.513816 -1.936656
v 0.284881 0.525825 -1.946852
v 0.252617 0.461126 -1.920158
v 0.272012 0.461126 -1.893463
v 0.303394 0.461126 -1.903659
v 0.303394 0.461126 -1.936656
v 0.272012 0.461126 -1.946852
v 0.266963 0.389006 -1.920158
v 0.284881 0.396428 -1.893463
v 0.313874 0.408437 -1.903659
v 0.313874 0.408437 -1.936656
v 0.284881 0.396428 -1.946852
v 0.307816 0.327865 -1.920158
v 0.321530 0.341579 -1.893463
v 0.343720 0.363769 -1.903659
v 0.343720 0.363769 -1.936656
v 0.321530 0.341579 -1.946852
v 0.368957 0.287012 -1.920158
v 0.376379 0.304930 -1.893463
v 0.388388 0.333923 -1.903659
v 0.388388 0.333923 -1.936656
v 0.376379 0.304930 -1.946852
v 0.441077 0.461126 -2.265000
v 0.545418 0.356785 -2.265000
v 0.441077 0.313566 -2.265000
v 0.588638 0.461126 -2.265000
v 0.545418 0.565467 -2.265000
v 0.441077 0.608687 -2.265000
v 0.336736 0.565467 -2.265000
v 0.293517 0.461126 -2.265000
v 0.336736 0.356785 -2.265000
v 0.545418 0.356785 -2.184804
v 0.441077 0.313566 -2.184804
v 0.588638 0.461126 -2.184804
v 0.545418 0.565467 -2.184804
v 0.441077 0.608687 -2.184804
v 0.336736 0.565467 -2.184804
v 0.293517 0.461126 -2.184804
v 0.336736 0.356785 -2.184804
v 0.441077 0.461126 -2.184804
vt 0.843750 0.531250
vt 0.968750 0.531250
vt 0.968750 0.656250
vt 0.843750 0.656250
vt 0.968750 0.531250
vt 0.843750 0.531250
vt 0.843750 0.656250
vt 0.968750 0.656250
vt 0.843750 0.656250
vt 0.968750 0.656250
vt 0.968750 0.531250
vt 0.843750 0.531250
vt 0.843750 0.531250
vt 0.968750 0.531250
vt 0.968750 0.656250
vt 0.843750 0.656250
vt 0.468750 0.382812
vt 0.562500 0.382812
vt 0.562500 0.476562
vt 0.468750 0.476562
vt 0.195312 0.382812
vt 0.007812 0.382812
vt 0.007812 0.476562
vt 0.195312 0.476562
vt 0.007812 0.656250
vt 0.179688 0.656250
vt 0.179688 0.484375
vt 0.007812 0.484375
vt 0.007812 0.382812
vt 0.195312 0.382812
vt 0.195312 0.476562
vt 0.007812 0.476562
vt 0.671875 0.382812
vt 0.765625 0.382812
vt 0.765625 0.476562
vt 0.671875 0.476562
vt 0.765625 0.382812
vt 0.671875 0.382812
vt 0.671875 0.476562
vt 0.765625 0.476562
vt 0.570312 0.476562
vt 0.664062 0.476562
vt 0.664062 0.382812
vt 0.570312 0.382812
vt 0.671875 0.382812
vt 0.765625 0.382812
vt 0.765625 0.476562
vt 0.671875 0.476562
vt 0.671875 0.382812
vt 0.765625 0.382812
vt 0.765625 0.476562
vt 0.671875 0.476562
vt 0.765625 0.382812
vt 0.671875 0.382812
vt 0.671875 0.476562
vt 0.765625 0.476562
vt 0.570312 0.476562
vt 0.664062 0.476562
vt 0.664062 0.382812
vt 0.570312 0.382812
vt 0.671875 0.382812
vt 0.765625 0.382812
vt 0.765625 0.476562
vt 0.671875 0.476562
vt 0.718750 0.382812
vt 0.751896 0.382812
vt 0.747455 0.429688
vt 0.718750 0.429688
vt 0.751896 0.382812
vt 0.718750 0.382812
vt 0.718750 0.429688
vt 0.747455 0.429688
vt 0.685604 0.382812
vt 0.690045 0.429688
vt 0.751896 0.382812
vt 0.718750 0.382812
vt 0.718750 0.429688
vt 0.747455 0.429688
vt 0.685604 0.382812
vt 0.690045 0.429688
vt 0.685604 0.382812
vt 0.690045 0.429688
vt 0.617188 0.470282
vt 0.645892 0.458392
vt 0.633760 0.446260
vt 0.617188 0.453125
vt 0.657782 0.429688
vt 0.640625 0.429688
vt 0.645892 0.400983
vt 0.633760 0.413115
vt 0.617188 0.389093
vt 0.617188 0.406250
vt 0.588483 0.400983
vt 0.600615 0.413115
vt 0.576593 0.429688
vt 0.593750 0.429688
vt 0.588483 0.458392
vt 0.600615 0.446260
vt 0.617188 0.429688
vt 0.647055 0.391674
vt 0.653955 0.400536
vt 0.639908 0.400483
vt 0.663960 0.395398
vt 0.664062 0.388079
vt 0.654202 0.382866
vt 0.640156 0.382812
vt 0.630151 0.387950
vt 0.630048 0.395269
vt 0.741471 0.412883
vt 0.755517 0.412883
vt 0.755517 0.444723
vt 0.741471 0.444723
vt 0.765522 0.412883
vt 0.765522 0.444723
vt 0.684461 0.412883
vt 0.677142 0.412883
vt 0.677142 0.444723
vt 0.684461 0.444723
vt 0.671928 0.412883
vt 0.671928 0.444723
vt 0.755765 0.412883
vt 0.741718 0.412883
vt 0.741718 0.444723
vt 0.755765 0.444723
vt 0.731713 0.412883
vt 0.731713 0.444723
vt 0.677013 0.412883
vt 0.684332 0.412883
vt 0.684332 0.444723
vt 0.677013 0.444723
vt 0.689545 0.412883
vt 0.689545 0.444723
vt 0.671875 0.423496
vt 0.693006 0.423496
vt 0.693006 0.476562
vt 0.671875 0.476562
vt 0.759183 0.423496
vt 0.738052 0.423496
vt 0.738052 0.476562
vt 0.759183 0.476562
vt 0.570312 0.470905
vt 0.591443 0.475560
vt 0.657621 0.394002
vt 0.636490 0.389347
vt 0.678409 0.423496
vt 0.759967 0.423496
vt 0.759967 0.476562
vt 0.678409 0.476562
vt 0.764622 0.423496
vt 0.683064 0.423496
vt 0.683064 0.476562
vt 0.764622 0.476562
vt 0.672797 0.382812
vt 0.689702 0.382812
vt 0.689702 0.446492
vt 0.672797 0.446492
vt 0.696849 0.382812
vt 0.679944 0.382812
vt 0.679944 0.446492
vt 0.696849 0.446492
vt 0.571234 0.472838
vt 0.588139 0.476562
vt 0.595286 0.467754
vt 0.578382 0.464030
vt 0.753093 0.382812
vt 0.761901 0.382812
vt 0.761901 0.446492
vt 0.753093 0.446492
vt 0.765625 0.382812
vt 0.756817 0.382812
vt 0.756817 0.446492
vt 0.765625 0.446492
vt 0.587320 0.391674
vt 0.604327 0.395269
vt 0.594467 0.400483
vt 0.604224 0.387950
vt 0.594219 0.382812
vt 0.580173 0.382866
vt 0.570312 0.388079
vt 0.570415 0.395398
vt 0.580420 0.400536
vt 0.689545 0.412883
vt 0.684332 0.412883
vt 0.684332 0.444723
vt 0.689545 0.444723
vt 0.677013 0.412883
vt 0.677013 0.444723
vt 0.705787 0.412883
vt 0.695782 0.412883
vt 0.695782 0.444723
vt 0.705787 0.444723
vt 0.681735 0.412883
vt 0.681735 0.444723
vt 0.671928 0.412883
vt 0.677142 0.412883
vt 0.677142 0.444723
vt 0.671928 0.444723
vt 0.684461 0.412883
vt 0.684461 0.444723
vt 0.671978 0.412883
vt 0.681983 0.412883
vt 0.681983 0.444723
vt 0.671978 0.444723
vt 0.696029 0.412883
vt 0.696029 0.444723
vt 0.744494 0.423496
vt 0.765625 0.423496
vt 0.765625 0.476562
vt 0.744494 0.476562
vt 0.699448 0.423496
vt 0.678317 0.423496
vt 0.678317 0.476562
vt 0.699448 0.476562
vt 0.642932 0.475560
vt 0.664062 0.470905
vt 0.597885 0.389347
vt 0.576754 0.394002
vt 0.683064 0.423496
vt 0.764622 0.423496
vt 0.764622 0.476562
vt 0.683064 0.476562
vt 0.759967 0.423496
vt 0.678409 0.423496
vt 0.678409 0.476562
vt 0.759967 0.476562
vt 0.747798 0.382812
vt 0.764703 0.382812
vt 0.764703 0.446492
vt 0.747798 0.446492
vt 0.757556 0.382812
vt 0.740651 0.382812
vt 0.740651 0.446492
vt 0.757556 0.446492
vt 0.646236 0.476562
vt 0.663141 0.472838
vt 0.655993 0.464030
vt 0.639089 0.467754
vt 0.756817 0.382812
vt 0.765625 0.382812
vt 0.765625 0.446492
vt 0.756817 0.446492
vt 0.761901 0.382812
vt 0.753093 0.382812
vt 0.753093 0.446492
vt 0.761901 0.446492
vt 0.203125 0.382812
vt 0.328125 0.382812
vt 0.328125 0.476562
vt 0.203125 0.476562
vt 0.460938 0.382812
vt 0.335938 0.382812
vt 0.335938 0.476562
vt 0.460938 0.476562
vt 0.343750 0.992188
vt 0.546875 0.992188
vt 0.546875 0.664062
vt 0.343750 0.664062
vt 0.109375 0.296875
vt 0.484375 0.296875
vt 0.484375 0.375000
vt 0.109375 0.375000
vt 0.875000 0.382812
vt 0.968750 0.382812
vt 0.968750 0.476562
vt 0.875000 0.476562
vt 0.968750 0.382812
vt 0.875000 0.382812
vt 0.875000 0.476562
vt 0.968750 0.476562
vt 0.773438 0.476562
vt 0.867188 0.476562
vt 0.867188 0.382812
vt 0.773438 0.382812
vt 0.875000 0.382812
vt 0.968750 0.382812
vt 0.968750 0.476562
vt 0.875000 0.476562
vt 0.875000 0.382812
vt 0.968750 0.382812
vt 0.968750 0.476562
vt 0.875000 0.476562
vt 0.968750 0.382812
vt 0.875000 0.382812
vt 0.875000 0.476562
vt 0.968750 0.476562
vt 0.773438 0.476562
vt 0.867188 0.476562
vt 0.867188 0.382812
vt 0.773438 0.382812
vt 0.875000 0.382812
vt 0.968750 0.382812
vt 0.968750 0.476562
vt 0.875000 0.476562
vt 0.875000 0.382812
vt 0.968750 0.382812
vt 0.968750 0.476562
vt 0.875000 0.476562
vt 0.968750 0.382812
vt 0.875000 0.382812
vt 0.875000 0.476562
vt 0.968750 0.476562
vt 0.773438 0.476562
vt 0.867188 0.476562
vt 0.867188 0.382812
vt 0.773438 0.382812
vt 0.875000 0.382812
vt 0.968750 0.382812
vt 0.968750 0.476562
vt 0.875000 0.476562
vt 0.875000 0.382812
vt 0.968750 0.382812
vt 0.968750 0.476562
vt 0.875000 0.476562
vt 0.968750 0.382812
vt 0.875000 0.382812
vt 0.875000 0.476562
vt 0.968750 0.476562
vt 0.773438 0.476562
vt 0.867188 0.476562
vt 0.867188 0.382812
vt 0.773438 0.382812
vt 0.875000 0.382812
vt 0.968750 0.382812
vt 0.968750 0.476562
vt 0.875000 0.476562
vt 0.539062 0.234375
vt 0.572208 0.206754
vt 0.539062 0.195312
vt 0.585938 0.234375
vt 0.572208 0.261996
vt 0.539062 0.273438
vt 0.505917 0.261996
vt 0.492188 0.234375
vt 0.505917 0.206754
vt 0.589844 0.664062
vt 0.614703 0.664062
vt 0.614703 0.992188
vt 0.589844 0.992188
vt 0.327895 0.206754
vt 0.382812 0.234375
vt 0.327895 0.261996
vt 0.564985 0.664062
vt 0.564985 0.992188
vt 0.492188 0.363559
vt 0.492188 0.335938
vt 0.867188 0.335938
vt 0.867188 0.363559
vt 0.492188 0.308316
vt 0.867188 0.308316
vt 0.437500 0.195312
vt 0.470646 0.206754
vt 0.437500 0.234375
vt 0.484375 0.234375
vt 0.470646 0.261996
vt 0.437500 0.273438
vt 0.404354 0.261996
vt 0.390625 0.234375
vt 0.404354 0.206754
vt 0.539062 0.234375
vt 0.572208 0.206754
vt 0.539062 0.195312
vt 0.585938 0.234375
vt 0.572208 0.261996
vt 0.539062 0.273438
vt 0.505917 0.261996
vt 0.492188 0.234375
vt 0.505917 0.206754
vt 0.589844 0.664062
vt 0.614703 0.664062
vt 0.614703 0.992188
vt 0.589844 0.992188
vt 0.492188 0.308316
vt 0.492188 0.335938
vt 0.867188 0.335938
vt 0.867188 0.308316
vt 0.492188 0.363559
vt 0.867188 0.363559
vt 0.564985 0.664062
vt 0.564985 0.992188
vt 0.062730 0.261996
vt 0.007812 0.234375
vt 0.062730 0.206754
vt 0.437500 0.195312
vt 0.470646 0.206754
vt 0.437500 0.234375
vt 0.484375 0.234375
vt 0.470646 0.261996
vt 0.437500 0.273438
vt 0.404354 0.261996
vt 0.390625 0.234375
vt 0.404354 0.206754
vt 0.968750 0.656250
vt 0.843750 0.656250
vt 0.843750 0.531250
vt 0.968750 0.531250
vt 0.843750 0.656250
vt 0.968750 0.656250
vt 0.968750 0.531250
vt 0.843750 0.531250
vt 0.968750 0.656250
vt 0.843750 0.656250
vt 0.843750 0.531250
vt 0.968750 0.531250
vt 0.843750 0.656250
vt 0.968750 0.656250
vt 0.968750 0.531250
vt 0.843750 0.531250
vt 0.718750 0.242188
vt 0.766585 0.242188
vt 0.761663 0.273438
vt 0.718750 0.273438
vt 0.515625 0.103171
vt 0.558538 0.104237
vt 0.550572 0.106641
vt 0.515625 0.105772
vt 0.718750 0.261501
vt 0.753697 0.261501
vt 0.753697 0.222874
vt 0.718750 0.222874
vt 0.515625 0.105772
vt 0.550572 0.106641
vt 0.558538 0.104237
vt 0.515625 0.103171
vt 0.718750 0.210938
vt 0.761663 0.210938
vt 0.807138 0.242188
vt 0.798042 0.273438
vt 0.594917 0.107276
vt 0.580199 0.109116
vt 0.783324 0.261501
vt 0.783324 0.222874
vt 0.580199 0.109116
vt 0.594917 0.107276
vt 0.798042 0.210938
vt 0.515625 0.106139
vt 0.515625 0.111208
vt 0.640625 0.111823
vt 0.640625 0.107276
vt 0.619225 0.111823
vt 0.599995 0.112819
vt 0.592879 0.109116
vt 0.592879 0.112819
vt 0.438371 0.112819
vt 0.438371 0.109116
vt 0.599995 0.112819
vt 0.619225 0.111823
vt 0.390625 0.107276
vt 0.390625 0.111823
vt 0.515625 0.117188
vt 0.640625 0.117188
vt 0.627761 0.117188
vt 0.606946 0.117188
vt 0.592879 0.117188
vt 0.438371 0.117188
vt 0.606946 0.117188
vt 0.627761 0.117188
vt 0.390625 0.117188
vt 0.515625 0.123167
vt 0.640625 0.122552
vt 0.619225 0.122552
vt 0.599995 0.121556
vt 0.592879 0.121556
vt 0.438371 0.121556
vt 0.599995 0.121556
vt 0.619225 0.122552
vt 0.390625 0.122552
vt 0.515625 0.128236
vt 0.640625 0.127099
vt 0.594917 0.127099
vt 0.580199 0.125259
vt 0.592879 0.125259
vt 0.438371 0.125259
vt 0.580199 0.125259
vt 0.594917 0.127099
vt 0.390625 0.127099
vt 0.558538 0.130138
vt 0.550572 0.127734
vt 0.550572 0.127734
vt 0.558538 0.130138
vt 0.515625 0.131204
vt 0.515625 0.128603
vt 0.515625 0.128603
vt 0.515625 0.131204
vt 0.670915 0.242188
vt 0.675837 0.273438
vt 0.472712 0.130138
vt 0.480678 0.127734
vt 0.683803 0.261501
vt 0.683803 0.222874
vt 0.480678 0.127734
vt 0.472712 0.130138
vt 0.675837 0.210938
vt 0.630362 0.242188
vt 0.639458 0.273438
vt 0.436333 0.127099
vt 0.451051 0.125259
vt 0.654176 0.261501
vt 0.654176 0.222874
vt 0.451051 0.125259
vt 0.436333 0.127099
vt 0.639458 0.210938
vt 0.412025 0.122552
vt 0.431255 0.121556
vt 0.431255 0.121556
vt 0.412025 0.122552
vt 0.403489 0.117188
vt 0.424304 0.117188
vt 0.424304 0.117188
vt 0.403489 0.117188
vt 0.412025 0.111823
vt 0.431255 0.112819
vt 0.431255 0.112819
vt 0.412025 0.111823
vt 0.436333 0.107276
vt 0.451051 0.109116
vt 0.451051 0.109116
vt 0.436333 0.107276
vt 0.472712 0.104237
vt 0.480678 0.106641
vt 0.480678 0.106641
vt 0.472712 0.104237
vt 0.054688 0.328125
vt 0.087833 0.294979
vt 0.054688 0.281250
vt 0.101562 0.328125
vt 0.087833 0.361271
vt 0.054688 0.375000
vt 0.021542 0.361271
vt 0.007812 0.328125
vt 0.021542 0.294979
vt 0.054688 0.281250
vt 0.087833 0.281250
vt 0.087833 0.375000
vt 0.054688 0.375000
vt 0.007812 0.294979
vt 0.007812 0.328125
vt 0.101562 0.328125
vt 0.101562 0.294979
vt 0.007812 0.361271
vt 0.101562 0.361271
vt 0.021542 0.281250
vt 0.021542 0.375000
vt 0.054688 0.281250
vt 0.087833 0.294979
vt 0.054688 0.328125
vt 0.101562 0.328125
vt 0.087833 0.361271
vt 0.054688 0.375000
vt 0.021542 0.361271
vt 0.007812 0.328125
vt 0.021542 0.294979
vt 0.843750 0.531250
vt 0.968750 0.531250
vt 0.968750 0.656250
vt 0.843750 0.656250
vt 0.968750 0.531250
vt 0.843750 0.531250
vt 0.843750 0.656250
vt 0.968750 0.656250
vt 0.843750 0.656250
vt 0.968750 0.656250
vt 0.968750 0.531250
vt 0.843750 0.531250
vt 0.843750 0.531250
vt 0.968750 0.531250
vt 0.968750 0.656250
vt 0.843750 0.656250
vt 0.718750 0.242188
vt 0.766585 0.242188
vt 0.761663 0.273438
vt 0.718750 0.273438
vt 0.515625 0.103171
vt 0.558538 0.104237
vt 0.550572 0.106641
vt 0.515625 0.105772
vt 0.718750 0.261501
vt 0.753697 0.261501
vt 0.753697 0.222874
vt 0.718750 0.222874
vt 0.515625 0.105772
vt 0.550572 0.106641
vt 0.558538 0.104237
vt 0.515625 0.103171
vt 0.718750 0.210938
vt 0.761663 0.210938
vt 0.807138 0.242188
vt 0.798042 0.273438
vt 0.594917 0.107276
vt 0.580199 0.109116
vt 0.783324 0.261501
vt 0.783324 0.222874
vt 0.580199 0.109116
vt 0.594917 0.107276
vt 0.798042 0.210938
vt 0.515625 0.106139
vt 0.515625 0.111208
vt 0.640625 0.111823
vt 0.640625 0.107276
vt 0.619225 0.111823
vt 0.599995 0.112819
vt 0.592879 0.109116
vt 0.592879 0.112819
vt 0.438371 0.112819
vt 0.438371 0.109116
vt 0.599995 0.112819
vt 0.619225 0.111823
vt 0.390625 0.107276
vt 0.390625 0.111823
vt 0.515625 0.117188
vt 0.640625 0.117188
vt 0.627761 0.117188
vt 0.606946 0.117188
vt 0.592879 0.117188
vt 0.438371 0.117188
vt 0.606946 0.117188
vt 0.627761 0.117188
vt 0.390625 0.117188
vt 0.515625 0.123167
vt 0.640625 0.122552
vt 0.619225 0.122552
vt 0.599995 0.121556
vt 0.592879 0.121556
vt 0.438371 0.121556
vt 0.599995 0.121556
vt 0.619225 0.122552
vt 0.390625 0.122552
vt 0.515625 0.128236
vt 0.640625 0.127099
vt 0.594917 0.127099
vt 0.580199 0.125259
vt 0.592879 0.125259
vt 0.438371 0.125259
vt 0.580199 0.125259
vt 0.594917 0.127099
vt 0.390625 0.127099
vt 0.558538 0.130138
vt 0.550572 0.127734
vt 0.550572 0.127734
vt 0.558538 0.130138
vt 0.515625 0.131204
vt 0.515625 0.128603
vt 0.515625 0.128603
vt 0.515625 0.131204
vt 0.670915 0.242188
vt 0.675837 0.273438
vt 0.472712 0.130138
vt 0.480678 0.127734
vt 0.683803 0.261501
vt 0.683803 0.222874
vt 0.480678 0.127734
vt 0.472712 0.130138
vt 0.675837 0.210938
vt 0.630362 0.242188
vt 0.639458 0.273438
vt 0.436333 0.127099
vt 0.451051 0.125259
vt 0.654176 0.261501
vt 0.654176 0.222874
vt 0.451051 0.125259
vt 0.436333 0.127099
vt 0.639458 0.210938
vt 0.412025 0.122552
vt 0.431255 0.121556
vt 0.431255 0.121556
vt 0.412025 0.122552
vt 0.403489 0.117188
vt 0.424304 0.117188
vt 0.424304 0.117188
vt 0.403489 0.117188
vt 0.412025 0.111823
vt 0.431255 0.112819
vt 0.431255 0.112819
vt 0.412025 0.111823
vt 0.436333 0.107276
vt 0.451051 0.109116
vt 0.451051 0.109116
vt 0.436333 0.107276
vt 0.472712 0.104237
vt 0.480678 0.106641
vt 0.480678 0.106641
vt 0.472712 0.104237
vt 0.054687 0.328125
vt 0.087833 0.294979
vt 0.054687 0.281250
vt 0.101562 0.328125
vt 0.087833 0.361271
vt 0.054687 0.375000
vt 0.021542 0.361271
vt 0.007812 0.328125
vt 0.021542 0.294979
vt 0.054687 0.281250
vt 0.087833 0.281250
vt 0.087833 0.375000
vt 0.054687 0.375000
vt 0.007812 0.294979
vt 0.007812 0.328125
vt 0.101562 0.328125
vt 0.101562 0.294979
vt 0.007812 0.361271
vt 0.101562 0.361271
vt 0.021542 0.281250
vt 0.021542 0.375000
vt 0.054687 0.281250
vt 0.087833 0.294979
vt 0.054687 0.328125
vt 0.101562 0.328125
vt 0.087833 0.361271
vt 0.054687 0.375000
vt 0.021542 0.361271
vt 0.007812 0.328125
vt 0.021542 0.294979
vn 0.000000 0.000000 1.000000
vn 0.000000 0.000000 -1.000000
vn -0.000000 1.000000 0.000000
vn 0.000000 -1.000000 0.000000
vn -1.000000 0.000000 0.000000
vn 1.000000 0.000000 0.000000
vn 0.000000 0.000000 1.000000
vn 0.000000 0.000000 -1.000000
vn -0.000000 1.000000 0.000000
vn 0.000000 -1.000000 0.000000
vn -1.000000 0.000000 0.000000
vn 1.000000 0.000000 0.000000
vn 0.000000 0.000000 1.000000
vn 0.000000 0.000000 -1.000000
vn -0.000000 1.000000 0.000000
vn 0.000000 -1.000000 0.000000
vn -1.000000 0.000000 0.000000
vn 1.000000 0.000000 0.000000
vn 0.000000 0.000000 1.000000
vn 0.000000 0.000000 -1.000000
vn -0.000000 1.000000 0.000000
vn 0.000000 -1.000000 0.000000
vn -1.000000 0.000000 0.000000
vn 1.000000 0.000000 0.000000
vn 0.371470 0.240299 0.896809
vn 0.896809 0.240299 0.371470
vn 0.896809 0.240299 -0.371470
vn 0.371470 0.240299 -0.896809
vn -0.371470 0.240299 -0.896809
vn -0.896809 0.240299 -0.371470
vn -0.896809 0.240299 0.371470
vn -0.371470 0.240299 0.896809
vn 0.281085 0.678598 0.678598
vn 0.678598 0.678598 0.281085
vn 0.678598 0.678598 -0.281085
vn 0.281085 0.678598 -0.678598
vn -0.281085 0.678598 -0.678598
vn -0.678598 0.678598 -0.281085
vn -0.678598 0.678598 0.281085
vn -0.281085 0.678598 0.678598
vn 0.106596 0.960422 0.257344
vn 0.257344 0.960422 0.106596
vn 0.257344 0.960422 -0.106596
vn 0.106596 0.960422 -0.257344
vn -0.106596 0.960422 -0.257344
vn -0.257344 0.960422 -0.106596
vn -0.257344 0.960422 0.106596
vn -0.106596 0.960422 0.257344
vn 0.000000 -1.000000 0.000000
vn -0.007301 0.000000 0.999973
vn 0.701925 0.000000 0.712250
vn 0.999973 0.000000 0.007301
vn 0.712250 0.000000 -0.701925
vn 0.007301 0.000000 -0.999973
vn -0.701925 0.000000 -0.712250
vn -0.999973 0.000000 -0.007301
vn -0.712250 0.000000 0.701925
vn -0.000000 1.000000 0.000000
vn -0.389418 0.000000 0.921061
vn 0.389418 0.000000 -0.921061
vn -0.921061 0.000000 -0.389418
vn 0.921061 0.000000 0.389418
vn 0.000000 -1.000000 0.000000
vn 0.712250 0.000000 0.701925
vn 0.999973 0.000000 -0.007301
vn 0.701925 0.000000 -0.712250
vn -0.007301 0.000000 -0.999973
vn -0.712250 0.000000 -0.701925
vn -0.999973 0.000000 0.007301
vn -0.701925 0.000000 0.712250
vn 0.007301 0.000000 0.999973
vn 0.000000 1.000000 0.000000
vn 0.389418 0.000000 0.921061
vn -0.389418 0.000000 -0.921061
vn -0.921061 0.000000 0.389418
vn 0.921061 0.000000 -0.389418
vn 0.000000 0.000000 1.000000
vn 0.000000 0.000000 -1.000000
vn -0.000000 1.000000 0.000000
vn 0.000000 -1.000000 0.000000
vn -1.000000 0.000000 0.000000
vn 1.000000 0.000000 0.000000
vn 0.000000 0.000000 1.000000
vn 0.000000 0.000000 -1.000000
vn -0.000000 1.000000 0.000000
vn 0.000000 -1.000000 0.000000
vn -1.000000 0.000000 0.000000
vn 1.000000 0.000000 0.000000
vn 0.000000 0.000000 1.000000
vn 0.000000 0.000000 -1.000000
vn -0.000000 1.000000 0.000000
vn 0.000000 -1.000000 0.000000
vn -1.000000 0.000000 0.000000
vn 1.000000 0.000000 0.000000
vn 0.000000 0.000000 1.000000
vn 0.000000 0.000000 -1.000000
vn -0.000000 1.000000 0.000000
vn 0.000000 -1.000000 0.000000
vn -1.000000 0.000000 0.000000
vn 1.000000 0.000000 0.000000
vn 0.000000 0.000000 1.000000
vn 0.000000 0.000000 -1.000000
vn -0.000000 1.000000 0.000000
vn 0.000000 -1.000000 0.000000
vn -1.000000 0.000000 0.000000
vn 1.000000 0.000000 0.000000
vn 0.000000 0.000000 -1.000000
vn 0.382683 -0.923880 0.000000
vn 0.923880 -0.382683 0.000000
vn 0.923880 0.382683 -0.000000
vn 0.382683 0.923880 -0.000000
vn -0.382683 0.923880 -0.000000
vn -0.923880 0.382683 -0.000000
vn -0.923880 -0.382683 0.000000
vn -0.382683 -0.923880 0.000000
vn 0.000000 0.000000 1.000000
vn 0.000000 0.000000 -1.000000
vn 0.382683 -0.923880 0.000000
vn 0.923880 -0.382683 0.000000
vn 0.923880 0.382683 -0.000000
vn 0.382683 0.923880 -0.000000
vn -0.382683 0.923880 -0.000000
vn -0.923880 0.382683 -0.000000
vn -0.923880 -0.382683 0.000000
vn -0.382683 -0.923880 0.000000
vn 0.000000 0.000000 1.000000
vn 0.000000 0.000000 1.000000
vn 0.000000 0.000000 -1.000000
vn -0.000000 -1.000000 0.000000
vn 0.000000 1.000000 0.000000
vn 1.000000 0.000000 -0.000000
vn -1.000000 0.000000 -0.000000
vn 0.158879 -0.798741 0.580319
vn -0.061352 0.308435 0.949265
vn -0.195090 0.980785 0.000000
vn -0.061352 0.308435 -0.949265
vn 0.158879 -0.798741 -0.580319
vn 0.452450 -0.677140 0.580319
vn -0.174714 0.261478 0.949265
vn -0.555570 0.831470 0.000000
vn -0.174714 0.261478 -0.949265
vn 0.452450 -0.677140 -0.580319
vn 0.677140 -0.452450 0.580319
vn -0.261478 0.174714 0.949265
vn -0.831470 0.555570 0.000000
vn -0.261478 0.174714 -0.949265
vn 0.677140 -0.452450 -0.580319
vn 0.798741 -0.158879 0.580319
vn -0.308435 0.061352 0.949265
vn -0.980785 0.195090 0.000000
vn -0.308435 0.061352 -0.949265
vn 0.798741 -0.158879 -0.580319
vn 0.798741 0.158879 0.580319
vn -0.308435 -0.061352 0.949265
vn -0.980785 -0.195090 0.000000
vn -0.308435 -0.061352 -0.949265
vn 0.798741 0.158879 -0.580319
vn 0.677140 0.452450 0.580319
vn -0.261478 -0.174714 0.949265
vn -0.831470 -0.555570 0.000000
vn -0.261478 -0.174714 -0.949265
vn 0.677140 0.452450 -0.580319
vn 0.452450 0.677140 0.580319
vn -0.174714 -0.261478 0.949265
vn -0.555570 -0.831470 0.000000
vn -0.174714 -0.261478 -0.949265
vn 0.452450 0.677140 -0.580319
vn 0.158879 0.798741 0.580319
vn -0.061352 -0.308435 0.949265
vn -0.195090 -0.980785 0.000000
vn -0.061352 -0.308435 -0.949265
vn 0.158879 0.798741 -0.580319
vn -0.158879 0.798741 0.580319
vn 0.061352 -0.308435 0.949265
vn 0.195090 -0.980785 0.000000
vn 0.061352 -0.308435 -0.949265
vn -0.158879 0.798741 -0.580319
vn -0.452450 0.677140 0.580319
vn 0.174714 -0.261478 0.949265
vn 0.555570 -0.831470 0.000000
vn 0.174714 -0.261478 -0.949265
vn -0.452450 0.677140 -0.580319
vn -0.677140 0.452450 0.580319
vn 0.261478 -0.174714 0.949265
vn 0.831470 -0.555570 0.000000
vn 0.261478 -0.174714 -0.949265
vn -0.677140 0.452450 -0.580319
vn -0.798741 0.158879 0.580319
vn 0.308435 -0.061352 0.949265
vn 0.980785 -0.195090 0.000000
vn 0.308435 -0.061352 -0.949265
vn -0.798741 0.158879 -0.580319
vn -0.798741 -0.158879 0.580319
vn 0.308435 0.061352 0.949265
vn 0.980785 0.195090 0.000000
vn 0.308435 0.061352 -0.949265
vn -0.798741 -0.158879 -0.580319
vn -0.677140 -0.452450 0.580319
vn 0.261478 0.174714 0.949265
vn 0.831470 0.555570 0.000000
vn 0.261478 0.174714 -0.949265
vn -0.677140 -0.452450 -0.580319
vn -0.452450 -0.677140 0.580319
vn 0.174714 0.261478 0.949265
vn 0.555570 0.831470 0.000000
vn 0.174714 0.261478 -0.949265
vn -0.452450 -0.677140 -0.580319
vn -0.158879 -0.798741 0.580319
vn 0.061352 0.308435 0.949265
vn 0.195090 0.980785 0.000000
vn 0.061352 0.308435 -0.949265
vn -0.158879 -0.798741 -0.580319
vn 0.000000 0.000000 -1.000000
vn 0.382683 -0.923880 0.000000
vn 0.923880 -0.382683 0.000000
vn 0.923880 0.382683 0.000000
vn 0.382683 0.923880 0.000000
vn -0.382683 0.923880 0.000000
vn -0.923880 0.382683 -0.000000
vn -0.923880 -0.382683 0.000000
vn -0.382683 -0.923880 0.000000
vn 0.000000 0.000000 1.000000
vn 0.000000 0.000000 1.000000
vn 0.000000 0.000000 -1.000000
vn -0.000000 1.000000 0.000000
vn 0.000000 -1.000000 0.000000
vn -1.000000 0.000000 0.000000
vn 1.000000 0.000000 0.000000
vn 0.158879 -0.798741 0.580319
vn -0.061352 0.308435 0.949265
vn -0.195090 0.980785 0.000000
vn -0.061352 0.308435 -0.949265
vn 0.158879 -0.798741 -0.580319
vn 0.452450 -0.677140 0.580319
vn -0.174714 0.261478 0.949265
vn -0.555570 0.831470 0.000000
vn -0.174714 0.261478 -0.949265
vn 0.452450 -0.677140 -0.580319
vn 0.677140 -0.452450 0.580319
vn -0.261478 0.174714 0.949265
vn -0.831470 0.555570 0.000000
vn -0.261478 0.174714 -0.949265
vn 0.677140 -0.452450 -0.580319
vn 0.798741 -0.158879 0.580319
vn -0.308435 0.061352 0.949265
vn -0.980785 0.195090 0.000000
vn -0.308435 0.061352 -0.949265
vn 0.798741 -0.158879 -0.580319
vn 0.798741 0.158879 0.580319
vn -0.308435 -0.061352 0.949265
vn -0.980785 -0.195090 0.000000
vn -0.308435 -0.061352 -0.949265
vn 0.798741 0.158879 -0.580319
vn 0.677140 0.452450 0.580319
vn -0.261478 -0.174714 0.949265
vn -0.831470 -0.555570 0.000000
vn -0.261478 -0.174714 -0.949265
vn 0.677140 0.452450 -0.580319
vn 0.452450 0.677140 0.580319
vn -0.174714 -0.261478 0.949265
vn -0.555570 -0.831470 0.000000
vn -0.174714 -0.261478 -0.949265
vn 0.452450 0.677140 -0.580319
vn 0.158879 0.798741 0.580319
vn -0.061352 -0.308435 0.949265
vn -0.195090 -0.980785 0.000000
vn -0.061352 -0.308435 -0.949265
vn 0.158879 0.798741 -0.580319
vn -0.158879 0.798741 0.580319
vn 0.061352 -0.308435 0.949265
vn 0.195090 -0.980785 0.000000
vn 0.061352 -0.308435 -0.949265
vn -0.158879 0.798741 -0.580319
vn -0.452450 0.677140 0.580319
vn 0.174714 -0.261478 0.949265
vn 0.555570 -0.831470 0.000000
vn 0.174714 -0.261478 -0.949265
vn -0.452450 0.677140 -0.580319
vn -0.677140 0.452450 0.580319
vn 0.261478 -0.174714 0.949265
vn 0.831470 -0.555570 0.000000
vn 0.261478 -0.174714 -0.949265
vn -0.677140 0.452450 -0.580319
vn -0.798741 0.158879 0.580319
vn 0.308435 -0.061352 0.949265
vn 0.980785 -0.195090 0.000000
vn 0.308435 -0.061352 -0.949265
vn -0.798741 0.158879 -0.580319
vn -0.798741 -0.158879 0.580319
vn 0.308435 0.061352 0.949265
vn 0.980785 0.195090 0.000000
vn 0.308435 0.061352 -0.949265
vn -0.798741 -0.158879 -0.580319
vn -0.677140 -0.452450 0.580319
vn 0.261478 0.174714 0.949265
vn 0.831470 0.555570 0.000000
vn 0.261478 0.174714 -0.949265
vn -0.677140 -0.452450 -0.580319
vn -0.452450 -0.677140 0.580319
vn 0.174714 0.261478 0.949265
vn 0.555570 0.831470 0.000000
vn 0.174714 0.261478 -0.949265
vn -0.452450 -0.677140 -0.580319
vn -0.158879 -0.798741 0.580319
vn 0.061352 0.308435 0.949265
vn 0.195090 0.980785 0.000000
vn 0.061352 0.308435 -0.949265
vn -0.158879 -0.798741 -0.580319
vn 0.000000 0.000000 -1.000000
vn 0.382683 -0.923880 0.000000
vn 0.923880 -0.382683 0.000000
vn 0.923880 0.382683 0.000000
vn 0.382683 0.923880 0.000000
vn -0.382683 0.923880 0.000000
vn -0.923880 0.382683 -0.000000
vn -0.923880 -0.382683 0.000000
vn -0.382683 -0.923880 0.000000
vn 0.000000 0.000000 1.000000
f 1/1/1 2/2/1 3/3/1
f 1/1/1 3/3/1 4/4/1
f 5/5/2 6/6/2 7/7/2
f 5/5/2 7/7/2 8/8/2
f 4/9/3 3/10/3 8/11/3
f 4/9/3 8/11/3 7/12/3
f 6/12/4 5/11/4 2/10/4
f 6/12/4 2/10/4 1/9/4
f 6/13/5 1/14/5 4/15/5
f 6/13/5 4/15/5 7/16/5
f 2/14/6 5/13/6 8/16/6
f 2/14/6 8/16/6 3/15/6
f 9/17/7 10/18/7 11/19/7
f 9/17/7 11/19/7 12/20/7
f 13/21/8 14/22/8 15/23/8
f 13/21/8 15/23/8 16/24/8
f 12/25/9 11/26/9 16/27/9
f 12/25/9 16/27/9 15/28/9
f 14/28/10 13/27/10 10/26/10
f 14/28/10 10/26/10 9/25/10
f 14/29/11 9/30/11 12/31/11
f 14/29/11 12/31/11 15/32/11
f 10/30/12 13/29/12 16/32/12
f 10/30/12 16/32/12 11/31/12
f 17/33/13 18/34/13 19/35/13
f 17/33/13 19/35/13 20/36/13
f 21/37/14 22/38/14 23/39/14
f 21/37/14 23/39/14 24/40/14
f 20/41/15 19/42/15 24/43/15
f 20/41/15 24/43/15 23/44/15
f 22/44/16 21/43/16 18/42/16
f 22/44/16 18/42/16 17/41/16
f 22/45/17 17/46/17 20/47/17
f 22/45/17 20/47/17 23/48/17
f 18/46/18 21/45/18 24/48/18
f 18/46/18 24/48/18 19/47/18
f 25/49/19 26/50/19 27/51/19
f 25/49/19 27/51/19 28/52/19
f 29/53/20 30/54/20 31/55/20
f 29/53/20 31/55/20 32/56/20
f 28/57/21 27/58/21 32/59/21
f 28/57/21 32/59/21 31/60/21
f 30/60/22 29/59/22 26/58/22
f 30/60/22 26/58/22 25/57/22
f 30/61/23 25/62/23 28/63/23
f 30/61/23 28/63/23 31/64/23
f 26/62/24 29/61/24 32/64/24
f 26/62/24 32/64/24 27/63/24
f 33/65/25 34/66/25 35/67/25
f 33/65/25 35/67/25 36/68/25
f 34/69/26 37/70/26 38/71/26
f 34/69/26 38/71/26 35/72/26
f 37/70/27 39/73/27 40/74/27
f 37/70/27 40/74/27 38/71/27
f 39/75/28 41/76/28 42/77/28
f 39/75/28 42/77/28 40/78/28
f 41/76/29 43/79/29 44/80/29
f 41/76/29 44/80/29 42/77/29
f 43/73/30 45/70/30 46/71/30
f 43/73/30 46/71/30 44/74/30
f 45/70/31 47/69/31 48/72/31
f 45/70/31 48/72/31 46/71/31
f 47/81/32 33/65/32 36/68/32
f 47/81/32 36/68/32 48/82/32
f 36/83/33 35/84/33 49/85/33
f 36/83/33 49/85/33 50/86/33
f 35/84/34 38/87/34 51/88/34
f 35/84/34 51/88/34 49/85/34
f 38/87/35 40/89/35 52/90/35
f 38/87/35 52/90/35 51/88/35
f 40/89/36 42/91/36 53/92/36
f 40/89/36 53/92/36 52/90/36
f 42/91/37 44/93/37 54/94/37
f 42/91/37 54/94/37 53/92/37
f 44/93/38 46/95/38 55/96/38
f 44/93/38 55/96/38 54/94/38
f 46/95/39 48/97/39 56/98/39
f 46/95/39 56/98/39 55/96/39
f 48/97/40 36/83/40 50/86/40
f 48/97/40 50/86/40 56/98/40
f 50/86/41 49/85/41 57/99/41
f 49/85/42 51/88/42 57/99/42
f 51/88/43 52/90/43 57/99/43
f 52/90/44 53/92/44 57/99/44
f 53/92/45 54/94/45 57/99/45
f 54/94/46 55/96/46 57/99/46
f 55/96/47 56/98/47 57/99/47
f 56/98/48 50/86/48 57/99/48
f 58/100/49 59/101/49 60/102/49
f 58/100/49 61/103/49 59/101/49
f 58/100/49 62/104/49 61/103/49
f 58/100/49 63/105/49 62/104/49
f 58/100/49 64/106/49 63/105/49
f 58/100/49 65/107/49 64/106/49
f 58/100/49 66/108/49 65/107/49
f 58/100/49 60/102/49 66/108/49
f 60/109/50 59/110/50 67/111/50
f 60/109/50 67/111/50 68/112/50
f 59/110/51 61/113/51 69/114/51
f 59/110/51 69/114/51 67/111/51
f 61/115/52 62/116/52 70/117/52
f 61/115/52 70/117/52 69/118/52
f 62/116/53 63/119/53 71/120/53
f 62/116/53 71/120/53 70/117/53
f 63/121/54 64/122/54 72/123/54
f 63/121/54 72/123/54 71/124/54
f 64/122/55 65/125/55 73/126/55
f 64/122/55 73/126/55 72/123/55
f 65/127/56 66/128/56 74/129/56
f 65/127/56 74/129/56 73/130/56
f 66/128/57 60/131/57 68/132/57
f 66/128/57 68/132/57 74/129/57
f 68/102/58 67/101/58 75/100/58
f 67/101/58 69/103/58 75/100/58
f 69/103/58 70/104/58 75/100/58
f 70/104/58 71/105/58 75/100/58
f 71/105/58 72/106/58 75/100/58
f 72/106/58 73/107/58 75/100/58
f 73/107/58 74/108/58 75/100/58
f 74/108/58 68/102/58 75/100/58
f 76/133/59 77/134/59 78/135/59
f 76/133/59 78/135/59 79/136/59
f 80/137/60 81/138/60 82/139/60
f 80/137/60 82/139/60 83/140/60
f 79/141/58 78/142/58 83/143/58
f 79/141/58 83/143/58 82/144/58
f 81/144/49 80/143/49 77/142/49
f 81/144/49 77/142/49 76/141/49
f 81/145/61 76/146/61 79/147/61
f 81/145/61 79/147/61 82/148/61
f 77/149/62 80/150/62 83/151/62
f 77/149/62 83/151/62 78/152/62
f 84/153/59 85/154/59 86/155/59
f 84/153/59 86/155/59 87/156/59
f 88/157/60 89/158/60 90/159/60
f 88/157/60 90/159/60 91/160/60
f 87/161/58 86/162/58 91/163/58
f 87/161/58 91/163/58 90/164/58
f 89/164/49 88/163/49 85/162/49
f 89/164/49 85/162/49 84/161/49
f 89/165/61 84/166/61 87/167/61
f 89/165/61 87/167/61 90/168/61
f 85/169/62 88/170/62 91/171/62
f 85/169/62 91/171/62 86/172/62
f 92/173/63 93/174/63 94/175/63
f 92/173/63 95/176/63 93/174/63
f 92/173/63 96/177/63 95/176/63
f 92/173/63 97/178/63 96/177/63
f 92/173/63 98/179/63 97/178/63
f 92/173/63 99/180/63 98/179/63
f 92/173/63 100/181/63 99/180/63
f 92/173/63 94/175/63 100/181/63
f 94/182/64 93/183/64 101/184/64
f 94/182/64 101/184/64 102/185/64
f 93/183/65 95/186/65 103/187/65
f 93/183/65 103/187/65 101/184/65
f 95/188/66 96/189/66 104/190/66
f 95/188/66 104/190/66 103/191/66
f 96/189/67 97/192/67 105/193/67
f 96/189/67 105/193/67 104/190/67
f 97/194/68 98/195/68 106/196/68
f 97/194/68 106/196/68 105/197/68
f 98/195/69 99/198/69 107/199/69
f 98/195/69 107/199/69 106/196/69
f 99/200/70 100/201/70 108/202/70
f 99/200/70 108/202/70 107/203/70
f 100/201/71 94/204/71 102/205/71
f 100/201/71 102/205/71 108/202/71
f 102/175/72 101/174/72 109/173/72
f 101/174/72 103/176/72 109/173/72
f 103/176/72 104/177/72 109/173/72
f 104/177/72 105/178/72 109/173/72
f 105/178/72 106/179/72 109/173/72
f 106/179/72 107/180/72 109/173/72
f 107/180/72 108/181/72 109/173/72
f 108/181/72 102/175/72 109/173/72
f 110/206/73 111/207/73 112/208/73
f 110/206/73 112/208/73 113/209/73
f 114/210/74 115/211/74 116/212/74
f 114/210/74 116/212/74 117/213/74
f 113/214/72 112/215/72 117/216/72
f 113/214/72 117/216/72 116/217/72
f 115/217/63 114/216/63 111/215/63
f 115/217/63 111/215/63 110/214/63
f 115/218/75 110/219/75 113/220/75
f 115/218/75 113/220/75 116/221/75
f 111/222/76 114/223/76 117/224/76
f 111/222/76 117/224/76 112/225/76
f 118/226/73 119/227/73 120/228/73
f 118/226/73 120/228/73 121/229/73
f 122/230/74 123/231/74 124/232/74
f 122/230/74 124/232/74 125/233/74
f 121/234/72 120/235/72 125/236/72
f 121/234/72 125/236/72 124/237/72
f 123/237/63 122/236/63 119/235/63
f 123/237/63 119/235/63 118/234/63
f 123/238/75 118/239/75 121/240/75
f 123/238/75 121/240/75 124/241/75
f 119/242/76 122/243/76 125/244/76
f 119/242/76 125/244/76 120/245/76
f 126/246/77 127/247/77 128/248/77
f 126/246/77 128/248/77 129/249/77
f 130/250/78 131/251/78 132/252/78
f 130/250/78 132/252/78 133/253/78
f 129/254/79 128/255/79 133/256/79
f 129/254/79 133/256/79 132/257/79
f 131/257/80 130/256/80 127/255/80
f 131/257/80 127/255/80 126/254/80
f 131/258/81 126/259/81 129/260/81
f 131/258/81 129/260/81 132/261/81
f 127/259/82 130/258/82 133/261/82
f 127/259/82 133/261/82 128/260/82
f 134/262/83 135/263/83 136/264/83
f 134/262/83 136/264/83 137/265/83
f 138/266/84 139/267/84 140/268/84
f 138/266/84 140/268/84 141/269/84
f 137/270/85 136/271/85 141/272/85
f 137/270/85 141/272/85 140/273/85
f 139/273/86 138/272/86 135/271/86
f 139/273/86 135/271/86 134/270/86
f 139/274/87 134/275/87 137/276/87
f 139/274/87 137/276/87 140/277/87
f 135/275/88 138/274/88 141/277/88
f 135/275/88 141/277/88 136/276/88
f 142/278/89 143/279/89 144/280/89
f 142/278/89 144/280/89 145/281/89
f 146/282/90 147/283/90 148/284/90
f 146/282/90 148/284/90 149/285/90
f 145/286/91 144/287/91 149/288/91
f 145/286/91 149/288/91 148/289/91
f 147/289/92 146/288/92 143/287/92
f 147/289/92 143/287/92 142/286/92
f 147/290/93 142/291/93 145/292/93
f 147/290/93 145/292/93 148/293/93
f 143/291/94 146/290/94 149/293/94
f 143/291/94 149/293/94 144/292/94
f 150/294/95 151/295/95 152/296/95
f 150/294/95 152/296/95 153/297/95
f 154/298/96 155/299/96 156/300/96
f 154/298/96 156/300/96 157/301/96
f 153/302/97 152/303/97 157/304/97
f 153/302/97 157/304/97 156/305/97
f 155/305/98 154/304/98 151/303/98
f 155/305/98 151/303/98 150/302/98
f 155/306/99 150/307/99 153/308/99
f 155/306/99 153/308/99 156/309/99
f 151/307/100 154/306/100 157/309/100
f 151/307/100 157/309/100 152/308/100
f 158/310/101 159/311/101 160/312/101
f 158/310/101 160/312/101 161/313/101
f 162/314/102 163/315/102 164/316/102
f 162/314/102 164/316/102 165/317/102
f 161/318/103 160/319/103 165/320/103
f 161/318/103 165/320/103 164/321/103
f 163/321/104 162/320/104 159/319/104
f 163/321/104 159/319/104 158/318/104
f 163/322/105 158/323/105 161/324/105
f 163/322/105 161/324/105 164/325/105
f 159/323/106 162/322/106 165/325/106
f 159/323/106 165/325/106 160/324/106
f 166/326/107 167/327/107 168/328/107
f 166/326/107 169/329/107 167/327/107
f 166/326/107 170/330/107 169/329/107
f 166/326/107 171/331/107 170/330/107
f 166/326/107 172/332/107 171/331/107
f 166/326/107 173/333/107 172/332/107
f 166/326/107 174/334/107 173/333/107
f 166/326/107 168/328/107 174/334/107
f 168/335/108 167/336/108 175/337/108
f 168/335/108 175/337/108 176/338/108
f 167/339/109 169/340/109 177/340/109
f 167/339/109 177/340/109 175/339/109
f 169/340/110 170/341/110 178/341/110
f 169/340/110 178/341/110 177/340/110
f 170/336/111 171/335/111 179/338/111
f 170/336/111 179/338/111 178/337/111
f 171/335/112 172/342/112 180/343/112
f 171/335/112 180/343/112 179/338/112
f 172/344/113 173/345/113 181/346/113
f 172/344/113 181/346/113 180/347/113
f 173/345/114 174/348/114 182/349/114
f 173/345/114 182/349/114 181/346/114
f 174/342/115 168/335/115 176/338/115
f 174/342/115 176/338/115 182/343/115
f 176/350/116 175/351/116 183/352/116
f 175/351/116 177/353/116 183/352/116
f 177/353/116 178/354/116 183/352/116
f 178/354/116 179/355/116 183/352/116
f 179/355/116 180/356/116 183/352/116
f 180/356/116 181/357/116 183/352/116
f 181/357/116 182/358/116 183/352/116
f 182/358/116 176/350/116 183/352/116
f 184/359/117 185/360/117 186/361/117
f 184/359/117 187/362/117 185/360/117
f 184/359/117 188/363/117 187/362/117
f 184/359/117 189/364/117 188/363/117
f 184/359/117 190/365/117 189/364/117
f 184/359/117 191/366/117 190/365/117
f 184/359/117 192/367/117 191/366/117
f 184/359/117 186/361/117 192/367/117
f 186/368/118 185/369/118 193/370/118
f 186/368/118 193/370/118 194/371/118
f 185/372/119 187/373/119 195/374/119
f 185/372/119 195/374/119 193/375/119
f 187/373/120 188/376/120 196/377/120
f 187/373/120 196/377/120 195/374/120
f 188/369/121 189/368/121 197/371/121
f 188/369/121 197/371/121 196/370/121
f 189/368/122 190/378/122 198/379/122
f 189/368/122 198/379/122 197/371/122
f 190/380/123 191/381/123 199/381/123
f 190/380/123 199/381/123 198/380/123
f 191/381/124 192/382/124 200/382/124
f 191/381/124 200/382/124 199/381/124
f 192/378/125 186/368/125 194/371/125
f 192/378/125 194/371/125 200/379/125
f 194/383/126 193/384/126 201/385/126
f 193/384/126 195/386/126 201/385/126
f 195/386/126 196/387/126 201/385/126
f 196/387/126 197/388/126 201/385/126
f 197/388/126 198/389/126 201/385/126
f 198/389/126 199/390/126 201/385/126
f 199/390/126 200/391/126 201/385/126
f 200/391/126 194/383/126 201/385/126
f 202/392/127 203/393/127 204/394/127
f 202/392/127 204/394/127 205/395/127
f 206/396/128 207/397/128 208/398/128
f 206/396/128 208/398/128 209/399/128
f 205/400/129 204/401/129 209/402/129
f 205/400/129 209/402/129 208/403/129
f 207/403/130 206/402/130 203/401/130
f 207/403/130 203/401/130 202/400/130
f 207/404/131 202/405/131 205/406/131
f 207/404/131 205/406/131 208/407/131
f 203/405/132 206/404/132 209/407/132
f 203/405/132 209/407/132 204/406/132
f 210/408/133 211/409/133 212/410/133
f 210/408/133 212/410/133 213/411/133
f 213/412/134 212/413/134 214/414/134
f 213/412/134 214/414/134 215/415/134
f 215/416/135 214/417/135 216/418/135
f 215/416/135 216/418/135 217/419/135
f 217/420/136 216/421/136 218/422/136
f 217/420/136 218/422/136 219/423/136
f 219/424/137 218/425/137 211/409/137
f 219/424/137 211/409/137 210/408/137
f 211/409/138 220/426/138 221/427/138
f 211/409/138 221/427/138 212/410/138
f 212/413/139 221/428/139 222/429/139
f 212/413/139 222/429/139 214/414/139
f 214/417/140 222/430/140 223/431/140
f 214/417/140 223/431/140 216/418/140
f 216/421/141 223/432/141 224/433/141
f 216/421/141 224/433/141 218/422/141
f 218/425/142 224/434/142 220/426/142
f 218/425/142 220/426/142 211/409/142
f 220/435/143 225/436/143 226/437/143
f 220/435/143 226/437/143 221/438/143
f 221/428/144 226/439/144 227/440/144
f 221/428/144 227/440/144 222/429/144
f 222/441/145 227/442/145 228/443/145
f 222/441/145 228/443/145 223/444/145
f 223/432/146 228/445/146 229/446/146
f 223/432/146 229/446/146 224/433/146
f 224/447/147 229/448/147 225/436/147
f 224/447/147 225/436/147 220/435/147
f 225/436/148 230/449/148 231/450/148
f 225/436/148 231/450/148 226/437/148
f 226/439/149 231/451/149 232/452/149
f 226/439/149 232/452/149 227/440/149
f 227/442/150 232/453/150 233/454/150
f 227/442/150 233/454/150 228/443/150
f 228/445/151 233/455/151 234/456/151
f 228/445/151 234/456/151 229/446/151
f 229/448/152 234/457/152 230/449/152
f 229/448/152 230/449/152 225/436/152
f 230/449/153 235/458/153 236/459/153
f 230/449/153 236/459/153 231/450/153
f 231/451/154 236/460/154 237/461/154
f 231/451/154 237/461/154 232/452/154
f 232/453/155 237/462/155 238/463/155
f 232/453/155 238/463/155 233/454/155
f 233/455/156 238/464/156 239/465/156
f 233/455/156 239/465/156 234/456/156
f 234/457/157 239/466/157 235/458/157
f 234/457/157 235/458/157 230/449/157
f 235/458/158 240/467/158 241/468/158
f 235/458/158 241/468/158 236/459/158
f 236/460/159 241/469/159 242/470/159
f 236/460/159 242/470/159 237/461/159
f 237/462/160 242/471/160 243/472/160
f 237/462/160 243/472/160 238/463/160
f 238/464/161 243/473/161 244/474/161
f 238/464/161 244/474/161 239/465/161
f 239/466/162 244/475/162 240/467/162
f 239/466/162 240/467/162 235/458/162
f 240/426/163 245/409/163 246/410/163
f 240/426/163 246/410/163 241/427/163
f 241/469/164 246/476/164 247/477/164
f 241/469/164 247/477/164 242/470/164
f 242/430/165 247/417/165 248/418/165
f 242/430/165 248/418/165 243/431/165
f 243/473/166 248/478/166 249/479/166
f 243/473/166 249/479/166 244/474/166
f 244/434/167 249/425/167 245/409/167
f 244/434/167 245/409/167 240/426/167
f 245/409/168 250/408/168 251/411/168
f 245/409/168 251/411/168 246/410/168
f 246/476/169 251/480/169 252/481/169
f 246/476/169 252/481/169 247/477/169
f 247/417/170 252/416/170 253/419/170
f 247/417/170 253/419/170 248/418/170
f 248/478/171 253/482/171 254/483/171
f 248/478/171 254/483/171 249/479/171
f 249/425/172 254/424/172 250/408/172
f 249/425/172 250/408/172 245/409/172
f 250/408/173 255/484/173 256/485/173
f 250/408/173 256/485/173 251/411/173
f 251/480/174 256/486/174 257/487/174
f 251/480/174 257/487/174 252/481/174
f 252/416/175 257/488/175 258/489/175
f 252/416/175 258/489/175 253/419/175
f 253/482/176 258/490/176 259/491/176
f 253/482/176 259/491/176 254/483/176
f 254/424/177 259/492/177 255/484/177
f 254/424/177 255/484/177 250/408/177
f 255/484/178 260/493/178 261/494/178
f 255/484/178 261/494/178 256/485/178
f 256/486/179 261/495/179 262/496/179
f 256/486/179 262/496/179 257/487/179
f 257/488/180 262/497/180 263/498/180
f 257/488/180 263/498/180 258/489/180
f 258/490/181 263/499/181 264/500/181
f 258/490/181 264/500/181 259/491/181
f 259/492/182 264/501/182 260/493/182
f 259/492/182 260/493/182 255/484/182
f 260/467/183 265/458/183 266/459/183
f 260/467/183 266/459/183 261/468/183
f 261/495/184 266/502/184 267/503/184
f 261/495/184 267/503/184 262/496/184
f 262/471/185 267/462/185 268/463/185
f 262/471/185 268/463/185 263/472/185
f 263/499/186 268/504/186 269/505/186
f 263/499/186 269/505/186 264/500/186
f 264/475/187 269/466/187 265/458/187
f 264/475/187 265/458/187 260/467/187
f 265/458/188 270/449/188 271/450/188
f 265/458/188 271/450/188 266/459/188
f 266/502/189 271/506/189 272/507/189
f 266/502/189 272/507/189 267/503/189
f 267/462/190 272/453/190 273/454/190
f 267/462/190 273/454/190 268/463/190
f 268/504/191 273/508/191 274/509/191
f 268/504/191 274/509/191 269/505/191
f 269/466/192 274/457/192 270/449/192
f 269/466/192 270/449/192 265/458/192
f 270/449/193 275/436/193 276/437/193
f 270/449/193 276/437/193 271/450/193
f 271/506/194 276/510/194 277/511/194
f 271/506/194 277/511/194 272/507/194
f 272/453/195 277/442/195 278/443/195
f 272/453/195 278/443/195 273/454/195
f 273/508/196 278/512/196 279/513/196
f 273/508/196 279/513/196 274/509/196
f 274/457/197 279/448/197 275/436/197
f 274/457/197 275/436/197 270/449/197
f 275/436/198 280/435/198 281/438/198
f 275/436/198 281/438/198 276/437/198
f 276/510/199 281/514/199 282/515/199
f 276/510/199 282/515/199 277/511/199
f 277/442/200 282/441/200 283/444/200
f 277/442/200 283/444/200 278/443/200
f 278/512/201 283/516/201 284/517/201
f 278/512/201 284/517/201 279/513/201
f 279/448/202 284/447/202 280/435/202
f 279/448/202 280/435/202 275/436/202
f 280/493/203 285/484/203 286/485/203
f 280/493/203 286/485/203 281/494/203
f 281/514/204 286/518/204 287/519/204
f 281/514/204 287/519/204 282/515/204
f 282/497/205 287/488/205 288/489/205
f 282/497/205 288/489/205 283/498/205
f 283/516/206 288/520/206 289/521/206
f 283/516/206 289/521/206 284/517/206
f 284/501/207 289/492/207 285/484/207
f 284/501/207 285/484/207 280/493/207
f 285/484/208 210/408/208 213/411/208
f 285/484/208 213/411/208 286/485/208
f 286/518/209 213/412/209 215/415/209
f 286/518/209 215/415/209 287/519/209
f 287/488/210 215/416/210 217/419/210
f 287/488/210 217/419/210 288/489/210
f 288/520/211 217/420/211 219/423/211
f 288/520/211 219/423/211 289/521/211
f 289/492/212 219/424/212 210/408/212
f 289/492/212 210/408/212 285/484/212
f 290/522/213 291/523/213 292/524/213
f 290/522/213 293/525/213 291/523/213
f 290/522/213 294/526/213 293/525/213
f 290/522/213 295/527/213 294/526/213
f 290/522/213 296/528/213 295/527/213
f 290/522/213 297/529/213 296/528/213
f 290/522/213 298/530/213 297/529/213
f 290/522/213 292/524/213 298/530/213
f 292/531/214 291/532/214 299/533/214
f 292/531/214 299/533/214 300/534/214
f 291/535/215 293/536/215 301/537/215
f 291/535/215 301/537/215 299/538/215
f 293/536/216 294/539/216 302/540/216
f 293/536/216 302/540/216 301/537/216
f 294/532/217 295/531/217 303/534/217
f 294/532/217 303/534/217 302/533/217
f 295/531/218 296/541/218 304/542/218
f 295/531/218 304/542/218 303/534/218
f 296/539/219 297/536/219 305/537/219
f 296/539/219 305/537/219 304/540/219
f 297/536/220 298/535/220 306/538/220
f 297/536/220 306/538/220 305/537/220
f 298/541/221 292/531/221 300/534/221
f 298/541/221 300/534/221 306/542/221
f 300/543/222 299/544/222 307/545/222
f 299/544/222 301/546/222 307/545/222
f 301/546/222 302/547/222 307/545/222
f 302/547/222 303/548/222 307/545/222
f 303/548/222 304/549/222 307/545/222
f 304/549/222 305/550/222 307/545/222
f 305/550/222 306/551/222 307/545/222
f 306/551/222 300/543/222 307/545/222
f 308/552/223 309/553/223 310/554/223
f 308/552/223 310/554/223 311/555/223
f 312/556/224 313/557/224 314/558/224
f 312/556/224 314/558/224 315/559/224
f 311/560/225 310/561/225 315/562/225
f 311/560/225 315/562/225 314/563/225
f 313/563/226 312/562/226 309/561/226
f 313/563/226 309/561/226 308/560/226
f 313/564/227 308/565/227 311/566/227
f 313/564/227 311/566/227 314/567/227
f 309/565/228 312/564/228 315/567/228
f 309/565/228 315/567/228 310/566/228
f 316/568/229 317/569/229 318/570/229
f 316/568/229 318/570/229 319/571/229
f 319/572/230 318/573/230 320/574/230
f 319/572/230 320/574/230 321/575/230
f 321/576/231 320/577/231 322/578/231
f 321/576/231 322/578/231 323/579/231
f 323/580/232 322/581/232 324/582/232
f 323/580/232 324/582/232 325/583/232
f 325/584/233 324/585/233 317/569/233
f 325/584/233 317/569/233 316/568/233
f 317/569/234 326/586/234 327/587/234
f 317/569/234 327/587/234 318/570/234
f 318/573/235 327/588/235 328/589/235
f 318/573/235 328/589/235 320/574/235
f 320/577/236 328/590/236 329/591/236
f 320/577/236 329/591/236 322/578/236
f 322/581/237 329/592/237 330/593/237
f 322/581/237 330/593/237 324/582/237
f 324/585/238 330/594/238 326/586/238
f 324/585/238 326/586/238 317/569/238
f 326/595/239 331/596/239 332/597/239
f 326/595/239 332/597/239 327/598/239
f 327/588/240 332/599/240 333/600/240
f 327/588/240 333/600/240 328/589/240
f 328/601/241 333/602/241 334/603/241
f 328/601/241 334/603/241 329/604/241
f 329/592/242 334/605/242 335/606/242
f 329/592/242 335/606/242 330/593/242
f 330/607/243 335/608/243 331/596/243
f 330/607/243 331/596/243 326/595/243
f 331/596/244 336/609/244 337/610/244
f 331/596/244 337/610/244 332/597/244
f 332/599/245 337/611/245 338/612/245
f 332/599/245 338/612/245 333/600/245
f 333/602/246 338/613/246 339/614/246
f 333/602/246 339/614/246 334/603/246
f 334/605/247 339/615/247 340/616/247
f 334/605/247 340/616/247 335/606/247
f 335/608/248 340/617/248 336/609/248
f 335/608/248 336/609/248 331/596/248
f 336/609/249 341/618/249 342/619/249
f 336/609/249 342/619/249 337/610/249
f 337/611/250 342/620/250 343/621/250
f 337/611/250 343/621/250 338/612/250
f 338/613/251 343/622/251 344/623/251
f 338/613/251 344/623/251 339/614/251
f 339/615/252 344/624/252 345/625/252
f 339/615/252 345/625/252 340/616/252
f 340/617/253 345/626/253 341/618/253
f 340/617/253 341/618/253 336/609/253
f 341/618/254 346/627/254 347/628/254
f 341/618/254 347/628/254 342/619/254
f 342/620/255 347/629/255 348/630/255
f 342/620/255 348/630/255 343/621/255
f 343/622/256 348/631/256 349/632/256
f 343/622/256 349/632/256 344/623/256
f 344/624/257 349/633/257 350/634/257
f 344/624/257 350/634/257 345/625/257
f 345/626/258 350/635/258 346/627/258
f 345/626/258 346/627/258 341/618/258
f 346/586/259 351/569/259 352/570/259
f 346/586/259 352/570/259 347/587/259
f 347/629/260 352/636/260 353/637/260
f 347/629/260 353/637/260 348/630/260
f 348/590/261 353/577/261 354/578/261
f 348/590/261 354/578/261 349/591/261
f 349/633/262 354/638/262 355/639/262
f 349/633/262 355/639/262 350/634/262
f 350/594/263 355/585/263 351/569/263
f 350/594/263 351/569/263 346/586/263
f 351/569/264 356/568/264 357/571/264
f 351/569/264 357/571/264 352/570/264
f 352/636/265 357/640/265 358/641/265
f 352/636/265 358/641/265 353/637/265
f 353/577/266 358/576/266 359/579/266
f 353/577/266 359/579/266 354/578/266
f 354/638/267 359/642/267 360/643/267
f 354/638/267 360/643/267 355/639/267
f 355/585/268 360/584/268 356/568/268
f 355/585/268 356/568/268 351/569/268
f 356/568/269 361/644/269 362/645/269
f 356/568/269 362/645/269 357/571/269
f 357/640/270 362/646/270 363/647/270
f 357/640/270 363/647/270 358/641/270
f 358/576/271 363/648/271 364/649/271
f 358/576/271 364/649/271 359/579/271
f 359/642/272 364/650/272 365/651/272
f 359/642/272 365/651/272 360/643/272
f 360/584/273 365/652/273 361/644/273
f 360/584/273 361/644/273 356/568/273
f 361/644/274 366/653/274 367/654/274
f 361/644/274 367/654/274 362/645/274
f 362/646/275 367/655/275 368/656/275
f 362/646/275 368/656/275 363/647/275
f 363/648/276 368/657/276 369/658/276
f 363/648/276 369/658/276 364/649/276
f 364/650/277 369/659/277 370/660/277
f 364/650/277 370/660/277 365/651/277
f 365/652/278 370/661/278 366/653/278
f 365/652/278 366/653/278 361/644/278
f 366/627/279 371/618/279 372/619/279
f 366/627/279 372/619/279 367/628/279
f 367/655/280 372/662/280 373/663/280
f 367/655/280 373/663/280 368/656/280
f 368/631/281 373/622/281 374/623/281
f 368/631/281 374/623/281 369/632/281
f 369/659/282 374/664/282 375/665/282
f 369/659/282 375/665/282 370/660/282
f 370/635/283 375/626/283 371/618/283
f 370/635/283 371/618/283 366/627/283
f 371/618/284 376/609/284 377/610/284
f 371/618/284 377/610/284 372/619/284
f 372/662/285 377/666/285 378/667/285
f 372/662/285 378/667/285 373/663/285
f 373/622/286 378/613/286 379/614/286
f 373/622/286 379/614/286 374/623/286
f 374/664/287 379/668/287 380/669/287
f 374/664/287 380/669/287 375/665/287
f 375/626/288 380/617/288 376/609/288
f 375/626/288 376/609/288 371/618/288
f 376/609/289 381/596/289 382/597/289
f 376/609/289 382/597/289 377/610/289
f 377/666/290 382/670/290 383/671/290
f 377/666/290 383/671/290 378/667/290
f 378/613/291 383/602/291 384/603/291
f 378/613/291 384/603/291 379/614/291
f 379/668/292 384/672/292 385/673/292
f 379/668/292 385/673/292 380/669/292
f 380/617/293 385/608/293 381/596/293
f 380/617/293 381/596/293 376/609/293
f 381/596/294 386/595/294 387/598/294
f 381/596/294 387/598/294 382/597/294
f 382/670/295 387/674/295 388/675/295
f 382/670/295 388/675/295 383/671/295
f 383/602/296 388/601/296 389/604/296
f 383/602/296 389/604/296 384/603/296
f 384/672/297 389/676/297 390/677/297
f 384/672/297 390/677/297 385/673/297
f 385/608/298 390/607/298 386/595/298
f 385/608/298 386/595/298 381/596/298
f 386/653/299 391/644/299 392/645/299
f 386/653/299 392/645/299 387/654/299
f 387/674/300 392/678/300 393/679/300
f 387/674/300 393/679/300 388/675/300
f 388/657/301 393/648/301 394/649/301
f 388/657/301 394/649/301 389/658/301
f 389/676/302 394/680/302 395/681/302
f 389/676/302 395/681/302 390/677/302
f 390/661/303 395/652/303 391/644/303
f 390/661/303 391/644/303 386/653/303
f 391/644/304 316/568/304 319/571/304
f 391/644/304 319/571/304 392/645/304
f 392/678/305 319/572/305 321/575/305
f 392/678/305 321/575/305 393/679/305
f 393/648/306 321/576/306 323/579/306
f 393/648/306 323/579/306 394/649/306
f 394/680/307 323/580/307 325/583/307
f 394/680/307 325/583/307 395/681/307
f 395/652/308 325/584/308 316/568/308
f 395/652/308 316/568/308 391/644/308
f 396/682/309 397/683/309 398/684/309
f 396/682/309 399/685/309 397/683/309
f 396/682/309 400/686/309 399/685/309
f 396/682/309 401/687/309 400/686/309
f 396/682/309 402/688/309 401/687/309
f 396/682/309 403/689/309 402/688/309
f 396/682/309 404/690/309 403/689/309
f 396/682/309 398/684/309 404/690/309
f 398/691/310 397/692/310 405/693/310
f 398/691/310 405/693/310 406/694/310
f 397/695/311 399/696/311 407/697/311
f 397/695/311 407/697/311 405/698/311
f 399/696/312 400/699/312 408/700/312
f 399/696/312 408/700/312 407/697/312
f 400/692/313 401/691/313 409/694/313
f 400/692/313 409/694/313 408/693/313
f 401/691/314 402/701/314 410/702/314
f 401/691/314 410/702/314 409/694/314
f 402/699/315 403/696/315 411/697/315
f 402/699/315 411/697/315 410/700/315
f 403/696/316 404/695/316 412/698/316
f 403/696/316 412/698/316 411/697/316
f 404/701/317 398/691/317 406/694/317
f 404/701/317 406/694/317 412/702/317
f 406/703/318 405/704/318 413/705/318
f 405/704/318 407/706/318 413/705/318
f 407/706/318 408/707/318 413/705/318
f 408/707/318 409/708/318 413/705/318
f 409/708/318 410/709/318 413/705/318
f 410/709/318 411/710/318 413/705/318
f 411/710/318 412/711/318 413/705/318
f 412/711/318 406/703/318 413/705/318
