# Helion frigate, fragment 7 of 8
# Generated by tools. Edit the generator script.
v -0.464832 0.464832 1.900000
v 0.464832 1.103976 1.900000
v -0.464832 1.103976 1.900000
v 0.464832 1.103976 0.970336
v -0.464832 1.103976 0.970336
v -0.232416 1.092355 1.783792
v -0.150244 1.092355 1.749756
v -0.161253 1.150459 1.738747
v -0.232416 1.150459 1.768223
v -0.116208 1.092355 1.667584
v -0.131777 1.150459 1.667584
v -0.150244 1.092355 1.585413
v -0.161253 1.150459 1.596422
v -0.232416 1.092355 1.551376
v -0.232416 1.150459 1.566945
v -0.314587 1.092355 1.585413
v -0.303578 1.150459 1.596422
v -0.348624 1.092355 1.667584
v -0.333055 1.150459 1.667584
v -0.314587 1.092355 1.749756
v -0.303578 1.150459 1.738747
v -0.191330 1.192994 1.708670
v -0.232416 1.192994 1.725688
v -0.174312 1.192994 1.667584
v -0.191330 1.192994 1.626498
v -0.232416 1.192994 1.609480
v -0.273502 1.192994 1.626498
v -0.290520 1.192994 1.667584
v -0.273502 1.192994 1.708670
v -0.232416 1.208563 1.667584
v -0.092966 0.976147 1.528135
v -0.232416 1.092355 1.667584
vt 0.468750 0.382812
vt 0.562500 0.476562
vt 0.468750 0.476562
vt 0.007812 0.656250
vt 0.179688 0.656250
vt 0.179688 0.484375
vt 0.007812 0.484375
vt 0.718750 0.382812
vt 0.751896 0.382812
vt 0.747455 0.429687
vt 0.718750 0.429687
vt 0.751896 0.382812
vt 0.718750 0.382812
vt 0.718750 0.429687
vt 0.747455 0.429687
vt 0.685604 0.382812
vt 0.690045 0.429687
vt 0.751896 0.382812
vt 0.718750 0.382812
vt 0.718750 0.429687
vt 0.747455 0.429687
vt 0.685604 0.382812
vt 0.690045 0.429687
vt 0.685604 0.382812
vt 0.690045 0.429687
vt 0.617188 0.470282
vt 0.645892 0.458392
vt 0.633760 0.446260
vt 0.617188 0.453125
vt 0.657782 0.429688
vt 0.640625 0.429688
vt 0.645892 0.400983
vt 0.633760 0.413115
vt 0.617188 0.389093
vt 0.617188 0.406250
vt 0.718750 0.464002
vt 0.735323 0.464002
vt 0.588483 0.400983
vt 0.600615 0.413115
vt 0.576593 0.429688
vt 0.593750 0.429688
vt 0.588483 0.458392
vt 0.600615 0.446260
vt 0.718750 0.464002
vt 0.702177 0.464002
vt 0.617188 0.429688
vt 0.588000 0.412000
vt 0.940000 0.940000
vt 0.060000 0.940000
vt 0.060000 0.060000
vt 0.940000 0.060000
vt 0.940000 0.060000
vt 0.500000 0.500000
vt 0.500000 0.060000
vt 0.811127 0.188873
vt 0.940000 0.500000
vt 0.811127 0.811127
vt 0.500000 0.940000
vt 0.188873 0.811127
vt 0.060000 0.500000
vt 0.188873 0.188873
vn 0.000000 0.000000 1.000000
vn -0.000000 1.000000 0.000000
vn 0.371470 0.240299 0.896809
vn 0.896809 0.240299 0.371470
vn 0.896809 0.240299 -0.371470
vn 0.371470 0.240299 -0.896809
vn -0.371470 0.240299 -0.896809
vn -0.896809 0.240299 -0.371470
vn -0.896809 0.240299 0.371470
vn -0.371470 0.240299 0.896809
vn 0.281085 0.678598 0.678598
vn 0.678598 0.678598 0.281085
vn 0.678598 0.678598 -0.281085
vn 0.281085 0.678598 -0.678598
vn -0.281085 0.678598 -0.678598
vn -0.678598 0.678598 -0.281085
vn -0.678598 0.678598 0.281085
vn -0.281085 0.678598 0.678598
vn 0.106596 0.960422 0.257344
vn 0.257344 0.960422 0.106596
vn 0.257344 0.960422 -0.106596
vn 0.106596 0.960422 -0.257344
vn -0.106596 0.960422 -0.257344
vn -0.257344 0.960422 -0.106596
vn -0.257344 0.960422 0.106596
vn -0.106596 0.960422 0.257344
vn 0.000000 1.000000 0.000000
vn 0.000000 -1.000000 0.000000
vn 0.000000 1.000000 0.000000
vn 0.000000 -1.000000 0.000000
usemtl skin
f 1/1/1 2/2/1 3/3/1
f 3/4/2 2/5/2 4/6/2
f 3/4/2 4/6/2 5/7/2
f 6/8/3 7/9/3 8/10/3
f 6/8/3 8/10/3 9/11/3
f 7/12/4 10/13/4 11/14/4
f 7/12/4 11/14/4 8/15/4
f 10/13/5 12/16/5 13/17/5
f 10/13/5 13/17/5 11/14/5
f 12/18/6 14/19/6 15/20/6
f 12/18/6 15/20/6 13/21/6
f 14/19/7 16/22/7 17/23/7
f 14/19/7 17/23/7 15/20/7
f 16/16/8 18/13/8 19/14/8
f 16/16/8 19/14/8 17/17/8
f 18/13/9 20/12/9 21/15/9
f 18/13/9 21/15/9 19/14/9
f 20/24/10 6/8/10 9/11/10
f 20/24/10 9/11/10 21/25/10
f 9/26/11 8/27/11 22/28/11
f 9/26/11 22/28/11 23/29/11
f 8/27/12 11/30/12 24/31/12
f 8/27/12 24/31/12 22/28/12
f 11/30/13 13/32/13 25/33/13
f 11/30/13 25/33/13 24/31/13
f 13/32/14 15/34/14 26/35/14
f 13/21/14 26/36/14 25/37/14
f 15/34/15 17/38/15 27/39/15
f 15/34/15 27/39/15 26/35/15
f 17/38/16 19/40/16 28/41/16
f 17/38/16 28/41/16 27/39/16
f 19/40/17 21/42/17 29/43/17
f 19/40/17 29/43/17 28/41/17
f 21/42/18 9/26/18 23/29/18
f 21/25/18 23/44/18 29/45/18
f 23/29/19 22/28/19 30/46/19
f 22/28/20 24/31/20 30/46/20
f 24/31/21 25/33/21 30/46/21
f 25/33/22 26/35/22 30/46/22
f 26/35/23 27/39/23 30/46/23
f 27/39/24 28/41/24 30/46/24
f 28/41/25 29/43/25 30/46/25
f 29/43/26 23/29/26 30/46/26
usemtl interior
f 31/47/27 2/48/27 4/49/27
f 31/47/28 4/49/28 2/48/28
f 31/47/27 4/49/27 5/50/27
f 31/47/28 5/50/28 4/49/28
f 31/47/27 5/50/27 3/51/27
f 31/47/28 3/51/28 5/50/28
f 31/47/27 3/51/27 1/52/27
f 31/47/28 1/52/28 3/51/28
f 31/47/27 1/52/27 2/48/27
f 31/47/28 2/48/28 1/52/28
f 32/53/29 18/54/29 20/55/29
f 32/53/30 20/55/30 18/54/30
f 32/53/29 20/55/29 6/56/29
f 32/53/30 6/56/30 20/55/30
f 32/53/29 6/56/29 7/57/29
f 32/53/30 7/57/30 6/56/30
f 32/53/29 7/57/29 10/58/29
f 32/53/30 10/58/30 7/57/30
f 32/53/29 10/58/29 12/59/29
f 32/53/30 12/59/30 10/58/30
f 32/53/29 12/59/29 14/60/29
f 32/53/30 14/60/30 12/59/30
f 32/53/29 14/60/29 16/61/29
f 32/53/30 16/61/30 14/60/30
f 32/53/29 16/61/29 18/54/29
f 32/53/30 18/54/30 16/61/30
