# Sarn dreadnought, from tools/gen_fleet.py
# Generated by tools. Edit the generator script.
v 0.000000 0.000000 0.185749
v 0.394439 0.220897 1.719329
v 0.000000 0.220897 2.354559
v 0.557821 0.220897 0.185749
v 0.394439 0.220897 -1.347832
v 0.000000 0.220897 -1.983061
v -0.394439 0.220897 -1.347832
v -0.557821 0.220897 0.185749
v -0.394439 0.220897 1.719329
v 0.000000 0.441795 0.185749
v 0.000000 0.295779 1.400282
v 0.039048 0.295779 1.400282
v 0.000000 0.295779 1.439330
v 0.000000 0.295779 1.361235
v -0.039048 0.295779 1.400282
v 0.000000 0.396187 1.400282
v 0.000000 0.345260 0.914469
v 0.039048 0.345260 0.914469
v 0.000000 0.345260 0.953516
v 0.000000 0.345260 0.875421
v -0.039048 0.345260 0.914469
v 0.000000 0.445668 0.914469
v 0.000000 0.394741 0.428655
v 0.039048 0.394741 0.428655
v 0.000000 0.394741 0.467703
v 0.000000 0.394741 0.389608
v -0.039048 0.394741 0.428655
v 0.000000 0.495149 0.428655
v 0.000000 0.394741 -0.057158
v 0.039048 0.394741 -0.057158
v 0.000000 0.394741 -0.018111
v 0.000000 0.394741 -0.096206
v -0.039048 0.394741 -0.057158
v 0.000000 0.495149 -0.057158
v 0.000000 0.345260 -0.542972
v 0.039048 0.345260 -0.542972
v 0.000000 0.345260 -0.503924
v 0.000000 0.345260 -0.582019
v -0.039048 0.345260 -0.542972
v 0.000000 0.445668 -0.542972
v 0.000000 0.295779 -1.028785
v 0.039048 0.295779 -1.028785
v 0.000000 0.295779 -0.989737
v 0.000000 0.295779 -1.067832
v -0.039048 0.295779 -1.028785
v 0.000000 0.396187 -1.028785
v -0.503463 0.176272 1.296409
v -0.503463 0.176272 1.352191
v -0.503463 0.265523 1.352191
v -0.503463 0.265523 1.296409
v -0.369586 0.176272 1.352191
v -0.369586 0.176272 1.296409
v -0.369586 0.265523 1.296409
v -0.369586 0.265523 1.352191
v -0.624760 0.176272 0.157858
v -0.624760 0.176272 0.213640
v -0.624760 0.265523 0.213640
v -0.624760 0.265523 0.157858
v -0.490883 0.176272 0.213640
v -0.490883 0.176272 0.157858
v -0.490883 0.265523 0.157858
v -0.490883 0.265523 0.213640
v -0.503463 0.176272 -0.980693
v -0.503463 0.176272 -0.924911
v -0.503463 0.265523 -0.924911
v -0.503463 0.265523 -0.980693
v -0.369586 0.176272 -0.924911
v -0.369586 0.176272 -0.980693
v -0.369586 0.265523 -0.980693
v -0.369586 0.265523 -0.924911
v 0.503463 0.176272 1.352191
v 0.503463 0.176272 1.296409
v 0.503463 0.265523 1.296409
v 0.503463 0.265523 1.352191
v 0.369586 0.176272 1.296409
v 0.369586 0.176272 1.352191
v 0.369586 0.265523 1.352191
v 0.369586 0.265523 1.296409
v 0.624760 0.176272 0.213640
v 0.624760 0.176272 0.157858
v 0.624760 0.265523 0.157858
v 0.624760 0.265523 0.213640
v 0.490883 0.176272 0.157858
v 0.490883 0.176272 0.213640
v 0.490883 0.265523 0.213640
v 0.490883 0.265523 0.157858
v 0.503463 0.176272 -0.924911
v 0.503463 0.176272 -0.980693
v 0.503463 0.265523 -0.980693
v 0.503463 0.265523 -0.924911
v 0.369586 0.176272 -0.980693
v 0.369586 0.176272 -0.924911
v 0.369586 0.265523 -0.924911
v 0.369586 0.265523 -0.980693
v 0.000000 0.220897 -0.887971
v 0.206456 0.220897 -0.915151
v 0.200681 0.259544 -0.936704
v 0.000000 0.259544 -0.910284
v 0.189131 0.259544 -0.979809
v 0.000000 0.259544 -0.954910
v 0.183356 0.220897 -1.001362
v 0.000000 0.220897 -0.977222
v 0.189131 0.182250 -0.979809
v 0.000000 0.182250 -0.954910
v 0.200681 0.182250 -0.936704
v 0.000000 0.182250 -0.910284
v 0.398842 0.220897 -0.994840
v 0.387686 0.259544 -1.014164
v 0.365373 0.259544 -1.052811
v 0.354217 0.220897 -1.072134
v 0.365373 0.182250 -1.052811
v 0.387686 0.182250 -1.014164
v 0.564048 0.220897 -1.121607
v 0.548271 0.259544 -1.137385
v 0.516716 0.259544 -1.168940
v 0.500938 0.220897 -1.184718
v 0.516716 0.182250 -1.168940
v 0.548271 0.182250 -1.137385
v 0.690815 0.220897 -1.286813
v 0.671492 0.259544 -1.297970
v 0.632845 0.259544 -1.320283
v 0.613521 0.220897 -1.331439
v 0.632845 0.182250 -1.320283
v 0.671492 0.182250 -1.297970
v 0.770504 0.220897 -1.479200
v 0.748952 0.259544 -1.484975
v 0.705847 0.259544 -1.496525
v 0.684294 0.220897 -1.502300
v 0.705847 0.182250 -1.496525
v 0.748952 0.182250 -1.484975
v 0.797685 0.220897 -1.685656
v 0.775372 0.259544 -1.685656
v 0.730746 0.259544 -1.685656
v 0.708433 0.220897 -1.685656
v 0.730746 0.182250 -1.685656
v 0.775372 0.182250 -1.685656
v 0.770504 0.220897 -1.892112
v 0.748952 0.259544 -1.886337
v 0.705847 0.259544 -1.874787
v 0.684294 0.220897 -1.869012
v 0.705847 0.182250 -1.874787
v 0.748952 0.182250 -1.886337
v 0.690815 0.220897 -2.084498
v 0.671492 0.259544 -2.073342
v 0.632845 0.259544 -2.051029
v 0.613521 0.220897 -2.039872
v 0.632845 0.182250 -2.051029
v 0.671492 0.182250 -2.073342
v 0.564048 0.220897 -2.249704
v 0.548271 0.259544 -2.233926
v 0.516716 0.259544 -2.202371
v 0.500938 0.220897 -2.186594
v 0.516716 0.182250 -2.202371
v 0.548271 0.182250 -2.233926
v 0.398842 0.220897 -2.376471
v 0.387686 0.259544 -2.357147
v 0.365373 0.259544 -2.318500
v 0.354217 0.220897 -2.299177
v 0.365373 0.182250 -2.318500
v 0.387686 0.182250 -2.357147
v 0.206456 0.220897 -2.456160
v 0.200681 0.259544 -2.434607
v 0.189131 0.259544 -2.391502
v 0.183356 0.220897 -2.369950
v 0.189131 0.182250 -2.391502
v 0.200681 0.182250 -2.434607
v 0.000000 0.220897 -2.483340
v 0.000000 0.259544 -2.461028
v 0.000000 0.259544 -2.416402
v 0.000000 0.220897 -2.394089
v 0.000000 0.182250 -2.416402
v 0.000000 0.182250 -2.461028
v -0.206456 0.220897 -2.456160
v -0.200681 0.259544 -2.434607
v -0.189131 0.259544 -2.391502
v -0.183356 0.220897 -2.369950
v -0.189131 0.182250 -2.391502
v -0.200681 0.182250 -2.434607
v -0.398842 0.220897 -2.376471
v -0.387686 0.259544 -2.357147
v -0.365373 0.259544 -2.318500
v -0.354217 0.220897 -2.299177
v -0.365373 0.182250 -2.318500
v -0.387686 0.182250 -2.357147
v -0.564048 0.220897 -2.249704
v -0.548271 0.259544 -2.233926
v -0.516716 0.259544 -2.202371
v -0.500938 0.220897 -2.186594
v -0.516716 0.182250 -2.202371
v -0.548271 0.182250 -2.233926
v -0.690815 0.220897 -2.084498
v -0.671492 0.259544 -2.073342
v -0.632845 0.259544 -2.051029
v -0.613521 0.220897 -2.039872
v -0.632845 0.182250 -2.051029
v -0.671492 0.182250 -2.073342
v -0.770504 0.220897 -1.892112
v -0.748952 0.259544 -1.886337
v -0.705847 0.259544 -1.874787
v -0.684294 0.220897 -1.869012
v -0.705847 0.182250 -1.874787
v -0.748952 0.182250 -1.886337
v -0.797685 0.220897 -1.685656
v -0.775372 0.259544 -1.685656
v -0.730746 0.259544 -1.685656
v -0.708433 0.220897 -1.685656
v -0.730746 0.182250 -1.685656
v -0.775372 0.182250 -1.685656
v -0.770504 0.220897 -1.479200
v -0.748952 0.259544 -1.484975
v -0.705847 0.259544 -1.496525
v -0.684294 0.220897 -1.502300
v -0.705847 0.182250 -1.496525
v -0.748952 0.182250 -1.484975
v -0.690815 0.220897 -1.286813
v -0.671492 0.259544 -1.297970
v -0.632845 0.259544 -1.320283
v -0.613521 0.220897 -1.331439
v -0.632845 0.182250 -1.320283
v -0.671492 0.182250 -1.297970
v -0.564048 0.220897 -1.121607
v -0.548271 0.259544 -1.137385
v -0.516716 0.259544 -1.168940
v -0.500938 0.220897 -1.184718
v -0.516716 0.182250 -1.168940
v -0.548271 0.182250 -1.137385
v -0.398842 0.220897 -0.994840
v -0.387686 0.259544 -1.014164
v -0.365373 0.259544 -1.052811
v -0.354217 0.220897 -1.072134
v -0.365373 0.182250 -1.052811
v -0.387686 0.182250 -1.014164
v -0.206456 0.220897 -0.915151
v -0.200681 0.259544 -0.936704
v -0.189131 0.259544 -0.979809
v -0.183356 0.220897 -1.001362
v -0.189131 0.182250 -0.979809
v -0.200681 0.182250 -0.936704
v 0.596386 0.165115 -2.006403
v 0.707950 0.165115 -2.006403
v 0.707950 0.276679 -2.006403
v 0.596386 0.276679 -2.006403
v 0.707950 0.165115 -2.117967
v 0.596386 0.165115 -2.117967
v 0.596386 0.276679 -2.117967
v 0.707950 0.276679 -2.117967
v -0.055782 0.165115 -2.382933
v 0.055782 0.165115 -2.382933
v 0.055782 0.276679 -2.382933
v -0.055782 0.276679 -2.382933
v 0.055782 0.165115 -2.494497
v -0.055782 0.165115 -2.494497
v -0.055782 0.276679 -2.494497
v 0.055782 0.276679 -2.494497
v -0.707950 0.165115 -2.006403
v -0.596386 0.165115 -2.006403
v -0.596386 0.276679 -2.006403
v -0.707950 0.276679 -2.006403
v -0.596386 0.165115 -2.117967
v -0.707950 0.165115 -2.117967
v -0.707950 0.276679 -2.117967
v -0.596386 0.276679 -2.117967
v -0.707950 0.165115 -1.253344
v -0.596386 0.165115 -1.253344
v -0.596386 0.276679 -1.253344
v -0.707950 0.276679 -1.253344
v -0.596386 0.165115 -1.364908
v -0.707950 0.165115 -1.364908
v -0.707950 0.276679 -1.364908
v -0.596386 0.276679 -1.364908
v -0.055782 0.165115 -0.876815
v 0.055782 0.165115 -0.876815
v 0.055782 0.276679 -0.876815
v -0.055782 0.276679 -0.876815
v 0.055782 0.165115 -0.988379
v -0.055782 0.165115 -0.988379
v -0.055782 0.276679 -0.988379
v 0.055782 0.276679 -0.988379
v 0.596386 0.165115 -1.253344
v 0.707950 0.165115 -1.253344
v 0.707950 0.276679 -1.253344
v 0.596386 0.276679 -1.253344
v 0.707950 0.165115 -1.364908
v 0.596386 0.165115 -1.364908
v 0.596386 0.276679 -1.364908
v 0.707950 0.276679 -1.364908
v 0.000000 0.220897 0.899760
v 0.184800 0.220897 0.875431
v 0.179025 0.259544 0.853878
v 0.000000 0.259544 0.877447
v 0.167475 0.259544 0.810773
v 0.000000 0.259544 0.832822
v 0.161700 0.220897 0.789221
v 0.000000 0.220897 0.810509
v 0.167475 0.182250 0.810773
v 0.000000 0.182250 0.832822
v 0.179025 0.182250 0.853878
v 0.000000 0.182250 0.877447
v 0.357006 0.220897 0.804101
v 0.345849 0.259544 0.784777
v 0.323536 0.259544 0.746130
v 0.312380 0.220897 0.726807
v 0.323536 0.182250 0.746130
v 0.345849 0.182250 0.784777
v 0.504882 0.220897 0.690631
v 0.489105 0.259544 0.674853
v 0.457550 0.259544 0.643298
v 0.441772 0.220897 0.627521
v 0.457550 0.182250 0.643298
v 0.489105 0.182250 0.674853
v 0.618352 0.220897 0.542754
v 0.599029 0.259544 0.531598
v 0.560382 0.259544 0.509285
v 0.541058 0.220897 0.498129
v 0.560382 0.182250 0.509285
v 0.599029 0.182250 0.531598
v 0.689682 0.220897 0.370548
v 0.668130 0.259544 0.364773
v 0.625024 0.259544 0.353223
v 0.603472 0.220897 0.347448
v 0.625024 0.182250 0.353223
v 0.668130 0.182250 0.364773
v 0.714011 0.220897 0.185749
v 0.691699 0.259544 0.185749
v 0.647073 0.259544 0.185749
v 0.624760 0.220897 0.185749
v 0.647073 0.182250 0.185749
v 0.691699 0.182250 0.185749
v 0.689682 0.220897 0.000949
v 0.668130 0.259544 0.006724
v 0.625024 0.259544 0.018274
v 0.603472 0.220897 0.024049
v 0.625024 0.182250 0.018274
v 0.668130 0.182250 0.006724
v 0.618352 0.220897 -0.171257
v 0.599029 0.259544 -0.160101
v 0.560382 0.259544 -0.137788
v 0.541058 0.220897 -0.126631
v 0.560382 0.182250 -0.137788
v 0.599029 0.182250 -0.160101
v 0.504882 0.220897 -0.319134
v 0.489105 0.259544 -0.303356
v 0.457550 0.259544 -0.271801
v 0.441772 0.220897 -0.256023
v 0.457550 0.182250 -0.271801
v 0.489105 0.182250 -0.303356
v 0.357006 0.220897 -0.432603
v 0.345849 0.259544 -0.413280
v 0.323536 0.259544 -0.374633
v 0.312380 0.220897 -0.355309
v 0.323536 0.182250 -0.374633
v 0.345849 0.182250 -0.413280
v 0.184800 0.220897 -0.503934
v 0.179025 0.259544 -0.482381
v 0.167475 0.259544 -0.439276
v 0.161700 0.220897 -0.417723
v 0.167475 0.182250 -0.439276
v 0.179025 0.182250 -0.482381
v 0.000000 0.220897 -0.528263
v 0.000000 0.259544 -0.505950
v 0.000000 0.259544 -0.461324
v 0.000000 0.220897 -0.439011
v 0.000000 0.182250 -0.461324
v 0.000000 0.182250 -0.505950
v -0.184800 0.220897 -0.503934
v -0.179025 0.259544 -0.482381
v -0.167475 0.259544 -0.439276
v -0.161700 0.220897 -0.417723
v -0.167475 0.182250 -0.439276
v -0.179025 0.182250 -0.482381
v -0.357006 0.220897 -0.432603
v -0.345849 0.259544 -0.413280
v -0.323536 0.259544 -0.374633
v -0.312380 0.220897 -0.355309
v -0.323536 0.182250 -0.374633
v -0.345849 0.182250 -0.413280
v -0.504882 0.220897 -0.319134
v -0.489105 0.259544 -0.303356
v -0.457550 0.259544 -0.271801
v -0.441772 0.220897 -0.256023
v -0.457550 0.182250 -0.271801
v -0.489105 0.182250 -0.303356
v -0.618352 0.220897 -0.171257
v -0.599029 0.259544 -0.160101
v -0.560382 0.259544 -0.137788
v -0.541058 0.220897 -0.126631
v -0.560382 0.182250 -0.137788
v -0.599029 0.182250 -0.160101
v -0.689682 0.220897 0.000949
v -0.668130 0.259544 0.006724
v -0.625024 0.259544 0.018274
v -0.603472 0.220897 0.024049
v -0.625024 0.182250 0.018274
v -0.668130 0.182250 0.006724
v -0.714011 0.220897 0.185749
v -0.691699 0.259544 0.185749
v -0.647073 0.259544 0.185749
v -0.624760 0.220897 0.185749
v -0.647073 0.182250 0.185749
v -0.691699 0.182250 0.185749
v -0.689682 0.220897 0.370548
v -0.668130 0.259544 0.364773
v -0.625024 0.259544 0.353223
v -0.603472 0.220897 0.347448
v -0.625024 0.182250 0.353223
v -0.668130 0.182250 0.364773
v -0.618352 0.220897 0.542754
v -0.599029 0.259544 0.531598
v -0.560382 0.259544 0.509285
v -0.541058 0.220897 0.498129
v -0.560382 0.182250 0.509285
v -0.599029 0.182250 0.531598
v -0.504882 0.220897 0.690631
v -0.489105 0.259544 0.674853
v -0.457550 0.259544 0.643298
v -0.441772 0.220897 0.627521
v -0.457550 0.182250 0.643298
v -0.489105 0.182250 0.674853
v -0.357006 0.220897 0.804101
v -0.345849 0.259544 0.784777
v -0.323536 0.259544 0.746130
v -0.312380 0.220897 0.726807
v -0.323536 0.182250 0.746130
v -0.345849 0.182250 0.784777
v -0.184800 0.220897 0.875431
v -0.179025 0.259544 0.853878
v -0.167475 0.259544 0.810773
v -0.161700 0.220897 0.789221
v -0.167475 0.182250 0.810773
v -0.179025 0.182250 0.853878
v 0.523923 0.165115 -0.093162
v 0.635487 0.165115 -0.093162
v 0.635487 0.276679 -0.093162
v 0.523923 0.276679 -0.093162
v 0.635487 0.165115 -0.204726
v 0.523923 0.165115 -0.204726
v 0.523923 0.276679 -0.204726
v 0.635487 0.276679 -0.204726
v -0.055782 0.165115 -0.427855
v 0.055782 0.165115 -0.427855
v 0.055782 0.276679 -0.427855
v -0.055782 0.276679 -0.427855
v 0.055782 0.165115 -0.539419
v -0.055782 0.165115 -0.539419
v -0.055782 0.276679 -0.539419
v 0.055782 0.276679 -0.539419
v -0.635487 0.165115 -0.093162
v -0.523923 0.165115 -0.093162
v -0.523923 0.276679 -0.093162
v -0.635487 0.276679 -0.093162
v -0.523923 0.165115 -0.204726
v -0.635487 0.165115 -0.204726
v -0.635487 0.276679 -0.204726
v -0.523923 0.276679 -0.204726
v -0.635487 0.165115 0.576224
v -0.523923 0.165115 0.576224
v -0.523923 0.276679 0.576224
v -0.635487 0.276679 0.576224
v -0.523923 0.165115 0.464659
v -0.635487 0.165115 0.464659
v -0.635487 0.276679 0.464659
v -0.523923 0.276679 0.464659
v -0.055782 0.165115 0.910917
v 0.055782 0.165115 0.910917
v 0.055782 0.276679 0.910917
v -0.055782 0.276679 0.910917
v 0.055782 0.165115 0.799352
v -0.055782 0.165115 0.799352
v -0.055782 0.276679 0.799352
v 0.055782 0.276679 0.799352
v 0.523923 0.165115 0.576224
v 0.635487 0.165115 0.576224
v 0.635487 0.276679 0.576224
v 0.523923 0.276679 0.576224
v 0.635487 0.165115 0.464659
v 0.523923 0.165115 0.464659
v 0.523923 0.276679 0.464659
v 0.635487 0.276679 0.464659
v 0.753059 0.220897 -1.936675
v 0.816169 0.157787 -1.936675
v 0.753059 0.131646 -1.936675
v 0.842310 0.220897 -1.936675
v 0.816169 0.284008 -1.936675
v 0.753059 0.310149 -1.936675
v 0.689949 0.284008 -1.936675
v 0.663808 0.220897 -1.936675
v 0.689949 0.157787 -1.936675
v 0.816169 0.157787 -1.546200
v 0.753059 0.131646 -1.546200
v 0.842310 0.220897 -1.546200
v 0.816169 0.284008 -1.546200
v 0.753059 0.310149 -1.546200
v 0.689949 0.284008 -1.546200
v 0.663808 0.220897 -1.546200
v 0.689949 0.157787 -1.546200
v 0.753059 0.220897 -1.546200
v 0.753059 0.293414 -1.919941
v 0.804336 0.272174 -1.919941
v 0.789979 0.257817 -1.936675
v 0.753059 0.273109 -1.936675
v 0.825576 0.220897 -1.919941
v 0.805271 0.220897 -1.936675
v 0.804336 0.169620 -1.919941
v 0.789979 0.183978 -1.936675
v 0.753059 0.148381 -1.919941
v 0.753059 0.168685 -1.936675
v 0.701782 0.169620 -1.919941
v 0.716139 0.183978 -1.936675
v 0.680542 0.220897 -1.919941
v 0.700847 0.220897 -1.936675
v 0.701782 0.272174 -1.919941
v 0.716139 0.257817 -1.936675
v 0.753059 0.220897 -1.947832
v -0.753059 0.220897 -1.936675
v -0.689949 0.157787 -1.936675
v -0.753059 0.131646 -1.936675
v -0.663808 0.220897 -1.936675
v -0.689949 0.284008 -1.936675
v -0.753059 0.310149 -1.936675
v -0.816169 0.284008 -1.936675
v -0.842310 0.220897 -1.936675
v -0.816169 0.157787 -1.936675
v -0.689949 0.157787 -1.546200
v -0.753059 0.131646 -1.546200
v -0.663808 0.220897 -1.546200
v -0.689949 0.284008 -1.546200
v -0.753059 0.310149 -1.546200
v -0.816169 0.284008 -1.546200
v -0.842310 0.220897 -1.546200
v -0.816169 0.157787 -1.546200
v -0.753059 0.220897 -1.546200
v -0.753059 0.293414 -1.919941
v -0.701782 0.272174 -1.919941
v -0.716139 0.257817 -1.936675
v -0.753059 0.273109 -1.936675
v -0.680542 0.220897 -1.919941
v -0.700847 0.220897 -1.936675
v -0.701782 0.169620 -1.919941
v -0.716139 0.183978 -1.936675
v -0.753059 0.148381 -1.919941
v -0.753059 0.168685 -1.936675
v -0.804336 0.169620 -1.919941
v -0.789979 0.183978 -1.936675
v -0.825576 0.220897 -1.919941
v -0.805271 0.220897 -1.936675
v -0.804336 0.272174 -1.919941
v -0.789979 0.257817 -1.936675
v -0.753059 0.220897 -1.947832
v 0.376530 0.220897 -2.588844
v 0.439640 0.157787 -2.588844
v 0.376530 0.131646 -2.588844
v 0.465781 0.220897 -2.588844
v 0.439640 0.284008 -2.588844
v 0.376530 0.310149 -2.588844
v 0.313419 0.284008 -2.588844
v 0.287278 0.220897 -2.588844
v 0.313419 0.157787 -2.588844
v 0.439640 0.157787 -2.198369
v 0.376530 0.131646 -2.198369
v 0.465781 0.220897 -2.198369
v 0.439640 0.284008 -2.198369
v 0.376530 0.310149 -2.198369
v 0.313419 0.284008 -2.198369
v 0.287278 0.220897 -2.198369
v 0.313419 0.157787 -2.198369
v 0.376530 0.220897 -2.198369
v 0.376530 0.293414 -2.572109
v 0.427807 0.272174 -2.572109
v 0.413449 0.257817 -2.588844
v 0.376530 0.273109 -2.588844
v 0.449046 0.220897 -2.572109
v 0.428742 0.220897 -2.588844
v 0.427807 0.169620 -2.572109
v 0.413449 0.183978 -2.588844
v 0.376530 0.148381 -2.572109
v 0.376530 0.168685 -2.588844
v 0.325252 0.169620 -2.572109
v 0.339610 0.183978 -2.588844
v 0.304013 0.220897 -2.572109
v 0.324317 0.220897 -2.588844
v 0.325252 0.272174 -2.572109
v 0.339610 0.257817 -2.588844
v 0.376530 0.220897 -2.600000
v -0.376530 0.220897 -2.588844
v -0.313419 0.157787 -2.588844
v -0.376530 0.131646 -2.588844
v -0.287278 0.220897 -2.588844
v -0.313419 0.284008 -2.588844
v -0.376530 0.310149 -2.588844
v -0.439640 0.284008 -2.588844
v -0.465781 0.220897 -2.588844
v -0.439640 0.157787 -2.588844
v -0.313419 0.157787 -2.198369
v -0.376530 0.131646 -2.198369
v -0.287278 0.220897 -2.198369
v -0.313419 0.284008 -2.198369
v -0.376530 0.310149 -2.198369
v -0.439640 0.284008 -2.198369
v -0.465781 0.220897 -2.198369
v -0.439640 0.157787 -2.198369
v -0.376530 0.220897 -2.198369
v -0.376530 0.293414 -2.572109
v -0.325252 0.272174 -2.572109
v -0.339610 0.257817 -2.588844
v -0.376530 0.273109 -2.588844
v -0.304013 0.220897 -2.572109
v -0.324317 0.220897 -2.588844
v -0.325252 0.169620 -2.572109
v -0.339610 0.183978 -2.588844
v -0.376530 0.148381 -2.572109
v -0.376530 0.168685 -2.588844
v -0.427807 0.169620 -2.572109
v -0.413449 0.183978 -2.588844
v -0.449046 0.220897 -2.572109
v -0.428742 0.220897 -2.588844
v -0.427807 0.272174 -2.572109
v -0.413449 0.257817 -2.588844
v -0.376530 0.220897 -2.600000
v -0.775372 0.187428 -1.445792
v 0.000000 0.187428 -1.445792
v 0.000000 0.254367 -1.445792
v -0.775372 0.254367 -1.445792
v 0.000000 0.187428 -1.590826
v -0.775372 0.187428 -1.590826
v -0.775372 0.254367 -1.590826
v 0.000000 0.254367 -1.590826
v 0.000000 0.187428 -1.445792
v 0.775372 0.187428 -1.445792
v 0.775372 0.254367 -1.445792
v 0.000000 0.254367 -1.445792
v 0.775372 0.187428 -1.590826
v 0.000000 0.187428 -1.590826
v 0.000000 0.254367 -1.590826
v 0.775372 0.254367 -1.590826
v 0.000000 0.220897 2.209525
v 0.096618 0.165115 2.209525
v 0.000000 0.109333 2.209525
v 0.096618 0.276679 2.209525
v 0.000000 0.332462 2.209525
v -0.096618 0.276679 2.209525
v -0.096618 0.165115 2.209525
v 0.000000 0.220897 2.600000
v -0.122721 0.220897 2.097961
v -0.089251 0.220897 2.097961
v -0.122721 0.187428 2.097961
v -0.122721 0.254367 2.097961
v -0.156190 0.220897 2.097961
v -0.122721 0.220897 2.600000
v 0.122721 0.220897 2.097961
v 0.156190 0.220897 2.097961
v 0.122721 0.187428 2.097961
v 0.122721 0.254367 2.097961
v 0.089251 0.220897 2.097961
v 0.122721 0.220897 2.600000
vt 0.445312 0.828125
vt 0.517128 0.944135
vt 0.445312 0.992188
vt 0.546875 0.828125
vt 0.517128 0.712115
vt 0.445312 0.664062
vt 0.373497 0.712115
vt 0.343750 0.828125
vt 0.373497 0.944135
vt 0.617188 0.429687
vt 0.664062 0.429687
vt 0.617188 0.476562
vt 0.617188 0.382812
vt 0.570312 0.429687
vt 0.765625 0.382812
vt 0.718750 0.382812
vt 0.718750 0.476562
vt 0.765625 0.382812
vt 0.718750 0.382812
vt 0.718750 0.476562
vt 0.671875 0.382812
vt 0.617188 0.429688
vt 0.664062 0.429688
vt 0.617188 0.476562
vt 0.617188 0.382812
vt 0.570312 0.429688
vt 0.718750 0.382812
vt 0.765625 0.382812
vt 0.718750 0.476562
vt 0.718750 0.382812
vt 0.671875 0.382812
vt 0.718750 0.476562
vt 0.671875 0.382812
vt 0.617188 0.429688
vt 0.664062 0.429688
vt 0.617188 0.476562
vt 0.617188 0.382812
vt 0.570312 0.429688
vt 0.765625 0.382812
vt 0.718750 0.382812
vt 0.718750 0.476562
vt 0.671875 0.382812
vt 0.617188 0.429688
vt 0.664062 0.429688
vt 0.617188 0.476562
vt 0.617188 0.382812
vt 0.570312 0.429688
vt 0.765625 0.382812
vt 0.718750 0.382812
vt 0.718750 0.476562
vt 0.671875 0.382812
vt 0.718750 0.382812
vt 0.671875 0.382812
vt 0.718750 0.476562
vt 0.617188 0.429687
vt 0.664062 0.429687
vt 0.617188 0.476562
vt 0.617188 0.382812
vt 0.570312 0.429687
vt 0.765625 0.382812
vt 0.718750 0.382812
vt 0.718750 0.476562
vt 0.765625 0.382812
vt 0.718750 0.382812
vt 0.718750 0.476562
vt 0.671875 0.382812
vt 0.617188 0.429687
vt 0.664062 0.429687
vt 0.617188 0.476562
vt 0.617188 0.382812
vt 0.570312 0.429687
vt 0.765625 0.382812
vt 0.718750 0.382812
vt 0.718750 0.476562
vt 0.765625 0.382812
vt 0.718750 0.382812
vt 0.718750 0.476562
vt 0.671875 0.382812
vt 0.851562 0.210938
vt 0.945312 0.210938
vt 0.945312 0.273438
vt 0.851562 0.273438
vt 0.851562 0.210938
vt 0.851562 0.273438
vt 0.945312 0.273438
vt 0.945312 0.210938
vt 0.945312 0.210938
vt 0.851562 0.210938
vt 0.851562 0.273438
vt 0.945312 0.273438
vt 0.773438 0.140625
vt 0.835938 0.140625
vt 0.835938 0.187500
vt 0.773438 0.187500
vt 0.851562 0.210938
vt 0.945312 0.210938
vt 0.945312 0.273438
vt 0.851562 0.273438
vt 0.851562 0.210938
vt 0.851562 0.273438
vt 0.945312 0.273438
vt 0.945312 0.210938
vt 0.945312 0.210938
vt 0.851562 0.210938
vt 0.851562 0.273438
vt 0.945312 0.273438
vt 0.773438 0.140625
vt 0.835938 0.140625
vt 0.835938 0.187500
vt 0.773438 0.187500
vt 0.851562 0.210938
vt 0.945312 0.210938
vt 0.945312 0.273438
vt 0.851562 0.273438
vt 0.851562 0.210938
vt 0.851562 0.273438
vt 0.945312 0.273438
vt 0.945312 0.210938
vt 0.945312 0.210938
vt 0.851562 0.210938
vt 0.851562 0.273438
vt 0.945312 0.273438
vt 0.773438 0.140625
vt 0.835938 0.140625
vt 0.835938 0.187500
vt 0.773438 0.187500
vt 0.945312 0.210938
vt 0.851562 0.210938
vt 0.851562 0.273438
vt 0.945312 0.273438
vt 0.945312 0.273438
vt 0.945312 0.210938
vt 0.851562 0.210938
vt 0.851562 0.273438
vt 0.773438 0.140625
vt 0.835938 0.140625
vt 0.835938 0.187500
vt 0.773438 0.187500
vt 0.945312 0.210938
vt 0.851562 0.210938
vt 0.851562 0.273438
vt 0.945312 0.273438
vt 0.945312 0.210938
vt 0.851562 0.210938
vt 0.851562 0.273438
vt 0.945312 0.273438
vt 0.945312 0.273438
vt 0.945312 0.210938
vt 0.851562 0.210938
vt 0.851562 0.273438
vt 0.773438 0.140625
vt 0.835938 0.140625
vt 0.835938 0.187500
vt 0.773438 0.187500
vt 0.945312 0.210938
vt 0.851562 0.210938
vt 0.851562 0.273438
vt 0.945312 0.273438
vt 0.945312 0.210938
vt 0.851562 0.210938
vt 0.851562 0.273438
vt 0.945312 0.273438
vt 0.945312 0.273438
vt 0.945312 0.210938
vt 0.851562 0.210938
vt 0.851562 0.273438
vt 0.773438 0.140625
vt 0.835938 0.140625
vt 0.835938 0.187500
vt 0.773438 0.187500
vt 0.945312 0.210938
vt 0.851562 0.210938
vt 0.851562 0.273438
vt 0.945312 0.273438
vt 0.515625 0.117188
vt 0.547977 0.117188
vt 0.547072 0.132812
vt 0.515625 0.132812
vt 0.718750 0.272563
vt 0.750197 0.271528
vt 0.748387 0.269840
vt 0.718750 0.270815
vt 0.515625 0.132812
vt 0.545262 0.132812
vt 0.544358 0.117188
vt 0.515625 0.117188
vt 0.545262 0.101562
vt 0.515625 0.101562
vt 0.515625 0.101562
vt 0.547072 0.101562
vt 0.578125 0.117188
vt 0.576377 0.132812
vt 0.779502 0.268494
vt 0.776005 0.266980
vt 0.572880 0.132812
vt 0.571132 0.117188
vt 0.572880 0.101562
vt 0.576377 0.101562
vt 0.604013 0.117188
vt 0.601541 0.132812
vt 0.804666 0.263666
vt 0.799721 0.262430
vt 0.596596 0.132812
vt 0.594124 0.117188
vt 0.596596 0.101562
vt 0.601541 0.101562
vt 0.604013 0.117188
vt 0.578125 0.117188
vt 0.576377 0.132812
vt 0.601541 0.132812
vt 0.823975 0.257375
vt 0.817919 0.256501
vt 0.596596 0.132812
vt 0.572880 0.132812
vt 0.571132 0.117188
vt 0.594124 0.117188
vt 0.572880 0.101562
vt 0.596596 0.101562
vt 0.601541 0.101562
vt 0.576377 0.101562
vt 0.547977 0.117188
vt 0.547072 0.132812
vt 0.836113 0.250049
vt 0.829359 0.249597
vt 0.545262 0.132812
vt 0.544358 0.117188
vt 0.545262 0.101562
vt 0.547072 0.101562
vt 0.515625 0.117188
vt 0.515625 0.132812
vt 0.840253 0.242188
vt 0.833260 0.242188
vt 0.515625 0.101562
vt 0.483273 0.117188
vt 0.484178 0.132812
vt 0.836113 0.234326
vt 0.829359 0.234778
vt 0.485988 0.132812
vt 0.486892 0.117188
vt 0.485988 0.101562
vt 0.484178 0.101562
vt 0.453125 0.117188
vt 0.454873 0.132812
vt 0.823975 0.227000
vt 0.817919 0.227874
vt 0.458370 0.132812
vt 0.460118 0.117188
vt 0.458370 0.101562
vt 0.454873 0.101562
vt 0.427237 0.117188
vt 0.429709 0.132812
vt 0.804666 0.220709
vt 0.799721 0.221945
vt 0.434654 0.132812
vt 0.437126 0.117188
vt 0.434654 0.101562
vt 0.429709 0.101562
vt 0.604013 0.117188
vt 0.578125 0.117188
vt 0.576377 0.132812
vt 0.601541 0.132812
vt 0.779502 0.215881
vt 0.776005 0.217395
vt 0.596596 0.132812
vt 0.572880 0.132812
vt 0.571132 0.117188
vt 0.594124 0.117188
vt 0.572880 0.101562
vt 0.596596 0.101562
vt 0.601541 0.101562
vt 0.576377 0.101562
vt 0.547977 0.117188
vt 0.547072 0.132812
vt 0.750197 0.212847
vt 0.748387 0.214535
vt 0.545262 0.132812
vt 0.544358 0.117188
vt 0.545262 0.101562
vt 0.547072 0.101562
vt 0.718750 0.211812
vt 0.718750 0.213560
vt 0.483273 0.117188
vt 0.484178 0.132812
vt 0.687303 0.212847
vt 0.689113 0.214535
vt 0.485988 0.132812
vt 0.486892 0.117188
vt 0.485988 0.101562
vt 0.484178 0.101562
vt 0.453125 0.117188
vt 0.454873 0.132812
vt 0.657998 0.215881
vt 0.661495 0.217395
vt 0.458370 0.132812
vt 0.460118 0.117188
vt 0.458370 0.101562
vt 0.454873 0.101562
vt 0.427237 0.117188
vt 0.429709 0.132812
vt 0.632834 0.220709
vt 0.637779 0.221945
vt 0.434654 0.132812
vt 0.437126 0.117188
vt 0.434654 0.101562
vt 0.429709 0.101562
vt 0.613525 0.227000
vt 0.619581 0.227874
vt 0.601387 0.234326
vt 0.608141 0.234778
vt 0.597247 0.242188
vt 0.604240 0.242188
vt 0.601387 0.250049
vt 0.608141 0.249597
vt 0.613525 0.257375
vt 0.619581 0.256501
vt 0.632834 0.263666
vt 0.637779 0.262430
vt 0.427237 0.117188
vt 0.453125 0.117188
vt 0.454873 0.132812
vt 0.429709 0.132812
vt 0.657998 0.268494
vt 0.661495 0.266980
vt 0.434654 0.132812
vt 0.458370 0.132812
vt 0.460118 0.117188
vt 0.437126 0.117188
vt 0.458370 0.101562
vt 0.434654 0.101562
vt 0.429709 0.101562
vt 0.454873 0.101562
vt 0.483273 0.117188
vt 0.484178 0.132812
vt 0.687303 0.271528
vt 0.689113 0.269840
vt 0.485988 0.132812
vt 0.486892 0.117188
vt 0.485988 0.101562
vt 0.484178 0.101562
vt 0.671875 0.382812
vt 0.765625 0.382812
vt 0.765625 0.476562
vt 0.671875 0.476562
vt 0.765625 0.382812
vt 0.671875 0.382812
vt 0.671875 0.476562
vt 0.765625 0.476562
vt 0.570312 0.476562
vt 0.664062 0.476562
vt 0.664062 0.382812
vt 0.570312 0.382812
vt 0.671875 0.382812
vt 0.765625 0.382812
vt 0.765625 0.476562
vt 0.671875 0.476562
vt 0.671875 0.382812
vt 0.765625 0.382812
vt 0.765625 0.476562
vt 0.671875 0.476562
vt 0.765625 0.382812
vt 0.671875 0.382812
vt 0.671875 0.476562
vt 0.765625 0.476562
vt 0.570312 0.476562
vt 0.664062 0.476562
vt 0.664062 0.382812
vt 0.570312 0.382812
vt 0.671875 0.382812
vt 0.765625 0.382812
vt 0.765625 0.476562
vt 0.671875 0.476562
vt 0.671875 0.382812
vt 0.765625 0.382812
vt 0.765625 0.476562
vt 0.671875 0.476562
vt 0.765625 0.382812
vt 0.671875 0.382812
vt 0.671875 0.476562
vt 0.765625 0.476562
vt 0.570312 0.476562
vt 0.664062 0.476562
vt 0.664062 0.382812
vt 0.570312 0.382812
vt 0.671875 0.382812
vt 0.765625 0.382812
vt 0.765625 0.476562
vt 0.671875 0.476562
vt 0.671875 0.382812
vt 0.765625 0.382812
vt 0.765625 0.476562
vt 0.671875 0.476562
vt 0.765625 0.382812
vt 0.671875 0.382812
vt 0.671875 0.476562
vt 0.765625 0.476562
vt 0.570312 0.476562
vt 0.664062 0.476562
vt 0.664062 0.382812
vt 0.570312 0.382812
vt 0.671875 0.382812
vt 0.765625 0.382812
vt 0.765625 0.476562
vt 0.671875 0.476562
vt 0.671875 0.382812
vt 0.765625 0.382812
vt 0.765625 0.476562
vt 0.671875 0.476562
vt 0.765625 0.382812
vt 0.671875 0.382812
vt 0.671875 0.476562
vt 0.765625 0.476562
vt 0.570312 0.476562
vt 0.664062 0.476562
vt 0.664062 0.382812
vt 0.570312 0.382812
vt 0.671875 0.382812
vt 0.765625 0.382812
vt 0.765625 0.476562
vt 0.671875 0.476562
vt 0.671875 0.382812
vt 0.765625 0.382812
vt 0.765625 0.476562
vt 0.671875 0.476562
vt 0.765625 0.382812
vt 0.671875 0.382812
vt 0.671875 0.476562
vt 0.765625 0.476562
vt 0.570312 0.476562
vt 0.664062 0.476562
vt 0.664062 0.382812
vt 0.570312 0.382812
vt 0.671875 0.382812
vt 0.765625 0.382812
vt 0.765625 0.476562
vt 0.671875 0.476562
vt 0.515625 0.117188
vt 0.547977 0.117188
vt 0.546966 0.132812
vt 0.515625 0.132812
vt 0.718750 0.272461
vt 0.750091 0.271429
vt 0.748069 0.269543
vt 0.718750 0.270508
vt 0.515625 0.132812
vt 0.544944 0.132812
vt 0.543933 0.117188
vt 0.515625 0.117188
vt 0.544944 0.101562
vt 0.515625 0.101562
vt 0.515625 0.101562
vt 0.546966 0.101562
vt 0.578125 0.117188
vt 0.576172 0.132812
vt 0.779297 0.268405
vt 0.775391 0.266714
vt 0.572266 0.132812
vt 0.570312 0.117188
vt 0.572266 0.101562
vt 0.576172 0.101562
vt 0.604013 0.117188
vt 0.601251 0.132812
vt 0.804376 0.263594
vt 0.798852 0.262213
vt 0.595727 0.132812
vt 0.592965 0.117188
vt 0.595727 0.101562
vt 0.601251 0.101562
vt 0.604013 0.117188
vt 0.578125 0.117188
vt 0.576172 0.132812
vt 0.601251 0.132812
vt 0.823620 0.257324
vt 0.816854 0.256348
vt 0.595727 0.132812
vt 0.572266 0.132812
vt 0.570312 0.117188
vt 0.592965 0.117188
vt 0.572266 0.101562
vt 0.595727 0.101562
vt 0.601251 0.101562
vt 0.576172 0.101562
vt 0.547977 0.117188
vt 0.546966 0.132812
vt 0.835718 0.250023
vt 0.828171 0.249517
vt 0.544944 0.132812
vt 0.543933 0.117188
vt 0.544944 0.101562
vt 0.546966 0.101562
vt 0.515625 0.117188
vt 0.515625 0.132812
vt 0.839844 0.242188
vt 0.832031 0.242188
vt 0.515625 0.101562
vt 0.483273 0.117188
vt 0.484284 0.132812
vt 0.835718 0.234352
vt 0.828171 0.234858
vt 0.486306 0.132812
vt 0.487317 0.117188
vt 0.486306 0.101562
vt 0.484284 0.101562
vt 0.453125 0.117188
vt 0.455078 0.132812
vt 0.823620 0.227051
vt 0.816854 0.228027
vt 0.458984 0.132812
vt 0.460938 0.117188
vt 0.458984 0.101562
vt 0.455078 0.101562
vt 0.427237 0.117188
vt 0.429999 0.132812
vt 0.804376 0.220781
vt 0.798852 0.222162
vt 0.435523 0.132812
vt 0.438285 0.117188
vt 0.435523 0.101562
vt 0.429999 0.101562
vt 0.604013 0.117188
vt 0.578125 0.117188
vt 0.576172 0.132812
vt 0.601251 0.132812
vt 0.779297 0.215970
vt 0.775391 0.217661
vt 0.595727 0.132812
vt 0.572266 0.132812
vt 0.570312 0.117188
vt 0.592965 0.117188
vt 0.572266 0.101562
vt 0.595727 0.101562
vt 0.601251 0.101562
vt 0.576172 0.101562
vt 0.547977 0.117188
vt 0.546966 0.132812
vt 0.750091 0.212946
vt 0.748069 0.214832
vt 0.544944 0.132812
vt 0.543933 0.117188
vt 0.544944 0.101562
vt 0.546966 0.101562
vt 0.718750 0.211914
vt 0.718750 0.213867
vt 0.483273 0.117188
vt 0.484284 0.132812
vt 0.687409 0.212946
vt 0.689431 0.214832
vt 0.486306 0.132812
vt 0.487317 0.117188
vt 0.486306 0.101562
vt 0.484284 0.101562
vt 0.453125 0.117188
vt 0.455078 0.132812
vt 0.658203 0.215970
vt 0.662109 0.217661
vt 0.458984 0.132812
vt 0.460938 0.117188
vt 0.458984 0.101562
vt 0.455078 0.101562
vt 0.427237 0.117188
vt 0.429999 0.132812
vt 0.633124 0.220781
vt 0.638648 0.222162
vt 0.435523 0.132812
vt 0.438285 0.117188
vt 0.435523 0.101562
vt 0.429999 0.101562
vt 0.613880 0.227051
vt 0.620646 0.228027
vt 0.601782 0.234352
vt 0.609329 0.234858
vt 0.597656 0.242188
vt 0.605469 0.242188
vt 0.601782 0.250023
vt 0.609329 0.249517
vt 0.613880 0.257324
vt 0.620646 0.256348
vt 0.633124 0.263594
vt 0.638648 0.262213
vt 0.427237 0.117188
vt 0.453125 0.117188
vt 0.455078 0.132812
vt 0.429999 0.132812
vt 0.658203 0.268405
vt 0.662109 0.266714
vt 0.435523 0.132812
vt 0.458984 0.132812
vt 0.460937 0.117188
vt 0.438285 0.117188
vt 0.458984 0.101562
vt 0.435523 0.101562
vt 0.429999 0.101562
vt 0.455078 0.101562
vt 0.483273 0.117188
vt 0.484284 0.132812
vt 0.687409 0.271429
vt 0.689431 0.269543
vt 0.486306 0.132812
vt 0.487317 0.117188
vt 0.486306 0.101562
vt 0.484284 0.101562
vt 0.671875 0.382812
vt 0.765625 0.382812
vt 0.765625 0.476562
vt 0.671875 0.476562
vt 0.765625 0.382812
vt 0.671875 0.382812
vt 0.671875 0.476562
vt 0.765625 0.476562
vt 0.570312 0.476562
vt 0.664062 0.476562
vt 0.664062 0.382812
vt 0.570312 0.382812
vt 0.671875 0.382812
vt 0.765625 0.382812
vt 0.765625 0.476562
vt 0.671875 0.476562
vt 0.671875 0.382812
vt 0.765625 0.382812
vt 0.765625 0.476562
vt 0.671875 0.476562
vt 0.765625 0.382812
vt 0.671875 0.382812
vt 0.671875 0.476562
vt 0.765625 0.476562
vt 0.570312 0.476562
vt 0.664062 0.476562
vt 0.664062 0.382812
vt 0.570312 0.382812
vt 0.671875 0.382812
vt 0.765625 0.382812
vt 0.765625 0.476562
vt 0.671875 0.476562
vt 0.671875 0.382812
vt 0.765625 0.382812
vt 0.765625 0.476562
vt 0.671875 0.476562
vt 0.765625 0.382812
vt 0.671875 0.382812
vt 0.671875 0.476562
vt 0.765625 0.476562
vt 0.570312 0.476562
vt 0.664062 0.476562
vt 0.664062 0.382812
vt 0.570312 0.382812
vt 0.671875 0.382812
vt 0.765625 0.382812
vt 0.765625 0.476562
vt 0.671875 0.476562
vt 0.671875 0.382812
vt 0.765625 0.382812
vt 0.765625 0.476562
vt 0.671875 0.476562
vt 0.765625 0.382812
vt 0.671875 0.382812
vt 0.671875 0.476562
vt 0.765625 0.476562
vt 0.570312 0.476562
vt 0.664062 0.476562
vt 0.664062 0.382812
vt 0.570312 0.382812
vt 0.671875 0.382812
vt 0.765625 0.382812
vt 0.765625 0.476562
vt 0.671875 0.476562
vt 0.671875 0.382812
vt 0.765625 0.382812
vt 0.765625 0.476562
vt 0.671875 0.476562
vt 0.765625 0.382812
vt 0.671875 0.382812
vt 0.671875 0.476562
vt 0.765625 0.476562
vt 0.570312 0.476562
vt 0.664062 0.476562
vt 0.664062 0.382812
vt 0.570312 0.382812
vt 0.671875 0.382812
vt 0.765625 0.382812
vt 0.765625 0.476562
vt 0.671875 0.476562
vt 0.671875 0.382812
vt 0.765625 0.382812
vt 0.765625 0.476562
vt 0.671875 0.476562
vt 0.765625 0.382812
vt 0.671875 0.382812
vt 0.671875 0.476562
vt 0.765625 0.476562
vt 0.570312 0.476562
vt 0.664062 0.476562
vt 0.664062 0.382812
vt 0.570312 0.382812
vt 0.671875 0.382812
vt 0.765625 0.382812
vt 0.765625 0.476562
vt 0.671875 0.476562
vt 0.539062 0.234375
vt 0.572208 0.206754
vt 0.539062 0.195312
vt 0.585938 0.234375
vt 0.572208 0.261996
vt 0.539062 0.273438
vt 0.505917 0.261996
vt 0.492188 0.234375
vt 0.505917 0.206754
vt 0.589844 0.664062
vt 0.614703 0.664062
vt 0.614703 0.992188
vt 0.589844 0.992188
vt 0.492188 0.308316
vt 0.492188 0.335938
vt 0.867188 0.335938
vt 0.867188 0.308316
vt 0.492188 0.363559
vt 0.867188 0.363559
vt 0.564985 0.664062
vt 0.564985 0.992188
vt 0.437500 0.195312
vt 0.470646 0.206754
vt 0.437500 0.234375
vt 0.484375 0.234375
vt 0.470646 0.261996
vt 0.437500 0.273438
vt 0.404354 0.261996
vt 0.390625 0.234375
vt 0.404354 0.206754
vt 0.054687 0.375000
vt 0.087833 0.361271
vt 0.078552 0.351990
vt 0.054687 0.361875
vt 0.101562 0.328125
vt 0.088437 0.328125
vt 0.087833 0.294979
vt 0.078552 0.304260
vt 0.054687 0.281250
vt 0.054687 0.294375
vt 0.021542 0.294979
vt 0.030823 0.304260
vt 0.007812 0.328125
vt 0.020937 0.328125
vt 0.021542 0.361271
vt 0.030823 0.351990
vt 0.054687 0.328125
vt 0.539062 0.234375
vt 0.572208 0.206754
vt 0.539062 0.195312
vt 0.585938 0.234375
vt 0.572208 0.261996
vt 0.539062 0.273438
vt 0.505917 0.261996
vt 0.492188 0.234375
vt 0.505917 0.206754
vt 0.589844 0.664062
vt 0.614703 0.664062
vt 0.614703 0.992188
vt 0.589844 0.992188
vt 0.492188 0.308316
vt 0.492188 0.335938
vt 0.867188 0.335938
vt 0.867188 0.308316
vt 0.492188 0.363559
vt 0.867188 0.363559
vt 0.564985 0.664062
vt 0.564985 0.992188
vt 0.437500 0.195312
vt 0.470646 0.206754
vt 0.437500 0.234375
vt 0.484375 0.234375
vt 0.470646 0.261996
vt 0.437500 0.273438
vt 0.404354 0.261996
vt 0.390625 0.234375
vt 0.404354 0.206754
vt 0.054688 0.375000
vt 0.087833 0.361271
vt 0.078552 0.351990
vt 0.054688 0.361875
vt 0.101562 0.328125
vt 0.088438 0.328125
vt 0.087833 0.294979
vt 0.078552 0.304260
vt 0.054688 0.281250
vt 0.054688 0.294375
vt 0.021542 0.294979
vt 0.030823 0.304260
vt 0.007812 0.328125
vt 0.020938 0.328125
vt 0.021542 0.361271
vt 0.030823 0.351990
vt 0.054688 0.328125
vt 0.539062 0.234375
vt 0.572208 0.206754
vt 0.539062 0.195312
vt 0.585938 0.234375
vt 0.572208 0.261996
vt 0.539062 0.273438
vt 0.505917 0.261996
vt 0.492188 0.234375
vt 0.505917 0.206754
vt 0.589844 0.664062
vt 0.614703 0.664062
vt 0.614703 0.992188
vt 0.589844 0.992188
vt 0.492188 0.308316
vt 0.492188 0.335938
vt 0.867188 0.335938
vt 0.867188 0.308316
vt 0.492188 0.363559
vt 0.867188 0.363559
vt 0.564985 0.664062
vt 0.564985 0.992188
vt 0.437500 0.195312
vt 0.470646 0.206754
vt 0.437500 0.234375
vt 0.484375 0.234375
vt 0.470646 0.261996
vt 0.437500 0.273438
vt 0.404354 0.261996
vt 0.390625 0.234375
vt 0.404354 0.206754
vt 0.054688 0.375000
vt 0.087833 0.361271
vt 0.078552 0.351990
vt 0.054688 0.361875
vt 0.101562 0.328125
vt 0.088438 0.328125
vt 0.087833 0.294979
vt 0.078552 0.304260
vt 0.054688 0.281250
vt 0.054688 0.294375
vt 0.021542 0.294979
vt 0.030823 0.304260
vt 0.007812 0.328125
vt 0.020937 0.328125
vt 0.021542 0.361271
vt 0.030823 0.351990
vt 0.054688 0.328125
vt 0.539062 0.234375
vt 0.572208 0.206754
vt 0.539062 0.195312
vt 0.585938 0.234375
vt 0.572208 0.261996
vt 0.539062 0.273438
vt 0.505917 0.261996
vt 0.492188 0.234375
vt 0.505917 0.206754
vt 0.589844 0.664062
vt 0.614703 0.664062
vt 0.614703 0.992188
vt 0.589844 0.992188
vt 0.492188 0.308316
vt 0.492188 0.335938
vt 0.867188 0.335938
vt 0.867188 0.308316
vt 0.492188 0.363559
vt 0.867188 0.363559
vt 0.564985 0.664062
vt 0.564985 0.992188
vt 0.437500 0.195312
vt 0.470646 0.206754
vt 0.437500 0.234375
vt 0.484375 0.234375
vt 0.470646 0.261996
vt 0.437500 0.273438
vt 0.404354 0.261996
vt 0.390625 0.234375
vt 0.404354 0.206754
vt 0.054688 0.375000
vt 0.087833 0.361271
vt 0.078552 0.351990
vt 0.054688 0.361875
vt 0.101562 0.328125
vt 0.088438 0.328125
vt 0.087833 0.294979
vt 0.078552 0.304260
vt 0.054688 0.281250
vt 0.054688 0.294375
vt 0.021542 0.294979
vt 0.030823 0.304260
vt 0.007812 0.328125
vt 0.020937 0.328125
vt 0.021542 0.361271
vt 0.030823 0.351990
vt 0.054688 0.328125
vt 0.187500 0.484375
vt 0.312500 0.484375
vt 0.312500 0.656250
vt 0.187500 0.656250
vt 0.312500 0.484375
vt 0.187500 0.484375
vt 0.187500 0.656250
vt 0.312500 0.656250
vt 0.320312 0.656250
vt 0.382812 0.656250
vt 0.382812 0.484375
vt 0.320312 0.484375
vt 0.187500 0.484375
vt 0.312500 0.484375
vt 0.312500 0.656250
vt 0.187500 0.656250
vt 0.187500 0.484375
vt 0.312500 0.484375
vt 0.312500 0.656250
vt 0.187500 0.656250
vt 0.312500 0.484375
vt 0.187500 0.484375
vt 0.187500 0.656250
vt 0.312500 0.656250
vt 0.320312 0.656250
vt 0.382812 0.656250
vt 0.382812 0.484375
vt 0.320312 0.484375
vt 0.187500 0.484375
vt 0.312500 0.484375
vt 0.312500 0.656250
vt 0.187500 0.656250
vt 0.101562 0.429688
vt 0.195312 0.406250
vt 0.101562 0.382812
vt 0.195312 0.453125
vt 0.101562 0.476562
vt 0.007813 0.453125
vt 0.007812 0.406250
vt 0.093750 0.484375
vt 0.179687 0.484375
vt 0.093750 0.656250
vt 0.007812 0.406250
vt 0.007812 0.453125
vt 0.195312 0.429688
vt 0.007813 0.484375
vt 0.718750 0.429688
vt 0.765625 0.429688
vt 0.718750 0.382812
vt 0.718750 0.476562
vt 0.671875 0.429688
vt 0.617188 0.382812
vt 0.664062 0.382812
vt 0.617188 0.476562
vt 0.671875 0.429688
vt 0.671875 0.476562
vt 0.765625 0.429688
vt 0.570312 0.382812
vt 0.671875 0.382812
vt 0.718750 0.429688
vt 0.765625 0.429688
vt 0.718750 0.382812
vt 0.718750 0.476562
vt 0.671875 0.429688
vt 0.617188 0.382812
vt 0.664062 0.382812
vt 0.617188 0.476562
vt 0.671875 0.429688
vt 0.671875 0.476562
vt 0.765625 0.429688
vt 0.570312 0.382812
vt 0.671875 0.382812
vn 0.161054 -0.981866 0.100005
vn 0.367900 -0.929039 0.039195
vn 0.367900 -0.929039 -0.039195
vn 0.161054 -0.981866 -0.100005
vn -0.161054 -0.981866 -0.100005
vn -0.367900 -0.929039 -0.039195
vn -0.367900 -0.929039 0.039195
vn -0.161054 -0.981866 0.100005
vn 0.161054 0.981866 0.100005
vn 0.367900 0.929039 0.039195
vn 0.367900 0.929039 -0.039195
vn 0.161054 0.981866 -0.100005
vn -0.161054 0.981866 -0.100005
vn -0.367900 0.929039 -0.039195
vn -0.367900 0.929039 0.039195
vn -0.161054 0.981866 0.100005
vn 0.000000 -1.000000 0.000000
vn 0.681799 0.265144 0.681799
vn 0.681799 0.265144 -0.681799
vn -0.681799 0.265144 -0.681799
vn -0.681799 0.265144 0.681799
vn 0.000000 -1.000000 0.000000
vn 0.681799 0.265144 0.681799
vn 0.681799 0.265144 -0.681799
vn -0.681799 0.265144 -0.681799
vn -0.681799 0.265144 0.681799
vn 0.000000 -1.000000 0.000000
vn 0.681799 0.265144 0.681799
vn 0.681799 0.265144 -0.681799
vn -0.681799 0.265144 -0.681799
vn -0.681799 0.265144 0.681799
vn 0.000000 -1.000000 0.000000
vn 0.681799 0.265144 0.681799
vn 0.681799 0.265144 -0.681799
vn -0.681799 0.265144 -0.681799
vn -0.681799 0.265144 0.681799
vn 0.000000 -1.000000 0.000000
vn 0.681799 0.265144 0.681799
vn 0.681799 0.265144 -0.681799
vn -0.681799 0.265144 -0.681799
vn -0.681799 0.265144 0.681799
vn 0.000000 -1.000000 0.000000
vn 0.681799 0.265144 0.681799
vn 0.681799 0.265144 -0.681799
vn -0.681799 0.265144 -0.681799
vn -0.681799 0.265144 0.681799
vn -1.000000 0.000000 0.000000
vn 1.000000 0.000000 0.000000
vn 0.000000 1.000000 0.000000
vn 0.000000 -1.000000 0.000000
vn 0.000000 0.000000 -1.000000
vn 0.000000 0.000000 1.000000
vn -1.000000 0.000000 0.000000
vn 1.000000 0.000000 0.000000
vn 0.000000 1.000000 0.000000
vn 0.000000 -1.000000 0.000000
vn 0.000000 0.000000 -1.000000
vn 0.000000 0.000000 1.000000
vn -1.000000 0.000000 0.000000
vn 1.000000 0.000000 0.000000
vn 0.000000 1.000000 0.000000
vn 0.000000 -1.000000 0.000000
vn 0.000000 0.000000 -1.000000
vn 0.000000 0.000000 1.000000
vn 1.000000 0.000000 0.000000
vn -1.000000 0.000000 0.000000
vn 0.000000 1.000000 0.000000
vn 0.000000 -1.000000 0.000000
vn 0.000000 0.000000 1.000000
vn 0.000000 0.000000 -1.000000
vn 1.000000 0.000000 0.000000
vn -1.000000 0.000000 0.000000
vn 0.000000 1.000000 0.000000
vn 0.000000 -1.000000 0.000000
vn 0.000000 0.000000 1.000000
vn 0.000000 0.000000 -1.000000
vn 1.000000 0.000000 0.000000
vn -1.000000 0.000000 0.000000
vn 0.000000 1.000000 0.000000
vn 0.000000 -1.000000 0.000000
vn 0.000000 0.000000 1.000000
vn 0.000000 0.000000 -1.000000
vn 0.113281 0.496782 0.860451
vn 0.000000 1.000000 0.000000
vn -0.113281 0.496782 -0.860451
vn -0.113281 -0.496782 -0.860451
vn 0.000000 -1.000000 0.000000
vn 0.113281 -0.496782 0.860451
vn 0.332122 0.496782 0.801813
vn -0.332122 0.496782 -0.801813
vn -0.332122 -0.496782 -0.801813
vn 0.332122 -0.496782 0.801813
vn 0.528329 0.496782 0.688532
vn -0.528329 0.496782 -0.688532
vn -0.528329 -0.496782 -0.688532
vn 0.528329 -0.496782 0.688532
vn 0.688532 0.496782 0.528329
vn -0.688532 0.496782 -0.528329
vn -0.688532 -0.496782 -0.528329
vn 0.688532 -0.496782 0.528329
vn 0.801813 0.496782 0.332122
vn -0.801813 0.496782 -0.332122
vn -0.801813 -0.496782 -0.332122
vn 0.801813 -0.496782 0.332122
vn 0.860451 0.496782 0.113281
vn -0.860451 0.496782 -0.113281
vn -0.860451 -0.496782 -0.113281
vn 0.860451 -0.496782 0.113281
vn 0.860451 0.496782 -0.113281
vn -0.860451 0.496782 0.113281
vn -0.860451 -0.496782 0.113281
vn 0.860451 -0.496782 -0.113281
vn 0.801813 0.496782 -0.332122
vn -0.801813 0.496782 0.332122
vn -0.801813 -0.496782 0.332122
vn 0.801813 -0.496782 -0.332122
vn 0.688532 0.496782 -0.528329
vn -0.688532 0.496782 0.528329
vn -0.688532 -0.496782 0.528329
vn 0.688532 -0.496782 -0.528329
vn 0.528329 0.496782 -0.688532
vn -0.528329 0.496782 0.688532
vn -0.528329 -0.496782 0.688532
vn 0.528329 -0.496782 -0.688532
vn 0.332122 0.496782 -0.801813
vn -0.332122 0.496782 0.801813
vn -0.332122 -0.496782 0.801813
vn 0.332122 -0.496782 -0.801813
vn 0.113281 0.496782 -0.860451
vn -0.113281 0.496782 0.860451
vn -0.113281 -0.496782 0.860451
vn 0.113281 -0.496782 -0.860451
vn 0.000000 0.000000 1.000000
vn 0.000000 0.000000 -1.000000
vn -0.000000 1.000000 0.000000
vn 0.000000 -1.000000 0.000000
vn -1.000000 0.000000 0.000000
vn 1.000000 0.000000 0.000000
vn 0.000000 0.000000 1.000000
vn 0.000000 0.000000 -1.000000
vn -0.000000 1.000000 0.000000
vn 0.000000 -1.000000 0.000000
vn -1.000000 0.000000 0.000000
vn 1.000000 0.000000 0.000000
vn 0.000000 0.000000 1.000000
vn 0.000000 0.000000 -1.000000
vn -0.000000 1.000000 0.000000
vn 0.000000 -1.000000 0.000000
vn -1.000000 0.000000 0.000000
vn 1.000000 0.000000 0.000000
vn 0.000000 0.000000 1.000000
vn 0.000000 0.000000 -1.000000
vn -0.000000 1.000000 0.000000
vn 0.000000 -1.000000 0.000000
vn -1.000000 0.000000 0.000000
vn 1.000000 0.000000 0.000000
vn 0.000000 0.000000 1.000000
vn 0.000000 0.000000 -1.000000
vn -0.000000 1.000000 0.000000
vn 0.000000 -1.000000 0.000000
vn -1.000000 0.000000 0.000000
vn 1.000000 0.000000 0.000000
vn 0.000000 0.000000 1.000000
vn 0.000000 0.000000 -1.000000
vn -0.000000 1.000000 0.000000
vn 0.000000 -1.000000 0.000000
vn -1.000000 0.000000 0.000000
vn 1.000000 0.000000 0.000000
vn 0.113281 0.496782 0.860451
vn 0.000000 1.000000 0.000000
vn -0.113281 0.496782 -0.860451
vn -0.113281 -0.496782 -0.860451
vn 0.000000 -1.000000 0.000000
vn 0.113281 -0.496782 0.860451
vn 0.332122 0.496782 0.801813
vn -0.332122 0.496782 -0.801813
vn -0.332122 -0.496782 -0.801813
vn 0.332122 -0.496782 0.801813
vn 0.528329 0.496782 0.688532
vn -0.528329 0.496782 -0.688532
vn -0.528329 -0.496782 -0.688532
vn 0.528329 -0.496782 0.688532
vn 0.688532 0.496782 0.528329
vn -0.688532 0.496782 -0.528329
vn -0.688532 -0.496782 -0.528329
vn 0.688532 -0.496782 0.528329
vn 0.801813 0.496782 0.332122
vn -0.801813 0.496782 -0.332122
vn -0.801813 -0.496782 -0.332122
vn 0.801813 -0.496782 0.332122
vn 0.860451 0.496782 0.113281
vn -0.860451 0.496782 -0.113281
vn -0.860451 -0.496782 -0.113281
vn 0.860451 -0.496782 0.113281
vn 0.860451 0.496782 -0.113281
vn -0.860451 0.496782 0.113281
vn -0.860451 -0.496782 0.113281
vn 0.860451 -0.496782 -0.113281
vn 0.801813 0.496782 -0.332122
vn -0.801813 0.496782 0.332122
vn -0.801813 -0.496782 0.332122
vn 0.801813 -0.496782 -0.332122
vn 0.688532 0.496782 -0.528329
vn -0.688532 0.496782 0.528329
vn -0.688532 -0.496782 0.528329
vn 0.688532 -0.496782 -0.528329
vn 0.528329 0.496782 -0.688532
vn -0.528329 0.496782 0.688532
vn -0.528329 -0.496782 0.688532
vn 0.528329 -0.496782 -0.688532
vn 0.332122 0.496782 -0.801813
vn -0.332122 0.496782 0.801813
vn -0.332122 -0.496782 0.801813
vn 0.332122 -0.496782 -0.801813
vn 0.113281 0.496782 -0.860451
vn -0.113281 0.496782 0.860451
vn -0.113281 -0.496782 0.860451
vn 0.113281 -0.496782 -0.860451
vn 0.000000 0.000000 1.000000
vn 0.000000 0.000000 -1.000000
vn -0.000000 1.000000 0.000000
vn 0.000000 -1.000000 0.000000
vn -1.000000 0.000000 0.000000
vn 1.000000 0.000000 0.000000
vn 0.000000 0.000000 1.000000
vn 0.000000 0.000000 -1.000000
vn -0.000000 1.000000 0.000000
vn 0.000000 -1.000000 0.000000
vn -1.000000 0.000000 0.000000
vn 1.000000 0.000000 0.000000
vn 0.000000 0.000000 1.000000
vn 0.000000 0.000000 -1.000000
vn -0.000000 1.000000 0.000000
vn 0.000000 -1.000000 0.000000
vn -1.000000 0.000000 0.000000
vn 1.000000 0.000000 0.000000
vn 0.000000 0.000000 1.000000
vn 0.000000 0.000000 -1.000000
vn -0.000000 1.000000 0.000000
vn 0.000000 -1.000000 0.000000
vn -1.000000 0.000000 0.000000
vn 1.000000 0.000000 0.000000
vn 0.000000 0.000000 1.000000
vn 0.000000 0.000000 -1.000000
vn -0.000000 1.000000 0.000000
vn 0.000000 -1.000000 0.000000
vn -1.000000 0.000000 0.000000
vn 1.000000 0.000000 0.000000
vn 0.000000 0.000000 1.000000
vn 0.000000 0.000000 -1.000000
vn -0.000000 1.000000 0.000000
vn 0.000000 -1.000000 0.000000
vn -1.000000 0.000000 0.000000
vn 1.000000 0.000000 0.000000
vn 0.000000 0.000000 -1.000000
vn 0.382683 -0.923880 0.000000
vn 0.923880 -0.382683 0.000000
vn 0.923880 0.382683 0.000000
vn 0.382683 0.923880 0.000000
vn -0.382683 0.923880 0.000000
vn -0.923880 0.382683 -0.000000
vn -0.923880 -0.382683 0.000000
vn -0.382683 -0.923880 0.000000
vn 0.000000 0.000000 1.000000
vn 0.254750 0.615021 -0.746225
vn 0.615021 0.254750 -0.746225
vn 0.615021 -0.254750 -0.746225
vn 0.254750 -0.615021 -0.746225
vn -0.254750 -0.615021 -0.746225
vn -0.615021 -0.254750 -0.746225
vn -0.615021 0.254750 -0.746225
vn -0.254750 0.615021 -0.746225
vn 0.086231 0.208180 -0.974282
vn 0.208180 0.086231 -0.974282
vn 0.208180 -0.086231 -0.974282
vn 0.086231 -0.208180 -0.974282
vn -0.086231 -0.208180 -0.974282
vn -0.208180 -0.086231 -0.974282
vn -0.208180 0.086231 -0.974282
vn -0.086231 0.208180 -0.974282
vn 0.000000 0.000000 -1.000000
vn 0.382683 -0.923880 0.000000
vn 0.923880 -0.382683 0.000000
vn 0.923880 0.382683 0.000000
vn 0.382683 0.923880 0.000000
vn -0.382683 0.923880 0.000000
vn -0.923880 0.382683 -0.000000
vn -0.923880 -0.382683 0.000000
vn -0.382683 -0.923880 0.000000
vn 0.000000 0.000000 1.000000
vn 0.254750 0.615021 -0.746225
vn 0.615021 0.254750 -0.746225
vn 0.615021 -0.254750 -0.746225
vn 0.254750 -0.615021 -0.746225
vn -0.254750 -0.615021 -0.746225
vn -0.615021 -0.254750 -0.746225
vn -0.615021 0.254750 -0.746225
vn -0.254750 0.615021 -0.746225
vn 0.086231 0.208180 -0.974282
vn 0.208180 0.086231 -0.974282
vn 0.208180 -0.086231 -0.974282
vn 0.086231 -0.208180 -0.974282
vn -0.086231 -0.208180 -0.974282
vn -0.208180 -0.086231 -0.974282
vn -0.208180 0.086231 -0.974282
vn -0.086231 0.208180 -0.974282
vn 0.000000 0.000000 -1.000000
vn 0.382683 -0.923880 0.000000
vn 0.923880 -0.382683 0.000000
vn 0.923880 0.382683 0.000000
vn 0.382683 0.923880 0.000000
vn -0.382683 0.923880 0.000000
vn -0.923880 0.382683 -0.000000
vn -0.923880 -0.382683 0.000000
vn -0.382683 -0.923880 0.000000
vn 0.000000 0.000000 1.000000
vn 0.254750 0.615021 -0.746225
vn 0.615021 0.254750 -0.746225
vn 0.615021 -0.254750 -0.746225
vn 0.254750 -0.615021 -0.746225
vn -0.254750 -0.615021 -0.746225
vn -0.615021 -0.254750 -0.746225
vn -0.615021 0.254750 -0.746225
vn -0.254750 0.615021 -0.746225
vn 0.086231 0.208180 -0.974282
vn 0.208180 0.086231 -0.974282
vn 0.208180 -0.086231 -0.974282
vn 0.086231 -0.208180 -0.974282
vn -0.086231 -0.208180 -0.974282
vn -0.208180 -0.086231 -0.974282
vn -0.208180 0.086231 -0.974282
vn -0.086231 0.208180 -0.974282
vn 0.000000 0.000000 -1.000000
vn 0.382683 -0.923880 0.000000
vn 0.923880 -0.382683 0.000000
vn 0.923880 0.382683 0.000000
vn 0.382683 0.923880 0.000000
vn -0.382683 0.923880 0.000000
vn -0.923880 0.382683 -0.000000
vn -0.923880 -0.382683 0.000000
vn -0.382683 -0.923880 0.000000
vn 0.000000 0.000000 1.000000
vn 0.254750 0.615021 -0.746225
vn 0.615021 0.254750 -0.746225
vn 0.615021 -0.254750 -0.746225
vn 0.254750 -0.615021 -0.746225
vn -0.254750 -0.615021 -0.746225
vn -0.615021 -0.254750 -0.746225
vn -0.615021 0.254750 -0.746225
vn -0.254750 0.615021 -0.746225
vn 0.086231 0.208180 -0.974282
vn 0.208180 0.086231 -0.974282
vn 0.208180 -0.086231 -0.974282
vn 0.086231 -0.208180 -0.974282
vn -0.086231 -0.208180 -0.974282
vn -0.208180 -0.086231 -0.974282
vn -0.208180 0.086231 -0.974282
vn -0.086231 0.208180 -0.974282
vn 0.000000 0.000000 1.000000
vn 0.000000 0.000000 -1.000000
vn -0.000000 1.000000 0.000000
vn 0.000000 -1.000000 0.000000
vn -1.000000 0.000000 0.000000
vn 1.000000 0.000000 0.000000
vn 0.000000 0.000000 1.000000
vn 0.000000 0.000000 -1.000000
vn -0.000000 1.000000 0.000000
vn 0.000000 -1.000000 0.000000
vn -1.000000 0.000000 0.000000
vn 1.000000 0.000000 0.000000
vn 0.000000 0.000000 -1.000000
vn 0.485363 -0.840673 0.240192
vn 0.970725 -0.000000 0.240192
vn 0.485363 0.840673 0.240192
vn -0.485363 0.840673 0.240192
vn -0.970725 0.000000 0.240192
vn -0.485363 -0.840673 0.240192
vn 0.000000 0.000000 -1.000000
vn 0.706322 -0.706322 0.047088
vn 0.706322 0.706322 0.047088
vn -0.706322 0.706322 0.047088
vn -0.706322 -0.706322 0.047088
vn 0.000000 0.000000 -1.000000
vn 0.706322 -0.706322 0.047088
vn 0.706322 0.706322 0.047088
vn -0.706322 0.706322 0.047088
vn -0.706322 -0.706322 0.047088
f 1/1/1 2/2/1 3/3/1
f 1/1/2 4/4/2 2/2/2
f 1/1/3 5/5/3 4/4/3
f 1/1/4 6/6/4 5/5/4
f 1/1/5 7/7/5 6/6/5
f 1/1/6 8/8/6 7/7/6
f 1/1/7 9/9/7 8/8/7
f 1/1/8 3/3/8 9/9/8
f 3/3/9 2/2/9 10/1/9
f 2/2/10 4/4/10 10/1/10
f 4/4/11 5/5/11 10/1/11
f 5/5/12 6/6/12 10/1/12
f 6/6/13 7/7/13 10/1/13
f 7/7/14 8/8/14 10/1/14
f 8/8/15 9/9/15 10/1/15
f 9/9/16 3/3/16 10/1/16
f 11/10/17 12/11/17 13/12/17
f 11/10/17 14/13/17 12/11/17
f 11/10/17 15/14/17 14/13/17
f 11/10/17 13/12/17 15/14/17
f 13/15/18 12/16/18 16/17/18
f 12/18/19 14/19/19 16/20/19
f 14/19/20 15/21/20 16/20/20
f 15/16/21 13/15/21 16/17/21
f 17/22/22 18/23/22 19/24/22
f 17/22/22 20/25/22 18/23/22
f 17/22/22 21/26/22 20/25/22
f 17/22/22 19/24/22 21/26/22
f 19/27/23 18/28/23 22/29/23
f 18/30/24 20/31/24 22/32/24
f 20/31/25 21/30/25 22/32/25
f 21/33/26 19/27/26 22/29/26
f 23/34/27 24/35/27 25/36/27
f 23/34/27 26/37/27 24/35/27
f 23/34/27 27/38/27 26/37/27
f 23/34/27 25/36/27 27/38/27
f 25/39/28 24/40/28 28/41/28
f 24/40/29 26/42/29 28/41/29
f 26/42/30 27/40/30 28/41/30
f 27/40/31 25/39/31 28/41/31
f 29/43/32 30/44/32 31/45/32
f 29/43/32 32/46/32 30/44/32
f 29/43/32 33/47/32 32/46/32
f 29/43/32 31/45/32 33/47/32
f 31/48/33 30/49/33 34/50/33
f 30/49/34 32/51/34 34/50/34
f 32/52/35 33/53/35 34/54/35
f 33/49/36 31/48/36 34/50/36
f 35/55/37 36/56/37 37/57/37
f 35/55/37 38/58/37 36/56/37
f 35/55/37 39/59/37 38/58/37
f 35/55/37 37/57/37 39/59/37
f 37/60/38 36/61/38 40/62/38
f 36/63/39 38/64/39 40/65/39
f 38/64/40 39/66/40 40/65/40
f 39/61/41 37/60/41 40/62/41
f 41/67/42 42/68/42 43/69/42
f 41/67/42 44/70/42 42/68/42
f 41/67/42 45/71/42 44/70/42
f 41/67/42 43/69/42 45/71/42
f 43/72/43 42/73/43 46/74/43
f 42/75/44 44/76/44 46/77/44
f 44/76/45 45/78/45 46/77/45
f 45/73/46 43/72/46 46/74/46
f 47/79/47 48/80/47 49/81/47
f 47/79/47 49/81/47 50/82/47
f 51/80/48 52/79/48 53/82/48
f 51/80/48 53/82/48 54/81/48
f 50/83/49 49/84/49 54/85/49
f 50/83/49 54/85/49 53/86/49
f 52/86/50 51/85/50 48/84/50
f 52/86/50 48/84/50 47/83/50
f 52/87/51 47/88/51 50/89/51
f 52/87/51 50/89/51 53/90/51
f 48/91/52 51/92/52 54/93/52
f 48/91/52 54/93/52 49/94/52
f 55/95/53 56/96/53 57/97/53
f 55/95/53 57/97/53 58/98/53
f 59/96/54 60/95/54 61/98/54
f 59/96/54 61/98/54 62/97/54
f 58/99/55 57/100/55 62/101/55
f 58/99/55 62/101/55 61/102/55
f 60/102/56 59/101/56 56/100/56
f 60/102/56 56/100/56 55/99/56
f 60/103/57 55/104/57 58/105/57
f 60/103/57 58/105/57 61/106/57
f 56/107/58 59/108/58 62/109/58
f 56/107/58 62/109/58 57/110/58
f 63/111/59 64/112/59 65/113/59
f 63/111/59 65/113/59 66/114/59
f 67/112/60 68/111/60 69/114/60
f 67/112/60 69/114/60 70/113/60
f 66/115/61 65/116/61 70/117/61
f 66/115/61 70/117/61 69/118/61
f 68/118/62 67/117/62 64/116/62
f 68/118/62 64/116/62 63/115/62
f 68/119/63 63/120/63 66/121/63
f 68/119/63 66/121/63 69/122/63
f 64/123/64 67/124/64 70/125/64
f 64/123/64 70/125/64 65/126/64
f 71/127/65 72/128/65 73/129/65
f 71/127/65 73/129/65 74/130/65
f 75/128/66 76/127/66 77/130/66
f 75/128/66 77/130/66 78/129/66
f 74/131/67 73/132/67 78/133/67
f 74/131/67 78/133/67 77/134/67
f 76/134/68 75/133/68 72/132/68
f 76/134/68 72/132/68 71/131/68
f 76/135/69 71/136/69 74/137/69
f 76/135/69 74/137/69 77/138/69
f 72/139/70 75/140/70 78/141/70
f 72/139/70 78/141/70 73/142/70
f 79/143/71 80/144/71 81/145/71
f 79/143/71 81/145/71 82/146/71
f 83/144/72 84/143/72 85/146/72
f 83/144/72 85/146/72 86/145/72
f 82/147/73 81/148/73 86/149/73
f 82/147/73 86/149/73 85/150/73
f 84/150/74 83/149/74 80/148/74
f 84/150/74 80/148/74 79/147/74
f 84/151/75 79/152/75 82/153/75
f 84/151/75 82/153/75 85/154/75
f 80/155/76 83/156/76 86/157/76
f 80/155/76 86/157/76 81/158/76
f 87/159/77 88/160/77 89/161/77
f 87/159/77 89/161/77 90/162/77
f 91/160/78 92/159/78 93/162/78
f 91/160/78 93/162/78 94/161/78
f 90/163/79 89/164/79 94/165/79
f 90/163/79 94/165/79 93/166/79
f 92/166/80 91/165/80 88/164/80
f 92/166/80 88/164/80 87/163/80
f 92/167/81 87/168/81 90/169/81
f 92/167/81 90/169/81 93/170/81
f 88/171/82 91/172/82 94/173/82
f 88/171/82 94/173/82 89/174/82
f 95/175/83 96/176/83 97/177/83
f 95/175/83 97/177/83 98/178/83
f 98/179/84 97/180/84 99/181/84
f 98/179/84 99/181/84 100/182/84
f 100/183/85 99/184/85 101/185/85
f 100/183/85 101/185/85 102/186/85
f 102/186/86 101/185/86 103/187/86
f 102/186/86 103/187/86 104/188/86
f 104/182/87 103/181/87 105/180/87
f 104/182/87 105/180/87 106/179/87
f 106/189/88 105/190/88 96/176/88
f 106/189/88 96/176/88 95/175/88
f 96/176/89 107/191/89 108/192/89
f 96/176/89 108/192/89 97/177/89
f 97/180/84 108/193/84 109/194/84
f 97/180/84 109/194/84 99/181/84
f 99/184/90 109/195/90 110/196/90
f 99/184/90 110/196/90 101/185/90
f 101/185/91 110/196/91 111/197/91
f 101/185/91 111/197/91 103/187/91
f 103/181/87 111/194/87 112/193/87
f 103/181/87 112/193/87 105/180/87
f 105/190/92 112/198/92 107/191/92
f 105/190/92 107/191/92 96/176/92
f 107/191/93 113/199/93 114/200/93
f 107/191/93 114/200/93 108/192/93
f 108/193/84 114/201/84 115/202/84
f 108/193/84 115/202/84 109/194/84
f 109/195/94 115/203/94 116/204/94
f 109/195/94 116/204/94 110/196/94
f 110/196/95 116/204/95 117/205/95
f 110/196/95 117/205/95 111/197/95
f 111/194/87 117/202/87 118/201/87
f 111/194/87 118/201/87 112/193/87
f 112/198/96 118/206/96 113/199/96
f 112/198/96 113/199/96 107/191/96
f 113/207/97 119/208/97 120/209/97
f 113/207/97 120/209/97 114/210/97
f 114/201/84 120/211/84 121/212/84
f 114/201/84 121/212/84 115/202/84
f 115/213/98 121/214/98 122/215/98
f 115/213/98 122/215/98 116/216/98
f 116/216/99 122/215/99 123/217/99
f 116/216/99 123/217/99 117/218/99
f 117/202/87 123/212/87 124/211/87
f 117/202/87 124/211/87 118/201/87
f 118/219/100 124/220/100 119/208/100
f 118/219/100 119/208/100 113/207/100
f 119/208/101 125/221/101 126/222/101
f 119/208/101 126/222/101 120/209/101
f 120/211/84 126/223/84 127/224/84
f 120/211/84 127/224/84 121/212/84
f 121/214/102 127/225/102 128/226/102
f 121/214/102 128/226/102 122/215/102
f 122/215/103 128/226/103 129/227/103
f 122/215/103 129/227/103 123/217/103
f 123/212/87 129/224/87 130/223/87
f 123/212/87 130/223/87 124/211/87
f 124/220/104 130/228/104 125/221/104
f 124/220/104 125/221/104 119/208/104
f 125/221/105 131/229/105 132/230/105
f 125/221/105 132/230/105 126/222/105
f 126/223/84 132/231/84 133/232/84
f 126/223/84 133/232/84 127/224/84
f 127/225/106 133/230/106 134/229/106
f 127/225/106 134/229/106 128/226/106
f 128/226/107 134/229/107 135/233/107
f 128/226/107 135/233/107 129/227/107
f 129/224/87 135/232/87 136/231/87
f 129/224/87 136/231/87 130/223/87
f 130/228/108 136/233/108 131/229/108
f 130/228/108 131/229/108 125/221/108
f 131/229/109 137/234/109 138/235/109
f 131/229/109 138/235/109 132/230/109
f 132/231/84 138/236/84 139/237/84
f 132/231/84 139/237/84 133/232/84
f 133/230/110 139/238/110 140/239/110
f 133/230/110 140/239/110 134/229/110
f 134/229/111 140/239/111 141/240/111
f 134/229/111 141/240/111 135/233/111
f 135/232/87 141/237/87 142/236/87
f 135/232/87 142/236/87 136/231/87
f 136/233/112 142/241/112 137/234/112
f 136/233/112 137/234/112 131/229/112
f 137/234/113 143/242/113 144/243/113
f 137/234/113 144/243/113 138/235/113
f 138/236/84 144/244/84 145/245/84
f 138/236/84 145/245/84 139/237/84
f 139/238/114 145/246/114 146/247/114
f 139/238/114 146/247/114 140/239/114
f 140/239/115 146/247/115 147/248/115
f 140/239/115 147/248/115 141/240/115
f 141/237/87 147/245/87 148/244/87
f 141/237/87 148/244/87 142/236/87
f 142/241/116 148/249/116 143/242/116
f 142/241/116 143/242/116 137/234/116
f 143/242/117 149/250/117 150/251/117
f 143/242/117 150/251/117 144/243/117
f 144/244/84 150/252/84 151/253/84
f 144/244/84 151/253/84 145/245/84
f 145/246/118 151/254/118 152/255/118
f 145/246/118 152/255/118 146/247/118
f 146/247/119 152/255/119 153/256/119
f 146/247/119 153/256/119 147/248/119
f 147/245/87 153/253/87 154/252/87
f 147/245/87 154/252/87 148/244/87
f 148/249/120 154/257/120 149/250/120
f 148/249/120 149/250/120 143/242/120
f 149/258/121 155/259/121 156/260/121
f 149/258/121 156/260/121 150/261/121
f 150/252/84 156/262/84 157/263/84
f 150/252/84 157/263/84 151/253/84
f 151/264/122 157/265/122 158/266/122
f 151/264/122 158/266/122 152/267/122
f 152/267/123 158/266/123 159/268/123
f 152/267/123 159/268/123 153/269/123
f 153/253/87 159/263/87 160/262/87
f 153/253/87 160/262/87 154/252/87
f 154/270/124 160/271/124 155/259/124
f 154/270/124 155/259/124 149/258/124
f 155/259/125 161/272/125 162/273/125
f 155/259/125 162/273/125 156/260/125
f 156/262/84 162/274/84 163/275/84
f 156/262/84 163/275/84 157/263/84
f 157/265/126 163/276/126 164/277/126
f 157/265/126 164/277/126 158/266/126
f 158/266/127 164/277/127 165/278/127
f 158/266/127 165/278/127 159/268/127
f 159/263/87 165/275/87 166/274/87
f 159/263/87 166/274/87 160/262/87
f 160/271/128 166/279/128 161/272/128
f 160/271/128 161/272/128 155/259/128
f 161/272/129 167/186/129 168/183/129
f 161/272/129 168/183/129 162/273/129
f 162/274/84 168/280/84 169/281/84
f 162/274/84 169/281/84 163/275/84
f 163/276/130 169/178/130 170/175/130
f 163/276/130 170/175/130 164/277/130
f 164/277/131 170/175/131 171/189/131
f 164/277/131 171/189/131 165/278/131
f 165/275/87 171/281/87 172/280/87
f 165/275/87 172/280/87 166/274/87
f 166/279/132 172/188/132 167/186/132
f 166/279/132 167/186/132 161/272/132
f 167/186/85 173/282/85 174/283/85
f 167/186/85 174/283/85 168/183/85
f 168/280/84 174/284/84 175/285/84
f 168/280/84 175/285/84 169/281/84
f 169/178/83 175/286/83 176/287/83
f 169/178/83 176/287/83 170/175/83
f 170/175/88 176/287/88 177/288/88
f 170/175/88 177/288/88 171/189/88
f 171/281/87 177/285/87 178/284/87
f 171/281/87 178/284/87 172/280/87
f 172/188/86 178/289/86 173/282/86
f 172/188/86 173/282/86 167/186/86
f 173/282/90 179/290/90 180/291/90
f 173/282/90 180/291/90 174/283/90
f 174/284/84 180/292/84 181/293/84
f 174/284/84 181/293/84 175/285/84
f 175/286/89 181/294/89 182/295/89
f 175/286/89 182/295/89 176/287/89
f 176/287/92 182/295/92 183/296/92
f 176/287/92 183/296/92 177/288/92
f 177/285/87 183/293/87 184/292/87
f 177/285/87 184/292/87 178/284/87
f 178/289/91 184/297/91 179/290/91
f 178/289/91 179/290/91 173/282/91
f 179/290/94 185/298/94 186/299/94
f 179/290/94 186/299/94 180/291/94
f 180/292/84 186/300/84 187/301/84
f 180/292/84 187/301/84 181/293/84
f 181/294/93 187/302/93 188/303/93
f 181/294/93 188/303/93 182/295/93
f 182/295/96 188/303/96 189/304/96
f 182/295/96 189/304/96 183/296/96
f 183/293/87 189/301/87 190/300/87
f 183/293/87 190/300/87 184/292/87
f 184/297/95 190/305/95 185/298/95
f 184/297/95 185/298/95 179/290/95
f 185/250/98 191/242/98 192/243/98
f 185/250/98 192/243/98 186/251/98
f 186/300/84 192/306/84 193/307/84
f 186/300/84 193/307/84 187/301/84
f 187/254/97 193/246/97 194/247/97
f 187/254/97 194/247/97 188/255/97
f 188/255/100 194/247/100 195/248/100
f 188/255/100 195/248/100 189/256/100
f 189/301/87 195/307/87 196/306/87
f 189/301/87 196/306/87 190/300/87
f 190/257/99 196/249/99 191/242/99
f 190/257/99 191/242/99 185/250/99
f 191/242/102 197/234/102 198/235/102
f 191/242/102 198/235/102 192/243/102
f 192/306/84 198/308/84 199/309/84
f 192/306/84 199/309/84 193/307/84
f 193/246/101 199/238/101 200/239/101
f 193/246/101 200/239/101 194/247/101
f 194/247/104 200/239/104 201/240/104
f 194/247/104 201/240/104 195/248/104
f 195/307/87 201/309/87 202/308/87
f 195/307/87 202/308/87 196/306/87
f 196/249/103 202/241/103 197/234/103
f 196/249/103 197/234/103 191/242/103
f 197/234/106 203/229/106 204/230/106
f 197/234/106 204/230/106 198/235/106
f 198/308/84 204/310/84 205/311/84
f 198/308/84 205/311/84 199/309/84
f 199/238/105 205/230/105 206/229/105
f 199/238/105 206/229/105 200/239/105
f 200/239/108 206/229/108 207/233/108
f 200/239/108 207/233/108 201/240/108
f 201/309/87 207/311/87 208/310/87
f 201/309/87 208/310/87 202/308/87
f 202/241/107 208/233/107 203/229/107
f 202/241/107 203/229/107 197/234/107
f 203/229/110 209/221/110 210/222/110
f 203/229/110 210/222/110 204/230/110
f 204/310/84 210/312/84 211/313/84
f 204/310/84 211/313/84 205/311/84
f 205/230/109 211/225/109 212/226/109
f 205/230/109 212/226/109 206/229/109
f 206/229/112 212/226/112 213/227/112
f 206/229/112 213/227/112 207/233/112
f 207/311/87 213/313/87 214/312/87
f 207/311/87 214/312/87 208/310/87
f 208/233/111 214/228/111 209/221/111
f 208/233/111 209/221/111 203/229/111
f 209/221/114 215/208/114 216/209/114
f 209/221/114 216/209/114 210/222/114
f 210/312/84 216/314/84 217/315/84
f 210/312/84 217/315/84 211/313/84
f 211/225/113 217/214/113 218/215/113
f 211/225/113 218/215/113 212/226/113
f 212/226/116 218/215/116 219/217/116
f 212/226/116 219/217/116 213/227/116
f 213/313/87 219/315/87 220/314/87
f 213/313/87 220/314/87 214/312/87
f 214/228/115 220/220/115 215/208/115
f 214/228/115 215/208/115 209/221/115
f 215/208/118 221/207/118 222/210/118
f 215/208/118 222/210/118 216/209/118
f 216/314/84 222/316/84 223/317/84
f 216/314/84 223/317/84 217/315/84
f 217/214/117 223/213/117 224/216/117
f 217/214/117 224/216/117 218/215/117
f 218/215/120 224/216/120 225/218/120
f 218/215/120 225/218/120 219/217/120
f 219/315/87 225/317/87 226/316/87
f 219/315/87 226/316/87 220/314/87
f 220/220/119 226/219/119 221/207/119
f 220/220/119 221/207/119 215/208/119
f 221/318/122 227/319/122 228/320/122
f 221/318/122 228/320/122 222/321/122
f 222/316/84 228/322/84 229/323/84
f 222/316/84 229/323/84 223/317/84
f 223/324/121 229/325/121 230/326/121
f 223/324/121 230/326/121 224/327/121
f 224/327/124 230/326/124 231/328/124
f 224/327/124 231/328/124 225/329/124
f 225/317/87 231/323/87 232/322/87
f 225/317/87 232/322/87 226/316/87
f 226/330/123 232/331/123 227/319/123
f 226/330/123 227/319/123 221/318/123
f 227/319/126 233/332/126 234/333/126
f 227/319/126 234/333/126 228/320/126
f 228/322/84 234/334/84 235/335/84
f 228/322/84 235/335/84 229/323/84
f 229/325/125 235/336/125 236/337/125
f 229/325/125 236/337/125 230/326/125
f 230/326/128 236/337/128 237/338/128
f 230/326/128 237/338/128 231/328/128
f 231/323/87 237/335/87 238/334/87
f 231/323/87 238/334/87 232/322/87
f 232/331/127 238/339/127 233/332/127
f 232/331/127 233/332/127 227/319/127
f 233/332/130 95/175/130 98/178/130
f 233/332/130 98/178/130 234/333/130
f 234/334/84 98/179/84 100/182/84
f 234/334/84 100/182/84 235/335/84
f 235/336/129 100/183/129 102/186/129
f 235/336/129 102/186/129 236/337/129
f 236/337/132 102/186/132 104/188/132
f 236/337/132 104/188/132 237/338/132
f 237/335/87 104/182/87 106/179/87
f 237/335/87 106/179/87 238/334/87
f 238/339/131 106/189/131 95/175/131
f 238/339/131 95/175/131 233/332/131
f 239/340/133 240/341/133 241/342/133
f 239/340/133 241/342/133 242/343/133
f 243/344/134 244/345/134 245/346/134
f 243/344/134 245/346/134 246/347/134
f 242/348/135 241/349/135 246/350/135
f 242/348/135 246/350/135 245/351/135
f 244/351/136 243/350/136 240/349/136
f 244/351/136 240/349/136 239/348/136
f 244/352/137 239/353/137 242/354/137
f 244/352/137 242/354/137 245/355/137
f 240/353/138 243/352/138 246/355/138
f 240/353/138 246/355/138 241/354/138
f 247/356/139 248/357/139 249/358/139
f 247/356/139 249/358/139 250/359/139
f 251/360/140 252/361/140 253/362/140
f 251/360/140 253/362/140 254/363/140
f 250/364/141 249/365/141 254/366/141
f 250/364/141 254/366/141 253/367/141
f 252/367/142 251/366/142 248/365/142
f 252/367/142 248/365/142 247/364/142
f 252/368/143 247/369/143 250/370/143
f 252/368/143 250/370/143 253/371/143
f 248/369/144 251/368/144 254/371/144
f 248/369/144 254/371/144 249/370/144
f 255/372/145 256/373/145 257/374/145
f 255/372/145 257/374/145 258/375/145
f 259/376/146 260/377/146 261/378/146
f 259/376/146 261/378/146 262/379/146
f 258/380/147 257/381/147 262/382/147
f 258/380/147 262/382/147 261/383/147
f 260/383/148 259/382/148 256/381/148
f 260/383/148 256/381/148 255/380/148
f 260/384/149 255/385/149 258/386/149
f 260/384/149 258/386/149 261/387/149
f 256/385/150 259/384/150 262/387/150
f 256/385/150 262/387/150 257/386/150
f 263/388/151 264/389/151 265/390/151
f 263/388/151 265/390/151 266/391/151
f 267/392/152 268/393/152 269/394/152
f 267/392/152 269/394/152 270/395/152
f 266/396/153 265/397/153 270/398/153
f 266/396/153 270/398/153 269/399/153
f 268/399/154 267/398/154 264/397/154
f 268/399/154 264/397/154 263/396/154
f 268/400/155 263/401/155 266/402/155
f 268/400/155 266/402/155 269/403/155
f 264/401/156 267/400/156 270/403/156
f 264/401/156 270/403/156 265/402/156
f 271/404/157 272/405/157 273/406/157
f 271/404/157 273/406/157 274/407/157
f 275/408/158 276/409/158 277/410/158
f 275/408/158 277/410/158 278/411/158
f 274/412/159 273/413/159 278/414/159
f 274/412/159 278/414/159 277/415/159
f 276/415/160 275/414/160 272/413/160
f 276/415/160 272/413/160 271/412/160
f 276/416/161 271/417/161 274/418/161
f 276/416/161 274/418/161 277/419/161
f 272/417/162 275/416/162 278/419/162
f 272/417/162 278/419/162 273/418/162
f 279/420/163 280/421/163 281/422/163
f 279/420/163 281/422/163 282/423/163
f 283/424/164 284/425/164 285/426/164
f 283/424/164 285/426/164 286/427/164
f 282/428/165 281/429/165 286/430/165
f 282/428/165 286/430/165 285/431/165
f 284/431/166 283/430/166 280/429/166
f 284/431/166 280/429/166 279/428/166
f 284/432/167 279/433/167 282/434/167
f 284/432/167 282/434/167 285/435/167
f 280/433/168 283/432/168 286/435/168
f 280/433/168 286/435/168 281/434/168
f 287/436/169 288/437/169 289/438/169
f 287/436/169 289/438/169 290/439/169
f 290/440/170 289/441/170 291/442/170
f 290/440/170 291/442/170 292/443/170
f 292/444/171 291/445/171 293/446/171
f 292/444/171 293/446/171 294/447/171
f 294/447/172 293/446/172 295/448/172
f 294/447/172 295/448/172 296/449/172
f 296/443/173 295/442/173 297/441/173
f 296/443/173 297/441/173 298/440/173
f 298/450/174 297/451/174 288/437/174
f 298/450/174 288/437/174 287/436/174
f 288/437/175 299/452/175 300/453/175
f 288/437/175 300/453/175 289/438/175
f 289/441/170 300/454/170 301/455/170
f 289/441/170 301/455/170 291/442/170
f 291/445/176 301/456/176 302/457/176
f 291/445/176 302/457/176 293/446/176
f 293/446/177 302/457/177 303/458/177
f 293/446/177 303/458/177 295/448/177
f 295/442/173 303/455/173 304/454/173
f 295/442/173 304/454/173 297/441/173
f 297/451/178 304/459/178 299/452/178
f 297/451/178 299/452/178 288/437/178
f 299/452/179 305/460/179 306/461/179
f 299/452/179 306/461/179 300/453/179
f 300/454/170 306/462/170 307/463/170
f 300/454/170 307/463/170 301/455/170
f 301/456/180 307/464/180 308/465/180
f 301/456/180 308/465/180 302/457/180
f 302/457/181 308/465/181 309/466/181
f 302/457/181 309/466/181 303/458/181
f 303/455/173 309/463/173 310/462/173
f 303/455/173 310/462/173 304/454/173
f 304/459/182 310/467/182 305/460/182
f 304/459/182 305/460/182 299/452/182
f 305/468/183 311/469/183 312/470/183
f 305/468/183 312/470/183 306/471/183
f 306/462/170 312/472/170 313/473/170
f 306/462/170 313/473/170 307/463/170
f 307/474/184 313/475/184 314/476/184
f 307/474/184 314/476/184 308/477/184
f 308/477/185 314/476/185 315/478/185
f 308/477/185 315/478/185 309/479/185
f 309/463/173 315/473/173 316/472/173
f 309/463/173 316/472/173 310/462/173
f 310/480/186 316/481/186 311/469/186
f 310/480/186 311/469/186 305/468/186
f 311/469/187 317/482/187 318/483/187
f 311/469/187 318/483/187 312/470/187
f 312/472/170 318/484/170 319/485/170
f 312/472/170 319/485/170 313/473/170
f 313/475/188 319/486/188 320/487/188
f 313/475/188 320/487/188 314/476/188
f 314/476/189 320/487/189 321/488/189
f 314/476/189 321/488/189 315/478/189
f 315/473/173 321/485/173 322/484/173
f 315/473/173 322/484/173 316/472/173
f 316/481/190 322/489/190 317/482/190
f 316/481/190 317/482/190 311/469/190
f 317/482/191 323/490/191 324/491/191
f 317/482/191 324/491/191 318/483/191
f 318/484/170 324/492/170 325/493/170
f 318/484/170 325/493/170 319/485/170
f 319/486/192 325/491/192 326/490/192
f 319/486/192 326/490/192 320/487/192
f 320/487/193 326/490/193 327/494/193
f 320/487/193 327/494/193 321/488/193
f 321/485/173 327/493/173 328/492/173
f 321/485/173 328/492/173 322/484/173
f 322/489/194 328/494/194 323/490/194
f 322/489/194 323/490/194 317/482/194
f 323/490/195 329/495/195 330/496/195
f 323/490/195 330/496/195 324/491/195
f 324/492/170 330/497/170 331/498/170
f 324/492/170 331/498/170 325/493/170
f 325/491/196 331/499/196 332/500/196
f 325/491/196 332/500/196 326/490/196
f 326/490/197 332/500/197 333/501/197
f 326/490/197 333/501/197 327/494/197
f 327/493/173 333/498/173 334/497/173
f 327/493/173 334/497/173 328/492/173
f 328/494/198 334/502/198 329/495/198
f 328/494/198 329/495/198 323/490/198
f 329/495/199 335/503/199 336/504/199
f 329/495/199 336/504/199 330/496/199
f 330/497/170 336/505/170 337/506/170
f 330/497/170 337/506/170 331/498/170
f 331/499/200 337/507/200 338/508/200
f 331/499/200 338/508/200 332/500/200
f 332/500/201 338/508/201 339/509/201
f 332/500/201 339/509/201 333/501/201
f 333/498/173 339/506/173 340/505/173
f 333/498/173 340/505/173 334/497/173
f 334/502/202 340/510/202 335/503/202
f 334/502/202 335/503/202 329/495/202
f 335/503/203 341/511/203 342/512/203
f 335/503/203 342/512/203 336/504/203
f 336/505/170 342/513/170 343/514/170
f 336/505/170 343/514/170 337/506/170
f 337/507/204 343/515/204 344/516/204
f 337/507/204 344/516/204 338/508/204
f 338/508/205 344/516/205 345/517/205
f 338/508/205 345/517/205 339/509/205
f 339/506/173 345/514/173 346/513/173
f 339/506/173 346/513/173 340/505/173
f 340/510/206 346/518/206 341/511/206
f 340/510/206 341/511/206 335/503/206
f 341/519/207 347/520/207 348/521/207
f 341/519/207 348/521/207 342/522/207
f 342/513/170 348/523/170 349/524/170
f 342/513/170 349/524/170 343/514/170
f 343/525/208 349/526/208 350/527/208
f 343/525/208 350/527/208 344/528/208
f 344/528/209 350/527/209 351/529/209
f 344/528/209 351/529/209 345/530/209
f 345/514/173 351/524/173 352/523/173
f 345/514/173 352/523/173 346/513/173
f 346/531/210 352/532/210 347/520/210
f 346/531/210 347/520/210 341/519/210
f 347/520/211 353/533/211 354/534/211
f 347/520/211 354/534/211 348/521/211
f 348/523/170 354/535/170 355/536/170
f 348/523/170 355/536/170 349/524/170
f 349/526/212 355/537/212 356/538/212
f 349/526/212 356/538/212 350/527/212
f 350/527/213 356/538/213 357/539/213
f 350/527/213 357/539/213 351/529/213
f 351/524/173 357/536/173 358/535/173
f 351/524/173 358/535/173 352/523/173
f 352/532/214 358/540/214 353/533/214
f 352/532/214 353/533/214 347/520/214
f 353/533/215 359/447/215 360/444/215
f 353/533/215 360/444/215 354/534/215
f 354/535/170 360/541/170 361/542/170
f 354/535/170 361/542/170 355/536/170
f 355/537/216 361/439/216 362/436/216
f 355/537/216 362/436/216 356/538/216
f 356/538/217 362/436/217 363/450/217
f 356/538/217 363/450/217 357/539/217
f 357/536/173 363/542/173 364/541/173
f 357/536/173 364/541/173 358/535/173
f 358/540/218 364/449/218 359/447/218
f 358/540/218 359/447/218 353/533/218
f 359/447/171 365/543/171 366/544/171
f 359/447/171 366/544/171 360/444/171
f 360/541/170 366/545/170 367/546/170
f 360/541/170 367/546/170 361/542/170
f 361/439/169 367/547/169 368/548/169
f 361/439/169 368/548/169 362/436/169
f 362/436/174 368/548/174 369/549/174
f 362/436/174 369/549/174 363/450/174
f 363/542/173 369/546/173 370/545/173
f 363/542/173 370/545/173 364/541/173
f 364/449/172 370/550/172 365/543/172
f 364/449/172 365/543/172 359/447/172
f 365/543/176 371/551/176 372/552/176
f 365/543/176 372/552/176 366/544/176
f 366/545/170 372/553/170 373/554/170
f 366/545/170 373/554/170 367/546/170
f 367/547/175 373/555/175 374/556/175
f 367/547/175 374/556/175 368/548/175
f 368/548/178 374/556/178 375/557/178
f 368/548/178 375/557/178 369/549/178
f 369/546/173 375/554/173 376/553/173
f 369/546/173 376/553/173 370/545/173
f 370/550/177 376/558/177 371/551/177
f 370/550/177 371/551/177 365/543/177
f 371/551/180 377/559/180 378/560/180
f 371/551/180 378/560/180 372/552/180
f 372/553/170 378/561/170 379/562/170
f 372/553/170 379/562/170 373/554/170
f 373/555/179 379/563/179 380/564/179
f 373/555/179 380/564/179 374/556/179
f 374/556/182 380/564/182 381/565/182
f 374/556/182 381/565/182 375/557/182
f 375/554/173 381/562/173 382/561/173
f 375/554/173 382/561/173 376/553/173
f 376/558/181 382/566/181 377/559/181
f 376/558/181 377/559/181 371/551/181
f 377/511/184 383/503/184 384/504/184
f 377/511/184 384/504/184 378/512/184
f 378/561/170 384/567/170 385/568/170
f 378/561/170 385/568/170 379/562/170
f 379/515/183 385/507/183 386/508/183
f 379/515/183 386/508/183 380/516/183
f 380/516/186 386/508/186 387/509/186
f 380/516/186 387/509/186 381/517/186
f 381/562/173 387/568/173 388/567/173
f 381/562/173 388/567/173 382/561/173
f 382/518/185 388/510/185 383/503/185
f 382/518/185 383/503/185 377/511/185
f 383/503/188 389/495/188 390/496/188
f 383/503/188 390/496/188 384/504/188
f 384/567/170 390/569/170 391/570/170
f 384/567/170 391/570/170 385/568/170
f 385/507/187 391/499/187 392/500/187
f 385/507/187 392/500/187 386/508/187
f 386/508/190 392/500/190 393/501/190
f 386/508/190 393/501/190 387/509/190
f 387/568/173 393/570/173 394/569/173
f 387/568/173 394/569/173 388/567/173
f 388/510/189 394/502/189 389/495/189
f 388/510/189 389/495/189 383/503/189
f 389/495/192 395/490/192 396/491/192
f 389/495/192 396/491/192 390/496/192
f 390/569/170 396/571/170 397/572/170
f 390/569/170 397/572/170 391/570/170
f 391/499/191 397/491/191 398/490/191
f 391/499/191 398/490/191 392/500/191
f 392/500/194 398/490/194 399/494/194
f 392/500/194 399/494/194 393/501/194
f 393/570/173 399/572/173 400/571/173
f 393/570/173 400/571/173 394/569/173
f 394/502/193 400/494/193 395/490/193
f 394/502/193 395/490/193 389/495/193
f 395/490/196 401/482/196 402/483/196
f 395/490/196 402/483/196 396/491/196
f 396/571/170 402/573/170 403/574/170
f 396/571/170 403/574/170 397/572/170
f 397/491/195 403/486/195 404/487/195
f 397/491/195 404/487/195 398/490/195
f 398/490/198 404/487/198 405/488/198
f 398/490/198 405/488/198 399/494/198
f 399/572/173 405/574/173 406/573/173
f 399/572/173 406/573/173 400/571/173
f 400/494/197 406/489/197 401/482/197
f 400/494/197 401/482/197 395/490/197
f 401/482/200 407/469/200 408/470/200
f 401/482/200 408/470/200 402/483/200
f 402/573/170 408/575/170 409/576/170
f 402/573/170 409/576/170 403/574/170
f 403/486/199 409/475/199 410/476/199
f 403/486/199 410/476/199 404/487/199
f 404/487/202 410/476/202 411/478/202
f 404/487/202 411/478/202 405/488/202
f 405/574/173 411/576/173 412/575/173
f 405/574/173 412/575/173 406/573/173
f 406/489/201 412/481/201 407/469/201
f 406/489/201 407/469/201 401/482/201
f 407/469/204 413/468/204 414/471/204
f 407/469/204 414/471/204 408/470/204
f 408/575/170 414/577/170 415/578/170
f 408/575/170 415/578/170 409/576/170
f 409/475/203 415/474/203 416/477/203
f 409/475/203 416/477/203 410/476/203
f 410/476/206 416/477/206 417/479/206
f 410/476/206 417/479/206 411/478/206
f 411/576/173 417/578/173 418/577/173
f 411/576/173 418/577/173 412/575/173
f 412/481/205 418/480/205 413/468/205
f 412/481/205 413/468/205 407/469/205
f 413/579/208 419/580/208 420/581/208
f 413/579/208 420/581/208 414/582/208
f 414/577/170 420/583/170 421/584/170
f 414/577/170 421/584/170 415/578/170
f 415/585/207 421/586/207 422/587/207
f 415/585/207 422/587/207 416/588/207
f 416/588/210 422/587/210 423/589/210
f 416/588/210 423/589/210 417/590/210
f 417/578/173 423/584/173 424/583/173
f 417/578/173 424/583/173 418/577/173
f 418/591/209 424/592/209 419/580/209
f 418/591/209 419/580/209 413/579/209
f 419/580/212 425/593/212 426/594/212
f 419/580/212 426/594/212 420/581/212
f 420/583/170 426/595/170 427/596/170
f 420/583/170 427/596/170 421/584/170
f 421/586/211 427/597/211 428/598/211
f 421/586/211 428/598/211 422/587/211
f 422/587/214 428/598/214 429/599/214
f 422/587/214 429/599/214 423/589/214
f 423/584/173 429/596/173 430/595/173
f 423/584/173 430/595/173 424/583/173
f 424/592/213 430/600/213 425/593/213
f 424/592/213 425/593/213 419/580/213
f 425/593/216 287/436/216 290/439/216
f 425/593/216 290/439/216 426/594/216
f 426/595/170 290/440/170 292/443/170
f 426/595/170 292/443/170 427/596/170
f 427/597/215 292/444/215 294/447/215
f 427/597/215 294/447/215 428/598/215
f 428/598/218 294/447/218 296/449/218
f 428/598/218 296/449/218 429/599/218
f 429/596/173 296/443/173 298/440/173
f 429/596/173 298/440/173 430/595/173
f 430/600/217 298/450/217 287/436/217
f 430/600/217 287/436/217 425/593/217
f 431/601/219 432/602/219 433/603/219
f 431/601/219 433/603/219 434/604/219
f 435/605/220 436/606/220 437/607/220
f 435/605/220 437/607/220 438/608/220
f 434/609/221 433/610/221 438/611/221
f 434/609/221 438/611/221 437/612/221
f 436/612/222 435/611/222 432/610/222
f 436/612/222 432/610/222 431/609/222
f 436/613/223 431/614/223 434/615/223
f 436/613/223 434/615/223 437/616/223
f 432/614/224 435/613/224 438/616/224
f 432/614/224 438/616/224 433/615/224
f 439/617/225 440/618/225 441/619/225
f 439/617/225 441/619/225 442/620/225
f 443/621/226 444/622/226 445/623/226
f 443/621/226 445/623/226 446/624/226
f 442/625/227 441/626/227 446/627/227
f 442/625/227 446/627/227 445/628/227
f 444/628/228 443/627/228 440/626/228
f 444/628/228 440/626/228 439/625/228
f 444/629/229 439/630/229 442/631/229
f 444/629/229 442/631/229 445/632/229
f 440/630/230 443/629/230 446/632/230
f 440/630/230 446/632/230 441/631/230
f 447/633/231 448/634/231 449/635/231
f 447/633/231 449/635/231 450/636/231
f 451/637/232 452/638/232 453/639/232
f 451/637/232 453/639/232 454/640/232
f 450/641/233 449/642/233 454/643/233
f 450/641/233 454/643/233 453/644/233
f 452/644/234 451/643/234 448/642/234
f 452/644/234 448/642/234 447/641/234
f 452/645/235 447/646/235 450/647/235
f 452/645/235 450/647/235 453/648/235
f 448/646/236 451/645/236 454/648/236
f 448/646/236 454/648/236 449/647/236
f 455/649/237 456/650/237 457/651/237
f 455/649/237 457/651/237 458/652/237
f 459/653/238 460/654/238 461/655/238
f 459/653/238 461/655/238 462/656/238
f 458/657/239 457/658/239 462/659/239
f 458/657/239 462/659/239 461/660/239
f 460/660/240 459/659/240 456/658/240
f 460/660/240 456/658/240 455/657/240
f 460/661/241 455/662/241 458/663/241
f 460/661/241 458/663/241 461/664/241
f 456/662/242 459/661/242 462/664/242
f 456/662/242 462/664/242 457/663/242
f 463/665/243 464/666/243 465/667/243
f 463/665/243 465/667/243 466/668/243
f 467/669/244 468/670/244 469/671/244
f 467/669/244 469/671/244 470/672/244
f 466/673/245 465/674/245 470/675/245
f 466/673/245 470/675/245 469/676/245
f 468/676/246 467/675/246 464/674/246
f 468/676/246 464/674/246 463/673/246
f 468/677/247 463/678/247 466/679/247
f 468/677/247 466/679/247 469/680/247
f 464/678/248 467/677/248 470/680/248
f 464/678/248 470/680/248 465/679/248
f 471/681/249 472/682/249 473/683/249
f 471/681/249 473/683/249 474/684/249
f 475/685/250 476/686/250 477/687/250
f 475/685/250 477/687/250 478/688/250
f 474/689/251 473/690/251 478/691/251
f 474/689/251 478/691/251 477/692/251
f 476/692/252 475/691/252 472/690/252
f 476/692/252 472/690/252 471/689/252
f 476/693/253 471/694/253 474/695/253
f 476/693/253 474/695/253 477/696/253
f 472/694/254 475/693/254 478/696/254
f 472/694/254 478/696/254 473/695/254
f 479/697/255 480/698/255 481/699/255
f 479/697/255 482/700/255 480/698/255
f 479/697/255 483/701/255 482/700/255
f 479/697/255 484/702/255 483/701/255
f 479/697/255 485/703/255 484/702/255
f 479/697/255 486/704/255 485/703/255
f 479/697/255 487/705/255 486/704/255
f 479/697/255 481/699/255 487/705/255
f 481/706/256 480/707/256 488/708/256
f 481/706/256 488/708/256 489/709/256
f 480/710/257 482/711/257 490/712/257
f 480/710/257 490/712/257 488/713/257
f 482/711/258 483/714/258 491/715/258
f 482/711/258 491/715/258 490/712/258
f 483/707/259 484/706/259 492/709/259
f 483/707/259 492/709/259 491/708/259
f 484/706/260 485/716/260 493/717/260
f 484/706/260 493/717/260 492/709/260
f 485/714/261 486/711/261 494/712/261
f 485/714/261 494/712/261 493/715/261
f 486/711/262 487/710/262 495/713/262
f 486/711/262 495/713/262 494/712/262
f 487/716/263 481/706/263 489/709/263
f 487/716/263 489/709/263 495/717/263
f 489/718/264 488/719/264 496/720/264
f 488/719/264 490/721/264 496/720/264
f 490/721/264 491/722/264 496/720/264
f 491/722/264 492/723/264 496/720/264
f 492/723/264 493/724/264 496/720/264
f 493/724/264 494/725/264 496/720/264
f 494/725/264 495/726/264 496/720/264
f 495/726/264 489/718/264 496/720/264
f 497/727/265 498/728/265 499/729/265
f 497/727/265 499/729/265 500/730/265
f 498/728/266 501/731/266 502/732/266
f 498/728/266 502/732/266 499/729/266
f 501/731/267 503/733/267 504/734/267
f 501/731/267 504/734/267 502/732/267
f 503/733/268 505/735/268 506/736/268
f 503/733/268 506/736/268 504/734/268
f 505/735/269 507/737/269 508/738/269
f 505/735/269 508/738/269 506/736/269
f 507/737/270 509/739/270 510/740/270
f 507/737/270 510/740/270 508/738/270
f 509/739/271 511/741/271 512/742/271
f 509/739/271 512/742/271 510/740/271
f 511/741/272 497/727/272 500/730/272
f 511/741/272 500/730/272 512/742/272
f 500/730/273 499/729/273 513/743/273
f 499/729/274 502/732/274 513/743/274
f 502/732/275 504/734/275 513/743/275
f 504/734/276 506/736/276 513/743/276
f 506/736/277 508/738/277 513/743/277
f 508/738/278 510/740/278 513/743/278
f 510/740/279 512/742/279 513/743/279
f 512/742/280 500/730/280 513/743/280
f 514/744/281 515/745/281 516/746/281
f 514/744/281 517/747/281 515/745/281
f 514/744/281 518/748/281 517/747/281
f 514/744/281 519/749/281 518/748/281
f 514/744/281 520/750/281 519/749/281
f 514/744/281 521/751/281 520/750/281
f 514/744/281 522/752/281 521/751/281
f 514/744/281 516/746/281 522/752/281
f 516/753/282 515/754/282 523/755/282
f 516/753/282 523/755/282 524/756/282
f 515/757/283 517/758/283 525/759/283
f 515/757/283 525/759/283 523/760/283
f 517/758/284 518/761/284 526/762/284
f 517/758/284 526/762/284 525/759/284
f 518/754/285 519/753/285 527/756/285
f 518/754/285 527/756/285 526/755/285
f 519/753/286 520/763/286 528/764/286
f 519/753/286 528/764/286 527/756/286
f 520/761/287 521/758/287 529/759/287
f 520/761/287 529/759/287 528/762/287
f 521/758/288 522/757/288 530/760/288
f 521/758/288 530/760/288 529/759/288
f 522/763/289 516/753/289 524/756/289
f 522/763/289 524/756/289 530/764/289
f 524/765/290 523/766/290 531/767/290
f 523/766/290 525/768/290 531/767/290
f 525/768/290 526/769/290 531/767/290
f 526/769/290 527/770/290 531/767/290
f 527/770/290 528/771/290 531/767/290
f 528/771/290 529/772/290 531/767/290
f 529/772/290 530/773/290 531/767/290
f 530/773/290 524/765/290 531/767/290
f 532/774/291 533/775/291 534/776/291
f 532/774/291 534/776/291 535/777/291
f 533/775/292 536/778/292 537/779/292
f 533/775/292 537/779/292 534/776/292
f 536/778/293 538/780/293 539/781/293
f 536/778/293 539/781/293 537/779/293
f 538/780/294 540/782/294 541/783/294
f 538/780/294 541/783/294 539/781/294
f 540/782/295 542/784/295 543/785/295
f 540/782/295 543/785/295 541/783/295
f 542/784/296 544/786/296 545/787/296
f 542/784/296 545/787/296 543/785/296
f 544/786/297 546/788/297 547/789/297
f 544/786/297 547/789/297 545/787/297
f 546/788/298 532/774/298 535/777/298
f 546/788/298 535/777/298 547/789/298
f 535/777/299 534/776/299 548/790/299
f 534/776/300 537/779/300 548/790/300
f 537/779/301 539/781/301 548/790/301
f 539/781/302 541/783/302 548/790/302
f 541/783/303 543/785/303 548/790/303
f 543/785/304 545/787/304 548/790/304
f 545/787/305 547/789/305 548/790/305
f 547/789/306 535/777/306 548/790/306
f 549/791/307 550/792/307 551/793/307
f 549/791/307 552/794/307 550/792/307
f 549/791/307 553/795/307 552/794/307
f 549/791/307 554/796/307 553/795/307
f 549/791/307 555/797/307 554/796/307
f 549/791/307 556/798/307 555/797/307
f 549/791/307 557/799/307 556/798/307
f 549/791/307 551/793/307 557/799/307
f 551/800/308 550/801/308 558/802/308
f 551/800/308 558/802/308 559/803/308
f 550/804/309 552/805/309 560/806/309
f 550/804/309 560/806/309 558/807/309
f 552/805/310 553/808/310 561/809/310
f 552/805/310 561/809/310 560/806/310
f 553/801/311 554/800/311 562/803/311
f 553/801/311 562/803/311 561/802/311
f 554/800/312 555/810/312 563/811/312
f 554/800/312 563/811/312 562/803/312
f 555/808/313 556/805/313 564/806/313
f 555/808/313 564/806/313 563/809/313
f 556/805/314 557/804/314 565/807/314
f 556/805/314 565/807/314 564/806/314
f 557/810/315 551/800/315 559/803/315
f 557/810/315 559/803/315 565/811/315
f 559/812/316 558/813/316 566/814/316
f 558/813/316 560/815/316 566/814/316
f 560/815/316 561/816/316 566/814/316
f 561/816/316 562/817/316 566/814/316
f 562/817/316 563/818/316 566/814/316
f 563/818/316 564/819/316 566/814/316
f 564/819/316 565/820/316 566/814/316
f 565/820/316 559/812/316 566/814/316
f 567/821/317 568/822/317 569/823/317
f 567/821/317 569/823/317 570/824/317
f 568/822/318 571/825/318 572/826/318
f 568/822/318 572/826/318 569/823/318
f 571/825/319 573/827/319 574/828/319
f 571/825/319 574/828/319 572/826/319
f 573/827/320 575/829/320 576/830/320
f 573/827/320 576/830/320 574/828/320
f 575/829/321 577/831/321 578/832/321
f 575/829/321 578/832/321 576/830/321
f 577/831/322 579/833/322 580/834/322
f 577/831/322 580/834/322 578/832/322
f 579/833/323 581/835/323 582/836/323
f 579/833/323 582/836/323 580/834/323
f 581/835/324 567/821/324 570/824/324
f 581/835/324 570/824/324 582/836/324
f 570/824/325 569/823/325 583/837/325
f 569/823/326 572/826/326 583/837/326
f 572/826/327 574/828/327 583/837/327
f 574/828/328 576/830/328 583/837/328
f 576/830/329 578/832/329 583/837/329
f 578/832/330 580/834/330 583/837/330
f 580/834/331 582/836/331 583/837/331
f 582/836/332 570/824/332 583/837/332
f 584/838/333 585/839/333 586/840/333
f 584/838/333 587/841/333 585/839/333
f 584/838/333 588/842/333 587/841/333
f 584/838/333 589/843/333 588/842/333
f 584/838/333 590/844/333 589/843/333
f 584/838/333 591/845/333 590/844/333
f 584/838/333 592/846/333 591/845/333
f 584/838/333 586/840/333 592/846/333
f 586/847/334 585/848/334 593/849/334
f 586/847/334 593/849/334 594/850/334
f 585/851/335 587/852/335 595/853/335
f 585/851/335 595/853/335 593/854/335
f 587/852/336 588/855/336 596/856/336
f 587/852/336 596/856/336 595/853/336
f 588/848/337 589/847/337 597/850/337
f 588/848/337 597/850/337 596/849/337
f 589/847/338 590/857/338 598/858/338
f 589/847/338 598/858/338 597/850/338
f 590/855/339 591/852/339 599/853/339
f 590/855/339 599/853/339 598/856/339
f 591/852/340 592/851/340 600/854/340
f 591/852/340 600/854/340 599/853/340
f 592/857/341 586/847/341 594/850/341
f 592/857/341 594/850/341 600/858/341
f 594/859/342 593/860/342 601/861/342
f 593/860/342 595/862/342 601/861/342
f 595/862/342 596/863/342 601/861/342
f 596/863/342 597/864/342 601/861/342
f 597/864/342 598/865/342 601/861/342
f 598/865/342 599/866/342 601/861/342
f 599/866/342 600/867/342 601/861/342
f 600/867/342 594/859/342 601/861/342
f 602/868/343 603/869/343 604/870/343
f 602/868/343 604/870/343 605/871/343
f 603/869/344 606/872/344 607/873/344
f 603/869/344 607/873/344 604/870/344
f 606/872/345 608/874/345 609/875/345
f 606/872/345 609/875/345 607/873/345
f 608/874/346 610/876/346 611/877/346
f 608/874/346 611/877/346 609/875/346
f 610/876/347 612/878/347 613/879/347
f 610/876/347 613/879/347 611/877/347
f 612/878/348 614/880/348 615/881/348
f 612/878/348 615/881/348 613/879/348
f 614/880/349 616/882/349 617/883/349
f 614/880/349 617/883/349 615/881/349
f 616/882/350 602/868/350 605/871/350
f 616/882/350 605/871/350 617/883/350
f 605/871/351 604/870/351 618/884/351
f 604/870/352 607/873/352 618/884/352
f 607/873/353 609/875/353 618/884/353
f 609/875/354 611/877/354 618/884/354
f 611/877/355 613/879/355 618/884/355
f 613/879/356 615/881/356 618/884/356
f 615/881/357 617/883/357 618/884/357
f 617/883/358 605/871/358 618/884/358
f 619/885/359 620/886/359 621/887/359
f 619/885/359 621/887/359 622/888/359
f 623/889/360 624/890/360 625/891/360
f 623/889/360 625/891/360 626/892/360
f 622/893/361 621/894/361 626/895/361
f 622/893/361 626/895/361 625/896/361
f 624/896/362 623/895/362 620/894/362
f 624/896/362 620/894/362 619/893/362
f 624/897/363 619/898/363 622/899/363
f 624/897/363 622/899/363 625/900/363
f 620/898/364 623/897/364 626/900/364
f 620/898/364 626/900/364 621/899/364
f 627/901/365 628/902/365 629/903/365
f 627/901/365 629/903/365 630/904/365
f 631/905/366 632/906/366 633/907/366
f 631/905/366 633/907/366 634/908/366
f 630/909/367 629/910/367 634/911/367
f 630/909/367 634/911/367 633/912/367
f 632/912/368 631/911/368 628/910/368
f 632/912/368 628/910/368 627/909/368
f 632/913/369 627/914/369 630/915/369
f 632/913/369 630/915/369 633/916/369
f 628/914/370 631/913/370 634/916/370
f 628/914/370 634/916/370 629/915/370
f 635/917/371 636/918/371 637/919/371
f 635/917/371 638/920/371 636/918/371
f 635/917/371 639/921/371 638/920/371
f 635/917/371 640/922/371 639/921/371
f 635/917/371 641/923/371 640/922/371
f 635/917/371 637/919/371 641/923/371
f 637/924/372 636/925/372 642/926/372
f 636/927/373 638/928/373 642/929/373
f 638/925/374 639/924/374 642/926/374
f 639/924/375 640/930/375 642/926/375
f 640/928/376 641/927/376 642/929/376
f 641/930/377 637/924/377 642/926/377
f 643/931/378 644/932/378 645/933/378
f 643/931/378 646/934/378 644/932/378
f 643/931/378 647/935/378 646/934/378
f 643/931/378 645/933/378 647/935/378
f 645/936/379 644/937/379 648/938/379
f 644/939/380 646/940/380 648/941/380
f 646/936/381 647/942/381 648/938/381
f 647/939/382 645/943/382 648/941/382
f 649/944/383 650/945/383 651/946/383
f 649/944/383 652/947/383 650/945/383
f 649/944/383 653/948/383 652/947/383
f 649/944/383 651/946/383 653/948/383
f 651/949/384 650/950/384 654/951/384
f 650/952/385 652/953/385 654/954/385
f 652/949/386 653/955/386 654/951/386
f 653/952/387 651/956/387 654/954/387
