# Terran tender, from tools/gen_fleet.py
# Generated by tools. Edit the generator script.
v 0.000000 0.532973 1.023834
v 0.111737 0.532973 1.657526
v 0.000000 0.532973 1.667302
v 0.220079 0.532973 1.628496
v 0.321734 0.532973 1.581094
v 0.413613 0.532973 1.516759
v 0.492925 0.532973 1.437447
v 0.557259 0.532973 1.345568
v 0.604662 0.532973 1.243913
v 0.633692 0.532973 1.135571
v 0.643468 0.532973 1.023834
v 0.633692 0.532973 0.912097
v 0.604662 0.532973 0.803756
v 0.557259 0.532973 0.702101
v 0.492925 0.532973 0.610221
v 0.413613 0.532973 0.530910
v 0.321734 0.532973 0.466575
v 0.220079 0.532973 0.419173
v 0.111737 0.532973 0.390143
v 0.000000 0.532973 0.380367
v -0.111737 0.532973 0.390143
v -0.220079 0.532973 0.419173
v -0.321734 0.532973 0.466575
v -0.413613 0.532973 0.530910
v -0.492925 0.532973 0.610221
v -0.557259 0.532973 0.702101
v -0.604662 0.532973 0.803756
v -0.633692 0.532973 0.912097
v -0.643468 0.532973 1.023834
v -0.633692 0.532973 1.135571
v -0.604662 0.532973 1.243913
v -0.557259 0.532973 1.345568
v -0.492925 0.532973 1.437447
v -0.413613 0.532973 1.516759
v -0.321734 0.532973 1.581094
v -0.220079 0.532973 1.628496
v -0.111737 0.532973 1.657526
v 0.182842 0.571971 2.060785
v 0.000000 0.571971 2.076781
v 0.360129 0.571971 2.013281
v 0.526474 0.571971 1.935713
v 0.676821 0.571971 1.830439
v 0.806604 0.571971 1.700656
v 0.911879 0.571971 1.550308
v 0.989447 0.571971 1.383964
v 1.036950 0.571971 1.206677
v 1.052947 0.571971 1.023834
v 1.036950 0.571971 0.840992
v 0.989447 0.571971 0.663705
v 0.911879 0.571971 0.497361
v 0.806604 0.571971 0.347013
v 0.676821 0.571971 0.217230
v 0.526474 0.571971 0.111956
v 0.360129 0.571971 0.034388
v 0.182842 0.571971 -0.013116
v 0.000000 0.571971 -0.029113
v -0.182842 0.571971 -0.013116
v -0.360129 0.571971 0.034388
v -0.526474 0.571971 0.111956
v -0.676821 0.571971 0.217230
v -0.806604 0.571971 0.347013
v -0.911879 0.571971 0.497361
v -0.989447 0.571971 0.663705
v -1.036950 0.571971 0.840992
v -1.052947 0.571971 1.023834
v -1.036950 0.571971 1.206677
v -0.989447 0.571971 1.383964
v -0.911879 0.571971 1.550308
v -0.806604 0.571971 1.700656
v -0.676821 0.571971 1.830439
v -0.526474 0.571971 1.935713
v -0.360129 0.571971 2.013281
v -0.182842 0.571971 2.060785
v 0.203158 0.571971 2.176002
v 0.000000 0.571971 2.193776
v 0.400143 0.571971 2.123220
v 0.584971 0.571971 2.037033
v 0.752024 0.571971 1.920061
v 0.896227 0.571971 1.775858
v 1.013199 0.571971 1.608805
v 1.099385 0.571971 1.423978
v 1.152167 0.571971 1.226993
v 1.169941 0.571971 1.023834
v 1.152167 0.571971 0.820676
v 1.099385 0.571971 0.623691
v 1.013199 0.571971 0.438864
v 0.896227 0.571971 0.271811
v 0.752024 0.571971 0.127608
v 0.584971 0.571971 0.010636
v 0.400143 0.571971 -0.075551
v 0.203158 0.571971 -0.128333
v 0.000000 0.571971 -0.146107
v -0.203158 0.571971 -0.128333
v -0.400143 0.571971 -0.075551
v -0.584971 0.571971 0.010636
v -0.752024 0.571971 0.127608
v -0.896227 0.571971 0.271811
v -1.013199 0.571971 0.438864
v -1.099385 0.571971 0.623691
v -1.152167 0.571971 0.820676
v -1.169941 0.571971 1.023834
v -1.152167 0.571971 1.226993
v -1.099385 0.571971 1.423978
v -1.013199 0.571971 1.608805
v -0.896227 0.571971 1.775858
v -0.752024 0.571971 1.920061
v -0.584971 0.571971 2.037033
v -0.400143 0.571971 2.123220
v -0.203158 0.571971 2.176002
v 0.203158 0.792960 2.176002
v 0.000000 0.792960 2.193776
v 0.400143 0.792960 2.123220
v 0.584971 0.792960 2.037033
v 0.752024 0.792960 1.920061
v 0.896227 0.792960 1.775858
v 1.013199 0.792960 1.608805
v 1.099385 0.792960 1.423978
v 1.152167 0.792960 1.226993
v 1.169941 0.792960 1.023834
v 1.152167 0.792960 0.820676
v 1.099385 0.792960 0.623691
v 1.013199 0.792960 0.438864
v 0.896227 0.792960 0.271811
v 0.752024 0.792960 0.127608
v 0.584971 0.792960 0.010636
v 0.400143 0.792960 -0.075551
v 0.203158 0.792960 -0.128333
v 0.000000 0.792960 -0.146107
v -0.203158 0.792960 -0.128333
v -0.400143 0.792960 -0.075551
v -0.584971 0.792960 0.010636
v -0.752024 0.792960 0.127608
v -0.896227 0.792960 0.271811
v -1.013199 0.792960 0.438864
v -1.099385 0.792960 0.623691
v -1.152167 0.792960 0.820676
v -1.169941 0.792960 1.023834
v -1.152167 0.792960 1.226993
v -1.099385 0.792960 1.423978
v -1.013199 0.792960 1.608805
v -0.896227 0.792960 1.775858
v -0.752024 0.792960 1.920061
v -0.584971 0.792960 2.037033
v -0.400143 0.792960 2.123220
v -0.203158 0.792960 2.176002
v 0.182842 0.792960 2.060785
v 0.000000 0.792960 2.076781
v 0.360129 0.792960 2.013281
v 0.526474 0.792960 1.935713
v 0.676821 0.792960 1.830439
v 0.806604 0.792960 1.700656
v 0.911879 0.792960 1.550308
v 0.989447 0.792960 1.383964
v 1.036950 0.792960 1.206677
v 1.052947 0.792960 1.023834
v 1.036950 0.792960 0.840992
v 0.989447 0.792960 0.663705
v 0.911879 0.792960 0.497361
v 0.806604 0.792960 0.347013
v 0.676821 0.792960 0.217230
v 0.526474 0.792960 0.111956
v 0.360129 0.792960 0.034388
v 0.182842 0.792960 -0.013116
v 0.000000 0.792960 -0.029113
v -0.182842 0.792960 -0.013116
v -0.360129 0.792960 0.034388
v -0.526474 0.792960 0.111956
v -0.676821 0.792960 0.217230
v -0.806604 0.792960 0.347013
v -0.911879 0.792960 0.497361
v -0.989447 0.792960 0.663705
v -1.036950 0.792960 0.840992
v -1.052947 0.792960 1.023834
v -1.036950 0.792960 1.206677
v -0.989447 0.792960 1.383964
v -0.911879 0.792960 1.550308
v -0.806604 0.792960 1.700656
v -0.676821 0.792960 1.830439
v -0.526474 0.792960 1.935713
v -0.360129 0.792960 2.013281
v -0.182842 0.792960 2.060785
v 0.178779 0.832391 2.037742
v 0.000000 0.832391 2.053383
v 0.352126 0.832391 1.991293
v 0.514774 0.832391 1.915449
v 0.661781 0.832391 1.812514
v 0.788680 0.832391 1.685615
v 0.891615 0.832391 1.538609
v 0.967459 0.832391 1.375961
v 1.013907 0.832391 1.202614
v 1.029548 0.832391 1.023834
v 1.013907 0.832391 0.845055
v 0.967459 0.832391 0.671708
v 0.891615 0.832391 0.509060
v 0.788680 0.832391 0.362054
v 0.661781 0.832391 0.235155
v 0.514774 0.832391 0.132220
v 0.352126 0.832391 0.056376
v 0.178779 0.832391 0.009927
v 0.000000 0.832391 -0.005714
v -0.178779 0.832391 0.009927
v -0.352126 0.832391 0.056376
v -0.514774 0.832391 0.132220
v -0.661781 0.832391 0.235155
v -0.788680 0.832391 0.362054
v -0.891615 0.832391 0.509060
v -0.967459 0.832391 0.671708
v -1.013907 0.832391 0.845055
v -1.029548 0.832391 1.023834
v -1.013907 0.832391 1.202614
v -0.967459 0.832391 1.375961
v -0.891615 0.832391 1.538609
v -0.788680 0.832391 1.685615
v -0.661781 0.832391 1.812514
v -0.514774 0.832391 1.915449
v -0.352126 0.832391 1.991293
v -0.178779 0.832391 2.037742
v 0.111737 0.832391 1.657526
v 0.000000 0.832391 1.667302
v 0.220079 0.832391 1.628496
v 0.321734 0.832391 1.581094
v 0.413613 0.832391 1.516759
v 0.492925 0.832391 1.437447
v 0.557259 0.832391 1.345568
v 0.604662 0.832391 1.243913
v 0.633692 0.832391 1.135571
v 0.643468 0.832391 1.023834
v 0.633692 0.832391 0.912097
v 0.604662 0.832391 0.803756
v 0.557259 0.832391 0.702101
v 0.492925 0.832391 0.610221
v 0.413613 0.832391 0.530910
v 0.321734 0.832391 0.466575
v 0.220079 0.832391 0.419173
v 0.111737 0.832391 0.390143
v 0.000000 0.832391 0.380367
v -0.111737 0.832391 0.390143
v -0.220079 0.832391 0.419173
v -0.321734 0.832391 0.466575
v -0.413613 0.832391 0.530910
v -0.492925 0.832391 0.610221
v -0.557259 0.832391 0.702101
v -0.604662 0.832391 0.803756
v -0.633692 0.832391 0.912097
v -0.643468 0.832391 1.023834
v -0.633692 0.832391 1.135571
v -0.604662 0.832391 1.243913
v -0.557259 0.832391 1.345568
v -0.492925 0.832391 1.437447
v -0.413613 0.832391 1.516759
v -0.321734 0.832391 1.581094
v -0.220079 0.832391 1.628496
v -0.111737 0.832391 1.657526
v 0.101579 0.883089 1.599918
v 0.000000 0.883089 1.608805
v 0.200072 0.883089 1.573527
v 0.292485 0.883089 1.530434
v 0.376012 0.883089 1.471948
v 0.448113 0.883089 1.399846
v 0.506599 0.883089 1.316320
v 0.549693 0.883089 1.223906
v 0.576084 0.883089 1.125414
v 0.584971 0.883089 1.023834
v 0.576084 0.883089 0.922255
v 0.549693 0.883089 0.823763
v 0.506599 0.883089 0.731349
v 0.448113 0.883089 0.647823
v 0.376012 0.883089 0.575721
v 0.292485 0.883089 0.517235
v 0.200072 0.883089 0.474142
v 0.101579 0.883089 0.447751
v 0.000000 0.883089 0.438864
v -0.101579 0.883089 0.447751
v -0.200072 0.883089 0.474142
v -0.292485 0.883089 0.517235
v -0.376012 0.883089 0.575721
v -0.448113 0.883089 0.647823
v -0.506599 0.883089 0.731349
v -0.549693 0.883089 0.823763
v -0.576084 0.883089 0.922255
v -0.584971 0.883089 1.023834
v -0.576084 0.883089 1.125414
v -0.549693 0.883089 1.223906
v -0.506599 0.883089 1.316320
v -0.448113 0.883089 1.399846
v -0.376012 0.883089 1.471948
v -0.292485 0.883089 1.530434
v -0.200072 0.883089 1.573527
v -0.101579 0.883089 1.599918
v 0.050790 0.905621 1.311876
v 0.000000 0.905621 1.316320
v 0.100036 0.905621 1.298681
v 0.146243 0.905621 1.277134
v 0.188006 0.905621 1.247891
v 0.224057 0.905621 1.211840
v 0.253300 0.905621 1.170077
v 0.274846 0.905621 1.123870
v 0.288042 0.905621 1.074624
v 0.292485 0.905621 1.023834
v 0.288042 0.905621 0.973045
v 0.274846 0.905621 0.923799
v 0.253300 0.905621 0.877592
v 0.224057 0.905621 0.835829
v 0.188006 0.905621 0.799778
v 0.146243 0.905621 0.770535
v 0.100036 0.905621 0.748988
v 0.050790 0.905621 0.735793
v 0.000000 0.905621 0.731349
v -0.050790 0.905621 0.735793
v -0.100036 0.905621 0.748988
v -0.146243 0.905621 0.770535
v -0.188006 0.905621 0.799778
v -0.224057 0.905621 0.835829
v -0.253300 0.905621 0.877592
v -0.274846 0.905621 0.923799
v -0.288042 0.905621 0.973045
v -0.292485 0.905621 1.023834
v -0.288042 0.905621 1.074624
v -0.274846 0.905621 1.123870
v -0.253300 0.905621 1.170077
v -0.224057 0.905621 1.211840
v -0.188006 0.905621 1.247891
v -0.146243 0.905621 1.277134
v -0.100036 0.905621 1.298681
v -0.050790 0.905621 1.311876
v 0.000000 0.905621 1.023834
v -0.238321 0.593637 0.027218
v 0.238321 0.593637 0.027218
v 0.238321 0.732296 0.027218
v -0.238321 0.732296 0.027218
v 0.238321 0.593637 -0.232769
v -0.238321 0.593637 -0.232769
v -0.238321 0.732296 -0.232769
v 0.238321 0.732296 -0.232769
v 0.000000 0.532973 0.763848
v 0.152816 0.532973 0.813501
v 0.132343 0.402980 0.841680
v 0.000000 0.402980 0.798679
v 0.247262 0.532973 0.943494
v 0.214135 0.402980 0.954258
v 0.247262 0.532973 1.104175
v 0.214135 0.402980 1.093411
v 0.152816 0.532973 1.234168
v 0.132343 0.402980 1.205989
v 0.000000 0.532973 1.283821
v 0.000000 0.402980 1.248990
v -0.152816 0.532973 1.234168
v -0.132343 0.402980 1.205989
v -0.247262 0.532973 1.104175
v -0.214135 0.402980 1.093411
v -0.247262 0.532973 0.943494
v -0.214135 0.402980 0.954258
v -0.152816 0.532973 0.813501
v -0.132343 0.402980 0.841680
v 0.076408 0.307818 0.918668
v 0.000000 0.307818 0.893841
v 0.123631 0.307818 0.983664
v 0.123631 0.307818 1.064005
v 0.076408 0.307818 1.129001
v 0.000000 0.307818 1.153828
v -0.076408 0.307818 1.129001
v -0.123631 0.307818 1.064005
v -0.123631 0.307818 0.983664
v -0.076408 0.307818 0.918668
v 0.000000 0.272986 1.023834
v 0.000000 0.896955 1.234424
v 0.147071 0.896955 1.381495
v 0.000000 0.896955 1.442413
v 0.207990 0.896955 1.234424
v 0.147071 0.896955 1.087353
v 0.000000 0.896955 1.026434
v -0.147071 0.896955 1.087353
v -0.207990 0.896955 1.234424
v -0.147071 0.896955 1.381495
v 0.147071 1.000950 1.381495
v 0.000000 1.000950 1.442413
v 0.207990 1.000950 1.234424
v 0.147071 1.000950 1.087353
v 0.000000 1.000950 1.026434
v -0.147071 1.000950 1.087353
v -0.207990 1.000950 1.234424
v -0.147071 1.000950 1.381495
v 0.000000 1.000950 1.234424
v -0.103995 0.055440 -0.038901
v 0.103995 0.055440 -0.038901
v 0.103995 0.534368 0.163586
v -0.103995 0.534368 0.163586
v 0.103995 0.392919 -0.837114
v -0.103995 0.392919 -0.837114
v -0.103995 0.871847 -0.634626
v 0.103995 0.871847 -0.634626
v -0.112661 0.324984 1.283821
v 0.112661 0.324984 1.283821
v 0.112661 0.550306 1.283821
v -0.112661 0.550306 1.283821
v 0.112661 0.324984 -1.194721
v -0.112661 0.324984 -1.194721
v -0.112661 0.550306 -1.194721
v 0.112661 0.550306 -1.194721
v -0.454977 0.000000 -0.609403
v -0.021666 0.000000 -0.609403
v -0.021666 0.389980 -0.609403
v -0.454977 0.389980 -0.609403
v -0.021666 0.000000 -1.086046
v -0.454977 0.000000 -1.086046
v -0.454977 0.389980 -1.086046
v -0.021666 0.389980 -1.086046
v 0.021666 0.000000 -0.609403
v 0.454977 0.000000 -0.609403
v 0.454977 0.389980 -0.609403
v 0.021666 0.389980 -0.609403
v 0.454977 0.000000 -1.086046
v 0.021666 0.000000 -1.086046
v 0.021666 0.389980 -1.086046
v 0.454977 0.389980 -1.086046
v -0.454977 0.000000 1.026434
v -0.021666 0.000000 1.026434
v -0.021666 0.389980 1.026434
v -0.454977 0.389980 1.026434
v -0.021666 0.000000 0.549792
v -0.454977 0.000000 0.549792
v -0.454977 0.389980 0.549792
v -0.021666 0.389980 0.549792
v 0.021666 0.000000 1.026434
v 0.454977 0.000000 1.026434
v 0.454977 0.389980 1.026434
v 0.021666 0.389980 1.026434
v 0.454977 0.000000 0.549792
v 0.021666 0.000000 0.549792
v 0.021666 0.389980 0.549792
v 0.454977 0.389980 0.549792
v 0.000000 0.437645 -1.550036
v 0.098047 0.339597 -1.550036
v 0.000000 0.298985 -1.550036
v 0.138660 0.437645 -1.550036
v 0.098047 0.535692 -1.550036
v 0.000000 0.576304 -1.550036
v -0.098047 0.535692 -1.550036
v -0.138660 0.437645 -1.550036
v -0.098047 0.339597 -1.550036
v 0.098047 0.339597 -1.116724
v 0.000000 0.298985 -1.116724
v 0.138660 0.437645 -1.116724
v 0.098047 0.535692 -1.116724
v 0.000000 0.576304 -1.116724
v -0.098047 0.535692 -1.116724
v -0.138660 0.437645 -1.116724
v -0.098047 0.339597 -1.116724
v 0.000000 0.437645 -1.116724
v -0.389980 0.510874 1.374817
v -0.354795 0.510874 1.461547
v -0.426428 0.510874 1.461024
v -0.303773 0.510874 1.411265
v -0.303250 0.510874 1.339632
v -0.353533 0.510874 1.288610
v -0.425165 0.510874 1.288087
v -0.476187 0.510874 1.338369
v -0.476710 0.510874 1.410002
v -0.354795 0.581071 1.461547
v -0.426428 0.581071 1.461024
v -0.303773 0.581071 1.411265
v -0.303250 0.581071 1.339632
v -0.353533 0.581071 1.288610
v -0.425165 0.581071 1.288087
v -0.476187 0.581071 1.338369
v -0.476710 0.581071 1.410002
v -0.389980 0.581071 1.374817
v -0.789943 0.561572 2.240702
v -0.732472 0.561572 2.265000
v -0.732472 0.623969 2.265000
v -0.789943 0.623969 2.240702
v -0.361245 0.561572 1.386966
v -0.418716 0.561572 1.362668
v -0.418716 0.623969 1.362668
v -0.361245 0.623969 1.386966
v -0.779722 0.444578 2.236555
v -0.736618 0.444578 2.254779
v -0.736618 0.584971 2.254779
v -0.779722 0.584971 2.236555
v -0.718394 0.444578 2.211675
v -0.761498 0.444578 2.193451
v -0.761498 0.584971 2.193451
v -0.718394 0.584971 2.211675
v 0.389980 0.510874 1.374817
v 0.476710 0.510874 1.410002
v 0.426428 0.510874 1.461024
v 0.476187 0.510874 1.338369
v 0.425165 0.510874 1.288087
v 0.353533 0.510874 1.288610
v 0.303250 0.510874 1.339632
v 0.303773 0.510874 1.411265
v 0.354795 0.510874 1.461547
v 0.476710 0.581071 1.410002
v 0.426428 0.581071 1.461024
v 0.476187 0.581071 1.338369
v 0.425165 0.581071 1.288087
v 0.353533 0.581071 1.288610
v 0.303250 0.581071 1.339632
v 0.303773 0.581071 1.411265
v 0.354795 0.581071 1.461547
v 0.389980 0.581071 1.374817
v 0.732472 0.561572 2.265000
v 0.789943 0.561572 2.240702
v 0.789943 0.623969 2.240702
v 0.732472 0.623969 2.265000
v 0.418716 0.561572 1.362668
v 0.361245 0.561572 1.386966
v 0.361245 0.623969 1.386966
v 0.418716 0.623969 1.362668
v 0.736618 0.444578 2.254779
v 0.779722 0.444578 2.236555
v 0.779722 0.584971 2.236555
v 0.736618 0.584971 2.254779
v 0.761498 0.444578 2.193451
v 0.718394 0.444578 2.211675
v 0.718394 0.584971 2.211675
v 0.761498 0.584971 2.193451
v -1.735413 1.151742 -0.185105
v -1.440761 1.151742 -0.185105
v -1.440761 1.387464 -0.185105
v -1.735413 1.387464 -0.185105
v -1.463293 1.169768 -2.265000
v -1.712880 1.169768 -2.265000
v -1.712880 1.369438 -2.265000
v -1.463293 1.369438 -2.265000
v -1.631418 1.383997 -0.580285
v -1.544756 1.383997 -0.580285
v -1.544756 1.425595 -0.580285
v -1.631418 1.425595 -0.580285
v -1.544756 1.383997 -1.869820
v -1.631418 1.383997 -1.869820
v -1.631418 1.425595 -1.869820
v -1.544756 1.425595 -1.869820
v -1.683415 1.191607 -1.970348
v -1.492758 1.191607 -1.970348
v -1.492758 1.347599 -1.970348
v -1.683415 1.347599 -1.970348
v -1.492758 1.191607 -2.011946
v -1.683415 1.191607 -2.011946
v -1.683415 1.347599 -2.011946
v -1.492758 1.347599 -2.011946
v 1.440761 1.151742 -0.185105
v 1.735413 1.151742 -0.185105
v 1.735413 1.387464 -0.185105
v 1.440761 1.387464 -0.185105
v 1.712880 1.169768 -2.265000
v 1.463293 1.169768 -2.265000
v 1.463293 1.369438 -2.265000
v 1.712880 1.369438 -2.265000
v 1.544756 1.383997 -0.580285
v 1.631418 1.383997 -0.580285
v 1.631418 1.425595 -0.580285
v 1.544756 1.425595 -0.580285
v 1.631418 1.383997 -1.869820
v 1.544756 1.383997 -1.869820
v 1.544756 1.425595 -1.869820
v 1.631418 1.425595 -1.869820
v 1.492758 1.191607 -1.970348
v 1.683415 1.191607 -1.970348
v 1.683415 1.347599 -1.970348
v 1.492758 1.347599 -1.970348
v 1.683415 1.191607 -2.011946
v 1.492758 1.191607 -2.011946
v 1.492758 1.347599 -2.011946
v 1.683415 1.347599 -2.011946
v -1.588087 1.122277 -0.193771
v -1.501491 1.150414 -0.193771
v -1.513092 1.166382 -0.120108
v -1.588087 1.142015 -0.120108
v -1.447971 1.224077 -0.193771
v -1.466743 1.230176 -0.120108
v -1.447971 1.315129 -0.193771
v -1.466743 1.309030 -0.120108
v -1.501491 1.388792 -0.193771
v -1.513092 1.372824 -0.120108
v -1.588087 1.416929 -0.193771
v -1.588087 1.397191 -0.120108
v -1.674683 1.388792 -0.193771
v -1.663081 1.372824 -0.120108
v -1.728202 1.315129 -0.193771
v -1.709430 1.309030 -0.120108
v -1.728202 1.224077 -0.193771
v -1.709430 1.230176 -0.120108
v -1.674683 1.150414 -0.193771
v -1.663081 1.166382 -0.120108
v -1.544789 1.210008 -0.066183
v -1.588087 1.195940 -0.066183
v -1.518029 1.246840 -0.066183
v -1.518029 1.292366 -0.066183
v -1.544789 1.329197 -0.066183
v -1.588087 1.343266 -0.066183
v -1.631385 1.329197 -0.066183
v -1.658144 1.292366 -0.066183
v -1.658144 1.246840 -0.066183
v -1.631385 1.210008 -0.066183
v -1.588087 1.269603 -0.046445
v -0.086662 0.524307 -1.036129
v -0.017332 0.524307 -1.036129
v -1.449427 1.182940 -1.304782
v -1.518757 1.182940 -1.304782
v -0.017332 0.524307 -1.257984
v -0.086662 0.524307 -1.257984
v -1.518757 1.182940 -1.526637
v -1.449427 1.182940 -1.526637
v 1.588087 1.122277 -0.193771
v 1.674683 1.150414 -0.193771
v 1.663081 1.166382 -0.120108
v 1.588087 1.142015 -0.120108
v 1.728202 1.224077 -0.193771
v 1.709430 1.230176 -0.120108
v 1.728202 1.315129 -0.193771
v 1.709430 1.309030 -0.120108
v 1.674683 1.388792 -0.193771
v 1.663081 1.372824 -0.120108
v 1.588087 1.416929 -0.193771
v 1.588087 1.397191 -0.120108
v 1.501491 1.388792 -0.193771
v 1.513092 1.372824 -0.120108
v 1.447971 1.315129 -0.193771
v 1.466743 1.309030 -0.120108
v 1.447971 1.224077 -0.193771
v 1.466743 1.230176 -0.120108
v 1.501491 1.150414 -0.193771
v 1.513092 1.166382 -0.120108
v 1.631385 1.210008 -0.066183
v 1.588087 1.195940 -0.066183
v 1.658144 1.246840 -0.066183
v 1.658144 1.292366 -0.066183
v 1.631385 1.329197 -0.066183
v 1.588087 1.343266 -0.066183
v 1.544789 1.329197 -0.066183
v 1.518029 1.292366 -0.066183
v 1.518029 1.246840 -0.066183
v 1.544789 1.210008 -0.066183
v 1.588087 1.269603 -0.046445
v 0.017332 0.524307 -1.036129
v 0.086662 0.524307 -1.036129
v 1.518757 1.182940 -1.304782
v 1.449427 1.182940 -1.304782
v 0.086662 0.524307 -1.257984
v 0.017332 0.524307 -1.257984
v 1.449427 1.182940 -1.526637
v 1.518757 1.182940 -1.526637
vt 0.171875 0.828125
vt 0.187544 0.916989
vt 0.171875 0.918359
vt 0.202737 0.912918
vt 0.216992 0.906270
vt 0.229877 0.897249
vt 0.240999 0.886127
vt 0.250020 0.873242
vt 0.256668 0.858987
vt 0.260739 0.843794
vt 0.262109 0.828125
vt 0.260739 0.812456
vt 0.256668 0.797263
vt 0.250020 0.783008
vt 0.240999 0.770123
vt 0.229877 0.759001
vt 0.216992 0.749980
vt 0.202737 0.743332
vt 0.187544 0.739261
vt 0.171875 0.737891
vt 0.156206 0.739261
vt 0.141013 0.743332
vt 0.126758 0.749980
vt 0.113873 0.759001
vt 0.102751 0.770123
vt 0.093730 0.783008
vt 0.087082 0.797263
vt 0.083011 0.812456
vt 0.081641 0.828125
vt 0.083011 0.843794
vt 0.087082 0.858987
vt 0.093730 0.873242
vt 0.102751 0.886127
vt 0.113873 0.897249
vt 0.126758 0.906270
vt 0.141013 0.912918
vt 0.156206 0.916989
vt 0.197515 0.973538
vt 0.171875 0.975781
vt 0.222376 0.966876
vt 0.245703 0.955999
vt 0.266787 0.941236
vt 0.284986 0.923037
vt 0.299749 0.901953
vt 0.310626 0.878626
vt 0.317288 0.853765
vt 0.319531 0.828125
vt 0.317288 0.802485
vt 0.310626 0.777624
vt 0.299749 0.754297
vt 0.284986 0.733213
vt 0.266787 0.715014
vt 0.245703 0.700251
vt 0.222376 0.689374
vt 0.197515 0.682712
vt 0.171875 0.680469
vt 0.146235 0.682712
vt 0.121374 0.689374
vt 0.098047 0.700251
vt 0.076963 0.715014
vt 0.058764 0.733213
vt 0.044001 0.754297
vt 0.033124 0.777624
vt 0.026462 0.802485
vt 0.024219 0.828125
vt 0.026462 0.853765
vt 0.033124 0.878626
vt 0.044001 0.901953
vt 0.058764 0.923037
vt 0.076963 0.941236
vt 0.098047 0.955999
vt 0.121374 0.966876
vt 0.146235 0.973538
vt 0.200364 0.989695
vt 0.171875 0.992188
vt 0.227988 0.982293
vt 0.253906 0.970207
vt 0.277332 0.953804
vt 0.297554 0.933582
vt 0.313957 0.910156
vt 0.326043 0.884238
vt 0.333445 0.856614
vt 0.335938 0.828125
vt 0.333445 0.799636
vt 0.326043 0.772012
vt 0.313957 0.746094
vt 0.297554 0.722668
vt 0.277332 0.702446
vt 0.253906 0.686043
vt 0.227988 0.673957
vt 0.200364 0.666555
vt 0.171875 0.664062
vt 0.143386 0.666555
vt 0.115762 0.673957
vt 0.089844 0.686043
vt 0.066418 0.702446
vt 0.046196 0.722668
vt 0.029793 0.746094
vt 0.017707 0.772012
vt 0.010305 0.799636
vt 0.007812 0.828125
vt 0.010305 0.856614
vt 0.017707 0.884238
vt 0.029793 0.910156
vt 0.046196 0.933582
vt 0.066418 0.953804
vt 0.089844 0.970207
vt 0.115762 0.982293
vt 0.143386 0.989695
vt 0.195312 0.145531
vt 0.227872 0.145531
vt 0.227872 0.173328
vt 0.195312 0.173328
vt 0.259441 0.145531
vt 0.259441 0.173328
vt 0.289062 0.145531
vt 0.289062 0.173328
vt 0.315835 0.145531
vt 0.315835 0.173328
vt 0.338946 0.145531
vt 0.338946 0.173328
vt 0.315835 0.145531
vt 0.289062 0.145531
vt 0.289062 0.173328
vt 0.315835 0.173328
vt 0.259441 0.145531
vt 0.259441 0.173328
vt 0.227872 0.145531
vt 0.227872 0.173328
vt 0.195312 0.145531
vt 0.195312 0.173328
vt 0.162753 0.145531
vt 0.162753 0.173328
vt 0.131184 0.145531
vt 0.131184 0.173328
vt 0.101563 0.145531
vt 0.101563 0.173328
vt 0.074790 0.145531
vt 0.074790 0.173328
vt 0.721758 0.145531
vt 0.698648 0.145531
vt 0.698648 0.173328
vt 0.721758 0.173328
vt 0.671875 0.145531
vt 0.671875 0.173328
vt 0.642254 0.145531
vt 0.642254 0.173328
vt 0.610684 0.145531
vt 0.610684 0.173328
vt 0.578125 0.145531
vt 0.578125 0.173328
vt 0.545566 0.145531
vt 0.545566 0.173328
vt 0.513996 0.145531
vt 0.513996 0.173328
vt 0.484375 0.145531
vt 0.484375 0.173328
vt 0.457602 0.145531
vt 0.457602 0.173328
vt 0.434492 0.145531
vt 0.434492 0.173328
vt 0.338946 0.145531
vt 0.338946 0.173328
vt 0.074790 0.145531
vt 0.101563 0.145531
vt 0.101563 0.173328
vt 0.074790 0.173328
vt 0.131184 0.145531
vt 0.131184 0.173328
vt 0.162753 0.145531
vt 0.162753 0.173328
vt 0.224616 0.173328
vt 0.223964 0.178289
vt 0.195312 0.178289
vt 0.253028 0.173328
vt 0.251746 0.178289
vt 0.279687 0.173328
vt 0.277812 0.178289
vt 0.303783 0.173328
vt 0.301372 0.178289
vt 0.324582 0.173328
vt 0.303783 0.173328
vt 0.301372 0.178289
vt 0.321710 0.178289
vt 0.279687 0.173328
vt 0.277813 0.178289
vt 0.253028 0.173328
vt 0.251746 0.178289
vt 0.224616 0.173328
vt 0.223964 0.178289
vt 0.195312 0.178289
vt 0.166009 0.173328
vt 0.166661 0.178289
vt 0.137597 0.173328
vt 0.138879 0.178289
vt 0.110938 0.173328
vt 0.112813 0.178289
vt 0.086842 0.173328
vt 0.089253 0.178289
vt 0.066043 0.173328
vt 0.068915 0.178289
vt 0.686595 0.173328
vt 0.662500 0.173328
vt 0.660625 0.178289
vt 0.684185 0.178289
vt 0.635841 0.173328
vt 0.634558 0.178289
vt 0.607428 0.173328
vt 0.606777 0.178289
vt 0.578125 0.178289
vt 0.548822 0.173328
vt 0.549473 0.178289
vt 0.520409 0.173328
vt 0.521692 0.178289
vt 0.493750 0.173328
vt 0.495625 0.178289
vt 0.469655 0.173328
vt 0.472065 0.178289
vt 0.448855 0.173328
vt 0.451728 0.178289
vt 0.321710 0.178289
vt 0.066043 0.173328
vt 0.089253 0.178289
vt 0.068915 0.178289
vt 0.086842 0.173328
vt 0.110938 0.173328
vt 0.112813 0.178289
vt 0.137597 0.173328
vt 0.138879 0.178289
vt 0.166009 0.173328
vt 0.166661 0.178289
vt 0.171875 0.972500
vt 0.196945 0.970307
vt 0.221254 0.963793
vt 0.244062 0.953157
vt 0.264677 0.938723
vt 0.282473 0.920927
vt 0.296907 0.900313
vt 0.307543 0.877504
vt 0.314057 0.853195
vt 0.316250 0.828125
vt 0.314057 0.803055
vt 0.307543 0.778746
vt 0.296907 0.755938
vt 0.282473 0.735323
vt 0.264677 0.717527
vt 0.244063 0.703093
vt 0.221254 0.692457
vt 0.196945 0.685943
vt 0.171875 0.683750
vt 0.146805 0.685943
vt 0.122496 0.692457
vt 0.099687 0.703093
vt 0.079073 0.717527
vt 0.061277 0.735323
vt 0.046843 0.755937
vt 0.036207 0.778746
vt 0.029693 0.803055
vt 0.027500 0.828125
vt 0.029693 0.853195
vt 0.036207 0.877504
vt 0.046843 0.900312
vt 0.061277 0.920927
vt 0.079073 0.938723
vt 0.099688 0.953157
vt 0.122496 0.963793
vt 0.146805 0.970307
vt 0.186120 0.908910
vt 0.171875 0.910156
vt 0.199931 0.905209
vt 0.212891 0.899166
vt 0.224604 0.890965
vt 0.234715 0.880854
vt 0.242916 0.869141
vt 0.248959 0.856181
vt 0.252660 0.842370
vt 0.253906 0.828125
vt 0.252660 0.813880
vt 0.248959 0.800069
vt 0.242916 0.787109
vt 0.234715 0.775396
vt 0.224604 0.765285
vt 0.212891 0.757084
vt 0.199931 0.751041
vt 0.186120 0.747340
vt 0.171875 0.746094
vt 0.157630 0.747340
vt 0.143819 0.751041
vt 0.130859 0.757084
vt 0.119146 0.765285
vt 0.109035 0.775396
vt 0.100834 0.787109
vt 0.094791 0.800069
vt 0.091090 0.813880
vt 0.089844 0.828125
vt 0.091090 0.842370
vt 0.094791 0.856181
vt 0.100834 0.869141
vt 0.109035 0.880854
vt 0.119146 0.890965
vt 0.130859 0.899166
vt 0.143819 0.905209
vt 0.157630 0.908910
vt 0.178997 0.868518
vt 0.171875 0.869141
vt 0.185903 0.866667
vt 0.192383 0.863646
vt 0.198239 0.859545
vt 0.203295 0.854489
vt 0.207396 0.848633
vt 0.210417 0.842153
vt 0.212268 0.835247
vt 0.212891 0.828125
vt 0.212268 0.821003
vt 0.210417 0.814097
vt 0.207396 0.807617
vt 0.203295 0.801761
vt 0.198239 0.796705
vt 0.192383 0.792604
vt 0.185903 0.789583
vt 0.178997 0.787732
vt 0.171875 0.787109
vt 0.164753 0.787732
vt 0.157847 0.789583
vt 0.151367 0.792604
vt 0.145511 0.796705
vt 0.140455 0.801761
vt 0.136354 0.807617
vt 0.133333 0.814097
vt 0.131482 0.821003
vt 0.130859 0.828125
vt 0.131482 0.835247
vt 0.133333 0.842153
vt 0.136354 0.848633
vt 0.140455 0.854489
vt 0.145511 0.859545
vt 0.151367 0.863646
vt 0.157847 0.866667
vt 0.164753 0.868518
vt 0.007812 0.281250
vt 0.101562 0.281250
vt 0.101562 0.375000
vt 0.007812 0.375000
vt 0.101562 0.281250
vt 0.007812 0.281250
vt 0.007812 0.375000
vt 0.101562 0.375000
vt 0.007812 0.375000
vt 0.101562 0.375000
vt 0.101562 0.281250
vt 0.007812 0.281250
vt 0.007812 0.281250
vt 0.101562 0.281250
vt 0.101562 0.375000
vt 0.007812 0.375000
vt 0.718750 0.476562
vt 0.747720 0.476562
vt 0.743839 0.429688
vt 0.718750 0.429688
vt 0.680827 0.476562
vt 0.704265 0.476562
vt 0.706205 0.429688
vt 0.685908 0.429688
vt 0.733235 0.476562
vt 0.731295 0.429688
vt 0.756673 0.476562
vt 0.751592 0.429688
vt 0.747720 0.476562
vt 0.718750 0.476562
vt 0.718750 0.429688
vt 0.743839 0.429688
vt 0.689780 0.476562
vt 0.693661 0.429688
vt 0.689780 0.476562
vt 0.693661 0.429688
vt 0.733235 0.395373
vt 0.718750 0.395373
vt 0.642277 0.396846
vt 0.657782 0.417143
vt 0.640625 0.422445
vt 0.631673 0.410726
vt 0.725993 0.395373
vt 0.711507 0.395373
vt 0.657782 0.442232
vt 0.642277 0.462529
vt 0.631673 0.448649
vt 0.640625 0.436930
vt 0.718750 0.395373
vt 0.733235 0.395373
vt 0.617188 0.470282
vt 0.592098 0.462529
vt 0.602702 0.448649
vt 0.704265 0.395373
vt 0.576593 0.442232
vt 0.593750 0.436930
vt 0.576593 0.417143
vt 0.592098 0.396846
vt 0.602702 0.410726
vt 0.593750 0.422445
vt 0.617188 0.406250
vt 0.617188 0.429688
vt 0.617188 0.453125
vt 0.617188 0.429688
vt 0.650333 0.462833
vt 0.617188 0.476562
vt 0.664062 0.429688
vt 0.650333 0.396542
vt 0.617188 0.382812
vt 0.584042 0.396542
vt 0.570312 0.429688
vt 0.584042 0.462833
vt 0.718750 0.382812
vt 0.751896 0.382812
vt 0.751896 0.476562
vt 0.718750 0.476562
vt 0.751896 0.382812
vt 0.718750 0.382812
vt 0.718750 0.476562
vt 0.751896 0.476562
vt 0.685604 0.382812
vt 0.685604 0.476562
vt 0.751896 0.382812
vt 0.718750 0.382812
vt 0.718750 0.476562
vt 0.751896 0.476562
vt 0.685604 0.382812
vt 0.685604 0.476562
vt 0.685604 0.382812
vt 0.685604 0.476562
vt 0.187500 0.484375
vt 0.312500 0.484375
vt 0.312500 0.585202
vt 0.187500 0.585202
vt 0.312500 0.555423
vt 0.187500 0.555423
vt 0.187500 0.656250
vt 0.312500 0.656250
vt 0.320312 0.656250
vt 0.382812 0.656250
vt 0.382812 0.519153
vt 0.320312 0.519153
vt 0.320312 0.484375
vt 0.382812 0.484375
vt 0.382812 0.621472
vt 0.320312 0.621472
vt 0.187500 0.555423
vt 0.287207 0.484375
vt 0.312500 0.585202
vt 0.212793 0.656250
vt 0.843750 0.531250
vt 0.968750 0.531250
vt 0.968750 0.656250
vt 0.843750 0.656250
vt 0.968750 0.531250
vt 0.843750 0.531250
vt 0.843750 0.656250
vt 0.968750 0.656250
vt 0.843750 0.656250
vt 0.968750 0.656250
vt 0.968750 0.531250
vt 0.843750 0.531250
vt 0.843750 0.531250
vt 0.968750 0.531250
vt 0.968750 0.656250
vt 0.843750 0.656250
vt 0.875000 0.382812
vt 0.968750 0.382812
vt 0.968750 0.476562
vt 0.875000 0.476562
vt 0.968750 0.382812
vt 0.875000 0.382812
vt 0.875000 0.476562
vt 0.968750 0.476562
vt 0.773438 0.476562
vt 0.867188 0.476562
vt 0.867188 0.382812
vt 0.773438 0.382812
vt 0.875000 0.382812
vt 0.968750 0.382812
vt 0.968750 0.476562
vt 0.875000 0.476562
vt 0.875000 0.382812
vt 0.968750 0.382812
vt 0.968750 0.476562
vt 0.875000 0.476562
vt 0.968750 0.382812
vt 0.875000 0.382812
vt 0.875000 0.476562
vt 0.968750 0.476562
vt 0.773438 0.476562
vt 0.867188 0.476562
vt 0.867188 0.382812
vt 0.773438 0.382812
vt 0.875000 0.382812
vt 0.968750 0.382812
vt 0.968750 0.476562
vt 0.875000 0.476562
vt 0.875000 0.382812
vt 0.968750 0.382812
vt 0.968750 0.476562
vt 0.875000 0.476562
vt 0.968750 0.382812
vt 0.875000 0.382812
vt 0.875000 0.476562
vt 0.968750 0.476562
vt 0.773438 0.476562
vt 0.867188 0.476562
vt 0.867188 0.382812
vt 0.773438 0.382812
vt 0.875000 0.382812
vt 0.968750 0.382812
vt 0.968750 0.476562
vt 0.875000 0.476562
vt 0.875000 0.382812
vt 0.968750 0.382812
vt 0.968750 0.476562
vt 0.875000 0.476562
vt 0.968750 0.382812
vt 0.875000 0.382812
vt 0.875000 0.476562
vt 0.968750 0.476562
vt 0.773438 0.476562
vt 0.867188 0.476562
vt 0.867188 0.382812
vt 0.773438 0.382812
vt 0.875000 0.382812
vt 0.968750 0.382812
vt 0.968750 0.476562
vt 0.875000 0.476562
vt 0.054688 0.328125
vt 0.087833 0.294979
vt 0.054688 0.281250
vt 0.101562 0.328125
vt 0.087833 0.361271
vt 0.054688 0.375000
vt 0.021542 0.361271
vt 0.007812 0.328125
vt 0.021542 0.294979
vt 0.054688 0.281250
vt 0.087833 0.281250
vt 0.087833 0.375000
vt 0.054688 0.375000
vt 0.007812 0.294979
vt 0.007812 0.328125
vt 0.101562 0.328125
vt 0.101562 0.294979
vt 0.007812 0.361271
vt 0.101562 0.361271
vt 0.021542 0.281250
vt 0.021542 0.375000
vt 0.054688 0.281250
vt 0.087833 0.294979
vt 0.054688 0.328125
vt 0.101562 0.328125
vt 0.087833 0.361271
vt 0.054688 0.375000
vt 0.021542 0.361271
vt 0.007812 0.328125
vt 0.021542 0.294979
vt 0.647356 0.391136
vt 0.654134 0.399459
vt 0.640335 0.399408
vt 0.663962 0.394633
vt 0.664062 0.387759
vt 0.654377 0.382863
vt 0.640578 0.382812
vt 0.630750 0.387638
vt 0.630649 0.394512
vt 0.741898 0.417459
vt 0.755696 0.417459
vt 0.755696 0.454144
vt 0.741898 0.454144
vt 0.765524 0.417459
vt 0.765524 0.454144
vt 0.683696 0.417459
vt 0.676822 0.417459
vt 0.676822 0.454144
vt 0.683696 0.454144
vt 0.671925 0.417459
vt 0.671925 0.454144
vt 0.755939 0.417459
vt 0.742141 0.417459
vt 0.742141 0.454144
vt 0.755939 0.454144
vt 0.732313 0.417459
vt 0.732313 0.454144
vt 0.676700 0.417459
vt 0.683575 0.417459
vt 0.683575 0.454144
vt 0.676700 0.454144
vt 0.688471 0.417459
vt 0.688471 0.454144
vt 0.671875 0.443954
vt 0.682946 0.443954
vt 0.682946 0.476562
vt 0.671875 0.476562
vt 0.754454 0.443954
vt 0.743383 0.443954
vt 0.743383 0.476562
vt 0.754454 0.476562
vt 0.570312 0.474231
vt 0.581383 0.476562
vt 0.652891 0.392301
vt 0.641821 0.389970
vt 0.679032 0.443954
vt 0.763293 0.443954
vt 0.763293 0.476562
vt 0.679032 0.476562
vt 0.765625 0.443954
vt 0.681364 0.443954
vt 0.681364 0.476562
vt 0.765625 0.476562
vt 0.673844 0.382812
vt 0.682147 0.382812
vt 0.682147 0.456182
vt 0.673844 0.456182
vt 0.685657 0.382812
vt 0.677354 0.382812
vt 0.677354 0.456182
vt 0.685657 0.456182
vt 0.572281 0.473833
vt 0.580584 0.475582
vt 0.584095 0.471445
vt 0.575792 0.469696
vt 0.758759 0.382812
vt 0.762895 0.382812
vt 0.762895 0.456182
vt 0.758759 0.456182
vt 0.764644 0.382812
vt 0.760508 0.382812
vt 0.760508 0.456182
vt 0.764644 0.456182
vt 0.587019 0.391136
vt 0.603726 0.394512
vt 0.594040 0.399408
vt 0.603625 0.387638
vt 0.593797 0.382812
vt 0.579998 0.382863
vt 0.570312 0.387759
vt 0.570413 0.394633
vt 0.580241 0.399459
vt 0.688471 0.417459
vt 0.683575 0.417459
vt 0.683575 0.454144
vt 0.688471 0.454144
vt 0.676700 0.417459
vt 0.676700 0.454144
vt 0.705187 0.417459
vt 0.695359 0.417459
vt 0.695359 0.454144
vt 0.705187 0.454144
vt 0.681561 0.417459
vt 0.681561 0.454144
vt 0.671925 0.417459
vt 0.676822 0.417459
vt 0.676822 0.454144
vt 0.671925 0.454144
vt 0.683696 0.417459
vt 0.683696 0.454144
vt 0.671976 0.417459
vt 0.681804 0.417459
vt 0.681804 0.454144
vt 0.671976 0.454144
vt 0.695602 0.417459
vt 0.695602 0.454144
vt 0.754554 0.443954
vt 0.765625 0.443954
vt 0.765625 0.476562
vt 0.754554 0.476562
vt 0.694117 0.443954
vt 0.683046 0.443954
vt 0.683046 0.476562
vt 0.694117 0.476562
vt 0.652992 0.476562
vt 0.664062 0.474231
vt 0.592554 0.389970
vt 0.581484 0.392301
vt 0.681364 0.443954
vt 0.765625 0.443954
vt 0.765625 0.476562
vt 0.681364 0.476562
vt 0.763293 0.443954
vt 0.679032 0.443954
vt 0.679032 0.476562
vt 0.763293 0.476562
vt 0.755353 0.382812
vt 0.763656 0.382812
vt 0.763656 0.456182
vt 0.755353 0.456182
vt 0.760146 0.382812
vt 0.751843 0.382812
vt 0.751843 0.456182
vt 0.760146 0.456182
vt 0.653791 0.475582
vt 0.662094 0.473833
vt 0.658583 0.469696
vt 0.650280 0.471445
vt 0.760508 0.382812
vt 0.764644 0.382812
vt 0.764644 0.456182
vt 0.760508 0.456182
vt 0.762895 0.382812
vt 0.758759 0.382812
vt 0.758759 0.456182
vt 0.762895 0.456182
vt 0.390625 0.195312
vt 0.484375 0.195312
vt 0.484375 0.262559
vt 0.390625 0.262559
vt 0.578768 0.200455
vt 0.499357 0.200455
vt 0.499357 0.257417
vt 0.578768 0.257417
vt 0.554688 0.992188
vt 0.625000 0.992188
vt 0.619623 0.664062
vt 0.560064 0.664062
vt 0.492188 0.302017
vt 0.867188 0.296875
vt 0.867188 0.364122
vt 0.492188 0.358979
vt 0.382812 0.195312
vt 0.354136 0.200455
vt 0.354136 0.257417
vt 0.382812 0.262559
vt 0.423713 0.261570
vt 0.451287 0.261570
vt 0.451287 0.273438
vt 0.423713 0.273438
vt 0.552849 0.261570
vt 0.525276 0.261570
vt 0.525276 0.273438
vt 0.552849 0.273438
vt 0.579504 0.929844
vt 0.600184 0.929844
vt 0.600184 0.726406
vt 0.579504 0.726406
vt 0.563438 0.363133
vt 0.795937 0.363133
vt 0.795937 0.375000
vt 0.563438 0.375000
vt 0.250460 0.261570
vt 0.250460 0.273438
vt 0.407169 0.206685
vt 0.467831 0.206685
vt 0.467831 0.251187
vt 0.407169 0.251187
vt 0.569393 0.206685
vt 0.508732 0.206685
vt 0.508732 0.251187
vt 0.569393 0.251187
vt 0.567096 0.710547
vt 0.612592 0.710547
vt 0.612592 0.703984
vt 0.567096 0.703984
vt 0.537812 0.308248
vt 0.545312 0.308248
vt 0.545312 0.352749
vt 0.537812 0.352749
vt 0.316636 0.206685
vt 0.316636 0.251187
vt 0.390625 0.195312
vt 0.484375 0.195312
vt 0.484375 0.262559
vt 0.390625 0.262559
vt 0.578768 0.200455
vt 0.499357 0.200455
vt 0.499357 0.257417
vt 0.578768 0.257417
vt 0.554688 0.992188
vt 0.625000 0.992188
vt 0.619623 0.664062
vt 0.560064 0.664062
vt 0.036489 0.200455
vt 0.007812 0.195312
vt 0.007812 0.262559
vt 0.036489 0.257417
vt 0.867188 0.296875
vt 0.492188 0.302017
vt 0.492188 0.358979
vt 0.867188 0.364122
vt 0.423713 0.261570
vt 0.451287 0.261570
vt 0.451287 0.273438
vt 0.423713 0.273438
vt 0.552849 0.261570
vt 0.525276 0.261570
vt 0.525276 0.273438
vt 0.552849 0.273438
vt 0.579504 0.929844
vt 0.600184 0.929844
vt 0.600184 0.726406
vt 0.579504 0.726406
vt 0.140165 0.261570
vt 0.140165 0.273438
vt 0.795937 0.363133
vt 0.563438 0.363133
vt 0.563438 0.375000
vt 0.795937 0.375000
vt 0.407169 0.206685
vt 0.467831 0.206685
vt 0.467831 0.251187
vt 0.407169 0.251187
vt 0.569393 0.206685
vt 0.508732 0.206685
vt 0.508732 0.251187
vt 0.569393 0.251187
vt 0.567096 0.710547
vt 0.612592 0.710547
vt 0.612592 0.703984
vt 0.567096 0.703984
vt 0.073989 0.206685
vt 0.073989 0.251187
vt 0.545312 0.308248
vt 0.537812 0.308248
vt 0.537812 0.352749
vt 0.545312 0.352749
vt 0.054688 0.281250
vt 0.083658 0.281250
vt 0.079777 0.328125
vt 0.054688 0.328125
vt 0.007812 0.290202
vt 0.007812 0.313640
vt 0.054687 0.315580
vt 0.054688 0.295283
vt 0.007812 0.342610
vt 0.054687 0.340670
vt 0.007812 0.366048
vt 0.054687 0.360967
vt 0.025717 0.281250
vt 0.029598 0.328125
vt 0.054688 0.287530
vt 0.079777 0.295283
vt 0.069173 0.309164
vt 0.054688 0.304688
vt 0.095282 0.315580
vt 0.078125 0.320882
vt 0.089002 0.335368
vt 0.089002 0.320882
vt 0.095282 0.340670
vt 0.079777 0.360967
vt 0.069173 0.347086
vt 0.078125 0.335368
vt 0.054688 0.368720
vt 0.054688 0.351562
vt 0.054688 0.362440
vt 0.069173 0.362440
vt 0.040202 0.362440
vt 0.040202 0.347086
vt 0.029598 0.360967
vt 0.014093 0.340670
vt 0.031250 0.335368
vt 0.014093 0.315580
vt 0.029598 0.295283
vt 0.040202 0.309164
vt 0.031250 0.320882
vt 0.054688 0.328125
vt 0.306728 0.484375
vt 0.312500 0.484375
vt 0.193272 0.656250
vt 0.187500 0.656250
vt 0.312500 0.484375
vt 0.306728 0.484375
vt 0.187500 0.656250
vt 0.193272 0.656250
vt 0.320312 0.562114
vt 0.323199 0.562114
vt 0.323199 0.484375
vt 0.320312 0.484375
vt 0.379926 0.578511
vt 0.382812 0.578511
vt 0.382812 0.656250
vt 0.379926 0.656250
vt 0.054688 0.281250
vt 0.083658 0.281250
vt 0.079777 0.328125
vt 0.054688 0.328125
vt 0.007812 0.290202
vt 0.007812 0.313640
vt 0.054687 0.315580
vt 0.054688 0.295283
vt 0.007812 0.342610
vt 0.054687 0.340670
vt 0.007812 0.366048
vt 0.054687 0.360967
vt 0.025717 0.281250
vt 0.029598 0.328125
vt 0.054688 0.287530
vt 0.079777 0.295283
vt 0.069173 0.309164
vt 0.054688 0.304688
vt 0.095282 0.315580
vt 0.078125 0.320882
vt 0.089002 0.335368
vt 0.089002 0.320882
vt 0.095282 0.340670
vt 0.079777 0.360967
vt 0.069173 0.347086
vt 0.078125 0.335368
vt 0.054688 0.368720
vt 0.054688 0.351562
vt 0.054688 0.362440
vt 0.069173 0.362440
vt 0.040202 0.362440
vt 0.040202 0.347086
vt 0.029598 0.360967
vt 0.014093 0.340670
vt 0.031250 0.335368
vt 0.014093 0.315580
vt 0.029598 0.295283
vt 0.040202 0.309164
vt 0.031250 0.320882
vt 0.054688 0.328125
vt 0.187500 0.484375
vt 0.193272 0.484375
vt 0.312500 0.656250
vt 0.306728 0.656250
vt 0.193272 0.484375
vt 0.187500 0.484375
vt 0.306728 0.656250
vt 0.312500 0.656250
vt 0.379926 0.562114
vt 0.382812 0.562114
vt 0.382812 0.484375
vt 0.379926 0.484375
vt 0.320312 0.578511
vt 0.323199 0.578511
vt 0.323199 0.656250
vt 0.320312 0.656250
vn 0.000000 -1.000000 0.000000
vn 0.008294 -0.995461 0.094806
vn 0.024631 -0.995461 0.091925
vn 0.040220 -0.995461 0.086251
vn 0.054586 -0.995461 0.077957
vn 0.067294 -0.995461 0.067294
vn 0.077957 -0.995461 0.054586
vn 0.086251 -0.995461 0.040220
vn 0.091925 -0.995461 0.024631
vn 0.094806 -0.995461 0.008294
vn 0.094806 -0.995461 -0.008294
vn 0.091925 -0.995461 -0.024631
vn 0.086251 -0.995461 -0.040220
vn 0.077957 -0.995461 -0.054586
vn 0.067294 -0.995461 -0.067294
vn 0.054586 -0.995461 -0.077957
vn 0.040220 -0.995461 -0.086251
vn 0.024631 -0.995461 -0.091925
vn 0.008294 -0.995461 -0.094806
vn -0.008294 -0.995461 -0.094806
vn -0.024631 -0.995461 -0.091925
vn -0.040220 -0.995461 -0.086251
vn -0.054586 -0.995461 -0.077957
vn -0.067294 -0.995461 -0.067294
vn -0.077957 -0.995461 -0.054586
vn -0.086251 -0.995461 -0.040220
vn -0.091925 -0.995461 -0.024631
vn -0.094806 -0.995461 -0.008294
vn -0.094806 -0.995461 0.008294
vn -0.091925 -0.995461 0.024631
vn -0.086251 -0.995461 0.040220
vn -0.077957 -0.995461 0.054586
vn -0.067294 -0.995461 0.067294
vn -0.054586 -0.995461 0.077957
vn -0.040220 -0.995461 0.086251
vn -0.024631 -0.995461 0.091925
vn -0.008294 -0.995461 0.094806
vn 0.087156 0.000000 0.996195
vn 0.258819 0.000000 0.965926
vn 0.422618 0.000000 0.906308
vn 0.573576 0.000000 0.819152
vn 0.707107 0.000000 0.707107
vn 0.819152 0.000000 0.573576
vn 0.906308 0.000000 0.422618
vn 0.965926 0.000000 0.258819
vn 0.996195 0.000000 0.087156
vn 0.996195 0.000000 -0.087156
vn 0.965926 0.000000 -0.258819
vn 0.906308 0.000000 -0.422618
vn 0.819152 0.000000 -0.573576
vn 0.707107 0.000000 -0.707107
vn 0.573576 0.000000 -0.819152
vn 0.422618 0.000000 -0.906308
vn 0.258819 0.000000 -0.965926
vn 0.087156 0.000000 -0.996195
vn -0.087156 0.000000 -0.996195
vn -0.258819 0.000000 -0.965926
vn -0.422618 0.000000 -0.906308
vn -0.573576 0.000000 -0.819152
vn -0.707107 0.000000 -0.707107
vn -0.819152 0.000000 -0.573576
vn -0.906308 0.000000 -0.422618
vn -0.965926 0.000000 -0.258819
vn -0.996195 0.000000 -0.087156
vn -0.996195 0.000000 0.087156
vn -0.965926 0.000000 0.258819
vn -0.906308 0.000000 0.422618
vn -0.819152 0.000000 0.573576
vn -0.707107 0.000000 0.707107
vn -0.573576 0.000000 0.819152
vn -0.422618 0.000000 0.906308
vn -0.258819 0.000000 0.965926
vn -0.087156 0.000000 0.996195
vn 0.000000 1.000000 0.000000
vn 0.075027 0.508882 0.857561
vn 0.222801 0.508882 0.831504
vn 0.363805 0.508882 0.780183
vn 0.493755 0.508882 0.705156
vn 0.608703 0.508882 0.608703
vn 0.705156 0.508882 0.493755
vn 0.780183 0.508882 0.363805
vn 0.831504 0.508882 0.222801
vn 0.857561 0.508882 0.075027
vn 0.857561 0.508882 -0.075027
vn 0.831504 0.508882 -0.222801
vn 0.780183 0.508882 -0.363805
vn 0.705156 0.508882 -0.493755
vn 0.608703 0.508882 -0.608703
vn 0.493755 0.508882 -0.705156
vn 0.363805 0.508882 -0.780183
vn 0.222801 0.508882 -0.831504
vn 0.075027 0.508882 -0.857561
vn -0.075027 0.508882 -0.857561
vn -0.222801 0.508882 -0.831504
vn -0.363805 0.508882 -0.780183
vn -0.493755 0.508882 -0.705156
vn -0.608703 0.508882 -0.608703
vn -0.705156 0.508882 -0.493755
vn -0.780183 0.508882 -0.363805
vn -0.831504 0.508882 -0.222801
vn -0.857561 0.508882 -0.075027
vn -0.857561 0.508882 0.075027
vn -0.831504 0.508882 0.222801
vn -0.780183 0.508882 0.363805
vn -0.705156 0.508882 0.493755
vn -0.608703 0.508882 0.608703
vn -0.493755 0.508882 0.705156
vn -0.363805 0.508882 0.780183
vn -0.222801 0.508882 0.831504
vn -0.075027 0.508882 0.857561
vn 0.057205 0.754452 0.653858
vn 0.169877 0.754452 0.633991
vn 0.277388 0.754452 0.594860
vn 0.376470 0.754452 0.537655
vn 0.464114 0.754452 0.464114
vn 0.537655 0.754452 0.376470
vn 0.594860 0.754452 0.277388
vn 0.633991 0.754452 0.169877
vn 0.653858 0.754452 0.057205
vn 0.653858 0.754452 -0.057205
vn 0.633991 0.754452 -0.169877
vn 0.594860 0.754452 -0.277388
vn 0.537655 0.754452 -0.376470
vn 0.464114 0.754452 -0.464114
vn 0.376470 0.754452 -0.537655
vn 0.277388 0.754452 -0.594860
vn 0.169877 0.754452 -0.633991
vn 0.057205 0.754452 -0.653858
vn -0.057205 0.754452 -0.653858
vn -0.169877 0.754452 -0.633991
vn -0.277388 0.754452 -0.594860
vn -0.376470 0.754452 -0.537655
vn -0.464114 0.754452 -0.464114
vn -0.537655 0.754452 -0.376470
vn -0.594860 0.754452 -0.277388
vn -0.633991 0.754452 -0.169877
vn -0.653858 0.754452 -0.057205
vn -0.653858 0.754452 0.057205
vn -0.633991 0.754452 0.169877
vn -0.594860 0.754452 0.277388
vn -0.537655 0.754452 0.376470
vn -0.464114 0.754452 0.464114
vn -0.376470 0.754452 0.537655
vn -0.277388 0.754452 0.594860
vn -0.169877 0.754452 0.633991
vn -0.057205 0.754452 0.653858
vn 0.006720 0.997023 0.076808
vn 0.019955 0.997023 0.074474
vn 0.032584 0.997023 0.069877
vn 0.044223 0.997023 0.063158
vn 0.054519 0.997023 0.054519
vn 0.063158 0.997023 0.044223
vn 0.069877 0.997023 0.032584
vn 0.074474 0.997023 0.019955
vn 0.076808 0.997023 0.006720
vn 0.076808 0.997023 -0.006720
vn 0.074474 0.997023 -0.019955
vn 0.069877 0.997023 -0.032584
vn 0.063158 0.997023 -0.044223
vn 0.054519 0.997023 -0.054519
vn 0.044223 0.997023 -0.063158
vn 0.032584 0.997023 -0.069877
vn 0.019955 0.997023 -0.074474
vn 0.006720 0.997023 -0.076808
vn -0.006720 0.997023 -0.076808
vn -0.019955 0.997023 -0.074474
vn -0.032584 0.997023 -0.069877
vn -0.044223 0.997023 -0.063158
vn -0.054519 0.997023 -0.054519
vn -0.063158 0.997023 -0.044223
vn -0.069877 0.997023 -0.032584
vn -0.074474 0.997023 -0.019955
vn -0.076808 0.997023 -0.006720
vn -0.076808 0.997023 0.006720
vn -0.074474 0.997023 0.019955
vn -0.069877 0.997023 0.032584
vn -0.063158 0.997023 0.044223
vn -0.054519 0.997023 0.054519
vn -0.044223 0.997023 0.063158
vn -0.032584 0.997023 0.069877
vn -0.019955 0.997023 0.074474
vn -0.006720 0.997023 0.076808
vn 0.000000 0.000000 1.000000
vn 0.000000 0.000000 -1.000000
vn -0.000000 1.000000 0.000000
vn 0.000000 -1.000000 0.000000
vn -1.000000 0.000000 0.000000
vn 1.000000 0.000000 0.000000
vn 0.299447 -0.246943 -0.921602
vn 0.783962 -0.246943 -0.569582
vn 0.969030 -0.246943 -0.000000
vn 0.783962 -0.246943 0.569582
vn 0.299447 -0.246943 0.921602
vn -0.299447 -0.246943 0.921602
vn -0.783962 -0.246943 0.569582
vn -0.969030 -0.246943 0.000000
vn -0.783962 -0.246943 -0.569582
vn -0.299447 -0.246943 -0.921602
vn 0.223919 -0.689152 -0.689152
vn 0.586227 -0.689152 -0.425919
vn 0.724617 -0.689152 -0.000000
vn 0.586227 -0.689152 0.425919
vn 0.223919 -0.689152 0.689152
vn -0.223919 -0.689152 0.689152
vn -0.586227 -0.689152 0.425919
vn -0.724617 -0.689152 0.000000
vn -0.586227 -0.689152 -0.425919
vn -0.223919 -0.689152 -0.689152
vn 0.083800 -0.962528 -0.257909
vn 0.219390 -0.962528 -0.159396
vn 0.271181 -0.962528 -0.000000
vn 0.219390 -0.962528 0.159396
vn 0.083800 -0.962528 0.257909
vn -0.083800 -0.962528 0.257909
vn -0.219390 -0.962528 0.159396
vn -0.271181 -0.962528 0.000000
vn -0.219390 -0.962528 -0.159396
vn -0.083800 -0.962528 -0.257909
vn 0.000000 -1.000000 0.000000
vn 0.382683 0.000000 0.923880
vn 0.923880 0.000000 0.382683
vn 0.923880 0.000000 -0.382683
vn 0.382683 0.000000 -0.923880
vn -0.382683 0.000000 -0.923880
vn -0.923880 0.000000 -0.382683
vn -0.923880 0.000000 0.382683
vn -0.382683 0.000000 0.923880
vn 0.000000 1.000000 0.000000
vn 0.000000 -0.389418 0.921061
vn 0.000000 0.389418 -0.921061
vn -0.000000 0.921061 0.389418
vn 0.000000 -0.921061 -0.389418
vn -1.000000 0.000000 0.000000
vn 1.000000 0.000000 0.000000
vn 0.000000 0.000000 1.000000
vn 0.000000 0.000000 -1.000000
vn -0.000000 1.000000 0.000000
vn 0.000000 -1.000000 0.000000
vn -1.000000 0.000000 0.000000
vn 1.000000 0.000000 0.000000
vn 0.000000 0.000000 1.000000
vn 0.000000 0.000000 -1.000000
vn -0.000000 1.000000 0.000000
vn 0.000000 -1.000000 0.000000
vn -1.000000 0.000000 0.000000
vn 1.000000 0.000000 0.000000
vn 0.000000 0.000000 1.000000
vn 0.000000 0.000000 -1.000000
vn -0.000000 1.000000 0.000000
vn 0.000000 -1.000000 0.000000
vn -1.000000 0.000000 0.000000
vn 1.000000 0.000000 0.000000
vn 0.000000 0.000000 1.000000
vn 0.000000 0.000000 -1.000000
vn -0.000000 1.000000 0.000000
vn 0.000000 -1.000000 0.000000
vn -1.000000 0.000000 0.000000
vn 1.000000 0.000000 0.000000
vn 0.000000 0.000000 1.000000
vn 0.000000 0.000000 -1.000000
vn -0.000000 1.000000 0.000000
vn 0.000000 -1.000000 0.000000
vn -1.000000 0.000000 0.000000
vn 1.000000 0.000000 0.000000
vn 0.000000 0.000000 -1.000000
vn 0.382683 -0.923880 0.000000
vn 0.923880 -0.382683 0.000000
vn 0.923880 0.382683 0.000000
vn 0.382683 0.923880 0.000000
vn -0.382683 0.923880 0.000000
vn -0.923880 0.382683 0.000000
vn -0.923880 -0.382683 0.000000
vn -0.382683 -0.923880 0.000000
vn 0.000000 0.000000 1.000000
vn 0.000000 -1.000000 0.000000
vn -0.007301 0.000000 0.999973
vn 0.701925 0.000000 0.712250
vn 0.999973 0.000000 0.007301
vn 0.712250 0.000000 -0.701925
vn 0.007301 0.000000 -0.999973
vn -0.701925 0.000000 -0.712250
vn -0.999973 0.000000 -0.007301
vn -0.712250 0.000000 0.701925
vn -0.000000 1.000000 0.000000
vn -0.389418 0.000000 0.921061
vn 0.389418 0.000000 -0.921061
vn -0.921061 0.000000 -0.389418
vn 0.921061 0.000000 0.389418
vn 0.000000 -1.000000 0.000000
vn 0.712250 0.000000 0.701925
vn 0.999973 0.000000 -0.007301
vn 0.701925 0.000000 -0.712250
vn -0.007301 0.000000 -0.999973
vn -0.712250 0.000000 -0.701925
vn -0.999973 0.000000 0.007301
vn -0.701925 0.000000 0.712250
vn 0.007301 0.000000 0.999973
vn 0.000000 1.000000 0.000000
vn 0.389418 0.000000 0.921061
vn -0.389418 0.000000 -0.921061
vn -0.921061 0.000000 0.389418
vn 0.921061 0.000000 -0.389418
vn 0.000000 0.000000 1.000000
vn 0.000000 0.000000 -1.000000
vn 0.000000 0.999962 -0.008666
vn 0.000000 -0.999962 -0.008666
vn -0.999941 0.000000 -0.010833
vn 0.999941 0.000000 -0.010833
vn -0.000000 1.000000 0.000000
vn 0.000000 -1.000000 0.000000
vn -1.000000 0.000000 0.000000
vn 1.000000 0.000000 0.000000
vn 0.000000 0.000000 1.000000
vn 0.000000 0.000000 -1.000000
vn 0.000000 0.999962 -0.008666
vn 0.000000 -0.999962 -0.008666
vn -0.999941 0.000000 -0.010833
vn 0.999941 0.000000 -0.010833
vn -0.000000 1.000000 0.000000
vn 0.000000 -1.000000 0.000000
vn -1.000000 0.000000 0.000000
vn 1.000000 0.000000 0.000000
vn 0.299447 -0.921602 0.246943
vn 0.783962 -0.569582 0.246943
vn 0.969030 -0.000000 0.246943
vn 0.783962 0.569582 0.246943
vn 0.299447 0.921602 0.246943
vn -0.299447 0.921602 0.246943
vn -0.783962 0.569582 0.246943
vn -0.969030 0.000000 0.246943
vn -0.783962 -0.569582 0.246943
vn -0.299447 -0.921602 0.246943
vn 0.223919 -0.689152 0.689152
vn 0.586227 -0.425919 0.689152
vn 0.724617 -0.000000 0.689152
vn 0.586227 0.425919 0.689152
vn 0.223919 0.689152 0.689152
vn -0.223919 0.689152 0.689152
vn -0.586227 0.425919 0.689152
vn -0.724617 0.000000 0.689152
vn -0.586227 -0.425919 0.689152
vn -0.223919 -0.689152 0.689152
vn 0.083800 -0.257909 0.962528
vn 0.219390 -0.159396 0.962528
vn 0.271181 -0.000000 0.962528
vn 0.219390 0.159396 0.962528
vn 0.083800 0.257909 0.962528
vn -0.083800 0.257909 0.962528
vn -0.219390 0.159396 0.962528
vn -0.271181 0.000000 0.962528
vn -0.219390 -0.159396 0.962528
vn -0.083800 -0.257909 0.962528
vn -0.000000 0.377684 0.925935
vn -0.000000 -0.377684 -0.925935
vn -0.000000 1.000000 0.000000
vn 0.000000 -1.000000 0.000000
vn -0.417838 -0.908522 0.000000
vn 0.417838 0.908522 0.000000
vn 0.299447 -0.921602 0.246943
vn 0.783962 -0.569582 0.246943
vn 0.969030 -0.000000 0.246943
vn 0.783962 0.569582 0.246943
vn 0.299447 0.921602 0.246943
vn -0.299447 0.921602 0.246943
vn -0.783962 0.569582 0.246943
vn -0.969030 0.000000 0.246943
vn -0.783962 -0.569582 0.246943
vn -0.299447 -0.921602 0.246943
vn 0.223919 -0.689152 0.689152
vn 0.586227 -0.425919 0.689152
vn 0.724617 -0.000000 0.689152
vn 0.586227 0.425919 0.689152
vn 0.223919 0.689152 0.689152
vn -0.223919 0.689152 0.689152
vn -0.586227 0.425919 0.689152
vn -0.724617 0.000000 0.689152
vn -0.586227 -0.425919 0.689152
vn -0.223919 -0.689152 0.689152
vn 0.083800 -0.257909 0.962528
vn 0.219390 -0.159396 0.962528
vn 0.271181 -0.000000 0.962528
vn 0.219390 0.159396 0.962528
vn 0.083800 0.257909 0.962528
vn -0.083800 0.257909 0.962528
vn -0.219390 0.159396 0.962528
vn -0.271181 0.000000 0.962528
vn -0.219390 -0.159396 0.962528
vn -0.083800 -0.257909 0.962528
vn -0.000000 0.377684 0.925935
vn -0.000000 -0.377684 -0.925935
vn -0.000000 1.000000 0.000000
vn 0.000000 -1.000000 0.000000
vn -0.417838 0.908522 0.000000
vn 0.417838 -0.908522 0.000000
f 1/1/1 2/2/1 3/3/1
f 1/1/1 4/4/1 2/2/1
f 1/1/1 5/5/1 4/4/1
f 1/1/1 6/6/1 5/5/1
f 1/1/1 7/7/1 6/6/1
f 1/1/1 8/8/1 7/7/1
f 1/1/1 9/9/1 8/8/1
f 1/1/1 10/10/1 9/9/1
f 1/1/1 11/11/1 10/10/1
f 1/1/1 12/12/1 11/11/1
f 1/1/1 13/13/1 12/12/1
f 1/1/1 14/14/1 13/13/1
f 1/1/1 15/15/1 14/14/1
f 1/1/1 16/16/1 15/15/1
f 1/1/1 17/17/1 16/16/1
f 1/1/1 18/18/1 17/17/1
f 1/1/1 19/19/1 18/18/1
f 1/1/1 20/20/1 19/19/1
f 1/1/1 21/21/1 20/20/1
f 1/1/1 22/22/1 21/21/1
f 1/1/1 23/23/1 22/22/1
f 1/1/1 24/24/1 23/23/1
f 1/1/1 25/25/1 24/24/1
f 1/1/1 26/26/1 25/25/1
f 1/1/1 27/27/1 26/26/1
f 1/1/1 28/28/1 27/27/1
f 1/1/1 29/29/1 28/28/1
f 1/1/1 30/30/1 29/29/1
f 1/1/1 31/31/1 30/30/1
f 1/1/1 32/32/1 31/31/1
f 1/1/1 33/33/1 32/32/1
f 1/1/1 34/34/1 33/33/1
f 1/1/1 35/35/1 34/34/1
f 1/1/1 36/36/1 35/35/1
f 1/1/1 37/37/1 36/36/1
f 1/1/1 3/3/1 37/37/1
f 3/3/2 2/2/2 38/38/2
f 3/3/2 38/38/2 39/39/2
f 2/2/3 4/4/3 40/40/3
f 2/2/3 40/40/3 38/38/3
f 4/4/4 5/5/4 41/41/4
f 4/4/4 41/41/4 40/40/4
f 5/5/5 6/6/5 42/42/5
f 5/5/5 42/42/5 41/41/5
f 6/6/6 7/7/6 43/43/6
f 6/6/6 43/43/6 42/42/6
f 7/7/7 8/8/7 44/44/7
f 7/7/7 44/44/7 43/43/7
f 8/8/8 9/9/8 45/45/8
f 8/8/8 45/45/8 44/44/8
f 9/9/9 10/10/9 46/46/9
f 9/9/9 46/46/9 45/45/9
f 10/10/10 11/11/10 47/47/10
f 10/10/10 47/47/10 46/46/10
f 11/11/11 12/12/11 48/48/11
f 11/11/11 48/48/11 47/47/11
f 12/12/12 13/13/12 49/49/12
f 12/12/12 49/49/12 48/48/12
f 13/13/13 14/14/13 50/50/13
f 13/13/13 50/50/13 49/49/13
f 14/14/14 15/15/14 51/51/14
f 14/14/14 51/51/14 50/50/14
f 15/15/15 16/16/15 52/52/15
f 15/15/15 52/52/15 51/51/15
f 16/16/16 17/17/16 53/53/16
f 16/16/16 53/53/16 52/52/16
f 17/17/17 18/18/17 54/54/17
f 17/17/17 54/54/17 53/53/17
f 18/18/18 19/19/18 55/55/18
f 18/18/18 55/55/18 54/54/18
f 19/19/19 20/20/19 56/56/19
f 19/19/19 56/56/19 55/55/19
f 20/20/20 21/21/20 57/57/20
f 20/20/20 57/57/20 56/56/20
f 21/21/21 22/22/21 58/58/21
f 21/21/21 58/58/21 57/57/21
f 22/22/22 23/23/22 59/59/22
f 22/22/22 59/59/22 58/58/22
f 23/23/23 24/24/23 60/60/23
f 23/23/23 60/60/23 59/59/23
f 24/24/24 25/25/24 61/61/24
f 24/24/24 61/61/24 60/60/24
f 25/25/25 26/26/25 62/62/25
f 25/25/25 62/62/25 61/61/25
f 26/26/26 27/27/26 63/63/26
f 26/26/26 63/63/26 62/62/26
f 27/27/27 28/28/27 64/64/27
f 27/27/27 64/64/27 63/63/27
f 28/28/28 29/29/28 65/65/28
f 28/28/28 65/65/28 64/64/28
f 29/29/29 30/30/29 66/66/29
f 29/29/29 66/66/29 65/65/29
f 30/30/30 31/31/30 67/67/30
f 30/30/30 67/67/30 66/66/30
f 31/31/31 32/32/31 68/68/31
f 31/31/31 68/68/31 67/67/31
f 32/32/32 33/33/32 69/69/32
f 32/32/32 69/69/32 68/68/32
f 33/33/33 34/34/33 70/70/33
f 33/33/33 70/70/33 69/69/33
f 34/34/34 35/35/34 71/71/34
f 34/34/34 71/71/34 70/70/34
f 35/35/35 36/36/35 72/72/35
f 35/35/35 72/72/35 71/71/35
f 36/36/36 37/37/36 73/73/36
f 36/36/36 73/73/36 72/72/36
f 37/37/37 3/3/37 39/39/37
f 37/37/37 39/39/37 73/73/37
f 39/39/1 38/38/1 74/74/1
f 39/39/1 74/74/1 75/75/1
f 38/38/1 40/40/1 76/76/1
f 38/38/1 76/76/1 74/74/1
f 40/40/1 41/41/1 77/77/1
f 40/40/1 77/77/1 76/76/1
f 41/41/1 42/42/1 78/78/1
f 41/41/1 78/78/1 77/77/1
f 42/42/1 43/43/1 79/79/1
f 42/42/1 79/79/1 78/78/1
f 43/43/1 44/44/1 80/80/1
f 43/43/1 80/80/1 79/79/1
f 44/44/1 45/45/1 81/81/1
f 44/44/1 81/81/1 80/80/1
f 45/45/1 46/46/1 82/82/1
f 45/45/1 82/82/1 81/81/1
f 46/46/1 47/47/1 83/83/1
f 46/46/1 83/83/1 82/82/1
f 47/47/1 48/48/1 84/84/1
f 47/47/1 84/84/1 83/83/1
f 48/48/1 49/49/1 85/85/1
f 48/48/1 85/85/1 84/84/1
f 49/49/1 50/50/1 86/86/1
f 49/49/1 86/86/1 85/85/1
f 50/50/1 51/51/1 87/87/1
f 50/50/1 87/87/1 86/86/1
f 51/51/1 52/52/1 88/88/1
f 51/51/1 88/88/1 87/87/1
f 52/52/1 53/53/1 89/89/1
f 52/52/1 89/89/1 88/88/1
f 53/53/1 54/54/1 90/90/1
f 53/53/1 90/90/1 89/89/1
f 54/54/1 55/55/1 91/91/1
f 54/54/1 91/91/1 90/90/1
f 55/55/1 56/56/1 92/92/1
f 55/55/1 92/92/1 91/91/1
f 56/56/1 57/57/1 93/93/1
f 56/56/1 93/93/1 92/92/1
f 57/57/1 58/58/1 94/94/1
f 57/57/1 94/94/1 93/93/1
f 58/58/1 59/59/1 95/95/1
f 58/58/1 95/95/1 94/94/1
f 59/59/1 60/60/1 96/96/1
f 59/59/1 96/96/1 95/95/1
f 60/60/1 61/61/1 97/97/1
f 60/60/1 97/97/1 96/96/1
f 61/61/1 62/62/1 98/98/1
f 61/61/1 98/98/1 97/97/1
f 62/62/1 63/63/1 99/99/1
f 62/62/1 99/99/1 98/98/1
f 63/63/1 64/64/1 100/100/1
f 63/63/1 100/100/1 99/99/1
f 64/64/1 65/65/1 101/101/1
f 64/64/1 101/101/1 100/100/1
f 65/65/1 66/66/1 102/102/1
f 65/65/1 102/102/1 101/101/1
f 66/66/1 67/67/1 103/103/1
f 66/66/1 103/103/1 102/102/1
f 67/67/1 68/68/1 104/104/1
f 67/67/1 104/104/1 103/103/1
f 68/68/1 69/69/1 105/105/1
f 68/68/1 105/105/1 104/104/1
f 69/69/1 70/70/1 106/106/1
f 69/69/1 106/106/1 105/105/1
f 70/70/1 71/71/1 107/107/1
f 70/70/1 107/107/1 106/106/1
f 71/71/1 72/72/1 108/108/1
f 71/71/1 108/108/1 107/107/1
f 72/72/1 73/73/1 109/109/1
f 72/72/1 109/109/1 108/108/1
f 73/73/1 39/39/1 75/75/1
f 73/73/1 75/75/1 109/109/1
f 75/110/38 74/111/38 110/112/38
f 75/110/38 110/112/38 111/113/38
f 74/111/39 76/114/39 112/115/39
f 74/111/39 112/115/39 110/112/39
f 76/114/40 77/116/40 113/117/40
f 76/114/40 113/117/40 112/115/40
f 77/116/41 78/118/41 114/119/41
f 77/116/41 114/119/41 113/117/41
f 78/118/42 79/120/42 115/121/42
f 78/118/42 115/121/42 114/119/42
f 79/122/43 80/123/43 116/124/43
f 79/122/43 116/124/43 115/125/43
f 80/123/44 81/126/44 117/127/44
f 80/123/44 117/127/44 116/124/44
f 81/126/45 82/128/45 118/129/45
f 81/126/45 118/129/45 117/127/45
f 82/128/46 83/130/46 119/131/46
f 82/128/46 119/131/46 118/129/46
f 83/130/47 84/132/47 120/133/47
f 83/130/47 120/133/47 119/131/47
f 84/132/48 85/134/48 121/135/48
f 84/132/48 121/135/48 120/133/48
f 85/134/49 86/136/49 122/137/49
f 85/134/49 122/137/49 121/135/49
f 86/136/50 87/138/50 123/139/50
f 86/136/50 123/139/50 122/137/50
f 87/140/51 88/141/51 124/142/51
f 87/140/51 124/142/51 123/143/51
f 88/141/52 89/144/52 125/145/52
f 88/141/52 125/145/52 124/142/52
f 89/144/53 90/146/53 126/147/53
f 89/144/53 126/147/53 125/145/53
f 90/146/54 91/148/54 127/149/54
f 90/146/54 127/149/54 126/147/54
f 91/148/55 92/150/55 128/151/55
f 91/148/55 128/151/55 127/149/55
f 92/150/56 93/152/56 129/153/56
f 92/150/56 129/153/56 128/151/56
f 93/152/57 94/154/57 130/155/57
f 93/152/57 130/155/57 129/153/57
f 94/154/58 95/156/58 131/157/58
f 94/154/58 131/157/58 130/155/58
f 95/156/59 96/158/59 132/159/59
f 95/156/59 132/159/59 131/157/59
f 96/158/60 97/160/60 133/161/60
f 96/158/60 133/161/60 132/159/60
f 97/138/61 98/136/61 134/137/61
f 97/138/61 134/137/61 133/139/61
f 98/136/62 99/134/62 135/135/62
f 98/136/62 135/135/62 134/137/62
f 99/134/63 100/132/63 136/133/63
f 99/134/63 136/133/63 135/135/63
f 100/132/64 101/130/64 137/131/64
f 100/132/64 137/131/64 136/133/64
f 101/130/65 102/128/65 138/129/65
f 101/130/65 138/129/65 137/131/65
f 102/128/66 103/126/66 139/127/66
f 102/128/66 139/127/66 138/129/66
f 103/126/67 104/123/67 140/124/67
f 103/126/67 140/124/67 139/127/67
f 104/123/68 105/122/68 141/125/68
f 104/123/68 141/125/68 140/124/68
f 105/122/69 106/162/69 142/163/69
f 105/122/69 142/163/69 141/125/69
f 106/164/70 107/165/70 143/166/70
f 106/164/70 143/166/70 142/167/70
f 107/165/71 108/168/71 144/169/71
f 107/165/71 144/169/71 143/166/71
f 108/168/72 109/170/72 145/171/72
f 108/168/72 145/171/72 144/169/72
f 109/170/73 75/110/73 111/113/73
f 109/170/73 111/113/73 145/171/73
f 111/75/74 110/74/74 146/38/74
f 111/75/74 146/38/74 147/39/74
f 110/74/74 112/76/74 148/40/74
f 110/74/74 148/40/74 146/38/74
f 112/76/74 113/77/74 149/41/74
f 112/76/74 149/41/74 148/40/74
f 113/77/74 114/78/74 150/42/74
f 113/77/74 150/42/74 149/41/74
f 114/78/74 115/79/74 151/43/74
f 114/78/74 151/43/74 150/42/74
f 115/79/74 116/80/74 152/44/74
f 115/79/74 152/44/74 151/43/74
f 116/80/74 117/81/74 153/45/74
f 116/80/74 153/45/74 152/44/74
f 117/81/74 118/82/74 154/46/74
f 117/81/74 154/46/74 153/45/74
f 118/82/74 119/83/74 155/47/74
f 118/82/74 155/47/74 154/46/74
f 119/83/74 120/84/74 156/48/74
f 119/83/74 156/48/74 155/47/74
f 120/84/74 121/85/74 157/49/74
f 120/84/74 157/49/74 156/48/74
f 121/85/74 122/86/74 158/50/74
f 121/85/74 158/50/74 157/49/74
f 122/86/74 123/87/74 159/51/74
f 122/86/74 159/51/74 158/50/74
f 123/87/74 124/88/74 160/52/74
f 123/87/74 160/52/74 159/51/74
f 124/88/74 125/89/74 161/53/74
f 124/88/74 161/53/74 160/52/74
f 125/89/74 126/90/74 162/54/74
f 125/89/74 162/54/74 161/53/74
f 126/90/74 127/91/74 163/55/74
f 126/90/74 163/55/74 162/54/74
f 127/91/74 128/92/74 164/56/74
f 127/91/74 164/56/74 163/55/74
f 128/92/74 129/93/74 165/57/74
f 128/92/74 165/57/74 164/56/74
f 129/93/74 130/94/74 166/58/74
f 129/93/74 166/58/74 165/57/74
f 130/94/74 131/95/74 167/59/74
f 130/94/74 167/59/74 166/58/74
f 131/95/74 132/96/74 168/60/74
f 131/95/74 168/60/74 167/59/74
f 132/96/74 133/97/74 169/61/74
f 132/96/74 169/61/74 168/60/74
f 133/97/74 134/98/74 170/62/74
f 133/97/74 170/62/74 169/61/74
f 134/98/74 135/99/74 171/63/74
f 134/98/74 171/63/74 170/62/74
f 135/99/74 136/100/74 172/64/74
f 135/99/74 172/64/74 171/63/74
f 136/100/74 137/101/74 173/65/74
f 136/100/74 173/65/74 172/64/74
f 137/101/74 138/102/74 174/66/74
f 137/101/74 174/66/74 173/65/74
f 138/102/74 139/103/74 175/67/74
f 138/102/74 175/67/74 174/66/74
f 139/103/74 140/104/74 176/68/74
f 139/103/74 176/68/74 175/67/74
f 140/104/74 141/105/74 177/69/74
f 140/104/74 177/69/74 176/68/74
f 141/105/74 142/106/74 178/70/74
f 141/105/74 178/70/74 177/69/74
f 142/106/74 143/107/74 179/71/74
f 142/106/74 179/71/74 178/70/74
f 143/107/74 144/108/74 180/72/74
f 143/107/74 180/72/74 179/71/74
f 144/108/74 145/109/74 181/73/74
f 144/108/74 181/73/74 180/72/74
f 145/109/74 111/75/74 147/39/74
f 145/109/74 147/39/74 181/73/74
f 147/113/75 146/172/75 182/173/75
f 147/113/75 182/173/75 183/174/75
f 146/172/76 148/175/76 184/176/76
f 146/172/76 184/176/76 182/173/76
f 148/175/77 149/177/77 185/178/77
f 148/175/77 185/178/77 184/176/77
f 149/177/78 150/179/78 186/180/78
f 149/177/78 186/180/78 185/178/78
f 150/181/79 151/182/79 187/183/79
f 150/179/79 187/184/79 186/180/79
f 151/182/80 152/185/80 188/186/80
f 151/182/80 188/186/80 187/183/80
f 152/185/81 153/187/81 189/188/81
f 152/185/81 189/188/81 188/186/81
f 153/187/82 154/189/82 190/190/82
f 153/187/82 190/190/82 189/188/82
f 154/189/83 155/131/83 191/191/83
f 154/189/83 191/191/83 190/190/83
f 155/131/84 156/192/84 192/193/84
f 155/131/84 192/193/84 191/191/84
f 156/192/85 157/194/85 193/195/85
f 156/192/85 193/195/85 192/193/85
f 157/194/86 158/196/86 194/197/86
f 157/194/86 194/197/86 193/195/86
f 158/196/87 159/198/87 195/199/87
f 158/196/87 195/199/87 194/197/87
f 159/198/88 160/200/88 196/201/88
f 159/198/88 196/201/88 195/199/88
f 160/202/89 161/203/89 197/204/89
f 160/202/89 197/204/89 196/205/89
f 161/203/90 162/206/90 198/207/90
f 161/203/90 198/207/90 197/204/90
f 162/206/91 163/208/91 199/209/91
f 162/206/91 199/209/91 198/207/91
f 163/208/92 164/151/92 200/210/92
f 163/208/92 200/210/92 199/209/92
f 164/151/93 165/211/93 201/212/93
f 164/151/93 201/212/93 200/210/93
f 165/211/94 166/213/94 202/214/94
f 165/211/94 202/214/94 201/212/94
f 166/213/95 167/215/95 203/216/95
f 166/213/95 203/216/95 202/214/95
f 167/215/96 168/217/96 204/218/96
f 167/215/96 204/218/96 203/216/96
f 168/217/97 169/219/97 205/220/97
f 168/217/97 205/220/97 204/218/97
f 169/198/98 170/196/98 206/197/98
f 169/198/98 206/197/98 205/199/98
f 170/196/99 171/194/99 207/195/99
f 170/196/99 207/195/99 206/197/99
f 171/194/100 172/192/100 208/193/100
f 171/194/100 208/193/100 207/195/100
f 172/192/101 173/131/101 209/191/101
f 172/192/101 209/191/101 208/193/101
f 173/131/102 174/189/102 210/190/102
f 173/131/102 210/190/102 209/191/102
f 174/189/103 175/187/103 211/188/103
f 174/189/103 211/188/103 210/190/103
f 175/187/104 176/185/104 212/186/104
f 175/187/104 212/186/104 211/188/104
f 176/185/105 177/182/105 213/183/105
f 176/185/105 213/183/105 212/186/105
f 177/182/106 178/181/106 214/221/106
f 177/222/106 214/223/106 213/224/106
f 178/225/107 179/226/107 215/227/107
f 178/225/107 215/227/107 214/223/107
f 179/226/108 180/228/108 216/229/108
f 179/226/108 216/229/108 215/227/108
f 180/228/109 181/230/109 217/231/109
f 180/228/109 217/231/109 216/229/109
f 181/230/110 147/113/110 183/174/110
f 181/230/110 183/174/110 217/231/110
f 183/232/74 182/233/74 218/2/74
f 183/232/74 218/2/74 219/3/74
f 182/233/74 184/234/74 220/4/74
f 182/233/74 220/4/74 218/2/74
f 184/234/74 185/235/74 221/5/74
f 184/234/74 221/5/74 220/4/74
f 185/235/74 186/236/74 222/6/74
f 185/235/74 222/6/74 221/5/74
f 186/236/74 187/237/74 223/7/74
f 186/236/74 223/7/74 222/6/74
f 187/237/74 188/238/74 224/8/74
f 187/237/74 224/8/74 223/7/74
f 188/238/74 189/239/74 225/9/74
f 188/238/74 225/9/74 224/8/74
f 189/239/74 190/240/74 226/10/74
f 189/239/74 226/10/74 225/9/74
f 190/240/74 191/241/74 227/11/74
f 190/240/74 227/11/74 226/10/74
f 191/241/74 192/242/74 228/12/74
f 191/241/74 228/12/74 227/11/74
f 192/242/74 193/243/74 229/13/74
f 192/242/74 229/13/74 228/12/74
f 193/243/74 194/244/74 230/14/74
f 193/243/74 230/14/74 229/13/74
f 194/244/74 195/245/74 231/15/74
f 194/244/74 231/15/74 230/14/74
f 195/245/74 196/246/74 232/16/74
f 195/245/74 232/16/74 231/15/74
f 196/246/74 197/247/74 233/17/74
f 196/246/74 233/17/74 232/16/74
f 197/247/74 198/248/74 234/18/74
f 197/247/74 234/18/74 233/17/74
f 198/248/74 199/249/74 235/19/74
f 198/248/74 235/19/74 234/18/74
f 199/249/74 200/250/74 236/20/74
f 199/249/74 236/20/74 235/19/74
f 200/250/74 201/251/74 237/21/74
f 200/250/74 237/21/74 236/20/74
f 201/251/74 202/252/74 238/22/74
f 201/251/74 238/22/74 237/21/74
f 202/252/74 203/253/74 239/23/74
f 202/252/74 239/23/74 238/22/74
f 203/253/74 204/254/74 240/24/74
f 203/253/74 240/24/74 239/23/74
f 204/254/74 205/255/74 241/25/74
f 204/254/74 241/25/74 240/24/74
f 205/255/74 206/256/74 242/26/74
f 205/255/74 242/26/74 241/25/74
f 206/256/74 207/257/74 243/27/74
f 206/256/74 243/27/74 242/26/74
f 207/257/74 208/258/74 244/28/74
f 207/257/74 244/28/74 243/27/74
f 208/258/74 209/259/74 245/29/74
f 208/258/74 245/29/74 244/28/74
f 209/259/74 210/260/74 246/30/74
f 209/259/74 246/30/74 245/29/74
f 210/260/74 211/261/74 247/31/74
f 210/260/74 247/31/74 246/30/74
f 211/261/74 212/262/74 248/32/74
f 211/261/74 248/32/74 247/31/74
f 212/262/74 213/263/74 249/33/74
f 212/262/74 249/33/74 248/32/74
f 213/263/74 214/264/74 250/34/74
f 213/263/74 250/34/74 249/33/74
f 214/264/74 215/265/74 251/35/74
f 214/264/74 251/35/74 250/34/74
f 215/265/74 216/266/74 252/36/74
f 215/265/74 252/36/74 251/35/74
f 216/266/74 217/267/74 253/37/74
f 216/266/74 253/37/74 252/36/74
f 217/267/74 183/232/74 219/3/74
f 217/267/74 219/3/74 253/37/74
f 219/3/111 218/2/111 254/268/111
f 219/3/111 254/268/111 255/269/111
f 218/2/112 220/4/112 256/270/112
f 218/2/112 256/270/112 254/268/112
f 220/4/113 221/5/113 257/271/113
f 220/4/113 257/271/113 256/270/113
f 221/5/114 222/6/114 258/272/114
f 221/5/114 258/272/114 257/271/114
f 222/6/115 223/7/115 259/273/115
f 222/6/115 259/273/115 258/272/115
f 223/7/116 224/8/116 260/274/116
f 223/7/116 260/274/116 259/273/116
f 224/8/117 225/9/117 261/275/117
f 224/8/117 261/275/117 260/274/117
f 225/9/118 226/10/118 262/276/118
f 225/9/118 262/276/118 261/275/118
f 226/10/119 227/11/119 263/277/119
f 226/10/119 263/277/119 262/276/119
f 227/11/120 228/12/120 264/278/120
f 227/11/120 264/278/120 263/277/120
f 228/12/121 229/13/121 265/279/121
f 228/12/121 265/279/121 264/278/121
f 229/13/122 230/14/122 266/280/122
f 229/13/122 266/280/122 265/279/122
f 230/14/123 231/15/123 267/281/123
f 230/14/123 267/281/123 266/280/123
f 231/15/124 232/16/124 268/282/124
f 231/15/124 268/282/124 267/281/124
f 232/16/125 233/17/125 269/283/125
f 232/16/125 269/283/125 268/282/125
f 233/17/126 234/18/126 270/284/126
f 233/17/126 270/284/126 269/283/126
f 234/18/127 235/19/127 271/285/127
f 234/18/127 271/285/127 270/284/127
f 235/19/128 236/20/128 272/286/128
f 235/19/128 272/286/128 271/285/128
f 236/20/129 237/21/129 273/287/129
f 236/20/129 273/287/129 272/286/129
f 237/21/130 238/22/130 274/288/130
f 237/21/130 274/288/130 273/287/130
f 238/22/131 239/23/131 275/289/131
f 238/22/131 275/289/131 274/288/131
f 239/23/132 240/24/132 276/290/132
f 239/23/132 276/290/132 275/289/132
f 240/24/133 241/25/133 277/291/133
f 240/24/133 277/291/133 276/290/133
f 241/25/134 242/26/134 278/292/134
f 241/25/134 278/292/134 277/291/134
f 242/26/135 243/27/135 279/293/135
f 242/26/135 279/293/135 278/292/135
f 243/27/136 244/28/136 280/294/136
f 243/27/136 280/294/136 279/293/136
f 244/28/137 245/29/137 281/295/137
f 244/28/137 281/295/137 280/294/137
f 245/29/138 246/30/138 282/296/138
f 245/29/138 282/296/138 281/295/138
f 246/30/139 247/31/139 283/297/139
f 246/30/139 283/297/139 282/296/139
f 247/31/140 248/32/140 284/298/140
f 247/31/140 284/298/140 283/297/140
f 248/32/141 249/33/141 285/299/141
f 248/32/141 285/299/141 284/298/141
f 249/33/142 250/34/142 286/300/142
f 249/33/142 286/300/142 285/299/142
f 250/34/143 251/35/143 287/301/143
f 250/34/143 287/301/143 286/300/143
f 251/35/144 252/36/144 288/302/144
f 251/35/144 288/302/144 287/301/144
f 252/36/145 253/37/145 289/303/145
f 252/36/145 289/303/145 288/302/145
f 253/37/146 219/3/146 255/269/146
f 253/37/146 255/269/146 289/303/146
f 255/269/147 254/268/147 290/304/147
f 255/269/147 290/304/147 291/305/147
f 254/268/148 256/270/148 292/306/148
f 254/268/148 292/306/148 290/304/148
f 256/270/149 257/271/149 293/307/149
f 256/270/149 293/307/149 292/306/149
f 257/271/150 258/272/150 294/308/150
f 257/271/150 294/308/150 293/307/150
f 258/272/151 259/273/151 295/309/151
f 258/272/151 295/309/151 294/308/151
f 259/273/152 260/274/152 296/310/152
f 259/273/152 296/310/152 295/309/152
f 260/274/153 261/275/153 297/311/153
f 260/274/153 297/311/153 296/310/153
f 261/275/154 262/276/154 298/312/154
f 261/275/154 298/312/154 297/311/154
f 262/276/155 263/277/155 299/313/155
f 262/276/155 299/313/155 298/312/155
f 263/277/156 264/278/156 300/314/156
f 263/277/156 300/314/156 299/313/156
f 264/278/157 265/279/157 301/315/157
f 264/278/157 301/315/157 300/314/157
f 265/279/158 266/280/158 302/316/158
f 265/279/158 302/316/158 301/315/158
f 266/280/159 267/281/159 303/317/159
f 266/280/159 303/317/159 302/316/159
f 267/281/160 268/282/160 304/318/160
f 267/281/160 304/318/160 303/317/160
f 268/282/161 269/283/161 305/319/161
f 268/282/161 305/319/161 304/318/161
f 269/283/162 270/284/162 306/320/162
f 269/283/162 306/320/162 305/319/162
f 270/284/163 271/285/163 307/321/163
f 270/284/163 307/321/163 306/320/163
f 271/285/164 272/286/164 308/322/164
f 271/285/164 308/322/164 307/321/164
f 272/286/165 273/287/165 309/323/165
f 272/286/165 309/323/165 308/322/165
f 273/287/166 274/288/166 310/324/166
f 273/287/166 310/324/166 309/323/166
f 274/288/167 275/289/167 311/325/167
f 274/288/167 311/325/167 310/324/167
f 275/289/168 276/290/168 312/326/168
f 275/289/168 312/326/168 311/325/168
f 276/290/169 277/291/169 313/327/169
f 276/290/169 313/327/169 312/326/169
f 277/291/170 278/292/170 314/328/170
f 277/291/170 314/328/170 313/327/170
f 278/292/171 279/293/171 315/329/171
f 278/292/171 315/329/171 314/328/171
f 279/293/172 280/294/172 316/330/172
f 279/293/172 316/330/172 315/329/172
f 280/294/173 281/295/173 317/331/173
f 280/294/173 317/331/173 316/330/173
f 281/295/174 282/296/174 318/332/174
f 281/295/174 318/332/174 317/331/174
f 282/296/175 283/297/175 319/333/175
f 282/296/175 319/333/175 318/332/175
f 283/297/176 284/298/176 320/334/176
f 283/297/176 320/334/176 319/333/176
f 284/298/177 285/299/177 321/335/177
f 284/298/177 321/335/177 320/334/177
f 285/299/178 286/300/178 322/336/178
f 285/299/178 322/336/178 321/335/178
f 286/300/179 287/301/179 323/337/179
f 286/300/179 323/337/179 322/336/179
f 287/301/180 288/302/180 324/338/180
f 287/301/180 324/338/180 323/337/180
f 288/302/181 289/303/181 325/339/181
f 288/302/181 325/339/181 324/338/181
f 289/303/182 255/269/182 291/305/182
f 289/303/182 291/305/182 325/339/182
f 291/305/74 290/304/74 326/1/74
f 290/304/74 292/306/74 326/1/74
f 292/306/74 293/307/74 326/1/74
f 293/307/74 294/308/74 326/1/74
f 294/308/74 295/309/74 326/1/74
f 295/309/74 296/310/74 326/1/74
f 296/310/74 297/311/74 326/1/74
f 297/311/74 298/312/74 326/1/74
f 298/312/74 299/313/74 326/1/74
f 299/313/74 300/314/74 326/1/74
f 300/314/74 301/315/74 326/1/74
f 301/315/74 302/316/74 326/1/74
f 302/316/74 303/317/74 326/1/74
f 303/317/74 304/318/74 326/1/74
f 304/318/74 305/319/74 326/1/74
f 305/319/74 306/320/74 326/1/74
f 306/320/74 307/321/74 326/1/74
f 307/321/74 308/322/74 326/1/74
f 308/322/74 309/323/74 326/1/74
f 309/323/74 310/324/74 326/1/74
f 310/324/74 311/325/74 326/1/74
f 311/325/74 312/326/74 326/1/74
f 312/326/74 313/327/74 326/1/74
f 313/327/74 314/328/74 326/1/74
f 314/328/74 315/329/74 326/1/74
f 315/329/74 316/330/74 326/1/74
f 316/330/74 317/331/74 326/1/74
f 317/331/74 318/332/74 326/1/74
f 318/332/74 319/333/74 326/1/74
f 319/333/74 320/334/74 326/1/74
f 320/334/74 321/335/74 326/1/74
f 321/335/74 322/336/74 326/1/74
f 322/336/74 323/337/74 326/1/74
f 323/337/74 324/338/74 326/1/74
f 324/338/74 325/339/74 326/1/74
f 325/339/74 291/305/74 326/1/74
f 327/340/183 328/341/183 329/342/183
f 327/340/183 329/342/183 330/343/183
f 331/344/184 332/345/184 333/346/184
f 331/344/184 333/346/184 334/347/184
f 330/348/185 329/349/185 334/350/185
f 330/348/185 334/350/185 333/351/185
f 332/351/186 331/350/186 328/349/186
f 332/351/186 328/349/186 327/348/186
f 332/352/187 327/353/187 330/354/187
f 332/352/187 330/354/187 333/355/187
f 328/353/188 331/352/188 334/355/188
f 328/353/188 334/355/188 329/354/188
f 335/356/189 336/357/189 337/358/189
f 335/356/189 337/358/189 338/359/189
f 336/360/190 339/361/190 340/362/190
f 336/360/190 340/362/190 337/363/190
f 339/361/191 341/364/191 342/365/191
f 339/361/191 342/365/191 340/362/191
f 341/364/192 343/366/192 344/367/192
f 341/364/192 344/367/192 342/365/192
f 343/368/193 345/369/193 346/370/193
f 343/368/193 346/370/193 344/371/193
f 345/369/194 347/372/194 348/373/194
f 345/369/194 348/373/194 346/370/194
f 347/366/195 349/364/195 350/365/195
f 347/366/195 350/365/195 348/367/195
f 349/364/196 351/361/196 352/362/196
f 349/364/196 352/362/196 350/365/196
f 351/361/197 353/360/197 354/363/197
f 351/361/197 354/363/197 352/362/197
f 353/374/198 335/356/198 338/359/198
f 353/374/198 338/359/198 354/375/198
f 338/359/199 337/358/199 355/376/199
f 338/359/199 355/376/199 356/377/199
f 337/378/200 340/379/200 357/380/200
f 337/378/200 357/380/200 355/381/200
f 340/362/201 342/365/201 358/382/201
f 340/362/201 358/382/201 357/383/201
f 342/384/202 344/385/202 359/386/202
f 342/384/202 359/386/202 358/387/202
f 344/371/203 346/370/203 360/388/203
f 344/371/203 360/388/203 359/389/203
f 346/390/204 348/391/204 361/392/204
f 346/370/204 361/393/204 360/388/204
f 348/391/205 350/394/205 362/395/205
f 348/391/205 362/395/205 361/392/205
f 350/365/206 352/362/206 363/383/206
f 350/365/206 363/383/206 362/382/206
f 352/396/207 354/397/207 364/398/207
f 352/396/207 364/398/207 363/399/207
f 354/375/208 338/359/208 356/377/208
f 354/397/208 356/400/208 364/398/208
f 356/400/209 355/381/209 365/401/209
f 355/381/210 357/380/210 365/401/210
f 357/380/211 358/387/211 365/401/211
f 358/387/212 359/386/212 365/401/212
f 359/386/213 360/402/213 365/401/213
f 360/402/214 361/392/214 365/401/214
f 361/392/215 362/395/215 365/401/215
f 362/395/216 363/399/216 365/401/216
f 363/399/217 364/398/217 365/401/217
f 364/398/218 356/400/218 365/401/218
f 366/403/219 367/404/219 368/405/219
f 366/403/219 369/406/219 367/404/219
f 366/403/219 370/407/219 369/406/219
f 366/403/219 371/408/219 370/407/219
f 366/403/219 372/409/219 371/408/219
f 366/403/219 373/410/219 372/409/219
f 366/403/219 374/411/219 373/410/219
f 366/403/219 368/405/219 374/411/219
f 368/412/220 367/413/220 375/414/220
f 368/412/220 375/414/220 376/415/220
f 367/416/221 369/417/221 377/418/221
f 367/416/221 377/418/221 375/419/221
f 369/417/222 370/420/222 378/421/222
f 369/417/222 378/421/222 377/418/222
f 370/422/223 371/423/223 379/424/223
f 370/422/223 379/424/223 378/425/223
f 371/423/224 372/426/224 380/427/224
f 371/423/224 380/427/224 379/424/224
f 372/420/225 373/417/225 381/418/225
f 372/420/225 381/418/225 380/421/225
f 373/417/226 374/416/226 382/419/226
f 373/417/226 382/419/226 381/418/226
f 374/428/227 368/412/227 376/415/227
f 374/428/227 376/415/227 382/429/227
f 376/405/228 375/404/228 383/403/228
f 375/404/228 377/406/228 383/403/228
f 377/406/228 378/407/228 383/403/228
f 378/407/228 379/408/228 383/403/228
f 379/408/228 380/409/228 383/403/228
f 380/409/228 381/410/228 383/403/228
f 381/410/228 382/411/228 383/403/228
f 382/411/228 376/405/228 383/403/228
f 384/430/229 385/431/229 386/432/229
f 384/430/229 386/432/229 387/433/229
f 388/434/230 389/435/230 390/436/230
f 388/434/230 390/436/230 391/437/230
f 387/438/231 386/439/231 391/440/231
f 387/438/231 391/440/231 390/441/231
f 389/442/232 388/443/232 385/444/232
f 389/442/232 385/444/232 384/445/232
f 389/446/233 384/447/233 387/448/233
f 389/446/233 387/448/233 390/449/233
f 385/447/234 388/446/234 391/449/234
f 385/447/234 391/449/234 386/448/234
f 392/450/235 393/451/235 394/452/235
f 392/450/235 394/452/235 395/453/235
f 396/454/236 397/455/236 398/456/236
f 396/454/236 398/456/236 399/457/236
f 395/458/237 394/459/237 399/460/237
f 395/458/237 399/460/237 398/461/237
f 397/461/238 396/460/238 393/459/238
f 397/461/238 393/459/238 392/458/238
f 397/462/239 392/463/239 395/464/239
f 397/462/239 395/464/239 398/465/239
f 393/463/240 396/462/240 399/465/240
f 393/463/240 399/465/240 394/464/240
f 400/466/241 401/467/241 402/468/241
f 400/466/241 402/468/241 403/469/241
f 404/470/242 405/471/242 406/472/242
f 404/470/242 406/472/242 407/473/242
f 403/474/243 402/475/243 407/476/243
f 403/474/243 407/476/243 406/477/243
f 405/477/244 404/476/244 401/475/244
f 405/477/244 401/475/244 400/474/244
f 405/478/245 400/479/245 403/480/245
f 405/478/245 403/480/245 406/481/245
f 401/479/246 404/478/246 407/481/246
f 401/479/246 407/481/246 402/480/246
f 408/482/247 409/483/247 410/484/247
f 408/482/247 410/484/247 411/485/247
f 412/486/248 413/487/248 414/488/248
f 412/486/248 414/488/248 415/489/248
f 411/490/249 410/491/249 415/492/249
f 411/490/249 415/492/249 414/493/249
f 413/493/250 412/492/250 409/491/250
f 413/493/250 409/491/250 408/490/250
f 413/494/251 408/495/251 411/496/251
f 413/494/251 411/496/251 414/497/251
f 409/495/252 412/494/252 415/497/252
f 409/495/252 415/497/252 410/496/252
f 416/498/253 417/499/253 418/500/253
f 416/498/253 418/500/253 419/501/253
f 420/502/254 421/503/254 422/504/254
f 420/502/254 422/504/254 423/505/254
f 419/506/255 418/507/255 423/508/255
f 419/506/255 423/508/255 422/509/255
f 421/509/256 420/508/256 417/507/256
f 421/509/256 417/507/256 416/506/256
f 421/510/257 416/511/257 419/512/257
f 421/510/257 419/512/257 422/513/257
f 417/511/258 420/510/258 423/513/258
f 417/511/258 423/513/258 418/512/258
f 424/514/259 425/515/259 426/516/259
f 424/514/259 426/516/259 427/517/259
f 428/518/260 429/519/260 430/520/260
f 428/518/260 430/520/260 431/521/260
f 427/522/261 426/523/261 431/524/261
f 427/522/261 431/524/261 430/525/261
f 429/525/262 428/524/262 425/523/262
f 429/525/262 425/523/262 424/522/262
f 429/526/263 424/527/263 427/528/263
f 429/526/263 427/528/263 430/529/263
f 425/527/264 428/526/264 431/529/264
f 425/527/264 431/529/264 426/528/264
f 432/530/265 433/531/265 434/532/265
f 432/530/265 435/533/265 433/531/265
f 432/530/265 436/534/265 435/533/265
f 432/530/265 437/535/265 436/534/265
f 432/530/265 438/536/265 437/535/265
f 432/530/265 439/537/265 438/536/265
f 432/530/265 440/538/265 439/537/265
f 432/530/265 434/532/265 440/538/265
f 434/539/266 433/540/266 441/541/266
f 434/539/266 441/541/266 442/542/266
f 433/543/267 435/544/267 443/545/267
f 433/543/267 443/545/267 441/546/267
f 435/544/268 436/547/268 444/548/268
f 435/544/268 444/548/268 443/545/268
f 436/540/269 437/539/269 445/542/269
f 436/540/269 445/542/269 444/541/269
f 437/539/270 438/549/270 446/550/270
f 437/539/270 446/550/270 445/542/270
f 438/547/271 439/544/271 447/545/271
f 438/547/271 447/545/271 446/548/271
f 439/544/272 440/543/272 448/546/272
f 439/544/272 448/546/272 447/545/272
f 440/549/273 434/539/273 442/542/273
f 440/549/273 442/542/273 448/550/273
f 442/551/274 441/552/274 449/553/274
f 441/552/274 443/554/274 449/553/274
f 443/554/274 444/555/274 449/553/274
f 444/555/274 445/556/274 449/553/274
f 445/556/274 446/557/274 449/553/274
f 446/557/274 447/558/274 449/553/274
f 447/558/274 448/559/274 449/553/274
f 448/559/274 442/551/274 449/553/274
f 450/560/275 451/561/275 452/562/275
f 450/560/275 453/563/275 451/561/275
f 450/560/275 454/564/275 453/563/275
f 450/560/275 455/565/275 454/564/275
f 450/560/275 456/566/275 455/565/275
f 450/560/275 457/567/275 456/566/275
f 450/560/275 458/568/275 457/567/275
f 450/560/275 452/562/275 458/568/275
f 452/569/276 451/570/276 459/571/276
f 452/569/276 459/571/276 460/572/276
f 451/570/277 453/573/277 461/574/277
f 451/570/277 461/574/277 459/571/277
f 453/575/278 454/576/278 462/577/278
f 453/575/278 462/577/278 461/578/278
f 454/576/279 455/579/279 463/580/279
f 454/576/279 463/580/279 462/577/279
f 455/581/280 456/582/280 464/583/280
f 455/581/280 464/583/280 463/584/280
f 456/582/281 457/585/281 465/586/281
f 456/582/281 465/586/281 464/583/281
f 457/587/282 458/588/282 466/589/282
f 457/587/282 466/589/282 465/590/282
f 458/588/283 452/591/283 460/592/283
f 458/588/283 460/592/283 466/589/283
f 460/562/284 459/561/284 467/560/284
f 459/561/284 461/563/284 467/560/284
f 461/563/284 462/564/284 467/560/284
f 462/564/284 463/565/284 467/560/284
f 463/565/284 464/566/284 467/560/284
f 464/566/284 465/567/284 467/560/284
f 465/567/284 466/568/284 467/560/284
f 466/568/284 460/562/284 467/560/284
f 468/593/285 469/594/285 470/595/285
f 468/593/285 470/595/285 471/596/285
f 472/597/286 473/598/286 474/599/286
f 472/597/286 474/599/286 475/600/286
f 471/601/284 470/602/284 475/603/284
f 471/601/284 475/603/284 474/604/284
f 473/604/275 472/603/275 469/602/275
f 473/604/275 469/602/275 468/601/275
f 473/605/287 468/606/287 471/607/287
f 473/605/287 471/607/287 474/608/287
f 469/609/288 472/610/288 475/611/288
f 469/609/288 475/611/288 470/612/288
f 476/613/285 477/614/285 478/615/285
f 476/613/285 478/615/285 479/616/285
f 480/617/286 481/618/286 482/619/286
f 480/617/286 482/619/286 483/620/286
f 479/621/284 478/622/284 483/623/284
f 479/621/284 483/623/284 482/624/284
f 481/624/275 480/623/275 477/622/275
f 481/624/275 477/622/275 476/621/275
f 481/625/287 476/626/287 479/627/287
f 481/625/287 479/627/287 482/628/287
f 477/629/288 480/630/288 483/631/288
f 477/629/288 483/631/288 478/632/288
f 484/633/289 485/634/289 486/635/289
f 484/633/289 487/636/289 485/634/289
f 484/633/289 488/637/289 487/636/289
f 484/633/289 489/638/289 488/637/289
f 484/633/289 490/639/289 489/638/289
f 484/633/289 491/640/289 490/639/289
f 484/633/289 492/641/289 491/640/289
f 484/633/289 486/635/289 492/641/289
f 486/642/290 485/643/290 493/644/290
f 486/642/290 493/644/290 494/645/290
f 485/643/291 487/646/291 495/647/291
f 485/643/291 495/647/291 493/644/291
f 487/648/292 488/649/292 496/650/292
f 487/648/292 496/650/292 495/651/292
f 488/649/293 489/652/293 497/653/293
f 488/649/293 497/653/293 496/650/293
f 489/654/294 490/655/294 498/656/294
f 489/654/294 498/656/294 497/657/294
f 490/655/295 491/658/295 499/659/295
f 490/655/295 499/659/295 498/656/295
f 491/660/296 492/661/296 500/662/296
f 491/660/296 500/662/296 499/663/296
f 492/661/297 486/664/297 494/665/297
f 492/661/297 494/665/297 500/662/297
f 494/635/298 493/634/298 501/633/298
f 493/634/298 495/636/298 501/633/298
f 495/636/298 496/637/298 501/633/298
f 496/637/298 497/638/298 501/633/298
f 497/638/298 498/639/298 501/633/298
f 498/639/298 499/640/298 501/633/298
f 499/640/298 500/641/298 501/633/298
f 500/641/298 494/635/298 501/633/298
f 502/666/299 503/667/299 504/668/299
f 502/666/299 504/668/299 505/669/299
f 506/670/300 507/671/300 508/672/300
f 506/670/300 508/672/300 509/673/300
f 505/674/298 504/675/298 509/676/298
f 505/674/298 509/676/298 508/677/298
f 507/677/289 506/676/289 503/675/289
f 507/677/289 503/675/289 502/674/289
f 507/678/301 502/679/301 505/680/301
f 507/678/301 505/680/301 508/681/301
f 503/682/302 506/683/302 509/684/302
f 503/682/302 509/684/302 504/685/302
f 510/686/299 511/687/299 512/688/299
f 510/686/299 512/688/299 513/689/299
f 514/690/300 515/691/300 516/692/300
f 514/690/300 516/692/300 517/693/300
f 513/694/298 512/695/298 517/696/298
f 513/694/298 517/696/298 516/697/298
f 515/697/289 514/696/289 511/695/289
f 515/697/289 511/695/289 510/694/289
f 515/698/301 510/699/301 513/700/301
f 515/698/301 513/700/301 516/701/301
f 511/702/302 514/703/302 517/704/302
f 511/702/302 517/704/302 512/705/302
f 518/706/303 519/707/303 520/708/303
f 518/706/303 520/708/303 521/709/303
f 522/710/304 523/711/304 524/712/304
f 522/710/304 524/712/304 525/713/304
f 521/714/305 520/715/305 525/716/305
f 521/714/305 525/716/305 524/717/305
f 523/717/306 522/716/306 519/715/306
f 523/717/306 519/715/306 518/714/306
f 523/718/307 518/719/307 521/720/307
f 523/718/307 521/720/307 524/721/307
f 519/722/308 522/723/308 525/724/308
f 519/722/308 525/724/308 520/725/308
f 526/726/303 527/727/303 528/728/303
f 526/726/303 528/728/303 529/729/303
f 530/730/304 531/731/304 532/732/304
f 530/730/304 532/732/304 533/733/304
f 529/734/309 528/735/309 533/736/309
f 529/734/309 533/736/309 532/737/309
f 531/737/310 530/736/310 527/735/310
f 531/737/310 527/735/310 526/734/310
f 531/738/311 526/739/311 529/740/311
f 531/738/311 529/740/311 532/741/311
f 527/742/312 530/742/312 533/743/312
f 527/742/312 533/743/312 528/743/312
f 534/744/303 535/745/303 536/746/303
f 534/744/303 536/746/303 537/747/303
f 538/748/304 539/749/304 540/750/304
f 538/748/304 540/750/304 541/751/304
f 537/752/309 536/753/309 541/754/309
f 537/752/309 541/754/309 540/755/309
f 539/755/310 538/754/310 535/753/310
f 539/755/310 535/753/310 534/752/310
f 539/756/311 534/757/311 537/758/311
f 539/756/311 537/758/311 540/759/311
f 535/760/312 538/760/312 541/761/312
f 535/760/312 541/761/312 536/761/312
f 542/762/313 543/763/313 544/764/313
f 542/762/313 544/764/313 545/765/313
f 546/766/314 547/767/314 548/768/314
f 546/766/314 548/768/314 549/769/314
f 545/770/315 544/771/315 549/772/315
f 545/770/315 549/772/315 548/773/315
f 547/773/316 546/772/316 543/771/316
f 547/773/316 543/771/316 542/770/316
f 547/774/317 542/775/317 545/776/317
f 547/774/317 545/776/317 548/777/317
f 543/778/318 546/779/318 549/780/318
f 543/778/318 549/780/318 544/781/318
f 550/782/313 551/783/313 552/784/313
f 550/782/313 552/784/313 553/785/313
f 554/786/314 555/787/314 556/788/314
f 554/786/314 556/788/314 557/789/314
f 553/790/319 552/791/319 557/792/319
f 553/790/319 557/792/319 556/793/319
f 555/793/320 554/792/320 551/791/320
f 555/793/320 551/791/320 550/790/320
f 555/794/321 550/794/321 553/795/321
f 555/794/321 553/795/321 556/795/321
f 551/796/322 554/797/322 557/798/322
f 551/796/322 557/798/322 552/799/322
f 558/800/313 559/801/313 560/802/313
f 558/800/313 560/802/313 561/803/313
f 562/804/314 563/805/314 564/806/314
f 562/804/314 564/806/314 565/807/314
f 561/808/319 560/809/319 565/810/319
f 561/808/319 565/810/319 564/811/319
f 563/811/320 562/810/320 559/809/320
f 563/811/320 559/809/320 558/808/320
f 563/812/321 558/812/321 561/813/321
f 563/812/321 561/813/321 564/813/321
f 559/814/322 562/815/322 565/816/322
f 559/814/322 565/816/322 560/817/322
f 566/818/323 567/819/323 568/820/323
f 566/818/323 568/820/323 569/821/323
f 567/822/324 570/823/324 571/824/324
f 567/822/324 571/824/324 568/825/324
f 570/823/325 572/826/325 573/827/325
f 570/823/325 573/827/325 571/824/325
f 572/826/326 574/828/326 575/829/326
f 572/826/326 575/829/326 573/827/326
f 574/819/327 576/818/327 577/821/327
f 574/819/327 577/821/327 575/820/327
f 576/818/328 578/830/328 579/831/328
f 576/818/328 579/831/328 577/821/328
f 578/828/329 580/826/329 581/827/329
f 578/828/329 581/827/329 579/829/329
f 580/826/330 582/823/330 583/824/330
f 580/826/330 583/824/330 581/827/330
f 582/823/331 584/822/331 585/825/331
f 582/823/331 585/825/331 583/824/331
f 584/830/332 566/818/332 569/821/332
f 584/830/332 569/821/332 585/831/332
f 569/832/333 568/833/333 586/834/333
f 569/832/333 586/834/333 587/835/333
f 568/833/334 571/836/334 588/837/334
f 568/833/334 588/837/334 586/834/334
f 571/824/335 573/827/335 589/838/335
f 571/824/335 589/838/335 588/839/335
f 573/840/336 575/841/336 590/842/336
f 573/840/336 590/842/336 589/843/336
f 575/841/337 577/844/337 591/845/337
f 575/820/337 591/846/337 590/847/337
f 577/821/338 579/831/338 592/848/338
f 577/844/338 592/849/338 591/845/338
f 579/850/339 581/851/339 593/852/339
f 579/850/339 593/852/339 592/849/339
f 581/827/340 583/824/340 594/839/340
f 581/827/340 594/839/340 593/838/340
f 583/853/341 585/854/341 595/855/341
f 583/853/341 595/855/341 594/856/341
f 585/854/342 569/832/342 587/835/342
f 585/854/342 587/835/342 595/855/342
f 587/835/343 586/834/343 596/857/343
f 586/834/344 588/837/344 596/857/344
f 588/837/345 589/843/345 596/857/345
f 589/843/346 590/842/346 596/857/346
f 590/842/347 591/845/347 596/857/347
f 591/845/348 592/849/348 596/857/348
f 592/849/349 593/852/349 596/857/349
f 593/852/350 594/856/350 596/857/350
f 594/856/351 595/855/351 596/857/351
f 595/855/352 587/835/352 596/857/352
f 597/858/353 598/859/353 599/860/353
f 597/858/353 599/860/353 600/861/353
f 601/862/354 602/863/354 603/864/354
f 601/862/354 603/864/354 604/865/354
f 600/866/355 599/867/355 604/868/355
f 600/866/355 604/868/355 603/869/355
f 602/870/356 601/871/356 598/872/356
f 602/870/356 598/872/356 597/873/356
f 602/870/357 597/873/357 600/866/357
f 602/870/357 600/866/357 603/869/357
f 598/872/358 601/871/358 604/868/358
f 598/872/358 604/868/358 599/867/358
f 605/874/359 606/875/359 607/876/359
f 605/874/359 607/876/359 608/877/359
f 606/878/360 609/879/360 610/880/360
f 606/878/360 610/880/360 607/881/360
f 609/879/361 611/882/361 612/883/361
f 609/879/361 612/883/361 610/880/361
f 611/882/362 613/884/362 614/885/362
f 611/882/362 614/885/362 612/883/362
f 613/875/363 615/874/363 616/877/363
f 613/875/363 616/877/363 614/876/363
f 615/874/364 617/886/364 618/887/364
f 615/874/364 618/887/364 616/877/364
f 617/884/365 619/882/365 620/883/365
f 617/884/365 620/883/365 618/885/365
f 619/882/366 621/879/366 622/880/366
f 619/882/366 622/880/366 620/883/366
f 621/879/367 623/878/367 624/881/367
f 621/879/367 624/881/367 622/880/367
f 623/886/368 605/874/368 608/877/368
f 623/886/368 608/877/368 624/887/368
f 608/888/369 607/889/369 625/890/369
f 608/888/369 625/890/369 626/891/369
f 607/889/370 610/892/370 627/893/370
f 607/889/370 627/893/370 625/890/370
f 610/880/371 612/883/371 628/894/371
f 610/880/371 628/894/371 627/895/371
f 612/896/372 614/897/372 629/898/372
f 612/896/372 629/898/372 628/899/372
f 614/897/373 616/900/373 630/901/373
f 614/876/373 630/902/373 629/903/373
f 616/877/374 618/887/374 631/904/374
f 616/900/374 631/905/374 630/901/374
f 618/906/375 620/907/375 632/908/375
f 618/906/375 632/908/375 631/905/375
f 620/883/376 622/880/376 633/895/376
f 620/883/376 633/895/376 632/894/376
f 622/909/377 624/910/377 634/911/377
f 622/909/377 634/911/377 633/912/377
f 624/910/378 608/888/378 626/891/378
f 624/910/378 626/891/378 634/911/378
f 626/891/379 625/890/379 635/913/379
f 625/890/380 627/893/380 635/913/380
f 627/893/381 628/899/381 635/913/381
f 628/899/382 629/898/382 635/913/382
f 629/898/383 630/901/383 635/913/383
f 630/901/384 631/905/384 635/913/384
f 631/905/385 632/908/385 635/913/385
f 632/908/386 633/912/386 635/913/386
f 633/912/387 634/911/387 635/913/387
f 634/911/388 626/891/388 635/913/388
f 636/914/389 637/915/389 638/916/389
f 636/914/389 638/916/389 639/917/389
f 640/918/390 641/919/390 642/920/390
f 640/918/390 642/920/390 643/921/390
f 639/922/391 638/923/391 643/924/391
f 639/922/391 643/924/391 642/925/391
f 641/926/392 640/927/392 637/928/392
f 641/926/392 637/928/392 636/929/392
f 641/926/393 636/929/393 639/922/393
f 641/926/393 639/922/393 642/925/393
f 637/928/394 640/927/394 643/924/394
f 637/928/394 643/924/394 638/923/394
