# Helion carrier, fragment 1 of 8
# Generated by tools. Edit the generator script.
v 0.134492 0.434857 -2.308779
v -0.134492 0.434857 -2.308779
v -0.134492 0.703841 -2.308779
v -0.672460 0.322781 -1.953541
v -0.672460 0.322781 -1.101758
v -0.672460 0.815918 -1.101758
v -0.672460 0.815918 -1.953541
v -0.044831 0.322781 -1.101758
v -0.044831 0.322781 -1.953541
v -0.044831 0.815918 -1.953541
v -0.044831 0.815918 -1.101758
v -0.493137 0.927995 -2.488102
v -0.366337 0.801194 -2.488102
v -0.493137 0.748672 -2.488102
v -0.313815 0.927995 -2.488102
v -0.366337 1.054795 -2.488102
v -0.493137 1.107317 -2.488102
v -0.619938 1.054795 -2.488102
v -0.672460 0.927995 -2.488102
v -0.619938 0.801194 -2.488102
v -0.366337 0.801194 -1.770811
v -0.493137 0.748672 -1.770811
v -0.313815 0.927995 -1.770811
v -0.366337 1.054795 -1.770811
v -0.493137 1.107317 -1.770811
v -0.619938 1.054795 -1.770811
v -0.672460 0.927995 -1.770811
v -0.619938 0.801194 -1.770811
v -0.493137 0.927995 -1.770811
v -0.044193 0.645836 -2.093592
v -0.406755 0.909518 -2.093592
v -0.448944 0.851508 -2.093592
v -0.086382 0.587826 -2.093592
v -0.406755 0.909518 -2.165321
v -0.044193 0.645836 -2.165321
v -0.086382 0.587826 -2.165321
v -0.448944 0.851508 -2.165321
v -0.493137 0.717291 -2.129456
v -0.412504 0.733329 -2.129456
v -0.420802 0.753363 -2.099611
v -0.493137 0.738975 -2.099611
v -0.434229 0.785778 -2.111011
v -0.493137 0.774060 -2.111011
v -0.434229 0.785778 -2.147902
v -0.493137 0.774060 -2.147902
v -0.420802 0.753363 -2.159302
v -0.493137 0.738975 -2.159302
v -0.344147 0.779004 -2.129456
v -0.359480 0.794337 -2.099611
v -0.384289 0.819147 -2.111011
v -0.384289 0.819147 -2.147902
v -0.359480 0.794337 -2.159302
v -0.298472 0.847362 -2.129456
v -0.318506 0.855660 -2.099611
v -0.350920 0.869086 -2.111011
v -0.350920 0.869086 -2.147902
v -0.318506 0.855660 -2.159302
v -0.282433 0.927995 -2.129456
v -0.304117 0.927995 -2.099611
v -0.339203 0.927995 -2.111011
v -0.339203 0.927995 -2.147902
v -0.304117 0.927995 -2.159302
v -0.298472 1.008628 -2.129456
v -0.318506 1.000329 -2.099611
v -0.350920 0.986903 -2.111011
v -0.350920 0.986903 -2.147902
v -0.318506 1.000329 -2.159302
v -0.344147 1.076985 -2.129456
v -0.359480 1.061652 -2.099611
v -0.384289 1.036843 -2.111011
v -0.384289 1.036843 -2.147902
v -0.359480 1.061652 -2.159302
v -0.412504 1.122660 -2.129456
v -0.420802 1.102626 -2.099611
v -0.434229 1.070212 -2.111011
v -0.434229 1.070212 -2.147902
v -0.420802 1.102626 -2.159302
v -0.493137 1.138699 -2.129456
v -0.493137 1.117015 -2.099611
v -0.493137 1.081929 -2.111011
v -0.493137 1.081929 -2.147902
v -0.493137 1.117015 -2.159302
v -0.573770 1.122660 -2.129456
v -0.565472 1.102626 -2.099611
v -0.552045 1.070212 -2.111011
v -0.552045 1.070212 -2.147902
v -0.565472 1.102626 -2.159302
v -0.642128 1.076985 -2.129456
v -0.626795 1.061652 -2.099611
v -0.601985 1.036843 -2.111011
v -0.601985 1.036843 -2.147902
v -0.626795 1.061652 -2.159302
v -0.687802 1.008628 -2.129456
v -0.667769 1.000329 -2.099611
v -0.635354 0.986903 -2.111011
v -0.635354 0.986903 -2.147902
v -0.667769 1.000329 -2.159302
v -0.703841 0.927995 -2.129456
v -0.682157 0.927995 -2.099611
v -0.647072 0.927995 -2.111011
v -0.647072 0.927995 -2.147902
v -0.682157 0.927995 -2.159302
v -0.687802 0.847362 -2.129456
v -0.667769 0.855660 -2.099611
v -0.635354 0.869086 -2.111011
v -0.635354 0.869086 -2.147902
v -0.667769 0.855660 -2.159302
v -0.642128 0.779004 -2.129456
v -0.626795 0.794337 -2.099611
v -0.601985 0.819147 -2.111011
v -0.601985 0.819147 -2.147902
v -0.626795 0.794337 -2.159302
v -0.573770 0.733329 -2.129456
v -0.565472 0.753363 -2.099611
v -0.552045 0.785778 -2.111011
v -0.552045 0.785778 -2.147902
v -0.565472 0.753363 -2.159302
v -0.493137 0.927995 -2.515000
v -0.376481 0.811338 -2.515000
v -0.493137 0.763018 -2.515000
v -0.328160 0.927995 -2.515000
v -0.376481 1.044651 -2.515000
v -0.493137 1.092971 -2.515000
v -0.609793 1.044651 -2.515000
v -0.658114 0.927995 -2.515000
v -0.609793 0.811338 -2.515000
v -0.376481 0.811338 -2.425339
v -0.493137 0.763018 -2.425339
v -0.328160 0.927995 -2.425339
v -0.376481 1.044651 -2.425339
v -0.493137 1.092971 -2.425339
v -0.609793 1.044651 -2.425339
v -0.658114 0.927995 -2.425339
v -0.609793 0.811338 -2.425339
v -0.493137 0.927995 -2.425339
v -0.493137 0.210704 -2.488102
v -0.366337 0.083904 -2.488102
v -0.493137 0.031381 -2.488102
v -0.313815 0.210704 -2.488102
v -0.366337 0.337504 -2.488102
v -0.493137 0.390027 -2.488102
v -0.619938 0.337504 -2.488102
v -0.672460 0.210704 -2.488102
v -0.619938 0.083904 -2.488102
v -0.366337 0.083904 -1.770811
v -0.493137 0.031381 -1.770811
v -0.313815 0.210704 -1.770811
v -0.366337 0.337504 -1.770811
v -0.493137 0.390027 -1.770811
v -0.619938 0.337504 -1.770811
v -0.672460 0.210704 -1.770811
v -0.619938 0.083904 -1.770811
v -0.493137 0.210704 -1.770811
v -0.086382 0.550872 -2.093592
v -0.448944 0.287191 -2.093592
v -0.406755 0.229181 -2.093592
v -0.044193 0.492862 -2.093592
v -0.448944 0.287191 -2.165321
v -0.086382 0.550872 -2.165321
v -0.044193 0.492862 -2.165321
v -0.406755 0.229181 -2.165321
v -0.493137 0.000000 -2.129456
v -0.412504 0.016039 -2.129456
v -0.420802 0.036072 -2.099611
v -0.493137 0.021684 -2.099611
v -0.434229 0.068487 -2.111011
v -0.493137 0.056770 -2.111011
v -0.434229 0.068487 -2.147902
v -0.493137 0.056770 -2.147902
v -0.420802 0.036072 -2.159302
v -0.493137 0.021684 -2.159302
v -0.344147 0.061714 -2.129456
v -0.359480 0.077047 -2.099611
v -0.384289 0.101856 -2.111011
v -0.384289 0.101856 -2.147902
v -0.359480 0.077047 -2.159302
v -0.298472 0.130071 -2.129456
v -0.318506 0.138369 -2.099611
v -0.350920 0.151796 -2.111011
v -0.350920 0.151796 -2.147902
v -0.318506 0.138369 -2.159302
v -0.282433 0.210704 -2.129456
v -0.304117 0.210704 -2.099611
v -0.339203 0.210704 -2.111011
v -0.339203 0.210704 -2.147902
v -0.304117 0.210704 -2.159302
v -0.298472 0.291337 -2.129456
v -0.318506 0.283039 -2.099611
v -0.350920 0.269612 -2.111011
v -0.350920 0.269612 -2.147902
v -0.318506 0.283039 -2.159302
v -0.344147 0.359694 -2.129456
v -0.359480 0.344361 -2.099611
v -0.384289 0.319552 -2.111011
v -0.384289 0.319552 -2.147902
v -0.359480 0.344361 -2.159302
v -0.412504 0.405369 -2.129456
v -0.420802 0.385336 -2.099611
v -0.434229 0.352921 -2.111011
v -0.434229 0.352921 -2.147902
v -0.420802 0.385336 -2.159302
v -0.493137 0.421408 -2.129456
v -0.493137 0.399724 -2.099611
v -0.493137 0.364639 -2.111011
v -0.493137 0.364639 -2.147902
v -0.493137 0.399724 -2.159302
v -0.573770 0.405369 -2.129456
v -0.565472 0.385336 -2.099611
v -0.552045 0.352921 -2.111011
v -0.552045 0.352921 -2.147902
v -0.565472 0.385336 -2.159302
v -0.642128 0.359694 -2.129456
v -0.626795 0.344361 -2.099611
v -0.601985 0.319552 -2.111011
v -0.601985 0.319552 -2.147902
v -0.626795 0.344361 -2.159302
v -0.687802 0.291337 -2.129456
v -0.667769 0.283039 -2.099611
v -0.635354 0.269612 -2.111011
v -0.635354 0.269612 -2.147902
v -0.667769 0.283039 -2.159302
v -0.703841 0.210704 -2.129456
v -0.682157 0.210704 -2.099611
v -0.647072 0.210704 -2.111011
v -0.647072 0.210704 -2.147902
v -0.682157 0.210704 -2.159302
v -0.687802 0.130071 -2.129456
v -0.667769 0.138369 -2.099611
v -0.635354 0.151796 -2.111011
v -0.635354 0.151796 -2.147902
v -0.667769 0.138369 -2.159302
v -0.642128 0.061714 -2.129456
v -0.626795 0.077047 -2.099611
v -0.601985 0.101856 -2.111011
v -0.601985 0.101856 -2.147902
v -0.626795 0.077047 -2.159302
v -0.573770 0.016039 -2.129456
v -0.565472 0.036072 -2.099611
v -0.552045 0.068487 -2.111011
v -0.552045 0.068487 -2.147902
v -0.565472 0.036072 -2.159302
v -0.493137 0.210704 -2.515000
v -0.376481 0.094048 -2.515000
v -0.493137 0.045727 -2.515000
v -0.328160 0.210704 -2.515000
v -0.376481 0.327360 -2.515000
v -0.493137 0.375681 -2.515000
v -0.609793 0.327360 -2.515000
v -0.658114 0.210704 -2.515000
v -0.609793 0.094048 -2.515000
v -0.376481 0.094048 -2.425339
v -0.493137 0.045727 -2.425339
v -0.328160 0.210704 -2.425339
v -0.376481 0.327360 -2.425339
v -0.493137 0.375681 -2.425339
v -0.609793 0.327360 -2.425339
v -0.658114 0.210704 -2.425339
v -0.609793 0.094048 -2.425339
v -0.493137 0.210704 -2.425339
v -0.044831 0.524519 -2.308779
v -0.254040 0.569349 -1.385686
vt 0.968750 0.531250
vt 0.843750 0.531250
vt 0.843750 0.656250
vt 0.851562 0.210938
vt 0.945312 0.210938
vt 0.945312 0.273438
vt 0.851562 0.273438
vt 0.851562 0.210938
vt 0.851562 0.273438
vt 0.945312 0.273438
vt 0.945312 0.210938
vt 0.945312 0.210938
vt 0.851562 0.210938
vt 0.851562 0.273438
vt 0.945312 0.273438
vt 0.539062 0.234375
vt 0.572208 0.206754
vt 0.539062 0.195312
vt 0.585938 0.234375
vt 0.572208 0.261996
vt 0.539062 0.273438
vt 0.505917 0.261996
vt 0.492188 0.234375
vt 0.505917 0.206754
vt 0.589844 0.664062
vt 0.614703 0.664062
vt 0.614703 0.992188
vt 0.589844 0.992188
vt 0.327895 0.206754
vt 0.382812 0.234375
vt 0.327895 0.261996
vt 0.564985 0.664062
vt 0.564985 0.992188
vt 0.492188 0.363559
vt 0.492188 0.335938
vt 0.867188 0.335938
vt 0.867188 0.363559
vt 0.492188 0.308316
vt 0.867188 0.308316
vt 0.437500 0.195312
vt 0.470646 0.206754
vt 0.437500 0.234375
vt 0.484375 0.234375
vt 0.470646 0.261996
vt 0.437500 0.273438
vt 0.404354 0.261996
vt 0.390625 0.234375
vt 0.404354 0.206754
vt 0.968750 0.553791
vt 0.856779 0.656250
vt 0.843750 0.633709
vt 0.955721 0.531250
vt 0.856779 0.656250
vt 0.968750 0.553791
vt 0.955721 0.531250
vt 0.843750 0.633709
vt 0.955721 0.656250
vt 0.843750 0.656250
vt 0.843750 0.531250
vt 0.955721 0.531250
vt 0.968750 0.531250
vt 0.856779 0.531250
vt 0.856779 0.656250
vt 0.968750 0.656250
vt 0.843750 0.553791
vt 0.968750 0.553791
vt 0.968750 0.531250
vt 0.843750 0.531250
vt 0.968750 0.656250
vt 0.843750 0.656250
vt 0.843750 0.633709
vt 0.968750 0.633709
vt 0.718750 0.242187
vt 0.766585 0.242187
vt 0.761663 0.273438
vt 0.718750 0.273438
vt 0.515625 0.103171
vt 0.558538 0.104237
vt 0.550572 0.106641
vt 0.515625 0.105772
vt 0.718750 0.261501
vt 0.753697 0.261501
vt 0.753697 0.222874
vt 0.718750 0.222874
vt 0.515625 0.105772
vt 0.550572 0.106641
vt 0.558538 0.104237
vt 0.515625 0.103171
vt 0.718750 0.210938
vt 0.761663 0.210938
vt 0.807138 0.242187
vt 0.798042 0.273438
vt 0.594917 0.107276
vt 0.580199 0.109116
vt 0.783324 0.261501
vt 0.783324 0.222874
vt 0.580199 0.109116
vt 0.594917 0.107276
vt 0.798042 0.210938
vt 0.515625 0.106139
vt 0.515625 0.111208
vt 0.640625 0.111823
vt 0.640625 0.107276
vt 0.619225 0.111823
vt 0.599995 0.112819
vt 0.592879 0.109116
vt 0.592879 0.112819
vt 0.438371 0.112819
vt 0.438371 0.109116
vt 0.599995 0.112819
vt 0.619225 0.111823
vt 0.390625 0.107276
vt 0.390625 0.111823
vt 0.515625 0.117188
vt 0.640625 0.117188
vt 0.627761 0.117188
vt 0.606946 0.117188
vt 0.592879 0.117188
vt 0.438371 0.117188
vt 0.606946 0.117188
vt 0.627761 0.117188
vt 0.390625 0.117188
vt 0.515625 0.123167
vt 0.640625 0.122552
vt 0.619225 0.122552
vt 0.599995 0.121556
vt 0.592879 0.121556
vt 0.438371 0.121556
vt 0.599995 0.121556
vt 0.619225 0.122552
vt 0.390625 0.122552
vt 0.515625 0.128236
vt 0.640625 0.127099
vt 0.594917 0.127099
vt 0.580199 0.125259
vt 0.592879 0.125259
vt 0.438371 0.125259
vt 0.580199 0.125259
vt 0.594917 0.127099
vt 0.390625 0.127099
vt 0.558538 0.130138
vt 0.550572 0.127734
vt 0.550572 0.127734
vt 0.558538 0.130138
vt 0.515625 0.131204
vt 0.515625 0.128603
vt 0.515625 0.128603
vt 0.515625 0.131204
vt 0.670915 0.242187
vt 0.675837 0.273438
vt 0.472712 0.130138
vt 0.480678 0.127734
vt 0.683803 0.261501
vt 0.683803 0.222874
vt 0.480678 0.127734
vt 0.472712 0.130138
vt 0.675837 0.210938
vt 0.630362 0.242187
vt 0.639458 0.273438
vt 0.436333 0.127099
vt 0.451051 0.125259
vt 0.654176 0.261501
vt 0.654176 0.222874
vt 0.451051 0.125259
vt 0.436333 0.127099
vt 0.639458 0.210938
vt 0.412025 0.122552
vt 0.431255 0.121556
vt 0.431255 0.121556
vt 0.412025 0.122552
vt 0.403489 0.117188
vt 0.424304 0.117188
vt 0.424304 0.117188
vt 0.403489 0.117188
vt 0.412025 0.111823
vt 0.431255 0.112819
vt 0.431255 0.112819
vt 0.412025 0.111823
vt 0.436333 0.107276
vt 0.451051 0.109116
vt 0.451051 0.109116
vt 0.436333 0.107276
vt 0.472712 0.104237
vt 0.480678 0.106641
vt 0.480678 0.106641
vt 0.472712 0.104237
vt 0.054688 0.328125
vt 0.087833 0.294979
vt 0.054688 0.281250
vt 0.101562 0.328125
vt 0.087833 0.361271
vt 0.054688 0.375000
vt 0.021542 0.361271
vt 0.007812 0.328125
vt 0.021542 0.294979
vt 0.054688 0.281250
vt 0.087833 0.281250
vt 0.087833 0.375000
vt 0.054688 0.375000
vt 0.007812 0.294979
vt 0.007812 0.328125
vt 0.101562 0.328125
vt 0.101562 0.294979
vt 0.007812 0.361271
vt 0.101562 0.361271
vt 0.021542 0.281250
vt 0.021542 0.375000
vt 0.054688 0.281250
vt 0.087833 0.294979
vt 0.054688 0.328125
vt 0.101562 0.328125
vt 0.087833 0.361271
vt 0.054688 0.375000
vt 0.021542 0.361271
vt 0.007812 0.328125
vt 0.021542 0.294979
vt 0.539062 0.234375
vt 0.572208 0.206754
vt 0.539062 0.195312
vt 0.585938 0.234375
vt 0.572208 0.261996
vt 0.539062 0.273438
vt 0.505917 0.261996
vt 0.492188 0.234375
vt 0.505917 0.206754
vt 0.589844 0.664062
vt 0.614703 0.664062
vt 0.614703 0.992188
vt 0.589844 0.992188
vt 0.327895 0.206754
vt 0.382812 0.234375
vt 0.327895 0.261996
vt 0.564985 0.664062
vt 0.564985 0.992188
vt 0.492188 0.363559
vt 0.492188 0.335938
vt 0.867188 0.335938
vt 0.867188 0.363559
vt 0.492188 0.308316
vt 0.867188 0.308316
vt 0.437500 0.195312
vt 0.470646 0.206754
vt 0.437500 0.234375
vt 0.484375 0.234375
vt 0.470646 0.261996
vt 0.437500 0.273438
vt 0.404354 0.261996
vt 0.390625 0.234375
vt 0.404354 0.206754
vt 0.955721 0.656250
vt 0.843750 0.553791
vt 0.856779 0.531250
vt 0.968750 0.633709
vt 0.843750 0.553791
vt 0.955721 0.656250
vt 0.968750 0.633709
vt 0.856779 0.531250
vt 0.968750 0.656250
vt 0.856779 0.656250
vt 0.856779 0.531250
vt 0.968750 0.531250
vt 0.955721 0.531250
vt 0.843750 0.531250
vt 0.843750 0.656250
vt 0.955721 0.656250
vt 0.843750 0.656250
vt 0.968750 0.656250
vt 0.968750 0.633709
vt 0.843750 0.633709
vt 0.968750 0.553791
vt 0.843750 0.553791
vt 0.843750 0.531250
vt 0.968750 0.531250
vt 0.718750 0.242187
vt 0.766585 0.242187
vt 0.761663 0.273438
vt 0.718750 0.273438
vt 0.515625 0.103171
vt 0.558538 0.104237
vt 0.550572 0.106641
vt 0.515625 0.105772
vt 0.718750 0.261501
vt 0.753697 0.261501
vt 0.753697 0.222874
vt 0.718750 0.222874
vt 0.515625 0.105772
vt 0.550572 0.106641
vt 0.558538 0.104237
vt 0.515625 0.103171
vt 0.718750 0.210938
vt 0.761663 0.210938
vt 0.807138 0.242187
vt 0.798042 0.273438
vt 0.594917 0.107276
vt 0.580199 0.109116
vt 0.783324 0.261501
vt 0.783324 0.222874
vt 0.580199 0.109116
vt 0.594917 0.107276
vt 0.798042 0.210938
vt 0.515625 0.106139
vt 0.515625 0.111208
vt 0.640625 0.111823
vt 0.640625 0.107276
vt 0.619225 0.111823
vt 0.599995 0.112819
vt 0.592879 0.109116
vt 0.592879 0.112819
vt 0.438371 0.112819
vt 0.438371 0.109116
vt 0.599995 0.112819
vt 0.619225 0.111823
vt 0.390625 0.107276
vt 0.390625 0.111823
vt 0.515625 0.117188
vt 0.640625 0.117188
vt 0.627761 0.117188
vt 0.606946 0.117188
vt 0.592879 0.117188
vt 0.438371 0.117188
vt 0.606946 0.117188
vt 0.627761 0.117188
vt 0.390625 0.117188
vt 0.515625 0.123167
vt 0.640625 0.122552
vt 0.619225 0.122552
vt 0.599995 0.121556
vt 0.592879 0.121556
vt 0.438371 0.121556
vt 0.599995 0.121556
vt 0.619225 0.122552
vt 0.390625 0.122552
vt 0.515625 0.128236
vt 0.640625 0.127099
vt 0.594917 0.127099
vt 0.580199 0.125259
vt 0.592879 0.125259
vt 0.438371 0.125259
vt 0.580199 0.125259
vt 0.594917 0.127099
vt 0.390625 0.127099
vt 0.558538 0.130138
vt 0.550572 0.127734
vt 0.550572 0.127734
vt 0.558538 0.130138
vt 0.515625 0.131204
vt 0.515625 0.128603
vt 0.515625 0.128603
vt 0.515625 0.131204
vt 0.670915 0.242187
vt 0.675837 0.273438
vt 0.472712 0.130138
vt 0.480678 0.127734
vt 0.683803 0.261501
vt 0.683803 0.222874
vt 0.480678 0.127734
vt 0.472712 0.130138
vt 0.675837 0.210938
vt 0.630362 0.242187
vt 0.639458 0.273438
vt 0.436333 0.127099
vt 0.451051 0.125259
vt 0.654176 0.261501
vt 0.654176 0.222874
vt 0.451051 0.125259
vt 0.436333 0.127099
vt 0.639458 0.210938
vt 0.412025 0.122552
vt 0.431255 0.121556
vt 0.431255 0.121556
vt 0.412025 0.122552
vt 0.403489 0.117188
vt 0.424304 0.117188
vt 0.424304 0.117188
vt 0.403489 0.117188
vt 0.412025 0.111823
vt 0.431255 0.112819
vt 0.431255 0.112819
vt 0.412025 0.111823
vt 0.436333 0.107276
vt 0.451051 0.109116
vt 0.451051 0.109116
vt 0.436333 0.107276
vt 0.472712 0.104237
vt 0.480678 0.106641
vt 0.480678 0.106641
vt 0.472712 0.104237
vt 0.054688 0.328125
vt 0.087833 0.294979
vt 0.054688 0.281250
vt 0.101562 0.328125
vt 0.087833 0.361271
vt 0.054688 0.375000
vt 0.021542 0.361271
vt 0.007812 0.328125
vt 0.021542 0.294979
vt 0.054688 0.281250
vt 0.087833 0.281250
vt 0.087833 0.375000
vt 0.054688 0.375000
vt 0.007812 0.294979
vt 0.007812 0.328125
vt 0.101562 0.328125
vt 0.101562 0.294979
vt 0.007812 0.361271
vt 0.101562 0.361271
vt 0.021542 0.281250
vt 0.021542 0.375000
vt 0.054688 0.281250
vt 0.087833 0.294979
vt 0.054688 0.328125
vt 0.101562 0.328125
vt 0.087833 0.361271
vt 0.054688 0.375000
vt 0.021542 0.361271
vt 0.007812 0.328125
vt 0.021542 0.294979
vt 0.353333 0.353333
vt 0.060000 0.940000
vt 0.060000 0.060000
vt 0.940000 0.060000
vt 0.646667 0.646667
vt 0.060000 0.940000
vt 0.940000 0.940000
vt 0.940000 0.060000
vt 0.940000 0.060000
vt 0.060000 0.940000
vt 0.940000 0.940000
vn 0.000000 0.000000 -1.000000
vn -1.000000 0.000000 0.000000
vn 1.000000 0.000000 -0.000000
vn 0.000000 1.000000 0.000000
vn 0.000000 -1.000000 0.000000
vn 0.000000 0.000000 -1.000000
vn 0.000000 0.000000 -1.000000
vn 0.382683 -0.923880 0.000000
vn 0.923880 -0.382683 0.000000
vn 0.923880 0.382683 0.000000
vn 0.382683 0.923880 0.000000
vn -0.382683 0.923880 0.000000
vn -0.923880 0.382683 0.000000
vn -0.923880 -0.382683 0.000000
vn -0.382683 -0.923880 0.000000
vn 0.000000 0.000000 1.000000
vn 0.000000 0.000000 1.000000
vn 0.000000 0.000000 -1.000000
vn -0.588172 -0.808736 0.000000
vn 0.588172 0.808736 0.000000
vn 0.808736 -0.588172 0.000000
vn -0.808736 0.588172 0.000000
vn 0.158879 -0.798741 0.580319
vn -0.061352 0.308435 0.949265
vn -0.195090 0.980785 0.000000
vn -0.061352 0.308435 -0.949265
vn 0.158879 -0.798741 -0.580319
vn 0.452450 -0.677140 0.580319
vn -0.174714 0.261478 0.949265
vn -0.555570 0.831470 0.000000
vn -0.174714 0.261478 -0.949265
vn 0.452450 -0.677140 -0.580319
vn 0.677140 -0.452450 0.580319
vn -0.261478 0.174714 0.949265
vn -0.831470 0.555570 0.000000
vn -0.261478 0.174714 -0.949265
vn 0.677140 -0.452450 -0.580319
vn 0.798741 -0.158879 0.580319
vn -0.308435 0.061352 0.949265
vn -0.980785 0.195090 0.000000
vn -0.308435 0.061352 -0.949265
vn 0.798741 -0.158879 -0.580319
vn 0.798741 0.158879 0.580319
vn -0.308435 -0.061352 0.949265
vn -0.980785 -0.195090 0.000000
vn -0.308435 -0.061352 -0.949265
vn 0.798741 0.158879 -0.580319
vn 0.677140 0.452450 0.580319
vn -0.261478 -0.174714 0.949265
vn -0.831470 -0.555570 0.000000
vn -0.261478 -0.174714 -0.949265
vn 0.677140 0.452450 -0.580319
vn 0.452450 0.677140 0.580319
vn -0.174714 -0.261478 0.949265
vn -0.555570 -0.831470 0.000000
vn -0.174714 -0.261478 -0.949265
vn 0.452450 0.677140 -0.580319
vn 0.158879 0.798741 0.580319
vn -0.061352 -0.308435 0.949265
vn -0.195090 -0.980785 0.000000
vn -0.061352 -0.308435 -0.949265
vn 0.158879 0.798741 -0.580319
vn -0.158879 0.798741 0.580319
vn 0.061352 -0.308435 0.949265
vn 0.195090 -0.980785 0.000000
vn 0.061352 -0.308435 -0.949265
vn -0.158879 0.798741 -0.580319
vn -0.452450 0.677140 0.580319
vn 0.174714 -0.261478 0.949265
vn 0.555570 -0.831470 0.000000
vn 0.174714 -0.261478 -0.949265
vn -0.452450 0.677140 -0.580319
vn -0.677140 0.452450 0.580319
vn 0.261478 -0.174714 0.949265
vn 0.831470 -0.555570 0.000000
vn 0.261478 -0.174714 -0.949265
vn -0.677140 0.452450 -0.580319
vn -0.798741 0.158879 0.580319
vn 0.308435 -0.061352 0.949265
vn 0.980785 -0.195090 0.000000
vn 0.308435 -0.061352 -0.949265
vn -0.798741 0.158879 -0.580319
vn -0.798741 -0.158879 0.580319
vn 0.308435 0.061352 0.949265
vn 0.980785 0.195090 0.000000
vn 0.308435 0.061352 -0.949265
vn -0.798741 -0.158879 -0.580319
vn -0.677140 -0.452450 0.580319
vn 0.261478 0.174714 0.949265
vn 0.831470 0.555570 0.000000
vn 0.261478 0.174714 -0.949265
vn -0.677140 -0.452450 -0.580319
vn -0.452450 -0.677140 0.580319
vn 0.174714 0.261478 0.949265
vn 0.555570 0.831470 0.000000
vn 0.174714 0.261478 -0.949265
vn -0.452450 -0.677140 -0.580319
vn -0.158879 -0.798741 0.580319
vn 0.061352 0.308435 0.949265
vn 0.195090 0.980785 0.000000
vn 0.061352 0.308435 -0.949265
vn -0.158879 -0.798741 -0.580319
vn 0.000000 0.000000 -1.000000
vn 0.382683 -0.923880 0.000000
vn 0.923880 -0.382683 0.000000
vn 0.923880 0.382683 0.000000
vn 0.382683 0.923880 0.000000
vn -0.382683 0.923880 0.000000
vn -0.923880 0.382683 0.000000
vn -0.923880 -0.382683 0.000000
vn -0.382683 -0.923880 0.000000
vn 0.000000 0.000000 1.000000
vn 0.000000 0.000000 -1.000000
vn 0.382683 -0.923880 0.000000
vn 0.923880 -0.382683 0.000000
vn 0.923880 0.382683 0.000000
vn 0.382683 0.923880 0.000000
vn -0.382683 0.923880 -0.000000
vn -0.923880 0.382683 -0.000000
vn -0.923880 -0.382683 0.000000
vn -0.382683 -0.923880 0.000000
vn 0.000000 0.000000 1.000000
vn 0.000000 0.000000 1.000000
vn 0.000000 0.000000 -1.000000
vn 0.588172 -0.808736 0.000000
vn -0.588172 0.808736 0.000000
vn 0.808736 0.588172 -0.000000
vn -0.808736 -0.588172 -0.000000
vn 0.158879 -0.798741 0.580319
vn -0.061352 0.308435 0.949265
vn -0.195090 0.980785 0.000000
vn -0.061352 0.308435 -0.949265
vn 0.158879 -0.798741 -0.580319
vn 0.452450 -0.677140 0.580319
vn -0.174714 0.261478 0.949265
vn -0.555570 0.831470 0.000000
vn -0.174714 0.261478 -0.949265
vn 0.452450 -0.677140 -0.580319
vn 0.677140 -0.452450 0.580319
vn -0.261478 0.174714 0.949265
vn -0.831470 0.555570 0.000000
vn -0.261478 0.174714 -0.949265
vn 0.677140 -0.452450 -0.580319
vn 0.798741 -0.158879 0.580319
vn -0.308435 0.061352 0.949265
vn -0.980785 0.195090 0.000000
vn -0.308435 0.061352 -0.949265
vn 0.798741 -0.158879 -0.580319
vn 0.798741 0.158879 0.580319
vn -0.308435 -0.061352 0.949265
vn -0.980785 -0.195090 0.000000
vn -0.308435 -0.061352 -0.949265
vn 0.798741 0.158879 -0.580319
vn 0.677140 0.452450 0.580319
vn -0.261478 -0.174714 0.949265
vn -0.831470 -0.555570 0.000000
vn -0.261478 -0.174714 -0.949265
vn 0.677140 0.452450 -0.580319
vn 0.452450 0.677140 0.580319
vn -0.174714 -0.261478 0.949265
vn -0.555570 -0.831470 0.000000
vn -0.174714 -0.261478 -0.949265
vn 0.452450 0.677140 -0.580319
vn 0.158879 0.798741 0.580319
vn -0.061352 -0.308435 0.949265
vn -0.195090 -0.980785 0.000000
vn -0.061352 -0.308435 -0.949265
vn 0.158879 0.798741 -0.580319
vn -0.158879 0.798741 0.580319
vn 0.061352 -0.308435 0.949265
vn 0.195090 -0.980785 0.000000
vn 0.061352 -0.308435 -0.949265
vn -0.158879 0.798741 -0.580319
vn -0.452450 0.677140 0.580319
vn 0.174714 -0.261478 0.949265
vn 0.555570 -0.831470 0.000000
vn 0.174714 -0.261478 -0.949265
vn -0.452450 0.677140 -0.580319
vn -0.677140 0.452450 0.580319
vn 0.261478 -0.174714 0.949265
vn 0.831470 -0.555570 0.000000
vn 0.261478 -0.174714 -0.949265
vn -0.677140 0.452450 -0.580319
vn -0.798741 0.158879 0.580319
vn 0.308435 -0.061352 0.949265
vn 0.980785 -0.195090 0.000000
vn 0.308435 -0.061352 -0.949265
vn -0.798741 0.158879 -0.580319
vn -0.798741 -0.158879 0.580319
vn 0.308435 0.061352 0.949265
vn 0.980785 0.195090 0.000000
vn 0.308435 0.061352 -0.949265
vn -0.798741 -0.158879 -0.580319
vn -0.677140 -0.452450 0.580319
vn 0.261478 0.174714 0.949265
vn 0.831470 0.555570 0.000000
vn 0.261478 0.174714 -0.949265
vn -0.677140 -0.452450 -0.580319
vn -0.452450 -0.677140 0.580319
vn 0.174714 0.261478 0.949265
vn 0.555570 0.831470 0.000000
vn 0.174714 0.261478 -0.949265
vn -0.452450 -0.677140 -0.580319
vn -0.158879 -0.798741 0.580319
vn 0.061352 0.308435 0.949265
vn 0.195090 0.980785 0.000000
vn 0.061352 0.308435 -0.949265
vn -0.158879 -0.798741 -0.580319
vn 0.000000 0.000000 -1.000000
vn 0.382683 -0.923880 0.000000
vn 0.923880 -0.382683 0.000000
vn 0.923880 0.382683 0.000000
vn 0.382683 0.923880 0.000000
vn -0.382683 0.923880 0.000000
vn -0.923880 0.382683 0.000000
vn -0.923880 -0.382683 0.000000
vn -0.382683 -0.923880 0.000000
vn 0.000000 0.000000 1.000000
vn 0.000000 1.000000 0.000000
vn 0.000000 -1.000000 0.000000
vn 0.000000 1.000000 0.000000
vn 0.000000 -1.000000 0.000000
usemtl skin
f 1/1/1 2/2/1 3/3/1
f 4/4/2 5/5/2 6/6/2
f 4/4/2 6/6/2 7/7/2
f 8/5/3 9/4/3 10/7/3
f 7/8/4 6/9/4 11/10/4
f 7/8/4 11/10/4 10/11/4
f 9/11/5 5/9/5 4/8/5
f 9/12/6 4/13/6 7/14/6
f 9/12/6 7/14/6 10/15/6
f 12/16/7 13/17/7 14/18/7
f 12/16/7 15/19/7 13/17/7
f 12/16/7 16/20/7 15/19/7
f 12/16/7 17/21/7 16/20/7
f 12/16/7 18/22/7 17/21/7
f 12/16/7 19/23/7 18/22/7
f 12/16/7 20/24/7 19/23/7
f 12/16/7 14/18/7 20/24/7
f 14/25/8 13/26/8 21/27/8
f 14/25/8 21/27/8 22/28/8
f 13/29/9 15/30/9 23/30/9
f 13/29/9 23/30/9 21/29/9
f 15/30/10 16/31/10 24/31/10
f 15/30/10 24/31/10 23/30/10
f 16/26/11 17/25/11 25/28/11
f 16/26/11 25/28/11 24/27/11
f 17/25/12 18/32/12 26/33/12
f 17/25/12 26/33/12 25/28/12
f 18/34/13 19/35/13 27/36/13
f 18/34/13 27/36/13 26/37/13
f 19/35/14 20/38/14 28/39/14
f 19/35/14 28/39/14 27/36/14
f 20/32/15 14/25/15 22/28/15
f 20/32/15 22/28/15 28/33/15
f 22/40/16 21/41/16 29/42/16
f 21/41/16 23/43/16 29/42/16
f 23/43/16 24/44/16 29/42/16
f 24/44/16 25/45/16 29/42/16
f 25/45/16 26/46/16 29/42/16
f 26/46/16 27/47/16 29/42/16
f 27/47/16 28/48/16 29/42/16
f 28/48/16 22/40/16 29/42/16
f 30/49/17 31/50/17 32/51/17
f 30/49/17 32/51/17 33/52/17
f 34/53/18 35/54/18 36/55/18
f 34/53/18 36/55/18 37/56/18
f 33/57/19 32/58/19 37/59/19
f 33/57/19 37/59/19 36/60/19
f 35/61/20 34/62/20 31/63/20
f 35/61/20 31/63/20 30/64/20
f 35/65/21 30/66/21 33/67/21
f 35/65/21 33/67/21 36/68/21
f 31/69/22 34/70/22 37/71/22
f 31/69/22 37/71/22 32/72/22
f 38/73/23 39/74/23 40/75/23
f 38/73/23 40/75/23 41/76/23
f 41/77/24 40/78/24 42/79/24
f 41/77/24 42/79/24 43/80/24
f 43/81/25 42/82/25 44/83/25
f 43/81/25 44/83/25 45/84/25
f 45/85/26 44/86/26 46/87/26
f 45/85/26 46/87/26 47/88/26
f 47/89/27 46/90/27 39/74/27
f 47/89/27 39/74/27 38/73/27
f 39/74/28 48/91/28 49/92/28
f 39/74/28 49/92/28 40/75/28
f 40/78/29 49/93/29 50/94/29
f 40/78/29 50/94/29 42/79/29
f 42/82/30 50/95/30 51/96/30
f 42/82/30 51/96/30 44/83/30
f 44/86/31 51/97/31 52/98/31
f 44/86/31 52/98/31 46/87/31
f 46/90/32 52/99/32 48/91/32
f 46/90/32 48/91/32 39/74/32
f 48/100/33 53/101/33 54/102/33
f 48/100/33 54/102/33 49/103/33
f 49/93/34 54/104/34 55/105/34
f 49/93/34 55/105/34 50/94/34
f 50/106/35 55/107/35 56/108/35
f 50/106/35 56/108/35 51/109/35
f 51/97/36 56/110/36 57/111/36
f 51/97/36 57/111/36 52/98/36
f 52/112/37 57/113/37 53/101/37
f 52/112/37 53/101/37 48/100/37
f 53/101/38 58/114/38 59/115/38
f 53/101/38 59/115/38 54/102/38
f 54/104/39 59/116/39 60/117/39
f 54/104/39 60/117/39 55/105/39
f 55/107/40 60/118/40 61/119/40
f 55/107/40 61/119/40 56/108/40
f 56/110/41 61/120/41 62/121/41
f 56/110/41 62/121/41 57/111/41
f 57/113/42 62/122/42 58/114/42
f 57/113/42 58/114/42 53/101/42
f 58/114/43 63/123/43 64/124/43
f 58/114/43 64/124/43 59/115/43
f 59/116/44 64/125/44 65/126/44
f 59/116/44 65/126/44 60/117/44
f 60/118/45 65/127/45 66/128/45
f 60/118/45 66/128/45 61/119/45
f 61/120/46 66/129/46 67/130/46
f 61/120/46 67/130/46 62/121/46
f 62/122/47 67/131/47 63/123/47
f 62/122/47 63/123/47 58/114/47
f 63/123/48 68/132/48 69/133/48
f 63/123/48 69/133/48 64/124/48
f 64/125/49 69/134/49 70/135/49
f 64/125/49 70/135/49 65/126/49
f 65/127/50 70/136/50 71/137/50
f 65/127/50 71/137/50 66/128/50
f 66/129/51 71/138/51 72/139/51
f 66/129/51 72/139/51 67/130/51
f 67/131/52 72/140/52 68/132/52
f 67/131/52 68/132/52 63/123/52
f 68/91/53 73/74/53 74/75/53
f 68/91/53 74/75/53 69/92/53
f 69/134/54 74/141/54 75/142/54
f 69/134/54 75/142/54 70/135/54
f 70/95/55 75/82/55 76/83/55
f 70/95/55 76/83/55 71/96/55
f 71/138/56 76/143/56 77/144/56
f 71/138/56 77/144/56 72/139/56
f 72/99/57 77/90/57 73/74/57
f 72/99/57 73/74/57 68/91/57
f 73/74/58 78/73/58 79/76/58
f 73/74/58 79/76/58 74/75/58
f 74/141/59 79/145/59 80/146/59
f 74/141/59 80/146/59 75/142/59
f 75/82/60 80/81/60 81/84/60
f 75/82/60 81/84/60 76/83/60
f 76/143/61 81/147/61 82/148/61
f 76/143/61 82/148/61 77/144/61
f 77/90/62 82/89/62 78/73/62
f 77/90/62 78/73/62 73/74/62
f 78/73/63 83/149/63 84/150/63
f 78/73/63 84/150/63 79/76/63
f 79/145/64 84/151/64 85/152/64
f 79/145/64 85/152/64 80/146/64
f 80/81/65 85/153/65 86/154/65
f 80/81/65 86/154/65 81/84/65
f 81/147/66 86/155/66 87/156/66
f 81/147/66 87/156/66 82/148/66
f 82/89/67 87/157/67 83/149/67
f 82/89/67 83/149/67 78/73/67
f 83/149/68 88/158/68 89/159/68
f 83/149/68 89/159/68 84/150/68
f 84/151/69 89/160/69 90/161/69
f 84/151/69 90/161/69 85/152/69
f 85/153/70 90/162/70 91/163/70
f 85/153/70 91/163/70 86/154/70
f 86/155/71 91/164/71 92/165/71
f 86/155/71 92/165/71 87/156/71
f 87/157/72 92/166/72 88/158/72
f 87/157/72 88/158/72 83/149/72
f 88/132/73 93/123/73 94/124/73
f 88/132/73 94/124/73 89/133/73
f 89/160/74 94/167/74 95/168/74
f 89/160/74 95/168/74 90/161/74
f 90/136/75 95/127/75 96/128/75
f 90/136/75 96/128/75 91/137/75
f 91/164/76 96/169/76 97/170/76
f 91/164/76 97/170/76 92/165/76
f 92/140/77 97/131/77 93/123/77
f 92/140/77 93/123/77 88/132/77
f 93/123/78 98/114/78 99/115/78
f 93/123/78 99/115/78 94/124/78
f 94/167/79 99/171/79 100/172/79
f 94/167/79 100/172/79 95/168/79
f 95/127/80 100/118/80 101/119/80
f 95/127/80 101/119/80 96/128/80
f 96/169/81 101/173/81 102/174/81
f 96/169/81 102/174/81 97/170/81
f 97/131/82 102/122/82 98/114/82
f 97/131/82 98/114/82 93/123/82
f 98/114/83 103/101/83 104/102/83
f 98/114/83 104/102/83 99/115/83
f 99/171/84 104/175/84 105/176/84
f 99/171/84 105/176/84 100/172/84
f 100/118/85 105/107/85 106/108/85
f 100/118/85 106/108/85 101/119/85
f 101/173/86 106/177/86 107/178/86
f 101/173/86 107/178/86 102/174/86
f 102/122/87 107/113/87 103/101/87
f 102/122/87 103/101/87 98/114/87
f 103/101/88 108/100/88 109/103/88
f 103/101/88 109/103/88 104/102/88
f 104/175/89 109/179/89 110/180/89
f 104/175/89 110/180/89 105/176/89
f 105/107/90 110/106/90 111/109/90
f 105/107/90 111/109/90 106/108/90
f 106/177/91 111/181/91 112/182/91
f 106/177/91 112/182/91 107/178/91
f 107/113/92 112/112/92 108/100/92
f 107/113/92 108/100/92 103/101/92
f 108/158/93 113/149/93 114/150/93
f 108/158/93 114/150/93 109/159/93
f 109/179/94 114/183/94 115/184/94
f 109/179/94 115/184/94 110/180/94
f 110/162/95 115/153/95 116/154/95
f 110/162/95 116/154/95 111/163/95
f 111/181/96 116/185/96 117/186/96
f 111/181/96 117/186/96 112/182/96
f 112/166/97 117/157/97 113/149/97
f 112/166/97 113/149/97 108/158/97
f 113/149/98 38/73/98 41/76/98
f 113/149/98 41/76/98 114/150/98
f 114/183/99 41/77/99 43/80/99
f 114/183/99 43/80/99 115/184/99
f 115/153/100 43/81/100 45/84/100
f 115/153/100 45/84/100 116/154/100
f 116/185/101 45/85/101 47/88/101
f 116/185/101 47/88/101 117/186/101
f 117/157/102 47/89/102 38/73/102
f 117/157/102 38/73/102 113/149/102
f 118/187/103 119/188/103 120/189/103
f 118/187/103 121/190/103 119/188/103
f 118/187/103 122/191/103 121/190/103
f 118/187/103 123/192/103 122/191/103
f 118/187/103 124/193/103 123/192/103
f 118/187/103 125/194/103 124/193/103
f 118/187/103 126/195/103 125/194/103
f 118/187/103 120/189/103 126/195/103
f 120/196/104 119/197/104 127/198/104
f 120/196/104 127/198/104 128/199/104
f 119/200/105 121/201/105 129/202/105
f 119/200/105 129/202/105 127/203/105
f 121/201/106 122/204/106 130/205/106
f 121/201/106 130/205/106 129/202/106
f 122/197/107 123/196/107 131/199/107
f 122/197/107 131/199/107 130/198/107
f 123/196/108 124/206/108 132/207/108
f 123/196/108 132/207/108 131/199/108
f 124/204/109 125/201/109 133/202/109
f 124/204/109 133/202/109 132/205/109
f 125/201/110 126/200/110 134/203/110
f 125/201/110 134/203/110 133/202/110
f 126/206/111 120/196/111 128/199/111
f 126/206/111 128/199/111 134/207/111
f 128/208/112 127/209/112 135/210/112
f 127/209/112 129/211/112 135/210/112
f 129/211/112 130/212/112 135/210/112
f 130/212/112 131/213/112 135/210/112
f 131/213/112 132/214/112 135/210/112
f 132/214/112 133/215/112 135/210/112
f 133/215/112 134/216/112 135/210/112
f 134/216/112 128/208/112 135/210/112
f 136/217/113 137/218/113 138/219/113
f 136/217/113 139/220/113 137/218/113
f 136/217/113 140/221/113 139/220/113
f 136/217/113 141/222/113 140/221/113
f 136/217/113 142/223/113 141/222/113
f 136/217/113 143/224/113 142/223/113
f 136/217/113 144/225/113 143/224/113
f 136/217/113 138/219/113 144/225/113
f 138/226/114 137/227/114 145/228/114
f 138/226/114 145/228/114 146/229/114
f 137/230/115 139/231/115 147/231/115
f 137/230/115 147/231/115 145/230/115
f 139/231/116 140/232/116 148/232/116
f 139/231/116 148/232/116 147/231/116
f 140/227/117 141/226/117 149/229/117
f 140/227/117 149/229/117 148/228/117
f 141/226/118 142/233/118 150/234/118
f 141/226/118 150/234/118 149/229/118
f 142/235/119 143/236/119 151/237/119
f 142/235/119 151/237/119 150/238/119
f 143/236/120 144/239/120 152/240/120
f 143/236/120 152/240/120 151/237/120
f 144/233/121 138/226/121 146/229/121
f 144/233/121 146/229/121 152/234/121
f 146/241/122 145/242/122 153/243/122
f 145/242/122 147/244/122 153/243/122
f 147/244/122 148/245/122 153/243/122
f 148/245/122 149/246/122 153/243/122
f 149/246/122 150/247/122 153/243/122
f 150/247/122 151/248/122 153/243/122
f 151/248/122 152/249/122 153/243/122
f 152/249/122 146/241/122 153/243/122
f 154/250/123 155/251/123 156/252/123
f 154/250/123 156/252/123 157/253/123
f 158/254/124 159/255/124 160/256/124
f 158/254/124 160/256/124 161/257/124
f 157/258/125 156/259/125 161/260/125
f 157/258/125 161/260/125 160/261/125
f 159/262/126 158/263/126 155/264/126
f 159/262/126 155/264/126 154/265/126
f 159/266/127 154/267/127 157/268/127
f 159/266/127 157/268/127 160/269/127
f 155/270/128 158/271/128 161/272/128
f 155/270/128 161/272/128 156/273/128
f 162/274/129 163/275/129 164/276/129
f 162/274/129 164/276/129 165/277/129
f 165/278/130 164/279/130 166/280/130
f 165/278/130 166/280/130 167/281/130
f 167/282/131 166/283/131 168/284/131
f 167/282/131 168/284/131 169/285/131
f 169/286/132 168/287/132 170/288/132
f 169/286/132 170/288/132 171/289/132
f 171/290/133 170/291/133 163/275/133
f 171/290/133 163/275/133 162/274/133
f 163/275/134 172/292/134 173/293/134
f 163/275/134 173/293/134 164/276/134
f 164/279/135 173/294/135 174/295/135
f 164/279/135 174/295/135 166/280/135
f 166/283/136 174/296/136 175/297/136
f 166/283/136 175/297/136 168/284/136
f 168/287/137 175/298/137 176/299/137
f 168/287/137 176/299/137 170/288/137
f 170/291/138 176/300/138 172/292/138
f 170/291/138 172/292/138 163/275/138
f 172/301/139 177/302/139 178/303/139
f 172/301/139 178/303/139 173/304/139
f 173/294/140 178/305/140 179/306/140
f 173/294/140 179/306/140 174/295/140
f 174/307/141 179/308/141 180/309/141
f 174/307/141 180/309/141 175/310/141
f 175/298/142 180/311/142 181/312/142
f 175/298/142 181/312/142 176/299/142
f 176/313/143 181/314/143 177/302/143
f 176/313/143 177/302/143 172/301/143
f 177/302/144 182/315/144 183/316/144
f 177/302/144 183/316/144 178/303/144
f 178/305/145 183/317/145 184/318/145
f 178/305/145 184/318/145 179/306/145
f 179/308/146 184/319/146 185/320/146
f 179/308/146 185/320/146 180/309/146
f 180/311/147 185/321/147 186/322/147
f 180/311/147 186/322/147 181/312/147
f 181/314/148 186/323/148 182/315/148
f 181/314/148 182/315/148 177/302/148
f 182/315/149 187/324/149 188/325/149
f 182/315/149 188/325/149 183/316/149
f 183/317/150 188/326/150 189/327/150
f 183/317/150 189/327/150 184/318/150
f 184/319/151 189/328/151 190/329/151
f 184/319/151 190/329/151 185/320/151
f 185/321/152 190/330/152 191/331/152
f 185/321/152 191/331/152 186/322/152
f 186/323/153 191/332/153 187/324/153
f 186/323/153 187/324/153 182/315/153
f 187/324/154 192/333/154 193/334/154
f 187/324/154 193/334/154 188/325/154
f 188/326/155 193/335/155 194/336/155
f 188/326/155 194/336/155 189/327/155
f 189/328/156 194/337/156 195/338/156
f 189/328/156 195/338/156 190/329/156
f 190/330/157 195/339/157 196/340/157
f 190/330/157 196/340/157 191/331/157
f 191/332/158 196/341/158 192/333/158
f 191/332/158 192/333/158 187/324/158
f 192/292/159 197/275/159 198/276/159
f 192/292/159 198/276/159 193/293/159
f 193/335/160 198/342/160 199/343/160
f 193/335/160 199/343/160 194/336/160
f 194/296/161 199/283/161 200/284/161
f 194/296/161 200/284/161 195/297/161
f 195/339/162 200/344/162 201/345/162
f 195/339/162 201/345/162 196/340/162
f 196/300/163 201/291/163 197/275/163
f 196/300/163 197/275/163 192/292/163
f 197/275/164 202/274/164 203/277/164
f 197/275/164 203/277/164 198/276/164
f 198/342/165 203/346/165 204/347/165
f 198/342/165 204/347/165 199/343/165
f 199/283/166 204/282/166 205/285/166
f 199/283/166 205/285/166 200/284/166
f 200/344/167 205/348/167 206/349/167
f 200/344/167 206/349/167 201/345/167
f 201/291/168 206/290/168 202/274/168
f 201/291/168 202/274/168 197/275/168
f 202/274/169 207/350/169 208/351/169
f 202/274/169 208/351/169 203/277/169
f 203/346/170 208/352/170 209/353/170
f 203/346/170 209/353/170 204/347/170
f 204/282/171 209/354/171 210/355/171
f 204/282/171 210/355/171 205/285/171
f 205/348/172 210/356/172 211/357/172
f 205/348/172 211/357/172 206/349/172
f 206/290/173 211/358/173 207/350/173
f 206/290/173 207/350/173 202/274/173
f 207/350/174 212/359/174 213/360/174
f 207/350/174 213/360/174 208/351/174
f 208/352/175 213/361/175 214/362/175
f 208/352/175 214/362/175 209/353/175
f 209/354/176 214/363/176 215/364/176
f 209/354/176 215/364/176 210/355/176
f 210/356/177 215/365/177 216/366/177
f 210/356/177 216/366/177 211/357/177
f 211/358/178 216/367/178 212/359/178
f 211/358/178 212/359/178 207/350/178
f 212/333/179 217/324/179 218/325/179
f 212/333/179 218/325/179 213/334/179
f 213/361/180 218/368/180 219/369/180
f 213/361/180 219/369/180 214/362/180
f 214/337/181 219/328/181 220/329/181
f 214/337/181 220/329/181 215/338/181
f 215/365/182 220/370/182 221/371/182
f 215/365/182 221/371/182 216/366/182
f 216/341/183 221/332/183 217/324/183
f 216/341/183 217/324/183 212/333/183
f 217/324/184 222/315/184 223/316/184
f 217/324/184 223/316/184 218/325/184
f 218/368/185 223/372/185 224/373/185
f 218/368/185 224/373/185 219/369/185
f 219/328/186 224/319/186 225/320/186
f 219/328/186 225/320/186 220/329/186
f 220/370/187 225/374/187 226/375/187
f 220/370/187 226/375/187 221/371/187
f 221/332/188 226/323/188 222/315/188
f 221/332/188 222/315/188 217/324/188
f 222/315/189 227/302/189 228/303/189
f 222/315/189 228/303/189 223/316/189
f 223/372/190 228/376/190 229/377/190
f 223/372/190 229/377/190 224/373/190
f 224/319/191 229/308/191 230/309/191
f 224/319/191 230/309/191 225/320/191
f 225/374/192 230/378/192 231/379/192
f 225/374/192 231/379/192 226/375/192
f 226/323/193 231/314/193 227/302/193
f 226/323/193 227/302/193 222/315/193
f 227/302/194 232/301/194 233/304/194
f 227/302/194 233/304/194 228/303/194
f 228/376/195 233/380/195 234/381/195
f 228/376/195 234/381/195 229/377/195
f 229/308/196 234/307/196 235/310/196
f 229/308/196 235/310/196 230/309/196
f 230/378/197 235/382/197 236/383/197
f 230/378/197 236/383/197 231/379/197
f 231/314/198 236/313/198 232/301/198
f 231/314/198 232/301/198 227/302/198
f 232/359/199 237/350/199 238/351/199
f 232/359/199 238/351/199 233/360/199
f 233/380/200 238/384/200 239/385/200
f 233/380/200 239/385/200 234/381/200
f 234/363/201 239/354/201 240/355/201
f 234/363/201 240/355/201 235/364/201
f 235/382/202 240/386/202 241/387/202
f 235/382/202 241/387/202 236/383/202
f 236/367/203 241/358/203 237/350/203
f 236/367/203 237/350/203 232/359/203
f 237/350/204 162/274/204 165/277/204
f 237/350/204 165/277/204 238/351/204
f 238/384/205 165/278/205 167/281/205
f 238/384/205 167/281/205 239/385/205
f 239/354/206 167/282/206 169/285/206
f 239/354/206 169/285/206 240/355/206
f 240/386/207 169/286/207 171/289/207
f 240/386/207 171/289/207 241/387/207
f 241/358/208 171/290/208 162/274/208
f 241/358/208 162/274/208 237/350/208
f 242/388/209 243/389/209 244/390/209
f 242/388/209 245/391/209 243/389/209
f 242/388/209 246/392/209 245/391/209
f 242/388/209 247/393/209 246/392/209
f 242/388/209 248/394/209 247/393/209
f 242/388/209 249/395/209 248/394/209
f 242/388/209 250/396/209 249/395/209
f 242/388/209 244/390/209 250/396/209
f 244/397/210 243/398/210 251/399/210
f 244/397/210 251/399/210 252/400/210
f 243/401/211 245/402/211 253/403/211
f 243/401/211 253/403/211 251/404/211
f 245/402/212 246/405/212 254/406/212
f 245/402/212 254/406/212 253/403/212
f 246/398/213 247/397/213 255/400/213
f 246/398/213 255/400/213 254/399/213
f 247/397/214 248/407/214 256/408/214
f 247/397/214 256/408/214 255/400/214
f 248/405/215 249/402/215 257/403/215
f 248/405/215 257/403/215 256/406/215
f 249/402/216 250/401/216 258/404/216
f 249/402/216 258/404/216 257/403/216
f 250/407/217 244/397/217 252/400/217
f 250/407/217 252/400/217 258/408/217
f 252/409/218 251/410/218 259/411/218
f 251/410/218 253/412/218 259/411/218
f 253/412/218 254/413/218 259/411/218
f 254/413/218 255/414/218 259/411/218
f 255/414/218 256/415/218 259/411/218
f 256/415/218 257/416/218 259/411/218
f 257/416/218 258/417/218 259/411/218
f 258/417/218 252/409/218 259/411/218
usemtl interior
f 260/418/219 1/419/219 2/420/219
f 260/418/220 2/420/220 1/419/220
f 260/418/219 2/420/219 3/421/219
f 260/418/220 3/421/220 2/420/220
f 260/418/219 3/421/219 1/419/219
f 260/418/220 1/419/220 3/421/220
f 261/422/221 10/423/221 11/424/221
f 261/422/222 11/424/222 10/423/222
f 261/422/221 11/424/221 6/425/221
f 261/422/222 6/425/222 11/424/222
f 261/422/221 6/425/221 5/426/221
f 261/422/222 5/426/222 6/425/222
f 261/422/221 5/426/221 9/427/221
f 261/422/222 9/427/222 5/426/222
f 261/422/221 9/427/221 8/428/221
f 261/422/222 8/428/222 9/427/222
f 261/422/221 8/428/221 10/423/221
f 261/422/222 10/423/222 8/428/222
