# Bloom frigate, from tools/gen_fleet.py
# Generated by tools. Edit the generator script.
v -0.113815 0.371300 0.642652
v 0.088366 0.427944 1.027499
v -0.113815 0.427944 1.069800
v 0.250502 0.427944 0.908974
v 0.340481 0.427944 0.737701
v 0.340481 0.427944 0.547603
v 0.250502 0.427944 0.376330
v 0.088366 0.427944 0.257806
v -0.113815 0.427944 0.215505
v -0.315996 0.427944 0.257806
v -0.478132 0.427944 0.376330
v -0.568111 0.427944 0.547603
v -0.568111 0.427944 0.737701
v -0.478132 0.427944 0.908974
v -0.315996 0.427944 1.027499
v 0.259766 0.589250 1.353756
v -0.113815 0.589250 1.431918
v 0.559355 0.589250 1.134751
v 0.725614 0.589250 0.818280
v 0.725614 0.589250 0.467024
v 0.559355 0.589250 0.150553
v 0.259766 0.589250 -0.068451
v -0.113815 0.589250 -0.146613
v -0.487396 0.589250 -0.068451
v -0.786985 0.589250 0.150553
v -0.953244 0.589250 0.467024
v -0.953244 0.589250 0.818280
v -0.786985 0.589250 1.134751
v -0.487396 0.589250 1.353756
v 0.374292 0.830662 1.571754
v -0.113815 0.830662 1.673877
v 0.765724 0.830662 1.285610
v 0.982952 0.830662 0.872121
v 0.982952 0.830662 0.413183
v 0.765724 0.830662 -0.000306
v 0.374292 0.830662 -0.286449
v -0.113815 0.830662 -0.388573
v -0.601922 0.830662 -0.286449
v -0.993354 0.830662 -0.000306
v -1.210582 0.830662 0.413183
v -1.210582 0.830662 0.872121
v -0.993354 0.830662 1.285610
v -0.601922 0.830662 1.571754
v 0.414508 1.115427 1.648304
v -0.113815 1.115427 1.758842
v 0.838191 1.115427 1.338585
v 1.073317 1.115427 0.891028
v 1.073317 1.115427 0.394277
v 0.838191 1.115427 -0.053281
v 0.414508 1.115427 -0.363000
v -0.113815 1.115427 -0.473538
v -0.642139 1.115427 -0.363000
v -1.065821 1.115427 -0.053281
v -1.300947 1.115427 0.394277
v -1.300947 1.115427 0.891028
v -1.065821 1.115427 1.338585
v -0.642139 1.115427 1.648304
v 0.374292 1.400192 1.571754
v -0.113815 1.400192 1.673877
v 0.765724 1.400192 1.285610
v 0.982952 1.400192 0.872121
v 0.982952 1.400192 0.413183
v 0.765724 1.400192 -0.000306
v 0.374292 1.400192 -0.286449
v -0.113815 1.400192 -0.388573
v -0.601922 1.400192 -0.286449
v -0.993354 1.400192 -0.000306
v -1.210582 1.400192 0.413183
v -1.210582 1.400192 0.872121
v -0.993354 1.400192 1.285610
v -0.601922 1.400192 1.571754
v 0.259766 1.641604 1.353756
v -0.113815 1.641604 1.431918
v 0.559355 1.641604 1.134751
v 0.725614 1.641604 0.818280
v 0.725614 1.641604 0.467024
v 0.559355 1.641604 0.150553
v 0.259766 1.641604 -0.068451
v -0.113815 1.641604 -0.146613
v -0.487396 1.641604 -0.068451
v -0.786985 1.641604 0.150553
v -0.953244 1.641604 0.467024
v -0.953244 1.641604 0.818280
v -0.786985 1.641604 1.134751
v -0.487396 1.641604 1.353756
v 0.088366 1.802910 1.027499
v -0.113815 1.802910 1.069800
v 0.250502 1.802910 0.908974
v 0.340481 1.802910 0.737701
v 0.340481 1.802910 0.547603
v 0.250502 1.802910 0.376330
v 0.088366 1.802910 0.257806
v -0.113815 1.802910 0.215505
v -0.315996 1.802910 0.257806
v -0.478132 1.802910 0.376330
v -0.568111 1.802910 0.547603
v -0.568111 1.802910 0.737701
v -0.478132 1.802910 0.908974
v -0.315996 1.802910 1.027499
v -0.113815 1.859553 0.642652
v 0.879270 0.414491 0.931555
v 0.875206 0.580389 1.462963
v 0.584990 0.580389 1.410790
v 1.166974 0.580389 1.312156
v 1.348849 0.580389 1.015973
v 1.351360 0.580389 0.687545
v 1.173549 0.580389 0.452321
v 0.883334 0.580389 0.400148
v 0.591566 0.580389 0.550955
v 0.409691 0.580389 0.847138
v 0.407179 0.580389 1.175566
v 0.872694 1.014717 1.791391
v 0.403115 1.014717 1.706973
v 1.344785 1.014717 1.547380
v 1.639064 1.014717 1.068146
v 1.643128 1.014717 0.536738
v 1.355424 1.014717 0.156138
v 0.885845 1.014717 0.071720
v 0.413755 1.014717 0.315730
v 0.119475 1.014717 0.794965
v 0.115411 1.014717 1.326372
v 0.872694 1.551576 1.791391
v 0.403115 1.551576 1.706973
v 1.344785 1.551576 1.547380
v 1.639064 1.551576 1.068146
v 1.643128 1.551576 0.536738
v 1.355424 1.551576 0.156138
v 0.885845 1.551576 0.071720
v 0.413755 1.551576 0.315730
v 0.119475 1.551576 0.794965
v 0.115411 1.551576 1.326372
v 0.875206 1.985905 1.462963
v 0.584990 1.985905 1.410790
v 1.166974 1.985905 1.312156
v 1.348849 1.985905 1.015973
v 1.351360 1.985905 0.687545
v 1.173549 1.985905 0.452321
v 0.883334 1.985905 0.400148
v 0.591566 1.985905 0.550955
v 0.409691 1.985905 0.847138
v 0.407179 1.985905 1.175566
v 0.879270 2.151803 0.931555
v 0.428062 0.681386 0.894678
v 0.399253 0.642585 0.807308
v 0.406403 0.579416 0.849714
v 0.426773 0.606852 0.911494
v 0.463853 0.589895 0.752356
v 0.452082 0.542158 0.810857
v 0.557262 0.576007 0.784775
v 0.518132 0.532338 0.833781
v 0.586071 0.614809 0.872145
v 0.538503 0.559775 0.895561
v 0.521471 0.667498 0.927096
v 0.492823 0.597032 0.934417
v 0.464082 0.545115 0.886269
v 1.357021 1.087080 0.248300
v 1.318548 1.143776 0.242084
v 1.288098 1.114314 0.273350
v 1.315303 1.074224 0.277744
v 1.260196 1.141931 0.205686
v 1.246837 1.113010 0.247612
v 1.240317 1.083390 0.175502
v 1.232780 1.071615 0.226269
v 1.278790 1.026694 0.181718
v 1.259985 1.031525 0.230664
v 1.337142 1.028539 0.218116
v 1.301246 1.032830 0.256401
v 1.263841 1.067818 0.268619
v 0.894499 0.499405 0.897865
v 0.953353 0.499352 0.932749
v 0.934640 0.451904 0.944598
v 0.893024 0.451941 0.919932
v 0.952609 0.502267 1.001099
v 0.934114 0.453965 0.992929
v 0.893011 0.505236 1.034565
v 0.891971 0.456064 1.016593
v 0.834156 0.505289 0.999681
v 0.850355 0.456102 0.991926
v 0.834900 0.502374 0.931331
v 0.850881 0.454040 0.943596
v 0.891977 0.433989 0.969110
v -1.018347 0.422970 1.183965
v -0.890565 0.499958 1.596464
v -1.129210 0.499958 1.626499
v -0.700728 0.499958 1.408868
v -0.632211 0.499958 1.135367
v -0.711184 0.499958 0.880428
v -0.907483 0.499958 0.741431
v -1.146129 0.499958 0.771466
v -1.335966 0.499958 0.959062
v -1.404483 0.499958 1.232563
v -1.325509 0.499958 1.487501
v -0.811591 0.701514 1.851402
v -1.197728 0.701514 1.900000
v -0.504429 0.701514 1.547865
v -0.393565 0.701514 1.105331
v -0.521347 0.701514 0.692833
v -0.838966 0.701514 0.467930
v -1.225102 0.701514 0.516528
v -1.532265 0.701514 0.820065
v -1.643128 0.701514 1.262599
v -1.515346 0.701514 1.675097
v -0.811591 0.950652 1.851402
v -1.197728 0.950652 1.900000
v -0.504429 0.950652 1.547865
v -0.393565 0.950652 1.105331
v -0.521347 0.950652 0.692833
v -0.838966 0.950652 0.467930
v -1.225102 0.950652 0.516528
v -1.532265 0.950652 0.820065
v -1.643128 0.950652 1.262599
v -1.515346 0.950652 1.675097
v -0.890565 1.152209 1.596464
v -1.129210 1.152209 1.626499
v -0.700728 1.152209 1.408868
v -0.632211 1.152209 1.135367
v -0.711184 1.152209 0.880428
v -0.907483 1.152209 0.741431
v -1.146129 1.152209 0.771466
v -1.335966 1.152209 0.959062
v -1.404483 1.152209 1.232563
v -1.325509 1.152209 1.487501
v -1.018347 1.229196 1.183965
v -0.762076 0.483104 1.283560
v -0.708002 0.491742 1.312211
v -0.728654 0.460487 1.341089
v -0.766890 0.454379 1.320830
v -0.706024 0.522194 1.365952
v -0.727256 0.482020 1.379090
v -0.758120 0.544008 1.391044
v -0.764093 0.497444 1.396832
v -0.812194 0.535370 1.362394
v -0.802329 0.491336 1.376574
v -0.814172 0.504918 1.308652
v -0.803727 0.469804 1.338573
v -0.767726 0.460319 1.367749
v -1.346519 1.169379 1.331105
v -1.386798 1.115375 1.409479
v -1.366456 1.182429 1.446179
v -1.337974 1.220616 1.390760
v -1.325328 1.079135 1.484242
v -1.322990 1.156804 1.499044
v -1.223580 1.096900 1.480631
v -1.251043 1.169366 1.496491
v -1.183301 1.150905 1.402257
v -1.222562 1.207553 1.441072
v -1.244771 1.187144 1.327494
v -1.266027 1.233178 1.388207
v -1.298427 1.220610 1.459265
v -0.916814 0.462673 1.136012
v -0.927387 0.463669 1.241847
v -0.952859 0.388350 1.224356
v -0.945382 0.387646 1.149519
v -1.024334 0.464293 1.285607
v -1.021410 0.388792 1.255298
v -1.110708 0.463922 1.223531
v -1.082486 0.388529 1.211404
v -1.100134 0.462926 1.117695
v -1.075009 0.387825 1.136567
v -1.003188 0.462302 1.073935
v -1.006457 0.387384 1.105624
v -1.014006 0.356935 1.180747
v 0.400822 0.000000 0.050285
v 0.504793 0.114386 0.372218
v 0.286408 0.114386 0.357846
v 0.683465 0.114386 0.263623
v 0.754176 0.114386 0.073540
v 0.689918 0.114386 -0.125426
v 0.515235 0.114386 -0.257276
v 0.296850 0.114386 -0.271648
v 0.118179 0.114386 -0.163053
v 0.047467 0.114386 0.027030
v 0.111725 0.114386 0.225996
v 0.569051 0.413852 0.571184
v 0.215697 0.413852 0.547929
v 0.858148 0.413852 0.395473
v 0.972561 0.413852 0.087912
v 0.868590 0.413852 -0.234021
v 0.585947 0.413852 -0.447359
v 0.232592 0.413852 -0.470614
v -0.056504 0.413852 -0.294903
v -0.170918 0.413852 0.012658
v -0.066946 0.413852 0.334591
v 0.569051 0.784012 0.571184
v 0.215697 0.784012 0.547929
v 0.858148 0.784012 0.395473
v 0.972561 0.784012 0.087912
v 0.868590 0.784012 -0.234021
v 0.585947 0.784012 -0.447359
v 0.232592 0.784012 -0.470614
v -0.056504 0.784012 -0.294903
v -0.170918 0.784012 0.012658
v -0.066946 0.784012 0.334591
v 0.504793 1.083478 0.372218
v 0.286408 1.083478 0.357846
v 0.683465 1.083478 0.263623
v 0.754176 1.083478 0.073540
v 0.689918 1.083478 -0.125426
v 0.515235 1.083478 -0.257276
v 0.296850 1.083478 -0.271648
v 0.118179 1.083478 -0.163053
v 0.047467 1.083478 0.027030
v 0.111725 1.083478 0.225996
v 0.400822 1.197863 0.050285
v 0.820994 0.149428 0.087100
v 0.889441 0.196340 0.159722
v 0.838881 0.152517 0.211163
v 0.790481 0.119345 0.159811
v 0.852821 0.276192 0.226373
v 0.812987 0.208981 0.258293
v 0.747755 0.309132 0.220402
v 0.738694 0.232273 0.254071
v 0.679308 0.262220 0.147780
v 0.690294 0.199101 0.202719
v 0.715927 0.182368 0.081129
v 0.716188 0.142637 0.155589
v 0.756392 0.153661 0.228973
v 0.479124 0.848997 -0.395907
v 0.405359 0.913212 -0.452551
v 0.370851 0.914402 -0.373240
v 0.423012 0.868996 -0.333186
v 0.301293 0.874505 -0.473661
v 0.297266 0.887033 -0.388167
v 0.270993 0.771584 -0.438127
v 0.275841 0.814257 -0.363040
v 0.344759 0.707370 -0.381483
v 0.328001 0.768850 -0.322987
v 0.448825 0.746076 -0.360373
v 0.401587 0.796220 -0.308060
v 0.338809 0.854606 -0.319572
v 0.473659 0.174989 0.330414
v 0.558199 0.152116 0.336806
v 0.533346 0.125401 0.393248
v 0.473567 0.141574 0.388728
v 0.609456 0.189903 0.397270
v 0.569590 0.152120 0.436002
v 0.576173 0.250563 0.451341
v 0.546056 0.195013 0.474236
v 0.491633 0.273435 0.444949
v 0.486277 0.211186 0.469716
v 0.440376 0.235648 0.384485
v 0.450033 0.184467 0.426962
v 0.503555 0.149869 0.448300
v 0.274647 0.931245 0.310020
v 0.503849 1.071801 0.796378
v 0.262429 1.071801 0.905125
v 0.657722 1.071801 0.501859
v 0.665273 1.071801 0.134064
v 0.523618 1.071801 -0.166522
v 0.286864 1.071801 -0.285085
v 0.045444 1.071801 -0.176339
v -0.108428 1.071801 0.118180
v -0.115979 1.071801 0.485975
v 0.025676 1.071801 0.786561
v 0.645504 1.439783 1.096964
v 0.254878 1.439783 1.272920
v 0.894475 1.439783 0.620423
v 0.906693 1.439783 0.025318
v 0.677490 1.439783 -0.461041
v 0.294415 1.439783 -0.652880
v -0.096211 1.439783 -0.476925
v -0.345182 1.439783 -0.000383
v -0.357399 1.439783 0.594722
v -0.128197 1.439783 1.081080
v 0.645504 1.894634 1.096964
v 0.254878 1.894634 1.272920
v 0.894475 1.894634 0.620423
v 0.906693 1.894634 0.025318
v 0.677490 1.894634 -0.461041
v 0.294415 1.894634 -0.652880
v -0.096211 1.894634 -0.476925
v -0.345182 1.894634 -0.000383
v -0.357399 1.894634 0.594722
v -0.128197 1.894634 1.081080
v 0.503849 2.262616 0.796378
v 0.262429 2.262616 0.905125
v 0.657722 2.262616 0.501859
v 0.665273 2.262616 0.134064
v 0.523618 2.262616 -0.166522
v 0.286864 2.262616 -0.285085
v 0.045444 2.262616 -0.176339
v -0.108428 2.262616 0.118180
v -0.115979 2.262616 0.485975
v 0.025676 2.262616 0.786561
v 0.274647 2.403173 0.310020
v 0.381076 0.996699 0.230862
v 0.479787 1.004599 0.273084
v 0.454135 0.933621 0.306140
v 0.384336 0.928035 0.276285
v 0.491945 1.025179 0.378049
v 0.462732 0.948173 0.380362
v 0.405391 1.037860 0.440791
v 0.401529 0.957140 0.424728
v 0.306680 1.029960 0.398569
v 0.331730 0.951554 0.394872
v 0.294523 1.009380 0.293605
v 0.323133 0.937001 0.320651
v 0.392808 0.911649 0.356587
v -0.089874 1.798915 -0.340274
v -0.177890 1.821662 -0.344401
v -0.172160 1.802631 -0.277647
v -0.109923 1.786547 -0.274729
v -0.241854 1.757147 -0.339135
v -0.217389 1.757012 -0.273923
v -0.217802 1.669885 -0.329741
v -0.200381 1.695309 -0.267281
v -0.129786 1.647139 -0.325614
v -0.138145 1.679225 -0.264363
v -0.065822 1.711654 -0.330881
v -0.092915 1.724844 -0.268087
v -0.155696 1.743632 -0.244495
v 0.397375 2.307490 0.339682
v 0.444366 2.314839 0.301029
v 0.427342 2.358510 0.302867
v 0.394115 2.353313 0.330199
v 0.433787 2.325810 0.241667
v 0.419862 2.366267 0.260892
v 0.376219 2.329433 0.220957
v 0.379155 2.368829 0.246248
v 0.329229 2.322084 0.259610
v 0.345928 2.363632 0.273580
v 0.339807 2.311112 0.318972
v 0.353408 2.355874 0.315555
v 0.386568 2.378720 0.291497
v 0.391193 1.453016 -1.898325
v 0.424991 1.433495 -1.896649
v 0.391193 1.413951 -1.898021
v 0.424991 1.472561 -1.896953
v 0.391193 1.492081 -1.898629
v 0.357394 1.472537 -1.900000
v 0.357394 1.433471 -1.899696
v 0.402570 1.413732 -0.101133
v 0.310393 1.360429 -0.104873
v 0.402570 1.520274 -0.101963
v 0.310393 1.573513 -0.106532
v 0.218215 1.520210 -0.110272
v 0.218215 1.413668 -0.109442
v 0.310393 1.466971 -0.105702
v 0.000771 0.647091 -1.472734
v 0.034369 0.627702 -1.468103
v 0.000771 0.608046 -1.471430
v 0.034369 0.666746 -1.469406
v 0.000771 0.686136 -1.474037
v -0.032826 0.666481 -1.477364
v -0.032826 0.627436 -1.476061
v -0.066563 0.638961 -0.119384
v -0.158193 0.585356 -0.128459
v -0.066563 0.745447 -0.122939
v -0.158193 0.798328 -0.135568
v -0.249823 0.744723 -0.144643
v -0.249823 0.638237 -0.141089
v -0.158193 0.691842 -0.132014
v -0.111865 1.611276 -0.975032
v -0.078033 1.591861 -0.977192
v -0.111865 1.572490 -0.979710
v -0.078033 1.630647 -0.972514
v -0.111865 1.650062 -0.970355
v -0.145697 1.630690 -0.972873
v -0.145697 1.591905 -0.977551
v -0.024001 1.459581 -0.162114
v -0.116271 1.406751 -0.168981
v -0.024001 1.565360 -0.149357
v -0.116271 1.618309 -0.143468
v -0.208541 1.565478 -0.150336
v -0.208541 1.459699 -0.163092
v -0.116271 1.512530 -0.156225
vt 0.500000 0.578125
vt 0.518628 0.605061
vt 0.500000 0.608022
vt 0.533566 0.596766
vt 0.541856 0.584778
vt 0.541856 0.571472
vt 0.533566 0.559484
vt 0.518628 0.551189
vt 0.500000 0.548228
vt 0.481372 0.551189
vt 0.466434 0.559484
vt 0.458144 0.571472
vt 0.458144 0.584778
vt 0.466434 0.596766
vt 0.481372 0.605061
vt 0.534419 0.627897
vt 0.500000 0.633368
vt 0.562022 0.612568
vt 0.577340 0.590418
vt 0.577340 0.565832
vt 0.562022 0.543682
vt 0.534419 0.528353
vt 0.500000 0.522882
vt 0.465581 0.528353
vt 0.437978 0.543682
vt 0.422660 0.565832
vt 0.422660 0.590418
vt 0.437978 0.612568
vt 0.465581 0.627897
vt 0.544971 0.643155
vt 0.500000 0.650303
vt 0.581035 0.623127
vt 0.601049 0.594186
vt 0.601049 0.562064
vt 0.581035 0.533123
vt 0.544971 0.513095
vt 0.500000 0.505947
vt 0.455029 0.513095
vt 0.418965 0.533123
vt 0.398951 0.562064
vt 0.398951 0.594186
vt 0.418965 0.623127
vt 0.455029 0.643155
vt 0.726562 0.548228
vt 0.771534 0.548228
vt 0.775239 0.578125
vt 0.726562 0.578125
vt 0.807598 0.548228
vt 0.814274 0.578125
vt 0.789566 0.548228
vt 0.749048 0.548228
vt 0.750901 0.578125
vt 0.794757 0.578125
vt 0.704077 0.548228
vt 0.702224 0.578125
vt 0.663559 0.548228
vt 0.658368 0.578125
vt 0.807598 0.548228
vt 0.771534 0.548228
vt 0.775239 0.578125
vt 0.814274 0.578125
vt 0.726562 0.548228
vt 0.726562 0.578125
vt 0.681591 0.548228
vt 0.677886 0.578125
vt 0.645527 0.548228
vt 0.638851 0.578125
vt 0.645527 0.548228
vt 0.681591 0.548228
vt 0.677886 0.578125
vt 0.638851 0.578125
vt 0.771534 0.608022
vt 0.726562 0.608022
vt 0.807598 0.608022
vt 0.749048 0.608022
vt 0.789566 0.608022
vt 0.704077 0.608022
vt 0.663559 0.608022
vt 0.771534 0.608022
vt 0.807598 0.608022
vt 0.726562 0.608022
vt 0.681591 0.608022
vt 0.645527 0.608022
vt 0.681591 0.608022
vt 0.645527 0.608022
vt 0.500000 0.578125
vt 0.499418 0.626409
vt 0.457863 0.621668
vt 0.541196 0.612707
vt 0.567238 0.585795
vt 0.567597 0.555954
vt 0.542137 0.534582
vt 0.500582 0.529841
vt 0.458804 0.543543
vt 0.432762 0.570455
vt 0.432403 0.600296
vt 0.684425 0.514921
vt 0.725981 0.514921
vt 0.725621 0.553983
vt 0.658383 0.553983
vt 0.767758 0.514921
vt 0.793218 0.553983
vt 0.774977 0.514921
vt 0.737301 0.514921
vt 0.743937 0.553983
vt 0.804898 0.553983
vt 0.695523 0.514921
vt 0.676340 0.553983
vt 0.665602 0.514921
vt 0.627926 0.553983
vt 0.768700 0.514921
vt 0.727144 0.514921
vt 0.727504 0.553983
vt 0.794742 0.553983
vt 0.685367 0.514921
vt 0.659907 0.553983
vt 0.678148 0.514921
vt 0.715824 0.514921
vt 0.709188 0.553983
vt 0.648227 0.553983
vt 0.757602 0.514921
vt 0.776785 0.553983
vt 0.787523 0.514921
vt 0.825199 0.553983
vt 0.725621 0.602267
vt 0.658383 0.602267
vt 0.793218 0.602267
vt 0.743937 0.602267
vt 0.804898 0.602267
vt 0.676340 0.602267
vt 0.627926 0.602267
vt 0.727504 0.602267
vt 0.794742 0.602267
vt 0.659907 0.602267
vt 0.709188 0.602267
vt 0.648227 0.602267
vt 0.776785 0.602267
vt 0.825199 0.602267
vt 0.725981 0.641329
vt 0.684425 0.641329
vt 0.767758 0.641329
vt 0.737301 0.641329
vt 0.774977 0.641329
vt 0.695523 0.641329
vt 0.665602 0.641329
vt 0.727144 0.641329
vt 0.768700 0.641329
vt 0.685367 0.641329
vt 0.715824 0.641329
vt 0.678148 0.641329
vt 0.757602 0.641329
vt 0.787523 0.641329
vt 0.745162 0.476562
vt 0.700172 0.452157
vt 0.722008 0.412424
vt 0.753821 0.429681
vt 0.671875 0.419015
vt 0.701999 0.388989
vt 0.602731 0.382812
vt 0.649606 0.399506
vt 0.629969 0.424741
vt 0.596823 0.412937
vt 0.688569 0.410280
vt 0.733559 0.434686
vt 0.745616 0.400070
vt 0.713803 0.382812
vt 0.765625 0.434686
vt 0.733207 0.467827
vt 0.718831 0.423504
vt 0.741754 0.400070
vt 0.686332 0.476562
vt 0.685685 0.429681
vt 0.740832 0.390849
vt 0.573900 0.432946
vt 0.602845 0.451769
vt 0.640192 0.456554
vt 0.704408 0.390849
vt 0.101562 0.329602
vt 0.072531 0.375000
vt 0.049554 0.351409
vt 0.070083 0.319309
vt 0.072531 0.342302
vt 0.028500 0.308926
vt 0.018419 0.347370
vt 0.049554 0.370970
vt 0.035489 0.373523
vt 0.007812 0.326648
vt 0.054363 0.317219
vt 0.073933 0.350365
vt 0.013512 0.281250
vt 0.058392 0.285118
vt 0.042531 0.286949
vt 0.086562 0.320324
vt 0.059476 0.355430
vt 0.028341 0.331830
vt 0.086562 0.282727
vt 0.059476 0.286163
vt 0.031250 0.314179
vt 0.018419 0.350365
vt 0.093195 0.314179
vt 0.028341 0.285118
vt 0.055273 0.367264
vt 0.101562 0.367194
vt 0.086844 0.304806
vt 0.054113 0.304855
vt 0.031736 0.367194
vt 0.078611 0.371027
vt 0.073008 0.307516
vt 0.039862 0.304806
vt 0.100977 0.371027
vt 0.054102 0.374930
vt 0.053285 0.310276
vt 0.086431 0.307516
vt 0.007812 0.375000
vt 0.020553 0.310325
vt 0.077639 0.375000
vt 0.030764 0.371167
vt 0.039175 0.307615
vt 0.072320 0.310325
vt 0.008398 0.371167
vt 0.020967 0.307615
vt 0.054113 0.296383
vt 0.086844 0.313300
vt 0.053289 0.330110
vt 0.086431 0.346446
vt 0.053285 0.362675
vt 0.020553 0.345758
vt 0.020967 0.312612
vt 0.500000 0.578125
vt 0.522370 0.623132
vt 0.480592 0.626409
vt 0.555603 0.602664
vt 0.567597 0.572823
vt 0.553772 0.545007
vt 0.519408 0.529841
vt 0.477630 0.533118
vt 0.444397 0.553586
vt 0.432403 0.583427
vt 0.446228 0.611243
vt 0.536195 0.650948
vt 0.468597 0.656250
vt 0.589967 0.617829
vt 0.609375 0.569545
vt 0.587005 0.524539
vt 0.531403 0.500000
vt 0.463805 0.505302
vt 0.410033 0.538421
vt 0.390625 0.586705
vt 0.412995 0.631711
vt 0.695160 0.553983
vt 0.762757 0.553983
vt 0.762757 0.602267
vt 0.695160 0.602267
vt 0.816530 0.553983
vt 0.816530 0.602267
vt 0.782149 0.553983
vt 0.714551 0.553983
vt 0.714551 0.602267
vt 0.782149 0.602267
vt 0.651542 0.553983
vt 0.651542 0.602267
vt 0.813568 0.553983
vt 0.757965 0.553983
vt 0.757965 0.602267
vt 0.813568 0.602267
vt 0.690368 0.553983
vt 0.690368 0.602267
vt 0.636595 0.553983
vt 0.636595 0.602267
vt 0.670976 0.553983
vt 0.738574 0.553983
vt 0.738574 0.602267
vt 0.670976 0.602267
vt 0.801583 0.553983
vt 0.801583 0.602267
vt 0.639557 0.553983
vt 0.639557 0.602267
vt 0.052973 0.281250
vt 0.099848 0.304962
vt 0.081945 0.328864
vt 0.048800 0.312097
vt 0.031525 0.320331
vt 0.076004 0.352183
vt 0.086878 0.310162
vt 0.055426 0.287639
vt 0.101562 0.352183
vt 0.056402 0.375000
vt 0.051224 0.326296
vt 0.083158 0.310162
vt 0.009527 0.365965
vt 0.018079 0.319907
vt 0.073059 0.365965
vt 0.028580 0.334113
vt 0.053344 0.297384
vt 0.084795 0.319907
vt 0.007812 0.302017
vt 0.016866 0.326781
vt 0.048075 0.350929
vt 0.083158 0.360316
vt 0.048075 0.287463
vt 0.018079 0.358233
vt 0.009786 0.336172
vt 0.052616 0.303305
vt 0.072672 0.344114
vt 0.042387 0.367355
vt 0.093473 0.281250
vt 0.101562 0.328519
vt 0.036131 0.281250
vt 0.083006 0.292062
vt 0.070354 0.336164
vt 0.037209 0.328519
vt 0.091500 0.292062
vt 0.048669 0.324929
vt 0.069882 0.359405
vt 0.100167 0.336164
vt 0.007812 0.346984
vt 0.040991 0.375000
vt 0.073244 0.281250
vt 0.026369 0.283223
vt 0.030305 0.315824
vt 0.063451 0.314429
vt 0.017184 0.346110
vt 0.048525 0.353261
vt 0.017184 0.344114
vt 0.048525 0.367351
vt 0.070354 0.373605
vt 0.083475 0.343319
vt 0.699369 0.475148
vt 0.746244 0.476017
vt 0.738497 0.410246
vt 0.705351 0.409631
vt 0.760513 0.476017
vt 0.713638 0.476562
vt 0.715051 0.410631
vt 0.748197 0.410246
vt 0.671875 0.476238
vt 0.685521 0.410402
vt 0.738131 0.476238
vt 0.691256 0.475369
vt 0.699615 0.409787
vt 0.732760 0.410402
vt 0.676987 0.475369
vt 0.723862 0.474824
vt 0.722281 0.409402
vt 0.689136 0.409787
vt 0.765625 0.475148
vt 0.751812 0.409631
vt 0.650250 0.416289
vt 0.646635 0.449434
vt 0.617069 0.430120
vt 0.613489 0.463139
vt 0.583958 0.443698
vt 0.587573 0.410552
vt 0.620719 0.396848
vt 0.500000 0.578125
vt 0.519890 0.626409
vt 0.478112 0.624253
vt 0.554070 0.610122
vt 0.567597 0.581613
vt 0.555305 0.551772
vt 0.521888 0.531997
vt 0.480110 0.529841
vt 0.445930 0.546128
vt 0.432403 0.574637
vt 0.444695 0.604478
vt 0.704675 0.514921
vt 0.746452 0.514921
vt 0.758745 0.553983
vt 0.691148 0.553983
vt 0.780633 0.514921
vt 0.814050 0.553983
vt 0.771358 0.514921
vt 0.731445 0.514921
vt 0.734463 0.553983
vt 0.799043 0.553983
vt 0.689668 0.514921
vt 0.666866 0.553983
vt 0.781867 0.514921
vt 0.748450 0.514921
vt 0.761977 0.553983
vt 0.816048 0.553983
vt 0.706673 0.514921
vt 0.694380 0.553983
vt 0.672492 0.514921
vt 0.639075 0.553983
vt 0.681767 0.514921
vt 0.721680 0.514921
vt 0.718662 0.553983
vt 0.654082 0.553983
vt 0.763457 0.514921
vt 0.786259 0.553983
vt 0.671258 0.514921
vt 0.637077 0.553983
vt 0.758745 0.602267
vt 0.691148 0.602267
vt 0.814050 0.602267
vt 0.734463 0.602267
vt 0.799043 0.602267
vt 0.666866 0.602267
vt 0.761977 0.602267
vt 0.816048 0.602267
vt 0.694380 0.602267
vt 0.639075 0.602267
vt 0.718662 0.602267
vt 0.654082 0.602267
vt 0.786259 0.602267
vt 0.637077 0.602267
vt 0.746452 0.641329
vt 0.704675 0.641329
vt 0.780633 0.641329
vt 0.731445 0.641329
vt 0.771358 0.641329
vt 0.689668 0.641329
vt 0.748450 0.641329
vt 0.781867 0.641329
vt 0.706673 0.641329
vt 0.672492 0.641329
vt 0.721680 0.641329
vt 0.681767 0.641329
vt 0.763457 0.641329
vt 0.671258 0.641329
vt 0.633525 0.385972
vt 0.664062 0.424402
vt 0.641505 0.451623
vt 0.619912 0.424449
vt 0.713464 0.420846
vt 0.748734 0.460291
vt 0.765625 0.427090
vt 0.740685 0.399198
vt 0.749287 0.460291
vt 0.702412 0.476562
vt 0.698370 0.438596
vt 0.731515 0.427090
vt 0.745575 0.476562
vt 0.707145 0.453389
vt 0.736217 0.422210
vt 0.763391 0.438596
vt 0.671875 0.413944
vt 0.711277 0.394318
vt 0.586650 0.382812
vt 0.586767 0.422215
vt 0.604703 0.461047
vt 0.743068 0.399198
vt 0.706266 0.399763
vt 0.676777 0.422210
vt 0.575214 0.447155
vt 0.101562 0.325268
vt 0.068336 0.293201
vt 0.052792 0.338101
vt 0.076287 0.360775
vt 0.021461 0.281250
vt 0.019647 0.329650
vt 0.007812 0.356933
vt 0.027929 0.310328
vt 0.070437 0.329651
vt 0.056213 0.362606
vt 0.059996 0.281250
vt 0.093112 0.309090
vt 0.041039 0.281250
vt 0.087914 0.298777
vt 0.066637 0.321484
vt 0.033491 0.309090
vt 0.071947 0.298777
vt 0.051830 0.345383
vt 0.087338 0.354439
vt 0.101562 0.321484
vt 0.076287 0.354439
vt 0.052792 0.375000
vt 0.038359 0.347923
vt 0.038359 0.368483
vt 0.095045 0.347923
vt 0.009996 0.329651
vt 0.026267 0.281250
vt 0.073142 0.285417
vt 0.059361 0.322208
vt 0.026216 0.319262
vt 0.101562 0.324830
vt 0.079458 0.350077
vt 0.051392 0.322099
vt 0.086639 0.360515
vt 0.101562 0.325335
vt 0.076640 0.298171
vt 0.083108 0.360515
vt 0.036233 0.375000
vt 0.033263 0.335578
vt 0.066409 0.325335
vt 0.082472 0.375000
vt 0.043059 0.351069
vt 0.070747 0.318656
vt 0.098616 0.335578
vt 0.007812 0.312654
vt 0.045824 0.291493
vt 0.042843 0.358094
vt 0.079458 0.298171
vt 0.042843 0.296745
vt 0.013167 0.318656
vt 0.013167 0.344184
vt 0.500000 0.578125
vt 0.539663 0.617586
vt 0.497886 0.626409
vt 0.566291 0.593690
vt 0.567597 0.563849
vt 0.543084 0.539461
vt 0.502114 0.529841
vt 0.460337 0.538664
vt 0.433709 0.562560
vt 0.432403 0.592401
vt 0.456916 0.616789
vt 0.724448 0.514921
vt 0.766226 0.514921
vt 0.790739 0.553983
vt 0.723142 0.553983
vt 0.781808 0.514921
vt 0.748353 0.514921
vt 0.761821 0.553983
vt 0.815951 0.553983
vt 0.706576 0.514921
vt 0.694223 0.553983
vt 0.672433 0.514921
vt 0.638978 0.553983
vt 0.503421 0.500000
vt 0.569712 0.515565
vt 0.728677 0.514921
vt 0.686899 0.514921
vt 0.662386 0.553983
vt 0.729983 0.553983
vt 0.671317 0.514921
vt 0.704772 0.514921
vt 0.691304 0.553983
vt 0.637174 0.553983
vt 0.746549 0.514921
vt 0.758902 0.553983
vt 0.780692 0.514921
vt 0.814147 0.553983
vt 0.496579 0.656250
vt 0.430288 0.640685
vt 0.790739 0.602267
vt 0.723142 0.602267
vt 0.761821 0.602267
vt 0.815951 0.602267
vt 0.694223 0.602267
vt 0.638978 0.602267
vt 0.796274 0.553983
vt 0.729983 0.602267
vt 0.796274 0.602267
vt 0.662386 0.602267
vt 0.691304 0.602267
vt 0.637174 0.602267
vt 0.758902 0.602267
vt 0.814147 0.602267
vt 0.656851 0.553983
vt 0.656851 0.602267
vt 0.766226 0.641329
vt 0.724448 0.641329
vt 0.748353 0.641329
vt 0.781808 0.641329
vt 0.706576 0.641329
vt 0.672433 0.641329
vt 0.686899 0.641329
vt 0.728677 0.641329
vt 0.704772 0.641329
vt 0.671317 0.641329
vt 0.746549 0.641329
vt 0.780692 0.641329
vt 0.048914 0.344426
vt 0.095789 0.350294
vt 0.083608 0.297571
vt 0.050462 0.293422
vt 0.026668 0.350294
vt 0.073543 0.365581
vt 0.074576 0.308381
vt 0.041430 0.297571
vt 0.101562 0.365581
vt 0.060461 0.375000
vt 0.058627 0.315041
vt 0.087690 0.308381
vt 0.013586 0.369132
vt 0.025481 0.310892
vt 0.082707 0.369132
vt 0.035832 0.353845
vt 0.047910 0.300082
vt 0.081056 0.310892
vt 0.007812 0.353845
vt 0.021399 0.300082
vt 0.050462 0.301535
vt 0.083608 0.314868
vt 0.054485 0.337396
vt 0.087690 0.348013
vt 0.058627 0.367826
vt 0.025481 0.354493
vt 0.021399 0.321348
vt 0.651253 0.386685
vt 0.604378 0.382812
vt 0.607430 0.445453
vt 0.640576 0.448191
vt 0.570312 0.387755
vt 0.583342 0.448947
vt 0.676817 0.441906
vt 0.685632 0.395031
vt 0.744243 0.408688
vt 0.738010 0.441834
vt 0.583122 0.396569
vt 0.629997 0.400442
vt 0.625545 0.457918
vt 0.592400 0.455180
vt 0.689504 0.382812
vt 0.684562 0.417469
vt 0.743486 0.424554
vt 0.746981 0.400048
vt 0.675748 0.464344
vt 0.737253 0.457699
vt 0.742138 0.457699
vt 0.708992 0.466340
vt 0.717760 0.434646
vt 0.684905 0.441834
vt 0.693962 0.408688
vt 0.727108 0.400048
vt 0.751196 0.424554
vt 0.727363 0.382812
vt 0.765625 0.392485
vt 0.751764 0.449962
vt 0.724708 0.443123
vt 0.735103 0.392485
vt 0.688228 0.406925
vt 0.703409 0.460173
vt 0.736555 0.449962
vt 0.757012 0.406925
vt 0.710137 0.411692
vt 0.712527 0.463544
vt 0.745673 0.460173
vt 0.671875 0.402020
vt 0.685472 0.456704
vt 0.702397 0.402020
vt 0.749272 0.387580
vt 0.746574 0.446494
vt 0.713428 0.456704
vt 0.680488 0.387580
vt 0.691563 0.446494
vt 0.623146 0.469074
vt 0.650201 0.447492
vt 0.617001 0.438514
vt 0.644111 0.414347
vt 0.610965 0.402783
vt 0.583910 0.424365
vt 0.590000 0.457511
vt 0.800182 0.567892
vt 0.835938 0.553578
vt 0.800182 0.539246
vt 0.835938 0.582224
vt 0.800182 0.596538
vt 0.764426 0.582206
vt 0.764426 0.553560
vt 0.573619 0.500172
vt 0.609375 0.500291
vt 0.585655 0.656250
vt 0.488140 0.655925
vt 0.617595 0.553578
vt 0.617558 0.582224
vt 0.835837 0.617211
vt 0.835938 0.539086
vt 0.609375 0.500265
vt 0.573619 0.500119
vt 0.488140 0.655781
vt 0.585655 0.656178
vt 0.537864 0.500000
vt 0.390625 0.655456
vt 0.617188 0.582206
vt 0.617224 0.553560
vt 0.834927 0.539039
vt 0.834826 0.617164
vt 0.537864 0.500026
vt 0.390625 0.655528
vt 0.714703 0.500000
vt 0.812218 0.539086
vt 0.714703 0.578125
vt 0.812218 0.617211
vt 0.714703 0.656250
vt 0.617188 0.617164
vt 0.617188 0.539039
vt 0.810077 0.545293
vt 0.835938 0.531067
vt 0.810077 0.516647
vt 0.835938 0.559713
vt 0.810077 0.573939
vt 0.784216 0.559518
vt 0.784216 0.530872
vt 0.583514 0.500683
vt 0.609375 0.501066
vt 0.531685 0.656250
vt 0.461155 0.655206
vt 0.618679 0.531067
vt 0.618469 0.559713
vt 0.835365 0.617453
vt 0.835938 0.539328
vt 0.609375 0.500916
vt 0.583514 0.500383
vt 0.461155 0.654388
vt 0.531685 0.655841
vt 0.557653 0.500000
vt 0.390625 0.653344
vt 0.617188 0.559518
vt 0.617397 0.530872
vt 0.832441 0.538797
vt 0.831869 0.616922
vt 0.557653 0.500150
vt 0.390625 0.653753
vt 0.687717 0.500000
vt 0.758247 0.539328
vt 0.687717 0.578125
vt 0.758247 0.617453
vt 0.687717 0.656250
vt 0.617188 0.616922
vt 0.617188 0.538797
vt 0.731785 0.631343
vt 0.771890 0.618875
vt 0.731785 0.606435
vt 0.771890 0.643782
vt 0.731785 0.656250
vt 0.691681 0.643810
vt 0.691681 0.618903
vt 0.505223 0.500000
vt 0.545327 0.500471
vt 0.609375 0.652766
vt 0.500000 0.651483
vt 0.617846 0.618875
vt 0.619070 0.643782
vt 0.834397 0.601856
vt 0.831060 0.533927
vt 0.545327 0.501344
vt 0.505223 0.501748
vt 0.500000 0.656250
vt 0.609375 0.655150
vt 0.465119 0.501277
vt 0.390625 0.654967
vt 0.618976 0.643810
vt 0.617752 0.618903
vt 0.830804 0.534003
vt 0.834141 0.601932
vt 0.465119 0.500403
vt 0.390625 0.652583
vt 0.726562 0.500000
vt 0.835938 0.533927
vt 0.726562 0.567929
vt 0.835938 0.601856
vt 0.726562 0.635859
vt 0.617188 0.601932
vt 0.617188 0.534003
vn 0.027494 -0.990947 0.131408
vn 0.077073 -0.991435 0.105433
vn 0.111442 -0.992045 0.058547
vn 0.123726 -0.992316 0.000000
vn 0.111442 -0.992045 -0.058547
vn 0.077073 -0.991435 -0.105433
vn 0.027494 -0.990947 -0.131408
vn -0.027494 -0.990947 -0.131408
vn -0.077073 -0.991435 -0.105433
vn -0.111442 -0.992045 -0.058547
vn -0.123726 -0.992316 -0.000000
vn -0.111442 -0.992045 0.058547
vn -0.077073 -0.991435 0.105433
vn -0.027494 -0.990947 0.131408
vn 0.084828 -0.910177 0.405441
vn 0.238803 -0.914472 0.326672
vn 0.347134 -0.919913 0.182368
vn 0.386317 -0.922366 0.000000
vn 0.347134 -0.919913 -0.182368
vn 0.238803 -0.914472 -0.326672
vn 0.084828 -0.910177 -0.405441
vn -0.084828 -0.910177 -0.405441
vn -0.238803 -0.914472 -0.326672
vn -0.347134 -0.919913 -0.182368
vn -0.386317 -0.922366 -0.000000
vn -0.347134 -0.919913 0.182368
vn -0.238803 -0.914472 0.326672
vn -0.084828 -0.910177 0.405441
vn 0.146188 -0.700302 0.698717
vn 0.415431 -0.710255 0.568291
vn 0.611325 -0.723282 0.321162
vn 0.684179 -0.729314 0.000000
vn 0.611325 -0.723282 -0.321162
vn 0.415431 -0.710255 -0.568291
vn 0.146188 -0.700302 -0.698717
vn -0.146188 -0.700302 -0.698717
vn -0.415431 -0.710255 -0.568291
vn -0.611325 -0.723282 -0.321162
vn -0.684179 -0.729314 -0.000000
vn -0.611325 -0.723282 0.321162
vn -0.415431 -0.710255 0.568291
vn -0.146188 -0.700302 0.698717
vn 0.196577 -0.280335 0.939558
vn 0.565202 -0.287666 0.773172
vn 0.845139 -0.297668 0.443997
vn 0.953159 -0.302468 0.000000
vn 0.845139 -0.297668 -0.443997
vn 0.565202 -0.287666 -0.773172
vn 0.196577 -0.280335 -0.939558
vn -0.196577 -0.280335 -0.939558
vn -0.565202 -0.287666 -0.773172
vn -0.845139 -0.297668 -0.443997
vn -0.953159 -0.302468 -0.000000
vn -0.845139 -0.297668 0.443997
vn -0.565202 -0.287666 0.773172
vn -0.196577 -0.280335 0.939558
vn 0.196577 0.280335 0.939558
vn 0.565202 0.287666 0.773172
vn 0.845139 0.297668 0.443997
vn 0.953159 0.302468 0.000000
vn 0.845139 0.297668 -0.443997
vn 0.565202 0.287666 -0.773172
vn 0.196577 0.280335 -0.939558
vn -0.196577 0.280335 -0.939558
vn -0.565202 0.287666 -0.773172
vn -0.845139 0.297668 -0.443997
vn -0.953159 0.302468 0.000000
vn -0.845139 0.297668 0.443997
vn -0.565202 0.287666 0.773172
vn -0.196577 0.280335 0.939558
vn 0.146188 0.700302 0.698717
vn 0.415431 0.710255 0.568291
vn 0.611325 0.723282 0.321162
vn 0.684179 0.729314 0.000000
vn 0.611325 0.723282 -0.321162
vn 0.415431 0.710255 -0.568291
vn 0.146188 0.700302 -0.698717
vn -0.146188 0.700302 -0.698717
vn -0.415431 0.710255 -0.568291
vn -0.611325 0.723282 -0.321162
vn -0.684179 0.729314 -0.000000
vn -0.611325 0.723282 0.321162
vn -0.415431 0.710255 0.568291
vn -0.146188 0.700302 0.698717
vn 0.084828 0.910177 0.405441
vn 0.238803 0.914472 0.326672
vn 0.347134 0.919913 0.182368
vn 0.386317 0.922366 0.000000
vn 0.347134 0.919913 -0.182368
vn 0.238803 0.914472 -0.326672
vn 0.084828 0.910177 -0.405441
vn -0.084828 0.910177 -0.405441
vn -0.238803 0.914472 -0.326672
vn -0.347134 0.919913 -0.182368
vn -0.386317 0.922366 -0.000000
vn -0.347134 0.919913 0.182368
vn -0.238803 0.914472 0.326672
vn -0.084828 0.910177 0.405441
vn 0.027494 0.990947 0.131408
vn 0.077073 0.991435 0.105433
vn 0.111442 0.992045 0.058547
vn 0.123726 0.992316 0.000000
vn 0.111442 0.992045 -0.058547
vn 0.077073 0.991435 -0.105433
vn 0.027494 0.990947 -0.131408
vn -0.027494 0.990947 -0.131408
vn -0.077073 0.991435 -0.105433
vn -0.111442 0.992045 -0.058547
vn -0.123726 0.992316 -0.000000
vn -0.111442 0.992045 0.058547
vn -0.077073 0.991435 0.105433
vn -0.027494 0.990947 0.131408
vn -0.053429 -0.953318 0.297205
vn 0.152771 -0.943027 0.295569
vn 0.298071 -0.936831 0.183034
vn 0.332707 -0.943027 0.002544
vn 0.240889 -0.953318 -0.182093
vn 0.053429 -0.953318 -0.297205
vn -0.152771 -0.943027 -0.295569
vn -0.298071 -0.936831 -0.183034
vn -0.332707 -0.943027 -0.002544
vn -0.240889 -0.953318 0.182093
vn -0.141871 -0.597568 0.789167
vn 0.381620 -0.556096 0.738325
vn 0.720269 -0.534409 0.442289
vn 0.831094 -0.556096 0.006356
vn 0.639632 -0.597568 -0.483511
vn 0.141871 -0.597568 -0.789167
vn -0.381620 -0.556096 -0.738325
vn -0.720269 -0.534409 -0.442289
vn -0.831094 -0.556096 -0.006356
vn -0.639632 -0.597568 0.483511
vn -0.176937 0.000000 0.984222
vn 0.459164 -0.000000 0.888352
vn 0.852161 0.000000 0.523279
vn 0.999971 0.000000 0.007647
vn 0.797727 0.000000 -0.603019
vn 0.176937 0.000000 -0.984222
vn -0.459164 -0.000000 -0.888352
vn -0.852161 -0.000000 -0.523279
vn -0.999971 0.000000 -0.007647
vn -0.797727 -0.000000 0.603019
vn -0.141871 0.597568 0.789167
vn 0.381620 0.556096 0.738325
vn 0.720269 0.534409 0.442289
vn 0.831094 0.556096 0.006356
vn 0.639632 0.597568 -0.483511
vn 0.141871 0.597568 -0.789167
vn -0.381620 0.556096 -0.738325
vn -0.720269 0.534409 -0.442289
vn -0.831094 0.556096 -0.006356
vn -0.639632 0.597568 0.483511
vn -0.053429 0.953318 0.297205
vn 0.152771 0.943027 0.295569
vn 0.298071 0.936831 0.183034
vn 0.332707 0.943027 0.002544
vn 0.240889 0.953318 -0.182093
vn 0.053429 0.953318 -0.297205
vn -0.152771 0.943027 -0.295569
vn -0.298071 0.936831 -0.183034
vn -0.332707 0.943027 -0.002544
vn -0.240889 0.953318 0.182093
vn -0.956673 0.079718 0.280040
vn -0.761864 -0.418256 -0.494597
vn 0.098157 -0.780628 -0.617239
vn 0.763369 -0.645027 0.034755
vn 0.568560 -0.147053 0.809392
vn -0.291461 0.215320 0.932034
vn -0.652463 -0.589071 0.476747
vn -0.563163 -0.817342 0.121653
vn -0.168929 -0.983454 0.065433
vn 0.136004 -0.921294 0.364308
vn 0.046704 -0.693023 0.719401
vn -0.347530 -0.526911 0.775621
vn 0.447021 0.391514 0.804294
vn -0.317808 0.824783 0.467686
vn -0.935761 0.347792 -0.058246
vn -0.788884 -0.562469 -0.247571
vn -0.024054 -0.995738 0.089037
vn 0.593899 -0.518746 0.614969
vn -0.173416 -0.009721 0.984801
vn -0.524014 0.188889 0.830500
vn -0.807284 -0.029764 0.589412
vn -0.739955 -0.447027 0.502626
vn -0.389357 -0.645638 0.656927
vn -0.106088 -0.426985 0.898014
vn 0.470540 -0.383969 -0.794456
vn 0.932124 -0.361236 0.025553
vn 0.452810 -0.314503 0.834296
vn -0.488087 -0.290503 0.823030
vn -0.949671 -0.313235 0.003022
vn -0.470357 -0.359968 -0.805722
vn 0.196277 -0.922433 -0.332556
vn 0.407867 -0.912012 0.043337
vn 0.188150 -0.890590 0.414065
vn -0.243158 -0.879588 0.408900
vn -0.454748 -0.890008 0.033008
vn -0.235030 -0.911431 -0.337720
vn 0.022247 -0.984002 0.176760
vn 0.138442 -0.980412 0.140096
vn 0.201385 -0.978212 0.050451
vn 0.188139 -0.980412 -0.058281
vn 0.102953 -0.984002 -0.145395
vn -0.022247 -0.984002 -0.176760
vn -0.138442 -0.980412 -0.140096
vn -0.201385 -0.978212 -0.050451
vn -0.188139 -0.980412 0.058281
vn -0.102953 -0.984002 0.145395
vn 0.075994 -0.793499 0.603808
vn 0.455541 -0.761562 0.460983
vn 0.648526 -0.743652 0.162469
vn 0.619069 -0.761562 -0.191772
vn 0.351684 -0.793499 -0.496666
vn -0.075994 -0.793499 -0.603808
vn -0.455541 -0.761562 -0.460983
vn -0.648526 -0.743652 -0.162469
vn -0.619069 -0.761562 0.191772
vn -0.351684 -0.793499 0.496666
vn 0.124873 0.000000 0.992173
vn 0.702896 0.000000 0.711293
vn 0.970024 -0.000000 0.243010
vn 0.955218 0.000000 -0.295903
vn 0.577885 0.000000 -0.816118
vn -0.124873 0.000000 -0.992173
vn -0.702896 -0.000000 -0.711293
vn -0.970024 0.000000 -0.243010
vn -0.955218 0.000000 0.295903
vn -0.577885 0.000000 0.816118
vn 0.075994 0.793499 0.603808
vn 0.455541 0.761562 0.460983
vn 0.648526 0.743652 0.162469
vn 0.619069 0.761562 -0.191772
vn 0.351684 0.793499 -0.496666
vn -0.075994 0.793499 -0.603808
vn -0.455541 0.761562 -0.460983
vn -0.648526 0.743652 -0.162469
vn -0.619069 0.761562 0.191772
vn -0.351684 0.793499 0.496666
vn 0.022247 0.984002 0.176760
vn 0.138442 0.980412 0.140096
vn 0.201385 0.978212 0.050451
vn 0.188139 0.980412 -0.058281
vn 0.102953 0.984002 -0.145395
vn -0.022247 0.984002 -0.176760
vn -0.138442 0.980412 -0.140096
vn -0.201385 0.978212 -0.050451
vn -0.188139 0.980412 0.058281
vn -0.102953 0.984002 0.145395
vn 0.399034 -0.750459 -0.526863
vn 0.891915 -0.406725 0.197641
vn 0.451208 0.052871 0.890851
vn -0.482380 0.168734 0.859557
vn -0.975262 -0.175000 0.135053
vn -0.534555 -0.634596 -0.558157
vn 0.090679 -0.987791 0.126671
vn 0.316617 -0.830224 0.458784
vn 0.114596 -0.619545 0.776551
vn -0.313361 -0.566433 0.762206
vn -0.539298 -0.724001 0.430093
vn -0.337278 -0.934680 0.112326
vn -0.901945 0.382914 -0.199682
vn -0.790516 -0.091611 0.605551
vn 0.067725 -0.188754 0.979686
vn 0.814537 0.188628 0.548588
vn 0.703108 0.663153 -0.256645
vn -0.155133 0.760296 -0.630780
vn -0.510184 0.808040 0.294591
vn -0.459105 0.590518 0.663711
vn -0.065687 0.545987 0.835214
vn 0.276652 0.718979 0.637599
vn 0.225573 0.936502 0.268480
vn -0.167845 0.981032 0.096976
vn 0.935830 -0.338932 0.096682
vn 0.386496 -0.330654 0.860981
vn -0.550111 -0.329359 0.767399
vn -0.937383 -0.336342 -0.090484
vn -0.388049 -0.344621 -0.854784
vn 0.548558 -0.345915 -0.761201
vn 0.427266 -0.902676 0.051178
vn 0.175451 -0.898881 0.401533
vn -0.253889 -0.898288 0.358635
vn -0.431415 -0.901489 -0.034619
vn -0.179600 -0.905284 -0.384974
vn 0.249741 -0.905877 -0.342076
vn -0.022452 -0.939741 0.341149
vn 0.170514 -0.944573 0.280546
vn 0.299420 -0.947597 0.111385
vn 0.312412 -0.944573 -0.100896
vn 0.205969 -0.939741 -0.272880
vn 0.022452 -0.939741 -0.341149
vn -0.170514 -0.944573 -0.280546
vn -0.299420 -0.947597 -0.111385
vn -0.312412 -0.944573 0.100896
vn -0.205969 -0.939741 0.272880
vn -0.055089 -0.544326 0.837063
vn 0.429651 -0.561861 0.706904
vn 0.767745 -0.573584 0.285603
vn 0.787197 -0.561861 -0.254233
vn 0.505377 -0.544326 -0.669554
vn 0.055089 -0.544326 -0.837063
vn -0.429651 -0.561861 -0.706904
vn -0.767745 -0.573584 -0.285603
vn -0.787197 -0.561861 0.254233
vn -0.505377 -0.544326 0.669554
vn -0.065670 0.000000 0.997841
vn 0.519384 0.000000 0.854541
vn 0.937249 -0.000000 0.348659
vn 0.951603 0.000000 -0.307330
vn 0.602447 0.000000 -0.798159
vn 0.065670 0.000000 -0.997841
vn -0.519384 0.000000 -0.854541
vn -0.937249 -0.000000 -0.348659
vn -0.951603 0.000000 0.307330
vn -0.602447 0.000000 0.798159
vn -0.055089 0.544326 0.837063
vn 0.429651 0.561861 0.706904
vn 0.767745 0.573584 0.285603
vn 0.787197 0.561861 -0.254233
vn 0.505377 0.544326 -0.669554
vn 0.055089 0.544326 -0.837063
vn -0.429651 0.561861 -0.706904
vn -0.767745 0.573584 -0.285603
vn -0.787197 0.561861 0.254233
vn -0.505377 0.544326 0.669554
vn -0.022452 0.939741 0.341149
vn 0.170514 0.944573 0.280546
vn 0.299420 0.947597 0.111385
vn 0.312412 0.944573 -0.100896
vn 0.205969 0.939741 -0.272880
vn 0.022452 0.939741 -0.341149
vn -0.170514 0.944573 -0.280546
vn -0.299420 0.947597 -0.111385
vn -0.312412 0.944573 0.100896
vn -0.205969 0.939741 0.272880
vn 0.612580 -0.787415 -0.068717
vn 0.769435 -0.162694 0.617657
vn 0.071171 0.393173 0.916706
vn -0.783948 0.324318 0.529380
vn -0.940803 -0.300404 -0.156995
vn -0.242539 -0.856271 -0.456043
vn 0.091158 -0.873450 0.478304
vn 0.163061 -0.587078 0.792938
vn -0.157024 -0.332268 0.930022
vn -0.549011 -0.363831 0.752472
vn -0.620913 -0.650204 0.437838
vn -0.300828 -0.905014 0.300754
vn 0.537782 0.813395 0.221765
vn -0.317301 0.936047 -0.152107
vn -0.963381 0.255047 -0.082750
vn -0.754379 -0.548605 0.360479
vn 0.100704 -0.671258 0.734351
vn 0.746785 0.009742 0.664995
vn 0.006817 0.665896 0.746013
vn -0.385153 0.722120 0.574630
vn -0.681316 0.409949 0.606423
vn -0.585510 0.041555 0.809600
vn -0.193539 -0.014669 0.980983
vn 0.102624 0.297502 0.949190
vn -0.193377 -0.851142 -0.488019
vn 0.647029 -0.758840 -0.074269
vn 0.758267 -0.149585 0.634551
vn 0.029100 0.367368 0.929620
vn -0.811306 0.275066 0.515870
vn -0.922544 -0.334189 -0.192950
vn -0.270446 -0.925545 0.265001
vn 0.114797 -0.883234 0.454665
vn 0.165789 -0.603951 0.779588
vn -0.168462 -0.366980 0.914848
vn -0.553704 -0.409291 0.725185
vn -0.604696 -0.688574 0.400261
vn 0.103890 -0.967477 0.230639
vn 0.276330 -0.950157 0.144370
vn 0.341358 -0.939907 0.007008
vn 0.282022 -0.950157 -0.132907
vn 0.113269 -0.967477 -0.226181
vn -0.103890 -0.967477 -0.230639
vn -0.276330 -0.950157 -0.144370
vn -0.341358 -0.939907 -0.007008
vn -0.282022 -0.950157 0.132907
vn -0.113269 -0.967477 0.226181
vn 0.304836 -0.670145 0.676743
vn 0.719472 -0.584008 0.375891
vn 0.838320 -0.544906 0.017211
vn 0.734294 -0.584008 -0.346045
vn 0.332354 -0.670145 -0.663662
vn -0.304836 -0.670145 -0.676743
vn -0.719472 -0.584008 -0.375891
vn -0.838320 -0.544906 -0.017211
vn -0.734294 -0.584008 0.346045
vn -0.332354 -0.670145 0.663662
vn 0.410702 0.000000 0.911770
vn 0.886325 0.000000 0.463064
vn 0.999789 -0.000000 0.020526
vn 0.904583 0.000000 -0.426296
vn 0.447777 -0.000000 -0.894145
vn -0.410702 0.000000 -0.911770
vn -0.886325 -0.000000 -0.463064
vn -0.999789 -0.000000 -0.020526
vn -0.904583 0.000000 0.426296
vn -0.447777 0.000000 0.894145
vn 0.304836 0.670145 0.676743
vn 0.719472 0.584008 0.375891
vn 0.838320 0.544906 0.017211
vn 0.734294 0.584008 -0.346045
vn 0.332354 0.670145 -0.663662
vn -0.304836 0.670145 -0.676743
vn -0.719472 0.584008 -0.375891
vn -0.838320 0.544906 -0.017211
vn -0.734294 0.584008 0.346045
vn -0.332354 0.670145 0.663662
vn 0.103890 0.967477 0.230639
vn 0.276330 0.950157 0.144370
vn 0.341358 0.939907 0.007008
vn 0.282022 0.950157 -0.132907
vn 0.113269 0.967477 -0.226181
vn -0.103890 0.967477 -0.230639
vn -0.276330 0.950157 -0.144370
vn -0.341358 0.939907 -0.007008
vn -0.282022 0.950157 0.132907
vn -0.113269 0.967477 0.226181
vn 0.374225 -0.499217 -0.781498
vn 0.933905 -0.355445 -0.038478
vn 0.558344 -0.187540 0.808135
vn -0.376898 -0.163406 0.911727
vn -0.936579 -0.307178 0.168707
vn -0.561017 -0.475083 -0.677905
vn 0.168586 -0.962150 -0.214117
vn 0.425143 -0.896245 0.126483
vn 0.252986 -0.819277 0.514571
vn -0.175729 -0.808214 0.562057
vn -0.432287 -0.874120 0.221457
vn -0.260129 -0.951087 -0.166630
vn 0.231450 0.940628 0.248292
vn -0.676145 0.691197 0.255099
vn -0.914490 -0.215180 0.342646
vn -0.245240 -0.872124 0.423387
vn 0.662355 -0.622693 0.416581
vn 0.900700 0.283684 0.329033
vn 0.090836 0.506996 0.857149
vn -0.325205 0.392656 0.860269
vn -0.434463 -0.022827 0.900400
vn -0.127678 -0.323970 0.937412
vn 0.288363 -0.209631 0.934292
vn 0.397621 0.205852 0.894160
vn 0.603001 0.202582 0.771589
vn 0.925874 0.365031 -0.097522
vn 0.321608 0.494435 -0.807528
vn -0.605530 0.461391 -0.648423
vn -0.928402 0.298942 0.220689
vn -0.324137 0.169537 0.930695
vn 0.273618 0.827666 0.490002
vn 0.421622 0.902133 0.091601
vn 0.144627 0.961452 -0.233866
vn -0.280373 0.946304 -0.160932
vn -0.428378 0.871838 0.237469
vn -0.151383 0.812519 0.562936
vn 0.045027 -0.007777 -0.998956
vn 0.500694 -0.865618 -0.003275
vn 0.999922 0.000097 0.012487
vn 0.500694 0.865462 -0.016751
vn -0.497763 0.865112 -0.061753
vn -0.996991 -0.000603 -0.077516
vn -0.497763 -0.865969 -0.048277
vn -0.045027 0.007777 0.998956
vn 0.117677 -0.033128 -0.992499
vn 0.501148 -0.864205 0.044718
vn 0.997210 0.002490 0.074606
vn 0.501148 0.865264 -0.013008
vn -0.490976 0.861342 -0.130510
vn -0.987038 -0.005354 -0.160397
vn -0.490976 -0.868127 -0.072783
vn -0.117677 0.033128 0.992499
vn 0.005342 0.119728 -0.992792
vn 0.499120 -0.849502 -0.170954
vn 0.997863 0.007824 -0.064878
vn 0.499120 0.865789 0.035906
vn -0.498365 0.866427 0.030616
vn -0.997107 0.009100 -0.075460
vn -0.498365 -0.848864 -0.176244
vn -0.005342 -0.119728 0.992792
f 1/1/1 2/2/1 3/3/1
f 1/1/2 4/4/2 2/2/2
f 1/1/3 5/5/3 4/4/3
f 1/1/4 6/6/4 5/5/4
f 1/1/5 7/7/5 6/6/5
f 1/1/6 8/8/6 7/7/6
f 1/1/7 9/9/7 8/8/7
f 1/1/8 10/10/8 9/9/8
f 1/1/9 11/11/9 10/10/9
f 1/1/10 12/12/10 11/11/10
f 1/1/11 13/13/11 12/12/11
f 1/1/12 14/14/12 13/13/12
f 1/1/13 15/15/13 14/14/13
f 1/1/14 3/3/14 15/15/14
f 3/3/15 2/2/15 16/16/15
f 3/3/15 16/16/15 17/17/15
f 2/2/16 4/4/16 18/18/16
f 2/2/16 18/18/16 16/16/16
f 4/4/17 5/5/17 19/19/17
f 4/4/17 19/19/17 18/18/17
f 5/5/18 6/6/18 20/20/18
f 5/5/18 20/20/18 19/19/18
f 6/6/19 7/7/19 21/21/19
f 6/6/19 21/21/19 20/20/19
f 7/7/20 8/8/20 22/22/20
f 7/7/20 22/22/20 21/21/20
f 8/8/21 9/9/21 23/23/21
f 8/8/21 23/23/21 22/22/21
f 9/9/22 10/10/22 24/24/22
f 9/9/22 24/24/22 23/23/22
f 10/10/23 11/11/23 25/25/23
f 10/10/23 25/25/23 24/24/23
f 11/11/24 12/12/24 26/26/24
f 11/11/24 26/26/24 25/25/24
f 12/12/25 13/13/25 27/27/25
f 12/12/25 27/27/25 26/26/25
f 13/13/26 14/14/26 28/28/26
f 13/13/26 28/28/26 27/27/26
f 14/14/27 15/15/27 29/29/27
f 14/14/27 29/29/27 28/28/27
f 15/15/28 3/3/28 17/17/28
f 15/15/28 17/17/28 29/29/28
f 17/17/29 16/16/29 30/30/29
f 17/17/29 30/30/29 31/31/29
f 16/16/30 18/18/30 32/32/30
f 16/16/30 32/32/30 30/30/30
f 18/18/31 19/19/31 33/33/31
f 18/18/31 33/33/31 32/32/31
f 19/19/32 20/20/32 34/34/32
f 19/19/32 34/34/32 33/33/32
f 20/20/33 21/21/33 35/35/33
f 20/20/33 35/35/33 34/34/33
f 21/21/34 22/22/34 36/36/34
f 21/21/34 36/36/34 35/35/34
f 22/22/35 23/23/35 37/37/35
f 22/22/35 37/37/35 36/36/35
f 23/23/36 24/24/36 38/38/36
f 23/23/36 38/38/36 37/37/36
f 24/24/37 25/25/37 39/39/37
f 24/24/37 39/39/37 38/38/37
f 25/25/38 26/26/38 40/40/38
f 25/25/38 40/40/38 39/39/38
f 26/26/39 27/27/39 41/41/39
f 26/26/39 41/41/39 40/40/39
f 27/27/40 28/28/40 42/42/40
f 27/27/40 42/42/40 41/41/40
f 28/28/41 29/29/41 43/43/41
f 28/28/41 43/43/41 42/42/41
f 29/29/42 17/17/42 31/31/42
f 29/29/42 31/31/42 43/43/42
f 31/44/43 30/45/43 44/46/43
f 31/44/43 44/46/43 45/47/43
f 30/45/44 32/48/44 46/49/44
f 30/45/44 46/49/44 44/46/44
f 32/50/45 33/51/45 47/52/45
f 32/50/45 47/52/45 46/53/45
f 33/51/46 34/54/46 48/55/46
f 33/51/46 48/55/46 47/52/46
f 34/54/47 35/56/47 49/57/47
f 34/54/47 49/57/47 48/55/47
f 35/58/48 36/59/48 50/60/48
f 35/58/48 50/60/48 49/61/48
f 36/59/49 37/62/49 51/63/49
f 36/59/49 51/63/49 50/60/49
f 37/62/50 38/64/50 52/65/50
f 37/62/50 52/65/50 51/63/50
f 38/64/51 39/66/51 53/67/51
f 38/64/51 53/67/51 52/65/51
f 39/56/52 40/54/52 54/55/52
f 39/56/52 54/55/52 53/57/52
f 40/54/53 41/51/53 55/52/53
f 40/54/53 55/52/53 54/55/53
f 41/51/54 42/50/54 56/53/54
f 41/51/54 56/53/54 55/52/54
f 42/68/55 43/69/55 57/70/55
f 42/68/55 57/70/55 56/71/55
f 43/69/56 31/44/56 45/47/56
f 43/69/56 45/47/56 57/70/56
f 45/47/57 44/46/57 58/72/57
f 45/47/57 58/72/57 59/73/57
f 44/46/58 46/49/58 60/74/58
f 44/46/58 60/74/58 58/72/58
f 46/53/59 47/52/59 61/75/59
f 46/53/59 61/75/59 60/76/59
f 47/52/60 48/55/60 62/77/60
f 47/52/60 62/77/60 61/75/60
f 48/55/61 49/57/61 63/78/61
f 48/55/61 63/78/61 62/77/61
f 49/61/62 50/60/62 64/79/62
f 49/61/62 64/79/62 63/80/62
f 50/60/63 51/63/63 65/81/63
f 50/60/63 65/81/63 64/79/63
f 51/63/64 52/65/64 66/82/64
f 51/63/64 66/82/64 65/81/64
f 52/65/65 53/67/65 67/83/65
f 52/65/65 67/83/65 66/82/65
f 53/57/66 54/55/66 68/77/66
f 53/57/66 68/77/66 67/78/66
f 54/55/67 55/52/67 69/75/67
f 54/55/67 69/75/67 68/77/67
f 55/52/68 56/53/68 70/76/68
f 55/52/68 70/76/68 69/75/68
f 56/71/69 57/70/69 71/84/69
f 56/71/69 71/84/69 70/85/69
f 57/70/70 45/47/70 59/73/70
f 57/70/70 59/73/70 71/84/70
f 59/31/71 58/30/71 72/16/71
f 59/31/71 72/16/71 73/17/71
f 58/30/72 60/32/72 74/18/72
f 58/30/72 74/18/72 72/16/72
f 60/32/73 61/33/73 75/19/73
f 60/32/73 75/19/73 74/18/73
f 61/33/74 62/34/74 76/20/74
f 61/33/74 76/20/74 75/19/74
f 62/34/75 63/35/75 77/21/75
f 62/34/75 77/21/75 76/20/75
f 63/35/76 64/36/76 78/22/76
f 63/35/76 78/22/76 77/21/76
f 64/36/77 65/37/77 79/23/77
f 64/36/77 79/23/77 78/22/77
f 65/37/78 66/38/78 80/24/78
f 65/37/78 80/24/78 79/23/78
f 66/38/79 67/39/79 81/25/79
f 66/38/79 81/25/79 80/24/79
f 67/39/80 68/40/80 82/26/80
f 67/39/80 82/26/80 81/25/80
f 68/40/81 69/41/81 83/27/81
f 68/40/81 83/27/81 82/26/81
f 69/41/82 70/42/82 84/28/82
f 69/41/82 84/28/82 83/27/82
f 70/42/83 71/43/83 85/29/83
f 70/42/83 85/29/83 84/28/83
f 71/43/84 59/31/84 73/17/84
f 71/43/84 73/17/84 85/29/84
f 73/17/85 72/16/85 86/2/85
f 73/17/85 86/2/85 87/3/85
f 72/16/86 74/18/86 88/4/86
f 72/16/86 88/4/86 86/2/86
f 74/18/87 75/19/87 89/5/87
f 74/18/87 89/5/87 88/4/87
f 75/19/88 76/20/88 90/6/88
f 75/19/88 90/6/88 89/5/88
f 76/20/89 77/21/89 91/7/89
f 76/20/89 91/7/89 90/6/89
f 77/21/90 78/22/90 92/8/90
f 77/21/90 92/8/90 91/7/90
f 78/22/91 79/23/91 93/9/91
f 78/22/91 93/9/91 92/8/91
f 79/23/92 80/24/92 94/10/92
f 79/23/92 94/10/92 93/9/92
f 80/24/93 81/25/93 95/11/93
f 80/24/93 95/11/93 94/10/93
f 81/25/94 82/26/94 96/12/94
f 81/25/94 96/12/94 95/11/94
f 82/26/95 83/27/95 97/13/95
f 82/26/95 97/13/95 96/12/95
f 83/27/96 84/28/96 98/14/96
f 83/27/96 98/14/96 97/13/96
f 84/28/97 85/29/97 99/15/97
f 84/28/97 99/15/97 98/14/97
f 85/29/98 73/17/98 87/3/98
f 85/29/98 87/3/98 99/15/98
f 87/3/99 86/2/99 100/1/99
f 86/2/100 88/4/100 100/1/100
f 88/4/101 89/5/101 100/1/101
f 89/5/102 90/6/102 100/1/102
f 90/6/103 91/7/103 100/1/103
f 91/7/104 92/8/104 100/1/104
f 92/8/105 93/9/105 100/1/105
f 93/9/106 94/10/106 100/1/106
f 94/10/107 95/11/107 100/1/107
f 95/11/108 96/12/108 100/1/108
f 96/12/109 97/13/109 100/1/109
f 97/13/110 98/14/110 100/1/110
f 98/14/111 99/15/111 100/1/111
f 99/15/112 87/3/112 100/1/112
f 101/86/113 102/87/113 103/88/113
f 101/86/114 104/89/114 102/87/114
f 101/86/115 105/90/115 104/89/115
f 101/86/116 106/91/116 105/90/116
f 101/86/117 107/92/117 106/91/117
f 101/86/118 108/93/118 107/92/118
f 101/86/119 109/94/119 108/93/119
f 101/86/120 110/95/120 109/94/120
f 101/86/121 111/96/121 110/95/121
f 101/86/122 103/88/122 111/96/122
f 103/97/123 102/98/123 112/99/123
f 103/97/123 112/99/123 113/100/123
f 102/98/124 104/101/124 114/102/124
f 102/98/124 114/102/124 112/99/124
f 104/103/125 105/104/125 115/105/125
f 104/103/125 115/105/125 114/106/125
f 105/104/126 106/107/126 116/108/126
f 105/104/126 116/108/126 115/105/126
f 106/107/127 107/109/127 117/110/127
f 106/107/127 117/110/127 116/108/127
f 107/111/128 108/112/128 118/113/128
f 107/111/128 118/113/128 117/114/128
f 108/112/129 109/115/129 119/116/129
f 108/112/129 119/116/129 118/113/129
f 109/117/130 110/118/130 120/119/130
f 109/117/130 120/119/130 119/120/130
f 110/118/131 111/121/131 121/122/131
f 110/118/131 121/122/131 120/119/131
f 111/121/132 103/123/132 113/124/132
f 111/121/132 113/124/132 121/122/132
f 113/100/133 112/99/133 122/125/133
f 113/100/133 122/125/133 123/126/133
f 112/99/134 114/102/134 124/127/134
f 112/99/134 124/127/134 122/125/134
f 114/106/135 115/105/135 125/128/135
f 114/106/135 125/128/135 124/129/135
f 115/105/136 116/108/136 126/130/136
f 115/105/136 126/130/136 125/128/136
f 116/108/137 117/110/137 127/131/137
f 116/108/137 127/131/137 126/130/137
f 117/114/138 118/113/138 128/132/138
f 117/114/138 128/132/138 127/133/138
f 118/113/139 119/116/139 129/134/139
f 118/113/139 129/134/139 128/132/139
f 119/120/140 120/119/140 130/135/140
f 119/120/140 130/135/140 129/136/140
f 120/119/141 121/122/141 131/137/141
f 120/119/141 131/137/141 130/135/141
f 121/122/142 113/124/142 123/138/142
f 121/122/142 123/138/142 131/137/142
f 123/126/143 122/125/143 132/139/143
f 123/126/143 132/139/143 133/140/143
f 122/125/144 124/127/144 134/141/144
f 122/125/144 134/141/144 132/139/144
f 124/129/145 125/128/145 135/142/145
f 124/129/145 135/142/145 134/143/145
f 125/128/146 126/130/146 136/144/146
f 125/128/146 136/144/146 135/142/146
f 126/130/147 127/131/147 137/145/147
f 126/130/147 137/145/147 136/144/147
f 127/133/148 128/132/148 138/146/148
f 127/133/148 138/146/148 137/147/148
f 128/132/149 129/134/149 139/148/149
f 128/132/149 139/148/149 138/146/149
f 129/136/150 130/135/150 140/149/150
f 129/136/150 140/149/150 139/150/150
f 130/135/151 131/137/151 141/151/151
f 130/135/151 141/151/151 140/149/151
f 131/137/152 123/138/152 133/152/152
f 131/137/152 133/152/152 141/151/152
f 133/88/153 132/87/153 142/86/153
f 132/87/154 134/89/154 142/86/154
f 134/89/155 135/90/155 142/86/155
f 135/90/156 136/91/156 142/86/156
f 136/91/157 137/92/157 142/86/157
f 137/92/158 138/93/158 142/86/158
f 138/93/159 139/94/159 142/86/159
f 139/94/160 140/95/160 142/86/160
f 140/95/161 141/96/161 142/86/161
f 141/96/162 133/88/162 142/86/162
f 143/153/163 144/154/163 145/155/163
f 143/153/163 145/155/163 146/156/163
f 144/154/164 147/157/164 148/158/164
f 144/154/164 148/158/164 145/155/164
f 147/159/165 149/160/165 150/161/165
f 147/159/165 150/161/165 148/162/165
f 149/163/166 151/164/166 152/165/166
f 149/163/166 152/165/166 150/166/166
f 151/167/167 153/168/167 154/169/167
f 151/167/167 154/169/167 152/170/167
f 153/168/168 143/171/168 146/172/168
f 153/168/168 146/172/168 154/169/168
f 146/156/169 145/155/169 155/173/169
f 145/174/170 148/162/170 155/175/170
f 148/162/171 150/161/171 155/175/171
f 150/161/172 152/176/172 155/175/172
f 152/170/173 154/169/173 155/177/173
f 154/169/174 146/172/174 155/177/174
f 156/178/175 157/179/175 158/180/175
f 156/178/175 158/180/175 159/181/175
f 157/182/176 160/183/176 161/184/176
f 157/182/176 161/184/176 158/185/176
f 160/186/177 162/187/177 163/188/177
f 160/186/177 163/188/177 161/189/177
f 162/187/178 164/190/178 165/191/178
f 162/187/178 165/191/178 163/188/178
f 164/192/179 166/193/179 167/194/179
f 164/192/179 167/194/179 165/195/179
f 166/196/180 156/178/180 159/181/180
f 166/196/180 159/181/180 167/197/180
f 159/181/181 158/180/181 168/198/181
f 158/180/182 161/199/182 168/198/182
f 161/189/183 163/188/183 168/200/183
f 163/188/184 165/191/184 168/200/184
f 165/201/185 167/197/185 168/198/185
f 167/197/186 159/181/186 168/198/186
f 169/202/187 170/203/187 171/204/187
f 169/202/187 171/204/187 172/205/187
f 170/206/188 173/207/188 174/208/188
f 170/206/188 174/208/188 171/209/188
f 173/210/189 175/211/189 176/212/189
f 173/210/189 176/212/189 174/213/189
f 175/211/190 177/214/190 178/215/190
f 175/211/190 178/215/190 176/212/190
f 177/216/191 179/217/191 180/218/191
f 177/216/191 180/218/191 178/219/191
f 179/220/192 169/202/192 172/205/192
f 179/220/192 172/205/192 180/221/192
f 172/222/193 171/223/193 181/224/193
f 171/223/194 174/225/194 181/224/194
f 174/225/195 176/226/195 181/224/195
f 176/226/196 178/227/196 181/224/196
f 178/227/197 180/228/197 181/224/197
f 180/228/198 172/222/198 181/224/198
f 182/229/199 183/230/199 184/231/199
f 182/229/200 185/232/200 183/230/200
f 182/229/201 186/233/201 185/232/201
f 182/229/202 187/234/202 186/233/202
f 182/229/203 188/235/203 187/234/203
f 182/229/204 189/236/204 188/235/204
f 182/229/205 190/237/205 189/236/205
f 182/229/206 191/238/206 190/237/206
f 182/229/207 192/239/207 191/238/207
f 182/229/208 184/231/208 192/239/208
f 184/231/209 183/230/209 193/240/209
f 184/231/209 193/240/209 194/241/209
f 183/230/210 185/232/210 195/242/210
f 183/230/210 195/242/210 193/240/210
f 185/232/211 186/233/211 196/243/211
f 185/232/211 196/243/211 195/242/211
f 186/233/212 187/234/212 197/244/212
f 186/233/212 197/244/212 196/243/212
f 187/234/213 188/235/213 198/245/213
f 187/234/213 198/245/213 197/244/213
f 188/235/214 189/236/214 199/246/214
f 188/235/214 199/246/214 198/245/214
f 189/236/215 190/237/215 200/247/215
f 189/236/215 200/247/215 199/246/215
f 190/237/216 191/238/216 201/248/216
f 190/237/216 201/248/216 200/247/216
f 191/238/217 192/239/217 202/249/217
f 191/238/217 202/249/217 201/248/217
f 192/239/218 184/231/218 194/241/218
f 192/239/218 194/241/218 202/249/218
f 194/250/219 193/251/219 203/252/219
f 194/250/219 203/252/219 204/253/219
f 193/251/220 195/254/220 205/255/220
f 193/251/220 205/255/220 203/252/220
f 195/256/221 196/257/221 206/258/221
f 195/256/221 206/258/221 205/259/221
f 196/257/222 197/260/222 207/261/222
f 196/257/222 207/261/222 206/258/222
f 197/262/223 198/263/223 208/264/223
f 197/262/223 208/264/223 207/265/223
f 198/263/224 199/266/224 209/267/224
f 198/263/224 209/267/224 208/264/224
f 199/266/225 200/268/225 210/269/225
f 199/266/225 210/269/225 209/267/225
f 200/270/226 201/271/226 211/272/226
f 200/270/226 211/272/226 210/273/226
f 201/271/227 202/274/227 212/275/227
f 201/271/227 212/275/227 211/272/227
f 202/276/228 194/250/228 204/253/228
f 202/276/228 204/253/228 212/277/228
f 204/241/229 203/240/229 213/230/229
f 204/241/229 213/230/229 214/231/229
f 203/240/230 205/242/230 215/232/230
f 203/240/230 215/232/230 213/230/230
f 205/242/231 206/243/231 216/233/231
f 205/242/231 216/233/231 215/232/231
f 206/243/232 207/244/232 217/234/232
f 206/243/232 217/234/232 216/233/232
f 207/244/233 208/245/233 218/235/233
f 207/244/233 218/235/233 217/234/233
f 208/245/234 209/246/234 219/236/234
f 208/245/234 219/236/234 218/235/234
f 209/246/235 210/247/235 220/237/235
f 209/246/235 220/237/235 219/236/235
f 210/247/236 211/248/236 221/238/236
f 210/247/236 221/238/236 220/237/236
f 211/248/237 212/249/237 222/239/237
f 211/248/237 222/239/237 221/238/237
f 212/249/238 204/241/238 214/231/238
f 212/249/238 214/231/238 222/239/238
f 214/231/239 213/230/239 223/229/239
f 213/230/240 215/232/240 223/229/240
f 215/232/241 216/233/241 223/229/241
f 216/233/242 217/234/242 223/229/242
f 217/234/243 218/235/243 223/229/243
f 218/235/244 219/236/244 223/229/244
f 219/236/245 220/237/245 223/229/245
f 220/237/246 221/238/246 223/229/246
f 221/238/247 222/239/247 223/229/247
f 222/239/248 214/231/248 223/229/248
f 224/278/249 225/279/249 226/280/249
f 224/278/249 226/280/249 227/281/249
f 225/282/250 228/283/250 229/284/250
f 225/282/250 229/284/250 226/285/250
f 228/286/251 230/287/251 231/288/251
f 228/286/251 231/288/251 229/289/251
f 230/287/252 232/290/252 233/291/252
f 230/287/252 233/291/252 231/288/252
f 232/292/253 234/293/253 235/294/253
f 232/292/253 235/294/253 233/295/253
f 234/296/254 224/278/254 227/281/254
f 234/296/254 227/281/254 235/297/254
f 227/281/255 226/280/255 236/298/255
f 226/280/256 229/299/256 236/298/256
f 229/289/257 231/288/257 236/300/257
f 231/288/258 233/291/258 236/300/258
f 233/301/259 235/297/259 236/298/259
f 235/297/260 227/281/260 236/298/260
f 237/302/261 238/303/261 239/304/261
f 237/302/261 239/304/261 240/305/261
f 238/303/262 241/306/262 242/307/262
f 238/303/262 242/307/262 239/304/262
f 241/308/263 243/309/263 244/310/263
f 241/308/263 244/310/263 242/311/263
f 243/312/264 245/313/264 246/314/264
f 243/312/264 246/314/264 244/315/264
f 245/313/265 247/316/265 248/317/265
f 245/313/265 248/317/265 246/314/265
f 247/318/266 237/319/266 240/320/266
f 247/318/266 240/320/266 248/321/266
f 240/320/267 239/322/267 249/323/267
f 239/324/268 242/311/268 249/325/268
f 242/311/269 244/310/269 249/325/269
f 244/326/270 246/327/270 249/323/270
f 246/327/271 248/321/271 249/323/271
f 248/321/272 240/320/272 249/323/272
f 250/328/273 251/329/273 252/330/273
f 250/328/273 252/330/273 253/331/273
f 251/332/274 254/333/274 255/334/274
f 251/332/274 255/334/274 252/335/274
f 254/333/275 256/336/275 257/337/275
f 254/333/275 257/337/275 255/334/275
f 256/338/276 258/339/276 259/340/276
f 256/338/276 259/340/276 257/341/276
f 258/342/277 260/343/277 261/344/277
f 258/342/277 261/344/277 259/345/277
f 260/343/278 250/346/278 253/347/278
f 260/343/278 253/347/278 261/344/278
f 253/348/279 252/349/279 262/350/279
f 252/349/280 255/351/280 262/350/280
f 255/351/281 257/352/281 262/350/281
f 257/352/282 259/353/282 262/350/282
f 259/353/283 261/354/283 262/350/283
f 261/354/284 253/348/284 262/350/284
f 263/355/285 264/356/285 265/357/285
f 263/355/286 266/358/286 264/356/286
f 263/355/287 267/359/287 266/358/287
f 263/355/288 268/360/288 267/359/288
f 263/355/289 269/361/289 268/360/289
f 263/355/290 270/362/290 269/361/290
f 263/355/291 271/363/291 270/362/291
f 263/355/292 272/364/292 271/363/292
f 263/355/293 273/365/293 272/364/293
f 263/355/294 265/357/294 273/365/294
f 265/366/295 264/367/295 274/368/295
f 265/366/295 274/368/295 275/369/295
f 264/367/296 266/370/296 276/371/296
f 264/367/296 276/371/296 274/368/296
f 266/372/297 267/373/297 277/374/297
f 266/372/297 277/374/297 276/375/297
f 267/373/298 268/376/298 278/377/298
f 267/373/298 278/377/298 277/374/298
f 268/378/299 269/379/299 279/380/299
f 268/378/299 279/380/299 278/381/299
f 269/379/300 270/382/300 280/383/300
f 269/379/300 280/383/300 279/380/300
f 270/382/301 271/384/301 281/385/301
f 270/382/301 281/385/301 280/383/301
f 271/386/302 272/387/302 282/388/302
f 271/386/302 282/388/302 281/389/302
f 272/387/303 273/390/303 283/391/303
f 272/387/303 283/391/303 282/388/303
f 273/392/304 265/366/304 275/369/304
f 273/392/304 275/369/304 283/393/304
f 275/369/305 274/368/305 284/394/305
f 275/369/305 284/394/305 285/395/305
f 274/368/306 276/371/306 286/396/306
f 274/368/306 286/396/306 284/394/306
f 276/375/307 277/374/307 287/397/307
f 276/375/307 287/397/307 286/398/307
f 277/374/308 278/377/308 288/399/308
f 277/374/308 288/399/308 287/397/308
f 278/381/309 279/380/309 289/400/309
f 278/381/309 289/400/309 288/401/309
f 279/380/310 280/383/310 290/402/310
f 279/380/310 290/402/310 289/400/310
f 280/383/311 281/385/311 291/403/311
f 280/383/311 291/403/311 290/402/311
f 281/389/312 282/388/312 292/404/312
f 281/389/312 292/404/312 291/405/312
f 282/388/313 283/391/313 293/406/313
f 282/388/313 293/406/313 292/404/313
f 283/393/314 275/369/314 285/395/314
f 283/393/314 285/395/314 293/407/314
f 285/395/315 284/394/315 294/408/315
f 285/395/315 294/408/315 295/409/315
f 284/394/316 286/396/316 296/410/316
f 284/394/316 296/410/316 294/408/316
f 286/398/317 287/397/317 297/411/317
f 286/398/317 297/411/317 296/412/317
f 287/397/318 288/399/318 298/413/318
f 287/397/318 298/413/318 297/411/318
f 288/401/319 289/400/319 299/414/319
f 288/401/319 299/414/319 298/415/319
f 289/400/320 290/402/320 300/416/320
f 289/400/320 300/416/320 299/414/320
f 290/402/321 291/403/321 301/417/321
f 290/402/321 301/417/321 300/416/321
f 291/405/322 292/404/322 302/418/322
f 291/405/322 302/418/322 301/419/322
f 292/404/323 293/406/323 303/420/323
f 292/404/323 303/420/323 302/418/323
f 293/407/324 285/395/324 295/409/324
f 293/407/324 295/409/324 303/421/324
f 295/357/325 294/356/325 304/355/325
f 294/356/326 296/358/326 304/355/326
f 296/358/327 297/359/327 304/355/327
f 297/359/328 298/360/328 304/355/328
f 298/360/329 299/361/329 304/355/329
f 299/361/330 300/362/330 304/355/330
f 300/362/331 301/363/331 304/355/331
f 301/363/332 302/364/332 304/355/332
f 302/364/333 303/365/333 304/355/333
f 303/365/334 295/357/334 304/355/334
f 305/422/335 306/423/335 307/424/335
f 305/422/335 307/424/335 308/425/335
f 306/426/336 309/427/336 310/428/336
f 306/426/336 310/428/336 307/429/336
f 309/430/337 311/431/337 312/432/337
f 309/430/337 312/432/337 310/433/337
f 311/434/338 313/435/338 314/436/338
f 311/434/338 314/436/338 312/437/338
f 313/435/339 315/438/339 316/439/339
f 313/435/339 316/439/339 314/436/339
f 315/440/340 305/422/340 308/425/340
f 315/440/340 308/425/340 316/441/340
f 308/425/341 307/424/341 317/442/341
f 307/443/342 310/433/342 317/444/342
f 310/433/343 312/432/343 317/444/343
f 312/432/344 314/445/344 317/444/344
f 314/446/345 316/441/345 317/442/345
f 316/441/346 308/425/346 317/442/346
f 318/447/347 319/448/347 320/449/347
f 318/447/347 320/449/347 321/450/347
f 319/448/348 322/451/348 323/452/348
f 319/448/348 323/452/348 320/449/348
f 322/453/349 324/454/349 325/455/349
f 322/453/349 325/455/349 323/456/349
f 324/454/350 326/457/350 327/458/350
f 324/454/350 327/458/350 325/455/350
f 326/459/351 328/460/351 329/461/351
f 326/459/351 329/461/351 327/462/351
f 328/463/352 318/464/352 321/465/352
f 328/463/352 321/465/352 329/466/352
f 321/467/353 320/468/353 330/469/353
f 320/449/354 323/452/354 330/470/354
f 323/456/355 325/455/355 330/471/355
f 325/472/356 327/462/356 330/469/356
f 327/462/357 329/461/357 330/469/357
f 329/461/358 321/467/358 330/469/358
f 331/473/359 332/474/359 333/475/359
f 331/473/359 333/475/359 334/476/359
f 332/474/360 335/477/360 336/478/360
f 332/474/360 336/478/360 333/475/360
f 335/479/361 337/480/361 338/481/361
f 335/479/361 338/481/361 336/482/361
f 337/483/362 339/484/362 340/485/362
f 337/483/362 340/485/362 338/486/362
f 339/487/363 341/488/363 342/489/363
f 339/487/363 342/489/363 340/490/363
f 341/488/364 331/491/364 334/492/364
f 341/488/364 334/492/364 342/489/364
f 334/476/365 333/475/365 343/493/365
f 333/475/366 336/478/366 343/493/366
f 336/494/367 338/486/367 343/495/367
f 338/486/368 340/485/368 343/495/368
f 340/485/369 342/496/369 343/495/369
f 342/497/370 334/476/370 343/493/370
f 344/498/371 345/499/371 346/500/371
f 344/498/372 347/501/372 345/499/372
f 344/498/373 348/502/373 347/501/373
f 344/498/374 349/503/374 348/502/374
f 344/498/375 350/504/375 349/503/375
f 344/498/376 351/505/376 350/504/376
f 344/498/377 352/506/377 351/505/377
f 344/498/378 353/507/378 352/506/378
f 344/498/379 354/508/379 353/507/379
f 344/498/380 346/500/380 354/508/380
f 346/509/381 345/510/381 355/511/381
f 346/509/381 355/511/381 356/512/381
f 345/513/382 347/514/382 357/515/382
f 345/513/382 357/515/382 355/516/382
f 347/514/383 348/517/383 358/518/383
f 347/514/383 358/518/383 357/515/383
f 348/517/384 349/519/384 359/520/384
f 348/517/384 359/520/384 358/518/384
f 349/503/385 350/504/385 360/521/385
f 349/503/385 360/521/385 359/522/385
f 350/523/386 351/524/386 361/525/386
f 350/523/386 361/525/386 360/526/386
f 351/527/387 352/528/387 362/529/387
f 351/527/387 362/529/387 361/530/387
f 352/528/388 353/531/388 363/532/388
f 352/528/388 363/532/388 362/529/388
f 353/531/389 354/533/389 364/534/389
f 353/531/389 364/534/389 363/532/389
f 354/508/390 346/500/390 356/535/390
f 354/508/390 356/535/390 364/536/390
f 356/512/391 355/511/391 365/537/391
f 356/512/391 365/537/391 366/538/391
f 355/516/392 357/515/392 367/539/392
f 355/516/392 367/539/392 365/540/392
f 357/515/393 358/518/393 368/541/393
f 357/515/393 368/541/393 367/539/393
f 358/518/394 359/520/394 369/542/394
f 358/518/394 369/542/394 368/541/394
f 359/543/395 360/526/395 370/544/395
f 359/543/395 370/544/395 369/545/395
f 360/526/396 361/525/396 371/546/396
f 360/526/396 371/546/396 370/544/396
f 361/530/397 362/529/397 372/547/397
f 361/530/397 372/547/397 371/548/397
f 362/529/398 363/532/398 373/549/398
f 362/529/398 373/549/398 372/547/398
f 363/532/399 364/534/399 374/550/399
f 363/532/399 374/550/399 373/549/399
f 364/551/400 356/512/400 366/538/400
f 364/551/400 366/538/400 374/552/400
f 366/538/401 365/537/401 375/553/401
f 366/538/401 375/553/401 376/554/401
f 365/540/402 367/539/402 377/555/402
f 365/540/402 377/555/402 375/556/402
f 367/539/403 368/541/403 378/557/403
f 367/539/403 378/557/403 377/555/403
f 368/541/404 369/542/404 379/558/404
f 368/541/404 379/558/404 378/557/404
f 369/522/405 370/521/405 380/504/405
f 369/522/405 380/504/405 379/503/405
f 370/544/406 371/546/406 381/559/406
f 370/544/406 381/559/406 380/560/406
f 371/548/407 372/547/407 382/561/407
f 371/548/407 382/561/407 381/562/407
f 372/547/408 373/549/408 383/563/408
f 372/547/408 383/563/408 382/561/408
f 373/549/409 374/550/409 384/564/409
f 373/549/409 384/564/409 383/563/409
f 374/536/410 366/535/410 376/500/410
f 374/536/410 376/500/410 384/508/410
f 376/500/411 375/499/411 385/498/411
f 375/499/412 377/501/412 385/498/412
f 377/501/413 378/502/413 385/498/413
f 378/502/414 379/503/414 385/498/414
f 379/503/415 380/504/415 385/498/415
f 380/504/416 381/505/416 385/498/416
f 381/505/417 382/506/417 385/498/417
f 382/506/418 383/507/418 385/498/418
f 383/507/419 384/508/419 385/498/419
f 384/508/420 376/500/420 385/498/420
f 386/565/421 387/566/421 388/567/421
f 386/565/421 388/567/421 389/568/421
f 387/569/422 390/570/422 391/571/422
f 387/569/422 391/571/422 388/572/422
f 390/573/423 392/574/423 393/575/423
f 390/573/423 393/575/423 391/576/423
f 392/574/424 394/577/424 395/578/424
f 392/574/424 395/578/424 393/575/424
f 394/579/425 396/580/425 397/581/425
f 394/579/425 397/581/425 395/582/425
f 396/583/426 386/565/426 389/568/426
f 396/583/426 389/568/426 397/584/426
f 389/585/427 388/586/427 398/587/427
f 388/586/428 391/588/428 398/587/428
f 391/588/429 393/589/429 398/587/429
f 393/589/430 395/590/430 398/587/430
f 395/590/431 397/591/431 398/587/431
f 397/591/432 389/585/432 398/587/432
f 399/592/433 400/593/433 401/594/433
f 399/592/433 401/594/433 402/595/433
f 400/593/434 403/596/434 404/597/434
f 400/593/434 404/597/434 401/594/434
f 403/598/435 405/599/435 406/600/435
f 403/598/435 406/600/435 404/601/435
f 405/602/436 407/603/436 408/604/436
f 405/602/436 408/604/436 406/605/436
f 407/606/437 409/607/437 410/608/437
f 407/606/437 410/608/437 408/609/437
f 409/607/438 399/610/438 402/611/438
f 409/607/438 402/611/438 410/608/438
f 402/612/439 401/613/439 411/614/439
f 401/613/440 404/615/440 411/614/440
f 404/615/441 406/616/441 411/614/441
f 406/616/442 408/617/442 411/614/442
f 408/617/443 410/618/443 411/614/443
f 410/618/444 402/612/444 411/614/444
f 412/619/445 413/620/445 414/621/445
f 412/619/445 414/621/445 415/622/445
f 413/623/446 416/624/446 417/625/446
f 413/623/446 417/625/446 414/626/446
f 416/627/447 418/628/447 419/629/447
f 416/627/447 419/629/447 417/630/447
f 418/628/448 420/631/448 421/632/448
f 418/628/448 421/632/448 419/629/448
f 420/633/449 422/634/449 423/635/449
f 420/633/449 423/635/449 421/636/449
f 422/637/450 412/619/450 415/622/450
f 422/637/450 415/622/450 423/638/450
f 415/639/451 414/640/451 424/641/451
f 414/640/452 417/642/452 424/641/452
f 417/642/453 419/643/453 424/641/453
f 419/643/454 421/644/454 424/641/454
f 421/644/455 423/645/455 424/641/455
f 423/645/456 415/639/456 424/641/456
f 425/646/457 426/647/457 427/648/457
f 425/646/457 428/649/457 426/647/457
f 425/646/457 429/650/457 428/649/457
f 425/646/457 430/651/457 429/650/457
f 425/646/457 431/652/457 430/651/457
f 425/646/457 427/648/457 431/652/457
f 427/653/458 426/654/458 432/655/458
f 427/653/458 432/655/458 433/656/458
f 426/657/459 428/658/459 434/659/459
f 426/657/459 434/659/459 432/660/459
f 428/661/460 429/662/460 435/663/460
f 428/661/460 435/663/460 434/664/460
f 429/662/461 430/665/461 436/666/461
f 429/662/461 436/666/461 435/663/461
f 430/667/462 431/668/462 437/669/462
f 430/667/462 437/669/462 436/670/462
f 431/671/463 427/653/463 433/656/463
f 431/671/463 433/656/463 437/672/463
f 433/673/464 432/674/464 438/675/464
f 432/674/464 434/676/464 438/675/464
f 434/676/464 435/677/464 438/675/464
f 435/677/464 436/678/464 438/675/464
f 436/678/464 437/679/464 438/675/464
f 437/679/464 433/673/464 438/675/464
f 439/680/465 440/681/465 441/682/465
f 439/680/465 442/683/465 440/681/465
f 439/680/465 443/684/465 442/683/465
f 439/680/465 444/685/465 443/684/465
f 439/680/465 445/686/465 444/685/465
f 439/680/465 441/682/465 445/686/465
f 441/687/466 440/688/466 446/689/466
f 441/687/466 446/689/466 447/690/466
f 440/691/467 442/692/467 448/693/467
f 440/691/467 448/693/467 446/694/467
f 442/695/468 443/696/468 449/697/468
f 442/695/468 449/697/468 448/698/468
f 443/696/469 444/699/469 450/700/469
f 443/696/469 450/700/469 449/697/469
f 444/701/470 445/702/470 451/703/470
f 444/701/470 451/703/470 450/704/470
f 445/705/471 441/687/471 447/690/471
f 445/705/471 447/690/471 451/706/471
f 447/707/472 446/708/472 452/709/472
f 446/708/472 448/710/472 452/709/472
f 448/710/472 449/711/472 452/709/472
f 449/711/472 450/712/472 452/709/472
f 450/712/472 451/713/472 452/709/472
f 451/713/472 447/707/472 452/709/472
f 453/714/473 454/715/473 455/716/473
f 453/714/473 456/717/473 454/715/473
f 453/714/473 457/718/473 456/717/473
f 453/714/473 458/719/473 457/718/473
f 453/714/473 459/720/473 458/719/473
f 453/714/473 455/716/473 459/720/473
f 455/721/474 454/722/474 460/723/474
f 455/721/474 460/723/474 461/724/474
f 454/725/475 456/726/475 462/727/475
f 454/725/475 462/727/475 460/728/475
f 456/729/476 457/730/476 463/731/476
f 456/729/476 463/731/476 462/732/476
f 457/730/477 458/733/477 464/734/477
f 457/730/477 464/734/477 463/731/477
f 458/735/478 459/736/478 465/737/478
f 458/735/478 465/737/478 464/738/478
f 459/739/479 455/721/479 461/724/479
f 459/739/479 461/724/479 465/740/479
f 461/741/480 460/742/480 466/743/480
f 460/742/480 462/744/480 466/743/480
f 462/744/480 463/745/480 466/743/480
f 463/745/480 464/746/480 466/743/480
f 464/746/480 465/747/480 466/743/480
f 465/747/480 461/741/480 466/743/480
