# Sarn destroyer, from tools/gen_fleet.py
# Generated by tools. Edit the generator script.
v 0.000000 0.000000 -0.304649
v 1.203459 0.245080 0.706257
v 0.000000 0.245080 1.124987
v 1.701948 0.245080 -0.304649
v 1.203459 0.245080 -1.315554
v 0.000000 0.245080 -1.734285
v -1.203459 0.245080 -1.315554
v -1.701948 0.245080 -0.304649
v -1.203459 0.245080 0.706257
v 0.000000 0.490161 -0.304649
v 0.000000 0.307531 0.495948
v 0.079424 0.307531 0.495948
v 0.000000 0.307531 0.575372
v 0.000000 0.307531 0.416523
v -0.079424 0.307531 0.495948
v 0.000000 0.511764 0.495948
v 0.000000 0.362429 0.175709
v 0.079424 0.362429 0.175709
v 0.000000 0.362429 0.255133
v 0.000000 0.362429 0.096285
v -0.079424 0.362429 0.175709
v 0.000000 0.566662 0.175709
v 0.000000 0.417327 -0.144529
v 0.079424 0.417327 -0.144529
v 0.000000 0.417327 -0.065105
v 0.000000 0.417327 -0.223954
v -0.079424 0.417327 -0.144529
v 0.000000 0.621560 -0.144529
v 0.000000 0.417327 -0.464768
v 0.079424 0.417327 -0.464768
v 0.000000 0.417327 -0.385344
v 0.000000 0.417327 -0.544192
v -0.079424 0.417327 -0.464768
v 0.000000 0.621560 -0.464768
v 0.000000 0.362429 -0.785006
v 0.079424 0.362429 -0.785006
v 0.000000 0.362429 -0.705582
v 0.000000 0.362429 -0.864430
v -0.079424 0.362429 -0.785006
v 0.000000 0.566662 -0.785006
v 0.000000 0.307531 -1.105245
v 0.079424 0.307531 -1.105245
v 0.000000 0.307531 -1.025820
v 0.000000 0.307531 -1.184669
v -0.079424 0.307531 -1.105245
v 0.000000 0.511764 -1.105245
v -1.270151 0.154310 0.673694
v -1.270151 0.154310 0.787157
v -1.270151 0.335851 0.787157
v -1.270151 0.335851 0.673694
v -0.997840 0.154310 0.787157
v -0.997840 0.154310 0.673694
v -0.997840 0.335851 0.673694
v -0.997840 0.335851 0.787157
v -1.838103 0.154310 -0.361380
v -1.838103 0.154310 -0.247917
v -1.838103 0.335851 -0.247917
v -1.838103 0.335851 -0.361380
v -1.565792 0.154310 -0.247917
v -1.565792 0.154310 -0.361380
v -1.565792 0.335851 -0.361380
v -1.565792 0.335851 -0.247917
v -1.270151 0.154310 -1.396454
v -1.270151 0.154310 -1.282991
v -1.270151 0.335851 -1.282991
v -1.270151 0.335851 -1.396454
v -0.997840 0.154310 -1.282991
v -0.997840 0.154310 -1.396454
v -0.997840 0.335851 -1.396454
v -0.997840 0.335851 -1.282991
v 1.270151 0.154310 0.787157
v 1.270151 0.154310 0.673694
v 1.270151 0.335851 0.673694
v 1.270151 0.335851 0.787157
v 0.997840 0.154310 0.673694
v 0.997840 0.154310 0.787157
v 0.997840 0.335851 0.787157
v 0.997840 0.335851 0.673694
v 1.838103 0.154310 -0.247917
v 1.838103 0.154310 -0.361380
v 1.838103 0.335851 -0.361380
v 1.838103 0.335851 -0.247917
v 1.565792 0.154310 -0.361380
v 1.565792 0.154310 -0.247917
v 1.565792 0.335851 -0.247917
v 1.565792 0.335851 -0.361380
v 1.270151 0.154310 -1.282991
v 1.270151 0.154310 -1.396454
v 1.270151 0.335851 -1.396454
v 1.270151 0.335851 -1.282991
v 0.997840 0.154310 -1.396454
v 0.997840 0.154310 -1.282991
v 0.997840 0.335851 -1.282991
v 0.997840 0.335851 -1.396454
v 1.469348 0.196064 -1.419992
v 1.432508 0.523025 -1.419992
v 1.388261 0.512926 -1.341382
v 1.423963 0.196064 -1.341382
v 1.299766 0.492728 -1.341382
v 1.333192 0.196064 -1.341382
v 1.255519 0.482628 -1.419992
v 1.287807 0.196064 -1.419992
v 1.299766 0.492728 -1.498601
v 1.333192 0.196064 -1.498601
v 1.388261 0.512926 -1.498601
v 1.423963 0.196064 -1.498601
v 1.323837 0.833591 -1.419992
v 1.282946 0.813899 -1.341382
v 1.201165 0.774515 -1.341382
v 1.160274 0.754823 -1.419992
v 1.201165 0.774515 -1.498601
v 1.282946 0.813899 -1.498601
v 1.148783 1.112188 -1.419992
v 1.113299 1.083891 -1.341382
v 1.042332 1.027296 -1.341382
v 1.006848 0.998999 -1.419992
v 1.042332 1.027296 -1.498601
v 1.113299 1.083891 -1.498601
v 0.916123 1.344847 -1.419992
v 0.887826 1.309363 -1.341382
v 0.831232 1.238396 -1.341382
v 0.802934 1.202912 -1.419992
v 0.831232 1.238396 -1.498601
v 0.887826 1.309363 -1.498601
v 0.637526 1.519901 -1.419992
v 0.617834 1.479010 -1.341382
v 0.578450 1.397229 -1.341382
v 0.558758 1.356338 -1.419992
v 0.578450 1.397229 -1.498601
v 0.617834 1.479010 -1.498601
v 0.326961 1.628573 -1.419992
v 0.316862 1.584325 -1.341382
v 0.296663 1.495831 -1.341382
v 0.286564 1.451583 -1.419992
v 0.296663 1.495831 -1.498601
v 0.316862 1.584325 -1.498601
v 0.000000 1.665412 -1.419992
v 0.000000 1.620027 -1.341382
v 0.000000 1.529257 -1.341382
v 0.000000 1.483871 -1.419992
v 0.000000 1.529257 -1.498601
v 0.000000 1.620027 -1.498601
v -0.326961 1.628573 -1.419992
v -0.316862 1.584325 -1.341382
v -0.296663 1.495831 -1.341382
v -0.286564 1.451583 -1.419992
v -0.296663 1.495831 -1.498601
v -0.316862 1.584325 -1.498601
v -0.637526 1.519901 -1.419992
v -0.617834 1.479010 -1.341382
v -0.578450 1.397229 -1.341382
v -0.558758 1.356338 -1.419992
v -0.578450 1.397229 -1.498601
v -0.617834 1.479010 -1.498601
v -0.916123 1.344847 -1.419992
v -0.887826 1.309363 -1.341382
v -0.831232 1.238396 -1.341382
v -0.802934 1.202912 -1.419992
v -0.831232 1.238396 -1.498601
v -0.887826 1.309363 -1.498601
v -1.148783 1.112188 -1.419992
v -1.113299 1.083891 -1.341382
v -1.042332 1.027296 -1.341382
v -1.006848 0.998999 -1.419992
v -1.042332 1.027296 -1.498601
v -1.113299 1.083891 -1.498601
v -1.323837 0.833591 -1.419992
v -1.282946 0.813899 -1.341382
v -1.201165 0.774515 -1.341382
v -1.160274 0.754823 -1.419992
v -1.201165 0.774515 -1.498601
v -1.282946 0.813899 -1.498601
v -1.432508 0.523025 -1.419992
v -1.388261 0.512926 -1.341382
v -1.299766 0.492728 -1.341382
v -1.255519 0.482628 -1.419992
v -1.299766 0.492728 -1.498601
v -1.388261 0.512926 -1.498601
v -1.469348 0.196064 -1.419992
v -1.423963 0.196064 -1.341382
v -1.333192 0.196064 -1.341382
v -1.287807 0.196064 -1.419992
v -1.333192 0.196064 -1.498601
v -1.423963 0.196064 -1.498601
v 1.378577 0.196064 -1.419992
v -1.378577 0.196064 -1.419992
v 1.080420 0.771890 -1.306528
v 1.307346 0.771890 -1.306528
v 1.307346 0.998816 -1.306528
v 1.080420 0.998816 -1.306528
v 1.307346 0.771890 -1.533455
v 1.080420 0.771890 -1.533455
v 1.080420 0.998816 -1.533455
v 1.307346 0.998816 -1.533455
v -0.113463 1.461179 -1.306528
v 0.113463 1.461179 -1.306528
v 0.113463 1.688105 -1.306528
v -0.113463 1.688105 -1.306528
v 0.113463 1.461179 -1.533455
v -0.113463 1.461179 -1.533455
v -0.113463 1.688105 -1.533455
v 0.113463 1.688105 -1.533455
v -1.307346 0.771890 -1.306528
v -1.080420 0.771890 -1.306528
v -1.080420 0.998816 -1.306528
v -1.307346 0.998816 -1.306528
v -1.080420 0.771890 -1.533455
v -1.307346 0.771890 -1.533455
v -1.307346 0.998816 -1.533455
v -1.080420 0.998816 -1.533455
v 1.378577 0.196064 -1.987307
v 1.506946 0.067695 -1.987307
v 1.378577 0.014523 -1.987307
v 1.560119 0.196064 -1.987307
v 1.506946 0.324433 -1.987307
v 1.378577 0.377605 -1.987307
v 1.250209 0.324433 -1.987307
v 1.197036 0.196064 -1.987307
v 1.250209 0.067695 -1.987307
v 1.506946 0.067695 -1.193065
v 1.378577 0.014523 -1.193065
v 1.560119 0.196064 -1.193065
v 1.506946 0.324433 -1.193065
v 1.378577 0.377605 -1.193065
v 1.250209 0.324433 -1.193065
v 1.197036 0.196064 -1.193065
v 1.250209 0.067695 -1.193065
v 1.378577 0.196064 -1.193065
v 1.378577 0.343566 -1.953268
v 1.482877 0.300364 -1.953268
v 1.453673 0.271160 -1.987307
v 1.378577 0.302266 -1.987307
v 1.526080 0.196064 -1.953268
v 1.484779 0.196064 -1.987307
v 1.482877 0.091765 -1.953268
v 1.453673 0.120969 -1.987307
v 1.378577 0.048562 -1.953268
v 1.378577 0.089863 -1.987307
v 1.274278 0.091765 -1.953268
v 1.303482 0.120969 -1.987307
v 1.231075 0.196064 -1.953268
v 1.272376 0.196064 -1.987307
v 1.274278 0.300364 -1.953268
v 1.303482 0.271160 -1.987307
v 1.378577 0.196064 -2.010000
v -1.378577 0.196064 -1.987307
v -1.250209 0.067695 -1.987307
v -1.378577 0.014523 -1.987307
v -1.197036 0.196064 -1.987307
v -1.250209 0.324433 -1.987307
v -1.378577 0.377605 -1.987307
v -1.506946 0.324433 -1.987307
v -1.560119 0.196064 -1.987307
v -1.506946 0.067695 -1.987307
v -1.250209 0.067695 -1.193065
v -1.378577 0.014523 -1.193065
v -1.197036 0.196064 -1.193065
v -1.250209 0.324433 -1.193065
v -1.378577 0.377605 -1.193065
v -1.506946 0.324433 -1.193065
v -1.560119 0.196064 -1.193065
v -1.506946 0.067695 -1.193065
v -1.378577 0.196064 -1.193065
v -1.378577 0.343566 -1.953268
v -1.274278 0.300364 -1.953268
v -1.303482 0.271160 -1.987307
v -1.378577 0.302266 -1.987307
v -1.231075 0.196064 -1.953268
v -1.272376 0.196064 -1.987307
v -1.274278 0.091765 -1.953268
v -1.303482 0.120969 -1.987307
v -1.378577 0.048562 -1.953268
v -1.378577 0.089863 -1.987307
v -1.482877 0.091765 -1.953268
v -1.453673 0.120969 -1.987307
v -1.526080 0.196064 -1.953268
v -1.484779 0.196064 -1.987307
v -1.482877 0.300364 -1.953268
v -1.453673 0.271160 -1.987307
v -1.378577 0.196064 -2.010000
v -1.423963 0.127986 -0.932100
v 0.000000 0.127986 -0.932100
v 0.000000 0.264142 -0.932100
v -1.423963 0.264142 -0.932100
v 0.000000 0.127986 -1.227104
v -1.423963 0.127986 -1.227104
v -1.423963 0.264142 -1.227104
v 0.000000 0.264142 -1.227104
v 0.000000 0.127986 -0.932100
v 1.423963 0.127986 -0.932100
v 1.423963 0.264142 -0.932100
v 0.000000 0.264142 -0.932100
v 1.423963 0.127986 -1.227104
v 0.000000 0.127986 -1.227104
v 0.000000 0.264142 -1.227104
v 1.423963 0.264142 -1.227104
v -0.076588 0.234869 2.010000
v 0.076588 0.234869 2.010000
v 0.076588 0.255292 2.010000
v -0.076588 0.255292 2.010000
v 0.510584 0.177003 0.988831
v -0.510584 0.177003 0.988831
v -0.510584 0.313158 0.988831
v 0.510584 0.313158 0.988831
vt 0.445312 0.828125
vt 0.517128 0.944135
vt 0.445312 0.992188
vt 0.546875 0.828125
vt 0.517128 0.712115
vt 0.445312 0.664062
vt 0.373497 0.712115
vt 0.343750 0.828125
vt 0.373497 0.944135
vt 0.617188 0.429688
vt 0.664062 0.429688
vt 0.617188 0.476562
vt 0.617188 0.382812
vt 0.570312 0.429688
vt 0.765625 0.382812
vt 0.718750 0.382812
vt 0.718750 0.476562
vt 0.671875 0.382812
vt 0.718750 0.382812
vt 0.671875 0.382812
vt 0.718750 0.476562
vt 0.617188 0.429688
vt 0.664062 0.429688
vt 0.617188 0.476562
vt 0.617188 0.382812
vt 0.570312 0.429688
vt 0.718750 0.382812
vt 0.765625 0.382812
vt 0.718750 0.476562
vt 0.718750 0.382812
vt 0.671875 0.382812
vt 0.718750 0.476562
vt 0.718750 0.382812
vt 0.671875 0.382812
vt 0.718750 0.476562
vt 0.671875 0.382812
vt 0.617188 0.429688
vt 0.664062 0.429688
vt 0.617188 0.476562
vt 0.617188 0.382812
vt 0.570312 0.429688
vt 0.718750 0.382812
vt 0.765625 0.382812
vt 0.718750 0.476562
vt 0.765625 0.382812
vt 0.718750 0.382812
vt 0.718750 0.476562
vt 0.671875 0.382812
vt 0.671875 0.382812
vt 0.617188 0.429688
vt 0.664062 0.429688
vt 0.617188 0.476562
vt 0.617188 0.382812
vt 0.570312 0.429688
vt 0.765625 0.382812
vt 0.718750 0.382812
vt 0.718750 0.476562
vt 0.765625 0.382812
vt 0.718750 0.382812
vt 0.718750 0.476562
vt 0.671875 0.382812
vt 0.617188 0.429688
vt 0.664062 0.429688
vt 0.617188 0.476562
vt 0.617188 0.382812
vt 0.570312 0.429688
vt 0.718750 0.382812
vt 0.765625 0.382812
vt 0.718750 0.476562
vt 0.765625 0.382812
vt 0.718750 0.382812
vt 0.718750 0.476562
vt 0.671875 0.382812
vt 0.671875 0.382812
vt 0.617188 0.429688
vt 0.664062 0.429688
vt 0.617188 0.476562
vt 0.617188 0.382812
vt 0.570312 0.429688
vt 0.718750 0.382812
vt 0.765625 0.382812
vt 0.718750 0.476562
vt 0.765625 0.382812
vt 0.718750 0.382812
vt 0.718750 0.476562
vt 0.671875 0.382812
vt 0.671875 0.382812
vt 0.851562 0.210938
vt 0.945312 0.210938
vt 0.945312 0.273438
vt 0.851562 0.273438
vt 0.851562 0.210938
vt 0.851562 0.273438
vt 0.945312 0.273438
vt 0.945312 0.210938
vt 0.945312 0.210938
vt 0.851562 0.210938
vt 0.851562 0.273438
vt 0.945312 0.273438
vt 0.773438 0.140625
vt 0.835938 0.140625
vt 0.835938 0.187500
vt 0.773438 0.187500
vt 0.851562 0.210938
vt 0.945312 0.210938
vt 0.945312 0.273438
vt 0.851562 0.273438
vt 0.851562 0.210938
vt 0.851562 0.273438
vt 0.945312 0.273438
vt 0.945312 0.210938
vt 0.945312 0.210938
vt 0.851562 0.210938
vt 0.851562 0.273438
vt 0.945312 0.273438
vt 0.773438 0.140625
vt 0.835938 0.140625
vt 0.835938 0.187500
vt 0.773438 0.187500
vt 0.851562 0.210938
vt 0.945312 0.210938
vt 0.945312 0.273438
vt 0.851562 0.273438
vt 0.851562 0.210938
vt 0.851562 0.273438
vt 0.945312 0.273438
vt 0.945312 0.210938
vt 0.945312 0.210938
vt 0.851562 0.210938
vt 0.851562 0.273438
vt 0.945312 0.273438
vt 0.773438 0.140625
vt 0.835938 0.140625
vt 0.835938 0.187500
vt 0.773438 0.187500
vt 0.945312 0.210938
vt 0.851562 0.210938
vt 0.851562 0.273438
vt 0.945312 0.273438
vt 0.945312 0.273438
vt 0.945312 0.210938
vt 0.851562 0.210938
vt 0.851562 0.273438
vt 0.773438 0.140625
vt 0.835938 0.140625
vt 0.835938 0.187500
vt 0.773438 0.187500
vt 0.945312 0.210938
vt 0.851562 0.210938
vt 0.851562 0.273438
vt 0.945312 0.273438
vt 0.945312 0.210938
vt 0.851562 0.210938
vt 0.851562 0.273438
vt 0.945312 0.273438
vt 0.945312 0.273438
vt 0.945312 0.210938
vt 0.851562 0.210938
vt 0.851562 0.273438
vt 0.773438 0.140625
vt 0.835938 0.140625
vt 0.835938 0.187500
vt 0.773438 0.187500
vt 0.945312 0.210938
vt 0.851562 0.210938
vt 0.851562 0.273438
vt 0.945312 0.273438
vt 0.945312 0.210938
vt 0.851562 0.210938
vt 0.851562 0.273438
vt 0.945312 0.273438
vt 0.945312 0.273438
vt 0.945312 0.210938
vt 0.851562 0.210938
vt 0.851562 0.273438
vt 0.773438 0.140625
vt 0.835938 0.140625
vt 0.835938 0.187500
vt 0.773438 0.187500
vt 0.945312 0.210938
vt 0.851562 0.210938
vt 0.851562 0.273438
vt 0.945312 0.273438
vt 0.515625 0.101562
vt 0.515625 0.108516
vt 0.640625 0.108301
vt 0.640625 0.101562
vt 0.636764 0.101562
vt 0.633727 0.108301
vt 0.626198 0.107872
vt 0.629042 0.101562
vt 0.640625 0.107872
vt 0.515625 0.107657
vt 0.390625 0.107872
vt 0.390625 0.101562
vt 0.629042 0.101562
vt 0.626198 0.107872
vt 0.633727 0.108301
vt 0.636764 0.101562
vt 0.390625 0.108301
vt 0.515625 0.115121
vt 0.640625 0.114703
vt 0.624767 0.114703
vt 0.617810 0.113865
vt 0.640625 0.113865
vt 0.515625 0.113446
vt 0.390625 0.113865
vt 0.617810 0.113865
vt 0.624767 0.114703
vt 0.390625 0.114703
vt 0.515625 0.121047
vt 0.640625 0.120445
vt 0.610335 0.120445
vt 0.604298 0.119241
vt 0.640625 0.119241
vt 0.515625 0.118639
vt 0.390625 0.119241
vt 0.604298 0.119241
vt 0.610335 0.120445
vt 0.390625 0.120445
vt 0.515625 0.125995
vt 0.640625 0.125240
vt 0.591154 0.125240
vt 0.586339 0.123731
vt 0.640625 0.123731
vt 0.515625 0.122976
vt 0.390625 0.123731
vt 0.586339 0.123731
vt 0.591154 0.125240
vt 0.390625 0.125240
vt 0.796686 0.242188
vt 0.772985 0.242187
vt 0.771310 0.273437
vt 0.794279 0.273437
vt 0.568185 0.128848
vt 0.564835 0.127109
vt 0.789464 0.273437
vt 0.767960 0.273437
vt 0.766285 0.242188
vt 0.787057 0.242188
vt 0.767960 0.210938
vt 0.789464 0.210938
vt 0.564835 0.127109
vt 0.568185 0.128848
vt 0.794279 0.210938
vt 0.771310 0.210938
vt 0.746565 0.242187
vt 0.745706 0.273437
vt 0.542581 0.131088
vt 0.540863 0.129206
vt 0.743988 0.273437
vt 0.743129 0.242188
vt 0.743988 0.210938
vt 0.540863 0.129206
vt 0.542581 0.131088
vt 0.745706 0.210938
vt 0.718750 0.242187
vt 0.718750 0.273437
vt 0.515625 0.131847
vt 0.515625 0.129917
vt 0.718750 0.210938
vt 0.515625 0.129917
vt 0.515625 0.131847
vt 0.690935 0.242187
vt 0.691794 0.273437
vt 0.488669 0.131088
vt 0.490387 0.129206
vt 0.693512 0.273437
vt 0.694371 0.242188
vt 0.693512 0.210938
vt 0.490387 0.129206
vt 0.488669 0.131088
vt 0.691794 0.210938
vt 0.664515 0.242187
vt 0.666190 0.273437
vt 0.463065 0.128848
vt 0.466415 0.127109
vt 0.669540 0.273437
vt 0.671215 0.242188
vt 0.669540 0.210938
vt 0.466415 0.127109
vt 0.463065 0.128848
vt 0.666190 0.210938
vt 0.640814 0.242188
vt 0.643221 0.273437
vt 0.440096 0.125240
vt 0.444911 0.123731
vt 0.648036 0.273437
vt 0.650443 0.242188
vt 0.648036 0.210938
vt 0.444911 0.123731
vt 0.440096 0.125240
vt 0.643221 0.210938
vt 0.621021 0.242188
vt 0.624040 0.273437
vt 0.420915 0.120445
vt 0.426952 0.119241
vt 0.630077 0.273437
vt 0.633096 0.242188
vt 0.630077 0.210938
vt 0.426952 0.119241
vt 0.420915 0.120445
vt 0.624040 0.210938
vt 0.406483 0.114703
vt 0.413440 0.113865
vt 0.413440 0.113865
vt 0.406483 0.114703
vt 0.397523 0.108301
vt 0.405052 0.107872
vt 0.405052 0.107872
vt 0.397523 0.108301
vt 0.394486 0.101562
vt 0.402208 0.101562
vt 0.402208 0.101562
vt 0.394486 0.101562
vt 0.836028 0.242188
vt 0.843750 0.242188
vt 0.839889 0.273438
vt 0.832167 0.273438
vt 0.828306 0.242188
vt 0.832167 0.210938
vt 0.839889 0.210938
vt 0.601472 0.242188
vt 0.597611 0.273438
vt 0.593750 0.242188
vt 0.605333 0.273438
vt 0.609194 0.242188
vt 0.605333 0.210938
vt 0.597611 0.210938
vt 0.671875 0.382812
vt 0.765625 0.382812
vt 0.765625 0.476562
vt 0.671875 0.476562
vt 0.765625 0.382812
vt 0.671875 0.382812
vt 0.671875 0.476562
vt 0.765625 0.476562
vt 0.570312 0.476562
vt 0.664062 0.476562
vt 0.664062 0.382812
vt 0.570312 0.382812
vt 0.671875 0.382812
vt 0.765625 0.382812
vt 0.765625 0.476562
vt 0.671875 0.476562
vt 0.671875 0.382812
vt 0.765625 0.382812
vt 0.765625 0.476562
vt 0.671875 0.476562
vt 0.765625 0.382812
vt 0.671875 0.382812
vt 0.671875 0.476562
vt 0.765625 0.476562
vt 0.570312 0.476562
vt 0.664062 0.476562
vt 0.664062 0.382812
vt 0.570312 0.382812
vt 0.671875 0.382812
vt 0.765625 0.382812
vt 0.765625 0.476562
vt 0.671875 0.476562
vt 0.671875 0.382812
vt 0.765625 0.382812
vt 0.765625 0.476562
vt 0.671875 0.476562
vt 0.765625 0.382812
vt 0.671875 0.382812
vt 0.671875 0.476562
vt 0.765625 0.476562
vt 0.570312 0.476562
vt 0.664062 0.476562
vt 0.664062 0.382812
vt 0.570312 0.382812
vt 0.671875 0.382812
vt 0.765625 0.382812
vt 0.765625 0.476562
vt 0.671875 0.476562
vt 0.539062 0.234375
vt 0.572208 0.206754
vt 0.539062 0.195312
vt 0.585938 0.234375
vt 0.572208 0.261996
vt 0.539062 0.273438
vt 0.505917 0.261996
vt 0.492188 0.234375
vt 0.505917 0.206754
vt 0.589844 0.664062
vt 0.614703 0.664062
vt 0.614703 0.992188
vt 0.589844 0.992188
vt 0.492188 0.308316
vt 0.492188 0.335938
vt 0.867188 0.335938
vt 0.867188 0.308316
vt 0.492188 0.363559
vt 0.867188 0.363559
vt 0.564985 0.664062
vt 0.564985 0.992188
vt 0.437500 0.195312
vt 0.470646 0.206754
vt 0.437500 0.234375
vt 0.484375 0.234375
vt 0.470646 0.261996
vt 0.437500 0.273438
vt 0.404354 0.261996
vt 0.390625 0.234375
vt 0.404354 0.206754
vt 0.054688 0.375000
vt 0.087833 0.361271
vt 0.078552 0.351990
vt 0.054688 0.361875
vt 0.101562 0.328125
vt 0.088437 0.328125
vt 0.087833 0.294979
vt 0.078552 0.304260
vt 0.054688 0.281250
vt 0.054688 0.294375
vt 0.021542 0.294979
vt 0.030823 0.304260
vt 0.007812 0.328125
vt 0.020937 0.328125
vt 0.021542 0.361271
vt 0.030823 0.351990
vt 0.054688 0.328125
vt 0.539062 0.234375
vt 0.572208 0.206754
vt 0.539062 0.195312
vt 0.585938 0.234375
vt 0.572208 0.261996
vt 0.539062 0.273438
vt 0.505917 0.261996
vt 0.492188 0.234375
vt 0.505917 0.206754
vt 0.589844 0.664062
vt 0.614703 0.664062
vt 0.614703 0.992188
vt 0.589844 0.992188
vt 0.492188 0.308316
vt 0.492188 0.335938
vt 0.867188 0.335938
vt 0.867188 0.308316
vt 0.492188 0.363559
vt 0.867188 0.363559
vt 0.564985 0.664062
vt 0.564985 0.992188
vt 0.437500 0.195312
vt 0.470646 0.206754
vt 0.437500 0.234375
vt 0.484375 0.234375
vt 0.470646 0.261996
vt 0.437500 0.273438
vt 0.404354 0.261996
vt 0.390625 0.234375
vt 0.404354 0.206754
vt 0.054688 0.375000
vt 0.087833 0.361271
vt 0.078552 0.351990
vt 0.054688 0.361875
vt 0.101562 0.328125
vt 0.088438 0.328125
vt 0.087833 0.294979
vt 0.078552 0.304260
vt 0.054688 0.281250
vt 0.054688 0.294375
vt 0.021542 0.294979
vt 0.030823 0.304260
vt 0.007812 0.328125
vt 0.020938 0.328125
vt 0.021542 0.361271
vt 0.030823 0.351990
vt 0.054688 0.328125
vt 0.187500 0.484375
vt 0.312500 0.484375
vt 0.312500 0.656250
vt 0.187500 0.656250
vt 0.312500 0.484375
vt 0.187500 0.484375
vt 0.187500 0.656250
vt 0.312500 0.656250
vt 0.320312 0.656250
vt 0.382812 0.656250
vt 0.382812 0.484375
vt 0.320312 0.484375
vt 0.187500 0.484375
vt 0.312500 0.484375
vt 0.312500 0.656250
vt 0.187500 0.656250
vt 0.187500 0.484375
vt 0.312500 0.484375
vt 0.312500 0.656250
vt 0.187500 0.656250
vt 0.312500 0.484375
vt 0.187500 0.484375
vt 0.187500 0.656250
vt 0.312500 0.656250
vt 0.320312 0.656250
vt 0.382812 0.656250
vt 0.382812 0.484375
vt 0.320312 0.484375
vt 0.187500 0.484375
vt 0.312500 0.484375
vt 0.312500 0.656250
vt 0.187500 0.656250
vt 0.508594 0.422656
vt 0.522656 0.422656
vt 0.522656 0.436719
vt 0.508594 0.436719
vt 0.195312 0.382812
vt 0.007812 0.382812
vt 0.007812 0.476562
vt 0.195312 0.476562
vt 0.080859 0.656250
vt 0.106641 0.656250
vt 0.179688 0.484375
vt 0.007812 0.484375
vt 0.007812 0.382812
vt 0.195312 0.422656
vt 0.195312 0.436719
vt 0.007812 0.476562
vn 0.058688 -0.983923 0.168673
vn 0.142179 -0.987355 0.070110
vn 0.142179 -0.987355 -0.070110
vn 0.058688 -0.983923 -0.168673
vn -0.058688 -0.983923 -0.168673
vn -0.142179 -0.987355 -0.070110
vn -0.142179 -0.987355 0.070110
vn -0.058688 -0.983923 0.168673
vn 0.058688 0.983923 0.168673
vn 0.142179 0.987355 0.070110
vn 0.142179 0.987355 -0.070110
vn 0.058688 0.983923 -0.168673
vn -0.058688 0.983923 -0.168673
vn -0.142179 0.987355 -0.070110
vn -0.142179 0.987355 0.070110
vn -0.058688 0.983923 0.168673
vn 0.000000 -1.000000 0.000000
vn 0.681799 0.265144 0.681799
vn 0.681799 0.265144 -0.681799
vn -0.681799 0.265144 -0.681799
vn -0.681799 0.265144 0.681799
vn 0.000000 -1.000000 0.000000
vn 0.681799 0.265144 0.681799
vn 0.681799 0.265144 -0.681799
vn -0.681799 0.265144 -0.681799
vn -0.681799 0.265144 0.681799
vn 0.000000 -1.000000 0.000000
vn 0.681799 0.265144 0.681799
vn 0.681799 0.265144 -0.681799
vn -0.681799 0.265144 -0.681799
vn -0.681799 0.265144 0.681799
vn 0.000000 -1.000000 0.000000
vn 0.681799 0.265144 0.681799
vn 0.681799 0.265144 -0.681799
vn -0.681799 0.265144 -0.681799
vn -0.681799 0.265144 0.681799
vn 0.000000 -1.000000 0.000000
vn 0.681799 0.265144 0.681799
vn 0.681799 0.265144 -0.681799
vn -0.681799 0.265144 -0.681799
vn -0.681799 0.265144 0.681799
vn 0.000000 -1.000000 0.000000
vn 0.681799 0.265144 0.681799
vn 0.681799 0.265144 -0.681799
vn -0.681799 0.265144 -0.681799
vn -0.681799 0.265144 0.681799
vn -1.000000 0.000000 0.000000
vn 1.000000 0.000000 0.000000
vn 0.000000 1.000000 0.000000
vn 0.000000 -1.000000 0.000000
vn 0.000000 0.000000 -1.000000
vn 0.000000 0.000000 1.000000
vn -1.000000 0.000000 0.000000
vn 1.000000 0.000000 0.000000
vn 0.000000 1.000000 0.000000
vn 0.000000 -1.000000 0.000000
vn 0.000000 0.000000 -1.000000
vn 0.000000 0.000000 1.000000
vn -1.000000 0.000000 0.000000
vn 1.000000 0.000000 0.000000
vn 0.000000 1.000000 0.000000
vn 0.000000 -1.000000 0.000000
vn 0.000000 0.000000 -1.000000
vn 0.000000 0.000000 1.000000
vn 1.000000 0.000000 0.000000
vn -1.000000 0.000000 0.000000
vn 0.000000 1.000000 0.000000
vn 0.000000 -1.000000 0.000000
vn 0.000000 0.000000 1.000000
vn 0.000000 0.000000 -1.000000
vn 1.000000 0.000000 0.000000
vn -1.000000 0.000000 0.000000
vn 0.000000 1.000000 0.000000
vn 0.000000 -1.000000 0.000000
vn 0.000000 0.000000 1.000000
vn 0.000000 0.000000 -1.000000
vn 1.000000 0.000000 0.000000
vn -1.000000 0.000000 0.000000
vn 0.000000 1.000000 0.000000
vn 0.000000 -1.000000 0.000000
vn 0.000000 0.000000 1.000000
vn 0.000000 0.000000 -1.000000
vn 0.861932 0.097116 0.497637
vn 0.000000 0.000000 1.000000
vn -0.861932 -0.097116 0.497637
vn -0.861932 -0.097116 -0.497637
vn 0.000000 0.000000 -1.000000
vn 0.861932 0.097116 -0.497637
vn 0.818711 0.286479 0.497637
vn -0.818711 -0.286479 0.497637
vn -0.818711 -0.286479 -0.497637
vn 0.818711 0.286479 -0.497637
vn 0.734436 0.461477 0.497637
vn -0.734436 -0.461477 0.497637
vn -0.734436 -0.461477 -0.497637
vn 0.734436 0.461477 -0.497637
vn 0.613334 0.613334 0.497637
vn -0.613334 -0.613334 0.497637
vn -0.613334 -0.613334 -0.497637
vn 0.613334 0.613334 -0.497637
vn 0.461477 0.734436 0.497637
vn -0.461477 -0.734436 0.497637
vn -0.461477 -0.734436 -0.497637
vn 0.461477 0.734436 -0.497637
vn 0.286479 0.818711 0.497637
vn -0.286479 -0.818711 0.497637
vn -0.286479 -0.818711 -0.497637
vn 0.286479 0.818711 -0.497637
vn 0.097116 0.861932 0.497637
vn -0.097116 -0.861932 0.497637
vn -0.097116 -0.861932 -0.497637
vn 0.097116 0.861932 -0.497637
vn -0.097116 0.861932 0.497637
vn 0.097116 -0.861932 0.497637
vn 0.097116 -0.861932 -0.497637
vn -0.097116 0.861932 -0.497637
vn -0.286479 0.818711 0.497637
vn 0.286479 -0.818711 0.497637
vn 0.286479 -0.818711 -0.497637
vn -0.286479 0.818711 -0.497637
vn -0.461477 0.734436 0.497637
vn 0.461477 -0.734436 0.497637
vn 0.461477 -0.734436 -0.497637
vn -0.461477 0.734436 -0.497637
vn -0.613334 0.613334 0.497637
vn 0.613334 -0.613334 0.497637
vn 0.613334 -0.613334 -0.497637
vn -0.613334 0.613334 -0.497637
vn -0.734436 0.461477 0.497637
vn 0.734436 -0.461477 0.497637
vn 0.734436 -0.461477 -0.497637
vn -0.734436 0.461477 -0.497637
vn -0.818711 0.286479 0.497637
vn 0.818711 -0.286479 0.497637
vn 0.818711 -0.286479 -0.497637
vn -0.818711 0.286479 -0.497637
vn -0.861932 0.097116 0.497637
vn 0.861932 -0.097116 0.497637
vn 0.861932 -0.097116 -0.497637
vn -0.861932 0.097116 -0.497637
vn 0.000000 -1.000000 0.000000
vn 0.000000 0.000000 1.000000
vn 0.000000 0.000000 -1.000000
vn -0.000000 1.000000 0.000000
vn 0.000000 -1.000000 0.000000
vn -1.000000 0.000000 0.000000
vn 1.000000 0.000000 0.000000
vn 0.000000 0.000000 1.000000
vn 0.000000 0.000000 -1.000000
vn -0.000000 1.000000 0.000000
vn 0.000000 -1.000000 0.000000
vn -1.000000 0.000000 0.000000
vn 1.000000 0.000000 0.000000
vn 0.000000 0.000000 1.000000
vn 0.000000 0.000000 -1.000000
vn -0.000000 1.000000 0.000000
vn 0.000000 -1.000000 0.000000
vn -1.000000 0.000000 0.000000
vn 1.000000 0.000000 0.000000
vn 0.000000 0.000000 -1.000000
vn 0.382683 -0.923880 0.000000
vn 0.923880 -0.382683 0.000000
vn 0.923880 0.382683 -0.000000
vn 0.382683 0.923880 -0.000000
vn -0.382683 0.923880 -0.000000
vn -0.923880 0.382683 -0.000000
vn -0.923880 -0.382683 0.000000
vn -0.382683 -0.923880 0.000000
vn 0.000000 0.000000 1.000000
vn 0.254750 0.615021 -0.746225
vn 0.615021 0.254750 -0.746225
vn 0.615021 -0.254750 -0.746225
vn 0.254750 -0.615021 -0.746225
vn -0.254750 -0.615021 -0.746225
vn -0.615021 -0.254750 -0.746225
vn -0.615021 0.254750 -0.746225
vn -0.254750 0.615021 -0.746225
vn 0.086231 0.208180 -0.974282
vn 0.208180 0.086231 -0.974282
vn 0.208180 -0.086231 -0.974282
vn 0.086231 -0.208180 -0.974282
vn -0.086231 -0.208180 -0.974282
vn -0.208180 -0.086231 -0.974282
vn -0.208180 0.086231 -0.974282
vn -0.086231 0.208180 -0.974282
vn 0.000000 0.000000 -1.000000
vn 0.382683 -0.923880 0.000000
vn 0.923880 -0.382683 0.000000
vn 0.923880 0.382683 -0.000000
vn 0.382683 0.923880 -0.000000
vn -0.382683 0.923880 -0.000000
vn -0.923880 0.382683 -0.000000
vn -0.923880 -0.382683 0.000000
vn -0.382683 -0.923880 0.000000
vn 0.000000 0.000000 1.000000
vn 0.254750 0.615021 -0.746225
vn 0.615021 0.254750 -0.746225
vn 0.615021 -0.254750 -0.746225
vn 0.254750 -0.615021 -0.746225
vn -0.254750 -0.615021 -0.746225
vn -0.615021 -0.254750 -0.746225
vn -0.615021 0.254750 -0.746225
vn -0.254750 0.615021 -0.746225
vn 0.086231 0.208180 -0.974282
vn 0.208180 0.086231 -0.974282
vn 0.208180 -0.086231 -0.974282
vn 0.086231 -0.208180 -0.974282
vn -0.086231 -0.208180 -0.974282
vn -0.208180 -0.086231 -0.974282
vn -0.208180 0.086231 -0.974282
vn -0.086231 0.208180 -0.974282
vn 0.000000 0.000000 1.000000
vn 0.000000 0.000000 -1.000000
vn -0.000000 1.000000 0.000000
vn 0.000000 -1.000000 0.000000
vn -1.000000 0.000000 0.000000
vn 1.000000 0.000000 0.000000
vn 0.000000 0.000000 1.000000
vn 0.000000 0.000000 -1.000000
vn -0.000000 1.000000 0.000000
vn 0.000000 -1.000000 0.000000
vn -1.000000 0.000000 0.000000
vn 1.000000 0.000000 0.000000
vn 0.000000 0.000000 1.000000
vn 0.000000 0.000000 -1.000000
vn -0.000000 0.998398 0.056576
vn 0.000000 -0.998398 0.056576
vn -0.920331 0.000000 0.391141
vn 0.920331 0.000000 0.391141
f 1/1/1 2/2/1 3/3/1
f 1/1/2 4/4/2 2/2/2
f 1/1/3 5/5/3 4/4/3
f 1/1/4 6/6/4 5/5/4
f 1/1/5 7/7/5 6/6/5
f 1/1/6 8/8/6 7/7/6
f 1/1/7 9/9/7 8/8/7
f 1/1/8 3/3/8 9/9/8
f 3/3/9 2/2/9 10/1/9
f 2/2/10 4/4/10 10/1/10
f 4/4/11 5/5/11 10/1/11
f 5/5/12 6/6/12 10/1/12
f 6/6/13 7/7/13 10/1/13
f 7/7/14 8/8/14 10/1/14
f 8/8/15 9/9/15 10/1/15
f 9/9/16 3/3/16 10/1/16
f 11/10/17 12/11/17 13/12/17
f 11/10/17 14/13/17 12/11/17
f 11/10/17 15/14/17 14/13/17
f 11/10/17 13/12/17 15/14/17
f 13/15/18 12/16/18 16/17/18
f 12/16/19 14/18/19 16/17/19
f 14/19/20 15/20/20 16/21/20
f 15/16/21 13/15/21 16/17/21
f 17/22/22 18/23/22 19/24/22
f 17/22/22 20/25/22 18/23/22
f 17/22/22 21/26/22 20/25/22
f 17/22/22 19/24/22 21/26/22
f 19/27/23 18/28/23 22/29/23
f 18/30/24 20/31/24 22/32/24
f 20/33/25 21/34/25 22/35/25
f 21/36/26 19/27/26 22/29/26
f 23/37/27 24/38/27 25/39/27
f 23/37/27 26/40/27 24/38/27
f 23/37/27 27/41/27 26/40/27
f 23/37/27 25/39/27 27/41/27
f 25/42/28 24/43/28 28/44/28
f 24/45/29 26/46/29 28/47/29
f 26/46/30 27/48/30 28/47/30
f 27/49/31 25/42/31 28/44/31
f 29/50/32 30/51/32 31/52/32
f 29/50/32 32/53/32 30/51/32
f 29/50/32 33/54/32 32/53/32
f 29/50/32 31/52/32 33/54/32
f 31/55/33 30/56/33 34/57/33
f 30/58/34 32/59/34 34/60/34
f 32/59/35 33/61/35 34/60/35
f 33/56/36 31/55/36 34/57/36
f 35/62/37 36/63/37 37/64/37
f 35/62/37 38/65/37 36/63/37
f 35/62/37 39/66/37 38/65/37
f 35/62/37 37/64/37 39/66/37
f 37/67/38 36/68/38 40/69/38
f 36/70/39 38/71/39 40/72/39
f 38/71/40 39/73/40 40/72/40
f 39/74/41 37/67/41 40/69/41
f 41/75/42 42/76/42 43/77/42
f 41/75/42 44/78/42 42/76/42
f 41/75/42 45/79/42 44/78/42
f 41/75/42 43/77/42 45/79/42
f 43/80/43 42/81/43 46/82/43
f 42/83/44 44/84/44 46/85/44
f 44/84/45 45/86/45 46/85/45
f 45/87/46 43/80/46 46/82/46
f 47/88/47 48/89/47 49/90/47
f 47/88/47 49/90/47 50/91/47
f 51/89/48 52/88/48 53/91/48
f 51/89/48 53/91/48 54/90/48
f 50/92/49 49/93/49 54/94/49
f 50/92/49 54/94/49 53/95/49
f 52/95/50 51/94/50 48/93/50
f 52/95/50 48/93/50 47/92/50
f 52/96/51 47/97/51 50/98/51
f 52/96/51 50/98/51 53/99/51
f 48/100/52 51/101/52 54/102/52
f 48/100/52 54/102/52 49/103/52
f 55/104/53 56/105/53 57/106/53
f 55/104/53 57/106/53 58/107/53
f 59/105/54 60/104/54 61/107/54
f 59/105/54 61/107/54 62/106/54
f 58/108/55 57/109/55 62/110/55
f 58/108/55 62/110/55 61/111/55
f 60/111/56 59/110/56 56/109/56
f 60/111/56 56/109/56 55/108/56
f 60/112/57 55/113/57 58/114/57
f 60/112/57 58/114/57 61/115/57
f 56/116/58 59/117/58 62/118/58
f 56/116/58 62/118/58 57/119/58
f 63/120/59 64/121/59 65/122/59
f 63/120/59 65/122/59 66/123/59
f 67/121/60 68/120/60 69/123/60
f 67/121/60 69/123/60 70/122/60
f 66/124/61 65/125/61 70/126/61
f 66/124/61 70/126/61 69/127/61
f 68/127/62 67/126/62 64/125/62
f 68/127/62 64/125/62 63/124/62
f 68/128/63 63/129/63 66/130/63
f 68/128/63 66/130/63 69/131/63
f 64/132/64 67/133/64 70/134/64
f 64/132/64 70/134/64 65/135/64
f 71/136/65 72/137/65 73/138/65
f 71/136/65 73/138/65 74/139/65
f 75/137/66 76/136/66 77/139/66
f 75/137/66 77/139/66 78/138/66
f 74/140/67 73/141/67 78/142/67
f 74/140/67 78/142/67 77/143/67
f 76/143/68 75/142/68 72/141/68
f 76/143/68 72/141/68 71/140/68
f 76/144/69 71/145/69 74/146/69
f 76/144/69 74/146/69 77/147/69
f 72/148/70 75/149/70 78/150/70
f 72/148/70 78/150/70 73/151/70
f 79/152/71 80/153/71 81/154/71
f 79/152/71 81/154/71 82/155/71
f 83/153/72 84/152/72 85/155/72
f 83/153/72 85/155/72 86/154/72
f 82/156/73 81/157/73 86/158/73
f 82/156/73 86/158/73 85/159/73
f 84/159/74 83/158/74 80/157/74
f 84/159/74 80/157/74 79/156/74
f 84/160/75 79/161/75 82/162/75
f 84/160/75 82/162/75 85/163/75
f 80/164/76 83/165/76 86/166/76
f 80/164/76 86/166/76 81/167/76
f 87/168/77 88/169/77 89/170/77
f 87/168/77 89/170/77 90/171/77
f 91/169/78 92/168/78 93/171/78
f 91/169/78 93/171/78 94/170/78
f 90/172/79 89/173/79 94/174/79
f 90/172/79 94/174/79 93/175/79
f 92/175/80 91/174/80 88/173/80
f 92/175/80 88/173/80 87/172/80
f 92/176/81 87/177/81 90/178/81
f 92/176/81 90/178/81 93/179/81
f 88/180/82 91/181/82 94/182/82
f 88/180/82 94/182/82 89/183/82
f 95/184/83 96/185/83 97/186/83
f 95/184/83 97/186/83 98/187/83
f 98/188/84 97/189/84 99/190/84
f 98/188/84 99/190/84 100/191/84
f 100/187/85 99/192/85 101/193/85
f 100/187/85 101/193/85 102/184/85
f 102/184/86 101/193/86 103/194/86
f 102/184/86 103/194/86 104/195/86
f 104/196/87 103/197/87 105/198/87
f 104/196/87 105/198/87 106/199/87
f 106/195/88 105/200/88 96/185/88
f 106/195/88 96/185/88 95/184/88
f 96/185/89 107/201/89 108/202/89
f 96/185/89 108/202/89 97/186/89
f 97/189/84 108/203/84 109/204/84
f 97/189/84 109/204/84 99/190/84
f 99/192/90 109/205/90 110/206/90
f 99/192/90 110/206/90 101/193/90
f 101/193/91 110/206/91 111/207/91
f 101/193/91 111/207/91 103/194/91
f 103/197/87 111/208/87 112/209/87
f 103/197/87 112/209/87 105/198/87
f 105/200/92 112/210/92 107/201/92
f 105/200/92 107/201/92 96/185/92
f 107/201/93 113/211/93 114/212/93
f 107/201/93 114/212/93 108/202/93
f 108/203/84 114/213/84 115/214/84
f 108/203/84 115/214/84 109/204/84
f 109/205/94 115/215/94 116/216/94
f 109/205/94 116/216/94 110/206/94
f 110/206/95 116/216/95 117/217/95
f 110/206/95 117/217/95 111/207/95
f 111/208/87 117/218/87 118/219/87
f 111/208/87 118/219/87 112/209/87
f 112/210/96 118/220/96 113/211/96
f 112/210/96 113/211/96 107/201/96
f 113/211/97 119/221/97 120/222/97
f 113/211/97 120/222/97 114/212/97
f 114/213/84 120/223/84 121/224/84
f 114/213/84 121/224/84 115/214/84
f 115/215/98 121/225/98 122/226/98
f 115/215/98 122/226/98 116/216/98
f 116/216/99 122/226/99 123/227/99
f 116/216/99 123/227/99 117/217/99
f 117/218/87 123/228/87 124/229/87
f 117/218/87 124/229/87 118/219/87
f 118/220/100 124/230/100 119/221/100
f 118/220/100 119/221/100 113/211/100
f 119/231/101 125/232/101 126/233/101
f 119/231/101 126/233/101 120/234/101
f 120/223/84 126/235/84 127/236/84
f 120/223/84 127/236/84 121/224/84
f 121/237/102 127/238/102 128/239/102
f 121/237/102 128/239/102 122/240/102
f 122/240/103 128/239/103 129/241/103
f 122/240/103 129/241/103 123/242/103
f 123/228/87 129/243/87 130/244/87
f 123/228/87 130/244/87 124/229/87
f 124/245/104 130/246/104 125/232/104
f 124/245/104 125/232/104 119/231/104
f 125/232/105 131/247/105 132/248/105
f 125/232/105 132/248/105 126/233/105
f 126/235/84 132/249/84 133/250/84
f 126/235/84 133/250/84 127/236/84
f 127/238/106 133/251/106 134/252/106
f 127/238/106 134/252/106 128/239/106
f 128/239/107 134/252/107 135/253/107
f 128/239/107 135/253/107 129/241/107
f 129/243/87 135/254/87 136/255/87
f 129/243/87 136/255/87 130/244/87
f 130/246/108 136/256/108 131/247/108
f 130/246/108 131/247/108 125/232/108
f 131/247/109 137/257/109 138/258/109
f 131/247/109 138/258/109 132/248/109
f 132/249/84 138/259/84 139/260/84
f 132/249/84 139/260/84 133/250/84
f 133/251/110 139/258/110 140/257/110
f 133/251/110 140/257/110 134/252/110
f 134/252/111 140/257/111 141/261/111
f 134/252/111 141/261/111 135/253/111
f 135/254/87 141/262/87 142/263/87
f 135/254/87 142/263/87 136/255/87
f 136/256/112 142/261/112 137/257/112
f 136/256/112 137/257/112 131/247/112
f 137/257/113 143/264/113 144/265/113
f 137/257/113 144/265/113 138/258/113
f 138/259/84 144/266/84 145/267/84
f 138/259/84 145/267/84 139/260/84
f 139/258/114 145/268/114 146/269/114
f 139/258/114 146/269/114 140/257/114
f 140/257/115 146/269/115 147/270/115
f 140/257/115 147/270/115 141/261/115
f 141/262/87 147/271/87 148/272/87
f 141/262/87 148/272/87 142/263/87
f 142/261/116 148/273/116 143/264/116
f 142/261/116 143/264/116 137/257/116
f 143/264/117 149/274/117 150/275/117
f 143/264/117 150/275/117 144/265/117
f 144/266/84 150/276/84 151/277/84
f 144/266/84 151/277/84 145/267/84
f 145/268/118 151/278/118 152/279/118
f 145/268/118 152/279/118 146/269/118
f 146/269/119 152/279/119 153/280/119
f 146/269/119 153/280/119 147/270/119
f 147/271/87 153/281/87 154/282/87
f 147/271/87 154/282/87 148/272/87
f 148/273/120 154/283/120 149/274/120
f 148/273/120 149/274/120 143/264/120
f 149/274/121 155/284/121 156/285/121
f 149/274/121 156/285/121 150/275/121
f 150/276/84 156/286/84 157/287/84
f 150/276/84 157/287/84 151/277/84
f 151/278/122 157/288/122 158/289/122
f 151/278/122 158/289/122 152/279/122
f 152/279/123 158/289/123 159/290/123
f 152/279/123 159/290/123 153/280/123
f 153/281/87 159/291/87 160/292/87
f 153/281/87 160/292/87 154/282/87
f 154/283/124 160/293/124 155/284/124
f 154/283/124 155/284/124 149/274/124
f 155/284/125 161/294/125 162/295/125
f 155/284/125 162/295/125 156/285/125
f 156/286/84 162/296/84 163/297/84
f 156/286/84 163/297/84 157/287/84
f 157/288/126 163/298/126 164/299/126
f 157/288/126 164/299/126 158/289/126
f 158/289/127 164/299/127 165/300/127
f 158/226/127 165/217/127 159/227/127
f 159/291/87 165/301/87 166/302/87
f 159/291/87 166/302/87 160/292/87
f 160/293/128 166/303/128 161/294/128
f 160/293/128 161/294/128 155/284/128
f 161/211/129 167/201/129 168/202/129
f 161/211/129 168/202/129 162/212/129
f 162/296/84 168/304/84 169/305/84
f 162/296/84 169/305/84 163/297/84
f 163/215/130 169/205/130 170/206/130
f 163/215/130 170/206/130 164/216/130
f 164/216/131 170/206/131 171/207/131
f 164/216/131 171/207/131 165/217/131
f 165/301/87 171/306/87 172/307/87
f 165/301/87 172/307/87 166/302/87
f 166/220/132 172/210/132 167/201/132
f 166/220/132 167/201/132 161/211/132
f 167/201/133 173/185/133 174/186/133
f 167/201/133 174/186/133 168/202/133
f 168/304/84 174/308/84 175/309/84
f 168/304/84 175/309/84 169/305/84
f 169/205/134 175/192/134 176/193/134
f 169/205/134 176/193/134 170/206/134
f 170/206/135 176/193/135 177/194/135
f 170/206/135 177/194/135 171/207/135
f 171/306/87 177/310/87 178/311/87
f 171/306/87 178/311/87 172/307/87
f 172/210/136 178/200/136 173/185/136
f 172/210/136 173/185/136 167/201/136
f 173/185/137 179/184/137 180/187/137
f 173/185/137 180/187/137 174/186/137
f 174/308/84 180/312/84 181/313/84
f 174/308/84 181/313/84 175/309/84
f 175/192/138 181/187/138 182/184/138
f 175/192/138 182/184/138 176/193/138
f 176/193/139 182/184/139 183/195/139
f 176/193/139 183/195/139 177/194/139
f 177/310/87 183/314/87 184/315/87
f 177/310/87 184/315/87 178/311/87
f 178/200/140 184/195/140 179/184/140
f 178/200/140 179/184/140 173/185/140
f 185/316/141 95/317/141 98/318/141
f 185/316/141 98/318/141 100/319/141
f 185/316/141 100/319/141 102/320/141
f 185/316/141 102/320/141 104/321/141
f 185/316/141 104/321/141 106/322/141
f 185/316/141 106/322/141 95/317/141
f 186/323/141 180/324/141 179/325/141
f 186/323/141 181/326/141 180/324/141
f 186/323/141 182/327/141 181/326/141
f 186/323/141 183/328/141 182/327/141
f 186/323/141 184/329/141 183/328/141
f 186/323/141 179/325/141 184/329/141
f 187/330/142 188/331/142 189/332/142
f 187/330/142 189/332/142 190/333/142
f 191/334/143 192/335/143 193/336/143
f 191/334/143 193/336/143 194/337/143
f 190/338/144 189/339/144 194/340/144
f 190/338/144 194/340/144 193/341/144
f 192/341/145 191/340/145 188/339/145
f 192/341/145 188/339/145 187/338/145
f 192/342/146 187/343/146 190/344/146
f 192/342/146 190/344/146 193/345/146
f 188/343/147 191/342/147 194/345/147
f 188/343/147 194/345/147 189/344/147
f 195/346/148 196/347/148 197/348/148
f 195/346/148 197/348/148 198/349/148
f 199/350/149 200/351/149 201/352/149
f 199/350/149 201/352/149 202/353/149
f 198/354/150 197/355/150 202/356/150
f 198/354/150 202/356/150 201/357/150
f 200/357/151 199/356/151 196/355/151
f 200/357/151 196/355/151 195/354/151
f 200/358/152 195/359/152 198/360/152
f 200/358/152 198/360/152 201/361/152
f 196/359/153 199/358/153 202/361/153
f 196/359/153 202/361/153 197/360/153
f 203/362/154 204/363/154 205/364/154
f 203/362/154 205/364/154 206/365/154
f 207/366/155 208/367/155 209/368/155
f 207/366/155 209/368/155 210/369/155
f 206/370/156 205/371/156 210/372/156
f 206/370/156 210/372/156 209/373/156
f 208/373/157 207/372/157 204/371/157
f 208/373/157 204/371/157 203/370/157
f 208/374/158 203/375/158 206/376/158
f 208/374/158 206/376/158 209/377/158
f 204/375/159 207/374/159 210/377/159
f 204/375/159 210/377/159 205/376/159
f 211/378/160 212/379/160 213/380/160
f 211/378/160 214/381/160 212/379/160
f 211/378/160 215/382/160 214/381/160
f 211/378/160 216/383/160 215/382/160
f 211/378/160 217/384/160 216/383/160
f 211/378/160 218/385/160 217/384/160
f 211/378/160 219/386/160 218/385/160
f 211/378/160 213/380/160 219/386/160
f 213/387/161 212/388/161 220/389/161
f 213/387/161 220/389/161 221/390/161
f 212/391/162 214/392/162 222/393/162
f 212/391/162 222/393/162 220/394/162
f 214/392/163 215/395/163 223/396/163
f 214/392/163 223/396/163 222/393/163
f 215/388/164 216/387/164 224/390/164
f 215/388/164 224/390/164 223/389/164
f 216/387/165 217/397/165 225/398/165
f 216/387/165 225/398/165 224/390/165
f 217/395/166 218/392/166 226/393/166
f 217/395/166 226/393/166 225/396/166
f 218/392/167 219/391/167 227/394/167
f 218/392/167 227/394/167 226/393/167
f 219/397/168 213/387/168 221/390/168
f 219/397/168 221/390/168 227/398/168
f 221/399/169 220/400/169 228/401/169
f 220/400/169 222/402/169 228/401/169
f 222/402/169 223/403/169 228/401/169
f 223/403/169 224/404/169 228/401/169
f 224/404/169 225/405/169 228/401/169
f 225/405/169 226/406/169 228/401/169
f 226/406/169 227/407/169 228/401/169
f 227/407/169 221/399/169 228/401/169
f 229/408/170 230/409/170 231/410/170
f 229/408/170 231/410/170 232/411/170
f 230/409/171 233/412/171 234/413/171
f 230/409/171 234/413/171 231/410/171
f 233/412/172 235/414/172 236/415/172
f 233/412/172 236/415/172 234/413/172
f 235/414/173 237/416/173 238/417/173
f 235/414/173 238/417/173 236/415/173
f 237/416/174 239/418/174 240/419/174
f 237/416/174 240/419/174 238/417/174
f 239/418/175 241/420/175 242/421/175
f 239/418/175 242/421/175 240/419/175
f 241/420/176 243/422/176 244/423/176
f 241/420/176 244/423/176 242/421/176
f 243/422/177 229/408/177 232/411/177
f 243/422/177 232/411/177 244/423/177
f 232/411/178 231/410/178 245/424/178
f 231/410/179 234/413/179 245/424/179
f 234/413/180 236/415/180 245/424/180
f 236/415/181 238/417/181 245/424/181
f 238/417/182 240/419/182 245/424/182
f 240/419/183 242/421/183 245/424/183
f 242/421/184 244/423/184 245/424/184
f 244/423/185 232/411/185 245/424/185
f 246/425/186 247/426/186 248/427/186
f 246/425/186 249/428/186 247/426/186
f 246/425/186 250/429/186 249/428/186
f 246/425/186 251/430/186 250/429/186
f 246/425/186 252/431/186 251/430/186
f 246/425/186 253/432/186 252/431/186
f 246/425/186 254/433/186 253/432/186
f 246/425/186 248/427/186 254/433/186
f 248/434/187 247/435/187 255/436/187
f 248/434/187 255/436/187 256/437/187
f 247/438/188 249/439/188 257/440/188
f 247/438/188 257/440/188 255/441/188
f 249/439/189 250/442/189 258/443/189
f 249/439/189 258/443/189 257/440/189
f 250/435/190 251/434/190 259/437/190
f 250/435/190 259/437/190 258/436/190
f 251/434/191 252/444/191 260/445/191
f 251/434/191 260/445/191 259/437/191
f 252/442/192 253/439/192 261/440/192
f 252/442/192 261/440/192 260/443/192
f 253/439/193 254/438/193 262/441/193
f 253/439/193 262/441/193 261/440/193
f 254/444/194 248/434/194 256/437/194
f 254/444/194 256/437/194 262/445/194
f 256/446/195 255/447/195 263/448/195
f 255/447/195 257/449/195 263/448/195
f 257/449/195 258/450/195 263/448/195
f 258/450/195 259/451/195 263/448/195
f 259/451/195 260/452/195 263/448/195
f 260/452/195 261/453/195 263/448/195
f 261/453/195 262/454/195 263/448/195
f 262/454/195 256/446/195 263/448/195
f 264/455/196 265/456/196 266/457/196
f 264/455/196 266/457/196 267/458/196
f 265/456/197 268/459/197 269/460/197
f 265/456/197 269/460/197 266/457/197
f 268/459/198 270/461/198 271/462/198
f 268/459/198 271/462/198 269/460/198
f 270/461/199 272/463/199 273/464/199
f 270/461/199 273/464/199 271/462/199
f 272/463/200 274/465/200 275/466/200
f 272/463/200 275/466/200 273/464/200
f 274/465/201 276/467/201 277/468/201
f 274/465/201 277/468/201 275/466/201
f 276/467/202 278/469/202 279/470/202
f 276/467/202 279/470/202 277/468/202
f 278/469/203 264/455/203 267/458/203
f 278/469/203 267/458/203 279/470/203
f 267/458/204 266/457/204 280/471/204
f 266/457/205 269/460/205 280/471/205
f 269/460/206 271/462/206 280/471/206
f 271/462/207 273/464/207 280/471/207
f 273/464/208 275/466/208 280/471/208
f 275/466/209 277/468/209 280/471/209
f 277/468/210 279/470/210 280/471/210
f 279/470/211 267/458/211 280/471/211
f 281/472/212 282/473/212 283/474/212
f 281/472/212 283/474/212 284/475/212
f 285/476/213 286/477/213 287/478/213
f 285/476/213 287/478/213 288/479/213
f 284/480/214 283/481/214 288/482/214
f 284/480/214 288/482/214 287/483/214
f 286/483/215 285/482/215 282/481/215
f 286/483/215 282/481/215 281/480/215
f 286/484/216 281/485/216 284/486/216
f 286/484/216 284/486/216 287/487/216
f 282/485/217 285/484/217 288/487/217
f 282/485/217 288/487/217 283/486/217
f 289/488/218 290/489/218 291/490/218
f 289/488/218 291/490/218 292/491/218
f 293/492/219 294/493/219 295/494/219
f 293/492/219 295/494/219 296/495/219
f 292/496/220 291/497/220 296/498/220
f 292/496/220 296/498/220 295/499/220
f 294/499/221 293/498/221 290/497/221
f 294/499/221 290/497/221 289/496/221
f 294/500/222 289/501/222 292/502/222
f 294/500/222 292/502/222 295/503/222
f 290/501/223 293/500/223 296/503/223
f 290/501/223 296/503/223 291/502/223
f 297/504/224 298/505/224 299/506/224
f 297/504/224 299/506/224 300/507/224
f 301/508/225 302/509/225 303/510/225
f 301/508/225 303/510/225 304/511/225
f 300/512/226 299/513/226 304/514/226
f 300/512/226 304/514/226 303/515/226
f 302/515/227 301/514/227 298/513/227
f 302/515/227 298/513/227 297/512/227
f 302/516/228 297/517/228 300/518/228
f 302/516/228 300/518/228 303/519/228
f 298/517/229 301/516/229 304/519/229
f 298/517/229 304/519/229 299/518/229
