# Kthaari light cruiser, from tools/gen_fleet.py
# Generated by tools. Edit the generator script.
v -0.159829 0.202612 1.886871
v 0.159829 0.202612 1.886871
v 0.159829 0.362441 1.886871
v -0.159829 0.362441 1.886871
v 0.290598 0.137227 1.160375
v -0.290598 0.137227 1.160375
v -0.290598 0.427825 1.160375
v 0.290598 0.427825 1.160375
v -0.104615 0.314815 1.842474
v -0.077708 0.314815 1.842474
v -0.104615 0.287908 1.842474
v -0.104615 0.341722 1.842474
v -0.131523 0.314815 1.842474
v -0.104615 0.314815 2.125000
v 0.104615 0.314815 1.842474
v 0.131523 0.314815 1.842474
v 0.104615 0.287908 1.842474
v 0.104615 0.341722 1.842474
v 0.077708 0.314815 1.842474
v 0.104615 0.314815 2.125000
v -0.121083 0.137227 1.224953
v 0.121083 0.137227 1.224953
v 0.121083 0.347104 1.224953
v -0.121083 0.347104 1.224953
v 0.121083 0.137227 -0.002018
v -0.121083 0.137227 -0.002018
v -0.121083 0.347104 -0.002018
v 0.121083 0.347104 -0.002018
v -0.377374 0.030271 0.062559
v 0.377374 0.030271 0.062559
v 0.377374 0.373338 0.062559
v -0.377374 0.373338 0.062559
v 0.443970 0.000000 -1.309710
v -0.443970 0.000000 -1.309710
v -0.443970 0.403609 -1.309710
v 0.443970 0.403609 -1.309710
v -0.133191 0.201804 -1.363525
v -0.076112 0.144725 -1.363525
v -0.133191 0.121083 -1.363525
v -0.052469 0.201804 -1.363525
v -0.076112 0.258883 -1.363525
v -0.133191 0.282526 -1.363525
v -0.190270 0.258883 -1.363525
v -0.213913 0.201804 -1.363525
v -0.190270 0.144725 -1.363525
v -0.076112 0.144725 -1.255896
v -0.133191 0.121083 -1.255896
v -0.052469 0.201804 -1.255896
v -0.076112 0.258883 -1.255896
v -0.133191 0.282526 -1.255896
v -0.190270 0.258883 -1.255896
v -0.213913 0.201804 -1.255896
v -0.190270 0.144725 -1.255896
v -0.133191 0.201804 -1.255896
v 0.133191 0.201804 -1.363525
v 0.190270 0.144725 -1.363525
v 0.133191 0.121083 -1.363525
v 0.213913 0.201804 -1.363525
v 0.190270 0.258883 -1.363525
v 0.133191 0.282526 -1.363525
v 0.076112 0.258883 -1.363525
v 0.052469 0.201804 -1.363525
v 0.076112 0.144725 -1.363525
v 0.190270 0.144725 -1.255896
v 0.133191 0.121083 -1.255896
v 0.213913 0.201804 -1.255896
v 0.190270 0.258883 -1.255896
v 0.133191 0.282526 -1.255896
v 0.076112 0.258883 -1.255896
v 0.052469 0.201804 -1.255896
v 0.076112 0.144725 -1.255896
v 0.133191 0.201804 -1.255896
v 0.000000 0.378406 -0.362037
v 0.056936 0.378406 -0.380537
v 0.052602 0.415475 -0.386502
v 0.000000 0.415475 -0.369411
v 0.092125 0.378406 -0.428970
v 0.085113 0.415475 -0.431248
v 0.092125 0.378406 -0.488836
v 0.085113 0.415475 -0.486558
v 0.056936 0.378406 -0.537269
v 0.052602 0.415475 -0.531304
v 0.000000 0.378406 -0.555769
v 0.000000 0.415475 -0.548396
v -0.056936 0.378406 -0.537269
v -0.052602 0.415475 -0.531304
v -0.092125 0.378406 -0.488836
v -0.085113 0.415475 -0.486558
v -0.092125 0.378406 -0.428970
v -0.085113 0.415475 -0.431248
v -0.056936 0.378406 -0.380537
v -0.052602 0.415475 -0.386502
v 0.040260 0.446900 -0.403490
v 0.000000 0.446900 -0.390408
v 0.065142 0.446900 -0.437737
v 0.065142 0.446900 -0.480069
v 0.040260 0.446900 -0.514316
v 0.000000 0.446900 -0.527398
v -0.040260 0.446900 -0.514316
v -0.065142 0.446900 -0.480069
v -0.065142 0.446900 -0.437737
v -0.040260 0.446900 -0.403490
v 0.021789 0.467898 -0.428914
v 0.000000 0.467898 -0.421834
v 0.035255 0.467898 -0.447448
v 0.035255 0.467898 -0.470358
v 0.021789 0.467898 -0.488893
v 0.000000 0.467898 -0.495972
v -0.021789 0.467898 -0.488893
v -0.035255 0.467898 -0.470358
v -0.035255 0.467898 -0.447448
v -0.021789 0.467898 -0.428914
v 0.000000 0.475272 -0.458903
v -1.385411 0.388572 -1.075617
v -0.363554 0.127649 -0.244183
v -0.250893 0.098882 -0.889957
v -1.409376 0.294717 -1.075617
v -0.274858 0.005027 -0.889957
v -0.387519 0.033794 -0.244183
v -1.255057 0.355287 -1.358143
v -1.279022 0.261432 -1.358143
v 1.385411 0.388572 -1.075617
v 0.250893 0.098882 -0.889957
v 0.363554 0.127649 -0.244183
v 1.409376 0.294717 -1.075617
v 0.387519 0.033794 -0.244183
v 0.274858 0.005027 -0.889957
v 1.255057 0.355287 -1.358143
v 1.279022 0.261432 -1.358143
v -0.712934 0.212232 -0.663157
v -0.587794 0.180279 -0.663157
v -0.578918 0.215040 -0.663157
v -0.704058 0.246993 -0.663157
v -0.587794 0.180279 -0.889178
v -0.712934 0.212232 -0.889178
v -0.704058 0.246993 -0.889178
v -0.578918 0.215040 -0.889178
v -0.951017 0.273025 -0.815518
v -0.825878 0.241071 -0.815518
v -0.817002 0.275832 -0.815518
v -0.942141 0.307786 -0.815518
v -0.825878 0.241071 -1.041539
v -0.951017 0.273025 -1.041539
v -0.942141 0.307786 -1.041539
v -0.817002 0.275832 -1.041539
v -1.189101 0.333817 -0.967879
v -1.063961 0.301864 -0.967879
v -1.055085 0.336625 -0.967879
v -1.180225 0.368579 -0.967879
v -1.063961 0.301864 -1.193900
v -1.189101 0.333817 -1.193900
v -1.180225 0.368579 -1.193900
v -1.055085 0.336625 -1.193900
v 0.587794 0.180279 -0.663157
v 0.712934 0.212232 -0.663157
v 0.704058 0.246993 -0.663157
v 0.578918 0.215040 -0.663157
v 0.712934 0.212232 -0.889178
v 0.587794 0.180279 -0.889178
v 0.578918 0.215040 -0.889178
v 0.704058 0.246993 -0.889178
v 0.825878 0.241071 -0.815518
v 0.951017 0.273025 -0.815518
v 0.942141 0.307786 -0.815518
v 0.817002 0.275832 -0.815518
v 0.951017 0.273025 -1.041539
v 0.825878 0.241071 -1.041539
v 0.817002 0.275832 -1.041539
v 0.942141 0.307786 -1.041539
v 1.063961 0.301864 -0.967879
v 1.189101 0.333817 -0.967879
v 1.180225 0.368579 -0.967879
v 1.055085 0.336625 -0.967879
v 1.189101 0.333817 -1.193900
v 1.063961 0.301864 -1.193900
v 1.055085 0.336625 -1.193900
v 1.180225 0.368579 -1.193900
v -1.444514 0.109496 -0.994896
v -1.211228 0.109496 -0.994896
v -1.211228 0.296124 -0.994896
v -1.444514 0.296124 -0.994896
v -1.229068 0.123767 -2.125000
v -1.426675 0.123767 -2.125000
v -1.426675 0.281853 -2.125000
v -1.229068 0.281853 -2.125000
v -1.362178 0.293380 -1.209615
v -1.293564 0.293380 -1.209615
v -1.293564 0.326314 -1.209615
v -1.362178 0.326314 -1.209615
v -1.293564 0.293380 -1.910280
v -1.362178 0.293380 -1.910280
v -1.362178 0.326314 -1.910280
v -1.293564 0.326314 -1.910280
v -1.403346 0.141058 -1.964041
v -1.252396 0.141058 -1.964041
v -1.252396 0.264562 -1.964041
v -1.403346 0.264562 -1.964041
v -1.252396 0.141058 -1.996975
v -1.403346 0.141058 -1.996975
v -1.403346 0.264562 -1.996975
v -1.252396 0.264562 -1.996975
v 1.211228 0.109496 -0.994896
v 1.444514 0.109496 -0.994896
v 1.444514 0.296124 -0.994896
v 1.211228 0.296124 -0.994896
v 1.426675 0.123767 -2.125000
v 1.229068 0.123767 -2.125000
v 1.229068 0.281853 -2.125000
v 1.426675 0.281853 -2.125000
v 1.293564 0.293380 -1.209615
v 1.362178 0.293380 -1.209615
v 1.362178 0.326314 -1.209615
v 1.293564 0.326314 -1.209615
v 1.362178 0.293380 -1.910280
v 1.293564 0.293380 -1.910280
v 1.293564 0.326314 -1.910280
v 1.362178 0.326314 -1.910280
v 1.252396 0.141058 -1.964041
v 1.403346 0.141058 -1.964041
v 1.403346 0.264562 -1.964041
v 1.252396 0.264562 -1.964041
v 1.403346 0.141058 -1.996975
v 1.252396 0.141058 -1.996975
v 1.252396 0.264562 -1.996975
v 1.403346 0.264562 -1.996975
v -1.327871 0.093029 -1.003865
v -1.263343 0.113995 -1.003865
v -1.271988 0.125894 -0.948974
v -1.327871 0.107736 -0.948974
v -1.223463 0.168886 -1.003865
v -1.237451 0.173431 -0.948974
v -1.223463 0.236734 -1.003865
v -1.237451 0.232189 -0.948974
v -1.263343 0.291625 -1.003865
v -1.271988 0.279726 -0.948974
v -1.327871 0.312592 -1.003865
v -1.327871 0.297884 -0.948974
v -1.392399 0.291625 -1.003865
v -1.383754 0.279726 -0.948974
v -1.432280 0.236734 -1.003865
v -1.418292 0.232189 -0.948974
v -1.432280 0.168886 -1.003865
v -1.418292 0.173431 -0.948974
v -1.392399 0.113995 -1.003865
v -1.383754 0.125894 -0.948974
v -1.295607 0.158403 -0.908791
v -1.327871 0.147919 -0.908791
v -1.275667 0.185848 -0.908791
v -1.275667 0.219772 -0.908791
v -1.295607 0.247218 -0.908791
v -1.327871 0.257701 -0.908791
v -1.360135 0.247218 -0.908791
v -1.380075 0.219772 -0.908791
v -1.380075 0.185848 -0.908791
v -1.360135 0.158403 -0.908791
v -1.327871 0.202810 -0.894083
v -1.327871 0.162449 -1.035256
v -1.280684 0.135206 -1.035256
v -1.327871 0.107962 -1.035256
v -1.280684 0.189693 -1.035256
v -1.327871 0.216936 -1.035256
v -1.375058 0.189693 -1.035256
v -1.375058 0.135206 -1.035256
v -1.292918 0.142269 -0.349122
v -1.327871 0.122088 -0.349122
v -1.292918 0.182630 -0.349122
v -1.327871 0.202810 -0.349122
v -1.362825 0.182630 -0.349122
v -1.362825 0.142269 -0.349122
v -1.299908 0.146305 -0.228039
v -1.327871 0.130161 -0.228039
v -1.299908 0.178594 -0.228039
v -1.327871 0.194738 -0.228039
v -1.355834 0.178594 -0.228039
v -1.355834 0.146305 -0.228039
v 1.327871 0.093029 -1.003865
v 1.392399 0.113995 -1.003865
v 1.383754 0.125894 -0.948974
v 1.327871 0.107736 -0.948974
v 1.432280 0.168886 -1.003865
v 1.418292 0.173431 -0.948974
v 1.432280 0.236734 -1.003865
v 1.418292 0.232189 -0.948974
v 1.392399 0.291625 -1.003865
v 1.383754 0.279726 -0.948974
v 1.327871 0.312592 -1.003865
v 1.327871 0.297884 -0.948974
v 1.263343 0.291625 -1.003865
v 1.271988 0.279726 -0.948974
v 1.223463 0.236734 -1.003865
v 1.237451 0.232189 -0.948974
v 1.223463 0.168886 -1.003865
v 1.237451 0.173431 -0.948974
v 1.263343 0.113995 -1.003865
v 1.271988 0.125894 -0.948974
v 1.360135 0.158403 -0.908791
v 1.327871 0.147919 -0.908791
v 1.380075 0.185848 -0.908791
v 1.380075 0.219772 -0.908791
v 1.360135 0.247218 -0.908791
v 1.327871 0.257701 -0.908791
v 1.295607 0.247218 -0.908791
v 1.275667 0.219772 -0.908791
v 1.275667 0.185848 -0.908791
v 1.295607 0.158403 -0.908791
v 1.327871 0.202810 -0.894083
v 1.327871 0.162449 -1.035256
v 1.375058 0.135206 -1.035256
v 1.327871 0.107962 -1.035256
v 1.375058 0.189693 -1.035256
v 1.327871 0.216936 -1.035256
v 1.280684 0.189693 -1.035256
v 1.280684 0.135206 -1.035256
v 1.362825 0.142269 -0.349122
v 1.327871 0.122088 -0.349122
v 1.362825 0.182630 -0.349122
v 1.327871 0.202810 -0.349122
v 1.292918 0.182630 -0.349122
v 1.292918 0.142269 -0.349122
v 1.355834 0.146305 -0.228039
v 1.327871 0.130161 -0.228039
v 1.355834 0.178594 -0.228039
v 1.327871 0.194738 -0.228039
v 1.299908 0.178594 -0.228039
v 1.299908 0.146305 -0.228039
vt 0.489844 0.403906
vt 0.541406 0.403906
vt 0.541406 0.455469
vt 0.489844 0.455469
vt 0.195312 0.382812
vt 0.007812 0.382812
vt 0.007812 0.476562
vt 0.195312 0.476562
vt 0.046484 0.656250
vt 0.141016 0.656250
vt 0.179688 0.484375
vt 0.007812 0.484375
vt 0.007812 0.382812
vt 0.195312 0.403906
vt 0.195312 0.455469
vt 0.007812 0.476562
vt 0.718750 0.429688
vt 0.765625 0.429688
vt 0.718750 0.382812
vt 0.718750 0.476562
vt 0.671875 0.429688
vt 0.617188 0.382812
vt 0.664062 0.382812
vt 0.617188 0.476562
vt 0.570312 0.382812
vt 0.718750 0.429688
vt 0.765625 0.429688
vt 0.718750 0.382812
vt 0.718750 0.476562
vt 0.671875 0.429688
vt 0.617188 0.382812
vt 0.664062 0.382812
vt 0.617188 0.476562
vt 0.570312 0.382812
vt 0.187500 0.484375
vt 0.312500 0.484375
vt 0.312500 0.656250
vt 0.187500 0.656250
vt 0.312500 0.484375
vt 0.187500 0.484375
vt 0.187500 0.656250
vt 0.312500 0.656250
vt 0.320312 0.656250
vt 0.382812 0.656250
vt 0.382812 0.484375
vt 0.320312 0.484375
vt 0.187500 0.484375
vt 0.312500 0.484375
vt 0.312500 0.656250
vt 0.187500 0.656250
vt 0.212500 0.389844
vt 0.318750 0.389844
vt 0.318750 0.469531
vt 0.212500 0.469531
vt 0.460938 0.382812
vt 0.335938 0.382812
vt 0.335938 0.476562
vt 0.460938 0.476562
vt 0.358984 0.992188
vt 0.531641 0.992188
vt 0.546875 0.664062
vt 0.343750 0.664062
vt 0.109375 0.296875
vt 0.484375 0.302734
vt 0.484375 0.369141
vt 0.109375 0.375000
vt 0.054688 0.328125
vt 0.087833 0.294979
vt 0.054688 0.281250
vt 0.101562 0.328125
vt 0.087833 0.361271
vt 0.054688 0.375000
vt 0.021542 0.361271
vt 0.007812 0.328125
vt 0.021542 0.294979
vt 0.054688 0.281250
vt 0.087833 0.281250
vt 0.087833 0.375000
vt 0.054688 0.375000
vt 0.007813 0.294979
vt 0.007813 0.328125
vt 0.101562 0.328125
vt 0.101562 0.294979
vt 0.007812 0.361271
vt 0.101562 0.361271
vt 0.021542 0.281250
vt 0.021542 0.375000
vt 0.054688 0.281250
vt 0.087833 0.294979
vt 0.054688 0.328125
vt 0.101562 0.328125
vt 0.087833 0.361271
vt 0.054688 0.375000
vt 0.021542 0.361271
vt 0.007812 0.328125
vt 0.021542 0.294979
vt 0.054688 0.328125
vt 0.087833 0.294979
vt 0.054688 0.281250
vt 0.101562 0.328125
vt 0.087833 0.361271
vt 0.054688 0.375000
vt 0.021542 0.361271
vt 0.007812 0.328125
vt 0.021542 0.294979
vt 0.054688 0.281250
vt 0.087833 0.281250
vt 0.087833 0.375000
vt 0.054688 0.375000
vt 0.007813 0.294979
vt 0.007813 0.328125
vt 0.101562 0.328125
vt 0.101562 0.294979
vt 0.007812 0.361271
vt 0.101562 0.361271
vt 0.021542 0.281250
vt 0.021542 0.375000
vt 0.054688 0.281250
vt 0.087833 0.294979
vt 0.054688 0.328125
vt 0.101562 0.328125
vt 0.087833 0.361271
vt 0.054688 0.375000
vt 0.021542 0.361271
vt 0.007812 0.328125
vt 0.021542 0.294979
vt 0.718750 0.382812
vt 0.747720 0.382812
vt 0.745515 0.418689
vt 0.718750 0.418689
vt 0.756673 0.382812
vt 0.733235 0.382812
vt 0.732133 0.418689
vt 0.753786 0.418689
vt 0.704265 0.382812
vt 0.705367 0.418689
vt 0.680827 0.382812
vt 0.683714 0.418689
vt 0.747720 0.382812
vt 0.718750 0.382812
vt 0.718750 0.418689
vt 0.745515 0.418689
vt 0.689780 0.382812
vt 0.691985 0.418689
vt 0.689780 0.382812
vt 0.691985 0.418689
vt 0.739235 0.449104
vt 0.718750 0.449104
vt 0.728993 0.449104
vt 0.745565 0.449104
vt 0.708507 0.449104
vt 0.691935 0.449104
vt 0.718750 0.449104
vt 0.739235 0.449104
vt 0.698265 0.449104
vt 0.698265 0.449104
vt 0.617188 0.462833
vt 0.637673 0.456503
vt 0.628274 0.444200
vt 0.617188 0.447626
vt 0.650333 0.439930
vt 0.635126 0.435231
vt 0.650333 0.419445
vt 0.635126 0.424144
vt 0.637673 0.402872
vt 0.628274 0.415175
vt 0.617188 0.396542
vt 0.617188 0.411749
vt 0.596702 0.402872
vt 0.606101 0.415175
vt 0.584042 0.419445
vt 0.599249 0.424144
vt 0.584042 0.439930
vt 0.599249 0.435231
vt 0.596702 0.456503
vt 0.606101 0.444200
vt 0.617188 0.429688
vt 0.639924 0.828918
vt 0.943133 0.992188
vt 0.976562 0.865376
vt 0.632812 0.828918
vt 0.969451 0.865376
vt 0.936022 0.992188
vt 0.678603 0.773438
vt 0.671492 0.773438
vt 0.382812 0.111553
vt 0.165421 0.101562
vt 0.165421 0.109209
vt 0.382812 0.103906
vt 0.382812 0.109209
vt 0.050008 0.122454
vt 0.057765 0.130101
vt 0.375055 0.101562
vt 0.007812 0.130101
vt 0.102921 0.125166
vt 0.102921 0.132812
vt 0.007812 0.122454
vt 0.015570 0.132812
vt 0.338587 0.103906
vt 0.346344 0.111553
vt 0.007812 0.125166
vt 0.969451 0.828918
vt 0.632812 0.865376
vt 0.666242 0.992188
vt 0.976562 0.828918
vt 0.673353 0.992188
vt 0.639924 0.865376
vt 0.930772 0.773438
vt 0.937883 0.773438
vt 0.382812 0.111553
vt 0.165421 0.109209
vt 0.165421 0.101562
vt 0.382812 0.103906
vt 0.007812 0.109209
vt 0.332860 0.130101
vt 0.340617 0.122454
vt 0.015570 0.101562
vt 0.007812 0.130101
vt 0.102921 0.132812
vt 0.102921 0.125166
vt 0.007812 0.122454
vt 0.375055 0.132812
vt 0.044281 0.111553
vt 0.052038 0.103906
vt 0.382812 0.125166
vt 0.745035 0.398721
vt 0.764261 0.382812
vt 0.765625 0.400119
vt 0.746398 0.416028
vt 0.764261 0.382812
vt 0.745035 0.398721
vt 0.746398 0.416028
vt 0.765625 0.400119
vt 0.644836 0.476562
vt 0.664062 0.476562
vt 0.664062 0.436638
vt 0.644836 0.436638
vt 0.643472 0.436638
vt 0.662699 0.436638
vt 0.662699 0.476562
vt 0.643472 0.476562
vt 0.725701 0.398721
vt 0.765625 0.398721
vt 0.765625 0.416028
vt 0.725701 0.416028
vt 0.765625 0.382812
vt 0.725701 0.382812
vt 0.725701 0.400119
vt 0.765625 0.400119
vt 0.708455 0.428989
vt 0.727682 0.413080
vt 0.729045 0.430386
vt 0.709818 0.446295
vt 0.727682 0.413080
vt 0.708455 0.428989
vt 0.709818 0.446295
vt 0.729045 0.430386
vt 0.608256 0.449650
vt 0.627483 0.449650
vt 0.627483 0.409725
vt 0.608256 0.409725
vt 0.606892 0.409725
vt 0.626119 0.409725
vt 0.626119 0.449650
vt 0.606892 0.449650
vt 0.698788 0.428989
vt 0.738712 0.428989
vt 0.738712 0.446295
vt 0.698788 0.446295
vt 0.738712 0.413080
vt 0.698788 0.413080
vt 0.698788 0.430386
vt 0.738712 0.430386
vt 0.671875 0.459256
vt 0.691102 0.443347
vt 0.692465 0.460654
vt 0.673239 0.476562
vt 0.691102 0.443347
vt 0.671875 0.459256
vt 0.673239 0.476562
vt 0.692465 0.460654
vt 0.571676 0.422737
vt 0.590903 0.422737
vt 0.590903 0.382812
vt 0.571676 0.382812
vt 0.570312 0.382812
vt 0.589539 0.382812
vt 0.589539 0.422737
vt 0.570312 0.422737
vt 0.671875 0.459256
vt 0.711799 0.459256
vt 0.711799 0.476562
vt 0.671875 0.476562
vt 0.711799 0.443347
vt 0.671875 0.443347
vt 0.671875 0.460654
vt 0.711799 0.460654
vt 0.673239 0.382812
vt 0.692465 0.398721
vt 0.691102 0.416028
vt 0.671875 0.400119
vt 0.692465 0.398721
vt 0.673239 0.382812
vt 0.671875 0.400119
vt 0.691102 0.416028
vt 0.570312 0.476562
vt 0.589539 0.476562
vt 0.589539 0.436638
vt 0.570312 0.436638
vt 0.571676 0.436638
vt 0.590903 0.436638
vt 0.590903 0.476562
vt 0.571676 0.476562
vt 0.725701 0.382812
vt 0.765625 0.382812
vt 0.765625 0.400119
vt 0.725701 0.400119
vt 0.765625 0.398721
vt 0.725701 0.398721
vt 0.725701 0.416028
vt 0.765625 0.416028
vt 0.709818 0.413080
vt 0.729045 0.428989
vt 0.727682 0.446295
vt 0.708455 0.430386
vt 0.729045 0.428989
vt 0.709818 0.413080
vt 0.708455 0.430386
vt 0.727682 0.446295
vt 0.606892 0.449650
vt 0.626119 0.449650
vt 0.626119 0.409725
vt 0.606892 0.409725
vt 0.608256 0.409725
vt 0.627483 0.409725
vt 0.627483 0.449650
vt 0.608256 0.449650
vt 0.698788 0.413080
vt 0.738712 0.413080
vt 0.738712 0.430386
vt 0.698788 0.430386
vt 0.738712 0.428989
vt 0.698788 0.428989
vt 0.698788 0.446295
vt 0.738712 0.446295
vt 0.746398 0.443347
vt 0.765625 0.459256
vt 0.764261 0.476562
vt 0.745035 0.460654
vt 0.765625 0.459256
vt 0.746398 0.443347
vt 0.745035 0.460654
vt 0.764261 0.476562
vt 0.643472 0.422737
vt 0.662699 0.422737
vt 0.662699 0.382812
vt 0.643472 0.382812
vt 0.644836 0.382812
vt 0.664062 0.382812
vt 0.664062 0.422737
vt 0.644836 0.422737
vt 0.671875 0.443347
vt 0.711799 0.443347
vt 0.711799 0.460654
vt 0.671875 0.460654
vt 0.711799 0.459256
vt 0.671875 0.459256
vt 0.671875 0.476562
vt 0.711799 0.476562
vt 0.390625 0.195312
vt 0.484375 0.195312
vt 0.484375 0.262559
vt 0.390625 0.262559
vt 0.578768 0.200455
vt 0.499357 0.200455
vt 0.499357 0.257417
vt 0.578768 0.257417
vt 0.554688 0.992188
vt 0.625000 0.992188
vt 0.619623 0.664062
vt 0.560064 0.664062
vt 0.492188 0.302017
vt 0.867188 0.296875
vt 0.867188 0.364122
vt 0.492188 0.358979
vt 0.382812 0.195312
vt 0.354136 0.200455
vt 0.354136 0.257417
vt 0.382812 0.262559
vt 0.423713 0.261570
vt 0.451287 0.261570
vt 0.451287 0.273438
vt 0.423713 0.273438
vt 0.552849 0.261570
vt 0.525276 0.261570
vt 0.525276 0.273438
vt 0.552849 0.273438
vt 0.579504 0.929844
vt 0.600184 0.929844
vt 0.600184 0.726406
vt 0.579504 0.726406
vt 0.563437 0.363133
vt 0.795937 0.363133
vt 0.795937 0.375000
vt 0.563437 0.375000
vt 0.250460 0.261570
vt 0.250460 0.273438
vt 0.407169 0.206685
vt 0.467831 0.206685
vt 0.467831 0.251187
vt 0.407169 0.251187
vt 0.569393 0.206685
vt 0.508732 0.206685
vt 0.508732 0.251187
vt 0.569393 0.251187
vt 0.567096 0.710797
vt 0.612592 0.710797
vt 0.612592 0.701234
vt 0.567096 0.701234
vt 0.534670 0.308248
vt 0.545598 0.308248
vt 0.545598 0.352749
vt 0.534670 0.352749
vt 0.316636 0.206685
vt 0.316636 0.251187
vt 0.390625 0.195312
vt 0.484375 0.195312
vt 0.484375 0.262559
vt 0.390625 0.262559
vt 0.578768 0.200455
vt 0.499357 0.200455
vt 0.499357 0.257417
vt 0.578768 0.257417
vt 0.554688 0.992188
vt 0.625000 0.992188
vt 0.619623 0.664062
vt 0.560064 0.664062
vt 0.036489 0.200455
vt 0.007812 0.195312
vt 0.007812 0.262559
vt 0.036489 0.257417
vt 0.867188 0.296875
vt 0.492188 0.302017
vt 0.492188 0.358979
vt 0.867188 0.364122
vt 0.423713 0.261570
vt 0.451287 0.261570
vt 0.451287 0.273438
vt 0.423713 0.273438
vt 0.552849 0.261570
vt 0.525276 0.261570
vt 0.525276 0.273438
vt 0.552849 0.273438
vt 0.579504 0.929844
vt 0.600184 0.929844
vt 0.600184 0.726406
vt 0.579504 0.726406
vt 0.140165 0.261570
vt 0.140165 0.273438
vt 0.795937 0.363133
vt 0.563437 0.363133
vt 0.563437 0.375000
vt 0.795937 0.375000
vt 0.407169 0.206685
vt 0.467831 0.206685
vt 0.467831 0.251187
vt 0.407169 0.251187
vt 0.569393 0.206685
vt 0.508732 0.206685
vt 0.508732 0.251187
vt 0.569393 0.251187
vt 0.567096 0.710797
vt 0.612592 0.710797
vt 0.612592 0.701234
vt 0.567096 0.701234
vt 0.073989 0.206685
vt 0.073989 0.251187
vt 0.545598 0.308248
vt 0.534670 0.308248
vt 0.534670 0.352749
vt 0.545598 0.352749
vt 0.054688 0.281250
vt 0.083658 0.281250
vt 0.079777 0.328125
vt 0.054688 0.328125
vt 0.007812 0.290202
vt 0.007812 0.313640
vt 0.054687 0.315580
vt 0.054687 0.295283
vt 0.007812 0.342610
vt 0.054687 0.340670
vt 0.007812 0.366048
vt 0.054687 0.360967
vt 0.025717 0.281250
vt 0.029598 0.328125
vt 0.054688 0.287530
vt 0.079777 0.295283
vt 0.069173 0.309164
vt 0.054688 0.304688
vt 0.095282 0.315580
vt 0.078125 0.320882
vt 0.089002 0.335368
vt 0.089002 0.320882
vt 0.095282 0.340670
vt 0.079777 0.360967
vt 0.069173 0.347086
vt 0.078125 0.335368
vt 0.054688 0.368720
vt 0.054688 0.351562
vt 0.029598 0.360967
vt 0.040202 0.347086
vt 0.014093 0.340670
vt 0.031250 0.335368
vt 0.014093 0.315580
vt 0.029598 0.295283
vt 0.040202 0.309164
vt 0.031250 0.320882
vt 0.054688 0.328125
vt 0.718750 0.429688
vt 0.765625 0.406250
vt 0.718750 0.382812
vt 0.765625 0.453125
vt 0.718750 0.476562
vt 0.671875 0.453125
vt 0.671875 0.406250
vt 0.617188 0.382812
vt 0.664062 0.382812
vt 0.651910 0.462500
vt 0.617188 0.462500
vt 0.671875 0.406250
vt 0.671875 0.453125
vt 0.751563 0.447049
vt 0.751563 0.412326
vt 0.570312 0.382812
vt 0.582465 0.462500
vt 0.644965 0.476562
vt 0.617188 0.476562
vt 0.765625 0.443576
vt 0.765625 0.415799
vt 0.589410 0.476562
vt 0.054687 0.281250
vt 0.083658 0.281250
vt 0.079777 0.328125
vt 0.054687 0.328125
vt 0.007812 0.290202
vt 0.007812 0.313640
vt 0.054687 0.315580
vt 0.054687 0.295283
vt 0.007812 0.342610
vt 0.054687 0.340670
vt 0.007812 0.366048
vt 0.054687 0.360967
vt 0.025717 0.281250
vt 0.029598 0.328125
vt 0.054687 0.287530
vt 0.079777 0.295283
vt 0.069173 0.309164
vt 0.054687 0.304688
vt 0.095282 0.315580
vt 0.078125 0.320882
vt 0.089002 0.335368
vt 0.089002 0.320882
vt 0.095282 0.340670
vt 0.079777 0.360967
vt 0.069173 0.347086
vt 0.078125 0.335368
vt 0.054687 0.368720
vt 0.054687 0.351562
vt 0.054687 0.362440
vt 0.069173 0.362440
vt 0.029598 0.360967
vt 0.040202 0.347086
vt 0.014093 0.340670
vt 0.031250 0.335368
vt 0.014093 0.315580
vt 0.029598 0.295283
vt 0.040202 0.309164
vt 0.031250 0.320882
vt 0.054687 0.328125
vt 0.718750 0.429688
vt 0.765625 0.406250
vt 0.718750 0.382812
vt 0.765625 0.453125
vt 0.718750 0.476562
vt 0.671875 0.453125
vt 0.671875 0.406250
vt 0.617187 0.382812
vt 0.664062 0.382812
vt 0.651910 0.462500
vt 0.617187 0.462500
vt 0.671875 0.406250
vt 0.671875 0.453125
vt 0.751563 0.447049
vt 0.751563 0.412326
vt 0.570312 0.382812
vt 0.582465 0.462500
vt 0.644965 0.476562
vt 0.617187 0.476562
vt 0.765625 0.443576
vt 0.765625 0.415799
vt 0.589410 0.476562
vn 0.000000 0.000000 1.000000
vn 0.000000 0.000000 -1.000000
vn -0.000000 0.995974 0.089638
vn 0.000000 -0.995974 0.089638
vn -0.984183 0.000000 0.177153
vn 0.984183 0.000000 0.177153
vn 0.000000 0.000000 -1.000000
vn 0.705509 -0.705509 0.067191
vn 0.705509 0.705509 0.067191
vn -0.705509 0.705509 0.067191
vn -0.705509 -0.705509 0.067191
vn 0.000000 0.000000 -1.000000
vn 0.705509 -0.705509 0.067191
vn 0.705509 0.705509 0.067191
vn -0.705509 0.705509 0.067191
vn -0.705509 -0.705509 0.067191
vn 0.000000 0.000000 1.000000
vn 0.000000 0.000000 -1.000000
vn -0.000000 1.000000 0.000000
vn 0.000000 -1.000000 0.000000
vn -1.000000 0.000000 0.000000
vn 1.000000 0.000000 0.000000
vn 0.000000 0.000000 1.000000
vn 0.000000 0.000000 -1.000000
vn -0.000000 0.999757 0.022053
vn 0.000000 -0.999757 0.022053
vn -0.998825 0.000000 0.048472
vn 0.998825 0.000000 0.048472
vn 0.000000 0.000000 -1.000000
vn 0.382683 -0.923880 0.000000
vn 0.923880 -0.382683 0.000000
vn 0.923880 0.382683 0.000000
vn 0.382683 0.923880 0.000000
vn -0.382683 0.923880 0.000000
vn -0.923880 0.382683 -0.000000
vn -0.923880 -0.382683 0.000000
vn -0.382683 -0.923880 0.000000
vn 0.000000 0.000000 1.000000
vn 0.000000 0.000000 -1.000000
vn 0.382683 -0.923880 0.000000
vn 0.923880 -0.382683 0.000000
vn 0.923880 0.382683 0.000000
vn 0.382683 0.923880 0.000000
vn -0.382683 0.923880 0.000000
vn -0.923880 0.382683 -0.000000
vn -0.923880 -0.382683 0.000000
vn -0.382683 -0.923880 0.000000
vn 0.000000 0.000000 1.000000
vn 0.303632 0.185880 0.934482
vn 0.794918 0.185880 0.577542
vn 0.982572 0.185880 0.000000
vn 0.794918 0.185880 -0.577542
vn 0.303632 0.185880 -0.934482
vn -0.303632 0.185880 -0.934482
vn -0.794918 0.185880 -0.577542
vn -0.982572 0.185880 0.000000
vn -0.794918 0.185880 0.577542
vn -0.303632 0.185880 0.934482
vn 0.260811 0.536342 0.802692
vn 0.682811 0.536342 0.496091
vn 0.844001 0.536342 0.000000
vn 0.682811 0.536342 -0.496091
vn 0.260811 0.536342 -0.802692
vn -0.260811 0.536342 -0.802692
vn -0.682811 0.536342 -0.496091
vn -0.844001 0.536342 -0.000000
vn -0.682811 0.536342 0.496091
vn -0.260811 0.536342 0.802692
vn 0.177645 0.818245 0.546734
vn 0.465079 0.818245 0.337900
vn 0.574870 0.818245 0.000000
vn 0.465079 0.818245 -0.337900
vn 0.177645 0.818245 -0.546734
vn -0.177645 0.818245 -0.546734
vn -0.465079 0.818245 -0.337900
vn -0.574870 0.818245 -0.000000
vn -0.465079 0.818245 0.337900
vn -0.177645 0.818245 0.546734
vn 0.063262 0.978821 0.194700
vn 0.165621 0.978821 0.120331
vn 0.204719 0.978821 0.000000
vn 0.165621 0.978821 -0.120331
vn 0.063262 0.978821 -0.194700
vn -0.063262 0.978821 -0.194700
vn -0.165621 0.978821 -0.120331
vn -0.204719 0.978821 0.000000
vn -0.165621 0.978821 0.120331
vn -0.063262 0.978821 0.194700
vn 0.247404 0.968912 0.000000
vn -0.247404 -0.968912 0.000000
vn 0.953578 -0.243488 0.177207
vn 0.398892 -0.101854 -0.911324
vn -0.874793 0.223371 -0.429934
vn -0.599857 0.153169 0.785310
vn -0.247404 0.968912 0.000000
vn 0.247404 -0.968912 0.000000
vn -0.953578 -0.243488 0.177207
vn -0.398892 -0.101854 -0.911324
vn 0.874793 0.223371 -0.429934
vn 0.599857 0.153169 0.785310
vn -0.000000 0.000000 1.000000
vn 0.000000 0.000000 -1.000000
vn 0.247404 0.968912 0.000000
vn -0.247404 -0.968912 0.000000
vn -0.968912 0.247404 0.000000
vn 0.968912 -0.247404 0.000000
vn 0.000000 0.000000 1.000000
vn -0.000000 0.000000 -1.000000
vn -0.247404 0.968912 0.000000
vn 0.247404 -0.968912 0.000000
vn -0.968912 -0.247404 0.000000
vn 0.968912 0.247404 0.000000
vn 0.000000 0.000000 1.000000
vn 0.000000 0.000000 -1.000000
vn 0.000000 0.999920 -0.012628
vn 0.000000 -0.999920 -0.012628
vn -0.999875 0.000000 -0.015784
vn 0.999875 0.000000 -0.015784
vn -0.000000 1.000000 0.000000
vn 0.000000 -1.000000 0.000000
vn -1.000000 0.000000 0.000000
vn 1.000000 0.000000 0.000000
vn 0.000000 0.000000 1.000000
vn 0.000000 0.000000 -1.000000
vn 0.000000 0.999920 -0.012628
vn 0.000000 -0.999920 -0.012628
vn -0.999875 0.000000 -0.015784
vn 0.999875 0.000000 -0.015784
vn -0.000000 1.000000 0.000000
vn 0.000000 -1.000000 0.000000
vn -1.000000 0.000000 0.000000
vn 1.000000 0.000000 0.000000
vn 0.299447 -0.921602 0.246943
vn 0.783962 -0.569582 0.246943
vn 0.969030 -0.000000 0.246943
vn 0.783962 0.569582 0.246943
vn 0.299447 0.921602 0.246943
vn -0.299447 0.921602 0.246943
vn -0.783962 0.569582 0.246943
vn -0.969030 0.000000 0.246943
vn -0.783962 -0.569582 0.246943
vn -0.299447 -0.921602 0.246943
vn 0.223919 -0.689152 0.689152
vn 0.586227 -0.425919 0.689152
vn 0.724617 -0.000000 0.689152
vn 0.586227 0.425919 0.689152
vn 0.223919 0.689152 0.689152
vn -0.223919 0.689152 0.689152
vn -0.586227 0.425919 0.689152
vn -0.724617 0.000000 0.689152
vn -0.586227 -0.425919 0.689152
vn -0.223919 -0.689152 0.689152
vn 0.083800 -0.257909 0.962528
vn 0.219390 -0.159396 0.962528
vn 0.271181 -0.000000 0.962528
vn 0.219390 0.159396 0.962528
vn 0.083800 0.257909 0.962528
vn -0.083800 0.257909 0.962528
vn -0.219390 0.159396 0.962528
vn -0.271181 0.000000 0.962528
vn -0.219390 -0.159396 0.962528
vn -0.083800 -0.257909 0.962528
vn 0.000000 0.000000 -1.000000
vn 0.499921 -0.865888 0.017827
vn 0.999841 -0.000000 0.017827
vn 0.499921 0.865888 0.017827
vn -0.499921 0.865888 0.017827
vn -0.999841 0.000000 0.017827
vn -0.499921 -0.865888 0.017827
vn 0.499169 -0.864586 0.057639
vn 0.998337 -0.000000 0.057639
vn 0.499169 0.864586 0.057639
vn -0.499169 0.864586 0.057639
vn -0.998337 0.000000 0.057639
vn -0.499169 -0.864586 0.057639
vn 0.299447 -0.921602 0.246943
vn 0.783962 -0.569582 0.246943
vn 0.969030 -0.000000 0.246943
vn 0.783962 0.569582 0.246943
vn 0.299447 0.921602 0.246943
vn -0.299447 0.921602 0.246943
vn -0.783962 0.569582 0.246943
vn -0.969030 0.000000 0.246943
vn -0.783962 -0.569582 0.246943
vn -0.299447 -0.921602 0.246943
vn 0.223919 -0.689152 0.689152
vn 0.586227 -0.425919 0.689152
vn 0.724617 -0.000000 0.689152
vn 0.586227 0.425919 0.689152
vn 0.223919 0.689152 0.689152
vn -0.223919 0.689152 0.689152
vn -0.586227 0.425919 0.689152
vn -0.724617 0.000000 0.689152
vn -0.586227 -0.425919 0.689152
vn -0.223919 -0.689152 0.689152
vn 0.083800 -0.257909 0.962528
vn 0.219390 -0.159396 0.962528
vn 0.271181 -0.000000 0.962528
vn 0.219390 0.159396 0.962528
vn 0.083800 0.257909 0.962528
vn -0.083800 0.257909 0.962528
vn -0.219390 0.159396 0.962528
vn -0.271181 0.000000 0.962528
vn -0.219390 -0.159396 0.962528
vn -0.083800 -0.257909 0.962528
vn 0.000000 0.000000 -1.000000
vn 0.499921 -0.865888 0.017827
vn 0.999841 -0.000000 0.017827
vn 0.499921 0.865888 0.017827
vn -0.499921 0.865888 0.017827
vn -0.999841 0.000000 0.017827
vn -0.499921 -0.865888 0.017827
vn 0.499169 -0.864586 0.057639
vn 0.998337 -0.000000 0.057639
vn 0.499169 0.864586 0.057639
vn -0.499169 0.864586 0.057639
vn -0.998337 0.000000 0.057639
vn -0.499169 -0.864586 0.057639
f 1/1/1 2/2/1 3/3/1
f 1/1/1 3/3/1 4/4/1
f 5/5/2 6/6/2 7/7/2
f 5/5/2 7/7/2 8/8/2
f 4/9/3 3/10/3 8/11/3
f 4/9/3 8/11/3 7/12/3
f 6/12/4 5/11/4 2/10/4
f 6/12/4 2/10/4 1/9/4
f 6/13/5 1/14/5 4/15/5
f 6/13/5 4/15/5 7/16/5
f 2/14/6 5/13/6 8/16/6
f 2/14/6 8/16/6 3/15/6
f 9/17/7 10/18/7 11/19/7
f 9/17/7 12/20/7 10/18/7
f 9/17/7 13/21/7 12/20/7
f 9/17/7 11/19/7 13/21/7
f 11/22/8 10/23/8 14/24/8
f 10/23/9 12/22/9 14/24/9
f 12/22/10 13/25/10 14/24/10
f 13/25/11 11/22/11 14/24/11
f 15/26/12 16/27/12 17/28/12
f 15/26/12 18/29/12 16/27/12
f 15/26/12 19/30/12 18/29/12
f 15/26/12 17/28/12 19/30/12
f 17/31/13 16/32/13 20/33/13
f 16/32/14 18/31/14 20/33/14
f 18/31/15 19/34/15 20/33/15
f 19/34/16 17/31/16 20/33/16
f 21/35/17 22/36/17 23/37/17
f 21/35/17 23/37/17 24/38/17
f 25/39/18 26/40/18 27/41/18
f 25/39/18 27/41/18 28/42/18
f 24/43/19 23/44/19 28/45/19
f 24/43/19 28/45/19 27/46/19
f 26/46/20 25/45/20 22/44/20
f 26/46/20 22/44/20 21/43/20
f 26/47/21 21/48/21 24/49/21
f 26/47/21 24/49/21 27/50/21
f 22/48/22 25/47/22 28/50/22
f 22/48/22 28/50/22 23/49/22
f 29/51/23 30/52/23 31/53/23
f 29/51/23 31/53/23 32/54/23
f 33/55/24 34/56/24 35/57/24
f 33/55/24 35/57/24 36/58/24
f 32/59/25 31/60/25 36/61/25
f 32/59/25 36/61/25 35/62/25
f 34/62/26 33/61/26 30/60/26
f 34/62/26 30/60/26 29/59/26
f 34/63/27 29/64/27 32/65/27
f 34/63/27 32/65/27 35/66/27
f 30/64/28 33/63/28 36/66/28
f 30/64/28 36/66/28 31/65/28
f 37/67/29 38/68/29 39/69/29
f 37/67/29 40/70/29 38/68/29
f 37/67/29 41/71/29 40/70/29
f 37/67/29 42/72/29 41/71/29
f 37/67/29 43/73/29 42/72/29
f 37/67/29 44/74/29 43/73/29
f 37/67/29 45/75/29 44/74/29
f 37/67/29 39/69/29 45/75/29
f 39/76/30 38/77/30 46/78/30
f 39/76/30 46/78/30 47/79/30
f 38/80/31 40/81/31 48/82/31
f 38/80/31 48/82/31 46/83/31
f 40/81/32 41/84/32 49/85/32
f 40/81/32 49/85/32 48/82/32
f 41/77/33 42/76/33 50/79/33
f 41/77/33 50/79/33 49/78/33
f 42/76/34 43/86/34 51/87/34
f 42/76/34 51/87/34 50/79/34
f 43/84/35 44/81/35 52/82/35
f 43/84/35 52/82/35 51/85/35
f 44/81/36 45/80/36 53/83/36
f 44/81/36 53/83/36 52/82/36
f 45/86/37 39/76/37 47/79/37
f 45/86/37 47/79/37 53/87/37
f 47/88/38 46/89/38 54/90/38
f 46/89/38 48/91/38 54/90/38
f 48/91/38 49/92/38 54/90/38
f 49/92/38 50/93/38 54/90/38
f 50/93/38 51/94/38 54/90/38
f 51/94/38 52/95/38 54/90/38
f 52/95/38 53/96/38 54/90/38
f 53/96/38 47/88/38 54/90/38
f 55/97/39 56/98/39 57/99/39
f 55/97/39 58/100/39 56/98/39
f 55/97/39 59/101/39 58/100/39
f 55/97/39 60/102/39 59/101/39
f 55/97/39 61/103/39 60/102/39
f 55/97/39 62/104/39 61/103/39
f 55/97/39 63/105/39 62/104/39
f 55/97/39 57/99/39 63/105/39
f 57/106/40 56/107/40 64/108/40
f 57/106/40 64/108/40 65/109/40
f 56/110/41 58/111/41 66/112/41
f 56/110/41 66/112/41 64/113/41
f 58/111/42 59/114/42 67/115/42
f 58/111/42 67/115/42 66/112/42
f 59/107/43 60/106/43 68/109/43
f 59/107/43 68/109/43 67/108/43
f 60/106/44 61/116/44 69/117/44
f 60/106/44 69/117/44 68/109/44
f 61/114/45 62/111/45 70/112/45
f 61/114/45 70/112/45 69/115/45
f 62/111/46 63/110/46 71/113/46
f 62/111/46 71/113/46 70/112/46
f 63/116/47 57/106/47 65/109/47
f 63/116/47 65/109/47 71/117/47
f 65/118/48 64/119/48 72/120/48
f 64/119/48 66/121/48 72/120/48
f 66/121/48 67/122/48 72/120/48
f 67/122/48 68/123/48 72/120/48
f 68/123/48 69/124/48 72/120/48
f 69/124/48 70/125/48 72/120/48
f 70/125/48 71/126/48 72/120/48
f 71/126/48 65/118/48 72/120/48
f 73/127/49 74/128/49 75/129/49
f 73/127/49 75/129/49 76/130/49
f 74/131/50 77/132/50 78/133/50
f 74/131/50 78/133/50 75/134/50
f 77/132/51 79/135/51 80/136/51
f 77/132/51 80/136/51 78/133/51
f 79/135/52 81/137/52 82/138/52
f 79/135/52 82/138/52 80/136/52
f 81/139/53 83/140/53 84/141/53
f 81/139/53 84/141/53 82/142/53
f 83/140/54 85/143/54 86/144/54
f 83/140/54 86/144/54 84/141/54
f 85/137/55 87/135/55 88/136/55
f 85/137/55 88/136/55 86/138/55
f 87/135/56 89/132/56 90/133/56
f 87/135/56 90/133/56 88/136/56
f 89/132/57 91/131/57 92/134/57
f 89/132/57 92/134/57 90/133/57
f 91/145/58 73/127/58 76/130/58
f 91/145/58 76/130/58 92/146/58
f 76/130/59 75/129/59 93/147/59
f 76/130/59 93/147/59 94/148/59
f 75/134/60 78/133/60 95/149/60
f 75/134/60 95/149/60 93/150/60
f 78/133/61 80/136/61 96/151/61
f 78/133/61 96/151/61 95/149/61
f 80/136/62 82/138/62 97/152/62
f 80/136/62 97/152/62 96/151/62
f 82/142/63 84/141/63 98/153/63
f 82/142/63 98/153/63 97/154/63
f 84/141/64 86/144/64 99/155/64
f 84/141/64 99/155/64 98/153/64
f 86/138/65 88/136/65 100/151/65
f 86/138/65 100/151/65 99/152/65
f 88/136/66 90/133/66 101/149/66
f 88/136/66 101/149/66 100/151/66
f 90/133/67 92/134/67 102/150/67
f 90/133/67 102/150/67 101/149/67
f 92/146/68 76/130/68 94/148/68
f 92/146/68 94/148/68 102/156/68
f 94/157/69 93/158/69 103/159/69
f 94/157/69 103/159/69 104/160/69
f 93/158/70 95/161/70 105/162/70
f 93/158/70 105/162/70 103/159/70
f 95/161/71 96/163/71 106/164/71
f 95/161/71 106/164/71 105/162/71
f 96/163/72 97/165/72 107/166/72
f 96/163/72 107/166/72 106/164/72
f 97/165/73 98/167/73 108/168/73
f 97/165/73 108/168/73 107/166/73
f 98/167/74 99/169/74 109/170/74
f 98/167/74 109/170/74 108/168/74
f 99/169/75 100/171/75 110/172/75
f 99/169/75 110/172/75 109/170/75
f 100/171/76 101/173/76 111/174/76
f 100/171/76 111/174/76 110/172/76
f 101/173/77 102/175/77 112/176/77
f 101/173/77 112/176/77 111/174/77
f 102/175/78 94/157/78 104/160/78
f 102/175/78 104/160/78 112/176/78
f 104/160/79 103/159/79 113/177/79
f 103/159/80 105/162/80 113/177/80
f 105/162/81 106/164/81 113/177/81
f 106/164/82 107/166/82 113/177/82
f 107/166/83 108/168/83 113/177/83
f 108/168/84 109/170/84 113/177/84
f 109/170/85 110/172/85 113/177/85
f 110/172/86 111/174/86 113/177/86
f 111/174/87 112/176/87 113/177/87
f 112/176/88 104/160/88 113/177/88
f 114/178/89 115/179/89 116/180/89
f 117/181/90 118/182/90 119/183/90
f 116/180/89 120/184/89 114/178/89
f 118/182/90 117/181/90 121/185/90
f 115/186/91 118/187/91 116/188/91
f 115/186/91 119/189/91 118/187/91
f 116/190/92 121/191/92 120/192/92
f 116/190/92 118/193/92 121/191/92
f 120/194/93 117/195/93 114/196/93
f 120/194/93 121/197/93 117/195/93
f 114/198/94 119/199/94 115/200/94
f 114/198/94 117/201/94 119/199/94
f 122/202/95 123/203/95 124/204/95
f 125/205/96 126/206/96 127/207/96
f 123/203/95 122/202/95 128/208/95
f 127/207/96 129/209/96 125/205/96
f 124/210/97 123/211/97 127/212/97
f 124/210/97 127/212/97 126/213/97
f 123/214/98 128/215/98 129/216/98
f 123/214/98 129/216/98 127/217/98
f 128/218/99 122/219/99 125/220/99
f 128/218/99 125/220/99 129/221/99
f 122/222/100 124/223/100 126/224/100
f 122/222/100 126/224/100 125/225/100
f 130/226/101 131/227/101 132/228/101
f 130/226/101 132/228/101 133/229/101
f 134/230/102 135/231/102 136/232/102
f 134/230/102 136/232/102 137/233/102
f 133/234/103 132/235/103 137/236/103
f 133/234/103 137/236/103 136/237/103
f 135/238/104 134/239/104 131/240/104
f 135/238/104 131/240/104 130/241/104
f 135/242/105 130/243/105 133/244/105
f 135/242/105 133/244/105 136/245/105
f 131/246/106 134/247/106 137/248/106
f 131/246/106 137/248/106 132/249/106
f 138/250/101 139/251/101 140/252/101
f 138/250/101 140/252/101 141/253/101
f 142/254/102 143/255/102 144/256/102
f 142/254/102 144/256/102 145/257/102
f 141/258/103 140/259/103 145/260/103
f 141/258/103 145/260/103 144/261/103
f 143/262/104 142/263/104 139/264/104
f 143/262/104 139/264/104 138/265/104
f 143/266/105 138/267/105 141/268/105
f 143/266/105 141/268/105 144/269/105
f 139/270/106 142/271/106 145/272/106
f 139/270/106 145/272/106 140/273/106
f 146/274/101 147/275/101 148/276/101
f 146/274/101 148/276/101 149/277/101
f 150/278/102 151/279/102 152/280/102
f 150/278/102 152/280/102 153/281/102
f 149/282/103 148/283/103 153/284/103
f 149/282/103 153/284/103 152/285/103
f 151/286/104 150/287/104 147/288/104
f 151/286/104 147/288/104 146/289/104
f 151/290/105 146/291/105 149/292/105
f 151/290/105 149/292/105 152/293/105
f 147/294/106 150/295/106 153/296/106
f 147/294/106 153/296/106 148/297/106
f 154/298/107 155/299/107 156/300/107
f 154/298/107 156/300/107 157/301/107
f 158/302/108 159/303/108 160/304/108
f 158/302/108 160/304/108 161/305/108
f 157/306/109 156/307/109 161/308/109
f 157/306/109 161/308/109 160/309/109
f 159/310/110 158/311/110 155/312/110
f 159/310/110 155/312/110 154/313/110
f 159/314/111 154/315/111 157/316/111
f 159/314/111 157/316/111 160/317/111
f 155/318/112 158/319/112 161/320/112
f 155/318/112 161/320/112 156/321/112
f 162/322/107 163/323/107 164/324/107
f 162/322/107 164/324/107 165/325/107
f 166/326/108 167/327/108 168/328/108
f 166/326/108 168/328/108 169/329/108
f 165/330/109 164/331/109 169/332/109
f 165/330/109 169/332/109 168/333/109
f 167/334/110 166/335/110 163/336/110
f 167/334/110 163/336/110 162/337/110
f 167/338/111 162/339/111 165/340/111
f 167/338/111 165/340/111 168/341/111
f 163/342/112 166/343/112 169/344/112
f 163/342/112 169/344/112 164/345/112
f 170/346/107 171/347/107 172/348/107
f 170/346/107 172/348/107 173/349/107
f 174/350/108 175/351/108 176/352/108
f 174/350/108 176/352/108 177/353/108
f 173/354/109 172/355/109 177/356/109
f 173/354/109 177/356/109 176/357/109
f 175/358/110 174/359/110 171/360/110
f 175/358/110 171/360/110 170/361/110
f 175/362/111 170/363/111 173/364/111
f 175/362/111 173/364/111 176/365/111
f 171/366/112 174/367/112 177/368/112
f 171/366/112 177/368/112 172/369/112
f 178/370/113 179/371/113 180/372/113
f 178/370/113 180/372/113 181/373/113
f 182/374/114 183/375/114 184/376/114
f 182/374/114 184/376/114 185/377/114
f 181/378/115 180/379/115 185/380/115
f 181/378/115 185/380/115 184/381/115
f 183/381/116 182/380/116 179/379/116
f 183/381/116 179/379/116 178/378/116
f 183/382/117 178/383/117 181/384/117
f 183/382/117 181/384/117 184/385/117
f 179/386/118 182/387/118 185/388/118
f 179/386/118 185/388/118 180/389/118
f 186/390/113 187/391/113 188/392/113
f 186/390/113 188/392/113 189/393/113
f 190/394/114 191/395/114 192/396/114
f 190/394/114 192/396/114 193/397/114
f 189/398/119 188/399/119 193/400/119
f 189/398/119 193/400/119 192/401/119
f 191/401/120 190/400/120 187/399/120
f 191/401/120 187/399/120 186/398/120
f 191/402/121 186/403/121 189/404/121
f 191/402/121 189/404/121 192/405/121
f 187/406/122 190/406/122 193/407/122
f 187/406/122 193/407/122 188/407/122
f 194/408/113 195/409/113 196/410/113
f 194/408/113 196/410/113 197/411/113
f 198/412/114 199/413/114 200/414/114
f 198/412/114 200/414/114 201/415/114
f 197/416/119 196/417/119 201/418/119
f 197/416/119 201/418/119 200/419/119
f 199/419/120 198/418/120 195/417/120
f 199/419/120 195/417/120 194/416/120
f 199/420/121 194/421/121 197/422/121
f 199/420/121 197/422/121 200/423/121
f 195/424/122 198/424/122 201/425/122
f 195/424/122 201/425/122 196/425/122
f 202/426/123 203/427/123 204/428/123
f 202/426/123 204/428/123 205/429/123
f 206/430/124 207/431/124 208/432/124
f 206/430/124 208/432/124 209/433/124
f 205/434/125 204/435/125 209/436/125
f 205/434/125 209/436/125 208/437/125
f 207/437/126 206/436/126 203/435/126
f 207/437/126 203/435/126 202/434/126
f 207/438/127 202/439/127 205/440/127
f 207/438/127 205/440/127 208/441/127
f 203/442/128 206/443/128 209/444/128
f 203/442/128 209/444/128 204/445/128
f 210/446/123 211/447/123 212/448/123
f 210/446/123 212/448/123 213/449/123
f 214/450/124 215/451/124 216/452/124
f 214/450/124 216/452/124 217/453/124
f 213/454/129 212/455/129 217/456/129
f 213/454/129 217/456/129 216/457/129
f 215/457/130 214/456/130 211/455/130
f 215/457/130 211/455/130 210/454/130
f 215/458/131 210/458/131 213/459/131
f 215/458/131 213/459/131 216/459/131
f 211/460/132 214/461/132 217/462/132
f 211/460/132 217/462/132 212/463/132
f 218/464/123 219/465/123 220/466/123
f 218/464/123 220/466/123 221/467/123
f 222/468/124 223/469/124 224/470/124
f 222/468/124 224/470/124 225/471/124
f 221/472/129 220/473/129 225/474/129
f 221/472/129 225/474/129 224/475/129
f 223/475/130 222/474/130 219/473/130
f 223/475/130 219/473/130 218/472/130
f 223/476/131 218/476/131 221/477/131
f 223/476/131 221/477/131 224/477/131
f 219/478/132 222/479/132 225/480/132
f 219/478/132 225/480/132 220/481/132
f 226/482/133 227/483/133 228/484/133
f 226/482/133 228/484/133 229/485/133
f 227/486/134 230/487/134 231/488/134
f 227/486/134 231/488/134 228/489/134
f 230/487/135 232/490/135 233/491/135
f 230/487/135 233/491/135 231/488/135
f 232/490/136 234/492/136 235/493/136
f 232/490/136 235/493/136 233/491/136
f 234/483/137 236/482/137 237/485/137
f 234/483/137 237/485/137 235/484/137
f 236/482/138 238/494/138 239/495/138
f 236/482/138 239/495/138 237/485/138
f 238/492/139 240/490/139 241/491/139
f 238/492/139 241/491/139 239/493/139
f 240/490/140 242/487/140 243/488/140
f 240/490/140 243/488/140 241/491/140
f 242/487/141 244/486/141 245/489/141
f 242/487/141 245/489/141 243/488/141
f 244/494/142 226/482/142 229/485/142
f 244/494/142 229/485/142 245/495/142
f 229/496/143 228/497/143 246/498/143
f 229/496/143 246/498/143 247/499/143
f 228/497/144 231/500/144 248/501/144
f 228/497/144 248/501/144 246/498/144
f 231/488/145 233/491/145 249/502/145
f 231/488/145 249/502/145 248/503/145
f 233/504/146 235/505/146 250/506/146
f 233/504/146 250/506/146 249/507/146
f 235/505/147 237/508/147 251/509/147
f 235/505/147 251/509/147 250/506/147
f 237/508/148 239/510/148 252/511/148
f 237/508/148 252/511/148 251/509/148
f 239/510/149 241/512/149 253/513/149
f 239/510/149 253/513/149 252/511/149
f 241/491/150 243/488/150 254/503/150
f 241/491/150 254/503/150 253/502/150
f 243/514/151 245/515/151 255/516/151
f 243/514/151 255/516/151 254/517/151
f 245/515/152 229/496/152 247/499/152
f 245/515/152 247/499/152 255/516/152
f 247/499/153 246/498/153 256/518/153
f 246/498/154 248/501/154 256/518/154
f 248/501/155 249/507/155 256/518/155
f 249/507/156 250/506/156 256/518/156
f 250/506/157 251/509/157 256/518/157
f 251/509/158 252/511/158 256/518/158
f 252/511/159 253/513/159 256/518/159
f 253/513/160 254/517/160 256/518/160
f 254/517/161 255/516/161 256/518/161
f 255/516/162 247/499/162 256/518/162
f 257/519/163 258/520/163 259/521/163
f 257/519/163 260/522/163 258/520/163
f 257/519/163 261/523/163 260/522/163
f 257/519/163 262/524/163 261/523/163
f 257/519/163 263/525/163 262/524/163
f 257/519/163 259/521/163 263/525/163
f 259/526/164 258/527/164 264/528/164
f 259/526/164 264/528/164 265/529/164
f 258/530/165 260/531/165 266/532/165
f 258/530/165 266/532/165 264/533/165
f 260/527/166 261/526/166 267/529/166
f 260/527/166 267/529/166 266/528/166
f 261/526/167 262/534/167 268/535/167
f 261/526/167 268/535/167 267/529/167
f 262/531/168 263/530/168 269/533/168
f 262/531/168 269/533/168 268/532/168
f 263/534/169 259/526/169 265/529/169
f 263/534/169 265/529/169 269/535/169
f 265/529/170 264/528/170 270/536/170
f 265/529/170 270/536/170 271/537/170
f 264/533/171 266/532/171 272/538/171
f 264/533/171 272/538/171 270/539/171
f 266/528/172 267/529/172 273/537/172
f 266/528/172 273/537/172 272/536/172
f 267/529/173 268/535/173 274/540/173
f 267/529/173 274/540/173 273/537/173
f 268/532/174 269/533/174 275/539/174
f 268/532/174 275/539/174 274/538/174
f 269/535/175 265/529/175 271/537/175
f 269/535/175 271/537/175 275/540/175
f 276/541/176 277/542/176 278/543/176
f 276/541/176 278/543/176 279/544/176
f 277/545/177 280/546/177 281/547/177
f 277/545/177 281/547/177 278/548/177
f 280/546/178 282/549/178 283/550/178
f 280/546/178 283/550/178 281/547/178
f 282/549/179 284/551/179 285/552/179
f 282/549/179 285/552/179 283/550/179
f 284/542/180 286/541/180 287/544/180
f 284/542/180 287/544/180 285/543/180
f 286/541/181 288/553/181 289/554/181
f 286/541/181 289/554/181 287/544/181
f 288/551/182 290/549/182 291/550/182
f 288/551/182 291/550/182 289/552/182
f 290/549/183 292/546/183 293/547/183
f 290/549/183 293/547/183 291/550/183
f 292/546/184 294/545/184 295/548/184
f 292/546/184 295/548/184 293/547/184
f 294/553/185 276/541/185 279/544/185
f 294/553/185 279/544/185 295/554/185
f 279/555/186 278/556/186 296/557/186
f 279/555/186 296/557/186 297/558/186
f 278/556/187 281/559/187 298/560/187
f 278/556/187 298/560/187 296/557/187
f 281/547/188 283/550/188 299/561/188
f 281/547/188 299/561/188 298/562/188
f 283/563/189 285/564/189 300/565/189
f 283/563/189 300/565/189 299/566/189
f 285/564/190 287/567/190 301/568/190
f 285/543/190 301/569/190 300/570/190
f 287/567/191 289/571/191 302/572/191
f 287/567/191 302/572/191 301/568/191
f 289/571/192 291/573/192 303/574/192
f 289/571/192 303/574/192 302/572/192
f 291/550/193 293/547/193 304/562/193
f 291/550/193 304/562/193 303/561/193
f 293/575/194 295/576/194 305/577/194
f 293/575/194 305/577/194 304/578/194
f 295/576/195 279/555/195 297/558/195
f 295/576/195 297/558/195 305/577/195
f 297/558/196 296/557/196 306/579/196
f 296/557/197 298/560/197 306/579/197
f 298/560/198 299/566/198 306/579/198
f 299/566/199 300/565/199 306/579/199
f 300/565/200 301/568/200 306/579/200
f 301/568/201 302/572/201 306/579/201
f 302/572/202 303/574/202 306/579/202
f 303/574/203 304/578/203 306/579/203
f 304/578/204 305/577/204 306/579/204
f 305/577/205 297/558/205 306/579/205
f 307/580/206 308/581/206 309/582/206
f 307/580/206 310/583/206 308/581/206
f 307/580/206 311/584/206 310/583/206
f 307/580/206 312/585/206 311/584/206
f 307/580/206 313/586/206 312/585/206
f 307/580/206 309/582/206 313/586/206
f 309/587/207 308/588/207 314/589/207
f 309/587/207 314/589/207 315/590/207
f 308/591/208 310/592/208 316/593/208
f 308/591/208 316/593/208 314/594/208
f 310/588/209 311/587/209 317/590/209
f 310/588/209 317/590/209 316/589/209
f 311/587/210 312/595/210 318/596/210
f 311/587/210 318/596/210 317/590/210
f 312/592/211 313/591/211 319/594/211
f 312/592/211 319/594/211 318/593/211
f 313/595/212 309/587/212 315/590/212
f 313/595/212 315/590/212 319/596/212
f 315/590/213 314/589/213 320/597/213
f 315/590/213 320/597/213 321/598/213
f 314/594/214 316/593/214 322/599/214
f 314/594/214 322/599/214 320/600/214
f 316/589/215 317/590/215 323/598/215
f 316/589/215 323/598/215 322/597/215
f 317/590/216 318/596/216 324/601/216
f 317/590/216 324/601/216 323/598/216
f 318/593/217 319/594/217 325/600/217
f 318/593/217 325/600/217 324/599/217
f 319/596/218 315/590/218 321/598/218
f 319/596/218 321/598/218 325/601/218
