# Sarn freighter, from tools/gen_fleet.py
# Generated by tools. Edit the generator script.
v 0.000000 0.162545 0.050963
v 0.270440 0.317441 1.499167
v 0.000000 0.317441 2.099033
v 0.382459 0.317441 0.050963
v 0.270440 0.317441 -1.397241
v 0.000000 0.317441 -1.997107
v -0.270440 0.317441 -1.397241
v -0.382459 0.317441 0.050963
v -0.270440 0.317441 1.499167
v 0.000000 0.472337 0.050963
v 0.000000 0.366473 1.197882
v 0.033465 0.366473 1.197882
v 0.000000 0.366473 1.231347
v 0.000000 0.366473 1.164417
v -0.033465 0.366473 1.197882
v 0.000000 0.452526 1.197882
v 0.000000 0.401169 0.739114
v 0.033465 0.401169 0.739114
v 0.000000 0.401169 0.772579
v 0.000000 0.401169 0.705649
v -0.033465 0.401169 0.739114
v 0.000000 0.487223 0.739114
v 0.000000 0.435866 0.280347
v 0.033465 0.435866 0.280347
v 0.000000 0.435866 0.313812
v 0.000000 0.435866 0.246881
v -0.033465 0.435866 0.280347
v 0.000000 0.521919 0.280347
v 0.000000 0.435866 -0.178421
v 0.033465 0.435866 -0.178421
v 0.000000 0.435866 -0.144956
v 0.000000 0.435866 -0.211886
v -0.033465 0.435866 -0.178421
v 0.000000 0.521919 -0.178421
v 0.000000 0.401169 -0.637189
v 0.033465 0.401169 -0.637189
v 0.000000 0.401169 -0.603724
v 0.000000 0.401169 -0.670654
v -0.033465 0.401169 -0.637189
v 0.000000 0.487223 -0.637189
v 0.000000 0.366473 -1.095956
v 0.033465 0.366473 -1.095956
v 0.000000 0.366473 -1.062491
v 0.000000 0.366473 -1.129422
v -0.033465 0.366473 -1.095956
v 0.000000 0.452526 -1.095956
v -0.358445 0.279195 1.079186
v -0.358445 0.279195 1.126993
v -0.358445 0.355687 1.126993
v -0.358445 0.355687 1.079186
v -0.243708 0.279195 1.126993
v -0.243708 0.279195 1.079186
v -0.243708 0.355687 1.079186
v -0.243708 0.355687 1.126993
v -0.358445 0.279195 -1.025068
v -0.358445 0.279195 -0.977261
v -0.358445 0.355687 -0.977261
v -0.358445 0.355687 -1.025068
v -0.243708 0.279195 -0.977261
v -0.243708 0.279195 -1.025068
v -0.243708 0.355687 -1.025068
v -0.243708 0.355687 -0.977261
v 0.358445 0.279195 1.126993
v 0.358445 0.279195 1.079186
v 0.358445 0.355687 1.079186
v 0.358445 0.355687 1.126993
v 0.243708 0.279195 1.079186
v 0.243708 0.279195 1.126993
v 0.243708 0.355687 1.126993
v 0.243708 0.355687 1.079186
v 0.358445 0.279195 -0.977261
v 0.358445 0.279195 -1.025068
v 0.358445 0.355687 -1.025068
v 0.358445 0.355687 -0.977261
v 0.243708 0.279195 -1.025068
v 0.243708 0.279195 -0.977261
v 0.243708 0.355687 -0.977261
v 0.243708 0.355687 -1.025068
v -0.200791 0.000000 -0.660699
v -0.009561 0.000000 -0.660699
v -0.009561 0.172107 -0.660699
v -0.200791 0.172107 -0.660699
v -0.009561 0.000000 -0.875832
v -0.200791 0.000000 -0.875832
v -0.200791 0.172107 -0.875832
v -0.009561 0.172107 -0.875832
v 0.009561 0.000000 -0.660699
v 0.200791 0.000000 -0.660699
v 0.200791 0.172107 -0.660699
v 0.009561 0.172107 -0.660699
v 0.200791 0.000000 -0.875832
v 0.009561 0.000000 -0.875832
v 0.009561 0.172107 -0.875832
v 0.200791 0.172107 -0.875832
v -0.200791 0.000000 -0.114547
v -0.009561 0.000000 -0.114547
v -0.009561 0.172107 -0.114547
v -0.200791 0.172107 -0.114547
v -0.009561 0.000000 -0.329680
v -0.200791 0.000000 -0.329680
v -0.200791 0.172107 -0.329680
v -0.009561 0.172107 -0.329680
v 0.009561 0.000000 -0.114547
v 0.200791 0.000000 -0.114547
v 0.200791 0.172107 -0.114547
v 0.009561 0.172107 -0.114547
v 0.200791 0.000000 -0.329680
v 0.009561 0.000000 -0.329680
v 0.009561 0.172107 -0.329680
v 0.200791 0.172107 -0.329680
v -0.200791 0.000000 0.431605
v -0.009561 0.000000 0.431605
v -0.009561 0.172107 0.431605
v -0.200791 0.172107 0.431605
v -0.009561 0.000000 0.216472
v -0.200791 0.000000 0.216472
v -0.200791 0.172107 0.216472
v -0.009561 0.172107 0.216472
v 0.009561 0.000000 0.431605
v 0.200791 0.000000 0.431605
v 0.200791 0.172107 0.431605
v 0.009561 0.172107 0.431605
v 0.200791 0.000000 0.216472
v 0.009561 0.000000 0.216472
v 0.009561 0.172107 0.216472
v 0.200791 0.172107 0.216472
v -0.200791 0.000000 0.977757
v -0.009561 0.000000 0.977757
v -0.009561 0.172107 0.977757
v -0.200791 0.172107 0.977757
v -0.009561 0.000000 0.762624
v -0.200791 0.000000 0.762624
v -0.200791 0.172107 0.762624
v -0.009561 0.172107 0.762624
v 0.009561 0.000000 0.977757
v 0.200791 0.000000 0.977757
v 0.200791 0.172107 0.977757
v 0.009561 0.172107 0.977757
v 0.200791 0.000000 0.762624
v 0.009561 0.000000 0.762624
v 0.009561 0.172107 0.762624
v 0.200791 0.172107 0.762624
v 0.000000 0.317441 -1.028146
v 0.176941 0.317441 -1.051441
v 0.171991 0.350563 -1.069912
v 0.000000 0.350563 -1.047269
v 0.162092 0.350563 -1.106855
v 0.000000 0.350563 -1.085515
v 0.157143 0.317441 -1.125326
v 0.000000 0.317441 -1.104638
v 0.162092 0.284319 -1.106855
v 0.000000 0.284319 -1.085515
v 0.171991 0.284319 -1.069912
v 0.000000 0.284319 -1.047269
v 0.341823 0.317441 -1.119738
v 0.332262 0.350563 -1.136299
v 0.313139 0.350563 -1.169420
v 0.303577 0.317441 -1.185981
v 0.313139 0.284319 -1.169420
v 0.332262 0.284319 -1.136299
v 0.483411 0.317441 -1.228382
v 0.469889 0.350563 -1.241904
v 0.442845 0.350563 -1.268948
v 0.429323 0.317441 -1.282470
v 0.442845 0.284319 -1.268948
v 0.469889 0.284319 -1.241904
v 0.592055 0.317441 -1.369969
v 0.575494 0.350563 -1.379531
v 0.542372 0.350563 -1.398654
v 0.525811 0.317441 -1.408215
v 0.542372 0.284319 -1.398654
v 0.575494 0.284319 -1.379531
v 0.660351 0.317441 -1.534852
v 0.641880 0.350563 -1.539801
v 0.604937 0.350563 -1.549700
v 0.586466 0.317441 -1.554649
v 0.604937 0.284319 -1.549700
v 0.641880 0.284319 -1.539801
v 0.683646 0.317441 -1.711792
v 0.664523 0.350563 -1.711792
v 0.626277 0.350563 -1.711792
v 0.607154 0.317441 -1.711792
v 0.626277 0.284319 -1.711792
v 0.664523 0.284319 -1.711792
v 0.660351 0.317441 -1.888733
v 0.641880 0.350563 -1.883784
v 0.604937 0.350563 -1.873885
v 0.586466 0.317441 -1.868936
v 0.604937 0.284319 -1.873885
v 0.641880 0.284319 -1.883784
v 0.592055 0.317441 -2.053615
v 0.575494 0.350563 -2.044054
v 0.542372 0.350563 -2.024931
v 0.525811 0.317441 -2.015370
v 0.542372 0.284319 -2.024931
v 0.575494 0.284319 -2.044054
v 0.483411 0.317441 -2.195203
v 0.469889 0.350563 -2.181681
v 0.442845 0.350563 -2.154637
v 0.429323 0.317441 -2.141115
v 0.442845 0.284319 -2.154637
v 0.469889 0.284319 -2.181681
v 0.341823 0.317441 -2.303847
v 0.332262 0.350563 -2.287286
v 0.313139 0.350563 -2.254164
v 0.303577 0.317441 -2.237603
v 0.313139 0.284319 -2.254164
v 0.332262 0.284319 -2.287286
v 0.176941 0.317441 -2.372144
v 0.171991 0.350563 -2.353672
v 0.162092 0.350563 -2.316730
v 0.157143 0.317441 -2.298258
v 0.162092 0.284319 -2.316730
v 0.171991 0.284319 -2.353672
v 0.000000 0.317441 -2.395439
v 0.000000 0.350563 -2.376316
v 0.000000 0.350563 -2.338070
v 0.000000 0.317441 -2.318947
v 0.000000 0.284319 -2.338070
v 0.000000 0.284319 -2.376316
v -0.176941 0.317441 -2.372144
v -0.171991 0.350563 -2.353672
v -0.162092 0.350563 -2.316730
v -0.157143 0.317441 -2.298258
v -0.162092 0.284319 -2.316730
v -0.171991 0.284319 -2.353672
v -0.341823 0.317441 -2.303847
v -0.332262 0.350563 -2.287286
v -0.313139 0.350563 -2.254164
v -0.303577 0.317441 -2.237603
v -0.313139 0.284319 -2.254164
v -0.332262 0.284319 -2.287286
v -0.483411 0.317441 -2.195203
v -0.469889 0.350563 -2.181681
v -0.442845 0.350563 -2.154637
v -0.429323 0.317441 -2.141115
v -0.442845 0.284319 -2.154637
v -0.469889 0.284319 -2.181681
v -0.592055 0.317441 -2.053615
v -0.575494 0.350563 -2.044054
v -0.542372 0.350563 -2.024931
v -0.525811 0.317441 -2.015370
v -0.542372 0.284319 -2.024931
v -0.575494 0.284319 -2.044054
v -0.660351 0.317441 -1.888733
v -0.641880 0.350563 -1.883784
v -0.604937 0.350563 -1.873885
v -0.586466 0.317441 -1.868936
v -0.604937 0.284319 -1.873885
v -0.641880 0.284319 -1.883784
v -0.683646 0.317441 -1.711792
v -0.664523 0.350563 -1.711792
v -0.626277 0.350563 -1.711792
v -0.607154 0.317441 -1.711792
v -0.626277 0.284319 -1.711792
v -0.664523 0.284319 -1.711792
v -0.660351 0.317441 -1.534852
v -0.641880 0.350563 -1.539801
v -0.604937 0.350563 -1.549700
v -0.586466 0.317441 -1.554649
v -0.604937 0.284319 -1.549700
v -0.641880 0.284319 -1.539801
v -0.592055 0.317441 -1.369969
v -0.575494 0.350563 -1.379531
v -0.542372 0.350563 -1.398654
v -0.525811 0.317441 -1.408215
v -0.542372 0.284319 -1.398654
v -0.575494 0.284319 -1.379531
v -0.483411 0.317441 -1.228382
v -0.469889 0.350563 -1.241904
v -0.442845 0.350563 -1.268948
v -0.429323 0.317441 -1.282470
v -0.442845 0.284319 -1.268948
v -0.469889 0.284319 -1.241904
v -0.341823 0.317441 -1.119738
v -0.332262 0.350563 -1.136299
v -0.313139 0.350563 -1.169420
v -0.303577 0.317441 -1.185981
v -0.313139 0.284319 -1.169420
v -0.332262 0.284319 -1.136299
v -0.176941 0.317441 -1.051441
v -0.171991 0.350563 -1.069912
v -0.162092 0.350563 -1.106855
v -0.157143 0.317441 -1.125326
v -0.162092 0.284319 -1.106855
v -0.171991 0.284319 -1.069912
v 0.511126 0.269634 -1.986685
v 0.606740 0.269634 -1.986685
v 0.606740 0.365249 -1.986685
v 0.511126 0.365249 -1.986685
v 0.606740 0.269634 -2.082300
v 0.511126 0.269634 -2.082300
v 0.511126 0.365249 -2.082300
v 0.606740 0.365249 -2.082300
v -0.047807 0.269634 -2.309385
v 0.047807 0.269634 -2.309385
v 0.047807 0.365249 -2.309385
v -0.047807 0.365249 -2.309385
v 0.047807 0.269634 -2.405000
v -0.047807 0.269634 -2.405000
v -0.047807 0.365249 -2.405000
v 0.047807 0.365249 -2.405000
v -0.606740 0.269634 -1.986685
v -0.511126 0.269634 -1.986685
v -0.511126 0.365249 -1.986685
v -0.606740 0.365249 -1.986685
v -0.511126 0.269634 -2.082300
v -0.606740 0.269634 -2.082300
v -0.606740 0.365249 -2.082300
v -0.511126 0.365249 -2.082300
v -0.606740 0.269634 -1.341285
v -0.511126 0.269634 -1.341285
v -0.511126 0.365249 -1.341285
v -0.606740 0.365249 -1.341285
v -0.511126 0.269634 -1.436900
v -0.606740 0.269634 -1.436900
v -0.606740 0.365249 -1.436900
v -0.511126 0.365249 -1.436900
v -0.047807 0.269634 -1.018585
v 0.047807 0.269634 -1.018585
v 0.047807 0.365249 -1.018585
v -0.047807 0.365249 -1.018585
v 0.047807 0.269634 -1.114200
v -0.047807 0.269634 -1.114200
v -0.047807 0.365249 -1.114200
v 0.047807 0.365249 -1.114200
v 0.511126 0.269634 -1.341285
v 0.606740 0.269634 -1.341285
v 0.606740 0.365249 -1.341285
v 0.511126 0.365249 -1.341285
v 0.606740 0.269634 -1.436900
v 0.511126 0.269634 -1.436900
v 0.511126 0.365249 -1.436900
v 0.606740 0.365249 -1.436900
v 0.645400 0.317441 -1.926926
v 0.699488 0.263353 -1.926926
v 0.645400 0.240949 -1.926926
v 0.721892 0.317441 -1.926926
v 0.699488 0.371529 -1.926926
v 0.645400 0.393933 -1.926926
v 0.591312 0.371529 -1.926926
v 0.568908 0.317441 -1.926926
v 0.591312 0.263353 -1.926926
v 0.699488 0.263353 -1.592274
v 0.645400 0.240949 -1.592274
v 0.721892 0.317441 -1.592274
v 0.699488 0.371529 -1.592274
v 0.645400 0.393933 -1.592274
v 0.591312 0.371529 -1.592274
v 0.568908 0.317441 -1.592274
v 0.591312 0.263353 -1.592274
v 0.645400 0.317441 -1.592274
v 0.645400 0.379591 -1.912584
v 0.689347 0.361388 -1.912584
v 0.677042 0.349083 -1.926926
v 0.645400 0.362189 -1.926926
v 0.707550 0.317441 -1.912584
v 0.690148 0.317441 -1.926926
v 0.689347 0.273495 -1.912584
v 0.677042 0.285800 -1.926926
v 0.645400 0.255292 -1.912584
v 0.645400 0.272694 -1.926926
v 0.601454 0.273495 -1.912584
v 0.613759 0.285800 -1.926926
v 0.583251 0.317441 -1.912584
v 0.600652 0.317441 -1.926926
v 0.601454 0.361388 -1.912584
v 0.613759 0.349083 -1.926926
v 0.645400 0.317441 -1.936487
v -0.645400 0.317441 -1.926926
v -0.591312 0.263353 -1.926926
v -0.645400 0.240949 -1.926926
v -0.568908 0.317441 -1.926926
v -0.591312 0.371529 -1.926926
v -0.645400 0.393933 -1.926926
v -0.699488 0.371529 -1.926926
v -0.721892 0.317441 -1.926926
v -0.699488 0.263353 -1.926926
v -0.591312 0.263353 -1.592274
v -0.645400 0.240949 -1.592274
v -0.568908 0.317441 -1.592274
v -0.591312 0.371529 -1.592274
v -0.645400 0.393933 -1.592274
v -0.699488 0.371529 -1.592274
v -0.721892 0.317441 -1.592274
v -0.699488 0.263353 -1.592274
v -0.645400 0.317441 -1.592274
v -0.645400 0.379591 -1.912584
v -0.601454 0.361388 -1.912584
v -0.613759 0.349083 -1.926926
v -0.645400 0.362189 -1.926926
v -0.583251 0.317441 -1.912584
v -0.600652 0.317441 -1.926926
v -0.601454 0.273495 -1.912584
v -0.613759 0.285800 -1.926926
v -0.645400 0.255292 -1.912584
v -0.645400 0.272694 -1.926926
v -0.689347 0.273495 -1.912584
v -0.677042 0.285800 -1.926926
v -0.707550 0.317441 -1.912584
v -0.690148 0.317441 -1.926926
v -0.689347 0.361388 -1.912584
v -0.677042 0.349083 -1.926926
v -0.645400 0.317441 -1.936487
v -0.664523 0.288757 -1.506221
v 0.000000 0.288757 -1.506221
v 0.000000 0.346126 -1.506221
v -0.664523 0.346126 -1.506221
v 0.000000 0.288757 -1.630520
v -0.664523 0.288757 -1.630520
v -0.664523 0.346126 -1.630520
v 0.000000 0.346126 -1.630520
v 0.000000 0.288757 -1.506221
v 0.664523 0.288757 -1.506221
v 0.664523 0.346126 -1.506221
v 0.000000 0.346126 -1.506221
v 0.664523 0.288757 -1.630520
v 0.000000 0.288757 -1.630520
v 0.000000 0.346126 -1.630520
v 0.664523 0.346126 -1.630520
v 0.000000 0.317441 1.974733
v 0.115927 0.250511 1.974733
v 0.000000 0.183580 1.974733
v 0.115927 0.384372 1.974733
v 0.000000 0.451302 1.974733
v -0.115927 0.384372 1.974733
v -0.115927 0.250511 1.974733
v 0.000000 0.317441 2.405000
v -0.011952 0.374810 2.022541
v -0.011952 0.374810 2.261578
v -0.011952 0.432179 2.189867
v 0.011952 0.374810 2.022541
v 0.011952 0.432179 2.189867
v 0.011952 0.374810 2.261578
v -0.011952 0.432179 2.070348
v 0.011952 0.432179 2.070348
v -0.043707 0.278406 2.022541
v -0.043707 0.278406 2.261578
v -0.093390 0.249722 2.189867
v -0.055659 0.299107 2.022541
v -0.105342 0.270423 2.189867
v -0.055659 0.299107 2.261578
v -0.093390 0.249722 2.070348
v -0.105342 0.270423 2.070348
v 0.055659 0.299107 2.022541
v 0.055659 0.299107 2.261578
v 0.105342 0.270423 2.189867
v 0.043707 0.278406 2.022541
v 0.093390 0.249722 2.189867
v 0.043707 0.278406 2.261578
v 0.105342 0.270423 2.070348
v 0.093390 0.249722 2.070348
vt 0.445312 0.828125
vt 0.517128 0.944135
vt 0.445312 0.992188
vt 0.546875 0.828125
vt 0.517128 0.712115
vt 0.445312 0.664062
vt 0.373497 0.712115
vt 0.343750 0.828125
vt 0.373497 0.944135
vt 0.617188 0.429688
vt 0.664062 0.429688
vt 0.617188 0.476562
vt 0.617188 0.382812
vt 0.570312 0.429688
vt 0.718750 0.382812
vt 0.765625 0.382812
vt 0.718750 0.476562
vt 0.765625 0.382812
vt 0.718750 0.382812
vt 0.718750 0.476562
vt 0.671875 0.382812
vt 0.671875 0.382812
vt 0.617188 0.429688
vt 0.664062 0.429688
vt 0.617188 0.476562
vt 0.617188 0.382812
vt 0.570312 0.429688
vt 0.765625 0.382812
vt 0.718750 0.382812
vt 0.718750 0.476562
vt 0.671875 0.382812
vt 0.617188 0.429688
vt 0.664062 0.429688
vt 0.617188 0.476562
vt 0.617188 0.382812
vt 0.570312 0.429688
vt 0.765625 0.382812
vt 0.718750 0.382812
vt 0.718750 0.476562
vt 0.671875 0.382812
vt 0.617188 0.429688
vt 0.664062 0.429688
vt 0.617188 0.476562
vt 0.617188 0.382812
vt 0.570312 0.429688
vt 0.718750 0.382812
vt 0.765625 0.382812
vt 0.718750 0.476562
vt 0.718750 0.382812
vt 0.671875 0.382812
vt 0.718750 0.476562
vt 0.671875 0.382812
vt 0.617188 0.429688
vt 0.664062 0.429688
vt 0.617188 0.476562
vt 0.617188 0.382812
vt 0.570312 0.429688
vt 0.765625 0.382812
vt 0.718750 0.382812
vt 0.718750 0.476562
vt 0.671875 0.382812
vt 0.617188 0.429688
vt 0.664062 0.429688
vt 0.617188 0.476562
vt 0.617188 0.382812
vt 0.570312 0.429688
vt 0.718750 0.382812
vt 0.765625 0.382812
vt 0.718750 0.476562
vt 0.765625 0.382812
vt 0.718750 0.382812
vt 0.718750 0.476562
vt 0.671875 0.382812
vt 0.671875 0.382812
vt 0.851562 0.210938
vt 0.945312 0.210938
vt 0.945312 0.273438
vt 0.851562 0.273438
vt 0.851562 0.210938
vt 0.851562 0.273438
vt 0.945312 0.273438
vt 0.945312 0.210938
vt 0.945312 0.210938
vt 0.851562 0.210938
vt 0.851562 0.273438
vt 0.945312 0.273438
vt 0.773438 0.140625
vt 0.835938 0.140625
vt 0.835938 0.187500
vt 0.773438 0.187500
vt 0.851562 0.210938
vt 0.945312 0.210938
vt 0.945312 0.273438
vt 0.851562 0.273438
vt 0.851562 0.210938
vt 0.851562 0.273438
vt 0.945312 0.273438
vt 0.945312 0.210938
vt 0.945312 0.210938
vt 0.851562 0.210938
vt 0.851562 0.273438
vt 0.945312 0.273438
vt 0.773438 0.140625
vt 0.835938 0.140625
vt 0.835938 0.187500
vt 0.773438 0.187500
vt 0.945312 0.210938
vt 0.851562 0.210938
vt 0.851562 0.273438
vt 0.945312 0.273438
vt 0.945312 0.273438
vt 0.945312 0.210938
vt 0.851562 0.210938
vt 0.851562 0.273438
vt 0.773438 0.140625
vt 0.835938 0.140625
vt 0.835938 0.187500
vt 0.773438 0.187500
vt 0.945312 0.210938
vt 0.851562 0.210938
vt 0.851562 0.273438
vt 0.945312 0.273438
vt 0.945312 0.210938
vt 0.851562 0.210938
vt 0.851562 0.273438
vt 0.945312 0.273438
vt 0.945312 0.273438
vt 0.945312 0.210938
vt 0.851562 0.210938
vt 0.851562 0.273438
vt 0.773438 0.140625
vt 0.835938 0.140625
vt 0.835938 0.187500
vt 0.773438 0.187500
vt 0.945312 0.210938
vt 0.851562 0.210938
vt 0.851562 0.273438
vt 0.945312 0.273438
vt 0.875000 0.382812
vt 0.968750 0.382812
vt 0.968750 0.476562
vt 0.875000 0.476562
vt 0.968750 0.382812
vt 0.875000 0.382812
vt 0.875000 0.476562
vt 0.968750 0.476562
vt 0.773438 0.476562
vt 0.867188 0.476562
vt 0.867188 0.382812
vt 0.773438 0.382812
vt 0.875000 0.382812
vt 0.968750 0.382812
vt 0.968750 0.476562
vt 0.875000 0.476562
vt 0.875000 0.382812
vt 0.968750 0.382812
vt 0.968750 0.476562
vt 0.875000 0.476562
vt 0.968750 0.382812
vt 0.875000 0.382812
vt 0.875000 0.476562
vt 0.968750 0.476562
vt 0.773438 0.476562
vt 0.867188 0.476562
vt 0.867188 0.382812
vt 0.773438 0.382812
vt 0.875000 0.382812
vt 0.968750 0.382812
vt 0.968750 0.476562
vt 0.875000 0.476562
vt 0.875000 0.382812
vt 0.968750 0.382812
vt 0.968750 0.476562
vt 0.875000 0.476562
vt 0.968750 0.382812
vt 0.875000 0.382812
vt 0.875000 0.476562
vt 0.968750 0.476562
vt 0.773438 0.476562
vt 0.867188 0.476562
vt 0.867188 0.382812
vt 0.773438 0.382812
vt 0.875000 0.382812
vt 0.968750 0.382812
vt 0.968750 0.476562
vt 0.875000 0.476562
vt 0.875000 0.382812
vt 0.968750 0.382812
vt 0.968750 0.476562
vt 0.875000 0.476562
vt 0.968750 0.382812
vt 0.875000 0.382812
vt 0.875000 0.476562
vt 0.968750 0.476562
vt 0.773438 0.476562
vt 0.867188 0.476562
vt 0.867188 0.382812
vt 0.773438 0.382812
vt 0.875000 0.382812
vt 0.968750 0.382812
vt 0.968750 0.476562
vt 0.875000 0.476562
vt 0.875000 0.382812
vt 0.968750 0.382812
vt 0.968750 0.476562
vt 0.875000 0.476562
vt 0.968750 0.382812
vt 0.875000 0.382812
vt 0.875000 0.476562
vt 0.968750 0.476562
vt 0.773438 0.476562
vt 0.867188 0.476562
vt 0.867188 0.382812
vt 0.773438 0.382812
vt 0.875000 0.382812
vt 0.968750 0.382812
vt 0.968750 0.476562
vt 0.875000 0.476562
vt 0.875000 0.382812
vt 0.968750 0.382812
vt 0.968750 0.476562
vt 0.875000 0.476562
vt 0.968750 0.382812
vt 0.875000 0.382812
vt 0.875000 0.476562
vt 0.968750 0.476562
vt 0.773438 0.476562
vt 0.867188 0.476562
vt 0.867188 0.382812
vt 0.773438 0.382812
vt 0.875000 0.382812
vt 0.968750 0.382812
vt 0.968750 0.476562
vt 0.875000 0.476562
vt 0.875000 0.382812
vt 0.968750 0.382812
vt 0.968750 0.476562
vt 0.875000 0.476562
vt 0.968750 0.382812
vt 0.875000 0.382812
vt 0.875000 0.476562
vt 0.968750 0.476562
vt 0.773438 0.476562
vt 0.867188 0.476562
vt 0.867188 0.382812
vt 0.773438 0.382812
vt 0.875000 0.382812
vt 0.968750 0.382812
vt 0.968750 0.476562
vt 0.875000 0.476562
vt 0.875000 0.382812
vt 0.968750 0.382812
vt 0.968750 0.476562
vt 0.875000 0.476562
vt 0.968750 0.382812
vt 0.875000 0.382812
vt 0.875000 0.476562
vt 0.968750 0.476562
vt 0.773438 0.476562
vt 0.867188 0.476562
vt 0.867188 0.382812
vt 0.773438 0.382812
vt 0.875000 0.382812
vt 0.968750 0.382812
vt 0.968750 0.476562
vt 0.875000 0.476562
vt 0.515625 0.117188
vt 0.547977 0.117188
vt 0.547072 0.132812
vt 0.515625 0.132812
vt 0.718750 0.272563
vt 0.750197 0.271528
vt 0.748387 0.269840
vt 0.718750 0.270815
vt 0.515625 0.132812
vt 0.545262 0.132812
vt 0.544358 0.117188
vt 0.515625 0.117188
vt 0.545262 0.101562
vt 0.515625 0.101562
vt 0.515625 0.101562
vt 0.547072 0.101562
vt 0.578125 0.117188
vt 0.576377 0.132812
vt 0.779502 0.268494
vt 0.776005 0.266980
vt 0.572880 0.132812
vt 0.571132 0.117188
vt 0.572880 0.101562
vt 0.576377 0.101562
vt 0.604013 0.117188
vt 0.601541 0.132812
vt 0.804666 0.263666
vt 0.799721 0.262430
vt 0.596596 0.132812
vt 0.594124 0.117188
vt 0.596596 0.101562
vt 0.601541 0.101562
vt 0.604013 0.117188
vt 0.578125 0.117188
vt 0.576377 0.132812
vt 0.601541 0.132812
vt 0.823975 0.257375
vt 0.817919 0.256501
vt 0.596596 0.132812
vt 0.572880 0.132812
vt 0.571132 0.117188
vt 0.594124 0.117188
vt 0.572880 0.101562
vt 0.596596 0.101562
vt 0.601541 0.101562
vt 0.576377 0.101562
vt 0.547977 0.117188
vt 0.547072 0.132812
vt 0.836113 0.250049
vt 0.829359 0.249597
vt 0.545262 0.132812
vt 0.544358 0.117188
vt 0.545262 0.101562
vt 0.547072 0.101562
vt 0.515625 0.117188
vt 0.515625 0.132812
vt 0.840253 0.242188
vt 0.833260 0.242188
vt 0.515625 0.101562
vt 0.483273 0.117188
vt 0.484178 0.132812
vt 0.836113 0.234326
vt 0.829359 0.234778
vt 0.485988 0.132812
vt 0.486892 0.117188
vt 0.485988 0.101562
vt 0.484178 0.101562
vt 0.453125 0.117188
vt 0.454873 0.132812
vt 0.823975 0.227000
vt 0.817919 0.227874
vt 0.458370 0.132812
vt 0.460118 0.117188
vt 0.458370 0.101562
vt 0.454873 0.101562
vt 0.427237 0.117188
vt 0.429709 0.132812
vt 0.804666 0.220709
vt 0.799721 0.221945
vt 0.434654 0.132812
vt 0.437126 0.117188
vt 0.434654 0.101562
vt 0.429709 0.101562
vt 0.604013 0.117188
vt 0.578125 0.117188
vt 0.576377 0.132812
vt 0.601541 0.132812
vt 0.779502 0.215881
vt 0.776005 0.217395
vt 0.596596 0.132812
vt 0.572880 0.132812
vt 0.571132 0.117188
vt 0.594124 0.117188
vt 0.572880 0.101562
vt 0.596596 0.101562
vt 0.601541 0.101562
vt 0.576377 0.101562
vt 0.547977 0.117188
vt 0.547072 0.132812
vt 0.750197 0.212847
vt 0.748387 0.214535
vt 0.545262 0.132812
vt 0.544358 0.117188
vt 0.545262 0.101562
vt 0.547072 0.101562
vt 0.718750 0.211812
vt 0.718750 0.213560
vt 0.483273 0.117188
vt 0.484178 0.132812
vt 0.687303 0.212847
vt 0.689113 0.214535
vt 0.485988 0.132812
vt 0.486892 0.117188
vt 0.485988 0.101562
vt 0.484178 0.101562
vt 0.453125 0.117188
vt 0.454873 0.132812
vt 0.657998 0.215881
vt 0.661495 0.217395
vt 0.458370 0.132812
vt 0.460118 0.117188
vt 0.458370 0.101562
vt 0.454873 0.101562
vt 0.427237 0.117188
vt 0.429709 0.132812
vt 0.632834 0.220709
vt 0.637779 0.221945
vt 0.434654 0.132812
vt 0.437126 0.117188
vt 0.434654 0.101562
vt 0.429709 0.101562
vt 0.613525 0.227000
vt 0.619581 0.227874
vt 0.601387 0.234326
vt 0.608141 0.234778
vt 0.597247 0.242188
vt 0.604240 0.242188
vt 0.601387 0.250049
vt 0.608141 0.249597
vt 0.613525 0.257375
vt 0.619581 0.256501
vt 0.632834 0.263666
vt 0.637779 0.262430
vt 0.427237 0.117188
vt 0.453125 0.117188
vt 0.454873 0.132812
vt 0.429709 0.132812
vt 0.657998 0.268494
vt 0.661495 0.266980
vt 0.434654 0.132812
vt 0.458370 0.132812
vt 0.460118 0.117188
vt 0.437126 0.117188
vt 0.458370 0.101562
vt 0.434654 0.101562
vt 0.429709 0.101562
vt 0.454873 0.101562
vt 0.483273 0.117188
vt 0.484178 0.132812
vt 0.687303 0.271528
vt 0.689113 0.269840
vt 0.485988 0.132812
vt 0.486892 0.117188
vt 0.485988 0.101562
vt 0.484178 0.101562
vt 0.671875 0.382812
vt 0.765625 0.382812
vt 0.765625 0.476562
vt 0.671875 0.476562
vt 0.765625 0.382812
vt 0.671875 0.382812
vt 0.671875 0.476562
vt 0.765625 0.476562
vt 0.570312 0.476562
vt 0.664062 0.476562
vt 0.664062 0.382812
vt 0.570312 0.382812
vt 0.671875 0.382812
vt 0.765625 0.382812
vt 0.765625 0.476562
vt 0.671875 0.476562
vt 0.671875 0.382812
vt 0.765625 0.382812
vt 0.765625 0.476562
vt 0.671875 0.476562
vt 0.765625 0.382812
vt 0.671875 0.382812
vt 0.671875 0.476562
vt 0.765625 0.476562
vt 0.570312 0.476562
vt 0.664062 0.476562
vt 0.664062 0.382812
vt 0.570312 0.382812
vt 0.671875 0.382812
vt 0.765625 0.382812
vt 0.765625 0.476562
vt 0.671875 0.476562
vt 0.671875 0.382812
vt 0.765625 0.382812
vt 0.765625 0.476562
vt 0.671875 0.476562
vt 0.765625 0.382812
vt 0.671875 0.382812
vt 0.671875 0.476562
vt 0.765625 0.476562
vt 0.570312 0.476562
vt 0.664062 0.476562
vt 0.664062 0.382812
vt 0.570312 0.382812
vt 0.671875 0.382812
vt 0.765625 0.382812
vt 0.765625 0.476562
vt 0.671875 0.476562
vt 0.671875 0.382812
vt 0.765625 0.382812
vt 0.765625 0.476562
vt 0.671875 0.476562
vt 0.765625 0.382812
vt 0.671875 0.382812
vt 0.671875 0.476562
vt 0.765625 0.476562
vt 0.570312 0.476562
vt 0.664062 0.476562
vt 0.664062 0.382812
vt 0.570312 0.382812
vt 0.671875 0.382812
vt 0.765625 0.382812
vt 0.765625 0.476562
vt 0.671875 0.476562
vt 0.671875 0.382812
vt 0.765625 0.382812
vt 0.765625 0.476562
vt 0.671875 0.476562
vt 0.765625 0.382812
vt 0.671875 0.382812
vt 0.671875 0.476562
vt 0.765625 0.476562
vt 0.570312 0.476562
vt 0.664062 0.476562
vt 0.664062 0.382812
vt 0.570312 0.382812
vt 0.671875 0.382812
vt 0.765625 0.382812
vt 0.765625 0.476562
vt 0.671875 0.476562
vt 0.671875 0.382812
vt 0.765625 0.382812
vt 0.765625 0.476562
vt 0.671875 0.476562
vt 0.765625 0.382812
vt 0.671875 0.382812
vt 0.671875 0.476562
vt 0.765625 0.476562
vt 0.570312 0.476562
vt 0.664062 0.476562
vt 0.664062 0.382812
vt 0.570312 0.382812
vt 0.671875 0.382812
vt 0.765625 0.382812
vt 0.765625 0.476562
vt 0.671875 0.476562
vt 0.539062 0.234375
vt 0.572208 0.206754
vt 0.539062 0.195312
vt 0.585938 0.234375
vt 0.572208 0.261996
vt 0.539062 0.273438
vt 0.505917 0.261996
vt 0.492188 0.234375
vt 0.505917 0.206754
vt 0.589844 0.664062
vt 0.614703 0.664062
vt 0.614703 0.992188
vt 0.589844 0.992188
vt 0.492188 0.308316
vt 0.492188 0.335938
vt 0.867188 0.335938
vt 0.867188 0.308316
vt 0.492188 0.363559
vt 0.867188 0.363559
vt 0.564985 0.664062
vt 0.564985 0.992188
vt 0.437500 0.195312
vt 0.470646 0.206754
vt 0.437500 0.234375
vt 0.484375 0.234375
vt 0.470646 0.261996
vt 0.437500 0.273438
vt 0.404354 0.261996
vt 0.390625 0.234375
vt 0.404354 0.206754
vt 0.054688 0.375000
vt 0.087833 0.361271
vt 0.078552 0.351990
vt 0.054688 0.361875
vt 0.101562 0.328125
vt 0.088437 0.328125
vt 0.087833 0.294979
vt 0.078552 0.304260
vt 0.054688 0.281250
vt 0.054688 0.294375
vt 0.021542 0.294979
vt 0.030823 0.304260
vt 0.007812 0.328125
vt 0.020938 0.328125
vt 0.021542 0.361271
vt 0.030823 0.351990
vt 0.054688 0.328125
vt 0.539062 0.234375
vt 0.572208 0.206754
vt 0.539062 0.195312
vt 0.585938 0.234375
vt 0.572208 0.261996
vt 0.539062 0.273438
vt 0.505917 0.261996
vt 0.492188 0.234375
vt 0.505917 0.206754
vt 0.589844 0.664062
vt 0.614703 0.664062
vt 0.614703 0.992188
vt 0.589844 0.992188
vt 0.492188 0.308316
vt 0.492188 0.335938
vt 0.867188 0.335938
vt 0.867188 0.308316
vt 0.492188 0.363559
vt 0.867188 0.363559
vt 0.564985 0.664062
vt 0.564985 0.992188
vt 0.437500 0.195312
vt 0.470646 0.206754
vt 0.437500 0.234375
vt 0.484375 0.234375
vt 0.470646 0.261996
vt 0.437500 0.273438
vt 0.404354 0.261996
vt 0.390625 0.234375
vt 0.404354 0.206754
vt 0.054687 0.375000
vt 0.087833 0.361271
vt 0.078552 0.351990
vt 0.054687 0.361875
vt 0.101562 0.328125
vt 0.088437 0.328125
vt 0.087833 0.294979
vt 0.078552 0.304260
vt 0.054687 0.281250
vt 0.054687 0.294375
vt 0.021542 0.294979
vt 0.030823 0.304260
vt 0.007812 0.328125
vt 0.020938 0.328125
vt 0.021542 0.361271
vt 0.030823 0.351990
vt 0.054687 0.328125
vt 0.187500 0.484375
vt 0.312500 0.484375
vt 0.312500 0.656250
vt 0.187500 0.656250
vt 0.312500 0.484375
vt 0.187500 0.484375
vt 0.187500 0.656250
vt 0.312500 0.656250
vt 0.320312 0.656250
vt 0.382812 0.656250
vt 0.382812 0.484375
vt 0.320312 0.484375
vt 0.187500 0.484375
vt 0.312500 0.484375
vt 0.312500 0.656250
vt 0.187500 0.656250
vt 0.187500 0.484375
vt 0.312500 0.484375
vt 0.312500 0.656250
vt 0.187500 0.656250
vt 0.312500 0.484375
vt 0.187500 0.484375
vt 0.187500 0.656250
vt 0.312500 0.656250
vt 0.320312 0.656250
vt 0.382812 0.656250
vt 0.382812 0.484375
vt 0.320312 0.484375
vt 0.187500 0.484375
vt 0.312500 0.484375
vt 0.312500 0.656250
vt 0.187500 0.656250
vt 0.101562 0.429688
vt 0.195312 0.406250
vt 0.101562 0.382812
vt 0.195312 0.453125
vt 0.101562 0.476562
vt 0.007813 0.453125
vt 0.007812 0.406250
vt 0.093750 0.484375
vt 0.179687 0.484375
vt 0.093750 0.656250
vt 0.007812 0.406250
vt 0.007812 0.453125
vt 0.195312 0.429688
vt 0.007813 0.484375
vt 0.671875 0.382812
vt 0.765625 0.382812
vt 0.737500 0.476562
vt 0.690625 0.476562
vt 0.570312 0.382812
vt 0.664062 0.382812
vt 0.664062 0.476562
vt 0.570312 0.476562
vt 0.664062 0.448438
vt 0.570312 0.448438
vt 0.664062 0.401562
vt 0.570312 0.401562
vt 0.671875 0.476562
vt 0.765625 0.476562
vt 0.765625 0.382812
vt 0.671875 0.382812
vt 0.664062 0.382812
vt 0.664062 0.476562
vt 0.588492 0.448438
vt 0.645883 0.382812
vt 0.570312 0.448438
vt 0.645883 0.476562
vt 0.588492 0.401562
vt 0.570312 0.401562
vt 0.671875 0.437265
vt 0.671875 0.476562
vt 0.765625 0.476562
vt 0.765625 0.437265
vt 0.737500 0.422110
vt 0.737500 0.382812
vt 0.690625 0.422110
vt 0.690625 0.382812
vt 0.690054 0.382812
vt 0.671875 0.422110
vt 0.747446 0.476562
vt 0.765625 0.437265
vt 0.588492 0.382812
vt 0.588492 0.476562
vt 0.664062 0.448438
vt 0.570312 0.382812
vt 0.645883 0.448438
vt 0.570312 0.476562
vt 0.664062 0.401562
vt 0.645883 0.401562
vt 0.671875 0.476562
vt 0.671875 0.437265
vt 0.765625 0.437265
vt 0.765625 0.476562
vt 0.737500 0.382812
vt 0.737500 0.422110
vt 0.690625 0.382812
vt 0.690625 0.422110
vt 0.765625 0.422110
vt 0.747446 0.382812
vt 0.671875 0.437265
vt 0.690054 0.476562
vn 0.164986 -0.983487 0.074381
vn 0.375224 -0.926480 0.029024
vn 0.375224 -0.926480 -0.029024
vn 0.164986 -0.983487 -0.074381
vn -0.164986 -0.983487 -0.074381
vn -0.375224 -0.926480 -0.029024
vn -0.375224 -0.926480 0.029024
vn -0.164986 -0.983487 0.074381
vn 0.164986 0.983487 0.074381
vn 0.375224 0.926480 0.029024
vn 0.375224 0.926480 -0.029024
vn 0.164986 0.983487 -0.074381
vn -0.164986 0.983487 -0.074381
vn -0.375224 0.926480 -0.029024
vn -0.375224 0.926480 0.029024
vn -0.164986 0.983487 0.074381
vn 0.000000 -1.000000 0.000000
vn 0.681799 0.265144 0.681799
vn 0.681799 0.265144 -0.681799
vn -0.681799 0.265144 -0.681799
vn -0.681799 0.265144 0.681799
vn 0.000000 -1.000000 0.000000
vn 0.681799 0.265144 0.681799
vn 0.681799 0.265144 -0.681799
vn -0.681799 0.265144 -0.681799
vn -0.681799 0.265144 0.681799
vn 0.000000 -1.000000 0.000000
vn 0.681799 0.265144 0.681799
vn 0.681799 0.265144 -0.681799
vn -0.681799 0.265144 -0.681799
vn -0.681799 0.265144 0.681799
vn 0.000000 -1.000000 0.000000
vn 0.681799 0.265144 0.681799
vn 0.681799 0.265144 -0.681799
vn -0.681799 0.265144 -0.681799
vn -0.681799 0.265144 0.681799
vn 0.000000 -1.000000 0.000000
vn 0.681799 0.265144 0.681799
vn 0.681799 0.265144 -0.681799
vn -0.681799 0.265144 -0.681799
vn -0.681799 0.265144 0.681799
vn 0.000000 -1.000000 0.000000
vn 0.681799 0.265144 0.681799
vn 0.681799 0.265144 -0.681799
vn -0.681799 0.265144 -0.681799
vn -0.681799 0.265144 0.681799
vn -1.000000 0.000000 0.000000
vn 1.000000 0.000000 0.000000
vn 0.000000 1.000000 0.000000
vn 0.000000 -1.000000 0.000000
vn 0.000000 0.000000 -1.000000
vn 0.000000 0.000000 1.000000
vn -1.000000 0.000000 0.000000
vn 1.000000 0.000000 0.000000
vn 0.000000 1.000000 0.000000
vn 0.000000 -1.000000 0.000000
vn 0.000000 0.000000 -1.000000
vn 0.000000 0.000000 1.000000
vn 1.000000 0.000000 0.000000
vn -1.000000 0.000000 0.000000
vn 0.000000 1.000000 0.000000
vn 0.000000 -1.000000 0.000000
vn 0.000000 0.000000 1.000000
vn 0.000000 0.000000 -1.000000
vn 1.000000 0.000000 0.000000
vn -1.000000 0.000000 0.000000
vn 0.000000 1.000000 0.000000
vn 0.000000 -1.000000 0.000000
vn 0.000000 0.000000 1.000000
vn 0.000000 0.000000 -1.000000
vn 0.000000 0.000000 1.000000
vn 0.000000 0.000000 -1.000000
vn -0.000000 1.000000 0.000000
vn 0.000000 -1.000000 0.000000
vn -1.000000 0.000000 0.000000
vn 1.000000 0.000000 0.000000
vn 0.000000 0.000000 1.000000
vn 0.000000 0.000000 -1.000000
vn -0.000000 1.000000 0.000000
vn 0.000000 -1.000000 0.000000
vn -1.000000 0.000000 0.000000
vn 1.000000 0.000000 0.000000
vn 0.000000 0.000000 1.000000
vn 0.000000 0.000000 -1.000000
vn -0.000000 1.000000 0.000000
vn 0.000000 -1.000000 0.000000
vn -1.000000 0.000000 0.000000
vn 1.000000 0.000000 0.000000
vn 0.000000 0.000000 1.000000
vn 0.000000 0.000000 -1.000000
vn -0.000000 1.000000 0.000000
vn 0.000000 -1.000000 0.000000
vn -1.000000 0.000000 0.000000
vn 1.000000 0.000000 0.000000
vn 0.000000 0.000000 1.000000
vn 0.000000 0.000000 -1.000000
vn -0.000000 1.000000 0.000000
vn 0.000000 -1.000000 0.000000
vn -1.000000 0.000000 0.000000
vn 1.000000 0.000000 0.000000
vn 0.000000 0.000000 1.000000
vn 0.000000 0.000000 -1.000000
vn -0.000000 1.000000 0.000000
vn 0.000000 -1.000000 0.000000
vn -1.000000 0.000000 0.000000
vn 1.000000 0.000000 0.000000
vn 0.000000 0.000000 1.000000
vn 0.000000 0.000000 -1.000000
vn -0.000000 1.000000 0.000000
vn 0.000000 -1.000000 0.000000
vn -1.000000 0.000000 0.000000
vn 1.000000 0.000000 0.000000
vn 0.000000 0.000000 1.000000
vn 0.000000 0.000000 -1.000000
vn -0.000000 1.000000 0.000000
vn 0.000000 -1.000000 0.000000
vn -1.000000 0.000000 0.000000
vn 1.000000 0.000000 0.000000
vn 0.113281 0.496782 0.860451
vn 0.000000 1.000000 0.000000
vn -0.113281 0.496782 -0.860451
vn -0.113281 -0.496782 -0.860451
vn -0.000000 -1.000000 -0.000000
vn 0.113281 -0.496782 0.860451
vn 0.332122 0.496782 0.801813
vn -0.332122 0.496782 -0.801813
vn -0.332122 -0.496782 -0.801813
vn 0.332122 -0.496782 0.801813
vn 0.528329 0.496782 0.688532
vn -0.528329 0.496782 -0.688532
vn -0.528329 -0.496782 -0.688532
vn 0.528329 -0.496782 0.688532
vn 0.688532 0.496782 0.528329
vn -0.688532 0.496782 -0.528329
vn -0.688532 -0.496782 -0.528329
vn 0.688532 -0.496782 0.528329
vn 0.801813 0.496782 0.332122
vn -0.801813 0.496782 -0.332122
vn -0.801813 -0.496782 -0.332122
vn 0.801813 -0.496782 0.332122
vn 0.860451 0.496782 0.113281
vn -0.860451 0.496782 -0.113281
vn -0.860451 -0.496782 -0.113281
vn 0.860451 -0.496782 0.113281
vn 0.860451 0.496782 -0.113281
vn -0.860451 0.496782 0.113281
vn -0.860451 -0.496782 0.113281
vn 0.860451 -0.496782 -0.113281
vn 0.801813 0.496782 -0.332122
vn -0.801813 0.496782 0.332122
vn -0.801813 -0.496782 0.332122
vn 0.801813 -0.496782 -0.332122
vn 0.688532 0.496782 -0.528329
vn -0.688532 0.496782 0.528329
vn -0.688532 -0.496782 0.528329
vn 0.688532 -0.496782 -0.528329
vn 0.528329 0.496782 -0.688532
vn -0.528329 0.496782 0.688532
vn -0.528329 -0.496782 0.688532
vn 0.528329 -0.496782 -0.688532
vn 0.332122 0.496782 -0.801813
vn -0.332122 0.496782 0.801813
vn -0.332122 -0.496782 0.801813
vn 0.332122 -0.496782 -0.801813
vn 0.113281 0.496782 -0.860451
vn -0.113281 0.496782 0.860451
vn -0.113281 -0.496782 0.860451
vn 0.113281 -0.496782 -0.860451
vn 0.000000 0.000000 1.000000
vn 0.000000 0.000000 -1.000000
vn -0.000000 1.000000 0.000000
vn 0.000000 -1.000000 0.000000
vn -1.000000 0.000000 0.000000
vn 1.000000 0.000000 0.000000
vn 0.000000 0.000000 1.000000
vn 0.000000 0.000000 -1.000000
vn -0.000000 1.000000 0.000000
vn 0.000000 -1.000000 0.000000
vn -1.000000 0.000000 0.000000
vn 1.000000 0.000000 0.000000
vn 0.000000 0.000000 1.000000
vn 0.000000 0.000000 -1.000000
vn -0.000000 1.000000 0.000000
vn 0.000000 -1.000000 0.000000
vn -1.000000 0.000000 0.000000
vn 1.000000 0.000000 0.000000
vn 0.000000 0.000000 1.000000
vn 0.000000 0.000000 -1.000000
vn -0.000000 1.000000 0.000000
vn 0.000000 -1.000000 0.000000
vn -1.000000 0.000000 0.000000
vn 1.000000 0.000000 0.000000
vn 0.000000 0.000000 1.000000
vn 0.000000 0.000000 -1.000000
vn -0.000000 1.000000 0.000000
vn 0.000000 -1.000000 0.000000
vn -1.000000 0.000000 0.000000
vn 1.000000 0.000000 0.000000
vn 0.000000 0.000000 1.000000
vn 0.000000 0.000000 -1.000000
vn -0.000000 1.000000 0.000000
vn 0.000000 -1.000000 0.000000
vn -1.000000 0.000000 0.000000
vn 1.000000 0.000000 0.000000
vn 0.000000 0.000000 -1.000000
vn 0.382683 -0.923880 0.000000
vn 0.923880 -0.382683 0.000000
vn 0.923880 0.382683 0.000000
vn 0.382683 0.923880 -0.000000
vn -0.382683 0.923880 -0.000000
vn -0.923880 0.382683 0.000000
vn -0.923880 -0.382683 0.000000
vn -0.382683 -0.923880 0.000000
vn 0.000000 0.000000 1.000000
vn 0.254750 0.615021 -0.746225
vn 0.615021 0.254750 -0.746225
vn 0.615021 -0.254750 -0.746225
vn 0.254750 -0.615021 -0.746225
vn -0.254750 -0.615021 -0.746225
vn -0.615021 -0.254750 -0.746225
vn -0.615021 0.254750 -0.746225
vn -0.254750 0.615021 -0.746225
vn 0.086231 0.208180 -0.974282
vn 0.208180 0.086231 -0.974282
vn 0.208180 -0.086231 -0.974282
vn 0.086231 -0.208180 -0.974282
vn -0.086231 -0.208180 -0.974282
vn -0.208180 -0.086231 -0.974282
vn -0.208180 0.086231 -0.974282
vn -0.086231 0.208180 -0.974282
vn 0.000000 0.000000 -1.000000
vn 0.382683 -0.923880 0.000000
vn 0.923880 -0.382683 0.000000
vn 0.923880 0.382683 0.000000
vn 0.382683 0.923880 -0.000000
vn -0.382683 0.923880 -0.000000
vn -0.923880 0.382683 0.000000
vn -0.923880 -0.382683 0.000000
vn -0.382683 -0.923880 0.000000
vn 0.000000 0.000000 1.000000
vn 0.254750 0.615021 -0.746225
vn 0.615021 0.254750 -0.746225
vn 0.615021 -0.254750 -0.746225
vn 0.254750 -0.615021 -0.746225
vn -0.254750 -0.615021 -0.746225
vn -0.615021 -0.254750 -0.746225
vn -0.615021 0.254750 -0.746225
vn -0.254750 0.615021 -0.746225
vn 0.086231 0.208180 -0.974282
vn 0.208180 0.086231 -0.974282
vn 0.208180 -0.086231 -0.974282
vn 0.086231 -0.208180 -0.974282
vn -0.086231 -0.208180 -0.974282
vn -0.208180 -0.086231 -0.974282
vn -0.208180 0.086231 -0.974282
vn -0.086231 0.208180 -0.974282
vn 0.000000 0.000000 1.000000
vn 0.000000 0.000000 -1.000000
vn -0.000000 1.000000 0.000000
vn 0.000000 -1.000000 0.000000
vn -1.000000 0.000000 0.000000
vn 1.000000 0.000000 0.000000
vn 0.000000 0.000000 1.000000
vn 0.000000 0.000000 -1.000000
vn -0.000000 1.000000 0.000000
vn 0.000000 -1.000000 0.000000
vn -1.000000 0.000000 0.000000
vn 1.000000 0.000000 0.000000
vn 0.000000 0.000000 -1.000000
vn 0.482784 -0.836206 0.260153
vn 0.965567 -0.000000 0.260153
vn 0.482784 0.836206 0.260153
vn -0.482784 0.836206 0.260153
vn -0.965567 0.000000 0.260153
vn -0.482784 -0.836206 0.260153
vn -1.000000 0.000000 0.000000
vn 1.000000 -0.000000 0.000000
vn 0.000000 -1.000000 0.000000
vn -0.000000 0.780869 0.624695
vn -0.000000 1.000000 0.000000
vn 0.000000 0.640184 -0.768221
vn 0.500000 -0.866025 0.000000
vn -0.500000 0.866025 0.000000
vn 0.866025 0.500000 0.000000
vn -0.676252 -0.390434 0.624695
vn -0.866025 -0.500000 0.000000
vn -0.554416 -0.320092 -0.768221
vn 0.500000 0.866025 -0.000000
vn -0.500000 -0.866025 0.000000
vn -0.866025 0.500000 0.000000
vn 0.676252 -0.390434 0.624695
vn 0.866025 -0.500000 0.000000
vn 0.554416 -0.320092 -0.768221
f 1/1/1 2/2/1 3/3/1
f 1/1/2 4/4/2 2/2/2
f 1/1/3 5/5/3 4/4/3
f 1/1/4 6/6/4 5/5/4
f 1/1/5 7/7/5 6/6/5
f 1/1/6 8/8/6 7/7/6
f 1/1/7 9/9/7 8/8/7
f 1/1/8 3/3/8 9/9/8
f 3/3/9 2/2/9 10/1/9
f 2/2/10 4/4/10 10/1/10
f 4/4/11 5/5/11 10/1/11
f 5/5/12 6/6/12 10/1/12
f 6/6/13 7/7/13 10/1/13
f 7/7/14 8/8/14 10/1/14
f 8/8/15 9/9/15 10/1/15
f 9/9/16 3/3/16 10/1/16
f 11/10/17 12/11/17 13/12/17
f 11/10/17 14/13/17 12/11/17
f 11/10/17 15/14/17 14/13/17
f 11/10/17 13/12/17 15/14/17
f 13/15/18 12/16/18 16/17/18
f 12/18/19 14/19/19 16/20/19
f 14/19/20 15/21/20 16/20/20
f 15/22/21 13/15/21 16/17/21
f 17/23/22 18/24/22 19/25/22
f 17/23/22 20/26/22 18/24/22
f 17/23/22 21/27/22 20/26/22
f 17/23/22 19/25/22 21/27/22
f 19/28/23 18/29/23 22/30/23
f 18/29/24 20/31/24 22/30/24
f 20/31/25 21/29/25 22/30/25
f 21/29/26 19/28/26 22/30/26
f 23/32/27 24/33/27 25/34/27
f 23/32/27 26/35/27 24/33/27
f 23/32/27 27/36/27 26/35/27
f 23/32/27 25/34/27 27/36/27
f 25/37/28 24/38/28 28/39/28
f 24/38/29 26/40/29 28/39/29
f 26/40/30 27/38/30 28/39/30
f 27/38/31 25/37/31 28/39/31
f 29/41/32 30/42/32 31/43/32
f 29/41/32 32/44/32 30/42/32
f 29/41/32 33/45/32 32/44/32
f 29/41/32 31/43/32 33/45/32
f 31/46/33 30/47/33 34/48/33
f 30/49/34 32/50/34 34/51/34
f 32/50/35 33/49/35 34/51/35
f 33/52/36 31/46/36 34/48/36
f 35/53/37 36/54/37 37/55/37
f 35/53/37 38/56/37 36/54/37
f 35/53/37 39/57/37 38/56/37
f 35/53/37 37/55/37 39/57/37
f 37/58/38 36/59/38 40/60/38
f 36/59/39 38/61/39 40/60/39
f 38/61/40 39/59/40 40/60/40
f 39/59/41 37/58/41 40/60/41
f 41/62/42 42/63/42 43/64/42
f 41/62/42 44/65/42 42/63/42
f 41/62/42 45/66/42 44/65/42
f 41/62/42 43/64/42 45/66/42
f 43/67/43 42/68/43 46/69/43
f 42/70/44 44/71/44 46/72/44
f 44/71/45 45/73/45 46/72/45
f 45/74/46 43/67/46 46/69/46
f 47/75/47 48/76/47 49/77/47
f 47/75/47 49/77/47 50/78/47
f 51/76/48 52/75/48 53/78/48
f 51/76/48 53/78/48 54/77/48
f 50/79/49 49/80/49 54/81/49
f 50/79/49 54/81/49 53/82/49
f 52/82/50 51/81/50 48/80/50
f 52/82/50 48/80/50 47/79/50
f 52/83/51 47/84/51 50/85/51
f 52/83/51 50/85/51 53/86/51
f 48/87/52 51/88/52 54/89/52
f 48/87/52 54/89/52 49/90/52
f 55/91/53 56/92/53 57/93/53
f 55/91/53 57/93/53 58/94/53
f 59/92/54 60/91/54 61/94/54
f 59/92/54 61/94/54 62/93/54
f 58/95/55 57/96/55 62/97/55
f 58/95/55 62/97/55 61/98/55
f 60/98/56 59/97/56 56/96/56
f 60/98/56 56/96/56 55/95/56
f 60/99/57 55/100/57 58/101/57
f 60/99/57 58/101/57 61/102/57
f 56/103/58 59/104/58 62/105/58
f 56/103/58 62/105/58 57/106/58
f 63/107/59 64/108/59 65/109/59
f 63/107/59 65/109/59 66/110/59
f 67/108/60 68/107/60 69/110/60
f 67/108/60 69/110/60 70/109/60
f 66/111/61 65/112/61 70/113/61
f 66/111/61 70/113/61 69/114/61
f 68/114/62 67/113/62 64/112/62
f 68/114/62 64/112/62 63/111/62
f 68/115/63 63/116/63 66/117/63
f 68/115/63 66/117/63 69/118/63
f 64/119/64 67/120/64 70/121/64
f 64/119/64 70/121/64 65/122/64
f 71/123/65 72/124/65 73/125/65
f 71/123/65 73/125/65 74/126/65
f 75/124/66 76/123/66 77/126/66
f 75/124/66 77/126/66 78/125/66
f 74/127/67 73/128/67 78/129/67
f 74/127/67 78/129/67 77/130/67
f 76/130/68 75/129/68 72/128/68
f 76/130/68 72/128/68 71/127/68
f 76/131/69 71/132/69 74/133/69
f 76/131/69 74/133/69 77/134/69
f 72/135/70 75/136/70 78/137/70
f 72/135/70 78/137/70 73/138/70
f 79/139/71 80/140/71 81/141/71
f 79/139/71 81/141/71 82/142/71
f 83/143/72 84/144/72 85/145/72
f 83/143/72 85/145/72 86/146/72
f 82/147/73 81/148/73 86/149/73
f 82/147/73 86/149/73 85/150/73
f 84/150/74 83/149/74 80/148/74
f 84/150/74 80/148/74 79/147/74
f 84/151/75 79/152/75 82/153/75
f 84/151/75 82/153/75 85/154/75
f 80/152/76 83/151/76 86/154/76
f 80/152/76 86/154/76 81/153/76
f 87/155/77 88/156/77 89/157/77
f 87/155/77 89/157/77 90/158/77
f 91/159/78 92/160/78 93/161/78
f 91/159/78 93/161/78 94/162/78
f 90/163/79 89/164/79 94/165/79
f 90/163/79 94/165/79 93/166/79
f 92/166/80 91/165/80 88/164/80
f 92/166/80 88/164/80 87/163/80
f 92/167/81 87/168/81 90/169/81
f 92/167/81 90/169/81 93/170/81
f 88/168/82 91/167/82 94/170/82
f 88/168/82 94/170/82 89/169/82
f 95/171/83 96/172/83 97/173/83
f 95/171/83 97/173/83 98/174/83
f 99/175/84 100/176/84 101/177/84
f 99/175/84 101/177/84 102/178/84
f 98/179/85 97/180/85 102/181/85
f 98/179/85 102/181/85 101/182/85
f 100/182/86 99/181/86 96/180/86
f 100/182/86 96/180/86 95/179/86
f 100/183/87 95/184/87 98/185/87
f 100/183/87 98/185/87 101/186/87
f 96/184/88 99/183/88 102/186/88
f 96/184/88 102/186/88 97/185/88
f 103/187/89 104/188/89 105/189/89
f 103/187/89 105/189/89 106/190/89
f 107/191/90 108/192/90 109/193/90
f 107/191/90 109/193/90 110/194/90
f 106/195/91 105/196/91 110/197/91
f 106/195/91 110/197/91 109/198/91
f 108/198/92 107/197/92 104/196/92
f 108/198/92 104/196/92 103/195/92
f 108/199/93 103/200/93 106/201/93
f 108/199/93 106/201/93 109/202/93
f 104/200/94 107/199/94 110/202/94
f 104/200/94 110/202/94 105/201/94
f 111/203/95 112/204/95 113/205/95
f 111/203/95 113/205/95 114/206/95
f 115/207/96 116/208/96 117/209/96
f 115/207/96 117/209/96 118/210/96
f 114/211/97 113/212/97 118/213/97
f 114/211/97 118/213/97 117/214/97
f 116/214/98 115/213/98 112/212/98
f 116/214/98 112/212/98 111/211/98
f 116/215/99 111/216/99 114/217/99
f 116/215/99 114/217/99 117/218/99
f 112/216/100 115/215/100 118/218/100
f 112/216/100 118/218/100 113/217/100
f 119/219/101 120/220/101 121/221/101
f 119/219/101 121/221/101 122/222/101
f 123/223/102 124/224/102 125/225/102
f 123/223/102 125/225/102 126/226/102
f 122/227/103 121/228/103 126/229/103
f 122/227/103 126/229/103 125/230/103
f 124/230/104 123/229/104 120/228/104
f 124/230/104 120/228/104 119/227/104
f 124/231/105 119/232/105 122/233/105
f 124/231/105 122/233/105 125/234/105
f 120/232/106 123/231/106 126/234/106
f 120/232/106 126/234/106 121/233/106
f 127/235/107 128/236/107 129/237/107
f 127/235/107 129/237/107 130/238/107
f 131/239/108 132/240/108 133/241/108
f 131/239/108 133/241/108 134/242/108
f 130/243/109 129/244/109 134/245/109
f 130/243/109 134/245/109 133/246/109
f 132/246/110 131/245/110 128/244/110
f 132/246/110 128/244/110 127/243/110
f 132/247/111 127/248/111 130/249/111
f 132/247/111 130/249/111 133/250/111
f 128/248/112 131/247/112 134/250/112
f 128/248/112 134/250/112 129/249/112
f 135/251/113 136/252/113 137/253/113
f 135/251/113 137/253/113 138/254/113
f 139/255/114 140/256/114 141/257/114
f 139/255/114 141/257/114 142/258/114
f 138/259/115 137/260/115 142/261/115
f 138/259/115 142/261/115 141/262/115
f 140/262/116 139/261/116 136/260/116
f 140/262/116 136/260/116 135/259/116
f 140/263/117 135/264/117 138/265/117
f 140/263/117 138/265/117 141/266/117
f 136/264/118 139/263/118 142/266/118
f 136/264/118 142/266/118 137/265/118
f 143/267/119 144/268/119 145/269/119
f 143/267/119 145/269/119 146/270/119
f 146/271/120 145/272/120 147/273/120
f 146/271/120 147/273/120 148/274/120
f 148/275/121 147/276/121 149/277/121
f 148/275/121 149/277/121 150/278/121
f 150/278/122 149/277/122 151/279/122
f 150/278/122 151/279/122 152/280/122
f 152/274/123 151/273/123 153/272/123
f 152/274/123 153/272/123 154/271/123
f 154/281/124 153/282/124 144/268/124
f 154/281/124 144/268/124 143/267/124
f 144/268/125 155/283/125 156/284/125
f 144/268/125 156/284/125 145/269/125
f 145/272/120 156/285/120 157/286/120
f 145/272/120 157/286/120 147/273/120
f 147/276/126 157/287/126 158/288/126
f 147/276/126 158/288/126 149/277/126
f 149/277/127 158/288/127 159/289/127
f 149/277/127 159/289/127 151/279/127
f 151/273/123 159/286/123 160/285/123
f 151/273/123 160/285/123 153/272/123
f 153/282/128 160/290/128 155/283/128
f 153/282/128 155/283/128 144/268/128
f 155/283/129 161/291/129 162/292/129
f 155/283/129 162/292/129 156/284/129
f 156/285/120 162/293/120 163/294/120
f 156/285/120 163/294/120 157/286/120
f 157/287/130 163/295/130 164/296/130
f 157/287/130 164/296/130 158/288/130
f 158/288/131 164/296/131 165/297/131
f 158/288/131 165/297/131 159/289/131
f 159/286/123 165/294/123 166/293/123
f 159/286/123 166/293/123 160/285/123
f 160/290/132 166/298/132 161/291/132
f 160/290/132 161/291/132 155/283/132
f 161/299/133 167/300/133 168/301/133
f 161/299/133 168/301/133 162/302/133
f 162/293/120 168/303/120 169/304/120
f 162/293/120 169/304/120 163/294/120
f 163/305/134 169/306/134 170/307/134
f 163/305/134 170/307/134 164/308/134
f 164/308/135 170/307/135 171/309/135
f 164/308/135 171/309/135 165/310/135
f 165/294/123 171/304/123 172/303/123
f 165/294/123 172/303/123 166/293/123
f 166/311/136 172/312/136 167/300/136
f 166/311/136 167/300/136 161/299/136
f 167/300/137 173/313/137 174/314/137
f 167/300/137 174/314/137 168/301/137
f 168/303/120 174/315/120 175/316/120
f 168/303/120 175/316/120 169/304/120
f 169/306/138 175/317/138 176/318/138
f 169/306/138 176/318/138 170/307/138
f 170/307/139 176/318/139 177/319/139
f 170/307/139 177/319/139 171/309/139
f 171/304/123 177/316/123 178/315/123
f 171/304/123 178/315/123 172/303/123
f 172/312/140 178/320/140 173/313/140
f 172/312/140 173/313/140 167/300/140
f 173/313/141 179/321/141 180/322/141
f 173/313/141 180/322/141 174/314/141
f 174/315/120 180/323/120 181/324/120
f 174/315/120 181/324/120 175/316/120
f 175/317/142 181/322/142 182/321/142
f 175/317/142 182/321/142 176/318/142
f 176/318/143 182/321/143 183/325/143
f 176/318/143 183/325/143 177/319/143
f 177/316/123 183/324/123 184/323/123
f 177/316/123 184/323/123 178/315/123
f 178/320/144 184/325/144 179/321/144
f 178/320/144 179/321/144 173/313/144
f 179/321/145 185/326/145 186/327/145
f 179/321/145 186/327/145 180/322/145
f 180/323/120 186/328/120 187/329/120
f 180/323/120 187/329/120 181/324/120
f 181/322/146 187/330/146 188/331/146
f 181/322/146 188/331/146 182/321/146
f 182/321/147 188/331/147 189/332/147
f 182/321/147 189/332/147 183/325/147
f 183/324/123 189/329/123 190/328/123
f 183/324/123 190/328/123 184/323/123
f 184/325/148 190/333/148 185/326/148
f 184/325/148 185/326/148 179/321/148
f 185/326/149 191/334/149 192/335/149
f 185/326/149 192/335/149 186/327/149
f 186/328/120 192/336/120 193/337/120
f 186/328/120 193/337/120 187/329/120
f 187/330/150 193/338/150 194/339/150
f 187/330/150 194/339/150 188/331/150
f 188/331/151 194/339/151 195/340/151
f 188/331/151 195/340/151 189/332/151
f 189/329/123 195/337/123 196/336/123
f 189/329/123 196/336/123 190/328/123
f 190/333/152 196/341/152 191/334/152
f 190/333/152 191/334/152 185/326/152
f 191/334/153 197/342/153 198/343/153
f 191/334/153 198/343/153 192/335/153
f 192/336/120 198/344/120 199/345/120
f 192/336/120 199/345/120 193/337/120
f 193/338/154 199/346/154 200/347/154
f 193/338/154 200/347/154 194/339/154
f 194/339/155 200/347/155 201/348/155
f 194/339/155 201/348/155 195/340/155
f 195/337/123 201/345/123 202/344/123
f 195/337/123 202/344/123 196/336/123
f 196/341/156 202/349/156 197/342/156
f 196/341/156 197/342/156 191/334/156
f 197/350/157 203/351/157 204/352/157
f 197/350/157 204/352/157 198/353/157
f 198/344/120 204/354/120 205/355/120
f 198/344/120 205/355/120 199/345/120
f 199/356/158 205/357/158 206/358/158
f 199/356/158 206/358/158 200/359/158
f 200/359/159 206/358/159 207/360/159
f 200/359/159 207/360/159 201/361/159
f 201/345/123 207/355/123 208/354/123
f 201/345/123 208/354/123 202/344/123
f 202/362/160 208/363/160 203/351/160
f 202/362/160 203/351/160 197/350/160
f 203/351/161 209/364/161 210/365/161
f 203/351/161 210/365/161 204/352/161
f 204/354/120 210/366/120 211/367/120
f 204/354/120 211/367/120 205/355/120
f 205/357/162 211/368/162 212/369/162
f 205/357/162 212/369/162 206/358/162
f 206/358/163 212/369/163 213/370/163
f 206/358/163 213/370/163 207/360/163
f 207/355/123 213/367/123 214/366/123
f 207/355/123 214/366/123 208/354/123
f 208/363/164 214/371/164 209/364/164
f 208/363/164 209/364/164 203/351/164
f 209/364/165 215/278/165 216/275/165
f 209/364/165 216/275/165 210/365/165
f 210/366/120 216/372/120 217/373/120
f 210/366/120 217/373/120 211/367/120
f 211/368/166 217/270/166 218/267/166
f 211/368/166 218/267/166 212/369/166
f 212/369/167 218/267/167 219/281/167
f 212/369/167 219/281/167 213/370/167
f 213/367/123 219/373/123 220/372/123
f 213/367/123 220/372/123 214/366/123
f 214/371/168 220/280/168 215/278/168
f 214/371/168 215/278/168 209/364/168
f 215/278/121 221/374/121 222/375/121
f 215/278/121 222/375/121 216/275/121
f 216/372/120 222/376/120 223/377/120
f 216/372/120 223/377/120 217/373/120
f 217/270/119 223/378/119 224/379/119
f 217/270/119 224/379/119 218/267/119
f 218/267/124 224/379/124 225/380/124
f 218/267/124 225/380/124 219/281/124
f 219/373/123 225/377/123 226/376/123
f 219/373/123 226/376/123 220/372/123
f 220/280/122 226/381/122 221/374/122
f 220/280/122 221/374/122 215/278/122
f 221/374/126 227/382/126 228/383/126
f 221/374/126 228/383/126 222/375/126
f 222/376/120 228/384/120 229/385/120
f 222/376/120 229/385/120 223/377/120
f 223/378/125 229/386/125 230/387/125
f 223/378/125 230/387/125 224/379/125
f 224/379/128 230/387/128 231/388/128
f 224/379/128 231/388/128 225/380/128
f 225/377/123 231/385/123 232/384/123
f 225/377/123 232/384/123 226/376/123
f 226/381/127 232/389/127 227/382/127
f 226/381/127 227/382/127 221/374/127
f 227/382/130 233/390/130 234/391/130
f 227/382/130 234/391/130 228/383/130
f 228/384/120 234/392/120 235/393/120
f 228/384/120 235/393/120 229/385/120
f 229/386/129 235/394/129 236/395/129
f 229/386/129 236/395/129 230/387/129
f 230/387/132 236/395/132 237/396/132
f 230/387/132 237/396/132 231/388/132
f 231/385/123 237/393/123 238/392/123
f 231/385/123 238/392/123 232/384/123
f 232/389/131 238/397/131 233/390/131
f 232/389/131 233/390/131 227/382/131
f 233/342/134 239/334/134 240/335/134
f 233/342/134 240/335/134 234/343/134
f 234/392/120 240/398/120 241/399/120
f 234/392/120 241/399/120 235/393/120
f 235/346/133 241/338/133 242/339/133
f 235/346/133 242/339/133 236/347/133
f 236/347/136 242/339/136 243/340/136
f 236/347/136 243/340/136 237/348/136
f 237/393/123 243/399/123 244/398/123
f 237/393/123 244/398/123 238/392/123
f 238/349/135 244/341/135 239/334/135
f 238/349/135 239/334/135 233/342/135
f 239/334/138 245/326/138 246/327/138
f 239/334/138 246/327/138 240/335/138
f 240/398/120 246/400/120 247/401/120
f 240/398/120 247/401/120 241/399/120
f 241/338/137 247/330/137 248/331/137
f 241/338/137 248/331/137 242/339/137
f 242/339/140 248/331/140 249/332/140
f 242/339/140 249/332/140 243/340/140
f 243/399/123 249/401/123 250/400/123
f 243/399/123 250/400/123 244/398/123
f 244/341/139 250/333/139 245/326/139
f 244/341/139 245/326/139 239/334/139
f 245/326/142 251/321/142 252/322/142
f 245/326/142 252/322/142 246/327/142
f 246/400/120 252/402/120 253/403/120
f 246/400/120 253/403/120 247/401/120
f 247/330/141 253/322/141 254/321/141
f 247/330/141 254/321/141 248/331/141
f 248/331/144 254/321/144 255/325/144
f 248/331/144 255/325/144 249/332/144
f 249/401/123 255/403/123 256/402/123
f 249/401/123 256/402/123 250/400/123
f 250/333/143 256/325/143 251/321/143
f 250/333/143 251/321/143 245/326/143
f 251/321/146 257/313/146 258/314/146
f 251/321/146 258/314/146 252/322/146
f 252/402/120 258/404/120 259/405/120
f 252/402/120 259/405/120 253/403/120
f 253/322/145 259/317/145 260/318/145
f 253/322/145 260/318/145 254/321/145
f 254/321/148 260/318/148 261/319/148
f 254/321/148 261/319/148 255/325/148
f 255/403/123 261/405/123 262/404/123
f 255/403/123 262/404/123 256/402/123
f 256/325/147 262/320/147 257/313/147
f 256/325/147 257/313/147 251/321/147
f 257/313/150 263/300/150 264/301/150
f 257/313/150 264/301/150 258/314/150
f 258/404/120 264/406/120 265/407/120
f 258/404/120 265/407/120 259/405/120
f 259/317/149 265/306/149 266/307/149
f 259/317/149 266/307/149 260/318/149
f 260/318/152 266/307/152 267/309/152
f 260/318/152 267/309/152 261/319/152
f 261/405/123 267/407/123 268/406/123
f 261/405/123 268/406/123 262/404/123
f 262/320/151 268/312/151 263/300/151
f 262/320/151 263/300/151 257/313/151
f 263/300/154 269/299/154 270/302/154
f 263/300/154 270/302/154 264/301/154
f 264/406/120 270/408/120 271/409/120
f 264/406/120 271/409/120 265/407/120
f 265/306/153 271/305/153 272/308/153
f 265/306/153 272/308/153 266/307/153
f 266/307/156 272/308/156 273/310/156
f 266/307/156 273/310/156 267/309/156
f 267/407/123 273/409/123 274/408/123
f 267/407/123 274/408/123 268/406/123
f 268/312/155 274/311/155 269/299/155
f 268/312/155 269/299/155 263/300/155
f 269/410/158 275/411/158 276/412/158
f 269/410/158 276/412/158 270/413/158
f 270/408/120 276/414/120 277/415/120
f 270/408/120 277/415/120 271/409/120
f 271/416/157 277/417/157 278/418/157
f 271/416/157 278/418/157 272/419/157
f 272/419/160 278/418/160 279/420/160
f 272/419/160 279/420/160 273/421/160
f 273/409/123 279/415/123 280/414/123
f 273/409/123 280/414/123 274/408/123
f 274/422/159 280/423/159 275/411/159
f 274/422/159 275/411/159 269/410/159
f 275/411/162 281/424/162 282/425/162
f 275/411/162 282/425/162 276/412/162
f 276/414/120 282/426/120 283/427/120
f 276/414/120 283/427/120 277/415/120
f 277/417/161 283/428/161 284/429/161
f 277/417/161 284/429/161 278/418/161
f 278/418/164 284/429/164 285/430/164
f 278/418/164 285/430/164 279/420/164
f 279/415/123 285/427/123 286/426/123
f 279/415/123 286/426/123 280/414/123
f 280/423/163 286/431/163 281/424/163
f 280/423/163 281/424/163 275/411/163
f 281/424/166 143/267/166 146/270/166
f 281/424/166 146/270/166 282/425/166
f 282/426/120 146/271/120 148/274/120
f 282/426/120 148/274/120 283/427/120
f 283/428/165 148/275/165 150/278/165
f 283/428/165 150/278/165 284/429/165
f 284/429/168 150/278/168 152/280/168
f 284/429/168 152/280/168 285/430/168
f 285/427/123 152/274/123 154/271/123
f 285/427/123 154/271/123 286/426/123
f 286/431/167 154/281/167 143/267/167
f 286/431/167 143/267/167 281/424/167
f 287/432/169 288/433/169 289/434/169
f 287/432/169 289/434/169 290/435/169
f 291/436/170 292/437/170 293/438/170
f 291/436/170 293/438/170 294/439/170
f 290/440/171 289/441/171 294/442/171
f 290/440/171 294/442/171 293/443/171
f 292/443/172 291/442/172 288/441/172
f 292/443/172 288/441/172 287/440/172
f 292/444/173 287/445/173 290/446/173
f 292/444/173 290/446/173 293/447/173
f 288/445/174 291/444/174 294/447/174
f 288/445/174 294/447/174 289/446/174
f 295/448/175 296/449/175 297/450/175
f 295/448/175 297/450/175 298/451/175
f 299/452/176 300/453/176 301/454/176
f 299/452/176 301/454/176 302/455/176
f 298/456/177 297/457/177 302/458/177
f 298/456/177 302/458/177 301/459/177
f 300/459/178 299/458/178 296/457/178
f 300/459/178 296/457/178 295/456/178
f 300/460/179 295/461/179 298/462/179
f 300/460/179 298/462/179 301/463/179
f 296/461/180 299/460/180 302/463/180
f 296/461/180 302/463/180 297/462/180
f 303/464/181 304/465/181 305/466/181
f 303/464/181 305/466/181 306/467/181
f 307/468/182 308/469/182 309/470/182
f 307/468/182 309/470/182 310/471/182
f 306/472/183 305/473/183 310/474/183
f 306/472/183 310/474/183 309/475/183
f 308/475/184 307/474/184 304/473/184
f 308/475/184 304/473/184 303/472/184
f 308/476/185 303/477/185 306/478/185
f 308/476/185 306/478/185 309/479/185
f 304/477/186 307/476/186 310/479/186
f 304/477/186 310/479/186 305/478/186
f 311/480/187 312/481/187 313/482/187
f 311/480/187 313/482/187 314/483/187
f 315/484/188 316/485/188 317/486/188
f 315/484/188 317/486/188 318/487/188
f 314/488/189 313/489/189 318/490/189
f 314/488/189 318/490/189 317/491/189
f 316/491/190 315/490/190 312/489/190
f 316/491/190 312/489/190 311/488/190
f 316/492/191 311/493/191 314/494/191
f 316/492/191 314/494/191 317/495/191
f 312/493/192 315/492/192 318/495/192
f 312/493/192 318/495/192 313/494/192
f 319/496/193 320/497/193 321/498/193
f 319/496/193 321/498/193 322/499/193
f 323/500/194 324/501/194 325/502/194
f 323/500/194 325/502/194 326/503/194
f 322/504/195 321/505/195 326/506/195
f 322/504/195 326/506/195 325/507/195
f 324/507/196 323/506/196 320/505/196
f 324/507/196 320/505/196 319/504/196
f 324/508/197 319/509/197 322/510/197
f 324/508/197 322/510/197 325/511/197
f 320/509/198 323/508/198 326/511/198
f 320/509/198 326/511/198 321/510/198
f 327/512/199 328/513/199 329/514/199
f 327/512/199 329/514/199 330/515/199
f 331/516/200 332/517/200 333/518/200
f 331/516/200 333/518/200 334/519/200
f 330/520/201 329/521/201 334/522/201
f 330/520/201 334/522/201 333/523/201
f 332/523/202 331/522/202 328/521/202
f 332/523/202 328/521/202 327/520/202
f 332/524/203 327/525/203 330/526/203
f 332/524/203 330/526/203 333/527/203
f 328/525/204 331/524/204 334/527/204
f 328/525/204 334/527/204 329/526/204
f 335/528/205 336/529/205 337/530/205
f 335/528/205 338/531/205 336/529/205
f 335/528/205 339/532/205 338/531/205
f 335/528/205 340/533/205 339/532/205
f 335/528/205 341/534/205 340/533/205
f 335/528/205 342/535/205 341/534/205
f 335/528/205 343/536/205 342/535/205
f 335/528/205 337/530/205 343/536/205
f 337/537/206 336/538/206 344/539/206
f 337/537/206 344/539/206 345/540/206
f 336/541/207 338/542/207 346/543/207
f 336/541/207 346/543/207 344/544/207
f 338/542/208 339/545/208 347/546/208
f 338/542/208 347/546/208 346/543/208
f 339/538/209 340/537/209 348/540/209
f 339/538/209 348/540/209 347/539/209
f 340/537/210 341/547/210 349/548/210
f 340/537/210 349/548/210 348/540/210
f 341/545/211 342/542/211 350/543/211
f 341/545/211 350/543/211 349/546/211
f 342/542/212 343/541/212 351/544/212
f 342/542/212 351/544/212 350/543/212
f 343/547/213 337/537/213 345/540/213
f 343/547/213 345/540/213 351/548/213
f 345/549/214 344/550/214 352/551/214
f 344/550/214 346/552/214 352/551/214
f 346/552/214 347/553/214 352/551/214
f 347/553/214 348/554/214 352/551/214
f 348/554/214 349/555/214 352/551/214
f 349/555/214 350/556/214 352/551/214
f 350/556/214 351/557/214 352/551/214
f 351/557/214 345/549/214 352/551/214
f 353/558/215 354/559/215 355/560/215
f 353/558/215 355/560/215 356/561/215
f 354/559/216 357/562/216 358/563/216
f 354/559/216 358/563/216 355/560/216
f 357/562/217 359/564/217 360/565/217
f 357/562/217 360/565/217 358/563/217
f 359/564/218 361/566/218 362/567/218
f 359/564/218 362/567/218 360/565/218
f 361/566/219 363/568/219 364/569/219
f 361/566/219 364/569/219 362/567/219
f 363/568/220 365/570/220 366/571/220
f 363/568/220 366/571/220 364/569/220
f 365/570/221 367/572/221 368/573/221
f 365/570/221 368/573/221 366/571/221
f 367/572/222 353/558/222 356/561/222
f 367/572/222 356/561/222 368/573/222
f 356/561/223 355/560/223 369/574/223
f 355/560/224 358/563/224 369/574/224
f 358/563/225 360/565/225 369/574/225
f 360/565/226 362/567/226 369/574/226
f 362/567/227 364/569/227 369/574/227
f 364/569/228 366/571/228 369/574/228
f 366/571/229 368/573/229 369/574/229
f 368/573/230 356/561/230 369/574/230
f 370/575/231 371/576/231 372/577/231
f 370/575/231 373/578/231 371/576/231
f 370/575/231 374/579/231 373/578/231
f 370/575/231 375/580/231 374/579/231
f 370/575/231 376/581/231 375/580/231
f 370/575/231 377/582/231 376/581/231
f 370/575/231 378/583/231 377/582/231
f 370/575/231 372/577/231 378/583/231
f 372/584/232 371/585/232 379/586/232
f 372/584/232 379/586/232 380/587/232
f 371/588/233 373/589/233 381/590/233
f 371/588/233 381/590/233 379/591/233
f 373/589/234 374/592/234 382/593/234
f 373/589/234 382/593/234 381/590/234
f 374/585/235 375/584/235 383/587/235
f 374/585/235 383/587/235 382/586/235
f 375/584/236 376/594/236 384/595/236
f 375/584/236 384/595/236 383/587/236
f 376/592/237 377/589/237 385/590/237
f 376/592/237 385/590/237 384/593/237
f 377/589/238 378/588/238 386/591/238
f 377/589/238 386/591/238 385/590/238
f 378/594/239 372/584/239 380/587/239
f 378/594/239 380/587/239 386/595/239
f 380/596/240 379/597/240 387/598/240
f 379/597/240 381/599/240 387/598/240
f 381/599/240 382/600/240 387/598/240
f 382/600/240 383/601/240 387/598/240
f 383/601/240 384/602/240 387/598/240
f 384/602/240 385/603/240 387/598/240
f 385/603/240 386/604/240 387/598/240
f 386/604/240 380/596/240 387/598/240
f 388/605/241 389/606/241 390/607/241
f 388/605/241 390/607/241 391/608/241
f 389/606/242 392/609/242 393/610/242
f 389/606/242 393/610/242 390/607/242
f 392/609/243 394/611/243 395/612/243
f 392/609/243 395/612/243 393/610/243
f 394/611/244 396/613/244 397/614/244
f 394/611/244 397/614/244 395/612/244
f 396/613/245 398/615/245 399/616/245
f 396/613/245 399/616/245 397/614/245
f 398/615/246 400/617/246 401/618/246
f 398/615/246 401/618/246 399/616/246
f 400/617/247 402/619/247 403/620/247
f 400/617/247 403/620/247 401/618/247
f 402/619/248 388/605/248 391/608/248
f 402/619/248 391/608/248 403/620/248
f 391/608/249 390/607/249 404/621/249
f 390/607/250 393/610/250 404/621/250
f 393/610/251 395/612/251 404/621/251
f 395/612/252 397/614/252 404/621/252
f 397/614/253 399/616/253 404/621/253
f 399/616/254 401/618/254 404/621/254
f 401/618/255 403/620/255 404/621/255
f 403/620/256 391/608/256 404/621/256
f 405/622/257 406/623/257 407/624/257
f 405/622/257 407/624/257 408/625/257
f 409/626/258 410/627/258 411/628/258
f 409/626/258 411/628/258 412/629/258
f 408/630/259 407/631/259 412/632/259
f 408/630/259 412/632/259 411/633/259
f 410/633/260 409/632/260 406/631/260
f 410/633/260 406/631/260 405/630/260
f 410/634/261 405/635/261 408/636/261
f 410/634/261 408/636/261 411/637/261
f 406/635/262 409/634/262 412/637/262
f 406/635/262 412/637/262 407/636/262
f 413/638/263 414/639/263 415/640/263
f 413/638/263 415/640/263 416/641/263
f 417/642/264 418/643/264 419/644/264
f 417/642/264 419/644/264 420/645/264
f 416/646/265 415/647/265 420/648/265
f 416/646/265 420/648/265 419/649/265
f 418/649/266 417/648/266 414/647/266
f 418/649/266 414/647/266 413/646/266
f 418/650/267 413/651/267 416/652/267
f 418/650/267 416/652/267 419/653/267
f 414/651/268 417/650/268 420/653/268
f 414/651/268 420/653/268 415/652/268
f 421/654/269 422/655/269 423/656/269
f 421/654/269 424/657/269 422/655/269
f 421/654/269 425/658/269 424/657/269
f 421/654/269 426/659/269 425/658/269
f 421/654/269 427/660/269 426/659/269
f 421/654/269 423/656/269 427/660/269
f 423/661/270 422/662/270 428/663/270
f 422/664/271 424/665/271 428/666/271
f 424/662/272 425/661/272 428/663/272
f 425/661/273 426/667/273 428/663/273
f 426/665/274 427/664/274 428/666/274
f 427/667/275 423/661/275 428/663/275
f 429/668/276 430/669/276 431/670/276
f 432/668/277 433/670/277 434/669/277
f 429/668/276 431/670/276 435/671/276
f 432/668/277 436/671/277 433/670/277
f 429/672/278 432/673/278 434/674/278
f 429/672/278 434/674/278 430/675/278
f 430/675/279 434/674/279 433/676/279
f 430/675/279 433/676/279 431/677/279
f 431/677/280 433/676/280 436/678/280
f 431/677/280 436/678/280 435/679/280
f 435/680/281 436/681/281 432/682/281
f 435/680/281 432/682/281 429/683/281
f 437/684/282 438/685/282 439/686/282
f 440/687/283 441/688/283 442/689/283
f 437/684/282 439/686/282 443/690/282
f 440/687/283 444/691/283 441/688/283
f 437/692/284 440/693/284 442/694/284
f 437/692/284 442/694/284 438/695/284
f 438/695/285 442/694/285 441/696/285
f 438/695/285 441/696/285 439/697/285
f 439/697/286 441/696/286 444/698/286
f 439/697/286 444/698/286 443/699/286
f 443/700/287 444/701/287 440/702/287
f 443/700/287 440/702/287 437/703/287
f 445/704/288 446/705/288 447/706/288
f 448/707/289 449/708/289 450/709/289
f 445/704/288 447/706/288 451/710/288
f 448/707/289 452/711/289 449/708/289
f 445/712/290 448/713/290 450/714/290
f 445/712/290 450/714/290 446/715/290
f 446/715/291 450/714/291 449/716/291
f 446/715/291 449/716/291 447/717/291
f 447/717/292 449/716/292 452/718/292
f 447/717/292 452/718/292 451/719/292
f 451/720/293 452/721/293 448/722/293
f 451/720/293 448/722/293 445/723/293
