# Vaelith battlecruiser, from tools/gen_fleet.py
# Generated by tools. Edit the generator script.
v -0.070758 0.218911 2.319549
v 0.070758 0.218911 2.319549
v 0.070758 0.304961 2.310915
v -0.070758 0.304961 2.310915
v 0.157240 0.009347 0.760279
v -0.157240 0.009347 0.760279
v -0.157240 0.200569 0.741093
v 0.157240 0.200569 0.741093
v 0.000000 0.208040 2.303081
v 0.030808 0.218000 2.302082
v 0.026680 0.226269 2.327590
v 0.000000 0.217644 2.328456
v 0.049848 0.244076 2.299465
v 0.043170 0.248851 2.325325
v 0.049848 0.276308 2.296231
v 0.043170 0.276765 2.322524
v 0.030808 0.302383 2.293615
v 0.026680 0.299347 2.320258
v 0.000000 0.312343 2.292616
v 0.000000 0.307973 2.319393
v -0.030808 0.302383 2.293615
v -0.026680 0.299347 2.320258
v -0.049848 0.276308 2.296231
v -0.043170 0.276765 2.322524
v -0.049848 0.244076 2.299465
v -0.043170 0.248851 2.325325
v -0.030808 0.218000 2.302082
v -0.026680 0.226269 2.327590
v 0.015404 0.243628 2.345130
v 0.000000 0.238648 2.345629
v 0.024924 0.256666 2.343821
v 0.024924 0.272781 2.342205
v 0.015404 0.285819 2.340896
v 0.000000 0.290799 2.340397
v -0.015404 0.285819 2.340896
v -0.024924 0.272781 2.342205
v -0.024924 0.256666 2.343821
v -0.015404 0.243628 2.345130
v 0.000000 0.265424 2.350000
v -0.270803 0.000000 1.345144
v 0.270803 0.000000 1.345144
v 0.270803 0.297009 1.345144
v -0.270803 0.297009 1.345144
v 0.270803 0.000000 -0.428175
v -0.270803 0.000000 -0.428175
v -0.270803 0.297009 -0.428175
v 0.270803 0.297009 -0.428175
v 0.000000 0.131033 0.248831
v 0.000000 0.131033 -0.192970
v 0.151450 0.131033 -0.200307
v 0.229469 0.131033 0.237714
v 0.229469 0.008736 0.237714
v 0.151450 0.008736 -0.200307
v 0.000000 0.008736 -0.192970
v 0.000000 0.008736 0.248831
v 0.300308 0.131033 -0.222193
v 0.455012 0.131033 0.204554
v 0.455012 0.008736 0.204554
v 0.300308 0.008736 -0.222193
v 0.444028 0.131033 -0.258252
v 0.672770 0.131033 0.149919
v 0.672770 0.008736 0.149919
v 0.444028 0.008736 -0.258252
v 0.580151 0.131033 -0.307869
v 0.879016 0.131033 0.074742
v 0.879016 0.008736 0.074742
v 0.580151 0.008736 -0.307869
v 0.706347 0.131033 -0.370193
v 1.070222 0.131033 -0.019689
v 1.070222 0.008736 -0.019689
v 0.706347 0.008736 -0.370193
v 0.820457 0.131033 -0.444160
v 1.243117 0.131033 -0.131759
v 1.243117 0.008736 -0.131759
v 0.820457 0.008736 -0.444160
v 0.920529 0.131033 -0.528502
v 1.394741 0.131033 -0.259551
v 1.394741 0.008736 -0.259551
v 0.920529 0.008736 -0.528502
v 1.004851 0.131033 -0.621777
v 1.522501 0.131033 -0.400877
v 1.522501 0.008736 -0.400877
v 1.004851 0.008736 -0.621777
v 1.071979 0.131033 -0.722390
v 1.624210 0.131033 -0.553320
v 1.624210 0.008736 -0.553320
v 1.071979 0.008736 -0.722390
v 1.120765 0.131033 -0.828618
v 1.698129 0.131033 -0.714271
v 1.698129 0.008736 -0.714271
v 1.120765 0.008736 -0.828618
v 1.150375 0.131033 -0.938643
v 1.742992 0.131033 -0.880977
v 1.742992 0.008736 -0.880977
v 1.150375 0.008736 -0.938643
v 1.160302 0.131033 -1.050585
v 1.758033 0.131033 -1.050585
v 1.758033 0.008736 -1.050585
v 1.160302 0.008736 -1.050585
v 1.150375 0.131033 -1.162526
v 1.742992 0.131033 -1.220192
v 1.742992 0.008736 -1.220192
v 1.150375 0.008736 -1.162526
v 1.120765 0.131033 -1.272551
v 1.698129 0.131033 -1.386898
v 1.698129 0.008736 -1.386898
v 1.120765 0.008736 -1.272551
v 1.071979 0.131033 -1.378779
v 1.624210 0.131033 -1.547849
v 1.624210 0.008736 -1.547849
v 1.071979 0.008736 -1.378779
v 1.004851 0.131033 -1.479392
v 1.522501 0.131033 -1.700292
v 1.522501 0.008736 -1.700292
v 1.004851 0.008736 -1.479392
v 0.920529 0.131033 -1.572667
v 1.394741 0.131033 -1.841619
v 1.394741 0.008736 -1.841619
v 0.920529 0.008736 -1.572667
v 0.820457 0.131033 -1.657009
v 1.243117 0.131033 -1.969410
v 1.243117 0.008736 -1.969410
v 0.820457 0.008736 -1.657009
v 0.706347 0.131033 -1.730976
v 1.070222 0.131033 -2.081480
v 1.070222 0.008736 -2.081480
v 0.706347 0.008736 -1.730976
v 0.580151 0.131033 -1.793300
v 0.879016 0.131033 -2.175911
v 0.879016 0.008736 -2.175911
v 0.580151 0.008736 -1.793300
v 0.444028 0.131033 -1.842917
v 0.672770 0.131033 -2.251088
v 0.672770 0.008736 -2.251088
v 0.444028 0.008736 -1.842917
v 0.300308 0.131033 -1.878976
v 0.455012 0.131033 -2.305723
v 0.455012 0.008736 -2.305723
v 0.300308 0.008736 -1.878976
v 0.151450 0.131033 -1.900862
v 0.229469 0.131033 -2.338883
v 0.229469 0.008736 -2.338883
v 0.151450 0.008736 -1.900862
v 0.000000 0.131033 -1.908199
v 0.000000 0.131033 -2.350000
v 0.000000 0.008736 -2.350000
v 0.000000 0.008736 -1.908199
v -0.151450 0.131033 -1.900862
v -0.229469 0.131033 -2.338883
v -0.229469 0.008736 -2.338883
v -0.151450 0.008736 -1.900862
v -0.300308 0.131033 -1.878976
v -0.455012 0.131033 -2.305723
v -0.455012 0.008736 -2.305723
v -0.300308 0.008736 -1.878976
v -0.444028 0.131033 -1.842917
v -0.672770 0.131033 -2.251088
v -0.672770 0.008736 -2.251088
v -0.444028 0.008736 -1.842917
v -0.580151 0.131033 -1.793300
v -0.879016 0.131033 -2.175911
v -0.879016 0.008736 -2.175911
v -0.580151 0.008736 -1.793300
v -0.706347 0.131033 -1.730976
v -1.070222 0.131033 -2.081480
v -1.070222 0.008736 -2.081480
v -0.706347 0.008736 -1.730976
v -0.820457 0.131033 -1.657009
v -1.243117 0.131033 -1.969410
v -1.243117 0.008736 -1.969410
v -0.820457 0.008736 -1.657009
v -0.920529 0.131033 -1.572667
v -1.394741 0.131033 -1.841619
v -1.394741 0.008736 -1.841619
v -0.920529 0.008736 -1.572667
v -1.004851 0.131033 -1.479392
v -1.522501 0.131033 -1.700292
v -1.522501 0.008736 -1.700292
v -1.004851 0.008736 -1.479392
v -1.071979 0.131033 -1.378779
v -1.624210 0.131033 -1.547849
v -1.624210 0.008736 -1.547849
v -1.071979 0.008736 -1.378779
v -1.120765 0.131033 -1.272551
v -1.698129 0.131033 -1.386898
v -1.698129 0.008736 -1.386898
v -1.120765 0.008736 -1.272551
v -1.150375 0.131033 -1.162526
v -1.742992 0.131033 -1.220192
v -1.742992 0.008736 -1.220192
v -1.150375 0.008736 -1.162526
v -1.160302 0.131033 -1.050585
v -1.758033 0.131033 -1.050585
v -1.758033 0.008736 -1.050585
v -1.160302 0.008736 -1.050585
v -1.150375 0.131033 -0.938643
v -1.742992 0.131033 -0.880977
v -1.742992 0.008736 -0.880977
v -1.150375 0.008736 -0.938643
v -1.120765 0.131033 -0.828618
v -1.698129 0.131033 -0.714271
v -1.698129 0.008736 -0.714271
v -1.120765 0.008736 -0.828618
v -1.071979 0.131033 -0.722390
v -1.624210 0.131033 -0.553320
v -1.624210 0.008736 -0.553320
v -1.071979 0.008736 -0.722390
v -1.004851 0.131033 -0.621777
v -1.522501 0.131033 -0.400877
v -1.522501 0.008736 -0.400877
v -1.004851 0.008736 -0.621777
v -0.920529 0.131033 -0.528502
v -1.394741 0.131033 -0.259551
v -1.394741 0.008736 -0.259551
v -0.920529 0.008736 -0.528502
v -0.820457 0.131033 -0.444160
v -1.243117 0.131033 -0.131759
v -1.243117 0.008736 -0.131759
v -0.820457 0.008736 -0.444160
v -0.706347 0.131033 -0.370193
v -1.070222 0.131033 -0.019689
v -1.070222 0.008736 -0.019689
v -0.706347 0.008736 -0.370193
v -0.580151 0.131033 -0.307869
v -0.879016 0.131033 0.074742
v -0.879016 0.008736 0.074742
v -0.580151 0.008736 -0.307869
v -0.444028 0.131033 -0.258252
v -0.672770 0.131033 0.149919
v -0.672770 0.008736 0.149919
v -0.444028 0.008736 -0.258252
v -0.300308 0.131033 -0.222193
v -0.455012 0.131033 0.204554
v -0.455012 0.008736 0.204554
v -0.300308 0.008736 -0.222193
v -0.151450 0.131033 -0.200307
v -0.229469 0.131033 0.237714
v -0.229469 0.008736 0.237714
v -0.151450 0.008736 -0.200307
v 1.154765 0.069885 -1.717288
v 1.132926 0.069885 -1.755115
v 1.154765 0.026207 -1.717288
v 1.154765 0.113562 -1.717288
v 1.176604 0.069885 -1.679462
v 1.533026 0.069885 -1.935678
v -1.154765 0.069885 -1.717288
v -1.176604 0.069885 -1.679462
v -1.154765 0.026207 -1.717288
v -1.154765 0.113562 -1.717288
v -1.132926 0.069885 -1.755115
v -1.533026 0.069885 -1.935678
v -1.079498 0.146758 -0.142086
v -0.856741 0.146758 -0.142086
v -0.856741 0.324963 -0.142086
v -1.079498 0.324963 -0.142086
v -0.873775 0.160385 -1.959083
v -1.062463 0.160385 -1.959083
v -1.062463 0.311336 -1.959083
v -0.873775 0.311336 -1.959083
v -1.000877 0.322342 -0.487315
v -0.935361 0.322342 -0.487315
v -0.935361 0.353790 -0.487315
v -1.000877 0.353790 -0.487315
v -0.935361 0.322342 -1.613854
v -1.000877 0.322342 -1.613854
v -1.000877 0.353790 -1.613854
v -0.935361 0.353790 -1.613854
v -1.040188 0.176895 -1.702083
v -0.896051 0.176895 -1.702083
v -0.896051 0.294825 -1.702083
v -1.040188 0.294825 -1.702083
v -0.896051 0.176895 -1.733531
v -1.040188 0.176895 -1.733531
v -1.040188 0.294825 -1.733531
v -0.896051 0.294825 -1.733531
v 0.856741 0.146758 -0.142086
v 1.079498 0.146758 -0.142086
v 1.079498 0.324963 -0.142086
v 0.856741 0.324963 -0.142086
v 1.062463 0.160385 -1.959083
v 0.873775 0.160385 -1.959083
v 0.873775 0.311336 -1.959083
v 1.062463 0.311336 -1.959083
v 0.935361 0.322342 -0.487315
v 1.000877 0.322342 -0.487315
v 1.000877 0.353790 -0.487315
v 0.935361 0.353790 -0.487315
v 1.000877 0.322342 -1.613854
v 0.935361 0.322342 -1.613854
v 0.935361 0.353790 -1.613854
v 1.000877 0.353790 -1.613854
v 0.896051 0.176895 -1.702083
v 1.040188 0.176895 -1.702083
v 1.040188 0.294825 -1.702083
v 0.896051 0.294825 -1.702083
v 1.040188 0.176895 -1.733531
v 0.896051 0.176895 -1.733531
v 0.896051 0.294825 -1.733531
v 1.040188 0.294825 -1.733531
v -0.968119 0.131033 -0.159557
v -0.906503 0.151054 -0.159557
v -0.914758 0.162416 -0.107143
v -0.968119 0.145078 -0.107143
v -0.868423 0.203467 -0.159557
v -0.881780 0.207807 -0.107143
v -0.868423 0.268254 -0.159557
v -0.881780 0.263914 -0.107143
v -0.906503 0.320667 -0.159557
v -0.914758 0.309305 -0.107143
v -0.968119 0.340687 -0.159557
v -0.968119 0.326643 -0.107143
v -1.029735 0.320667 -0.159557
v -1.021480 0.309305 -0.107143
v -1.067815 0.268254 -0.159557
v -1.054459 0.263914 -0.107143
v -1.067815 0.203467 -0.159557
v -1.054459 0.207807 -0.107143
v -1.029735 0.151054 -0.159557
v -1.021480 0.162416 -0.107143
v -0.937311 0.193457 -0.068774
v -0.968119 0.183447 -0.068774
v -0.918271 0.219664 -0.068774
v -0.918271 0.252057 -0.068774
v -0.937311 0.278264 -0.068774
v -0.968119 0.288274 -0.068774
v -0.998927 0.278264 -0.068774
v -1.017967 0.252057 -0.068774
v -1.017967 0.219664 -0.068774
v -0.998927 0.193457 -0.068774
v -0.968119 0.235860 -0.054730
v -1.335013 0.113562 -0.919551
v -1.038004 0.113562 -0.919551
v -1.038004 0.253331 -0.919551
v -1.335013 0.253331 -0.919551
v -1.038004 0.113562 -1.181618
v -1.335013 0.113562 -1.181618
v -1.335013 0.253331 -1.181618
v -1.038004 0.253331 -1.181618
v 0.968119 0.131033 -0.159557
v 1.029735 0.151054 -0.159557
v 1.021480 0.162416 -0.107143
v 0.968119 0.145078 -0.107143
v 1.067815 0.203467 -0.159557
v 1.054459 0.207807 -0.107143
v 1.067815 0.268254 -0.159557
v 1.054459 0.263914 -0.107143
v 1.029735 0.320667 -0.159557
v 1.021480 0.309305 -0.107143
v 0.968119 0.340687 -0.159557
v 0.968119 0.326643 -0.107143
v 0.906503 0.320667 -0.159557
v 0.914758 0.309305 -0.107143
v 0.868423 0.268254 -0.159557
v 0.881780 0.263914 -0.107143
v 0.868423 0.203467 -0.159557
v 0.881780 0.207807 -0.107143
v 0.906503 0.151054 -0.159557
v 0.914758 0.162416 -0.107143
v 0.998927 0.193457 -0.068774
v 0.968119 0.183447 -0.068774
v 1.017967 0.219664 -0.068774
v 1.017967 0.252057 -0.068774
v 0.998927 0.278264 -0.068774
v 0.968119 0.288274 -0.068774
v 0.937311 0.278264 -0.068774
v 0.918271 0.252057 -0.068774
v 0.918271 0.219664 -0.068774
v 0.937311 0.193457 -0.068774
v 0.968119 0.235860 -0.054730
v 1.038004 0.113562 -0.919551
v 1.335013 0.113562 -0.919551
v 1.335013 0.253331 -0.919551
v 1.038004 0.253331 -0.919551
v 1.335013 0.113562 -1.181618
v 1.038004 0.113562 -1.181618
v 1.038004 0.253331 -1.181618
v 1.335013 0.253331 -1.181618
vt 0.494531 0.449273
vt 0.536719 0.449273
vt 0.536719 0.476562
vt 0.494531 0.476562
vt 0.195312 0.382812
vt 0.007812 0.382812
vt 0.007812 0.443456
vt 0.195312 0.443456
vt 0.055078 0.655310
vt 0.132422 0.655310
vt 0.179688 0.484375
vt 0.007812 0.484375
vt 0.007812 0.486464
vt 0.179688 0.486464
vt 0.132422 0.656250
vt 0.055078 0.656250
vt 0.010092 0.382812
vt 0.195312 0.449273
vt 0.194287 0.476562
vt 0.007812 0.443456
vt 0.054688 0.298347
vt 0.083658 0.296715
vt 0.079777 0.338389
vt 0.054688 0.339803
vt 0.023277 0.290202
vt 0.019003 0.313640
vt 0.061250 0.317932
vt 0.064951 0.297635
vt 0.013719 0.342610
vt 0.056674 0.343021
vt 0.009445 0.366048
vt 0.052972 0.363319
vt 0.083658 0.282883
vt 0.054688 0.281250
vt 0.054688 0.324996
vt 0.079777 0.326410
vt 0.025717 0.282883
vt 0.029598 0.326410
vt 0.025717 0.296715
vt 0.029598 0.338389
vt 0.054688 0.289882
vt 0.079777 0.297635
vt 0.069173 0.313237
vt 0.054688 0.308761
vt 0.095282 0.317932
vt 0.078125 0.324955
vt 0.088827 0.339441
vt 0.091469 0.324955
vt 0.095282 0.343021
vt 0.079777 0.363319
vt 0.069173 0.351159
vt 0.078125 0.339441
vt 0.054688 0.359311
vt 0.069173 0.360127
vt 0.040202 0.360127
vt 0.029598 0.363319
vt 0.014093 0.343021
vt 0.031250 0.339441
vt 0.040202 0.351159
vt 0.014093 0.317932
vt 0.029598 0.297635
vt 0.040202 0.313237
vt 0.031250 0.324955
vt 0.054688 0.332828
vt 0.054688 0.355636
vt 0.203125 0.382812
vt 0.328125 0.382812
vt 0.328125 0.476562
vt 0.203125 0.476562
vt 0.460938 0.382812
vt 0.335938 0.382812
vt 0.335938 0.476562
vt 0.460938 0.476562
vt 0.343750 0.992188
vt 0.546875 0.992188
vt 0.546875 0.664062
vt 0.343750 0.664062
vt 0.109375 0.296875
vt 0.484375 0.296875
vt 0.484375 0.375000
vt 0.109375 0.375000
vt 0.718750 0.273438
vt 0.718750 0.262813
vt 0.729518 0.262636
vt 0.735066 0.273170
vt 0.531941 0.132812
vt 0.515625 0.132812
vt 0.515625 0.101562
vt 0.531941 0.101562
vt 0.515625 0.132812
vt 0.526393 0.132812
vt 0.526393 0.101562
vt 0.515625 0.101562
vt 0.740103 0.262110
vt 0.751102 0.272373
vt 0.547977 0.132812
vt 0.547977 0.101562
vt 0.536978 0.132812
vt 0.536978 0.101562
vt 0.750321 0.261243
vt 0.766585 0.271059
vt 0.563460 0.132812
vt 0.563460 0.101562
vt 0.547196 0.132812
vt 0.547196 0.101562
vt 0.760000 0.260049
vt 0.781250 0.269251
vt 0.578125 0.132812
vt 0.578125 0.101562
vt 0.556875 0.132812
vt 0.556875 0.101562
vt 0.768973 0.258550
vt 0.794845 0.266980
vt 0.591720 0.132812
vt 0.591720 0.101562
vt 0.565848 0.132812
vt 0.565848 0.101562
vt 0.777086 0.256772
vt 0.807138 0.264285
vt 0.604013 0.132812
vt 0.604013 0.101562
vt 0.573961 0.132812
vt 0.573961 0.101562
vt 0.784202 0.254743
vt 0.817919 0.261211
vt 0.614794 0.132812
vt 0.614794 0.101562
vt 0.581077 0.132812
vt 0.581077 0.101562
vt 0.790197 0.252500
vt 0.827003 0.257812
vt 0.578125 0.132812
vt 0.591720 0.132812
vt 0.591720 0.101562
vt 0.578125 0.101562
vt 0.565848 0.132812
vt 0.556875 0.132812
vt 0.556875 0.101562
vt 0.565848 0.101562
vt 0.794970 0.250080
vt 0.834235 0.254146
vt 0.563460 0.132812
vt 0.563460 0.101562
vt 0.547196 0.132812
vt 0.547196 0.101562
vt 0.798439 0.247526
vt 0.839491 0.250276
vt 0.547977 0.132812
vt 0.547977 0.101562
vt 0.536978 0.132812
vt 0.536978 0.101562
vt 0.800544 0.244880
vt 0.842681 0.246266
vt 0.531941 0.132812
vt 0.531941 0.101562
vt 0.526393 0.132812
vt 0.526393 0.101562
vt 0.801250 0.242188
vt 0.843750 0.242188
vt 0.515625 0.132812
vt 0.515625 0.101562
vt 0.800544 0.239495
vt 0.842681 0.238109
vt 0.499309 0.132812
vt 0.499309 0.101562
vt 0.504857 0.132812
vt 0.504857 0.101562
vt 0.798439 0.236849
vt 0.839491 0.234099
vt 0.483273 0.132812
vt 0.483273 0.101562
vt 0.494272 0.132812
vt 0.494272 0.101562
vt 0.794970 0.234295
vt 0.834235 0.230229
vt 0.467790 0.132812
vt 0.467790 0.101562
vt 0.484054 0.132812
vt 0.484054 0.101562
vt 0.790197 0.231875
vt 0.827003 0.226562
vt 0.453125 0.132812
vt 0.453125 0.101562
vt 0.474375 0.132812
vt 0.474375 0.101562
vt 0.784202 0.229632
vt 0.817919 0.223164
vt 0.439530 0.132812
vt 0.439530 0.101562
vt 0.465402 0.132812
vt 0.465402 0.101562
vt 0.777086 0.227603
vt 0.807138 0.220090
vt 0.604013 0.132812
vt 0.614794 0.132812
vt 0.614794 0.101562
vt 0.604013 0.101562
vt 0.581077 0.132812
vt 0.573961 0.132812
vt 0.573961 0.101562
vt 0.581077 0.101562
vt 0.768973 0.225825
vt 0.794845 0.217395
vt 0.591720 0.132812
vt 0.591720 0.101562
vt 0.565848 0.132812
vt 0.565848 0.101562
vt 0.760000 0.224326
vt 0.781250 0.215124
vt 0.578125 0.132812
vt 0.578125 0.101562
vt 0.556875 0.132812
vt 0.556875 0.101562
vt 0.750321 0.223132
vt 0.766585 0.213316
vt 0.563460 0.132812
vt 0.563460 0.101562
vt 0.547196 0.132812
vt 0.547196 0.101562
vt 0.740103 0.222265
vt 0.751102 0.212002
vt 0.547977 0.132812
vt 0.547977 0.101562
vt 0.536978 0.132812
vt 0.536978 0.101562
vt 0.729518 0.221739
vt 0.735066 0.211205
vt 0.531941 0.132812
vt 0.531941 0.101562
vt 0.526393 0.132812
vt 0.526393 0.101562
vt 0.718750 0.221562
vt 0.718750 0.210938
vt 0.707982 0.221739
vt 0.702434 0.211205
vt 0.499309 0.132812
vt 0.499309 0.101562
vt 0.504857 0.132812
vt 0.504857 0.101562
vt 0.697397 0.222265
vt 0.686398 0.212002
vt 0.483273 0.132812
vt 0.483273 0.101562
vt 0.494272 0.132812
vt 0.494272 0.101562
vt 0.687179 0.223132
vt 0.670915 0.213316
vt 0.467790 0.132812
vt 0.467790 0.101562
vt 0.484054 0.132812
vt 0.484054 0.101562
vt 0.677500 0.224326
vt 0.656250 0.215124
vt 0.453125 0.132812
vt 0.453125 0.101562
vt 0.474375 0.132812
vt 0.474375 0.101562
vt 0.668527 0.225825
vt 0.642655 0.217395
vt 0.439530 0.132812
vt 0.439530 0.101562
vt 0.465402 0.132812
vt 0.465402 0.101562
vt 0.660414 0.227603
vt 0.630362 0.220090
vt 0.427237 0.132812
vt 0.427237 0.101562
vt 0.457289 0.132812
vt 0.457289 0.101562
vt 0.653298 0.229632
vt 0.619581 0.223164
vt 0.416456 0.132812
vt 0.416456 0.101562
vt 0.450173 0.132812
vt 0.450173 0.101562
vt 0.647303 0.231875
vt 0.610497 0.226562
vt 0.642530 0.234295
vt 0.603265 0.230229
vt 0.639061 0.236849
vt 0.598009 0.234099
vt 0.636956 0.239495
vt 0.594819 0.238109
vt 0.636250 0.242188
vt 0.593750 0.242188
vt 0.636956 0.244880
vt 0.594819 0.246266
vt 0.639061 0.247526
vt 0.598009 0.250276
vt 0.642530 0.250080
vt 0.603265 0.254146
vt 0.647303 0.252500
vt 0.610497 0.257812
vt 0.653298 0.254743
vt 0.619581 0.261211
vt 0.660414 0.256772
vt 0.630362 0.264285
vt 0.427237 0.132812
vt 0.416456 0.132812
vt 0.416456 0.101562
vt 0.427237 0.101562
vt 0.450173 0.132812
vt 0.457289 0.132812
vt 0.457289 0.101562
vt 0.450173 0.101562
vt 0.668527 0.258550
vt 0.642655 0.266980
vt 0.439530 0.132812
vt 0.439530 0.101562
vt 0.465402 0.132812
vt 0.465402 0.101562
vt 0.677500 0.260049
vt 0.656250 0.269251
vt 0.453125 0.132812
vt 0.453125 0.101562
vt 0.474375 0.132812
vt 0.474375 0.101562
vt 0.687179 0.261243
vt 0.670915 0.271059
vt 0.467790 0.132812
vt 0.467790 0.101562
vt 0.484054 0.132812
vt 0.484054 0.101562
vt 0.697397 0.262110
vt 0.686398 0.272373
vt 0.483273 0.132812
vt 0.483273 0.101562
vt 0.494272 0.132812
vt 0.494272 0.101562
vt 0.707982 0.262636
vt 0.702434 0.273170
vt 0.499309 0.132812
vt 0.499309 0.101562
vt 0.504857 0.132812
vt 0.504857 0.101562
vt 0.751784 0.429688
vt 0.737944 0.429688
vt 0.751784 0.382812
vt 0.751784 0.476562
vt 0.765625 0.429688
vt 0.575430 0.462722
vt 0.570312 0.448881
vt 0.664062 0.382812
vt 0.580547 0.476562
vt 0.751784 0.429688
vt 0.765625 0.429688
vt 0.751784 0.382812
vt 0.751784 0.476562
vt 0.737944 0.429688
vt 0.658945 0.462722
vt 0.653828 0.476562
vt 0.570312 0.382812
vt 0.664062 0.448881
vt 0.390625 0.195312
vt 0.484375 0.195312
vt 0.484375 0.262559
vt 0.390625 0.262559
vt 0.578768 0.200455
vt 0.499357 0.200455
vt 0.499357 0.257417
vt 0.578768 0.257417
vt 0.554688 0.992188
vt 0.625000 0.992188
vt 0.619623 0.664062
vt 0.560064 0.664062
vt 0.492188 0.302017
vt 0.867188 0.296875
vt 0.867188 0.364122
vt 0.492188 0.358979
vt 0.382812 0.195312
vt 0.354136 0.200455
vt 0.354136 0.257417
vt 0.382812 0.262559
vt 0.423713 0.261570
vt 0.451287 0.261570
vt 0.451287 0.273438
vt 0.423713 0.273438
vt 0.552849 0.261570
vt 0.525276 0.261570
vt 0.525276 0.273438
vt 0.552849 0.273438
vt 0.579504 0.929844
vt 0.600184 0.929844
vt 0.600184 0.726406
vt 0.579504 0.726406
vt 0.563438 0.363133
vt 0.795937 0.363133
vt 0.795937 0.375000
vt 0.563438 0.375000
vt 0.250460 0.261570
vt 0.250460 0.273438
vt 0.407169 0.206685
vt 0.467831 0.206685
vt 0.467831 0.251187
vt 0.407169 0.251187
vt 0.569393 0.206685
vt 0.508732 0.206685
vt 0.508732 0.251187
vt 0.569393 0.251187
vt 0.567096 0.710473
vt 0.612592 0.710473
vt 0.612592 0.704794
vt 0.567096 0.704794
vt 0.538738 0.308248
vt 0.545228 0.308248
vt 0.545228 0.352749
vt 0.538738 0.352749
vt 0.316636 0.206685
vt 0.316636 0.251187
vt 0.390625 0.195312
vt 0.484375 0.195312
vt 0.484375 0.262559
vt 0.390625 0.262559
vt 0.578768 0.200455
vt 0.499357 0.200455
vt 0.499357 0.257417
vt 0.578768 0.257417
vt 0.554688 0.992188
vt 0.625000 0.992188
vt 0.619623 0.664062
vt 0.560064 0.664062
vt 0.036489 0.200455
vt 0.007812 0.195312
vt 0.007812 0.262559
vt 0.036489 0.257417
vt 0.867188 0.296875
vt 0.492188 0.302017
vt 0.492188 0.358979
vt 0.867188 0.364122
vt 0.423713 0.261570
vt 0.451287 0.261570
vt 0.451287 0.273438
vt 0.423713 0.273438
vt 0.552849 0.261570
vt 0.525276 0.261570
vt 0.525276 0.273438
vt 0.552849 0.273438
vt 0.579504 0.929844
vt 0.600184 0.929844
vt 0.600184 0.726406
vt 0.579504 0.726406
vt 0.140165 0.261570
vt 0.140165 0.273438
vt 0.795937 0.363133
vt 0.563438 0.363133
vt 0.563438 0.375000
vt 0.795937 0.375000
vt 0.407169 0.206685
vt 0.467831 0.206685
vt 0.467831 0.251187
vt 0.407169 0.251187
vt 0.569393 0.206685
vt 0.508732 0.206685
vt 0.508732 0.251187
vt 0.569393 0.251187
vt 0.567096 0.710473
vt 0.612592 0.710473
vt 0.612592 0.704794
vt 0.567096 0.704794
vt 0.073989 0.206685
vt 0.073989 0.251187
vt 0.545228 0.308248
vt 0.538738 0.308248
vt 0.538738 0.352749
vt 0.545228 0.352749
vt 0.054687 0.281250
vt 0.083658 0.281250
vt 0.079777 0.328125
vt 0.054687 0.328125
vt 0.007812 0.290202
vt 0.007812 0.313640
vt 0.054688 0.315580
vt 0.054688 0.295283
vt 0.007812 0.342610
vt 0.054688 0.340670
vt 0.007812 0.366048
vt 0.054688 0.360967
vt 0.025717 0.281250
vt 0.029598 0.328125
vt 0.054687 0.287530
vt 0.079777 0.295283
vt 0.069173 0.309164
vt 0.054687 0.304688
vt 0.095282 0.315580
vt 0.078125 0.320882
vt 0.089002 0.335368
vt 0.089002 0.320882
vt 0.095282 0.340670
vt 0.079777 0.360967
vt 0.069173 0.347086
vt 0.078125 0.335368
vt 0.054687 0.368720
vt 0.054687 0.351562
vt 0.029598 0.360967
vt 0.040202 0.347086
vt 0.014093 0.340670
vt 0.031250 0.335368
vt 0.014093 0.315580
vt 0.029598 0.295283
vt 0.040202 0.309164
vt 0.031250 0.320882
vt 0.054687 0.328125
vt 0.187500 0.484375
vt 0.312500 0.484375
vt 0.312500 0.656250
vt 0.187500 0.656250
vt 0.312500 0.484375
vt 0.187500 0.484375
vt 0.187500 0.656250
vt 0.312500 0.656250
vt 0.320312 0.656250
vt 0.382812 0.656250
vt 0.382812 0.484375
vt 0.320312 0.484375
vt 0.187500 0.484375
vt 0.312500 0.484375
vt 0.312500 0.656250
vt 0.187500 0.656250
vt 0.054688 0.281250
vt 0.083658 0.281250
vt 0.079777 0.328125
vt 0.054688 0.328125
vt 0.007812 0.290202
vt 0.007812 0.313640
vt 0.054688 0.315580
vt 0.054688 0.295283
vt 0.007812 0.342610
vt 0.054688 0.340670
vt 0.007812 0.366048
vt 0.054688 0.360967
vt 0.025717 0.281250
vt 0.029598 0.328125
vt 0.054688 0.287530
vt 0.079777 0.295283
vt 0.069173 0.309164
vt 0.054688 0.304688
vt 0.095282 0.315580
vt 0.078125 0.320882
vt 0.089002 0.335368
vt 0.089002 0.320882
vt 0.095282 0.340670
vt 0.079777 0.360967
vt 0.069173 0.347086
vt 0.078125 0.335368
vt 0.054688 0.368720
vt 0.054688 0.351562
vt 0.029598 0.360967
vt 0.040202 0.347086
vt 0.014093 0.340670
vt 0.031250 0.335368
vt 0.014093 0.315580
vt 0.029598 0.295283
vt 0.040202 0.309164
vt 0.031250 0.320882
vt 0.054688 0.328125
vt 0.187500 0.484375
vt 0.312500 0.484375
vt 0.312500 0.656250
vt 0.187500 0.656250
vt 0.312500 0.484375
vt 0.187500 0.484375
vt 0.187500 0.656250
vt 0.312500 0.656250
vt 0.320312 0.656250
vt 0.382812 0.656250
vt 0.382812 0.484375
vt 0.320312 0.484375
vt 0.187500 0.484375
vt 0.312500 0.484375
vt 0.312500 0.656250
vt 0.187500 0.656250
vn -0.000000 0.099833 0.995004
vn -0.000000 -0.099833 -0.995004
vn 0.000000 0.997796 -0.066353
vn 0.000000 -0.991089 0.133201
vn -0.998491 0.005483 0.054643
vn 0.998491 0.005483 0.054643
vn 0.299447 -0.892345 0.337716
vn 0.783962 -0.542083 0.302572
vn 0.969030 0.024653 0.245709
vn 0.783962 0.591389 0.188846
vn 0.299447 0.941651 0.153702
vn -0.299447 0.941651 0.153702
vn -0.783962 0.591389 0.188846
vn -0.969030 0.024653 0.245709
vn -0.783962 -0.542083 0.302572
vn -0.299447 -0.892345 0.337716
vn 0.223919 -0.616908 0.754509
vn 0.586227 -0.354991 0.728230
vn 0.724617 0.068800 0.685709
vn 0.586227 0.492592 0.643188
vn 0.223919 0.754509 0.616908
vn -0.223919 0.754509 0.616908
vn -0.586227 0.492592 0.643188
vn -0.724617 0.068800 0.685709
vn -0.586227 -0.354991 0.728230
vn -0.223919 -0.616908 0.754509
vn 0.083800 -0.160528 0.983468
vn 0.219390 -0.062508 0.973633
vn 0.271181 0.096092 0.957720
vn 0.219390 0.254693 0.941807
vn 0.083800 0.352713 0.931972
vn -0.083800 0.352713 0.931972
vn -0.219390 0.254693 0.941807
vn -0.271181 0.096092 0.957720
vn -0.219390 -0.062508 0.973633
vn -0.083800 -0.160528 0.983468
vn 0.000000 0.000000 1.000000
vn 0.000000 0.000000 -1.000000
vn -0.000000 1.000000 0.000000
vn 0.000000 -1.000000 0.000000
vn -1.000000 0.000000 0.000000
vn 1.000000 0.000000 0.000000
vn 0.000000 -1.000000 0.000000
vn 0.000000 1.000000 0.000000
vn 0.048388 0.000000 0.998829
vn -0.048388 0.000000 -0.998829
vn 0.145459 0.000000 0.989364
vn -0.145459 0.000000 -0.989364
vn 0.243358 0.000000 0.969937
vn -0.243358 0.000000 -0.969937
vn 0.342459 0.000000 0.939533
vn -0.342459 0.000000 -0.939533
vn 0.442812 0.000000 0.896614
vn -0.442812 0.000000 -0.896614
vn 0.543926 0.000000 0.839133
vn -0.543926 0.000000 -0.839133
vn 0.644454 0.000000 0.764643
vn -0.644454 0.000000 -0.764643
vn 0.741815 0.000000 0.670605
vn -0.741815 0.000000 -0.670605
vn 0.831847 0.000000 0.555005
vn -0.831847 0.000000 -0.555005
vn 0.908745 0.000000 0.417352
vn -0.908745 0.000000 -0.417352
vn 0.965643 0.000000 0.259871
vn -0.965643 0.000000 -0.259871
vn 0.996091 0.000000 0.088330
vn -0.996091 0.000000 -0.088330
vn 0.996091 0.000000 -0.088330
vn -0.996091 0.000000 0.088330
vn 0.965643 0.000000 -0.259871
vn -0.965643 0.000000 0.259871
vn 0.908745 0.000000 -0.417352
vn -0.908745 0.000000 0.417352
vn 0.831847 0.000000 -0.555005
vn -0.831847 0.000000 0.555005
vn 0.741815 0.000000 -0.670605
vn -0.741815 0.000000 0.670605
vn 0.644454 0.000000 -0.764643
vn -0.644454 0.000000 0.764643
vn 0.543926 0.000000 -0.839133
vn -0.543926 0.000000 0.839133
vn 0.442812 0.000000 -0.896614
vn -0.442812 0.000000 0.896614
vn 0.342459 0.000000 -0.939533
vn -0.342459 0.000000 0.939533
vn 0.243358 0.000000 -0.969937
vn -0.243358 0.000000 0.969937
vn 0.145459 0.000000 -0.989364
vn -0.145459 0.000000 0.989364
vn 0.048388 0.000000 -0.998829
vn -0.048388 0.000000 0.998829
vn -0.866025 0.000000 0.500000
vn -0.291588 -0.705346 -0.646115
vn -0.291588 0.705346 -0.646115
vn 0.413758 0.705346 0.575580
vn 0.413758 -0.705346 0.575580
vn 0.866025 0.000000 0.500000
vn -0.413758 -0.705346 0.575580
vn -0.413758 0.705346 0.575580
vn 0.291588 0.705346 -0.646115
vn 0.291588 -0.705346 -0.646115
vn 0.000000 0.000000 1.000000
vn 0.000000 0.000000 -1.000000
vn 0.000000 0.999972 -0.007500
vn 0.000000 -0.999972 -0.007500
vn -0.999956 0.000000 -0.009375
vn 0.999956 0.000000 -0.009375
vn -0.000000 1.000000 0.000000
vn 0.000000 -1.000000 0.000000
vn -1.000000 0.000000 0.000000
vn 1.000000 0.000000 0.000000
vn 0.000000 0.000000 1.000000
vn 0.000000 0.000000 -1.000000
vn 0.000000 0.999972 -0.007500
vn 0.000000 -0.999972 -0.007500
vn -0.999956 0.000000 -0.009375
vn 0.999956 0.000000 -0.009375
vn -0.000000 1.000000 0.000000
vn 0.000000 -1.000000 0.000000
vn -1.000000 0.000000 0.000000
vn 1.000000 0.000000 0.000000
vn 0.299447 -0.921602 0.246943
vn 0.783962 -0.569582 0.246943
vn 0.969030 -0.000000 0.246943
vn 0.783962 0.569582 0.246943
vn 0.299447 0.921602 0.246943
vn -0.299447 0.921602 0.246943
vn -0.783962 0.569582 0.246943
vn -0.969030 0.000000 0.246943
vn -0.783962 -0.569582 0.246943
vn -0.299447 -0.921602 0.246943
vn 0.223919 -0.689152 0.689152
vn 0.586227 -0.425919 0.689152
vn 0.724617 -0.000000 0.689152
vn 0.586227 0.425919 0.689152
vn 0.223919 0.689152 0.689152
vn -0.223919 0.689152 0.689152
vn -0.586227 0.425919 0.689152
vn -0.724617 0.000000 0.689152
vn -0.586227 -0.425919 0.689152
vn -0.223919 -0.689152 0.689152
vn 0.083800 -0.257909 0.962528
vn 0.219390 -0.159396 0.962528
vn 0.271181 -0.000000 0.962528
vn 0.219390 0.159396 0.962528
vn 0.083800 0.257909 0.962528
vn -0.083800 0.257909 0.962528
vn -0.219390 0.159396 0.962528
vn -0.271181 0.000000 0.962528
vn -0.219390 -0.159396 0.962528
vn -0.083800 -0.257909 0.962528
vn 0.000000 0.000000 1.000000
vn 0.000000 0.000000 -1.000000
vn -0.000000 1.000000 0.000000
vn 0.000000 -1.000000 0.000000
vn -1.000000 0.000000 0.000000
vn 1.000000 0.000000 0.000000
vn 0.299447 -0.921602 0.246943
vn 0.783962 -0.569582 0.246943
vn 0.969030 -0.000000 0.246943
vn 0.783962 0.569582 0.246943
vn 0.299447 0.921602 0.246943
vn -0.299447 0.921602 0.246943
vn -0.783962 0.569582 0.246943
vn -0.969030 0.000000 0.246943
vn -0.783962 -0.569582 0.246943
vn -0.299447 -0.921602 0.246943
vn 0.223919 -0.689152 0.689152
vn 0.586227 -0.425919 0.689152
vn 0.724617 -0.000000 0.689152
vn 0.586227 0.425919 0.689152
vn 0.223919 0.689152 0.689152
vn -0.223919 0.689152 0.689152
vn -0.586227 0.425919 0.689152
vn -0.724617 0.000000 0.689152
vn -0.586227 -0.425919 0.689152
vn -0.223919 -0.689152 0.689152
vn 0.083800 -0.257909 0.962528
vn 0.219390 -0.159396 0.962528
vn 0.271181 -0.000000 0.962528
vn 0.219390 0.159396 0.962528
vn 0.083800 0.257909 0.962528
vn -0.083800 0.257909 0.962528
vn -0.219390 0.159396 0.962528
vn -0.271181 0.000000 0.962528
vn -0.219390 -0.159396 0.962528
vn -0.083800 -0.257909 0.962528
vn 0.000000 0.000000 1.000000
vn 0.000000 0.000000 -1.000000
vn -0.000000 1.000000 0.000000
vn 0.000000 -1.000000 0.000000
vn -1.000000 0.000000 0.000000
vn 1.000000 0.000000 0.000000
f 1/1/1 2/2/1 3/3/1
f 1/1/1 3/3/1 4/4/1
f 5/5/2 6/6/2 7/7/2
f 5/5/2 7/7/2 8/8/2
f 4/9/3 3/10/3 8/11/3
f 4/9/3 8/11/3 7/12/3
f 6/13/4 5/14/4 2/15/4
f 6/13/4 2/15/4 1/16/4
f 6/17/5 1/18/5 4/19/5
f 6/17/5 4/19/5 7/20/5
f 2/18/6 5/17/6 8/20/6
f 2/18/6 8/20/6 3/19/6
f 9/21/7 10/22/7 11/23/7
f 9/21/7 11/23/7 12/24/7
f 10/25/8 13/26/8 14/27/8
f 10/25/8 14/27/8 11/28/8
f 13/26/9 15/29/9 16/30/9
f 13/26/9 16/30/9 14/27/9
f 15/29/10 17/31/10 18/32/10
f 15/29/10 18/32/10 16/30/10
f 17/33/11 19/34/11 20/35/11
f 17/33/11 20/35/11 18/36/11
f 19/34/12 21/37/12 22/38/12
f 19/34/12 22/38/12 20/35/12
f 21/31/13 23/29/13 24/30/13
f 21/31/13 24/30/13 22/32/13
f 23/29/14 25/26/14 26/27/14
f 23/29/14 26/27/14 24/30/14
f 25/26/15 27/25/15 28/28/15
f 25/26/15 28/28/15 26/27/15
f 27/39/16 9/21/16 12/24/16
f 27/39/16 12/24/16 28/40/16
f 12/41/17 11/42/17 29/43/17
f 12/41/17 29/43/17 30/44/17
f 11/42/18 14/45/18 31/46/18
f 11/42/18 31/46/18 29/43/18
f 14/27/19 16/30/19 32/47/19
f 14/27/19 32/47/19 31/48/19
f 16/49/20 18/50/20 33/51/20
f 16/49/20 33/51/20 32/52/20
f 18/36/21 20/35/21 34/53/21
f 18/36/21 34/53/21 33/54/21
f 20/35/22 22/38/22 35/55/22
f 20/35/22 35/55/22 34/53/22
f 22/56/23 24/57/23 36/58/23
f 22/56/23 36/58/23 35/59/23
f 24/30/24 26/27/24 37/48/24
f 24/30/24 37/48/24 36/47/24
f 26/60/25 28/61/25 38/62/25
f 26/60/25 38/62/25 37/63/25
f 28/61/26 12/41/26 30/44/26
f 28/61/26 30/44/26 38/62/26
f 30/44/27 29/43/27 39/64/27
f 29/43/28 31/46/28 39/64/28
f 31/46/29 32/52/29 39/64/29
f 32/52/30 33/51/30 39/64/30
f 33/51/31 34/65/31 39/64/31
f 34/65/32 35/59/32 39/64/32
f 35/59/33 36/58/33 39/64/33
f 36/58/34 37/63/34 39/64/34
f 37/63/35 38/62/35 39/64/35
f 38/62/36 30/44/36 39/64/36
f 40/66/37 41/67/37 42/68/37
f 40/66/37 42/68/37 43/69/37
f 44/70/38 45/71/38 46/72/38
f 44/70/38 46/72/38 47/73/38
f 43/74/39 42/75/39 47/76/39
f 43/74/39 47/76/39 46/77/39
f 45/77/40 44/76/40 41/75/40
f 45/77/40 41/75/40 40/74/40
f 45/78/41 40/79/41 43/80/41
f 45/78/41 43/80/41 46/81/41
f 41/79/42 44/78/42 47/81/42
f 41/79/42 47/81/42 42/80/42
f 48/82/43 49/83/43 50/84/43
f 48/82/43 50/84/43 51/85/43
f 52/85/44 53/84/44 54/83/44
f 52/85/44 54/83/44 55/82/44
f 51/86/45 48/87/45 55/88/45
f 51/86/45 55/88/45 52/89/45
f 49/90/46 50/91/46 53/92/46
f 49/90/46 53/92/46 54/93/46
f 51/85/43 50/84/43 56/94/43
f 51/85/43 56/94/43 57/95/43
f 58/95/44 59/94/44 53/84/44
f 58/95/44 53/84/44 52/85/44
f 57/96/47 51/86/47 52/89/47
f 57/96/47 52/89/47 58/97/47
f 50/91/48 56/98/48 59/99/48
f 50/91/48 59/99/48 53/92/48
f 57/95/43 56/94/43 60/100/43
f 57/95/43 60/100/43 61/101/43
f 62/101/44 63/100/44 59/94/44
f 62/101/44 59/94/44 58/95/44
f 61/102/49 57/96/49 58/97/49
f 61/102/49 58/97/49 62/103/49
f 56/98/50 60/104/50 63/105/50
f 56/98/50 63/105/50 59/99/50
f 61/101/43 60/100/43 64/106/43
f 61/101/43 64/106/43 65/107/43
f 66/107/44 67/106/44 63/100/44
f 66/107/44 63/100/44 62/101/44
f 65/108/51 61/102/51 62/103/51
f 65/108/51 62/103/51 66/109/51
f 60/104/52 64/110/52 67/111/52
f 60/104/52 67/111/52 63/105/52
f 65/107/43 64/106/43 68/112/43
f 65/107/43 68/112/43 69/113/43
f 70/113/44 71/112/44 67/106/44
f 70/113/44 67/106/44 66/107/44
f 69/114/53 65/108/53 66/109/53
f 69/114/53 66/109/53 70/115/53
f 64/110/54 68/116/54 71/117/54
f 64/110/54 71/117/54 67/111/54
f 69/113/43 68/112/43 72/118/43
f 69/113/43 72/118/43 73/119/43
f 74/119/44 75/118/44 71/112/44
f 74/119/44 71/112/44 70/113/44
f 73/120/55 69/114/55 70/115/55
f 73/120/55 70/115/55 74/121/55
f 68/116/56 72/122/56 75/123/56
f 68/116/56 75/123/56 71/117/56
f 73/119/43 72/118/43 76/124/43
f 73/119/43 76/124/43 77/125/43
f 78/125/44 79/124/44 75/118/44
f 78/125/44 75/118/44 74/119/44
f 77/126/57 73/120/57 74/121/57
f 77/126/57 74/121/57 78/127/57
f 72/122/58 76/128/58 79/129/58
f 72/122/58 79/129/58 75/123/58
f 77/125/43 76/124/43 80/130/43
f 77/125/43 80/130/43 81/131/43
f 82/131/44 83/130/44 79/124/44
f 82/131/44 79/124/44 78/125/44
f 81/132/59 77/133/59 78/134/59
f 81/132/59 78/134/59 82/135/59
f 76/136/60 80/137/60 83/138/60
f 76/136/60 83/138/60 79/139/60
f 81/131/43 80/130/43 84/140/43
f 81/131/43 84/140/43 85/141/43
f 86/141/44 87/140/44 83/130/44
f 86/141/44 83/130/44 82/131/44
f 85/142/61 81/132/61 82/135/61
f 85/142/61 82/135/61 86/143/61
f 80/137/62 84/144/62 87/145/62
f 80/137/62 87/145/62 83/138/62
f 85/141/43 84/140/43 88/146/43
f 85/141/43 88/146/43 89/147/43
f 90/147/44 91/146/44 87/140/44
f 90/147/44 87/140/44 86/141/44
f 89/148/63 85/142/63 86/143/63
f 89/148/63 86/143/63 90/149/63
f 84/144/64 88/150/64 91/151/64
f 84/144/64 91/151/64 87/145/64
f 89/147/43 88/146/43 92/152/43
f 89/147/43 92/152/43 93/153/43
f 94/153/44 95/152/44 91/146/44
f 94/153/44 91/146/44 90/147/44
f 93/154/65 89/148/65 90/149/65
f 93/154/65 90/149/65 94/155/65
f 88/150/66 92/156/66 95/157/66
f 88/150/66 95/157/66 91/151/66
f 93/153/43 92/152/43 96/158/43
f 93/153/43 96/158/43 97/159/43
f 98/159/44 99/158/44 95/152/44
f 98/159/44 95/152/44 94/153/44
f 97/160/67 93/154/67 94/155/67
f 97/160/67 94/155/67 98/161/67
f 92/156/68 96/160/68 99/161/68
f 92/156/68 99/161/68 95/157/68
f 97/159/43 96/158/43 100/162/43
f 97/159/43 100/162/43 101/163/43
f 102/163/44 103/162/44 99/158/44
f 102/163/44 99/158/44 98/159/44
f 101/164/69 97/160/69 98/161/69
f 101/164/69 98/161/69 102/165/69
f 96/160/70 100/166/70 103/167/70
f 96/160/70 103/167/70 99/161/70
f 101/163/43 100/162/43 104/168/43
f 101/163/43 104/168/43 105/169/43
f 106/169/44 107/168/44 103/162/44
f 106/169/44 103/162/44 102/163/44
f 105/170/71 101/164/71 102/165/71
f 105/170/71 102/165/71 106/171/71
f 100/166/72 104/172/72 107/173/72
f 100/166/72 107/173/72 103/167/72
f 105/169/43 104/168/43 108/174/43
f 105/169/43 108/174/43 109/175/43
f 110/175/44 111/174/44 107/168/44
f 110/175/44 107/168/44 106/169/44
f 109/176/73 105/170/73 106/171/73
f 109/176/73 106/171/73 110/177/73
f 104/172/74 108/178/74 111/179/74
f 104/172/74 111/179/74 107/173/74
f 109/175/43 108/174/43 112/180/43
f 109/175/43 112/180/43 113/181/43
f 114/181/44 115/180/44 111/174/44
f 114/181/44 111/174/44 110/175/44
f 113/182/75 109/176/75 110/177/75
f 113/182/75 110/177/75 114/183/75
f 108/178/76 112/184/76 115/185/76
f 108/178/76 115/185/76 111/179/76
f 113/181/43 112/180/43 116/186/43
f 113/181/43 116/186/43 117/187/43
f 118/187/44 119/186/44 115/180/44
f 118/187/44 115/180/44 114/181/44
f 117/188/77 113/182/77 114/183/77
f 117/188/77 114/183/77 118/189/77
f 112/184/78 116/190/78 119/191/78
f 112/184/78 119/191/78 115/185/78
f 117/187/43 116/186/43 120/192/43
f 117/187/43 120/192/43 121/193/43
f 122/193/44 123/192/44 119/186/44
f 122/193/44 119/186/44 118/187/44
f 121/194/79 117/195/79 118/196/79
f 121/194/79 118/196/79 122/197/79
f 116/198/80 120/199/80 123/200/80
f 116/198/80 123/200/80 119/201/80
f 121/193/43 120/192/43 124/202/43
f 121/193/43 124/202/43 125/203/43
f 126/203/44 127/202/44 123/192/44
f 126/203/44 123/192/44 122/193/44
f 125/204/81 121/194/81 122/197/81
f 125/204/81 122/197/81 126/205/81
f 120/199/82 124/206/82 127/207/82
f 120/199/82 127/207/82 123/200/82
f 125/203/43 124/202/43 128/208/43
f 125/203/43 128/208/43 129/209/43
f 130/209/44 131/208/44 127/202/44
f 130/209/44 127/202/44 126/203/44
f 129/210/83 125/204/83 126/205/83
f 129/210/83 126/205/83 130/211/83
f 124/206/84 128/212/84 131/213/84
f 124/206/84 131/213/84 127/207/84
f 129/209/43 128/208/43 132/214/43
f 129/209/43 132/214/43 133/215/43
f 134/215/44 135/214/44 131/208/44
f 134/215/44 131/208/44 130/209/44
f 133/216/85 129/210/85 130/211/85
f 133/216/85 130/211/85 134/217/85
f 128/212/86 132/218/86 135/219/86
f 128/212/86 135/219/86 131/213/86
f 133/215/43 132/214/43 136/220/43
f 133/215/43 136/220/43 137/221/43
f 138/221/44 139/220/44 135/214/44
f 138/221/44 135/214/44 134/215/44
f 137/222/87 133/216/87 134/217/87
f 137/222/87 134/217/87 138/223/87
f 132/218/88 136/224/88 139/225/88
f 132/218/88 139/225/88 135/219/88
f 137/221/43 136/220/43 140/226/43
f 137/221/43 140/226/43 141/227/43
f 142/227/44 143/226/44 139/220/44
f 142/227/44 139/220/44 138/221/44
f 141/228/89 137/222/89 138/223/89
f 141/228/89 138/223/89 142/229/89
f 136/224/90 140/230/90 143/231/90
f 136/224/90 143/231/90 139/225/90
f 141/227/43 140/226/43 144/232/43
f 141/227/43 144/232/43 145/233/43
f 146/233/44 147/232/44 143/226/44
f 146/233/44 143/226/44 142/227/44
f 145/90/91 141/228/91 142/229/91
f 145/90/91 142/229/91 146/93/91
f 140/230/92 144/87/92 147/88/92
f 140/230/92 147/88/92 143/231/92
f 145/233/43 144/232/43 148/234/43
f 145/233/43 148/234/43 149/235/43
f 150/235/44 151/234/44 147/232/44
f 150/235/44 147/232/44 146/233/44
f 149/236/46 145/90/46 146/93/46
f 149/236/46 146/93/46 150/237/46
f 144/87/45 148/238/45 151/239/45
f 144/87/45 151/239/45 147/88/45
f 149/235/43 148/234/43 152/240/43
f 149/235/43 152/240/43 153/241/43
f 154/241/44 155/240/44 151/234/44
f 154/241/44 151/234/44 150/235/44
f 153/242/48 149/236/48 150/237/48
f 153/242/48 150/237/48 154/243/48
f 148/238/47 152/244/47 155/245/47
f 148/238/47 155/245/47 151/239/47
f 153/241/43 152/240/43 156/246/43
f 153/241/43 156/246/43 157/247/43
f 158/247/44 159/246/44 155/240/44
f 158/247/44 155/240/44 154/241/44
f 157/248/50 153/242/50 154/243/50
f 157/248/50 154/243/50 158/249/50
f 152/244/49 156/250/49 159/251/49
f 152/244/49 159/251/49 155/245/49
f 157/247/43 156/246/43 160/252/43
f 157/247/43 160/252/43 161/253/43
f 162/253/44 163/252/44 159/246/44
f 162/253/44 159/246/44 158/247/44
f 161/254/52 157/248/52 158/249/52
f 161/254/52 158/249/52 162/255/52
f 156/250/51 160/256/51 163/257/51
f 156/250/51 163/257/51 159/251/51
f 161/253/43 160/252/43 164/258/43
f 161/253/43 164/258/43 165/259/43
f 166/259/44 167/258/44 163/252/44
f 166/259/44 163/252/44 162/253/44
f 165/260/54 161/254/54 162/255/54
f 165/260/54 162/255/54 166/261/54
f 160/256/53 164/262/53 167/263/53
f 160/256/53 167/263/53 163/257/53
f 165/259/43 164/258/43 168/264/43
f 165/259/43 168/264/43 169/265/43
f 170/265/44 171/264/44 167/258/44
f 170/265/44 167/258/44 166/259/44
f 169/266/56 165/260/56 166/261/56
f 169/266/56 166/261/56 170/267/56
f 164/262/55 168/268/55 171/269/55
f 164/262/55 171/269/55 167/263/55
f 169/265/43 168/264/43 172/270/43
f 169/265/43 172/270/43 173/271/43
f 174/271/44 175/270/44 171/264/44
f 174/271/44 171/264/44 170/265/44
f 173/272/58 169/266/58 170/267/58
f 173/272/58 170/267/58 174/273/58
f 168/268/57 172/274/57 175/275/57
f 168/268/57 175/275/57 171/269/57
f 173/271/43 172/270/43 176/276/43
f 173/271/43 176/276/43 177/277/43
f 178/277/44 179/276/44 175/270/44
f 178/277/44 175/270/44 174/271/44
f 177/182/60 173/188/60 174/189/60
f 177/182/60 174/189/60 178/183/60
f 172/190/59 176/184/59 179/185/59
f 172/190/59 179/185/59 175/191/59
f 177/277/43 176/276/43 180/278/43
f 177/277/43 180/278/43 181/279/43
f 182/279/44 183/278/44 179/276/44
f 182/279/44 179/276/44 178/277/44
f 181/176/62 177/182/62 178/183/62
f 181/176/62 178/183/62 182/177/62
f 176/184/61 180/178/61 183/179/61
f 176/184/61 183/179/61 179/185/61
f 181/279/43 180/278/43 184/280/43
f 181/279/43 184/280/43 185/281/43
f 186/281/44 187/280/44 183/278/44
f 186/281/44 183/278/44 182/279/44
f 185/170/64 181/176/64 182/177/64
f 185/170/64 182/177/64 186/171/64
f 180/178/63 184/172/63 187/173/63
f 180/178/63 187/173/63 183/179/63
f 185/281/43 184/280/43 188/282/43
f 185/281/43 188/282/43 189/283/43
f 190/283/44 191/282/44 187/280/44
f 190/283/44 187/280/44 186/281/44
f 189/164/66 185/170/66 186/171/66
f 189/164/66 186/171/66 190/165/66
f 184/172/65 188/166/65 191/167/65
f 184/172/65 191/167/65 187/173/65
f 189/283/43 188/282/43 192/284/43
f 189/283/43 192/284/43 193/285/43
f 194/285/44 195/284/44 191/282/44
f 194/285/44 191/282/44 190/283/44
f 193/160/68 189/164/68 190/165/68
f 193/160/68 190/165/68 194/161/68
f 188/166/67 192/160/67 195/161/67
f 188/166/67 195/161/67 191/167/67
f 193/285/43 192/284/43 196/286/43
f 193/285/43 196/286/43 197/287/43
f 198/287/44 199/286/44 195/284/44
f 198/287/44 195/284/44 194/285/44
f 197/154/70 193/160/70 194/161/70
f 197/154/70 194/161/70 198/155/70
f 192/160/69 196/156/69 199/157/69
f 192/160/69 199/157/69 195/161/69
f 197/287/43 196/286/43 200/288/43
f 197/287/43 200/288/43 201/289/43
f 202/289/44 203/288/44 199/286/44
f 202/289/44 199/286/44 198/287/44
f 201/148/72 197/154/72 198/155/72
f 201/148/72 198/155/72 202/149/72
f 196/156/71 200/150/71 203/151/71
f 196/156/71 203/151/71 199/157/71
f 201/289/43 200/288/43 204/290/43
f 201/289/43 204/290/43 205/291/43
f 206/291/44 207/290/44 203/288/44
f 206/291/44 203/288/44 202/289/44
f 205/142/74 201/148/74 202/149/74
f 205/142/74 202/149/74 206/143/74
f 200/150/73 204/144/73 207/145/73
f 200/150/73 207/145/73 203/151/73
f 205/291/43 204/290/43 208/292/43
f 205/291/43 208/292/43 209/293/43
f 210/293/44 211/292/44 207/290/44
f 210/293/44 207/290/44 206/291/44
f 209/132/76 205/142/76 206/143/76
f 209/132/76 206/143/76 210/135/76
f 204/144/75 208/137/75 211/138/75
f 204/144/75 211/138/75 207/145/75
f 209/293/43 208/292/43 212/294/43
f 209/293/43 212/294/43 213/295/43
f 214/295/44 215/294/44 211/292/44
f 214/295/44 211/292/44 210/293/44
f 213/133/78 209/132/78 210/135/78
f 213/133/78 210/135/78 214/134/78
f 208/137/77 212/136/77 215/139/77
f 208/137/77 215/139/77 211/138/77
f 213/295/43 212/294/43 216/296/43
f 213/295/43 216/296/43 217/297/43
f 218/297/44 219/296/44 215/294/44
f 218/297/44 215/294/44 214/295/44
f 217/298/80 213/299/80 214/300/80
f 217/298/80 214/300/80 218/301/80
f 212/302/79 216/303/79 219/304/79
f 212/302/79 219/304/79 215/305/79
f 217/297/43 216/296/43 220/306/43
f 217/297/43 220/306/43 221/307/43
f 222/307/44 223/306/44 219/296/44
f 222/307/44 219/296/44 218/297/44
f 221/308/82 217/298/82 218/301/82
f 221/308/82 218/301/82 222/309/82
f 216/303/81 220/310/81 223/311/81
f 216/303/81 223/311/81 219/304/81
f 221/307/43 220/306/43 224/312/43
f 221/307/43 224/312/43 225/313/43
f 226/313/44 227/312/44 223/306/44
f 226/313/44 223/306/44 222/307/44
f 225/314/84 221/308/84 222/309/84
f 225/314/84 222/309/84 226/315/84
f 220/310/83 224/316/83 227/317/83
f 220/310/83 227/317/83 223/311/83
f 225/313/43 224/312/43 228/318/43
f 225/313/43 228/318/43 229/319/43
f 230/319/44 231/318/44 227/312/44
f 230/319/44 227/312/44 226/313/44
f 229/320/86 225/314/86 226/315/86
f 229/320/86 226/315/86 230/321/86
f 224/316/85 228/322/85 231/323/85
f 224/316/85 231/323/85 227/317/85
f 229/319/43 228/318/43 232/324/43
f 229/319/43 232/324/43 233/325/43
f 234/325/44 235/324/44 231/318/44
f 234/325/44 231/318/44 230/319/44
f 233/326/88 229/320/88 230/321/88
f 233/326/88 230/321/88 234/327/88
f 228/322/87 232/328/87 235/329/87
f 228/322/87 235/329/87 231/323/87
f 233/325/43 232/324/43 236/330/43
f 233/325/43 236/330/43 237/331/43
f 238/331/44 239/330/44 235/324/44
f 238/331/44 235/324/44 234/325/44
f 237/332/90 233/326/90 234/327/90
f 237/332/90 234/327/90 238/333/90
f 232/328/89 236/334/89 239/335/89
f 232/328/89 239/335/89 235/329/89
f 237/331/43 236/330/43 49/83/43
f 237/331/43 49/83/43 48/82/43
f 55/82/44 54/83/44 239/330/44
f 55/82/44 239/330/44 238/331/44
f 48/87/92 237/332/92 238/333/92
f 48/87/92 238/333/92 55/88/92
f 236/334/91 49/90/91 54/93/91
f 236/334/91 54/93/91 239/335/91
f 240/336/93 241/337/93 242/338/93
f 240/336/93 243/339/93 241/337/93
f 240/336/93 244/340/93 243/339/93
f 240/336/93 242/338/93 244/340/93
f 242/341/94 241/342/94 245/343/94
f 241/342/95 243/341/95 245/343/95
f 243/341/96 244/344/96 245/343/96
f 244/344/97 242/341/97 245/343/97
f 246/345/98 247/346/98 248/347/98
f 246/345/98 249/348/98 247/346/98
f 246/345/98 250/349/98 249/348/98
f 246/345/98 248/347/98 250/349/98
f 248/350/99 247/351/99 251/352/99
f 247/351/100 249/350/100 251/352/100
f 249/350/101 250/353/101 251/352/101
f 250/353/102 248/350/102 251/352/102
f 252/354/103 253/355/103 254/356/103
f 252/354/103 254/356/103 255/357/103
f 256/358/104 257/359/104 258/360/104
f 256/358/104 258/360/104 259/361/104
f 255/362/105 254/363/105 259/364/105
f 255/362/105 259/364/105 258/365/105
f 257/365/106 256/364/106 253/363/106
f 257/365/106 253/363/106 252/362/106
f 257/366/107 252/367/107 255/368/107
f 257/366/107 255/368/107 258/369/107
f 253/370/108 256/371/108 259/372/108
f 253/370/108 259/372/108 254/373/108
f 260/374/103 261/375/103 262/376/103
f 260/374/103 262/376/103 263/377/103
f 264/378/104 265/379/104 266/380/104
f 264/378/104 266/380/104 267/381/104
f 263/382/109 262/383/109 267/384/109
f 263/382/109 267/384/109 266/385/109
f 265/385/110 264/384/110 261/383/110
f 265/385/110 261/383/110 260/382/110
f 265/386/111 260/387/111 263/388/111
f 265/386/111 263/388/111 266/389/111
f 261/390/112 264/390/112 267/391/112
f 261/390/112 267/391/112 262/391/112
f 268/392/103 269/393/103 270/394/103
f 268/392/103 270/394/103 271/395/103
f 272/396/104 273/397/104 274/398/104
f 272/396/104 274/398/104 275/399/104
f 271/400/109 270/401/109 275/402/109
f 271/400/109 275/402/109 274/403/109
f 273/403/110 272/402/110 269/401/110
f 273/403/110 269/401/110 268/400/110
f 273/404/111 268/405/111 271/406/111
f 273/404/111 271/406/111 274/407/111
f 269/408/112 272/408/112 275/409/112
f 269/408/112 275/409/112 270/409/112
f 276/410/113 277/411/113 278/412/113
f 276/410/113 278/412/113 279/413/113
f 280/414/114 281/415/114 282/416/114
f 280/414/114 282/416/114 283/417/114
f 279/418/115 278/419/115 283/420/115
f 279/418/115 283/420/115 282/421/115
f 281/421/116 280/420/116 277/419/116
f 281/421/116 277/419/116 276/418/116
f 281/422/117 276/423/117 279/424/117
f 281/422/117 279/424/117 282/425/117
f 277/426/118 280/427/118 283/428/118
f 277/426/118 283/428/118 278/429/118
f 284/430/113 285/431/113 286/432/113
f 284/430/113 286/432/113 287/433/113
f 288/434/114 289/435/114 290/436/114
f 288/434/114 290/436/114 291/437/114
f 287/438/119 286/439/119 291/440/119
f 287/438/119 291/440/119 290/441/119
f 289/441/120 288/440/120 285/439/120
f 289/441/120 285/439/120 284/438/120
f 289/442/121 284/442/121 287/443/121
f 289/442/121 287/443/121 290/443/121
f 285/444/122 288/445/122 291/446/122
f 285/444/122 291/446/122 286/447/122
f 292/448/113 293/449/113 294/450/113
f 292/448/113 294/450/113 295/451/113
f 296/452/114 297/453/114 298/454/114
f 296/452/114 298/454/114 299/455/114
f 295/456/119 294/457/119 299/458/119
f 295/456/119 299/458/119 298/459/119
f 297/459/120 296/458/120 293/457/120
f 297/459/120 293/457/120 292/456/120
f 297/460/121 292/460/121 295/461/121
f 297/460/121 295/461/121 298/461/121
f 293/462/122 296/463/122 299/464/122
f 293/462/122 299/464/122 294/465/122
f 300/466/123 301/467/123 302/468/123
f 300/466/123 302/468/123 303/469/123
f 301/470/124 304/471/124 305/472/124
f 301/470/124 305/472/124 302/473/124
f 304/471/125 306/474/125 307/475/125
f 304/471/125 307/475/125 305/472/125
f 306/474/126 308/476/126 309/477/126
f 306/474/126 309/477/126 307/475/126
f 308/467/127 310/466/127 311/469/127
f 308/467/127 311/469/127 309/468/127
f 310/466/128 312/478/128 313/479/128
f 310/466/128 313/479/128 311/469/128
f 312/476/129 314/474/129 315/475/129
f 312/476/129 315/475/129 313/477/129
f 314/474/130 316/471/130 317/472/130
f 314/474/130 317/472/130 315/475/130
f 316/471/131 318/470/131 319/473/131
f 316/471/131 319/473/131 317/472/131
f 318/478/132 300/466/132 303/469/132
f 318/478/132 303/469/132 319/479/132
f 303/480/133 302/481/133 320/482/133
f 303/480/133 320/482/133 321/483/133
f 302/481/134 305/484/134 322/485/134
f 302/481/134 322/485/134 320/482/134
f 305/472/135 307/475/135 323/486/135
f 305/472/135 323/486/135 322/487/135
f 307/488/136 309/489/136 324/490/136
f 307/488/136 324/490/136 323/491/136
f 309/489/137 311/492/137 325/493/137
f 309/489/137 325/493/137 324/490/137
f 311/492/138 313/494/138 326/495/138
f 311/492/138 326/495/138 325/493/138
f 313/494/139 315/496/139 327/497/139
f 313/494/139 327/497/139 326/495/139
f 315/475/140 317/472/140 328/487/140
f 315/475/140 328/487/140 327/486/140
f 317/498/141 319/499/141 329/500/141
f 317/498/141 329/500/141 328/501/141
f 319/499/142 303/480/142 321/483/142
f 319/499/142 321/483/142 329/500/142
f 321/483/143 320/482/143 330/502/143
f 320/482/144 322/485/144 330/502/144
f 322/485/145 323/491/145 330/502/145
f 323/491/146 324/490/146 330/502/146
f 324/490/147 325/493/147 330/502/147
f 325/493/148 326/495/148 330/502/148
f 326/495/149 327/497/149 330/502/149
f 327/497/150 328/501/150 330/502/150
f 328/501/151 329/500/151 330/502/151
f 329/500/152 321/483/152 330/502/152
f 331/503/153 332/504/153 333/505/153
f 331/503/153 333/505/153 334/506/153
f 335/507/154 336/508/154 337/509/154
f 335/507/154 337/509/154 338/510/154
f 334/511/155 333/512/155 338/513/155
f 334/511/155 338/513/155 337/514/155
f 336/514/156 335/513/156 332/512/156
f 336/514/156 332/512/156 331/511/156
f 336/515/157 331/516/157 334/517/157
f 336/515/157 334/517/157 337/518/157
f 332/516/158 335/515/158 338/518/158
f 332/516/158 338/518/158 333/517/158
f 339/519/159 340/520/159 341/521/159
f 339/519/159 341/521/159 342/522/159
f 340/523/160 343/524/160 344/525/160
f 340/523/160 344/525/160 341/526/160
f 343/524/161 345/527/161 346/528/161
f 343/524/161 346/528/161 344/525/161
f 345/527/162 347/529/162 348/530/162
f 345/527/162 348/530/162 346/528/162
f 347/520/163 349/519/163 350/522/163
f 347/520/163 350/522/163 348/521/163
f 349/519/164 351/531/164 352/532/164
f 349/519/164 352/532/164 350/522/164
f 351/529/165 353/527/165 354/528/165
f 351/529/165 354/528/165 352/530/165
f 353/527/166 355/524/166 356/525/166
f 353/527/166 356/525/166 354/528/166
f 355/524/167 357/523/167 358/526/167
f 355/524/167 358/526/167 356/525/167
f 357/531/168 339/519/168 342/522/168
f 357/531/168 342/522/168 358/532/168
f 342/533/169 341/534/169 359/535/169
f 342/533/169 359/535/169 360/536/169
f 341/534/170 344/537/170 361/538/170
f 341/534/170 361/538/170 359/535/170
f 344/525/171 346/528/171 362/539/171
f 344/525/171 362/539/171 361/540/171
f 346/541/172 348/542/172 363/543/172
f 346/541/172 363/543/172 362/544/172
f 348/542/173 350/545/173 364/546/173
f 348/542/173 364/546/173 363/543/173
f 350/545/174 352/547/174 365/548/174
f 350/545/174 365/548/174 364/546/174
f 352/547/175 354/549/175 366/550/175
f 352/547/175 366/550/175 365/548/175
f 354/528/176 356/525/176 367/540/176
f 354/528/176 367/540/176 366/539/176
f 356/551/177 358/552/177 368/553/177
f 356/551/177 368/553/177 367/554/177
f 358/552/178 342/533/178 360/536/178
f 358/552/178 360/536/178 368/553/178
f 360/536/179 359/535/179 369/555/179
f 359/535/180 361/538/180 369/555/180
f 361/538/181 362/544/181 369/555/181
f 362/544/182 363/543/182 369/555/182
f 363/543/183 364/546/183 369/555/183
f 364/546/184 365/548/184 369/555/184
f 365/548/185 366/550/185 369/555/185
f 366/550/186 367/554/186 369/555/186
f 367/554/187 368/553/187 369/555/187
f 368/553/188 360/536/188 369/555/188
f 370/556/189 371/557/189 372/558/189
f 370/556/189 372/558/189 373/559/189
f 374/560/190 375/561/190 376/562/190
f 374/560/190 376/562/190 377/563/190
f 373/564/191 372/565/191 377/566/191
f 373/564/191 377/566/191 376/567/191
f 375/567/192 374/566/192 371/565/192
f 375/567/192 371/565/192 370/564/192
f 375/568/193 370/569/193 373/570/193
f 375/568/193 373/570/193 376/571/193
f 371/569/194 374/568/194 377/571/194
f 371/569/194 377/571/194 372/570/194
