# Helion battlecruiser, fragment 1 of 8
# Generated by tools. Edit the generator script.
v 0.144172 0.288344 -2.128937
v -0.144172 0.288344 -2.128937
v -0.144172 0.576687 -2.128937
v -0.120143 0.000000 -1.752552
v -0.648773 0.000000 -1.752552
v -0.648773 0.865031 -1.752552
v -0.120143 0.865031 -1.752552
v -0.648773 0.865031 -1.079751
v -0.120143 0.000000 -1.079751
v -0.648773 0.000000 -1.079751
v -0.528630 0.432515 -2.321166
v -0.392703 0.296589 -2.321166
v -0.528630 0.240286 -2.321166
v -0.336401 0.432515 -2.321166
v -0.392703 0.568442 -2.321166
v -0.528630 0.624744 -2.321166
v -0.664556 0.568442 -2.321166
v -0.720859 0.432515 -2.321166
v -0.664556 0.296589 -2.321166
v -0.392703 0.296589 -1.552249
v -0.528630 0.240286 -1.552249
v -0.336401 0.432515 -1.552249
v -0.392703 0.568442 -1.552249
v -0.528630 0.624744 -1.552249
v -0.664556 0.568442 -1.552249
v -0.720859 0.432515 -1.552249
v -0.664556 0.296589 -1.552249
v -0.528630 0.432515 -1.552249
v -0.024029 0.470961 -1.898262
v -0.504601 0.470961 -1.898262
v -0.504601 0.394070 -1.898262
v -0.024029 0.394070 -1.898262
v -0.504601 0.470961 -1.975153
v -0.024029 0.470961 -1.975153
v -0.024029 0.394070 -1.975153
v -0.504601 0.394070 -1.975153
v -0.528630 0.206646 -1.936708
v -0.442193 0.223839 -1.936708
v -0.451089 0.245315 -1.904714
v -0.528630 0.229891 -1.904714
v -0.465482 0.280063 -1.916934
v -0.528630 0.267502 -1.916934
v -0.465482 0.280063 -1.956481
v -0.528630 0.267502 -1.956481
v -0.451089 0.245315 -1.968701
v -0.528630 0.229891 -1.968701
v -0.368916 0.272802 -1.936708
v -0.385353 0.289238 -1.904714
v -0.411948 0.315833 -1.916934
v -0.411948 0.315833 -1.956481
v -0.385353 0.289238 -1.968701
v -0.319954 0.346079 -1.936708
v -0.341429 0.354974 -1.904714
v -0.376177 0.369367 -1.916934
v -0.376177 0.369367 -1.956481
v -0.341429 0.354974 -1.968701
v -0.302761 0.432515 -1.936708
v -0.326005 0.432515 -1.904714
v -0.363616 0.432515 -1.916934
v -0.363616 0.432515 -1.956481
v -0.326005 0.432515 -1.968701
v -0.319954 0.518952 -1.936708
v -0.341429 0.510056 -1.904714
v -0.376177 0.495663 -1.916934
v -0.376177 0.495663 -1.956481
v -0.341429 0.510056 -1.968701
v -0.368916 0.592229 -1.936708
v -0.385353 0.575792 -1.904714
v -0.411948 0.549198 -1.916934
v -0.411948 0.549198 -1.956481
v -0.385353 0.575792 -1.968701
v -0.442193 0.641191 -1.936708
v -0.451089 0.619716 -1.904714
v -0.465482 0.584968 -1.916934
v -0.465482 0.584968 -1.956481
v -0.451089 0.619716 -1.968701
v -0.528630 0.658384 -1.936708
v -0.528630 0.635140 -1.904714
v -0.528630 0.597529 -1.916934
v -0.528630 0.597529 -1.956481
v -0.528630 0.635140 -1.968701
v -0.615066 0.641191 -1.936708
v -0.606171 0.619716 -1.904714
v -0.591778 0.584968 -1.916934
v -0.591778 0.584968 -1.956481
v -0.606171 0.619716 -1.968701
v -0.688343 0.592229 -1.936708
v -0.671907 0.575792 -1.904714
v -0.645312 0.549198 -1.916934
v -0.645312 0.549198 -1.956481
v -0.671907 0.575792 -1.968701
v -0.737306 0.518952 -1.936708
v -0.715830 0.510056 -1.904714
v -0.681083 0.495663 -1.916934
v -0.681083 0.495663 -1.956481
v -0.715830 0.510056 -1.968701
v -0.754499 0.432515 -1.936708
v -0.731254 0.432515 -1.904714
v -0.693643 0.432515 -1.916934
v -0.693643 0.432515 -1.956481
v -0.731254 0.432515 -1.968701
v -0.737306 0.346079 -1.936708
v -0.715830 0.354974 -1.904714
v -0.681083 0.369367 -1.916934
v -0.681083 0.369367 -1.956481
v -0.715830 0.354974 -1.968701
v -0.688343 0.272802 -1.936708
v -0.671907 0.289238 -1.904714
v -0.645312 0.315833 -1.916934
v -0.645312 0.315833 -1.956481
v -0.671907 0.289238 -1.968701
v -0.615066 0.223839 -1.936708
v -0.606171 0.245315 -1.904714
v -0.591778 0.280063 -1.916934
v -0.591778 0.280063 -1.956481
v -0.606171 0.245315 -1.968701
v -0.528630 0.432515 -2.350000
v -0.403578 0.307463 -2.350000
v -0.528630 0.255665 -2.350000
v -0.351779 0.432515 -2.350000
v -0.403578 0.557568 -2.350000
v -0.528630 0.609366 -2.350000
v -0.653682 0.557568 -2.350000
v -0.705481 0.432515 -2.350000
v -0.653682 0.307463 -2.350000
v -0.403578 0.307463 -2.253885
v -0.528630 0.255665 -2.253885
v -0.351779 0.432515 -2.253885
v -0.403578 0.557568 -2.253885
v -0.528630 0.609366 -2.253885
v -0.653682 0.557568 -2.253885
v -0.705481 0.432515 -2.253885
v -0.653682 0.307463 -2.253885
v -0.528630 0.432515 -2.253885
v -0.048057 0.384458 -2.128937
v -0.384458 0.288344 -1.416151
vt 0.968750 0.531250
vt 0.843750 0.531250
vt 0.843750 0.656250
vt 0.460938 0.382812
vt 0.335938 0.382812
vt 0.335938 0.476562
vt 0.460938 0.476562
vt 0.343750 0.992188
vt 0.546875 0.664062
vt 0.343750 0.664062
vt 0.546875 0.992188
vt 0.109375 0.296875
vt 0.484375 0.296875
vt 0.484375 0.375000
vt 0.109375 0.375000
vt 0.539062 0.234375
vt 0.572208 0.206754
vt 0.539062 0.195312
vt 0.585938 0.234375
vt 0.572208 0.261996
vt 0.539062 0.273438
vt 0.505917 0.261996
vt 0.492188 0.234375
vt 0.505917 0.206754
vt 0.589844 0.664062
vt 0.614703 0.664062
vt 0.614703 0.992188
vt 0.589844 0.992188
vt 0.327895 0.206754
vt 0.382812 0.234375
vt 0.327895 0.261996
vt 0.564985 0.664062
vt 0.564985 0.992188
vt 0.492188 0.363559
vt 0.492188 0.335938
vt 0.867188 0.335938
vt 0.867188 0.363559
vt 0.492188 0.308316
vt 0.867188 0.308316
vt 0.437500 0.195312
vt 0.470646 0.206754
vt 0.437500 0.234375
vt 0.484375 0.234375
vt 0.470646 0.261996
vt 0.437500 0.273438
vt 0.404354 0.261996
vt 0.390625 0.234375
vt 0.404354 0.206754
vt 0.968750 0.656250
vt 0.843750 0.656250
vt 0.843750 0.531250
vt 0.968750 0.531250
vt 0.843750 0.656250
vt 0.968750 0.656250
vt 0.968750 0.531250
vt 0.843750 0.531250
vt 0.968750 0.656250
vt 0.843750 0.656250
vt 0.843750 0.531250
vt 0.968750 0.531250
vt 0.843750 0.656250
vt 0.968750 0.656250
vt 0.968750 0.531250
vt 0.843750 0.531250
vt 0.718750 0.242188
vt 0.766585 0.242188
vt 0.761663 0.273438
vt 0.718750 0.273438
vt 0.515625 0.103171
vt 0.558538 0.104237
vt 0.550572 0.106641
vt 0.515625 0.105772
vt 0.718750 0.261501
vt 0.753697 0.261501
vt 0.753697 0.222874
vt 0.718750 0.222874
vt 0.515625 0.105772
vt 0.550572 0.106641
vt 0.558538 0.104237
vt 0.515625 0.103171
vt 0.718750 0.210938
vt 0.761663 0.210938
vt 0.807138 0.242188
vt 0.798042 0.273438
vt 0.594917 0.107276
vt 0.580199 0.109116
vt 0.783324 0.261501
vt 0.783324 0.222874
vt 0.580199 0.109116
vt 0.594917 0.107276
vt 0.798042 0.210938
vt 0.515625 0.106139
vt 0.515625 0.111208
vt 0.640625 0.111823
vt 0.640625 0.107276
vt 0.619225 0.111823
vt 0.599995 0.112819
vt 0.592879 0.109116
vt 0.592879 0.112819
vt 0.438371 0.112819
vt 0.438371 0.109116
vt 0.599995 0.112819
vt 0.619225 0.111823
vt 0.390625 0.107276
vt 0.390625 0.111823
vt 0.515625 0.117188
vt 0.640625 0.117188
vt 0.627761 0.117188
vt 0.606946 0.117188
vt 0.592879 0.117188
vt 0.438371 0.117188
vt 0.606946 0.117188
vt 0.627761 0.117188
vt 0.390625 0.117188
vt 0.515625 0.123167
vt 0.640625 0.122552
vt 0.619225 0.122552
vt 0.599995 0.121556
vt 0.592879 0.121556
vt 0.438371 0.121556
vt 0.599995 0.121556
vt 0.619225 0.122552
vt 0.390625 0.122552
vt 0.515625 0.128236
vt 0.640625 0.127099
vt 0.594917 0.127099
vt 0.580199 0.125259
vt 0.592879 0.125259
vt 0.438371 0.125259
vt 0.580199 0.125259
vt 0.594917 0.127099
vt 0.390625 0.127099
vt 0.558538 0.130138
vt 0.550572 0.127734
vt 0.550572 0.127734
vt 0.558538 0.130138
vt 0.515625 0.131204
vt 0.515625 0.128603
vt 0.515625 0.128603
vt 0.515625 0.131204
vt 0.670915 0.242188
vt 0.675837 0.273438
vt 0.472712 0.130138
vt 0.480678 0.127734
vt 0.683803 0.261501
vt 0.683803 0.222874
vt 0.480678 0.127734
vt 0.472712 0.130138
vt 0.675837 0.210938
vt 0.630362 0.242188
vt 0.639458 0.273438
vt 0.436333 0.127099
vt 0.451051 0.125259
vt 0.654176 0.261501
vt 0.654176 0.222874
vt 0.451051 0.125259
vt 0.436333 0.127099
vt 0.639458 0.210938
vt 0.412025 0.122552
vt 0.431255 0.121556
vt 0.431255 0.121556
vt 0.412025 0.122552
vt 0.403489 0.117188
vt 0.424304 0.117188
vt 0.424304 0.117188
vt 0.403489 0.117188
vt 0.412025 0.111823
vt 0.431255 0.112819
vt 0.431255 0.112819
vt 0.412025 0.111823
vt 0.436333 0.107276
vt 0.451051 0.109116
vt 0.451051 0.109116
vt 0.436333 0.107276
vt 0.472712 0.104237
vt 0.480678 0.106641
vt 0.480678 0.106641
vt 0.472712 0.104237
vt 0.054688 0.328125
vt 0.087833 0.294979
vt 0.054688 0.281250
vt 0.101562 0.328125
vt 0.087833 0.361271
vt 0.054688 0.375000
vt 0.021542 0.361271
vt 0.007812 0.328125
vt 0.021542 0.294979
vt 0.054688 0.281250
vt 0.087833 0.281250
vt 0.087833 0.375000
vt 0.054688 0.375000
vt 0.007812 0.294979
vt 0.007812 0.328125
vt 0.101562 0.328125
vt 0.101562 0.294979
vt 0.007812 0.361271
vt 0.101562 0.361271
vt 0.021542 0.281250
vt 0.021542 0.375000
vt 0.054688 0.281250
vt 0.087833 0.294979
vt 0.054688 0.328125
vt 0.101562 0.328125
vt 0.087833 0.361271
vt 0.054688 0.375000
vt 0.021542 0.361271
vt 0.007812 0.328125
vt 0.021542 0.294979
vt 0.353333 0.353333
vt 0.940000 0.060000
vt 0.060000 0.060000
vt 0.060000 0.940000
vt 0.353333 0.500000
vt 0.060000 0.060000
vt 0.060000 0.940000
vt 0.060000 0.060000
vt 0.060000 0.940000
vt 0.940000 0.940000
vt 0.940000 0.060000
vn 0.000000 0.000000 -1.000000
vn 0.000000 0.000000 -1.000000
vn -0.000000 1.000000 0.000000
vn 0.000000 -1.000000 0.000000
vn -1.000000 0.000000 0.000000
vn 0.000000 0.000000 -1.000000
vn 0.382683 -0.923880 0.000000
vn 0.923880 -0.382683 0.000000
vn 0.923880 0.382683 -0.000000
vn 0.382683 0.923880 0.000000
vn -0.382683 0.923880 0.000000
vn -0.923880 0.382683 -0.000000
vn -0.923880 -0.382683 0.000000
vn -0.382683 -0.923880 0.000000
vn 0.000000 0.000000 1.000000
vn 0.000000 0.000000 1.000000
vn 0.000000 0.000000 -1.000000
vn -0.000000 -1.000000 0.000000
vn 0.000000 1.000000 0.000000
vn 1.000000 0.000000 -0.000000
vn -1.000000 0.000000 -0.000000
vn 0.158879 -0.798741 0.580319
vn -0.061352 0.308435 0.949265
vn -0.195090 0.980785 0.000000
vn -0.061352 0.308435 -0.949265
vn 0.158879 -0.798741 -0.580319
vn 0.452450 -0.677140 0.580319
vn -0.174714 0.261478 0.949265
vn -0.555570 0.831470 0.000000
vn -0.174714 0.261478 -0.949265
vn 0.452450 -0.677140 -0.580319
vn 0.677140 -0.452450 0.580319
vn -0.261478 0.174714 0.949265
vn -0.831470 0.555570 0.000000
vn -0.261478 0.174714 -0.949265
vn 0.677140 -0.452450 -0.580319
vn 0.798741 -0.158879 0.580319
vn -0.308435 0.061352 0.949265
vn -0.980785 0.195090 0.000000
vn -0.308435 0.061352 -0.949265
vn 0.798741 -0.158879 -0.580319
vn 0.798741 0.158879 0.580319
vn -0.308435 -0.061352 0.949265
vn -0.980785 -0.195090 0.000000
vn -0.308435 -0.061352 -0.949265
vn 0.798741 0.158879 -0.580319
vn 0.677140 0.452450 0.580319
vn -0.261478 -0.174714 0.949265
vn -0.831470 -0.555570 0.000000
vn -0.261478 -0.174714 -0.949265
vn 0.677140 0.452450 -0.580319
vn 0.452450 0.677140 0.580319
vn -0.174714 -0.261478 0.949265
vn -0.555570 -0.831470 0.000000
vn -0.174714 -0.261478 -0.949265
vn 0.452450 0.677140 -0.580319
vn 0.158879 0.798741 0.580319
vn -0.061352 -0.308435 0.949265
vn -0.195090 -0.980785 0.000000
vn -0.061352 -0.308435 -0.949265
vn 0.158879 0.798741 -0.580319
vn -0.158879 0.798741 0.580319
vn 0.061352 -0.308435 0.949265
vn 0.195090 -0.980785 0.000000
vn 0.061352 -0.308435 -0.949265
vn -0.158879 0.798741 -0.580319
vn -0.452450 0.677140 0.580319
vn 0.174714 -0.261478 0.949265
vn 0.555570 -0.831470 0.000000
vn 0.174714 -0.261478 -0.949265
vn -0.452450 0.677140 -0.580319
vn -0.677140 0.452450 0.580319
vn 0.261478 -0.174714 0.949265
vn 0.831470 -0.555570 0.000000
vn 0.261478 -0.174714 -0.949265
vn -0.677140 0.452450 -0.580319
vn -0.798741 0.158879 0.580319
vn 0.308435 -0.061352 0.949265
vn 0.980785 -0.195090 0.000000
vn 0.308435 -0.061352 -0.949265
vn -0.798741 0.158879 -0.580319
vn -0.798741 -0.158879 0.580319
vn 0.308435 0.061352 0.949265
vn 0.980785 0.195090 0.000000
vn 0.308435 0.061352 -0.949265
vn -0.798741 -0.158879 -0.580319
vn -0.677140 -0.452450 0.580319
vn 0.261478 0.174714 0.949265
vn 0.831470 0.555570 0.000000
vn 0.261478 0.174714 -0.949265
vn -0.677140 -0.452450 -0.580319
vn -0.452450 -0.677140 0.580319
vn 0.174714 0.261478 0.949265
vn 0.555570 0.831470 0.000000
vn 0.174714 0.261478 -0.949265
vn -0.452450 -0.677140 -0.580319
vn -0.158879 -0.798741 0.580319
vn 0.061352 0.308435 0.949265
vn 0.195090 0.980785 0.000000
vn 0.061352 0.308435 -0.949265
vn -0.158879 -0.798741 -0.580319
vn 0.000000 0.000000 -1.000000
vn 0.382683 -0.923880 0.000000
vn 0.923880 -0.382683 0.000000
vn 0.923880 0.382683 0.000000
vn 0.382683 0.923880 0.000000
vn -0.382683 0.923880 0.000000
vn -0.923880 0.382683 0.000000
vn -0.923880 -0.382683 0.000000
vn -0.382683 -0.923880 0.000000
vn 0.000000 0.000000 1.000000
vn 0.000000 1.000000 0.000000
vn 0.000000 -1.000000 0.000000
vn 0.000000 1.000000 0.000000
vn 0.000000 -1.000000 0.000000
usemtl skin
f 1/1/1 2/2/1 3/3/1
f 4/4/2 5/5/2 6/6/2
f 4/4/2 6/6/2 7/7/2
f 8/8/3 7/9/3 6/10/3
f 5/10/4 4/9/4 9/11/4
f 5/12/5 10/13/5 8/14/5
f 5/12/5 8/14/5 6/15/5
f 11/16/6 12/17/6 13/18/6
f 11/16/6 14/19/6 12/17/6
f 11/16/6 15/20/6 14/19/6
f 11/16/6 16/21/6 15/20/6
f 11/16/6 17/22/6 16/21/6
f 11/16/6 18/23/6 17/22/6
f 11/16/6 19/24/6 18/23/6
f 11/16/6 13/18/6 19/24/6
f 13/25/7 12/26/7 20/27/7
f 13/25/7 20/27/7 21/28/7
f 12/29/8 14/30/8 22/30/8
f 12/29/8 22/30/8 20/29/8
f 14/30/9 15/31/9 23/31/9
f 14/30/9 23/31/9 22/30/9
f 15/26/10 16/25/10 24/28/10
f 15/26/10 24/28/10 23/27/10
f 16/25/11 17/32/11 25/33/11
f 16/25/11 25/33/11 24/28/11
f 17/34/12 18/35/12 26/36/12
f 17/34/12 26/36/12 25/37/12
f 18/35/13 19/38/13 27/39/13
f 18/35/13 27/39/13 26/36/13
f 19/32/14 13/25/14 21/28/14
f 19/32/14 21/28/14 27/33/14
f 21/40/15 20/41/15 28/42/15
f 20/41/15 22/43/15 28/42/15
f 22/43/15 23/44/15 28/42/15
f 23/44/15 24/45/15 28/42/15
f 24/45/15 25/46/15 28/42/15
f 25/46/15 26/47/15 28/42/15
f 26/47/15 27/48/15 28/42/15
f 27/48/15 21/40/15 28/42/15
f 29/49/16 30/50/16 31/51/16
f 29/49/16 31/51/16 32/52/16
f 33/53/17 34/54/17 35/55/17
f 33/53/17 35/55/17 36/56/17
f 32/57/18 31/58/18 36/59/18
f 32/57/18 36/59/18 35/60/18
f 34/60/19 33/59/19 30/58/19
f 34/60/19 30/58/19 29/57/19
f 34/61/20 29/62/20 32/63/20
f 34/61/20 32/63/20 35/64/20
f 30/62/21 33/61/21 36/64/21
f 30/62/21 36/64/21 31/63/21
f 37/65/22 38/66/22 39/67/22
f 37/65/22 39/67/22 40/68/22
f 40/69/23 39/70/23 41/71/23
f 40/69/23 41/71/23 42/72/23
f 42/73/24 41/74/24 43/75/24
f 42/73/24 43/75/24 44/76/24
f 44/77/25 43/78/25 45/79/25
f 44/77/25 45/79/25 46/80/25
f 46/81/26 45/82/26 38/66/26
f 46/81/26 38/66/26 37/65/26
f 38/66/27 47/83/27 48/84/27
f 38/66/27 48/84/27 39/67/27
f 39/70/28 48/85/28 49/86/28
f 39/70/28 49/86/28 41/71/28
f 41/74/29 49/87/29 50/88/29
f 41/74/29 50/88/29 43/75/29
f 43/78/30 50/89/30 51/90/30
f 43/78/30 51/90/30 45/79/30
f 45/82/31 51/91/31 47/83/31
f 45/82/31 47/83/31 38/66/31
f 47/92/32 52/93/32 53/94/32
f 47/92/32 53/94/32 48/95/32
f 48/85/33 53/96/33 54/97/33
f 48/85/33 54/97/33 49/86/33
f 49/98/34 54/99/34 55/100/34
f 49/98/34 55/100/34 50/101/34
f 50/89/35 55/102/35 56/103/35
f 50/89/35 56/103/35 51/90/35
f 51/104/36 56/105/36 52/93/36
f 51/104/36 52/93/36 47/92/36
f 52/93/37 57/106/37 58/107/37
f 52/93/37 58/107/37 53/94/37
f 53/96/38 58/108/38 59/109/38
f 53/96/38 59/109/38 54/97/38
f 54/99/39 59/110/39 60/111/39
f 54/99/39 60/111/39 55/100/39
f 55/102/40 60/112/40 61/113/40
f 55/102/40 61/113/40 56/103/40
f 56/105/41 61/114/41 57/106/41
f 56/105/41 57/106/41 52/93/41
f 57/106/42 62/115/42 63/116/42
f 57/106/42 63/116/42 58/107/42
f 58/108/43 63/117/43 64/118/43
f 58/108/43 64/118/43 59/109/43
f 59/110/44 64/119/44 65/120/44
f 59/110/44 65/120/44 60/111/44
f 60/112/45 65/121/45 66/122/45
f 60/112/45 66/122/45 61/113/45
f 61/114/46 66/123/46 62/115/46
f 61/114/46 62/115/46 57/106/46
f 62/115/47 67/124/47 68/125/47
f 62/115/47 68/125/47 63/116/47
f 63/117/48 68/126/48 69/127/48
f 63/117/48 69/127/48 64/118/48
f 64/119/49 69/128/49 70/129/49
f 64/119/49 70/129/49 65/120/49
f 65/121/50 70/130/50 71/131/50
f 65/121/50 71/131/50 66/122/50
f 66/123/51 71/132/51 67/124/51
f 66/123/51 67/124/51 62/115/51
f 67/83/52 72/66/52 73/67/52
f 67/83/52 73/67/52 68/84/52
f 68/126/53 73/133/53 74/134/53
f 68/126/53 74/134/53 69/127/53
f 69/87/54 74/74/54 75/75/54
f 69/87/54 75/75/54 70/88/54
f 70/130/55 75/135/55 76/136/55
f 70/130/55 76/136/55 71/131/55
f 71/91/56 76/82/56 72/66/56
f 71/91/56 72/66/56 67/83/56
f 72/66/57 77/65/57 78/68/57
f 72/66/57 78/68/57 73/67/57
f 73/133/58 78/137/58 79/138/58
f 73/133/58 79/138/58 74/134/58
f 74/74/59 79/73/59 80/76/59
f 74/74/59 80/76/59 75/75/59
f 75/135/60 80/139/60 81/140/60
f 75/135/60 81/140/60 76/136/60
f 76/82/61 81/81/61 77/65/61
f 76/82/61 77/65/61 72/66/61
f 77/65/62 82/141/62 83/142/62
f 77/65/62 83/142/62 78/68/62
f 78/137/63 83/143/63 84/144/63
f 78/137/63 84/144/63 79/138/63
f 79/73/64 84/145/64 85/146/64
f 79/73/64 85/146/64 80/76/64
f 80/139/65 85/147/65 86/148/65
f 80/139/65 86/148/65 81/140/65
f 81/81/66 86/149/66 82/141/66
f 81/81/66 82/141/66 77/65/66
f 82/141/67 87/150/67 88/151/67
f 82/141/67 88/151/67 83/142/67
f 83/143/68 88/152/68 89/153/68
f 83/143/68 89/153/68 84/144/68
f 84/145/69 89/154/69 90/155/69
f 84/145/69 90/155/69 85/146/69
f 85/147/70 90/156/70 91/157/70
f 85/147/70 91/157/70 86/148/70
f 86/149/71 91/158/71 87/150/71
f 86/149/71 87/150/71 82/141/71
f 87/124/72 92/115/72 93/116/72
f 87/124/72 93/116/72 88/125/72
f 88/152/73 93/159/73 94/160/73
f 88/152/73 94/160/73 89/153/73
f 89/128/74 94/119/74 95/120/74
f 89/128/74 95/120/74 90/129/74
f 90/156/75 95/161/75 96/162/75
f 90/156/75 96/162/75 91/157/75
f 91/132/76 96/123/76 92/115/76
f 91/132/76 92/115/76 87/124/76
f 92/115/77 97/106/77 98/107/77
f 92/115/77 98/107/77 93/116/77
f 93/159/78 98/163/78 99/164/78
f 93/159/78 99/164/78 94/160/78
f 94/119/79 99/110/79 100/111/79
f 94/119/79 100/111/79 95/120/79
f 95/161/80 100/165/80 101/166/80
f 95/161/80 101/166/80 96/162/80
f 96/123/81 101/114/81 97/106/81
f 96/123/81 97/106/81 92/115/81
f 97/106/82 102/93/82 103/94/82
f 97/106/82 103/94/82 98/107/82
f 98/163/83 103/167/83 104/168/83
f 98/163/83 104/168/83 99/164/83
f 99/110/84 104/99/84 105/100/84
f 99/110/84 105/100/84 100/111/84
f 100/165/85 105/169/85 106/170/85
f 100/165/85 106/170/85 101/166/85
f 101/114/86 106/105/86 102/93/86
f 101/114/86 102/93/86 97/106/86
f 102/93/87 107/92/87 108/95/87
f 102/93/87 108/95/87 103/94/87
f 103/167/88 108/171/88 109/172/88
f 103/167/88 109/172/88 104/168/88
f 104/99/89 109/98/89 110/101/89
f 104/99/89 110/101/89 105/100/89
f 105/169/90 110/173/90 111/174/90
f 105/169/90 111/174/90 106/170/90
f 106/105/91 111/104/91 107/92/91
f 106/105/91 107/92/91 102/93/91
f 107/150/92 112/141/92 113/142/92
f 107/150/92 113/142/92 108/151/92
f 108/171/93 113/175/93 114/176/93
f 108/171/93 114/176/93 109/172/93
f 109/154/94 114/145/94 115/146/94
f 109/154/94 115/146/94 110/155/94
f 110/173/95 115/177/95 116/178/95
f 110/173/95 116/178/95 111/174/95
f 111/158/96 116/149/96 112/141/96
f 111/158/96 112/141/96 107/150/96
f 112/141/97 37/65/97 40/68/97
f 112/141/97 40/68/97 113/142/97
f 113/175/98 40/69/98 42/72/98
f 113/175/98 42/72/98 114/176/98
f 114/145/99 42/73/99 44/76/99
f 114/145/99 44/76/99 115/146/99
f 115/177/100 44/77/100 46/80/100
f 115/177/100 46/80/100 116/178/100
f 116/149/101 46/81/101 37/65/101
f 116/149/101 37/65/101 112/141/101
f 117/179/102 118/180/102 119/181/102
f 117/179/102 120/182/102 118/180/102
f 117/179/102 121/183/102 120/182/102
f 117/179/102 122/184/102 121/183/102
f 117/179/102 123/185/102 122/184/102
f 117/179/102 124/186/102 123/185/102
f 117/179/102 125/187/102 124/186/102
f 117/179/102 119/181/102 125/187/102
f 119/188/103 118/189/103 126/190/103
f 119/188/103 126/190/103 127/191/103
f 118/192/104 120/193/104 128/194/104
f 118/192/104 128/194/104 126/195/104
f 120/193/105 121/196/105 129/197/105
f 120/193/105 129/197/105 128/194/105
f 121/189/106 122/188/106 130/191/106
f 121/189/106 130/191/106 129/190/106
f 122/188/107 123/198/107 131/199/107
f 122/188/107 131/199/107 130/191/107
f 123/196/108 124/193/108 132/194/108
f 123/196/108 132/194/108 131/197/108
f 124/193/109 125/192/109 133/195/109
f 124/193/109 133/195/109 132/194/109
f 125/198/110 119/188/110 127/191/110
f 125/198/110 127/191/110 133/199/110
f 127/200/111 126/201/111 134/202/111
f 126/201/111 128/203/111 134/202/111
f 128/203/111 129/204/111 134/202/111
f 129/204/111 130/205/111 134/202/111
f 130/205/111 131/206/111 134/202/111
f 131/206/111 132/207/111 134/202/111
f 132/207/111 133/208/111 134/202/111
f 133/208/111 127/200/111 134/202/111
usemtl interior
f 135/209/112 1/210/112 2/211/112
f 135/209/113 2/211/113 1/210/113
f 135/209/112 2/211/112 3/212/112
f 135/209/113 3/212/113 2/211/113
f 135/209/112 3/212/112 1/210/112
f 135/209/113 1/210/113 3/212/113
f 136/213/114 4/214/114 9/215/114
f 136/213/115 9/215/115 4/214/115
f 136/213/114 9/215/114 5/216/114
f 136/213/115 5/216/115 9/215/115
f 136/213/114 5/216/114 10/217/114
f 136/213/115 10/217/115 5/216/115
f 136/213/114 10/217/114 8/218/114
f 136/213/115 8/218/115 10/217/115
f 136/213/114 8/218/114 7/219/114
f 136/213/115 7/219/115 8/218/115
f 136/213/114 7/219/114 4/214/114
f 136/213/115 4/214/115 7/219/115
