# Bloom destroyer, from tools/gen_fleet.py
# Generated by tools. Edit the generator script.
v 0.013473 0.000000 0.565924
v 0.218994 0.057579 1.063821
v 0.013473 0.057579 1.118548
v 0.383809 0.057579 0.910480
v 0.475274 0.057579 0.688895
v 0.475274 0.057579 0.442954
v 0.383809 0.057579 0.221369
v 0.218994 0.057579 0.068027
v 0.013473 0.057579 0.013300
v -0.192048 0.057579 0.068027
v -0.356863 0.057579 0.221369
v -0.448329 0.057579 0.442954
v -0.448329 0.057579 0.688895
v -0.356863 0.057579 0.910480
v -0.192048 0.057579 1.063821
v 0.393226 0.221550 1.485918
v 0.013473 0.221550 1.587040
v 0.697765 0.221550 1.202579
v 0.866771 0.221550 0.793144
v 0.866771 0.221550 0.338705
v 0.697765 0.221550 -0.070731
v 0.393226 0.221550 -0.354069
v 0.013473 0.221550 -0.455192
v -0.366281 0.221550 -0.354069
v -0.670819 0.221550 -0.070731
v -0.839825 0.221550 0.338705
v -0.839825 0.221550 0.793144
v -0.670819 0.221550 1.202579
v -0.366281 0.221550 1.485918
v 0.509644 0.466951 1.767954
v 0.013473 0.466951 1.900076
v 0.907543 0.466951 1.397754
v 1.128360 0.466951 0.862801
v 1.128360 0.466951 0.269047
v 0.907543 0.466951 -0.265906
v 0.509644 0.466951 -0.636105
v 0.013473 0.466951 -0.768228
v -0.482699 0.466951 -0.636105
v -0.880598 0.466951 -0.265906
v -1.101415 0.466951 0.269047
v -1.101415 0.466951 0.862801
v -0.880598 0.466951 1.397754
v -0.482699 0.466951 1.767954
v 0.550525 0.756421 1.866992
v 0.013473 0.756421 2.010000
v 0.981208 0.756421 1.466291
v 1.220218 0.756421 0.887261
v 1.220218 0.756421 0.244587
v 0.981208 0.756421 -0.334442
v 0.550525 0.756421 -0.735143
v 0.013473 0.756421 -0.878152
v -0.523580 0.756421 -0.735143
v -0.954262 0.756421 -0.334442
v -1.193273 0.756421 0.244587
v -1.193273 0.756421 0.887261
v -0.954262 0.756421 1.466291
v -0.523580 0.756421 1.866992
v 0.509644 1.045890 1.767954
v 0.013473 1.045890 1.900076
v 0.907543 1.045890 1.397754
v 1.128360 1.045890 0.862801
v 1.128360 1.045890 0.269047
v 0.907543 1.045890 -0.265906
v 0.509644 1.045890 -0.636105
v 0.013473 1.045890 -0.768228
v -0.482699 1.045890 -0.636105
v -0.880598 1.045890 -0.265906
v -1.101415 1.045890 0.269047
v -1.101415 1.045890 0.862801
v -0.880598 1.045890 1.397754
v -0.482699 1.045890 1.767954
v 0.393226 1.291291 1.485918
v 0.013473 1.291291 1.587040
v 0.697765 1.291291 1.202579
v 0.866771 1.291291 0.793144
v 0.866771 1.291291 0.338705
v 0.697765 1.291291 -0.070731
v 0.393226 1.291291 -0.354069
v 0.013473 1.291291 -0.455192
v -0.366281 1.291291 -0.354069
v -0.670819 1.291291 -0.070731
v -0.839825 1.291291 0.338705
v -0.839825 1.291291 0.793144
v -0.670819 1.291291 1.202579
v -0.366281 1.291291 1.485918
v 0.218994 1.455262 1.063821
v 0.013473 1.455262 1.118548
v 0.383809 1.455262 0.910480
v 0.475274 1.455262 0.688895
v 0.475274 1.455262 0.442954
v 0.383809 1.455262 0.221369
v 0.218994 1.455262 0.068027
v 0.013473 1.455262 0.013300
v -0.192048 1.455262 0.068027
v -0.356863 1.455262 0.221369
v -0.448329 1.455262 0.442954
v -0.448329 1.455262 0.688895
v -0.356863 1.455262 0.910480
v -0.192048 1.455262 1.063821
v 0.013473 1.512841 0.565924
v -0.665703 0.436335 0.621186
v -0.589784 0.585730 1.323488
v -0.949637 0.585730 1.340072
v -0.258930 0.585730 1.038649
v -0.083449 0.585730 0.594353
v -0.130369 0.585730 0.160307
v -0.381769 0.585730 -0.097700
v -0.741622 0.585730 -0.081116
v -1.072476 0.585730 0.203723
v -1.247957 0.585730 0.648019
v -1.201037 0.585730 1.082065
v -0.542864 0.976854 1.757535
v -1.125118 0.976854 1.784367
v -0.007530 0.976854 1.296655
v 0.276404 0.976854 0.577770
v 0.200485 0.976854 -0.124532
v -0.206288 0.976854 -0.541995
v -0.788542 0.976854 -0.515163
v -1.323876 0.976854 -0.054283
v -1.607810 0.976854 0.664602
v -1.531891 0.976854 1.366904
v -0.542864 1.460309 1.757535
v -1.125118 1.460309 1.784367
v -0.007530 1.460309 1.296655
v 0.276404 1.460309 0.577770
v 0.200485 1.460309 -0.124532
v -0.206288 1.460309 -0.541995
v -0.788542 1.460309 -0.515163
v -1.323876 1.460309 -0.054283
v -1.607810 1.460309 0.664602
v -1.531891 1.460309 1.366904
v -0.589784 1.851433 1.323488
v -0.949637 1.851433 1.340072
v -0.258930 1.851433 1.038649
v -0.083449 1.851433 0.594353
v -0.130369 1.851433 0.160307
v -0.381769 1.851433 -0.097700
v -0.741622 1.851433 -0.081116
v -1.072476 1.851433 0.203723
v -1.247957 1.851433 0.648019
v -1.201037 1.851433 1.082065
v -0.665703 2.000829 0.621186
v -0.977858 0.601992 0.529232
v -1.035691 0.588877 0.473096
v -1.021175 0.530269 0.489229
v -0.980281 0.539543 0.528924
v -1.015721 0.557188 0.400537
v -1.007054 0.507861 0.437922
v -0.937919 0.538615 0.384113
v -0.952040 0.494728 0.426309
v -0.880087 0.551730 0.440250
v -0.911146 0.504002 0.466003
v -0.900056 0.583419 0.512809
v -0.925267 0.526409 0.517311
v -0.969587 0.495112 0.486291
v -1.023176 0.577856 0.916596
v -1.002252 0.553046 0.858088
v -0.995811 0.512554 0.888767
v -1.010606 0.530097 0.930139
v -0.937323 0.539989 0.848589
v -0.949899 0.503321 0.882050
v -0.893317 0.551741 0.897599
v -0.918782 0.511631 0.916706
v -0.914241 0.576551 0.956108
v -0.933577 0.529174 0.958077
v -0.979171 0.589608 0.965606
v -0.979490 0.538407 0.964794
v -0.967365 0.502666 0.930184
v -1.513846 1.562018 0.899715
v -1.550935 1.507310 0.911927
v -1.548357 1.528139 0.958894
v -1.522132 1.566824 0.950259
v -1.525001 1.456314 0.947207
v -1.530020 1.492080 0.983840
v -1.461979 1.460028 0.970275
v -1.485456 1.494706 1.000152
v -1.424890 1.514736 0.958063
v -1.459231 1.533391 0.991517
v -1.450824 1.565732 0.922783
v -1.477568 1.569450 0.966570
v -1.510372 1.538943 0.991861
v 0.416052 0.598781 0.601509
v 0.499316 0.735663 1.245627
v 0.211185 0.735663 1.308494
v 0.755643 0.735663 0.936729
v 0.882257 0.735663 0.499789
v 0.830797 0.735663 0.101702
v 0.620919 0.735663 -0.105475
v 0.332788 0.735663 -0.042609
v 0.076461 0.735663 0.266289
v -0.050154 0.735663 0.703229
v 0.001306 0.735663 1.101316
v 0.550776 1.094025 1.643714
v 0.084570 1.094025 1.745434
v 0.965521 1.094025 1.143907
v 1.170388 1.094025 0.436923
v 1.087124 1.094025 -0.207195
v 0.747534 1.094025 -0.542416
v 0.281328 1.094025 -0.440695
v -0.133418 1.094025 0.059111
v -0.338284 1.094025 0.766096
v -0.255020 1.094025 1.410214
v 0.550776 1.536985 1.643714
v 0.084570 1.536985 1.745434
v 0.965521 1.536985 1.143907
v 1.170388 1.536985 0.436923
v 1.087124 1.536985 -0.207195
v 0.747534 1.536985 -0.542416
v 0.281328 1.536985 -0.440695
v -0.133418 1.536985 0.059111
v -0.338284 1.536985 0.766096
v -0.255020 1.536985 1.410214
v 0.499316 1.895347 1.245627
v 0.211185 1.895347 1.308494
v 0.755643 1.895347 0.936729
v 0.882257 1.895347 0.499789
v 0.830797 1.895347 0.101702
v 0.620919 1.895347 -0.105475
v 0.332788 1.895347 -0.042609
v 0.076461 1.895347 0.266289
v -0.050154 1.895347 0.703229
v 0.001306 1.895347 1.101316
v 0.416052 2.032229 0.601509
v 0.011645 0.838058 0.575315
v -0.044499 0.813223 0.522947
v -0.031203 0.760356 0.551972
v 0.008497 0.777916 0.589002
v -0.023673 0.766262 0.460720
v -0.016476 0.727149 0.507971
v 0.053298 0.744135 0.450862
v 0.037951 0.711503 0.501000
v 0.109442 0.768969 0.503229
v 0.077650 0.729063 0.538029
v 0.088615 0.815931 0.565456
v 0.062924 0.762270 0.582030
v 0.019393 0.725495 0.558219
v 0.371105 1.543172 -0.334543
v 0.271281 1.586688 -0.375033
v 0.250933 1.574296 -0.289363
v 0.321519 1.543526 -0.260733
v 0.177626 1.518535 -0.384062
v 0.184709 1.526105 -0.295748
v 0.183794 1.406865 -0.352603
v 0.189070 1.447142 -0.273503
v 0.283618 1.363349 -0.312113
v 0.259656 1.416372 -0.244873
v 0.377273 1.431503 -0.303084
v 0.325881 1.464564 -0.238488
v 0.246118 1.503749 -0.235449
v 0.955683 1.401656 -0.354243
v 0.940237 1.476287 -0.371743
v 0.908656 1.469569 -0.321351
v 0.919577 1.416797 -0.308977
v 0.868785 1.496771 -0.396023
v 0.858131 1.484053 -0.338520
v 0.812778 1.442625 -0.402803
v 0.818528 1.445766 -0.343314
v 0.828224 1.367994 -0.385303
v 0.829450 1.392993 -0.330939
v 0.899676 1.347509 -0.361023
v 0.879975 1.378509 -0.313771
v 0.862766 1.435067 -0.304450
v 0.963820 0.414162 0.285316
v 1.185075 0.529115 0.660167
v 0.939093 0.529115 0.732155
v 1.346546 0.529115 0.444999
v 1.361828 0.529115 0.168837
v 1.225084 0.529115 -0.062834
v 0.988547 0.529115 -0.161523
v 0.742565 0.529115 -0.089535
v 0.581094 0.529115 0.125633
v 0.565812 0.529115 0.401795
v 0.702555 0.529115 0.633466
v 1.321819 0.830064 0.891838
v 0.923811 0.830064 1.008317
v 1.583083 0.830064 0.543688
v 1.607810 0.830064 0.096849
v 1.386555 0.830064 -0.278002
v 1.003829 0.830064 -0.437685
v 0.605821 0.830064 -0.321206
v 0.344557 0.830064 0.026944
v 0.319830 0.830064 0.473783
v 0.541085 0.830064 0.848634
v 1.321819 1.202058 0.891838
v 0.923811 1.202058 1.008317
v 1.583083 1.202058 0.543688
v 1.607810 1.202058 0.096849
v 1.386555 1.202058 -0.278002
v 1.003829 1.202058 -0.437685
v 0.605821 1.202058 -0.321206
v 0.344557 1.202058 0.026944
v 0.319830 1.202058 0.473783
v 0.541085 1.202058 0.848634
v 1.185075 1.503008 0.660167
v 0.939093 1.503008 0.732155
v 1.346546 1.503008 0.444999
v 1.361828 1.503008 0.168837
v 1.225084 1.503008 -0.062834
v 0.988547 1.503008 -0.161523
v 0.742565 1.503008 -0.089535
v 0.581094 1.503008 0.125633
v 0.565812 1.503008 0.401795
v 0.702555 1.503008 0.633466
v 0.963820 1.617960 0.285316
v 0.714788 0.908202 0.928880
v 0.743152 0.826616 0.910969
v 0.756799 0.830842 0.976956
v 0.736742 0.888532 0.989621
v 0.829555 0.808847 0.911507
v 0.817895 0.818277 0.977336
v 0.887595 0.872664 0.929957
v 0.858935 0.863403 0.990382
v 0.859231 0.954250 0.947868
v 0.838879 0.921093 1.003047
v 0.772828 0.972019 0.947330
v 0.777783 0.933658 1.002667
v 0.796450 0.869976 1.015096
v 0.544516 0.880437 -0.100811
v 0.480573 0.886909 -0.102003
v 0.486138 0.855244 -0.064763
v 0.531352 0.850668 -0.063921
v 0.443692 0.838103 -0.121743
v 0.460059 0.820733 -0.078722
v 0.470753 0.782826 -0.140291
v 0.479194 0.781646 -0.091837
v 0.534695 0.776354 -0.139100
v 0.524408 0.777070 -0.090995
v 0.571576 0.825160 -0.119360
v 0.550487 0.811581 -0.077036
v 0.504295 0.809747 -0.060204
v 1.054364 1.488786 -0.059869
v 1.002316 1.529198 -0.132539
v 0.986936 1.576160 -0.076015
v 1.023740 1.547585 -0.024630
v 0.904321 1.525080 -0.130851
v 0.917643 1.573248 -0.074821
v 0.858374 1.480552 -0.056494
v 0.885153 1.541762 -0.022243
v 0.910422 1.440140 0.016175
v 0.921957 1.513187 0.029142
v 1.008417 1.444258 0.014487
v 0.991250 1.516098 0.027948
v 0.953650 1.569528 -0.009044
v -0.446609 0.817680 0.786063
v -0.498287 0.909916 1.273073
v -0.731650 0.909916 1.253044
v -0.245186 0.909916 1.107080
v -0.069021 0.909916 0.818470
v -0.037082 0.909916 0.517482
v -0.161569 0.909916 0.319083
v -0.394931 0.909916 0.299054
v -0.648033 0.909916 0.465047
v -0.824198 0.909916 0.753657
v -0.856137 0.909916 1.054645
v -0.530226 1.151391 1.574061
v -0.907815 1.151391 1.541654
v -0.120699 1.151391 1.305480
v 0.164342 1.151391 0.838499
v 0.216020 1.151391 0.351490
v 0.014596 1.151391 0.030473
v -0.362993 1.151391 -0.001934
v -0.772520 1.151391 0.266647
v -1.057561 1.151391 0.733628
v -1.109239 1.151391 1.220637
v -0.530226 1.449871 1.574061
v -0.907815 1.449871 1.541654
v -0.120699 1.449871 1.305480
v 0.164342 1.449871 0.838499
v 0.216020 1.449871 0.351490
v 0.014596 1.449871 0.030473
v -0.362993 1.449871 -0.001934
v -0.772520 1.449871 0.266647
v -1.057561 1.449871 0.733628
v -1.109239 1.449871 1.220637
v -0.498287 1.691347 1.273073
v -0.731650 1.691347 1.253044
v -0.245186 1.691347 1.107080
v -0.069021 1.691347 0.818470
v -0.037082 1.691347 0.517482
v -0.161569 1.691347 0.319083
v -0.394931 1.691347 0.299054
v -0.648033 1.691347 0.465047
v -0.824198 1.691347 0.753657
v -0.856137 1.691347 1.054645
v -0.446609 1.783582 0.786063
v -0.334389 1.731263 0.713764
v -0.335396 1.738542 0.653238
v -0.353836 1.779001 0.667405
v -0.353123 1.773854 0.710203
v -0.388552 1.738229 0.623376
v -0.391422 1.778779 0.646289
v -0.440700 1.730636 0.654040
v -0.428297 1.773410 0.667972
v -0.439693 1.723356 0.714565
v -0.427584 1.768262 0.710770
v -0.386537 1.723670 0.744427
v -0.389998 1.768484 0.731886
v -0.392021 1.791311 0.691235
v -0.506810 1.605978 1.253024
v -0.463611 1.593938 1.296138
v -0.474659 1.639040 1.306657
v -0.505205 1.647553 1.276172
v -0.407721 1.621023 1.292581
v -0.435139 1.658192 1.304143
v -0.395031 1.660148 1.245911
v -0.426166 1.685858 1.271142
v -0.438230 1.672188 1.202798
v -0.456712 1.694371 1.240656
v -0.494120 1.645103 1.206354
v -0.496232 1.675219 1.243171
v -0.471801 1.680641 1.283676
v -0.619200 1.738600 0.776075
v -0.682205 1.716729 0.855812
v -0.660322 1.791111 0.873659
v -0.615770 1.806576 0.817276
v -0.642795 1.703549 0.951097
v -0.632455 1.781791 0.941035
v -0.540380 1.712239 0.966644
v -0.560036 1.787936 0.952029
v -0.477375 1.734110 0.886907
v -0.515485 1.803401 0.895646
v -0.516785 1.747291 0.791622
v -0.543352 1.812721 0.828269
v -0.591264 1.827012 0.890158
v 0.684239 0.694376 -1.385650
v 0.721303 0.673189 -1.391683
v 0.684239 0.651366 -1.388671
v 0.721303 0.716199 -1.388662
v 0.684239 0.737386 -1.382629
v 0.647176 0.715564 -1.379616
v 0.647176 0.672554 -1.382637
v 0.896915 0.572681 -0.492159
v 0.795834 0.513165 -0.483943
v 0.896915 0.689981 -0.483921
v 0.795834 0.747765 -0.467466
v 0.694752 0.688249 -0.459249
v 0.694752 0.570949 -0.467488
v 0.795834 0.630465 -0.475704
v -0.804170 0.567476 -1.570795
v -0.767649 0.545426 -1.577045
v -0.804170 0.524465 -1.567778
v -0.767649 0.588437 -1.580061
v -0.804170 0.610486 -1.573811
v -0.840690 0.589525 -1.564545
v -0.840690 0.546515 -1.561529
v -0.470567 0.584217 -0.491668
v -0.570169 0.527050 -0.466397
v -0.470567 0.701518 -0.499894
v -0.570169 0.761652 -0.482849
v -0.669770 0.704486 -0.457578
v -0.669770 0.587185 -0.449352
v -0.570169 0.644351 -0.474623
v 0.641927 0.732326 -2.001988
v 0.679030 0.710364 -2.002234
v 0.641927 0.689915 -1.994222
v 0.679030 0.752775 -2.010000
v 0.641927 0.774736 -2.009754
v 0.604824 0.754287 -2.001742
v 0.604824 0.711876 -1.993976
v 0.920937 0.955541 -0.456579
v 0.819747 0.899770 -0.434729
v 0.920937 1.071206 -0.477760
v 0.819747 1.131101 -0.477089
v 0.718558 1.075330 -0.455238
v 0.718558 0.959665 -0.434058
v 0.819747 1.015436 -0.455909
vt 0.500000 0.578125
vt 0.518628 0.605061
vt 0.500000 0.608022
vt 0.533566 0.596766
vt 0.541856 0.584778
vt 0.541856 0.571472
vt 0.533566 0.559484
vt 0.518628 0.551189
vt 0.500000 0.548228
vt 0.481372 0.551189
vt 0.466434 0.559484
vt 0.458144 0.571472
vt 0.458144 0.584778
vt 0.466434 0.596766
vt 0.481372 0.605061
vt 0.534419 0.627897
vt 0.500000 0.633368
vt 0.562022 0.612568
vt 0.577340 0.590418
vt 0.577340 0.565832
vt 0.562022 0.543682
vt 0.534419 0.528353
vt 0.500000 0.522882
vt 0.465581 0.528353
vt 0.437978 0.543682
vt 0.422660 0.565832
vt 0.422660 0.590418
vt 0.437978 0.612568
vt 0.465581 0.627897
vt 0.544971 0.643155
vt 0.500000 0.650303
vt 0.581035 0.623127
vt 0.601049 0.594186
vt 0.601049 0.562064
vt 0.581035 0.533123
vt 0.544971 0.513095
vt 0.500000 0.505947
vt 0.455029 0.513095
vt 0.418965 0.533123
vt 0.398951 0.562064
vt 0.398951 0.594186
vt 0.418965 0.623127
vt 0.455029 0.643155
vt 0.726562 0.548228
vt 0.771534 0.548228
vt 0.775239 0.578125
vt 0.726562 0.578125
vt 0.807598 0.548228
vt 0.814274 0.578125
vt 0.789566 0.548228
vt 0.749048 0.548228
vt 0.750901 0.578125
vt 0.794757 0.578125
vt 0.704077 0.548228
vt 0.702224 0.578125
vt 0.663559 0.548228
vt 0.658368 0.578125
vt 0.807598 0.548228
vt 0.771534 0.548228
vt 0.775239 0.578125
vt 0.814274 0.578125
vt 0.726562 0.548228
vt 0.726562 0.578125
vt 0.681591 0.548228
vt 0.677886 0.578125
vt 0.645527 0.548228
vt 0.638851 0.578125
vt 0.645527 0.548228
vt 0.681591 0.548228
vt 0.677886 0.578125
vt 0.638851 0.578125
vt 0.771534 0.608022
vt 0.726562 0.608022
vt 0.807598 0.608022
vt 0.749048 0.608022
vt 0.789566 0.608022
vt 0.704077 0.608022
vt 0.663559 0.608022
vt 0.771534 0.608022
vt 0.807598 0.608022
vt 0.726562 0.608022
vt 0.681591 0.608022
vt 0.645527 0.608022
vt 0.681591 0.608022
vt 0.645527 0.608022
vt 0.500000 0.578125
vt 0.508814 0.625295
vt 0.467036 0.626409
vt 0.547225 0.606164
vt 0.567597 0.576323
vt 0.562150 0.547170
vt 0.532964 0.529841
vt 0.491186 0.530955
vt 0.452775 0.550086
vt 0.432403 0.579927
vt 0.437850 0.609080
vt 0.514261 0.654448
vt 0.446664 0.656250
vt 0.576411 0.623493
vt 0.765817 0.514921
vt 0.724039 0.514921
vt 0.722480 0.553983
vt 0.790077 0.553983
vt 0.683226 0.514921
vt 0.656442 0.553983
vt 0.553336 0.500000
vt 0.600561 0.528039
vt 0.485739 0.501802
vt 0.423589 0.532757
vt 0.687308 0.514921
vt 0.729086 0.514921
vt 0.730645 0.553983
vt 0.663048 0.553983
vt 0.769899 0.514921
vt 0.796683 0.553983
vt 0.399439 0.628211
vt 0.673226 0.553983
vt 0.740824 0.553983
vt 0.740824 0.602267
vt 0.673226 0.602267
vt 0.802974 0.553983
vt 0.802974 0.602267
vt 0.722480 0.602267
vt 0.790077 0.602267
vt 0.656442 0.602267
vt 0.617188 0.553983
vt 0.617188 0.602267
vt 0.779899 0.553983
vt 0.712301 0.553983
vt 0.712301 0.602267
vt 0.779899 0.602267
vt 0.650151 0.553983
vt 0.650151 0.602267
vt 0.730645 0.602267
vt 0.663048 0.602267
vt 0.796683 0.602267
vt 0.835938 0.553983
vt 0.835938 0.602267
vt 0.724039 0.641329
vt 0.765817 0.641329
vt 0.683226 0.641329
vt 0.729086 0.641329
vt 0.687308 0.641329
vt 0.769899 0.641329
vt 0.042656 0.375000
vt 0.007812 0.363537
vt 0.016558 0.312313
vt 0.041196 0.320418
vt 0.065297 0.363537
vt 0.018422 0.335841
vt 0.042574 0.292729
vt 0.075720 0.312313
vt 0.019844 0.335841
vt 0.066719 0.319607
vt 0.058211 0.281250
vt 0.025066 0.292729
vt 0.066719 0.281250
vt 0.101562 0.317515
vt 0.082849 0.334153
vt 0.058211 0.308509
vt 0.044078 0.331070
vt 0.090953 0.358766
vt 0.093861 0.308940
vt 0.060715 0.289355
vt 0.089531 0.358766
vt 0.074342 0.308940
vt 0.041196 0.374801
vt 0.016558 0.349157
vt 0.047639 0.347259
vt 0.025066 0.316012
vt 0.074342 0.367298
vt 0.047639 0.281586
vt 0.062297 0.362328
vt 0.015422 0.335575
vt 0.040001 0.291912
vt 0.073147 0.310829
vt 0.022918 0.335575
vt 0.069793 0.321495
vt 0.060714 0.281956
vt 0.027569 0.291912
vt 0.007812 0.321495
vt 0.047078 0.334167
vt 0.062385 0.290917
vt 0.034620 0.281956
vt 0.093953 0.360920
vt 0.095531 0.309834
vt 0.086457 0.360920
vt 0.039582 0.375000
vt 0.039351 0.319790
vt 0.072497 0.309834
vt 0.101562 0.375000
vt 0.100912 0.319790
vt 0.016887 0.346584
vt 0.027569 0.313439
vt 0.048105 0.346621
vt 0.060714 0.308058
vt 0.083178 0.335822
vt 0.072497 0.368968
vt 0.048105 0.281250
vt 0.039351 0.374349
vt 0.671875 0.470404
vt 0.683274 0.425070
vt 0.727114 0.442330
vt 0.719053 0.474387
vt 0.716205 0.382812
vt 0.750399 0.412450
vt 0.589601 0.427142
vt 0.636476 0.448675
vt 0.619014 0.476562
vt 0.585869 0.461337
vt 0.738039 0.385890
vt 0.765625 0.431224
vt 0.740083 0.446682
vt 0.720577 0.414626
vt 0.726338 0.431224
vt 0.693407 0.473481
vt 0.734279 0.476562
vt 0.757565 0.446682
vt 0.644774 0.404345
vt 0.597899 0.382812
vt 0.591736 0.429991
vt 0.624881 0.445217
vt 0.757886 0.451283
vt 0.673792 0.442330
vt 0.687431 0.412450
vt 0.702045 0.451283
vt 0.726444 0.476562
vt 0.600482 0.468823
vt 0.500000 0.578125
vt 0.512073 0.622115
vt 0.470295 0.626409
vt 0.549239 0.601019
vt 0.567597 0.571178
vt 0.560136 0.543990
vt 0.529705 0.529841
vt 0.487927 0.534135
vt 0.450761 0.555231
vt 0.432403 0.585072
vt 0.439864 0.612260
vt 0.519534 0.649303
vt 0.451937 0.656250
vt 0.579670 0.615168
vt 0.758614 0.514921
vt 0.716837 0.514921
vt 0.710826 0.553983
vt 0.778423 0.553983
vt 0.678774 0.514921
vt 0.649239 0.553983
vt 0.548063 0.500000
vt 0.597302 0.522894
vt 0.480466 0.506947
vt 0.420330 0.541082
vt 0.694511 0.514921
vt 0.736288 0.514921
vt 0.742299 0.553983
vt 0.674702 0.553983
vt 0.774351 0.514921
vt 0.803886 0.553983
vt 0.402698 0.633356
vt 0.678499 0.553983
vt 0.746097 0.553983
vt 0.746097 0.602267
vt 0.678499 0.602267
vt 0.826212 0.553983
vt 0.778423 0.602267
vt 0.826212 0.602267
vt 0.710826 0.602267
vt 0.649239 0.602267
vt 0.823865 0.553983
vt 0.774626 0.553983
vt 0.774626 0.602267
vt 0.823865 0.602267
vt 0.707028 0.553983
vt 0.707028 0.602267
vt 0.626913 0.553983
vt 0.674702 0.602267
vt 0.626913 0.602267
vt 0.742299 0.602267
vt 0.803886 0.602267
vt 0.629260 0.553983
vt 0.629260 0.602267
vt 0.716837 0.641329
vt 0.758614 0.641329
vt 0.678774 0.641329
vt 0.736288 0.641329
vt 0.694511 0.641329
vt 0.774351 0.641329
vt 0.092274 0.375000
vt 0.056734 0.356603
vt 0.076432 0.317440
vt 0.101562 0.330448
vt 0.014503 0.321815
vt 0.046570 0.292840
vt 0.020496 0.287941
vt 0.067371 0.281250
vt 0.058024 0.315277
vt 0.024879 0.320008
vt 0.101562 0.316790
vt 0.082201 0.340407
vt 0.043352 0.323820
vt 0.085583 0.358609
vt 0.096831 0.318858
vt 0.066970 0.294259
vt 0.088879 0.358609
vt 0.042004 0.375000
vt 0.040087 0.330448
vt 0.073233 0.318858
vt 0.015910 0.317440
vt 0.046723 0.291616
vt 0.015910 0.349869
vt 0.046723 0.354109
vt 0.073233 0.370269
vt 0.661166 0.414051
vt 0.614291 0.388509
vt 0.604736 0.442552
vt 0.637882 0.460613
vt 0.570312 0.382812
vt 0.573638 0.438524
vt 0.671875 0.447954
vt 0.691721 0.401079
vt 0.741619 0.417986
vt 0.727586 0.451131
vt 0.573209 0.402658
vt 0.620084 0.428200
vt 0.608832 0.470618
vt 0.575687 0.452557
vt 0.721646 0.382812
vt 0.765625 0.411421
vt 0.741492 0.425299
vt 0.710395 0.405069
vt 0.722959 0.411421
vt 0.703113 0.458296
vt 0.749675 0.458444
vt 0.763708 0.425299
vt 0.739444 0.458444
vt 0.706299 0.471361
vt 0.704037 0.441747
vt 0.675201 0.451131
vt 0.677249 0.417986
vt 0.054100 0.315259
vt 0.037419 0.362134
vt 0.085452 0.357914
vt 0.097248 0.324769
vt 0.091430 0.310856
vt 0.044555 0.287713
vt 0.037565 0.342525
vt 0.070711 0.358890
vt 0.007812 0.281250
vt 0.011585 0.337955
vt 0.007812 0.340991
vt 0.024494 0.294116
vt 0.076313 0.309818
vt 0.064517 0.342964
vt 0.017945 0.297931
vt 0.064820 0.321075
vt 0.051896 0.366115
vt 0.018750 0.349750
vt 0.064820 0.281250
vt 0.101562 0.315259
vt 0.077876 0.324769
vt 0.051896 0.300721
vt 0.070711 0.357914
vt 0.040606 0.336244
vt 0.037565 0.367012
vt 0.011585 0.342964
vt 0.018750 0.309818
vt 0.500000 0.578125
vt 0.537578 0.618630
vt 0.495800 0.626409
vt 0.565002 0.595380
vt 0.567597 0.565539
vt 0.544373 0.540505
vt 0.504200 0.529841
vt 0.462422 0.537620
vt 0.434998 0.560870
vt 0.432403 0.590711
vt 0.455627 0.615745
vt 0.722363 0.514921
vt 0.764140 0.514921
vt 0.787365 0.553983
vt 0.719767 0.553983
vt 0.605175 0.606044
vt 0.560802 0.643664
vt 0.750719 0.514921
vt 0.708942 0.514921
vt 0.698051 0.553983
vt 0.765649 0.553983
vt 0.673895 0.514921
vt 0.641344 0.553983
vt 0.770936 0.514921
vt 0.730762 0.514921
vt 0.733358 0.553983
vt 0.798360 0.553983
vt 0.688985 0.514921
vt 0.665760 0.553983
vt 0.394825 0.550206
vt 0.439198 0.512586
vt 0.702406 0.514921
vt 0.744183 0.514921
vt 0.755074 0.553983
vt 0.687476 0.553983
vt 0.779230 0.514921
vt 0.811781 0.553983
vt 0.682189 0.514921
vt 0.654765 0.553983
vt 0.787365 0.602267
vt 0.719767 0.602267
vt 0.818317 0.553983
vt 0.765649 0.602267
vt 0.818317 0.602267
vt 0.698051 0.602267
vt 0.641344 0.602267
vt 0.733358 0.602267
vt 0.798360 0.602267
vt 0.665760 0.602267
vt 0.634808 0.553983
vt 0.687476 0.602267
vt 0.634808 0.602267
vt 0.755074 0.602267
vt 0.811781 0.602267
vt 0.654765 0.602267
vt 0.764140 0.641329
vt 0.722363 0.641329
vt 0.708942 0.641329
vt 0.750719 0.641329
vt 0.673895 0.641329
vt 0.730762 0.641329
vt 0.770936 0.641329
vt 0.688985 0.641329
vt 0.744183 0.641329
vt 0.702406 0.641329
vt 0.779230 0.641329
vt 0.682189 0.641329
vt 0.023939 0.338334
vt 0.007812 0.291459
vt 0.067223 0.293887
vt 0.078626 0.327033
vt 0.023200 0.281250
vt 0.070075 0.281735
vt 0.063749 0.341004
vt 0.030604 0.340661
vt 0.101562 0.298346
vt 0.086014 0.352749
vt 0.024908 0.317916
vt 0.041035 0.364791
vt 0.090715 0.345740
vt 0.079312 0.312595
vt 0.086175 0.314472
vt 0.039300 0.313987
vt 0.041988 0.363809
vt 0.075134 0.364152
vt 0.040550 0.375000
vt 0.090372 0.352959
vt 0.019723 0.327033
vt 0.030604 0.293887
vt 0.052115 0.316371
vt 0.063749 0.286668
vt 0.086014 0.312595
vt 0.075134 0.345740
vt 0.041988 0.352959
vt 0.081725 0.327465
vt 0.034850 0.326070
vt 0.038929 0.369663
vt 0.072075 0.370649
vt 0.052633 0.375000
vt 0.029525 0.333613
vt 0.079886 0.318883
vt 0.096225 0.348148
vt 0.007812 0.286738
vt 0.064532 0.285737
vt 0.027650 0.281250
vt 0.074525 0.282645
vt 0.066984 0.338956
vt 0.033838 0.337970
vt 0.009207 0.281250
vt 0.032315 0.322637
vt 0.081858 0.311122
vt 0.065519 0.281857
vt 0.054028 0.369512
vt 0.097211 0.344268
vt 0.072075 0.344268
vt 0.038929 0.348148
vt 0.052239 0.309567
vt 0.019811 0.318883
vt 0.033838 0.285737
vt 0.052239 0.375000
vt 0.066984 0.281857
vt 0.086102 0.311122
vt 0.714012 0.416341
vt 0.671875 0.444194
vt 0.704650 0.476562
vt 0.734446 0.456867
vt 0.639166 0.382812
vt 0.592291 0.383791
vt 0.598663 0.416280
vt 0.631809 0.415588
vt 0.672854 0.441357
vt 0.715969 0.410666
vt 0.735830 0.452854
vt 0.705342 0.474556
vt 0.758106 0.382812
vt 0.765625 0.433159
vt 0.696772 0.382812
vt 0.743647 0.385650
vt 0.735435 0.435166
vt 0.702289 0.433159
vt 0.757128 0.385650
vt 0.764933 0.435166
vt 0.649413 0.445383
vt 0.615887 0.454420
vt 0.583122 0.446767
vt 0.600727 0.476562
vt 0.717449 0.471991
vt 0.633872 0.475871
vt 0.500000 0.578125
vt 0.491470 0.626409
vt 0.452951 0.624423
vt 0.533247 0.609952
vt 0.562326 0.581338
vt 0.567597 0.551497
vt 0.547049 0.531827
vt 0.508530 0.529841
vt 0.466753 0.546298
vt 0.437674 0.574912
vt 0.432403 0.604753
vt 0.486198 0.656250
vt 0.423872 0.653037
vt 0.553795 0.629622
vt 0.600845 0.583324
vt 0.731061 0.514921
vt 0.689283 0.514921
vt 0.666243 0.553983
vt 0.733841 0.553983
vt 0.576128 0.503213
vt 0.609375 0.535040
vt 0.513802 0.500000
vt 0.446205 0.526628
vt 0.399155 0.572926
vt 0.722064 0.514921
vt 0.763842 0.514921
vt 0.786882 0.553983
vt 0.719284 0.553983
vt 0.390625 0.621210
vt 0.650435 0.553983
vt 0.712761 0.553983
vt 0.712761 0.602267
vt 0.650435 0.602267
vt 0.780358 0.553983
vt 0.780358 0.602267
vt 0.798658 0.553983
vt 0.733841 0.602267
vt 0.798658 0.602267
vt 0.666243 0.602267
vt 0.621686 0.553983
vt 0.621686 0.602267
vt 0.802690 0.553983
vt 0.740364 0.553983
vt 0.740364 0.602267
vt 0.802690 0.602267
vt 0.672767 0.553983
vt 0.672767 0.602267
vt 0.654467 0.553983
vt 0.719284 0.602267
vt 0.654467 0.602267
vt 0.786882 0.602267
vt 0.831439 0.553983
vt 0.831439 0.602267
vt 0.689283 0.641329
vt 0.731061 0.641329
vt 0.763842 0.641329
vt 0.722064 0.641329
vt 0.741877 0.393721
vt 0.695002 0.403763
vt 0.705974 0.459579
vt 0.739120 0.452478
vt 0.764737 0.403763
vt 0.717862 0.403330
vt 0.715331 0.459273
vt 0.748476 0.459579
vt 0.671875 0.392855
vt 0.682813 0.451866
vt 0.695623 0.392855
vt 0.742498 0.382812
vt 0.739559 0.444765
vt 0.706413 0.451866
vt 0.672763 0.382812
vt 0.719638 0.383246
vt 0.716587 0.445071
vt 0.683441 0.444765
vt 0.765625 0.393721
vt 0.749104 0.452478
vt 0.647542 0.450057
vt 0.646914 0.416911
vt 0.613240 0.435367
vt 0.613768 0.400558
vt 0.581250 0.417350
vt 0.581879 0.450496
vt 0.615024 0.466849
vt 0.053150 0.292488
vt 0.092067 0.281250
vt 0.101562 0.323351
vt 0.074044 0.331298
vt 0.044044 0.281250
vt 0.090919 0.306533
vt 0.067924 0.341229
vt 0.034778 0.323351
vt 0.088856 0.306533
vt 0.046729 0.343054
vt 0.069504 0.367053
vt 0.099292 0.341229
vt 0.101562 0.320167
vt 0.065331 0.281250
vt 0.049830 0.315423
vt 0.075450 0.342942
vt 0.018456 0.284460
vt 0.016684 0.317693
vt 0.011023 0.329010
vt 0.044256 0.357122
vt 0.009158 0.331298
vt 0.037175 0.362183
vt 0.067924 0.372730
vt 0.037175 0.354256
vt 0.080818 0.362183
vt 0.671875 0.409428
vt 0.711102 0.392821
vt 0.719881 0.449302
vt 0.692144 0.461045
vt 0.757977 0.382812
vt 0.753027 0.442225
vt 0.689913 0.382812
vt 0.736788 0.389412
vt 0.727791 0.446891
vt 0.694645 0.442225
vt 0.765625 0.389412
vt 0.726398 0.406019
vt 0.730698 0.458634
vt 0.758435 0.446891
vt 0.679523 0.416027
vt 0.697552 0.465711
vt 0.747587 0.416027
vt 0.700712 0.409428
vt 0.702282 0.461045
vt 0.735427 0.465711
vt 0.600719 0.403081
vt 0.580328 0.430819
vt 0.611936 0.438936
vt 0.593083 0.463964
vt 0.626229 0.469372
vt 0.646619 0.441635
vt 0.633865 0.408489
vt 0.649652 0.620692
vt 0.682116 0.606580
vt 0.649652 0.592046
vt 0.682116 0.635226
vt 0.649652 0.649337
vt 0.617188 0.634803
vt 0.617188 0.606157
vt 0.423089 0.500505
vt 0.455553 0.500000
vt 0.609375 0.650735
vt 0.520836 0.652112
vt 0.617188 0.606580
vt 0.617896 0.635226
vt 0.830150 0.617765
vt 0.828217 0.539640
vt 0.455553 0.500506
vt 0.423089 0.501517
vt 0.520836 0.654873
vt 0.609375 0.652116
vt 0.390625 0.502022
vt 0.432297 0.656250
vt 0.620018 0.634803
vt 0.619310 0.606157
vt 0.834005 0.538485
vt 0.835938 0.616610
vt 0.390625 0.501516
vt 0.432297 0.654869
vt 0.747399 0.500000
vt 0.835938 0.539640
vt 0.747399 0.578125
vt 0.835938 0.617765
vt 0.747399 0.656250
vt 0.658860 0.616610
vt 0.658860 0.538485
vt 0.638772 0.528334
vt 0.660356 0.513808
vt 0.638772 0.500000
vt 0.660356 0.542142
vt 0.638772 0.556667
vt 0.617188 0.542859
vt 0.617188 0.514525
vt 0.412209 0.501697
vt 0.433794 0.500417
vt 0.609375 0.650402
vt 0.550508 0.653895
vt 0.617771 0.513808
vt 0.617188 0.542142
vt 0.826159 0.616636
vt 0.827751 0.539362
vt 0.433794 0.500000
vt 0.412209 0.500864
vt 0.550508 0.651621
vt 0.609375 0.649266
vt 0.390625 0.502144
vt 0.491642 0.655113
vt 0.620189 0.542859
vt 0.620773 0.514525
vt 0.835938 0.541317
vt 0.834346 0.618591
vt 0.390625 0.502561
vt 0.491642 0.656250
vt 0.777071 0.501703
vt 0.835937 0.539362
vt 0.777071 0.578976
vt 0.835938 0.616636
vt 0.777071 0.656250
vt 0.718204 0.618591
vt 0.718204 0.541317
vt 0.642863 0.515020
vt 0.668538 0.507242
vt 0.642863 0.500000
vt 0.668538 0.522262
vt 0.642863 0.530040
vt 0.617188 0.522798
vt 0.617188 0.507778
vt 0.416300 0.501564
vt 0.441975 0.500770
vt 0.609375 0.654017
vt 0.539352 0.656184
vt 0.618265 0.507242
vt 0.617188 0.522262
vt 0.829871 0.635038
vt 0.832811 0.594074
vt 0.441975 0.500000
vt 0.416300 0.500024
vt 0.539352 0.651984
vt 0.609375 0.651917
vt 0.390625 0.500819
vt 0.469329 0.654150
vt 0.618334 0.522798
vt 0.619412 0.507778
vt 0.835938 0.595534
vt 0.832998 0.636498
vt 0.390625 0.501589
vt 0.469329 0.656250
vt 0.765914 0.574322
vt 0.835938 0.594074
vt 0.765914 0.615286
vt 0.835938 0.635038
vt 0.765914 0.656250
vt 0.695891 0.636498
vt 0.695891 0.595534
vn 0.027585 -0.994237 0.103592
vn 0.077238 -0.993550 0.083017
vn 0.111516 -0.992696 0.046031
vn 0.123726 -0.992316 0.000000
vn 0.111516 -0.992696 -0.046031
vn 0.077238 -0.993550 -0.083017
vn 0.027585 -0.994237 -0.103592
vn -0.027585 -0.994237 -0.103592
vn -0.077238 -0.993550 -0.083017
vn -0.111516 -0.992696 -0.046031
vn -0.123726 -0.992316 -0.000000
vn -0.111516 -0.992696 0.046031
vn -0.077238 -0.993550 0.083017
vn -0.027585 -0.994237 0.103592
vn 0.087628 -0.940228 0.329078
vn 0.243833 -0.933735 0.262078
vn 0.349364 -0.925823 0.144210
vn 0.386317 -0.922366 0.000000
vn 0.349364 -0.925823 -0.144210
vn 0.243833 -0.933735 -0.262078
vn 0.087628 -0.940228 -0.329078
vn -0.087628 -0.940228 -0.329078
vn -0.243833 -0.933735 -0.262078
vn -0.349364 -0.925823 -0.144210
vn -0.386317 -0.922366 -0.000000
vn -0.349364 -0.925823 0.144210
vn -0.243833 -0.933735 0.262078
vn -0.087628 -0.940228 0.329078
vn 0.162112 -0.776587 0.608795
vn 0.443754 -0.758679 0.476957
vn 0.623759 -0.737992 0.257474
vn 0.684179 -0.729314 0.000000
vn 0.623759 -0.737992 -0.257474
vn 0.443754 -0.758679 -0.476957
vn 0.162112 -0.776587 -0.608795
vn -0.162112 -0.776587 -0.608795
vn -0.443754 -0.758679 -0.476957
vn -0.623759 -0.737992 -0.257474
vn -0.684179 -0.729314 -0.000000
vn -0.623759 -0.737992 0.257474
vn -0.443754 -0.758679 0.476957
vn -0.162112 -0.776587 0.608795
vn 0.241567 -0.344493 0.907177
vn 0.643585 -0.327560 0.691740
vn 0.878940 -0.309573 0.362807
vn 0.953159 -0.302468 0.000000
vn 0.878940 -0.309573 -0.362807
vn 0.643585 -0.327560 -0.691740
vn 0.241567 -0.344493 -0.907177
vn -0.241567 -0.344493 -0.907177
vn -0.643585 -0.327560 -0.691740
vn -0.878940 -0.309573 -0.362807
vn -0.953159 -0.302468 -0.000000
vn -0.878940 -0.309573 0.362807
vn -0.643585 -0.327560 0.691740
vn -0.241567 -0.344493 0.907177
vn 0.241567 0.344493 0.907177
vn 0.643585 0.327560 0.691740
vn 0.878940 0.309573 0.362807
vn 0.953159 0.302468 0.000000
vn 0.878940 0.309573 -0.362807
vn 0.643585 0.327560 -0.691740
vn 0.241567 0.344493 -0.907177
vn -0.241567 0.344493 -0.907177
vn -0.643585 0.327560 -0.691740
vn -0.878940 0.309573 -0.362807
vn -0.953159 0.302468 -0.000000
vn -0.878940 0.309573 0.362807
vn -0.643585 0.327560 0.691740
vn -0.241567 0.344493 0.907177
vn 0.162112 0.776587 0.608795
vn 0.443754 0.758679 0.476957
vn 0.623759 0.737992 0.257474
vn 0.684179 0.729314 0.000000
vn 0.623759 0.737992 -0.257474
vn 0.443754 0.758679 -0.476957
vn 0.162112 0.776587 -0.608795
vn -0.162112 0.776587 -0.608795
vn -0.443754 0.758679 -0.476957
vn -0.623759 0.737992 -0.257474
vn -0.684179 0.729314 -0.000000
vn -0.623759 0.737992 0.257474
vn -0.443754 0.758679 0.476957
vn -0.162112 0.776587 0.608795
vn 0.087628 0.940228 0.329078
vn 0.243833 0.933735 0.262078
vn 0.349364 0.925823 0.144210
vn 0.386317 0.922366 0.000000
vn 0.349364 0.925823 -0.144210
vn 0.243833 0.933735 -0.262078
vn 0.087628 0.940228 -0.329078
vn -0.087628 0.940228 -0.329078
vn -0.243833 0.933735 -0.262078
vn -0.349364 0.925823 -0.144210
vn -0.386317 0.922366 -0.000000
vn -0.349364 0.925823 0.144210
vn -0.243833 0.933735 0.262078
vn -0.087628 0.940228 0.329078
vn 0.027585 0.994237 0.103592
vn 0.077238 0.993550 0.083017
vn 0.111516 0.992696 0.046031
vn 0.123726 0.992316 0.000000
vn 0.111516 0.992696 -0.046031
vn 0.077238 0.993550 -0.083017
vn 0.027585 0.994237 -0.103592
vn -0.027585 0.994237 -0.103592
vn -0.077238 0.993550 -0.083017
vn -0.111516 0.992696 -0.046031
vn -0.123726 0.992316 -0.000000
vn -0.111516 0.992696 0.046031
vn -0.077238 0.993550 0.083017
vn -0.027585 0.994237 0.103592
vn 0.009543 -0.978279 0.207071
vn 0.162280 -0.968574 0.188496
vn 0.251595 -0.962718 0.099371
vn 0.247287 -0.968574 -0.026732
vn 0.148465 -0.978279 -0.144664
vn -0.009543 -0.978279 -0.207071
vn -0.162280 -0.968574 -0.188496
vn -0.251595 -0.962718 -0.099371
vn -0.247287 -0.968574 0.026732
vn -0.148465 -0.978279 0.144664
vn 0.030750 -0.744184 0.667267
vn 0.480324 -0.676768 0.557919
vn 0.712118 -0.643258 0.281261
vn 0.731932 -0.676768 -0.079122
vn 0.478415 -0.744184 -0.466165
vn -0.030750 -0.744184 -0.667267
vn -0.480324 -0.676768 -0.557919
vn -0.712118 -0.643258 -0.281261
vn -0.731932 -0.676768 0.079122
vn -0.478415 -0.744184 0.466165
vn 0.046035 0.000000 0.998940
vn 0.652440 -0.000000 0.757841
vn 0.930083 -0.000000 0.367349
vn 0.994208 0.000000 -0.107474
vn 0.716217 -0.000000 -0.697877
vn -0.046035 0.000000 -0.998940
vn -0.652440 0.000000 -0.757841
vn -0.930083 -0.000000 -0.367349
vn -0.994208 0.000000 0.107474
vn -0.716217 -0.000000 0.697877
vn 0.030750 0.744184 0.667267
vn 0.480324 0.676768 0.557919
vn 0.712118 0.643258 0.281261
vn 0.731932 0.676768 -0.079122
vn 0.478415 0.744184 -0.466165
vn -0.030750 0.744184 -0.667267
vn -0.480324 0.676768 -0.557919
vn -0.712118 0.643258 -0.281261
vn -0.731932 0.676768 0.079122
vn -0.478415 0.744184 0.466165
vn 0.009543 0.978279 0.207071
vn 0.162280 0.968574 0.188496
vn 0.251595 0.962718 0.099371
vn 0.247287 0.968574 -0.026732
vn 0.148465 0.978279 -0.144664
vn -0.009543 0.978279 -0.207071
vn -0.162280 0.968574 -0.188496
vn -0.251595 0.962718 -0.099371
vn -0.247287 0.968574 0.026732
vn -0.148465 0.978279 0.144664
vn -0.699063 0.023590 0.714671
vn -0.951045 -0.274588 -0.141825
vn -0.300355 -0.609096 -0.734022
vn 0.602317 -0.645424 -0.469725
vn 0.854300 -0.347246 0.386771
vn 0.203610 -0.012738 0.978969
vn -0.427516 -0.677355 0.598682
vn -0.543025 -0.814040 0.206064
vn -0.244748 -0.967378 -0.065399
vn 0.169037 -0.984031 0.055755
vn 0.284546 -0.847346 0.448373
vn -0.013731 -0.694008 0.719836
vn -0.930824 -0.302952 -0.204419
vn -0.233493 -0.610527 -0.756794
vn 0.651315 -0.621133 -0.435870
vn 0.838793 -0.324163 0.437430
vn 0.141462 -0.016587 0.989805
vn -0.743346 -0.005982 0.668880
vn -0.528538 -0.832886 0.164161
vn -0.208881 -0.973878 -0.089048
vn 0.196715 -0.978740 0.058064
vn 0.282655 -0.842609 0.458385
vn -0.037002 -0.701616 0.711594
vn -0.442598 -0.696755 0.564482
vn -0.832058 0.522540 -0.186092
vn -0.922251 -0.332101 0.197892
vn -0.203022 -0.714386 0.669653
vn 0.606400 -0.242028 0.757431
vn 0.696593 0.612614 0.373447
vn -0.022636 0.994898 -0.098315
vn -0.631146 0.549969 0.546982
vn -0.672491 0.158201 0.723000
vn -0.342796 -0.017038 0.939255
vn 0.028244 0.199490 0.979493
vn 0.069588 0.591258 0.803474
vn -0.260107 0.766498 0.587219
vn 0.044119 -0.978349 0.202207
vn 0.212927 -0.960959 0.176690
vn 0.297963 -0.950665 0.086342
vn 0.274407 -0.960959 -0.035472
vn 0.145395 -0.978349 -0.147290
vn -0.044119 -0.978349 -0.202207
vn -0.212927 -0.960959 -0.176690
vn -0.297963 -0.950665 -0.086342
vn -0.274407 -0.960959 0.035472
vn -0.145395 -0.978349 0.147290
vn 0.142264 -0.744731 0.652025
vn 0.595106 -0.634023 0.493826
vn 0.778202 -0.586131 0.225504
vn 0.766933 -0.634023 -0.099140
vn 0.468832 -0.744731 -0.474944
vn -0.142264 -0.744731 -0.652025
vn -0.595106 -0.634023 -0.493826
vn -0.778202 -0.586131 -0.225504
vn -0.766933 -0.634023 0.099140
vn -0.468832 -0.744731 0.474944
vn 0.213172 0.000000 0.977015
vn 0.769552 0.000000 0.638584
vn 0.960487 -0.000000 0.278326
vn 0.991748 0.000000 -0.128201
vn 0.702512 0.000000 -0.711672
vn -0.213172 0.000000 -0.977015
vn -0.769552 0.000000 -0.638584
vn -0.960487 -0.000000 -0.278326
vn -0.991748 0.000000 0.128201
vn -0.702512 -0.000000 0.711672
vn 0.142264 0.744731 0.652025
vn 0.595106 0.634023 0.493826
vn 0.778202 0.586131 0.225504
vn 0.766933 0.634023 -0.099140
vn 0.468832 0.744731 -0.474944
vn -0.142264 0.744731 -0.652025
vn -0.595106 0.634023 -0.493826
vn -0.778202 0.586131 -0.225504
vn -0.766933 0.634023 0.099140
vn -0.468832 0.744731 0.474944
vn 0.044119 0.978349 0.202207
vn 0.212927 0.960959 0.176690
vn 0.297963 0.950665 0.086342
vn 0.274407 0.960959 -0.035472
vn 0.145395 0.978349 -0.147290
vn -0.044119 0.978349 -0.202207
vn -0.212927 0.960959 -0.176690
vn -0.297963 0.950665 -0.086342
vn -0.274407 0.960959 0.035472
vn -0.145395 0.978349 0.147290
vn -0.713363 0.190791 0.674324
vn -0.951216 -0.292736 -0.097440
vn -0.292576 -0.758029 -0.582916
vn 0.603916 -0.739795 -0.296630
vn 0.841769 -0.256267 0.475134
vn 0.183130 0.209026 0.960610
vn -0.448128 -0.520110 0.727095
vn -0.557159 -0.741759 0.373319
vn -0.255239 -0.955050 0.150776
vn 0.155713 -0.946691 0.282010
vn 0.264745 -0.725042 0.635786
vn -0.037175 -0.511752 0.858329
vn 0.318172 0.924636 0.209321
vn -0.586845 0.809392 -0.022309
vn -0.996076 -0.031747 0.082608
vn -0.500290 -0.757641 0.419155
vn 0.404728 -0.642397 0.650785
vn 0.813959 0.198742 0.545868
vn -0.055694 0.608663 0.791472
vn -0.470555 0.555835 0.685293
vn -0.658146 0.170257 0.733387
vn -0.430877 -0.162493 0.887660
vn -0.016017 -0.109665 0.993840
vn 0.171575 0.275913 0.945745
vn 0.793128 0.289765 0.535708
vn 0.189204 0.950793 0.245347
vn -0.696608 0.716845 0.029487
vn -0.978497 -0.178129 0.103989
vn -0.374573 -0.839156 0.394350
vn 0.511240 -0.605209 0.610210
vn 0.158427 0.256374 0.953506
vn -0.118412 0.559389 0.820404
vn -0.524468 0.452148 0.721454
vn -0.653686 0.041891 0.755605
vn -0.376847 -0.261124 0.888707
vn 0.029209 -0.153882 0.987657
vn 0.073835 -0.964829 0.252295
vn 0.219919 -0.961457 0.165035
vn 0.281652 -0.959390 0.015586
vn 0.236785 -0.961457 -0.139762
vn 0.101222 -0.964829 -0.242608
vn -0.073835 -0.964829 -0.252295
vn -0.219919 -0.961457 -0.165035
vn -0.281652 -0.959390 -0.015586
vn -0.236785 -0.961457 0.139762
vn -0.101222 -0.964829 0.242608
vn 0.212278 -0.654830 0.725352
vn 0.616825 -0.636601 0.462889
vn 0.778577 -0.626068 0.043085
vn 0.664133 -0.636601 -0.392004
vn 0.291015 -0.654830 -0.697501
vn -0.212278 -0.654830 -0.725352
vn -0.616825 -0.636601 -0.462889
vn -0.778577 -0.626068 -0.043085
vn -0.664133 -0.636601 0.392004
vn -0.291015 -0.654830 0.697501
vn 0.280874 0.000000 0.959745
vn 0.799832 0.000000 0.600224
vn 0.998472 0.000000 0.055253
vn 0.861176 0.000000 -0.508308
vn 0.385055 0.000000 -0.922894
vn -0.280874 0.000000 -0.959745
vn -0.799832 0.000000 -0.600224
vn -0.998472 0.000000 -0.055253
vn -0.861176 0.000000 0.508308
vn -0.385055 0.000000 0.922894
vn 0.212278 0.654830 0.725352
vn 0.616825 0.636601 0.462889
vn 0.778577 0.626068 0.043085
vn 0.664133 0.636601 -0.392004
vn 0.291015 0.654830 -0.697501
vn -0.212278 0.654830 -0.725352
vn -0.616825 0.636601 -0.462889
vn -0.778577 0.626068 -0.043085
vn -0.664133 0.636601 0.392004
vn -0.291015 0.654830 0.697501
vn 0.073835 0.964829 0.252295
vn 0.219919 0.961457 0.165035
vn 0.281652 0.959390 0.015586
vn 0.236785 0.961457 -0.139762
vn 0.101222 0.964829 -0.242608
vn -0.073835 0.964829 -0.252295
vn -0.219919 0.961457 -0.165035
vn -0.281652 0.959390 -0.015586
vn -0.236785 0.961457 0.139762
vn -0.101222 0.964829 0.242608
vn -0.907998 -0.361983 0.210968
vn -0.200969 -0.974067 0.103942
vn 0.688881 -0.690389 0.220920
vn 0.871703 0.205373 0.444923
vn 0.164674 0.817457 0.551948
vn -0.725176 0.533779 0.434970
vn -0.456394 -0.339250 0.822566
vn -0.132292 -0.619830 0.773505
vn 0.275616 -0.489791 0.827128
vn 0.359422 -0.079174 0.929811
vn 0.035319 0.201406 0.978871
vn -0.372588 0.071368 0.925248
vn 0.065484 0.764994 0.640700
vn -0.786911 0.407086 0.463737
vn -0.869937 -0.472864 0.140033
vn -0.100568 -0.994908 -0.006708
vn 0.751827 -0.637000 0.170255
vn 0.834853 0.242951 0.493958
vn -0.008808 0.096234 0.995320
vn -0.399546 -0.067831 0.914200
vn -0.437605 -0.471201 0.765814
vn -0.084926 -0.710506 0.698548
vn 0.305812 -0.546441 0.779668
vn 0.343871 -0.143071 0.928054
vn 0.788068 0.561581 -0.252144
vn -0.043156 0.762646 -0.645374
vn -0.840583 0.493153 -0.224097
vn -0.806786 0.022594 0.590411
vn 0.024438 -0.178471 0.983642
vn 0.821865 0.091022 0.562364
vn 0.340535 0.903922 0.258770
vn -0.040499 0.996090 0.078513
vn -0.406039 0.872554 0.271626
vn -0.390547 0.656850 0.644997
vn -0.009514 0.564682 0.825254
vn 0.356027 0.688217 0.632140
vn -0.015830 -0.982717 0.184438
vn 0.129712 -0.971626 0.197782
vn 0.223981 -0.964957 0.136716
vn 0.235202 -0.971626 0.024958
vn 0.156805 -0.982717 -0.098388
vn 0.015830 -0.982717 -0.184438
vn -0.129712 -0.971626 -0.197782
vn -0.223981 -0.964957 -0.136716
vn -0.235202 -0.971626 -0.024958
vn -0.156805 -0.982717 0.098388
vn -0.053335 -0.781647 0.621436
vn 0.393693 -0.696169 0.600295
vn 0.644568 -0.655545 0.393438
vn 0.713870 -0.696169 0.075751
vn 0.528330 -0.781647 -0.331504
vn 0.053335 -0.781647 -0.621436
vn -0.393693 -0.696169 -0.600295
vn -0.644568 -0.655545 -0.393438
vn -0.713870 -0.696169 -0.075751
vn -0.528330 -0.781647 0.331504
vn -0.085512 0.000000 0.996337
vn 0.548412 0.000000 0.836208
vn 0.853555 -0.000000 0.521002
vn 0.994417 0.000000 0.105521
vn 0.847062 0.000000 -0.531494
vn 0.085512 0.000000 -0.996337
vn -0.548412 -0.000000 -0.836208
vn -0.853555 0.000000 -0.521002
vn -0.994417 0.000000 -0.105521
vn -0.847062 0.000000 0.531494
vn -0.053335 0.781647 0.621436
vn 0.393693 0.696169 0.600295
vn 0.644568 0.655545 0.393438
vn 0.713870 0.696169 0.075751
vn 0.528330 0.781647 -0.331504
vn 0.053335 0.781647 -0.621436
vn -0.393693 0.696169 -0.600295
vn -0.644568 0.655545 -0.393438
vn -0.713870 0.696169 -0.075751
vn -0.528330 0.781647 0.331504
vn -0.015830 0.982717 0.184438
vn 0.129712 0.971626 0.197782
vn 0.223981 0.964957 0.136716
vn 0.235202 0.971626 0.024958
vn 0.156805 0.982717 -0.098388
vn 0.015830 0.982717 -0.184438
vn -0.129712 0.971626 -0.197782
vn -0.223981 0.964957 -0.136716
vn -0.235202 0.971626 -0.024958
vn -0.156805 0.982717 0.098388
vn 0.913811 0.404759 0.033470
vn 0.431042 0.466841 -0.772180
vn -0.507560 0.396365 -0.765035
vn -0.963393 0.263806 0.047760
vn -0.480624 0.201724 0.853410
vn 0.457978 0.272200 0.846264
vn 0.364020 0.925427 0.105238
vn 0.142719 0.953885 -0.264072
vn -0.287537 0.921579 -0.260797
vn -0.496490 0.860814 0.111788
vn -0.275189 0.832355 0.481098
vn 0.155066 0.864662 0.477823
vn -0.712435 -0.320162 0.624447
vn 0.153188 -0.188724 0.970009
vn 0.752288 0.389679 0.531238
vn 0.485765 0.836645 -0.253095
vn -0.379857 0.705208 -0.598657
vn -0.978957 0.126804 -0.159886
vn -0.577430 0.424818 0.697212
vn -0.180628 0.485069 0.855618
vn 0.093999 0.750209 0.654485
vn -0.028175 0.955098 0.294947
vn -0.424976 0.894847 0.136541
vn -0.699604 0.629707 0.337674
vn -0.778706 0.353458 -0.518348
vn -0.902056 0.170216 0.396638
vn -0.160622 0.146744 0.976047
vn 0.704163 0.306515 0.640470
vn 0.827513 0.489758 -0.274515
vn 0.086079 0.513230 -0.853924
vn -0.439454 0.892403 -0.102460
vn -0.495997 0.808404 0.316969
vn -0.156124 0.797645 0.582570
vn 0.240294 0.870884 0.428742
vn 0.296838 0.954883 0.009313
vn -0.043036 0.965642 -0.256288
vn -0.121432 0.069545 -0.990160
vn 0.486581 -0.852665 -0.190266
vn 0.981663 0.013356 -0.190156
vn 0.486581 0.870890 -0.069210
vn -0.503583 0.862403 0.051626
vn -0.998666 -0.003618 0.051516
vn -0.503583 -0.861152 -0.069430
vn 0.121432 -0.069545 0.990160
vn -0.208278 -0.068425 -0.975673
vn 0.476294 -0.873679 -0.099143
vn 0.964525 -0.018469 -0.263343
vn 0.476294 0.851289 -0.220117
vn -0.500168 0.865836 -0.012691
vn -0.988399 0.010625 0.151509
vn -0.500168 -0.859132 0.108283
vn 0.208278 0.068425 0.975673
vn -0.112416 -0.178978 -0.977410
vn 0.491838 -0.868561 0.060797
vn 0.988257 -0.027523 -0.150304
vn 0.491838 0.833747 -0.250920
vn -0.500998 0.853978 -0.140435
vn -0.997416 0.012940 0.070666
vn -0.500998 -0.848330 0.171282
vn 0.112416 0.178978 0.977410
f 1/1/1 2/2/1 3/3/1
f 1/1/2 4/4/2 2/2/2
f 1/1/3 5/5/3 4/4/3
f 1/1/4 6/6/4 5/5/4
f 1/1/5 7/7/5 6/6/5
f 1/1/6 8/8/6 7/7/6
f 1/1/7 9/9/7 8/8/7
f 1/1/8 10/10/8 9/9/8
f 1/1/9 11/11/9 10/10/9
f 1/1/10 12/12/10 11/11/10
f 1/1/11 13/13/11 12/12/11
f 1/1/12 14/14/12 13/13/12
f 1/1/13 15/15/13 14/14/13
f 1/1/14 3/3/14 15/15/14
f 3/3/15 2/2/15 16/16/15
f 3/3/15 16/16/15 17/17/15
f 2/2/16 4/4/16 18/18/16
f 2/2/16 18/18/16 16/16/16
f 4/4/17 5/5/17 19/19/17
f 4/4/17 19/19/17 18/18/17
f 5/5/18 6/6/18 20/20/18
f 5/5/18 20/20/18 19/19/18
f 6/6/19 7/7/19 21/21/19
f 6/6/19 21/21/19 20/20/19
f 7/7/20 8/8/20 22/22/20
f 7/7/20 22/22/20 21/21/20
f 8/8/21 9/9/21 23/23/21
f 8/8/21 23/23/21 22/22/21
f 9/9/22 10/10/22 24/24/22
f 9/9/22 24/24/22 23/23/22
f 10/10/23 11/11/23 25/25/23
f 10/10/23 25/25/23 24/24/23
f 11/11/24 12/12/24 26/26/24
f 11/11/24 26/26/24 25/25/24
f 12/12/25 13/13/25 27/27/25
f 12/12/25 27/27/25 26/26/25
f 13/13/26 14/14/26 28/28/26
f 13/13/26 28/28/26 27/27/26
f 14/14/27 15/15/27 29/29/27
f 14/14/27 29/29/27 28/28/27
f 15/15/28 3/3/28 17/17/28
f 15/15/28 17/17/28 29/29/28
f 17/17/29 16/16/29 30/30/29
f 17/17/29 30/30/29 31/31/29
f 16/16/30 18/18/30 32/32/30
f 16/16/30 32/32/30 30/30/30
f 18/18/31 19/19/31 33/33/31
f 18/18/31 33/33/31 32/32/31
f 19/19/32 20/20/32 34/34/32
f 19/19/32 34/34/32 33/33/32
f 20/20/33 21/21/33 35/35/33
f 20/20/33 35/35/33 34/34/33
f 21/21/34 22/22/34 36/36/34
f 21/21/34 36/36/34 35/35/34
f 22/22/35 23/23/35 37/37/35
f 22/22/35 37/37/35 36/36/35
f 23/23/36 24/24/36 38/38/36
f 23/23/36 38/38/36 37/37/36
f 24/24/37 25/25/37 39/39/37
f 24/24/37 39/39/37 38/38/37
f 25/25/38 26/26/38 40/40/38
f 25/25/38 40/40/38 39/39/38
f 26/26/39 27/27/39 41/41/39
f 26/26/39 41/41/39 40/40/39
f 27/27/40 28/28/40 42/42/40
f 27/27/40 42/42/40 41/41/40
f 28/28/41 29/29/41 43/43/41
f 28/28/41 43/43/41 42/42/41
f 29/29/42 17/17/42 31/31/42
f 29/29/42 31/31/42 43/43/42
f 31/44/43 30/45/43 44/46/43
f 31/44/43 44/46/43 45/47/43
f 30/45/44 32/48/44 46/49/44
f 30/45/44 46/49/44 44/46/44
f 32/50/45 33/51/45 47/52/45
f 32/50/45 47/52/45 46/53/45
f 33/51/46 34/54/46 48/55/46
f 33/51/46 48/55/46 47/52/46
f 34/54/47 35/56/47 49/57/47
f 34/54/47 49/57/47 48/55/47
f 35/58/48 36/59/48 50/60/48
f 35/58/48 50/60/48 49/61/48
f 36/59/49 37/62/49 51/63/49
f 36/59/49 51/63/49 50/60/49
f 37/62/50 38/64/50 52/65/50
f 37/62/50 52/65/50 51/63/50
f 38/64/51 39/66/51 53/67/51
f 38/64/51 53/67/51 52/65/51
f 39/56/52 40/54/52 54/55/52
f 39/56/52 54/55/52 53/57/52
f 40/54/53 41/51/53 55/52/53
f 40/54/53 55/52/53 54/55/53
f 41/51/54 42/50/54 56/53/54
f 41/51/54 56/53/54 55/52/54
f 42/68/55 43/69/55 57/70/55
f 42/68/55 57/70/55 56/71/55
f 43/69/56 31/44/56 45/47/56
f 43/69/56 45/47/56 57/70/56
f 45/47/57 44/46/57 58/72/57
f 45/47/57 58/72/57 59/73/57
f 44/46/58 46/49/58 60/74/58
f 44/46/58 60/74/58 58/72/58
f 46/53/59 47/52/59 61/75/59
f 46/53/59 61/75/59 60/76/59
f 47/52/60 48/55/60 62/77/60
f 47/52/60 62/77/60 61/75/60
f 48/55/61 49/57/61 63/78/61
f 48/55/61 63/78/61 62/77/61
f 49/61/62 50/60/62 64/79/62
f 49/61/62 64/79/62 63/80/62
f 50/60/63 51/63/63 65/81/63
f 50/60/63 65/81/63 64/79/63
f 51/63/64 52/65/64 66/82/64
f 51/63/64 66/82/64 65/81/64
f 52/65/65 53/67/65 67/83/65
f 52/65/65 67/83/65 66/82/65
f 53/57/66 54/55/66 68/77/66
f 53/57/66 68/77/66 67/78/66
f 54/55/67 55/52/67 69/75/67
f 54/55/67 69/75/67 68/77/67
f 55/52/68 56/53/68 70/76/68
f 55/52/68 70/76/68 69/75/68
f 56/71/69 57/70/69 71/84/69
f 56/71/69 71/84/69 70/85/69
f 57/70/70 45/47/70 59/73/70
f 57/70/70 59/73/70 71/84/70
f 59/31/71 58/30/71 72/16/71
f 59/31/71 72/16/71 73/17/71
f 58/30/72 60/32/72 74/18/72
f 58/30/72 74/18/72 72/16/72
f 60/32/73 61/33/73 75/19/73
f 60/32/73 75/19/73 74/18/73
f 61/33/74 62/34/74 76/20/74
f 61/33/74 76/20/74 75/19/74
f 62/34/75 63/35/75 77/21/75
f 62/34/75 77/21/75 76/20/75
f 63/35/76 64/36/76 78/22/76
f 63/35/76 78/22/76 77/21/76
f 64/36/77 65/37/77 79/23/77
f 64/36/77 79/23/77 78/22/77
f 65/37/78 66/38/78 80/24/78
f 65/37/78 80/24/78 79/23/78
f 66/38/79 67/39/79 81/25/79
f 66/38/79 81/25/79 80/24/79
f 67/39/80 68/40/80 82/26/80
f 67/39/80 82/26/80 81/25/80
f 68/40/81 69/41/81 83/27/81
f 68/40/81 83/27/81 82/26/81
f 69/41/82 70/42/82 84/28/82
f 69/41/82 84/28/82 83/27/82
f 70/42/83 71/43/83 85/29/83
f 70/42/83 85/29/83 84/28/83
f 71/43/84 59/31/84 73/17/84
f 71/43/84 73/17/84 85/29/84
f 73/17/85 72/16/85 86/2/85
f 73/17/85 86/2/85 87/3/85
f 72/16/86 74/18/86 88/4/86
f 72/16/86 88/4/86 86/2/86
f 74/18/87 75/19/87 89/5/87
f 74/18/87 89/5/87 88/4/87
f 75/19/88 76/20/88 90/6/88
f 75/19/88 90/6/88 89/5/88
f 76/20/89 77/21/89 91/7/89
f 76/20/89 91/7/89 90/6/89
f 77/21/90 78/22/90 92/8/90
f 77/21/90 92/8/90 91/7/90
f 78/22/91 79/23/91 93/9/91
f 78/22/91 93/9/91 92/8/91
f 79/23/92 80/24/92 94/10/92
f 79/23/92 94/10/92 93/9/92
f 80/24/93 81/25/93 95/11/93
f 80/24/93 95/11/93 94/10/93
f 81/25/94 82/26/94 96/12/94
f 81/25/94 96/12/94 95/11/94
f 82/26/95 83/27/95 97/13/95
f 82/26/95 97/13/95 96/12/95
f 83/27/96 84/28/96 98/14/96
f 83/27/96 98/14/96 97/13/96
f 84/28/97 85/29/97 99/15/97
f 84/28/97 99/15/97 98/14/97
f 85/29/98 73/17/98 87/3/98
f 85/29/98 87/3/98 99/15/98
f 87/3/99 86/2/99 100/1/99
f 86/2/100 88/4/100 100/1/100
f 88/4/101 89/5/101 100/1/101
f 89/5/102 90/6/102 100/1/102
f 90/6/103 91/7/103 100/1/103
f 91/7/104 92/8/104 100/1/104
f 92/8/105 93/9/105 100/1/105
f 93/9/106 94/10/106 100/1/106
f 94/10/107 95/11/107 100/1/107
f 95/11/108 96/12/108 100/1/108
f 96/12/109 97/13/109 100/1/109
f 97/13/110 98/14/110 100/1/110
f 98/14/111 99/15/111 100/1/111
f 99/15/112 87/3/112 100/1/112
f 101/86/113 102/87/113 103/88/113
f 101/86/114 104/89/114 102/87/114
f 101/86/115 105/90/115 104/89/115
f 101/86/116 106/91/116 105/90/116
f 101/86/117 107/92/117 106/91/117
f 101/86/118 108/93/118 107/92/118
f 101/86/119 109/94/119 108/93/119
f 101/86/120 110/95/120 109/94/120
f 101/86/121 111/96/121 110/95/121
f 101/86/122 103/88/122 111/96/122
f 103/88/123 102/87/123 112/97/123
f 103/88/123 112/97/123 113/98/123
f 102/87/124 104/89/124 114/99/124
f 102/87/124 114/99/124 112/97/124
f 104/100/125 105/101/125 115/102/125
f 104/100/125 115/102/125 114/103/125
f 105/101/126 106/104/126 116/105/126
f 105/101/126 116/105/126 115/102/126
f 106/91/127 107/92/127 117/106/127
f 106/91/127 117/106/127 116/107/127
f 107/92/128 108/93/128 118/108/128
f 107/92/128 118/108/128 117/106/128
f 108/93/129 109/94/129 119/109/129
f 108/93/129 119/109/129 118/108/129
f 109/110/130 110/111/130 120/112/130
f 109/110/130 120/112/130 119/113/130
f 110/111/131 111/114/131 121/115/131
f 110/111/131 121/115/131 120/112/131
f 111/96/132 103/88/132 113/98/132
f 111/96/132 113/98/132 121/116/132
f 113/117/133 112/118/133 122/119/133
f 113/117/133 122/119/133 123/120/133
f 112/118/134 114/121/134 124/122/134
f 112/118/134 124/122/134 122/119/134
f 114/103/135 115/102/135 125/123/135
f 114/103/135 125/123/135 124/124/135
f 115/102/136 116/105/136 126/125/136
f 115/102/136 126/125/136 125/123/136
f 116/105/137 117/126/137 127/127/137
f 116/105/137 127/127/137 126/125/137
f 117/128/138 118/129/138 128/130/138
f 117/128/138 128/130/138 127/131/138
f 118/129/139 119/132/139 129/133/139
f 118/129/139 129/133/139 128/130/139
f 119/113/140 120/112/140 130/134/140
f 119/113/140 130/134/140 129/135/140
f 120/112/141 121/115/141 131/136/141
f 120/112/141 131/136/141 130/134/141
f 121/115/142 113/137/142 123/138/142
f 121/115/142 123/138/142 131/136/142
f 123/98/143 122/97/143 132/87/143
f 123/98/143 132/87/143 133/88/143
f 122/97/144 124/99/144 134/89/144
f 122/97/144 134/89/144 132/87/144
f 124/124/145 125/123/145 135/139/145
f 124/124/145 135/139/145 134/140/145
f 125/123/146 126/125/146 136/141/146
f 125/123/146 136/141/146 135/139/146
f 126/107/147 127/106/147 137/92/147
f 126/107/147 137/92/147 136/91/147
f 127/106/148 128/108/148 138/93/148
f 127/106/148 138/93/148 137/92/148
f 128/108/149 129/109/149 139/94/149
f 128/108/149 139/94/149 138/93/149
f 129/135/150 130/134/150 140/142/150
f 129/135/150 140/142/150 139/143/150
f 130/134/151 131/136/151 141/144/151
f 130/134/151 141/144/151 140/142/151
f 131/116/152 123/98/152 133/88/152
f 131/116/152 133/88/152 141/96/152
f 133/88/153 132/87/153 142/86/153
f 132/87/154 134/89/154 142/86/154
f 134/89/155 135/90/155 142/86/155
f 135/90/156 136/91/156 142/86/156
f 136/91/157 137/92/157 142/86/157
f 137/92/158 138/93/158 142/86/158
f 138/93/159 139/94/159 142/86/159
f 139/94/160 140/95/160 142/86/160
f 140/95/161 141/96/161 142/86/161
f 141/96/162 133/88/162 142/86/162
f 143/145/163 144/146/163 145/147/163
f 143/145/163 145/147/163 146/148/163
f 144/149/164 147/150/164 148/151/164
f 144/149/164 148/151/164 145/152/164
f 147/153/165 149/154/165 150/155/165
f 147/153/165 150/155/165 148/156/165
f 149/157/166 151/158/166 152/159/166
f 149/157/166 152/159/166 150/160/166
f 151/161/167 153/162/167 154/163/167
f 151/161/167 154/163/167 152/164/167
f 153/165/168 143/145/168 146/148/168
f 153/165/168 146/148/168 154/166/168
f 146/167/169 145/168/169 155/169/169
f 145/168/170 148/170/170 155/169/170
f 148/170/171 150/160/171 155/169/171
f 150/160/172 152/159/172 155/169/172
f 152/159/173 154/171/173 155/169/173
f 154/166/174 146/148/174 155/172/174
f 156/173/175 157/174/175 158/175/175
f 156/173/175 158/175/175 159/176/175
f 157/177/176 160/178/176 161/179/176
f 157/177/176 161/179/176 158/180/176
f 160/181/177 162/182/177 163/183/177
f 160/181/177 163/183/177 161/184/177
f 162/182/178 164/185/178 165/186/178
f 162/182/178 165/186/178 163/183/178
f 164/187/179 166/188/179 167/189/179
f 164/187/179 167/189/179 165/190/179
f 166/191/180 156/173/180 159/176/180
f 166/191/180 159/176/180 167/192/180
f 159/193/181 158/194/181 168/195/181
f 158/194/182 161/196/182 168/195/182
f 161/196/183 163/197/183 168/195/183
f 163/197/184 165/198/184 168/195/184
f 165/190/185 167/189/185 168/199/185
f 167/200/186 159/193/186 168/195/186
f 169/201/187 170/202/187 171/203/187
f 169/201/187 171/203/187 172/204/187
f 170/202/188 173/205/188 174/206/188
f 170/202/188 174/206/188 171/203/188
f 173/207/189 175/208/189 176/209/189
f 173/207/189 176/209/189 174/210/189
f 175/211/190 177/212/190 178/213/190
f 175/211/190 178/213/190 176/214/190
f 177/215/191 179/216/191 180/217/191
f 177/215/191 180/217/191 178/218/191
f 179/219/192 169/220/192 172/221/192
f 179/219/192 172/221/192 180/222/192
f 172/204/193 171/203/193 181/223/193
f 171/224/194 174/225/194 181/226/194
f 174/225/195 176/214/195 181/226/195
f 176/214/196 178/213/196 181/226/196
f 178/213/197 180/227/197 181/226/197
f 180/222/198 172/221/198 181/228/198
f 182/229/199 183/230/199 184/231/199
f 182/229/200 185/232/200 183/230/200
f 182/229/201 186/233/201 185/232/201
f 182/229/202 187/234/202 186/233/202
f 182/229/203 188/235/203 187/234/203
f 182/229/204 189/236/204 188/235/204
f 182/229/205 190/237/205 189/236/205
f 182/229/206 191/238/206 190/237/206
f 182/229/207 192/239/207 191/238/207
f 182/229/208 184/231/208 192/239/208
f 184/231/209 183/230/209 193/240/209
f 184/231/209 193/240/209 194/241/209
f 183/230/210 185/232/210 195/242/210
f 183/230/210 195/242/210 193/240/210
f 185/243/211 186/244/211 196/245/211
f 185/243/211 196/245/211 195/246/211
f 186/244/212 187/247/212 197/248/212
f 186/244/212 197/248/212 196/245/212
f 187/234/213 188/235/213 198/249/213
f 187/234/213 198/249/213 197/250/213
f 188/235/214 189/236/214 199/251/214
f 188/235/214 199/251/214 198/249/214
f 189/236/215 190/237/215 200/252/215
f 189/236/215 200/252/215 199/251/215
f 190/253/216 191/254/216 201/255/216
f 190/253/216 201/255/216 200/256/216
f 191/254/217 192/257/217 202/258/217
f 191/254/217 202/258/217 201/255/217
f 192/239/218 184/231/218 194/241/218
f 192/239/218 194/241/218 202/259/218
f 194/260/219 193/261/219 203/262/219
f 194/260/219 203/262/219 204/263/219
f 193/264/220 195/246/220 205/265/220
f 193/264/220 205/265/220 203/266/220
f 195/246/221 196/245/221 206/267/221
f 195/246/221 206/267/221 205/265/221
f 196/245/222 197/248/222 207/268/222
f 196/245/222 207/268/222 206/267/222
f 197/269/223 198/270/223 208/271/223
f 197/269/223 208/271/223 207/272/223
f 198/270/224 199/273/224 209/274/224
f 198/270/224 209/274/224 208/271/224
f 199/275/225 200/256/225 210/276/225
f 199/275/225 210/276/225 209/277/225
f 200/256/226 201/255/226 211/278/226
f 200/256/226 211/278/226 210/276/226
f 201/255/227 202/258/227 212/279/227
f 201/255/227 212/279/227 211/278/227
f 202/280/228 194/260/228 204/263/228
f 202/280/228 204/263/228 212/281/228
f 204/241/229 203/240/229 213/230/229
f 204/241/229 213/230/229 214/231/229
f 203/240/230 205/242/230 215/232/230
f 203/240/230 215/232/230 213/230/230
f 205/265/231 206/267/231 216/282/231
f 205/265/231 216/282/231 215/283/231
f 206/267/232 207/268/232 217/284/232
f 206/267/232 217/284/232 216/282/232
f 207/250/233 208/249/233 218/235/233
f 207/250/233 218/235/233 217/234/233
f 208/249/234 209/251/234 219/236/234
f 208/249/234 219/236/234 218/235/234
f 209/251/235 210/252/235 220/237/235
f 209/251/235 220/237/235 219/236/235
f 210/276/236 211/278/236 221/285/236
f 210/276/236 221/285/236 220/286/236
f 211/278/237 212/279/237 222/287/237
f 211/278/237 222/287/237 221/285/237
f 212/259/238 204/241/238 214/231/238
f 212/259/238 214/231/238 222/239/238
f 214/231/239 213/230/239 223/229/239
f 213/230/240 215/232/240 223/229/240
f 215/232/241 216/233/241 223/229/241
f 216/233/242 217/234/242 223/229/242
f 217/234/243 218/235/243 223/229/243
f 218/235/244 219/236/244 223/229/244
f 219/236/245 220/237/245 223/229/245
f 220/237/246 221/238/246 223/229/246
f 221/238/247 222/239/247 223/229/247
f 222/239/248 214/231/248 223/229/248
f 224/288/249 225/289/249 226/290/249
f 224/288/249 226/290/249 227/291/249
f 225/289/250 228/292/250 229/293/250
f 225/289/250 229/293/250 226/290/250
f 228/294/251 230/295/251 231/296/251
f 228/294/251 231/296/251 229/297/251
f 230/295/252 232/298/252 233/299/252
f 230/295/252 233/299/252 231/296/252
f 232/300/253 234/301/253 235/302/253
f 232/300/253 235/302/253 233/303/253
f 234/304/254 224/305/254 227/306/254
f 234/304/254 227/306/254 235/307/254
f 227/306/255 226/308/255 236/309/255
f 226/310/256 229/297/256 236/311/256
f 229/297/257 231/296/257 236/311/257
f 231/296/258 233/299/258 236/311/258
f 233/299/259 235/312/259 236/311/259
f 235/307/260 227/306/260 236/309/260
f 237/313/261 238/314/261 239/315/261
f 237/313/261 239/315/261 240/316/261
f 238/314/262 241/317/262 242/318/262
f 238/314/262 242/318/262 239/315/262
f 241/319/263 243/320/263 244/321/263
f 241/319/263 244/321/263 242/322/263
f 243/323/264 245/324/264 246/325/264
f 243/323/264 246/325/264 244/326/264
f 245/327/265 247/328/265 248/329/265
f 245/327/265 248/329/265 246/330/265
f 247/331/266 237/332/266 240/333/266
f 247/331/266 240/333/266 248/334/266
f 240/335/267 239/336/267 249/337/267
f 239/336/268 242/338/268 249/337/268
f 242/338/269 244/339/269 249/337/269
f 244/339/270 246/330/270 249/337/270
f 246/330/271 248/329/271 249/337/271
f 248/329/272 240/335/272 249/337/272
f 250/340/273 251/341/273 252/342/273
f 250/340/273 252/342/273 253/343/273
f 251/344/274 254/345/274 255/346/274
f 251/344/274 255/346/274 252/347/274
f 254/345/275 256/348/275 257/349/275
f 254/345/275 257/349/275 255/346/275
f 256/350/276 258/351/276 259/352/276
f 256/350/276 259/352/276 257/353/276
f 258/354/277 260/355/277 261/356/277
f 258/354/277 261/356/277 259/357/277
f 260/358/278 250/359/278 253/360/278
f 260/358/278 253/360/278 261/361/278
f 253/360/279 252/362/279 262/363/279
f 252/362/280 255/364/280 262/363/280
f 255/364/281 257/365/281 262/363/281
f 257/365/282 259/366/282 262/363/282
f 259/366/283 261/361/283 262/363/283
f 261/361/284 253/360/284 262/363/284
f 263/367/285 264/368/285 265/369/285
f 263/367/286 266/370/286 264/368/286
f 263/367/287 267/371/287 266/370/287
f 263/367/288 268/372/288 267/371/288
f 263/367/289 269/373/289 268/372/289
f 263/367/290 270/374/290 269/373/290
f 263/367/291 271/375/291 270/374/291
f 263/367/292 272/376/292 271/375/292
f 263/367/293 273/377/293 272/376/293
f 263/367/294 265/369/294 273/377/294
f 265/378/295 264/379/295 274/380/295
f 265/378/295 274/380/295 275/381/295
f 264/368/296 266/370/296 276/382/296
f 264/368/296 276/382/296 274/383/296
f 266/384/297 267/385/297 277/386/297
f 266/384/297 277/386/297 276/387/297
f 267/385/298 268/388/298 278/389/298
f 267/385/298 278/389/298 277/386/298
f 268/390/299 269/391/299 279/392/299
f 268/390/299 279/392/299 278/393/299
f 269/391/300 270/394/300 280/395/300
f 269/391/300 280/395/300 279/392/300
f 270/374/301 271/375/301 281/396/301
f 270/374/301 281/396/301 280/397/301
f 271/398/302 272/399/302 282/400/302
f 271/398/302 282/400/302 281/401/302
f 272/399/303 273/402/303 283/403/303
f 272/399/303 283/403/303 282/400/303
f 273/404/304 265/378/304 275/381/304
f 273/404/304 275/381/304 283/405/304
f 275/381/305 274/380/305 284/406/305
f 275/381/305 284/406/305 285/407/305
f 274/408/306 276/387/306 286/409/306
f 274/408/306 286/409/306 284/410/306
f 276/387/307 277/386/307 287/411/307
f 276/387/307 287/411/307 286/409/307
f 277/386/308 278/389/308 288/412/308
f 277/386/308 288/412/308 287/411/308
f 278/393/309 279/392/309 289/413/309
f 278/393/309 289/413/309 288/414/309
f 279/392/310 280/395/310 290/415/310
f 279/392/310 290/415/310 289/413/310
f 280/416/311 281/401/311 291/417/311
f 280/416/311 291/417/311 290/418/311
f 281/401/312 282/400/312 292/419/312
f 281/401/312 292/419/312 291/417/312
f 282/400/313 283/403/313 293/420/313
f 282/400/313 293/420/313 292/419/313
f 283/405/314 275/381/314 285/407/314
f 283/405/314 285/407/314 293/421/314
f 285/407/315 284/406/315 294/422/315
f 285/407/315 294/422/315 295/423/315
f 284/383/316 286/382/316 296/370/316
f 284/383/316 296/370/316 294/368/316
f 286/409/317 287/411/317 297/424/317
f 286/409/317 297/424/317 296/425/317
f 287/411/318 288/412/318 298/426/318
f 287/411/318 298/426/318 297/424/318
f 288/414/319 289/413/319 299/427/319
f 288/414/319 299/427/319 298/428/319
f 289/413/320 290/415/320 300/429/320
f 289/413/320 300/429/320 299/427/320
f 290/397/321 291/396/321 301/375/321
f 290/397/321 301/375/321 300/374/321
f 291/417/322 292/419/322 302/430/322
f 291/417/322 302/430/322 301/431/322
f 292/419/323 293/420/323 303/432/323
f 292/419/323 303/432/323 302/430/323
f 293/421/324 285/407/324 295/423/324
f 293/421/324 295/423/324 303/433/324
f 295/369/325 294/368/325 304/367/325
f 294/368/326 296/370/326 304/367/326
f 296/370/327 297/371/327 304/367/327
f 297/371/328 298/372/328 304/367/328
f 298/372/329 299/373/329 304/367/329
f 299/373/330 300/374/330 304/367/330
f 300/374/331 301/375/331 304/367/331
f 301/375/332 302/376/332 304/367/332
f 302/376/333 303/377/333 304/367/333
f 303/377/334 295/369/334 304/367/334
f 305/434/335 306/435/335 307/436/335
f 305/434/335 307/436/335 308/437/335
f 306/438/336 309/439/336 310/440/336
f 306/438/336 310/440/336 307/441/336
f 309/439/337 311/442/337 312/443/337
f 309/439/337 312/443/337 310/440/337
f 311/444/338 313/445/338 314/446/338
f 311/444/338 314/446/338 312/447/338
f 313/448/339 315/449/339 316/450/339
f 313/448/339 316/450/339 314/451/339
f 315/452/340 305/434/340 308/437/340
f 315/452/340 308/437/340 316/453/340
f 308/454/341 307/455/341 317/456/341
f 307/455/342 310/457/342 317/456/342
f 310/457/343 312/458/343 317/456/343
f 312/458/344 314/459/344 317/456/344
f 314/459/345 316/460/345 317/456/345
f 316/460/346 308/454/346 317/456/346
f 318/461/347 319/462/347 320/463/347
f 318/461/347 320/463/347 321/464/347
f 319/465/348 322/466/348 323/467/348
f 319/465/348 323/467/348 320/468/348
f 322/466/349 324/469/349 325/470/349
f 322/466/349 325/470/349 323/467/349
f 324/471/350 326/472/350 327/473/350
f 324/471/350 327/473/350 325/474/350
f 326/475/351 328/476/351 329/477/351
f 326/475/351 329/477/351 327/478/351
f 328/476/352 318/479/352 321/480/352
f 328/476/352 321/480/352 329/477/352
f 321/481/353 320/482/353 330/483/353
f 320/482/354 323/484/354 330/483/354
f 323/484/355 325/485/355 330/483/355
f 325/474/356 327/473/356 330/486/356
f 327/487/357 329/488/357 330/483/357
f 329/488/358 321/481/358 330/483/358
f 331/489/359 332/490/359 333/491/359
f 331/489/359 333/491/359 334/492/359
f 332/493/360 335/494/360 336/495/360
f 332/493/360 336/495/360 333/496/360
f 335/497/361 337/498/361 338/499/361
f 335/497/361 338/499/361 336/500/361
f 337/498/362 339/501/362 340/502/362
f 337/498/362 340/502/362 338/499/362
f 339/503/363 341/504/363 342/505/363
f 339/503/363 342/505/363 340/506/363
f 341/507/364 331/489/364 334/492/364
f 341/507/364 334/492/364 342/508/364
f 334/509/365 333/496/365 343/510/365
f 333/496/366 336/495/366 343/510/366
f 336/495/367 338/511/367 343/510/367
f 338/511/368 340/512/368 343/510/368
f 340/506/369 342/505/369 343/513/369
f 342/514/370 334/509/370 343/510/370
f 344/515/371 345/516/371 346/517/371
f 344/515/372 347/518/372 345/516/372
f 344/515/373 348/519/373 347/518/373
f 344/515/374 349/520/374 348/519/374
f 344/515/375 350/521/375 349/520/375
f 344/515/376 351/522/376 350/521/376
f 344/515/377 352/523/377 351/522/377
f 344/515/378 353/524/378 352/523/378
f 344/515/379 354/525/379 353/524/379
f 344/515/380 346/517/380 354/525/380
f 346/517/381 345/516/381 355/526/381
f 346/517/381 355/526/381 356/527/381
f 345/516/382 347/518/382 357/528/382
f 345/516/382 357/528/382 355/526/382
f 347/518/383 348/519/383 358/529/383
f 347/518/383 358/529/383 357/528/383
f 348/530/384 349/531/384 359/532/384
f 348/530/384 359/532/384 358/533/384
f 349/520/385 350/521/385 360/534/385
f 349/520/385 360/534/385 359/535/385
f 350/521/386 351/522/386 361/536/386
f 350/521/386 361/536/386 360/534/386
f 351/522/387 352/523/387 362/537/387
f 351/522/387 362/537/387 361/536/387
f 352/523/388 353/524/388 363/538/388
f 352/523/388 363/538/388 362/537/388
f 353/539/389 354/540/389 364/541/389
f 353/539/389 364/541/389 363/542/389
f 354/525/390 346/517/390 356/527/390
f 354/525/390 356/527/390 364/543/390
f 356/544/391 355/545/391 365/546/391
f 356/544/391 365/546/391 366/547/391
f 355/545/392 357/548/392 367/549/392
f 355/545/392 367/549/392 365/546/392
f 357/550/393 358/533/393 368/551/393
f 357/550/393 368/551/393 367/552/393
f 358/533/394 359/532/394 369/553/394
f 358/533/394 369/553/394 368/551/394
f 359/532/395 360/554/395 370/555/395
f 359/532/395 370/555/395 369/553/395
f 360/556/396 361/557/396 371/558/396
f 360/556/396 371/558/396 370/559/396
f 361/557/397 362/560/397 372/561/397
f 361/557/397 372/561/397 371/558/397
f 362/562/398 363/542/398 373/563/398
f 362/562/398 373/563/398 372/564/398
f 363/542/399 364/541/399 374/565/399
f 363/542/399 374/565/399 373/563/399
f 364/541/400 356/566/400 366/567/400
f 364/541/400 366/567/400 374/565/400
f 366/527/401 365/526/401 375/516/401
f 366/527/401 375/516/401 376/517/401
f 365/526/402 367/528/402 377/518/402
f 365/526/402 377/518/402 375/516/402
f 367/528/403 368/529/403 378/519/403
f 367/528/403 378/519/403 377/518/403
f 368/551/404 369/553/404 379/568/404
f 368/551/404 379/568/404 378/569/404
f 369/535/405 370/534/405 380/521/405
f 369/535/405 380/521/405 379/520/405
f 370/534/406 371/536/406 381/522/406
f 370/534/406 381/522/406 380/521/406
f 371/536/407 372/537/407 382/523/407
f 371/536/407 382/523/407 381/522/407
f 372/537/408 373/538/408 383/524/408
f 372/537/408 383/524/408 382/523/408
f 373/563/409 374/565/409 384/570/409
f 373/563/409 384/570/409 383/571/409
f 374/543/410 366/527/410 376/517/410
f 374/543/410 376/517/410 384/525/410
f 376/517/411 375/516/411 385/515/411
f 375/516/412 377/518/412 385/515/412
f 377/518/413 378/519/413 385/515/413
f 378/519/414 379/520/414 385/515/414
f 379/520/415 380/521/415 385/515/415
f 380/521/416 381/522/416 385/515/416
f 381/522/417 382/523/417 385/515/417
f 382/523/418 383/524/418 385/515/418
f 383/524/419 384/525/419 385/515/419
f 384/525/420 376/517/420 385/515/420
f 386/572/421 387/573/421 388/574/421
f 386/572/421 388/574/421 389/575/421
f 387/576/422 390/577/422 391/578/422
f 387/576/422 391/578/422 388/579/422
f 390/577/423 392/580/423 393/581/423
f 390/577/423 393/581/423 391/578/423
f 392/582/424 394/583/424 395/584/424
f 392/582/424 395/584/424 393/585/424
f 394/586/425 396/587/425 397/588/425
f 394/586/425 397/588/425 395/589/425
f 396/587/426 386/590/426 389/591/426
f 396/587/426 389/591/426 397/588/426
f 389/592/427 388/593/427 398/594/427
f 388/593/428 391/595/428 398/594/428
f 391/595/429 393/596/429 398/594/429
f 393/596/430 395/597/430 398/594/430
f 395/597/431 397/598/431 398/594/431
f 397/598/432 389/592/432 398/594/432
f 399/599/433 400/600/433 401/601/433
f 399/599/433 401/601/433 402/602/433
f 400/603/434 403/604/434 404/605/434
f 400/603/434 404/605/434 401/606/434
f 403/607/435 405/608/435 406/609/435
f 403/607/435 406/609/435 404/610/435
f 405/611/436 407/612/436 408/613/436
f 405/611/436 408/613/436 406/614/436
f 407/612/437 409/615/437 410/616/437
f 407/612/437 410/616/437 408/613/437
f 409/617/438 399/599/438 402/602/438
f 409/617/438 402/602/438 410/618/438
f 402/619/439 401/606/439 411/620/439
f 401/606/440 404/605/440 411/620/440
f 404/621/441 406/614/441 411/622/441
f 406/614/442 408/613/442 411/622/442
f 408/613/443 410/616/443 411/622/443
f 410/618/444 402/602/444 411/623/444
f 412/624/445 413/625/445 414/626/445
f 412/624/445 414/626/445 415/627/445
f 413/625/446 416/628/446 417/629/446
f 413/625/446 417/629/446 414/626/446
f 416/630/447 418/631/447 419/632/447
f 416/630/447 419/632/447 417/633/447
f 418/634/448 420/635/448 421/636/448
f 418/634/448 421/636/448 419/637/448
f 420/635/449 422/638/449 423/639/449
f 420/635/449 423/639/449 421/636/449
f 422/640/450 412/641/450 415/642/450
f 422/640/450 415/642/450 423/643/450
f 415/644/451 414/645/451 424/646/451
f 414/645/452 417/647/452 424/646/452
f 417/647/453 419/648/453 424/646/453
f 419/648/454 421/649/454 424/646/454
f 421/649/455 423/650/455 424/646/455
f 423/650/456 415/644/456 424/646/456
f 425/651/457 426/652/457 427/653/457
f 425/651/457 428/654/457 426/652/457
f 425/651/457 429/655/457 428/654/457
f 425/651/457 430/656/457 429/655/457
f 425/651/457 431/657/457 430/656/457
f 425/651/457 427/653/457 431/657/457
f 427/658/458 426/659/458 432/660/458
f 427/658/458 432/660/458 433/661/458
f 426/662/459 428/663/459 434/664/459
f 426/662/459 434/664/459 432/665/459
f 428/666/460 429/667/460 435/668/460
f 428/666/460 435/668/460 434/669/460
f 429/667/461 430/670/461 436/671/461
f 429/667/461 436/671/461 435/668/461
f 430/672/462 431/673/462 437/674/462
f 430/672/462 437/674/462 436/675/462
f 431/676/463 427/658/463 433/661/463
f 431/676/463 433/661/463 437/677/463
f 433/678/464 432/679/464 438/680/464
f 432/679/464 434/681/464 438/680/464
f 434/681/464 435/682/464 438/680/464
f 435/682/464 436/683/464 438/680/464
f 436/683/464 437/684/464 438/680/464
f 437/684/464 433/678/464 438/680/464
f 439/685/465 440/686/465 441/687/465
f 439/685/465 442/688/465 440/686/465
f 439/685/465 443/689/465 442/688/465
f 439/685/465 444/690/465 443/689/465
f 439/685/465 445/691/465 444/690/465
f 439/685/465 441/687/465 445/691/465
f 441/692/466 440/693/466 446/694/466
f 441/692/466 446/694/466 447/695/466
f 440/696/467 442/697/467 448/698/467
f 440/696/467 448/698/467 446/699/467
f 442/700/468 443/701/468 449/702/468
f 442/700/468 449/702/468 448/703/468
f 443/701/469 444/704/469 450/705/469
f 443/701/469 450/705/469 449/702/469
f 444/706/470 445/707/470 451/708/470
f 444/706/470 451/708/470 450/709/470
f 445/710/471 441/692/471 447/695/471
f 445/710/471 447/695/471 451/711/471
f 447/712/472 446/713/472 452/714/472
f 446/713/472 448/715/472 452/714/472
f 448/715/472 449/716/472 452/714/472
f 449/716/472 450/717/472 452/714/472
f 450/717/472 451/718/472 452/714/472
f 451/718/472 447/712/472 452/714/472
f 453/719/473 454/720/473 455/721/473
f 453/719/473 456/722/473 454/720/473
f 453/719/473 457/723/473 456/722/473
f 453/719/473 458/724/473 457/723/473
f 453/719/473 459/725/473 458/724/473
f 453/719/473 455/721/473 459/725/473
f 455/726/474 454/727/474 460/728/474
f 455/726/474 460/728/474 461/729/474
f 454/730/475 456/731/475 462/732/475
f 454/730/475 462/732/475 460/733/475
f 456/734/476 457/735/476 463/736/476
f 456/734/476 463/736/476 462/737/476
f 457/735/477 458/738/477 464/739/477
f 457/735/477 464/739/477 463/736/477
f 458/740/478 459/741/478 465/742/478
f 458/740/478 465/742/478 464/743/478
f 459/744/479 455/726/479 461/729/479
f 459/744/479 461/729/479 465/745/479
f 461/746/480 460/747/480 466/748/480
f 460/747/480 462/749/480 466/748/480
f 462/749/480 463/750/480 466/748/480
f 463/750/480 464/751/480 466/748/480
f 464/751/480 465/752/480 466/748/480
f 465/752/480 461/746/480 466/748/480
