# Sarn carrier, fragment 4 of 8
# Generated by tools. Edit the generator script.
v 0.000000 0.000000 0.187500
v 0.977941 0.154026 0.187500
v 0.691509 0.154026 1.556688
v 0.691509 0.154026 -1.181687
v 0.000000 0.308051 0.187500
v 0.000000 0.266352 0.404368
v 0.042785 0.266352 0.404368
v 0.000000 0.266352 0.447153
v 0.000000 0.266352 0.361583
v -0.042785 0.266352 0.404368
v 0.000000 0.376370 0.404368
v 0.000000 0.266352 -0.029368
v 0.042785 0.266352 -0.029368
v 0.000000 0.266352 0.013417
v 0.000000 0.266352 -0.072153
v -0.042785 0.266352 -0.029368
v 0.000000 0.376370 -0.029368
v 0.933896 0.105129 0.779203
v 0.933896 0.105129 0.718082
v 0.933896 0.202923 0.718082
v 0.933896 0.202923 0.779203
v 0.787205 0.105129 0.718082
v 0.787205 0.105129 0.779203
v 0.787205 0.202923 0.779203
v 0.787205 0.202923 0.718082
v 1.051287 0.105129 0.218061
v 1.051287 0.105129 0.156939
v 1.051287 0.202923 0.156939
v 1.051287 0.202923 0.218061
v 0.904596 0.105129 0.156939
v 0.904596 0.105129 0.218061
v 0.904596 0.202923 0.218061
v 0.904596 0.202923 0.156939
v 0.627351 0.071145 0.783692
v 0.627351 0.071145 0.722571
v 0.627351 0.144491 0.722571
v 0.627351 0.144491 0.783692
v 0.505108 0.071145 0.722571
v 0.505108 0.071145 0.783692
v 0.505108 0.144491 0.783692
v 0.505108 0.144491 0.722571
v 0.706237 0.071145 0.406605
v 0.706237 0.071145 0.345483
v 0.706237 0.144491 0.345483
v 0.706237 0.144491 0.406605
v 0.583994 0.071145 0.345483
v 0.583994 0.071145 0.406605
v 0.583994 0.144491 0.406605
v 0.583994 0.144491 0.345483
v 0.706237 0.071145 0.029517
v 0.706237 0.071145 -0.031604
v 0.706237 0.144491 -0.031604
v 0.706237 0.144491 0.029517
v 0.583994 0.071145 -0.031604
v 0.583994 0.071145 0.029517
v 0.583994 0.144491 0.029517
v 0.583994 0.144491 -0.031604
v 0.345754 0.154026 0.187500
vt 0.445312 0.828125
vt 0.546875 0.828125
vt 0.517128 0.944135
vt 0.517128 0.712115
vt 0.617188 0.429688
vt 0.664062 0.429688
vt 0.617188 0.476562
vt 0.617188 0.382812
vt 0.570312 0.429688
vt 0.765625 0.382812
vt 0.718750 0.382812
vt 0.718750 0.476562
vt 0.671875 0.382812
vt 0.718750 0.382812
vt 0.671875 0.382812
vt 0.718750 0.476562
vt 0.617188 0.429688
vt 0.664062 0.429688
vt 0.617188 0.476562
vt 0.617188 0.382812
vt 0.570312 0.429688
vt 0.765625 0.382812
vt 0.718750 0.382812
vt 0.718750 0.476562
vt 0.671875 0.382812
vt 0.718750 0.382812
vt 0.671875 0.382812
vt 0.718750 0.476562
vt 0.945312 0.210938
vt 0.851562 0.210938
vt 0.851562 0.273438
vt 0.945312 0.273438
vt 0.945312 0.273438
vt 0.945312 0.210938
vt 0.851562 0.210938
vt 0.851562 0.273438
vt 0.773438 0.140625
vt 0.835938 0.140625
vt 0.835938 0.187500
vt 0.773438 0.187500
vt 0.945312 0.210938
vt 0.851562 0.210938
vt 0.851562 0.273438
vt 0.945312 0.273438
vt 0.945312 0.210938
vt 0.851562 0.210938
vt 0.851562 0.273438
vt 0.945312 0.273438
vt 0.945312 0.273438
vt 0.945312 0.210938
vt 0.851562 0.210938
vt 0.851562 0.273438
vt 0.773438 0.140625
vt 0.835938 0.140625
vt 0.835938 0.187500
vt 0.773438 0.187500
vt 0.945312 0.210938
vt 0.851562 0.210938
vt 0.851562 0.273438
vt 0.945312 0.273438
vt 0.945312 0.210938
vt 0.851562 0.210938
vt 0.851562 0.273438
vt 0.945312 0.273438
vt 0.945312 0.273438
vt 0.945312 0.210938
vt 0.851562 0.210938
vt 0.851562 0.273438
vt 0.773438 0.140625
vt 0.835938 0.140625
vt 0.835938 0.187500
vt 0.773438 0.187500
vt 0.945312 0.210938
vt 0.851562 0.210938
vt 0.851562 0.273438
vt 0.945312 0.273438
vt 0.945312 0.210938
vt 0.851562 0.210938
vt 0.851562 0.273438
vt 0.945312 0.273438
vt 0.945312 0.273438
vt 0.945312 0.210938
vt 0.851562 0.210938
vt 0.851562 0.273438
vt 0.773438 0.140625
vt 0.835938 0.140625
vt 0.835938 0.187500
vt 0.773438 0.187500
vt 0.945312 0.210938
vt 0.851562 0.210938
vt 0.851562 0.273438
vt 0.945312 0.273438
vt 0.945312 0.210938
vt 0.851562 0.210938
vt 0.851562 0.273438
vt 0.945312 0.273438
vt 0.945312 0.273438
vt 0.945312 0.210938
vt 0.851562 0.210938
vt 0.851562 0.273438
vt 0.773438 0.140625
vt 0.835938 0.140625
vt 0.835938 0.187500
vt 0.773438 0.187500
vt 0.945312 0.210938
vt 0.851562 0.210938
vt 0.851562 0.273438
vt 0.945312 0.273438
vt 0.500000 0.500000
vt 0.060000 0.940000
vt 0.500000 0.060000
vt 0.940000 0.940000
vt 0.500000 0.060000
vn 0.155500 -0.987300 0.032530
vn 0.155500 -0.987300 -0.032530
vn 0.155500 0.987300 0.032530
vn 0.155500 0.987300 -0.032530
vn 0.000000 -1.000000 0.000000
vn 0.681799 0.265144 0.681799
vn 0.681799 0.265144 -0.681799
vn -0.681799 0.265144 -0.681799
vn -0.681799 0.265144 0.681799
vn 0.000000 -1.000000 0.000000
vn 0.681799 0.265144 0.681799
vn 0.681799 0.265144 -0.681799
vn -0.681799 0.265144 -0.681799
vn -0.681799 0.265144 0.681799
vn 1.000000 0.000000 0.000000
vn -1.000000 0.000000 0.000000
vn 0.000000 1.000000 0.000000
vn 0.000000 -1.000000 0.000000
vn 0.000000 0.000000 1.000000
vn 0.000000 0.000000 -1.000000
vn 1.000000 0.000000 0.000000
vn -1.000000 0.000000 0.000000
vn 0.000000 1.000000 0.000000
vn 0.000000 -1.000000 0.000000
vn 0.000000 0.000000 1.000000
vn 0.000000 0.000000 -1.000000
vn 1.000000 0.000000 0.000000
vn -1.000000 0.000000 0.000000
vn 0.000000 1.000000 0.000000
vn 0.000000 -1.000000 0.000000
vn 0.000000 0.000000 1.000000
vn 0.000000 0.000000 -1.000000
vn 1.000000 0.000000 0.000000
vn -1.000000 0.000000 0.000000
vn 0.000000 1.000000 0.000000
vn 0.000000 -1.000000 0.000000
vn 0.000000 0.000000 1.000000
vn 0.000000 0.000000 -1.000000
vn 1.000000 0.000000 0.000000
vn -1.000000 0.000000 0.000000
vn 0.000000 1.000000 0.000000
vn 0.000000 -1.000000 0.000000
vn -0.000000 0.000000 1.000000
vn 0.000000 0.000000 -1.000000
vn 0.000000 1.000000 0.000000
vn 0.000000 -1.000000 0.000000
usemtl skin
f 1/1/1 2/2/1 3/3/1
f 1/1/2 4/4/2 2/2/2
f 3/3/3 2/2/3 5/1/3
f 2/2/4 4/4/4 5/1/4
f 6/5/5 7/6/5 8/7/5
f 6/5/5 9/8/5 7/6/5
f 6/5/5 10/9/5 9/8/5
f 6/5/5 8/7/5 10/9/5
f 8/10/6 7/11/6 11/12/6
f 7/11/7 9/13/7 11/12/7
f 9/14/8 10/15/8 11/16/8
f 10/11/9 8/10/9 11/12/9
f 12/17/10 13/18/10 14/19/10
f 12/17/10 15/20/10 13/18/10
f 12/17/10 16/21/10 15/20/10
f 12/17/10 14/19/10 16/21/10
f 14/22/11 13/23/11 17/24/11
f 13/23/12 15/25/12 17/24/12
f 15/26/13 16/27/13 17/28/13
f 16/23/14 14/22/14 17/24/14
f 18/29/15 19/30/15 20/31/15
f 18/29/15 20/31/15 21/32/15
f 22/30/16 23/29/16 24/32/16
f 22/30/16 24/32/16 25/31/16
f 21/33/17 20/34/17 25/35/17
f 21/33/17 25/35/17 24/36/17
f 23/36/18 22/35/18 19/34/18
f 23/36/18 19/34/18 18/33/18
f 23/37/19 18/38/19 21/39/19
f 23/37/19 21/39/19 24/40/19
f 19/41/20 22/42/20 25/43/20
f 19/41/20 25/43/20 20/44/20
f 26/45/21 27/46/21 28/47/21
f 26/45/21 28/47/21 29/48/21
f 30/46/22 31/45/22 32/48/22
f 30/46/22 32/48/22 33/47/22
f 29/49/23 28/50/23 33/51/23
f 29/49/23 33/51/23 32/52/23
f 31/52/24 30/51/24 27/50/24
f 31/52/24 27/50/24 26/49/24
f 31/53/25 26/54/25 29/55/25
f 31/53/25 29/55/25 32/56/25
f 27/57/26 30/58/26 33/59/26
f 27/57/26 33/59/26 28/60/26
f 34/61/27 35/62/27 36/63/27
f 34/61/27 36/63/27 37/64/27
f 38/62/28 39/61/28 40/64/28
f 38/62/28 40/64/28 41/63/28
f 37/65/29 36/66/29 41/67/29
f 37/65/29 41/67/29 40/68/29
f 39/68/30 38/67/30 35/66/30
f 39/68/30 35/66/30 34/65/30
f 39/69/31 34/70/31 37/71/31
f 39/69/31 37/71/31 40/72/31
f 35/73/32 38/74/32 41/75/32
f 35/73/32 41/75/32 36/76/32
f 42/77/33 43/78/33 44/79/33
f 42/77/33 44/79/33 45/80/33
f 46/78/34 47/77/34 48/80/34
f 46/78/34 48/80/34 49/79/34
f 45/81/35 44/82/35 49/83/35
f 45/81/35 49/83/35 48/84/35
f 47/84/36 46/83/36 43/82/36
f 47/84/36 43/82/36 42/81/36
f 47/85/37 42/86/37 45/87/37
f 47/85/37 45/87/37 48/88/37
f 43/89/38 46/90/38 49/91/38
f 43/89/38 49/91/38 44/92/38
f 50/93/39 51/94/39 52/95/39
f 50/93/39 52/95/39 53/96/39
f 54/94/40 55/93/40 56/96/40
f 54/94/40 56/96/40 57/95/40
f 53/97/41 52/98/41 57/99/41
f 53/97/41 57/99/41 56/100/41
f 55/100/42 54/99/42 51/98/42
f 55/100/42 51/98/42 50/97/42
f 55/101/43 50/102/43 53/103/43
f 55/101/43 53/103/43 56/104/43
f 51/105/44 54/106/44 57/107/44
f 51/105/44 57/107/44 52/108/44
usemtl interior
f 58/109/45 4/110/45 5/111/45
f 58/109/46 5/111/46 4/110/46
f 58/109/45 5/111/45 3/112/45
f 58/109/46 3/112/46 5/111/46
f 58/109/45 3/112/45 1/113/45
f 58/109/46 1/113/46 3/112/46
f 58/109/45 1/113/45 4/110/45
f 58/109/46 4/110/46 1/113/46
