# Sarn heavy cruiser, from tools/gen_fleet.py
# Generated by tools. Edit the generator script.
v 0.000000 0.000000 -0.294079
v 0.453214 0.271457 1.078359
v 0.000000 0.271457 1.646842
v 0.640941 0.271457 -0.294079
v 0.453214 0.271457 -1.666517
v 0.000000 0.271457 -2.235000
v -0.453214 0.271457 -1.666517
v -0.640941 0.271457 -0.294079
v -0.453214 0.271457 1.078359
v 0.000000 0.542915 -0.294079
v 0.000000 0.360737 0.792837
v 0.052783 0.360737 0.792837
v 0.000000 0.360737 0.845620
v 0.000000 0.360737 0.740053
v -0.052783 0.360737 0.792837
v 0.000000 0.496466 0.792837
v 0.000000 0.421543 0.358071
v 0.052783 0.421543 0.358071
v 0.000000 0.421543 0.410854
v 0.000000 0.421543 0.305287
v -0.052783 0.421543 0.358071
v 0.000000 0.557272 0.358071
v 0.000000 0.482350 -0.076696
v 0.052783 0.482350 -0.076696
v 0.000000 0.482350 -0.023912
v 0.000000 0.482350 -0.129479
v -0.052783 0.482350 -0.076696
v 0.000000 0.618079 -0.076696
v 0.000000 0.482350 -0.511462
v 0.052783 0.482350 -0.511462
v 0.000000 0.482350 -0.458679
v 0.000000 0.482350 -0.564246
v -0.052783 0.482350 -0.511462
v 0.000000 0.618079 -0.511462
v 0.000000 0.421543 -0.946228
v 0.052783 0.421543 -0.946228
v 0.000000 0.421543 -0.893445
v 0.000000 0.421543 -0.999012
v -0.052783 0.421543 -0.946228
v 0.000000 0.557272 -0.946228
v 0.000000 0.360737 -1.380995
v 0.052783 0.360737 -1.380995
v 0.000000 0.360737 -1.328211
v 0.000000 0.360737 -1.433778
v -0.052783 0.360737 -1.380995
v 0.000000 0.496466 -1.380995
v -0.588299 0.211134 0.714600
v -0.588299 0.211134 0.790005
v -0.588299 0.331781 0.790005
v -0.588299 0.331781 0.714600
v -0.407327 0.211134 0.790005
v -0.407327 0.211134 0.714600
v -0.407327 0.331781 0.714600
v -0.407327 0.331781 0.790005
v -0.731427 0.211134 -0.331781
v -0.731427 0.211134 -0.256377
v -0.731427 0.331781 -0.256377
v -0.731427 0.331781 -0.331781
v -0.550455 0.211134 -0.256377
v -0.550455 0.211134 -0.331781
v -0.550455 0.331781 -0.331781
v -0.550455 0.331781 -0.256377
v -0.588299 0.211134 -1.378163
v -0.588299 0.211134 -1.302758
v -0.588299 0.331781 -1.302758
v -0.588299 0.331781 -1.378163
v -0.407327 0.211134 -1.302758
v -0.407327 0.211134 -1.378163
v -0.407327 0.331781 -1.378163
v -0.407327 0.331781 -1.302758
v 0.588299 0.211134 0.790005
v 0.588299 0.211134 0.714600
v 0.588299 0.331781 0.714600
v 0.588299 0.331781 0.790005
v 0.407327 0.211134 0.714600
v 0.407327 0.211134 0.790005
v 0.407327 0.331781 0.790005
v 0.407327 0.331781 0.714600
v 0.731427 0.211134 -0.256377
v 0.731427 0.211134 -0.331781
v 0.731427 0.331781 -0.331781
v 0.731427 0.331781 -0.256377
v 0.550455 0.211134 -0.331781
v 0.550455 0.211134 -0.256377
v 0.550455 0.331781 -0.256377
v 0.550455 0.331781 -0.331781
v 0.588299 0.211134 -1.302758
v 0.588299 0.211134 -1.378163
v 0.588299 0.331781 -1.378163
v 0.588299 0.331781 -1.302758
v 0.407327 0.211134 -1.378163
v 0.407327 0.211134 -1.302758
v 0.407327 0.331781 -1.302758
v 0.407327 0.331781 -1.378163
v 0.000000 0.271457 0.671103
v 0.249808 0.271457 0.638215
v 0.242001 0.323700 0.609081
v 0.000000 0.323700 0.640941
v 0.226388 0.323700 0.550813
v 0.000000 0.323700 0.580617
v 0.218582 0.271457 0.521679
v 0.000000 0.271457 0.550455
v 0.226388 0.219215 0.550813
v 0.000000 0.219215 0.580617
v 0.242001 0.219215 0.609081
v 0.000000 0.219215 0.640941
v 0.482591 0.271457 0.541793
v 0.467510 0.323700 0.515672
v 0.437348 0.323700 0.463430
v 0.422267 0.271457 0.437309
v 0.437348 0.219215 0.463430
v 0.467510 0.219215 0.515672
v 0.682487 0.271457 0.388408
v 0.661159 0.323700 0.367080
v 0.618504 0.323700 0.324425
v 0.597176 0.271457 0.303097
v 0.618504 0.219215 0.324425
v 0.661159 0.219215 0.367080
v 0.835872 0.271457 0.188512
v 0.809751 0.323700 0.173431
v 0.757509 0.323700 0.143269
v 0.731388 0.271457 0.128188
v 0.757509 0.219215 0.143269
v 0.809751 0.219215 0.173431
v 0.932294 0.271457 -0.044271
v 0.903160 0.323700 -0.052078
v 0.844892 0.323700 -0.067691
v 0.815758 0.271457 -0.075497
v 0.844892 0.219215 -0.067691
v 0.903160 0.219215 -0.052078
v 0.965182 0.271457 -0.294079
v 0.935020 0.323700 -0.294079
v 0.874696 0.323700 -0.294079
v 0.844534 0.271457 -0.294079
v 0.874696 0.219215 -0.294079
v 0.935020 0.219215 -0.294079
v 0.932294 0.271457 -0.543886
v 0.903160 0.323700 -0.536080
v 0.844892 0.323700 -0.520467
v 0.815758 0.271457 -0.512661
v 0.844892 0.219215 -0.520467
v 0.903160 0.219215 -0.536080
v 0.835872 0.271457 -0.776670
v 0.809751 0.323700 -0.761589
v 0.757509 0.323700 -0.731427
v 0.731388 0.271457 -0.716346
v 0.757509 0.219215 -0.731427
v 0.809751 0.219215 -0.761589
v 0.682487 0.271457 -0.976566
v 0.661159 0.323700 -0.955238
v 0.618504 0.323700 -0.912583
v 0.597176 0.271457 -0.891255
v 0.618504 0.219215 -0.912583
v 0.661159 0.219215 -0.955238
v 0.482591 0.271457 -1.129951
v 0.467510 0.323700 -1.103830
v 0.437348 0.323700 -1.051588
v 0.422267 0.271457 -1.025467
v 0.437348 0.219215 -1.051588
v 0.467510 0.219215 -1.103830
v 0.249808 0.271457 -1.226373
v 0.242001 0.323700 -1.197239
v 0.226388 0.323700 -1.138971
v 0.218582 0.271457 -1.109837
v 0.226388 0.219215 -1.138971
v 0.242001 0.219215 -1.197239
v 0.000000 0.271457 -1.259261
v 0.000000 0.323700 -1.229099
v 0.000000 0.323700 -1.168775
v 0.000000 0.271457 -1.138613
v 0.000000 0.219215 -1.168775
v 0.000000 0.219215 -1.229099
v -0.249808 0.271457 -1.226373
v -0.242001 0.323700 -1.197239
v -0.226388 0.323700 -1.138971
v -0.218582 0.271457 -1.109837
v -0.226388 0.219215 -1.138971
v -0.242001 0.219215 -1.197239
v -0.482591 0.271457 -1.129951
v -0.467510 0.323700 -1.103830
v -0.437348 0.323700 -1.051588
v -0.422267 0.271457 -1.025467
v -0.437348 0.219215 -1.051588
v -0.467510 0.219215 -1.103830
v -0.682487 0.271457 -0.976566
v -0.661159 0.323700 -0.955238
v -0.618504 0.323700 -0.912583
v -0.597176 0.271457 -0.891255
v -0.618504 0.219215 -0.912583
v -0.661159 0.219215 -0.955238
v -0.835872 0.271457 -0.776670
v -0.809751 0.323700 -0.761589
v -0.757509 0.323700 -0.731427
v -0.731388 0.271457 -0.716346
v -0.757509 0.219215 -0.731427
v -0.809751 0.219215 -0.761589
v -0.932294 0.271457 -0.543886
v -0.903160 0.323700 -0.536080
v -0.844892 0.323700 -0.520467
v -0.815758 0.271457 -0.512661
v -0.844892 0.219215 -0.520467
v -0.903160 0.219215 -0.536080
v -0.965182 0.271457 -0.294079
v -0.935020 0.323700 -0.294079
v -0.874696 0.323700 -0.294079
v -0.844534 0.271457 -0.294079
v -0.874696 0.219215 -0.294079
v -0.935020 0.219215 -0.294079
v -0.932294 0.271457 -0.044271
v -0.903160 0.323700 -0.052078
v -0.844892 0.323700 -0.067691
v -0.815758 0.271457 -0.075497
v -0.844892 0.219215 -0.067691
v -0.903160 0.219215 -0.052078
v -0.835872 0.271457 0.188512
v -0.809751 0.323700 0.173431
v -0.757509 0.323700 0.143269
v -0.731388 0.271457 0.128188
v -0.757509 0.219215 0.143269
v -0.809751 0.219215 0.173431
v -0.682487 0.271457 0.388408
v -0.661159 0.323700 0.367080
v -0.618504 0.323700 0.324425
v -0.597176 0.271457 0.303097
v -0.618504 0.219215 0.324425
v -0.661159 0.219215 0.367080
v -0.482591 0.271457 0.541793
v -0.467510 0.323700 0.515672
v -0.437348 0.323700 0.463430
v -0.422267 0.271457 0.437309
v -0.437348 0.219215 0.463430
v -0.467510 0.219215 0.515672
v -0.249808 0.271457 0.638215
v -0.242001 0.323700 0.609081
v -0.226388 0.323700 0.550813
v -0.218582 0.271457 0.521679
v -0.226388 0.219215 0.550813
v -0.242001 0.219215 0.609081
v 0.708225 0.196053 -0.671103
v 0.859035 0.196053 -0.671103
v 0.859035 0.346862 -0.671103
v 0.708225 0.346862 -0.671103
v 0.859035 0.196053 -0.821913
v 0.708225 0.196053 -0.821913
v 0.708225 0.346862 -0.821913
v 0.859035 0.346862 -0.821913
v -0.075405 0.196053 -1.123532
v 0.075405 0.196053 -1.123532
v 0.075405 0.346862 -1.123532
v -0.075405 0.346862 -1.123532
v 0.075405 0.196053 -1.274342
v -0.075405 0.196053 -1.274342
v -0.075405 0.346862 -1.274342
v 0.075405 0.346862 -1.274342
v -0.859035 0.196053 -0.671103
v -0.708225 0.196053 -0.671103
v -0.708225 0.346862 -0.671103
v -0.859035 0.346862 -0.671103
v -0.708225 0.196053 -0.821913
v -0.859035 0.196053 -0.821913
v -0.859035 0.346862 -0.821913
v -0.708225 0.346862 -0.821913
v -0.859035 0.196053 0.233755
v -0.708225 0.196053 0.233755
v -0.708225 0.346862 0.233755
v -0.859035 0.346862 0.233755
v -0.708225 0.196053 0.082945
v -0.859035 0.196053 0.082945
v -0.859035 0.346862 0.082945
v -0.708225 0.346862 0.082945
v -0.075405 0.196053 0.686184
v 0.075405 0.196053 0.686184
v 0.075405 0.346862 0.686184
v -0.075405 0.346862 0.686184
v 0.075405 0.196053 0.535374
v -0.075405 0.196053 0.535374
v -0.075405 0.346862 0.535374
v 0.075405 0.346862 0.535374
v 0.708225 0.196053 0.233755
v 0.859035 0.196053 0.233755
v 0.859035 0.346862 0.233755
v 0.708225 0.346862 0.233755
v 0.859035 0.196053 0.082945
v 0.708225 0.196053 0.082945
v 0.708225 0.346862 0.082945
v 0.859035 0.346862 0.082945
v 0.904858 0.271457 -0.633401
v 0.990169 0.186147 -0.633401
v 0.904858 0.150810 -0.633401
v 1.025506 0.271457 -0.633401
v 0.990169 0.356768 -0.633401
v 0.904858 0.392105 -0.633401
v 0.819547 0.356768 -0.633401
v 0.784211 0.271457 -0.633401
v 0.819547 0.186147 -0.633401
v 0.990169 0.186147 -0.105567
v 0.904858 0.150810 -0.105567
v 1.025506 0.271457 -0.105567
v 0.990169 0.356768 -0.105567
v 0.904858 0.392105 -0.105567
v 0.819547 0.356768 -0.105567
v 0.784211 0.271457 -0.105567
v 0.819547 0.186147 -0.105567
v 0.904858 0.271457 -0.105567
v 0.904858 0.369484 -0.610779
v 0.974173 0.340773 -0.610779
v 0.954765 0.321364 -0.633401
v 0.904858 0.342036 -0.633401
v 1.002885 0.271457 -0.610779
v 0.975437 0.271457 -0.633401
v 0.974173 0.202142 -0.610779
v 0.954765 0.221551 -0.633401
v 0.904858 0.173431 -0.610779
v 0.904858 0.200879 -0.633401
v 0.835543 0.202142 -0.610779
v 0.854951 0.221551 -0.633401
v 0.806832 0.271457 -0.610779
v 0.834279 0.271457 -0.633401
v 0.835543 0.340773 -0.610779
v 0.854951 0.321364 -0.633401
v 0.904858 0.271457 -0.648482
v -0.904858 0.271457 -0.633401
v -0.819547 0.186147 -0.633401
v -0.904858 0.150810 -0.633401
v -0.784211 0.271457 -0.633401
v -0.819547 0.356768 -0.633401
v -0.904858 0.392105 -0.633401
v -0.990169 0.356768 -0.633401
v -1.025506 0.271457 -0.633401
v -0.990169 0.186147 -0.633401
v -0.819547 0.186147 -0.105567
v -0.904858 0.150810 -0.105567
v -0.784211 0.271457 -0.105567
v -0.819547 0.356768 -0.105567
v -0.904858 0.392105 -0.105567
v -0.990169 0.356768 -0.105567
v -1.025506 0.271457 -0.105567
v -0.990169 0.186147 -0.105567
v -0.904858 0.271457 -0.105567
v -0.904858 0.369484 -0.610779
v -0.835543 0.340773 -0.610779
v -0.854951 0.321364 -0.633401
v -0.904858 0.342036 -0.633401
v -0.806832 0.271457 -0.610779
v -0.834279 0.271457 -0.633401
v -0.835543 0.202142 -0.610779
v -0.854951 0.221551 -0.633401
v -0.904858 0.173431 -0.610779
v -0.904858 0.200879 -0.633401
v -0.974173 0.202142 -0.610779
v -0.954765 0.221551 -0.633401
v -1.002885 0.271457 -0.610779
v -0.975437 0.271457 -0.633401
v -0.974173 0.340773 -0.610779
v -0.954765 0.321364 -0.633401
v -0.904858 0.271457 -0.648482
v -0.935020 0.226215 0.030162
v 0.000000 0.226215 0.030162
v 0.000000 0.316700 0.030162
v -0.935020 0.316700 0.030162
v 0.000000 0.226215 -0.165891
v -0.935020 0.226215 -0.165891
v -0.935020 0.316700 -0.165891
v 0.000000 0.316700 -0.165891
v 0.000000 0.226215 0.030162
v 0.935020 0.226215 0.030162
v 0.935020 0.316700 0.030162
v 0.000000 0.316700 0.030162
v 0.935020 0.226215 -0.165891
v 0.000000 0.226215 -0.165891
v 0.000000 0.316700 -0.165891
v 0.935020 0.316700 -0.165891
v 0.000000 0.271457 1.556356
v 0.182847 0.165891 1.556356
v 0.000000 0.060324 1.556356
v 0.182847 0.377024 1.556356
v 0.000000 0.482591 1.556356
v -0.182847 0.377024 1.556356
v -0.182847 0.165891 1.556356
v 0.000000 0.271457 2.235000
v -0.018851 0.361943 1.631761
v -0.018851 0.361943 2.008785
v -0.018851 0.452429 1.895678
v 0.018851 0.361943 1.631761
v 0.018851 0.452429 1.895678
v 0.018851 0.361943 2.008785
v -0.018851 0.452429 1.707166
v 0.018851 0.452429 1.707166
v -0.068937 0.209889 1.631761
v -0.068937 0.209889 2.008785
v -0.147300 0.164646 1.895678
v -0.087789 0.242540 1.631761
v -0.166152 0.197297 1.895678
v -0.087789 0.242540 2.008785
v -0.147300 0.164646 1.707166
v -0.166152 0.197297 1.707166
v 0.087789 0.242540 1.631761
v 0.087789 0.242540 2.008785
v 0.166152 0.197297 1.895678
v 0.068937 0.209889 1.631761
v 0.147300 0.164646 1.895678
v 0.068937 0.209889 2.008785
v 0.166152 0.197297 1.707166
v 0.147300 0.164646 1.707166
vt 0.445312 0.828125
vt 0.517128 0.944135
vt 0.445312 0.992188
vt 0.546875 0.828125
vt 0.517128 0.712115
vt 0.445312 0.664062
vt 0.373497 0.712115
vt 0.343750 0.828125
vt 0.373497 0.944135
vt 0.617188 0.429688
vt 0.664062 0.429688
vt 0.617188 0.476562
vt 0.617188 0.382812
vt 0.570312 0.429688
vt 0.718750 0.382812
vt 0.765625 0.382812
vt 0.718750 0.476562
vt 0.718750 0.382812
vt 0.671875 0.382812
vt 0.718750 0.476562
vt 0.671875 0.382812
vt 0.617188 0.429688
vt 0.664062 0.429688
vt 0.617188 0.476562
vt 0.617188 0.382812
vt 0.570312 0.429688
vt 0.718750 0.382812
vt 0.765625 0.382812
vt 0.718750 0.476562
vt 0.718750 0.382812
vt 0.671875 0.382812
vt 0.718750 0.476562
vt 0.671875 0.382812
vt 0.617188 0.429688
vt 0.664062 0.429688
vt 0.617188 0.476562
vt 0.617188 0.382812
vt 0.570312 0.429688
vt 0.765625 0.382812
vt 0.718750 0.382812
vt 0.718750 0.476562
vt 0.671875 0.382812
vt 0.617188 0.429688
vt 0.664062 0.429688
vt 0.617188 0.476562
vt 0.617188 0.382812
vt 0.570312 0.429688
vt 0.765625 0.382812
vt 0.718750 0.382812
vt 0.718750 0.476562
vt 0.765625 0.382812
vt 0.718750 0.382812
vt 0.718750 0.476562
vt 0.671875 0.382812
vt 0.617188 0.429688
vt 0.664062 0.429688
vt 0.617188 0.476562
vt 0.617188 0.382812
vt 0.570312 0.429688
vt 0.765625 0.382812
vt 0.718750 0.382812
vt 0.718750 0.476562
vt 0.671875 0.382812
vt 0.617188 0.429688
vt 0.664062 0.429688
vt 0.617188 0.476562
vt 0.617188 0.382812
vt 0.570312 0.429688
vt 0.718750 0.382812
vt 0.765625 0.382812
vt 0.718750 0.476562
vt 0.718750 0.382812
vt 0.671875 0.382812
vt 0.718750 0.476562
vt 0.671875 0.382812
vt 0.851562 0.210938
vt 0.945312 0.210938
vt 0.945312 0.273438
vt 0.851562 0.273438
vt 0.851562 0.210938
vt 0.851562 0.273438
vt 0.945312 0.273438
vt 0.945312 0.210938
vt 0.945312 0.210938
vt 0.851562 0.210938
vt 0.851562 0.273438
vt 0.945312 0.273438
vt 0.773438 0.140625
vt 0.835938 0.140625
vt 0.835938 0.187500
vt 0.773438 0.187500
vt 0.851563 0.210938
vt 0.945312 0.210938
vt 0.945312 0.273438
vt 0.851563 0.273438
vt 0.851562 0.210938
vt 0.851562 0.273438
vt 0.945312 0.273438
vt 0.945312 0.210938
vt 0.945312 0.210938
vt 0.851562 0.210938
vt 0.851562 0.273438
vt 0.945312 0.273438
vt 0.773438 0.140625
vt 0.835938 0.140625
vt 0.835938 0.187500
vt 0.773438 0.187500
vt 0.851562 0.210938
vt 0.945312 0.210938
vt 0.945312 0.273438
vt 0.851562 0.273438
vt 0.851562 0.210938
vt 0.851562 0.273438
vt 0.945312 0.273438
vt 0.945312 0.210938
vt 0.945312 0.210938
vt 0.851562 0.210938
vt 0.851562 0.273438
vt 0.945312 0.273438
vt 0.773438 0.140625
vt 0.835938 0.140625
vt 0.835938 0.187500
vt 0.773438 0.187500
vt 0.945312 0.210938
vt 0.851562 0.210938
vt 0.851562 0.273438
vt 0.945312 0.273438
vt 0.945312 0.273438
vt 0.945312 0.210938
vt 0.851562 0.210938
vt 0.851562 0.273438
vt 0.773438 0.140625
vt 0.835938 0.140625
vt 0.835938 0.187500
vt 0.773438 0.187500
vt 0.945312 0.210938
vt 0.851562 0.210938
vt 0.851562 0.273438
vt 0.945312 0.273438
vt 0.945312 0.210938
vt 0.851563 0.210938
vt 0.851563 0.273438
vt 0.945312 0.273438
vt 0.945312 0.273438
vt 0.945312 0.210938
vt 0.851562 0.210938
vt 0.851562 0.273438
vt 0.773438 0.140625
vt 0.835938 0.140625
vt 0.835938 0.187500
vt 0.773438 0.187500
vt 0.945312 0.210938
vt 0.851562 0.210938
vt 0.851562 0.273438
vt 0.945312 0.273438
vt 0.945312 0.210938
vt 0.851562 0.210938
vt 0.851562 0.273438
vt 0.945312 0.273438
vt 0.945312 0.273438
vt 0.945312 0.210938
vt 0.851562 0.210938
vt 0.851562 0.273438
vt 0.773438 0.140625
vt 0.835938 0.140625
vt 0.835938 0.187500
vt 0.773438 0.187500
vt 0.945312 0.210938
vt 0.851562 0.210938
vt 0.851562 0.273438
vt 0.945312 0.273438
vt 0.515625 0.117188
vt 0.547977 0.117188
vt 0.546966 0.132812
vt 0.515625 0.132812
vt 0.718750 0.272461
vt 0.750091 0.271429
vt 0.748069 0.269543
vt 0.718750 0.270508
vt 0.515625 0.132812
vt 0.544944 0.132812
vt 0.543933 0.117188
vt 0.515625 0.117188
vt 0.544944 0.101562
vt 0.515625 0.101562
vt 0.515625 0.101562
vt 0.546966 0.101562
vt 0.578125 0.117188
vt 0.576172 0.132812
vt 0.779297 0.268405
vt 0.775391 0.266714
vt 0.572266 0.132812
vt 0.570312 0.117188
vt 0.572266 0.101562
vt 0.576172 0.101562
vt 0.604013 0.117188
vt 0.601251 0.132812
vt 0.804376 0.263594
vt 0.798852 0.262213
vt 0.595727 0.132812
vt 0.592965 0.117188
vt 0.595727 0.101562
vt 0.601251 0.101562
vt 0.604013 0.117188
vt 0.578125 0.117188
vt 0.576172 0.132812
vt 0.601251 0.132812
vt 0.823620 0.257324
vt 0.816854 0.256348
vt 0.595727 0.132812
vt 0.572266 0.132812
vt 0.570312 0.117188
vt 0.592965 0.117188
vt 0.572266 0.101562
vt 0.595727 0.101562
vt 0.601251 0.101562
vt 0.576172 0.101562
vt 0.547977 0.117188
vt 0.546966 0.132812
vt 0.835718 0.250023
vt 0.828171 0.249517
vt 0.544944 0.132812
vt 0.543933 0.117188
vt 0.544944 0.101562
vt 0.546966 0.101562
vt 0.515625 0.117188
vt 0.515625 0.132812
vt 0.839844 0.242188
vt 0.832031 0.242188
vt 0.515625 0.101562
vt 0.483273 0.117188
vt 0.484284 0.132812
vt 0.835718 0.234352
vt 0.828171 0.234858
vt 0.486306 0.132812
vt 0.487317 0.117188
vt 0.486306 0.101562
vt 0.484284 0.101562
vt 0.453125 0.117188
vt 0.455078 0.132812
vt 0.823620 0.227051
vt 0.816854 0.228027
vt 0.458984 0.132812
vt 0.460938 0.117188
vt 0.458984 0.101562
vt 0.455078 0.101562
vt 0.427237 0.117188
vt 0.429999 0.132812
vt 0.804376 0.220781
vt 0.798852 0.222162
vt 0.435523 0.132812
vt 0.438285 0.117188
vt 0.435523 0.101562
vt 0.429999 0.101562
vt 0.604013 0.117188
vt 0.578125 0.117188
vt 0.576172 0.132812
vt 0.601251 0.132812
vt 0.779297 0.215970
vt 0.775391 0.217661
vt 0.595727 0.132812
vt 0.572266 0.132812
vt 0.570312 0.117188
vt 0.592965 0.117188
vt 0.572266 0.101562
vt 0.595727 0.101562
vt 0.601251 0.101562
vt 0.576172 0.101562
vt 0.547977 0.117188
vt 0.546966 0.132812
vt 0.750091 0.212946
vt 0.748069 0.214832
vt 0.544944 0.132812
vt 0.543933 0.117188
vt 0.544944 0.101562
vt 0.546966 0.101562
vt 0.718750 0.211914
vt 0.718750 0.213867
vt 0.483273 0.117188
vt 0.484284 0.132812
vt 0.687409 0.212946
vt 0.689431 0.214832
vt 0.486306 0.132812
vt 0.487317 0.117188
vt 0.486306 0.101562
vt 0.484284 0.101562
vt 0.453125 0.117188
vt 0.455078 0.132812
vt 0.658203 0.215970
vt 0.662109 0.217661
vt 0.458984 0.132812
vt 0.460938 0.117188
vt 0.458984 0.101562
vt 0.455078 0.101562
vt 0.427237 0.117188
vt 0.429999 0.132812
vt 0.633124 0.220781
vt 0.638648 0.222162
vt 0.435523 0.132812
vt 0.438285 0.117188
vt 0.435523 0.101562
vt 0.429999 0.101562
vt 0.613880 0.227051
vt 0.620646 0.228027
vt 0.601782 0.234352
vt 0.609329 0.234858
vt 0.597656 0.242188
vt 0.605469 0.242188
vt 0.601782 0.250023
vt 0.609329 0.249517
vt 0.613880 0.257324
vt 0.620646 0.256348
vt 0.633124 0.263594
vt 0.638648 0.262213
vt 0.427237 0.117188
vt 0.453125 0.117188
vt 0.455078 0.132812
vt 0.429999 0.132812
vt 0.658203 0.268405
vt 0.662109 0.266714
vt 0.435523 0.132812
vt 0.458984 0.132812
vt 0.460937 0.117188
vt 0.438285 0.117188
vt 0.458984 0.101562
vt 0.435523 0.101562
vt 0.429999 0.101562
vt 0.455078 0.101562
vt 0.483273 0.117188
vt 0.484284 0.132812
vt 0.687409 0.271429
vt 0.689431 0.269543
vt 0.486306 0.132812
vt 0.487317 0.117188
vt 0.486306 0.101562
vt 0.484284 0.101562
vt 0.671875 0.382812
vt 0.765625 0.382812
vt 0.765625 0.476562
vt 0.671875 0.476562
vt 0.765625 0.382812
vt 0.671875 0.382812
vt 0.671875 0.476562
vt 0.765625 0.476562
vt 0.570312 0.476562
vt 0.664062 0.476562
vt 0.664062 0.382812
vt 0.570312 0.382812
vt 0.671875 0.382812
vt 0.765625 0.382812
vt 0.765625 0.476562
vt 0.671875 0.476562
vt 0.671875 0.382812
vt 0.765625 0.382812
vt 0.765625 0.476562
vt 0.671875 0.476562
vt 0.765625 0.382812
vt 0.671875 0.382812
vt 0.671875 0.476562
vt 0.765625 0.476562
vt 0.570312 0.476562
vt 0.664062 0.476562
vt 0.664062 0.382812
vt 0.570312 0.382812
vt 0.671875 0.382812
vt 0.765625 0.382812
vt 0.765625 0.476562
vt 0.671875 0.476562
vt 0.671875 0.382812
vt 0.765625 0.382812
vt 0.765625 0.476562
vt 0.671875 0.476562
vt 0.765625 0.382812
vt 0.671875 0.382812
vt 0.671875 0.476562
vt 0.765625 0.476562
vt 0.570312 0.476562
vt 0.664062 0.476562
vt 0.664062 0.382812
vt 0.570312 0.382812
vt 0.671875 0.382812
vt 0.765625 0.382812
vt 0.765625 0.476562
vt 0.671875 0.476562
vt 0.671875 0.382812
vt 0.765625 0.382812
vt 0.765625 0.476562
vt 0.671875 0.476562
vt 0.765625 0.382812
vt 0.671875 0.382812
vt 0.671875 0.476562
vt 0.765625 0.476562
vt 0.570312 0.476562
vt 0.664062 0.476562
vt 0.664062 0.382812
vt 0.570312 0.382812
vt 0.671875 0.382812
vt 0.765625 0.382812
vt 0.765625 0.476562
vt 0.671875 0.476562
vt 0.671875 0.382812
vt 0.765625 0.382812
vt 0.765625 0.476562
vt 0.671875 0.476562
vt 0.765625 0.382812
vt 0.671875 0.382812
vt 0.671875 0.476562
vt 0.765625 0.476562
vt 0.570312 0.476562
vt 0.664062 0.476562
vt 0.664062 0.382812
vt 0.570312 0.382812
vt 0.671875 0.382812
vt 0.765625 0.382812
vt 0.765625 0.476562
vt 0.671875 0.476562
vt 0.671875 0.382812
vt 0.765625 0.382812
vt 0.765625 0.476562
vt 0.671875 0.476562
vt 0.765625 0.382812
vt 0.671875 0.382812
vt 0.671875 0.476562
vt 0.765625 0.476562
vt 0.570312 0.476562
vt 0.664062 0.476562
vt 0.664062 0.382812
vt 0.570312 0.382812
vt 0.671875 0.382812
vt 0.765625 0.382812
vt 0.765625 0.476562
vt 0.671875 0.476562
vt 0.539062 0.234375
vt 0.572208 0.206754
vt 0.539062 0.195312
vt 0.585938 0.234375
vt 0.572208 0.261996
vt 0.539062 0.273438
vt 0.505917 0.261996
vt 0.492188 0.234375
vt 0.505917 0.206754
vt 0.589844 0.664062
vt 0.614703 0.664062
vt 0.614703 0.992188
vt 0.589844 0.992188
vt 0.492188 0.308316
vt 0.492188 0.335938
vt 0.867188 0.335938
vt 0.867188 0.308316
vt 0.492188 0.363559
vt 0.867188 0.363559
vt 0.564985 0.664062
vt 0.564985 0.992188
vt 0.437500 0.195312
vt 0.470646 0.206754
vt 0.437500 0.234375
vt 0.484375 0.234375
vt 0.470646 0.261996
vt 0.437500 0.273438
vt 0.404354 0.261996
vt 0.390625 0.234375
vt 0.404354 0.206754
vt 0.054688 0.375000
vt 0.087833 0.361271
vt 0.078552 0.351990
vt 0.054688 0.361875
vt 0.101562 0.328125
vt 0.088438 0.328125
vt 0.087833 0.294979
vt 0.078552 0.304260
vt 0.054688 0.281250
vt 0.054688 0.294375
vt 0.021542 0.294979
vt 0.030823 0.304260
vt 0.007812 0.328125
vt 0.020938 0.328125
vt 0.021542 0.361271
vt 0.030823 0.351990
vt 0.054688 0.328125
vt 0.539062 0.234375
vt 0.572208 0.206754
vt 0.539062 0.195312
vt 0.585938 0.234375
vt 0.572208 0.261996
vt 0.539062 0.273438
vt 0.505917 0.261996
vt 0.492188 0.234375
vt 0.505917 0.206754
vt 0.589844 0.664062
vt 0.614703 0.664062
vt 0.614703 0.992188
vt 0.589844 0.992188
vt 0.492188 0.308316
vt 0.492188 0.335938
vt 0.867188 0.335938
vt 0.867188 0.308316
vt 0.492188 0.363559
vt 0.867188 0.363559
vt 0.564985 0.664062
vt 0.564985 0.992188
vt 0.437500 0.195312
vt 0.470646 0.206754
vt 0.437500 0.234375
vt 0.484375 0.234375
vt 0.470646 0.261996
vt 0.437500 0.273438
vt 0.404354 0.261996
vt 0.390625 0.234375
vt 0.404354 0.206754
vt 0.054687 0.375000
vt 0.087833 0.361271
vt 0.078552 0.351990
vt 0.054687 0.361875
vt 0.101562 0.328125
vt 0.088437 0.328125
vt 0.087833 0.294979
vt 0.078552 0.304260
vt 0.054687 0.281250
vt 0.054687 0.294375
vt 0.021542 0.294979
vt 0.030823 0.304260
vt 0.007812 0.328125
vt 0.020937 0.328125
vt 0.021542 0.361271
vt 0.030823 0.351990
vt 0.054687 0.328125
vt 0.187500 0.484375
vt 0.312500 0.484375
vt 0.312500 0.656250
vt 0.187500 0.656250
vt 0.312500 0.484375
vt 0.187500 0.484375
vt 0.187500 0.656250
vt 0.312500 0.656250
vt 0.320312 0.656250
vt 0.382812 0.656250
vt 0.382812 0.484375
vt 0.320312 0.484375
vt 0.187500 0.484375
vt 0.312500 0.484375
vt 0.312500 0.656250
vt 0.187500 0.656250
vt 0.187500 0.484375
vt 0.312500 0.484375
vt 0.312500 0.656250
vt 0.187500 0.656250
vt 0.312500 0.484375
vt 0.187500 0.484375
vt 0.187500 0.656250
vt 0.312500 0.656250
vt 0.320312 0.656250
vt 0.382812 0.656250
vt 0.382812 0.484375
vt 0.320312 0.484375
vt 0.187500 0.484375
vt 0.312500 0.484375
vt 0.312500 0.656250
vt 0.187500 0.656250
vt 0.101562 0.429688
vt 0.195312 0.406250
vt 0.101562 0.382812
vt 0.195312 0.453125
vt 0.101563 0.476562
vt 0.007813 0.453125
vt 0.007812 0.406250
vt 0.093750 0.484375
vt 0.179688 0.484375
vt 0.093750 0.656250
vt 0.007812 0.406250
vt 0.007812 0.453125
vt 0.195312 0.429688
vt 0.007813 0.484375
vt 0.671875 0.382812
vt 0.765625 0.382812
vt 0.737500 0.476562
vt 0.690625 0.476562
vt 0.570312 0.382812
vt 0.664062 0.382812
vt 0.664062 0.476562
vt 0.570312 0.476562
vt 0.664062 0.448438
vt 0.570312 0.448438
vt 0.664062 0.401563
vt 0.570312 0.401563
vt 0.671875 0.476562
vt 0.765625 0.476562
vt 0.765625 0.382812
vt 0.671875 0.382812
vt 0.664062 0.382812
vt 0.664062 0.476562
vt 0.588492 0.448438
vt 0.645883 0.382812
vt 0.570312 0.448438
vt 0.645883 0.476562
vt 0.588492 0.401563
vt 0.570312 0.401563
vt 0.671875 0.437265
vt 0.671875 0.476562
vt 0.765625 0.476562
vt 0.765625 0.437265
vt 0.737500 0.422110
vt 0.737500 0.382812
vt 0.690625 0.422110
vt 0.690625 0.382812
vt 0.690054 0.382812
vt 0.671875 0.422110
vt 0.747446 0.476562
vt 0.765625 0.437265
vt 0.588492 0.382812
vt 0.588492 0.476562
vt 0.664062 0.448438
vt 0.570312 0.382812
vt 0.645883 0.448438
vt 0.570312 0.476562
vt 0.664062 0.401563
vt 0.645883 0.401563
vt 0.671875 0.476562
vt 0.671875 0.437265
vt 0.765625 0.437265
vt 0.765625 0.476562
vt 0.737500 0.382812
vt 0.737500 0.422110
vt 0.690625 0.382812
vt 0.690625 0.422110
vt 0.765625 0.422110
vt 0.747446 0.382812
vt 0.671875 0.437265
vt 0.690054 0.476562
vn 0.171176 -0.975743 0.136468
vn 0.389440 -0.919510 0.053269
vn 0.389440 -0.919510 -0.053269
vn 0.171176 -0.975743 -0.136468
vn -0.171176 -0.975743 -0.136468
vn -0.389440 -0.919510 -0.053269
vn -0.389440 -0.919510 0.053269
vn -0.171176 -0.975743 0.136468
vn 0.171176 0.975743 0.136468
vn 0.389440 0.919510 0.053269
vn 0.389440 0.919510 -0.053269
vn 0.171176 0.975743 -0.136468
vn -0.171176 0.975743 -0.136468
vn -0.389440 0.919510 -0.053269
vn -0.389440 0.919510 0.053269
vn -0.171176 0.975743 0.136468
vn 0.000000 -1.000000 0.000000
vn 0.681799 0.265144 0.681799
vn 0.681799 0.265144 -0.681799
vn -0.681799 0.265144 -0.681799
vn -0.681799 0.265144 0.681799
vn 0.000000 -1.000000 0.000000
vn 0.681799 0.265144 0.681799
vn 0.681799 0.265144 -0.681799
vn -0.681799 0.265144 -0.681799
vn -0.681799 0.265144 0.681799
vn 0.000000 -1.000000 0.000000
vn 0.681799 0.265144 0.681799
vn 0.681799 0.265144 -0.681799
vn -0.681799 0.265144 -0.681799
vn -0.681799 0.265144 0.681799
vn 0.000000 -1.000000 0.000000
vn 0.681799 0.265144 0.681799
vn 0.681799 0.265144 -0.681799
vn -0.681799 0.265144 -0.681799
vn -0.681799 0.265144 0.681799
vn 0.000000 -1.000000 0.000000
vn 0.681799 0.265144 0.681799
vn 0.681799 0.265144 -0.681799
vn -0.681799 0.265144 -0.681799
vn -0.681799 0.265144 0.681799
vn 0.000000 -1.000000 0.000000
vn 0.681799 0.265144 0.681799
vn 0.681799 0.265144 -0.681799
vn -0.681799 0.265144 -0.681799
vn -0.681799 0.265144 0.681799
vn -1.000000 0.000000 0.000000
vn 1.000000 0.000000 0.000000
vn 0.000000 1.000000 0.000000
vn 0.000000 -1.000000 0.000000
vn 0.000000 0.000000 -1.000000
vn 0.000000 0.000000 1.000000
vn -1.000000 0.000000 0.000000
vn 1.000000 0.000000 0.000000
vn 0.000000 1.000000 0.000000
vn 0.000000 -1.000000 0.000000
vn -0.000000 0.000000 -1.000000
vn 0.000000 0.000000 1.000000
vn -1.000000 0.000000 0.000000
vn 1.000000 0.000000 0.000000
vn 0.000000 1.000000 0.000000
vn 0.000000 -1.000000 0.000000
vn 0.000000 0.000000 -1.000000
vn 0.000000 0.000000 1.000000
vn 1.000000 0.000000 0.000000
vn -1.000000 0.000000 0.000000
vn 0.000000 1.000000 0.000000
vn 0.000000 -1.000000 0.000000
vn 0.000000 0.000000 1.000000
vn 0.000000 0.000000 -1.000000
vn 1.000000 0.000000 0.000000
vn -1.000000 0.000000 0.000000
vn 0.000000 1.000000 0.000000
vn 0.000000 -1.000000 0.000000
vn 0.000000 0.000000 1.000000
vn 0.000000 0.000000 -1.000000
vn 1.000000 0.000000 0.000000
vn -1.000000 0.000000 0.000000
vn 0.000000 1.000000 0.000000
vn 0.000000 -1.000000 0.000000
vn 0.000000 0.000000 1.000000
vn 0.000000 0.000000 -1.000000
vn 0.113281 0.496782 0.860451
vn 0.000000 1.000000 0.000000
vn -0.113281 0.496782 -0.860451
vn -0.113281 -0.496782 -0.860451
vn -0.000000 -1.000000 -0.000000
vn 0.113281 -0.496782 0.860451
vn 0.332122 0.496782 0.801813
vn -0.332122 0.496782 -0.801813
vn -0.332122 -0.496782 -0.801813
vn 0.332122 -0.496782 0.801813
vn 0.528329 0.496782 0.688532
vn -0.528329 0.496782 -0.688532
vn -0.528329 -0.496782 -0.688532
vn 0.528329 -0.496782 0.688532
vn 0.688532 0.496782 0.528329
vn -0.688532 0.496782 -0.528329
vn -0.688532 -0.496782 -0.528329
vn 0.688532 -0.496782 0.528329
vn 0.801813 0.496782 0.332122
vn -0.801813 0.496782 -0.332122
vn -0.801813 -0.496782 -0.332122
vn 0.801813 -0.496782 0.332122
vn 0.860451 0.496782 0.113281
vn -0.860451 0.496782 -0.113281
vn -0.860451 -0.496782 -0.113281
vn 0.860451 -0.496782 0.113281
vn 0.860451 0.496782 -0.113281
vn -0.860451 0.496782 0.113281
vn -0.860451 -0.496782 0.113281
vn 0.860451 -0.496782 -0.113281
vn 0.801813 0.496782 -0.332122
vn -0.801813 0.496782 0.332122
vn -0.801813 -0.496782 0.332122
vn 0.801813 -0.496782 -0.332122
vn 0.688532 0.496782 -0.528329
vn -0.688532 0.496782 0.528329
vn -0.688532 -0.496782 0.528329
vn 0.688532 -0.496782 -0.528329
vn 0.528329 0.496782 -0.688532
vn -0.528329 0.496782 0.688532
vn -0.528329 -0.496782 0.688532
vn 0.528329 -0.496782 -0.688532
vn 0.332122 0.496782 -0.801813
vn -0.332122 0.496782 0.801813
vn -0.332122 -0.496782 0.801813
vn 0.332122 -0.496782 -0.801813
vn 0.113281 0.496782 -0.860451
vn -0.113281 0.496782 0.860451
vn -0.113281 -0.496782 0.860451
vn 0.113281 -0.496782 -0.860451
vn 0.000000 0.000000 1.000000
vn 0.000000 0.000000 -1.000000
vn -0.000000 1.000000 0.000000
vn 0.000000 -1.000000 0.000000
vn -1.000000 0.000000 0.000000
vn 1.000000 0.000000 0.000000
vn 0.000000 0.000000 1.000000
vn 0.000000 0.000000 -1.000000
vn -0.000000 1.000000 0.000000
vn 0.000000 -1.000000 0.000000
vn -1.000000 0.000000 0.000000
vn 1.000000 0.000000 0.000000
vn 0.000000 0.000000 1.000000
vn 0.000000 0.000000 -1.000000
vn -0.000000 1.000000 0.000000
vn 0.000000 -1.000000 0.000000
vn -1.000000 0.000000 0.000000
vn 1.000000 0.000000 0.000000
vn 0.000000 0.000000 1.000000
vn 0.000000 0.000000 -1.000000
vn -0.000000 1.000000 0.000000
vn 0.000000 -1.000000 0.000000
vn -1.000000 0.000000 0.000000
vn 1.000000 0.000000 0.000000
vn 0.000000 0.000000 1.000000
vn 0.000000 0.000000 -1.000000
vn -0.000000 1.000000 0.000000
vn 0.000000 -1.000000 0.000000
vn -1.000000 0.000000 0.000000
vn 1.000000 0.000000 0.000000
vn 0.000000 0.000000 1.000000
vn 0.000000 0.000000 -1.000000
vn -0.000000 1.000000 0.000000
vn 0.000000 -1.000000 0.000000
vn -1.000000 0.000000 0.000000
vn 1.000000 0.000000 0.000000
vn 0.000000 0.000000 -1.000000
vn 0.382683 -0.923880 0.000000
vn 0.923880 -0.382683 0.000000
vn 0.923880 0.382683 -0.000000
vn 0.382683 0.923880 -0.000000
vn -0.382683 0.923880 -0.000000
vn -0.923880 0.382683 -0.000000
vn -0.923880 -0.382683 0.000000
vn -0.382683 -0.923880 0.000000
vn 0.000000 0.000000 1.000000
vn 0.254750 0.615021 -0.746225
vn 0.615021 0.254750 -0.746225
vn 0.615021 -0.254750 -0.746225
vn 0.254750 -0.615021 -0.746225
vn -0.254750 -0.615021 -0.746225
vn -0.615021 -0.254750 -0.746225
vn -0.615021 0.254750 -0.746225
vn -0.254750 0.615021 -0.746225
vn 0.086231 0.208180 -0.974282
vn 0.208180 0.086231 -0.974282
vn 0.208180 -0.086231 -0.974282
vn 0.086231 -0.208180 -0.974282
vn -0.086231 -0.208180 -0.974282
vn -0.208180 -0.086231 -0.974282
vn -0.208180 0.086231 -0.974282
vn -0.086231 0.208180 -0.974282
vn 0.000000 0.000000 -1.000000
vn 0.382683 -0.923880 0.000000
vn 0.923880 -0.382683 0.000000
vn 0.923880 0.382683 -0.000000
vn 0.382683 0.923880 -0.000000
vn -0.382683 0.923880 -0.000000
vn -0.923880 0.382683 -0.000000
vn -0.923880 -0.382683 0.000000
vn -0.382683 -0.923880 0.000000
vn 0.000000 0.000000 1.000000
vn 0.254750 0.615021 -0.746225
vn 0.615021 0.254750 -0.746225
vn 0.615021 -0.254750 -0.746225
vn 0.254750 -0.615021 -0.746225
vn -0.254750 -0.615021 -0.746225
vn -0.615021 -0.254750 -0.746225
vn -0.615021 0.254750 -0.746225
vn -0.254750 0.615021 -0.746225
vn 0.086231 0.208180 -0.974282
vn 0.208180 0.086231 -0.974282
vn 0.208180 -0.086231 -0.974282
vn 0.086231 -0.208180 -0.974282
vn -0.086231 -0.208180 -0.974282
vn -0.208180 -0.086231 -0.974282
vn -0.208180 0.086231 -0.974282
vn -0.086231 0.208180 -0.974282
vn 0.000000 0.000000 1.000000
vn 0.000000 0.000000 -1.000000
vn -0.000000 1.000000 0.000000
vn 0.000000 -1.000000 0.000000
vn -1.000000 0.000000 0.000000
vn 1.000000 0.000000 0.000000
vn 0.000000 0.000000 1.000000
vn 0.000000 0.000000 -1.000000
vn -0.000000 1.000000 0.000000
vn 0.000000 -1.000000 0.000000
vn -1.000000 0.000000 0.000000
vn 1.000000 0.000000 0.000000
vn 0.000000 0.000000 -1.000000
vn 0.482784 -0.836206 0.260153
vn 0.965567 -0.000000 0.260153
vn 0.482784 0.836206 0.260153
vn -0.482784 0.836206 0.260153
vn -0.965567 0.000000 0.260153
vn -0.482784 -0.836206 0.260153
vn -1.000000 0.000000 0.000000
vn 1.000000 -0.000000 0.000000
vn 0.000000 -1.000000 0.000000
vn -0.000000 0.780869 0.624695
vn -0.000000 1.000000 0.000000
vn 0.000000 0.640184 -0.768221
vn 0.500000 -0.866025 0.000000
vn -0.500000 0.866025 0.000000
vn 0.866025 0.500000 0.000000
vn -0.676252 -0.390434 0.624695
vn -0.866025 -0.500000 0.000000
vn -0.554416 -0.320092 -0.768221
vn 0.500000 0.866025 -0.000000
vn -0.500000 -0.866025 0.000000
vn -0.866025 0.500000 0.000000
vn 0.676252 -0.390434 0.624695
vn 0.866025 -0.500000 0.000000
vn 0.554416 -0.320092 -0.768221
f 1/1/1 2/2/1 3/3/1
f 1/1/2 4/4/2 2/2/2
f 1/1/3 5/5/3 4/4/3
f 1/1/4 6/6/4 5/5/4
f 1/1/5 7/7/5 6/6/5
f 1/1/6 8/8/6 7/7/6
f 1/1/7 9/9/7 8/8/7
f 1/1/8 3/3/8 9/9/8
f 3/3/9 2/2/9 10/1/9
f 2/2/10 4/4/10 10/1/10
f 4/4/11 5/5/11 10/1/11
f 5/5/12 6/6/12 10/1/12
f 6/6/13 7/7/13 10/1/13
f 7/7/14 8/8/14 10/1/14
f 8/8/15 9/9/15 10/1/15
f 9/9/16 3/3/16 10/1/16
f 11/10/17 12/11/17 13/12/17
f 11/10/17 14/13/17 12/11/17
f 11/10/17 15/14/17 14/13/17
f 11/10/17 13/12/17 15/14/17
f 13/15/18 12/16/18 16/17/18
f 12/18/19 14/19/19 16/20/19
f 14/19/20 15/18/20 16/20/20
f 15/21/21 13/15/21 16/17/21
f 17/22/22 18/23/22 19/24/22
f 17/22/22 20/25/22 18/23/22
f 17/22/22 21/26/22 20/25/22
f 17/22/22 19/24/22 21/26/22
f 19/27/23 18/28/23 22/29/23
f 18/30/24 20/31/24 22/32/24
f 20/31/25 21/30/25 22/32/25
f 21/33/26 19/27/26 22/29/26
f 23/34/27 24/35/27 25/36/27
f 23/34/27 26/37/27 24/35/27
f 23/34/27 27/38/27 26/37/27
f 23/34/27 25/36/27 27/38/27
f 25/39/28 24/40/28 28/41/28
f 24/40/29 26/42/29 28/41/29
f 26/42/30 27/40/30 28/41/30
f 27/40/31 25/39/31 28/41/31
f 29/43/32 30/44/32 31/45/32
f 29/43/32 32/46/32 30/44/32
f 29/43/32 33/47/32 32/46/32
f 29/43/32 31/45/32 33/47/32
f 31/48/33 30/49/33 34/50/33
f 30/51/34 32/52/34 34/53/34
f 32/52/35 33/54/35 34/53/35
f 33/49/36 31/48/36 34/50/36
f 35/55/37 36/56/37 37/57/37
f 35/55/37 38/58/37 36/56/37
f 35/55/37 39/59/37 38/58/37
f 35/55/37 37/57/37 39/59/37
f 37/60/38 36/61/38 40/62/38
f 36/61/39 38/63/39 40/62/39
f 38/63/40 39/61/40 40/62/40
f 39/61/41 37/60/41 40/62/41
f 41/64/42 42/65/42 43/66/42
f 41/64/42 44/67/42 42/65/42
f 41/64/42 45/68/42 44/67/42
f 41/64/42 43/66/42 45/68/42
f 43/69/43 42/70/43 46/71/43
f 42/72/44 44/73/44 46/74/44
f 44/73/45 45/72/45 46/74/45
f 45/75/46 43/69/46 46/71/46
f 47/76/47 48/77/47 49/78/47
f 47/76/47 49/78/47 50/79/47
f 51/77/48 52/76/48 53/79/48
f 51/77/48 53/79/48 54/78/48
f 50/80/49 49/81/49 54/82/49
f 50/80/49 54/82/49 53/83/49
f 52/83/50 51/82/50 48/81/50
f 52/83/50 48/81/50 47/80/50
f 52/84/51 47/85/51 50/86/51
f 52/84/51 50/86/51 53/87/51
f 48/88/52 51/89/52 54/90/52
f 48/88/52 54/90/52 49/91/52
f 55/92/53 56/93/53 57/94/53
f 55/92/53 57/94/53 58/95/53
f 59/93/54 60/92/54 61/95/54
f 59/93/54 61/95/54 62/94/54
f 58/96/55 57/97/55 62/98/55
f 58/96/55 62/98/55 61/99/55
f 60/99/56 59/98/56 56/97/56
f 60/99/56 56/97/56 55/96/56
f 60/100/57 55/101/57 58/102/57
f 60/100/57 58/102/57 61/103/57
f 56/104/58 59/105/58 62/106/58
f 56/104/58 62/106/58 57/107/58
f 63/108/59 64/109/59 65/110/59
f 63/108/59 65/110/59 66/111/59
f 67/109/60 68/108/60 69/111/60
f 67/109/60 69/111/60 70/110/60
f 66/112/61 65/113/61 70/114/61
f 66/112/61 70/114/61 69/115/61
f 68/115/62 67/114/62 64/113/62
f 68/115/62 64/113/62 63/112/62
f 68/116/63 63/117/63 66/118/63
f 68/116/63 66/118/63 69/119/63
f 64/120/64 67/121/64 70/122/64
f 64/120/64 70/122/64 65/123/64
f 71/124/65 72/125/65 73/126/65
f 71/124/65 73/126/65 74/127/65
f 75/125/66 76/124/66 77/127/66
f 75/125/66 77/127/66 78/126/66
f 74/128/67 73/129/67 78/130/67
f 74/128/67 78/130/67 77/131/67
f 76/131/68 75/130/68 72/129/68
f 76/131/68 72/129/68 71/128/68
f 76/132/69 71/133/69 74/134/69
f 76/132/69 74/134/69 77/135/69
f 72/136/70 75/137/70 78/138/70
f 72/136/70 78/138/70 73/139/70
f 79/140/71 80/141/71 81/142/71
f 79/140/71 81/142/71 82/143/71
f 83/141/72 84/140/72 85/143/72
f 83/141/72 85/143/72 86/142/72
f 82/144/73 81/145/73 86/146/73
f 82/144/73 86/146/73 85/147/73
f 84/147/74 83/146/74 80/145/74
f 84/147/74 80/145/74 79/144/74
f 84/148/75 79/149/75 82/150/75
f 84/148/75 82/150/75 85/151/75
f 80/152/76 83/153/76 86/154/76
f 80/152/76 86/154/76 81/155/76
f 87/156/77 88/157/77 89/158/77
f 87/156/77 89/158/77 90/159/77
f 91/157/78 92/156/78 93/159/78
f 91/157/78 93/159/78 94/158/78
f 90/160/79 89/161/79 94/162/79
f 90/160/79 94/162/79 93/163/79
f 92/163/80 91/162/80 88/161/80
f 92/163/80 88/161/80 87/160/80
f 92/164/81 87/165/81 90/166/81
f 92/164/81 90/166/81 93/167/81
f 88/168/82 91/169/82 94/170/82
f 88/168/82 94/170/82 89/171/82
f 95/172/83 96/173/83 97/174/83
f 95/172/83 97/174/83 98/175/83
f 98/176/84 97/177/84 99/178/84
f 98/176/84 99/178/84 100/179/84
f 100/180/85 99/181/85 101/182/85
f 100/180/85 101/182/85 102/183/85
f 102/183/86 101/182/86 103/184/86
f 102/183/86 103/184/86 104/185/86
f 104/179/87 103/178/87 105/177/87
f 104/179/87 105/177/87 106/176/87
f 106/186/88 105/187/88 96/173/88
f 106/186/88 96/173/88 95/172/88
f 96/173/89 107/188/89 108/189/89
f 96/173/89 108/189/89 97/174/89
f 97/177/84 108/190/84 109/191/84
f 97/177/84 109/191/84 99/178/84
f 99/181/90 109/192/90 110/193/90
f 99/181/90 110/193/90 101/182/90
f 101/182/91 110/193/91 111/194/91
f 101/182/91 111/194/91 103/184/91
f 103/178/87 111/191/87 112/190/87
f 103/178/87 112/190/87 105/177/87
f 105/187/92 112/195/92 107/188/92
f 105/187/92 107/188/92 96/173/92
f 107/188/93 113/196/93 114/197/93
f 107/188/93 114/197/93 108/189/93
f 108/190/84 114/198/84 115/199/84
f 108/190/84 115/199/84 109/191/84
f 109/192/94 115/200/94 116/201/94
f 109/192/94 116/201/94 110/193/94
f 110/193/95 116/201/95 117/202/95
f 110/193/95 117/202/95 111/194/95
f 111/191/87 117/199/87 118/198/87
f 111/191/87 118/198/87 112/190/87
f 112/195/96 118/203/96 113/196/96
f 112/195/96 113/196/96 107/188/96
f 113/204/97 119/205/97 120/206/97
f 113/204/97 120/206/97 114/207/97
f 114/198/84 120/208/84 121/209/84
f 114/198/84 121/209/84 115/199/84
f 115/210/98 121/211/98 122/212/98
f 115/210/98 122/212/98 116/213/98
f 116/213/99 122/212/99 123/214/99
f 116/213/99 123/214/99 117/215/99
f 117/199/87 123/209/87 124/208/87
f 117/199/87 124/208/87 118/198/87
f 118/216/100 124/217/100 119/205/100
f 118/216/100 119/205/100 113/204/100
f 119/205/101 125/218/101 126/219/101
f 119/205/101 126/219/101 120/206/101
f 120/208/84 126/220/84 127/221/84
f 120/208/84 127/221/84 121/209/84
f 121/211/102 127/222/102 128/223/102
f 121/211/102 128/223/102 122/212/102
f 122/212/103 128/223/103 129/224/103
f 122/212/103 129/224/103 123/214/103
f 123/209/87 129/221/87 130/220/87
f 123/209/87 130/220/87 124/208/87
f 124/217/104 130/225/104 125/218/104
f 124/217/104 125/218/104 119/205/104
f 125/218/105 131/226/105 132/227/105
f 125/218/105 132/227/105 126/219/105
f 126/220/84 132/228/84 133/229/84
f 126/220/84 133/229/84 127/221/84
f 127/222/106 133/227/106 134/226/106
f 127/222/106 134/226/106 128/223/106
f 128/223/107 134/226/107 135/230/107
f 128/223/107 135/230/107 129/224/107
f 129/221/87 135/229/87 136/228/87
f 129/221/87 136/228/87 130/220/87
f 130/225/108 136/230/108 131/226/108
f 130/225/108 131/226/108 125/218/108
f 131/226/109 137/231/109 138/232/109
f 131/226/109 138/232/109 132/227/109
f 132/228/84 138/233/84 139/234/84
f 132/228/84 139/234/84 133/229/84
f 133/227/110 139/235/110 140/236/110
f 133/227/110 140/236/110 134/226/110
f 134/226/111 140/236/111 141/237/111
f 134/226/111 141/237/111 135/230/111
f 135/229/87 141/234/87 142/233/87
f 135/229/87 142/233/87 136/228/87
f 136/230/112 142/238/112 137/231/112
f 136/230/112 137/231/112 131/226/112
f 137/231/113 143/239/113 144/240/113
f 137/231/113 144/240/113 138/232/113
f 138/233/84 144/241/84 145/242/84
f 138/233/84 145/242/84 139/234/84
f 139/235/114 145/243/114 146/244/114
f 139/235/114 146/244/114 140/236/114
f 140/236/115 146/244/115 147/245/115
f 140/236/115 147/245/115 141/237/115
f 141/234/87 147/242/87 148/241/87
f 141/234/87 148/241/87 142/233/87
f 142/238/116 148/246/116 143/239/116
f 142/238/116 143/239/116 137/231/116
f 143/239/117 149/247/117 150/248/117
f 143/239/117 150/248/117 144/240/117
f 144/241/84 150/249/84 151/250/84
f 144/241/84 151/250/84 145/242/84
f 145/243/118 151/251/118 152/252/118
f 145/243/118 152/252/118 146/244/118
f 146/244/119 152/252/119 153/253/119
f 146/244/119 153/253/119 147/245/119
f 147/242/87 153/250/87 154/249/87
f 147/242/87 154/249/87 148/241/87
f 148/246/120 154/254/120 149/247/120
f 148/246/120 149/247/120 143/239/120
f 149/255/121 155/256/121 156/257/121
f 149/255/121 156/257/121 150/258/121
f 150/249/84 156/259/84 157/260/84
f 150/249/84 157/260/84 151/250/84
f 151/261/122 157/262/122 158/263/122
f 151/261/122 158/263/122 152/264/122
f 152/264/123 158/263/123 159/265/123
f 152/264/123 159/265/123 153/266/123
f 153/250/87 159/260/87 160/259/87
f 153/250/87 160/259/87 154/249/87
f 154/267/124 160/268/124 155/256/124
f 154/267/124 155/256/124 149/255/124
f 155/256/125 161/269/125 162/270/125
f 155/256/125 162/270/125 156/257/125
f 156/259/84 162/271/84 163/272/84
f 156/259/84 163/272/84 157/260/84
f 157/262/126 163/273/126 164/274/126
f 157/262/126 164/274/126 158/263/126
f 158/263/127 164/274/127 165/275/127
f 158/263/127 165/275/127 159/265/127
f 159/260/87 165/272/87 166/271/87
f 159/260/87 166/271/87 160/259/87
f 160/268/128 166/276/128 161/269/128
f 160/268/128 161/269/128 155/256/128
f 161/269/129 167/183/129 168/180/129
f 161/269/129 168/180/129 162/270/129
f 162/271/84 168/277/84 169/278/84
f 162/271/84 169/278/84 163/272/84
f 163/273/130 169/175/130 170/172/130
f 163/273/130 170/172/130 164/274/130
f 164/274/131 170/172/131 171/186/131
f 164/274/131 171/186/131 165/275/131
f 165/272/87 171/278/87 172/277/87
f 165/272/87 172/277/87 166/271/87
f 166/276/132 172/185/132 167/183/132
f 166/276/132 167/183/132 161/269/132
f 167/183/85 173/279/85 174/280/85
f 167/183/85 174/280/85 168/180/85
f 168/277/84 174/281/84 175/282/84
f 168/277/84 175/282/84 169/278/84
f 169/175/83 175/283/83 176/284/83
f 169/175/83 176/284/83 170/172/83
f 170/172/88 176/284/88 177/285/88
f 170/172/88 177/285/88 171/186/88
f 171/278/87 177/282/87 178/281/87
f 171/278/87 178/281/87 172/277/87
f 172/185/86 178/286/86 173/279/86
f 172/185/86 173/279/86 167/183/86
f 173/279/90 179/287/90 180/288/90
f 173/279/90 180/288/90 174/280/90
f 174/281/84 180/289/84 181/290/84
f 174/281/84 181/290/84 175/282/84
f 175/283/89 181/291/89 182/292/89
f 175/283/89 182/292/89 176/284/89
f 176/284/92 182/292/92 183/293/92
f 176/284/92 183/293/92 177/285/92
f 177/282/87 183/290/87 184/289/87
f 177/282/87 184/289/87 178/281/87
f 178/286/91 184/294/91 179/287/91
f 178/286/91 179/287/91 173/279/91
f 179/287/94 185/295/94 186/296/94
f 179/287/94 186/296/94 180/288/94
f 180/289/84 186/297/84 187/298/84
f 180/289/84 187/298/84 181/290/84
f 181/291/93 187/299/93 188/300/93
f 181/291/93 188/300/93 182/292/93
f 182/292/96 188/300/96 189/301/96
f 182/292/96 189/301/96 183/293/96
f 183/290/87 189/298/87 190/297/87
f 183/290/87 190/297/87 184/289/87
f 184/294/95 190/302/95 185/295/95
f 184/294/95 185/295/95 179/287/95
f 185/247/98 191/239/98 192/240/98
f 185/247/98 192/240/98 186/248/98
f 186/297/84 192/303/84 193/304/84
f 186/297/84 193/304/84 187/298/84
f 187/251/97 193/243/97 194/244/97
f 187/251/97 194/244/97 188/252/97
f 188/252/100 194/244/100 195/245/100
f 188/252/100 195/245/100 189/253/100
f 189/298/87 195/304/87 196/303/87
f 189/298/87 196/303/87 190/297/87
f 190/254/99 196/246/99 191/239/99
f 190/254/99 191/239/99 185/247/99
f 191/239/102 197/231/102 198/232/102
f 191/239/102 198/232/102 192/240/102
f 192/303/84 198/305/84 199/306/84
f 192/303/84 199/306/84 193/304/84
f 193/243/101 199/235/101 200/236/101
f 193/243/101 200/236/101 194/244/101
f 194/244/104 200/236/104 201/237/104
f 194/244/104 201/237/104 195/245/104
f 195/304/87 201/306/87 202/305/87
f 195/304/87 202/305/87 196/303/87
f 196/246/103 202/238/103 197/231/103
f 196/246/103 197/231/103 191/239/103
f 197/231/106 203/226/106 204/227/106
f 197/231/106 204/227/106 198/232/106
f 198/305/84 204/307/84 205/308/84
f 198/305/84 205/308/84 199/306/84
f 199/235/105 205/227/105 206/226/105
f 199/235/105 206/226/105 200/236/105
f 200/236/108 206/226/108 207/230/108
f 200/236/108 207/230/108 201/237/108
f 201/306/87 207/308/87 208/307/87
f 201/306/87 208/307/87 202/305/87
f 202/238/107 208/230/107 203/226/107
f 202/238/107 203/226/107 197/231/107
f 203/226/110 209/218/110 210/219/110
f 203/226/110 210/219/110 204/227/110
f 204/307/84 210/309/84 211/310/84
f 204/307/84 211/310/84 205/308/84
f 205/227/109 211/222/109 212/223/109
f 205/227/109 212/223/109 206/226/109
f 206/226/112 212/223/112 213/224/112
f 206/226/112 213/224/112 207/230/112
f 207/308/87 213/310/87 214/309/87
f 207/308/87 214/309/87 208/307/87
f 208/230/111 214/225/111 209/218/111
f 208/230/111 209/218/111 203/226/111
f 209/218/114 215/205/114 216/206/114
f 209/218/114 216/206/114 210/219/114
f 210/309/84 216/311/84 217/312/84
f 210/309/84 217/312/84 211/310/84
f 211/222/113 217/211/113 218/212/113
f 211/222/113 218/212/113 212/223/113
f 212/223/116 218/212/116 219/214/116
f 212/223/116 219/214/116 213/224/116
f 213/310/87 219/312/87 220/311/87
f 213/310/87 220/311/87 214/309/87
f 214/225/115 220/217/115 215/205/115
f 214/225/115 215/205/115 209/218/115
f 215/205/118 221/204/118 222/207/118
f 215/205/118 222/207/118 216/206/118
f 216/311/84 222/313/84 223/314/84
f 216/311/84 223/314/84 217/312/84
f 217/211/117 223/210/117 224/213/117
f 217/211/117 224/213/117 218/212/117
f 218/212/120 224/213/120 225/215/120
f 218/212/120 225/215/120 219/214/120
f 219/312/87 225/314/87 226/313/87
f 219/312/87 226/313/87 220/311/87
f 220/217/119 226/216/119 221/204/119
f 220/217/119 221/204/119 215/205/119
f 221/315/122 227/316/122 228/317/122
f 221/315/122 228/317/122 222/318/122
f 222/313/84 228/319/84 229/320/84
f 222/313/84 229/320/84 223/314/84
f 223/321/121 229/322/121 230/323/121
f 223/321/121 230/323/121 224/324/121
f 224/324/124 230/323/124 231/325/124
f 224/324/124 231/325/124 225/326/124
f 225/314/87 231/320/87 232/319/87
f 225/314/87 232/319/87 226/313/87
f 226/327/123 232/328/123 227/316/123
f 226/327/123 227/316/123 221/315/123
f 227/316/126 233/329/126 234/330/126
f 227/316/126 234/330/126 228/317/126
f 228/319/84 234/331/84 235/332/84
f 228/319/84 235/332/84 229/320/84
f 229/322/125 235/333/125 236/334/125
f 229/322/125 236/334/125 230/323/125
f 230/323/128 236/334/128 237/335/128
f 230/323/128 237/335/128 231/325/128
f 231/320/87 237/332/87 238/331/87
f 231/320/87 238/331/87 232/319/87
f 232/328/127 238/336/127 233/329/127
f 232/328/127 233/329/127 227/316/127
f 233/329/130 95/172/130 98/175/130
f 233/329/130 98/175/130 234/330/130
f 234/331/84 98/176/84 100/179/84
f 234/331/84 100/179/84 235/332/84
f 235/333/129 100/180/129 102/183/129
f 235/333/129 102/183/129 236/334/129
f 236/334/132 102/183/132 104/185/132
f 236/334/132 104/185/132 237/335/132
f 237/332/87 104/179/87 106/176/87
f 237/332/87 106/176/87 238/331/87
f 238/336/131 106/186/131 95/172/131
f 238/336/131 95/172/131 233/329/131
f 239/337/133 240/338/133 241/339/133
f 239/337/133 241/339/133 242/340/133
f 243/341/134 244/342/134 245/343/134
f 243/341/134 245/343/134 246/344/134
f 242/345/135 241/346/135 246/347/135
f 242/345/135 246/347/135 245/348/135
f 244/348/136 243/347/136 240/346/136
f 244/348/136 240/346/136 239/345/136
f 244/349/137 239/350/137 242/351/137
f 244/349/137 242/351/137 245/352/137
f 240/350/138 243/349/138 246/352/138
f 240/350/138 246/352/138 241/351/138
f 247/353/139 248/354/139 249/355/139
f 247/353/139 249/355/139 250/356/139
f 251/357/140 252/358/140 253/359/140
f 251/357/140 253/359/140 254/360/140
f 250/361/141 249/362/141 254/363/141
f 250/361/141 254/363/141 253/364/141
f 252/364/142 251/363/142 248/362/142
f 252/364/142 248/362/142 247/361/142
f 252/365/143 247/366/143 250/367/143
f 252/365/143 250/367/143 253/368/143
f 248/366/144 251/365/144 254/368/144
f 248/366/144 254/368/144 249/367/144
f 255/369/145 256/370/145 257/371/145
f 255/369/145 257/371/145 258/372/145
f 259/373/146 260/374/146 261/375/146
f 259/373/146 261/375/146 262/376/146
f 258/377/147 257/378/147 262/379/147
f 258/377/147 262/379/147 261/380/147
f 260/380/148 259/379/148 256/378/148
f 260/380/148 256/378/148 255/377/148
f 260/381/149 255/382/149 258/383/149
f 260/381/149 258/383/149 261/384/149
f 256/382/150 259/381/150 262/384/150
f 256/382/150 262/384/150 257/383/150
f 263/385/151 264/386/151 265/387/151
f 263/385/151 265/387/151 266/388/151
f 267/389/152 268/390/152 269/391/152
f 267/389/152 269/391/152 270/392/152
f 266/393/153 265/394/153 270/395/153
f 266/393/153 270/395/153 269/396/153
f 268/396/154 267/395/154 264/394/154
f 268/396/154 264/394/154 263/393/154
f 268/397/155 263/398/155 266/399/155
f 268/397/155 266/399/155 269/400/155
f 264/398/156 267/397/156 270/400/156
f 264/398/156 270/400/156 265/399/156
f 271/401/157 272/402/157 273/403/157
f 271/401/157 273/403/157 274/404/157
f 275/405/158 276/406/158 277/407/158
f 275/405/158 277/407/158 278/408/158
f 274/409/159 273/410/159 278/411/159
f 274/409/159 278/411/159 277/412/159
f 276/412/160 275/411/160 272/410/160
f 276/412/160 272/410/160 271/409/160
f 276/413/161 271/414/161 274/415/161
f 276/413/161 274/415/161 277/416/161
f 272/414/162 275/413/162 278/416/162
f 272/414/162 278/416/162 273/415/162
f 279/417/163 280/418/163 281/419/163
f 279/417/163 281/419/163 282/420/163
f 283/421/164 284/422/164 285/423/164
f 283/421/164 285/423/164 286/424/164
f 282/425/165 281/426/165 286/427/165
f 282/425/165 286/427/165 285/428/165
f 284/428/166 283/427/166 280/426/166
f 284/428/166 280/426/166 279/425/166
f 284/429/167 279/430/167 282/431/167
f 284/429/167 282/431/167 285/432/167
f 280/430/168 283/429/168 286/432/168
f 280/430/168 286/432/168 281/431/168
f 287/433/169 288/434/169 289/435/169
f 287/433/169 290/436/169 288/434/169
f 287/433/169 291/437/169 290/436/169
f 287/433/169 292/438/169 291/437/169
f 287/433/169 293/439/169 292/438/169
f 287/433/169 294/440/169 293/439/169
f 287/433/169 295/441/169 294/440/169
f 287/433/169 289/435/169 295/441/169
f 289/442/170 288/443/170 296/444/170
f 289/442/170 296/444/170 297/445/170
f 288/446/171 290/447/171 298/448/171
f 288/446/171 298/448/171 296/449/171
f 290/447/172 291/450/172 299/451/172
f 290/447/172 299/451/172 298/448/172
f 291/443/173 292/442/173 300/445/173
f 291/443/173 300/445/173 299/444/173
f 292/442/174 293/452/174 301/453/174
f 292/442/174 301/453/174 300/445/174
f 293/450/175 294/447/175 302/448/175
f 293/450/175 302/448/175 301/451/175
f 294/447/176 295/446/176 303/449/176
f 294/447/176 303/449/176 302/448/176
f 295/452/177 289/442/177 297/445/177
f 295/452/177 297/445/177 303/453/177
f 297/454/178 296/455/178 304/456/178
f 296/455/178 298/457/178 304/456/178
f 298/457/178 299/458/178 304/456/178
f 299/458/178 300/459/178 304/456/178
f 300/459/178 301/460/178 304/456/178
f 301/460/178 302/461/178 304/456/178
f 302/461/178 303/462/178 304/456/178
f 303/462/178 297/454/178 304/456/178
f 305/463/179 306/464/179 307/465/179
f 305/463/179 307/465/179 308/466/179
f 306/464/180 309/467/180 310/468/180
f 306/464/180 310/468/180 307/465/180
f 309/467/181 311/469/181 312/470/181
f 309/467/181 312/470/181 310/468/181
f 311/469/182 313/471/182 314/472/182
f 311/469/182 314/472/182 312/470/182
f 313/471/183 315/473/183 316/474/183
f 313/471/183 316/474/183 314/472/183
f 315/473/184 317/475/184 318/476/184
f 315/473/184 318/476/184 316/474/184
f 317/475/185 319/477/185 320/478/185
f 317/475/185 320/478/185 318/476/185
f 319/477/186 305/463/186 308/466/186
f 319/477/186 308/466/186 320/478/186
f 308/466/187 307/465/187 321/479/187
f 307/465/188 310/468/188 321/479/188
f 310/468/189 312/470/189 321/479/189
f 312/470/190 314/472/190 321/479/190
f 314/472/191 316/474/191 321/479/191
f 316/474/192 318/476/192 321/479/192
f 318/476/193 320/478/193 321/479/193
f 320/478/194 308/466/194 321/479/194
f 322/480/195 323/481/195 324/482/195
f 322/480/195 325/483/195 323/481/195
f 322/480/195 326/484/195 325/483/195
f 322/480/195 327/485/195 326/484/195
f 322/480/195 328/486/195 327/485/195
f 322/480/195 329/487/195 328/486/195
f 322/480/195 330/488/195 329/487/195
f 322/480/195 324/482/195 330/488/195
f 324/489/196 323/490/196 331/491/196
f 324/489/196 331/491/196 332/492/196
f 323/493/197 325/494/197 333/495/197
f 323/493/197 333/495/197 331/496/197
f 325/494/198 326/497/198 334/498/198
f 325/494/198 334/498/198 333/495/198
f 326/490/199 327/489/199 335/492/199
f 326/490/199 335/492/199 334/491/199
f 327/489/200 328/499/200 336/500/200
f 327/489/200 336/500/200 335/492/200
f 328/497/201 329/494/201 337/495/201
f 328/497/201 337/495/201 336/498/201
f 329/494/202 330/493/202 338/496/202
f 329/494/202 338/496/202 337/495/202
f 330/499/203 324/489/203 332/492/203
f 330/499/203 332/492/203 338/500/203
f 332/501/204 331/502/204 339/503/204
f 331/502/204 333/504/204 339/503/204
f 333/504/204 334/505/204 339/503/204
f 334/505/204 335/506/204 339/503/204
f 335/506/204 336/507/204 339/503/204
f 336/507/204 337/508/204 339/503/204
f 337/508/204 338/509/204 339/503/204
f 338/509/204 332/501/204 339/503/204
f 340/510/205 341/511/205 342/512/205
f 340/510/205 342/512/205 343/513/205
f 341/511/206 344/514/206 345/515/206
f 341/511/206 345/515/206 342/512/206
f 344/514/207 346/516/207 347/517/207
f 344/514/207 347/517/207 345/515/207
f 346/516/208 348/518/208 349/519/208
f 346/516/208 349/519/208 347/517/208
f 348/518/209 350/520/209 351/521/209
f 348/518/209 351/521/209 349/519/209
f 350/520/210 352/522/210 353/523/210
f 350/520/210 353/523/210 351/521/210
f 352/522/211 354/524/211 355/525/211
f 352/522/211 355/525/211 353/523/211
f 354/524/212 340/510/212 343/513/212
f 354/524/212 343/513/212 355/525/212
f 343/513/213 342/512/213 356/526/213
f 342/512/214 345/515/214 356/526/214
f 345/515/215 347/517/215 356/526/215
f 347/517/216 349/519/216 356/526/216
f 349/519/217 351/521/217 356/526/217
f 351/521/218 353/523/218 356/526/218
f 353/523/219 355/525/219 356/526/219
f 355/525/220 343/513/220 356/526/220
f 357/527/221 358/528/221 359/529/221
f 357/527/221 359/529/221 360/530/221
f 361/531/222 362/532/222 363/533/222
f 361/531/222 363/533/222 364/534/222
f 360/535/223 359/536/223 364/537/223
f 360/535/223 364/537/223 363/538/223
f 362/538/224 361/537/224 358/536/224
f 362/538/224 358/536/224 357/535/224
f 362/539/225 357/540/225 360/541/225
f 362/539/225 360/541/225 363/542/225
f 358/540/226 361/539/226 364/542/226
f 358/540/226 364/542/226 359/541/226
f 365/543/227 366/544/227 367/545/227
f 365/543/227 367/545/227 368/546/227
f 369/547/228 370/548/228 371/549/228
f 369/547/228 371/549/228 372/550/228
f 368/551/229 367/552/229 372/553/229
f 368/551/229 372/553/229 371/554/229
f 370/554/230 369/553/230 366/552/230
f 370/554/230 366/552/230 365/551/230
f 370/555/231 365/556/231 368/557/231
f 370/555/231 368/557/231 371/558/231
f 366/556/232 369/555/232 372/558/232
f 366/556/232 372/558/232 367/557/232
f 373/559/233 374/560/233 375/561/233
f 373/559/233 376/562/233 374/560/233
f 373/559/233 377/563/233 376/562/233
f 373/559/233 378/564/233 377/563/233
f 373/559/233 379/565/233 378/564/233
f 373/559/233 375/561/233 379/565/233
f 375/566/234 374/567/234 380/568/234
f 374/569/235 376/570/235 380/571/235
f 376/567/236 377/566/236 380/568/236
f 377/566/237 378/572/237 380/568/237
f 378/570/238 379/569/238 380/571/238
f 379/572/239 375/566/239 380/568/239
f 381/573/240 382/574/240 383/575/240
f 384/573/241 385/575/241 386/574/241
f 381/573/240 383/575/240 387/576/240
f 384/573/241 388/576/241 385/575/241
f 381/577/242 384/578/242 386/579/242
f 381/577/242 386/579/242 382/580/242
f 382/580/243 386/579/243 385/581/243
f 382/580/243 385/581/243 383/582/243
f 383/582/244 385/581/244 388/583/244
f 383/582/244 388/583/244 387/584/244
f 387/585/245 388/586/245 384/587/245
f 387/585/245 384/587/245 381/588/245
f 389/589/246 390/590/246 391/591/246
f 392/592/247 393/593/247 394/594/247
f 389/589/246 391/591/246 395/595/246
f 392/592/247 396/596/247 393/593/247
f 389/597/248 392/598/248 394/599/248
f 389/597/248 394/599/248 390/600/248
f 390/600/249 394/599/249 393/601/249
f 390/600/249 393/601/249 391/602/249
f 391/602/250 393/601/250 396/603/250
f 391/602/250 396/603/250 395/604/250
f 395/605/251 396/606/251 392/607/251
f 395/605/251 392/607/251 389/608/251
f 397/609/252 398/610/252 399/611/252
f 400/612/253 401/613/253 402/614/253
f 397/609/252 399/611/252 403/615/252
f 400/612/253 404/616/253 401/613/253
f 397/617/254 400/618/254 402/619/254
f 397/617/254 402/619/254 398/620/254
f 398/620/255 402/619/255 401/621/255
f 398/620/255 401/621/255 399/622/255
f 399/622/256 401/621/256 404/623/256
f 399/622/256 404/623/256 403/624/256
f 403/625/257 404/626/257 400/627/257
f 403/625/257 400/627/257 397/628/257
