# Sarn battleship, from tools/gen_fleet.py
# Generated by tools. Edit the generator script.
v 0.000000 0.000000 0.227992
v 0.517619 0.239571 1.439221
v 0.000000 0.239571 1.940928
v 0.732024 0.239571 0.227992
v 0.517619 0.239571 -0.983237
v 0.000000 0.239571 -1.484944
v -0.517619 0.239571 -0.983237
v -0.732024 0.239571 0.227992
v -0.517619 0.239571 1.439221
v 0.000000 0.479143 0.227992
v 0.000000 0.318364 1.187236
v 0.046583 0.318364 1.187236
v 0.000000 0.318364 1.233820
v 0.000000 0.318364 1.140653
v -0.046583 0.318364 1.187236
v 0.000000 0.438150 1.187236
v 0.000000 0.372028 0.803539
v 0.046583 0.372028 0.803539
v 0.000000 0.372028 0.850122
v 0.000000 0.372028 0.756955
v -0.046583 0.372028 0.803539
v 0.000000 0.491814 0.803539
v 0.000000 0.425692 0.419841
v 0.046583 0.425692 0.419841
v 0.000000 0.425692 0.466424
v 0.000000 0.425692 0.373258
v -0.046583 0.425692 0.419841
v 0.000000 0.545478 0.419841
v 0.000000 0.425692 0.036143
v 0.046583 0.425692 0.036143
v 0.000000 0.425692 0.082727
v 0.000000 0.425692 -0.010440
v -0.046583 0.425692 0.036143
v 0.000000 0.545478 0.036143
v 0.000000 0.372028 -0.347554
v 0.046583 0.372028 -0.347554
v 0.000000 0.372028 -0.300971
v 0.000000 0.372028 -0.394138
v -0.046583 0.372028 -0.347554
v 0.000000 0.491814 -0.347554
v 0.000000 0.318364 -0.731252
v 0.046583 0.318364 -0.731252
v 0.000000 0.318364 -0.684669
v 0.000000 0.318364 -0.777835
v -0.046583 0.318364 -0.731252
v 0.000000 0.438150 -0.731252
v -0.641854 0.186333 1.155246
v -0.641854 0.186333 1.221793
v -0.641854 0.292810 1.221793
v -0.641854 0.292810 1.155246
v -0.482140 0.186333 1.221793
v -0.482140 0.186333 1.155246
v -0.482140 0.292810 1.155246
v -0.482140 0.292810 1.221793
v -0.811881 0.186333 0.194718
v -0.811881 0.186333 0.261266
v -0.811881 0.292810 0.261266
v -0.811881 0.292810 0.194718
v -0.652167 0.186333 0.261266
v -0.652167 0.186333 0.194718
v -0.652167 0.292810 0.194718
v -0.652167 0.292810 0.261266
v -0.641854 0.186333 -0.765809
v -0.641854 0.186333 -0.699261
v -0.641854 0.292810 -0.699261
v -0.641854 0.292810 -0.765809
v -0.482140 0.186333 -0.699261
v -0.482140 0.186333 -0.765809
v -0.482140 0.292810 -0.765809
v -0.482140 0.292810 -0.699261
v 0.641854 0.186333 1.221793
v 0.641854 0.186333 1.155246
v 0.641854 0.292810 1.155246
v 0.641854 0.292810 1.221793
v 0.482140 0.186333 1.155246
v 0.482140 0.186333 1.221793
v 0.482140 0.292810 1.221793
v 0.482140 0.292810 1.155246
v 0.811881 0.186333 0.261266
v 0.811881 0.186333 0.194718
v 0.811881 0.292810 0.194718
v 0.811881 0.292810 0.261266
v 0.652167 0.186333 0.194718
v 0.652167 0.186333 0.261266
v 0.652167 0.292810 0.261266
v 0.652167 0.292810 0.194718
v 0.641854 0.186333 -0.699261
v 0.641854 0.186333 -0.765809
v 0.641854 0.292810 -0.765809
v 0.641854 0.292810 -0.699261
v 0.482140 0.186333 -0.765809
v 0.482140 0.186333 -0.699261
v 0.482140 0.292810 -0.699261
v 0.482140 0.292810 -0.765809
v 0.000000 0.263529 0.227992
v 0.310571 0.455186 1.015291
v 0.000000 0.455186 1.341401
v 0.439214 0.455186 0.227992
v 0.310571 0.455186 -0.559307
v 0.000000 0.455186 -0.885416
v -0.310571 0.455186 -0.559307
v -0.439214 0.455186 0.227992
v -0.310571 0.455186 1.015291
v 0.000000 0.646843 0.227992
v 0.000000 0.239571 -0.357095
v 0.246300 0.239571 -0.389521
v 0.239411 0.285677 -0.415233
v 0.000000 0.285677 -0.383714
v 0.225632 0.285677 -0.466657
v 0.000000 0.285677 -0.436952
v 0.218742 0.239571 -0.492369
v 0.000000 0.239571 -0.463571
v 0.225632 0.193466 -0.466657
v 0.000000 0.193466 -0.436952
v 0.239411 0.193466 -0.415233
v 0.000000 0.193466 -0.383714
v 0.475816 0.239571 -0.484589
v 0.462506 0.285677 -0.507642
v 0.435887 0.285677 -0.553747
v 0.422578 0.239571 -0.576800
v 0.435887 0.193466 -0.553747
v 0.462506 0.193466 -0.507642
v 0.672905 0.239571 -0.635821
v 0.654082 0.285677 -0.654643
v 0.616437 0.285677 -0.692289
v 0.597615 0.239571 -0.711111
v 0.616437 0.193466 -0.692289
v 0.654082 0.193466 -0.654643
v 0.824137 0.239571 -0.832910
v 0.801084 0.285677 -0.846220
v 0.754978 0.285677 -0.872839
v 0.731926 0.239571 -0.886148
v 0.754978 0.193466 -0.872839
v 0.801084 0.193466 -0.846220
v 0.919205 0.239571 -1.062426
v 0.893493 0.285677 -1.069315
v 0.842069 0.285677 -1.083094
v 0.816357 0.239571 -1.089984
v 0.842069 0.193466 -1.083094
v 0.893493 0.193466 -1.069315
v 0.951631 0.239571 -1.308726
v 0.925012 0.285677 -1.308726
v 0.871774 0.285677 -1.308726
v 0.845155 0.239571 -1.308726
v 0.871774 0.193466 -1.308726
v 0.925012 0.193466 -1.308726
v 0.919205 0.239571 -1.555026
v 0.893493 0.285677 -1.548137
v 0.842069 0.285677 -1.534358
v 0.816357 0.239571 -1.527468
v 0.842069 0.193466 -1.534358
v 0.893493 0.193466 -1.548137
v 0.824137 0.239571 -1.784541
v 0.801084 0.285677 -1.771232
v 0.754978 0.285677 -1.744613
v 0.731926 0.239571 -1.731303
v 0.754978 0.193466 -1.744613
v 0.801084 0.193466 -1.771232
v 0.672905 0.239571 -1.981631
v 0.654082 0.285677 -1.962808
v 0.616437 0.285677 -1.925163
v 0.597615 0.239571 -1.906341
v 0.616437 0.193466 -1.925163
v 0.654082 0.193466 -1.962808
v 0.475816 0.239571 -2.132863
v 0.462506 0.285677 -2.109810
v 0.435887 0.285677 -2.063704
v 0.422578 0.239571 -2.040652
v 0.435887 0.193466 -2.063704
v 0.462506 0.193466 -2.109810
v 0.246300 0.239571 -2.227931
v 0.239411 0.285677 -2.202219
v 0.225632 0.285677 -2.150795
v 0.218742 0.239571 -2.125083
v 0.225632 0.193466 -2.150795
v 0.239411 0.193466 -2.202219
v 0.000000 0.239571 -2.260357
v 0.000000 0.285677 -2.233738
v 0.000000 0.285677 -2.180500
v 0.000000 0.239571 -2.153881
v 0.000000 0.193466 -2.180500
v 0.000000 0.193466 -2.233738
v -0.246300 0.239571 -2.227931
v -0.239411 0.285677 -2.202219
v -0.225632 0.285677 -2.150795
v -0.218742 0.239571 -2.125083
v -0.225632 0.193466 -2.150795
v -0.239411 0.193466 -2.202219
v -0.475816 0.239571 -2.132863
v -0.462506 0.285677 -2.109810
v -0.435887 0.285677 -2.063704
v -0.422578 0.239571 -2.040652
v -0.435887 0.193466 -2.063704
v -0.462506 0.193466 -2.109810
v -0.672905 0.239571 -1.981631
v -0.654082 0.285677 -1.962808
v -0.616437 0.285677 -1.925163
v -0.597615 0.239571 -1.906341
v -0.616437 0.193466 -1.925163
v -0.654082 0.193466 -1.962808
v -0.824137 0.239571 -1.784541
v -0.801084 0.285677 -1.771232
v -0.754978 0.285677 -1.744613
v -0.731926 0.239571 -1.731303
v -0.754978 0.193466 -1.744613
v -0.801084 0.193466 -1.771232
v -0.919205 0.239571 -1.555026
v -0.893493 0.285677 -1.548137
v -0.842069 0.285677 -1.534358
v -0.816357 0.239571 -1.527468
v -0.842069 0.193466 -1.534358
v -0.893493 0.193466 -1.548137
v -0.951631 0.239571 -1.308726
v -0.925012 0.285677 -1.308726
v -0.871774 0.285677 -1.308726
v -0.845155 0.239571 -1.308726
v -0.871774 0.193466 -1.308726
v -0.925012 0.193466 -1.308726
v -0.919205 0.239571 -1.062426
v -0.893493 0.285677 -1.069315
v -0.842069 0.285677 -1.083094
v -0.816357 0.239571 -1.089984
v -0.842069 0.193466 -1.083094
v -0.893493 0.193466 -1.069315
v -0.824137 0.239571 -0.832910
v -0.801084 0.285677 -0.846220
v -0.754978 0.285677 -0.872839
v -0.731926 0.239571 -0.886148
v -0.754978 0.193466 -0.872839
v -0.801084 0.193466 -0.846220
v -0.672905 0.239571 -0.635821
v -0.654082 0.285677 -0.654643
v -0.616437 0.285677 -0.692289
v -0.597615 0.239571 -0.711111
v -0.616437 0.193466 -0.692289
v -0.654082 0.193466 -0.654643
v -0.475816 0.239571 -0.484589
v -0.462506 0.285677 -0.507642
v -0.435887 0.285677 -0.553747
v -0.422578 0.239571 -0.576800
v -0.435887 0.193466 -0.553747
v -0.462506 0.193466 -0.507642
v -0.246300 0.239571 -0.389521
v -0.239411 0.285677 -0.415233
v -0.225632 0.285677 -0.466657
v -0.218742 0.239571 -0.492369
v -0.225632 0.193466 -0.466657
v -0.239411 0.193466 -0.415233
v 0.711484 0.173024 -1.691375
v 0.844579 0.173024 -1.691375
v 0.844579 0.306119 -1.691375
v 0.711484 0.306119 -1.691375
v 0.844579 0.173024 -1.824470
v 0.711484 0.173024 -1.824470
v 0.711484 0.306119 -1.824470
v 0.844579 0.306119 -1.824470
v -0.066548 0.173024 -2.140571
v 0.066548 0.173024 -2.140571
v 0.066548 0.306119 -2.140571
v -0.066548 0.306119 -2.140571
v 0.066548 0.173024 -2.273667
v -0.066548 0.173024 -2.273667
v -0.066548 0.306119 -2.273667
v 0.066548 0.306119 -2.273667
v -0.844579 0.173024 -1.691375
v -0.711484 0.173024 -1.691375
v -0.711484 0.306119 -1.691375
v -0.844579 0.306119 -1.691375
v -0.711484 0.173024 -1.824470
v -0.844579 0.173024 -1.824470
v -0.844579 0.306119 -1.824470
v -0.711484 0.306119 -1.824470
v -0.844579 0.173024 -0.792982
v -0.711484 0.173024 -0.792982
v -0.711484 0.306119 -0.792982
v -0.844579 0.306119 -0.792982
v -0.711484 0.173024 -0.926077
v -0.844579 0.173024 -0.926077
v -0.844579 0.306119 -0.926077
v -0.711484 0.306119 -0.926077
v -0.066548 0.173024 -0.343785
v 0.066548 0.173024 -0.343785
v 0.066548 0.306119 -0.343785
v -0.066548 0.306119 -0.343785
v 0.066548 0.173024 -0.476880
v -0.066548 0.173024 -0.476880
v -0.066548 0.306119 -0.476880
v 0.066548 0.306119 -0.476880
v 0.711484 0.173024 -0.792982
v 0.844579 0.173024 -0.792982
v 0.844579 0.306119 -0.792982
v 0.711484 0.306119 -0.792982
v 0.844579 0.173024 -0.926077
v 0.711484 0.173024 -0.926077
v 0.711484 0.306119 -0.926077
v 0.844579 0.306119 -0.926077
v 0.000000 0.239571 -0.902785
v 0.199796 0.239571 -0.929089
v 0.192907 0.285677 -0.954801
v 0.000000 0.285677 -0.929404
v 0.179127 0.285677 -1.006225
v 0.000000 0.285677 -0.982642
v 0.172238 0.239571 -1.031937
v 0.000000 0.239571 -1.009261
v 0.179127 0.193466 -1.006225
v 0.000000 0.193466 -0.982642
v 0.192907 0.193466 -0.954801
v 0.000000 0.193466 -0.929404
v 0.385976 0.239571 -1.006207
v 0.372667 0.285677 -1.029260
v 0.346048 0.285677 -1.075366
v 0.332738 0.239571 -1.098418
v 0.346048 0.193466 -1.075366
v 0.372667 0.193466 -1.029260
v 0.545853 0.239571 -1.128885
v 0.527030 0.285677 -1.147707
v 0.489385 0.285677 -1.185352
v 0.470563 0.239571 -1.204175
v 0.489385 0.193466 -1.185352
v 0.527030 0.193466 -1.147707
v 0.668531 0.239571 -1.288762
v 0.645478 0.285677 -1.302071
v 0.599372 0.285677 -1.328690
v 0.576319 0.239571 -1.342000
v 0.599372 0.193466 -1.328690
v 0.645478 0.193466 -1.302071
v 0.745649 0.239571 -1.474942
v 0.719937 0.285677 -1.481831
v 0.668513 0.285677 -1.495610
v 0.642801 0.239571 -1.502500
v 0.668513 0.193466 -1.495610
v 0.719937 0.193466 -1.481831
v 0.771953 0.239571 -1.674738
v 0.745334 0.285677 -1.674738
v 0.692095 0.285677 -1.674738
v 0.665476 0.239571 -1.674738
v 0.692095 0.193466 -1.674738
v 0.745334 0.193466 -1.674738
v 0.745649 0.239571 -1.874534
v 0.719937 0.285677 -1.867644
v 0.668513 0.285677 -1.853865
v 0.642801 0.239571 -1.846976
v 0.668513 0.193466 -1.853865
v 0.719937 0.193466 -1.867644
v 0.668531 0.239571 -2.060714
v 0.645478 0.285677 -2.047405
v 0.599372 0.285677 -2.020786
v 0.576319 0.239571 -2.007476
v 0.599372 0.193466 -2.020786
v 0.645478 0.193466 -2.047405
v 0.545853 0.239571 -2.220591
v 0.527030 0.285677 -2.201768
v 0.489385 0.285677 -2.164123
v 0.470563 0.239571 -2.145301
v 0.489385 0.193466 -2.164123
v 0.527030 0.193466 -2.201768
v 0.385976 0.239571 -2.343268
v 0.372667 0.285677 -2.320216
v 0.346048 0.285677 -2.274110
v 0.332738 0.239571 -2.251057
v 0.346048 0.193466 -2.274110
v 0.372667 0.193466 -2.320216
v 0.199796 0.239571 -2.420387
v 0.192907 0.285677 -2.394675
v 0.179127 0.285677 -2.343251
v 0.172238 0.239571 -2.317539
v 0.179127 0.193466 -2.343251
v 0.192907 0.193466 -2.394675
v 0.000000 0.239571 -2.446690
v 0.000000 0.285677 -2.420071
v 0.000000 0.285677 -2.366833
v 0.000000 0.239571 -2.340214
v 0.000000 0.193466 -2.366833
v 0.000000 0.193466 -2.420071
v -0.199796 0.239571 -2.420387
v -0.192907 0.285677 -2.394675
v -0.179127 0.285677 -2.343251
v -0.172238 0.239571 -2.317539
v -0.179127 0.193466 -2.343251
v -0.192907 0.193466 -2.394675
v -0.385976 0.239571 -2.343268
v -0.372667 0.285677 -2.320216
v -0.346048 0.285677 -2.274110
v -0.332738 0.239571 -2.251057
v -0.346048 0.193466 -2.274110
v -0.372667 0.193466 -2.320216
v -0.545853 0.239571 -2.220591
v -0.527030 0.285677 -2.201768
v -0.489385 0.285677 -2.164123
v -0.470563 0.239571 -2.145301
v -0.489385 0.193466 -2.164123
v -0.527030 0.193466 -2.201768
v -0.668531 0.239571 -2.060714
v -0.645478 0.285677 -2.047405
v -0.599372 0.285677 -2.020786
v -0.576319 0.239571 -2.007476
v -0.599372 0.193466 -2.020786
v -0.645478 0.193466 -2.047405
v -0.745649 0.239571 -1.874534
v -0.719937 0.285677 -1.867644
v -0.668513 0.285677 -1.853865
v -0.642801 0.239571 -1.846976
v -0.668513 0.193466 -1.853865
v -0.719937 0.193466 -1.867644
v -0.771953 0.239571 -1.674738
v -0.745334 0.285677 -1.674738
v -0.692095 0.285677 -1.674738
v -0.665476 0.239571 -1.674738
v -0.692095 0.193466 -1.674738
v -0.745334 0.193466 -1.674738
v -0.745649 0.239571 -1.474942
v -0.719937 0.285677 -1.481831
v -0.668513 0.285677 -1.495610
v -0.642801 0.239571 -1.502500
v -0.668513 0.193466 -1.495610
v -0.719937 0.193466 -1.481831
v -0.668531 0.239571 -1.288762
v -0.645478 0.285677 -1.302071
v -0.599372 0.285677 -1.328690
v -0.576319 0.239571 -1.342000
v -0.599372 0.193466 -1.328690
v -0.645478 0.193466 -1.302071
v -0.545853 0.239571 -1.128885
v -0.527030 0.285677 -1.147707
v -0.489385 0.285677 -1.185352
v -0.470563 0.239571 -1.204175
v -0.489385 0.193466 -1.185352
v -0.527030 0.193466 -1.147707
v -0.385976 0.239571 -1.006207
v -0.372667 0.285677 -1.029260
v -0.346048 0.285677 -1.075366
v -0.332738 0.239571 -1.098418
v -0.346048 0.193466 -1.075366
v -0.372667 0.193466 -1.029260
v -0.199796 0.239571 -0.929089
v -0.192907 0.285677 -0.954801
v -0.179127 0.285677 -1.006225
v -0.172238 0.239571 -1.031937
v -0.179127 0.193466 -1.006225
v -0.192907 0.193466 -0.954801
v 0.555877 0.173024 -1.967547
v 0.688973 0.173024 -1.967547
v 0.688973 0.306119 -1.967547
v 0.555877 0.306119 -1.967547
v 0.688973 0.173024 -2.100643
v 0.555877 0.173024 -2.100643
v 0.555877 0.306119 -2.100643
v 0.688973 0.306119 -2.100643
v -0.066548 0.173024 -2.326905
v 0.066548 0.173024 -2.326905
v 0.066548 0.306119 -2.326905
v -0.066548 0.306119 -2.326905
v 0.066548 0.173024 -2.460000
v -0.066548 0.173024 -2.460000
v -0.066548 0.306119 -2.460000
v 0.066548 0.306119 -2.460000
v -0.688973 0.173024 -1.967547
v -0.555877 0.173024 -1.967547
v -0.555877 0.306119 -1.967547
v -0.688973 0.306119 -1.967547
v -0.555877 0.173024 -2.100643
v -0.688973 0.173024 -2.100643
v -0.688973 0.306119 -2.100643
v -0.555877 0.306119 -2.100643
v -0.688973 0.173024 -1.248833
v -0.555877 0.173024 -1.248833
v -0.555877 0.306119 -1.248833
v -0.688973 0.306119 -1.248833
v -0.555877 0.173024 -1.381928
v -0.688973 0.173024 -1.381928
v -0.688973 0.306119 -1.381928
v -0.555877 0.306119 -1.381928
v -0.066548 0.173024 -0.889476
v 0.066548 0.173024 -0.889476
v 0.066548 0.306119 -0.889476
v -0.066548 0.306119 -0.889476
v 0.066548 0.173024 -1.022571
v -0.066548 0.173024 -1.022571
v -0.066548 0.306119 -1.022571
v 0.066548 0.306119 -1.022571
v 0.555877 0.173024 -1.248833
v 0.688973 0.173024 -1.248833
v 0.688973 0.306119 -1.248833
v 0.555877 0.306119 -1.248833
v 0.688973 0.173024 -1.381928
v 0.555877 0.173024 -1.381928
v 0.555877 0.306119 -1.381928
v 0.688973 0.306119 -1.381928
v 0.898393 0.239571 -1.608190
v 0.973683 0.164281 -1.608190
v 0.898393 0.133095 -1.608190
v 1.004869 0.239571 -1.608190
v 0.973683 0.314862 -1.608190
v 0.898393 0.346048 -1.608190
v 0.823103 0.314862 -1.608190
v 0.791917 0.239571 -1.608190
v 0.823103 0.164281 -1.608190
v 0.973683 0.164281 -1.142357
v 0.898393 0.133095 -1.142357
v 1.004869 0.239571 -1.142357
v 0.973683 0.314862 -1.142357
v 0.898393 0.346048 -1.142357
v 0.823103 0.314862 -1.142357
v 0.791917 0.239571 -1.142357
v 0.823103 0.164281 -1.142357
v 0.898393 0.239571 -1.142357
v 0.898393 0.326083 -1.588226
v 0.959566 0.300745 -1.588226
v 0.942438 0.283616 -1.608190
v 0.898393 0.301860 -1.608190
v 0.984905 0.239571 -1.588226
v 0.960682 0.239571 -1.608190
v 0.959566 0.178398 -1.588226
v 0.942438 0.195527 -1.608190
v 0.898393 0.153060 -1.588226
v 0.898393 0.177283 -1.608190
v 0.837220 0.178398 -1.588226
v 0.854348 0.195527 -1.608190
v 0.811881 0.239571 -1.588226
v 0.836105 0.239571 -1.608190
v 0.837220 0.300745 -1.588226
v 0.854348 0.283616 -1.608190
v 0.898393 0.239571 -1.621500
v -0.898393 0.239571 -1.608190
v -0.823103 0.164281 -1.608190
v -0.898393 0.133095 -1.608190
v -0.791917 0.239571 -1.608190
v -0.823103 0.314862 -1.608190
v -0.898393 0.346048 -1.608190
v -0.973683 0.314862 -1.608190
v -1.004869 0.239571 -1.608190
v -0.973683 0.164281 -1.608190
v -0.823103 0.164281 -1.142357
v -0.898393 0.133095 -1.142357
v -0.791917 0.239571 -1.142357
v -0.823103 0.314862 -1.142357
v -0.898393 0.346048 -1.142357
v -0.973683 0.314862 -1.142357
v -1.004869 0.239571 -1.142357
v -0.973683 0.164281 -1.142357
v -0.898393 0.239571 -1.142357
v -0.898393 0.326083 -1.588226
v -0.837220 0.300745 -1.588226
v -0.854348 0.283616 -1.608190
v -0.898393 0.301860 -1.608190
v -0.811881 0.239571 -1.588226
v -0.836105 0.239571 -1.608190
v -0.837220 0.178398 -1.588226
v -0.854348 0.195527 -1.608190
v -0.898393 0.153060 -1.588226
v -0.898393 0.177283 -1.608190
v -0.959566 0.178398 -1.588226
v -0.942438 0.195527 -1.608190
v -0.984905 0.239571 -1.588226
v -0.960682 0.239571 -1.608190
v -0.959566 0.300745 -1.588226
v -0.942438 0.283616 -1.608190
v -0.898393 0.239571 -1.621500
v 0.449197 0.239571 -2.386221
v 0.524487 0.164281 -2.386221
v 0.449197 0.133095 -2.386221
v 0.555673 0.239571 -2.386221
v 0.524487 0.314862 -2.386221
v 0.449197 0.346048 -2.386221
v 0.373907 0.314862 -2.386221
v 0.342720 0.239571 -2.386221
v 0.373907 0.164281 -2.386221
v 0.524487 0.164281 -1.920388
v 0.449197 0.133095 -1.920388
v 0.555673 0.239571 -1.920388
v 0.524487 0.314862 -1.920388
v 0.449197 0.346048 -1.920388
v 0.373907 0.314862 -1.920388
v 0.342720 0.239571 -1.920388
v 0.373907 0.164281 -1.920388
v 0.449197 0.239571 -1.920388
v 0.449197 0.326083 -2.366257
v 0.510370 0.300745 -2.366257
v 0.493241 0.283616 -2.386221
v 0.449197 0.301860 -2.386221
v 0.535708 0.239571 -2.366257
v 0.511485 0.239571 -2.386221
v 0.510370 0.178398 -2.366257
v 0.493241 0.195527 -2.386221
v 0.449197 0.153060 -2.366257
v 0.449197 0.177283 -2.386221
v 0.388023 0.178398 -2.366257
v 0.405152 0.195527 -2.386221
v 0.362685 0.239571 -2.366257
v 0.386908 0.239571 -2.386221
v 0.388023 0.300745 -2.366257
v 0.405152 0.283616 -2.386221
v 0.449197 0.239571 -2.399531
v -0.449197 0.239571 -2.386221
v -0.373907 0.164281 -2.386221
v -0.449197 0.133095 -2.386221
v -0.342720 0.239571 -2.386221
v -0.373907 0.314862 -2.386221
v -0.449197 0.346048 -2.386221
v -0.524487 0.314862 -2.386221
v -0.555673 0.239571 -2.386221
v -0.524487 0.164281 -2.386221
v -0.373907 0.164281 -1.920388
v -0.449197 0.133095 -1.920388
v -0.342720 0.239571 -1.920388
v -0.373907 0.314862 -1.920388
v -0.449197 0.346048 -1.920388
v -0.524487 0.314862 -1.920388
v -0.555673 0.239571 -1.920388
v -0.524487 0.164281 -1.920388
v -0.449197 0.239571 -1.920388
v -0.449197 0.326083 -2.366257
v -0.388023 0.300745 -2.366257
v -0.405152 0.283616 -2.386221
v -0.449197 0.301860 -2.386221
v -0.362685 0.239571 -2.366257
v -0.386908 0.239571 -2.386221
v -0.388023 0.178398 -2.366257
v -0.405152 0.195527 -2.386221
v -0.449197 0.153060 -2.366257
v -0.449197 0.177283 -2.386221
v -0.510370 0.178398 -2.366257
v -0.493241 0.195527 -2.386221
v -0.535708 0.239571 -2.366257
v -0.511485 0.239571 -2.386221
v -0.510370 0.300745 -2.366257
v -0.493241 0.283616 -2.386221
v -0.449197 0.239571 -2.399531
v -0.925012 0.199643 -1.022571
v 0.000000 0.199643 -1.022571
v 0.000000 0.279500 -1.022571
v -0.925012 0.279500 -1.022571
v 0.000000 0.199643 -1.195595
v -0.925012 0.199643 -1.195595
v -0.925012 0.279500 -1.195595
v 0.000000 0.279500 -1.195595
v 0.000000 0.199643 -1.022571
v 0.925012 0.199643 -1.022571
v 0.925012 0.279500 -1.022571
v 0.000000 0.279500 -1.022571
v 0.925012 0.199643 -1.195595
v 0.000000 0.199643 -1.195595
v 0.000000 0.279500 -1.195595
v 0.925012 0.279500 -1.195595
v -0.044920 0.233582 2.460000
v 0.044920 0.233582 2.460000
v 0.044920 0.245561 2.460000
v -0.044920 0.245561 2.460000
v 0.299464 0.199643 1.861071
v -0.299464 0.199643 1.861071
v -0.299464 0.279500 1.861071
v 0.299464 0.279500 1.861071
vt 0.445312 0.828125
vt 0.517128 0.944135
vt 0.445312 0.992188
vt 0.546875 0.828125
vt 0.517128 0.712115
vt 0.445312 0.664062
vt 0.373497 0.712115
vt 0.343750 0.828125
vt 0.373497 0.944135
vt 0.617188 0.429688
vt 0.664062 0.429688
vt 0.617188 0.476562
vt 0.617188 0.382812
vt 0.570312 0.429688
vt 0.718750 0.382812
vt 0.765625 0.382812
vt 0.718750 0.476562
vt 0.765625 0.382812
vt 0.718750 0.382812
vt 0.718750 0.476562
vt 0.671875 0.382812
vt 0.671875 0.382812
vt 0.617188 0.429688
vt 0.664062 0.429688
vt 0.617188 0.476562
vt 0.617188 0.382812
vt 0.570312 0.429688
vt 0.765625 0.382812
vt 0.718750 0.382812
vt 0.718750 0.476562
vt 0.671875 0.382812
vt 0.617188 0.429688
vt 0.664062 0.429688
vt 0.617188 0.476562
vt 0.617188 0.382812
vt 0.570312 0.429688
vt 0.718750 0.382812
vt 0.765625 0.382812
vt 0.718750 0.476562
vt 0.718750 0.382812
vt 0.671875 0.382812
vt 0.718750 0.476562
vt 0.671875 0.382812
vt 0.617188 0.429688
vt 0.664062 0.429688
vt 0.617188 0.476562
vt 0.617188 0.382812
vt 0.570312 0.429688
vt 0.765625 0.382812
vt 0.718750 0.382812
vt 0.718750 0.476562
vt 0.671875 0.382812
vt 0.617188 0.429688
vt 0.664062 0.429688
vt 0.617188 0.476562
vt 0.617188 0.382812
vt 0.570312 0.429688
vt 0.718750 0.382812
vt 0.765625 0.382812
vt 0.718750 0.476562
vt 0.718750 0.382812
vt 0.671875 0.382812
vt 0.718750 0.476562
vt 0.671875 0.382812
vt 0.617188 0.429688
vt 0.664062 0.429688
vt 0.617188 0.476562
vt 0.617188 0.382812
vt 0.570312 0.429688
vt 0.765625 0.382812
vt 0.718750 0.382812
vt 0.718750 0.476562
vt 0.671875 0.382812
vt 0.851562 0.210938
vt 0.945312 0.210938
vt 0.945312 0.273438
vt 0.851562 0.273438
vt 0.851562 0.210938
vt 0.851562 0.273438
vt 0.945312 0.273438
vt 0.945312 0.210938
vt 0.945312 0.210938
vt 0.851562 0.210938
vt 0.851562 0.273438
vt 0.945312 0.273438
vt 0.773438 0.140625
vt 0.835938 0.140625
vt 0.835938 0.187500
vt 0.773438 0.187500
vt 0.851562 0.210938
vt 0.945312 0.210938
vt 0.945312 0.273438
vt 0.851562 0.273438
vt 0.851562 0.210938
vt 0.851562 0.273438
vt 0.945312 0.273438
vt 0.945312 0.210938
vt 0.945312 0.210938
vt 0.851562 0.210938
vt 0.851562 0.273438
vt 0.945312 0.273438
vt 0.773438 0.140625
vt 0.835938 0.140625
vt 0.835938 0.187500
vt 0.773438 0.187500
vt 0.851562 0.210938
vt 0.945312 0.210938
vt 0.945312 0.273438
vt 0.851562 0.273438
vt 0.851562 0.210938
vt 0.851562 0.273438
vt 0.945312 0.273438
vt 0.945312 0.210938
vt 0.945312 0.210938
vt 0.851562 0.210938
vt 0.851562 0.273438
vt 0.945312 0.273438
vt 0.773438 0.140625
vt 0.835938 0.140625
vt 0.835938 0.187500
vt 0.773438 0.187500
vt 0.945312 0.210938
vt 0.851562 0.210938
vt 0.851562 0.273438
vt 0.945312 0.273438
vt 0.945312 0.273438
vt 0.945312 0.210938
vt 0.851562 0.210938
vt 0.851562 0.273438
vt 0.773438 0.140625
vt 0.835938 0.140625
vt 0.835938 0.187500
vt 0.773438 0.187500
vt 0.945312 0.210938
vt 0.851562 0.210938
vt 0.851562 0.273438
vt 0.945312 0.273438
vt 0.945312 0.210938
vt 0.851562 0.210938
vt 0.851562 0.273438
vt 0.945312 0.273438
vt 0.945312 0.273438
vt 0.945312 0.210938
vt 0.851562 0.210938
vt 0.851562 0.273438
vt 0.773438 0.140625
vt 0.835938 0.140625
vt 0.835938 0.187500
vt 0.773438 0.187500
vt 0.945312 0.210938
vt 0.851562 0.210938
vt 0.851562 0.273438
vt 0.945312 0.273438
vt 0.945312 0.210938
vt 0.851562 0.210938
vt 0.851562 0.273438
vt 0.945312 0.273438
vt 0.945312 0.273438
vt 0.945312 0.210938
vt 0.851562 0.210938
vt 0.851562 0.273438
vt 0.773438 0.140625
vt 0.835938 0.140625
vt 0.835938 0.187500
vt 0.773438 0.187500
vt 0.945312 0.210938
vt 0.851562 0.210938
vt 0.851562 0.273438
vt 0.945312 0.273438
vt 0.445312 0.828125
vt 0.517128 0.944135
vt 0.445312 0.992188
vt 0.546875 0.828125
vt 0.517128 0.712115
vt 0.445312 0.664062
vt 0.373497 0.712115
vt 0.343750 0.828125
vt 0.373497 0.944135
vt 0.515625 0.117188
vt 0.547977 0.117188
vt 0.547072 0.132812
vt 0.515625 0.132812
vt 0.718750 0.272563
vt 0.750197 0.271528
vt 0.748387 0.269840
vt 0.718750 0.270815
vt 0.515625 0.132812
vt 0.545262 0.132812
vt 0.544358 0.117188
vt 0.515625 0.117188
vt 0.545262 0.101562
vt 0.515625 0.101562
vt 0.515625 0.101562
vt 0.547072 0.101562
vt 0.578125 0.117188
vt 0.576377 0.132812
vt 0.779502 0.268494
vt 0.776005 0.266980
vt 0.572880 0.132812
vt 0.571132 0.117188
vt 0.572880 0.101562
vt 0.576377 0.101562
vt 0.604013 0.117188
vt 0.601541 0.132812
vt 0.804666 0.263666
vt 0.799721 0.262430
vt 0.596596 0.132812
vt 0.594124 0.117188
vt 0.596596 0.101562
vt 0.601541 0.101562
vt 0.604013 0.117188
vt 0.578125 0.117188
vt 0.576377 0.132812
vt 0.601541 0.132812
vt 0.823975 0.257375
vt 0.817919 0.256501
vt 0.596596 0.132812
vt 0.572880 0.132812
vt 0.571132 0.117188
vt 0.594124 0.117188
vt 0.572880 0.101562
vt 0.596596 0.101562
vt 0.601541 0.101562
vt 0.576377 0.101562
vt 0.547977 0.117188
vt 0.547072 0.132812
vt 0.836113 0.250049
vt 0.829359 0.249597
vt 0.545262 0.132812
vt 0.544358 0.117188
vt 0.545262 0.101562
vt 0.547072 0.101562
vt 0.515625 0.117188
vt 0.515625 0.132812
vt 0.840253 0.242188
vt 0.833260 0.242188
vt 0.515625 0.101562
vt 0.483273 0.117188
vt 0.484178 0.132812
vt 0.836113 0.234326
vt 0.829359 0.234778
vt 0.485988 0.132812
vt 0.486892 0.117188
vt 0.485988 0.101562
vt 0.484178 0.101562
vt 0.453125 0.117188
vt 0.454873 0.132812
vt 0.823975 0.227000
vt 0.817919 0.227874
vt 0.458370 0.132812
vt 0.460118 0.117188
vt 0.458370 0.101562
vt 0.454873 0.101562
vt 0.427237 0.117188
vt 0.429709 0.132812
vt 0.804666 0.220709
vt 0.799721 0.221945
vt 0.434654 0.132812
vt 0.437126 0.117188
vt 0.434654 0.101562
vt 0.429709 0.101562
vt 0.604013 0.117188
vt 0.578125 0.117188
vt 0.576377 0.132812
vt 0.601541 0.132812
vt 0.779502 0.215881
vt 0.776005 0.217395
vt 0.596596 0.132812
vt 0.572880 0.132812
vt 0.571132 0.117188
vt 0.594124 0.117188
vt 0.572880 0.101562
vt 0.596596 0.101562
vt 0.601541 0.101562
vt 0.576377 0.101562
vt 0.547977 0.117188
vt 0.547072 0.132812
vt 0.750197 0.212847
vt 0.748387 0.214535
vt 0.545262 0.132812
vt 0.544358 0.117188
vt 0.545262 0.101562
vt 0.547072 0.101562
vt 0.718750 0.211812
vt 0.718750 0.213560
vt 0.483273 0.117188
vt 0.484178 0.132812
vt 0.687303 0.212847
vt 0.689113 0.214535
vt 0.485988 0.132812
vt 0.486892 0.117188
vt 0.485988 0.101562
vt 0.484178 0.101562
vt 0.453125 0.117188
vt 0.454873 0.132812
vt 0.657998 0.215881
vt 0.661495 0.217395
vt 0.458370 0.132812
vt 0.460118 0.117188
vt 0.458370 0.101562
vt 0.454873 0.101562
vt 0.427237 0.117188
vt 0.429709 0.132812
vt 0.632834 0.220709
vt 0.637779 0.221945
vt 0.434654 0.132812
vt 0.437126 0.117188
vt 0.434654 0.101562
vt 0.429709 0.101562
vt 0.613525 0.227000
vt 0.619581 0.227874
vt 0.601387 0.234326
vt 0.608141 0.234778
vt 0.597247 0.242188
vt 0.604240 0.242188
vt 0.601387 0.250049
vt 0.608141 0.249597
vt 0.613525 0.257375
vt 0.619581 0.256501
vt 0.632834 0.263666
vt 0.637779 0.262430
vt 0.427237 0.117188
vt 0.453125 0.117188
vt 0.454873 0.132812
vt 0.429709 0.132812
vt 0.657998 0.268494
vt 0.661495 0.266980
vt 0.434654 0.132812
vt 0.458370 0.132812
vt 0.460118 0.117188
vt 0.437126 0.117188
vt 0.458370 0.101562
vt 0.434654 0.101562
vt 0.429709 0.101562
vt 0.454873 0.101562
vt 0.483273 0.117188
vt 0.484178 0.132812
vt 0.687303 0.271528
vt 0.689113 0.269840
vt 0.485988 0.132812
vt 0.486892 0.117188
vt 0.485988 0.101562
vt 0.484178 0.101562
vt 0.671875 0.382812
vt 0.765625 0.382812
vt 0.765625 0.476562
vt 0.671875 0.476562
vt 0.765625 0.382812
vt 0.671875 0.382812
vt 0.671875 0.476562
vt 0.765625 0.476562
vt 0.570312 0.476562
vt 0.664062 0.476562
vt 0.664062 0.382812
vt 0.570312 0.382812
vt 0.671875 0.382812
vt 0.765625 0.382812
vt 0.765625 0.476562
vt 0.671875 0.476562
vt 0.671875 0.382812
vt 0.765625 0.382812
vt 0.765625 0.476562
vt 0.671875 0.476562
vt 0.765625 0.382812
vt 0.671875 0.382812
vt 0.671875 0.476562
vt 0.765625 0.476562
vt 0.570312 0.476562
vt 0.664062 0.476562
vt 0.664062 0.382812
vt 0.570312 0.382812
vt 0.671875 0.382812
vt 0.765625 0.382812
vt 0.765625 0.476562
vt 0.671875 0.476562
vt 0.671875 0.382812
vt 0.765625 0.382812
vt 0.765625 0.476562
vt 0.671875 0.476562
vt 0.765625 0.382812
vt 0.671875 0.382812
vt 0.671875 0.476562
vt 0.765625 0.476562
vt 0.570312 0.476562
vt 0.664062 0.476562
vt 0.664062 0.382812
vt 0.570312 0.382812
vt 0.671875 0.382812
vt 0.765625 0.382812
vt 0.765625 0.476562
vt 0.671875 0.476562
vt 0.671875 0.382812
vt 0.765625 0.382812
vt 0.765625 0.476562
vt 0.671875 0.476562
vt 0.765625 0.382812
vt 0.671875 0.382812
vt 0.671875 0.476562
vt 0.765625 0.476562
vt 0.570312 0.476562
vt 0.664062 0.476562
vt 0.664062 0.382812
vt 0.570312 0.382812
vt 0.671875 0.382812
vt 0.765625 0.382812
vt 0.765625 0.476562
vt 0.671875 0.476562
vt 0.671875 0.382812
vt 0.765625 0.382812
vt 0.765625 0.476562
vt 0.671875 0.476562
vt 0.765625 0.382812
vt 0.671875 0.382812
vt 0.671875 0.476562
vt 0.765625 0.476562
vt 0.570312 0.476562
vt 0.664062 0.476562
vt 0.664062 0.382812
vt 0.570312 0.382812
vt 0.671875 0.382812
vt 0.765625 0.382812
vt 0.765625 0.476562
vt 0.671875 0.476562
vt 0.671875 0.382812
vt 0.765625 0.382812
vt 0.765625 0.476562
vt 0.671875 0.476562
vt 0.765625 0.382812
vt 0.671875 0.382812
vt 0.671875 0.476562
vt 0.765625 0.476562
vt 0.570312 0.476562
vt 0.664062 0.476562
vt 0.664062 0.382812
vt 0.570312 0.382812
vt 0.671875 0.382812
vt 0.765625 0.382812
vt 0.765625 0.476562
vt 0.671875 0.476562
vt 0.515625 0.117188
vt 0.547977 0.117188
vt 0.546862 0.132812
vt 0.515625 0.132812
vt 0.718750 0.272360
vt 0.749987 0.271332
vt 0.747756 0.269250
vt 0.718750 0.270205
vt 0.515625 0.132812
vt 0.544631 0.132812
vt 0.543515 0.117188
vt 0.515625 0.117188
vt 0.544631 0.101562
vt 0.515625 0.101562
vt 0.515625 0.101562
vt 0.546862 0.101562
vt 0.578125 0.117188
vt 0.575970 0.132812
vt 0.779095 0.268318
vt 0.774784 0.266451
vt 0.571659 0.132812
vt 0.569504 0.117188
vt 0.571659 0.101562
vt 0.575970 0.101562
vt 0.604013 0.117188
vt 0.600965 0.132812
vt 0.804090 0.263523
vt 0.797995 0.261999
vt 0.594870 0.132812
vt 0.591822 0.117188
vt 0.594870 0.101562
vt 0.600965 0.101562
vt 0.604013 0.117188
vt 0.578125 0.117188
vt 0.575970 0.132812
vt 0.600965 0.132812
vt 0.823270 0.257274
vt 0.815805 0.256196
vt 0.594870 0.132812
vt 0.571659 0.132812
vt 0.569504 0.117188
vt 0.591822 0.117188
vt 0.571659 0.101562
vt 0.594870 0.101562
vt 0.600965 0.101562
vt 0.575970 0.101562
vt 0.547977 0.117188
vt 0.546862 0.132812
vt 0.835327 0.249997
vt 0.827000 0.249439
vt 0.544631 0.132812
vt 0.543515 0.117188
vt 0.544631 0.101562
vt 0.546862 0.101562
vt 0.515625 0.117188
vt 0.515625 0.132812
vt 0.839440 0.242188
vt 0.830819 0.242188
vt 0.515625 0.101562
vt 0.483273 0.117188
vt 0.484388 0.132812
vt 0.835327 0.234378
vt 0.827000 0.234936
vt 0.486619 0.132812
vt 0.487735 0.117188
vt 0.486619 0.101562
vt 0.484388 0.101562
vt 0.453125 0.117188
vt 0.455280 0.132812
vt 0.823270 0.227101
vt 0.815805 0.228179
vt 0.459591 0.132812
vt 0.461746 0.117188
vt 0.459591 0.101562
vt 0.455280 0.101562
vt 0.427237 0.117188
vt 0.430285 0.132812
vt 0.804090 0.220852
vt 0.797995 0.222376
vt 0.436380 0.132812
vt 0.439428 0.117188
vt 0.436380 0.101562
vt 0.430285 0.101562
vt 0.604013 0.117188
vt 0.578125 0.117188
vt 0.575970 0.132812
vt 0.600965 0.132812
vt 0.779095 0.216057
vt 0.774784 0.217924
vt 0.594870 0.132812
vt 0.571659 0.132812
vt 0.569504 0.117188
vt 0.591822 0.117188
vt 0.571659 0.101562
vt 0.594870 0.101562
vt 0.600965 0.101562
vt 0.575970 0.101562
vt 0.547977 0.117188
vt 0.546862 0.132812
vt 0.749987 0.213043
vt 0.747756 0.215125
vt 0.544631 0.132812
vt 0.543515 0.117188
vt 0.544631 0.101562
vt 0.546862 0.101562
vt 0.718750 0.212015
vt 0.718750 0.214170
vt 0.483273 0.117188
vt 0.484388 0.132812
vt 0.687513 0.213043
vt 0.689744 0.215125
vt 0.486619 0.132812
vt 0.487735 0.117188
vt 0.486619 0.101562
vt 0.484388 0.101562
vt 0.453125 0.117188
vt 0.455280 0.132812
vt 0.658405 0.216057
vt 0.662716 0.217924
vt 0.459591 0.132812
vt 0.461746 0.117188
vt 0.459591 0.101562
vt 0.455280 0.101562
vt 0.427237 0.117188
vt 0.430285 0.132812
vt 0.633410 0.220852
vt 0.639505 0.222376
vt 0.436380 0.132812
vt 0.439428 0.117188
vt 0.436380 0.101562
vt 0.430285 0.101562
vt 0.614230 0.227101
vt 0.621695 0.228179
vt 0.602173 0.234378
vt 0.610500 0.234936
vt 0.598060 0.242188
vt 0.606681 0.242188
vt 0.602173 0.249997
vt 0.610500 0.249439
vt 0.614230 0.257274
vt 0.621695 0.256196
vt 0.633410 0.263523
vt 0.639505 0.261999
vt 0.427237 0.117188
vt 0.453125 0.117188
vt 0.455280 0.132812
vt 0.430285 0.132812
vt 0.658405 0.268318
vt 0.662716 0.266451
vt 0.436380 0.132812
vt 0.459591 0.132812
vt 0.461746 0.117188
vt 0.439428 0.117188
vt 0.459591 0.101562
vt 0.436380 0.101562
vt 0.430285 0.101562
vt 0.455280 0.101562
vt 0.483273 0.117188
vt 0.484388 0.132812
vt 0.687513 0.271332
vt 0.689744 0.269250
vt 0.486619 0.132812
vt 0.487735 0.117188
vt 0.486619 0.101562
vt 0.484388 0.101562
vt 0.671875 0.382812
vt 0.765625 0.382812
vt 0.765625 0.476562
vt 0.671875 0.476562
vt 0.765625 0.382812
vt 0.671875 0.382812
vt 0.671875 0.476562
vt 0.765625 0.476562
vt 0.570312 0.476562
vt 0.664062 0.476562
vt 0.664062 0.382812
vt 0.570312 0.382812
vt 0.671875 0.382812
vt 0.765625 0.382812
vt 0.765625 0.476562
vt 0.671875 0.476562
vt 0.671875 0.382812
vt 0.765625 0.382812
vt 0.765625 0.476562
vt 0.671875 0.476562
vt 0.765625 0.382812
vt 0.671875 0.382812
vt 0.671875 0.476562
vt 0.765625 0.476562
vt 0.570312 0.476562
vt 0.664062 0.476562
vt 0.664062 0.382812
vt 0.570312 0.382812
vt 0.671875 0.382812
vt 0.765625 0.382812
vt 0.765625 0.476562
vt 0.671875 0.476562
vt 0.671875 0.382812
vt 0.765625 0.382812
vt 0.765625 0.476562
vt 0.671875 0.476562
vt 0.765625 0.382812
vt 0.671875 0.382812
vt 0.671875 0.476562
vt 0.765625 0.476562
vt 0.570312 0.476562
vt 0.664062 0.476562
vt 0.664062 0.382812
vt 0.570312 0.382812
vt 0.671875 0.382812
vt 0.765625 0.382812
vt 0.765625 0.476562
vt 0.671875 0.476562
vt 0.671875 0.382812
vt 0.765625 0.382812
vt 0.765625 0.476562
vt 0.671875 0.476562
vt 0.765625 0.382812
vt 0.671875 0.382812
vt 0.671875 0.476562
vt 0.765625 0.476562
vt 0.570312 0.476562
vt 0.664062 0.476562
vt 0.664062 0.382812
vt 0.570312 0.382812
vt 0.671875 0.382812
vt 0.765625 0.382812
vt 0.765625 0.476562
vt 0.671875 0.476562
vt 0.671875 0.382812
vt 0.765625 0.382812
vt 0.765625 0.476562
vt 0.671875 0.476562
vt 0.765625 0.382812
vt 0.671875 0.382812
vt 0.671875 0.476562
vt 0.765625 0.476562
vt 0.570312 0.476562
vt 0.664062 0.476562
vt 0.664062 0.382812
vt 0.570312 0.382812
vt 0.671875 0.382812
vt 0.765625 0.382812
vt 0.765625 0.476562
vt 0.671875 0.476562
vt 0.671875 0.382812
vt 0.765625 0.382812
vt 0.765625 0.476562
vt 0.671875 0.476562
vt 0.765625 0.382812
vt 0.671875 0.382812
vt 0.671875 0.476562
vt 0.765625 0.476562
vt 0.570312 0.476562
vt 0.664062 0.476562
vt 0.664062 0.382812
vt 0.570312 0.382812
vt 0.671875 0.382812
vt 0.765625 0.382812
vt 0.765625 0.476562
vt 0.671875 0.476562
vt 0.539062 0.234375
vt 0.572208 0.206754
vt 0.539062 0.195312
vt 0.585938 0.234375
vt 0.572208 0.261996
vt 0.539062 0.273438
vt 0.505917 0.261996
vt 0.492188 0.234375
vt 0.505917 0.206754
vt 0.589844 0.664062
vt 0.614703 0.664062
vt 0.614703 0.992188
vt 0.589844 0.992188
vt 0.492188 0.308316
vt 0.492188 0.335938
vt 0.867188 0.335938
vt 0.867188 0.308316
vt 0.492188 0.363559
vt 0.867188 0.363559
vt 0.564985 0.664062
vt 0.564985 0.992188
vt 0.437500 0.195312
vt 0.470646 0.206754
vt 0.437500 0.234375
vt 0.484375 0.234375
vt 0.470646 0.261996
vt 0.437500 0.273438
vt 0.404354 0.261996
vt 0.390625 0.234375
vt 0.404354 0.206754
vt 0.054688 0.375000
vt 0.087833 0.361271
vt 0.078552 0.351990
vt 0.054688 0.361875
vt 0.101562 0.328125
vt 0.088437 0.328125
vt 0.087833 0.294979
vt 0.078552 0.304260
vt 0.054688 0.281250
vt 0.054688 0.294375
vt 0.021542 0.294979
vt 0.030823 0.304260
vt 0.007812 0.328125
vt 0.020937 0.328125
vt 0.021542 0.361271
vt 0.030823 0.351990
vt 0.054688 0.328125
vt 0.539062 0.234375
vt 0.572208 0.206754
vt 0.539062 0.195312
vt 0.585938 0.234375
vt 0.572208 0.261996
vt 0.539062 0.273438
vt 0.505917 0.261996
vt 0.492188 0.234375
vt 0.505917 0.206754
vt 0.589844 0.664062
vt 0.614703 0.664062
vt 0.614703 0.992188
vt 0.589844 0.992188
vt 0.492188 0.308316
vt 0.492188 0.335938
vt 0.867188 0.335938
vt 0.867188 0.308316
vt 0.492188 0.363559
vt 0.867188 0.363559
vt 0.564985 0.664062
vt 0.564985 0.992188
vt 0.437500 0.195312
vt 0.470646 0.206754
vt 0.437500 0.234375
vt 0.484375 0.234375
vt 0.470646 0.261996
vt 0.437500 0.273438
vt 0.404354 0.261996
vt 0.390625 0.234375
vt 0.404354 0.206754
vt 0.054688 0.375000
vt 0.087833 0.361271
vt 0.078552 0.351990
vt 0.054688 0.361875
vt 0.101562 0.328125
vt 0.088438 0.328125
vt 0.087833 0.294979
vt 0.078552 0.304260
vt 0.054688 0.281250
vt 0.054688 0.294375
vt 0.021542 0.294979
vt 0.030823 0.304260
vt 0.007812 0.328125
vt 0.020938 0.328125
vt 0.021542 0.361271
vt 0.030823 0.351990
vt 0.054688 0.328125
vt 0.539062 0.234375
vt 0.572208 0.206754
vt 0.539062 0.195312
vt 0.585938 0.234375
vt 0.572208 0.261996
vt 0.539062 0.273438
vt 0.505917 0.261996
vt 0.492188 0.234375
vt 0.505917 0.206754
vt 0.589844 0.664062
vt 0.614703 0.664062
vt 0.614703 0.992188
vt 0.589844 0.992188
vt 0.492188 0.308316
vt 0.492188 0.335938
vt 0.867188 0.335938
vt 0.867188 0.308316
vt 0.492188 0.363559
vt 0.867188 0.363559
vt 0.564985 0.664062
vt 0.564985 0.992188
vt 0.437500 0.195312
vt 0.470646 0.206754
vt 0.437500 0.234375
vt 0.484375 0.234375
vt 0.470646 0.261996
vt 0.437500 0.273438
vt 0.404354 0.261996
vt 0.390625 0.234375
vt 0.404354 0.206754
vt 0.054688 0.375000
vt 0.087833 0.361271
vt 0.078552 0.351990
vt 0.054688 0.361875
vt 0.101562 0.328125
vt 0.088437 0.328125
vt 0.087833 0.294979
vt 0.078552 0.304260
vt 0.054688 0.281250
vt 0.054688 0.294375
vt 0.021542 0.294979
vt 0.030823 0.304260
vt 0.007812 0.328125
vt 0.020937 0.328125
vt 0.021542 0.361271
vt 0.030823 0.351990
vt 0.054688 0.328125
vt 0.539062 0.234375
vt 0.572208 0.206754
vt 0.539062 0.195312
vt 0.585938 0.234375
vt 0.572208 0.261996
vt 0.539062 0.273438
vt 0.505917 0.261996
vt 0.492188 0.234375
vt 0.505917 0.206754
vt 0.589844 0.664062
vt 0.614703 0.664062
vt 0.614703 0.992188
vt 0.589844 0.992188
vt 0.492188 0.308316
vt 0.492188 0.335938
vt 0.867188 0.335938
vt 0.867188 0.308316
vt 0.492188 0.363559
vt 0.867188 0.363559
vt 0.564985 0.664062
vt 0.564985 0.992188
vt 0.437500 0.195312
vt 0.470646 0.206754
vt 0.437500 0.234375
vt 0.484375 0.234375
vt 0.470646 0.261996
vt 0.437500 0.273438
vt 0.404354 0.261996
vt 0.390625 0.234375
vt 0.404354 0.206754
vt 0.054688 0.375000
vt 0.087833 0.361271
vt 0.078552 0.351990
vt 0.054688 0.361875
vt 0.101562 0.328125
vt 0.088437 0.328125
vt 0.087833 0.294979
vt 0.078552 0.304260
vt 0.054688 0.281250
vt 0.054688 0.294375
vt 0.021542 0.294979
vt 0.030823 0.304260
vt 0.007812 0.328125
vt 0.020938 0.328125
vt 0.021542 0.361271
vt 0.030823 0.351990
vt 0.054688 0.328125
vt 0.187500 0.484375
vt 0.312500 0.484375
vt 0.312500 0.656250
vt 0.187500 0.656250
vt 0.312500 0.484375
vt 0.187500 0.484375
vt 0.187500 0.656250
vt 0.312500 0.656250
vt 0.320312 0.656250
vt 0.382812 0.656250
vt 0.382812 0.484375
vt 0.320312 0.484375
vt 0.187500 0.484375
vt 0.312500 0.484375
vt 0.312500 0.656250
vt 0.187500 0.656250
vt 0.187500 0.484375
vt 0.312500 0.484375
vt 0.312500 0.656250
vt 0.187500 0.656250
vt 0.312500 0.484375
vt 0.187500 0.484375
vt 0.187500 0.656250
vt 0.312500 0.656250
vt 0.320312 0.656250
vt 0.382812 0.656250
vt 0.382812 0.484375
vt 0.320312 0.484375
vt 0.187500 0.484375
vt 0.312500 0.484375
vt 0.312500 0.656250
vt 0.187500 0.656250
vt 0.508594 0.422656
vt 0.522656 0.422656
vt 0.522656 0.436719
vt 0.508594 0.436719
vt 0.195312 0.382812
vt 0.007812 0.382812
vt 0.007812 0.476562
vt 0.195312 0.476562
vt 0.080859 0.656250
vt 0.106641 0.656250
vt 0.179688 0.484375
vt 0.007812 0.484375
vt 0.007812 0.382812
vt 0.195312 0.422656
vt 0.195312 0.436719
vt 0.007812 0.476562
vn 0.133060 -0.981554 0.137280
vn 0.310569 -0.948960 0.054975
vn 0.310569 -0.948960 -0.054975
vn 0.133060 -0.981554 -0.137280
vn -0.133060 -0.981554 -0.137280
vn -0.310569 -0.948960 -0.054975
vn -0.310569 -0.948960 0.054975
vn -0.133060 -0.981554 0.137280
vn 0.133060 0.981554 0.137280
vn 0.310569 0.948960 0.054975
vn 0.310569 0.948960 -0.054975
vn 0.133060 0.981554 -0.137280
vn -0.133060 0.981554 -0.137280
vn -0.310569 0.948960 -0.054975
vn -0.310569 0.948960 0.054975
vn -0.133060 0.981554 0.137280
vn 0.000000 -1.000000 0.000000
vn 0.681799 0.265144 0.681799
vn 0.681799 0.265144 -0.681799
vn -0.681799 0.265144 -0.681799
vn -0.681799 0.265144 0.681799
vn 0.000000 -1.000000 0.000000
vn 0.681799 0.265144 0.681799
vn 0.681799 0.265144 -0.681799
vn -0.681799 0.265144 -0.681799
vn -0.681799 0.265144 0.681799
vn 0.000000 -1.000000 0.000000
vn 0.681799 0.265144 0.681799
vn 0.681799 0.265144 -0.681799
vn -0.681799 0.265144 -0.681799
vn -0.681799 0.265144 0.681799
vn 0.000000 -1.000000 0.000000
vn 0.681799 0.265144 0.681799
vn 0.681799 0.265144 -0.681799
vn -0.681799 0.265144 -0.681799
vn -0.681799 0.265144 0.681799
vn 0.000000 -1.000000 0.000000
vn 0.681799 0.265144 0.681799
vn 0.681799 0.265144 -0.681799
vn -0.681799 0.265144 -0.681799
vn -0.681799 0.265144 0.681799
vn 0.000000 -1.000000 0.000000
vn 0.681799 0.265144 0.681799
vn 0.681799 0.265144 -0.681799
vn -0.681799 0.265144 -0.681799
vn -0.681799 0.265144 0.681799
vn -1.000000 0.000000 0.000000
vn 1.000000 0.000000 0.000000
vn 0.000000 1.000000 0.000000
vn 0.000000 -1.000000 0.000000
vn 0.000000 0.000000 -1.000000
vn 0.000000 0.000000 1.000000
vn -1.000000 0.000000 0.000000
vn 1.000000 0.000000 0.000000
vn 0.000000 1.000000 0.000000
vn 0.000000 -1.000000 0.000000
vn 0.000000 0.000000 -1.000000
vn 0.000000 0.000000 1.000000
vn -1.000000 0.000000 0.000000
vn 1.000000 0.000000 0.000000
vn 0.000000 1.000000 0.000000
vn 0.000000 -1.000000 0.000000
vn 0.000000 0.000000 -1.000000
vn 0.000000 0.000000 1.000000
vn 1.000000 0.000000 0.000000
vn -1.000000 0.000000 0.000000
vn 0.000000 1.000000 0.000000
vn 0.000000 -1.000000 0.000000
vn 0.000000 0.000000 1.000000
vn 0.000000 0.000000 -1.000000
vn 1.000000 0.000000 0.000000
vn -1.000000 0.000000 0.000000
vn 0.000000 1.000000 0.000000
vn 0.000000 -1.000000 0.000000
vn 0.000000 0.000000 1.000000
vn 0.000000 0.000000 -1.000000
vn 1.000000 0.000000 0.000000
vn -1.000000 0.000000 0.000000
vn 0.000000 1.000000 0.000000
vn 0.000000 -1.000000 0.000000
vn 0.000000 0.000000 1.000000
vn 0.000000 0.000000 -1.000000
vn 0.175368 -0.970234 0.167012
vn 0.399093 -0.914589 0.065211
vn 0.399093 -0.914589 -0.065211
vn 0.175368 -0.970234 -0.167012
vn -0.175368 -0.970234 -0.167012
vn -0.399093 -0.914589 -0.065211
vn -0.399093 -0.914589 0.065211
vn -0.175368 -0.970234 0.167012
vn 0.175368 0.970234 0.167012
vn 0.399093 0.914589 0.065211
vn 0.399093 0.914589 -0.065211
vn 0.175368 0.970234 -0.167012
vn -0.175368 0.970234 -0.167012
vn -0.399093 0.914589 -0.065211
vn -0.399093 0.914589 0.065211
vn -0.175368 0.970234 0.167012
vn 0.113281 0.496782 0.860451
vn 0.000000 1.000000 0.000000
vn -0.113281 0.496782 -0.860451
vn -0.113281 -0.496782 -0.860451
vn -0.000000 -1.000000 -0.000000
vn 0.113281 -0.496782 0.860451
vn 0.332122 0.496782 0.801813
vn -0.332122 0.496782 -0.801813
vn -0.332122 -0.496782 -0.801813
vn 0.332122 -0.496782 0.801813
vn 0.528329 0.496782 0.688532
vn -0.528329 0.496782 -0.688532
vn -0.528329 -0.496782 -0.688532
vn 0.528329 -0.496782 0.688532
vn 0.688532 0.496782 0.528329
vn -0.688532 0.496782 -0.528329
vn -0.688532 -0.496782 -0.528329
vn 0.688532 -0.496782 0.528329
vn 0.801813 0.496782 0.332122
vn -0.801813 0.496782 -0.332122
vn -0.801813 -0.496782 -0.332122
vn 0.801813 -0.496782 0.332122
vn 0.860451 0.496782 0.113281
vn -0.860451 0.496782 -0.113281
vn -0.860451 -0.496782 -0.113281
vn 0.860451 -0.496782 0.113281
vn 0.860451 0.496782 -0.113281
vn -0.860451 0.496782 0.113281
vn -0.860451 -0.496782 0.113281
vn 0.860451 -0.496782 -0.113281
vn 0.801813 0.496782 -0.332122
vn -0.801813 0.496782 0.332122
vn -0.801813 -0.496782 0.332122
vn 0.801813 -0.496782 -0.332122
vn 0.688532 0.496782 -0.528329
vn -0.688532 0.496782 0.528329
vn -0.688532 -0.496782 0.528329
vn 0.688532 -0.496782 -0.528329
vn 0.528329 0.496782 -0.688532
vn -0.528329 0.496782 0.688532
vn -0.528329 -0.496782 0.688532
vn 0.528329 -0.496782 -0.688532
vn 0.332122 0.496782 -0.801813
vn -0.332122 0.496782 0.801813
vn -0.332122 -0.496782 0.801813
vn 0.332122 -0.496782 -0.801813
vn 0.113281 0.496782 -0.860451
vn -0.113281 0.496782 0.860451
vn -0.113281 -0.496782 0.860451
vn 0.113281 -0.496782 -0.860451
vn 0.000000 0.000000 1.000000
vn 0.000000 0.000000 -1.000000
vn -0.000000 1.000000 0.000000
vn 0.000000 -1.000000 0.000000
vn -1.000000 0.000000 0.000000
vn 1.000000 0.000000 0.000000
vn 0.000000 0.000000 1.000000
vn 0.000000 0.000000 -1.000000
vn -0.000000 1.000000 0.000000
vn 0.000000 -1.000000 0.000000
vn -1.000000 0.000000 0.000000
vn 1.000000 0.000000 0.000000
vn 0.000000 0.000000 1.000000
vn 0.000000 0.000000 -1.000000
vn -0.000000 1.000000 0.000000
vn 0.000000 -1.000000 0.000000
vn -1.000000 0.000000 0.000000
vn 1.000000 0.000000 0.000000
vn 0.000000 0.000000 1.000000
vn 0.000000 0.000000 -1.000000
vn -0.000000 1.000000 0.000000
vn 0.000000 -1.000000 0.000000
vn -1.000000 0.000000 0.000000
vn 1.000000 0.000000 0.000000
vn 0.000000 0.000000 1.000000
vn 0.000000 0.000000 -1.000000
vn -0.000000 1.000000 0.000000
vn 0.000000 -1.000000 0.000000
vn -1.000000 0.000000 0.000000
vn 1.000000 0.000000 0.000000
vn 0.000000 0.000000 1.000000
vn 0.000000 0.000000 -1.000000
vn -0.000000 1.000000 0.000000
vn 0.000000 -1.000000 0.000000
vn -1.000000 0.000000 0.000000
vn 1.000000 0.000000 0.000000
vn 0.113281 0.496782 0.860451
vn 0.000000 1.000000 0.000000
vn -0.113281 0.496782 -0.860451
vn -0.113281 -0.496782 -0.860451
vn -0.000000 -1.000000 -0.000000
vn 0.113281 -0.496782 0.860451
vn 0.332122 0.496782 0.801813
vn -0.332122 0.496782 -0.801813
vn -0.332122 -0.496782 -0.801813
vn 0.332122 -0.496782 0.801813
vn 0.528329 0.496782 0.688532
vn -0.528329 0.496782 -0.688532
vn -0.528329 -0.496782 -0.688532
vn 0.528329 -0.496782 0.688532
vn 0.688532 0.496782 0.528329
vn -0.688532 0.496782 -0.528329
vn -0.688532 -0.496782 -0.528329
vn 0.688532 -0.496782 0.528329
vn 0.801813 0.496782 0.332122
vn -0.801813 0.496782 -0.332122
vn -0.801813 -0.496782 -0.332122
vn 0.801813 -0.496782 0.332122
vn 0.860451 0.496782 0.113281
vn -0.860451 0.496782 -0.113281
vn -0.860451 -0.496782 -0.113281
vn 0.860451 -0.496782 0.113281
vn 0.860451 0.496782 -0.113281
vn -0.860451 0.496782 0.113281
vn -0.860451 -0.496782 0.113281
vn 0.860451 -0.496782 -0.113281
vn 0.801813 0.496782 -0.332122
vn -0.801813 0.496782 0.332122
vn -0.801813 -0.496782 0.332122
vn 0.801813 -0.496782 -0.332122
vn 0.688532 0.496782 -0.528329
vn -0.688532 0.496782 0.528329
vn -0.688532 -0.496782 0.528329
vn 0.688532 -0.496782 -0.528329
vn 0.528329 0.496782 -0.688532
vn -0.528329 0.496782 0.688532
vn -0.528329 -0.496782 0.688532
vn 0.528329 -0.496782 -0.688532
vn 0.332122 0.496782 -0.801813
vn -0.332122 0.496782 0.801813
vn -0.332122 -0.496782 0.801813
vn 0.332122 -0.496782 -0.801813
vn 0.113281 0.496782 -0.860451
vn -0.113281 0.496782 0.860451
vn -0.113281 -0.496782 0.860451
vn 0.113281 -0.496782 -0.860451
vn 0.000000 0.000000 1.000000
vn 0.000000 0.000000 -1.000000
vn -0.000000 1.000000 0.000000
vn 0.000000 -1.000000 0.000000
vn -1.000000 0.000000 0.000000
vn 1.000000 0.000000 0.000000
vn 0.000000 0.000000 1.000000
vn 0.000000 0.000000 -1.000000
vn -0.000000 1.000000 0.000000
vn 0.000000 -1.000000 0.000000
vn -1.000000 0.000000 0.000000
vn 1.000000 0.000000 0.000000
vn 0.000000 0.000000 1.000000
vn 0.000000 0.000000 -1.000000
vn -0.000000 1.000000 0.000000
vn 0.000000 -1.000000 0.000000
vn -1.000000 0.000000 0.000000
vn 1.000000 0.000000 0.000000
vn 0.000000 0.000000 1.000000
vn 0.000000 0.000000 -1.000000
vn -0.000000 1.000000 0.000000
vn 0.000000 -1.000000 0.000000
vn -1.000000 0.000000 0.000000
vn 1.000000 0.000000 0.000000
vn 0.000000 0.000000 1.000000
vn 0.000000 0.000000 -1.000000
vn -0.000000 1.000000 0.000000
vn 0.000000 -1.000000 0.000000
vn -1.000000 0.000000 0.000000
vn 1.000000 0.000000 0.000000
vn 0.000000 0.000000 1.000000
vn 0.000000 0.000000 -1.000000
vn -0.000000 1.000000 0.000000
vn 0.000000 -1.000000 0.000000
vn -1.000000 0.000000 0.000000
vn 1.000000 0.000000 0.000000
vn 0.000000 0.000000 -1.000000
vn 0.382683 -0.923880 0.000000
vn 0.923880 -0.382683 0.000000
vn 0.923880 0.382683 0.000000
vn 0.382683 0.923880 -0.000000
vn -0.382683 0.923880 -0.000000
vn -0.923880 0.382683 -0.000000
vn -0.923880 -0.382683 0.000000
vn -0.382683 -0.923880 0.000000
vn 0.000000 0.000000 1.000000
vn 0.254750 0.615021 -0.746225
vn 0.615021 0.254750 -0.746225
vn 0.615021 -0.254750 -0.746225
vn 0.254750 -0.615021 -0.746225
vn -0.254750 -0.615021 -0.746225
vn -0.615021 -0.254750 -0.746225
vn -0.615021 0.254750 -0.746225
vn -0.254750 0.615021 -0.746225
vn 0.086231 0.208180 -0.974282
vn 0.208180 0.086231 -0.974282
vn 0.208180 -0.086231 -0.974282
vn 0.086231 -0.208180 -0.974282
vn -0.086231 -0.208180 -0.974282
vn -0.208180 -0.086231 -0.974282
vn -0.208180 0.086231 -0.974282
vn -0.086231 0.208180 -0.974282
vn 0.000000 0.000000 -1.000000
vn 0.382683 -0.923880 0.000000
vn 0.923880 -0.382683 0.000000
vn 0.923880 0.382683 0.000000
vn 0.382683 0.923880 -0.000000
vn -0.382683 0.923880 -0.000000
vn -0.923880 0.382683 -0.000000
vn -0.923880 -0.382683 0.000000
vn -0.382683 -0.923880 0.000000
vn 0.000000 0.000000 1.000000
vn 0.254750 0.615021 -0.746225
vn 0.615021 0.254750 -0.746225
vn 0.615021 -0.254750 -0.746225
vn 0.254750 -0.615021 -0.746225
vn -0.254750 -0.615021 -0.746225
vn -0.615021 -0.254750 -0.746225
vn -0.615021 0.254750 -0.746225
vn -0.254750 0.615021 -0.746225
vn 0.086231 0.208180 -0.974282
vn 0.208180 0.086231 -0.974282
vn 0.208180 -0.086231 -0.974282
vn 0.086231 -0.208180 -0.974282
vn -0.086231 -0.208180 -0.974282
vn -0.208180 -0.086231 -0.974282
vn -0.208180 0.086231 -0.974282
vn -0.086231 0.208180 -0.974282
vn 0.000000 0.000000 -1.000000
vn 0.382683 -0.923880 0.000000
vn 0.923880 -0.382683 0.000000
vn 0.923880 0.382683 0.000000
vn 0.382683 0.923880 -0.000000
vn -0.382683 0.923880 -0.000000
vn -0.923880 0.382683 -0.000000
vn -0.923880 -0.382683 0.000000
vn -0.382683 -0.923880 0.000000
vn 0.000000 0.000000 1.000000
vn 0.254750 0.615021 -0.746225
vn 0.615021 0.254750 -0.746225
vn 0.615021 -0.254750 -0.746225
vn 0.254750 -0.615021 -0.746225
vn -0.254750 -0.615021 -0.746225
vn -0.615021 -0.254750 -0.746225
vn -0.615021 0.254750 -0.746225
vn -0.254750 0.615021 -0.746225
vn 0.086231 0.208180 -0.974282
vn 0.208180 0.086231 -0.974282
vn 0.208180 -0.086231 -0.974282
vn 0.086231 -0.208180 -0.974282
vn -0.086231 -0.208180 -0.974282
vn -0.208180 -0.086231 -0.974282
vn -0.208180 0.086231 -0.974282
vn -0.086231 0.208180 -0.974282
vn 0.000000 0.000000 -1.000000
vn 0.382683 -0.923880 0.000000
vn 0.923880 -0.382683 0.000000
vn 0.923880 0.382683 0.000000
vn 0.382683 0.923880 -0.000000
vn -0.382683 0.923880 -0.000000
vn -0.923880 0.382683 -0.000000
vn -0.923880 -0.382683 0.000000
vn -0.382683 -0.923880 0.000000
vn 0.000000 0.000000 1.000000
vn 0.254750 0.615021 -0.746225
vn 0.615021 0.254750 -0.746225
vn 0.615021 -0.254750 -0.746225
vn 0.254750 -0.615021 -0.746225
vn -0.254750 -0.615021 -0.746225
vn -0.615021 -0.254750 -0.746225
vn -0.615021 0.254750 -0.746225
vn -0.254750 0.615021 -0.746225
vn 0.086231 0.208180 -0.974282
vn 0.208180 0.086231 -0.974282
vn 0.208180 -0.086231 -0.974282
vn 0.086231 -0.208180 -0.974282
vn -0.086231 -0.208180 -0.974282
vn -0.208180 -0.086231 -0.974282
vn -0.208180 0.086231 -0.974282
vn -0.086231 0.208180 -0.974282
vn 0.000000 0.000000 1.000000
vn 0.000000 0.000000 -1.000000
vn -0.000000 1.000000 0.000000
vn 0.000000 -1.000000 0.000000
vn -1.000000 0.000000 0.000000
vn 1.000000 0.000000 0.000000
vn 0.000000 0.000000 1.000000
vn 0.000000 0.000000 -1.000000
vn -0.000000 1.000000 0.000000
vn 0.000000 -1.000000 0.000000
vn -1.000000 0.000000 0.000000
vn 1.000000 0.000000 0.000000
vn 0.000000 0.000000 1.000000
vn 0.000000 0.000000 -1.000000
vn -0.000000 0.998398 0.056576
vn 0.000000 -0.998398 0.056576
vn -0.920331 0.000000 0.391141
vn 0.920331 0.000000 0.391141
f 1/1/1 2/2/1 3/3/1
f 1/1/2 4/4/2 2/2/2
f 1/1/3 5/5/3 4/4/3
f 1/1/4 6/6/4 5/5/4
f 1/1/5 7/7/5 6/6/5
f 1/1/6 8/8/6 7/7/6
f 1/1/7 9/9/7 8/8/7
f 1/1/8 3/3/8 9/9/8
f 3/3/9 2/2/9 10/1/9
f 2/2/10 4/4/10 10/1/10
f 4/4/11 5/5/11 10/1/11
f 5/5/12 6/6/12 10/1/12
f 6/6/13 7/7/13 10/1/13
f 7/7/14 8/8/14 10/1/14
f 8/8/15 9/9/15 10/1/15
f 9/9/16 3/3/16 10/1/16
f 11/10/17 12/11/17 13/12/17
f 11/10/17 14/13/17 12/11/17
f 11/10/17 15/14/17 14/13/17
f 11/10/17 13/12/17 15/14/17
f 13/15/18 12/16/18 16/17/18
f 12/18/19 14/19/19 16/20/19
f 14/19/20 15/21/20 16/20/20
f 15/22/21 13/15/21 16/17/21
f 17/23/22 18/24/22 19/25/22
f 17/23/22 20/26/22 18/24/22
f 17/23/22 21/27/22 20/26/22
f 17/23/22 19/25/22 21/27/22
f 19/28/23 18/29/23 22/30/23
f 18/29/24 20/31/24 22/30/24
f 20/31/25 21/29/25 22/30/25
f 21/29/26 19/28/26 22/30/26
f 23/32/27 24/33/27 25/34/27
f 23/32/27 26/35/27 24/33/27
f 23/32/27 27/36/27 26/35/27
f 23/32/27 25/34/27 27/36/27
f 25/37/28 24/38/28 28/39/28
f 24/40/29 26/41/29 28/42/29
f 26/41/30 27/40/30 28/42/30
f 27/43/31 25/37/31 28/39/31
f 29/44/32 30/45/32 31/46/32
f 29/44/32 32/47/32 30/45/32
f 29/44/32 33/48/32 32/47/32
f 29/44/32 31/46/32 33/48/32
f 31/49/33 30/50/33 34/51/33
f 30/50/34 32/52/34 34/51/34
f 32/52/35 33/50/35 34/51/35
f 33/50/36 31/49/36 34/51/36
f 35/53/37 36/54/37 37/55/37
f 35/53/37 38/56/37 36/54/37
f 35/53/37 39/57/37 38/56/37
f 35/53/37 37/55/37 39/57/37
f 37/58/38 36/59/38 40/60/38
f 36/61/39 38/62/39 40/63/39
f 38/62/40 39/61/40 40/63/40
f 39/64/41 37/58/41 40/60/41
f 41/65/42 42/66/42 43/67/42
f 41/65/42 44/68/42 42/66/42
f 41/65/42 45/69/42 44/68/42
f 41/65/42 43/67/42 45/69/42
f 43/70/43 42/71/43 46/72/43
f 42/71/44 44/73/44 46/72/44
f 44/73/45 45/71/45 46/72/45
f 45/71/46 43/70/46 46/72/46
f 47/74/47 48/75/47 49/76/47
f 47/74/47 49/76/47 50/77/47
f 51/75/48 52/74/48 53/77/48
f 51/75/48 53/77/48 54/76/48
f 50/78/49 49/79/49 54/80/49
f 50/78/49 54/80/49 53/81/49
f 52/81/50 51/80/50 48/79/50
f 52/81/50 48/79/50 47/78/50
f 52/82/51 47/83/51 50/84/51
f 52/82/51 50/84/51 53/85/51
f 48/86/52 51/87/52 54/88/52
f 48/86/52 54/88/52 49/89/52
f 55/90/53 56/91/53 57/92/53
f 55/90/53 57/92/53 58/93/53
f 59/91/54 60/90/54 61/93/54
f 59/91/54 61/93/54 62/92/54
f 58/94/55 57/95/55 62/96/55
f 58/94/55 62/96/55 61/97/55
f 60/97/56 59/96/56 56/95/56
f 60/97/56 56/95/56 55/94/56
f 60/98/57 55/99/57 58/100/57
f 60/98/57 58/100/57 61/101/57
f 56/102/58 59/103/58 62/104/58
f 56/102/58 62/104/58 57/105/58
f 63/106/59 64/107/59 65/108/59
f 63/106/59 65/108/59 66/109/59
f 67/107/60 68/106/60 69/109/60
f 67/107/60 69/109/60 70/108/60
f 66/110/61 65/111/61 70/112/61
f 66/110/61 70/112/61 69/113/61
f 68/113/62 67/112/62 64/111/62
f 68/113/62 64/111/62 63/110/62
f 68/114/63 63/115/63 66/116/63
f 68/114/63 66/116/63 69/117/63
f 64/118/64 67/119/64 70/120/64
f 64/118/64 70/120/64 65/121/64
f 71/122/65 72/123/65 73/124/65
f 71/122/65 73/124/65 74/125/65
f 75/123/66 76/122/66 77/125/66
f 75/123/66 77/125/66 78/124/66
f 74/126/67 73/127/67 78/128/67
f 74/126/67 78/128/67 77/129/67
f 76/129/68 75/128/68 72/127/68
f 76/129/68 72/127/68 71/126/68
f 76/130/69 71/131/69 74/132/69
f 76/130/69 74/132/69 77/133/69
f 72/134/70 75/135/70 78/136/70
f 72/134/70 78/136/70 73/137/70
f 79/138/71 80/139/71 81/140/71
f 79/138/71 81/140/71 82/141/71
f 83/139/72 84/138/72 85/141/72
f 83/139/72 85/141/72 86/140/72
f 82/142/73 81/143/73 86/144/73
f 82/142/73 86/144/73 85/145/73
f 84/145/74 83/144/74 80/143/74
f 84/145/74 80/143/74 79/142/74
f 84/146/75 79/147/75 82/148/75
f 84/146/75 82/148/75 85/149/75
f 80/150/76 83/151/76 86/152/76
f 80/150/76 86/152/76 81/153/76
f 87/154/77 88/155/77 89/156/77
f 87/154/77 89/156/77 90/157/77
f 91/155/78 92/154/78 93/157/78
f 91/155/78 93/157/78 94/156/78
f 90/158/79 89/159/79 94/160/79
f 90/158/79 94/160/79 93/161/79
f 92/161/80 91/160/80 88/159/80
f 92/161/80 88/159/80 87/158/80
f 92/162/81 87/163/81 90/164/81
f 92/162/81 90/164/81 93/165/81
f 88/166/82 91/167/82 94/168/82
f 88/166/82 94/168/82 89/169/82
f 95/170/83 96/171/83 97/172/83
f 95/170/84 98/173/84 96/171/84
f 95/170/85 99/174/85 98/173/85
f 95/170/86 100/175/86 99/174/86
f 95/170/87 101/176/87 100/175/87
f 95/170/88 102/177/88 101/176/88
f 95/170/89 103/178/89 102/177/89
f 95/170/90 97/172/90 103/178/90
f 97/172/91 96/171/91 104/170/91
f 96/171/92 98/173/92 104/170/92
f 98/173/93 99/174/93 104/170/93
f 99/174/94 100/175/94 104/170/94
f 100/175/95 101/176/95 104/170/95
f 101/176/96 102/177/96 104/170/96
f 102/177/97 103/178/97 104/170/97
f 103/178/98 97/172/98 104/170/98
f 105/179/99 106/180/99 107/181/99
f 105/179/99 107/181/99 108/182/99
f 108/183/100 107/184/100 109/185/100
f 108/183/100 109/185/100 110/186/100
f 110/187/101 109/188/101 111/189/101
f 110/187/101 111/189/101 112/190/101
f 112/190/102 111/189/102 113/191/102
f 112/190/102 113/191/102 114/192/102
f 114/186/103 113/185/103 115/184/103
f 114/186/103 115/184/103 116/183/103
f 116/193/104 115/194/104 106/180/104
f 116/193/104 106/180/104 105/179/104
f 106/180/105 117/195/105 118/196/105
f 106/180/105 118/196/105 107/181/105
f 107/184/100 118/197/100 119/198/100
f 107/184/100 119/198/100 109/185/100
f 109/188/106 119/199/106 120/200/106
f 109/188/106 120/200/106 111/189/106
f 111/189/107 120/200/107 121/201/107
f 111/189/107 121/201/107 113/191/107
f 113/185/103 121/198/103 122/197/103
f 113/185/103 122/197/103 115/184/103
f 115/194/108 122/202/108 117/195/108
f 115/194/108 117/195/108 106/180/108
f 117/195/109 123/203/109 124/204/109
f 117/195/109 124/204/109 118/196/109
f 118/197/100 124/205/100 125/206/100
f 118/197/100 125/206/100 119/198/100
f 119/199/110 125/207/110 126/208/110
f 119/199/110 126/208/110 120/200/110
f 120/200/111 126/208/111 127/209/111
f 120/200/111 127/209/111 121/201/111
f 121/198/103 127/206/103 128/205/103
f 121/198/103 128/205/103 122/197/103
f 122/202/112 128/210/112 123/203/112
f 122/202/112 123/203/112 117/195/112
f 123/211/113 129/212/113 130/213/113
f 123/211/113 130/213/113 124/214/113
f 124/205/100 130/215/100 131/216/100
f 124/205/100 131/216/100 125/206/100
f 125/217/114 131/218/114 132/219/114
f 125/217/114 132/219/114 126/220/114
f 126/220/115 132/219/115 133/221/115
f 126/220/115 133/221/115 127/222/115
f 127/206/103 133/216/103 134/215/103
f 127/206/103 134/215/103 128/205/103
f 128/223/116 134/224/116 129/212/116
f 128/223/116 129/212/116 123/211/116
f 129/212/117 135/225/117 136/226/117
f 129/212/117 136/226/117 130/213/117
f 130/215/100 136/227/100 137/228/100
f 130/215/100 137/228/100 131/216/100
f 131/218/118 137/229/118 138/230/118
f 131/218/118 138/230/118 132/219/118
f 132/219/119 138/230/119 139/231/119
f 132/219/119 139/231/119 133/221/119
f 133/216/103 139/228/103 140/227/103
f 133/216/103 140/227/103 134/215/103
f 134/224/120 140/232/120 135/225/120
f 134/224/120 135/225/120 129/212/120
f 135/225/121 141/233/121 142/234/121
f 135/225/121 142/234/121 136/226/121
f 136/227/100 142/235/100 143/236/100
f 136/227/100 143/236/100 137/228/100
f 137/229/122 143/234/122 144/233/122
f 137/229/122 144/233/122 138/230/122
f 138/230/123 144/233/123 145/237/123
f 138/230/123 145/237/123 139/231/123
f 139/228/103 145/236/103 146/235/103
f 139/228/103 146/235/103 140/227/103
f 140/232/124 146/237/124 141/233/124
f 140/232/124 141/233/124 135/225/124
f 141/233/125 147/238/125 148/239/125
f 141/233/125 148/239/125 142/234/125
f 142/235/100 148/240/100 149/241/100
f 142/235/100 149/241/100 143/236/100
f 143/234/126 149/242/126 150/243/126
f 143/234/126 150/243/126 144/233/126
f 144/233/127 150/243/127 151/244/127
f 144/233/127 151/244/127 145/237/127
f 145/236/103 151/241/103 152/240/103
f 145/236/103 152/240/103 146/235/103
f 146/237/128 152/245/128 147/238/128
f 146/237/128 147/238/128 141/233/128
f 147/238/129 153/246/129 154/247/129
f 147/238/129 154/247/129 148/239/129
f 148/240/100 154/248/100 155/249/100
f 148/240/100 155/249/100 149/241/100
f 149/242/130 155/250/130 156/251/130
f 149/242/130 156/251/130 150/243/130
f 150/243/131 156/251/131 157/252/131
f 150/243/131 157/252/131 151/244/131
f 151/241/103 157/249/103 158/248/103
f 151/241/103 158/248/103 152/240/103
f 152/245/132 158/253/132 153/246/132
f 152/245/132 153/246/132 147/238/132
f 153/246/133 159/254/133 160/255/133
f 153/246/133 160/255/133 154/247/133
f 154/248/100 160/256/100 161/257/100
f 154/248/100 161/257/100 155/249/100
f 155/250/134 161/258/134 162/259/134
f 155/250/134 162/259/134 156/251/134
f 156/251/135 162/259/135 163/260/135
f 156/251/135 163/260/135 157/252/135
f 157/249/103 163/257/103 164/256/103
f 157/249/103 164/256/103 158/248/103
f 158/253/136 164/261/136 159/254/136
f 158/253/136 159/254/136 153/246/136
f 159/262/137 165/263/137 166/264/137
f 159/262/137 166/264/137 160/265/137
f 160/256/100 166/266/100 167/267/100
f 160/256/100 167/267/100 161/257/100
f 161/268/138 167/269/138 168/270/138
f 161/268/138 168/270/138 162/271/138
f 162/271/139 168/270/139 169/272/139
f 162/271/139 169/272/139 163/273/139
f 163/257/103 169/267/103 170/266/103
f 163/257/103 170/266/103 164/256/103
f 164/274/140 170/275/140 165/263/140
f 164/274/140 165/263/140 159/262/140
f 165/263/141 171/276/141 172/277/141
f 165/263/141 172/277/141 166/264/141
f 166/266/100 172/278/100 173/279/100
f 166/266/100 173/279/100 167/267/100
f 167/269/142 173/280/142 174/281/142
f 167/269/142 174/281/142 168/270/142
f 168/270/143 174/281/143 175/282/143
f 168/270/143 175/282/143 169/272/143
f 169/267/103 175/279/103 176/278/103
f 169/267/103 176/278/103 170/266/103
f 170/275/144 176/283/144 171/276/144
f 170/275/144 171/276/144 165/263/144
f 171/276/145 177/190/145 178/187/145
f 171/276/145 178/187/145 172/277/145
f 172/278/100 178/284/100 179/285/100
f 172/278/100 179/285/100 173/279/100
f 173/280/146 179/182/146 180/179/146
f 173/280/146 180/179/146 174/281/146
f 174/281/147 180/179/147 181/193/147
f 174/281/147 181/193/147 175/282/147
f 175/279/103 181/285/103 182/284/103
f 175/279/103 182/284/103 176/278/103
f 176/283/148 182/192/148 177/190/148
f 176/283/148 177/190/148 171/276/148
f 177/190/101 183/286/101 184/287/101
f 177/190/101 184/287/101 178/187/101
f 178/284/100 184/288/100 185/289/100
f 178/284/100 185/289/100 179/285/100
f 179/182/99 185/290/99 186/291/99
f 179/182/99 186/291/99 180/179/99
f 180/179/104 186/291/104 187/292/104
f 180/179/104 187/292/104 181/193/104
f 181/285/103 187/289/103 188/288/103
f 181/285/103 188/288/103 182/284/103
f 182/192/102 188/293/102 183/286/102
f 182/192/102 183/286/102 177/190/102
f 183/286/106 189/294/106 190/295/106
f 183/286/106 190/295/106 184/287/106
f 184/288/100 190/296/100 191/297/100
f 184/288/100 191/297/100 185/289/100
f 185/290/105 191/298/105 192/299/105
f 185/290/105 192/299/105 186/291/105
f 186/291/108 192/299/108 193/300/108
f 186/291/108 193/300/108 187/292/108
f 187/289/103 193/297/103 194/296/103
f 187/289/103 194/296/103 188/288/103
f 188/293/107 194/301/107 189/294/107
f 188/293/107 189/294/107 183/286/107
f 189/294/110 195/302/110 196/303/110
f 189/294/110 196/303/110 190/295/110
f 190/296/100 196/304/100 197/305/100
f 190/296/100 197/305/100 191/297/100
f 191/298/109 197/306/109 198/307/109
f 191/298/109 198/307/109 192/299/109
f 192/299/112 198/307/112 199/308/112
f 192/299/112 199/308/112 193/300/112
f 193/297/103 199/305/103 200/304/103
f 193/297/103 200/304/103 194/296/103
f 194/301/111 200/309/111 195/302/111
f 194/301/111 195/302/111 189/294/111
f 195/254/114 201/246/114 202/247/114
f 195/254/114 202/247/114 196/255/114
f 196/304/100 202/310/100 203/311/100
f 196/304/100 203/311/100 197/305/100
f 197/258/113 203/250/113 204/251/113
f 197/258/113 204/251/113 198/259/113
f 198/259/116 204/251/116 205/252/116
f 198/259/116 205/252/116 199/260/116
f 199/305/103 205/311/103 206/310/103
f 199/305/103 206/310/103 200/304/103
f 200/261/115 206/253/115 201/246/115
f 200/261/115 201/246/115 195/254/115
f 201/246/118 207/238/118 208/239/118
f 201/246/118 208/239/118 202/247/118
f 202/310/100 208/312/100 209/313/100
f 202/310/100 209/313/100 203/311/100
f 203/250/117 209/242/117 210/243/117
f 203/250/117 210/243/117 204/251/117
f 204/251/120 210/243/120 211/244/120
f 204/251/120 211/244/120 205/252/120
f 205/311/103 211/313/103 212/312/103
f 205/311/103 212/312/103 206/310/103
f 206/253/119 212/245/119 207/238/119
f 206/253/119 207/238/119 201/246/119
f 207/238/122 213/233/122 214/234/122
f 207/238/122 214/234/122 208/239/122
f 208/312/100 214/314/100 215/315/100
f 208/312/100 215/315/100 209/313/100
f 209/242/121 215/234/121 216/233/121
f 209/242/121 216/233/121 210/243/121
f 210/243/124 216/233/124 217/237/124
f 210/243/124 217/237/124 211/244/124
f 211/313/103 217/315/103 218/314/103
f 211/313/103 218/314/103 212/312/103
f 212/245/123 218/237/123 213/233/123
f 212/245/123 213/233/123 207/238/123
f 213/233/126 219/225/126 220/226/126
f 213/233/126 220/226/126 214/234/126
f 214/314/100 220/316/100 221/317/100
f 214/314/100 221/317/100 215/315/100
f 215/234/125 221/229/125 222/230/125
f 215/234/125 222/230/125 216/233/125
f 216/233/128 222/230/128 223/231/128
f 216/233/128 223/231/128 217/237/128
f 217/315/103 223/317/103 224/316/103
f 217/315/103 224/316/103 218/314/103
f 218/237/127 224/232/127 219/225/127
f 218/237/127 219/225/127 213/233/127
f 219/225/130 225/212/130 226/213/130
f 219/225/130 226/213/130 220/226/130
f 220/316/100 226/318/100 227/319/100
f 220/316/100 227/319/100 221/317/100
f 221/229/129 227/218/129 228/219/129
f 221/229/129 228/219/129 222/230/129
f 222/230/132 228/219/132 229/221/132
f 222/230/132 229/221/132 223/231/132
f 223/317/103 229/319/103 230/318/103
f 223/317/103 230/318/103 224/316/103
f 224/232/131 230/224/131 225/212/131
f 224/232/131 225/212/131 219/225/131
f 225/212/134 231/211/134 232/214/134
f 225/212/134 232/214/134 226/213/134
f 226/318/100 232/320/100 233/321/100
f 226/318/100 233/321/100 227/319/100
f 227/218/133 233/217/133 234/220/133
f 227/218/133 234/220/133 228/219/133
f 228/219/136 234/220/136 235/222/136
f 228/219/136 235/222/136 229/221/136
f 229/319/103 235/321/103 236/320/103
f 229/319/103 236/320/103 230/318/103
f 230/224/135 236/223/135 231/211/135
f 230/224/135 231/211/135 225/212/135
f 231/322/138 237/323/138 238/324/138
f 231/322/138 238/324/138 232/325/138
f 232/320/100 238/326/100 239/327/100
f 232/320/100 239/327/100 233/321/100
f 233/328/137 239/329/137 240/330/137
f 233/328/137 240/330/137 234/331/137
f 234/331/140 240/330/140 241/332/140
f 234/331/140 241/332/140 235/333/140
f 235/321/103 241/327/103 242/326/103
f 235/321/103 242/326/103 236/320/103
f 236/334/139 242/335/139 237/323/139
f 236/334/139 237/323/139 231/322/139
f 237/323/142 243/336/142 244/337/142
f 237/323/142 244/337/142 238/324/142
f 238/326/100 244/338/100 245/339/100
f 238/326/100 245/339/100 239/327/100
f 239/329/141 245/340/141 246/341/141
f 239/329/141 246/341/141 240/330/141
f 240/330/144 246/341/144 247/342/144
f 240/330/144 247/342/144 241/332/144
f 241/327/103 247/339/103 248/338/103
f 241/327/103 248/338/103 242/326/103
f 242/335/143 248/343/143 243/336/143
f 242/335/143 243/336/143 237/323/143
f 243/336/146 105/179/146 108/182/146
f 243/336/146 108/182/146 244/337/146
f 244/338/100 108/183/100 110/186/100
f 244/338/100 110/186/100 245/339/100
f 245/340/145 110/187/145 112/190/145
f 245/340/145 112/190/145 246/341/145
f 246/341/148 112/190/148 114/192/148
f 246/341/148 114/192/148 247/342/148
f 247/339/103 114/186/103 116/183/103
f 247/339/103 116/183/103 248/338/103
f 248/343/147 116/193/147 105/179/147
f 248/343/147 105/179/147 243/336/147
f 249/344/149 250/345/149 251/346/149
f 249/344/149 251/346/149 252/347/149
f 253/348/150 254/349/150 255/350/150
f 253/348/150 255/350/150 256/351/150
f 252/352/151 251/353/151 256/354/151
f 252/352/151 256/354/151 255/355/151
f 254/355/152 253/354/152 250/353/152
f 254/355/152 250/353/152 249/352/152
f 254/356/153 249/357/153 252/358/153
f 254/356/153 252/358/153 255/359/153
f 250/357/154 253/356/154 256/359/154
f 250/357/154 256/359/154 251/358/154
f 257/360/155 258/361/155 259/362/155
f 257/360/155 259/362/155 260/363/155
f 261/364/156 262/365/156 263/366/156
f 261/364/156 263/366/156 264/367/156
f 260/368/157 259/369/157 264/370/157
f 260/368/157 264/370/157 263/371/157
f 262/371/158 261/370/158 258/369/158
f 262/371/158 258/369/158 257/368/158
f 262/372/159 257/373/159 260/374/159
f 262/372/159 260/374/159 263/375/159
f 258/373/160 261/372/160 264/375/160
f 258/373/160 264/375/160 259/374/160
f 265/376/161 266/377/161 267/378/161
f 265/376/161 267/378/161 268/379/161
f 269/380/162 270/381/162 271/382/162
f 269/380/162 271/382/162 272/383/162
f 268/384/163 267/385/163 272/386/163
f 268/384/163 272/386/163 271/387/163
f 270/387/164 269/386/164 266/385/164
f 270/387/164 266/385/164 265/384/164
f 270/388/165 265/389/165 268/390/165
f 270/388/165 268/390/165 271/391/165
f 266/389/166 269/388/166 272/391/166
f 266/389/166 272/391/166 267/390/166
f 273/392/167 274/393/167 275/394/167
f 273/392/167 275/394/167 276/395/167
f 277/396/168 278/397/168 279/398/168
f 277/396/168 279/398/168 280/399/168
f 276/400/169 275/401/169 280/402/169
f 276/400/169 280/402/169 279/403/169
f 278/403/170 277/402/170 274/401/170
f 278/403/170 274/401/170 273/400/170
f 278/404/171 273/405/171 276/406/171
f 278/404/171 276/406/171 279/407/171
f 274/405/172 277/404/172 280/407/172
f 274/405/172 280/407/172 275/406/172
f 281/408/173 282/409/173 283/410/173
f 281/408/173 283/410/173 284/411/173
f 285/412/174 286/413/174 287/414/174
f 285/412/174 287/414/174 288/415/174
f 284/416/175 283/417/175 288/418/175
f 284/416/175 288/418/175 287/419/175
f 286/419/176 285/418/176 282/417/176
f 286/419/176 282/417/176 281/416/176
f 286/420/177 281/421/177 284/422/177
f 286/420/177 284/422/177 287/423/177
f 282/421/178 285/420/178 288/423/178
f 282/421/178 288/423/178 283/422/178
f 289/424/179 290/425/179 291/426/179
f 289/424/179 291/426/179 292/427/179
f 293/428/180 294/429/180 295/430/180
f 293/428/180 295/430/180 296/431/180
f 292/432/181 291/433/181 296/434/181
f 292/432/181 296/434/181 295/435/181
f 294/435/182 293/434/182 290/433/182
f 294/435/182 290/433/182 289/432/182
f 294/436/183 289/437/183 292/438/183
f 294/436/183 292/438/183 295/439/183
f 290/437/184 293/436/184 296/439/184
f 290/437/184 296/439/184 291/438/184
f 297/440/185 298/441/185 299/442/185
f 297/440/185 299/442/185 300/443/185
f 300/444/186 299/445/186 301/446/186
f 300/444/186 301/446/186 302/447/186
f 302/448/187 301/449/187 303/450/187
f 302/448/187 303/450/187 304/451/187
f 304/451/188 303/450/188 305/452/188
f 304/451/188 305/452/188 306/453/188
f 306/447/189 305/446/189 307/445/189
f 306/447/189 307/445/189 308/444/189
f 308/454/190 307/455/190 298/441/190
f 308/454/190 298/441/190 297/440/190
f 298/441/191 309/456/191 310/457/191
f 298/441/191 310/457/191 299/442/191
f 299/445/186 310/458/186 311/459/186
f 299/445/186 311/459/186 301/446/186
f 301/449/192 311/460/192 312/461/192
f 301/449/192 312/461/192 303/450/192
f 303/450/193 312/461/193 313/462/193
f 303/450/193 313/462/193 305/452/193
f 305/446/189 313/459/189 314/458/189
f 305/446/189 314/458/189 307/445/189
f 307/455/194 314/463/194 309/456/194
f 307/455/194 309/456/194 298/441/194
f 309/456/195 315/464/195 316/465/195
f 309/456/195 316/465/195 310/457/195
f 310/458/186 316/466/186 317/467/186
f 310/458/186 317/467/186 311/459/186
f 311/460/196 317/468/196 318/469/196
f 311/460/196 318/469/196 312/461/196
f 312/461/197 318/469/197 319/470/197
f 312/461/197 319/470/197 313/462/197
f 313/459/189 319/467/189 320/466/189
f 313/459/189 320/466/189 314/458/189
f 314/463/198 320/471/198 315/464/198
f 314/463/198 315/464/198 309/456/198
f 315/472/199 321/473/199 322/474/199
f 315/472/199 322/474/199 316/475/199
f 316/466/186 322/476/186 323/477/186
f 316/466/186 323/477/186 317/467/186
f 317/478/200 323/479/200 324/480/200
f 317/478/200 324/480/200 318/481/200
f 318/481/201 324/480/201 325/482/201
f 318/481/201 325/482/201 319/483/201
f 319/467/189 325/477/189 326/476/189
f 319/467/189 326/476/189 320/466/189
f 320/484/202 326/485/202 321/473/202
f 320/484/202 321/473/202 315/472/202
f 321/473/203 327/486/203 328/487/203
f 321/473/203 328/487/203 322/474/203
f 322/476/186 328/488/186 329/489/186
f 322/476/186 329/489/186 323/477/186
f 323/479/204 329/490/204 330/491/204
f 323/479/204 330/491/204 324/480/204
f 324/480/205 330/491/205 331/492/205
f 324/480/205 331/492/205 325/482/205
f 325/477/189 331/489/189 332/488/189
f 325/477/189 332/488/189 326/476/189
f 326/485/206 332/493/206 327/486/206
f 326/485/206 327/486/206 321/473/206
f 327/486/207 333/494/207 334/495/207
f 327/486/207 334/495/207 328/487/207
f 328/488/186 334/496/186 335/497/186
f 328/488/186 335/497/186 329/489/186
f 329/490/208 335/495/208 336/494/208
f 329/490/208 336/494/208 330/491/208
f 330/491/209 336/494/209 337/498/209
f 330/491/209 337/498/209 331/492/209
f 331/489/189 337/497/189 338/496/189
f 331/489/189 338/496/189 332/488/189
f 332/493/210 338/498/210 333/494/210
f 332/493/210 333/494/210 327/486/210
f 333/494/211 339/499/211 340/500/211
f 333/494/211 340/500/211 334/495/211
f 334/496/186 340/501/186 341/502/186
f 334/496/186 341/502/186 335/497/186
f 335/495/212 341/503/212 342/504/212
f 335/495/212 342/504/212 336/494/212
f 336/494/213 342/504/213 343/505/213
f 336/494/213 343/505/213 337/498/213
f 337/497/189 343/502/189 344/501/189
f 337/497/189 344/501/189 338/496/189
f 338/498/214 344/506/214 339/499/214
f 338/498/214 339/499/214 333/494/214
f 339/499/215 345/507/215 346/508/215
f 339/499/215 346/508/215 340/500/215
f 340/501/186 346/509/186 347/510/186
f 340/501/186 347/510/186 341/502/186
f 341/503/216 347/511/216 348/512/216
f 341/503/216 348/512/216 342/504/216
f 342/504/217 348/512/217 349/513/217
f 342/504/217 349/513/217 343/505/217
f 343/502/189 349/510/189 350/509/189
f 343/502/189 350/509/189 344/501/189
f 344/506/218 350/514/218 345/507/218
f 344/506/218 345/507/218 339/499/218
f 345/507/219 351/515/219 352/516/219
f 345/507/219 352/516/219 346/508/219
f 346/509/186 352/517/186 353/518/186
f 346/509/186 353/518/186 347/510/186
f 347/511/220 353/519/220 354/520/220
f 347/511/220 354/520/220 348/512/220
f 348/512/221 354/520/221 355/521/221
f 348/512/221 355/521/221 349/513/221
f 349/510/189 355/518/189 356/517/189
f 349/510/189 356/517/189 350/509/189
f 350/514/222 356/522/222 351/515/222
f 350/514/222 351/515/222 345/507/222
f 351/523/223 357/524/223 358/525/223
f 351/523/223 358/525/223 352/526/223
f 352/517/186 358/527/186 359/528/186
f 352/517/186 359/528/186 353/518/186
f 353/529/224 359/530/224 360/531/224
f 353/529/224 360/531/224 354/532/224
f 354/532/225 360/531/225 361/533/225
f 354/532/225 361/533/225 355/534/225
f 355/518/189 361/528/189 362/527/189
f 355/518/189 362/527/189 356/517/189
f 356/535/226 362/536/226 357/524/226
f 356/535/226 357/524/226 351/523/226
f 357/524/227 363/537/227 364/538/227
f 357/524/227 364/538/227 358/525/227
f 358/527/186 364/539/186 365/540/186
f 358/527/186 365/540/186 359/528/186
f 359/530/228 365/541/228 366/542/228
f 359/530/228 366/542/228 360/531/228
f 360/531/229 366/542/229 367/543/229
f 360/531/229 367/543/229 361/533/229
f 361/528/189 367/540/189 368/539/189
f 361/528/189 368/539/189 362/527/189
f 362/536/230 368/544/230 363/537/230
f 362/536/230 363/537/230 357/524/230
f 363/537/231 369/451/231 370/448/231
f 363/537/231 370/448/231 364/538/231
f 364/539/186 370/545/186 371/546/186
f 364/539/186 371/546/186 365/540/186
f 365/541/232 371/443/232 372/440/232
f 365/541/232 372/440/232 366/542/232
f 366/542/233 372/440/233 373/454/233
f 366/542/233 373/454/233 367/543/233
f 367/540/189 373/546/189 374/545/189
f 367/540/189 374/545/189 368/539/189
f 368/544/234 374/453/234 369/451/234
f 368/544/234 369/451/234 363/537/234
f 369/451/187 375/547/187 376/548/187
f 369/451/187 376/548/187 370/448/187
f 370/545/186 376/549/186 377/550/186
f 370/545/186 377/550/186 371/546/186
f 371/443/185 377/551/185 378/552/185
f 371/443/185 378/552/185 372/440/185
f 372/440/190 378/552/190 379/553/190
f 372/440/190 379/553/190 373/454/190
f 373/546/189 379/550/189 380/549/189
f 373/546/189 380/549/189 374/545/189
f 374/453/188 380/554/188 375/547/188
f 374/453/188 375/547/188 369/451/188
f 375/547/192 381/555/192 382/556/192
f 375/547/192 382/556/192 376/548/192
f 376/549/186 382/557/186 383/558/186
f 376/549/186 383/558/186 377/550/186
f 377/551/191 383/559/191 384/560/191
f 377/551/191 384/560/191 378/552/191
f 378/552/194 384/560/194 385/561/194
f 378/552/194 385/561/194 379/553/194
f 379/550/189 385/558/189 386/557/189
f 379/550/189 386/557/189 380/549/189
f 380/554/193 386/562/193 381/555/193
f 380/554/193 381/555/193 375/547/193
f 381/555/196 387/563/196 388/564/196
f 381/555/196 388/564/196 382/556/196
f 382/557/186 388/565/186 389/566/186
f 382/557/186 389/566/186 383/558/186
f 383/559/195 389/567/195 390/568/195
f 383/559/195 390/568/195 384/560/195
f 384/560/198 390/568/198 391/569/198
f 384/560/198 391/569/198 385/561/198
f 385/558/189 391/566/189 392/565/189
f 385/558/189 392/565/189 386/557/189
f 386/562/197 392/570/197 387/563/197
f 386/562/197 387/563/197 381/555/197
f 387/515/200 393/507/200 394/508/200
f 387/515/200 394/508/200 388/516/200
f 388/565/186 394/571/186 395/572/186
f 388/565/186 395/572/186 389/566/186
f 389/519/199 395/511/199 396/512/199
f 389/519/199 396/512/199 390/520/199
f 390/520/202 396/512/202 397/513/202
f 390/520/202 397/513/202 391/521/202
f 391/566/189 397/572/189 398/571/189
f 391/566/189 398/571/189 392/565/189
f 392/522/201 398/514/201 393/507/201
f 392/522/201 393/507/201 387/515/201
f 393/507/204 399/499/204 400/500/204
f 393/507/204 400/500/204 394/508/204
f 394/571/186 400/573/186 401/574/186
f 394/571/186 401/574/186 395/572/186
f 395/511/203 401/503/203 402/504/203
f 395/511/203 402/504/203 396/512/203
f 396/512/206 402/504/206 403/505/206
f 396/512/206 403/505/206 397/513/206
f 397/572/189 403/574/189 404/573/189
f 397/572/189 404/573/189 398/571/189
f 398/514/205 404/506/205 399/499/205
f 398/514/205 399/499/205 393/507/205
f 399/499/208 405/494/208 406/495/208
f 399/499/208 406/495/208 400/500/208
f 400/573/186 406/575/186 407/576/186
f 400/573/186 407/576/186 401/574/186
f 401/503/207 407/495/207 408/494/207
f 401/503/207 408/494/207 402/504/207
f 402/504/210 408/494/210 409/498/210
f 402/504/210 409/498/210 403/505/210
f 403/574/189 409/576/189 410/575/189
f 403/574/189 410/575/189 404/573/189
f 404/506/209 410/498/209 405/494/209
f 404/506/209 405/494/209 399/499/209
f 405/494/212 411/486/212 412/487/212
f 405/494/212 412/487/212 406/495/212
f 406/575/186 412/577/186 413/578/186
f 406/575/186 413/578/186 407/576/186
f 407/495/211 413/490/211 414/491/211
f 407/495/211 414/491/211 408/494/211
f 408/494/214 414/491/214 415/492/214
f 408/494/214 415/492/214 409/498/214
f 409/576/189 415/578/189 416/577/189
f 409/576/189 416/577/189 410/575/189
f 410/498/213 416/493/213 411/486/213
f 410/498/213 411/486/213 405/494/213
f 411/486/216 417/473/216 418/474/216
f 411/486/216 418/474/216 412/487/216
f 412/577/186 418/579/186 419/580/186
f 412/577/186 419/580/186 413/578/186
f 413/490/215 419/479/215 420/480/215
f 413/490/215 420/480/215 414/491/215
f 414/491/218 420/480/218 421/482/218
f 414/491/218 421/482/218 415/492/218
f 415/578/189 421/580/189 422/579/189
f 415/578/189 422/579/189 416/577/189
f 416/493/217 422/485/217 417/473/217
f 416/493/217 417/473/217 411/486/217
f 417/473/220 423/472/220 424/475/220
f 417/473/220 424/475/220 418/474/220
f 418/579/186 424/581/186 425/582/186
f 418/579/186 425/582/186 419/580/186
f 419/479/219 425/478/219 426/481/219
f 419/479/219 426/481/219 420/480/219
f 420/480/222 426/481/222 427/483/222
f 420/480/222 427/483/222 421/482/222
f 421/580/189 427/582/189 428/581/189
f 421/580/189 428/581/189 422/579/189
f 422/485/221 428/484/221 423/472/221
f 422/485/221 423/472/221 417/473/221
f 423/583/224 429/584/224 430/585/224
f 423/583/224 430/585/224 424/586/224
f 424/581/186 430/587/186 431/588/186
f 424/581/186 431/588/186 425/582/186
f 425/589/223 431/590/223 432/591/223
f 425/589/223 432/591/223 426/592/223
f 426/592/226 432/591/226 433/593/226
f 426/592/226 433/593/226 427/594/226
f 427/582/189 433/588/189 434/587/189
f 427/582/189 434/587/189 428/581/189
f 428/595/225 434/596/225 429/584/225
f 428/595/225 429/584/225 423/583/225
f 429/584/228 435/597/228 436/598/228
f 429/584/228 436/598/228 430/585/228
f 430/587/186 436/599/186 437/600/186
f 430/587/186 437/600/186 431/588/186
f 431/590/227 437/601/227 438/602/227
f 431/590/227 438/602/227 432/591/227
f 432/591/230 438/602/230 439/603/230
f 432/591/230 439/603/230 433/593/230
f 433/588/189 439/600/189 440/599/189
f 433/588/189 440/599/189 434/587/189
f 434/596/229 440/604/229 435/597/229
f 434/596/229 435/597/229 429/584/229
f 435/597/232 297/440/232 300/443/232
f 435/597/232 300/443/232 436/598/232
f 436/599/186 300/444/186 302/447/186
f 436/599/186 302/447/186 437/600/186
f 437/601/231 302/448/231 304/451/231
f 437/601/231 304/451/231 438/602/231
f 438/602/234 304/451/234 306/453/234
f 438/602/234 306/453/234 439/603/234
f 439/600/189 306/447/189 308/444/189
f 439/600/189 308/444/189 440/599/189
f 440/604/233 308/454/233 297/440/233
f 440/604/233 297/440/233 435/597/233
f 441/605/235 442/606/235 443/607/235
f 441/605/235 443/607/235 444/608/235
f 445/609/236 446/610/236 447/611/236
f 445/609/236 447/611/236 448/612/236
f 444/613/237 443/614/237 448/615/237
f 444/613/237 448/615/237 447/616/237
f 446/616/238 445/615/238 442/614/238
f 446/616/238 442/614/238 441/613/238
f 446/617/239 441/618/239 444/619/239
f 446/617/239 444/619/239 447/620/239
f 442/618/240 445/617/240 448/620/240
f 442/618/240 448/620/240 443/619/240
f 449/621/241 450/622/241 451/623/241
f 449/621/241 451/623/241 452/624/241
f 453/625/242 454/626/242 455/627/242
f 453/625/242 455/627/242 456/628/242
f 452/629/243 451/630/243 456/631/243
f 452/629/243 456/631/243 455/632/243
f 454/632/244 453/631/244 450/630/244
f 454/632/244 450/630/244 449/629/244
f 454/633/245 449/634/245 452/635/245
f 454/633/245 452/635/245 455/636/245
f 450/634/246 453/633/246 456/636/246
f 450/634/246 456/636/246 451/635/246
f 457/637/247 458/638/247 459/639/247
f 457/637/247 459/639/247 460/640/247
f 461/641/248 462/642/248 463/643/248
f 461/641/248 463/643/248 464/644/248
f 460/645/249 459/646/249 464/647/249
f 460/645/249 464/647/249 463/648/249
f 462/648/250 461/647/250 458/646/250
f 462/648/250 458/646/250 457/645/250
f 462/649/251 457/650/251 460/651/251
f 462/649/251 460/651/251 463/652/251
f 458/650/252 461/649/252 464/652/252
f 458/650/252 464/652/252 459/651/252
f 465/653/253 466/654/253 467/655/253
f 465/653/253 467/655/253 468/656/253
f 469/657/254 470/658/254 471/659/254
f 469/657/254 471/659/254 472/660/254
f 468/661/255 467/662/255 472/663/255
f 468/661/255 472/663/255 471/664/255
f 470/664/256 469/663/256 466/662/256
f 470/664/256 466/662/256 465/661/256
f 470/665/257 465/666/257 468/667/257
f 470/665/257 468/667/257 471/668/257
f 466/666/258 469/665/258 472/668/258
f 466/666/258 472/668/258 467/667/258
f 473/669/259 474/670/259 475/671/259
f 473/669/259 475/671/259 476/672/259
f 477/673/260 478/674/260 479/675/260
f 477/673/260 479/675/260 480/676/260
f 476/677/261 475/678/261 480/679/261
f 476/677/261 480/679/261 479/680/261
f 478/680/262 477/679/262 474/678/262
f 478/680/262 474/678/262 473/677/262
f 478/681/263 473/682/263 476/683/263
f 478/681/263 476/683/263 479/684/263
f 474/682/264 477/681/264 480/684/264
f 474/682/264 480/684/264 475/683/264
f 481/685/265 482/686/265 483/687/265
f 481/685/265 483/687/265 484/688/265
f 485/689/266 486/690/266 487/691/266
f 485/689/266 487/691/266 488/692/266
f 484/693/267 483/694/267 488/695/267
f 484/693/267 488/695/267 487/696/267
f 486/696/268 485/695/268 482/694/268
f 486/696/268 482/694/268 481/693/268
f 486/697/269 481/698/269 484/699/269
f 486/697/269 484/699/269 487/700/269
f 482/698/270 485/697/270 488/700/270
f 482/698/270 488/700/270 483/699/270
f 489/701/271 490/702/271 491/703/271
f 489/701/271 492/704/271 490/702/271
f 489/701/271 493/705/271 492/704/271
f 489/701/271 494/706/271 493/705/271
f 489/701/271 495/707/271 494/706/271
f 489/701/271 496/708/271 495/707/271
f 489/701/271 497/709/271 496/708/271
f 489/701/271 491/703/271 497/709/271
f 491/710/272 490/711/272 498/712/272
f 491/710/272 498/712/272 499/713/272
f 490/714/273 492/715/273 500/716/273
f 490/714/273 500/716/273 498/717/273
f 492/715/274 493/718/274 501/719/274
f 492/715/274 501/719/274 500/716/274
f 493/711/275 494/710/275 502/713/275
f 493/711/275 502/713/275 501/712/275
f 494/710/276 495/720/276 503/721/276
f 494/710/276 503/721/276 502/713/276
f 495/718/277 496/715/277 504/716/277
f 495/718/277 504/716/277 503/719/277
f 496/715/278 497/714/278 505/717/278
f 496/715/278 505/717/278 504/716/278
f 497/720/279 491/710/279 499/713/279
f 497/720/279 499/713/279 505/721/279
f 499/722/280 498/723/280 506/724/280
f 498/723/280 500/725/280 506/724/280
f 500/725/280 501/726/280 506/724/280
f 501/726/280 502/727/280 506/724/280
f 502/727/280 503/728/280 506/724/280
f 503/728/280 504/729/280 506/724/280
f 504/729/280 505/730/280 506/724/280
f 505/730/280 499/722/280 506/724/280
f 507/731/281 508/732/281 509/733/281
f 507/731/281 509/733/281 510/734/281
f 508/732/282 511/735/282 512/736/282
f 508/732/282 512/736/282 509/733/282
f 511/735/283 513/737/283 514/738/283
f 511/735/283 514/738/283 512/736/283
f 513/737/284 515/739/284 516/740/284
f 513/737/284 516/740/284 514/738/284
f 515/739/285 517/741/285 518/742/285
f 515/739/285 518/742/285 516/740/285
f 517/741/286 519/743/286 520/744/286
f 517/741/286 520/744/286 518/742/286
f 519/743/287 521/745/287 522/746/287
f 519/743/287 522/746/287 520/744/287
f 521/745/288 507/731/288 510/734/288
f 521/745/288 510/734/288 522/746/288
f 510/734/289 509/733/289 523/747/289
f 509/733/290 512/736/290 523/747/290
f 512/736/291 514/738/291 523/747/291
f 514/738/292 516/740/292 523/747/292
f 516/740/293 518/742/293 523/747/293
f 518/742/294 520/744/294 523/747/294
f 520/744/295 522/746/295 523/747/295
f 522/746/296 510/734/296 523/747/296
f 524/748/297 525/749/297 526/750/297
f 524/748/297 527/751/297 525/749/297
f 524/748/297 528/752/297 527/751/297
f 524/748/297 529/753/297 528/752/297
f 524/748/297 530/754/297 529/753/297
f 524/748/297 531/755/297 530/754/297
f 524/748/297 532/756/297 531/755/297
f 524/748/297 526/750/297 532/756/297
f 526/757/298 525/758/298 533/759/298
f 526/757/298 533/759/298 534/760/298
f 525/761/299 527/762/299 535/763/299
f 525/761/299 535/763/299 533/764/299
f 527/762/300 528/765/300 536/766/300
f 527/762/300 536/766/300 535/763/300
f 528/758/301 529/757/301 537/760/301
f 528/758/301 537/760/301 536/759/301
f 529/757/302 530/767/302 538/768/302
f 529/757/302 538/768/302 537/760/302
f 530/765/303 531/762/303 539/763/303
f 530/765/303 539/763/303 538/766/303
f 531/762/304 532/761/304 540/764/304
f 531/762/304 540/764/304 539/763/304
f 532/767/305 526/757/305 534/760/305
f 532/767/305 534/760/305 540/768/305
f 534/769/306 533/770/306 541/771/306
f 533/770/306 535/772/306 541/771/306
f 535/772/306 536/773/306 541/771/306
f 536/773/306 537/774/306 541/771/306
f 537/774/306 538/775/306 541/771/306
f 538/775/306 539/776/306 541/771/306
f 539/776/306 540/777/306 541/771/306
f 540/777/306 534/769/306 541/771/306
f 542/778/307 543/779/307 544/780/307
f 542/778/307 544/780/307 545/781/307
f 543/779/308 546/782/308 547/783/308
f 543/779/308 547/783/308 544/780/308
f 546/782/309 548/784/309 549/785/309
f 546/782/309 549/785/309 547/783/309
f 548/784/310 550/786/310 551/787/310
f 548/784/310 551/787/310 549/785/310
f 550/786/311 552/788/311 553/789/311
f 550/786/311 553/789/311 551/787/311
f 552/788/312 554/790/312 555/791/312
f 552/788/312 555/791/312 553/789/312
f 554/790/313 556/792/313 557/793/313
f 554/790/313 557/793/313 555/791/313
f 556/792/314 542/778/314 545/781/314
f 556/792/314 545/781/314 557/793/314
f 545/781/315 544/780/315 558/794/315
f 544/780/316 547/783/316 558/794/316
f 547/783/317 549/785/317 558/794/317
f 549/785/318 551/787/318 558/794/318
f 551/787/319 553/789/319 558/794/319
f 553/789/320 555/791/320 558/794/320
f 555/791/321 557/793/321 558/794/321
f 557/793/322 545/781/322 558/794/322
f 559/795/323 560/796/323 561/797/323
f 559/795/323 562/798/323 560/796/323
f 559/795/323 563/799/323 562/798/323
f 559/795/323 564/800/323 563/799/323
f 559/795/323 565/801/323 564/800/323
f 559/795/323 566/802/323 565/801/323
f 559/795/323 567/803/323 566/802/323
f 559/795/323 561/797/323 567/803/323
f 561/804/324 560/805/324 568/806/324
f 561/804/324 568/806/324 569/807/324
f 560/808/325 562/809/325 570/810/325
f 560/808/325 570/810/325 568/811/325
f 562/809/326 563/812/326 571/813/326
f 562/809/326 571/813/326 570/810/326
f 563/805/327 564/804/327 572/807/327
f 563/805/327 572/807/327 571/806/327
f 564/804/328 565/814/328 573/815/328
f 564/804/328 573/815/328 572/807/328
f 565/812/329 566/809/329 574/810/329
f 565/812/329 574/810/329 573/813/329
f 566/809/330 567/808/330 575/811/330
f 566/809/330 575/811/330 574/810/330
f 567/814/331 561/804/331 569/807/331
f 567/814/331 569/807/331 575/815/331
f 569/816/332 568/817/332 576/818/332
f 568/817/332 570/819/332 576/818/332
f 570/819/332 571/820/332 576/818/332
f 571/820/332 572/821/332 576/818/332
f 572/821/332 573/822/332 576/818/332
f 573/822/332 574/823/332 576/818/332
f 574/823/332 575/824/332 576/818/332
f 575/824/332 569/816/332 576/818/332
f 577/825/333 578/826/333 579/827/333
f 577/825/333 579/827/333 580/828/333
f 578/826/334 581/829/334 582/830/334
f 578/826/334 582/830/334 579/827/334
f 581/829/335 583/831/335 584/832/335
f 581/829/335 584/832/335 582/830/335
f 583/831/336 585/833/336 586/834/336
f 583/831/336 586/834/336 584/832/336
f 585/833/337 587/835/337 588/836/337
f 585/833/337 588/836/337 586/834/337
f 587/835/338 589/837/338 590/838/338
f 587/835/338 590/838/338 588/836/338
f 589/837/339 591/839/339 592/840/339
f 589/837/339 592/840/339 590/838/339
f 591/839/340 577/825/340 580/828/340
f 591/839/340 580/828/340 592/840/340
f 580/828/341 579/827/341 593/841/341
f 579/827/342 582/830/342 593/841/342
f 582/830/343 584/832/343 593/841/343
f 584/832/344 586/834/344 593/841/344
f 586/834/345 588/836/345 593/841/345
f 588/836/346 590/838/346 593/841/346
f 590/838/347 592/840/347 593/841/347
f 592/840/348 580/828/348 593/841/348
f 594/842/349 595/843/349 596/844/349
f 594/842/349 597/845/349 595/843/349
f 594/842/349 598/846/349 597/845/349
f 594/842/349 599/847/349 598/846/349
f 594/842/349 600/848/349 599/847/349
f 594/842/349 601/849/349 600/848/349
f 594/842/349 602/850/349 601/849/349
f 594/842/349 596/844/349 602/850/349
f 596/851/350 595/852/350 603/853/350
f 596/851/350 603/853/350 604/854/350
f 595/855/351 597/856/351 605/857/351
f 595/855/351 605/857/351 603/858/351
f 597/856/352 598/859/352 606/860/352
f 597/856/352 606/860/352 605/857/352
f 598/852/353 599/851/353 607/854/353
f 598/852/353 607/854/353 606/853/353
f 599/851/354 600/861/354 608/862/354
f 599/851/354 608/862/354 607/854/354
f 600/859/355 601/856/355 609/857/355
f 600/859/355 609/857/355 608/860/355
f 601/856/356 602/855/356 610/858/356
f 601/856/356 610/858/356 609/857/356
f 602/861/357 596/851/357 604/854/357
f 602/861/357 604/854/357 610/862/357
f 604/863/358 603/864/358 611/865/358
f 603/864/358 605/866/358 611/865/358
f 605/866/358 606/867/358 611/865/358
f 606/867/358 607/868/358 611/865/358
f 607/868/358 608/869/358 611/865/358
f 608/869/358 609/870/358 611/865/358
f 609/870/358 610/871/358 611/865/358
f 610/871/358 604/863/358 611/865/358
f 612/872/359 613/873/359 614/874/359
f 612/872/359 614/874/359 615/875/359
f 613/873/360 616/876/360 617/877/360
f 613/873/360 617/877/360 614/874/360
f 616/876/361 618/878/361 619/879/361
f 616/876/361 619/879/361 617/877/361
f 618/878/362 620/880/362 621/881/362
f 618/878/362 621/881/362 619/879/362
f 620/880/363 622/882/363 623/883/363
f 620/880/363 623/883/363 621/881/363
f 622/882/364 624/884/364 625/885/364
f 622/882/364 625/885/364 623/883/364
f 624/884/365 626/886/365 627/887/365
f 624/884/365 627/887/365 625/885/365
f 626/886/366 612/872/366 615/875/366
f 626/886/366 615/875/366 627/887/366
f 615/875/367 614/874/367 628/888/367
f 614/874/368 617/877/368 628/888/368
f 617/877/369 619/879/369 628/888/369
f 619/879/370 621/881/370 628/888/370
f 621/881/371 623/883/371 628/888/371
f 623/883/372 625/885/372 628/888/372
f 625/885/373 627/887/373 628/888/373
f 627/887/374 615/875/374 628/888/374
f 629/889/375 630/890/375 631/891/375
f 629/889/375 631/891/375 632/892/375
f 633/893/376 634/894/376 635/895/376
f 633/893/376 635/895/376 636/896/376
f 632/897/377 631/898/377 636/899/377
f 632/897/377 636/899/377 635/900/377
f 634/900/378 633/899/378 630/898/378
f 634/900/378 630/898/378 629/897/378
f 634/901/379 629/902/379 632/903/379
f 634/901/379 632/903/379 635/904/379
f 630/902/380 633/901/380 636/904/380
f 630/902/380 636/904/380 631/903/380
f 637/905/381 638/906/381 639/907/381
f 637/905/381 639/907/381 640/908/381
f 641/909/382 642/910/382 643/911/382
f 641/909/382 643/911/382 644/912/382
f 640/913/383 639/914/383 644/915/383
f 640/913/383 644/915/383 643/916/383
f 642/916/384 641/915/384 638/914/384
f 642/916/384 638/914/384 637/913/384
f 642/917/385 637/918/385 640/919/385
f 642/917/385 640/919/385 643/920/385
f 638/918/386 641/917/386 644/920/386
f 638/918/386 644/920/386 639/919/386
f 645/921/387 646/922/387 647/923/387
f 645/921/387 647/923/387 648/924/387
f 649/925/388 650/926/388 651/927/388
f 649/925/388 651/927/388 652/928/388
f 648/929/389 647/930/389 652/931/389
f 648/929/389 652/931/389 651/932/389
f 650/932/390 649/931/390 646/930/390
f 650/932/390 646/930/390 645/929/390
f 650/933/391 645/934/391 648/935/391
f 650/933/391 648/935/391 651/936/391
f 646/934/392 649/933/392 652/936/392
f 646/934/392 652/936/392 647/935/392
