# Vaelith heavy cruiser, fragment 7 of 8
# Generated by tools. Edit the generator script.
v -0.168751 0.154256 2.147059
v 0.168751 0.154256 2.147059
v 0.168751 0.228135 2.139646
v -0.168751 0.228135 2.139646
v 0.300003 0.058136 1.478308
v -0.300003 0.058136 1.478308
v -0.300003 0.189478 1.465130
v 0.300003 0.189478 1.465130
v -0.000000 0.144922 2.132920
v 0.026451 0.153474 2.132062
v 0.022907 0.160573 2.153963
v -0.000000 0.153167 2.154706
v 0.042798 0.175862 2.129815
v 0.037064 0.179962 2.152017
v 0.042798 0.203534 2.127039
v 0.037064 0.203927 2.149613
v 0.026451 0.225922 2.124793
v 0.022907 0.223315 2.147667
v -0.000000 0.234474 2.123935
v -0.000000 0.230721 2.146924
v -0.026451 0.225922 2.124793
v -0.022907 0.223315 2.147667
v -0.042798 0.203534 2.127039
v -0.037064 0.203927 2.149613
v -0.042798 0.175862 2.129815
v -0.037064 0.179962 2.152017
v -0.026451 0.153474 2.132062
v -0.022907 0.160573 2.153963
v 0.013225 0.175476 2.169021
v -0.000000 0.171201 2.169450
v 0.021399 0.186670 2.167898
v 0.021399 0.200507 2.166510
v 0.013225 0.211701 2.165387
v -0.000000 0.215976 2.164958
v -0.013225 0.211701 2.165387
v -0.021399 0.200507 2.166510
v -0.021399 0.186670 2.167898
v -0.013225 0.175476 2.169021
v -0.000000 0.194190 2.173203
v -0.240002 0.155255 1.785148
v -0.209312 0.137625 1.786917
v -0.240002 0.119994 1.788686
v -0.209312 0.172885 1.783379
v -0.240002 0.190516 1.781610
v -0.270692 0.172885 1.783379
v -0.270692 0.137625 1.786917
v -0.217269 0.180382 2.167050
v -0.240002 0.167323 2.168361
v -0.217269 0.206501 2.164430
v -0.240002 0.219561 2.163119
v -0.262735 0.206501 2.164430
v -0.262735 0.180382 2.167050
v -0.221815 0.189733 2.233952
v -0.240002 0.179285 2.235000
v -0.221815 0.210628 2.231855
v -0.240002 0.221076 2.230807
v -0.258189 0.210628 2.231855
v -0.258189 0.189733 2.233952
v 0.240002 0.155255 1.785148
v 0.270692 0.137625 1.786917
v 0.240002 0.119994 1.788686
v 0.270692 0.172885 1.783379
v 0.240002 0.190516 1.781610
v 0.209312 0.172885 1.783379
v 0.209312 0.137625 1.786917
v 0.262735 0.180382 2.167050
v 0.240002 0.167323 2.168361
v 0.262735 0.206501 2.164430
v 0.240002 0.219561 2.163119
v 0.217269 0.206501 2.164430
v 0.217269 0.180382 2.167050
v 0.258189 0.189733 2.233952
v 0.240002 0.179285 2.235000
v 0.258189 0.210628 2.231855
v 0.240002 0.221076 2.230807
v 0.221815 0.210628 2.231855
v 0.221815 0.189733 2.233952
v -0.232502 0.000000 1.991287
v 0.232502 0.000000 1.991287
v 0.232502 0.255002 1.991287
v -0.232502 0.255002 1.991287
v 0.232502 0.255002 0.633775
v -0.232502 0.000000 0.633775
v 0.240002 0.200181 2.232903
v -0.000000 0.127501 1.312531
v -0.000000 0.189698 2.128427
v -0.240002 0.200181 2.232903
vt 0.489258 0.435820
vt 0.541992 0.435820
vt 0.541992 0.476562
vt 0.489258 0.476562
vt 0.195312 0.382812
vt 0.007812 0.382812
vt 0.007812 0.455244
vt 0.195312 0.455244
vt 0.045410 0.654382
vt 0.142090 0.654382
vt 0.179688 0.484375
vt 0.007812 0.484375
vt 0.007812 0.487696
vt 0.179688 0.487696
vt 0.142090 0.656250
vt 0.045410 0.656250
vt 0.011436 0.382812
vt 0.195312 0.435820
vt 0.193274 0.476562
vt 0.007812 0.455244
vt 0.054688 0.298347
vt 0.083658 0.296715
vt 0.079777 0.338389
vt 0.054688 0.339803
vt 0.023277 0.290202
vt 0.019003 0.313640
vt 0.061250 0.317932
vt 0.064951 0.297635
vt 0.013719 0.342610
vt 0.056674 0.343021
vt 0.009445 0.366048
vt 0.052972 0.363319
vt 0.083658 0.282883
vt 0.054688 0.281250
vt 0.054688 0.324996
vt 0.079777 0.326410
vt 0.025717 0.282883
vt 0.029598 0.326410
vt 0.025717 0.296715
vt 0.029598 0.338389
vt 0.054688 0.289882
vt 0.079777 0.297635
vt 0.069173 0.313237
vt 0.054688 0.308761
vt 0.095282 0.317932
vt 0.078125 0.324955
vt 0.088827 0.339441
vt 0.091469 0.324955
vt 0.095282 0.343021
vt 0.079777 0.363319
vt 0.069173 0.351159
vt 0.078125 0.339441
vt 0.054688 0.359311
vt 0.069173 0.360127
vt 0.040202 0.360127
vt 0.029598 0.363319
vt 0.014093 0.343021
vt 0.031250 0.339441
vt 0.040202 0.351159
vt 0.014093 0.317932
vt 0.029598 0.297635
vt 0.040202 0.313237
vt 0.031250 0.324955
vt 0.054688 0.332828
vt 0.054688 0.355636
vt 0.718750 0.415516
vt 0.765625 0.399164
vt 0.718750 0.382812
vt 0.765625 0.431867
vt 0.718750 0.448219
vt 0.671875 0.431867
vt 0.671875 0.399164
vt 0.617188 0.384276
vt 0.664062 0.383910
vt 0.651910 0.462512
vt 0.617188 0.462783
vt 0.672972 0.399164
vt 0.672241 0.431867
vt 0.751033 0.463045
vt 0.751575 0.438820
vt 0.664062 0.383178
vt 0.617188 0.382812
vt 0.617188 0.461699
vt 0.651910 0.461970
vt 0.570312 0.383178
vt 0.582465 0.461970
vt 0.570312 0.383910
vt 0.582465 0.462512
vt 0.644965 0.476346
vt 0.617188 0.476562
vt 0.764975 0.466873
vt 0.765408 0.447493
vt 0.617188 0.475695
vt 0.644965 0.475912
vt 0.589410 0.475912
vt 0.589410 0.476346
vt 0.718750 0.415516
vt 0.765625 0.399164
vt 0.718750 0.382812
vt 0.765625 0.431867
vt 0.718750 0.448219
vt 0.671875 0.431867
vt 0.671875 0.399164
vt 0.617188 0.384276
vt 0.664062 0.383910
vt 0.651910 0.462512
vt 0.617188 0.462783
vt 0.672972 0.399164
vt 0.672241 0.431867
vt 0.751033 0.463045
vt 0.751575 0.438820
vt 0.664062 0.383178
vt 0.617188 0.382812
vt 0.617188 0.461699
vt 0.651910 0.461970
vt 0.570312 0.383178
vt 0.582465 0.461970
vt 0.570312 0.383910
vt 0.582465 0.462512
vt 0.644965 0.476346
vt 0.617188 0.476562
vt 0.764975 0.466873
vt 0.765408 0.447493
vt 0.617188 0.475695
vt 0.644965 0.475912
vt 0.589410 0.475912
vt 0.589410 0.476346
vt 0.203125 0.382812
vt 0.328125 0.382812
vt 0.328125 0.476562
vt 0.203125 0.476562
vt 0.343750 0.992188
vt 0.546875 0.992188
vt 0.546875 0.664062
vt 0.343750 0.664062
vt 0.109375 0.296875
vt 0.484375 0.296875
vt 0.484375 0.375000
vt 0.109375 0.375000
vt 0.500000 0.500000
vt 0.280000 0.940000
vt 0.060000 0.500000
vt 0.280000 0.060000
vt 0.720000 0.060000
vt 0.940000 0.500000
vt 0.720000 0.940000
vt 0.500000 0.500000
vt 0.940000 0.060000
vt 0.060000 0.940000
vt 0.940000 0.940000
vt 0.060000 0.060000
vt 0.500000 0.500000
vt 0.635967 0.060000
vt 0.364033 0.060000
vt 0.144033 0.228065
vt 0.060000 0.500000
vt 0.144033 0.771935
vt 0.364033 0.940000
vt 0.635967 0.940000
vt 0.855967 0.771935
vt 0.940000 0.500000
vt 0.855967 0.228065
vt 0.500000 0.500000
vt 0.720000 0.940000
vt 0.940000 0.500000
vt 0.720000 0.060000
vt 0.280000 0.060000
vt 0.060000 0.500000
vt 0.280000 0.940000
vn -0.000000 0.099833 0.995004
vn -0.000000 -0.099833 -0.995004
vn 0.000000 0.998362 -0.057217
vn 0.000000 -0.989828 0.142267
vn -0.981615 0.019055 0.189916
vn 0.981615 0.019055 0.189916
vn 0.299447 -0.892345 0.337716
vn 0.783962 -0.542083 0.302572
vn 0.969030 0.024653 0.245709
vn 0.783962 0.591389 0.188846
vn 0.299447 0.941651 0.153702
vn -0.299447 0.941651 0.153702
vn -0.783962 0.591389 0.188846
vn -0.969030 0.024653 0.245709
vn -0.783962 -0.542083 0.302572
vn -0.299447 -0.892345 0.337716
vn 0.223919 -0.616908 0.754509
vn 0.586227 -0.354991 0.728230
vn 0.724617 0.068800 0.685709
vn 0.586227 0.492592 0.643188
vn 0.223919 0.754509 0.616908
vn -0.223919 0.754509 0.616908
vn -0.586227 0.492592 0.643188
vn -0.724617 0.068800 0.685709
vn -0.586227 -0.354991 0.728230
vn -0.223919 -0.616908 0.754509
vn 0.083800 -0.160528 0.983468
vn 0.219390 -0.062508 0.973633
vn 0.271181 0.096092 0.957720
vn 0.219390 0.254693 0.941807
vn 0.083800 0.352713 0.931972
vn -0.083800 0.352713 0.931972
vn -0.219390 0.254693 0.941807
vn -0.271181 0.096092 0.957720
vn -0.219390 -0.062508 0.973633
vn -0.083800 -0.160528 0.983468
vn -0.000000 -0.099833 -0.995004
vn 0.499892 -0.859436 0.107133
vn 0.999784 0.002076 0.020693
vn 0.499892 0.863589 -0.065746
vn -0.499892 0.863589 -0.065746
vn -0.999784 0.002076 0.020693
vn -0.499892 -0.859436 0.107133
vn 0.498870 -0.853041 0.153132
vn 0.997739 0.006709 0.066870
vn 0.498870 0.866460 -0.019393
vn -0.498870 0.866460 -0.019393
vn -0.997739 0.006709 0.066870
vn -0.498870 -0.853041 0.153132
vn -0.000000 -0.099833 -0.995004
vn 0.499892 -0.859436 0.107133
vn 0.999784 0.002076 0.020693
vn 0.499892 0.863589 -0.065746
vn -0.499892 0.863589 -0.065746
vn -0.999784 0.002076 0.020693
vn -0.499892 -0.859436 0.107133
vn 0.498870 -0.853041 0.153132
vn 0.997739 0.006709 0.066870
vn 0.498870 0.866460 -0.019393
vn -0.498870 0.866460 -0.019393
vn -0.997739 0.006709 0.066870
vn -0.498870 -0.853041 0.153132
vn 0.000000 0.000000 1.000000
vn -0.000000 1.000000 0.000000
vn 0.000000 -1.000000 0.000000
vn -1.000000 0.000000 0.000000
vn 1.000000 0.000000 0.000000
vn 0.000000 1.000000 0.000000
vn 0.000000 -1.000000 0.000000
vn 0.000000 1.000000 0.000000
vn 0.000000 -1.000000 0.000000
vn 0.000000 1.000000 0.000000
vn 0.000000 -1.000000 0.000000
vn 0.000000 1.000000 0.000000
vn 0.000000 -1.000000 0.000000
usemtl skin
f 1/1/1 2/2/1 3/3/1
f 1/1/1 3/3/1 4/4/1
f 5/5/2 6/6/2 7/7/2
f 5/5/2 7/7/2 8/8/2
f 4/9/3 3/10/3 8/11/3
f 4/9/3 8/11/3 7/12/3
f 6/13/4 5/14/4 2/15/4
f 6/13/4 2/15/4 1/16/4
f 6/17/5 1/18/5 4/19/5
f 6/17/5 4/19/5 7/20/5
f 2/18/6 5/17/6 8/20/6
f 2/18/6 8/20/6 3/19/6
f 9/21/7 10/22/7 11/23/7
f 9/21/7 11/23/7 12/24/7
f 10/25/8 13/26/8 14/27/8
f 10/25/8 14/27/8 11/28/8
f 13/26/9 15/29/9 16/30/9
f 13/26/9 16/30/9 14/27/9
f 15/29/10 17/31/10 18/32/10
f 15/29/10 18/32/10 16/30/10
f 17/33/11 19/34/11 20/35/11
f 17/33/11 20/35/11 18/36/11
f 19/34/12 21/37/12 22/38/12
f 19/34/12 22/38/12 20/35/12
f 21/31/13 23/29/13 24/30/13
f 21/31/13 24/30/13 22/32/13
f 23/29/14 25/26/14 26/27/14
f 23/29/14 26/27/14 24/30/14
f 25/26/15 27/25/15 28/28/15
f 25/26/15 28/28/15 26/27/15
f 27/39/16 9/21/16 12/24/16
f 27/39/16 12/24/16 28/40/16
f 12/41/17 11/42/17 29/43/17
f 12/41/17 29/43/17 30/44/17
f 11/42/18 14/45/18 31/46/18
f 11/42/18 31/46/18 29/43/18
f 14/27/19 16/30/19 32/47/19
f 14/27/19 32/47/19 31/48/19
f 16/49/20 18/50/20 33/51/20
f 16/49/20 33/51/20 32/52/20
f 18/36/21 20/35/21 34/53/21
f 18/36/21 34/53/21 33/54/21
f 20/35/22 22/38/22 35/55/22
f 20/35/22 35/55/22 34/53/22
f 22/56/23 24/57/23 36/58/23
f 22/56/23 36/58/23 35/59/23
f 24/30/24 26/27/24 37/48/24
f 24/30/24 37/48/24 36/47/24
f 26/60/25 28/61/25 38/62/25
f 26/60/25 38/62/25 37/63/25
f 28/61/26 12/41/26 30/44/26
f 28/61/26 30/44/26 38/62/26
f 30/44/27 29/43/27 39/64/27
f 29/43/28 31/46/28 39/64/28
f 31/46/29 32/52/29 39/64/29
f 32/52/30 33/51/30 39/64/30
f 33/51/31 34/65/31 39/64/31
f 34/65/32 35/59/32 39/64/32
f 35/59/33 36/58/33 39/64/33
f 36/58/34 37/63/34 39/64/34
f 37/63/35 38/62/35 39/64/35
f 38/62/36 30/44/36 39/64/36
f 40/66/37 41/67/37 42/68/37
f 40/66/37 43/69/37 41/67/37
f 40/66/37 44/70/37 43/69/37
f 40/66/37 45/71/37 44/70/37
f 40/66/37 46/72/37 45/71/37
f 40/66/37 42/68/37 46/72/37
f 42/73/38 41/74/38 47/75/38
f 42/73/38 47/75/38 48/76/38
f 41/77/39 43/78/39 49/79/39
f 41/77/39 49/79/39 47/80/39
f 43/81/40 44/82/40 50/83/40
f 43/81/40 50/83/40 49/84/40
f 44/82/41 45/85/41 51/86/41
f 44/82/41 51/86/41 50/83/41
f 45/78/42 46/77/42 52/80/42
f 45/78/42 52/80/42 51/79/42
f 46/87/43 42/73/43 48/76/43
f 46/87/43 48/76/43 52/88/43
f 48/76/44 47/75/44 53/89/44
f 48/76/44 53/89/44 54/90/44
f 47/80/45 49/79/45 55/91/45
f 47/80/45 55/91/45 53/92/45
f 49/84/46 50/83/46 56/93/46
f 49/84/46 56/93/46 55/94/46
f 50/83/47 51/86/47 57/95/47
f 50/83/47 57/95/47 56/93/47
f 51/79/48 52/80/48 58/92/48
f 51/79/48 58/92/48 57/91/48
f 52/88/49 48/76/49 54/90/49
f 52/88/49 54/90/49 58/96/49
f 59/97/50 60/98/50 61/99/50
f 59/97/50 62/100/50 60/98/50
f 59/97/50 63/101/50 62/100/50
f 59/97/50 64/102/50 63/101/50
f 59/97/50 65/103/50 64/102/50
f 59/97/50 61/99/50 65/103/50
f 61/104/51 60/105/51 66/106/51
f 61/104/51 66/106/51 67/107/51
f 60/108/52 62/109/52 68/110/52
f 60/108/52 68/110/52 66/111/52
f 62/112/53 63/113/53 69/114/53
f 62/112/53 69/114/53 68/115/53
f 63/113/54 64/116/54 70/117/54
f 63/113/54 70/117/54 69/114/54
f 64/109/55 65/108/55 71/111/55
f 64/109/55 71/111/55 70/110/55
f 65/118/56 61/104/56 67/107/56
f 65/118/56 67/107/56 71/119/56
f 67/107/57 66/106/57 72/120/57
f 67/107/57 72/120/57 73/121/57
f 66/111/58 68/110/58 74/122/58
f 66/111/58 74/122/58 72/123/58
f 68/115/59 69/114/59 75/124/59
f 68/115/59 75/124/59 74/125/59
f 69/114/60 70/117/60 76/126/60
f 69/114/60 76/126/60 75/124/60
f 70/110/61 71/111/61 77/123/61
f 70/110/61 77/123/61 76/122/61
f 71/119/62 67/107/62 73/121/62
f 71/119/62 73/121/62 77/127/62
f 78/128/63 79/129/63 80/130/63
f 78/128/63 80/130/63 81/131/63
f 81/132/64 80/133/64 82/134/64
f 83/135/65 79/133/65 78/132/65
f 83/136/66 78/137/66 81/138/66
f 79/137/67 82/139/67 80/138/67
usemtl interior
f 84/140/68 72/141/68 73/142/68
f 84/140/69 73/142/69 72/141/69
f 84/140/68 73/142/68 77/143/68
f 84/140/69 77/143/69 73/142/69
f 84/140/68 77/143/68 76/144/68
f 84/140/69 76/144/69 77/143/69
f 84/140/68 76/144/68 75/145/68
f 84/140/69 75/145/69 76/144/69
f 84/140/68 75/145/68 74/146/68
f 84/140/69 74/146/69 75/145/69
f 84/140/68 74/146/68 72/141/68
f 84/140/69 72/141/69 74/146/69
f 85/147/70 81/148/70 82/149/70
f 85/147/71 82/149/71 81/148/71
f 85/147/70 82/149/70 79/150/70
f 85/147/71 79/150/71 82/149/71
f 85/147/70 79/150/70 83/151/70
f 85/147/71 83/151/71 79/150/71
f 85/147/70 83/151/70 81/148/70
f 85/147/71 81/148/71 83/151/71
f 86/152/72 23/153/72 25/154/72
f 86/152/73 25/154/73 23/153/73
f 86/152/72 25/154/72 27/155/72
f 86/152/73 27/155/73 25/154/73
f 86/152/72 27/155/72 9/156/72
f 86/152/73 9/156/73 27/155/73
f 86/152/72 9/156/72 10/157/72
f 86/152/73 10/157/73 9/156/73
f 86/152/72 10/157/72 13/158/72
f 86/152/73 13/158/73 10/157/73
f 86/152/72 13/158/72 15/159/72
f 86/152/73 15/159/73 13/158/73
f 86/152/72 15/159/72 17/160/72
f 86/152/73 17/160/73 15/159/73
f 86/152/72 17/160/72 19/161/72
f 86/152/73 19/161/73 17/160/73
f 86/152/72 19/161/72 21/162/72
f 86/152/73 21/162/73 19/161/73
f 86/152/72 21/162/72 23/153/72
f 86/152/73 23/153/73 21/162/73
f 87/163/74 55/164/74 56/165/74
f 87/163/75 56/165/75 55/164/75
f 87/163/74 56/165/74 57/166/74
f 87/163/75 57/166/75 56/165/75
f 87/163/74 57/166/74 58/167/74
f 87/163/75 58/167/75 57/166/75
f 87/163/74 58/167/74 54/168/74
f 87/163/75 54/168/75 58/167/75
f 87/163/74 54/168/74 53/169/74
f 87/163/75 53/169/75 54/168/75
f 87/163/74 53/169/74 55/164/74
f 87/163/75 55/164/75 53/169/75
