# Okinawa inspired frigate, fragment 6 of 8
# Generated by tools. Edit the generator script.
v 0.000000 0.420000 2.670000
v 0.505142 0.420000 2.584745
v 0.933381 0.420000 2.341960
v 0.000000 0.100000 2.670000
v 0.933381 0.100000 2.341960
v 0.505142 0.100000 2.584745
v 1.219521 0.420000 1.978605
v 1.219521 0.100000 1.978605
v 1.320000 0.420000 1.550000
v 1.320000 0.100000 1.550000
v 1.219521 0.420000 1.121395
v 1.219521 0.100000 1.121395
v 0.933381 0.420000 0.758040
v 0.933381 0.100000 0.758040
vt 0.250000 0.515625
vt 0.339691 0.533466
vt 0.415728 0.584272
vt 0.466534 0.660309
vt 0.484375 0.750000
vt 0.466534 0.839691
vt 0.415728 0.915728
vt 0.015625 0.492188
vt 0.015625 0.421875
vt 0.484375 0.421875
vt 0.484375 0.492188
vt 0.015625 0.492188
vt 0.015625 0.421875
vt 0.484375 0.421875
vt 0.484375 0.492188
vt 0.015625 0.492188
vt 0.015625 0.421875
vt 0.484375 0.421875
vt 0.484375 0.492188
vt 0.015625 0.492188
vt 0.015625 0.421875
vt 0.484375 0.421875
vt 0.484375 0.492188
vn 0.000000 1.000000 0.000000
vn 0.000000 -1.000000 0.000000
vn 0.166421 0.000000 0.986055
vn 0.493192 0.000000 0.869920
vn 0.785638 0.000000 0.618687
vn 0.973604 0.000000 0.228244
f 1/1/1 2/2/1 3/3/1
f 4/1/2 5/3/2 6/2/2
f 1/1/1 3/3/1 7/4/1
f 4/1/2 8/4/2 5/3/2
f 1/1/1 7/4/1 9/5/1
f 4/1/2 10/5/2 8/4/2
f 1/1/1 9/5/1 11/6/1
f 4/1/2 12/6/2 10/5/2
f 1/1/1 11/6/1 13/7/1
f 4/1/2 14/7/2 12/6/2
f 1/8/3 4/9/3 6/10/3
f 1/8/3 6/10/3 2/11/3
f 2/12/4 6/13/4 5/14/4
f 2/12/4 5/14/4 3/15/4
f 3/16/5 5/17/5 8/18/5
f 3/16/5 8/18/5 7/19/5
f 7/20/6 8/21/6 10/22/6
f 7/20/6 10/22/6 9/23/6
