# Kthaari heavy cruiser, from tools/gen_fleet.py
# Generated by tools. Edit the generator script.
v 0.000000 0.483711 1.593718
v 0.058085 0.498154 1.732051
v 0.000000 0.498154 1.753451
v 0.100606 0.498154 1.673585
v 0.116169 0.498154 1.593718
v 0.100606 0.498154 1.513852
v 0.058085 0.498154 1.455385
v 0.000000 0.498154 1.433985
v -0.058085 0.498154 1.455385
v -0.100606 0.498154 1.513852
v -0.116169 0.498154 1.593718
v -0.100606 0.498154 1.673585
v -0.058085 0.498154 1.732051
v 0.107327 0.539282 1.849324
v 0.000000 0.539282 1.888866
v 0.185895 0.539282 1.741292
v 0.214653 0.539282 1.593718
v 0.185895 0.539282 1.446144
v 0.107327 0.539282 1.338112
v 0.000000 0.539282 1.298570
v -0.107327 0.539282 1.338112
v -0.185895 0.539282 1.446144
v -0.214653 0.539282 1.593718
v -0.185895 0.539282 1.741292
v -0.107327 0.539282 1.849324
v 0.140229 0.600834 1.927683
v 0.000000 0.600834 1.979348
v 0.242884 0.600834 1.786533
v 0.280458 0.600834 1.593718
v 0.242884 0.600834 1.400903
v 0.140229 0.600834 1.259753
v 0.000000 0.600834 1.208089
v -0.140229 0.600834 1.259753
v -0.242884 0.600834 1.400903
v -0.280458 0.600834 1.593718
v -0.242884 0.600834 1.786533
v -0.140229 0.600834 1.927683
v 0.151783 0.673440 1.955199
v 0.000000 0.673440 2.011121
v 0.262895 0.673440 1.802419
v 0.303565 0.673440 1.593718
v 0.262895 0.673440 1.385017
v 0.151783 0.673440 1.232237
v 0.000000 0.673440 1.176316
v -0.151783 0.673440 1.232237
v -0.262895 0.673440 1.385017
v -0.303565 0.673440 1.593718
v -0.262895 0.673440 1.802419
v -0.151783 0.673440 1.955199
v 0.140229 0.746046 1.927683
v 0.000000 0.746046 1.979348
v 0.242884 0.746046 1.786533
v 0.280458 0.746046 1.593718
v 0.242884 0.746046 1.400903
v 0.140229 0.746046 1.259753
v 0.000000 0.746046 1.208089
v -0.140229 0.746046 1.259753
v -0.242884 0.746046 1.400903
v -0.280458 0.746046 1.593718
v -0.242884 0.746046 1.786533
v -0.140229 0.746046 1.927683
v 0.107327 0.807598 1.849324
v 0.000000 0.807598 1.888866
v 0.185895 0.807598 1.741292
v 0.214653 0.807598 1.593718
v 0.185895 0.807598 1.446144
v 0.107327 0.807598 1.338112
v 0.000000 0.807598 1.298570
v -0.107327 0.807598 1.338112
v -0.185895 0.807598 1.446144
v -0.214653 0.807598 1.593718
v -0.185895 0.807598 1.741292
v -0.107327 0.807598 1.849324
v 0.058085 0.848726 1.732051
v 0.000000 0.848726 1.753451
v 0.100606 0.848726 1.673585
v 0.116169 0.848726 1.593718
v 0.100606 0.848726 1.513852
v 0.058085 0.848726 1.455385
v 0.000000 0.848726 1.433985
v -0.058085 0.848726 1.455385
v -0.100606 0.848726 1.513852
v -0.116169 0.848726 1.593718
v -0.100606 0.848726 1.673585
v -0.058085 0.848726 1.732051
v 0.000000 0.863168 1.593718
v -0.109284 0.703796 1.969380
v -0.086516 0.703796 1.969380
v -0.109284 0.681029 1.969380
v -0.109284 0.726564 1.969380
v -0.132051 0.703796 1.969380
v -0.109284 0.703796 2.235000
v 0.109284 0.703796 1.969380
v 0.132051 0.703796 1.969380
v 0.109284 0.681029 1.969380
v 0.109284 0.726564 1.969380
v 0.086516 0.703796 1.969380
v 0.109284 0.703796 2.235000
v -0.113837 0.536835 1.237029
v 0.113837 0.536835 1.237029
v 0.113837 0.734153 1.237029
v -0.113837 0.734153 1.237029
v 0.113837 0.536835 -0.159372
v -0.113837 0.536835 -0.159372
v -0.113837 0.734153 -0.159372
v 0.113837 0.734153 -0.159372
v 0.000000 0.331929 -0.743735
v 0.061052 0.344929 -0.546177
v 0.000000 0.344929 -0.524462
v 0.110012 0.344929 -0.607020
v 0.137182 0.344929 -0.694942
v 0.137182 0.344929 -0.792528
v 0.110012 0.344929 -0.880450
v 0.061052 0.344929 -0.941294
v 0.000000 0.344929 -0.963009
v -0.061052 0.344929 -0.941294
v -0.110012 0.344929 -0.880450
v -0.137182 0.344929 -0.792528
v -0.137182 0.344929 -0.694942
v -0.110012 0.344929 -0.607020
v -0.061052 0.344929 -0.546177
v 0.116128 0.382658 -0.367956
v 0.000000 0.382658 -0.326652
v 0.209255 0.382658 -0.483688
v 0.260936 0.382658 -0.650925
v 0.260936 0.382658 -0.836545
v 0.209255 0.382658 -1.003782
v 0.116128 0.382658 -1.119514
v 0.000000 0.382658 -1.160818
v -0.116128 0.382658 -1.119514
v -0.209255 0.382658 -1.003782
v -0.260936 0.382658 -0.836545
v -0.260936 0.382658 -0.650925
v -0.209255 0.382658 -0.483688
v -0.116128 0.382658 -0.367956
v 0.159836 0.441421 -0.226520
v 0.000000 0.441421 -0.169670
v 0.288014 0.441421 -0.385811
v 0.359148 0.441421 -0.615994
v 0.359148 0.441421 -0.871477
v 0.288014 0.441421 -1.101659
v 0.159836 0.441421 -1.260950
v 0.000000 0.441421 -1.317801
v -0.159836 0.441421 -1.260950
v -0.288014 0.441421 -1.101659
v -0.359148 0.441421 -0.871477
v -0.359148 0.441421 -0.615994
v -0.288014 0.441421 -0.385811
v -0.159836 0.441421 -0.226520
v 0.187898 0.515467 -0.135712
v 0.000000 0.515467 -0.068881
v 0.338581 0.515467 -0.322970
v 0.422204 0.515467 -0.593566
v 0.422204 0.515467 -0.893904
v 0.338581 0.515467 -1.164500
v 0.187898 0.515467 -1.351758
v 0.000000 0.515467 -1.418590
v -0.187898 0.515467 -1.351758
v -0.338581 0.515467 -1.164500
v -0.422204 0.515467 -0.893904
v -0.422204 0.515467 -0.593566
v -0.338581 0.515467 -0.322970
v -0.187898 0.515467 -0.135712
v 0.197568 0.597548 -0.104422
v 0.000000 0.597548 -0.034151
v 0.356005 0.597548 -0.301317
v 0.443932 0.597548 -0.585838
v 0.443932 0.597548 -0.901632
v 0.356005 0.597548 -1.186154
v 0.197568 0.597548 -1.383048
v 0.000000 0.597548 -1.453319
v -0.197568 0.597548 -1.383048
v -0.356005 0.597548 -1.186154
v -0.443932 0.597548 -0.901632
v -0.443932 0.597548 -0.585838
v -0.356005 0.597548 -0.301317
v -0.197568 0.597548 -0.104422
v 0.187898 0.679629 -0.135712
v 0.000000 0.679629 -0.068881
v 0.338581 0.679629 -0.322970
v 0.422204 0.679629 -0.593566
v 0.422204 0.679629 -0.893904
v 0.338581 0.679629 -1.164500
v 0.187898 0.679629 -1.351758
v 0.000000 0.679629 -1.418590
v -0.187898 0.679629 -1.351758
v -0.338581 0.679629 -1.164500
v -0.422204 0.679629 -0.893904
v -0.422204 0.679629 -0.593566
v -0.338581 0.679629 -0.322970
v -0.187898 0.679629 -0.135712
v 0.159836 0.753676 -0.226520
v 0.000000 0.753676 -0.169670
v 0.288014 0.753676 -0.385811
v 0.359148 0.753676 -0.615994
v 0.359148 0.753676 -0.871477
v 0.288014 0.753676 -1.101659
v 0.159836 0.753676 -1.260950
v 0.000000 0.753676 -1.317801
v -0.159836 0.753676 -1.260950
v -0.288014 0.753676 -1.101659
v -0.359148 0.753676 -0.871477
v -0.359148 0.753676 -0.615994
v -0.288014 0.753676 -0.385811
v -0.159836 0.753676 -0.226520
v 0.116128 0.812439 -0.367956
v 0.000000 0.812439 -0.326652
v 0.209255 0.812439 -0.483688
v 0.260936 0.812439 -0.650925
v 0.260936 0.812439 -0.836545
v 0.209255 0.812439 -1.003782
v 0.116128 0.812439 -1.119514
v 0.000000 0.812439 -1.160818
v -0.116128 0.812439 -1.119514
v -0.209255 0.812439 -1.003782
v -0.260936 0.812439 -0.836545
v -0.260936 0.812439 -0.650925
v -0.209255 0.812439 -0.483688
v -0.116128 0.812439 -0.367956
v 0.061052 0.850168 -0.546177
v 0.000000 0.850168 -0.524462
v 0.110012 0.850168 -0.607020
v 0.137182 0.850168 -0.694942
v 0.137182 0.850168 -0.792528
v 0.110012 0.850168 -0.880450
v 0.061052 0.850168 -0.941294
v 0.000000 0.850168 -0.963009
v -0.061052 0.850168 -0.941294
v -0.110012 0.850168 -0.880450
v -0.137182 0.850168 -0.792528
v -0.137182 0.850168 -0.694942
v -0.110012 0.850168 -0.607020
v -0.061052 0.850168 -0.546177
v 0.000000 0.863168 -0.743735
v -0.081963 0.597548 -1.356937
v -0.028299 0.543885 -1.356937
v -0.081963 0.521657 -1.356937
v -0.006071 0.597548 -1.356937
v -0.028299 0.651212 -1.356937
v -0.081963 0.673440 -1.356937
v -0.135626 0.651212 -1.356937
v -0.157854 0.597548 -1.356937
v -0.135626 0.543885 -1.356937
v -0.028299 0.543885 -1.265868
v -0.081963 0.521657 -1.265868
v -0.006071 0.597548 -1.265868
v -0.028299 0.651212 -1.265868
v -0.081963 0.673440 -1.265868
v -0.135626 0.651212 -1.265868
v -0.157854 0.597548 -1.265868
v -0.135626 0.543885 -1.265868
v -0.081963 0.597548 -1.265868
v 0.081963 0.597548 -1.356937
v 0.135626 0.543885 -1.356937
v 0.081963 0.521657 -1.356937
v 0.157854 0.597548 -1.356937
v 0.135626 0.651212 -1.356937
v 0.081963 0.673440 -1.356937
v 0.028299 0.651212 -1.356937
v 0.006071 0.597548 -1.356937
v 0.028299 0.543885 -1.356937
v 0.135626 0.543885 -1.265868
v 0.081963 0.521657 -1.265868
v 0.157854 0.597548 -1.265868
v 0.135626 0.651212 -1.265868
v 0.081963 0.673440 -1.265868
v 0.028299 0.651212 -1.265868
v 0.006071 0.597548 -1.265868
v 0.028299 0.543885 -1.265868
v 0.081963 0.597548 -1.265868
v 0.000000 0.841591 -0.497847
v 0.053529 0.841591 -0.515240
v 0.049455 0.876441 -0.520848
v 0.000000 0.876441 -0.504779
v 0.086612 0.841591 -0.560775
v 0.080019 0.876441 -0.562917
v 0.086612 0.841591 -0.617059
v 0.080019 0.876441 -0.614917
v 0.053529 0.841591 -0.662594
v 0.049455 0.876441 -0.656985
v 0.000000 0.841591 -0.679986
v 0.000000 0.876441 -0.673054
v -0.053529 0.841591 -0.662594
v -0.049455 0.876441 -0.656985
v -0.086612 0.841591 -0.617059
v -0.080019 0.876441 -0.614917
v -0.086612 0.841591 -0.560775
v -0.080019 0.876441 -0.562917
v -0.053529 0.841591 -0.515240
v -0.049455 0.876441 -0.520848
v 0.037851 0.905987 -0.536819
v 0.000000 0.905987 -0.524521
v 0.061244 0.905987 -0.569017
v 0.061244 0.905987 -0.608816
v 0.037851 0.905987 -0.641014
v 0.000000 0.905987 -0.653313
v -0.037851 0.905987 -0.641014
v -0.061244 0.905987 -0.608816
v -0.061244 0.905987 -0.569017
v -0.037851 0.905987 -0.536819
v 0.020485 0.925728 -0.560722
v 0.000000 0.925728 -0.554066
v 0.033145 0.925728 -0.578147
v 0.033145 0.925728 -0.599686
v 0.020485 0.925728 -0.617112
v 0.000000 0.925728 -0.623768
v -0.020485 0.925728 -0.617112
v -0.033145 0.925728 -0.599686
v -0.033145 0.925728 -0.578147
v -0.020485 0.925728 -0.560722
v 0.000000 0.932660 -0.588917
v -0.611596 0.461276 -0.728557
v -0.398440 0.527213 -0.349100
v -0.282945 0.562939 -0.918285
v -0.584683 0.374274 -0.728557
v -0.256032 0.475937 -0.918285
v -0.371527 0.440210 -0.349100
v -0.611596 0.461276 -1.183905
v -0.584683 0.374274 -1.183905
v -1.209736 0.276249 -1.434346
v -1.182823 0.189247 -1.434346
v -1.318488 0.242608 -1.168727
v -1.291575 0.155606 -1.168727
v 0.611596 0.461276 -0.728557
v 0.282945 0.562939 -0.918285
v 0.398440 0.527213 -0.349100
v 0.584683 0.374274 -0.728557
v 0.371527 0.440210 -0.349100
v 0.256032 0.475937 -0.918285
v 0.611596 0.461276 -1.183905
v 0.584683 0.374274 -1.183905
v 1.209736 0.276249 -1.434346
v 1.182823 0.189247 -1.434346
v 1.318488 0.242608 -1.168727
v 1.291575 0.155606 -1.168727
v -0.713934 0.425647 -0.873653
v -0.597932 0.461531 -0.873653
v -0.606903 0.490531 -0.873653
v -0.722905 0.454648 -0.873653
v -0.597932 0.461531 -1.086149
v -0.713934 0.425647 -1.086149
v -0.722905 0.454648 -1.086149
v -0.606903 0.490531 -1.086149
v -0.929446 0.358981 -0.985868
v -0.813443 0.394865 -0.985868
v -0.822414 0.423866 -0.985868
v -0.938417 0.387982 -0.985868
v -0.813443 0.394865 -1.198364
v -0.929446 0.358981 -1.198364
v -0.938417 0.387982 -1.198364
v -0.822414 0.423866 -1.198364
v -1.144958 0.292316 -1.098083
v -1.028955 0.328200 -1.098083
v -1.037926 0.357200 -1.098083
v -1.153929 0.321316 -1.098083
v -1.028955 0.328200 -1.310579
v -1.144958 0.292316 -1.310579
v -1.153929 0.321316 -1.310579
v -1.037926 0.357200 -1.310579
v 0.597932 0.461531 -0.873653
v 0.713934 0.425647 -0.873653
v 0.722905 0.454648 -0.873653
v 0.606903 0.490531 -0.873653
v 0.713934 0.425647 -1.086149
v 0.597932 0.461531 -1.086149
v 0.606903 0.490531 -1.086149
v 0.722905 0.454648 -1.086149
v 0.813443 0.394865 -0.985868
v 0.929446 0.358981 -0.985868
v 0.938417 0.387982 -0.985868
v 0.822414 0.423866 -0.985868
v 0.929446 0.358981 -1.198364
v 0.813443 0.394865 -1.198364
v 0.822414 0.423866 -1.198364
v 0.938417 0.387982 -1.198364
v 1.028955 0.328200 -1.098083
v 1.144958 0.292316 -1.098083
v 1.153929 0.321316 -1.098083
v 1.037926 0.357200 -1.098083
v 1.144958 0.292316 -1.310579
v 1.028955 0.328200 -1.310579
v 1.037926 0.357200 -1.310579
v 1.153929 0.321316 -1.310579
v -1.356693 0.015482 -1.013149
v -1.137367 0.015482 -1.013149
v -1.137367 0.190943 -1.013149
v -1.356693 0.190943 -1.013149
v -1.154139 0.028899 -2.235000
v -1.339921 0.028899 -2.235000
v -1.339921 0.177525 -2.235000
v -1.154139 0.177525 -2.235000
v -1.279284 0.188362 -1.245301
v -1.214777 0.188362 -1.245301
v -1.214777 0.219326 -1.245301
v -1.279284 0.219326 -1.245301
v -1.214777 0.188362 -2.002848
v -1.279284 0.188362 -2.002848
v -1.279284 0.219326 -2.002848
v -1.214777 0.219326 -2.002848
v -1.317989 0.045155 -2.061361
v -1.176072 0.045155 -2.061361
v -1.176072 0.161269 -2.061361
v -1.317989 0.161269 -2.061361
v -1.176072 0.045155 -2.092324
v -1.317989 0.045155 -2.092324
v -1.317989 0.161269 -2.092324
v -1.176072 0.161269 -2.092324
v 1.137367 0.015482 -1.013149
v 1.356693 0.015482 -1.013149
v 1.356693 0.190943 -1.013149
v 1.137367 0.190943 -1.013149
v 1.339921 0.028899 -2.235000
v 1.154139 0.028899 -2.235000
v 1.154139 0.177525 -2.235000
v 1.339921 0.177525 -2.235000
v 1.214777 0.188362 -1.245301
v 1.279284 0.188362 -1.245301
v 1.279284 0.219326 -1.245301
v 1.214777 0.219326 -1.245301
v 1.279284 0.188362 -2.002848
v 1.214777 0.188362 -2.002848
v 1.214777 0.219326 -2.002848
v 1.279284 0.219326 -2.002848
v 1.176072 0.045155 -2.061361
v 1.317989 0.045155 -2.061361
v 1.317989 0.161269 -2.061361
v 1.176072 0.161269 -2.061361
v 1.317989 0.045155 -2.092324
v 1.176072 0.045155 -2.092324
v 1.176072 0.161269 -2.092324
v 1.317989 0.161269 -2.092324
v -1.247030 0.000000 -1.020739
v -1.186364 0.019712 -1.020739
v -1.194492 0.030899 -0.969132
v -1.247030 0.013828 -0.969132
v -1.148870 0.071318 -1.020739
v -1.162021 0.075591 -0.969132
v -1.148870 0.135107 -1.020739
v -1.162021 0.130834 -0.969132
v -1.186364 0.186713 -1.020739
v -1.194492 0.175526 -0.969132
v -1.247030 0.206424 -1.020739
v -1.247030 0.192597 -0.969132
v -1.307697 0.186713 -1.020739
v -1.299569 0.175526 -0.969132
v -1.345191 0.135107 -1.020739
v -1.332040 0.130834 -0.969132
v -1.345191 0.071318 -1.020739
v -1.332040 0.075591 -0.969132
v -1.307697 0.019712 -1.020739
v -1.299569 0.030899 -0.969132
v -1.216697 0.061462 -0.931354
v -1.247030 0.051606 -0.931354
v -1.197950 0.087265 -0.931354
v -1.197950 0.119159 -0.931354
v -1.216697 0.144962 -0.931354
v -1.247030 0.154818 -0.931354
v -1.277364 0.144962 -0.931354
v -1.296111 0.119159 -0.931354
v -1.296111 0.087265 -0.931354
v -1.277364 0.061462 -0.931354
v -1.247030 0.103212 -0.917526
v -1.247030 0.065267 -1.130781
v -1.207103 0.042215 -1.130781
v -1.247030 0.019163 -1.130781
v -1.207103 0.088319 -1.130781
v -1.247030 0.111371 -1.130781
v -1.286958 0.088319 -1.130781
v -1.286958 0.042215 -1.130781
v -1.217455 0.048191 -0.485705
v -1.247030 0.031115 -0.485705
v -1.217455 0.082342 -0.485705
v -1.247030 0.099418 -0.485705
v -1.276606 0.082342 -0.485705
v -1.276606 0.048191 -0.485705
v -1.223370 0.051606 -0.371868
v -1.247030 0.037946 -0.371868
v -1.223370 0.078927 -0.371868
v -1.247030 0.092587 -0.371868
v -1.270691 0.078927 -0.371868
v -1.270691 0.051606 -0.371868
v 1.247030 0.000000 -1.020739
v 1.307697 0.019712 -1.020739
v 1.299569 0.030899 -0.969132
v 1.247030 0.013828 -0.969132
v 1.345191 0.071318 -1.020739
v 1.332040 0.075591 -0.969132
v 1.345191 0.135107 -1.020739
v 1.332040 0.130834 -0.969132
v 1.307697 0.186713 -1.020739
v 1.299569 0.175526 -0.969132
v 1.247030 0.206424 -1.020739
v 1.247030 0.192597 -0.969132
v 1.186364 0.186713 -1.020739
v 1.194492 0.175526 -0.969132
v 1.148870 0.135107 -1.020739
v 1.162021 0.130834 -0.969132
v 1.148870 0.071318 -1.020739
v 1.162021 0.075591 -0.969132
v 1.186364 0.019712 -1.020739
v 1.194492 0.030899 -0.969132
v 1.277364 0.061462 -0.931354
v 1.247030 0.051606 -0.931354
v 1.296111 0.087265 -0.931354
v 1.296111 0.119159 -0.931354
v 1.277364 0.144962 -0.931354
v 1.247030 0.154818 -0.931354
v 1.216697 0.144962 -0.931354
v 1.197950 0.119159 -0.931354
v 1.197950 0.087265 -0.931354
v 1.216697 0.061462 -0.931354
v 1.247030 0.103212 -0.917526
v 1.247030 0.065267 -1.130781
v 1.286958 0.042215 -1.130781
v 1.247030 0.019163 -1.130781
v 1.286958 0.088319 -1.130781
v 1.247030 0.111371 -1.130781
v 1.207103 0.088319 -1.130781
v 1.207103 0.042215 -1.130781
v 1.276606 0.048191 -0.485705
v 1.247030 0.031115 -0.485705
v 1.276606 0.082342 -0.485705
v 1.247030 0.099418 -0.485705
v 1.217455 0.082342 -0.485705
v 1.217455 0.048191 -0.485705
v 1.270691 0.051606 -0.371868
v 1.247030 0.037946 -0.371868
v 1.270691 0.078927 -0.371868
v 1.247030 0.092587 -0.371868
v 1.223370 0.078927 -0.371868
v 1.223370 0.051606 -0.371868
vt 0.093750 0.570313
vt 0.110193 0.598793
vt 0.093750 0.603199
vt 0.122231 0.586756
vt 0.126637 0.570313
vt 0.122231 0.553869
vt 0.110193 0.541832
vt 0.093750 0.537426
vt 0.077307 0.541832
vt 0.065269 0.553869
vt 0.060863 0.570313
vt 0.065269 0.586756
vt 0.077307 0.598793
vt 0.124133 0.622938
vt 0.093750 0.631079
vt 0.146376 0.600696
vt 0.154517 0.570313
vt 0.146376 0.539929
vt 0.124133 0.517687
vt 0.093750 0.509546
vt 0.063367 0.517687
vt 0.041124 0.539929
vt 0.032983 0.570313
vt 0.041124 0.600696
vt 0.063367 0.622938
vt 0.133448 0.639071
vt 0.093750 0.649708
vt 0.162509 0.610010
vt 0.173146 0.570313
vt 0.162509 0.530615
vt 0.133448 0.501554
vt 0.093750 0.490917
vt 0.054052 0.501554
vt 0.024991 0.530615
vt 0.014354 0.570313
vt 0.024991 0.610010
vt 0.054052 0.639071
vt 0.515625 0.411749
vt 0.537278 0.411749
vt 0.539062 0.429688
vt 0.515625 0.429688
vt 0.176572 0.411749
vt 0.144869 0.411749
vt 0.148438 0.429688
vt 0.182752 0.429688
vt 0.101563 0.411749
vt 0.101563 0.429688
vt 0.058256 0.411749
vt 0.054688 0.429688
vt 0.026553 0.411749
vt 0.020373 0.429688
vt 0.144869 0.411749
vt 0.101563 0.411749
vt 0.101563 0.429688
vt 0.148438 0.429688
vt 0.058256 0.411749
vt 0.054688 0.429688
vt 0.493972 0.411749
vt 0.492188 0.429688
vt 0.537278 0.447626
vt 0.515625 0.447626
vt 0.144869 0.447626
vt 0.176572 0.447626
vt 0.101563 0.447626
vt 0.058256 0.447626
vt 0.026553 0.447626
vt 0.101563 0.447626
vt 0.144869 0.447626
vt 0.058256 0.447626
vt 0.493972 0.447626
vt 0.718750 0.429688
vt 0.765625 0.429688
vt 0.718750 0.382812
vt 0.718750 0.476562
vt 0.671875 0.429688
vt 0.617188 0.382812
vt 0.664062 0.382812
vt 0.617188 0.476562
vt 0.570312 0.382812
vt 0.718750 0.429688
vt 0.765625 0.429688
vt 0.718750 0.382812
vt 0.718750 0.476562
vt 0.671875 0.429688
vt 0.617188 0.382812
vt 0.664062 0.382812
vt 0.617188 0.476562
vt 0.570312 0.382812
vt 0.187500 0.484375
vt 0.312500 0.484375
vt 0.312500 0.656250
vt 0.187500 0.656250
vt 0.312500 0.484375
vt 0.187500 0.484375
vt 0.187500 0.656250
vt 0.312500 0.656250
vt 0.320312 0.656250
vt 0.382812 0.656250
vt 0.382812 0.484375
vt 0.320312 0.484375
vt 0.187500 0.484375
vt 0.312500 0.484375
vt 0.312500 0.656250
vt 0.187500 0.656250
vt 0.445312 0.828125
vt 0.459280 0.873802
vt 0.445312 0.878823
vt 0.470481 0.859735
vt 0.476697 0.839406
vt 0.476697 0.816844
vt 0.470481 0.796515
vt 0.459280 0.782448
vt 0.445312 0.777427
vt 0.431345 0.782448
vt 0.420144 0.796515
vt 0.413928 0.816844
vt 0.413928 0.839406
vt 0.420144 0.859735
vt 0.431345 0.873802
vt 0.471880 0.915009
vt 0.445312 0.924559
vt 0.493186 0.888250
vt 0.505009 0.849583
vt 0.505009 0.806667
vt 0.493186 0.768000
vt 0.471880 0.741241
vt 0.445312 0.731691
vt 0.418745 0.741241
vt 0.397439 0.768000
vt 0.385616 0.806667
vt 0.385616 0.849583
vt 0.397439 0.888250
vt 0.418745 0.915009
vt 0.481880 0.947710
vt 0.445312 0.960854
vt 0.511204 0.910880
vt 0.527478 0.857660
vt 0.527478 0.798590
vt 0.511204 0.745370
vt 0.481880 0.708540
vt 0.445312 0.695396
vt 0.408745 0.708540
vt 0.379421 0.745370
vt 0.363147 0.798590
vt 0.363147 0.857660
vt 0.379421 0.910880
vt 0.408745 0.947710
vt 0.488300 0.968706
vt 0.445312 0.984158
vt 0.522773 0.925410
vt 0.391453 0.312977
vt 0.330629 0.312977
vt 0.336556 0.323867
vt 0.408058 0.323867
vt 0.263121 0.312977
vt 0.257194 0.323867
vt 0.202297 0.312977
vt 0.185692 0.323867
vt 0.488300 0.687544
vt 0.522773 0.730840
vt 0.445312 0.672092
vt 0.402325 0.687544
vt 0.367852 0.730840
vt 0.402325 0.968706
vt 0.367852 0.925410
vt 0.265625 0.415202
vt 0.292079 0.415202
vt 0.293440 0.429688
vt 0.265625 0.429688
vt 0.457539 0.323867
vt 0.413779 0.335938
vt 0.465807 0.335938
vt 0.338598 0.335938
vt 0.255152 0.335938
vt 0.179971 0.335938
vt 0.136211 0.323867
vt 0.127943 0.335938
vt 0.424891 0.415202
vt 0.398438 0.415202
vt 0.398438 0.429688
vt 0.426253 0.429688
vt 0.371984 0.415202
vt 0.370622 0.429688
vt 0.239171 0.415202
vt 0.237810 0.429688
vt 0.292079 0.444173
vt 0.265625 0.444173
vt 0.408058 0.348008
vt 0.457539 0.348008
vt 0.336556 0.348008
vt 0.257194 0.348008
vt 0.185692 0.348008
vt 0.136211 0.348008
vt 0.398438 0.444173
vt 0.424891 0.444173
vt 0.371984 0.444173
vt 0.239171 0.444173
vt 0.330629 0.358898
vt 0.391453 0.358898
vt 0.263121 0.358898
vt 0.202297 0.358898
vt 0.054688 0.328125
vt 0.087833 0.294979
vt 0.054688 0.281250
vt 0.101562 0.328125
vt 0.087833 0.361271
vt 0.054688 0.375000
vt 0.021542 0.361271
vt 0.007812 0.328125
vt 0.021542 0.294979
vt 0.054688 0.281250
vt 0.087833 0.281250
vt 0.087833 0.375000
vt 0.054688 0.375000
vt 0.007812 0.294979
vt 0.007812 0.328125
vt 0.101562 0.328125
vt 0.101562 0.294979
vt 0.007812 0.361271
vt 0.101562 0.361271
vt 0.021542 0.281250
vt 0.021542 0.375000
vt 0.054688 0.281250
vt 0.087833 0.294979
vt 0.054688 0.328125
vt 0.101562 0.328125
vt 0.087833 0.361271
vt 0.054688 0.375000
vt 0.021542 0.361271
vt 0.007812 0.328125
vt 0.021542 0.294979
vt 0.054688 0.328125
vt 0.087833 0.294979
vt 0.054688 0.281250
vt 0.101562 0.328125
vt 0.087833 0.361271
vt 0.054688 0.375000
vt 0.021542 0.361271
vt 0.007812 0.328125
vt 0.021542 0.294979
vt 0.054688 0.281250
vt 0.087833 0.281250
vt 0.087833 0.375000
vt 0.054688 0.375000
vt 0.007812 0.294979
vt 0.007812 0.328125
vt 0.101562 0.328125
vt 0.101562 0.294979
vt 0.007812 0.361271
vt 0.101562 0.361271
vt 0.021542 0.281250
vt 0.021542 0.375000
vt 0.054688 0.281250
vt 0.087833 0.294979
vt 0.054688 0.328125
vt 0.101562 0.328125
vt 0.087833 0.361271
vt 0.054688 0.375000
vt 0.021542 0.361271
vt 0.007812 0.328125
vt 0.021542 0.294979
vt 0.718750 0.382812
vt 0.747720 0.382812
vt 0.745515 0.418689
vt 0.718750 0.418689
vt 0.756673 0.382812
vt 0.733235 0.382812
vt 0.732133 0.418689
vt 0.753786 0.418689
vt 0.704265 0.382812
vt 0.705367 0.418689
vt 0.680827 0.382812
vt 0.683714 0.418689
vt 0.747720 0.382812
vt 0.718750 0.382812
vt 0.718750 0.418689
vt 0.745515 0.418689
vt 0.689780 0.382812
vt 0.691985 0.418689
vt 0.689780 0.382812
vt 0.691985 0.418689
vt 0.739235 0.449104
vt 0.718750 0.449104
vt 0.728993 0.449104
vt 0.745565 0.449104
vt 0.708507 0.449104
vt 0.691935 0.449104
vt 0.718750 0.449104
vt 0.739235 0.449104
vt 0.698265 0.449104
vt 0.698265 0.449104
vt 0.617188 0.462833
vt 0.637673 0.456503
vt 0.628274 0.444200
vt 0.617188 0.447626
vt 0.650333 0.439930
vt 0.635126 0.435231
vt 0.650333 0.419445
vt 0.635126 0.424144
vt 0.637673 0.402872
vt 0.628274 0.415175
vt 0.617188 0.396542
vt 0.617188 0.411749
vt 0.596702 0.402872
vt 0.606101 0.415175
vt 0.584042 0.419445
vt 0.599249 0.424144
vt 0.584042 0.439930
vt 0.599249 0.435231
vt 0.596702 0.456503
vt 0.606101 0.444200
vt 0.617188 0.429688
vt 0.861522 0.915701
vt 0.930487 0.992188
vt 0.967855 0.877458
vt 0.870230 0.915701
vt 0.976562 0.877458
vt 0.939195 0.992188
vt 0.861522 0.823918
vt 0.870230 0.823918
vt 0.667999 0.773438
vt 0.676706 0.773438
vt 0.632812 0.826978
vt 0.641520 0.826978
vt 0.382812 0.130072
vt 0.186134 0.126138
vt 0.186134 0.132812
vt 0.382812 0.123397
vt 0.373313 0.132812
vt 0.266813 0.118338
vt 0.257314 0.125013
vt 0.382812 0.126138
vt 0.055696 0.104143
vt 0.046197 0.110818
vt 0.007812 0.110818
vt 0.099596 0.101562
vt 0.099596 0.108237
vt 0.007812 0.104143
vt 0.007812 0.108237
vt 0.266813 0.118338
vt 0.257314 0.125013
vt 0.017312 0.101562
vt 0.251694 0.125013
vt 0.251694 0.118338
vt 0.747853 0.915701
vt 0.641520 0.877458
vt 0.678888 0.992188
vt 0.739145 0.915701
vt 0.670180 0.992188
vt 0.632812 0.877458
vt 0.747853 0.823918
vt 0.739145 0.823918
vt 0.941376 0.773438
vt 0.932669 0.773438
vt 0.976562 0.826978
vt 0.967855 0.826978
vt 0.382812 0.130072
vt 0.186134 0.132812
vt 0.186134 0.126138
vt 0.382812 0.123397
vt 0.017312 0.132812
vt 0.133311 0.125013
vt 0.123812 0.118338
vt 0.007812 0.126138
vt 0.344428 0.110818
vt 0.334929 0.104143
vt 0.007812 0.110818
vt 0.099596 0.108237
vt 0.099596 0.101562
vt 0.007812 0.104143
vt 0.382812 0.108237
vt 0.133311 0.125013
vt 0.123812 0.118338
vt 0.373313 0.101562
vt 0.251694 0.125013
vt 0.251694 0.118338
vt 0.746065 0.445874
vt 0.765625 0.462846
vt 0.764112 0.476562
vt 0.744552 0.459591
vt 0.765625 0.462846
vt 0.746065 0.445874
vt 0.744552 0.459591
vt 0.764112 0.476562
vt 0.642990 0.476562
vt 0.662550 0.476562
vt 0.662550 0.430968
vt 0.642990 0.430968
vt 0.644503 0.430968
vt 0.664062 0.430968
vt 0.664062 0.476562
vt 0.644503 0.476562
vt 0.720030 0.445874
vt 0.765625 0.445874
vt 0.765625 0.459591
vt 0.720030 0.459591
vt 0.765625 0.462846
vt 0.720030 0.462846
vt 0.720030 0.476562
vt 0.765625 0.476562
vt 0.709726 0.414343
vt 0.729286 0.431315
vt 0.727774 0.445032
vt 0.708214 0.428060
vt 0.729286 0.431315
vt 0.709726 0.414343
vt 0.708214 0.428060
vt 0.727774 0.445032
vt 0.606651 0.452485
vt 0.626211 0.452485
vt 0.626211 0.406890
vt 0.606651 0.406890
vt 0.608164 0.406890
vt 0.627724 0.406890
vt 0.627724 0.452485
vt 0.608164 0.452485
vt 0.695953 0.414343
vt 0.741547 0.414343
vt 0.741547 0.428060
vt 0.695953 0.428060
vt 0.741547 0.431315
vt 0.695953 0.431315
vt 0.695953 0.445032
vt 0.741547 0.445032
vt 0.673388 0.382812
vt 0.692948 0.399784
vt 0.691435 0.413501
vt 0.671875 0.396529
vt 0.692948 0.399784
vt 0.673388 0.382812
vt 0.671875 0.396529
vt 0.691435 0.413501
vt 0.570312 0.428407
vt 0.589872 0.428407
vt 0.589872 0.382812
vt 0.570312 0.382812
vt 0.571825 0.382812
vt 0.591385 0.382812
vt 0.591385 0.428407
vt 0.571825 0.428407
vt 0.671875 0.382812
vt 0.717470 0.382812
vt 0.717470 0.396529
vt 0.671875 0.396529
vt 0.717470 0.399784
vt 0.671875 0.399784
vt 0.671875 0.413501
vt 0.717470 0.413501
vt 0.671875 0.462846
vt 0.691435 0.445874
vt 0.692948 0.459591
vt 0.673388 0.476562
vt 0.691435 0.445874
vt 0.671875 0.462846
vt 0.673388 0.476562
vt 0.692948 0.459591
vt 0.571825 0.476562
vt 0.591385 0.476562
vt 0.591385 0.430968
vt 0.571825 0.430968
vt 0.570312 0.430968
vt 0.589872 0.430968
vt 0.589872 0.476562
vt 0.570312 0.476562
vt 0.720030 0.462846
vt 0.765625 0.462846
vt 0.765625 0.476562
vt 0.720030 0.476562
vt 0.765625 0.445874
vt 0.720030 0.445874
vt 0.720030 0.459591
vt 0.765625 0.459591
vt 0.708214 0.431315
vt 0.727774 0.414343
vt 0.729286 0.428060
vt 0.709726 0.445032
vt 0.727774 0.414343
vt 0.708214 0.431315
vt 0.709726 0.445032
vt 0.729286 0.428060
vt 0.608164 0.452485
vt 0.627724 0.452485
vt 0.627724 0.406890
vt 0.608164 0.406890
vt 0.606651 0.406890
vt 0.626211 0.406890
vt 0.626211 0.452485
vt 0.606651 0.452485
vt 0.695953 0.431315
vt 0.741547 0.431315
vt 0.741547 0.445032
vt 0.695953 0.445032
vt 0.741547 0.414343
vt 0.695953 0.414343
vt 0.695953 0.428060
vt 0.741547 0.428060
vt 0.744552 0.399784
vt 0.764112 0.382812
vt 0.765625 0.396529
vt 0.746065 0.413501
vt 0.764112 0.382812
vt 0.744552 0.399784
vt 0.746065 0.413501
vt 0.765625 0.396529
vt 0.644503 0.428407
vt 0.664062 0.428407
vt 0.664062 0.382812
vt 0.644503 0.382812
vt 0.642990 0.382812
vt 0.662550 0.382812
vt 0.662550 0.428407
vt 0.642990 0.428407
vt 0.671875 0.399784
vt 0.717470 0.399784
vt 0.717470 0.413501
vt 0.671875 0.413501
vt 0.717470 0.382812
vt 0.671875 0.382812
vt 0.671875 0.396529
vt 0.717470 0.396529
vt 0.390625 0.195312
vt 0.484375 0.195312
vt 0.484375 0.262559
vt 0.390625 0.262559
vt 0.578768 0.200455
vt 0.499357 0.200455
vt 0.499357 0.257417
vt 0.578768 0.257417
vt 0.554688 0.992188
vt 0.625000 0.992188
vt 0.619623 0.664062
vt 0.560064 0.664062
vt 0.492188 0.302017
vt 0.867188 0.296875
vt 0.867188 0.364122
vt 0.492188 0.358979
vt 0.382812 0.195312
vt 0.354136 0.200455
vt 0.354136 0.257417
vt 0.382812 0.262559
vt 0.423713 0.261570
vt 0.451287 0.261570
vt 0.451287 0.273438
vt 0.423713 0.273438
vt 0.552849 0.261570
vt 0.525276 0.261570
vt 0.525276 0.273438
vt 0.552849 0.273438
vt 0.579504 0.929844
vt 0.600184 0.929844
vt 0.600184 0.726406
vt 0.579504 0.726406
vt 0.563437 0.363133
vt 0.795937 0.363133
vt 0.795937 0.375000
vt 0.563437 0.375000
vt 0.250460 0.261570
vt 0.250460 0.273438
vt 0.407169 0.206685
vt 0.467831 0.206685
vt 0.467831 0.251187
vt 0.407169 0.251187
vt 0.569393 0.206685
vt 0.508732 0.206685
vt 0.508732 0.251187
vt 0.569393 0.251187
vt 0.567096 0.710693
vt 0.612592 0.710693
vt 0.612592 0.702378
vt 0.567096 0.702378
vt 0.535976 0.308248
vt 0.545479 0.308248
vt 0.545479 0.352749
vt 0.535976 0.352749
vt 0.316636 0.206685
vt 0.316636 0.251187
vt 0.390625 0.195312
vt 0.484375 0.195312
vt 0.484375 0.262559
vt 0.390625 0.262559
vt 0.578768 0.200455
vt 0.499357 0.200455
vt 0.499357 0.257417
vt 0.578768 0.257417
vt 0.554688 0.992188
vt 0.625000 0.992188
vt 0.619623 0.664062
vt 0.560064 0.664062
vt 0.036489 0.200455
vt 0.007812 0.195312
vt 0.007812 0.262559
vt 0.036489 0.257417
vt 0.867188 0.296875
vt 0.492188 0.302017
vt 0.492188 0.358979
vt 0.867188 0.364122
vt 0.423713 0.261570
vt 0.451287 0.261570
vt 0.451287 0.273438
vt 0.423713 0.273438
vt 0.552849 0.261570
vt 0.525276 0.261570
vt 0.525276 0.273438
vt 0.552849 0.273438
vt 0.579504 0.929844
vt 0.600184 0.929844
vt 0.600184 0.726406
vt 0.579504 0.726406
vt 0.140165 0.261570
vt 0.140165 0.273438
vt 0.795937 0.363133
vt 0.563437 0.363133
vt 0.563437 0.375000
vt 0.795937 0.375000
vt 0.407169 0.206685
vt 0.467831 0.206685
vt 0.467831 0.251187
vt 0.407169 0.251187
vt 0.569393 0.206685
vt 0.508732 0.206685
vt 0.508732 0.251187
vt 0.569393 0.251187
vt 0.567096 0.710693
vt 0.612592 0.710693
vt 0.612592 0.702378
vt 0.567096 0.702378
vt 0.073989 0.206685
vt 0.073989 0.251187
vt 0.545479 0.308248
vt 0.535976 0.308248
vt 0.535976 0.352749
vt 0.545479 0.352749
vt 0.054688 0.281250
vt 0.083658 0.281250
vt 0.079777 0.328125
vt 0.054688 0.328125
vt 0.007812 0.290202
vt 0.007812 0.313640
vt 0.054688 0.315580
vt 0.054688 0.295283
vt 0.007812 0.342610
vt 0.054688 0.340670
vt 0.007812 0.366048
vt 0.054688 0.360967
vt 0.025717 0.281250
vt 0.029598 0.328125
vt 0.054688 0.287530
vt 0.079777 0.295283
vt 0.069173 0.309164
vt 0.069173 0.362440
vt 0.054688 0.362440
vt 0.095282 0.315580
vt 0.078125 0.320882
vt 0.089002 0.335368
vt 0.089002 0.320882
vt 0.095282 0.340670
vt 0.079777 0.360967
vt 0.069173 0.347086
vt 0.078125 0.335368
vt 0.054688 0.351562
vt 0.054688 0.368720
vt 0.029598 0.360967
vt 0.040202 0.347086
vt 0.040202 0.362440
vt 0.014093 0.340670
vt 0.031250 0.335368
vt 0.014093 0.315580
vt 0.029598 0.295283
vt 0.040202 0.309164
vt 0.031250 0.320882
vt 0.054688 0.304688
vt 0.054688 0.328125
vt 0.718750 0.429688
vt 0.765625 0.406250
vt 0.718750 0.382812
vt 0.765625 0.453125
vt 0.718750 0.476562
vt 0.671875 0.453125
vt 0.671875 0.406250
vt 0.617188 0.382812
vt 0.664062 0.382812
vt 0.651910 0.462500
vt 0.617188 0.462500
vt 0.671875 0.406250
vt 0.671875 0.453125
vt 0.751563 0.447049
vt 0.751563 0.412326
vt 0.570312 0.382812
vt 0.582465 0.462500
vt 0.644965 0.476562
vt 0.617188 0.476562
vt 0.765625 0.443576
vt 0.765625 0.415799
vt 0.589410 0.476562
vt 0.054688 0.281250
vt 0.083658 0.281250
vt 0.079777 0.328125
vt 0.054688 0.328125
vt 0.007812 0.290202
vt 0.007812 0.313640
vt 0.054688 0.315580
vt 0.054688 0.295283
vt 0.007812 0.342610
vt 0.054688 0.340670
vt 0.007812 0.366048
vt 0.054688 0.360967
vt 0.025717 0.281250
vt 0.029598 0.328125
vt 0.054688 0.287530
vt 0.079777 0.295283
vt 0.069173 0.309164
vt 0.069173 0.362440
vt 0.054688 0.362440
vt 0.095282 0.315580
vt 0.078125 0.320882
vt 0.089002 0.335368
vt 0.089002 0.320882
vt 0.095282 0.340670
vt 0.079777 0.360967
vt 0.069173 0.347086
vt 0.078125 0.335368
vt 0.054688 0.351562
vt 0.054688 0.368720
vt 0.029598 0.360967
vt 0.040202 0.347086
vt 0.040202 0.362440
vt 0.014093 0.340670
vt 0.031250 0.335368
vt 0.014093 0.315580
vt 0.029598 0.295283
vt 0.040202 0.309164
vt 0.031250 0.320882
vt 0.054688 0.304688
vt 0.054688 0.328125
vt 0.718750 0.429688
vt 0.765625 0.406250
vt 0.718750 0.382812
vt 0.765625 0.453125
vt 0.718750 0.476562
vt 0.671875 0.453125
vt 0.671875 0.406250
vt 0.617188 0.382812
vt 0.664062 0.382812
vt 0.651910 0.462500
vt 0.617188 0.462500
vt 0.671875 0.406250
vt 0.671875 0.453125
vt 0.751563 0.447049
vt 0.751563 0.412326
vt 0.570312 0.382812
vt 0.582465 0.462500
vt 0.644965 0.476562
vt 0.617188 0.476562
vt 0.765625 0.443576
vt 0.765625 0.415799
vt 0.589410 0.476562
vn 0.033158 -0.995390 0.089998
vn 0.090438 -0.993728 0.065773
vn 0.123335 -0.992074 0.024035
vn 0.123335 -0.992074 -0.024035
vn 0.090438 -0.993728 -0.065773
vn 0.033158 -0.995390 -0.089998
vn -0.033158 -0.995390 -0.089998
vn -0.090438 -0.993728 -0.065773
vn -0.123335 -0.992074 -0.024035
vn -0.123335 -0.992074 0.024035
vn -0.090438 -0.993728 0.065773
vn -0.033158 -0.995390 0.089998
vn 0.106461 -0.951404 0.288958
vn 0.285964 -0.935399 0.207974
vn 0.384276 -0.920176 0.074885
vn 0.384276 -0.920176 -0.074885
vn 0.285964 -0.935399 -0.207974
vn 0.106461 -0.951404 -0.288958
vn -0.106461 -0.951404 -0.288958
vn -0.285964 -0.935399 -0.207974
vn -0.384276 -0.920176 -0.074885
vn -0.384276 -0.920176 0.074885
vn -0.285964 -0.935399 0.207974
vn -0.106461 -0.951404 0.288958
vn 0.202918 -0.809619 0.550764
vn 0.522588 -0.763186 0.380064
vn 0.677143 -0.723924 0.131956
vn 0.677143 -0.723924 -0.131956
vn 0.522588 -0.763186 -0.380064
vn 0.202918 -0.809619 -0.550764
vn -0.202918 -0.809619 -0.550764
vn -0.522588 -0.763186 -0.380064
vn -0.677143 -0.723924 -0.131956
vn -0.677143 -0.723924 0.131956
vn -0.522588 -0.763186 0.380064
vn -0.202918 -0.809619 0.550764
vn 0.319801 -0.379848 0.868011
vn 0.762951 -0.331694 0.554874
vn 0.936888 -0.298174 0.182573
vn 0.936888 -0.298174 -0.182573
vn 0.762951 -0.331694 -0.554874
vn 0.319801 -0.379848 -0.868011
vn -0.319801 -0.379848 -0.868011
vn -0.762951 -0.331694 -0.554874
vn -0.936888 -0.298174 -0.182573
vn -0.936888 -0.298174 0.182573
vn -0.762951 -0.331694 0.554874
vn -0.319801 -0.379848 0.868011
vn 0.319801 0.379848 0.868011
vn 0.762951 0.331694 0.554874
vn 0.936888 0.298174 0.182573
vn 0.936888 0.298174 -0.182573
vn 0.762951 0.331694 -0.554874
vn 0.319801 0.379848 -0.868011
vn -0.319801 0.379848 -0.868011
vn -0.762951 0.331694 -0.554874
vn -0.936888 0.298174 -0.182573
vn -0.936888 0.298174 0.182573
vn -0.762951 0.331694 0.554874
vn -0.319801 0.379848 0.868011
vn 0.202918 0.809619 0.550764
vn 0.522588 0.763186 0.380064
vn 0.677143 0.723924 0.131956
vn 0.677143 0.723924 -0.131956
vn 0.522588 0.763186 -0.380064
vn 0.202918 0.809619 -0.550764
vn -0.202918 0.809619 -0.550764
vn -0.522588 0.763186 -0.380064
vn -0.677143 0.723924 -0.131956
vn -0.677143 0.723924 0.131956
vn -0.522588 0.763186 0.380064
vn -0.202918 0.809619 0.550764
vn 0.106461 0.951404 0.288958
vn 0.285964 0.935399 0.207974
vn 0.384276 0.920176 0.074885
vn 0.384276 0.920176 -0.074885
vn 0.285964 0.935399 -0.207974
vn 0.106461 0.951404 -0.288958
vn -0.106461 0.951404 -0.288958
vn -0.285964 0.935399 -0.207974
vn -0.384276 0.920176 -0.074885
vn -0.384276 0.920176 0.074885
vn -0.285964 0.935399 0.207974
vn -0.106461 0.951404 0.288958
vn 0.033158 0.995390 0.089998
vn 0.090438 0.993728 0.065773
vn 0.123335 0.992074 0.024035
vn 0.123335 0.992074 -0.024035
vn 0.090438 0.993728 -0.065773
vn 0.033158 0.995390 -0.089998
vn -0.033158 0.995390 -0.089998
vn -0.090438 0.993728 -0.065773
vn -0.123335 0.992074 -0.024035
vn -0.123335 0.992074 0.024035
vn -0.090438 0.993728 0.065773
vn -0.033158 0.995390 0.089998
vn 0.000000 0.000000 -1.000000
vn 0.705812 -0.705812 0.060498
vn 0.705812 0.705812 0.060498
vn -0.705812 0.705812 0.060498
vn -0.705812 -0.705812 0.060498
vn 0.000000 0.000000 -1.000000
vn 0.705812 -0.705812 0.060498
vn 0.705812 0.705812 0.060498
vn -0.705812 0.705812 0.060498
vn -0.705812 -0.705812 0.060498
vn 0.000000 0.000000 1.000000
vn 0.000000 0.000000 -1.000000
vn -0.000000 1.000000 0.000000
vn 0.000000 -1.000000 0.000000
vn -1.000000 0.000000 0.000000
vn 1.000000 0.000000 0.000000
vn 0.021046 -0.998026 0.059171
vn 0.058917 -0.997136 0.047409
vn 0.085043 -0.996031 0.026281
vn 0.094344 -0.995540 0.000000
vn 0.085043 -0.996031 -0.026281
vn 0.058917 -0.997136 -0.047409
vn 0.021046 -0.998026 -0.059171
vn -0.021046 -0.998026 -0.059171
vn -0.058917 -0.997136 -0.047409
vn -0.085043 -0.996031 -0.026281
vn -0.094344 -0.995540 -0.000000
vn -0.085043 -0.996031 0.026281
vn -0.058917 -0.997136 0.047409
vn -0.021046 -0.998026 0.059171
vn 0.066491 -0.980119 0.186939
vn 0.184665 -0.971503 0.148596
vn 0.263983 -0.961071 0.081579
vn 0.291616 -0.956535 0.000000
vn 0.263983 -0.961071 -0.081579
vn 0.184665 -0.971503 -0.148596
vn 0.066491 -0.980119 -0.186939
vn -0.066491 -0.980119 -0.186939
vn -0.184665 -0.971503 -0.148596
vn -0.263983 -0.961071 -0.081579
vn -0.291616 -0.956535 -0.000000
vn -0.263983 -0.961071 0.081579
vn -0.184665 -0.971503 0.148596
vn -0.066491 -0.980119 0.186939
vn 0.123734 -0.929338 0.347881
vn 0.336471 -0.901932 0.270751
vn 0.469501 -0.870929 0.145091
vn 0.513445 -0.858123 0.000000
vn 0.469501 -0.870929 -0.145091
vn 0.336471 -0.901932 -0.270751
vn 0.123734 -0.929338 -0.347881
vn -0.123734 -0.929338 -0.347881
vn -0.336471 -0.901932 -0.270751
vn -0.469501 -0.870929 -0.145091
vn -0.513445 -0.858123 -0.000000
vn -0.469501 -0.870929 0.145091
vn -0.336471 -0.901932 0.270751
vn -0.123734 -0.929338 0.347881
vn 0.206065 -0.788596 0.579356
vn 0.533535 -0.728711 0.429325
vn 0.709085 -0.670209 0.219130
vn 0.761348 -0.648343 0.000000
vn 0.709085 -0.670209 -0.219130
vn 0.533535 -0.728711 -0.429325
vn 0.206065 -0.788596 -0.579356
vn -0.206065 -0.788596 -0.579356
vn -0.533535 -0.728711 -0.429325
vn -0.709085 -0.670209 -0.219130
vn -0.761348 -0.648343 -0.000000
vn -0.709085 -0.670209 0.219130
vn -0.533535 -0.728711 0.429325
vn -0.206065 -0.788596 0.579356
vn 0.311290 -0.370307 0.875198
vn 0.739674 -0.314036 0.595201
vn 0.919865 -0.270260 0.284268
vn 0.966705 -0.255895 0.000000
vn 0.919865 -0.270260 -0.284268
vn 0.739674 -0.314036 -0.595201
vn 0.311290 -0.370307 -0.875198
vn -0.311290 -0.370307 -0.875198
vn -0.739674 -0.314036 -0.595201
vn -0.919865 -0.270260 -0.284268
vn -0.966705 -0.255895 -0.000000
vn -0.919865 -0.270260 0.284268
vn -0.739674 -0.314036 0.595201
vn -0.311290 -0.370307 0.875198
vn 0.311290 0.370307 0.875198
vn 0.739674 0.314036 0.595201
vn 0.919865 0.270260 0.284268
vn 0.966705 0.255895 0.000000
vn 0.919865 0.270260 -0.284268
vn 0.739674 0.314036 -0.595201
vn 0.311290 0.370307 -0.875198
vn -0.311290 0.370307 -0.875198
vn -0.739674 0.314036 -0.595201
vn -0.919865 0.270260 -0.284268
vn -0.966705 0.255895 -0.000000
vn -0.919865 0.270260 0.284268
vn -0.739674 0.314036 0.595201
vn -0.311290 0.370307 0.875198
vn 0.206065 0.788596 0.579356
vn 0.533535 0.728711 0.429325
vn 0.709085 0.670209 0.219130
vn 0.761348 0.648343 0.000000
vn 0.709085 0.670209 -0.219130
vn 0.533535 0.728711 -0.429325
vn 0.206065 0.788596 -0.579356
vn -0.206065 0.788596 -0.579356
vn -0.533535 0.728711 -0.429325
vn -0.709085 0.670209 -0.219130
vn -0.761348 0.648343 -0.000000
vn -0.709085 0.670209 0.219130
vn -0.533535 0.728711 0.429325
vn -0.206065 0.788596 0.579356
vn 0.123734 0.929338 0.347881
vn 0.336471 0.901932 0.270751
vn 0.469501 0.870929 0.145091
vn 0.513445 0.858123 0.000000
vn 0.469501 0.870929 -0.145091
vn 0.336471 0.901932 -0.270751
vn 0.123734 0.929338 -0.347881
vn -0.123734 0.929338 -0.347881
vn -0.336471 0.901932 -0.270751
vn -0.469501 0.870929 -0.145091
vn -0.513445 0.858123 -0.000000
vn -0.469501 0.870929 0.145091
vn -0.336471 0.901932 0.270751
vn -0.123734 0.929338 0.347881
vn 0.066491 0.980119 0.186939
vn 0.184665 0.971503 0.148596
vn 0.263983 0.961071 0.081579
vn 0.291616 0.956535 0.000000
vn 0.263983 0.961071 -0.081579
vn 0.184665 0.971503 -0.148596
vn 0.066491 0.980119 -0.186939
vn -0.066491 0.980119 -0.186939
vn -0.184665 0.971503 -0.148596
vn -0.263983 0.961071 -0.081579
vn -0.291616 0.956535 -0.000000
vn -0.263983 0.961071 0.081579
vn -0.184665 0.971503 0.148596
vn -0.066491 0.980119 0.186939
vn 0.021046 0.998026 0.059171
vn 0.058917 0.997136 0.047409
vn 0.085043 0.996031 0.026281
vn 0.094344 0.995540 0.000000
vn 0.085043 0.996031 -0.026281
vn 0.058917 0.997136 -0.047409
vn 0.021046 0.998026 -0.059171
vn -0.021046 0.998026 -0.059171
vn -0.058917 0.997136 -0.047409
vn -0.085043 0.996031 -0.026281
vn -0.094344 0.995540 -0.000000
vn -0.085043 0.996031 0.026281
vn -0.058917 0.997136 0.047409
vn -0.021046 0.998026 0.059171
vn 0.000000 0.000000 -1.000000
vn 0.382683 -0.923880 0.000000
vn 0.923880 -0.382683 0.000000
vn 0.923880 0.382683 0.000000
vn 0.382683 0.923880 0.000000
vn -0.382683 0.923880 0.000000
vn -0.923880 0.382683 0.000000
vn -0.923880 -0.382683 0.000000
vn -0.382683 -0.923880 0.000000
vn 0.000000 0.000000 1.000000
vn 0.000000 0.000000 -1.000000
vn 0.382683 -0.923880 0.000000
vn 0.923880 -0.382683 0.000000
vn 0.923880 0.382683 0.000000
vn 0.382683 0.923880 0.000000
vn -0.382683 0.923880 0.000000
vn -0.923880 0.382683 0.000000
vn -0.923880 -0.382683 0.000000
vn -0.382683 -0.923880 0.000000
vn 0.000000 0.000000 1.000000
vn 0.303632 0.185880 0.934482
vn 0.794918 0.185880 0.577542
vn 0.982572 0.185880 0.000000
vn 0.794918 0.185880 -0.577542
vn 0.303632 0.185880 -0.934482
vn -0.303632 0.185880 -0.934482
vn -0.794918 0.185880 -0.577542
vn -0.982572 0.185880 0.000000
vn -0.794918 0.185880 0.577542
vn -0.303632 0.185880 0.934482
vn 0.260811 0.536342 0.802692
vn 0.682811 0.536342 0.496091
vn 0.844001 0.536342 0.000000
vn 0.682811 0.536342 -0.496091
vn 0.260811 0.536342 -0.802692
vn -0.260811 0.536342 -0.802692
vn -0.682811 0.536342 -0.496091
vn -0.844001 0.536342 -0.000000
vn -0.682811 0.536342 0.496091
vn -0.260811 0.536342 0.802692
vn 0.177645 0.818245 0.546734
vn 0.465079 0.818245 0.337900
vn 0.574870 0.818245 0.000000
vn 0.465079 0.818245 -0.337900
vn 0.177645 0.818245 -0.546734
vn -0.177645 0.818245 -0.546734
vn -0.465079 0.818245 -0.337900
vn -0.574870 0.818245 -0.000000
vn -0.465079 0.818245 0.337900
vn -0.177645 0.818245 0.546734
vn 0.063262 0.978821 0.194700
vn 0.165621 0.978821 0.120331
vn 0.204719 0.978821 0.000000
vn 0.165621 0.978821 -0.120331
vn 0.063262 0.978821 -0.194700
vn -0.063262 0.978821 -0.194700
vn -0.165621 0.978821 -0.120331
vn -0.204719 0.978821 -0.000000
vn -0.165621 0.978821 0.120331
vn -0.063262 0.978821 0.194700
vn -0.295520 0.955336 0.000000
vn 0.295520 -0.955336 0.000000
vn 0.934490 0.289072 0.207765
vn 0.583848 0.180605 -0.791519
vn 0.354803 0.109753 -0.928477
vn -0.878093 -0.271626 -0.393919
vn -0.488417 -0.151085 0.859431
vn -0.823521 -0.254745 0.506870
vn 0.295520 0.955336 0.000000
vn -0.295520 -0.955336 0.000000
vn -0.934490 0.289072 0.207765
vn -0.583848 0.180605 -0.791519
vn -0.354803 0.109753 -0.928477
vn 0.878093 -0.271626 -0.393919
vn 0.488417 -0.151085 0.859431
vn 0.823521 -0.254745 0.506870
vn 0.000000 0.000000 1.000000
vn 0.000000 0.000000 -1.000000
vn -0.295520 0.955336 0.000000
vn 0.295520 -0.955336 0.000000
vn -0.955336 -0.295520 0.000000
vn 0.955336 0.295520 0.000000
vn 0.000000 0.000000 1.000000
vn 0.000000 0.000000 -1.000000
vn 0.295520 0.955336 0.000000
vn -0.295520 -0.955336 0.000000
vn -0.955336 0.295520 0.000000
vn 0.955336 -0.295520 0.000000
vn 0.000000 0.000000 1.000000
vn 0.000000 0.000000 -1.000000
vn 0.000000 0.999940 -0.010981
vn 0.000000 -0.999940 -0.010981
vn -0.999906 0.000000 -0.013725
vn 0.999906 0.000000 -0.013725
vn -0.000000 1.000000 0.000000
vn 0.000000 -1.000000 0.000000
vn -1.000000 0.000000 0.000000
vn 1.000000 0.000000 0.000000
vn 0.000000 0.000000 1.000000
vn 0.000000 0.000000 -1.000000
vn 0.000000 0.999940 -0.010981
vn 0.000000 -0.999940 -0.010981
vn -0.999906 0.000000 -0.013725
vn 0.999906 0.000000 -0.013725
vn -0.000000 1.000000 0.000000
vn 0.000000 -1.000000 0.000000
vn -1.000000 0.000000 0.000000
vn 1.000000 0.000000 0.000000
vn 0.299447 -0.921602 0.246943
vn 0.783962 -0.569582 0.246943
vn 0.969030 -0.000000 0.246943
vn 0.783962 0.569582 0.246943
vn 0.299447 0.921602 0.246943
vn -0.299447 0.921602 0.246943
vn -0.783962 0.569582 0.246943
vn -0.969030 0.000000 0.246943
vn -0.783962 -0.569582 0.246943
vn -0.299447 -0.921602 0.246943
vn 0.223919 -0.689152 0.689152
vn 0.586227 -0.425919 0.689152
vn 0.724617 -0.000000 0.689152
vn 0.586227 0.425919 0.689152
vn 0.223919 0.689152 0.689152
vn -0.223919 0.689152 0.689152
vn -0.586227 0.425919 0.689152
vn -0.724617 0.000000 0.689152
vn -0.586227 -0.425919 0.689152
vn -0.223919 -0.689152 0.689152
vn 0.083800 -0.257909 0.962528
vn 0.219390 -0.159396 0.962528
vn 0.271181 -0.000000 0.962528
vn 0.219390 0.159396 0.962528
vn 0.083800 0.257909 0.962528
vn -0.083800 0.257909 0.962528
vn -0.219390 0.159396 0.962528
vn -0.271181 0.000000 0.962528
vn -0.219390 -0.159396 0.962528
vn -0.083800 -0.257909 0.962528
vn 0.000000 0.000000 -1.000000
vn 0.499936 -0.865914 0.016045
vn 0.999871 -0.000000 0.016045
vn 0.499936 0.865914 0.016045
vn -0.499936 0.865914 0.016045
vn -0.999871 0.000000 0.016045
vn -0.499936 -0.865914 0.016045
vn 0.499326 -0.864859 0.051892
vn 0.998653 -0.000000 0.051892
vn 0.499326 0.864859 0.051892
vn -0.499326 0.864859 0.051892
vn -0.998653 0.000000 0.051892
vn -0.499326 -0.864859 0.051892
vn 0.299447 -0.921602 0.246943
vn 0.783962 -0.569582 0.246943
vn 0.969030 -0.000000 0.246943
vn 0.783962 0.569582 0.246943
vn 0.299447 0.921602 0.246943
vn -0.299447 0.921602 0.246943
vn -0.783962 0.569582 0.246943
vn -0.969030 0.000000 0.246943
vn -0.783962 -0.569582 0.246943
vn -0.299447 -0.921602 0.246943
vn 0.223919 -0.689152 0.689152
vn 0.586227 -0.425919 0.689152
vn 0.724617 -0.000000 0.689152
vn 0.586227 0.425919 0.689152
vn 0.223919 0.689152 0.689152
vn -0.223919 0.689152 0.689152
vn -0.586227 0.425919 0.689152
vn -0.724617 0.000000 0.689152
vn -0.586227 -0.425919 0.689152
vn -0.223919 -0.689152 0.689152
vn 0.083800 -0.257909 0.962528
vn 0.219390 -0.159396 0.962528
vn 0.271181 -0.000000 0.962528
vn 0.219390 0.159396 0.962528
vn 0.083800 0.257909 0.962528
vn -0.083800 0.257909 0.962528
vn -0.219390 0.159396 0.962528
vn -0.271181 0.000000 0.962528
vn -0.219390 -0.159396 0.962528
vn -0.083800 -0.257909 0.962528
vn 0.000000 0.000000 -1.000000
vn 0.499936 -0.865914 0.016045
vn 0.999871 -0.000000 0.016045
vn 0.499936 0.865914 0.016045
vn -0.499936 0.865914 0.016045
vn -0.999871 0.000000 0.016045
vn -0.499936 -0.865914 0.016045
vn 0.499326 -0.864859 0.051892
vn 0.998653 -0.000000 0.051892
vn 0.499326 0.864859 0.051892
vn -0.499326 0.864859 0.051892
vn -0.998653 0.000000 0.051892
vn -0.499326 -0.864859 0.051892
f 1/1/1 2/2/1 3/3/1
f 1/1/2 4/4/2 2/2/2
f 1/1/3 5/5/3 4/4/3
f 1/1/4 6/6/4 5/5/4
f 1/1/5 7/7/5 6/6/5
f 1/1/6 8/8/6 7/7/6
f 1/1/7 9/9/7 8/8/7
f 1/1/8 10/10/8 9/9/8
f 1/1/9 11/11/9 10/10/9
f 1/1/10 12/12/10 11/11/10
f 1/1/11 13/13/11 12/12/11
f 1/1/12 3/3/12 13/13/12
f 3/3/13 2/2/13 14/14/13
f 3/3/13 14/14/13 15/15/13
f 2/2/14 4/4/14 16/16/14
f 2/2/14 16/16/14 14/14/14
f 4/4/15 5/5/15 17/17/15
f 4/4/15 17/17/15 16/16/15
f 5/5/16 6/6/16 18/18/16
f 5/5/16 18/18/16 17/17/16
f 6/6/17 7/7/17 19/19/17
f 6/6/17 19/19/17 18/18/17
f 7/7/18 8/8/18 20/20/18
f 7/7/18 20/20/18 19/19/18
f 8/8/19 9/9/19 21/21/19
f 8/8/19 21/21/19 20/20/19
f 9/9/20 10/10/20 22/22/20
f 9/9/20 22/22/20 21/21/20
f 10/10/21 11/11/21 23/23/21
f 10/10/21 23/23/21 22/22/21
f 11/11/22 12/12/22 24/24/22
f 11/11/22 24/24/22 23/23/22
f 12/12/23 13/13/23 25/25/23
f 12/12/23 25/25/23 24/24/23
f 13/13/24 3/3/24 15/15/24
f 13/13/24 15/15/24 25/25/24
f 15/15/25 14/14/25 26/26/25
f 15/15/25 26/26/25 27/27/25
f 14/14/26 16/16/26 28/28/26
f 14/14/26 28/28/26 26/26/26
f 16/16/27 17/17/27 29/29/27
f 16/16/27 29/29/27 28/28/27
f 17/17/28 18/18/28 30/30/28
f 17/17/28 30/30/28 29/29/28
f 18/18/29 19/19/29 31/31/29
f 18/18/29 31/31/29 30/30/29
f 19/19/30 20/20/30 32/32/30
f 19/19/30 32/32/30 31/31/30
f 20/20/31 21/21/31 33/33/31
f 20/20/31 33/33/31 32/32/31
f 21/21/32 22/22/32 34/34/32
f 21/21/32 34/34/32 33/33/32
f 22/22/33 23/23/33 35/35/33
f 22/22/33 35/35/33 34/34/33
f 23/23/34 24/24/34 36/36/34
f 23/23/34 36/36/34 35/35/34
f 24/24/35 25/25/35 37/37/35
f 24/24/35 37/37/35 36/36/35
f 25/25/36 15/15/36 27/27/36
f 25/25/36 27/27/36 37/37/36
f 27/38/37 26/39/37 38/40/37
f 27/38/37 38/40/37 39/41/37
f 26/42/38 28/43/38 40/44/38
f 26/42/38 40/44/38 38/45/38
f 28/43/39 29/46/39 41/47/39
f 28/43/39 41/47/39 40/44/39
f 29/46/40 30/48/40 42/49/40
f 29/46/40 42/49/40 41/47/40
f 30/48/41 31/50/41 43/51/41
f 30/48/41 43/51/41 42/49/41
f 31/52/42 32/53/42 44/54/42
f 31/52/42 44/54/42 43/55/42
f 32/53/43 33/56/43 45/57/43
f 32/53/43 45/57/43 44/54/43
f 33/50/44 34/48/44 46/49/44
f 33/50/44 46/49/44 45/51/44
f 34/48/45 35/46/45 47/47/45
f 34/48/45 47/47/45 46/49/45
f 35/46/46 36/43/46 48/44/46
f 35/46/46 48/44/46 47/47/46
f 36/43/47 37/42/47 49/45/47
f 36/43/47 49/45/47 48/44/47
f 37/58/48 27/38/48 39/41/48
f 37/58/48 39/41/48 49/59/48
f 39/41/49 38/40/49 50/60/49
f 39/41/49 50/60/49 51/61/49
f 38/45/50 40/44/50 52/62/50
f 38/45/50 52/62/50 50/63/50
f 40/44/51 41/47/51 53/64/51
f 40/44/51 53/64/51 52/62/51
f 41/47/52 42/49/52 54/65/52
f 41/47/52 54/65/52 53/64/52
f 42/49/53 43/51/53 55/66/53
f 42/49/53 55/66/53 54/65/53
f 43/55/54 44/54/54 56/67/54
f 43/55/54 56/67/54 55/68/54
f 44/54/55 45/57/55 57/69/55
f 44/54/55 57/69/55 56/67/55
f 45/51/56 46/49/56 58/65/56
f 45/51/56 58/65/56 57/66/56
f 46/49/57 47/47/57 59/64/57
f 46/49/57 59/64/57 58/65/57
f 47/47/58 48/44/58 60/62/58
f 47/47/58 60/62/58 59/64/58
f 48/44/59 49/45/59 61/63/59
f 48/44/59 61/63/59 60/62/59
f 49/59/60 39/41/60 51/61/60
f 49/59/60 51/61/60 61/70/60
f 51/27/61 50/26/61 62/14/61
f 51/27/61 62/14/61 63/15/61
f 50/26/62 52/28/62 64/16/62
f 50/26/62 64/16/62 62/14/62
f 52/28/63 53/29/63 65/17/63
f 52/28/63 65/17/63 64/16/63
f 53/29/64 54/30/64 66/18/64
f 53/29/64 66/18/64 65/17/64
f 54/30/65 55/31/65 67/19/65
f 54/30/65 67/19/65 66/18/65
f 55/31/66 56/32/66 68/20/66
f 55/31/66 68/20/66 67/19/66
f 56/32/67 57/33/67 69/21/67
f 56/32/67 69/21/67 68/20/67
f 57/33/68 58/34/68 70/22/68
f 57/33/68 70/22/68 69/21/68
f 58/34/69 59/35/69 71/23/69
f 58/34/69 71/23/69 70/22/69
f 59/35/70 60/36/70 72/24/70
f 59/35/70 72/24/70 71/23/70
f 60/36/71 61/37/71 73/25/71
f 60/36/71 73/25/71 72/24/71
f 61/37/72 51/27/72 63/15/72
f 61/37/72 63/15/72 73/25/72
f 63/15/73 62/14/73 74/2/73
f 63/15/73 74/2/73 75/3/73
f 62/14/74 64/16/74 76/4/74
f 62/14/74 76/4/74 74/2/74
f 64/16/75 65/17/75 77/5/75
f 64/16/75 77/5/75 76/4/75
f 65/17/76 66/18/76 78/6/76
f 65/17/76 78/6/76 77/5/76
f 66/18/77 67/19/77 79/7/77
f 66/18/77 79/7/77 78/6/77
f 67/19/78 68/20/78 80/8/78
f 67/19/78 80/8/78 79/7/78
f 68/20/79 69/21/79 81/9/79
f 68/20/79 81/9/79 80/8/79
f 69/21/80 70/22/80 82/10/80
f 69/21/80 82/10/80 81/9/80
f 70/22/81 71/23/81 83/11/81
f 70/22/81 83/11/81 82/10/81
f 71/23/82 72/24/82 84/12/82
f 71/23/82 84/12/82 83/11/82
f 72/24/83 73/25/83 85/13/83
f 72/24/83 85/13/83 84/12/83
f 73/25/84 63/15/84 75/3/84
f 73/25/84 75/3/84 85/13/84
f 75/3/85 74/2/85 86/1/85
f 74/2/86 76/4/86 86/1/86
f 76/4/87 77/5/87 86/1/87
f 77/5/88 78/6/88 86/1/88
f 78/6/89 79/7/89 86/1/89
f 79/7/90 80/8/90 86/1/90
f 80/8/91 81/9/91 86/1/91
f 81/9/92 82/10/92 86/1/92
f 82/10/93 83/11/93 86/1/93
f 83/11/94 84/12/94 86/1/94
f 84/12/95 85/13/95 86/1/95
f 85/13/96 75/3/96 86/1/96
f 87/71/97 88/72/97 89/73/97
f 87/71/97 90/74/97 88/72/97
f 87/71/97 91/75/97 90/74/97
f 87/71/97 89/73/97 91/75/97
f 89/76/98 88/77/98 92/78/98
f 88/77/99 90/76/99 92/78/99
f 90/76/100 91/79/100 92/78/100
f 91/79/101 89/76/101 92/78/101
f 93/80/102 94/81/102 95/82/102
f 93/80/102 96/83/102 94/81/102
f 93/80/102 97/84/102 96/83/102
f 93/80/102 95/82/102 97/84/102
f 95/85/103 94/86/103 98/87/103
f 94/86/104 96/85/104 98/87/104
f 96/85/105 97/88/105 98/87/105
f 97/88/106 95/85/106 98/87/106
f 99/89/107 100/90/107 101/91/107
f 99/89/107 101/91/107 102/92/107
f 103/93/108 104/94/108 105/95/108
f 103/93/108 105/95/108 106/96/108
f 102/97/109 101/98/109 106/99/109
f 102/97/109 106/99/109 105/100/109
f 104/100/110 103/99/110 100/98/110
f 104/100/110 100/98/110 99/97/110
f 104/101/111 99/102/111 102/103/111
f 104/101/111 102/103/111 105/104/111
f 100/102/112 103/101/112 106/104/112
f 100/102/112 106/104/112 101/103/112
f 107/105/113 108/106/113 109/107/113
f 107/105/114 110/108/114 108/106/114
f 107/105/115 111/109/115 110/108/115
f 107/105/116 112/110/116 111/109/116
f 107/105/117 113/111/117 112/110/117
f 107/105/118 114/112/118 113/111/118
f 107/105/119 115/113/119 114/112/119
f 107/105/120 116/114/120 115/113/120
f 107/105/121 117/115/121 116/114/121
f 107/105/122 118/116/122 117/115/122
f 107/105/123 119/117/123 118/116/123
f 107/105/124 120/118/124 119/117/124
f 107/105/125 121/119/125 120/118/125
f 107/105/126 109/107/126 121/119/126
f 109/107/127 108/106/127 122/120/127
f 109/107/127 122/120/127 123/121/127
f 108/106/128 110/108/128 124/122/128
f 108/106/128 124/122/128 122/120/128
f 110/108/129 111/109/129 125/123/129
f 110/108/129 125/123/129 124/122/129
f 111/109/130 112/110/130 126/124/130
f 111/109/130 126/124/130 125/123/130
f 112/110/131 113/111/131 127/125/131
f 112/110/131 127/125/131 126/124/131
f 113/111/132 114/112/132 128/126/132
f 113/111/132 128/126/132 127/125/132
f 114/112/133 115/113/133 129/127/133
f 114/112/133 129/127/133 128/126/133
f 115/113/134 116/114/134 130/128/134
f 115/113/134 130/128/134 129/127/134
f 116/114/135 117/115/135 131/129/135
f 116/114/135 131/129/135 130/128/135
f 117/115/136 118/116/136 132/130/136
f 117/115/136 132/130/136 131/129/136
f 118/116/137 119/117/137 133/131/137
f 118/116/137 133/131/137 132/130/137
f 119/117/138 120/118/138 134/132/138
f 119/117/138 134/132/138 133/131/138
f 120/118/139 121/119/139 135/133/139
f 120/118/139 135/133/139 134/132/139
f 121/119/140 109/107/140 123/121/140
f 121/119/140 123/121/140 135/133/140
f 123/121/141 122/120/141 136/134/141
f 123/121/141 136/134/141 137/135/141
f 122/120/142 124/122/142 138/136/142
f 122/120/142 138/136/142 136/134/142
f 124/122/143 125/123/143 139/137/143
f 124/122/143 139/137/143 138/136/143
f 125/123/144 126/124/144 140/138/144
f 125/123/144 140/138/144 139/137/144
f 126/124/145 127/125/145 141/139/145
f 126/124/145 141/139/145 140/138/145
f 127/125/146 128/126/146 142/140/146
f 127/125/146 142/140/146 141/139/146
f 128/126/147 129/127/147 143/141/147
f 128/126/147 143/141/147 142/140/147
f 129/127/148 130/128/148 144/142/148
f 129/127/148 144/142/148 143/141/148
f 130/128/149 131/129/149 145/143/149
f 130/128/149 145/143/149 144/142/149
f 131/129/150 132/130/150 146/144/150
f 131/129/150 146/144/150 145/143/150
f 132/130/151 133/131/151 147/145/151
f 132/130/151 147/145/151 146/144/151
f 133/131/152 134/132/152 148/146/152
f 133/131/152 148/146/152 147/145/152
f 134/132/153 135/133/153 149/147/153
f 134/132/153 149/147/153 148/146/153
f 135/133/154 123/121/154 137/135/154
f 135/133/154 137/135/154 149/147/154
f 137/135/155 136/134/155 150/148/155
f 137/135/155 150/148/155 151/149/155
f 136/134/156 138/136/156 152/150/156
f 136/134/156 152/150/156 150/148/156
f 138/151/157 139/152/157 153/153/157
f 138/151/157 153/153/157 152/154/157
f 139/152/158 140/155/158 154/156/158
f 139/152/158 154/156/158 153/153/158
f 140/155/159 141/157/159 155/158/159
f 140/155/159 155/158/159 154/156/159
f 141/139/160 142/140/160 156/159/160
f 141/139/160 156/159/160 155/160/160
f 142/140/161 143/141/161 157/161/161
f 142/140/161 157/161/161 156/159/161
f 143/141/162 144/142/162 158/162/162
f 143/141/162 158/162/162 157/161/162
f 144/142/163 145/143/163 159/163/163
f 144/142/163 159/163/163 158/162/163
f 145/157/164 146/155/164 160/156/164
f 145/157/164 160/156/164 159/158/164
f 146/155/165 147/152/165 161/153/165
f 146/155/165 161/153/165 160/156/165
f 147/152/166 148/151/166 162/154/166
f 147/152/166 162/154/166 161/153/166
f 148/146/167 149/147/167 163/164/167
f 148/146/167 163/164/167 162/165/167
f 149/147/168 137/135/168 151/149/168
f 149/147/168 151/149/168 163/164/168
f 151/166/169 150/167/169 164/168/169
f 151/166/169 164/168/169 165/169/169
f 150/170/170 152/154/170 166/171/170
f 150/170/170 166/171/170 164/172/170
f 152/154/171 153/153/171 167/173/171
f 152/154/171 167/173/171 166/171/171
f 153/153/172 154/156/172 168/174/172
f 153/153/172 168/174/172 167/173/172
f 154/156/173 155/158/173 169/175/173
f 154/156/173 169/175/173 168/174/173
f 155/158/174 156/176/174 170/177/174
f 155/158/174 170/177/174 169/175/174
f 156/178/175 157/179/175 171/180/175
f 156/178/175 171/180/175 170/181/175
f 157/179/176 158/182/176 172/183/176
f 157/179/176 172/183/176 171/180/176
f 158/176/177 159/158/177 173/175/177
f 158/176/177 173/175/177 172/177/177
f 159/158/178 160/156/178 174/174/178
f 159/158/178 174/174/178 173/175/178
f 160/156/179 161/153/179 175/173/179
f 160/156/179 175/173/179 174/174/179
f 161/153/180 162/154/180 176/171/180
f 161/153/180 176/171/180 175/173/180
f 162/154/181 163/170/181 177/172/181
f 162/154/181 177/172/181 176/171/181
f 163/184/182 151/166/182 165/169/182
f 163/184/182 165/169/182 177/185/182
f 165/169/183 164/168/183 178/186/183
f 165/169/183 178/186/183 179/187/183
f 164/172/184 166/171/184 180/188/184
f 164/172/184 180/188/184 178/189/184
f 166/171/185 167/173/185 181/190/185
f 166/171/185 181/190/185 180/188/185
f 167/173/186 168/174/186 182/191/186
f 167/173/186 182/191/186 181/190/186
f 168/174/187 169/175/187 183/192/187
f 168/174/187 183/192/187 182/191/187
f 169/175/188 170/177/188 184/193/188
f 169/175/188 184/193/188 183/192/188
f 170/181/189 171/180/189 185/194/189
f 170/181/189 185/194/189 184/195/189
f 171/180/190 172/183/190 186/196/190
f 171/180/190 186/196/190 185/194/190
f 172/177/191 173/175/191 187/192/191
f 172/177/191 187/192/191 186/193/191
f 173/175/192 174/174/192 188/191/192
f 173/175/192 188/191/192 187/192/192
f 174/174/193 175/173/193 189/190/193
f 174/174/193 189/190/193 188/191/193
f 175/173/194 176/171/194 190/188/194
f 175/173/194 190/188/194 189/190/194
f 176/171/195 177/172/195 191/189/195
f 176/171/195 191/189/195 190/188/195
f 177/185/196 165/169/196 179/187/196
f 177/185/196 179/187/196 191/197/196
f 179/149/197 178/148/197 192/134/197
f 179/149/197 192/134/197 193/135/197
f 178/148/198 180/150/198 194/136/198
f 178/148/198 194/136/198 192/134/198
f 180/188/199 181/190/199 195/198/199
f 180/188/199 195/198/199 194/199/199
f 181/190/200 182/191/200 196/200/200
f 181/190/200 196/200/200 195/198/200
f 182/191/201 183/192/201 197/201/201
f 182/191/201 197/201/201 196/200/201
f 183/160/202 184/159/202 198/140/202
f 183/160/202 198/140/202 197/139/202
f 184/159/203 185/161/203 199/141/203
f 184/159/203 199/141/203 198/140/203
f 185/161/204 186/162/204 200/142/204
f 185/161/204 200/142/204 199/141/204
f 186/162/205 187/163/205 201/143/205
f 186/162/205 201/143/205 200/142/205
f 187/192/206 188/191/206 202/200/206
f 187/192/206 202/200/206 201/201/206
f 188/191/207 189/190/207 203/198/207
f 188/191/207 203/198/207 202/200/207
f 189/190/208 190/188/208 204/199/208
f 189/190/208 204/199/208 203/198/208
f 190/165/209 191/164/209 205/147/209
f 190/165/209 205/147/209 204/146/209
f 191/164/210 179/149/210 193/135/210
f 191/164/210 193/135/210 205/147/210
f 193/135/211 192/134/211 206/120/211
f 193/135/211 206/120/211 207/121/211
f 192/134/212 194/136/212 208/122/212
f 192/134/212 208/122/212 206/120/212
f 194/136/213 195/137/213 209/123/213
f 194/136/213 209/123/213 208/122/213
f 195/137/214 196/138/214 210/124/214
f 195/137/214 210/124/214 209/123/214
f 196/138/215 197/139/215 211/125/215
f 196/138/215 211/125/215 210/124/215
f 197/139/216 198/140/216 212/126/216
f 197/139/216 212/126/216 211/125/216
f 198/140/217 199/141/217 213/127/217
f 198/140/217 213/127/217 212/126/217
f 199/141/218 200/142/218 214/128/218
f 199/141/218 214/128/218 213/127/218
f 200/142/219 201/143/219 215/129/219
f 200/142/219 215/129/219 214/128/219
f 201/143/220 202/144/220 216/130/220
f 201/143/220 216/130/220 215/129/220
f 202/144/221 203/145/221 217/131/221
f 202/144/221 217/131/221 216/130/221
f 203/145/222 204/146/222 218/132/222
f 203/145/222 218/132/222 217/131/222
f 204/146/223 205/147/223 219/133/223
f 204/146/223 219/133/223 218/132/223
f 205/147/224 193/135/224 207/121/224
f 205/147/224 207/121/224 219/133/224
f 207/121/225 206/120/225 220/106/225
f 207/121/225 220/106/225 221/107/225
f 206/120/226 208/122/226 222/108/226
f 206/120/226 222/108/226 220/106/226
f 208/122/227 209/123/227 223/109/227
f 208/122/227 223/109/227 222/108/227
f 209/123/228 210/124/228 224/110/228
f 209/123/228 224/110/228 223/109/228
f 210/124/229 211/125/229 225/111/229
f 210/124/229 225/111/229 224/110/229
f 211/125/230 212/126/230 226/112/230
f 211/125/230 226/112/230 225/111/230
f 212/126/231 213/127/231 227/113/231
f 212/126/231 227/113/231 226/112/231
f 213/127/232 214/128/232 228/114/232
f 213/127/232 228/114/232 227/113/232
f 214/128/233 215/129/233 229/115/233
f 214/128/233 229/115/233 228/114/233
f 215/129/234 216/130/234 230/116/234
f 215/129/234 230/116/234 229/115/234
f 216/130/235 217/131/235 231/117/235
f 216/130/235 231/117/235 230/116/235
f 217/131/236 218/132/236 232/118/236
f 217/131/236 232/118/236 231/117/236
f 218/132/237 219/133/237 233/119/237
f 218/132/237 233/119/237 232/118/237
f 219/133/238 207/121/238 221/107/238
f 219/133/238 221/107/238 233/119/238
f 221/107/239 220/106/239 234/105/239
f 220/106/240 222/108/240 234/105/240
f 222/108/241 223/109/241 234/105/241
f 223/109/242 224/110/242 234/105/242
f 224/110/243 225/111/243 234/105/243
f 225/111/244 226/112/244 234/105/244
f 226/112/245 227/113/245 234/105/245
f 227/113/246 228/114/246 234/105/246
f 228/114/247 229/115/247 234/105/247
f 229/115/248 230/116/248 234/105/248
f 230/116/249 231/117/249 234/105/249
f 231/117/250 232/118/250 234/105/250
f 232/118/251 233/119/251 234/105/251
f 233/119/252 221/107/252 234/105/252
f 235/202/253 236/203/253 237/204/253
f 235/202/253 238/205/253 236/203/253
f 235/202/253 239/206/253 238/205/253
f 235/202/253 240/207/253 239/206/253
f 235/202/253 241/208/253 240/207/253
f 235/202/253 242/209/253 241/208/253
f 235/202/253 243/210/253 242/209/253
f 235/202/253 237/204/253 243/210/253
f 237/211/254 236/212/254 244/213/254
f 237/211/254 244/213/254 245/214/254
f 236/215/255 238/216/255 246/217/255
f 236/215/255 246/217/255 244/218/255
f 238/216/256 239/219/256 247/220/256
f 238/216/256 247/220/256 246/217/256
f 239/212/257 240/211/257 248/214/257
f 239/212/257 248/214/257 247/213/257
f 240/211/258 241/221/258 249/222/258
f 240/211/258 249/222/258 248/214/258
f 241/219/259 242/216/259 250/217/259
f 241/219/259 250/217/259 249/220/259
f 242/216/260 243/215/260 251/218/260
f 242/216/260 251/218/260 250/217/260
f 243/221/261 237/211/261 245/214/261
f 243/221/261 245/214/261 251/222/261
f 245/223/262 244/224/262 252/225/262
f 244/224/262 246/226/262 252/225/262
f 246/226/262 247/227/262 252/225/262
f 247/227/262 248/228/262 252/225/262
f 248/228/262 249/229/262 252/225/262
f 249/229/262 250/230/262 252/225/262
f 250/230/262 251/231/262 252/225/262
f 251/231/262 245/223/262 252/225/262
f 253/232/263 254/233/263 255/234/263
f 253/232/263 256/235/263 254/233/263
f 253/232/263 257/236/263 256/235/263
f 253/232/263 258/237/263 257/236/263
f 253/232/263 259/238/263 258/237/263
f 253/232/263 260/239/263 259/238/263
f 253/232/263 261/240/263 260/239/263
f 253/232/263 255/234/263 261/240/263
f 255/241/264 254/242/264 262/243/264
f 255/241/264 262/243/264 263/244/264
f 254/245/265 256/246/265 264/247/265
f 254/245/265 264/247/265 262/248/265
f 256/246/266 257/249/266 265/250/266
f 256/246/266 265/250/266 264/247/266
f 257/242/267 258/241/267 266/244/267
f 257/242/267 266/244/267 265/243/267
f 258/241/268 259/251/268 267/252/268
f 258/241/268 267/252/268 266/244/268
f 259/249/269 260/246/269 268/247/269
f 259/249/269 268/247/269 267/250/269
f 260/246/270 261/245/270 269/248/270
f 260/246/270 269/248/270 268/247/270
f 261/251/271 255/241/271 263/244/271
f 261/251/271 263/244/271 269/252/271
f 263/253/272 262/254/272 270/255/272
f 262/254/272 264/256/272 270/255/272
f 264/256/272 265/257/272 270/255/272
f 265/257/272 266/258/272 270/255/272
f 266/258/272 267/259/272 270/255/272
f 267/259/272 268/260/272 270/255/272
f 268/260/272 269/261/272 270/255/272
f 269/261/272 263/253/272 270/255/272
f 271/262/273 272/263/273 273/264/273
f 271/262/273 273/264/273 274/265/273
f 272/266/274 275/267/274 276/268/274
f 272/266/274 276/268/274 273/269/274
f 275/267/275 277/270/275 278/271/275
f 275/267/275 278/271/275 276/268/275
f 277/270/276 279/272/276 280/273/276
f 277/270/276 280/273/276 278/271/276
f 279/274/277 281/275/277 282/276/277
f 279/274/277 282/276/277 280/277/277
f 281/275/278 283/278/278 284/279/278
f 281/275/278 284/279/278 282/276/278
f 283/272/279 285/270/279 286/271/279
f 283/272/279 286/271/279 284/273/279
f 285/270/280 287/267/280 288/268/280
f 285/270/280 288/268/280 286/271/280
f 287/267/281 289/266/281 290/269/281
f 287/267/281 290/269/281 288/268/281
f 289/280/282 271/262/282 274/265/282
f 289/280/282 274/265/282 290/281/282
f 274/265/283 273/264/283 291/282/283
f 274/265/283 291/282/283 292/283/283
f 273/269/284 276/268/284 293/284/284
f 273/269/284 293/284/284 291/285/284
f 276/268/285 278/271/285 294/286/285
f 276/268/285 294/286/285 293/284/285
f 278/271/286 280/273/286 295/287/286
f 278/271/286 295/287/286 294/286/286
f 280/277/287 282/276/287 296/288/287
f 280/277/287 296/288/287 295/289/287
f 282/276/288 284/279/288 297/290/288
f 282/276/288 297/290/288 296/288/288
f 284/273/289 286/271/289 298/286/289
f 284/273/289 298/286/289 297/287/289
f 286/271/290 288/268/290 299/284/290
f 286/271/290 299/284/290 298/286/290
f 288/268/291 290/269/291 300/285/291
f 288/268/291 300/285/291 299/284/291
f 290/281/292 274/265/292 292/283/292
f 290/281/292 292/283/292 300/291/292
f 292/292/293 291/293/293 301/294/293
f 292/292/293 301/294/293 302/295/293
f 291/293/294 293/296/294 303/297/294
f 291/293/294 303/297/294 301/294/294
f 293/296/295 294/298/295 304/299/295
f 293/296/295 304/299/295 303/297/295
f 294/298/296 295/300/296 305/301/296
f 294/298/296 305/301/296 304/299/296
f 295/300/297 296/302/297 306/303/297
f 295/300/297 306/303/297 305/301/297
f 296/302/298 297/304/298 307/305/298
f 296/302/298 307/305/298 306/303/298
f 297/304/299 298/306/299 308/307/299
f 297/304/299 308/307/299 307/305/299
f 298/306/300 299/308/300 309/309/300
f 298/306/300 309/309/300 308/307/300
f 299/308/301 300/310/301 310/311/301
f 299/308/301 310/311/301 309/309/301
f 300/310/302 292/292/302 302/295/302
f 300/310/302 302/295/302 310/311/302
f 302/295/303 301/294/303 311/312/303
f 301/294/304 303/297/304 311/312/304
f 303/297/305 304/299/305 311/312/305
f 304/299/306 305/301/306 311/312/306
f 305/301/307 306/303/307 311/312/307
f 306/303/308 307/305/308 311/312/308
f 307/305/309 308/307/309 311/312/309
f 308/307/310 309/309/310 311/312/310
f 309/309/311 310/311/311 311/312/311
f 310/311/312 302/295/312 311/312/312
f 312/313/313 313/314/313 314/315/313
f 315/316/314 316/317/314 317/318/314
f 312/313/313 314/315/313 318/319/313
f 315/316/314 319/320/314 316/317/314
f 312/313/313 318/319/313 320/321/313
f 315/316/314 321/322/314 319/320/314
f 320/321/313 322/323/313 312/313/313
f 321/322/314 315/316/314 323/324/314
f 313/325/315 316/326/315 314/327/315
f 313/325/315 317/328/315 316/326/315
f 314/329/316 319/330/316 318/331/316
f 314/329/316 316/332/316 319/330/316
f 318/331/317 321/333/317 320/334/317
f 318/331/317 319/330/317 321/333/317
f 320/335/318 323/336/318 322/337/318
f 320/335/318 321/338/318 323/336/318
f 322/339/319 315/340/319 312/341/319
f 322/339/319 323/342/319 315/340/319
f 312/343/320 317/328/320 313/325/320
f 312/343/320 315/344/320 317/328/320
f 324/345/321 325/346/321 326/347/321
f 327/348/322 328/349/322 329/350/322
f 324/345/321 330/351/321 325/346/321
f 327/348/322 329/350/322 331/352/322
f 324/345/321 332/353/321 330/351/321
f 327/348/322 331/352/322 333/354/322
f 332/353/321 324/345/321 334/355/321
f 333/354/322 335/356/322 327/348/322
f 326/357/323 325/358/323 329/359/323
f 326/357/323 329/359/323 328/360/323
f 325/361/324 330/362/324 331/363/324
f 325/361/324 331/363/324 329/364/324
f 330/362/325 332/365/325 333/366/325
f 330/362/325 333/366/325 331/363/325
f 332/367/326 334/368/326 335/369/326
f 332/367/326 335/369/326 333/370/326
f 334/371/327 324/372/327 327/373/327
f 334/371/327 327/373/327 335/374/327
f 324/375/328 326/357/328 328/360/328
f 324/375/328 328/360/328 327/376/328
f 336/377/329 337/378/329 338/379/329
f 336/377/329 338/379/329 339/380/329
f 340/381/330 341/382/330 342/383/330
f 340/381/330 342/383/330 343/384/330
f 339/385/331 338/386/331 343/387/331
f 339/385/331 343/387/331 342/388/331
f 341/389/332 340/390/332 337/391/332
f 341/389/332 337/391/332 336/392/332
f 341/393/333 336/394/333 339/395/333
f 341/393/333 339/395/333 342/396/333
f 337/397/334 340/398/334 343/399/334
f 337/397/334 343/399/334 338/400/334
f 344/401/329 345/402/329 346/403/329
f 344/401/329 346/403/329 347/404/329
f 348/405/330 349/406/330 350/407/330
f 348/405/330 350/407/330 351/408/330
f 347/409/331 346/410/331 351/411/331
f 347/409/331 351/411/331 350/412/331
f 349/413/332 348/414/332 345/415/332
f 349/413/332 345/415/332 344/416/332
f 349/417/333 344/418/333 347/419/333
f 349/417/333 347/419/333 350/420/333
f 345/421/334 348/422/334 351/423/334
f 345/421/334 351/423/334 346/424/334
f 352/425/329 353/426/329 354/427/329
f 352/425/329 354/427/329 355/428/329
f 356/429/330 357/430/330 358/431/330
f 356/429/330 358/431/330 359/432/330
f 355/433/331 354/434/331 359/435/331
f 355/433/331 359/435/331 358/436/331
f 357/437/332 356/438/332 353/439/332
f 357/437/332 353/439/332 352/440/332
f 357/441/333 352/442/333 355/443/333
f 357/441/333 355/443/333 358/444/333
f 353/445/334 356/446/334 359/447/334
f 353/445/334 359/447/334 354/448/334
f 360/449/335 361/450/335 362/451/335
f 360/449/335 362/451/335 363/452/335
f 364/453/336 365/454/336 366/455/336
f 364/453/336 366/455/336 367/456/336
f 363/457/337 362/458/337 367/459/337
f 363/457/337 367/459/337 366/460/337
f 365/461/338 364/462/338 361/463/338
f 365/461/338 361/463/338 360/464/338
f 365/465/339 360/466/339 363/467/339
f 365/465/339 363/467/339 366/468/339
f 361/469/340 364/470/340 367/471/340
f 361/469/340 367/471/340 362/472/340
f 368/473/335 369/474/335 370/475/335
f 368/473/335 370/475/335 371/476/335
f 372/477/336 373/478/336 374/479/336
f 372/477/336 374/479/336 375/480/336
f 371/481/337 370/482/337 375/483/337
f 371/481/337 375/483/337 374/484/337
f 373/485/338 372/486/338 369/487/338
f 373/485/338 369/487/338 368/488/338
f 373/489/339 368/490/339 371/491/339
f 373/489/339 371/491/339 374/492/339
f 369/493/340 372/494/340 375/495/340
f 369/493/340 375/495/340 370/496/340
f 376/497/335 377/498/335 378/499/335
f 376/497/335 378/499/335 379/500/335
f 380/501/336 381/502/336 382/503/336
f 380/501/336 382/503/336 383/504/336
f 379/505/337 378/506/337 383/507/337
f 379/505/337 383/507/337 382/508/337
f 381/509/338 380/510/338 377/511/338
f 381/509/338 377/511/338 376/512/338
f 381/513/339 376/514/339 379/515/339
f 381/513/339 379/515/339 382/516/339
f 377/517/340 380/518/340 383/519/340
f 377/517/340 383/519/340 378/520/340
f 384/521/341 385/522/341 386/523/341
f 384/521/341 386/523/341 387/524/341
f 388/525/342 389/526/342 390/527/342
f 388/525/342 390/527/342 391/528/342
f 387/529/343 386/530/343 391/531/343
f 387/529/343 391/531/343 390/532/343
f 389/532/344 388/531/344 385/530/344
f 389/532/344 385/530/344 384/529/344
f 389/533/345 384/534/345 387/535/345
f 389/533/345 387/535/345 390/536/345
f 385/537/346 388/538/346 391/539/346
f 385/537/346 391/539/346 386/540/346
f 392/541/341 393/542/341 394/543/341
f 392/541/341 394/543/341 395/544/341
f 396/545/342 397/546/342 398/547/342
f 396/545/342 398/547/342 399/548/342
f 395/549/347 394/550/347 399/551/347
f 395/549/347 399/551/347 398/552/347
f 397/552/348 396/551/348 393/550/348
f 397/552/348 393/550/348 392/549/348
f 397/553/349 392/554/349 395/555/349
f 397/553/349 395/555/349 398/556/349
f 393/557/350 396/557/350 399/558/350
f 393/557/350 399/558/350 394/558/350
f 400/559/341 401/560/341 402/561/341
f 400/559/341 402/561/341 403/562/341
f 404/563/342 405/564/342 406/565/342
f 404/563/342 406/565/342 407/566/342
f 403/567/347 402/568/347 407/569/347
f 403/567/347 407/569/347 406/570/347
f 405/570/348 404/569/348 401/568/348
f 405/570/348 401/568/348 400/567/348
f 405/571/349 400/572/349 403/573/349
f 405/571/349 403/573/349 406/574/349
f 401/575/350 404/575/350 407/576/350
f 401/575/350 407/576/350 402/576/350
f 408/577/351 409/578/351 410/579/351
f 408/577/351 410/579/351 411/580/351
f 412/581/352 413/582/352 414/583/352
f 412/581/352 414/583/352 415/584/352
f 411/585/353 410/586/353 415/587/353
f 411/585/353 415/587/353 414/588/353
f 413/588/354 412/587/354 409/586/354
f 413/588/354 409/586/354 408/585/354
f 413/589/355 408/590/355 411/591/355
f 413/589/355 411/591/355 414/592/355
f 409/593/356 412/594/356 415/595/356
f 409/593/356 415/595/356 410/596/356
f 416/597/351 417/598/351 418/599/351
f 416/597/351 418/599/351 419/600/351
f 420/601/352 421/602/352 422/603/352
f 420/601/352 422/603/352 423/604/352
f 419/605/357 418/606/357 423/607/357
f 419/605/357 423/607/357 422/608/357
f 421/608/358 420/607/358 417/606/358
f 421/608/358 417/606/358 416/605/358
f 421/609/359 416/609/359 419/610/359
f 421/609/359 419/610/359 422/610/359
f 417/611/360 420/612/360 423/613/360
f 417/611/360 423/613/360 418/614/360
f 424/615/351 425/616/351 426/617/351
f 424/615/351 426/617/351 427/618/351
f 428/619/352 429/620/352 430/621/352
f 428/619/352 430/621/352 431/622/352
f 427/623/357 426/624/357 431/625/357
f 427/623/357 431/625/357 430/626/357
f 429/626/358 428/625/358 425/624/358
f 429/626/358 425/624/358 424/623/358
f 429/627/359 424/627/359 427/628/359
f 429/627/359 427/628/359 430/628/359
f 425/629/360 428/630/360 431/631/360
f 425/629/360 431/631/360 426/632/360
f 432/633/361 433/634/361 434/635/361
f 432/633/361 434/635/361 435/636/361
f 433/637/362 436/638/362 437/639/362
f 433/637/362 437/639/362 434/640/362
f 436/638/363 438/641/363 439/642/363
f 436/638/363 439/642/363 437/639/363
f 438/641/364 440/643/364 441/644/364
f 438/641/364 441/644/364 439/642/364
f 440/634/365 442/633/365 443/636/365
f 440/634/365 443/636/365 441/635/365
f 442/633/366 444/645/366 445/646/366
f 442/633/366 445/646/366 443/636/366
f 444/643/367 446/641/367 447/642/367
f 444/643/367 447/642/367 445/644/367
f 446/641/368 448/638/368 449/639/368
f 446/641/368 449/639/368 447/642/368
f 448/638/369 450/637/369 451/640/369
f 448/638/369 451/640/369 449/639/369
f 450/645/370 432/633/370 435/636/370
f 450/645/370 435/636/370 451/646/370
f 435/647/371 434/648/371 452/649/371
f 435/636/371 452/650/371 453/651/371
f 434/648/372 437/652/372 454/653/372
f 434/648/372 454/653/372 452/649/372
f 437/639/373 439/642/373 455/654/373
f 437/639/373 455/654/373 454/655/373
f 439/656/374 441/657/374 456/658/374
f 439/656/374 456/658/374 455/659/374
f 441/635/375 443/636/375 457/651/375
f 441/657/375 457/660/375 456/658/375
f 443/661/376 445/662/376 458/663/376
f 443/636/376 458/664/376 457/651/376
f 445/662/377 447/665/377 459/666/377
f 445/662/377 459/666/377 458/663/377
f 447/642/378 449/639/378 460/655/378
f 447/642/378 460/655/378 459/654/378
f 449/667/379 451/668/379 461/669/379
f 449/667/379 461/669/379 460/670/379
f 451/646/380 435/636/380 453/651/380
f 451/668/380 453/671/380 461/669/380
f 453/671/381 452/649/381 462/672/381
f 452/649/382 454/653/382 462/672/382
f 454/653/383 455/659/383 462/672/383
f 455/659/384 456/658/384 462/672/384
f 456/658/385 457/660/385 462/672/385
f 457/660/386 458/663/386 462/672/386
f 458/663/387 459/666/387 462/672/387
f 459/666/388 460/670/388 462/672/388
f 460/670/389 461/669/389 462/672/389
f 461/669/390 453/671/390 462/672/390
f 463/673/391 464/674/391 465/675/391
f 463/673/391 466/676/391 464/674/391
f 463/673/391 467/677/391 466/676/391
f 463/673/391 468/678/391 467/677/391
f 463/673/391 469/679/391 468/678/391
f 463/673/391 465/675/391 469/679/391
f 465/680/392 464/681/392 470/682/392
f 465/680/392 470/682/392 471/683/392
f 464/684/393 466/685/393 472/686/393
f 464/684/393 472/686/393 470/687/393
f 466/681/394 467/680/394 473/683/394
f 466/681/394 473/683/394 472/682/394
f 467/680/395 468/688/395 474/689/395
f 467/680/395 474/689/395 473/683/395
f 468/685/396 469/684/396 475/687/396
f 468/685/396 475/687/396 474/686/396
f 469/688/397 465/680/397 471/683/397
f 469/688/397 471/683/397 475/689/397
f 471/683/398 470/682/398 476/690/398
f 471/683/398 476/690/398 477/691/398
f 470/687/399 472/686/399 478/692/399
f 470/687/399 478/692/399 476/693/399
f 472/682/400 473/683/400 479/691/400
f 472/682/400 479/691/400 478/690/400
f 473/683/401 474/689/401 480/694/401
f 473/683/401 480/694/401 479/691/401
f 474/686/402 475/687/402 481/693/402
f 474/686/402 481/693/402 480/692/402
f 475/689/403 471/683/403 477/691/403
f 475/689/403 477/691/403 481/694/403
f 482/695/404 483/696/404 484/697/404
f 482/695/404 484/697/404 485/698/404
f 483/699/405 486/700/405 487/701/405
f 483/699/405 487/701/405 484/702/405
f 486/700/406 488/703/406 489/704/406
f 486/700/406 489/704/406 487/701/406
f 488/703/407 490/705/407 491/706/407
f 488/703/407 491/706/407 489/704/407
f 490/696/408 492/695/408 493/698/408
f 490/696/408 493/698/408 491/697/408
f 492/695/409 494/707/409 495/708/409
f 492/695/409 495/708/409 493/698/409
f 494/705/410 496/703/410 497/704/410
f 494/705/410 497/704/410 495/706/410
f 496/703/411 498/700/411 499/701/411
f 496/703/411 499/701/411 497/704/411
f 498/700/412 500/699/412 501/702/412
f 498/700/412 501/702/412 499/701/412
f 500/707/413 482/695/413 485/698/413
f 500/707/413 485/698/413 501/708/413
f 485/709/414 484/710/414 502/711/414
f 485/698/414 502/712/414 503/713/414
f 484/710/415 487/714/415 504/715/415
f 484/710/415 504/715/415 502/711/415
f 487/701/416 489/704/416 505/716/416
f 487/701/416 505/716/416 504/717/416
f 489/718/417 491/719/417 506/720/417
f 489/718/417 506/720/417 505/721/417
f 491/697/418 493/698/418 507/713/418
f 491/719/418 507/722/418 506/720/418
f 493/723/419 495/724/419 508/725/419
f 493/698/419 508/726/419 507/713/419
f 495/724/420 497/727/420 509/728/420
f 495/724/420 509/728/420 508/725/420
f 497/704/421 499/701/421 510/717/421
f 497/704/421 510/717/421 509/716/421
f 499/729/422 501/730/422 511/731/422
f 499/729/422 511/731/422 510/732/422
f 501/708/423 485/698/423 503/713/423
f 501/730/423 503/733/423 511/731/423
f 503/733/424 502/711/424 512/734/424
f 502/711/425 504/715/425 512/734/425
f 504/715/426 505/721/426 512/734/426
f 505/721/427 506/720/427 512/734/427
f 506/720/428 507/722/428 512/734/428
f 507/722/429 508/725/429 512/734/429
f 508/725/430 509/728/430 512/734/430
f 509/728/431 510/732/431 512/734/431
f 510/732/432 511/731/432 512/734/432
f 511/731/433 503/733/433 512/734/433
f 513/735/434 514/736/434 515/737/434
f 513/735/434 516/738/434 514/736/434
f 513/735/434 517/739/434 516/738/434
f 513/735/434 518/740/434 517/739/434
f 513/735/434 519/741/434 518/740/434
f 513/735/434 515/737/434 519/741/434
f 515/742/435 514/743/435 520/744/435
f 515/742/435 520/744/435 521/745/435
f 514/746/436 516/747/436 522/748/436
f 514/746/436 522/748/436 520/749/436
f 516/743/437 517/742/437 523/745/437
f 516/743/437 523/745/437 522/744/437
f 517/742/438 518/750/438 524/751/438
f 517/742/438 524/751/438 523/745/438
f 518/747/439 519/746/439 525/749/439
f 518/747/439 525/749/439 524/748/439
f 519/750/440 515/742/440 521/745/440
f 519/750/440 521/745/440 525/751/440
f 521/745/441 520/744/441 526/752/441
f 521/745/441 526/752/441 527/753/441
f 520/749/442 522/748/442 528/754/442
f 520/749/442 528/754/442 526/755/442
f 522/744/443 523/745/443 529/753/443
f 522/744/443 529/753/443 528/752/443
f 523/745/444 524/751/444 530/756/444
f 523/745/444 530/756/444 529/753/444
f 524/748/445 525/749/445 531/755/445
f 524/748/445 531/755/445 530/754/445
f 525/751/446 521/745/446 527/753/446
f 525/751/446 527/753/446 531/756/446
