# Sarn dreadnought, fragment 7 of 8
# Generated by tools. Edit the generator script.
v 0.000000 0.220897 2.209525
v 0.096618 0.165115 2.209525
v 0.000000 0.109333 2.209525
v 0.096618 0.276679 2.209525
v 0.000000 0.332462 2.209525
v -0.096618 0.276679 2.209525
v -0.096618 0.165115 2.209525
v 0.000000 0.220897 2.600000
v -0.122721 0.220897 2.097961
v -0.089251 0.220897 2.097961
v -0.122721 0.187428 2.097961
v -0.122721 0.254367 2.097961
v -0.156190 0.220897 2.097961
v -0.122721 0.220897 2.600000
v 0.122721 0.220897 2.097961
v 0.156190 0.220897 2.097961
v 0.122721 0.187428 2.097961
v 0.122721 0.254367 2.097961
v 0.089251 0.220897 2.097961
v 0.122721 0.220897 2.600000
vt 0.101562 0.429688
vt 0.195312 0.406250
vt 0.101562 0.382812
vt 0.195312 0.453125
vt 0.101562 0.476562
vt 0.007813 0.453125
vt 0.007812 0.406250
vt 0.093750 0.484375
vt 0.179687 0.484375
vt 0.093750 0.656250
vt 0.007812 0.406250
vt 0.007812 0.453125
vt 0.195312 0.429688
vt 0.007813 0.484375
vt 0.718750 0.429688
vt 0.765625 0.429688
vt 0.718750 0.382812
vt 0.718750 0.476562
vt 0.671875 0.429688
vt 0.617188 0.382812
vt 0.664062 0.382812
vt 0.617188 0.476562
vt 0.671875 0.429688
vt 0.671875 0.476562
vt 0.765625 0.429688
vt 0.570312 0.382812
vt 0.671875 0.382812
vt 0.718750 0.429688
vt 0.765625 0.429688
vt 0.718750 0.382812
vt 0.718750 0.476562
vt 0.671875 0.429688
vt 0.617188 0.382812
vt 0.664062 0.382812
vt 0.617188 0.476562
vt 0.671875 0.429688
vt 0.671875 0.476562
vt 0.765625 0.429688
vt 0.570312 0.382812
vt 0.671875 0.382812
vn 0.000000 0.000000 -1.000000
vn 0.485363 -0.840673 0.240192
vn 0.970725 -0.000000 0.240192
vn 0.485363 0.840673 0.240192
vn -0.485363 0.840673 0.240192
vn -0.970725 0.000000 0.240192
vn -0.485363 -0.840673 0.240192
vn 0.000000 0.000000 -1.000000
vn 0.706322 -0.706322 0.047088
vn 0.706322 0.706322 0.047088
vn -0.706322 0.706322 0.047088
vn -0.706322 -0.706322 0.047088
vn 0.000000 0.000000 -1.000000
vn 0.706322 -0.706322 0.047088
vn 0.706322 0.706322 0.047088
vn -0.706322 0.706322 0.047088
vn -0.706322 -0.706322 0.047088
usemtl skin
f 1/1/1 2/2/1 3/3/1
f 1/1/1 4/4/1 2/2/1
f 1/1/1 5/5/1 4/4/1
f 1/1/1 6/6/1 5/5/1
f 1/1/1 7/7/1 6/6/1
f 1/1/1 3/3/1 7/7/1
f 3/8/2 2/9/2 8/10/2
f 2/11/3 4/12/3 8/13/3
f 4/9/4 5/8/4 8/10/4
f 5/8/5 6/14/5 8/10/5
f 6/12/6 7/11/6 8/13/6
f 7/14/7 3/8/7 8/10/7
f 9/15/8 10/16/8 11/17/8
f 9/15/8 12/18/8 10/16/8
f 9/15/8 13/19/8 12/18/8
f 9/15/8 11/17/8 13/19/8
f 11/20/9 10/21/9 14/22/9
f 10/23/10 12/24/10 14/25/10
f 12/20/11 13/26/11 14/22/11
f 13/23/12 11/27/12 14/25/12
f 15/28/13 16/29/13 17/30/13
f 15/28/13 18/31/13 16/29/13
f 15/28/13 19/32/13 18/31/13
f 15/28/13 17/30/13 19/32/13
f 17/33/14 16/34/14 20/35/14
f 16/36/15 18/37/15 20/38/15
f 18/33/16 19/39/16 20/35/16
f 19/36/17 17/40/17 20/38/17
