# Okinawa inspired frigate, fragment 1 of 8
# Generated by tools. Edit the generator script.
v -0.340000 0.380000 0.620000
v 0.240000 0.380000 -1.200000
v -0.240000 0.380000 -1.200000
v -0.340000 0.140000 0.620000
v -0.240000 0.140000 -1.200000
v 0.240000 0.140000 -1.200000
v -0.460000 0.440000 -0.600000
v 0.380000 0.440000 -1.720000
v -0.380000 0.440000 -1.720000
v -0.460000 0.020000 -0.600000
v -0.380000 0.020000 -1.720000
v 0.380000 0.020000 -1.720000
v 0.460000 0.020000 -0.600000
v -0.440000 0.460000 -0.550000
v -0.300000 0.460000 -0.720000
v -1.020000 0.460000 -1.300000
v -0.440000 0.300000 -0.550000
v -1.020000 0.300000 -1.300000
v -0.300000 0.300000 -0.720000
v -1.160000 0.460000 -1.100000
v -1.160000 0.300000 -1.100000
v -1.290000 0.740000 0.720000
v -0.910000 0.740000 -1.620000
v -1.330000 0.740000 -1.620000
v -1.290000 0.460000 0.720000
v -1.330000 0.460000 -1.620000
v -0.910000 0.460000 -1.620000
v -0.950000 0.740000 0.720000
vt 0.671875 0.750000
vt 0.885110 0.984375
vt 0.708640 0.984375
vt 0.671875 0.726562
vt 0.921875 0.664062
vt 0.921875 0.726562
vt 0.671875 0.726562
vt 0.671875 0.664062
vt 0.921875 0.664062
vt 0.671875 0.398438
vt 0.900136 0.632812
vt 0.693614 0.632812
vt 0.671875 0.375000
vt 0.671875 0.312500
vt 0.921875 0.312500
vt 0.671875 0.140625
vt 0.921875 0.046875
vt 0.921875 0.140625
vt 0.671875 0.375000
vt 0.671875 0.312500
vt 0.921875 0.312500
vt 0.921875 0.375000
vt 0.881177 0.164062
vt 0.921875 0.192396
vt 0.712573 0.289062
vt 0.671875 0.255729
vt 0.671875 0.289062
vt 0.671875 0.164062
vt 0.921875 0.164062
vt 0.921875 0.289062
vt 0.671875 0.289062
vt 0.671875 0.164062
vt 0.921875 0.164062
vt 0.921875 0.289062
vt 0.671875 0.289062
vt 0.671875 0.164062
vt 0.921875 0.164062
vt 0.921875 0.289062
vt 0.671875 0.289062
vt 0.671875 0.164062
vt 0.921875 0.164062
vt 0.921875 0.289062
vt 0.527530 0.515625
vt 0.640625 0.984375
vt 0.515625 0.984375
vt 0.015625 0.398438
vt 0.484375 0.304688
vt 0.484375 0.398438
vt 0.515625 0.250000
vt 0.515625 0.156250
vt 0.640625 0.156250
vt 0.640625 0.250000
vt 0.015625 0.398438
vt 0.015625 0.304688
vt 0.484375 0.304688
vn 0.000000 1.000000 0.000000
vn 0.000000 -1.000000 0.000000
vn -0.000000 0.000000 -1.000000
vn -0.998494 0.000000 -0.054862
vn 0.000000 1.000000 0.000000
vn 0.000000 -1.000000 0.000000
vn -0.000000 0.000000 1.000000
vn -0.000000 0.000000 -1.000000
vn -0.997459 0.000000 -0.071247
vn 0.000000 1.000000 0.000000
vn 0.000000 -1.000000 0.000000
vn 0.771930 0.000000 0.635707
vn 0.627330 0.000000 -0.778754
vn -0.819232 0.000000 -0.573462
vn -0.607040 0.000000 0.794671
vn 0.000000 1.000000 0.000000
vn 0.000000 -1.000000 0.000000
vn 0.999854 0.000000 0.017092
vn -0.000000 0.000000 -1.000000
vn -0.999854 0.000000 0.017092
f 1/1/1 2/2/1 3/3/1
f 4/1/2 5/3/2 6/2/2
f 2/4/3 5/5/3 3/6/3
f 3/7/4 5/8/4 4/9/4
f 7/10/5 8/11/5 9/12/5
f 10/10/6 11/12/6 12/11/6
f 7/13/7 10/14/7 13/15/7
f 8/16/8 11/17/8 9/18/8
f 9/19/9 11/20/9 10/21/9
f 9/19/9 10/21/9 7/22/9
f 14/23/10 15/24/10 16/25/10
f 17/23/11 18/25/11 19/24/11
f 14/23/10 16/25/10 20/26/10
f 17/23/11 21/26/11 18/25/11
f 14/27/12 17/28/12 19/29/12
f 14/27/12 19/29/12 15/30/12
f 15/31/13 19/32/13 18/33/13
f 15/31/13 18/33/13 16/34/13
f 16/35/14 18/36/14 21/37/14
f 16/35/14 21/37/14 20/38/14
f 20/39/15 21/40/15 17/41/15
f 20/39/15 17/41/15 14/42/15
f 22/43/16 23/44/16 24/45/16
f 25/43/17 26/45/17 27/44/17
f 28/46/18 27/47/18 23/48/18
f 23/49/19 27/50/19 26/51/19
f 23/49/19 26/51/19 24/52/19
f 24/53/20 26/54/20 25/55/20
