# Helion frigate, from tools/gen_fleet.py
# Generated by tools. Edit the generator script.
v -0.174312 0.610092 1.063303
v 0.174312 0.610092 1.063303
v 0.174312 0.958716 1.063303
v -0.174312 0.958716 1.063303
v 0.174312 0.610092 -1.632722
v -0.174312 0.610092 -1.632722
v -0.174312 0.958716 -1.632722
v 0.174312 0.958716 -1.632722
v -0.464832 0.464832 1.900000
v 0.464832 0.464832 1.900000
v 0.464832 1.103976 1.900000
v -0.464832 1.103976 1.900000
v 0.464832 0.464832 0.970336
v -0.464832 0.464832 0.970336
v -0.464832 1.103976 0.970336
v 0.464832 1.103976 0.970336
v -0.551988 0.610092 1.493272
v -0.435780 0.610092 1.493272
v -0.435780 0.726300 1.493272
v -0.551988 0.726300 1.493272
v -0.435780 0.610092 1.377064
v -0.551988 0.610092 1.377064
v -0.551988 0.726300 1.377064
v -0.435780 0.726300 1.377064
v 0.435780 0.610092 1.493272
v 0.551988 0.610092 1.493272
v 0.551988 0.726300 1.493272
v 0.435780 0.726300 1.493272
v 0.551988 0.610092 1.377064
v 0.435780 0.610092 1.377064
v 0.435780 0.726300 1.377064
v 0.551988 0.726300 1.377064
v -0.232416 1.092355 1.783792
v -0.150244 1.092355 1.749756
v -0.161253 1.150459 1.738747
v -0.232416 1.150459 1.768223
v -0.116208 1.092355 1.667584
v -0.131777 1.150459 1.667584
v -0.150244 1.092355 1.585413
v -0.161253 1.150459 1.596422
v -0.232416 1.092355 1.551376
v -0.232416 1.150459 1.566945
v -0.314587 1.092355 1.585413
v -0.303578 1.150459 1.596422
v -0.348624 1.092355 1.667584
v -0.333055 1.150459 1.667584
v -0.314587 1.092355 1.749756
v -0.303578 1.150459 1.738747
v -0.191330 1.192994 1.708670
v -0.232416 1.192994 1.725688
v -0.174312 1.192994 1.667584
v -0.191330 1.192994 1.626498
v -0.232416 1.192994 1.609480
v -0.273502 1.192994 1.626498
v -0.290520 1.192994 1.667584
v -0.273502 1.192994 1.708670
v -0.232416 1.208563 1.667584
v -0.522936 0.000000 0.202899
v 0.522936 0.000000 0.202899
v 0.522936 0.639144 0.202899
v -0.522936 0.639144 0.202899
v 0.522936 0.000000 -0.610557
v -0.522936 0.000000 -0.610557
v -0.522936 0.639144 -0.610557
v 0.522936 0.639144 -0.610557
v -0.639144 0.784404 -1.865138
v -0.474801 0.620061 -1.865138
v -0.639144 0.551988 -1.865138
v -0.406728 0.784404 -1.865138
v -0.474801 0.948747 -1.865138
v -0.639144 1.016820 -1.865138
v -0.803487 0.948747 -1.865138
v -0.871560 0.784404 -1.865138
v -0.803487 0.620061 -1.865138
v -0.474801 0.620061 -0.935474
v -0.639144 0.551988 -0.935474
v -0.406728 0.784404 -0.935474
v -0.474801 0.948747 -0.935474
v -0.639144 1.016820 -0.935474
v -0.803487 0.948747 -0.935474
v -0.871560 0.784404 -0.935474
v -0.803487 0.620061 -0.935474
v -0.639144 0.784404 -0.935474
v 0.639144 0.784404 -1.865138
v 0.803487 0.620061 -1.865138
v 0.639144 0.551988 -1.865138
v 0.871560 0.784404 -1.865138
v 0.803487 0.948747 -1.865138
v 0.639144 1.016820 -1.865138
v 0.474801 0.948747 -1.865138
v 0.406728 0.784404 -1.865138
v 0.474801 0.620061 -1.865138
v 0.803487 0.620061 -0.935474
v 0.639144 0.551988 -0.935474
v 0.871560 0.784404 -0.935474
v 0.803487 0.948747 -0.935474
v 0.639144 1.016820 -0.935474
v 0.474801 0.948747 -0.935474
v 0.406728 0.784404 -0.935474
v 0.474801 0.620061 -0.935474
v 0.639144 0.784404 -0.935474
v -0.029052 0.830887 -1.353823
v -0.610092 0.830887 -1.353823
v -0.610092 0.737920 -1.353823
v -0.029052 0.737920 -1.353823
v -0.610092 0.830887 -1.446789
v -0.029052 0.830887 -1.446789
v -0.029052 0.737920 -1.446789
v -0.610092 0.737920 -1.446789
v -0.639144 0.511315 -1.400306
v -0.534637 0.532103 -1.400306
v -0.545392 0.558068 -1.361624
v -0.639144 0.539419 -1.361624
v -0.562794 0.600080 -1.376399
v -0.639144 0.584893 -1.376399
v -0.562794 0.600080 -1.424213
v -0.639144 0.584893 -1.424213
v -0.545392 0.558068 -1.438988
v -0.639144 0.539419 -1.438988
v -0.446041 0.591301 -1.400306
v -0.465914 0.611173 -1.361624
v -0.498068 0.643328 -1.376399
v -0.498068 0.643328 -1.424213
v -0.465914 0.611173 -1.438988
v -0.386843 0.679897 -1.400306
v -0.412808 0.690652 -1.361624
v -0.454820 0.708054 -1.376399
v -0.454820 0.708054 -1.424213
v -0.412808 0.690652 -1.438988
v -0.366055 0.784404 -1.400306
v -0.394159 0.784404 -1.361624
v -0.439633 0.784404 -1.376399
v -0.439633 0.784404 -1.424213
v -0.394159 0.784404 -1.438988
v -0.386843 0.888910 -1.400306
v -0.412808 0.878155 -1.361624
v -0.454820 0.860753 -1.376399
v -0.454820 0.860753 -1.424213
v -0.412808 0.878155 -1.438988
v -0.446041 0.977507 -1.400306
v -0.465914 0.957634 -1.361624
v -0.498068 0.925479 -1.376399
v -0.498068 0.925479 -1.424213
v -0.465914 0.957634 -1.438988
v -0.534637 1.036705 -1.400306
v -0.545392 1.010740 -1.361624
v -0.562794 0.968728 -1.376399
v -0.562794 0.968728 -1.424213
v -0.545392 1.010740 -1.438988
v -0.639144 1.057492 -1.400306
v -0.639144 1.029388 -1.361624
v -0.639144 0.983915 -1.376399
v -0.639144 0.983915 -1.424213
v -0.639144 1.029388 -1.438988
v -0.743650 1.036705 -1.400306
v -0.732895 1.010740 -1.361624
v -0.715493 0.968728 -1.376399
v -0.715493 0.968728 -1.424213
v -0.732895 1.010740 -1.438988
v -0.832247 0.977507 -1.400306
v -0.812374 0.957634 -1.361624
v -0.780219 0.925479 -1.376399
v -0.780219 0.925479 -1.424213
v -0.812374 0.957634 -1.438988
v -0.891445 0.888910 -1.400306
v -0.865480 0.878155 -1.361624
v -0.823468 0.860753 -1.376399
v -0.823468 0.860753 -1.424213
v -0.865480 0.878155 -1.438988
v -0.912232 0.784404 -1.400306
v -0.884128 0.784404 -1.361624
v -0.838655 0.784404 -1.376399
v -0.838655 0.784404 -1.424213
v -0.884128 0.784404 -1.438988
v -0.891445 0.679897 -1.400306
v -0.865480 0.690652 -1.361624
v -0.823468 0.708054 -1.376399
v -0.823468 0.708054 -1.424213
v -0.865480 0.690652 -1.438988
v -0.832247 0.591301 -1.400306
v -0.812374 0.611173 -1.361624
v -0.780219 0.643328 -1.376399
v -0.780219 0.643328 -1.424213
v -0.812374 0.611173 -1.438988
v -0.743650 0.532103 -1.400306
v -0.732895 0.558068 -1.361624
v -0.715493 0.600080 -1.376399
v -0.715493 0.600080 -1.424213
v -0.732895 0.558068 -1.438988
v -0.639144 0.784404 -1.900000
v -0.487948 0.633208 -1.900000
v -0.639144 0.570581 -1.900000
v -0.425321 0.784404 -1.900000
v -0.487948 0.935599 -1.900000
v -0.639144 0.998226 -1.900000
v -0.790339 0.935599 -1.900000
v -0.852966 0.784404 -1.900000
v -0.790339 0.633208 -1.900000
v -0.487948 0.633208 -1.783792
v -0.639144 0.570581 -1.783792
v -0.425321 0.784404 -1.783792
v -0.487948 0.935599 -1.783792
v -0.639144 0.998226 -1.783792
v -0.790339 0.935599 -1.783792
v -0.852966 0.784404 -1.783792
v -0.790339 0.633208 -1.783792
v -0.639144 0.784404 -1.783792
v 0.029052 0.737920 -1.353823
v 0.610092 0.737920 -1.353823
v 0.610092 0.830887 -1.353823
v 0.029052 0.830887 -1.353823
v 0.610092 0.737920 -1.446789
v 0.029052 0.737920 -1.446789
v 0.029052 0.830887 -1.446789
v 0.610092 0.830887 -1.446789
v 0.639144 0.511315 -1.400306
v 0.743650 0.532103 -1.400306
v 0.732895 0.558068 -1.361624
v 0.639144 0.539419 -1.361624
v 0.715493 0.600080 -1.376399
v 0.639144 0.584893 -1.376399
v 0.715493 0.600080 -1.424213
v 0.639144 0.584893 -1.424213
v 0.732895 0.558068 -1.438988
v 0.639144 0.539419 -1.438988
v 0.832247 0.591301 -1.400306
v 0.812374 0.611173 -1.361624
v 0.780219 0.643328 -1.376399
v 0.780219 0.643328 -1.424213
v 0.812374 0.611173 -1.438988
v 0.891445 0.679897 -1.400306
v 0.865480 0.690652 -1.361624
v 0.823468 0.708054 -1.376399
v 0.823468 0.708054 -1.424213
v 0.865480 0.690652 -1.438988
v 0.912232 0.784404 -1.400306
v 0.884128 0.784404 -1.361624
v 0.838655 0.784404 -1.376399
v 0.838655 0.784404 -1.424213
v 0.884128 0.784404 -1.438988
v 0.891445 0.888910 -1.400306
v 0.865480 0.878155 -1.361624
v 0.823468 0.860753 -1.376399
v 0.823468 0.860753 -1.424213
v 0.865480 0.878155 -1.438988
v 0.832247 0.977507 -1.400306
v 0.812374 0.957634 -1.361624
v 0.780219 0.925479 -1.376399
v 0.780219 0.925479 -1.424213
v 0.812374 0.957634 -1.438988
v 0.743650 1.036705 -1.400306
v 0.732895 1.010740 -1.361624
v 0.715493 0.968728 -1.376399
v 0.715493 0.968728 -1.424213
v 0.732895 1.010740 -1.438988
v 0.639144 1.057492 -1.400306
v 0.639144 1.029388 -1.361624
v 0.639144 0.983915 -1.376399
v 0.639144 0.983915 -1.424213
v 0.639144 1.029388 -1.438988
v 0.534637 1.036705 -1.400306
v 0.545392 1.010740 -1.361624
v 0.562794 0.968728 -1.376399
v 0.562794 0.968728 -1.424213
v 0.545392 1.010740 -1.438988
v 0.446041 0.977507 -1.400306
v 0.465914 0.957634 -1.361624
v 0.498068 0.925479 -1.376399
v 0.498068 0.925479 -1.424213
v 0.465914 0.957634 -1.438988
v 0.386843 0.888910 -1.400306
v 0.412808 0.878155 -1.361624
v 0.454820 0.860753 -1.376399
v 0.454820 0.860753 -1.424213
v 0.412808 0.878155 -1.438988
v 0.366055 0.784404 -1.400306
v 0.394159 0.784404 -1.361624
v 0.439633 0.784404 -1.376399
v 0.439633 0.784404 -1.424213
v 0.394159 0.784404 -1.438988
v 0.386843 0.679897 -1.400306
v 0.412808 0.690652 -1.361624
v 0.454820 0.708054 -1.376399
v 0.454820 0.708054 -1.424213
v 0.412808 0.690652 -1.438988
v 0.446041 0.591301 -1.400306
v 0.465914 0.611173 -1.361624
v 0.498068 0.643328 -1.376399
v 0.498068 0.643328 -1.424213
v 0.465914 0.611173 -1.438988
v 0.534637 0.532103 -1.400306
v 0.545392 0.558068 -1.361624
v 0.562794 0.600080 -1.376399
v 0.562794 0.600080 -1.424213
v 0.545392 0.558068 -1.438988
v 0.639144 0.784404 -1.900000
v 0.790339 0.633208 -1.900000
v 0.639144 0.570581 -1.900000
v 0.852966 0.784404 -1.900000
v 0.790339 0.935599 -1.900000
v 0.639144 0.998226 -1.900000
v 0.487948 0.935599 -1.900000
v 0.425321 0.784404 -1.900000
v 0.487948 0.633208 -1.900000
v 0.790339 0.633208 -1.783792
v 0.639144 0.570581 -1.783792
v 0.852966 0.784404 -1.783792
v 0.790339 0.935599 -1.783792
v 0.639144 0.998226 -1.783792
v 0.487948 0.935599 -1.783792
v 0.425321 0.784404 -1.783792
v 0.487948 0.633208 -1.783792
v 0.639144 0.784404 -1.783792
vt 0.843750 0.531250
vt 0.968750 0.531250
vt 0.968750 0.656250
vt 0.843750 0.656250
vt 0.968750 0.531250
vt 0.843750 0.531250
vt 0.843750 0.656250
vt 0.968750 0.656250
vt 0.843750 0.656250
vt 0.968750 0.656250
vt 0.968750 0.531250
vt 0.843750 0.531250
vt 0.843750 0.531250
vt 0.968750 0.531250
vt 0.968750 0.656250
vt 0.843750 0.656250
vt 0.468750 0.382812
vt 0.562500 0.382812
vt 0.562500 0.476562
vt 0.468750 0.476562
vt 0.195312 0.382812
vt 0.007812 0.382812
vt 0.007812 0.476562
vt 0.195312 0.476562
vt 0.007812 0.656250
vt 0.179688 0.656250
vt 0.179688 0.484375
vt 0.007812 0.484375
vt 0.007812 0.382812
vt 0.195312 0.382812
vt 0.195312 0.476562
vt 0.007812 0.476562
vt 0.671875 0.382812
vt 0.765625 0.382812
vt 0.765625 0.476562
vt 0.671875 0.476562
vt 0.765625 0.382812
vt 0.671875 0.382812
vt 0.671875 0.476562
vt 0.765625 0.476562
vt 0.570312 0.476562
vt 0.664062 0.476562
vt 0.664062 0.382812
vt 0.570312 0.382812
vt 0.671875 0.382812
vt 0.765625 0.382812
vt 0.765625 0.476562
vt 0.671875 0.476562
vt 0.671875 0.382812
vt 0.765625 0.382812
vt 0.765625 0.476562
vt 0.671875 0.476562
vt 0.765625 0.382812
vt 0.671875 0.382812
vt 0.671875 0.476562
vt 0.765625 0.476562
vt 0.570312 0.476562
vt 0.664062 0.476562
vt 0.664062 0.382812
vt 0.570312 0.382812
vt 0.671875 0.382812
vt 0.765625 0.382812
vt 0.765625 0.476562
vt 0.671875 0.476562
vt 0.718750 0.382812
vt 0.751896 0.382812
vt 0.747455 0.429687
vt 0.718750 0.429687
vt 0.751896 0.382812
vt 0.718750 0.382812
vt 0.718750 0.429687
vt 0.747455 0.429687
vt 0.685604 0.382812
vt 0.690045 0.429687
vt 0.751896 0.382812
vt 0.718750 0.382812
vt 0.718750 0.429687
vt 0.747455 0.429687
vt 0.685604 0.382812
vt 0.690045 0.429687
vt 0.685604 0.382812
vt 0.690045 0.429687
vt 0.617188 0.470282
vt 0.645892 0.458392
vt 0.633760 0.446260
vt 0.617188 0.453125
vt 0.657782 0.429688
vt 0.640625 0.429688
vt 0.645892 0.400983
vt 0.633760 0.413115
vt 0.617188 0.389093
vt 0.617188 0.406250
vt 0.718750 0.464002
vt 0.735323 0.464002
vt 0.588483 0.400983
vt 0.600615 0.413115
vt 0.576593 0.429688
vt 0.593750 0.429688
vt 0.588483 0.458392
vt 0.600615 0.446260
vt 0.718750 0.464002
vt 0.702177 0.464002
vt 0.617188 0.429688
vt 0.203125 0.382812
vt 0.328125 0.382812
vt 0.328125 0.476562
vt 0.203125 0.476562
vt 0.460938 0.382812
vt 0.335938 0.382812
vt 0.335938 0.476562
vt 0.460938 0.476562
vt 0.343750 0.992188
vt 0.546875 0.992188
vt 0.546875 0.664062
vt 0.343750 0.664062
vt 0.109375 0.296875
vt 0.484375 0.296875
vt 0.484375 0.375000
vt 0.109375 0.375000
vt 0.539062 0.234375
vt 0.572208 0.206754
vt 0.539062 0.195312
vt 0.585938 0.234375
vt 0.572208 0.261996
vt 0.539062 0.273438
vt 0.505917 0.261996
vt 0.492188 0.234375
vt 0.505917 0.206754
vt 0.589844 0.664062
vt 0.614703 0.664062
vt 0.614703 0.992188
vt 0.589844 0.992188
vt 0.327895 0.206754
vt 0.382812 0.234375
vt 0.327895 0.261996
vt 0.564985 0.664062
vt 0.564985 0.992188
vt 0.492188 0.363559
vt 0.492188 0.335938
vt 0.867188 0.335938
vt 0.867188 0.363559
vt 0.492188 0.308316
vt 0.867188 0.308316
vt 0.437500 0.195312
vt 0.470646 0.206754
vt 0.437500 0.234375
vt 0.484375 0.234375
vt 0.470646 0.261996
vt 0.437500 0.273438
vt 0.404354 0.261996
vt 0.390625 0.234375
vt 0.404354 0.206754
vt 0.539062 0.234375
vt 0.572208 0.206754
vt 0.539062 0.195312
vt 0.585938 0.234375
vt 0.572208 0.261996
vt 0.539062 0.273438
vt 0.505917 0.261996
vt 0.492188 0.234375
vt 0.505917 0.206754
vt 0.589844 0.664062
vt 0.614703 0.664062
vt 0.614703 0.992188
vt 0.589844 0.992188
vt 0.492188 0.308316
vt 0.492188 0.335938
vt 0.867188 0.335938
vt 0.867188 0.308316
vt 0.492188 0.363559
vt 0.867188 0.363559
vt 0.564985 0.664062
vt 0.564985 0.992188
vt 0.062730 0.261996
vt 0.007812 0.234375
vt 0.062730 0.206754
vt 0.437500 0.195312
vt 0.470646 0.206754
vt 0.437500 0.234375
vt 0.484375 0.234375
vt 0.470646 0.261996
vt 0.437500 0.273438
vt 0.404354 0.261996
vt 0.390625 0.234375
vt 0.404354 0.206754
vt 0.968750 0.656250
vt 0.843750 0.656250
vt 0.843750 0.531250
vt 0.968750 0.531250
vt 0.843750 0.656250
vt 0.968750 0.656250
vt 0.968750 0.531250
vt 0.843750 0.531250
vt 0.968750 0.656250
vt 0.843750 0.656250
vt 0.843750 0.531250
vt 0.968750 0.531250
vt 0.843750 0.656250
vt 0.968750 0.656250
vt 0.968750 0.531250
vt 0.843750 0.531250
vt 0.718750 0.242188
vt 0.766585 0.242188
vt 0.761663 0.273438
vt 0.718750 0.273438
vt 0.515625 0.103171
vt 0.558538 0.104237
vt 0.550572 0.106641
vt 0.515625 0.105772
vt 0.718750 0.261501
vt 0.753697 0.261501
vt 0.753697 0.222874
vt 0.718750 0.222874
vt 0.515625 0.105772
vt 0.550572 0.106641
vt 0.558538 0.104237
vt 0.515625 0.103171
vt 0.718750 0.210938
vt 0.761663 0.210938
vt 0.807138 0.242188
vt 0.798042 0.273438
vt 0.594917 0.107276
vt 0.580199 0.109116
vt 0.783324 0.261501
vt 0.783324 0.222874
vt 0.580199 0.109116
vt 0.594917 0.107276
vt 0.798042 0.210938
vt 0.515625 0.106139
vt 0.515625 0.111208
vt 0.640625 0.111823
vt 0.640625 0.107276
vt 0.619225 0.111823
vt 0.599995 0.112819
vt 0.592879 0.109116
vt 0.592879 0.112819
vt 0.438371 0.112819
vt 0.438371 0.109116
vt 0.599995 0.112819
vt 0.619225 0.111823
vt 0.390625 0.107276
vt 0.390625 0.111823
vt 0.515625 0.117188
vt 0.640625 0.117188
vt 0.627761 0.117188
vt 0.606946 0.117188
vt 0.592879 0.117188
vt 0.438371 0.117188
vt 0.606946 0.117188
vt 0.627761 0.117188
vt 0.390625 0.117188
vt 0.515625 0.123167
vt 0.640625 0.122552
vt 0.619225 0.122552
vt 0.599995 0.121556
vt 0.592879 0.121556
vt 0.438371 0.121556
vt 0.599995 0.121556
vt 0.619225 0.122552
vt 0.390625 0.122552
vt 0.515625 0.128236
vt 0.640625 0.127099
vt 0.594917 0.127099
vt 0.580199 0.125259
vt 0.592879 0.125259
vt 0.438371 0.125259
vt 0.580199 0.125259
vt 0.594917 0.127099
vt 0.390625 0.127099
vt 0.558538 0.130138
vt 0.550572 0.127734
vt 0.550572 0.127734
vt 0.558538 0.130138
vt 0.515625 0.131204
vt 0.515625 0.128603
vt 0.515625 0.128603
vt 0.515625 0.131204
vt 0.670915 0.242188
vt 0.675837 0.273438
vt 0.472712 0.130138
vt 0.480678 0.127734
vt 0.683803 0.261501
vt 0.683803 0.222874
vt 0.480678 0.127734
vt 0.472712 0.130138
vt 0.675837 0.210938
vt 0.630362 0.242188
vt 0.639458 0.273438
vt 0.436333 0.127099
vt 0.451051 0.125259
vt 0.654176 0.261501
vt 0.654176 0.222874
vt 0.451051 0.125259
vt 0.436333 0.127099
vt 0.639458 0.210938
vt 0.412025 0.122552
vt 0.431255 0.121556
vt 0.431255 0.121556
vt 0.412025 0.122552
vt 0.403489 0.117188
vt 0.424304 0.117188
vt 0.424304 0.117188
vt 0.403489 0.117188
vt 0.412025 0.111823
vt 0.431255 0.112819
vt 0.431255 0.112819
vt 0.412025 0.111823
vt 0.436333 0.107276
vt 0.451051 0.109116
vt 0.451051 0.109116
vt 0.436333 0.107276
vt 0.472712 0.104237
vt 0.480678 0.106641
vt 0.480678 0.106641
vt 0.472712 0.104237
vt 0.054687 0.328125
vt 0.087833 0.294979
vt 0.054687 0.281250
vt 0.101562 0.328125
vt 0.087833 0.361271
vt 0.054687 0.375000
vt 0.021542 0.361271
vt 0.007812 0.328125
vt 0.021542 0.294979
vt 0.054687 0.281250
vt 0.087833 0.281250
vt 0.087833 0.375000
vt 0.054687 0.375000
vt 0.007812 0.294979
vt 0.007812 0.328125
vt 0.101562 0.328125
vt 0.101562 0.294979
vt 0.007812 0.361271
vt 0.101562 0.361271
vt 0.021542 0.281250
vt 0.021542 0.375000
vt 0.054687 0.281250
vt 0.087833 0.294979
vt 0.054687 0.328125
vt 0.101562 0.328125
vt 0.087833 0.361271
vt 0.054687 0.375000
vt 0.021542 0.361271
vt 0.007812 0.328125
vt 0.021542 0.294979
vt 0.843750 0.531250
vt 0.968750 0.531250
vt 0.968750 0.656250
vt 0.843750 0.656250
vt 0.968750 0.531250
vt 0.843750 0.531250
vt 0.843750 0.656250
vt 0.968750 0.656250
vt 0.843750 0.656250
vt 0.968750 0.656250
vt 0.968750 0.531250
vt 0.843750 0.531250
vt 0.843750 0.531250
vt 0.968750 0.531250
vt 0.968750 0.656250
vt 0.843750 0.656250
vt 0.718750 0.242188
vt 0.766585 0.242188
vt 0.761663 0.273438
vt 0.718750 0.273438
vt 0.515625 0.103171
vt 0.558538 0.104237
vt 0.550572 0.106641
vt 0.515625 0.105772
vt 0.718750 0.261501
vt 0.753697 0.261501
vt 0.753697 0.222874
vt 0.718750 0.222874
vt 0.515625 0.105772
vt 0.550572 0.106641
vt 0.558538 0.104237
vt 0.515625 0.103171
vt 0.718750 0.210938
vt 0.761663 0.210938
vt 0.807138 0.242188
vt 0.798042 0.273438
vt 0.594917 0.107276
vt 0.580199 0.109116
vt 0.783324 0.261501
vt 0.783324 0.222874
vt 0.580199 0.109116
vt 0.594917 0.107276
vt 0.798042 0.210938
vt 0.515625 0.106139
vt 0.515625 0.111208
vt 0.640625 0.111823
vt 0.640625 0.107276
vt 0.619225 0.111823
vt 0.599995 0.112819
vt 0.592879 0.109116
vt 0.592879 0.112819
vt 0.438371 0.112819
vt 0.438371 0.109116
vt 0.599995 0.112819
vt 0.619225 0.111823
vt 0.390625 0.107276
vt 0.390625 0.111823
vt 0.515625 0.117188
vt 0.640625 0.117188
vt 0.627761 0.117188
vt 0.606946 0.117188
vt 0.592879 0.117188
vt 0.438371 0.117188
vt 0.606946 0.117188
vt 0.627761 0.117188
vt 0.390625 0.117188
vt 0.515625 0.123167
vt 0.640625 0.122552
vt 0.619225 0.122552
vt 0.599995 0.121556
vt 0.592879 0.121556
vt 0.438371 0.121556
vt 0.599995 0.121556
vt 0.619225 0.122552
vt 0.390625 0.122552
vt 0.515625 0.128236
vt 0.640625 0.127099
vt 0.594917 0.127099
vt 0.580199 0.125259
vt 0.592879 0.125259
vt 0.438371 0.125259
vt 0.580199 0.125259
vt 0.594917 0.127099
vt 0.390625 0.127099
vt 0.558538 0.130138
vt 0.550572 0.127734
vt 0.550572 0.127734
vt 0.558538 0.130138
vt 0.515625 0.131204
vt 0.515625 0.128603
vt 0.515625 0.128603
vt 0.515625 0.131204
vt 0.670915 0.242188
vt 0.675837 0.273438
vt 0.472712 0.130138
vt 0.480678 0.127734
vt 0.683803 0.261501
vt 0.683803 0.222874
vt 0.480678 0.127734
vt 0.472712 0.130138
vt 0.675837 0.210938
vt 0.630362 0.242188
vt 0.639458 0.273438
vt 0.436333 0.127099
vt 0.451051 0.125259
vt 0.654176 0.261501
vt 0.654176 0.222874
vt 0.451051 0.125259
vt 0.436333 0.127099
vt 0.639458 0.210938
vt 0.412025 0.122552
vt 0.431255 0.121556
vt 0.431255 0.121556
vt 0.412025 0.122552
vt 0.403489 0.117188
vt 0.424304 0.117188
vt 0.424304 0.117188
vt 0.403489 0.117188
vt 0.412025 0.111823
vt 0.431255 0.112819
vt 0.431255 0.112819
vt 0.412025 0.111823
vt 0.436333 0.107276
vt 0.451051 0.109116
vt 0.451051 0.109116
vt 0.436333 0.107276
vt 0.472712 0.104237
vt 0.480678 0.106641
vt 0.480678 0.106641
vt 0.472712 0.104237
vt 0.054688 0.328125
vt 0.087833 0.294979
vt 0.054688 0.281250
vt 0.101562 0.328125
vt 0.087833 0.361271
vt 0.054688 0.375000
vt 0.021542 0.361271
vt 0.007812 0.328125
vt 0.021542 0.294979
vt 0.054688 0.281250
vt 0.087833 0.281250
vt 0.087833 0.375000
vt 0.054688 0.375000
vt 0.007812 0.294979
vt 0.007812 0.328125
vt 0.101562 0.328125
vt 0.101562 0.294979
vt 0.007812 0.361271
vt 0.101562 0.361271
vt 0.021542 0.281250
vt 0.021542 0.375000
vt 0.054688 0.281250
vt 0.087833 0.294979
vt 0.054688 0.328125
vt 0.101562 0.328125
vt 0.087833 0.361271
vt 0.054688 0.375000
vt 0.021542 0.361271
vt 0.007812 0.328125
vt 0.021542 0.294979
vn 0.000000 0.000000 1.000000
vn 0.000000 0.000000 -1.000000
vn -0.000000 1.000000 0.000000
vn 0.000000 -1.000000 0.000000
vn -1.000000 0.000000 0.000000
vn 1.000000 0.000000 0.000000
vn 0.000000 0.000000 1.000000
vn 0.000000 0.000000 -1.000000
vn -0.000000 1.000000 0.000000
vn 0.000000 -1.000000 0.000000
vn -1.000000 0.000000 0.000000
vn 1.000000 0.000000 0.000000
vn 0.000000 0.000000 1.000000
vn 0.000000 0.000000 -1.000000
vn -0.000000 1.000000 0.000000
vn 0.000000 -1.000000 0.000000
vn -1.000000 0.000000 0.000000
vn 1.000000 0.000000 0.000000
vn 0.000000 0.000000 1.000000
vn 0.000000 0.000000 -1.000000
vn -0.000000 1.000000 0.000000
vn 0.000000 -1.000000 0.000000
vn -1.000000 0.000000 0.000000
vn 1.000000 0.000000 0.000000
vn 0.371470 0.240299 0.896809
vn 0.896809 0.240299 0.371470
vn 0.896809 0.240299 -0.371470
vn 0.371470 0.240299 -0.896809
vn -0.371470 0.240299 -0.896809
vn -0.896809 0.240299 -0.371470
vn -0.896809 0.240299 0.371470
vn -0.371470 0.240299 0.896809
vn 0.281085 0.678598 0.678598
vn 0.678598 0.678598 0.281085
vn 0.678598 0.678598 -0.281085
vn 0.281085 0.678598 -0.678598
vn -0.281085 0.678598 -0.678598
vn -0.678598 0.678598 -0.281085
vn -0.678598 0.678598 0.281085
vn -0.281085 0.678598 0.678598
vn 0.106596 0.960422 0.257344
vn 0.257344 0.960422 0.106596
vn 0.257344 0.960422 -0.106596
vn 0.106596 0.960422 -0.257344
vn -0.106596 0.960422 -0.257344
vn -0.257344 0.960422 -0.106596
vn -0.257344 0.960422 0.106596
vn -0.106596 0.960422 0.257344
vn 0.000000 0.000000 1.000000
vn 0.000000 0.000000 -1.000000
vn -0.000000 1.000000 0.000000
vn 0.000000 -1.000000 0.000000
vn -1.000000 0.000000 0.000000
vn 1.000000 0.000000 0.000000
vn 0.000000 0.000000 -1.000000
vn 0.382683 -0.923880 0.000000
vn 0.923880 -0.382683 0.000000
vn 0.923880 0.382683 0.000000
vn 0.382683 0.923880 -0.000000
vn -0.382683 0.923880 0.000000
vn -0.923880 0.382683 -0.000000
vn -0.923880 -0.382683 0.000000
vn -0.382683 -0.923880 0.000000
vn 0.000000 0.000000 1.000000
vn 0.000000 0.000000 -1.000000
vn 0.382683 -0.923880 0.000000
vn 0.923880 -0.382683 0.000000
vn 0.923880 0.382683 0.000000
vn 0.382683 0.923880 -0.000000
vn -0.382683 0.923880 0.000000
vn -0.923880 0.382683 -0.000000
vn -0.923880 -0.382683 0.000000
vn -0.382683 -0.923880 0.000000
vn 0.000000 0.000000 1.000000
vn 0.000000 0.000000 1.000000
vn 0.000000 0.000000 -1.000000
vn -0.000000 -1.000000 0.000000
vn 0.000000 1.000000 0.000000
vn 1.000000 0.000000 -0.000000
vn -1.000000 0.000000 -0.000000
vn 0.158879 -0.798741 0.580319
vn -0.061352 0.308435 0.949265
vn -0.195090 0.980785 0.000000
vn -0.061352 0.308435 -0.949265
vn 0.158879 -0.798741 -0.580319
vn 0.452450 -0.677140 0.580319
vn -0.174714 0.261478 0.949265
vn -0.555570 0.831470 0.000000
vn -0.174714 0.261478 -0.949265
vn 0.452450 -0.677140 -0.580319
vn 0.677140 -0.452450 0.580319
vn -0.261478 0.174714 0.949265
vn -0.831470 0.555570 0.000000
vn -0.261478 0.174714 -0.949265
vn 0.677140 -0.452450 -0.580319
vn 0.798741 -0.158879 0.580319
vn -0.308435 0.061352 0.949265
vn -0.980785 0.195090 0.000000
vn -0.308435 0.061352 -0.949265
vn 0.798741 -0.158879 -0.580319
vn 0.798741 0.158879 0.580319
vn -0.308435 -0.061352 0.949265
vn -0.980785 -0.195090 0.000000
vn -0.308435 -0.061352 -0.949265
vn 0.798741 0.158879 -0.580319
vn 0.677140 0.452450 0.580319
vn -0.261478 -0.174714 0.949265
vn -0.831470 -0.555570 0.000000
vn -0.261478 -0.174714 -0.949265
vn 0.677140 0.452450 -0.580319
vn 0.452450 0.677140 0.580319
vn -0.174714 -0.261478 0.949265
vn -0.555570 -0.831470 0.000000
vn -0.174714 -0.261478 -0.949265
vn 0.452450 0.677140 -0.580319
vn 0.158879 0.798741 0.580319
vn -0.061352 -0.308435 0.949265
vn -0.195090 -0.980785 0.000000
vn -0.061352 -0.308435 -0.949265
vn 0.158879 0.798741 -0.580319
vn -0.158879 0.798741 0.580319
vn 0.061352 -0.308435 0.949265
vn 0.195090 -0.980785 0.000000
vn 0.061352 -0.308435 -0.949265
vn -0.158879 0.798741 -0.580319
vn -0.452450 0.677140 0.580319
vn 0.174714 -0.261478 0.949265
vn 0.555570 -0.831470 0.000000
vn 0.174714 -0.261478 -0.949265
vn -0.452450 0.677140 -0.580319
vn -0.677140 0.452450 0.580319
vn 0.261478 -0.174714 0.949265
vn 0.831470 -0.555570 0.000000
vn 0.261478 -0.174714 -0.949265
vn -0.677140 0.452450 -0.580319
vn -0.798741 0.158879 0.580319
vn 0.308435 -0.061352 0.949265
vn 0.980785 -0.195090 0.000000
vn 0.308435 -0.061352 -0.949265
vn -0.798741 0.158879 -0.580319
vn -0.798741 -0.158879 0.580319
vn 0.308435 0.061352 0.949265
vn 0.980785 0.195090 0.000000
vn 0.308435 0.061352 -0.949265
vn -0.798741 -0.158879 -0.580319
vn -0.677140 -0.452450 0.580319
vn 0.261478 0.174714 0.949265
vn 0.831470 0.555570 0.000000
vn 0.261478 0.174714 -0.949265
vn -0.677140 -0.452450 -0.580319
vn -0.452450 -0.677140 0.580319
vn 0.174714 0.261478 0.949265
vn 0.555570 0.831470 0.000000
vn 0.174714 0.261478 -0.949265
vn -0.452450 -0.677140 -0.580319
vn -0.158879 -0.798741 0.580319
vn 0.061352 0.308435 0.949265
vn 0.195090 0.980785 0.000000
vn 0.061352 0.308435 -0.949265
vn -0.158879 -0.798741 -0.580319
vn 0.000000 0.000000 -1.000000
vn 0.382683 -0.923880 0.000000
vn 0.923880 -0.382683 0.000000
vn 0.923880 0.382683 0.000000
vn 0.382683 0.923880 0.000000
vn -0.382683 0.923880 0.000000
vn -0.923880 0.382683 0.000000
vn -0.923880 -0.382683 0.000000
vn -0.382683 -0.923880 0.000000
vn 0.000000 0.000000 1.000000
vn 0.000000 0.000000 1.000000
vn 0.000000 0.000000 -1.000000
vn -0.000000 1.000000 0.000000
vn 0.000000 -1.000000 0.000000
vn -1.000000 0.000000 0.000000
vn 1.000000 0.000000 0.000000
vn 0.158879 -0.798741 0.580319
vn -0.061352 0.308435 0.949265
vn -0.195090 0.980785 0.000000
vn -0.061352 0.308435 -0.949265
vn 0.158879 -0.798741 -0.580319
vn 0.452450 -0.677140 0.580319
vn -0.174714 0.261478 0.949265
vn -0.555570 0.831470 0.000000
vn -0.174714 0.261478 -0.949265
vn 0.452450 -0.677140 -0.580319
vn 0.677140 -0.452450 0.580319
vn -0.261478 0.174714 0.949265
vn -0.831470 0.555570 0.000000
vn -0.261478 0.174714 -0.949265
vn 0.677140 -0.452450 -0.580319
vn 0.798741 -0.158879 0.580319
vn -0.308435 0.061352 0.949265
vn -0.980785 0.195090 0.000000
vn -0.308435 0.061352 -0.949265
vn 0.798741 -0.158879 -0.580319
vn 0.798741 0.158879 0.580319
vn -0.308435 -0.061352 0.949265
vn -0.980785 -0.195090 0.000000
vn -0.308435 -0.061352 -0.949265
vn 0.798741 0.158879 -0.580319
vn 0.677140 0.452450 0.580319
vn -0.261478 -0.174714 0.949265
vn -0.831470 -0.555570 0.000000
vn -0.261478 -0.174714 -0.949265
vn 0.677140 0.452450 -0.580319
vn 0.452450 0.677140 0.580319
vn -0.174714 -0.261478 0.949265
vn -0.555570 -0.831470 0.000000
vn -0.174714 -0.261478 -0.949265
vn 0.452450 0.677140 -0.580319
vn 0.158879 0.798741 0.580319
vn -0.061352 -0.308435 0.949265
vn -0.195090 -0.980785 0.000000
vn -0.061352 -0.308435 -0.949265
vn 0.158879 0.798741 -0.580319
vn -0.158879 0.798741 0.580319
vn 0.061352 -0.308435 0.949265
vn 0.195090 -0.980785 0.000000
vn 0.061352 -0.308435 -0.949265
vn -0.158879 0.798741 -0.580319
vn -0.452450 0.677140 0.580319
vn 0.174714 -0.261478 0.949265
vn 0.555570 -0.831470 0.000000
vn 0.174714 -0.261478 -0.949265
vn -0.452450 0.677140 -0.580319
vn -0.677140 0.452450 0.580319
vn 0.261478 -0.174714 0.949265
vn 0.831470 -0.555570 0.000000
vn 0.261478 -0.174714 -0.949265
vn -0.677140 0.452450 -0.580319
vn -0.798741 0.158879 0.580319
vn 0.308435 -0.061352 0.949265
vn 0.980785 -0.195090 0.000000
vn 0.308435 -0.061352 -0.949265
vn -0.798741 0.158879 -0.580319
vn -0.798741 -0.158879 0.580319
vn 0.308435 0.061352 0.949265
vn 0.980785 0.195090 0.000000
vn 0.308435 0.061352 -0.949265
vn -0.798741 -0.158879 -0.580319
vn -0.677140 -0.452450 0.580319
vn 0.261478 0.174714 0.949265
vn 0.831470 0.555570 0.000000
vn 0.261478 0.174714 -0.949265
vn -0.677140 -0.452450 -0.580319
vn -0.452450 -0.677140 0.580319
vn 0.174714 0.261478 0.949265
vn 0.555570 0.831470 0.000000
vn 0.174714 0.261478 -0.949265
vn -0.452450 -0.677140 -0.580319
vn -0.158879 -0.798741 0.580319
vn 0.061352 0.308435 0.949265
vn 0.195090 0.980785 0.000000
vn 0.061352 0.308435 -0.949265
vn -0.158879 -0.798741 -0.580319
vn 0.000000 0.000000 -1.000000
vn 0.382683 -0.923880 0.000000
vn 0.923880 -0.382683 0.000000
vn 0.923880 0.382683 0.000000
vn 0.382683 0.923880 0.000000
vn -0.382683 0.923880 0.000000
vn -0.923880 0.382683 0.000000
vn -0.923880 -0.382683 0.000000
vn -0.382683 -0.923880 0.000000
vn 0.000000 0.000000 1.000000
f 1/1/1 2/2/1 3/3/1
f 1/1/1 3/3/1 4/4/1
f 5/5/2 6/6/2 7/7/2
f 5/5/2 7/7/2 8/8/2
f 4/9/3 3/10/3 8/11/3
f 4/9/3 8/11/3 7/12/3
f 6/12/4 5/11/4 2/10/4
f 6/12/4 2/10/4 1/9/4
f 6/13/5 1/14/5 4/15/5
f 6/13/5 4/15/5 7/16/5
f 2/14/6 5/13/6 8/16/6
f 2/14/6 8/16/6 3/15/6
f 9/17/7 10/18/7 11/19/7
f 9/17/7 11/19/7 12/20/7
f 13/21/8 14/22/8 15/23/8
f 13/21/8 15/23/8 16/24/8
f 12/25/9 11/26/9 16/27/9
f 12/25/9 16/27/9 15/28/9
f 14/28/10 13/27/10 10/26/10
f 14/28/10 10/26/10 9/25/10
f 14/29/11 9/30/11 12/31/11
f 14/29/11 12/31/11 15/32/11
f 10/30/12 13/29/12 16/32/12
f 10/30/12 16/32/12 11/31/12
f 17/33/13 18/34/13 19/35/13
f 17/33/13 19/35/13 20/36/13
f 21/37/14 22/38/14 23/39/14
f 21/37/14 23/39/14 24/40/14
f 20/41/15 19/42/15 24/43/15
f 20/41/15 24/43/15 23/44/15
f 22/44/16 21/43/16 18/42/16
f 22/44/16 18/42/16 17/41/16
f 22/45/17 17/46/17 20/47/17
f 22/45/17 20/47/17 23/48/17
f 18/46/18 21/45/18 24/48/18
f 18/46/18 24/48/18 19/47/18
f 25/49/19 26/50/19 27/51/19
f 25/49/19 27/51/19 28/52/19
f 29/53/20 30/54/20 31/55/20
f 29/53/20 31/55/20 32/56/20
f 28/57/21 27/58/21 32/59/21
f 28/57/21 32/59/21 31/60/21
f 30/60/22 29/59/22 26/58/22
f 30/60/22 26/58/22 25/57/22
f 30/61/23 25/62/23 28/63/23
f 30/61/23 28/63/23 31/64/23
f 26/62/24 29/61/24 32/64/24
f 26/62/24 32/64/24 27/63/24
f 33/65/25 34/66/25 35/67/25
f 33/65/25 35/67/25 36/68/25
f 34/69/26 37/70/26 38/71/26
f 34/69/26 38/71/26 35/72/26
f 37/70/27 39/73/27 40/74/27
f 37/70/27 40/74/27 38/71/27
f 39/75/28 41/76/28 42/77/28
f 39/75/28 42/77/28 40/78/28
f 41/76/29 43/79/29 44/80/29
f 41/76/29 44/80/29 42/77/29
f 43/73/30 45/70/30 46/71/30
f 43/73/30 46/71/30 44/74/30
f 45/70/31 47/69/31 48/72/31
f 45/70/31 48/72/31 46/71/31
f 47/81/32 33/65/32 36/68/32
f 47/81/32 36/68/32 48/82/32
f 36/83/33 35/84/33 49/85/33
f 36/83/33 49/85/33 50/86/33
f 35/84/34 38/87/34 51/88/34
f 35/84/34 51/88/34 49/85/34
f 38/87/35 40/89/35 52/90/35
f 38/87/35 52/90/35 51/88/35
f 40/89/36 42/91/36 53/92/36
f 40/78/36 53/93/36 52/94/36
f 42/91/37 44/95/37 54/96/37
f 42/91/37 54/96/37 53/92/37
f 44/95/38 46/97/38 55/98/38
f 44/95/38 55/98/38 54/96/38
f 46/97/39 48/99/39 56/100/39
f 46/97/39 56/100/39 55/98/39
f 48/99/40 36/83/40 50/86/40
f 48/82/40 50/101/40 56/102/40
f 50/86/41 49/85/41 57/103/41
f 49/85/42 51/88/42 57/103/42
f 51/88/43 52/90/43 57/103/43
f 52/90/44 53/92/44 57/103/44
f 53/92/45 54/96/45 57/103/45
f 54/96/46 55/98/46 57/103/46
f 55/98/47 56/100/47 57/103/47
f 56/100/48 50/86/48 57/103/48
f 58/104/49 59/105/49 60/106/49
f 58/104/49 60/106/49 61/107/49
f 62/108/50 63/109/50 64/110/50
f 62/108/50 64/110/50 65/111/50
f 61/112/51 60/113/51 65/114/51
f 61/112/51 65/114/51 64/115/51
f 63/115/52 62/114/52 59/113/52
f 63/115/52 59/113/52 58/112/52
f 63/116/53 58/117/53 61/118/53
f 63/116/53 61/118/53 64/119/53
f 59/117/54 62/116/54 65/119/54
f 59/117/54 65/119/54 60/118/54
f 66/120/55 67/121/55 68/122/55
f 66/120/55 69/123/55 67/121/55
f 66/120/55 70/124/55 69/123/55
f 66/120/55 71/125/55 70/124/55
f 66/120/55 72/126/55 71/125/55
f 66/120/55 73/127/55 72/126/55
f 66/120/55 74/128/55 73/127/55
f 66/120/55 68/122/55 74/128/55
f 68/129/56 67/130/56 75/131/56
f 68/129/56 75/131/56 76/132/56
f 67/133/57 69/134/57 77/134/57
f 67/133/57 77/134/57 75/133/57
f 69/134/58 70/135/58 78/135/58
f 69/134/58 78/135/58 77/134/58
f 70/130/59 71/129/59 79/132/59
f 70/130/59 79/132/59 78/131/59
f 71/129/60 72/136/60 80/137/60
f 71/129/60 80/137/60 79/132/60
f 72/138/61 73/139/61 81/140/61
f 72/138/61 81/140/61 80/141/61
f 73/139/62 74/142/62 82/143/62
f 73/139/62 82/143/62 81/140/62
f 74/136/63 68/129/63 76/132/63
f 74/136/63 76/132/63 82/137/63
f 76/144/64 75/145/64 83/146/64
f 75/145/64 77/147/64 83/146/64
f 77/147/64 78/148/64 83/146/64
f 78/148/64 79/149/64 83/146/64
f 79/149/64 80/150/64 83/146/64
f 80/150/64 81/151/64 83/146/64
f 81/151/64 82/152/64 83/146/64
f 82/152/64 76/144/64 83/146/64
f 84/153/65 85/154/65 86/155/65
f 84/153/65 87/156/65 85/154/65
f 84/153/65 88/157/65 87/156/65
f 84/153/65 89/158/65 88/157/65
f 84/153/65 90/159/65 89/158/65
f 84/153/65 91/160/65 90/159/65
f 84/153/65 92/161/65 91/160/65
f 84/153/65 86/155/65 92/161/65
f 86/162/66 85/163/66 93/164/66
f 86/162/66 93/164/66 94/165/66
f 85/166/67 87/167/67 95/168/67
f 85/166/67 95/168/67 93/169/67
f 87/167/68 88/170/68 96/171/68
f 87/167/68 96/171/68 95/168/68
f 88/163/69 89/162/69 97/165/69
f 88/163/69 97/165/69 96/164/69
f 89/162/70 90/172/70 98/173/70
f 89/162/70 98/173/70 97/165/70
f 90/174/71 91/175/71 99/175/71
f 90/174/71 99/175/71 98/174/71
f 91/175/72 92/176/72 100/176/72
f 91/175/72 100/176/72 99/175/72
f 92/172/73 86/162/73 94/165/73
f 92/172/73 94/165/73 100/173/73
f 94/177/74 93/178/74 101/179/74
f 93/178/74 95/180/74 101/179/74
f 95/180/74 96/181/74 101/179/74
f 96/181/74 97/182/74 101/179/74
f 97/182/74 98/183/74 101/179/74
f 98/183/74 99/184/74 101/179/74
f 99/184/74 100/185/74 101/179/74
f 100/185/74 94/177/74 101/179/74
f 102/186/75 103/187/75 104/188/75
f 102/186/75 104/188/75 105/189/75
f 106/190/76 107/191/76 108/192/76
f 106/190/76 108/192/76 109/193/76
f 105/194/77 104/195/77 109/196/77
f 105/194/77 109/196/77 108/197/77
f 107/197/78 106/196/78 103/195/78
f 107/197/78 103/195/78 102/194/78
f 107/198/79 102/199/79 105/200/79
f 107/198/79 105/200/79 108/201/79
f 103/199/80 106/198/80 109/201/80
f 103/199/80 109/201/80 104/200/80
f 110/202/81 111/203/81 112/204/81
f 110/202/81 112/204/81 113/205/81
f 113/206/82 112/207/82 114/208/82
f 113/206/82 114/208/82 115/209/82
f 115/210/83 114/211/83 116/212/83
f 115/210/83 116/212/83 117/213/83
f 117/214/84 116/215/84 118/216/84
f 117/214/84 118/216/84 119/217/84
f 119/218/85 118/219/85 111/203/85
f 119/218/85 111/203/85 110/202/85
f 111/203/86 120/220/86 121/221/86
f 111/203/86 121/221/86 112/204/86
f 112/207/87 121/222/87 122/223/87
f 112/207/87 122/223/87 114/208/87
f 114/211/88 122/224/88 123/225/88
f 114/211/88 123/225/88 116/212/88
f 116/215/89 123/226/89 124/227/89
f 116/215/89 124/227/89 118/216/89
f 118/219/90 124/228/90 120/220/90
f 118/219/90 120/220/90 111/203/90
f 120/229/91 125/230/91 126/231/91
f 120/229/91 126/231/91 121/232/91
f 121/222/92 126/233/92 127/234/92
f 121/222/92 127/234/92 122/223/92
f 122/235/93 127/236/93 128/237/93
f 122/235/93 128/237/93 123/238/93
f 123/226/94 128/239/94 129/240/94
f 123/226/94 129/240/94 124/227/94
f 124/241/95 129/242/95 125/230/95
f 124/241/95 125/230/95 120/229/95
f 125/230/96 130/243/96 131/244/96
f 125/230/96 131/244/96 126/231/96
f 126/233/97 131/245/97 132/246/97
f 126/233/97 132/246/97 127/234/97
f 127/236/98 132/247/98 133/248/98
f 127/236/98 133/248/98 128/237/98
f 128/239/99 133/249/99 134/250/99
f 128/239/99 134/250/99 129/240/99
f 129/242/100 134/251/100 130/243/100
f 129/242/100 130/243/100 125/230/100
f 130/243/101 135/252/101 136/253/101
f 130/243/101 136/253/101 131/244/101
f 131/245/102 136/254/102 137/255/102
f 131/245/102 137/255/102 132/246/102
f 132/247/103 137/256/103 138/257/103
f 132/247/103 138/257/103 133/248/103
f 133/249/104 138/258/104 139/259/104
f 133/249/104 139/259/104 134/250/104
f 134/251/105 139/260/105 135/252/105
f 134/251/105 135/252/105 130/243/105
f 135/252/106 140/261/106 141/262/106
f 135/252/106 141/262/106 136/253/106
f 136/254/107 141/263/107 142/264/107
f 136/254/107 142/264/107 137/255/107
f 137/256/108 142/265/108 143/266/108
f 137/256/108 143/266/108 138/257/108
f 138/258/109 143/267/109 144/268/109
f 138/258/109 144/268/109 139/259/109
f 139/260/110 144/269/110 140/261/110
f 139/260/110 140/261/110 135/252/110
f 140/220/111 145/203/111 146/204/111
f 140/220/111 146/204/111 141/221/111
f 141/263/112 146/270/112 147/271/112
f 141/263/112 147/271/112 142/264/112
f 142/224/113 147/211/113 148/212/113
f 142/224/113 148/212/113 143/225/113
f 143/267/114 148/272/114 149/273/114
f 143/267/114 149/273/114 144/268/114
f 144/228/115 149/219/115 145/203/115
f 144/228/115 145/203/115 140/220/115
f 145/203/116 150/202/116 151/205/116
f 145/203/116 151/205/116 146/204/116
f 146/270/117 151/274/117 152/275/117
f 146/270/117 152/275/117 147/271/117
f 147/211/118 152/210/118 153/213/118
f 147/211/118 153/213/118 148/212/118
f 148/272/119 153/276/119 154/277/119
f 148/272/119 154/277/119 149/273/119
f 149/219/120 154/218/120 150/202/120
f 149/219/120 150/202/120 145/203/120
f 150/202/121 155/278/121 156/279/121
f 150/202/121 156/279/121 151/205/121
f 151/274/122 156/280/122 157/281/122
f 151/274/122 157/281/122 152/275/122
f 152/210/123 157/282/123 158/283/123
f 152/210/123 158/283/123 153/213/123
f 153/276/124 158/284/124 159/285/124
f 153/276/124 159/285/124 154/277/124
f 154/218/125 159/286/125 155/278/125
f 154/218/125 155/278/125 150/202/125
f 155/278/126 160/287/126 161/288/126
f 155/278/126 161/288/126 156/279/126
f 156/280/127 161/289/127 162/290/127
f 156/280/127 162/290/127 157/281/127
f 157/282/128 162/291/128 163/292/128
f 157/282/128 163/292/128 158/283/128
f 158/284/129 163/293/129 164/294/129
f 158/284/129 164/294/129 159/285/129
f 159/286/130 164/295/130 160/287/130
f 159/286/130 160/287/130 155/278/130
f 160/261/131 165/252/131 166/253/131
f 160/261/131 166/253/131 161/262/131
f 161/289/132 166/296/132 167/297/132
f 161/289/132 167/297/132 162/290/132
f 162/265/133 167/256/133 168/257/133
f 162/265/133 168/257/133 163/266/133
f 163/293/134 168/298/134 169/299/134
f 163/293/134 169/299/134 164/294/134
f 164/269/135 169/260/135 165/252/135
f 164/269/135 165/252/135 160/261/135
f 165/252/136 170/243/136 171/244/136
f 165/252/136 171/244/136 166/253/136
f 166/296/137 171/300/137 172/301/137
f 166/296/137 172/301/137 167/297/137
f 167/256/138 172/247/138 173/248/138
f 167/256/138 173/248/138 168/257/138
f 168/298/139 173/302/139 174/303/139
f 168/298/139 174/303/139 169/299/139
f 169/260/140 174/251/140 170/243/140
f 169/260/140 170/243/140 165/252/140
f 170/243/141 175/230/141 176/231/141
f 170/243/141 176/231/141 171/244/141
f 171/300/142 176/304/142 177/305/142
f 171/300/142 177/305/142 172/301/142
f 172/247/143 177/236/143 178/237/143
f 172/247/143 178/237/143 173/248/143
f 173/302/144 178/306/144 179/307/144
f 173/302/144 179/307/144 174/303/144
f 174/251/145 179/242/145 175/230/145
f 174/251/145 175/230/145 170/243/145
f 175/230/146 180/229/146 181/232/146
f 175/230/146 181/232/146 176/231/146
f 176/304/147 181/308/147 182/309/147
f 176/304/147 182/309/147 177/305/147
f 177/236/148 182/235/148 183/238/148
f 177/236/148 183/238/148 178/237/148
f 178/306/149 183/310/149 184/311/149
f 178/306/149 184/311/149 179/307/149
f 179/242/150 184/241/150 180/229/150
f 179/242/150 180/229/150 175/230/150
f 180/287/151 185/278/151 186/279/151
f 180/287/151 186/279/151 181/288/151
f 181/308/152 186/312/152 187/313/152
f 181/308/152 187/313/152 182/309/152
f 182/291/153 187/282/153 188/283/153
f 182/291/153 188/283/153 183/292/153
f 183/310/154 188/314/154 189/315/154
f 183/310/154 189/315/154 184/311/154
f 184/295/155 189/286/155 185/278/155
f 184/295/155 185/278/155 180/287/155
f 185/278/156 110/202/156 113/205/156
f 185/278/156 113/205/156 186/279/156
f 186/312/157 113/206/157 115/209/157
f 186/312/157 115/209/157 187/313/157
f 187/282/158 115/210/158 117/213/158
f 187/282/158 117/213/158 188/283/158
f 188/314/159 117/214/159 119/217/159
f 188/314/159 119/217/159 189/315/159
f 189/286/160 119/218/160 110/202/160
f 189/286/160 110/202/160 185/278/160
f 190/316/161 191/317/161 192/318/161
f 190/316/161 193/319/161 191/317/161
f 190/316/161 194/320/161 193/319/161
f 190/316/161 195/321/161 194/320/161
f 190/316/161 196/322/161 195/321/161
f 190/316/161 197/323/161 196/322/161
f 190/316/161 198/324/161 197/323/161
f 190/316/161 192/318/161 198/324/161
f 192/325/162 191/326/162 199/327/162
f 192/325/162 199/327/162 200/328/162
f 191/329/163 193/330/163 201/331/163
f 191/329/163 201/331/163 199/332/163
f 193/330/164 194/333/164 202/334/164
f 193/330/164 202/334/164 201/331/164
f 194/326/165 195/325/165 203/328/165
f 194/326/165 203/328/165 202/327/165
f 195/325/166 196/335/166 204/336/166
f 195/325/166 204/336/166 203/328/166
f 196/333/167 197/330/167 205/331/167
f 196/333/167 205/331/167 204/334/167
f 197/330/168 198/329/168 206/332/168
f 197/330/168 206/332/168 205/331/168
f 198/335/169 192/325/169 200/328/169
f 198/335/169 200/328/169 206/336/169
f 200/337/170 199/338/170 207/339/170
f 199/338/170 201/340/170 207/339/170
f 201/340/170 202/341/170 207/339/170
f 202/341/170 203/342/170 207/339/170
f 203/342/170 204/343/170 207/339/170
f 204/343/170 205/344/170 207/339/170
f 205/344/170 206/345/170 207/339/170
f 206/345/170 200/337/170 207/339/170
f 208/346/171 209/347/171 210/348/171
f 208/346/171 210/348/171 211/349/171
f 212/350/172 213/351/172 214/352/172
f 212/350/172 214/352/172 215/353/172
f 211/354/173 210/355/173 215/356/173
f 211/354/173 215/356/173 214/357/173
f 213/357/174 212/356/174 209/355/174
f 213/357/174 209/355/174 208/354/174
f 213/358/175 208/359/175 211/360/175
f 213/358/175 211/360/175 214/361/175
f 209/359/176 212/358/176 215/361/176
f 209/359/176 215/361/176 210/360/176
f 216/362/177 217/363/177 218/364/177
f 216/362/177 218/364/177 219/365/177
f 219/366/178 218/367/178 220/368/178
f 219/366/178 220/368/178 221/369/178
f 221/370/179 220/371/179 222/372/179
f 221/370/179 222/372/179 223/373/179
f 223/374/180 222/375/180 224/376/180
f 223/374/180 224/376/180 225/377/180
f 225/378/181 224/379/181 217/363/181
f 225/378/181 217/363/181 216/362/181
f 217/363/182 226/380/182 227/381/182
f 217/363/182 227/381/182 218/364/182
f 218/367/183 227/382/183 228/383/183
f 218/367/183 228/383/183 220/368/183
f 220/371/184 228/384/184 229/385/184
f 220/371/184 229/385/184 222/372/184
f 222/375/185 229/386/185 230/387/185
f 222/375/185 230/387/185 224/376/185
f 224/379/186 230/388/186 226/380/186
f 224/379/186 226/380/186 217/363/186
f 226/389/187 231/390/187 232/391/187
f 226/389/187 232/391/187 227/392/187
f 227/382/188 232/393/188 233/394/188
f 227/382/188 233/394/188 228/383/188
f 228/395/189 233/396/189 234/397/189
f 228/395/189 234/397/189 229/398/189
f 229/386/190 234/399/190 235/400/190
f 229/386/190 235/400/190 230/387/190
f 230/401/191 235/402/191 231/390/191
f 230/401/191 231/390/191 226/389/191
f 231/390/192 236/403/192 237/404/192
f 231/390/192 237/404/192 232/391/192
f 232/393/193 237/405/193 238/406/193
f 232/393/193 238/406/193 233/394/193
f 233/396/194 238/407/194 239/408/194
f 233/396/194 239/408/194 234/397/194
f 234/399/195 239/409/195 240/410/195
f 234/399/195 240/410/195 235/400/195
f 235/402/196 240/411/196 236/403/196
f 235/402/196 236/403/196 231/390/196
f 236/403/197 241/412/197 242/413/197
f 236/403/197 242/413/197 237/404/197
f 237/405/198 242/414/198 243/415/198
f 237/405/198 243/415/198 238/406/198
f 238/407/199 243/416/199 244/417/199
f 238/407/199 244/417/199 239/408/199
f 239/409/200 244/418/200 245/419/200
f 239/409/200 245/419/200 240/410/200
f 240/411/201 245/420/201 241/412/201
f 240/411/201 241/412/201 236/403/201
f 241/412/202 246/421/202 247/422/202
f 241/412/202 247/422/202 242/413/202
f 242/414/203 247/423/203 248/424/203
f 242/414/203 248/424/203 243/415/203
f 243/416/204 248/425/204 249/426/204
f 243/416/204 249/426/204 244/417/204
f 244/418/205 249/427/205 250/428/205
f 244/418/205 250/428/205 245/419/205
f 245/420/206 250/429/206 246/421/206
f 245/420/206 246/421/206 241/412/206
f 246/380/207 251/363/207 252/364/207
f 246/380/207 252/364/207 247/381/207
f 247/423/208 252/430/208 253/431/208
f 247/423/208 253/431/208 248/424/208
f 248/384/209 253/371/209 254/372/209
f 248/384/209 254/372/209 249/385/209
f 249/427/210 254/432/210 255/433/210
f 249/427/210 255/433/210 250/428/210
f 250/388/211 255/379/211 251/363/211
f 250/388/211 251/363/211 246/380/211
f 251/363/212 256/362/212 257/365/212
f 251/363/212 257/365/212 252/364/212
f 252/430/213 257/434/213 258/435/213
f 252/430/213 258/435/213 253/431/213
f 253/371/214 258/370/214 259/373/214
f 253/371/214 259/373/214 254/372/214
f 254/432/215 259/436/215 260/437/215
f 254/432/215 260/437/215 255/433/215
f 255/379/216 260/378/216 256/362/216
f 255/379/216 256/362/216 251/363/216
f 256/362/217 261/438/217 262/439/217
f 256/362/217 262/439/217 257/365/217
f 257/434/218 262/440/218 263/441/218
f 257/434/218 263/441/218 258/435/218
f 258/370/219 263/442/219 264/443/219
f 258/370/219 264/443/219 259/373/219
f 259/436/220 264/444/220 265/445/220
f 259/436/220 265/445/220 260/437/220
f 260/378/221 265/446/221 261/438/221
f 260/378/221 261/438/221 256/362/221
f 261/438/222 266/447/222 267/448/222
f 261/438/222 267/448/222 262/439/222
f 262/440/223 267/449/223 268/450/223
f 262/440/223 268/450/223 263/441/223
f 263/442/224 268/451/224 269/452/224
f 263/442/224 269/452/224 264/443/224
f 264/444/225 269/453/225 270/454/225
f 264/444/225 270/454/225 265/445/225
f 265/446/226 270/455/226 266/447/226
f 265/446/226 266/447/226 261/438/226
f 266/421/227 271/412/227 272/413/227
f 266/421/227 272/413/227 267/422/227
f 267/449/228 272/456/228 273/457/228
f 267/449/228 273/457/228 268/450/228
f 268/425/229 273/416/229 274/417/229
f 268/425/229 274/417/229 269/426/229
f 269/453/230 274/458/230 275/459/230
f 269/453/230 275/459/230 270/454/230
f 270/429/231 275/420/231 271/412/231
f 270/429/231 271/412/231 266/421/231
f 271/412/232 276/403/232 277/404/232
f 271/412/232 277/404/232 272/413/232
f 272/456/233 277/460/233 278/461/233
f 272/456/233 278/461/233 273/457/233
f 273/416/234 278/407/234 279/408/234
f 273/416/234 279/408/234 274/417/234
f 274/458/235 279/462/235 280/463/235
f 274/458/235 280/463/235 275/459/235
f 275/420/236 280/411/236 276/403/236
f 275/420/236 276/403/236 271/412/236
f 276/403/237 281/390/237 282/391/237
f 276/403/237 282/391/237 277/404/237
f 277/460/238 282/464/238 283/465/238
f 277/460/238 283/465/238 278/461/238
f 278/407/239 283/396/239 284/397/239
f 278/407/239 284/397/239 279/408/239
f 279/462/240 284/466/240 285/467/240
f 279/462/240 285/467/240 280/463/240
f 280/411/241 285/402/241 281/390/241
f 280/411/241 281/390/241 276/403/241
f 281/390/242 286/389/242 287/392/242
f 281/390/242 287/392/242 282/391/242
f 282/464/243 287/468/243 288/469/243
f 282/464/243 288/469/243 283/465/243
f 283/396/244 288/395/244 289/398/244
f 283/396/244 289/398/244 284/397/244
f 284/466/245 289/470/245 290/471/245
f 284/466/245 290/471/245 285/467/245
f 285/402/246 290/401/246 286/389/246
f 285/402/246 286/389/246 281/390/246
f 286/447/247 291/438/247 292/439/247
f 286/447/247 292/439/247 287/448/247
f 287/468/248 292/472/248 293/473/248
f 287/468/248 293/473/248 288/469/248
f 288/451/249 293/442/249 294/443/249
f 288/451/249 294/443/249 289/452/249
f 289/470/250 294/474/250 295/475/250
f 289/470/250 295/475/250 290/471/250
f 290/455/251 295/446/251 291/438/251
f 290/455/251 291/438/251 286/447/251
f 291/438/252 216/362/252 219/365/252
f 291/438/252 219/365/252 292/439/252
f 292/472/253 219/366/253 221/369/253
f 292/472/253 221/369/253 293/473/253
f 293/442/254 221/370/254 223/373/254
f 293/442/254 223/373/254 294/443/254
f 294/474/255 223/374/255 225/377/255
f 294/474/255 225/377/255 295/475/255
f 295/446/256 225/378/256 216/362/256
f 295/446/256 216/362/256 291/438/256
f 296/476/257 297/477/257 298/478/257
f 296/476/257 299/479/257 297/477/257
f 296/476/257 300/480/257 299/479/257
f 296/476/257 301/481/257 300/480/257
f 296/476/257 302/482/257 301/481/257
f 296/476/257 303/483/257 302/482/257
f 296/476/257 304/484/257 303/483/257
f 296/476/257 298/478/257 304/484/257
f 298/485/258 297/486/258 305/487/258
f 298/485/258 305/487/258 306/488/258
f 297/489/259 299/490/259 307/491/259
f 297/489/259 307/491/259 305/492/259
f 299/490/260 300/493/260 308/494/260
f 299/490/260 308/494/260 307/491/260
f 300/486/261 301/485/261 309/488/261
f 300/486/261 309/488/261 308/487/261
f 301/485/262 302/495/262 310/496/262
f 301/485/262 310/496/262 309/488/262
f 302/493/263 303/490/263 311/491/263
f 302/493/263 311/491/263 310/494/263
f 303/490/264 304/489/264 312/492/264
f 303/490/264 312/492/264 311/491/264
f 304/495/265 298/485/265 306/488/265
f 304/495/265 306/488/265 312/496/265
f 306/497/266 305/498/266 313/499/266
f 305/498/266 307/500/266 313/499/266
f 307/500/266 308/501/266 313/499/266
f 308/501/266 309/502/266 313/499/266
f 309/502/266 310/503/266 313/499/266
f 310/503/266 311/504/266 313/499/266
f 311/504/266 312/505/266 313/499/266
f 312/505/266 306/497/266 313/499/266
