# Vaelith frigate, from tools/gen_fleet.py
# Generated by tools. Edit the generator script.
v -0.090844 0.222831 1.773433
v 0.090844 0.222831 1.773433
v 0.090844 0.316837 1.764001
v -0.090844 0.316837 1.764001
v 0.259556 0.011160 0.542548
v -0.259556 0.011160 0.542548
v -0.259556 0.279749 0.515600
v 0.259556 0.279749 0.515600
v 0.000000 0.205779 1.754275
v 0.036615 0.217616 1.753087
v 0.031710 0.227444 1.783404
v 0.000000 0.217192 1.784433
v 0.059244 0.248607 1.749978
v 0.051307 0.254283 1.780711
v 0.059244 0.286915 1.746134
v 0.051307 0.287458 1.777383
v 0.036615 0.317906 1.743025
v 0.031710 0.314297 1.774690
v 0.000000 0.329743 1.741837
v 0.000000 0.324549 1.773661
v -0.036615 0.317906 1.743025
v -0.031710 0.314297 1.774690
v -0.059244 0.286915 1.746134
v -0.051307 0.287458 1.777383
v -0.059244 0.248607 1.749978
v -0.051307 0.254283 1.780711
v -0.036615 0.217616 1.753087
v -0.031710 0.227444 1.783404
v 0.018308 0.248074 1.804250
v 0.000000 0.242156 1.804843
v 0.029622 0.263570 1.802695
v 0.029622 0.282724 1.800773
v 0.018308 0.298219 1.799218
v 0.000000 0.304138 1.798624
v -0.018308 0.298219 1.799218
v -0.029622 0.282724 1.800773
v -0.029622 0.263570 1.802695
v -0.018308 0.248074 1.804250
v 0.000000 0.273980 1.810038
v -1.816889 0.145351 -0.979460
v -1.199147 0.145351 -0.979460
v -1.188888 0.145351 -0.822940
v -1.801345 0.145351 -0.742309
v -1.801345 0.000000 -0.742309
v -1.188888 0.000000 -0.822940
v -1.199147 0.000000 -0.979460
v -1.816889 0.000000 -0.979460
v -1.158287 0.145351 -0.669098
v -1.754980 0.145351 -0.509215
v -1.754980 0.000000 -0.509215
v -1.158287 0.000000 -0.669098
v -1.107867 0.145351 -0.520567
v -1.678586 0.145351 -0.284167
v -1.678586 0.000000 -0.284167
v -1.107867 0.000000 -0.520567
v -1.038491 0.145351 -0.379887
v -1.573472 0.145351 -0.071016
v -1.573472 0.000000 -0.071016
v -1.038491 0.000000 -0.379887
v -0.951347 0.145351 -0.249466
v -1.441435 0.145351 0.126592
v -1.441435 0.000000 0.126592
v -0.951347 0.000000 -0.249466
v -0.847925 0.145351 -0.131535
v -1.284734 0.145351 0.305274
v -1.284734 0.000000 0.305274
v -0.847925 0.000000 -0.131535
v -0.729994 0.145351 -0.028113
v -1.106052 0.145351 0.461975
v -1.106052 0.000000 0.461975
v -0.729994 0.000000 -0.028113
v -0.599573 0.145351 0.059031
v -0.908444 0.145351 0.594012
v -0.908444 0.000000 0.594012
v -0.599573 0.000000 0.059031
v -0.458894 0.145351 0.128407
v -0.695293 0.145351 0.699126
v -0.695293 0.000000 0.699126
v -0.458894 0.000000 0.128407
v -0.310362 0.145351 0.178827
v -0.470245 0.145351 0.775520
v -0.470245 0.000000 0.775520
v -0.310362 0.000000 0.178827
v -0.156520 0.145351 0.209428
v -0.237152 0.145351 0.821885
v -0.237152 0.000000 0.821885
v -0.156520 0.000000 0.209428
v -0.000000 0.145351 0.219686
v -0.000000 0.145351 0.837429
v -0.000000 0.000000 0.837429
v -0.000000 0.000000 0.219686
v 0.156520 0.145351 0.209428
v 0.237152 0.145351 0.821885
v 0.237152 0.000000 0.821885
v 0.156520 0.000000 0.209428
v 0.310362 0.145351 0.178827
v 0.470245 0.145351 0.775520
v 0.470245 0.000000 0.775520
v 0.310362 0.000000 0.178827
v 0.458894 0.145351 0.128407
v 0.695293 0.145351 0.699126
v 0.695293 0.000000 0.699126
v 0.458894 0.000000 0.128407
v 0.599573 0.145351 0.059031
v 0.908444 0.145351 0.594012
v 0.908444 0.000000 0.594012
v 0.599573 0.000000 0.059031
v 0.729994 0.145351 -0.028113
v 1.106052 0.145351 0.461975
v 1.106052 0.000000 0.461975
v 0.729994 0.000000 -0.028113
v 0.847925 0.145351 -0.131535
v 1.284734 0.145351 0.305274
v 1.284734 0.000000 0.305274
v 0.847925 0.000000 -0.131535
v 0.951347 0.145351 -0.249466
v 1.441435 0.145351 0.126592
v 1.441435 0.000000 0.126592
v 0.951347 0.000000 -0.249466
v 1.038491 0.145351 -0.379887
v 1.573472 0.145351 -0.071016
v 1.573472 0.000000 -0.071016
v 1.038491 0.000000 -0.379887
v 1.107867 0.145351 -0.520567
v 1.678586 0.145351 -0.284167
v 1.678586 0.000000 -0.284167
v 1.107867 0.000000 -0.520567
v 1.158287 0.145351 -0.669098
v 1.754980 0.145351 -0.509215
v 1.754980 0.000000 -0.509215
v 1.158287 0.000000 -0.669098
v 1.188888 0.145351 -0.822940
v 1.801345 0.145351 -0.742309
v 1.801345 0.000000 -0.742309
v 1.188888 0.000000 -0.822940
v 1.199147 0.145351 -0.979460
v 1.816889 0.145351 -0.979460
v 1.816889 0.000000 -0.979460
v 1.199147 0.000000 -0.979460
v 1.412195 0.072676 -0.465463
v 1.429950 0.072676 -0.514244
v 1.412195 0.020764 -0.465463
v 1.412195 0.124587 -0.465463
v 1.394440 0.072676 -0.416683
v 1.900000 0.072676 -0.287917
v -1.412195 0.072676 -0.465463
v -1.394440 0.072676 -0.416683
v -1.412195 0.020764 -0.465463
v -1.412195 0.124587 -0.465463
v -1.429950 0.072676 -0.514244
v -1.900000 0.072676 -0.287917
v -1.103111 0.164039 -0.148882
v -0.838364 0.164039 -0.148882
v -0.838364 0.375836 -0.148882
v -1.103111 0.375836 -0.148882
v -0.858610 0.180235 -1.810038
v -1.082866 0.180235 -1.810038
v -1.082866 0.359640 -1.810038
v -0.858610 0.359640 -1.810038
v -1.009671 0.372722 -0.464502
v -0.931804 0.372722 -0.464502
v -0.931804 0.410098 -0.464502
v -1.009671 0.410098 -0.464502
v -0.931804 0.372722 -1.494418
v -1.009671 0.372722 -1.494418
v -1.009671 0.410098 -1.494418
v -0.931804 0.410098 -1.494418
v -1.056391 0.199858 -1.574362
v -0.885084 0.199858 -1.574362
v -0.885084 0.340018 -1.574362
v -1.056391 0.340018 -1.574362
v -0.885084 0.199858 -1.611738
v -1.056391 0.199858 -1.611738
v -1.056391 0.340018 -1.611738
v -0.885084 0.340018 -1.611738
v 0.838364 0.164039 -0.148882
v 1.103111 0.164039 -0.148882
v 1.103111 0.375836 -0.148882
v 0.838364 0.375836 -0.148882
v 1.082866 0.180235 -1.810038
v 0.858610 0.180235 -1.810038
v 0.858610 0.359640 -1.810038
v 1.082866 0.359640 -1.810038
v 0.931804 0.372722 -0.464502
v 1.009671 0.372722 -0.464502
v 1.009671 0.410098 -0.464502
v 0.931804 0.410098 -0.464502
v 1.009671 0.372722 -1.494418
v 0.931804 0.372722 -1.494418
v 0.931804 0.410098 -1.494418
v 1.009671 0.410098 -1.494418
v 0.885084 0.199858 -1.574362
v 1.056391 0.199858 -1.574362
v 1.056391 0.340018 -1.574362
v 0.885084 0.340018 -1.574362
v 1.056391 0.199858 -1.611738
v 0.885084 0.199858 -1.611738
v 0.885084 0.340018 -1.611738
v 1.056391 0.340018 -1.611738
v -0.970738 0.145351 -0.169647
v -0.897508 0.169145 -0.169647
v -0.907319 0.182649 -0.107354
v -0.970738 0.162043 -0.107354
v -0.852249 0.231438 -0.169647
v -0.868123 0.236596 -0.107354
v -0.852249 0.308437 -0.169647
v -0.868123 0.303279 -0.107354
v -0.897508 0.370731 -0.169647
v -0.907319 0.357227 -0.107354
v -0.970738 0.394524 -0.169647
v -0.970738 0.377833 -0.107354
v -1.043968 0.370731 -0.169647
v -1.034157 0.357227 -0.107354
v -1.089227 0.308437 -0.169647
v -1.073352 0.303279 -0.107354
v -1.089227 0.231438 -0.169647
v -1.073352 0.236596 -0.107354
v -1.043968 0.169145 -0.169647
v -1.034157 0.182649 -0.107354
v -0.934123 0.219541 -0.061752
v -0.970738 0.207644 -0.061752
v -0.911493 0.250688 -0.061752
v -0.911493 0.289187 -0.061752
v -0.934123 0.320334 -0.061752
v -0.970738 0.332231 -0.061752
v -1.007353 0.320334 -0.061752
v -1.029982 0.289187 -0.061752
v -1.029982 0.250688 -0.061752
v -1.007353 0.219541 -0.061752
v -0.970738 0.269938 -0.045060
v -1.406791 0.124587 -0.823727
v -1.053796 0.124587 -0.823727
v -1.053796 0.290702 -0.823727
v -1.406791 0.290702 -0.823727
v -1.053796 0.124587 -1.135194
v -1.406791 0.124587 -1.135194
v -1.406791 0.290702 -1.135194
v -1.053796 0.290702 -1.135194
v 0.970738 0.145351 -0.169647
v 1.043968 0.169145 -0.169647
v 1.034157 0.182649 -0.107354
v 0.970738 0.162043 -0.107354
v 1.089227 0.231438 -0.169647
v 1.073352 0.236596 -0.107354
v 1.089227 0.308437 -0.169647
v 1.073352 0.303279 -0.107354
v 1.043968 0.370731 -0.169647
v 1.034157 0.357227 -0.107354
v 0.970738 0.394524 -0.169647
v 0.970738 0.377833 -0.107354
v 0.897508 0.370731 -0.169647
v 0.907319 0.357227 -0.107354
v 0.852249 0.308437 -0.169647
v 0.868123 0.303279 -0.107354
v 0.852249 0.231438 -0.169647
v 0.868123 0.236596 -0.107354
v 0.897508 0.169145 -0.169647
v 0.907319 0.182649 -0.107354
v 1.007353 0.219541 -0.061752
v 0.970738 0.207644 -0.061752
v 1.029982 0.250688 -0.061752
v 1.029982 0.289187 -0.061752
v 1.007353 0.320334 -0.061752
v 0.970738 0.332231 -0.061752
v 0.934123 0.320334 -0.061752
v 0.911493 0.289187 -0.061752
v 0.911493 0.250688 -0.061752
v 0.934123 0.219541 -0.061752
v 0.970738 0.269938 -0.045060
v 1.053796 0.124587 -0.823727
v 1.406791 0.124587 -0.823727
v 1.406791 0.290702 -0.823727
v 1.053796 0.290702 -0.823727
v 1.406791 0.124587 -1.135194
v 1.053796 0.124587 -1.135194
v 1.053796 0.290702 -1.135194
v 1.406791 0.290702 -1.135194
vt 0.499219 0.447731
vt 0.532031 0.447731
vt 0.532031 0.476562
vt 0.499219 0.476562
vt 0.195312 0.382812
vt 0.007812 0.382812
vt 0.007812 0.465188
vt 0.195312 0.465188
vt 0.063672 0.654961
vt 0.123828 0.654961
vt 0.179688 0.484375
vt 0.007812 0.484375
vt 0.007812 0.488057
vt 0.179688 0.488057
vt 0.123828 0.656250
vt 0.063672 0.656250
vt 0.011830 0.382812
vt 0.195312 0.447731
vt 0.193906 0.476562
vt 0.007812 0.465188
vt 0.054688 0.298347
vt 0.083658 0.296715
vt 0.079777 0.338389
vt 0.054688 0.339803
vt 0.023277 0.290202
vt 0.019003 0.313640
vt 0.061250 0.317932
vt 0.064951 0.297635
vt 0.013719 0.342610
vt 0.056674 0.343021
vt 0.009445 0.366048
vt 0.052972 0.363319
vt 0.083658 0.282883
vt 0.054688 0.281250
vt 0.054688 0.324996
vt 0.079777 0.326410
vt 0.025717 0.282883
vt 0.029598 0.326410
vt 0.025717 0.296715
vt 0.029598 0.338389
vt 0.054688 0.289882
vt 0.079777 0.297635
vt 0.069173 0.313237
vt 0.054688 0.308761
vt 0.095282 0.317932
vt 0.078125 0.324955
vt 0.088827 0.339441
vt 0.091469 0.324955
vt 0.095282 0.343021
vt 0.079777 0.363319
vt 0.069173 0.351159
vt 0.078125 0.339441
vt 0.054688 0.359311
vt 0.069173 0.360127
vt 0.040202 0.360127
vt 0.029598 0.363319
vt 0.014093 0.343021
vt 0.031250 0.339441
vt 0.040202 0.351159
vt 0.014093 0.317932
vt 0.029598 0.297635
vt 0.040202 0.313237
vt 0.031250 0.324955
vt 0.054688 0.332828
vt 0.054688 0.355636
vt 0.593750 0.210938
vt 0.636250 0.210938
vt 0.636956 0.216322
vt 0.594819 0.219095
vt 0.423257 0.132812
vt 0.390625 0.132812
vt 0.390625 0.101562
vt 0.423257 0.101562
vt 0.412162 0.132812
vt 0.412162 0.101562
vt 0.639061 0.221614
vt 0.598009 0.227114
vt 0.455330 0.132812
vt 0.455330 0.101562
vt 0.433330 0.132812
vt 0.433330 0.101562
vt 0.642530 0.226723
vt 0.603265 0.234855
vt 0.486296 0.132812
vt 0.486296 0.101562
vt 0.453768 0.132812
vt 0.453768 0.101562
vt 0.647303 0.231563
vt 0.610497 0.242188
vt 0.515625 0.132812
vt 0.515625 0.101562
vt 0.473125 0.132812
vt 0.473125 0.101562
vt 0.653298 0.236049
vt 0.619581 0.248985
vt 0.542815 0.132812
vt 0.542815 0.101562
vt 0.491071 0.132812
vt 0.491071 0.101562
vt 0.660414 0.240106
vt 0.630362 0.255132
vt 0.567402 0.132812
vt 0.567402 0.101562
vt 0.507298 0.132812
vt 0.507298 0.101562
vt 0.668527 0.243663
vt 0.642655 0.260522
vt 0.439530 0.132812
vt 0.427237 0.132812
vt 0.427237 0.101562
vt 0.439530 0.101562
vt 0.457289 0.132812
vt 0.465402 0.132812
vt 0.465402 0.101562
vt 0.457289 0.101562
vt 0.677500 0.246661
vt 0.656250 0.265064
vt 0.453125 0.132812
vt 0.453125 0.101562
vt 0.474375 0.132812
vt 0.474375 0.101562
vt 0.687179 0.249048
vt 0.670915 0.268680
vt 0.467790 0.132812
vt 0.467790 0.101562
vt 0.484054 0.132812
vt 0.484054 0.101562
vt 0.697397 0.250782
vt 0.686398 0.271308
vt 0.483273 0.132812
vt 0.483273 0.101562
vt 0.494272 0.132812
vt 0.494272 0.101562
vt 0.707982 0.251835
vt 0.702434 0.272903
vt 0.499309 0.132812
vt 0.499309 0.101562
vt 0.504857 0.132812
vt 0.504857 0.101562
vt 0.718750 0.252188
vt 0.718750 0.273438
vt 0.515625 0.132812
vt 0.515625 0.101562
vt 0.515625 0.132812
vt 0.515625 0.101562
vt 0.729518 0.251835
vt 0.735066 0.272903
vt 0.531941 0.132812
vt 0.531941 0.101562
vt 0.526393 0.132812
vt 0.526393 0.101562
vt 0.740103 0.250782
vt 0.751102 0.271308
vt 0.547977 0.132812
vt 0.547977 0.101562
vt 0.536978 0.132812
vt 0.536978 0.101562
vt 0.750321 0.249048
vt 0.766585 0.268680
vt 0.563460 0.132812
vt 0.563460 0.101562
vt 0.547196 0.132812
vt 0.547196 0.101562
vt 0.760000 0.246661
vt 0.781250 0.265064
vt 0.578125 0.132812
vt 0.578125 0.101562
vt 0.556875 0.132812
vt 0.556875 0.101562
vt 0.768973 0.243663
vt 0.794845 0.260522
vt 0.591720 0.132812
vt 0.591720 0.101562
vt 0.565848 0.132812
vt 0.565848 0.101562
vt 0.777086 0.240106
vt 0.807138 0.255132
vt 0.604013 0.132812
vt 0.604013 0.101562
vt 0.573961 0.132812
vt 0.573961 0.101562
vt 0.784202 0.236049
vt 0.817919 0.248985
vt 0.790197 0.231563
vt 0.827003 0.242188
vt 0.794970 0.226723
vt 0.834235 0.234855
vt 0.798439 0.221614
vt 0.839491 0.227114
vt 0.800544 0.216322
vt 0.842681 0.219095
vt 0.801250 0.210938
vt 0.843750 0.210938
vt 0.390625 0.132812
vt 0.390625 0.101562
vt 0.433125 0.101562
vt 0.433125 0.132812
vt 0.598125 0.132812
vt 0.598125 0.101562
vt 0.640625 0.101562
vt 0.640625 0.132812
vt 0.692081 0.429688
vt 0.671875 0.429688
vt 0.692081 0.382812
vt 0.692081 0.476562
vt 0.712287 0.429688
vt 0.573605 0.403019
vt 0.576897 0.382812
vt 0.664062 0.476562
vt 0.570312 0.423225
vt 0.692081 0.429688
vt 0.712287 0.429688
vt 0.692081 0.382812
vt 0.692081 0.476562
vt 0.671875 0.429688
vt 0.660770 0.403019
vt 0.664062 0.423225
vt 0.570312 0.476562
vt 0.657478 0.382812
vt 0.390625 0.195312
vt 0.484375 0.195312
vt 0.484375 0.262559
vt 0.390625 0.262559
vt 0.578768 0.200455
vt 0.499357 0.200455
vt 0.499357 0.257417
vt 0.578768 0.257417
vt 0.554688 0.992188
vt 0.625000 0.992188
vt 0.619623 0.664062
vt 0.560064 0.664062
vt 0.492188 0.302017
vt 0.867188 0.296875
vt 0.867188 0.364122
vt 0.492188 0.358979
vt 0.382812 0.195312
vt 0.354136 0.200455
vt 0.354136 0.257417
vt 0.382812 0.262559
vt 0.423713 0.261570
vt 0.451287 0.261570
vt 0.451287 0.273438
vt 0.423713 0.273438
vt 0.552849 0.261570
vt 0.525276 0.261570
vt 0.525276 0.273438
vt 0.552849 0.273438
vt 0.579504 0.929844
vt 0.600184 0.929844
vt 0.600184 0.726406
vt 0.579504 0.726406
vt 0.563438 0.363133
vt 0.795937 0.363133
vt 0.795937 0.375000
vt 0.563438 0.375000
vt 0.250460 0.261570
vt 0.250460 0.273438
vt 0.407169 0.206685
vt 0.467831 0.206685
vt 0.467831 0.251187
vt 0.407169 0.251187
vt 0.569393 0.206685
vt 0.508732 0.206685
vt 0.508732 0.251187
vt 0.569393 0.251187
vt 0.567096 0.710615
vt 0.612592 0.710615
vt 0.612592 0.703232
vt 0.567096 0.703232
vt 0.536953 0.308248
vt 0.545391 0.308248
vt 0.545391 0.352749
vt 0.536953 0.352749
vt 0.316636 0.206685
vt 0.316636 0.251187
vt 0.390625 0.195312
vt 0.484375 0.195312
vt 0.484375 0.262559
vt 0.390625 0.262559
vt 0.578768 0.200455
vt 0.499357 0.200455
vt 0.499357 0.257417
vt 0.578768 0.257417
vt 0.554688 0.992188
vt 0.625000 0.992188
vt 0.619623 0.664062
vt 0.560064 0.664062
vt 0.036489 0.200455
vt 0.007812 0.195312
vt 0.007812 0.262559
vt 0.036489 0.257417
vt 0.867188 0.296875
vt 0.492188 0.302017
vt 0.492188 0.358979
vt 0.867188 0.364122
vt 0.423713 0.261570
vt 0.451287 0.261570
vt 0.451287 0.273438
vt 0.423713 0.273438
vt 0.552849 0.261570
vt 0.525276 0.261570
vt 0.525276 0.273438
vt 0.552849 0.273438
vt 0.579504 0.929844
vt 0.600184 0.929844
vt 0.600184 0.726406
vt 0.579504 0.726406
vt 0.140165 0.261570
vt 0.140165 0.273438
vt 0.795937 0.363133
vt 0.563438 0.363133
vt 0.563438 0.375000
vt 0.795937 0.375000
vt 0.407169 0.206685
vt 0.467831 0.206685
vt 0.467831 0.251187
vt 0.407169 0.251187
vt 0.569393 0.206685
vt 0.508732 0.206685
vt 0.508732 0.251187
vt 0.569393 0.251187
vt 0.567096 0.710615
vt 0.612592 0.710615
vt 0.612592 0.703232
vt 0.567096 0.703232
vt 0.073989 0.206685
vt 0.073989 0.251187
vt 0.545391 0.308248
vt 0.536953 0.308248
vt 0.536953 0.352749
vt 0.545391 0.352749
vt 0.054688 0.281250
vt 0.083658 0.281250
vt 0.079777 0.328125
vt 0.054688 0.328125
vt 0.007812 0.290202
vt 0.007812 0.313640
vt 0.054688 0.315580
vt 0.054688 0.295283
vt 0.007812 0.342610
vt 0.054688 0.340670
vt 0.007812 0.366048
vt 0.054687 0.360967
vt 0.025717 0.281250
vt 0.029598 0.328125
vt 0.054688 0.287530
vt 0.079777 0.295283
vt 0.069173 0.309164
vt 0.054688 0.304688
vt 0.095282 0.315580
vt 0.078125 0.320882
vt 0.089002 0.335368
vt 0.089002 0.320882
vt 0.095282 0.340670
vt 0.079777 0.360967
vt 0.069173 0.347086
vt 0.078125 0.335368
vt 0.054688 0.362440
vt 0.069173 0.362440
vt 0.040202 0.362440
vt 0.029598 0.360967
vt 0.014093 0.340670
vt 0.031250 0.335368
vt 0.040202 0.347086
vt 0.014093 0.315580
vt 0.029598 0.295283
vt 0.040202 0.309164
vt 0.031250 0.320882
vt 0.054688 0.328125
vt 0.054688 0.351562
vt 0.187500 0.484375
vt 0.312500 0.484375
vt 0.312500 0.656250
vt 0.187500 0.656250
vt 0.312500 0.484375
vt 0.187500 0.484375
vt 0.187500 0.656250
vt 0.312500 0.656250
vt 0.320312 0.656250
vt 0.382812 0.656250
vt 0.382812 0.484375
vt 0.320312 0.484375
vt 0.187500 0.484375
vt 0.312500 0.484375
vt 0.312500 0.656250
vt 0.187500 0.656250
vt 0.054688 0.281250
vt 0.083658 0.281250
vt 0.079777 0.328125
vt 0.054688 0.328125
vt 0.007812 0.290202
vt 0.007812 0.313640
vt 0.054688 0.315580
vt 0.054688 0.295283
vt 0.007812 0.342610
vt 0.054688 0.340670
vt 0.007812 0.366048
vt 0.054687 0.360967
vt 0.025717 0.281250
vt 0.029598 0.328125
vt 0.054688 0.287530
vt 0.079777 0.295283
vt 0.069173 0.309164
vt 0.054688 0.304688
vt 0.095282 0.315580
vt 0.078125 0.320882
vt 0.089002 0.335368
vt 0.089002 0.320882
vt 0.095282 0.340670
vt 0.079777 0.360967
vt 0.069173 0.347086
vt 0.078125 0.335368
vt 0.054688 0.362440
vt 0.069173 0.362440
vt 0.040202 0.362440
vt 0.029598 0.360967
vt 0.014093 0.340670
vt 0.031250 0.335368
vt 0.040202 0.347086
vt 0.014093 0.315580
vt 0.029598 0.295283
vt 0.040202 0.309164
vt 0.031250 0.320882
vt 0.054688 0.328125
vt 0.054688 0.351562
vt 0.187500 0.484375
vt 0.312500 0.484375
vt 0.312500 0.656250
vt 0.187500 0.656250
vt 0.312500 0.484375
vt 0.187500 0.484375
vt 0.187500 0.656250
vt 0.312500 0.656250
vt 0.320312 0.656250
vt 0.382812 0.656250
vt 0.382812 0.484375
vt 0.320312 0.484375
vt 0.187500 0.484375
vt 0.312500 0.484375
vt 0.312500 0.656250
vt 0.187500 0.656250
vn -0.000000 0.099833 0.995004
vn -0.000000 -0.099833 -0.995004
vn 0.000000 0.999559 -0.029695
vn 0.000000 -0.985534 0.169479
vn -0.990955 0.013397 0.133521
vn 0.990955 0.013397 0.133521
vn 0.299447 -0.892345 0.337716
vn 0.783962 -0.542083 0.302572
vn 0.969030 0.024653 0.245709
vn 0.783962 0.591389 0.188846
vn 0.299447 0.941651 0.153702
vn -0.299447 0.941651 0.153702
vn -0.783962 0.591389 0.188846
vn -0.969030 0.024653 0.245709
vn -0.783962 -0.542083 0.302572
vn -0.299447 -0.892345 0.337716
vn 0.223919 -0.616908 0.754509
vn 0.586227 -0.354991 0.728230
vn 0.724617 0.068800 0.685709
vn 0.586227 0.492592 0.643188
vn 0.223919 0.754509 0.616908
vn -0.223919 0.754509 0.616908
vn -0.586227 0.492592 0.643188
vn -0.724617 0.068800 0.685709
vn -0.586227 -0.354991 0.728230
vn -0.223919 -0.616908 0.754509
vn 0.083800 -0.160528 0.983468
vn 0.219390 -0.062508 0.973633
vn 0.271181 0.096092 0.957720
vn 0.219390 0.254693 0.941807
vn 0.083800 0.352713 0.931972
vn -0.083800 0.352713 0.931972
vn -0.219390 0.254693 0.941807
vn -0.271181 0.096092 0.957720
vn -0.219390 -0.062508 0.973633
vn -0.083800 -0.160528 0.983468
vn 0.000000 -1.000000 0.000000
vn 0.000000 1.000000 0.000000
vn -0.997859 0.000000 0.065403
vn 0.997859 0.000000 -0.065403
vn -0.980785 0.000000 0.195090
vn 0.980785 0.000000 -0.195090
vn -0.946930 0.000000 0.321439
vn 0.946930 0.000000 -0.321439
vn -0.896873 0.000000 0.442289
vn 0.896873 0.000000 -0.442289
vn -0.831470 0.000000 0.555570
vn 0.831470 0.000000 -0.555570
vn -0.751840 0.000000 0.659346
vn 0.751840 0.000000 -0.659346
vn -0.659346 0.000000 0.751840
vn 0.659346 0.000000 -0.751840
vn -0.555570 0.000000 0.831470
vn 0.555570 0.000000 -0.831470
vn -0.442289 0.000000 0.896873
vn 0.442289 0.000000 -0.896873
vn -0.321439 0.000000 0.946930
vn 0.321439 0.000000 -0.946930
vn -0.195090 0.000000 0.980785
vn 0.195090 0.000000 -0.980785
vn -0.065403 0.000000 0.997859
vn 0.065403 0.000000 -0.997859
vn 0.065403 0.000000 0.997859
vn -0.065403 0.000000 -0.997859
vn 0.195090 0.000000 0.980785
vn -0.195090 0.000000 -0.980785
vn 0.321439 0.000000 0.946930
vn -0.321439 0.000000 -0.946930
vn 0.442289 0.000000 0.896873
vn -0.442289 0.000000 -0.896873
vn 0.555570 0.000000 0.831470
vn -0.555570 0.000000 -0.831470
vn 0.659346 0.000000 0.751840
vn -0.659346 0.000000 -0.751840
vn 0.751840 0.000000 0.659346
vn -0.751840 0.000000 -0.659346
vn 0.831470 0.000000 0.555570
vn -0.831470 0.000000 -0.555570
vn 0.896873 0.000000 0.442289
vn -0.896873 0.000000 -0.442289
vn 0.946930 0.000000 0.321439
vn -0.946930 0.000000 -0.321439
vn 0.980785 0.000000 0.195090
vn -0.980785 0.000000 -0.195090
vn 0.997859 0.000000 0.065403
vn -0.997859 0.000000 -0.065403
vn -0.000000 0.000000 1.000000
vn -0.939693 -0.000000 -0.342020
vn 0.307523 -0.705346 -0.638684
vn 0.307523 0.705346 -0.638684
vn -0.174962 0.705346 0.686932
vn -0.174962 -0.705346 0.686932
vn 0.939693 0.000000 -0.342020
vn 0.174962 -0.705346 0.686932
vn 0.174962 0.705346 0.686932
vn -0.307523 0.705346 -0.638684
vn -0.307523 -0.705346 -0.638684
vn 0.000000 0.000000 1.000000
vn 0.000000 0.000000 -1.000000
vn 0.000000 0.999952 -0.009750
vn 0.000000 -0.999952 -0.009750
vn -0.999926 0.000000 -0.012187
vn 0.999926 0.000000 -0.012187
vn -0.000000 1.000000 0.000000
vn 0.000000 -1.000000 0.000000
vn -1.000000 0.000000 0.000000
vn 1.000000 0.000000 0.000000
vn 0.000000 0.000000 1.000000
vn 0.000000 0.000000 -1.000000
vn 0.000000 0.999952 -0.009750
vn 0.000000 -0.999952 -0.009750
vn -0.999926 0.000000 -0.012187
vn 0.999926 0.000000 -0.012187
vn -0.000000 1.000000 0.000000
vn 0.000000 -1.000000 0.000000
vn -1.000000 0.000000 0.000000
vn 1.000000 0.000000 0.000000
vn 0.299447 -0.921602 0.246943
vn 0.783962 -0.569582 0.246943
vn 0.969030 -0.000000 0.246943
vn 0.783962 0.569582 0.246943
vn 0.299447 0.921602 0.246943
vn -0.299447 0.921602 0.246943
vn -0.783962 0.569582 0.246943
vn -0.969030 0.000000 0.246943
vn -0.783962 -0.569582 0.246943
vn -0.299447 -0.921602 0.246943
vn 0.223919 -0.689152 0.689152
vn 0.586227 -0.425919 0.689152
vn 0.724617 -0.000000 0.689152
vn 0.586227 0.425919 0.689152
vn 0.223919 0.689152 0.689152
vn -0.223919 0.689152 0.689152
vn -0.586227 0.425919 0.689152
vn -0.724617 0.000000 0.689152
vn -0.586227 -0.425919 0.689152
vn -0.223919 -0.689152 0.689152
vn 0.083800 -0.257909 0.962528
vn 0.219390 -0.159396 0.962528
vn 0.271181 -0.000000 0.962528
vn 0.219390 0.159396 0.962528
vn 0.083800 0.257909 0.962528
vn -0.083800 0.257909 0.962528
vn -0.219390 0.159396 0.962528
vn -0.271181 0.000000 0.962528
vn -0.219390 -0.159396 0.962528
vn -0.083800 -0.257909 0.962528
vn 0.000000 0.000000 1.000000
vn 0.000000 0.000000 -1.000000
vn -0.000000 1.000000 0.000000
vn 0.000000 -1.000000 0.000000
vn -1.000000 0.000000 0.000000
vn 1.000000 0.000000 0.000000
vn 0.299447 -0.921602 0.246943
vn 0.783962 -0.569582 0.246943
vn 0.969030 -0.000000 0.246943
vn 0.783962 0.569582 0.246943
vn 0.299447 0.921602 0.246943
vn -0.299447 0.921602 0.246943
vn -0.783962 0.569582 0.246943
vn -0.969030 0.000000 0.246943
vn -0.783962 -0.569582 0.246943
vn -0.299447 -0.921602 0.246943
vn 0.223919 -0.689152 0.689152
vn 0.586227 -0.425919 0.689152
vn 0.724617 -0.000000 0.689152
vn 0.586227 0.425919 0.689152
vn 0.223919 0.689152 0.689152
vn -0.223919 0.689152 0.689152
vn -0.586227 0.425919 0.689152
vn -0.724617 0.000000 0.689152
vn -0.586227 -0.425919 0.689152
vn -0.223919 -0.689152 0.689152
vn 0.083800 -0.257909 0.962528
vn 0.219390 -0.159396 0.962528
vn 0.271181 -0.000000 0.962528
vn 0.219390 0.159396 0.962528
vn 0.083800 0.257909 0.962528
vn -0.083800 0.257909 0.962528
vn -0.219390 0.159396 0.962528
vn -0.271181 0.000000 0.962528
vn -0.219390 -0.159396 0.962528
vn -0.083800 -0.257909 0.962528
vn 0.000000 0.000000 1.000000
vn 0.000000 0.000000 -1.000000
vn -0.000000 1.000000 0.000000
vn 0.000000 -1.000000 0.000000
vn -1.000000 0.000000 0.000000
vn 1.000000 0.000000 0.000000
f 1/1/1 2/2/1 3/3/1
f 1/1/1 3/3/1 4/4/1
f 5/5/2 6/6/2 7/7/2
f 5/5/2 7/7/2 8/8/2
f 4/9/3 3/10/3 8/11/3
f 4/9/3 8/11/3 7/12/3
f 6/13/4 5/14/4 2/15/4
f 6/13/4 2/15/4 1/16/4
f 6/17/5 1/18/5 4/19/5
f 6/17/5 4/19/5 7/20/5
f 2/18/6 5/17/6 8/20/6
f 2/18/6 8/20/6 3/19/6
f 9/21/7 10/22/7 11/23/7
f 9/21/7 11/23/7 12/24/7
f 10/25/8 13/26/8 14/27/8
f 10/25/8 14/27/8 11/28/8
f 13/26/9 15/29/9 16/30/9
f 13/26/9 16/30/9 14/27/9
f 15/29/10 17/31/10 18/32/10
f 15/29/10 18/32/10 16/30/10
f 17/33/11 19/34/11 20/35/11
f 17/33/11 20/35/11 18/36/11
f 19/34/12 21/37/12 22/38/12
f 19/34/12 22/38/12 20/35/12
f 21/31/13 23/29/13 24/30/13
f 21/31/13 24/30/13 22/32/13
f 23/29/14 25/26/14 26/27/14
f 23/29/14 26/27/14 24/30/14
f 25/26/15 27/25/15 28/28/15
f 25/26/15 28/28/15 26/27/15
f 27/39/16 9/21/16 12/24/16
f 27/39/16 12/24/16 28/40/16
f 12/41/17 11/42/17 29/43/17
f 12/41/17 29/43/17 30/44/17
f 11/42/18 14/45/18 31/46/18
f 11/42/18 31/46/18 29/43/18
f 14/27/19 16/30/19 32/47/19
f 14/27/19 32/47/19 31/48/19
f 16/49/20 18/50/20 33/51/20
f 16/49/20 33/51/20 32/52/20
f 18/36/21 20/35/21 34/53/21
f 18/36/21 34/53/21 33/54/21
f 20/35/22 22/38/22 35/55/22
f 20/35/22 35/55/22 34/53/22
f 22/56/23 24/57/23 36/58/23
f 22/56/23 36/58/23 35/59/23
f 24/30/24 26/27/24 37/48/24
f 24/30/24 37/48/24 36/47/24
f 26/60/25 28/61/25 38/62/25
f 26/60/25 38/62/25 37/63/25
f 28/61/26 12/41/26 30/44/26
f 28/61/26 30/44/26 38/62/26
f 30/44/27 29/43/27 39/64/27
f 29/43/28 31/46/28 39/64/28
f 31/46/29 32/52/29 39/64/29
f 32/52/30 33/51/30 39/64/30
f 33/51/31 34/65/31 39/64/31
f 34/65/32 35/59/32 39/64/32
f 35/59/33 36/58/33 39/64/33
f 36/58/34 37/63/34 39/64/34
f 37/63/35 38/62/35 39/64/35
f 38/62/36 30/44/36 39/64/36
f 40/66/37 41/67/37 42/68/37
f 40/66/37 42/68/37 43/69/37
f 44/69/38 45/68/38 46/67/38
f 44/69/38 46/67/38 47/66/38
f 43/70/39 40/71/39 47/72/39
f 43/70/39 47/72/39 44/73/39
f 41/71/40 42/74/40 45/75/40
f 41/71/40 45/75/40 46/72/40
f 43/69/37 42/68/37 48/76/37
f 43/69/37 48/76/37 49/77/37
f 50/77/38 51/76/38 45/68/38
f 50/77/38 45/68/38 44/69/38
f 49/78/41 43/70/41 44/73/41
f 49/78/41 44/73/41 50/79/41
f 42/74/42 48/80/42 51/81/42
f 42/74/42 51/81/42 45/75/42
f 49/77/37 48/76/37 52/82/37
f 49/77/37 52/82/37 53/83/37
f 54/83/38 55/82/38 51/76/38
f 54/83/38 51/76/38 50/77/38
f 53/84/43 49/78/43 50/79/43
f 53/84/43 50/79/43 54/85/43
f 48/80/44 52/86/44 55/87/44
f 48/80/44 55/87/44 51/81/44
f 53/83/37 52/82/37 56/88/37
f 53/83/37 56/88/37 57/89/37
f 58/89/38 59/88/38 55/82/38
f 58/89/38 55/82/38 54/83/38
f 57/90/45 53/84/45 54/85/45
f 57/90/45 54/85/45 58/91/45
f 52/86/46 56/92/46 59/93/46
f 52/86/46 59/93/46 55/87/46
f 57/89/37 56/88/37 60/94/37
f 57/89/37 60/94/37 61/95/37
f 62/95/38 63/94/38 59/88/38
f 62/95/38 59/88/38 58/89/38
f 61/96/47 57/90/47 58/91/47
f 61/96/47 58/91/47 62/97/47
f 56/92/48 60/98/48 63/99/48
f 56/92/48 63/99/48 59/93/48
f 61/95/37 60/94/37 64/100/37
f 61/95/37 64/100/37 65/101/37
f 66/101/38 67/100/38 63/94/38
f 66/101/38 63/94/38 62/95/38
f 65/102/49 61/96/49 62/97/49
f 65/102/49 62/97/49 66/103/49
f 60/98/50 64/104/50 67/105/50
f 60/98/50 67/105/50 63/99/50
f 65/101/37 64/100/37 68/106/37
f 65/101/37 68/106/37 69/107/37
f 70/107/38 71/106/38 67/100/38
f 70/107/38 67/100/38 66/101/38
f 69/108/51 65/109/51 66/110/51
f 69/108/51 66/110/51 70/111/51
f 64/112/52 68/113/52 71/114/52
f 64/112/52 71/114/52 67/115/52
f 69/107/37 68/106/37 72/116/37
f 69/107/37 72/116/37 73/117/37
f 74/117/38 75/116/38 71/106/38
f 74/117/38 71/106/38 70/107/38
f 73/118/53 69/108/53 70/111/53
f 73/118/53 70/111/53 74/119/53
f 68/113/54 72/120/54 75/121/54
f 68/113/54 75/121/54 71/114/54
f 73/117/37 72/116/37 76/122/37
f 73/117/37 76/122/37 77/123/37
f 78/123/38 79/122/38 75/116/38
f 78/123/38 75/116/38 74/117/38
f 77/124/55 73/118/55 74/119/55
f 77/124/55 74/119/55 78/125/55
f 72/120/56 76/126/56 79/127/56
f 72/120/56 79/127/56 75/121/56
f 77/123/37 76/122/37 80/128/37
f 77/123/37 80/128/37 81/129/37
f 82/129/38 83/128/38 79/122/38
f 82/129/38 79/122/38 78/123/38
f 81/130/57 77/124/57 78/125/57
f 81/130/57 78/125/57 82/131/57
f 76/126/58 80/132/58 83/133/58
f 76/126/58 83/133/58 79/127/58
f 81/129/37 80/128/37 84/134/37
f 81/129/37 84/134/37 85/135/37
f 86/135/38 87/134/38 83/128/38
f 86/135/38 83/128/38 82/129/38
f 85/136/59 81/130/59 82/131/59
f 85/136/59 82/131/59 86/137/59
f 80/132/60 84/138/60 87/139/60
f 80/132/60 87/139/60 83/133/60
f 85/135/37 84/134/37 88/140/37
f 85/135/37 88/140/37 89/141/37
f 90/141/38 91/140/38 87/134/38
f 90/141/38 87/134/38 86/135/38
f 89/142/61 85/136/61 86/137/61
f 89/142/61 86/137/61 90/143/61
f 84/138/62 88/144/62 91/145/62
f 84/138/62 91/145/62 87/139/62
f 89/141/37 88/140/37 92/146/37
f 89/141/37 92/146/37 93/147/37
f 94/147/38 95/146/38 91/140/38
f 94/147/38 91/140/38 90/141/38
f 93/148/63 89/142/63 90/143/63
f 93/148/63 90/143/63 94/149/63
f 88/144/64 92/150/64 95/151/64
f 88/144/64 95/151/64 91/145/64
f 93/147/37 92/146/37 96/152/37
f 93/147/37 96/152/37 97/153/37
f 98/153/38 99/152/38 95/146/38
f 98/153/38 95/146/38 94/147/38
f 97/154/65 93/148/65 94/149/65
f 97/154/65 94/149/65 98/155/65
f 92/150/66 96/156/66 99/157/66
f 92/150/66 99/157/66 95/151/66
f 97/153/37 96/152/37 100/158/37
f 97/153/37 100/158/37 101/159/37
f 102/159/38 103/158/38 99/152/38
f 102/159/38 99/152/38 98/153/38
f 101/160/67 97/154/67 98/155/67
f 101/160/67 98/155/67 102/161/67
f 96/156/68 100/162/68 103/163/68
f 96/156/68 103/163/68 99/157/68
f 101/159/37 100/158/37 104/164/37
f 101/159/37 104/164/37 105/165/37
f 106/165/38 107/164/38 103/158/38
f 106/165/38 103/158/38 102/159/38
f 105/166/69 101/160/69 102/161/69
f 105/166/69 102/161/69 106/167/69
f 100/162/70 104/168/70 107/169/70
f 100/162/70 107/169/70 103/163/70
f 105/165/37 104/164/37 108/170/37
f 105/165/37 108/170/37 109/171/37
f 110/171/38 111/170/38 107/164/38
f 110/171/38 107/164/38 106/165/38
f 109/172/71 105/166/71 106/167/71
f 109/172/71 106/167/71 110/173/71
f 104/168/72 108/174/72 111/175/72
f 104/168/72 111/175/72 107/169/72
f 109/171/37 108/170/37 112/176/37
f 109/171/37 112/176/37 113/177/37
f 114/177/38 115/176/38 111/170/38
f 114/177/38 111/170/38 110/171/38
f 113/178/73 109/172/73 110/173/73
f 113/178/73 110/173/73 114/179/73
f 108/174/74 112/180/74 115/181/74
f 108/174/74 115/181/74 111/175/74
f 113/177/37 112/176/37 116/182/37
f 113/177/37 116/182/37 117/183/37
f 118/183/38 119/182/38 115/176/38
f 118/183/38 115/176/38 114/177/38
f 117/96/75 113/102/75 114/103/75
f 117/96/75 114/103/75 118/97/75
f 112/104/76 116/98/76 119/99/76
f 112/104/76 119/99/76 115/105/76
f 117/183/37 116/182/37 120/184/37
f 117/183/37 120/184/37 121/185/37
f 122/185/38 123/184/38 119/182/38
f 122/185/38 119/182/38 118/183/38
f 121/90/77 117/96/77 118/97/77
f 121/90/77 118/97/77 122/91/77
f 116/98/78 120/92/78 123/93/78
f 116/98/78 123/93/78 119/99/78
f 121/185/37 120/184/37 124/186/37
f 121/185/37 124/186/37 125/187/37
f 126/187/38 127/186/38 123/184/38
f 126/187/38 123/184/38 122/185/38
f 125/84/79 121/90/79 122/91/79
f 125/84/79 122/91/79 126/85/79
f 120/92/80 124/86/80 127/87/80
f 120/92/80 127/87/80 123/93/80
f 125/187/37 124/186/37 128/188/37
f 125/187/37 128/188/37 129/189/37
f 130/189/38 131/188/38 127/186/38
f 130/189/38 127/186/38 126/187/38
f 129/78/81 125/84/81 126/85/81
f 129/78/81 126/85/81 130/79/81
f 124/86/82 128/80/82 131/81/82
f 124/86/82 131/81/82 127/87/82
f 129/189/37 128/188/37 132/190/37
f 129/189/37 132/190/37 133/191/37
f 134/191/38 135/190/38 131/188/38
f 134/191/38 131/188/38 130/189/38
f 133/70/83 129/78/83 130/79/83
f 133/70/83 130/79/83 134/73/83
f 128/80/84 132/74/84 135/75/84
f 128/80/84 135/75/84 131/81/84
f 133/191/37 132/190/37 136/192/37
f 133/191/37 136/192/37 137/193/37
f 138/193/38 139/192/38 135/190/38
f 138/193/38 135/190/38 134/191/38
f 137/71/85 133/70/85 134/73/85
f 137/71/85 134/73/85 138/72/85
f 132/74/86 136/71/86 139/72/86
f 132/74/86 139/72/86 135/75/86
f 40/194/87 47/195/87 46/196/87
f 40/194/87 46/196/87 41/197/87
f 136/198/87 139/199/87 138/200/87
f 136/198/87 138/200/87 137/201/87
f 140/202/88 141/203/88 142/204/88
f 140/202/88 143/205/88 141/203/88
f 140/202/88 144/206/88 143/205/88
f 140/202/88 142/204/88 144/206/88
f 142/207/89 141/208/89 145/209/89
f 141/208/90 143/207/90 145/209/90
f 143/207/91 144/210/91 145/209/91
f 144/210/92 142/207/92 145/209/92
f 146/211/93 147/212/93 148/213/93
f 146/211/93 149/214/93 147/212/93
f 146/211/93 150/215/93 149/214/93
f 146/211/93 148/213/93 150/215/93
f 148/216/94 147/217/94 151/218/94
f 147/217/95 149/216/95 151/218/95
f 149/216/96 150/219/96 151/218/96
f 150/219/97 148/216/97 151/218/97
f 152/220/98 153/221/98 154/222/98
f 152/220/98 154/222/98 155/223/98
f 156/224/99 157/225/99 158/226/99
f 156/224/99 158/226/99 159/227/99
f 155/228/100 154/229/100 159/230/100
f 155/228/100 159/230/100 158/231/100
f 157/231/101 156/230/101 153/229/101
f 157/231/101 153/229/101 152/228/101
f 157/232/102 152/233/102 155/234/102
f 157/232/102 155/234/102 158/235/102
f 153/236/103 156/237/103 159/238/103
f 153/236/103 159/238/103 154/239/103
f 160/240/98 161/241/98 162/242/98
f 160/240/98 162/242/98 163/243/98
f 164/244/99 165/245/99 166/246/99
f 164/244/99 166/246/99 167/247/99
f 163/248/104 162/249/104 167/250/104
f 163/248/104 167/250/104 166/251/104
f 165/251/105 164/250/105 161/249/105
f 165/251/105 161/249/105 160/248/105
f 165/252/106 160/253/106 163/254/106
f 165/252/106 163/254/106 166/255/106
f 161/256/107 164/256/107 167/257/107
f 161/256/107 167/257/107 162/257/107
f 168/258/98 169/259/98 170/260/98
f 168/258/98 170/260/98 171/261/98
f 172/262/99 173/263/99 174/264/99
f 172/262/99 174/264/99 175/265/99
f 171/266/104 170/267/104 175/268/104
f 171/266/104 175/268/104 174/269/104
f 173/269/105 172/268/105 169/267/105
f 173/269/105 169/267/105 168/266/105
f 173/270/106 168/271/106 171/272/106
f 173/270/106 171/272/106 174/273/106
f 169/274/107 172/274/107 175/275/107
f 169/274/107 175/275/107 170/275/107
f 176/276/108 177/277/108 178/278/108
f 176/276/108 178/278/108 179/279/108
f 180/280/109 181/281/109 182/282/109
f 180/280/109 182/282/109 183/283/109
f 179/284/110 178/285/110 183/286/110
f 179/284/110 183/286/110 182/287/110
f 181/287/111 180/286/111 177/285/111
f 181/287/111 177/285/111 176/284/111
f 181/288/112 176/289/112 179/290/112
f 181/288/112 179/290/112 182/291/112
f 177/292/113 180/293/113 183/294/113
f 177/292/113 183/294/113 178/295/113
f 184/296/108 185/297/108 186/298/108
f 184/296/108 186/298/108 187/299/108
f 188/300/109 189/301/109 190/302/109
f 188/300/109 190/302/109 191/303/109
f 187/304/114 186/305/114 191/306/114
f 187/304/114 191/306/114 190/307/114
f 189/307/115 188/306/115 185/305/115
f 189/307/115 185/305/115 184/304/115
f 189/308/116 184/308/116 187/309/116
f 189/308/116 187/309/116 190/309/116
f 185/310/117 188/311/117 191/312/117
f 185/310/117 191/312/117 186/313/117
f 192/314/108 193/315/108 194/316/108
f 192/314/108 194/316/108 195/317/108
f 196/318/109 197/319/109 198/320/109
f 196/318/109 198/320/109 199/321/109
f 195/322/114 194/323/114 199/324/114
f 195/322/114 199/324/114 198/325/114
f 197/325/115 196/324/115 193/323/115
f 197/325/115 193/323/115 192/322/115
f 197/326/116 192/326/116 195/327/116
f 197/326/116 195/327/116 198/327/116
f 193/328/117 196/329/117 199/330/117
f 193/328/117 199/330/117 194/331/117
f 200/332/118 201/333/118 202/334/118
f 200/332/118 202/334/118 203/335/118
f 201/336/119 204/337/119 205/338/119
f 201/336/119 205/338/119 202/339/119
f 204/337/120 206/340/120 207/341/120
f 204/337/120 207/341/120 205/338/120
f 206/340/121 208/342/121 209/343/121
f 206/340/121 209/343/121 207/341/121
f 208/333/122 210/332/122 211/335/122
f 208/333/122 211/335/122 209/334/122
f 210/332/123 212/344/123 213/345/123
f 210/332/123 213/345/123 211/335/123
f 212/342/124 214/340/124 215/341/124
f 212/342/124 215/341/124 213/343/124
f 214/340/125 216/337/125 217/338/125
f 214/340/125 217/338/125 215/341/125
f 216/337/126 218/336/126 219/339/126
f 216/337/126 219/339/126 217/338/126
f 218/344/127 200/332/127 203/335/127
f 218/344/127 203/335/127 219/345/127
f 203/346/128 202/347/128 220/348/128
f 203/346/128 220/348/128 221/349/128
f 202/347/129 205/350/129 222/351/129
f 202/347/129 222/351/129 220/348/129
f 205/338/130 207/341/130 223/352/130
f 205/338/130 223/352/130 222/353/130
f 207/354/131 209/355/131 224/356/131
f 207/354/131 224/356/131 223/357/131
f 209/334/132 211/335/132 225/358/132
f 209/334/132 225/358/132 224/359/132
f 211/335/133 213/345/133 226/360/133
f 211/335/133 226/360/133 225/358/133
f 213/361/134 215/362/134 227/363/134
f 213/361/134 227/363/134 226/364/134
f 215/341/135 217/338/135 228/353/135
f 215/341/135 228/353/135 227/352/135
f 217/365/136 219/366/136 229/367/136
f 217/365/136 229/367/136 228/368/136
f 219/366/137 203/346/137 221/349/137
f 219/345/137 221/358/137 229/360/137
f 221/349/138 220/348/138 230/369/138
f 220/348/139 222/351/139 230/369/139
f 222/351/140 223/357/140 230/369/140
f 223/357/141 224/356/141 230/369/141
f 224/356/142 225/370/142 230/369/142
f 225/370/143 226/364/143 230/369/143
f 226/364/144 227/363/144 230/369/144
f 227/363/145 228/368/145 230/369/145
f 228/368/146 229/367/146 230/369/146
f 229/367/147 221/349/147 230/369/147
f 231/371/148 232/372/148 233/373/148
f 231/371/148 233/373/148 234/374/148
f 235/375/149 236/376/149 237/377/149
f 235/375/149 237/377/149 238/378/149
f 234/379/150 233/380/150 238/381/150
f 234/379/150 238/381/150 237/382/150
f 236/382/151 235/381/151 232/380/151
f 236/382/151 232/380/151 231/379/151
f 236/383/152 231/384/152 234/385/152
f 236/383/152 234/385/152 237/386/152
f 232/384/153 235/383/153 238/386/153
f 232/384/153 238/386/153 233/385/153
f 239/387/154 240/388/154 241/389/154
f 239/387/154 241/389/154 242/390/154
f 240/391/155 243/392/155 244/393/155
f 240/391/155 244/393/155 241/394/155
f 243/392/156 245/395/156 246/396/156
f 243/392/156 246/396/156 244/393/156
f 245/395/157 247/397/157 248/398/157
f 245/395/157 248/398/157 246/396/157
f 247/388/158 249/387/158 250/390/158
f 247/388/158 250/390/158 248/389/158
f 249/387/159 251/399/159 252/400/159
f 249/387/159 252/400/159 250/390/159
f 251/397/160 253/395/160 254/396/160
f 251/397/160 254/396/160 252/398/160
f 253/395/161 255/392/161 256/393/161
f 253/395/161 256/393/161 254/396/161
f 255/392/162 257/391/162 258/394/162
f 255/392/162 258/394/162 256/393/162
f 257/399/163 239/387/163 242/390/163
f 257/399/163 242/390/163 258/400/163
f 242/401/164 241/402/164 259/403/164
f 242/401/164 259/403/164 260/404/164
f 241/402/165 244/405/165 261/406/165
f 241/402/165 261/406/165 259/403/165
f 244/393/166 246/396/166 262/407/166
f 244/393/166 262/407/166 261/408/166
f 246/409/167 248/410/167 263/411/167
f 246/409/167 263/411/167 262/412/167
f 248/389/168 250/390/168 264/413/168
f 248/389/168 264/413/168 263/414/168
f 250/390/169 252/400/169 265/415/169
f 250/390/169 265/415/169 264/413/169
f 252/416/170 254/417/170 266/418/170
f 252/416/170 266/418/170 265/419/170
f 254/396/171 256/393/171 267/408/171
f 254/396/171 267/408/171 266/407/171
f 256/420/172 258/421/172 268/422/172
f 256/420/172 268/422/172 267/423/172
f 258/421/173 242/401/173 260/404/173
f 258/421/173 260/404/173 268/422/173
f 260/404/174 259/403/174 269/424/174
f 259/403/175 261/406/175 269/424/175
f 261/406/176 262/412/176 269/424/176
f 262/412/177 263/411/177 269/424/177
f 263/411/178 264/425/178 269/424/178
f 264/425/179 265/419/179 269/424/179
f 265/419/180 266/418/180 269/424/180
f 266/418/181 267/423/181 269/424/181
f 267/423/182 268/422/182 269/424/182
f 268/422/183 260/404/183 269/424/183
f 270/426/184 271/427/184 272/428/184
f 270/426/184 272/428/184 273/429/184
f 274/430/185 275/431/185 276/432/185
f 274/430/185 276/432/185 277/433/185
f 273/434/186 272/435/186 277/436/186
f 273/434/186 277/436/186 276/437/186
f 275/437/187 274/436/187 271/435/187
f 275/437/187 271/435/187 270/434/187
f 275/438/188 270/439/188 273/440/188
f 275/438/188 273/440/188 276/441/188
f 271/439/189 274/438/189 277/441/189
f 271/439/189 277/441/189 272/440/189
