# Helion frigate, fragment 0 of 8
# Generated by tools. Edit the generator script.
v 0.174312 0.610092 -1.632722
v -0.174312 0.958716 -1.632722
v 0.174312 0.958716 -1.632722
v 0.639144 0.784404 -1.865138
v 0.803487 0.620061 -1.865138
v 0.639144 0.551988 -1.865138
v 0.871560 0.784404 -1.865138
v 0.803487 0.948747 -1.865138
v 0.639144 1.016820 -1.865138
v 0.474801 0.948747 -1.865138
v 0.406728 0.784404 -1.865138
v 0.474801 0.620061 -1.865138
v 0.803487 0.620061 -0.935474
v 0.639144 0.551988 -0.935474
v 0.871560 0.784404 -0.935474
v 0.803487 0.948747 -0.935474
v 0.639144 1.016820 -0.935474
v 0.474801 0.948747 -0.935474
v 0.406728 0.784404 -0.935474
v 0.474801 0.620061 -0.935474
v 0.029052 0.737920 -1.353823
v 0.610092 0.737920 -1.353823
v 0.610092 0.830887 -1.353823
v 0.029052 0.830887 -1.353823
v 0.610092 0.737920 -1.446789
v 0.029052 0.737920 -1.446789
v 0.029052 0.830887 -1.446789
v 0.610092 0.830887 -1.446789
v 0.639144 0.511315 -1.400306
v 0.743650 0.532103 -1.400306
v 0.732895 0.558068 -1.361624
v 0.639144 0.539419 -1.361624
v 0.715493 0.600080 -1.376399
v 0.639144 0.584893 -1.376399
v 0.715493 0.600080 -1.424213
v 0.639144 0.584893 -1.424213
v 0.732895 0.558068 -1.438988
v 0.639144 0.539419 -1.438988
v 0.832247 0.591301 -1.400306
v 0.812374 0.611173 -1.361624
v 0.780219 0.643328 -1.376399
v 0.780219 0.643328 -1.424213
v 0.812374 0.611173 -1.438988
v 0.891445 0.679897 -1.400306
v 0.865480 0.690652 -1.361624
v 0.823468 0.708054 -1.376399
v 0.823468 0.708054 -1.424213
v 0.865480 0.690652 -1.438988
v 0.912232 0.784404 -1.400306
v 0.884128 0.784404 -1.361624
v 0.838655 0.784404 -1.376399
v 0.838655 0.784404 -1.424213
v 0.884128 0.784404 -1.438988
v 0.891445 0.888910 -1.400306
v 0.865480 0.878155 -1.361624
v 0.823468 0.860753 -1.376399
v 0.823468 0.860753 -1.424213
v 0.865480 0.878155 -1.438988
v 0.832247 0.977507 -1.400306
v 0.812374 0.957634 -1.361624
v 0.780219 0.925479 -1.376399
v 0.780219 0.925479 -1.424213
v 0.812374 0.957634 -1.438988
v 0.743650 1.036705 -1.400306
v 0.732895 1.010740 -1.361624
v 0.715493 0.968728 -1.376399
v 0.715493 0.968728 -1.424213
v 0.732895 1.010740 -1.438988
v 0.639144 1.057492 -1.400306
v 0.639144 1.029388 -1.361624
v 0.639144 0.983915 -1.376399
v 0.639144 0.983915 -1.424213
v 0.639144 1.029388 -1.438988
v 0.534637 1.036705 -1.400306
v 0.545392 1.010740 -1.361624
v 0.562794 0.968728 -1.376399
v 0.562794 0.968728 -1.424213
v 0.545392 1.010740 -1.438988
v 0.446041 0.977507 -1.400306
v 0.465914 0.957634 -1.361624
v 0.498068 0.925479 -1.376399
v 0.498068 0.925479 -1.424213
v 0.465914 0.957634 -1.438988
v 0.386843 0.888910 -1.400306
v 0.412808 0.878155 -1.361624
v 0.454820 0.860753 -1.376399
v 0.454820 0.860753 -1.424213
v 0.412808 0.878155 -1.438988
v 0.366055 0.784404 -1.400306
v 0.394159 0.784404 -1.361624
v 0.439633 0.784404 -1.376399
v 0.439633 0.784404 -1.424213
v 0.394159 0.784404 -1.438988
v 0.386843 0.679897 -1.400306
v 0.412808 0.690652 -1.361624
v 0.454820 0.708054 -1.376399
v 0.454820 0.708054 -1.424213
v 0.412808 0.690652 -1.438988
v 0.446041 0.591301 -1.400306
v 0.465914 0.611173 -1.361624
v 0.498068 0.643328 -1.376399
v 0.498068 0.643328 -1.424213
v 0.465914 0.611173 -1.438988
v 0.534637 0.532103 -1.400306
v 0.545392 0.558068 -1.361624
v 0.562794 0.600080 -1.376399
v 0.562794 0.600080 -1.424213
v 0.545392 0.558068 -1.438988
v 0.639144 0.784404 -1.900000
v 0.790339 0.633208 -1.900000
v 0.639144 0.570581 -1.900000
v 0.852966 0.784404 -1.900000
v 0.790339 0.935599 -1.900000
v 0.639144 0.998226 -1.900000
v 0.487948 0.935599 -1.900000
v 0.425321 0.784404 -1.900000
v 0.487948 0.633208 -1.900000
v 0.790339 0.633208 -1.783792
v 0.639144 0.570581 -1.783792
v 0.852966 0.784404 -1.783792
v 0.790339 0.935599 -1.783792
v 0.639144 0.998226 -1.783792
v 0.487948 0.935599 -1.783792
v 0.425321 0.784404 -1.783792
v 0.487948 0.633208 -1.783792
v 0.639144 0.784404 -1.783792
v 0.639144 0.784404 -0.935474
v 0.058104 0.842508 -1.632722
vt 0.968750 0.531250
vt 0.843750 0.656250
vt 0.968750 0.656250
vt 0.539062 0.234375
vt 0.572208 0.206754
vt 0.539062 0.195312
vt 0.585938 0.234375
vt 0.572208 0.261996
vt 0.539062 0.273438
vt 0.505917 0.261996
vt 0.492188 0.234375
vt 0.505917 0.206754
vt 0.589844 0.664062
vt 0.614703 0.664062
vt 0.614703 0.992188
vt 0.589844 0.992188
vt 0.492188 0.308316
vt 0.492188 0.335938
vt 0.867188 0.335938
vt 0.867188 0.308316
vt 0.492188 0.363559
vt 0.867188 0.363559
vt 0.564985 0.664062
vt 0.564985 0.992188
vt 0.062730 0.261996
vt 0.007812 0.234375
vt 0.062730 0.206754
vt 0.843750 0.531250
vt 0.968750 0.531250
vt 0.968750 0.656250
vt 0.843750 0.656250
vt 0.968750 0.531250
vt 0.843750 0.531250
vt 0.843750 0.656250
vt 0.968750 0.656250
vt 0.843750 0.656250
vt 0.968750 0.656250
vt 0.968750 0.531250
vt 0.843750 0.531250
vt 0.843750 0.531250
vt 0.968750 0.531250
vt 0.968750 0.656250
vt 0.843750 0.656250
vt 0.718750 0.242188
vt 0.766585 0.242188
vt 0.761663 0.273438
vt 0.718750 0.273438
vt 0.515625 0.103171
vt 0.558538 0.104237
vt 0.550572 0.106641
vt 0.515625 0.105772
vt 0.718750 0.261501
vt 0.753697 0.261501
vt 0.753697 0.222874
vt 0.718750 0.222874
vt 0.515625 0.105772
vt 0.550572 0.106641
vt 0.558538 0.104237
vt 0.515625 0.103171
vt 0.718750 0.210938
vt 0.761663 0.210938
vt 0.807138 0.242188
vt 0.798042 0.273438
vt 0.594917 0.107276
vt 0.580199 0.109116
vt 0.783324 0.261501
vt 0.783324 0.222874
vt 0.580199 0.109116
vt 0.594917 0.107276
vt 0.798042 0.210938
vt 0.515625 0.106139
vt 0.515625 0.111208
vt 0.640625 0.111823
vt 0.640625 0.107276
vt 0.619225 0.111823
vt 0.599995 0.112819
vt 0.592879 0.109116
vt 0.592879 0.112819
vt 0.438371 0.112819
vt 0.438371 0.109116
vt 0.599995 0.112819
vt 0.619225 0.111823
vt 0.390625 0.107276
vt 0.390625 0.111823
vt 0.515625 0.117188
vt 0.640625 0.117188
vt 0.627761 0.117188
vt 0.606946 0.117188
vt 0.592879 0.117188
vt 0.438371 0.117188
vt 0.606946 0.117188
vt 0.627761 0.117188
vt 0.390625 0.117188
vt 0.515625 0.123167
vt 0.640625 0.122552
vt 0.619225 0.122552
vt 0.599995 0.121556
vt 0.592879 0.121556
vt 0.438371 0.121556
vt 0.599995 0.121556
vt 0.619225 0.122552
vt 0.390625 0.122552
vt 0.515625 0.128236
vt 0.640625 0.127099
vt 0.594917 0.127099
vt 0.580199 0.125259
vt 0.592879 0.125259
vt 0.438371 0.125259
vt 0.580199 0.125259
vt 0.594917 0.127099
vt 0.390625 0.127099
vt 0.558538 0.130138
vt 0.550572 0.127734
vt 0.550572 0.127734
vt 0.558538 0.130138
vt 0.515625 0.131204
vt 0.515625 0.128603
vt 0.515625 0.128603
vt 0.515625 0.131204
vt 0.670915 0.242188
vt 0.675837 0.273438
vt 0.472712 0.130138
vt 0.480678 0.127734
vt 0.683803 0.261501
vt 0.683803 0.222874
vt 0.480678 0.127734
vt 0.472712 0.130138
vt 0.675837 0.210938
vt 0.630362 0.242188
vt 0.639458 0.273438
vt 0.436333 0.127099
vt 0.451051 0.125259
vt 0.654176 0.261501
vt 0.654176 0.222874
vt 0.451051 0.125259
vt 0.436333 0.127099
vt 0.639458 0.210938
vt 0.412025 0.122552
vt 0.431255 0.121556
vt 0.431255 0.121556
vt 0.412025 0.122552
vt 0.403489 0.117188
vt 0.424304 0.117188
vt 0.424304 0.117188
vt 0.403489 0.117188
vt 0.412025 0.111823
vt 0.431255 0.112819
vt 0.431255 0.112819
vt 0.412025 0.111823
vt 0.436333 0.107276
vt 0.451051 0.109116
vt 0.451051 0.109116
vt 0.436333 0.107276
vt 0.472712 0.104237
vt 0.480678 0.106641
vt 0.480678 0.106641
vt 0.472712 0.104237
vt 0.054688 0.328125
vt 0.087833 0.294979
vt 0.054688 0.281250
vt 0.101562 0.328125
vt 0.087833 0.361271
vt 0.054688 0.375000
vt 0.021542 0.361271
vt 0.007812 0.328125
vt 0.021542 0.294979
vt 0.054688 0.281250
vt 0.087833 0.281250
vt 0.087833 0.375000
vt 0.054688 0.375000
vt 0.007812 0.294979
vt 0.007812 0.328125
vt 0.101562 0.328125
vt 0.101562 0.294979
vt 0.007812 0.361271
vt 0.101562 0.361271
vt 0.021542 0.281250
vt 0.021542 0.375000
vt 0.054688 0.281250
vt 0.087833 0.294979
vt 0.054688 0.328125
vt 0.101562 0.328125
vt 0.087833 0.361271
vt 0.054688 0.375000
vt 0.021542 0.361271
vt 0.007812 0.328125
vt 0.021542 0.294979
vt 0.500000 0.500000
vt 0.188873 0.811127
vt 0.060000 0.500000
vt 0.188873 0.188873
vt 0.500000 0.060000
vt 0.811127 0.188873
vt 0.940000 0.500000
vt 0.811127 0.811127
vt 0.500000 0.940000
vt 0.646667 0.646667
vt 0.940000 0.060000
vt 0.060000 0.940000
vt 0.940000 0.940000
vn 0.000000 0.000000 -1.000000
vn 0.000000 0.000000 -1.000000
vn 0.382683 -0.923880 0.000000
vn 0.923880 -0.382683 0.000000
vn 0.923880 0.382683 0.000000
vn 0.382683 0.923880 -0.000000
vn -0.382683 0.923880 0.000000
vn -0.923880 0.382683 -0.000000
vn -0.923880 -0.382683 0.000000
vn -0.382683 -0.923880 0.000000
vn 0.000000 0.000000 1.000000
vn 0.000000 0.000000 -1.000000
vn -0.000000 1.000000 0.000000
vn 0.000000 -1.000000 0.000000
vn -1.000000 0.000000 0.000000
vn 1.000000 0.000000 0.000000
vn 0.158879 -0.798741 0.580319
vn -0.061352 0.308435 0.949265
vn -0.195090 0.980785 0.000000
vn -0.061352 0.308435 -0.949265
vn 0.158879 -0.798741 -0.580319
vn 0.452450 -0.677140 0.580319
vn -0.174714 0.261478 0.949265
vn -0.555570 0.831470 0.000000
vn -0.174714 0.261478 -0.949265
vn 0.452450 -0.677140 -0.580319
vn 0.677140 -0.452450 0.580319
vn -0.261478 0.174714 0.949265
vn -0.831470 0.555570 0.000000
vn -0.261478 0.174714 -0.949265
vn 0.677140 -0.452450 -0.580319
vn 0.798741 -0.158879 0.580319
vn -0.308435 0.061352 0.949265
vn -0.980785 0.195090 0.000000
vn -0.308435 0.061352 -0.949265
vn 0.798741 -0.158879 -0.580319
vn 0.798741 0.158879 0.580319
vn -0.308435 -0.061352 0.949265
vn -0.980785 -0.195090 0.000000
vn -0.308435 -0.061352 -0.949265
vn 0.798741 0.158879 -0.580319
vn 0.677140 0.452450 0.580319
vn -0.261478 -0.174714 0.949265
vn -0.831470 -0.555570 0.000000
vn -0.261478 -0.174714 -0.949265
vn 0.677140 0.452450 -0.580319
vn 0.452450 0.677140 0.580319
vn -0.174714 -0.261478 0.949265
vn -0.555570 -0.831470 0.000000
vn -0.174714 -0.261478 -0.949265
vn 0.452450 0.677140 -0.580319
vn 0.158879 0.798741 0.580319
vn -0.061352 -0.308435 0.949265
vn -0.195090 -0.980785 0.000000
vn -0.061352 -0.308435 -0.949265
vn 0.158879 0.798741 -0.580319
vn -0.158879 0.798741 0.580319
vn 0.061352 -0.308435 0.949265
vn 0.195090 -0.980785 0.000000
vn 0.061352 -0.308435 -0.949265
vn -0.158879 0.798741 -0.580319
vn -0.452450 0.677140 0.580319
vn 0.174714 -0.261478 0.949265
vn 0.555570 -0.831470 0.000000
vn 0.174714 -0.261478 -0.949265
vn -0.452450 0.677140 -0.580319
vn -0.677140 0.452450 0.580319
vn 0.261478 -0.174714 0.949265
vn 0.831470 -0.555570 0.000000
vn 0.261478 -0.174714 -0.949265
vn -0.677140 0.452450 -0.580319
vn -0.798741 0.158879 0.580319
vn 0.308435 -0.061352 0.949265
vn 0.980785 -0.195090 0.000000
vn 0.308435 -0.061352 -0.949265
vn -0.798741 0.158879 -0.580319
vn -0.798741 -0.158879 0.580319
vn 0.308435 0.061352 0.949265
vn 0.980785 0.195090 0.000000
vn 0.308435 0.061352 -0.949265
vn -0.798741 -0.158879 -0.580319
vn -0.677140 -0.452450 0.580319
vn 0.261478 0.174714 0.949265
vn 0.831470 0.555570 0.000000
vn 0.261478 0.174714 -0.949265
vn -0.677140 -0.452450 -0.580319
vn -0.452450 -0.677140 0.580319
vn 0.174714 0.261478 0.949265
vn 0.555570 0.831470 0.000000
vn 0.174714 0.261478 -0.949265
vn -0.452450 -0.677140 -0.580319
vn -0.158879 -0.798741 0.580319
vn 0.061352 0.308435 0.949265
vn 0.195090 0.980785 0.000000
vn 0.061352 0.308435 -0.949265
vn -0.158879 -0.798741 -0.580319
vn 0.000000 0.000000 -1.000000
vn 0.382683 -0.923880 0.000000
vn 0.923880 -0.382683 0.000000
vn 0.923880 0.382683 0.000000
vn 0.382683 0.923880 0.000000
vn -0.382683 0.923880 0.000000
vn -0.923880 0.382683 0.000000
vn -0.923880 -0.382683 0.000000
vn -0.382683 -0.923880 0.000000
vn 0.000000 0.000000 1.000000
vn 0.000000 1.000000 0.000000
vn 0.000000 -1.000000 0.000000
vn 0.000000 1.000000 0.000000
vn 0.000000 -1.000000 0.000000
usemtl skin
f 1/1/1 2/2/1 3/3/1
f 4/4/2 5/5/2 6/6/2
f 4/4/2 7/7/2 5/5/2
f 4/4/2 8/8/2 7/7/2
f 4/4/2 9/9/2 8/8/2
f 4/4/2 10/10/2 9/9/2
f 4/4/2 11/11/2 10/10/2
f 4/4/2 12/12/2 11/11/2
f 4/4/2 6/6/2 12/12/2
f 6/13/3 5/14/3 13/15/3
f 6/13/3 13/15/3 14/16/3
f 5/17/4 7/18/4 15/19/4
f 5/17/4 15/19/4 13/20/4
f 7/18/5 8/21/5 16/22/5
f 7/18/5 16/22/5 15/19/5
f 8/14/6 9/13/6 17/16/6
f 8/14/6 17/16/6 16/15/6
f 9/13/7 10/23/7 18/24/7
f 9/13/7 18/24/7 17/16/7
f 10/25/8 11/26/8 19/26/8
f 10/25/8 19/26/8 18/25/8
f 11/26/9 12/27/9 20/27/9
f 11/26/9 20/27/9 19/26/9
f 12/23/10 6/13/10 14/16/10
f 12/23/10 14/16/10 20/24/10
f 21/28/11 22/29/11 23/30/11
f 21/28/11 23/30/11 24/31/11
f 25/32/12 26/33/12 27/34/12
f 25/32/12 27/34/12 28/35/12
f 24/36/13 23/37/13 28/38/13
f 24/36/13 28/38/13 27/39/13
f 26/39/14 25/38/14 22/37/14
f 26/39/14 22/37/14 21/36/14
f 26/40/15 21/41/15 24/42/15
f 26/40/15 24/42/15 27/43/15
f 22/41/16 25/40/16 28/43/16
f 22/41/16 28/43/16 23/42/16
f 29/44/17 30/45/17 31/46/17
f 29/44/17 31/46/17 32/47/17
f 32/48/18 31/49/18 33/50/18
f 32/48/18 33/50/18 34/51/18
f 34/52/19 33/53/19 35/54/19
f 34/52/19 35/54/19 36/55/19
f 36/56/20 35/57/20 37/58/20
f 36/56/20 37/58/20 38/59/20
f 38/60/21 37/61/21 30/45/21
f 38/60/21 30/45/21 29/44/21
f 30/45/22 39/62/22 40/63/22
f 30/45/22 40/63/22 31/46/22
f 31/49/23 40/64/23 41/65/23
f 31/49/23 41/65/23 33/50/23
f 33/53/24 41/66/24 42/67/24
f 33/53/24 42/67/24 35/54/24
f 35/57/25 42/68/25 43/69/25
f 35/57/25 43/69/25 37/58/25
f 37/61/26 43/70/26 39/62/26
f 37/61/26 39/62/26 30/45/26
f 39/71/27 44/72/27 45/73/27
f 39/71/27 45/73/27 40/74/27
f 40/64/28 45/75/28 46/76/28
f 40/64/28 46/76/28 41/65/28
f 41/77/29 46/78/29 47/79/29
f 41/77/29 47/79/29 42/80/29
f 42/68/30 47/81/30 48/82/30
f 42/68/30 48/82/30 43/69/30
f 43/83/31 48/84/31 44/72/31
f 43/83/31 44/72/31 39/71/31
f 44/72/32 49/85/32 50/86/32
f 44/72/32 50/86/32 45/73/32
f 45/75/33 50/87/33 51/88/33
f 45/75/33 51/88/33 46/76/33
f 46/78/34 51/89/34 52/90/34
f 46/78/34 52/90/34 47/79/34
f 47/81/35 52/91/35 53/92/35
f 47/81/35 53/92/35 48/82/35
f 48/84/36 53/93/36 49/85/36
f 48/84/36 49/85/36 44/72/36
f 49/85/37 54/94/37 55/95/37
f 49/85/37 55/95/37 50/86/37
f 50/87/38 55/96/38 56/97/38
f 50/87/38 56/97/38 51/88/38
f 51/89/39 56/98/39 57/99/39
f 51/89/39 57/99/39 52/90/39
f 52/91/40 57/100/40 58/101/40
f 52/91/40 58/101/40 53/92/40
f 53/93/41 58/102/41 54/94/41
f 53/93/41 54/94/41 49/85/41
f 54/94/42 59/103/42 60/104/42
f 54/94/42 60/104/42 55/95/42
f 55/96/43 60/105/43 61/106/43
f 55/96/43 61/106/43 56/97/43
f 56/98/44 61/107/44 62/108/44
f 56/98/44 62/108/44 57/99/44
f 57/100/45 62/109/45 63/110/45
f 57/100/45 63/110/45 58/101/45
f 58/102/46 63/111/46 59/103/46
f 58/102/46 59/103/46 54/94/46
f 59/62/47 64/45/47 65/46/47
f 59/62/47 65/46/47 60/63/47
f 60/105/48 65/112/48 66/113/48
f 60/105/48 66/113/48 61/106/48
f 61/66/49 66/53/49 67/54/49
f 61/66/49 67/54/49 62/67/49
f 62/109/50 67/114/50 68/115/50
f 62/109/50 68/115/50 63/110/50
f 63/70/51 68/61/51 64/45/51
f 63/70/51 64/45/51 59/62/51
f 64/45/52 69/44/52 70/47/52
f 64/45/52 70/47/52 65/46/52
f 65/112/53 70/116/53 71/117/53
f 65/112/53 71/117/53 66/113/53
f 66/53/54 71/52/54 72/55/54
f 66/53/54 72/55/54 67/54/54
f 67/114/55 72/118/55 73/119/55
f 67/114/55 73/119/55 68/115/55
f 68/61/56 73/60/56 69/44/56
f 68/61/56 69/44/56 64/45/56
f 69/44/57 74/120/57 75/121/57
f 69/44/57 75/121/57 70/47/57
f 70/116/58 75/122/58 76/123/58
f 70/116/58 76/123/58 71/117/58
f 71/52/59 76/124/59 77/125/59
f 71/52/59 77/125/59 72/55/59
f 72/118/60 77/126/60 78/127/60
f 72/118/60 78/127/60 73/119/60
f 73/60/61 78/128/61 74/120/61
f 73/60/61 74/120/61 69/44/61
f 74/120/62 79/129/62 80/130/62
f 74/120/62 80/130/62 75/121/62
f 75/122/63 80/131/63 81/132/63
f 75/122/63 81/132/63 76/123/63
f 76/124/64 81/133/64 82/134/64
f 76/124/64 82/134/64 77/125/64
f 77/126/65 82/135/65 83/136/65
f 77/126/65 83/136/65 78/127/65
f 78/128/66 83/137/66 79/129/66
f 78/128/66 79/129/66 74/120/66
f 79/103/67 84/94/67 85/95/67
f 79/103/67 85/95/67 80/104/67
f 80/131/68 85/138/68 86/139/68
f 80/131/68 86/139/68 81/132/68
f 81/107/69 86/98/69 87/99/69
f 81/107/69 87/99/69 82/108/69
f 82/135/70 87/140/70 88/141/70
f 82/135/70 88/141/70 83/136/70
f 83/111/71 88/102/71 84/94/71
f 83/111/71 84/94/71 79/103/71
f 84/94/72 89/85/72 90/86/72
f 84/94/72 90/86/72 85/95/72
f 85/138/73 90/142/73 91/143/73
f 85/138/73 91/143/73 86/139/73
f 86/98/74 91/89/74 92/90/74
f 86/98/74 92/90/74 87/99/74
f 87/140/75 92/144/75 93/145/75
f 87/140/75 93/145/75 88/141/75
f 88/102/76 93/93/76 89/85/76
f 88/102/76 89/85/76 84/94/76
f 89/85/77 94/72/77 95/73/77
f 89/85/77 95/73/77 90/86/77
f 90/142/78 95/146/78 96/147/78
f 90/142/78 96/147/78 91/143/78
f 91/89/79 96/78/79 97/79/79
f 91/89/79 97/79/79 92/90/79
f 92/144/80 97/148/80 98/149/80
f 92/144/80 98/149/80 93/145/80
f 93/93/81 98/84/81 94/72/81
f 93/93/81 94/72/81 89/85/81
f 94/72/82 99/71/82 100/74/82
f 94/72/82 100/74/82 95/73/82
f 95/146/83 100/150/83 101/151/83
f 95/146/83 101/151/83 96/147/83
f 96/78/84 101/77/84 102/80/84
f 96/78/84 102/80/84 97/79/84
f 97/148/85 102/152/85 103/153/85
f 97/148/85 103/153/85 98/149/85
f 98/84/86 103/83/86 99/71/86
f 98/84/86 99/71/86 94/72/86
f 99/129/87 104/120/87 105/121/87
f 99/129/87 105/121/87 100/130/87
f 100/150/88 105/154/88 106/155/88
f 100/150/88 106/155/88 101/151/88
f 101/133/89 106/124/89 107/125/89
f 101/133/89 107/125/89 102/134/89
f 102/152/90 107/156/90 108/157/90
f 102/152/90 108/157/90 103/153/90
f 103/137/91 108/128/91 104/120/91
f 103/137/91 104/120/91 99/129/91
f 104/120/92 29/44/92 32/47/92
f 104/120/92 32/47/92 105/121/92
f 105/154/93 32/48/93 34/51/93
f 105/154/93 34/51/93 106/155/93
f 106/124/94 34/52/94 36/55/94
f 106/124/94 36/55/94 107/125/94
f 107/156/95 36/56/95 38/59/95
f 107/156/95 38/59/95 108/157/95
f 108/128/96 38/60/96 29/44/96
f 108/128/96 29/44/96 104/120/96
f 109/158/97 110/159/97 111/160/97
f 109/158/97 112/161/97 110/159/97
f 109/158/97 113/162/97 112/161/97
f 109/158/97 114/163/97 113/162/97
f 109/158/97 115/164/97 114/163/97
f 109/158/97 116/165/97 115/164/97
f 109/158/97 117/166/97 116/165/97
f 109/158/97 111/160/97 117/166/97
f 111/167/98 110/168/98 118/169/98
f 111/167/98 118/169/98 119/170/98
f 110/171/99 112/172/99 120/173/99
f 110/171/99 120/173/99 118/174/99
f 112/172/100 113/175/100 121/176/100
f 112/172/100 121/176/100 120/173/100
f 113/168/101 114/167/101 122/170/101
f 113/168/101 122/170/101 121/169/101
f 114/167/102 115/177/102 123/178/102
f 114/167/102 123/178/102 122/170/102
f 115/175/103 116/172/103 124/173/103
f 115/175/103 124/173/103 123/176/103
f 116/172/104 117/171/104 125/174/104
f 116/172/104 125/174/104 124/173/104
f 117/177/105 111/167/105 119/170/105
f 117/177/105 119/170/105 125/178/105
f 119/179/106 118/180/106 126/181/106
f 118/180/106 120/182/106 126/181/106
f 120/182/106 121/183/106 126/181/106
f 121/183/106 122/184/106 126/181/106
f 122/184/106 123/185/106 126/181/106
f 123/185/106 124/186/106 126/181/106
f 124/186/106 125/187/106 126/181/106
f 125/187/106 119/179/106 126/181/106
usemtl interior
f 127/188/107 13/189/107 14/190/107
f 127/188/108 14/190/108 13/189/108
f 127/188/107 14/190/107 20/191/107
f 127/188/108 20/191/108 14/190/108
f 127/188/107 20/191/107 19/192/107
f 127/188/108 19/192/108 20/191/108
f 127/188/107 19/192/107 18/193/107
f 127/188/108 18/193/108 19/192/108
f 127/188/107 18/193/107 17/194/107
f 127/188/108 17/194/108 18/193/108
f 127/188/107 17/194/107 16/195/107
f 127/188/108 16/195/108 17/194/108
f 127/188/107 16/195/107 15/196/107
f 127/188/108 15/196/108 16/195/108
f 127/188/107 15/196/107 13/189/107
f 127/188/108 13/189/108 15/196/108
f 128/197/109 1/198/109 2/199/109
f 128/197/110 2/199/110 1/198/110
f 128/197/109 2/199/109 3/200/109
f 128/197/110 3/200/110 2/199/110
f 128/197/109 3/200/109 1/198/109
f 128/197/110 1/198/110 3/200/110
