# Vaelith dreadnought, fragment 7 of 8
# Generated by tools. Edit the generator script.
v -0.064549 0.199700 2.572221
v 0.064549 0.199700 2.572221
v 0.064549 0.278199 2.564345
v -0.064549 0.278199 2.564345
v 0.143442 0.182968 1.132282
v -0.143442 0.008526 1.149785
v 0.000000 0.189784 2.557198
v 0.028104 0.198870 2.556287
v 0.024339 0.206413 2.579557
v 0.000000 0.198544 2.580346
v 0.045474 0.222657 2.553900
v 0.039381 0.227014 2.577490
v 0.045474 0.252060 2.550950
v 0.039381 0.252477 2.574935
v 0.028104 0.275848 2.548563
v 0.024339 0.273078 2.572868
v 0.000000 0.284934 2.547652
v 0.000000 0.280947 2.572079
v -0.028104 0.275848 2.548563
v -0.024339 0.273078 2.572868
v -0.045474 0.252060 2.550950
v -0.039381 0.252477 2.574935
v -0.045474 0.222657 2.553900
v -0.039381 0.227014 2.577490
v -0.028104 0.198870 2.556287
v -0.024339 0.206413 2.579557
v 0.014052 0.222248 2.595557
v 0.000000 0.217705 2.596013
v 0.022737 0.234142 2.594364
v 0.022737 0.248843 2.592889
v 0.014052 0.260737 2.591695
v 0.000000 0.265280 2.591239
v -0.014052 0.260737 2.591695
v -0.022737 0.248843 2.592889
v -0.022737 0.234142 2.594364
v -0.014052 0.222248 2.595557
v 0.000000 0.242132 2.600000
v 0.000000 0.237359 2.552425
v -0.000000 0.167349 1.854658
vt 0.494531 0.449273
vt 0.536719 0.449273
vt 0.536719 0.476562
vt 0.494531 0.476562
vt 0.055078 0.655310
vt 0.132422 0.655310
vt 0.179688 0.484375
vt 0.007812 0.486464
vt 0.132422 0.656250
vt 0.055078 0.656250
vt 0.010092 0.382812
vt 0.195312 0.449273
vt 0.194287 0.476562
vt 0.007812 0.443456
vt 0.054688 0.298347
vt 0.083658 0.296715
vt 0.079777 0.338389
vt 0.054688 0.339803
vt 0.023277 0.290202
vt 0.019003 0.313640
vt 0.061250 0.317932
vt 0.064951 0.297635
vt 0.013719 0.342610
vt 0.056674 0.343021
vt 0.009445 0.366048
vt 0.052972 0.363319
vt 0.083658 0.282883
vt 0.054688 0.281250
vt 0.054688 0.324996
vt 0.079777 0.326410
vt 0.025717 0.282883
vt 0.029598 0.326410
vt 0.025717 0.296715
vt 0.029598 0.338389
vt 0.054688 0.289882
vt 0.079777 0.297635
vt 0.069173 0.313237
vt 0.054688 0.308761
vt 0.095282 0.317932
vt 0.078125 0.324955
vt 0.088827 0.339441
vt 0.091469 0.324955
vt 0.095282 0.343021
vt 0.079777 0.363319
vt 0.069173 0.351159
vt 0.078125 0.339441
vt 0.054688 0.359311
vt 0.069173 0.360127
vt 0.040202 0.360127
vt 0.029598 0.363319
vt 0.014093 0.343021
vt 0.031250 0.339441
vt 0.040202 0.351159
vt 0.014093 0.317932
vt 0.029598 0.297635
vt 0.040202 0.313237
vt 0.031250 0.324955
vt 0.054688 0.332828
vt 0.054688 0.355636
vt 0.500000 0.500000
vt 0.635967 0.060000
vt 0.364033 0.060000
vt 0.144033 0.228065
vt 0.060000 0.500000
vt 0.144033 0.771935
vt 0.364033 0.940000
vt 0.635967 0.940000
vt 0.855967 0.771935
vt 0.940000 0.500000
vt 0.855967 0.228065
vt 0.501471 0.500000
vt 0.935187 0.302000
vt 0.070696 0.060000
vt 0.940000 0.698000
vt 0.060000 0.940000
vn -0.000000 0.099833 0.995004
vn 0.000000 0.997796 -0.066353
vn 0.000000 -0.991089 0.133201
vn -0.998491 0.005483 0.054643
vn 0.998491 0.005483 0.054643
vn 0.299447 -0.892345 0.337716
vn 0.783962 -0.542083 0.302572
vn 0.969030 0.024653 0.245709
vn 0.783962 0.591389 0.188846
vn 0.299447 0.941651 0.153702
vn -0.299447 0.941651 0.153702
vn -0.783962 0.591389 0.188846
vn -0.969030 0.024653 0.245709
vn -0.783962 -0.542083 0.302572
vn -0.299447 -0.892345 0.337716
vn 0.223919 -0.616908 0.754509
vn 0.586227 -0.354991 0.728230
vn 0.724617 0.068800 0.685709
vn 0.586227 0.492592 0.643188
vn 0.223919 0.754509 0.616908
vn -0.223919 0.754509 0.616908
vn -0.586227 0.492592 0.643188
vn -0.724617 0.068800 0.685709
vn -0.586227 -0.354991 0.728230
vn -0.223919 -0.616908 0.754509
vn 0.083800 -0.160528 0.983468
vn 0.219390 -0.062508 0.973633
vn 0.271181 0.096092 0.957720
vn 0.219390 0.254693 0.941807
vn 0.083800 0.352713 0.931972
vn -0.083800 0.352713 0.931972
vn -0.219390 0.254693 0.941807
vn -0.271181 0.096092 0.957720
vn -0.219390 -0.062508 0.973633
vn -0.083800 -0.160528 0.983468
vn 0.000000 1.000000 0.000000
vn 0.000000 -1.000000 0.000000
vn 0.000000 1.000000 0.000000
vn 0.000000 -1.000000 0.000000
usemtl skin
f 1/1/1 2/2/1 3/3/1
f 1/1/1 3/3/1 4/4/1
f 4/5/2 3/6/2 5/7/2
f 6/8/3 2/9/3 1/10/3
f 6/11/4 1/12/4 4/13/4
f 2/12/5 5/14/5 3/13/5
f 7/15/6 8/16/6 9/17/6
f 7/15/6 9/17/6 10/18/6
f 8/19/7 11/20/7 12/21/7
f 8/19/7 12/21/7 9/22/7
f 11/20/8 13/23/8 14/24/8
f 11/20/8 14/24/8 12/21/8
f 13/23/9 15/25/9 16/26/9
f 13/23/9 16/26/9 14/24/9
f 15/27/10 17/28/10 18/29/10
f 15/27/10 18/29/10 16/30/10
f 17/28/11 19/31/11 20/32/11
f 17/28/11 20/32/11 18/29/11
f 19/25/12 21/23/12 22/24/12
f 19/25/12 22/24/12 20/26/12
f 21/23/13 23/20/13 24/21/13
f 21/23/13 24/21/13 22/24/13
f 23/20/14 25/19/14 26/22/14
f 23/20/14 26/22/14 24/21/14
f 25/33/15 7/15/15 10/18/15
f 25/33/15 10/18/15 26/34/15
f 10/35/16 9/36/16 27/37/16
f 10/35/16 27/37/16 28/38/16
f 9/36/17 12/39/17 29/40/17
f 9/36/17 29/40/17 27/37/17
f 12/21/18 14/24/18 30/41/18
f 12/21/18 30/41/18 29/42/18
f 14/43/19 16/44/19 31/45/19
f 14/43/19 31/45/19 30/46/19
f 16/30/20 18/29/20 32/47/20
f 16/30/20 32/47/20 31/48/20
f 18/29/21 20/32/21 33/49/21
f 18/29/21 33/49/21 32/47/21
f 20/50/22 22/51/22 34/52/22
f 20/50/22 34/52/22 33/53/22
f 22/24/23 24/21/23 35/42/23
f 22/24/23 35/42/23 34/41/23
f 24/54/24 26/55/24 36/56/24
f 24/54/24 36/56/24 35/57/24
f 26/55/25 10/35/25 28/38/25
f 26/55/25 28/38/25 36/56/25
f 28/38/26 27/37/26 37/58/26
f 27/37/27 29/40/27 37/58/27
f 29/40/28 30/46/28 37/58/28
f 30/46/29 31/45/29 37/58/29
f 31/45/30 32/59/30 37/58/30
f 32/59/31 33/53/31 37/58/31
f 33/53/32 34/52/32 37/58/32
f 34/52/33 35/57/33 37/58/33
f 35/57/34 36/56/34 37/58/34
f 36/56/35 28/38/35 37/58/35
usemtl interior
f 38/60/36 21/61/36 23/62/36
f 38/60/37 23/62/37 21/61/37
f 38/60/36 23/62/36 25/63/36
f 38/60/37 25/63/37 23/62/37
f 38/60/36 25/63/36 7/64/36
f 38/60/37 7/64/37 25/63/37
f 38/60/36 7/64/36 8/65/36
f 38/60/37 8/65/37 7/64/37
f 38/60/36 8/65/36 11/66/36
f 38/60/37 11/66/37 8/65/37
f 38/60/36 11/66/36 13/67/36
f 38/60/37 13/67/37 11/66/37
f 38/60/36 13/67/36 15/68/36
f 38/60/37 15/68/37 13/67/37
f 38/60/36 15/68/36 17/69/36
f 38/60/37 17/69/37 15/68/37
f 38/60/36 17/69/36 19/70/36
f 38/60/37 19/70/37 17/69/37
f 38/60/36 19/70/36 21/61/36
f 38/60/37 21/61/37 19/70/37
f 39/71/38 4/72/38 6/73/38
f 39/71/39 6/73/39 4/72/39
f 39/71/38 6/73/38 2/74/38
f 39/71/39 2/74/39 6/73/39
f 39/71/38 2/74/38 5/75/38
f 39/71/39 5/75/39 2/74/39
f 39/71/38 5/75/38 4/72/38
f 39/71/39 4/72/39 5/75/39
