# Sarn battlecruiser, from tools/gen_fleet.py
# Generated by tools. Edit the generator script.
v 0.000000 0.000000 0.207134
v 0.272356 0.147976 1.084319
v 0.000000 0.147976 1.291394
v 0.440681 0.147976 0.542189
v 0.440681 0.147976 -0.127921
v 0.272356 0.147976 -0.670051
v 0.000000 0.147976 -0.877126
v -0.272356 0.147976 -0.670051
v -0.440681 0.147976 -0.127921
v -0.440681 0.147976 0.542189
v -0.272356 0.147976 1.084319
v 0.439283 0.269047 1.621949
v 0.000000 0.269047 1.955941
v 0.710775 0.269047 0.747545
v 0.710775 0.269047 -0.333277
v 0.439283 0.269047 -1.207680
v 0.000000 0.269047 -1.541673
v -0.439283 0.269047 -1.207680
v -0.710775 0.269047 -0.333277
v -0.710775 0.269047 0.747545
v -0.439283 0.269047 1.621949
v 0.272356 0.390118 1.084319
v 0.000000 0.390118 1.291394
v 0.440681 0.390118 0.542189
v 0.440681 0.390118 -0.127921
v 0.272356 0.390118 -0.670051
v 0.000000 0.390118 -0.877126
v -0.272356 0.390118 -0.670051
v -0.440681 0.390118 -0.127921
v -0.440681 0.390118 0.542189
v -0.272356 0.390118 1.084319
v 0.000000 0.538094 0.207134
v 0.000000 0.376900 1.189117
v 0.047559 0.376900 1.189117
v 0.000000 0.376900 1.236676
v 0.000000 0.376900 1.141558
v -0.047559 0.376900 1.189117
v 0.000000 0.499195 1.189117
v 0.000000 0.430507 0.796324
v 0.047559 0.430507 0.796324
v 0.000000 0.430507 0.843883
v 0.000000 0.430507 0.748765
v -0.047559 0.430507 0.796324
v 0.000000 0.552802 0.796324
v 0.000000 0.484114 0.403531
v 0.047559 0.484114 0.403531
v 0.000000 0.484114 0.451090
v 0.000000 0.484114 0.355972
v -0.047559 0.484114 0.403531
v 0.000000 0.606409 0.403531
v 0.000000 0.484114 0.010738
v 0.047559 0.484114 0.010738
v 0.000000 0.484114 0.058296
v 0.000000 0.484114 -0.036821
v -0.047559 0.484114 0.010738
v 0.000000 0.606409 0.010738
v 0.000000 0.430507 -0.382056
v 0.047559 0.430507 -0.382056
v 0.000000 0.430507 -0.334497
v 0.000000 0.430507 -0.429614
v -0.047559 0.430507 -0.382056
v 0.000000 0.552802 -0.382056
v 0.000000 0.376900 -0.774849
v 0.047559 0.376900 -0.774849
v 0.000000 0.376900 -0.727290
v 0.000000 0.376900 -0.822408
v -0.047559 0.376900 -0.774849
v 0.000000 0.499195 -0.774849
v -0.654865 0.214694 1.156231
v -0.654865 0.214694 1.224172
v -0.654865 0.323400 1.224172
v -0.654865 0.323400 1.156231
v -0.491806 0.214694 1.224172
v -0.491806 0.214694 1.156231
v -0.491806 0.323400 1.156231
v -0.491806 0.323400 1.224172
v -0.792305 0.214694 0.173164
v -0.792305 0.214694 0.241105
v -0.792305 0.323400 0.241105
v -0.792305 0.323400 0.173164
v -0.629246 0.214694 0.241105
v -0.629246 0.214694 0.173164
v -0.629246 0.323400 0.173164
v -0.629246 0.323400 0.241105
v -0.654865 0.214694 -0.809904
v -0.654865 0.214694 -0.741962
v -0.654865 0.323400 -0.741962
v -0.654865 0.323400 -0.809904
v -0.491806 0.214694 -0.741962
v -0.491806 0.214694 -0.809904
v -0.491806 0.323400 -0.809904
v -0.491806 0.323400 -0.741962
v 0.654865 0.214694 1.224172
v 0.654865 0.214694 1.156231
v 0.654865 0.323400 1.156231
v 0.654865 0.323400 1.224172
v 0.491806 0.214694 1.156231
v 0.491806 0.214694 1.224172
v 0.491806 0.323400 1.224172
v 0.491806 0.323400 1.156231
v 0.792305 0.214694 0.241105
v 0.792305 0.214694 0.173164
v 0.792305 0.323400 0.173164
v 0.792305 0.323400 0.241105
v 0.629246 0.214694 0.173164
v 0.629246 0.214694 0.241105
v 0.629246 0.323400 0.241105
v 0.629246 0.323400 0.173164
v 0.654865 0.214694 -0.741962
v 0.654865 0.214694 -0.809904
v 0.654865 0.323400 -0.809904
v 0.654865 0.323400 -0.741962
v 0.491806 0.214694 -0.809904
v 0.491806 0.214694 -0.741962
v 0.491806 0.323400 -0.741962
v 0.491806 0.323400 -0.809904
v 0.000000 0.269047 -0.393293
v 0.251458 0.269047 -0.426398
v 0.244424 0.316118 -0.452649
v 0.000000 0.316118 -0.420470
v 0.230357 0.316118 -0.505150
v 0.000000 0.316118 -0.474823
v 0.223323 0.269047 -0.531400
v 0.000000 0.269047 -0.501999
v 0.230357 0.221976 -0.505150
v 0.000000 0.221976 -0.474823
v 0.244424 0.221976 -0.452649
v 0.000000 0.221976 -0.420470
v 0.485780 0.269047 -0.523457
v 0.472191 0.316118 -0.546993
v 0.445015 0.316118 -0.594064
v 0.431427 0.269047 -0.617600
v 0.445015 0.221976 -0.594064
v 0.472191 0.221976 -0.546993
v 0.686996 0.269047 -0.677856
v 0.667780 0.316118 -0.697073
v 0.629346 0.316118 -0.735506
v 0.610129 0.269047 -0.754723
v 0.629346 0.221976 -0.735506
v 0.667780 0.221976 -0.697073
v 0.841395 0.269047 -0.879073
v 0.817860 0.316118 -0.892661
v 0.770788 0.316118 -0.919838
v 0.747253 0.269047 -0.933426
v 0.770788 0.221976 -0.919838
v 0.817860 0.221976 -0.892661
v 0.938454 0.269047 -1.113394
v 0.912204 0.316118 -1.120428
v 0.859703 0.316118 -1.134496
v 0.833452 0.269047 -1.141530
v 0.859703 0.221976 -1.134496
v 0.912204 0.221976 -1.120428
v 0.971559 0.269047 -1.364852
v 0.944383 0.316118 -1.364852
v 0.890030 0.316118 -1.364852
v 0.862853 0.269047 -1.364852
v 0.890030 0.221976 -1.364852
v 0.944383 0.221976 -1.364852
v 0.938454 0.269047 -1.616311
v 0.912204 0.316118 -1.609277
v 0.859703 0.316118 -1.595209
v 0.833452 0.269047 -1.588175
v 0.859703 0.221976 -1.595209
v 0.912204 0.221976 -1.609277
v 0.841395 0.269047 -1.850632
v 0.817860 0.316118 -1.837044
v 0.770788 0.316118 -1.809867
v 0.747253 0.269047 -1.796279
v 0.770788 0.221976 -1.809867
v 0.817860 0.221976 -1.837044
v 0.686996 0.269047 -2.051849
v 0.667780 0.316118 -2.032632
v 0.629346 0.316118 -1.994199
v 0.610129 0.269047 -1.974982
v 0.629346 0.221976 -1.994199
v 0.667780 0.221976 -2.032632
v 0.485780 0.269047 -2.206247
v 0.472191 0.316118 -2.182712
v 0.445015 0.316118 -2.135641
v 0.431427 0.269047 -2.112105
v 0.445015 0.221976 -2.135641
v 0.472191 0.221976 -2.182712
v 0.251458 0.269047 -2.303307
v 0.244424 0.316118 -2.277056
v 0.230357 0.316118 -2.224555
v 0.223323 0.269047 -2.198305
v 0.230357 0.221976 -2.224555
v 0.244424 0.221976 -2.277056
v 0.000000 0.269047 -2.336412
v 0.000000 0.316118 -2.309235
v 0.000000 0.316118 -2.254882
v 0.000000 0.269047 -2.227706
v 0.000000 0.221976 -2.254882
v 0.000000 0.221976 -2.309235
v -0.251458 0.269047 -2.303307
v -0.244424 0.316118 -2.277056
v -0.230357 0.316118 -2.224555
v -0.223323 0.269047 -2.198305
v -0.230357 0.221976 -2.224555
v -0.244424 0.221976 -2.277056
v -0.485780 0.269047 -2.206247
v -0.472191 0.316118 -2.182712
v -0.445015 0.316118 -2.135641
v -0.431427 0.269047 -2.112105
v -0.445015 0.221976 -2.135641
v -0.472191 0.221976 -2.182712
v -0.686996 0.269047 -2.051849
v -0.667780 0.316118 -2.032632
v -0.629346 0.316118 -1.994199
v -0.610129 0.269047 -1.974982
v -0.629346 0.221976 -1.994199
v -0.667780 0.221976 -2.032632
v -0.841395 0.269047 -1.850632
v -0.817860 0.316118 -1.837044
v -0.770788 0.316118 -1.809867
v -0.747253 0.269047 -1.796279
v -0.770788 0.221976 -1.809867
v -0.817860 0.221976 -1.837044
v -0.938454 0.269047 -1.616311
v -0.912204 0.316118 -1.609277
v -0.859703 0.316118 -1.595209
v -0.833452 0.269047 -1.588175
v -0.859703 0.221976 -1.595209
v -0.912204 0.221976 -1.609277
v -0.971559 0.269047 -1.364852
v -0.944383 0.316118 -1.364852
v -0.890030 0.316118 -1.364852
v -0.862853 0.269047 -1.364852
v -0.890030 0.221976 -1.364852
v -0.944383 0.221976 -1.364852
v -0.938454 0.269047 -1.113394
v -0.912204 0.316118 -1.120428
v -0.859703 0.316118 -1.134496
v -0.833452 0.269047 -1.141530
v -0.859703 0.221976 -1.134496
v -0.912204 0.221976 -1.120428
v -0.841395 0.269047 -0.879073
v -0.817860 0.316118 -0.892661
v -0.770788 0.316118 -0.919838
v -0.747253 0.269047 -0.933426
v -0.770788 0.221976 -0.919838
v -0.817860 0.221976 -0.892661
v -0.686996 0.269047 -0.677856
v -0.667780 0.316118 -0.697073
v -0.629346 0.316118 -0.735506
v -0.610129 0.269047 -0.754723
v -0.629346 0.221976 -0.735506
v -0.667780 0.221976 -0.697073
v -0.485780 0.269047 -0.523457
v -0.472191 0.316118 -0.546993
v -0.445015 0.316118 -0.594064
v -0.431427 0.269047 -0.617600
v -0.445015 0.221976 -0.594064
v -0.472191 0.221976 -0.546993
v -0.251458 0.269047 -0.426398
v -0.244424 0.316118 -0.452649
v -0.230357 0.316118 -0.505150
v -0.223323 0.269047 -0.531400
v -0.230357 0.221976 -0.505150
v -0.244424 0.221976 -0.452649
v 0.726383 0.201106 -1.755514
v 0.862265 0.201106 -1.755514
v 0.862265 0.336988 -1.755514
v 0.726383 0.336988 -1.755514
v 0.862265 0.201106 -1.891397
v 0.726383 0.201106 -1.891397
v 0.726383 0.336988 -1.891397
v 0.862265 0.336988 -1.891397
v -0.067941 0.201106 -2.214118
v 0.067941 0.201106 -2.214118
v 0.067941 0.336988 -2.214118
v -0.067941 0.336988 -2.214118
v 0.067941 0.201106 -2.350000
v -0.067941 0.201106 -2.350000
v -0.067941 0.336988 -2.350000
v 0.067941 0.336988 -2.350000
v -0.862265 0.201106 -1.755514
v -0.726383 0.201106 -1.755514
v -0.726383 0.336988 -1.755514
v -0.862265 0.336988 -1.755514
v -0.726383 0.201106 -1.891397
v -0.862265 0.201106 -1.891397
v -0.862265 0.336988 -1.891397
v -0.726383 0.336988 -1.891397
v -0.862265 0.201106 -0.838308
v -0.726383 0.201106 -0.838308
v -0.726383 0.336988 -0.838308
v -0.862265 0.336988 -0.838308
v -0.726383 0.201106 -0.974190
v -0.862265 0.201106 -0.974190
v -0.862265 0.336988 -0.974190
v -0.726383 0.336988 -0.974190
v -0.067941 0.201106 -0.379705
v 0.067941 0.201106 -0.379705
v 0.067941 0.336988 -0.379705
v -0.067941 0.336988 -0.379705
v 0.067941 0.201106 -0.515587
v -0.067941 0.201106 -0.515587
v -0.067941 0.336988 -0.515587
v 0.067941 0.336988 -0.515587
v 0.726383 0.201106 -0.838308
v 0.862265 0.201106 -0.838308
v 0.862265 0.336988 -0.838308
v 0.726383 0.336988 -0.838308
v 0.862265 0.201106 -0.974190
v 0.726383 0.201106 -0.974190
v 0.726383 0.336988 -0.974190
v 0.862265 0.336988 -0.974190
v 0.917206 0.269047 -1.670588
v 0.994073 0.192180 -1.670588
v 0.917206 0.160341 -1.670588
v 1.025912 0.269047 -1.670588
v 0.994073 0.345914 -1.670588
v 0.917206 0.377753 -1.670588
v 0.840340 0.345914 -1.670588
v 0.808500 0.269047 -1.670588
v 0.840340 0.192180 -1.670588
v 0.994073 0.192180 -1.194999
v 0.917206 0.160341 -1.194999
v 1.025912 0.269047 -1.194999
v 0.994073 0.345914 -1.194999
v 0.917206 0.377753 -1.194999
v 0.840340 0.345914 -1.194999
v 0.808500 0.269047 -1.194999
v 0.840340 0.192180 -1.194999
v 0.917206 0.269047 -1.194999
v 0.917206 0.357371 -1.650206
v 0.979661 0.331501 -1.650206
v 0.962173 0.314014 -1.670588
v 0.917206 0.332640 -1.670588
v 1.005530 0.269047 -1.650206
v 0.980799 0.269047 -1.670588
v 0.979661 0.206593 -1.650206
v 0.962173 0.224080 -1.670588
v 0.917206 0.180724 -1.650206
v 0.917206 0.205454 -1.670588
v 0.854752 0.206593 -1.650206
v 0.872239 0.224080 -1.670588
v 0.828883 0.269047 -1.650206
v 0.853613 0.269047 -1.670588
v 0.854752 0.331501 -1.650206
v 0.872239 0.314014 -1.670588
v 0.917206 0.269047 -1.684176
v -0.917206 0.269047 -1.670588
v -0.840340 0.192180 -1.670588
v -0.917206 0.160341 -1.670588
v -0.808500 0.269047 -1.670588
v -0.840340 0.345914 -1.670588
v -0.917206 0.377753 -1.670588
v -0.994073 0.345914 -1.670588
v -1.025912 0.269047 -1.670588
v -0.994073 0.192180 -1.670588
v -0.840340 0.192180 -1.194999
v -0.917206 0.160341 -1.194999
v -0.808500 0.269047 -1.194999
v -0.840340 0.345914 -1.194999
v -0.917206 0.377753 -1.194999
v -0.994073 0.345914 -1.194999
v -1.025912 0.269047 -1.194999
v -0.994073 0.192180 -1.194999
v -0.917206 0.269047 -1.194999
v -0.917206 0.357371 -1.650206
v -0.854752 0.331501 -1.650206
v -0.872239 0.314014 -1.670588
v -0.917206 0.332640 -1.670588
v -0.828883 0.269047 -1.650206
v -0.853613 0.269047 -1.670588
v -0.854752 0.206593 -1.650206
v -0.872239 0.224080 -1.670588
v -0.917206 0.180724 -1.650206
v -0.917206 0.205454 -1.670588
v -0.979661 0.206593 -1.650206
v -0.962173 0.224080 -1.670588
v -1.005530 0.269047 -1.650206
v -0.980799 0.269047 -1.670588
v -0.979661 0.331501 -1.650206
v -0.962173 0.314014 -1.670588
v -0.917206 0.269047 -1.684176
v -0.944383 0.228282 -1.072705
v 0.000000 0.228282 -1.072705
v 0.000000 0.309812 -1.072705
v -0.944383 0.309812 -1.072705
v 0.000000 0.228282 -1.249352
v -0.944383 0.228282 -1.249352
v -0.944383 0.309812 -1.249352
v 0.000000 0.309812 -1.249352
v 0.000000 0.228282 -1.072705
v 0.944383 0.228282 -1.072705
v 0.944383 0.309812 -1.072705
v 0.000000 0.309812 -1.072705
v 0.944383 0.228282 -1.249352
v 0.000000 0.228282 -1.249352
v 0.000000 0.309812 -1.249352
v 0.944383 0.309812 -1.249352
v 0.000000 0.269047 1.874412
v 0.117678 0.201106 1.874412
v 0.000000 0.133165 1.874412
v 0.117678 0.336988 1.874412
v 0.000000 0.404930 1.874412
v -0.117678 0.336988 1.874412
v -0.117678 0.201106 1.874412
v 0.000000 0.269047 2.350000
v -0.149471 0.269047 1.738529
v -0.108706 0.269047 1.738529
v -0.149471 0.228282 1.738529
v -0.149471 0.309812 1.738529
v -0.190235 0.269047 1.738529
v -0.149471 0.269047 2.350000
v 0.149471 0.269047 1.738529
v 0.190235 0.269047 1.738529
v 0.149471 0.228282 1.738529
v 0.149471 0.309812 1.738529
v 0.108706 0.269047 1.738529
v 0.149471 0.269047 2.350000
vt 0.445312 0.828125
vt 0.484229 0.910417
vt 0.445312 0.929844
vt 0.508281 0.859558
vt 0.508281 0.796692
vt 0.484229 0.745833
vt 0.445312 0.726406
vt 0.406396 0.745833
vt 0.382344 0.796692
vt 0.382344 0.859558
vt 0.406396 0.910417
vt 0.508082 0.960854
vt 0.445312 0.992188
vt 0.546875 0.878823
vt 0.546875 0.777427
vt 0.508082 0.695396
vt 0.445312 0.664062
vt 0.382543 0.695396
vt 0.343750 0.777427
vt 0.343750 0.878823
vt 0.382543 0.960854
vt 0.617188 0.429688
vt 0.664062 0.429688
vt 0.617188 0.476562
vt 0.617188 0.382812
vt 0.570312 0.429688
vt 0.718750 0.382812
vt 0.765625 0.382812
vt 0.718750 0.476562
vt 0.718750 0.382812
vt 0.671875 0.382812
vt 0.718750 0.476562
vt 0.671875 0.382812
vt 0.617188 0.429688
vt 0.664062 0.429688
vt 0.617188 0.476562
vt 0.617188 0.382812
vt 0.570312 0.429688
vt 0.718750 0.382812
vt 0.765625 0.382812
vt 0.718750 0.476562
vt 0.718750 0.382812
vt 0.671875 0.382812
vt 0.718750 0.476562
vt 0.671875 0.382812
vt 0.617188 0.429688
vt 0.664062 0.429688
vt 0.617188 0.476562
vt 0.617188 0.382812
vt 0.570312 0.429688
vt 0.718750 0.382812
vt 0.765625 0.382812
vt 0.718750 0.476562
vt 0.765625 0.382812
vt 0.718750 0.382812
vt 0.718750 0.476562
vt 0.671875 0.382812
vt 0.671875 0.382812
vt 0.617188 0.429688
vt 0.664062 0.429688
vt 0.617188 0.476562
vt 0.617188 0.382812
vt 0.570312 0.429688
vt 0.765625 0.382812
vt 0.718750 0.382812
vt 0.718750 0.476562
vt 0.671875 0.382812
vt 0.617188 0.429688
vt 0.664062 0.429688
vt 0.617188 0.476562
vt 0.617188 0.382812
vt 0.570312 0.429688
vt 0.718750 0.382812
vt 0.765625 0.382812
vt 0.718750 0.476562
vt 0.765625 0.382812
vt 0.718750 0.382812
vt 0.718750 0.476562
vt 0.671875 0.382812
vt 0.671875 0.382812
vt 0.617188 0.429688
vt 0.664062 0.429688
vt 0.617188 0.476562
vt 0.617188 0.382812
vt 0.570312 0.429688
vt 0.718750 0.382812
vt 0.765625 0.382812
vt 0.718750 0.476562
vt 0.718750 0.382812
vt 0.671875 0.382812
vt 0.718750 0.476562
vt 0.671875 0.382812
vt 0.851562 0.210938
vt 0.945312 0.210938
vt 0.945312 0.273438
vt 0.851562 0.273438
vt 0.851562 0.210938
vt 0.851562 0.273438
vt 0.945312 0.273438
vt 0.945312 0.210938
vt 0.945312 0.210938
vt 0.851562 0.210938
vt 0.851562 0.273438
vt 0.945312 0.273438
vt 0.773438 0.140625
vt 0.835938 0.140625
vt 0.835938 0.187500
vt 0.773438 0.187500
vt 0.851562 0.210938
vt 0.945312 0.210938
vt 0.945312 0.273438
vt 0.851562 0.273438
vt 0.851562 0.210938
vt 0.851562 0.273438
vt 0.945312 0.273438
vt 0.945312 0.210938
vt 0.945312 0.210938
vt 0.851562 0.210938
vt 0.851562 0.273438
vt 0.945312 0.273438
vt 0.773438 0.140625
vt 0.835938 0.140625
vt 0.835938 0.187500
vt 0.773438 0.187500
vt 0.851562 0.210938
vt 0.945312 0.210938
vt 0.945312 0.273438
vt 0.851562 0.273438
vt 0.851562 0.210938
vt 0.851562 0.273438
vt 0.945312 0.273438
vt 0.945312 0.210938
vt 0.945312 0.210938
vt 0.851562 0.210938
vt 0.851562 0.273438
vt 0.945312 0.273438
vt 0.773438 0.140625
vt 0.835938 0.140625
vt 0.835938 0.187500
vt 0.773438 0.187500
vt 0.945312 0.210938
vt 0.851562 0.210938
vt 0.851562 0.273438
vt 0.945312 0.273438
vt 0.945312 0.273438
vt 0.945312 0.210938
vt 0.851562 0.210938
vt 0.851562 0.273438
vt 0.773438 0.140625
vt 0.835938 0.140625
vt 0.835938 0.187500
vt 0.773438 0.187500
vt 0.945312 0.210938
vt 0.851562 0.210938
vt 0.851562 0.273438
vt 0.945312 0.273438
vt 0.945312 0.210938
vt 0.851562 0.210938
vt 0.851562 0.273438
vt 0.945312 0.273438
vt 0.945312 0.273438
vt 0.945312 0.210938
vt 0.851562 0.210938
vt 0.851562 0.273438
vt 0.773438 0.140625
vt 0.835938 0.140625
vt 0.835938 0.187500
vt 0.773438 0.187500
vt 0.945312 0.210938
vt 0.851562 0.210938
vt 0.851562 0.273438
vt 0.945312 0.273438
vt 0.945312 0.210938
vt 0.851562 0.210938
vt 0.851562 0.273438
vt 0.945312 0.273438
vt 0.945312 0.273438
vt 0.945312 0.210938
vt 0.851562 0.210938
vt 0.851562 0.273438
vt 0.773438 0.140625
vt 0.835938 0.140625
vt 0.835938 0.187500
vt 0.773438 0.187500
vt 0.945312 0.210938
vt 0.851562 0.210938
vt 0.851562 0.273438
vt 0.945312 0.273438
vt 0.515625 0.117188
vt 0.547977 0.117188
vt 0.547072 0.132812
vt 0.515625 0.132812
vt 0.718750 0.272563
vt 0.750197 0.271528
vt 0.748387 0.269840
vt 0.718750 0.270815
vt 0.515625 0.132812
vt 0.545262 0.132812
vt 0.544358 0.117188
vt 0.515625 0.117188
vt 0.545262 0.101562
vt 0.515625 0.101562
vt 0.515625 0.101562
vt 0.547072 0.101562
vt 0.578125 0.117188
vt 0.576377 0.132812
vt 0.779502 0.268494
vt 0.776005 0.266980
vt 0.572880 0.132812
vt 0.571132 0.117188
vt 0.572880 0.101562
vt 0.576377 0.101562
vt 0.604013 0.117188
vt 0.601541 0.132812
vt 0.804666 0.263666
vt 0.799721 0.262430
vt 0.596596 0.132812
vt 0.594124 0.117188
vt 0.596596 0.101562
vt 0.601541 0.101562
vt 0.604013 0.117188
vt 0.578125 0.117188
vt 0.576377 0.132812
vt 0.601541 0.132812
vt 0.823975 0.257375
vt 0.817919 0.256501
vt 0.596596 0.132812
vt 0.572880 0.132812
vt 0.571132 0.117188
vt 0.594124 0.117188
vt 0.572880 0.101562
vt 0.596596 0.101562
vt 0.601541 0.101562
vt 0.576377 0.101562
vt 0.547977 0.117188
vt 0.547072 0.132812
vt 0.836113 0.250049
vt 0.829359 0.249597
vt 0.545262 0.132812
vt 0.544358 0.117188
vt 0.545262 0.101562
vt 0.547072 0.101562
vt 0.515625 0.117188
vt 0.515625 0.132812
vt 0.840253 0.242188
vt 0.833260 0.242188
vt 0.515625 0.101562
vt 0.483273 0.117188
vt 0.484178 0.132812
vt 0.836113 0.234326
vt 0.829359 0.234778
vt 0.485988 0.132812
vt 0.486892 0.117188
vt 0.485988 0.101562
vt 0.484178 0.101562
vt 0.453125 0.117188
vt 0.454873 0.132812
vt 0.823975 0.227000
vt 0.817919 0.227874
vt 0.458370 0.132812
vt 0.460118 0.117188
vt 0.458370 0.101562
vt 0.454873 0.101562
vt 0.427237 0.117188
vt 0.429709 0.132812
vt 0.804666 0.220709
vt 0.799721 0.221945
vt 0.434654 0.132812
vt 0.437126 0.117188
vt 0.434654 0.101562
vt 0.429709 0.101562
vt 0.604013 0.117188
vt 0.578125 0.117188
vt 0.576377 0.132812
vt 0.601541 0.132812
vt 0.779502 0.215881
vt 0.776005 0.217395
vt 0.596596 0.132812
vt 0.572880 0.132812
vt 0.571132 0.117188
vt 0.594124 0.117188
vt 0.572880 0.101562
vt 0.596596 0.101562
vt 0.601541 0.101562
vt 0.576377 0.101562
vt 0.547977 0.117188
vt 0.547072 0.132812
vt 0.750197 0.212847
vt 0.748387 0.214535
vt 0.545262 0.132812
vt 0.544358 0.117188
vt 0.545262 0.101562
vt 0.547072 0.101562
vt 0.718750 0.211812
vt 0.718750 0.213560
vt 0.483273 0.117188
vt 0.484178 0.132812
vt 0.687303 0.212847
vt 0.689113 0.214535
vt 0.485988 0.132812
vt 0.486892 0.117188
vt 0.485988 0.101562
vt 0.484178 0.101562
vt 0.453125 0.117188
vt 0.454873 0.132812
vt 0.657998 0.215881
vt 0.661495 0.217395
vt 0.458370 0.132812
vt 0.460118 0.117188
vt 0.458370 0.101562
vt 0.454873 0.101562
vt 0.427237 0.117188
vt 0.429709 0.132812
vt 0.632834 0.220709
vt 0.637779 0.221945
vt 0.434654 0.132812
vt 0.437126 0.117188
vt 0.434654 0.101562
vt 0.429709 0.101562
vt 0.613525 0.227000
vt 0.619581 0.227874
vt 0.601387 0.234326
vt 0.608141 0.234778
vt 0.597247 0.242188
vt 0.604240 0.242188
vt 0.601387 0.250049
vt 0.608141 0.249597
vt 0.613525 0.257375
vt 0.619581 0.256501
vt 0.632834 0.263666
vt 0.637779 0.262430
vt 0.427237 0.117188
vt 0.453125 0.117188
vt 0.454873 0.132812
vt 0.429709 0.132812
vt 0.657998 0.268494
vt 0.661495 0.266980
vt 0.434654 0.132812
vt 0.458370 0.132812
vt 0.460118 0.117188
vt 0.437126 0.117188
vt 0.458370 0.101562
vt 0.434654 0.101562
vt 0.429709 0.101562
vt 0.454873 0.101562
vt 0.483273 0.117188
vt 0.484178 0.132812
vt 0.687303 0.271528
vt 0.689113 0.269840
vt 0.485988 0.132812
vt 0.486892 0.117188
vt 0.485988 0.101562
vt 0.484178 0.101562
vt 0.671875 0.382812
vt 0.765625 0.382812
vt 0.765625 0.476562
vt 0.671875 0.476562
vt 0.765625 0.382812
vt 0.671875 0.382812
vt 0.671875 0.476562
vt 0.765625 0.476562
vt 0.570312 0.476562
vt 0.664062 0.476562
vt 0.664062 0.382812
vt 0.570312 0.382812
vt 0.671875 0.382812
vt 0.765625 0.382812
vt 0.765625 0.476562
vt 0.671875 0.476562
vt 0.671875 0.382812
vt 0.765625 0.382812
vt 0.765625 0.476562
vt 0.671875 0.476562
vt 0.765625 0.382812
vt 0.671875 0.382812
vt 0.671875 0.476562
vt 0.765625 0.476562
vt 0.570312 0.476562
vt 0.664062 0.476562
vt 0.664062 0.382812
vt 0.570312 0.382812
vt 0.671875 0.382812
vt 0.765625 0.382812
vt 0.765625 0.476562
vt 0.671875 0.476562
vt 0.671875 0.382812
vt 0.765625 0.382812
vt 0.765625 0.476562
vt 0.671875 0.476562
vt 0.765625 0.382812
vt 0.671875 0.382812
vt 0.671875 0.476562
vt 0.765625 0.476562
vt 0.570312 0.476562
vt 0.664062 0.476562
vt 0.664062 0.382812
vt 0.570312 0.382812
vt 0.671875 0.382812
vt 0.765625 0.382812
vt 0.765625 0.476562
vt 0.671875 0.476562
vt 0.671875 0.382812
vt 0.765625 0.382812
vt 0.765625 0.476562
vt 0.671875 0.476562
vt 0.765625 0.382812
vt 0.671875 0.382812
vt 0.671875 0.476562
vt 0.765625 0.476562
vt 0.570312 0.476562
vt 0.664062 0.476562
vt 0.664062 0.382812
vt 0.570312 0.382812
vt 0.671875 0.382812
vt 0.765625 0.382812
vt 0.765625 0.476562
vt 0.671875 0.476562
vt 0.671875 0.382812
vt 0.765625 0.382812
vt 0.765625 0.476562
vt 0.671875 0.476562
vt 0.765625 0.382812
vt 0.671875 0.382812
vt 0.671875 0.476562
vt 0.765625 0.476562
vt 0.570312 0.476562
vt 0.664062 0.476562
vt 0.664062 0.382812
vt 0.570312 0.382812
vt 0.671875 0.382812
vt 0.765625 0.382812
vt 0.765625 0.476562
vt 0.671875 0.476562
vt 0.671875 0.382812
vt 0.765625 0.382812
vt 0.765625 0.476562
vt 0.671875 0.476562
vt 0.765625 0.382812
vt 0.671875 0.382812
vt 0.671875 0.476562
vt 0.765625 0.476562
vt 0.570312 0.476562
vt 0.664062 0.476562
vt 0.664062 0.382812
vt 0.570312 0.382812
vt 0.671875 0.382812
vt 0.765625 0.382812
vt 0.765625 0.476562
vt 0.671875 0.476562
vt 0.539062 0.234375
vt 0.572208 0.206754
vt 0.539062 0.195312
vt 0.585938 0.234375
vt 0.572208 0.261996
vt 0.539062 0.273438
vt 0.505917 0.261996
vt 0.492188 0.234375
vt 0.505917 0.206754
vt 0.589844 0.664062
vt 0.614703 0.664062
vt 0.614703 0.992188
vt 0.589844 0.992188
vt 0.492188 0.308316
vt 0.492188 0.335938
vt 0.867188 0.335938
vt 0.867188 0.308316
vt 0.492188 0.363559
vt 0.867188 0.363559
vt 0.564985 0.664062
vt 0.564985 0.992188
vt 0.437500 0.195312
vt 0.470646 0.206754
vt 0.437500 0.234375
vt 0.484375 0.234375
vt 0.470646 0.261996
vt 0.437500 0.273438
vt 0.404354 0.261996
vt 0.390625 0.234375
vt 0.404354 0.206754
vt 0.054688 0.375000
vt 0.087833 0.361271
vt 0.078552 0.351990
vt 0.054688 0.361875
vt 0.101562 0.328125
vt 0.088437 0.328125
vt 0.087833 0.294979
vt 0.078552 0.304260
vt 0.054688 0.281250
vt 0.054688 0.294375
vt 0.021542 0.294979
vt 0.030823 0.304260
vt 0.007812 0.328125
vt 0.020938 0.328125
vt 0.021542 0.361271
vt 0.030823 0.351990
vt 0.054688 0.328125
vt 0.539062 0.234375
vt 0.572208 0.206754
vt 0.539062 0.195312
vt 0.585938 0.234375
vt 0.572208 0.261996
vt 0.539062 0.273438
vt 0.505917 0.261996
vt 0.492188 0.234375
vt 0.505917 0.206754
vt 0.589844 0.664062
vt 0.614703 0.664062
vt 0.614703 0.992188
vt 0.589844 0.992188
vt 0.492188 0.308316
vt 0.492188 0.335938
vt 0.867188 0.335938
vt 0.867188 0.308316
vt 0.492188 0.363559
vt 0.867188 0.363559
vt 0.564985 0.664062
vt 0.564985 0.992188
vt 0.437500 0.195312
vt 0.470646 0.206754
vt 0.437500 0.234375
vt 0.484375 0.234375
vt 0.470646 0.261996
vt 0.437500 0.273438
vt 0.404354 0.261996
vt 0.390625 0.234375
vt 0.404354 0.206754
vt 0.054687 0.375000
vt 0.087833 0.361271
vt 0.078552 0.351990
vt 0.054687 0.361875
vt 0.101562 0.328125
vt 0.088437 0.328125
vt 0.087833 0.294979
vt 0.078552 0.304260
vt 0.054687 0.281250
vt 0.054687 0.294375
vt 0.021542 0.294979
vt 0.030823 0.304260
vt 0.007812 0.328125
vt 0.020938 0.328125
vt 0.021542 0.361271
vt 0.030823 0.351990
vt 0.054687 0.328125
vt 0.187500 0.484375
vt 0.312500 0.484375
vt 0.312500 0.656250
vt 0.187500 0.656250
vt 0.312500 0.484375
vt 0.187500 0.484375
vt 0.187500 0.656250
vt 0.312500 0.656250
vt 0.320312 0.656250
vt 0.382812 0.656250
vt 0.382812 0.484375
vt 0.320312 0.484375
vt 0.187500 0.484375
vt 0.312500 0.484375
vt 0.312500 0.656250
vt 0.187500 0.656250
vt 0.187500 0.484375
vt 0.312500 0.484375
vt 0.312500 0.656250
vt 0.187500 0.656250
vt 0.312500 0.484375
vt 0.187500 0.484375
vt 0.187500 0.656250
vt 0.312500 0.656250
vt 0.320312 0.656250
vt 0.382812 0.656250
vt 0.382812 0.484375
vt 0.320312 0.484375
vt 0.187500 0.484375
vt 0.312500 0.484375
vt 0.312500 0.656250
vt 0.187500 0.656250
vt 0.101562 0.429688
vt 0.195312 0.406250
vt 0.101562 0.382812
vt 0.195312 0.453125
vt 0.101562 0.476562
vt 0.007813 0.453125
vt 0.007812 0.406250
vt 0.093750 0.484375
vt 0.179687 0.484375
vt 0.093750 0.656250
vt 0.007812 0.406250
vt 0.007812 0.453125
vt 0.195312 0.429688
vt 0.007813 0.484375
vt 0.718750 0.429688
vt 0.765625 0.429688
vt 0.718750 0.382812
vt 0.718750 0.476562
vt 0.671875 0.429688
vt 0.617188 0.382812
vt 0.664062 0.382812
vt 0.617188 0.476562
vt 0.570312 0.382812
vt 0.718750 0.429688
vt 0.765625 0.429688
vt 0.718750 0.382812
vt 0.718750 0.476562
vt 0.671875 0.429688
vt 0.617188 0.382812
vt 0.664062 0.382812
vt 0.617188 0.476562
vt 0.570312 0.382812
vn 0.102273 -0.985620 0.134514
vn 0.261294 -0.961844 0.081129
vn 0.318323 -0.947982 0.000000
vn 0.261294 -0.961844 -0.081129
vn 0.102273 -0.985620 -0.134514
vn -0.102273 -0.985620 -0.134514
vn -0.261294 -0.961844 -0.081129
vn -0.318323 -0.947982 -0.000000
vn -0.261294 -0.961844 0.081129
vn -0.102273 -0.985620 0.134514
vn 0.135027 -0.974796 0.177594
vn 0.339026 -0.934869 0.105264
vn 0.409040 -0.912516 0.000000
vn 0.339026 -0.934869 -0.105264
vn 0.135027 -0.974796 -0.177594
vn -0.135027 -0.974796 -0.177594
vn -0.339026 -0.934869 -0.105264
vn -0.409040 -0.912516 -0.000000
vn -0.339026 -0.934869 0.105264
vn -0.135027 -0.974796 0.177594
vn 0.135027 0.974796 0.177594
vn 0.339026 0.934869 0.105264
vn 0.409040 0.912516 0.000000
vn 0.339026 0.934869 -0.105264
vn 0.135027 0.974796 -0.177594
vn -0.135027 0.974796 -0.177594
vn -0.339026 0.934869 -0.105264
vn -0.409040 0.912516 0.000000
vn -0.339026 0.934869 0.105264
vn -0.135027 0.974796 0.177594
vn 0.102273 0.985620 0.134514
vn 0.261294 0.961844 0.081129
vn 0.318323 0.947982 0.000000
vn 0.261294 0.961844 -0.081129
vn 0.102273 0.985620 -0.134514
vn -0.102273 0.985620 -0.134514
vn -0.261294 0.961844 -0.081129
vn -0.318323 0.947982 -0.000000
vn -0.261294 0.961844 0.081129
vn -0.102273 0.985620 0.134514
vn 0.000000 -1.000000 0.000000
vn 0.681799 0.265144 0.681799
vn 0.681799 0.265144 -0.681799
vn -0.681799 0.265144 -0.681799
vn -0.681799 0.265144 0.681799
vn 0.000000 -1.000000 0.000000
vn 0.681799 0.265144 0.681799
vn 0.681799 0.265144 -0.681799
vn -0.681799 0.265144 -0.681799
vn -0.681799 0.265144 0.681799
vn 0.000000 -1.000000 0.000000
vn 0.681799 0.265144 0.681799
vn 0.681799 0.265144 -0.681799
vn -0.681799 0.265144 -0.681799
vn -0.681799 0.265144 0.681799
vn 0.000000 -1.000000 0.000000
vn 0.681799 0.265144 0.681799
vn 0.681799 0.265144 -0.681799
vn -0.681799 0.265144 -0.681799
vn -0.681799 0.265144 0.681799
vn 0.000000 -1.000000 0.000000
vn 0.681799 0.265144 0.681799
vn 0.681799 0.265144 -0.681799
vn -0.681799 0.265144 -0.681799
vn -0.681799 0.265144 0.681799
vn 0.000000 -1.000000 0.000000
vn 0.681799 0.265144 0.681799
vn 0.681799 0.265144 -0.681799
vn -0.681799 0.265144 -0.681799
vn -0.681799 0.265144 0.681799
vn -1.000000 0.000000 0.000000
vn 1.000000 0.000000 0.000000
vn 0.000000 1.000000 0.000000
vn 0.000000 -1.000000 0.000000
vn 0.000000 0.000000 -1.000000
vn 0.000000 0.000000 1.000000
vn -1.000000 0.000000 0.000000
vn 1.000000 0.000000 0.000000
vn 0.000000 1.000000 0.000000
vn 0.000000 -1.000000 0.000000
vn 0.000000 0.000000 -1.000000
vn 0.000000 0.000000 1.000000
vn -1.000000 0.000000 0.000000
vn 1.000000 0.000000 0.000000
vn 0.000000 1.000000 0.000000
vn 0.000000 -1.000000 0.000000
vn 0.000000 0.000000 -1.000000
vn 0.000000 0.000000 1.000000
vn 1.000000 0.000000 0.000000
vn -1.000000 0.000000 0.000000
vn 0.000000 1.000000 0.000000
vn 0.000000 -1.000000 0.000000
vn 0.000000 0.000000 1.000000
vn 0.000000 0.000000 -1.000000
vn 1.000000 0.000000 0.000000
vn -1.000000 0.000000 0.000000
vn 0.000000 1.000000 0.000000
vn 0.000000 -1.000000 0.000000
vn 0.000000 0.000000 1.000000
vn 0.000000 0.000000 -1.000000
vn 1.000000 0.000000 0.000000
vn -1.000000 0.000000 0.000000
vn 0.000000 1.000000 0.000000
vn 0.000000 -1.000000 0.000000
vn 0.000000 0.000000 1.000000
vn 0.000000 0.000000 -1.000000
vn 0.113281 0.496782 0.860451
vn 0.000000 1.000000 0.000000
vn -0.113281 0.496782 -0.860451
vn -0.113281 -0.496782 -0.860451
vn 0.000000 -1.000000 0.000000
vn 0.113281 -0.496782 0.860451
vn 0.332122 0.496782 0.801813
vn -0.332122 0.496782 -0.801813
vn -0.332122 -0.496782 -0.801813
vn 0.332122 -0.496782 0.801813
vn 0.528329 0.496782 0.688532
vn -0.528329 0.496782 -0.688532
vn -0.528329 -0.496782 -0.688532
vn 0.528329 -0.496782 0.688532
vn 0.688532 0.496782 0.528329
vn -0.688532 0.496782 -0.528329
vn -0.688532 -0.496782 -0.528329
vn 0.688532 -0.496782 0.528329
vn 0.801813 0.496782 0.332122
vn -0.801813 0.496782 -0.332122
vn -0.801813 -0.496782 -0.332122
vn 0.801813 -0.496782 0.332122
vn 0.860451 0.496782 0.113281
vn -0.860451 0.496782 -0.113281
vn -0.860451 -0.496782 -0.113281
vn 0.860451 -0.496782 0.113281
vn 0.860451 0.496782 -0.113281
vn -0.860451 0.496782 0.113281
vn -0.860451 -0.496782 0.113281
vn 0.860451 -0.496782 -0.113281
vn 0.801813 0.496782 -0.332122
vn -0.801813 0.496782 0.332122
vn -0.801813 -0.496782 0.332122
vn 0.801813 -0.496782 -0.332122
vn 0.688532 0.496782 -0.528329
vn -0.688532 0.496782 0.528329
vn -0.688532 -0.496782 0.528329
vn 0.688532 -0.496782 -0.528329
vn 0.528329 0.496782 -0.688532
vn -0.528329 0.496782 0.688532
vn -0.528329 -0.496782 0.688532
vn 0.528329 -0.496782 -0.688532
vn 0.332122 0.496782 -0.801813
vn -0.332122 0.496782 0.801813
vn -0.332122 -0.496782 0.801813
vn 0.332122 -0.496782 -0.801813
vn 0.113281 0.496782 -0.860451
vn -0.113281 0.496782 0.860451
vn -0.113281 -0.496782 0.860451
vn 0.113281 -0.496782 -0.860451
vn 0.000000 0.000000 1.000000
vn 0.000000 0.000000 -1.000000
vn -0.000000 1.000000 0.000000
vn 0.000000 -1.000000 0.000000
vn -1.000000 0.000000 0.000000
vn 1.000000 0.000000 0.000000
vn 0.000000 0.000000 1.000000
vn 0.000000 0.000000 -1.000000
vn -0.000000 1.000000 0.000000
vn 0.000000 -1.000000 0.000000
vn -1.000000 0.000000 0.000000
vn 1.000000 0.000000 0.000000
vn 0.000000 0.000000 1.000000
vn 0.000000 0.000000 -1.000000
vn -0.000000 1.000000 0.000000
vn 0.000000 -1.000000 0.000000
vn -1.000000 0.000000 0.000000
vn 1.000000 0.000000 0.000000
vn 0.000000 0.000000 1.000000
vn 0.000000 0.000000 -1.000000
vn -0.000000 1.000000 0.000000
vn 0.000000 -1.000000 0.000000
vn -1.000000 0.000000 0.000000
vn 1.000000 0.000000 0.000000
vn 0.000000 0.000000 1.000000
vn 0.000000 0.000000 -1.000000
vn -0.000000 1.000000 0.000000
vn 0.000000 -1.000000 0.000000
vn -1.000000 0.000000 0.000000
vn 1.000000 0.000000 0.000000
vn 0.000000 0.000000 1.000000
vn 0.000000 0.000000 -1.000000
vn -0.000000 1.000000 0.000000
vn 0.000000 -1.000000 0.000000
vn -1.000000 0.000000 0.000000
vn 1.000000 0.000000 0.000000
vn 0.000000 0.000000 -1.000000
vn 0.382683 -0.923880 0.000000
vn 0.923880 -0.382683 0.000000
vn 0.923880 0.382683 -0.000000
vn 0.382683 0.923880 0.000000
vn -0.382683 0.923880 0.000000
vn -0.923880 0.382683 -0.000000
vn -0.923880 -0.382683 0.000000
vn -0.382683 -0.923880 0.000000
vn 0.000000 0.000000 1.000000
vn 0.254750 0.615021 -0.746225
vn 0.615021 0.254750 -0.746225
vn 0.615021 -0.254750 -0.746225
vn 0.254750 -0.615021 -0.746225
vn -0.254750 -0.615021 -0.746225
vn -0.615021 -0.254750 -0.746225
vn -0.615021 0.254750 -0.746225
vn -0.254750 0.615021 -0.746225
vn 0.086231 0.208180 -0.974282
vn 0.208180 0.086231 -0.974282
vn 0.208180 -0.086231 -0.974282
vn 0.086231 -0.208180 -0.974282
vn -0.086231 -0.208180 -0.974282
vn -0.208180 -0.086231 -0.974282
vn -0.208180 0.086231 -0.974282
vn -0.086231 0.208180 -0.974282
vn 0.000000 0.000000 -1.000000
vn 0.382683 -0.923880 0.000000
vn 0.923880 -0.382683 0.000000
vn 0.923880 0.382683 -0.000000
vn 0.382683 0.923880 0.000000
vn -0.382683 0.923880 0.000000
vn -0.923880 0.382683 -0.000000
vn -0.923880 -0.382683 0.000000
vn -0.382683 -0.923880 0.000000
vn 0.000000 0.000000 1.000000
vn 0.254750 0.615021 -0.746225
vn 0.615021 0.254750 -0.746225
vn 0.615021 -0.254750 -0.746225
vn 0.254750 -0.615021 -0.746225
vn -0.254750 -0.615021 -0.746225
vn -0.615021 -0.254750 -0.746225
vn -0.615021 0.254750 -0.746225
vn -0.254750 0.615021 -0.746225
vn 0.086231 0.208180 -0.974282
vn 0.208180 0.086231 -0.974282
vn 0.208180 -0.086231 -0.974282
vn 0.086231 -0.208180 -0.974282
vn -0.086231 -0.208180 -0.974282
vn -0.208180 -0.086231 -0.974282
vn -0.208180 0.086231 -0.974282
vn -0.086231 0.208180 -0.974282
vn 0.000000 0.000000 1.000000
vn 0.000000 0.000000 -1.000000
vn -0.000000 1.000000 0.000000
vn 0.000000 -1.000000 0.000000
vn -1.000000 0.000000 0.000000
vn 1.000000 0.000000 0.000000
vn 0.000000 0.000000 1.000000
vn 0.000000 0.000000 -1.000000
vn -0.000000 1.000000 0.000000
vn 0.000000 -1.000000 0.000000
vn -1.000000 0.000000 0.000000
vn 1.000000 0.000000 0.000000
vn 0.000000 0.000000 -1.000000
vn 0.485363 -0.840673 0.240192
vn 0.970725 -0.000000 0.240192
vn 0.485363 0.840673 0.240192
vn -0.485363 0.840673 0.240192
vn -0.970725 0.000000 0.240192
vn -0.485363 -0.840673 0.240192
vn 0.000000 0.000000 -1.000000
vn 0.706322 -0.706322 0.047088
vn 0.706322 0.706322 0.047088
vn -0.706322 0.706322 0.047088
vn -0.706322 -0.706322 0.047088
vn 0.000000 0.000000 -1.000000
vn 0.706322 -0.706322 0.047088
vn 0.706322 0.706322 0.047088
vn -0.706322 0.706322 0.047088
vn -0.706322 -0.706322 0.047088
f 1/1/1 2/2/1 3/3/1
f 1/1/2 4/4/2 2/2/2
f 1/1/3 5/5/3 4/4/3
f 1/1/4 6/6/4 5/5/4
f 1/1/5 7/7/5 6/6/5
f 1/1/6 8/8/6 7/7/6
f 1/1/7 9/9/7 8/8/7
f 1/1/8 10/10/8 9/9/8
f 1/1/9 11/11/9 10/10/9
f 1/1/10 3/3/10 11/11/10
f 3/3/11 2/2/11 12/12/11
f 3/3/11 12/12/11 13/13/11
f 2/2/12 4/4/12 14/14/12
f 2/2/12 14/14/12 12/12/12
f 4/4/13 5/5/13 15/15/13
f 4/4/13 15/15/13 14/14/13
f 5/5/14 6/6/14 16/16/14
f 5/5/14 16/16/14 15/15/14
f 6/6/15 7/7/15 17/17/15
f 6/6/15 17/17/15 16/16/15
f 7/7/16 8/8/16 18/18/16
f 7/7/16 18/18/16 17/17/16
f 8/8/17 9/9/17 19/19/17
f 8/8/17 19/19/17 18/18/17
f 9/9/18 10/10/18 20/20/18
f 9/9/18 20/20/18 19/19/18
f 10/10/19 11/11/19 21/21/19
f 10/10/19 21/21/19 20/20/19
f 11/11/20 3/3/20 13/13/20
f 11/11/20 13/13/20 21/21/20
f 13/13/21 12/12/21 22/2/21
f 13/13/21 22/2/21 23/3/21
f 12/12/22 14/14/22 24/4/22
f 12/12/22 24/4/22 22/2/22
f 14/14/23 15/15/23 25/5/23
f 14/14/23 25/5/23 24/4/23
f 15/15/24 16/16/24 26/6/24
f 15/15/24 26/6/24 25/5/24
f 16/16/25 17/17/25 27/7/25
f 16/16/25 27/7/25 26/6/25
f 17/17/26 18/18/26 28/8/26
f 17/17/26 28/8/26 27/7/26
f 18/18/27 19/19/27 29/9/27
f 18/18/27 29/9/27 28/8/27
f 19/19/28 20/20/28 30/10/28
f 19/19/28 30/10/28 29/9/28
f 20/20/29 21/21/29 31/11/29
f 20/20/29 31/11/29 30/10/29
f 21/21/30 13/13/30 23/3/30
f 21/21/30 23/3/30 31/11/30
f 23/3/31 22/2/31 32/1/31
f 22/2/32 24/4/32 32/1/32
f 24/4/33 25/5/33 32/1/33
f 25/5/34 26/6/34 32/1/34
f 26/6/35 27/7/35 32/1/35
f 27/7/36 28/8/36 32/1/36
f 28/8/37 29/9/37 32/1/37
f 29/9/38 30/10/38 32/1/38
f 30/10/39 31/11/39 32/1/39
f 31/11/40 23/3/40 32/1/40
f 33/22/41 34/23/41 35/24/41
f 33/22/41 36/25/41 34/23/41
f 33/22/41 37/26/41 36/25/41
f 33/22/41 35/24/41 37/26/41
f 35/27/42 34/28/42 38/29/42
f 34/30/43 36/31/43 38/32/43
f 36/31/44 37/30/44 38/32/44
f 37/33/45 35/27/45 38/29/45
f 39/34/46 40/35/46 41/36/46
f 39/34/46 42/37/46 40/35/46
f 39/34/46 43/38/46 42/37/46
f 39/34/46 41/36/46 43/38/46
f 41/39/47 40/40/47 44/41/47
f 40/42/48 42/43/48 44/44/48
f 42/43/49 43/42/49 44/44/49
f 43/45/50 41/39/50 44/41/50
f 45/46/51 46/47/51 47/48/51
f 45/46/51 48/49/51 46/47/51
f 45/46/51 49/50/51 48/49/51
f 45/46/51 47/48/51 49/50/51
f 47/51/52 46/52/52 50/53/52
f 46/54/53 48/55/53 50/56/53
f 48/55/54 49/57/54 50/56/54
f 49/58/55 47/51/55 50/53/55
f 51/59/56 52/60/56 53/61/56
f 51/59/56 54/62/56 52/60/56
f 51/59/56 55/63/56 54/62/56
f 51/59/56 53/61/56 55/63/56
f 53/64/57 52/65/57 56/66/57
f 52/65/58 54/67/58 56/66/58
f 54/67/59 55/65/59 56/66/59
f 55/65/60 53/64/60 56/66/60
f 57/68/61 58/69/61 59/70/61
f 57/68/61 60/71/61 58/69/61
f 57/68/61 61/72/61 60/71/61
f 57/68/61 59/70/61 61/72/61
f 59/73/62 58/74/62 62/75/62
f 58/76/63 60/77/63 62/78/63
f 60/77/64 61/79/64 62/78/64
f 61/80/65 59/73/65 62/75/65
f 63/81/66 64/82/66 65/83/66
f 63/81/66 66/84/66 64/82/66
f 63/81/66 67/85/66 66/84/66
f 63/81/66 65/83/66 67/85/66
f 65/86/67 64/87/67 68/88/67
f 64/89/68 66/90/68 68/91/68
f 66/90/69 67/89/69 68/91/69
f 67/92/70 65/86/70 68/88/70
f 69/93/71 70/94/71 71/95/71
f 69/93/71 71/95/71 72/96/71
f 73/94/72 74/93/72 75/96/72
f 73/94/72 75/96/72 76/95/72
f 72/97/73 71/98/73 76/99/73
f 72/97/73 76/99/73 75/100/73
f 74/100/74 73/99/74 70/98/74
f 74/100/74 70/98/74 69/97/74
f 74/101/75 69/102/75 72/103/75
f 74/101/75 72/103/75 75/104/75
f 70/105/76 73/106/76 76/107/76
f 70/105/76 76/107/76 71/108/76
f 77/109/77 78/110/77 79/111/77
f 77/109/77 79/111/77 80/112/77
f 81/110/78 82/109/78 83/112/78
f 81/110/78 83/112/78 84/111/78
f 80/113/79 79/114/79 84/115/79
f 80/113/79 84/115/79 83/116/79
f 82/116/80 81/115/80 78/114/80
f 82/116/80 78/114/80 77/113/80
f 82/117/81 77/118/81 80/119/81
f 82/117/81 80/119/81 83/120/81
f 78/121/82 81/122/82 84/123/82
f 78/121/82 84/123/82 79/124/82
f 85/125/83 86/126/83 87/127/83
f 85/125/83 87/127/83 88/128/83
f 89/126/84 90/125/84 91/128/84
f 89/126/84 91/128/84 92/127/84
f 88/129/85 87/130/85 92/131/85
f 88/129/85 92/131/85 91/132/85
f 90/132/86 89/131/86 86/130/86
f 90/132/86 86/130/86 85/129/86
f 90/133/87 85/134/87 88/135/87
f 90/133/87 88/135/87 91/136/87
f 86/137/88 89/138/88 92/139/88
f 86/137/88 92/139/88 87/140/88
f 93/141/89 94/142/89 95/143/89
f 93/141/89 95/143/89 96/144/89
f 97/142/90 98/141/90 99/144/90
f 97/142/90 99/144/90 100/143/90
f 96/145/91 95/146/91 100/147/91
f 96/145/91 100/147/91 99/148/91
f 98/148/92 97/147/92 94/146/92
f 98/148/92 94/146/92 93/145/92
f 98/149/93 93/150/93 96/151/93
f 98/149/93 96/151/93 99/152/93
f 94/153/94 97/154/94 100/155/94
f 94/153/94 100/155/94 95/156/94
f 101/157/95 102/158/95 103/159/95
f 101/157/95 103/159/95 104/160/95
f 105/158/96 106/157/96 107/160/96
f 105/158/96 107/160/96 108/159/96
f 104/161/97 103/162/97 108/163/97
f 104/161/97 108/163/97 107/164/97
f 106/164/98 105/163/98 102/162/98
f 106/164/98 102/162/98 101/161/98
f 106/165/99 101/166/99 104/167/99
f 106/165/99 104/167/99 107/168/99
f 102/169/100 105/170/100 108/171/100
f 102/169/100 108/171/100 103/172/100
f 109/173/101 110/174/101 111/175/101
f 109/173/101 111/175/101 112/176/101
f 113/174/102 114/173/102 115/176/102
f 113/174/102 115/176/102 116/175/102
f 112/177/103 111/178/103 116/179/103
f 112/177/103 116/179/103 115/180/103
f 114/180/104 113/179/104 110/178/104
f 114/180/104 110/178/104 109/177/104
f 114/181/105 109/182/105 112/183/105
f 114/181/105 112/183/105 115/184/105
f 110/185/106 113/186/106 116/187/106
f 110/185/106 116/187/106 111/188/106
f 117/189/107 118/190/107 119/191/107
f 117/189/107 119/191/107 120/192/107
f 120/193/108 119/194/108 121/195/108
f 120/193/108 121/195/108 122/196/108
f 122/197/109 121/198/109 123/199/109
f 122/197/109 123/199/109 124/200/109
f 124/200/110 123/199/110 125/201/110
f 124/200/110 125/201/110 126/202/110
f 126/196/111 125/195/111 127/194/111
f 126/196/111 127/194/111 128/193/111
f 128/203/112 127/204/112 118/190/112
f 128/203/112 118/190/112 117/189/112
f 118/190/113 129/205/113 130/206/113
f 118/190/113 130/206/113 119/191/113
f 119/194/108 130/207/108 131/208/108
f 119/194/108 131/208/108 121/195/108
f 121/198/114 131/209/114 132/210/114
f 121/198/114 132/210/114 123/199/114
f 123/199/115 132/210/115 133/211/115
f 123/199/115 133/211/115 125/201/115
f 125/195/111 133/208/111 134/207/111
f 125/195/111 134/207/111 127/194/111
f 127/204/116 134/212/116 129/205/116
f 127/204/116 129/205/116 118/190/116
f 129/205/117 135/213/117 136/214/117
f 129/205/117 136/214/117 130/206/117
f 130/207/108 136/215/108 137/216/108
f 130/207/108 137/216/108 131/208/108
f 131/209/118 137/217/118 138/218/118
f 131/209/118 138/218/118 132/210/118
f 132/210/119 138/218/119 139/219/119
f 132/210/119 139/219/119 133/211/119
f 133/208/111 139/216/111 140/215/111
f 133/208/111 140/215/111 134/207/111
f 134/212/120 140/220/120 135/213/120
f 134/212/120 135/213/120 129/205/120
f 135/221/121 141/222/121 142/223/121
f 135/221/121 142/223/121 136/224/121
f 136/215/108 142/225/108 143/226/108
f 136/215/108 143/226/108 137/216/108
f 137/227/122 143/228/122 144/229/122
f 137/227/122 144/229/122 138/230/122
f 138/230/123 144/229/123 145/231/123
f 138/230/123 145/231/123 139/232/123
f 139/216/111 145/226/111 146/225/111
f 139/216/111 146/225/111 140/215/111
f 140/233/124 146/234/124 141/222/124
f 140/233/124 141/222/124 135/221/124
f 141/222/125 147/235/125 148/236/125
f 141/222/125 148/236/125 142/223/125
f 142/225/108 148/237/108 149/238/108
f 142/225/108 149/238/108 143/226/108
f 143/228/126 149/239/126 150/240/126
f 143/228/126 150/240/126 144/229/126
f 144/229/127 150/240/127 151/241/127
f 144/229/127 151/241/127 145/231/127
f 145/226/111 151/238/111 152/237/111
f 145/226/111 152/237/111 146/225/111
f 146/234/128 152/242/128 147/235/128
f 146/234/128 147/235/128 141/222/128
f 147/235/129 153/243/129 154/244/129
f 147/235/129 154/244/129 148/236/129
f 148/237/108 154/245/108 155/246/108
f 148/237/108 155/246/108 149/238/108
f 149/239/130 155/244/130 156/243/130
f 149/239/130 156/243/130 150/240/130
f 150/240/131 156/243/131 157/247/131
f 150/240/131 157/247/131 151/241/131
f 151/238/111 157/246/111 158/245/111
f 151/238/111 158/245/111 152/237/111
f 152/242/132 158/247/132 153/243/132
f 152/242/132 153/243/132 147/235/132
f 153/243/133 159/248/133 160/249/133
f 153/243/133 160/249/133 154/244/133
f 154/245/108 160/250/108 161/251/108
f 154/245/108 161/251/108 155/246/108
f 155/244/134 161/252/134 162/253/134
f 155/244/134 162/253/134 156/243/134
f 156/243/135 162/253/135 163/254/135
f 156/243/135 163/254/135 157/247/135
f 157/246/111 163/251/111 164/250/111
f 157/246/111 164/250/111 158/245/111
f 158/247/136 164/255/136 159/248/136
f 158/247/136 159/248/136 153/243/136
f 159/248/137 165/256/137 166/257/137
f 159/248/137 166/257/137 160/249/137
f 160/250/108 166/258/108 167/259/108
f 160/250/108 167/259/108 161/251/108
f 161/252/138 167/260/138 168/261/138
f 161/252/138 168/261/138 162/253/138
f 162/253/139 168/261/139 169/262/139
f 162/253/139 169/262/139 163/254/139
f 163/251/111 169/259/111 170/258/111
f 163/251/111 170/258/111 164/250/111
f 164/255/140 170/263/140 165/256/140
f 164/255/140 165/256/140 159/248/140
f 165/256/141 171/264/141 172/265/141
f 165/256/141 172/265/141 166/257/141
f 166/258/108 172/266/108 173/267/108
f 166/258/108 173/267/108 167/259/108
f 167/260/142 173/268/142 174/269/142
f 167/260/142 174/269/142 168/261/142
f 168/261/143 174/269/143 175/270/143
f 168/261/143 175/270/143 169/262/143
f 169/259/111 175/267/111 176/266/111
f 169/259/111 176/266/111 170/258/111
f 170/263/144 176/271/144 171/264/144
f 170/263/144 171/264/144 165/256/144
f 171/272/145 177/273/145 178/274/145
f 171/272/145 178/274/145 172/275/145
f 172/266/108 178/276/108 179/277/108
f 172/266/108 179/277/108 173/267/108
f 173/278/146 179/279/146 180/280/146
f 173/278/146 180/280/146 174/281/146
f 174/281/147 180/280/147 181/282/147
f 174/281/147 181/282/147 175/283/147
f 175/267/111 181/277/111 182/276/111
f 175/267/111 182/276/111 176/266/111
f 176/284/148 182/285/148 177/273/148
f 176/284/148 177/273/148 171/272/148
f 177/273/149 183/286/149 184/287/149
f 177/273/149 184/287/149 178/274/149
f 178/276/108 184/288/108 185/289/108
f 178/276/108 185/289/108 179/277/108
f 179/279/150 185/290/150 186/291/150
f 179/279/150 186/291/150 180/280/150
f 180/280/151 186/291/151 187/292/151
f 180/280/151 187/292/151 181/282/151
f 181/277/111 187/289/111 188/288/111
f 181/277/111 188/288/111 182/276/111
f 182/285/152 188/293/152 183/286/152
f 182/285/152 183/286/152 177/273/152
f 183/286/153 189/200/153 190/197/153
f 183/286/153 190/197/153 184/287/153
f 184/288/108 190/294/108 191/295/108
f 184/288/108 191/295/108 185/289/108
f 185/290/154 191/192/154 192/189/154
f 185/290/154 192/189/154 186/291/154
f 186/291/155 192/189/155 193/203/155
f 186/291/155 193/203/155 187/292/155
f 187/289/111 193/295/111 194/294/111
f 187/289/111 194/294/111 188/288/111
f 188/293/156 194/202/156 189/200/156
f 188/293/156 189/200/156 183/286/156
f 189/200/109 195/296/109 196/297/109
f 189/200/109 196/297/109 190/197/109
f 190/294/108 196/298/108 197/299/108
f 190/294/108 197/299/108 191/295/108
f 191/192/107 197/300/107 198/301/107
f 191/192/107 198/301/107 192/189/107
f 192/189/112 198/301/112 199/302/112
f 192/189/112 199/302/112 193/203/112
f 193/295/111 199/299/111 200/298/111
f 193/295/111 200/298/111 194/294/111
f 194/202/110 200/303/110 195/296/110
f 194/202/110 195/296/110 189/200/110
f 195/296/114 201/304/114 202/305/114
f 195/296/114 202/305/114 196/297/114
f 196/298/108 202/306/108 203/307/108
f 196/298/108 203/307/108 197/299/108
f 197/300/113 203/308/113 204/309/113
f 197/300/113 204/309/113 198/301/113
f 198/301/116 204/309/116 205/310/116
f 198/301/116 205/310/116 199/302/116
f 199/299/111 205/307/111 206/306/111
f 199/299/111 206/306/111 200/298/111
f 200/303/115 206/311/115 201/304/115
f 200/303/115 201/304/115 195/296/115
f 201/304/118 207/312/118 208/313/118
f 201/304/118 208/313/118 202/305/118
f 202/306/108 208/314/108 209/315/108
f 202/306/108 209/315/108 203/307/108
f 203/308/117 209/316/117 210/317/117
f 203/308/117 210/317/117 204/309/117
f 204/309/120 210/317/120 211/318/120
f 204/309/120 211/318/120 205/310/120
f 205/307/111 211/315/111 212/314/111
f 205/307/111 212/314/111 206/306/111
f 206/311/119 212/319/119 207/312/119
f 206/311/119 207/312/119 201/304/119
f 207/264/122 213/256/122 214/257/122
f 207/264/122 214/257/122 208/265/122
f 208/314/108 214/320/108 215/321/108
f 208/314/108 215/321/108 209/315/108
f 209/268/121 215/260/121 216/261/121
f 209/268/121 216/261/121 210/269/121
f 210/269/124 216/261/124 217/262/124
f 210/269/124 217/262/124 211/270/124
f 211/315/111 217/321/111 218/320/111
f 211/315/111 218/320/111 212/314/111
f 212/271/123 218/263/123 213/256/123
f 212/271/123 213/256/123 207/264/123
f 213/256/126 219/248/126 220/249/126
f 213/256/126 220/249/126 214/257/126
f 214/320/108 220/322/108 221/323/108
f 214/320/108 221/323/108 215/321/108
f 215/260/125 221/252/125 222/253/125
f 215/260/125 222/253/125 216/261/125
f 216/261/128 222/253/128 223/254/128
f 216/261/128 223/254/128 217/262/128
f 217/321/111 223/323/111 224/322/111
f 217/321/111 224/322/111 218/320/111
f 218/263/127 224/255/127 219/248/127
f 218/263/127 219/248/127 213/256/127
f 219/248/130 225/243/130 226/244/130
f 219/248/130 226/244/130 220/249/130
f 220/322/108 226/324/108 227/325/108
f 220/322/108 227/325/108 221/323/108
f 221/252/129 227/244/129 228/243/129
f 221/252/129 228/243/129 222/253/129
f 222/253/132 228/243/132 229/247/132
f 222/253/132 229/247/132 223/254/132
f 223/323/111 229/325/111 230/324/111
f 223/323/111 230/324/111 224/322/111
f 224/255/131 230/247/131 225/243/131
f 224/255/131 225/243/131 219/248/131
f 225/243/134 231/235/134 232/236/134
f 225/243/134 232/236/134 226/244/134
f 226/324/108 232/326/108 233/327/108
f 226/324/108 233/327/108 227/325/108
f 227/244/133 233/239/133 234/240/133
f 227/244/133 234/240/133 228/243/133
f 228/243/136 234/240/136 235/241/136
f 228/243/136 235/241/136 229/247/136
f 229/325/111 235/327/111 236/326/111
f 229/325/111 236/326/111 230/324/111
f 230/247/135 236/242/135 231/235/135
f 230/247/135 231/235/135 225/243/135
f 231/235/138 237/222/138 238/223/138
f 231/235/138 238/223/138 232/236/138
f 232/326/108 238/328/108 239/329/108
f 232/326/108 239/329/108 233/327/108
f 233/239/137 239/228/137 240/229/137
f 233/239/137 240/229/137 234/240/137
f 234/240/140 240/229/140 241/231/140
f 234/240/140 241/231/140 235/241/140
f 235/327/111 241/329/111 242/328/111
f 235/327/111 242/328/111 236/326/111
f 236/242/139 242/234/139 237/222/139
f 236/242/139 237/222/139 231/235/139
f 237/222/142 243/221/142 244/224/142
f 237/222/142 244/224/142 238/223/142
f 238/328/108 244/330/108 245/331/108
f 238/328/108 245/331/108 239/329/108
f 239/228/141 245/227/141 246/230/141
f 239/228/141 246/230/141 240/229/141
f 240/229/144 246/230/144 247/232/144
f 240/229/144 247/232/144 241/231/144
f 241/329/111 247/331/111 248/330/111
f 241/329/111 248/330/111 242/328/111
f 242/234/143 248/233/143 243/221/143
f 242/234/143 243/221/143 237/222/143
f 243/332/146 249/333/146 250/334/146
f 243/332/146 250/334/146 244/335/146
f 244/330/108 250/336/108 251/337/108
f 244/330/108 251/337/108 245/331/108
f 245/338/145 251/339/145 252/340/145
f 245/338/145 252/340/145 246/341/145
f 246/341/148 252/340/148 253/342/148
f 246/341/148 253/342/148 247/343/148
f 247/331/111 253/337/111 254/336/111
f 247/331/111 254/336/111 248/330/111
f 248/344/147 254/345/147 249/333/147
f 248/344/147 249/333/147 243/332/147
f 249/333/150 255/346/150 256/347/150
f 249/333/150 256/347/150 250/334/150
f 250/336/108 256/348/108 257/349/108
f 250/336/108 257/349/108 251/337/108
f 251/339/149 257/350/149 258/351/149
f 251/339/149 258/351/149 252/340/149
f 252/340/152 258/351/152 259/352/152
f 252/340/152 259/352/152 253/342/152
f 253/337/111 259/349/111 260/348/111
f 253/337/111 260/348/111 254/336/111
f 254/345/151 260/353/151 255/346/151
f 254/345/151 255/346/151 249/333/151
f 255/346/154 117/189/154 120/192/154
f 255/346/154 120/192/154 256/347/154
f 256/348/108 120/193/108 122/196/108
f 256/348/108 122/196/108 257/349/108
f 257/350/153 122/197/153 124/200/153
f 257/350/153 124/200/153 258/351/153
f 258/351/156 124/200/156 126/202/156
f 258/351/156 126/202/156 259/352/156
f 259/349/111 126/196/111 128/193/111
f 259/349/111 128/193/111 260/348/111
f 260/353/155 128/203/155 117/189/155
f 260/353/155 117/189/155 255/346/155
f 261/354/157 262/355/157 263/356/157
f 261/354/157 263/356/157 264/357/157
f 265/358/158 266/359/158 267/360/158
f 265/358/158 267/360/158 268/361/158
f 264/362/159 263/363/159 268/364/159
f 264/362/159 268/364/159 267/365/159
f 266/365/160 265/364/160 262/363/160
f 266/365/160 262/363/160 261/362/160
f 266/366/161 261/367/161 264/368/161
f 266/366/161 264/368/161 267/369/161
f 262/367/162 265/366/162 268/369/162
f 262/367/162 268/369/162 263/368/162
f 269/370/163 270/371/163 271/372/163
f 269/370/163 271/372/163 272/373/163
f 273/374/164 274/375/164 275/376/164
f 273/374/164 275/376/164 276/377/164
f 272/378/165 271/379/165 276/380/165
f 272/378/165 276/380/165 275/381/165
f 274/381/166 273/380/166 270/379/166
f 274/381/166 270/379/166 269/378/166
f 274/382/167 269/383/167 272/384/167
f 274/382/167 272/384/167 275/385/167
f 270/383/168 273/382/168 276/385/168
f 270/383/168 276/385/168 271/384/168
f 277/386/169 278/387/169 279/388/169
f 277/386/169 279/388/169 280/389/169
f 281/390/170 282/391/170 283/392/170
f 281/390/170 283/392/170 284/393/170
f 280/394/171 279/395/171 284/396/171
f 280/394/171 284/396/171 283/397/171
f 282/397/172 281/396/172 278/395/172
f 282/397/172 278/395/172 277/394/172
f 282/398/173 277/399/173 280/400/173
f 282/398/173 280/400/173 283/401/173
f 278/399/174 281/398/174 284/401/174
f 278/399/174 284/401/174 279/400/174
f 285/402/175 286/403/175 287/404/175
f 285/402/175 287/404/175 288/405/175
f 289/406/176 290/407/176 291/408/176
f 289/406/176 291/408/176 292/409/176
f 288/410/177 287/411/177 292/412/177
f 288/410/177 292/412/177 291/413/177
f 290/413/178 289/412/178 286/411/178
f 290/413/178 286/411/178 285/410/178
f 290/414/179 285/415/179 288/416/179
f 290/414/179 288/416/179 291/417/179
f 286/415/180 289/414/180 292/417/180
f 286/415/180 292/417/180 287/416/180
f 293/418/181 294/419/181 295/420/181
f 293/418/181 295/420/181 296/421/181
f 297/422/182 298/423/182 299/424/182
f 297/422/182 299/424/182 300/425/182
f 296/426/183 295/427/183 300/428/183
f 296/426/183 300/428/183 299/429/183
f 298/429/184 297/428/184 294/427/184
f 298/429/184 294/427/184 293/426/184
f 298/430/185 293/431/185 296/432/185
f 298/430/185 296/432/185 299/433/185
f 294/431/186 297/430/186 300/433/186
f 294/431/186 300/433/186 295/432/186
f 301/434/187 302/435/187 303/436/187
f 301/434/187 303/436/187 304/437/187
f 305/438/188 306/439/188 307/440/188
f 305/438/188 307/440/188 308/441/188
f 304/442/189 303/443/189 308/444/189
f 304/442/189 308/444/189 307/445/189
f 306/445/190 305/444/190 302/443/190
f 306/445/190 302/443/190 301/442/190
f 306/446/191 301/447/191 304/448/191
f 306/446/191 304/448/191 307/449/191
f 302/447/192 305/446/192 308/449/192
f 302/447/192 308/449/192 303/448/192
f 309/450/193 310/451/193 311/452/193
f 309/450/193 312/453/193 310/451/193
f 309/450/193 313/454/193 312/453/193
f 309/450/193 314/455/193 313/454/193
f 309/450/193 315/456/193 314/455/193
f 309/450/193 316/457/193 315/456/193
f 309/450/193 317/458/193 316/457/193
f 309/450/193 311/452/193 317/458/193
f 311/459/194 310/460/194 318/461/194
f 311/459/194 318/461/194 319/462/194
f 310/463/195 312/464/195 320/465/195
f 310/463/195 320/465/195 318/466/195
f 312/464/196 313/467/196 321/468/196
f 312/464/196 321/468/196 320/465/196
f 313/460/197 314/459/197 322/462/197
f 313/460/197 322/462/197 321/461/197
f 314/459/198 315/469/198 323/470/198
f 314/459/198 323/470/198 322/462/198
f 315/467/199 316/464/199 324/465/199
f 315/467/199 324/465/199 323/468/199
f 316/464/200 317/463/200 325/466/200
f 316/464/200 325/466/200 324/465/200
f 317/469/201 311/459/201 319/462/201
f 317/469/201 319/462/201 325/470/201
f 319/471/202 318/472/202 326/473/202
f 318/472/202 320/474/202 326/473/202
f 320/474/202 321/475/202 326/473/202
f 321/475/202 322/476/202 326/473/202
f 322/476/202 323/477/202 326/473/202
f 323/477/202 324/478/202 326/473/202
f 324/478/202 325/479/202 326/473/202
f 325/479/202 319/471/202 326/473/202
f 327/480/203 328/481/203 329/482/203
f 327/480/203 329/482/203 330/483/203
f 328/481/204 331/484/204 332/485/204
f 328/481/204 332/485/204 329/482/204
f 331/484/205 333/486/205 334/487/205
f 331/484/205 334/487/205 332/485/205
f 333/486/206 335/488/206 336/489/206
f 333/486/206 336/489/206 334/487/206
f 335/488/207 337/490/207 338/491/207
f 335/488/207 338/491/207 336/489/207
f 337/490/208 339/492/208 340/493/208
f 337/490/208 340/493/208 338/491/208
f 339/492/209 341/494/209 342/495/209
f 339/492/209 342/495/209 340/493/209
f 341/494/210 327/480/210 330/483/210
f 341/494/210 330/483/210 342/495/210
f 330/483/211 329/482/211 343/496/211
f 329/482/212 332/485/212 343/496/212
f 332/485/213 334/487/213 343/496/213
f 334/487/214 336/489/214 343/496/214
f 336/489/215 338/491/215 343/496/215
f 338/491/216 340/493/216 343/496/216
f 340/493/217 342/495/217 343/496/217
f 342/495/218 330/483/218 343/496/218
f 344/497/219 345/498/219 346/499/219
f 344/497/219 347/500/219 345/498/219
f 344/497/219 348/501/219 347/500/219
f 344/497/219 349/502/219 348/501/219
f 344/497/219 350/503/219 349/502/219
f 344/497/219 351/504/219 350/503/219
f 344/497/219 352/505/219 351/504/219
f 344/497/219 346/499/219 352/505/219
f 346/506/220 345/507/220 353/508/220
f 346/506/220 353/508/220 354/509/220
f 345/510/221 347/511/221 355/512/221
f 345/510/221 355/512/221 353/513/221
f 347/511/222 348/514/222 356/515/222
f 347/511/222 356/515/222 355/512/222
f 348/507/223 349/506/223 357/509/223
f 348/507/223 357/509/223 356/508/223
f 349/506/224 350/516/224 358/517/224
f 349/506/224 358/517/224 357/509/224
f 350/514/225 351/511/225 359/512/225
f 350/514/225 359/512/225 358/515/225
f 351/511/226 352/510/226 360/513/226
f 351/511/226 360/513/226 359/512/226
f 352/516/227 346/506/227 354/509/227
f 352/516/227 354/509/227 360/517/227
f 354/518/228 353/519/228 361/520/228
f 353/519/228 355/521/228 361/520/228
f 355/521/228 356/522/228 361/520/228
f 356/522/228 357/523/228 361/520/228
f 357/523/228 358/524/228 361/520/228
f 358/524/228 359/525/228 361/520/228
f 359/525/228 360/526/228 361/520/228
f 360/526/228 354/518/228 361/520/228
f 362/527/229 363/528/229 364/529/229
f 362/527/229 364/529/229 365/530/229
f 363/528/230 366/531/230 367/532/230
f 363/528/230 367/532/230 364/529/230
f 366/531/231 368/533/231 369/534/231
f 366/531/231 369/534/231 367/532/231
f 368/533/232 370/535/232 371/536/232
f 368/533/232 371/536/232 369/534/232
f 370/535/233 372/537/233 373/538/233
f 370/535/233 373/538/233 371/536/233
f 372/537/234 374/539/234 375/540/234
f 372/537/234 375/540/234 373/538/234
f 374/539/235 376/541/235 377/542/235
f 374/539/235 377/542/235 375/540/235
f 376/541/236 362/527/236 365/530/236
f 376/541/236 365/530/236 377/542/236
f 365/530/237 364/529/237 378/543/237
f 364/529/238 367/532/238 378/543/238
f 367/532/239 369/534/239 378/543/239
f 369/534/240 371/536/240 378/543/240
f 371/536/241 373/538/241 378/543/241
f 373/538/242 375/540/242 378/543/242
f 375/540/243 377/542/243 378/543/243
f 377/542/244 365/530/244 378/543/244
f 379/544/245 380/545/245 381/546/245
f 379/544/245 381/546/245 382/547/245
f 383/548/246 384/549/246 385/550/246
f 383/548/246 385/550/246 386/551/246
f 382/552/247 381/553/247 386/554/247
f 382/552/247 386/554/247 385/555/247
f 384/555/248 383/554/248 380/553/248
f 384/555/248 380/553/248 379/552/248
f 384/556/249 379/557/249 382/558/249
f 384/556/249 382/558/249 385/559/249
f 380/557/250 383/556/250 386/559/250
f 380/557/250 386/559/250 381/558/250
f 387/560/251 388/561/251 389/562/251
f 387/560/251 389/562/251 390/563/251
f 391/564/252 392/565/252 393/566/252
f 391/564/252 393/566/252 394/567/252
f 390/568/253 389/569/253 394/570/253
f 390/568/253 394/570/253 393/571/253
f 392/571/254 391/570/254 388/569/254
f 392/571/254 388/569/254 387/568/254
f 392/572/255 387/573/255 390/574/255
f 392/572/255 390/574/255 393/575/255
f 388/573/256 391/572/256 394/575/256
f 388/573/256 394/575/256 389/574/256
f 395/576/257 396/577/257 397/578/257
f 395/576/257 398/579/257 396/577/257
f 395/576/257 399/580/257 398/579/257
f 395/576/257 400/581/257 399/580/257
f 395/576/257 401/582/257 400/581/257
f 395/576/257 397/578/257 401/582/257
f 397/583/258 396/584/258 402/585/258
f 396/586/259 398/587/259 402/588/259
f 398/584/260 399/583/260 402/585/260
f 399/583/261 400/589/261 402/585/261
f 400/587/262 401/586/262 402/588/262
f 401/589/263 397/583/263 402/585/263
f 403/590/264 404/591/264 405/592/264
f 403/590/264 406/593/264 404/591/264
f 403/590/264 407/594/264 406/593/264
f 403/590/264 405/592/264 407/594/264
f 405/595/265 404/596/265 408/597/265
f 404/596/266 406/595/266 408/597/266
f 406/595/267 407/598/267 408/597/267
f 407/598/268 405/595/268 408/597/268
f 409/599/269 410/600/269 411/601/269
f 409/599/269 412/602/269 410/600/269
f 409/599/269 413/603/269 412/602/269
f 409/599/269 411/601/269 413/603/269
f 411/604/270 410/605/270 414/606/270
f 410/605/271 412/604/271 414/606/271
f 412/604/272 413/607/272 414/606/272
f 413/607/273 411/604/273 414/606/273
