# Kthaari tender, fragment 7 of 8
# Generated by tools. Edit the generator script.
v -0.063336 0.470575 1.978521
v 0.063336 0.533911 1.978521
v -0.063336 0.533911 1.978521
v 0.211120 0.607803 1.134039
v -0.211120 0.607803 1.134039
v -0.211120 0.396683 1.134039
v 0.063336 0.470575 1.978521
v -0.091204 0.530392 1.939816
v -0.070092 0.530392 1.939816
v -0.091204 0.509280 1.939816
v -0.091204 0.551504 1.939816
v -0.112316 0.530392 1.939816
v -0.091204 0.530392 2.186123
v -0.211120 0.368181 1.697027
v -0.189723 0.368181 1.769956
v -0.247558 0.368181 1.763726
v -0.144421 0.368181 1.733465
v -0.138191 0.368181 1.675629
v -0.174682 0.368181 1.630328
v -0.232518 0.368181 1.624098
v -0.277820 0.368181 1.660589
v -0.284049 0.368181 1.718425
v -0.189723 0.425184 1.769956
v -0.247558 0.425184 1.763726
v -0.144421 0.425184 1.733465
v -0.138191 0.425184 1.675629
v -0.174682 0.425184 1.630328
v -0.232518 0.425184 1.624098
v -0.277820 0.425184 1.660589
v -0.284049 0.425184 1.718425
v -0.211120 0.425184 1.697027
v -0.537003 0.409350 2.240708
v -0.492537 0.409350 2.265000
v -0.492537 0.460019 2.265000
v -0.537003 0.460019 2.240708
v -0.188887 0.409350 1.709173
v -0.233354 0.409350 1.684881
v -0.233354 0.460019 1.684881
v -0.188887 0.460019 1.709173
v -0.528408 0.314346 2.238186
v -0.495059 0.314346 2.256405
v -0.495059 0.428351 2.256405
v -0.528408 0.428351 2.238186
v -0.476840 0.314346 2.223056
v -0.510189 0.314346 2.204837
v -0.510189 0.428351 2.204837
v -0.476840 0.428351 2.223056
v -0.030160 0.517323 1.616600
vt 0.501563 0.415625
vt 0.529687 0.443750
vt 0.501563 0.443750
vt 0.067969 0.656250
vt 0.179688 0.484375
vt 0.007812 0.484375
vt 0.119531 0.656250
vt 0.007812 0.382812
vt 0.195312 0.415625
vt 0.195312 0.443750
vt 0.007812 0.476562
vt 0.718750 0.429688
vt 0.765625 0.429688
vt 0.718750 0.382812
vt 0.718750 0.476562
vt 0.671875 0.429688
vt 0.671875 0.382812
vt 0.671875 0.429688
vt 0.765625 0.429688
vt 0.664062 0.382812
vt 0.617188 0.382812
vt 0.617188 0.476562
vt 0.570312 0.382812
vt 0.646919 0.393480
vt 0.651949 0.404148
vt 0.638353 0.403237
vt 0.662598 0.398811
vt 0.664062 0.390350
vt 0.655484 0.383724
vt 0.641889 0.382812
vt 0.631240 0.388150
vt 0.629775 0.396610
vt 0.739916 0.417459
vt 0.753511 0.417459
vt 0.753511 0.454144
vt 0.739916 0.454144
vt 0.764161 0.417459
vt 0.764161 0.454144
vt 0.687873 0.417459
vt 0.679413 0.417459
vt 0.679413 0.454144
vt 0.687873 0.454144
vt 0.672786 0.417459
vt 0.672786 0.454144
vt 0.757047 0.417459
vt 0.743451 0.417459
vt 0.743451 0.454144
vt 0.757047 0.454144
vt 0.732802 0.417459
vt 0.732802 0.454144
vt 0.677213 0.417459
vt 0.685673 0.417459
vt 0.685673 0.454144
vt 0.677213 0.454144
vt 0.692300 0.417459
vt 0.692300 0.454144
vt 0.671875 0.443954
vt 0.682328 0.443954
vt 0.682328 0.476562
vt 0.671875 0.476562
vt 0.753708 0.443954
vt 0.743255 0.443954
vt 0.743255 0.476562
vt 0.753708 0.476562
vt 0.570312 0.473009
vt 0.580765 0.476562
vt 0.652145 0.395257
vt 0.641692 0.391704
vt 0.680766 0.443954
vt 0.762072 0.443954
vt 0.762072 0.476562
vt 0.680766 0.476562
vt 0.765625 0.443954
vt 0.684320 0.443954
vt 0.684320 0.476562
vt 0.765625 0.476562
vt 0.673895 0.382812
vt 0.681735 0.382812
vt 0.681735 0.456182
vt 0.673895 0.456182
vt 0.686018 0.382812
vt 0.678178 0.382812
vt 0.678178 0.456182
vt 0.686018 0.456182
vt 0.572333 0.472640
vt 0.580173 0.475305
vt 0.584455 0.470427
vt 0.576616 0.467762
vt 0.756824 0.382812
vt 0.761703 0.382812
vt 0.761703 0.456182
vt 0.756824 0.456182
vt 0.764368 0.382812
vt 0.759489 0.382812
vt 0.759489 0.456182
vt 0.764368 0.456182
vt 0.562857 0.437143
vt 0.940000 0.368000
vt 0.940000 0.632000
vt 0.940000 0.368000
vt 0.060000 0.940000
vt 0.060000 0.060000
vt 0.060000 0.060000
vt 0.940000 0.632000
vn 0.000000 0.000000 1.000000
vn -0.000000 0.996194 0.087167
vn 0.000000 -0.996194 0.087167
vn -0.985030 0.000000 0.172380
vn 0.000000 0.000000 -1.000000
vn 0.705812 -0.705812 0.060498
vn 0.705812 0.705812 0.060498
vn -0.705812 0.705812 0.060498
vn -0.705812 -0.705812 0.060498
vn 0.000000 -1.000000 0.000000
vn -0.107095 0.000000 0.994249
vn 0.627312 0.000000 0.778768
vn 0.994249 0.000000 0.107095
vn 0.778768 0.000000 -0.627312
vn 0.107095 0.000000 -0.994249
vn -0.627312 0.000000 -0.778768
vn -0.994249 0.000000 -0.107095
vn -0.778768 0.000000 0.627312
vn -0.000000 1.000000 0.000000
vn -0.479426 0.000000 0.877583
vn 0.479426 0.000000 -0.877583
vn -0.877583 0.000000 -0.479426
vn 0.877583 0.000000 0.479426
vn 0.000000 1.000000 0.000000
vn 0.000000 -1.000000 0.000000
usemtl skin
f 1/1/1 2/2/1 3/3/1
f 3/4/2 4/5/2 5/6/2
f 6/6/3 7/7/3 1/4/3
f 6/8/4 1/9/4 3/10/4
f 6/8/4 3/10/4 5/11/4
f 8/12/5 9/13/5 10/14/5
f 8/12/5 11/15/5 9/13/5
f 8/12/5 12/16/5 11/15/5
f 8/12/5 10/14/5 12/16/5
f 10/17/6 9/18/6 13/19/6
f 9/20/7 11/21/7 13/22/7
f 11/21/8 12/23/8 13/22/8
f 12/18/9 10/17/9 13/19/9
f 14/24/10 15/25/10 16/26/10
f 14/24/10 17/27/10 15/25/10
f 14/24/10 18/28/10 17/27/10
f 14/24/10 19/29/10 18/28/10
f 14/24/10 20/30/10 19/29/10
f 14/24/10 21/31/10 20/30/10
f 14/24/10 22/32/10 21/31/10
f 14/24/10 16/26/10 22/32/10
f 16/33/11 15/34/11 23/35/11
f 16/33/11 23/35/11 24/36/11
f 15/34/12 17/37/12 25/38/12
f 15/34/12 25/38/12 23/35/12
f 17/39/13 18/40/13 26/41/13
f 17/39/13 26/41/13 25/42/13
f 18/40/14 19/43/14 27/44/14
f 18/40/14 27/44/14 26/41/14
f 19/45/15 20/46/15 28/47/15
f 19/45/15 28/47/15 27/48/15
f 20/46/16 21/49/16 29/50/16
f 20/46/16 29/50/16 28/47/16
f 21/51/17 22/52/17 30/53/17
f 21/51/17 30/53/17 29/54/17
f 22/52/18 16/55/18 24/56/18
f 22/52/18 24/56/18 30/53/18
f 24/26/19 23/25/19 31/24/19
f 23/25/19 25/27/19 31/24/19
f 25/27/19 26/28/19 31/24/19
f 26/28/19 27/29/19 31/24/19
f 27/29/19 28/30/19 31/24/19
f 28/30/19 29/31/19 31/24/19
f 29/31/19 30/32/19 31/24/19
f 30/32/19 24/26/19 31/24/19
f 32/57/20 33/58/20 34/59/20
f 32/57/20 34/59/20 35/60/20
f 36/61/21 37/62/21 38/63/21
f 36/61/21 38/63/21 39/64/21
f 35/65/19 34/66/19 39/67/19
f 35/65/19 39/67/19 38/68/19
f 37/68/10 36/67/10 33/66/10
f 37/68/10 33/66/10 32/65/10
f 37/69/22 32/70/22 35/71/22
f 37/69/22 35/71/22 38/72/22
f 33/73/23 36/74/23 39/75/23
f 33/73/23 39/75/23 34/76/23
f 40/77/20 41/78/20 42/79/20
f 40/77/20 42/79/20 43/80/20
f 44/81/21 45/82/21 46/83/21
f 44/81/21 46/83/21 47/84/21
f 43/85/19 42/86/19 47/87/19
f 43/85/19 47/87/19 46/88/19
f 45/88/10 44/87/10 41/86/10
f 45/88/10 41/86/10 40/85/10
f 45/89/22 40/90/22 43/91/22
f 45/89/22 43/91/22 46/92/22
f 41/93/23 44/94/23 47/95/23
f 41/93/23 47/95/23 42/96/23
usemtl interior
f 48/97/24 1/98/24 2/99/24
f 48/97/25 2/99/25 1/98/25
f 48/97/24 2/99/24 3/100/24
f 48/97/25 3/100/25 2/99/25
f 48/97/24 3/100/24 4/101/24
f 48/97/25 4/101/25 3/100/25
f 48/97/24 4/101/24 5/102/24
f 48/97/25 5/102/25 4/101/25
f 48/97/24 5/102/24 6/103/24
f 48/97/25 6/103/25 5/102/25
f 48/97/24 6/103/24 7/104/24
f 48/97/25 7/104/25 6/103/25
f 48/97/24 7/104/24 1/98/24
f 48/97/25 1/98/25 7/104/25
