# Sarn carrier, from tools/gen_fleet.py
# Generated by tools. Edit the generator script.
v 0.000000 0.000000 0.142295
v 0.679942 0.151449 1.488579
v 0.000000 0.151449 2.046228
v 0.961583 0.151449 0.142295
v 0.679942 0.151449 -1.203990
v 0.000000 0.151449 -1.761639
v -0.679942 0.151449 -1.203990
v -0.961583 0.151449 0.142295
v -0.679942 0.151449 1.488579
v 0.000000 0.302899 0.142295
v 0.000000 0.194047 1.208497
v 0.042069 0.194047 1.208497
v 0.000000 0.194047 1.250567
v 0.000000 0.194047 1.166428
v -0.042069 0.194047 1.208497
v 0.000000 0.302225 1.208497
v 0.000000 0.227972 0.782016
v 0.042069 0.227972 0.782016
v 0.000000 0.227972 0.824086
v 0.000000 0.227972 0.739947
v -0.042069 0.227972 0.782016
v 0.000000 0.336150 0.782016
v 0.000000 0.261897 0.355535
v 0.042069 0.261897 0.355535
v 0.000000 0.261897 0.397604
v 0.000000 0.261897 0.313466
v -0.042069 0.261897 0.355535
v 0.000000 0.370075 0.355535
v 0.000000 0.261897 -0.070946
v 0.042069 0.261897 -0.070946
v 0.000000 0.261897 -0.028877
v 0.000000 0.261897 -0.113015
v -0.042069 0.261897 -0.070946
v 0.000000 0.370075 -0.070946
v 0.000000 0.227972 -0.497427
v 0.042069 0.227972 -0.497427
v 0.000000 0.227972 -0.455358
v 0.000000 0.227972 -0.539497
v -0.042069 0.227972 -0.497427
v 0.000000 0.336150 -0.497427
v 0.000000 0.194047 -0.923908
v 0.042069 0.194047 -0.923908
v 0.000000 0.194047 -0.881839
v 0.000000 0.194047 -0.965978
v -0.042069 0.194047 -0.923908
v 0.000000 0.302225 -0.923908
v -0.802848 0.103370 1.215756
v -0.802848 0.103370 1.275855
v -0.802848 0.199528 1.275855
v -0.802848 0.199528 1.215756
v -0.658611 0.103370 1.275855
v -0.658611 0.103370 1.215756
v -0.658611 0.199528 1.215756
v -0.658611 0.199528 1.275855
v -0.918275 0.103370 0.664001
v -0.918275 0.103370 0.724100
v -0.918275 0.199528 0.724100
v -0.918275 0.199528 0.664001
v -0.774037 0.103370 0.724100
v -0.774037 0.103370 0.664001
v -0.774037 0.199528 0.664001
v -0.774037 0.199528 0.724100
v -1.033701 0.103370 0.112245
v -1.033701 0.103370 0.172344
v -1.033701 0.199528 0.172344
v -1.033701 0.199528 0.112245
v -0.889464 0.103370 0.172344
v -0.889464 0.103370 0.112245
v -0.889464 0.199528 0.112245
v -0.889464 0.199528 0.172344
v -0.918275 0.103370 -0.439511
v -0.918275 0.103370 -0.379412
v -0.918275 0.199528 -0.379412
v -0.918275 0.199528 -0.439511
v -0.774037 0.103370 -0.379412
v -0.774037 0.103370 -0.439511
v -0.774037 0.199528 -0.439511
v -0.774037 0.199528 -0.379412
v -0.802848 0.103370 -0.991266
v -0.802848 0.103370 -0.931167
v -0.802848 0.199528 -0.931167
v -0.802848 0.199528 -0.991266
v -0.658611 0.103370 -0.931167
v -0.658611 0.103370 -0.991266
v -0.658611 0.199528 -0.991266
v -0.658611 0.199528 -0.931167
v 0.802848 0.103370 1.275855
v 0.802848 0.103370 1.215756
v 0.802848 0.199528 1.215756
v 0.802848 0.199528 1.275855
v 0.658611 0.103370 1.215756
v 0.658611 0.103370 1.275855
v 0.658611 0.199528 1.275855
v 0.658611 0.199528 1.215756
v 0.918275 0.103370 0.724100
v 0.918275 0.103370 0.664001
v 0.918275 0.199528 0.664001
v 0.918275 0.199528 0.724100
v 0.774037 0.103370 0.664001
v 0.774037 0.103370 0.724100
v 0.774037 0.199528 0.724100
v 0.774037 0.199528 0.664001
v 1.033701 0.103370 0.172344
v 1.033701 0.103370 0.112245
v 1.033701 0.199528 0.112245
v 1.033701 0.199528 0.172344
v 0.889464 0.103370 0.112245
v 0.889464 0.103370 0.172344
v 0.889464 0.199528 0.172344
v 0.889464 0.199528 0.112245
v 0.918275 0.103370 -0.379412
v 0.918275 0.103370 -0.439511
v 0.918275 0.199528 -0.439511
v 0.918275 0.199528 -0.379412
v 0.774037 0.103370 -0.439511
v 0.774037 0.103370 -0.379412
v 0.774037 0.199528 -0.379412
v 0.774037 0.199528 -0.439511
v 0.802848 0.103370 -0.931167
v 0.802848 0.103370 -0.991266
v 0.802848 0.199528 -0.991266
v 0.802848 0.199528 -0.931167
v 0.658611 0.103370 -0.991266
v 0.658611 0.103370 -0.931167
v 0.658611 0.199528 -0.931167
v 0.658611 0.199528 -0.991266
v -0.616857 0.069955 0.668415
v -0.616857 0.069955 0.728514
v -0.616857 0.142074 0.728514
v -0.616857 0.142074 0.668415
v -0.496659 0.069955 0.728514
v -0.496659 0.069955 0.668415
v -0.496659 0.142074 0.668415
v -0.496659 0.142074 0.728514
v -0.694424 0.069955 0.297635
v -0.694424 0.069955 0.357734
v -0.694424 0.142074 0.357734
v -0.694424 0.142074 0.297635
v -0.574226 0.069955 0.357734
v -0.574226 0.069955 0.297635
v -0.574226 0.142074 0.297635
v -0.574226 0.142074 0.357734
v -0.694424 0.069955 -0.073145
v -0.694424 0.069955 -0.013046
v -0.694424 0.142074 -0.013046
v -0.694424 0.142074 -0.073145
v -0.574226 0.069955 -0.013046
v -0.574226 0.069955 -0.073145
v -0.574226 0.142074 -0.073145
v -0.574226 0.142074 -0.013046
v -0.616857 0.069955 -0.443925
v -0.616857 0.069955 -0.383826
v -0.616857 0.142074 -0.383826
v -0.616857 0.142074 -0.443925
v -0.496659 0.069955 -0.383826
v -0.496659 0.069955 -0.443925
v -0.496659 0.142074 -0.443925
v -0.496659 0.142074 -0.383826
v 0.616857 0.069955 0.728514
v 0.616857 0.069955 0.668415
v 0.616857 0.142074 0.668415
v 0.616857 0.142074 0.728514
v 0.496659 0.069955 0.668415
v 0.496659 0.069955 0.728514
v 0.496659 0.142074 0.728514
v 0.496659 0.142074 0.668415
v 0.694424 0.069955 0.357734
v 0.694424 0.069955 0.297635
v 0.694424 0.142074 0.297635
v 0.694424 0.142074 0.357734
v 0.574226 0.069955 0.297635
v 0.574226 0.069955 0.357734
v 0.574226 0.142074 0.357734
v 0.574226 0.142074 0.297635
v 0.694424 0.069955 -0.013046
v 0.694424 0.069955 -0.073145
v 0.694424 0.142074 -0.073145
v 0.694424 0.142074 -0.013046
v 0.574226 0.069955 -0.073145
v 0.574226 0.069955 -0.013046
v 0.574226 0.142074 -0.013046
v 0.574226 0.142074 -0.073145
v 0.616857 0.069955 -0.383826
v 0.616857 0.069955 -0.443925
v 0.616857 0.142074 -0.443925
v 0.616857 0.142074 -0.383826
v 0.496659 0.069955 -0.443925
v 0.496659 0.069955 -0.383826
v 0.496659 0.142074 -0.383826
v 0.496659 0.142074 -0.443925
v 0.000000 0.151449 -0.670483
v 0.222433 0.151449 -0.699767
v 0.216211 0.193087 -0.722988
v 0.000000 0.193087 -0.694523
v 0.203767 0.193087 -0.769428
v 0.000000 0.193087 -0.742602
v 0.197545 0.151449 -0.792649
v 0.000000 0.151449 -0.766642
v 0.203767 0.109812 -0.769428
v 0.000000 0.109812 -0.742602
v 0.216211 0.109812 -0.722988
v 0.000000 0.109812 -0.694523
v 0.429707 0.151449 -0.785623
v 0.417688 0.193087 -0.806442
v 0.393648 0.193087 -0.848080
v 0.381628 0.151449 -0.868899
v 0.393648 0.109812 -0.848080
v 0.417688 0.109812 -0.806442
v 0.607698 0.151449 -0.922200
v 0.590699 0.193087 -0.939199
v 0.556702 0.193087 -0.973196
v 0.539704 0.151449 -0.990194
v 0.556702 0.109812 -0.973196
v 0.590699 0.109812 -0.939199
v 0.744275 0.151449 -1.100191
v 0.723456 0.193087 -1.112210
v 0.681818 0.193087 -1.136250
v 0.660999 0.151449 -1.148270
v 0.681818 0.109812 -1.136250
v 0.723456 0.109812 -1.112210
v 0.830131 0.151449 -1.307465
v 0.806910 0.193087 -1.313687
v 0.760469 0.193087 -1.326131
v 0.737249 0.151449 -1.332353
v 0.760469 0.109812 -1.326131
v 0.806910 0.109812 -1.313687
v 0.859415 0.151449 -1.529898
v 0.835375 0.193087 -1.529898
v 0.787296 0.193087 -1.529898
v 0.763256 0.151449 -1.529898
v 0.787296 0.109812 -1.529898
v 0.835375 0.109812 -1.529898
v 0.830131 0.151449 -1.752331
v 0.806910 0.193087 -1.746109
v 0.760469 0.193087 -1.733665
v 0.737249 0.151449 -1.727443
v 0.760469 0.109812 -1.733665
v 0.806910 0.109812 -1.746109
v 0.744275 0.151449 -1.959605
v 0.723456 0.193087 -1.947585
v 0.681818 0.193087 -1.923546
v 0.660999 0.151449 -1.911526
v 0.681818 0.109812 -1.923546
v 0.723456 0.109812 -1.947585
v 0.607698 0.151449 -2.137596
v 0.590699 0.193087 -2.120597
v 0.556702 0.193087 -2.086600
v 0.539704 0.151449 -2.069602
v 0.556702 0.109812 -2.086600
v 0.590699 0.109812 -2.120597
v 0.429707 0.151449 -2.274173
v 0.417688 0.193087 -2.253354
v 0.393648 0.193087 -2.211716
v 0.381628 0.151449 -2.190897
v 0.393648 0.109812 -2.211716
v 0.417688 0.109812 -2.253354
v 0.222433 0.151449 -2.360029
v 0.216211 0.193087 -2.336808
v 0.203767 0.193087 -2.290367
v 0.197545 0.151449 -2.267147
v 0.203767 0.109812 -2.290367
v 0.216211 0.109812 -2.336808
v 0.000000 0.151449 -2.389313
v 0.000000 0.193087 -2.365273
v 0.000000 0.193087 -2.317194
v 0.000000 0.151449 -2.293154
v 0.000000 0.109812 -2.317194
v 0.000000 0.109812 -2.365273
v -0.222433 0.151449 -2.360029
v -0.216211 0.193087 -2.336808
v -0.203767 0.193087 -2.290367
v -0.197545 0.151449 -2.267147
v -0.203767 0.109812 -2.290367
v -0.216211 0.109812 -2.336808
v -0.429707 0.151449 -2.274173
v -0.417688 0.193087 -2.253354
v -0.393648 0.193087 -2.211716
v -0.381628 0.151449 -2.190897
v -0.393648 0.109812 -2.211716
v -0.417688 0.109812 -2.253354
v -0.607698 0.151449 -2.137596
v -0.590699 0.193087 -2.120597
v -0.556702 0.193087 -2.086600
v -0.539704 0.151449 -2.069602
v -0.556702 0.109812 -2.086600
v -0.590699 0.109812 -2.120597
v -0.744275 0.151449 -1.959605
v -0.723456 0.193087 -1.947585
v -0.681818 0.193087 -1.923546
v -0.660999 0.151449 -1.911526
v -0.681818 0.109812 -1.923546
v -0.723456 0.109812 -1.947585
v -0.830131 0.151449 -1.752331
v -0.806910 0.193087 -1.746109
v -0.760469 0.193087 -1.733665
v -0.737249 0.151449 -1.727443
v -0.760469 0.109812 -1.733665
v -0.806910 0.109812 -1.746109
v -0.859415 0.151449 -1.529898
v -0.835375 0.193087 -1.529898
v -0.787296 0.193087 -1.529898
v -0.763256 0.151449 -1.529898
v -0.787296 0.109812 -1.529898
v -0.835375 0.109812 -1.529898
v -0.830131 0.151449 -1.307465
v -0.806910 0.193087 -1.313687
v -0.760469 0.193087 -1.326131
v -0.737249 0.151449 -1.332353
v -0.760469 0.109812 -1.326131
v -0.806910 0.109812 -1.313687
v -0.744275 0.151449 -1.100191
v -0.723456 0.193087 -1.112210
v -0.681818 0.193087 -1.136250
v -0.660999 0.151449 -1.148270
v -0.681818 0.109812 -1.136250
v -0.723456 0.109812 -1.112210
v -0.607698 0.151449 -0.922200
v -0.590699 0.193087 -0.939199
v -0.556702 0.193087 -0.973196
v -0.539704 0.151449 -0.990194
v -0.556702 0.109812 -0.973196
v -0.590699 0.109812 -0.939199
v -0.429707 0.151449 -0.785623
v -0.417688 0.193087 -0.806442
v -0.393648 0.193087 -0.848080
v -0.381628 0.151449 -0.868899
v -0.393648 0.109812 -0.848080
v -0.417688 0.109812 -0.806442
v -0.222433 0.151449 -0.699767
v -0.216211 0.193087 -0.722988
v -0.203767 0.193087 -0.769428
v -0.197545 0.151449 -0.792649
v -0.203767 0.109812 -0.769428
v -0.216211 0.109812 -0.722988
v 0.642538 0.091350 -1.875467
v 0.762736 0.091350 -1.875467
v 0.762736 0.211548 -1.875467
v 0.642538 0.211548 -1.875467
v 0.762736 0.091350 -1.995665
v 0.642538 0.091350 -1.995665
v 0.642538 0.211548 -1.995665
v 0.762736 0.211548 -1.995665
v -0.060099 0.091350 -2.281134
v 0.060099 0.091350 -2.281134
v 0.060099 0.211548 -2.281134
v -0.060099 0.211548 -2.281134
v 0.060099 0.091350 -2.401332
v -0.060099 0.091350 -2.401332
v -0.060099 0.211548 -2.401332
v 0.060099 0.211548 -2.401332
v -0.762736 0.091350 -1.875467
v -0.642538 0.091350 -1.875467
v -0.642538 0.211548 -1.875467
v -0.762736 0.211548 -1.875467
v -0.642538 0.091350 -1.995665
v -0.762736 0.091350 -1.995665
v -0.762736 0.211548 -1.995665
v -0.642538 0.211548 -1.995665
v -0.762736 0.091350 -1.064131
v -0.642538 0.091350 -1.064131
v -0.642538 0.211548 -1.064131
v -0.762736 0.211548 -1.064131
v -0.642538 0.091350 -1.184329
v -0.762736 0.091350 -1.184329
v -0.762736 0.211548 -1.184329
v -0.642538 0.211548 -1.184329
v -0.060099 0.091350 -0.658464
v 0.060099 0.091350 -0.658464
v 0.060099 0.211548 -0.658464
v -0.060099 0.211548 -0.658464
v 0.060099 0.091350 -0.778661
v -0.060099 0.091350 -0.778661
v -0.060099 0.211548 -0.778661
v 0.060099 0.211548 -0.778661
v 0.642538 0.091350 -1.064131
v 0.762736 0.091350 -1.064131
v 0.762736 0.211548 -1.064131
v 0.642538 0.211548 -1.064131
v 0.762736 0.091350 -1.184329
v 0.642538 0.091350 -1.184329
v 0.642538 0.211548 -1.184329
v 0.762736 0.211548 -1.184329
v 0.811335 0.151449 -1.800343
v 0.879330 0.083455 -1.800343
v 0.811335 0.055291 -1.800343
v 0.907494 0.151449 -1.800343
v 0.879330 0.219443 -1.800343
v 0.811335 0.247608 -1.800343
v 0.743341 0.219443 -1.800343
v 0.715177 0.151449 -1.800343
v 0.743341 0.083455 -1.800343
v 0.879330 0.083455 -1.379651
v 0.811335 0.055291 -1.379651
v 0.907494 0.151449 -1.379651
v 0.879330 0.219443 -1.379651
v 0.811335 0.247608 -1.379651
v 0.743341 0.219443 -1.379651
v 0.715177 0.151449 -1.379651
v 0.743341 0.083455 -1.379651
v 0.811335 0.151449 -1.379651
v 0.811335 0.229578 -1.782313
v 0.866581 0.206695 -1.782313
v 0.851112 0.191226 -1.800343
v 0.811335 0.207702 -1.800343
v 0.889464 0.151449 -1.782313
v 0.867588 0.151449 -1.800343
v 0.866581 0.096204 -1.782313
v 0.851112 0.111673 -1.800343
v 0.811335 0.073321 -1.782313
v 0.811335 0.095197 -1.800343
v 0.756090 0.096204 -1.782313
v 0.771559 0.111673 -1.800343
v 0.733207 0.151449 -1.782313
v 0.755083 0.151449 -1.800343
v 0.756090 0.206695 -1.782313
v 0.771559 0.191226 -1.800343
v 0.811335 0.151449 -1.812363
v -0.811335 0.151449 -1.800343
v -0.743341 0.083455 -1.800343
v -0.811335 0.055291 -1.800343
v -0.715177 0.151449 -1.800343
v -0.743341 0.219443 -1.800343
v -0.811335 0.247608 -1.800343
v -0.879330 0.219443 -1.800343
v -0.907494 0.151449 -1.800343
v -0.879330 0.083455 -1.800343
v -0.743341 0.083455 -1.379651
v -0.811335 0.055291 -1.379651
v -0.715177 0.151449 -1.379651
v -0.743341 0.219443 -1.379651
v -0.811335 0.247608 -1.379651
v -0.879330 0.219443 -1.379651
v -0.907494 0.151449 -1.379651
v -0.879330 0.083455 -1.379651
v -0.811335 0.151449 -1.379651
v -0.811335 0.229578 -1.782313
v -0.756090 0.206695 -1.782313
v -0.771559 0.191226 -1.800343
v -0.811335 0.207702 -1.800343
v -0.733207 0.151449 -1.782313
v -0.755083 0.151449 -1.800343
v -0.756090 0.096204 -1.782313
v -0.771559 0.111673 -1.800343
v -0.811335 0.073321 -1.782313
v -0.811335 0.095197 -1.800343
v -0.866581 0.096204 -1.782313
v -0.851112 0.111673 -1.800343
v -0.889464 0.151449 -1.782313
v -0.867588 0.151449 -1.800343
v -0.866581 0.206695 -1.782313
v -0.851112 0.191226 -1.800343
v -0.811335 0.151449 -1.812363
v 0.405668 0.151449 -2.502980
v 0.473662 0.083455 -2.502980
v 0.405668 0.055291 -2.502980
v 0.501826 0.151449 -2.502980
v 0.473662 0.219443 -2.502980
v 0.405668 0.247608 -2.502980
v 0.337674 0.219443 -2.502980
v 0.309509 0.151449 -2.502980
v 0.337674 0.083455 -2.502980
v 0.473662 0.083455 -2.082288
v 0.405668 0.055291 -2.082288
v 0.501826 0.151449 -2.082288
v 0.473662 0.219443 -2.082288
v 0.405668 0.247608 -2.082288
v 0.337674 0.219443 -2.082288
v 0.309509 0.151449 -2.082288
v 0.337674 0.083455 -2.082288
v 0.405668 0.151449 -2.082288
v 0.405668 0.229578 -2.484951
v 0.460913 0.206695 -2.484951
v 0.445444 0.191226 -2.502980
v 0.405668 0.207702 -2.502980
v 0.483796 0.151449 -2.484951
v 0.461920 0.151449 -2.502980
v 0.460913 0.096204 -2.484951
v 0.445444 0.111673 -2.502980
v 0.405668 0.073321 -2.484951
v 0.405668 0.095197 -2.502980
v 0.350422 0.096204 -2.484951
v 0.365891 0.111673 -2.502980
v 0.327539 0.151449 -2.484951
v 0.349415 0.151449 -2.502980
v 0.350422 0.206695 -2.484951
v 0.365891 0.191226 -2.502980
v 0.405668 0.151449 -2.515000
v -0.405668 0.151449 -2.502980
v -0.337674 0.083455 -2.502980
v -0.405668 0.055291 -2.502980
v -0.309509 0.151449 -2.502980
v -0.337674 0.219443 -2.502980
v -0.405668 0.247608 -2.502980
v -0.473662 0.219443 -2.502980
v -0.501826 0.151449 -2.502980
v -0.473662 0.083455 -2.502980
v -0.337674 0.083455 -2.082288
v -0.405668 0.055291 -2.082288
v -0.309509 0.151449 -2.082288
v -0.337674 0.219443 -2.082288
v -0.405668 0.247608 -2.082288
v -0.473662 0.219443 -2.082288
v -0.501826 0.151449 -2.082288
v -0.473662 0.083455 -2.082288
v -0.405668 0.151449 -2.082288
v -0.405668 0.229578 -2.484951
v -0.350422 0.206695 -2.484951
v -0.365891 0.191226 -2.502980
v -0.405668 0.207702 -2.502980
v -0.327539 0.151449 -2.484951
v -0.349415 0.151449 -2.502980
v -0.350422 0.096204 -2.484951
v -0.365891 0.111673 -2.502980
v -0.405668 0.073321 -2.484951
v -0.405668 0.095197 -2.502980
v -0.460913 0.096204 -2.484951
v -0.445444 0.111673 -2.502980
v -0.483796 0.151449 -2.484951
v -0.461920 0.151449 -2.502980
v -0.460913 0.206695 -2.484951
v -0.445444 0.191226 -2.502980
v -0.405668 0.151449 -2.515000
v -0.835375 0.115390 -1.271473
v 0.000000 0.115390 -1.271473
v 0.000000 0.187509 -1.271473
v -0.835375 0.187509 -1.271473
v 0.000000 0.115390 -1.427730
v -0.835375 0.115390 -1.427730
v -0.835375 0.187509 -1.427730
v 0.000000 0.187509 -1.427730
v 0.000000 0.115390 -1.271473
v 0.835375 0.115390 -1.271473
v 0.835375 0.187509 -1.271473
v 0.000000 0.187509 -1.271473
v 0.835375 0.115390 -1.427730
v 0.000000 0.115390 -1.427730
v 0.000000 0.187509 -1.427730
v 0.835375 0.187509 -1.427730
v -0.040567 0.146040 2.515000
v 0.040567 0.146040 2.515000
v 0.040567 0.156858 2.515000
v -0.040567 0.156858 2.515000
v 0.270445 0.115390 1.974110
v -0.270445 0.115390 1.974110
v -0.270445 0.187509 1.974110
v 0.270445 0.187509 1.974110
vt 0.445312 0.828125
vt 0.517128 0.944135
vt 0.445312 0.992188
vt 0.546875 0.828125
vt 0.517128 0.712115
vt 0.445312 0.664062
vt 0.373497 0.712115
vt 0.343750 0.828125
vt 0.373497 0.944135
vt 0.617188 0.429687
vt 0.664062 0.429687
vt 0.617188 0.476562
vt 0.617188 0.382812
vt 0.570312 0.429687
vt 0.765625 0.382812
vt 0.718750 0.382812
vt 0.718750 0.476562
vt 0.765625 0.382812
vt 0.718750 0.382812
vt 0.718750 0.476562
vt 0.671875 0.382812
vt 0.617188 0.429687
vt 0.664062 0.429687
vt 0.617188 0.476562
vt 0.617188 0.382812
vt 0.570312 0.429687
vt 0.718750 0.382812
vt 0.765625 0.382812
vt 0.718750 0.476562
vt 0.765625 0.382812
vt 0.718750 0.382812
vt 0.718750 0.476562
vt 0.671875 0.382812
vt 0.671875 0.382812
vt 0.617188 0.429688
vt 0.664062 0.429688
vt 0.617188 0.476562
vt 0.617188 0.382812
vt 0.570312 0.429688
vt 0.718750 0.382812
vt 0.765625 0.382812
vt 0.718750 0.476562
vt 0.718750 0.382812
vt 0.671875 0.382812
vt 0.718750 0.476562
vt 0.671875 0.382812
vt 0.617188 0.429688
vt 0.664062 0.429688
vt 0.617188 0.476562
vt 0.617188 0.382812
vt 0.570312 0.429688
vt 0.765625 0.382812
vt 0.718750 0.382812
vt 0.718750 0.476562
vt 0.671875 0.382812
vt 0.617188 0.429688
vt 0.664062 0.429688
vt 0.617188 0.476562
vt 0.617188 0.382812
vt 0.570312 0.429688
vt 0.718750 0.382812
vt 0.765625 0.382812
vt 0.718750 0.476562
vt 0.718750 0.382812
vt 0.671875 0.382812
vt 0.718750 0.476562
vt 0.718750 0.382812
vt 0.671875 0.382812
vt 0.718750 0.476562
vt 0.671875 0.382812
vt 0.617188 0.429688
vt 0.664062 0.429688
vt 0.617188 0.476562
vt 0.617188 0.382812
vt 0.570312 0.429688
vt 0.718750 0.382812
vt 0.765625 0.382812
vt 0.718750 0.476562
vt 0.718750 0.382812
vt 0.671875 0.382812
vt 0.718750 0.476562
vt 0.718750 0.382812
vt 0.671875 0.382812
vt 0.718750 0.476562
vt 0.671875 0.382812
vt 0.851562 0.210938
vt 0.945312 0.210938
vt 0.945312 0.273438
vt 0.851562 0.273438
vt 0.851562 0.210938
vt 0.851562 0.273438
vt 0.945312 0.273438
vt 0.945312 0.210938
vt 0.945312 0.210938
vt 0.851562 0.210938
vt 0.851562 0.273438
vt 0.945312 0.273438
vt 0.773438 0.140625
vt 0.835938 0.140625
vt 0.835938 0.187500
vt 0.773438 0.187500
vt 0.851562 0.210938
vt 0.945312 0.210938
vt 0.945312 0.273438
vt 0.851562 0.273438
vt 0.851562 0.210938
vt 0.851562 0.273438
vt 0.945312 0.273438
vt 0.945312 0.210938
vt 0.945312 0.210938
vt 0.851562 0.210938
vt 0.851562 0.273438
vt 0.945312 0.273438
vt 0.773438 0.140625
vt 0.835938 0.140625
vt 0.835938 0.187500
vt 0.773438 0.187500
vt 0.851562 0.210938
vt 0.945312 0.210938
vt 0.945312 0.273438
vt 0.851562 0.273438
vt 0.851562 0.210938
vt 0.851562 0.273438
vt 0.945312 0.273438
vt 0.945312 0.210938
vt 0.945312 0.210938
vt 0.851562 0.210938
vt 0.851562 0.273438
vt 0.945312 0.273438
vt 0.773438 0.140625
vt 0.835938 0.140625
vt 0.835938 0.187500
vt 0.773438 0.187500
vt 0.851562 0.210938
vt 0.945312 0.210938
vt 0.945312 0.273438
vt 0.851562 0.273438
vt 0.851562 0.210938
vt 0.851562 0.273438
vt 0.945312 0.273438
vt 0.945312 0.210938
vt 0.945312 0.210938
vt 0.851562 0.210938
vt 0.851562 0.273438
vt 0.945312 0.273438
vt 0.773438 0.140625
vt 0.835938 0.140625
vt 0.835938 0.187500
vt 0.773438 0.187500
vt 0.851562 0.210938
vt 0.945312 0.210938
vt 0.945312 0.273438
vt 0.851562 0.273438
vt 0.851562 0.210938
vt 0.851562 0.273438
vt 0.945312 0.273438
vt 0.945312 0.210938
vt 0.945312 0.210938
vt 0.851562 0.210938
vt 0.851562 0.273438
vt 0.945312 0.273438
vt 0.773438 0.140625
vt 0.835938 0.140625
vt 0.835938 0.187500
vt 0.773438 0.187500
vt 0.945312 0.210938
vt 0.851562 0.210938
vt 0.851562 0.273438
vt 0.945312 0.273438
vt 0.945312 0.273438
vt 0.945312 0.210938
vt 0.851562 0.210938
vt 0.851562 0.273438
vt 0.773438 0.140625
vt 0.835938 0.140625
vt 0.835938 0.187500
vt 0.773438 0.187500
vt 0.945312 0.210938
vt 0.851562 0.210938
vt 0.851562 0.273438
vt 0.945312 0.273438
vt 0.945312 0.210938
vt 0.851562 0.210938
vt 0.851562 0.273438
vt 0.945312 0.273438
vt 0.945312 0.273438
vt 0.945312 0.210938
vt 0.851562 0.210938
vt 0.851562 0.273438
vt 0.773438 0.140625
vt 0.835938 0.140625
vt 0.835938 0.187500
vt 0.773438 0.187500
vt 0.945312 0.210938
vt 0.851562 0.210938
vt 0.851562 0.273438
vt 0.945312 0.273438
vt 0.945312 0.210938
vt 0.851562 0.210938
vt 0.851562 0.273438
vt 0.945312 0.273438
vt 0.945312 0.273438
vt 0.945312 0.210938
vt 0.851562 0.210938
vt 0.851562 0.273438
vt 0.773438 0.140625
vt 0.835938 0.140625
vt 0.835938 0.187500
vt 0.773438 0.187500
vt 0.945312 0.210938
vt 0.851562 0.210938
vt 0.851562 0.273438
vt 0.945312 0.273438
vt 0.945312 0.210938
vt 0.851562 0.210938
vt 0.851562 0.273438
vt 0.945312 0.273438
vt 0.945312 0.273438
vt 0.945312 0.210938
vt 0.851562 0.210938
vt 0.851562 0.273438
vt 0.773438 0.140625
vt 0.835938 0.140625
vt 0.835938 0.187500
vt 0.773438 0.187500
vt 0.945312 0.210938
vt 0.851562 0.210938
vt 0.851562 0.273438
vt 0.945312 0.273438
vt 0.945312 0.210938
vt 0.851562 0.210938
vt 0.851562 0.273438
vt 0.945312 0.273438
vt 0.945312 0.273438
vt 0.945312 0.210938
vt 0.851562 0.210938
vt 0.851562 0.273438
vt 0.773438 0.140625
vt 0.835938 0.140625
vt 0.835938 0.187500
vt 0.773438 0.187500
vt 0.945312 0.210938
vt 0.851562 0.210938
vt 0.851562 0.273438
vt 0.945312 0.273438
vt 0.851562 0.210938
vt 0.945312 0.210938
vt 0.945312 0.273438
vt 0.851562 0.273438
vt 0.851562 0.210938
vt 0.851562 0.273438
vt 0.945312 0.273438
vt 0.945312 0.210938
vt 0.945312 0.210938
vt 0.851562 0.210938
vt 0.851562 0.273438
vt 0.945312 0.273438
vt 0.773438 0.140625
vt 0.835938 0.140625
vt 0.835938 0.187500
vt 0.773438 0.187500
vt 0.851562 0.210938
vt 0.945312 0.210938
vt 0.945312 0.273438
vt 0.851562 0.273438
vt 0.851562 0.210938
vt 0.851562 0.273438
vt 0.945312 0.273438
vt 0.945312 0.210938
vt 0.945312 0.210938
vt 0.851562 0.210938
vt 0.851562 0.273438
vt 0.945312 0.273438
vt 0.773438 0.140625
vt 0.835938 0.140625
vt 0.835938 0.187500
vt 0.773438 0.187500
vt 0.851562 0.210938
vt 0.945312 0.210938
vt 0.945312 0.273438
vt 0.851562 0.273438
vt 0.851562 0.210938
vt 0.851562 0.273438
vt 0.945312 0.273438
vt 0.945312 0.210938
vt 0.945312 0.210938
vt 0.851562 0.210938
vt 0.851562 0.273438
vt 0.945312 0.273438
vt 0.773438 0.140625
vt 0.835938 0.140625
vt 0.835938 0.187500
vt 0.773438 0.187500
vt 0.851562 0.210938
vt 0.945312 0.210938
vt 0.945312 0.273438
vt 0.851562 0.273438
vt 0.851562 0.210938
vt 0.851562 0.273438
vt 0.945312 0.273438
vt 0.945312 0.210938
vt 0.945312 0.210938
vt 0.851562 0.210938
vt 0.851562 0.273438
vt 0.945312 0.273438
vt 0.773438 0.140625
vt 0.835938 0.140625
vt 0.835938 0.187500
vt 0.773438 0.187500
vt 0.945312 0.210938
vt 0.851562 0.210938
vt 0.851562 0.273438
vt 0.945312 0.273438
vt 0.945312 0.273438
vt 0.945312 0.210938
vt 0.851562 0.210938
vt 0.851562 0.273438
vt 0.773438 0.140625
vt 0.835938 0.140625
vt 0.835938 0.187500
vt 0.773438 0.187500
vt 0.945312 0.210938
vt 0.851562 0.210938
vt 0.851562 0.273438
vt 0.945312 0.273438
vt 0.945312 0.210938
vt 0.851562 0.210938
vt 0.851562 0.273438
vt 0.945312 0.273438
vt 0.945312 0.273438
vt 0.945312 0.210938
vt 0.851562 0.210938
vt 0.851562 0.273438
vt 0.773438 0.140625
vt 0.835938 0.140625
vt 0.835938 0.187500
vt 0.773438 0.187500
vt 0.945312 0.210938
vt 0.851562 0.210938
vt 0.851562 0.273438
vt 0.945312 0.273438
vt 0.945312 0.210938
vt 0.851562 0.210938
vt 0.851562 0.273438
vt 0.945312 0.273438
vt 0.945312 0.273438
vt 0.945312 0.210938
vt 0.851562 0.210938
vt 0.851562 0.273438
vt 0.773438 0.140625
vt 0.835938 0.140625
vt 0.835938 0.187500
vt 0.773438 0.187500
vt 0.945312 0.210938
vt 0.851562 0.210938
vt 0.851562 0.273438
vt 0.945312 0.273438
vt 0.945312 0.210938
vt 0.851562 0.210938
vt 0.851562 0.273438
vt 0.945312 0.273438
vt 0.945312 0.273438
vt 0.945312 0.210938
vt 0.851562 0.210938
vt 0.851562 0.273438
vt 0.773438 0.140625
vt 0.835938 0.140625
vt 0.835938 0.187500
vt 0.773438 0.187500
vt 0.945312 0.210938
vt 0.851562 0.210938
vt 0.851562 0.273438
vt 0.945312 0.273438
vt 0.515625 0.117188
vt 0.547977 0.117188
vt 0.547072 0.132812
vt 0.515625 0.132812
vt 0.718750 0.272563
vt 0.750197 0.271528
vt 0.748387 0.269840
vt 0.718750 0.270815
vt 0.515625 0.132812
vt 0.545262 0.132812
vt 0.544358 0.117188
vt 0.515625 0.117188
vt 0.545262 0.101562
vt 0.515625 0.101562
vt 0.515625 0.101562
vt 0.547072 0.101562
vt 0.578125 0.117188
vt 0.576377 0.132812
vt 0.779502 0.268494
vt 0.776005 0.266980
vt 0.572880 0.132812
vt 0.571132 0.117188
vt 0.572880 0.101562
vt 0.576377 0.101562
vt 0.604013 0.117188
vt 0.601541 0.132812
vt 0.804666 0.263666
vt 0.799721 0.262430
vt 0.596596 0.132812
vt 0.594124 0.117188
vt 0.596596 0.101562
vt 0.601541 0.101562
vt 0.604013 0.117188
vt 0.578125 0.117188
vt 0.576377 0.132812
vt 0.601541 0.132812
vt 0.823975 0.257375
vt 0.817919 0.256501
vt 0.596596 0.132812
vt 0.572880 0.132812
vt 0.571132 0.117188
vt 0.594124 0.117188
vt 0.572880 0.101562
vt 0.596596 0.101562
vt 0.601541 0.101562
vt 0.576377 0.101562
vt 0.547977 0.117188
vt 0.547072 0.132812
vt 0.836113 0.250049
vt 0.829359 0.249597
vt 0.545262 0.132812
vt 0.544358 0.117188
vt 0.545262 0.101562
vt 0.547072 0.101562
vt 0.515625 0.117188
vt 0.515625 0.132812
vt 0.840253 0.242188
vt 0.833260 0.242188
vt 0.515625 0.101562
vt 0.483273 0.117188
vt 0.484178 0.132812
vt 0.836113 0.234326
vt 0.829359 0.234778
vt 0.485988 0.132812
vt 0.486892 0.117188
vt 0.485988 0.101562
vt 0.484178 0.101562
vt 0.453125 0.117188
vt 0.454873 0.132812
vt 0.823975 0.227000
vt 0.817919 0.227874
vt 0.458370 0.132812
vt 0.460118 0.117188
vt 0.458370 0.101562
vt 0.454873 0.101562
vt 0.427237 0.117188
vt 0.429709 0.132812
vt 0.804666 0.220709
vt 0.799721 0.221945
vt 0.434654 0.132812
vt 0.437126 0.117188
vt 0.434654 0.101562
vt 0.429709 0.101562
vt 0.604013 0.117188
vt 0.578125 0.117188
vt 0.576377 0.132812
vt 0.601541 0.132812
vt 0.779502 0.215881
vt 0.776005 0.217395
vt 0.596596 0.132812
vt 0.572880 0.132812
vt 0.571132 0.117188
vt 0.594124 0.117188
vt 0.572880 0.101562
vt 0.596596 0.101562
vt 0.601541 0.101562
vt 0.576377 0.101562
vt 0.547977 0.117188
vt 0.547072 0.132812
vt 0.750197 0.212847
vt 0.748387 0.214535
vt 0.545262 0.132812
vt 0.544358 0.117188
vt 0.545262 0.101562
vt 0.547072 0.101562
vt 0.718750 0.211812
vt 0.718750 0.213560
vt 0.483273 0.117188
vt 0.484178 0.132812
vt 0.687303 0.212847
vt 0.689113 0.214535
vt 0.485988 0.132812
vt 0.486892 0.117188
vt 0.485988 0.101562
vt 0.484178 0.101562
vt 0.453125 0.117188
vt 0.454873 0.132812
vt 0.657998 0.215881
vt 0.661495 0.217395
vt 0.458370 0.132812
vt 0.460118 0.117188
vt 0.458370 0.101562
vt 0.454873 0.101562
vt 0.427237 0.117188
vt 0.429709 0.132812
vt 0.632834 0.220709
vt 0.637779 0.221945
vt 0.434654 0.132812
vt 0.437126 0.117188
vt 0.434654 0.101562
vt 0.429709 0.101562
vt 0.613525 0.227000
vt 0.619581 0.227874
vt 0.601387 0.234326
vt 0.608141 0.234778
vt 0.597247 0.242188
vt 0.604240 0.242188
vt 0.601387 0.250049
vt 0.608141 0.249597
vt 0.613525 0.257375
vt 0.619581 0.256501
vt 0.632834 0.263666
vt 0.637779 0.262430
vt 0.427237 0.117188
vt 0.453125 0.117188
vt 0.454873 0.132812
vt 0.429709 0.132812
vt 0.657998 0.268494
vt 0.661495 0.266980
vt 0.434654 0.132812
vt 0.458370 0.132812
vt 0.460118 0.117188
vt 0.437126 0.117188
vt 0.458370 0.101562
vt 0.434654 0.101562
vt 0.429709 0.101562
vt 0.454873 0.101562
vt 0.483273 0.117188
vt 0.484178 0.132812
vt 0.687303 0.271528
vt 0.689113 0.269840
vt 0.485988 0.132812
vt 0.486892 0.117188
vt 0.485988 0.101562
vt 0.484178 0.101562
vt 0.671875 0.382812
vt 0.765625 0.382812
vt 0.765625 0.476562
vt 0.671875 0.476562
vt 0.765625 0.382812
vt 0.671875 0.382812
vt 0.671875 0.476562
vt 0.765625 0.476562
vt 0.570312 0.476562
vt 0.664062 0.476562
vt 0.664062 0.382812
vt 0.570312 0.382812
vt 0.671875 0.382812
vt 0.765625 0.382812
vt 0.765625 0.476562
vt 0.671875 0.476562
vt 0.671875 0.382812
vt 0.765625 0.382812
vt 0.765625 0.476562
vt 0.671875 0.476562
vt 0.765625 0.382812
vt 0.671875 0.382812
vt 0.671875 0.476562
vt 0.765625 0.476562
vt 0.570312 0.476562
vt 0.664062 0.476562
vt 0.664062 0.382812
vt 0.570312 0.382812
vt 0.671875 0.382812
vt 0.765625 0.382812
vt 0.765625 0.476562
vt 0.671875 0.476562
vt 0.671875 0.382812
vt 0.765625 0.382812
vt 0.765625 0.476562
vt 0.671875 0.476562
vt 0.765625 0.382812
vt 0.671875 0.382812
vt 0.671875 0.476562
vt 0.765625 0.476562
vt 0.570312 0.476562
vt 0.664062 0.476562
vt 0.664062 0.382812
vt 0.570312 0.382812
vt 0.671875 0.382812
vt 0.765625 0.382812
vt 0.765625 0.476562
vt 0.671875 0.476562
vt 0.671875 0.382812
vt 0.765625 0.382812
vt 0.765625 0.476562
vt 0.671875 0.476562
vt 0.765625 0.382812
vt 0.671875 0.382812
vt 0.671875 0.476562
vt 0.765625 0.476562
vt 0.570312 0.476562
vt 0.664062 0.476562
vt 0.664062 0.382812
vt 0.570312 0.382812
vt 0.671875 0.382812
vt 0.765625 0.382812
vt 0.765625 0.476562
vt 0.671875 0.476562
vt 0.671875 0.382812
vt 0.765625 0.382812
vt 0.765625 0.476562
vt 0.671875 0.476562
vt 0.765625 0.382812
vt 0.671875 0.382812
vt 0.671875 0.476562
vt 0.765625 0.476562
vt 0.570312 0.476562
vt 0.664062 0.476562
vt 0.664062 0.382812
vt 0.570312 0.382812
vt 0.671875 0.382812
vt 0.765625 0.382812
vt 0.765625 0.476562
vt 0.671875 0.476562
vt 0.671875 0.382812
vt 0.765625 0.382812
vt 0.765625 0.476562
vt 0.671875 0.476562
vt 0.765625 0.382812
vt 0.671875 0.382812
vt 0.671875 0.476562
vt 0.765625 0.476562
vt 0.570312 0.476562
vt 0.664062 0.476562
vt 0.664062 0.382812
vt 0.570312 0.382812
vt 0.671875 0.382812
vt 0.765625 0.382812
vt 0.765625 0.476562
vt 0.671875 0.476562
vt 0.539062 0.234375
vt 0.572208 0.206754
vt 0.539062 0.195312
vt 0.585938 0.234375
vt 0.572208 0.261996
vt 0.539062 0.273438
vt 0.505917 0.261996
vt 0.492188 0.234375
vt 0.505917 0.206754
vt 0.589844 0.664062
vt 0.614703 0.664062
vt 0.614703 0.992188
vt 0.589844 0.992188
vt 0.492188 0.308316
vt 0.492188 0.335938
vt 0.867188 0.335938
vt 0.867188 0.308316
vt 0.492188 0.363559
vt 0.867188 0.363559
vt 0.564985 0.664062
vt 0.564985 0.992188
vt 0.437500 0.195312
vt 0.470646 0.206754
vt 0.437500 0.234375
vt 0.484375 0.234375
vt 0.470646 0.261996
vt 0.437500 0.273438
vt 0.404354 0.261996
vt 0.390625 0.234375
vt 0.404354 0.206754
vt 0.054687 0.375000
vt 0.087833 0.361271
vt 0.078552 0.351990
vt 0.054687 0.361875
vt 0.101562 0.328125
vt 0.088437 0.328125
vt 0.087833 0.294979
vt 0.078552 0.304260
vt 0.054687 0.281250
vt 0.054687 0.294375
vt 0.021542 0.294979
vt 0.030823 0.304260
vt 0.007812 0.328125
vt 0.020938 0.328125
vt 0.021542 0.361271
vt 0.030823 0.351990
vt 0.054687 0.328125
vt 0.539062 0.234375
vt 0.572208 0.206754
vt 0.539062 0.195312
vt 0.585938 0.234375
vt 0.572208 0.261996
vt 0.539062 0.273438
vt 0.505917 0.261996
vt 0.492188 0.234375
vt 0.505917 0.206754
vt 0.589844 0.664062
vt 0.614703 0.664062
vt 0.614703 0.992188
vt 0.589844 0.992188
vt 0.492188 0.308316
vt 0.492188 0.335938
vt 0.867188 0.335938
vt 0.867188 0.308316
vt 0.492188 0.363559
vt 0.867188 0.363559
vt 0.564985 0.664062
vt 0.564985 0.992188
vt 0.437500 0.195312
vt 0.470646 0.206754
vt 0.437500 0.234375
vt 0.484375 0.234375
vt 0.470646 0.261996
vt 0.437500 0.273438
vt 0.404354 0.261996
vt 0.390625 0.234375
vt 0.404354 0.206754
vt 0.054688 0.375000
vt 0.087833 0.361271
vt 0.078552 0.351990
vt 0.054688 0.361875
vt 0.101562 0.328125
vt 0.088437 0.328125
vt 0.087833 0.294979
vt 0.078552 0.304260
vt 0.054688 0.281250
vt 0.054688 0.294375
vt 0.021542 0.294979
vt 0.030823 0.304260
vt 0.007812 0.328125
vt 0.020938 0.328125
vt 0.021542 0.361271
vt 0.030823 0.351990
vt 0.054688 0.328125
vt 0.539062 0.234375
vt 0.572208 0.206754
vt 0.539062 0.195312
vt 0.585938 0.234375
vt 0.572208 0.261996
vt 0.539062 0.273438
vt 0.505917 0.261996
vt 0.492188 0.234375
vt 0.505917 0.206754
vt 0.589844 0.664062
vt 0.614703 0.664062
vt 0.614703 0.992188
vt 0.589844 0.992188
vt 0.492188 0.308316
vt 0.492188 0.335938
vt 0.867188 0.335938
vt 0.867188 0.308316
vt 0.492188 0.363559
vt 0.867188 0.363559
vt 0.564985 0.664062
vt 0.564985 0.992188
vt 0.437500 0.195312
vt 0.470646 0.206754
vt 0.437500 0.234375
vt 0.484375 0.234375
vt 0.470646 0.261996
vt 0.437500 0.273438
vt 0.404354 0.261996
vt 0.390625 0.234375
vt 0.404354 0.206754
vt 0.054687 0.375000
vt 0.087833 0.361271
vt 0.078552 0.351990
vt 0.054687 0.361875
vt 0.101562 0.328125
vt 0.088437 0.328125
vt 0.087833 0.294979
vt 0.078552 0.304260
vt 0.054687 0.281250
vt 0.054687 0.294375
vt 0.021542 0.294979
vt 0.030823 0.304260
vt 0.007812 0.328125
vt 0.020937 0.328125
vt 0.021542 0.361271
vt 0.030823 0.351990
vt 0.054687 0.328125
vt 0.539062 0.234375
vt 0.572208 0.206754
vt 0.539062 0.195312
vt 0.585938 0.234375
vt 0.572208 0.261996
vt 0.539062 0.273438
vt 0.505917 0.261996
vt 0.492188 0.234375
vt 0.505917 0.206754
vt 0.589844 0.664062
vt 0.614703 0.664062
vt 0.614703 0.992188
vt 0.589844 0.992188
vt 0.492188 0.308316
vt 0.492188 0.335938
vt 0.867188 0.335938
vt 0.867188 0.308316
vt 0.492188 0.363559
vt 0.867188 0.363559
vt 0.564985 0.664062
vt 0.564985 0.992188
vt 0.437500 0.195312
vt 0.470646 0.206754
vt 0.437500 0.234375
vt 0.484375 0.234375
vt 0.470646 0.261996
vt 0.437500 0.273438
vt 0.404354 0.261996
vt 0.390625 0.234375
vt 0.404354 0.206754
vt 0.054687 0.375000
vt 0.087833 0.361271
vt 0.078552 0.351990
vt 0.054687 0.361875
vt 0.101562 0.328125
vt 0.088438 0.328125
vt 0.087833 0.294979
vt 0.078552 0.304260
vt 0.054687 0.281250
vt 0.054687 0.294375
vt 0.021542 0.294979
vt 0.030823 0.304260
vt 0.007812 0.328125
vt 0.020937 0.328125
vt 0.021542 0.361271
vt 0.030823 0.351990
vt 0.054687 0.328125
vt 0.187500 0.484375
vt 0.312500 0.484375
vt 0.312500 0.656250
vt 0.187500 0.656250
vt 0.312500 0.484375
vt 0.187500 0.484375
vt 0.187500 0.656250
vt 0.312500 0.656250
vt 0.320312 0.656250
vt 0.382812 0.656250
vt 0.382812 0.484375
vt 0.320312 0.484375
vt 0.187500 0.484375
vt 0.312500 0.484375
vt 0.312500 0.656250
vt 0.187500 0.656250
vt 0.187500 0.484375
vt 0.312500 0.484375
vt 0.312500 0.656250
vt 0.187500 0.656250
vt 0.312500 0.484375
vt 0.187500 0.484375
vt 0.187500 0.656250
vt 0.312500 0.656250
vt 0.320312 0.656250
vt 0.382812 0.656250
vt 0.382812 0.484375
vt 0.320312 0.484375
vt 0.187500 0.484375
vt 0.312500 0.484375
vt 0.312500 0.656250
vt 0.187500 0.656250
vt 0.508594 0.422656
vt 0.522656 0.422656
vt 0.522656 0.436719
vt 0.508594 0.436719
vt 0.195312 0.382812
vt 0.007812 0.382812
vt 0.007812 0.476562
vt 0.195312 0.476562
vt 0.080859 0.656250
vt 0.106641 0.656250
vt 0.179688 0.484375
vt 0.007812 0.484375
vt 0.007812 0.382812
vt 0.195312 0.422656
vt 0.195312 0.436719
vt 0.007812 0.476562
vn 0.064896 -0.994750 0.079128
vn 0.155500 -0.987300 0.032530
vn 0.155500 -0.987300 -0.032530
vn 0.064896 -0.994750 -0.079128
vn -0.064896 -0.994750 -0.079128
vn -0.155500 -0.987300 -0.032530
vn -0.155500 -0.987300 0.032530
vn -0.064896 -0.994750 0.079128
vn 0.064896 0.994750 0.079128
vn 0.155500 0.987300 0.032530
vn 0.155500 0.987300 -0.032530
vn 0.064896 0.994750 -0.079128
vn -0.064896 0.994750 -0.079128
vn -0.155500 0.987300 -0.032530
vn -0.155500 0.987300 0.032530
vn -0.064896 0.994750 0.079128
vn 0.000000 -1.000000 0.000000
vn 0.681799 0.265144 0.681799
vn 0.681799 0.265144 -0.681799
vn -0.681799 0.265144 -0.681799
vn -0.681799 0.265144 0.681799
vn 0.000000 -1.000000 0.000000
vn 0.681799 0.265144 0.681799
vn 0.681799 0.265144 -0.681799
vn -0.681799 0.265144 -0.681799
vn -0.681799 0.265144 0.681799
vn 0.000000 -1.000000 0.000000
vn 0.681799 0.265144 0.681799
vn 0.681799 0.265144 -0.681799
vn -0.681799 0.265144 -0.681799
vn -0.681799 0.265144 0.681799
vn 0.000000 -1.000000 0.000000
vn 0.681799 0.265144 0.681799
vn 0.681799 0.265144 -0.681799
vn -0.681799 0.265144 -0.681799
vn -0.681799 0.265144 0.681799
vn 0.000000 -1.000000 0.000000
vn 0.681799 0.265144 0.681799
vn 0.681799 0.265144 -0.681799
vn -0.681799 0.265144 -0.681799
vn -0.681799 0.265144 0.681799
vn 0.000000 -1.000000 0.000000
vn 0.681799 0.265144 0.681799
vn 0.681799 0.265144 -0.681799
vn -0.681799 0.265144 -0.681799
vn -0.681799 0.265144 0.681799
vn -1.000000 0.000000 0.000000
vn 1.000000 0.000000 0.000000
vn 0.000000 1.000000 0.000000
vn 0.000000 -1.000000 0.000000
vn 0.000000 0.000000 -1.000000
vn 0.000000 0.000000 1.000000
vn -1.000000 0.000000 0.000000
vn 1.000000 0.000000 0.000000
vn 0.000000 1.000000 0.000000
vn 0.000000 -1.000000 0.000000
vn 0.000000 0.000000 -1.000000
vn 0.000000 0.000000 1.000000
vn -1.000000 0.000000 0.000000
vn 1.000000 0.000000 0.000000
vn 0.000000 1.000000 0.000000
vn 0.000000 -1.000000 0.000000
vn 0.000000 0.000000 -1.000000
vn 0.000000 0.000000 1.000000
vn -1.000000 0.000000 0.000000
vn 1.000000 0.000000 0.000000
vn 0.000000 1.000000 0.000000
vn 0.000000 -1.000000 0.000000
vn 0.000000 0.000000 -1.000000
vn 0.000000 0.000000 1.000000
vn -1.000000 0.000000 0.000000
vn 1.000000 0.000000 0.000000
vn 0.000000 1.000000 0.000000
vn 0.000000 -1.000000 0.000000
vn 0.000000 0.000000 -1.000000
vn 0.000000 0.000000 1.000000
vn 1.000000 0.000000 0.000000
vn -1.000000 0.000000 0.000000
vn 0.000000 1.000000 0.000000
vn 0.000000 -1.000000 0.000000
vn 0.000000 0.000000 1.000000
vn 0.000000 0.000000 -1.000000
vn 1.000000 0.000000 0.000000
vn -1.000000 0.000000 0.000000
vn 0.000000 1.000000 0.000000
vn 0.000000 -1.000000 0.000000
vn 0.000000 0.000000 1.000000
vn 0.000000 0.000000 -1.000000
vn 1.000000 0.000000 0.000000
vn -1.000000 0.000000 0.000000
vn 0.000000 1.000000 0.000000
vn 0.000000 -1.000000 0.000000
vn 0.000000 0.000000 1.000000
vn 0.000000 0.000000 -1.000000
vn 1.000000 0.000000 0.000000
vn -1.000000 0.000000 0.000000
vn 0.000000 1.000000 0.000000
vn 0.000000 -1.000000 0.000000
vn 0.000000 0.000000 1.000000
vn 0.000000 0.000000 -1.000000
vn 1.000000 0.000000 0.000000
vn -1.000000 0.000000 0.000000
vn 0.000000 1.000000 0.000000
vn 0.000000 -1.000000 0.000000
vn 0.000000 0.000000 1.000000
vn 0.000000 0.000000 -1.000000
vn -1.000000 0.000000 0.000000
vn 1.000000 0.000000 0.000000
vn 0.000000 1.000000 0.000000
vn 0.000000 -1.000000 0.000000
vn 0.000000 0.000000 -1.000000
vn 0.000000 0.000000 1.000000
vn -1.000000 0.000000 0.000000
vn 1.000000 0.000000 0.000000
vn 0.000000 1.000000 0.000000
vn 0.000000 -1.000000 0.000000
vn 0.000000 0.000000 -1.000000
vn 0.000000 0.000000 1.000000
vn -1.000000 0.000000 0.000000
vn 1.000000 0.000000 0.000000
vn 0.000000 1.000000 0.000000
vn 0.000000 -1.000000 0.000000
vn 0.000000 0.000000 -1.000000
vn 0.000000 0.000000 1.000000
vn -1.000000 0.000000 0.000000
vn 1.000000 0.000000 0.000000
vn 0.000000 1.000000 0.000000
vn 0.000000 -1.000000 0.000000
vn 0.000000 0.000000 -1.000000
vn 0.000000 0.000000 1.000000
vn 1.000000 0.000000 0.000000
vn -1.000000 0.000000 0.000000
vn 0.000000 1.000000 0.000000
vn 0.000000 -1.000000 0.000000
vn 0.000000 0.000000 1.000000
vn 0.000000 0.000000 -1.000000
vn 1.000000 0.000000 0.000000
vn -1.000000 0.000000 0.000000
vn 0.000000 1.000000 0.000000
vn 0.000000 -1.000000 0.000000
vn 0.000000 0.000000 1.000000
vn 0.000000 0.000000 -1.000000
vn 1.000000 0.000000 0.000000
vn -1.000000 0.000000 0.000000
vn 0.000000 1.000000 0.000000
vn 0.000000 -1.000000 0.000000
vn -0.000000 0.000000 1.000000
vn 0.000000 0.000000 -1.000000
vn 1.000000 0.000000 0.000000
vn -1.000000 0.000000 0.000000
vn 0.000000 1.000000 0.000000
vn 0.000000 -1.000000 0.000000
vn 0.000000 0.000000 1.000000
vn 0.000000 0.000000 -1.000000
vn 0.113281 0.496782 0.860451
vn 0.000000 1.000000 0.000000
vn -0.113281 0.496782 -0.860451
vn -0.113281 -0.496782 -0.860451
vn -0.000000 -1.000000 -0.000000
vn 0.113281 -0.496782 0.860451
vn 0.332122 0.496782 0.801813
vn -0.332122 0.496782 -0.801813
vn -0.332122 -0.496782 -0.801813
vn 0.332122 -0.496782 0.801813
vn 0.528329 0.496782 0.688532
vn -0.528329 0.496782 -0.688532
vn -0.528329 -0.496782 -0.688532
vn 0.528329 -0.496782 0.688532
vn 0.688532 0.496782 0.528329
vn -0.688532 0.496782 -0.528329
vn -0.688532 -0.496782 -0.528329
vn 0.688532 -0.496782 0.528329
vn 0.801813 0.496782 0.332122
vn -0.801813 0.496782 -0.332122
vn -0.801813 -0.496782 -0.332122
vn 0.801813 -0.496782 0.332122
vn 0.860451 0.496782 0.113281
vn -0.860451 0.496782 -0.113281
vn -0.860451 -0.496782 -0.113281
vn 0.860451 -0.496782 0.113281
vn 0.860451 0.496782 -0.113281
vn -0.860451 0.496782 0.113281
vn -0.860451 -0.496782 0.113281
vn 0.860451 -0.496782 -0.113281
vn 0.801813 0.496782 -0.332122
vn -0.801813 0.496782 0.332122
vn -0.801813 -0.496782 0.332122
vn 0.801813 -0.496782 -0.332122
vn 0.688532 0.496782 -0.528329
vn -0.688532 0.496782 0.528329
vn -0.688532 -0.496782 0.528329
vn 0.688532 -0.496782 -0.528329
vn 0.528329 0.496782 -0.688532
vn -0.528329 0.496782 0.688532
vn -0.528329 -0.496782 0.688532
vn 0.528329 -0.496782 -0.688532
vn 0.332122 0.496782 -0.801813
vn -0.332122 0.496782 0.801813
vn -0.332122 -0.496782 0.801813
vn 0.332122 -0.496782 -0.801813
vn 0.113281 0.496782 -0.860451
vn -0.113281 0.496782 0.860451
vn -0.113281 -0.496782 0.860451
vn 0.113281 -0.496782 -0.860451
vn 0.000000 0.000000 1.000000
vn 0.000000 0.000000 -1.000000
vn -0.000000 1.000000 0.000000
vn 0.000000 -1.000000 0.000000
vn -1.000000 0.000000 0.000000
vn 1.000000 0.000000 0.000000
vn 0.000000 0.000000 1.000000
vn 0.000000 0.000000 -1.000000
vn -0.000000 1.000000 0.000000
vn 0.000000 -1.000000 0.000000
vn -1.000000 0.000000 0.000000
vn 1.000000 0.000000 0.000000
vn 0.000000 0.000000 1.000000
vn 0.000000 0.000000 -1.000000
vn -0.000000 1.000000 0.000000
vn 0.000000 -1.000000 0.000000
vn -1.000000 0.000000 0.000000
vn 1.000000 0.000000 0.000000
vn 0.000000 0.000000 1.000000
vn 0.000000 0.000000 -1.000000
vn -0.000000 1.000000 0.000000
vn 0.000000 -1.000000 0.000000
vn -1.000000 0.000000 0.000000
vn 1.000000 0.000000 0.000000
vn 0.000000 0.000000 1.000000
vn 0.000000 0.000000 -1.000000
vn -0.000000 1.000000 0.000000
vn 0.000000 -1.000000 0.000000
vn -1.000000 0.000000 0.000000
vn 1.000000 0.000000 0.000000
vn 0.000000 0.000000 1.000000
vn 0.000000 0.000000 -1.000000
vn -0.000000 1.000000 0.000000
vn 0.000000 -1.000000 0.000000
vn -1.000000 0.000000 0.000000
vn 1.000000 0.000000 0.000000
vn 0.000000 0.000000 -1.000000
vn 0.382683 -0.923880 0.000000
vn 0.923880 -0.382683 0.000000
vn 0.923880 0.382683 -0.000000
vn 0.382683 0.923880 -0.000000
vn -0.382683 0.923880 0.000000
vn -0.923880 0.382683 -0.000000
vn -0.923880 -0.382683 0.000000
vn -0.382683 -0.923880 0.000000
vn 0.000000 0.000000 1.000000
vn 0.254750 0.615021 -0.746225
vn 0.615021 0.254750 -0.746225
vn 0.615021 -0.254750 -0.746225
vn 0.254750 -0.615021 -0.746225
vn -0.254750 -0.615021 -0.746225
vn -0.615021 -0.254750 -0.746225
vn -0.615021 0.254750 -0.746225
vn -0.254750 0.615021 -0.746225
vn 0.086231 0.208180 -0.974282
vn 0.208180 0.086231 -0.974282
vn 0.208180 -0.086231 -0.974282
vn 0.086231 -0.208180 -0.974282
vn -0.086231 -0.208180 -0.974282
vn -0.208180 -0.086231 -0.974282
vn -0.208180 0.086231 -0.974282
vn -0.086231 0.208180 -0.974282
vn 0.000000 0.000000 -1.000000
vn 0.382683 -0.923880 0.000000
vn 0.923880 -0.382683 0.000000
vn 0.923880 0.382683 -0.000000
vn 0.382683 0.923880 -0.000000
vn -0.382683 0.923880 0.000000
vn -0.923880 0.382683 -0.000000
vn -0.923880 -0.382683 0.000000
vn -0.382683 -0.923880 0.000000
vn 0.000000 0.000000 1.000000
vn 0.254750 0.615021 -0.746225
vn 0.615021 0.254750 -0.746225
vn 0.615021 -0.254750 -0.746225
vn 0.254750 -0.615021 -0.746225
vn -0.254750 -0.615021 -0.746225
vn -0.615021 -0.254750 -0.746225
vn -0.615021 0.254750 -0.746225
vn -0.254750 0.615021 -0.746225
vn 0.086231 0.208180 -0.974282
vn 0.208180 0.086231 -0.974282
vn 0.208180 -0.086231 -0.974282
vn 0.086231 -0.208180 -0.974282
vn -0.086231 -0.208180 -0.974282
vn -0.208180 -0.086231 -0.974282
vn -0.208180 0.086231 -0.974282
vn -0.086231 0.208180 -0.974282
vn 0.000000 0.000000 -1.000000
vn 0.382683 -0.923880 0.000000
vn 0.923880 -0.382683 0.000000
vn 0.923880 0.382683 -0.000000
vn 0.382683 0.923880 -0.000000
vn -0.382683 0.923880 0.000000
vn -0.923880 0.382683 -0.000000
vn -0.923880 -0.382683 0.000000
vn -0.382683 -0.923880 0.000000
vn 0.000000 0.000000 1.000000
vn 0.254750 0.615021 -0.746225
vn 0.615021 0.254750 -0.746225
vn 0.615021 -0.254750 -0.746225
vn 0.254750 -0.615021 -0.746225
vn -0.254750 -0.615021 -0.746225
vn -0.615021 -0.254750 -0.746225
vn -0.615021 0.254750 -0.746225
vn -0.254750 0.615021 -0.746225
vn 0.086231 0.208180 -0.974282
vn 0.208180 0.086231 -0.974282
vn 0.208180 -0.086231 -0.974282
vn 0.086231 -0.208180 -0.974282
vn -0.086231 -0.208180 -0.974282
vn -0.208180 -0.086231 -0.974282
vn -0.208180 0.086231 -0.974282
vn -0.086231 0.208180 -0.974282
vn 0.000000 0.000000 -1.000000
vn 0.382683 -0.923880 0.000000
vn 0.923880 -0.382683 0.000000
vn 0.923880 0.382683 -0.000000
vn 0.382683 0.923880 -0.000000
vn -0.382683 0.923880 0.000000
vn -0.923880 0.382683 -0.000000
vn -0.923880 -0.382683 0.000000
vn -0.382683 -0.923880 0.000000
vn 0.000000 0.000000 1.000000
vn 0.254750 0.615021 -0.746225
vn 0.615021 0.254750 -0.746225
vn 0.615021 -0.254750 -0.746225
vn 0.254750 -0.615021 -0.746225
vn -0.254750 -0.615021 -0.746225
vn -0.615021 -0.254750 -0.746225
vn -0.615021 0.254750 -0.746225
vn -0.254750 0.615021 -0.746225
vn 0.086231 0.208180 -0.974282
vn 0.208180 0.086231 -0.974282
vn 0.208180 -0.086231 -0.974282
vn 0.086231 -0.208180 -0.974282
vn -0.086231 -0.208180 -0.974282
vn -0.208180 -0.086231 -0.974282
vn -0.208180 0.086231 -0.974282
vn -0.086231 0.208180 -0.974282
vn 0.000000 0.000000 1.000000
vn 0.000000 0.000000 -1.000000
vn -0.000000 1.000000 0.000000
vn 0.000000 -1.000000 0.000000
vn -1.000000 0.000000 0.000000
vn 1.000000 0.000000 0.000000
vn 0.000000 0.000000 1.000000
vn 0.000000 0.000000 -1.000000
vn -0.000000 1.000000 0.000000
vn 0.000000 -1.000000 0.000000
vn -1.000000 0.000000 0.000000
vn 1.000000 0.000000 0.000000
vn 0.000000 0.000000 1.000000
vn 0.000000 0.000000 -1.000000
vn -0.000000 0.998398 0.056576
vn 0.000000 -0.998398 0.056576
vn -0.920331 0.000000 0.391141
vn 0.920331 0.000000 0.391141
f 1/1/1 2/2/1 3/3/1
f 1/1/2 4/4/2 2/2/2
f 1/1/3 5/5/3 4/4/3
f 1/1/4 6/6/4 5/5/4
f 1/1/5 7/7/5 6/6/5
f 1/1/6 8/8/6 7/7/6
f 1/1/7 9/9/7 8/8/7
f 1/1/8 3/3/8 9/9/8
f 3/3/9 2/2/9 10/1/9
f 2/2/10 4/4/10 10/1/10
f 4/4/11 5/5/11 10/1/11
f 5/5/12 6/6/12 10/1/12
f 6/6/13 7/7/13 10/1/13
f 7/7/14 8/8/14 10/1/14
f 8/8/15 9/9/15 10/1/15
f 9/9/16 3/3/16 10/1/16
f 11/10/17 12/11/17 13/12/17
f 11/10/17 14/13/17 12/11/17
f 11/10/17 15/14/17 14/13/17
f 11/10/17 13/12/17 15/14/17
f 13/15/18 12/16/18 16/17/18
f 12/18/19 14/19/19 16/20/19
f 14/19/20 15/21/20 16/20/20
f 15/16/21 13/15/21 16/17/21
f 17/22/22 18/23/22 19/24/22
f 17/22/22 20/25/22 18/23/22
f 17/22/22 21/26/22 20/25/22
f 17/22/22 19/24/22 21/26/22
f 19/27/23 18/28/23 22/29/23
f 18/30/24 20/31/24 22/32/24
f 20/31/25 21/33/25 22/32/25
f 21/34/26 19/27/26 22/29/26
f 23/35/27 24/36/27 25/37/27
f 23/35/27 26/38/27 24/36/27
f 23/35/27 27/39/27 26/38/27
f 23/35/27 25/37/27 27/39/27
f 25/40/28 24/41/28 28/42/28
f 24/43/29 26/44/29 28/45/29
f 26/44/30 27/43/30 28/45/30
f 27/46/31 25/40/31 28/42/31
f 29/47/32 30/48/32 31/49/32
f 29/47/32 32/50/32 30/48/32
f 29/47/32 33/51/32 32/50/32
f 29/47/32 31/49/32 33/51/32
f 31/52/33 30/53/33 34/54/33
f 30/53/34 32/55/34 34/54/34
f 32/55/35 33/53/35 34/54/35
f 33/53/36 31/52/36 34/54/36
f 35/56/37 36/57/37 37/58/37
f 35/56/37 38/59/37 36/57/37
f 35/56/37 39/60/37 38/59/37
f 35/56/37 37/58/37 39/60/37
f 37/61/38 36/62/38 40/63/38
f 36/64/39 38/65/39 40/66/39
f 38/67/40 39/68/40 40/69/40
f 39/70/41 37/61/41 40/63/41
f 41/71/42 42/72/42 43/73/42
f 41/71/42 44/74/42 42/72/42
f 41/71/42 45/75/42 44/74/42
f 41/71/42 43/73/42 45/75/42
f 43/76/43 42/77/43 46/78/43
f 42/79/44 44/80/44 46/81/44
f 44/82/45 45/83/45 46/84/45
f 45/85/46 43/76/46 46/78/46
f 47/86/47 48/87/47 49/88/47
f 47/86/47 49/88/47 50/89/47
f 51/87/48 52/86/48 53/89/48
f 51/87/48 53/89/48 54/88/48
f 50/90/49 49/91/49 54/92/49
f 50/90/49 54/92/49 53/93/49
f 52/93/50 51/92/50 48/91/50
f 52/93/50 48/91/50 47/90/50
f 52/94/51 47/95/51 50/96/51
f 52/94/51 50/96/51 53/97/51
f 48/98/52 51/99/52 54/100/52
f 48/98/52 54/100/52 49/101/52
f 55/102/53 56/103/53 57/104/53
f 55/102/53 57/104/53 58/105/53
f 59/103/54 60/102/54 61/105/54
f 59/103/54 61/105/54 62/104/54
f 58/106/55 57/107/55 62/108/55
f 58/106/55 62/108/55 61/109/55
f 60/109/56 59/108/56 56/107/56
f 60/109/56 56/107/56 55/106/56
f 60/110/57 55/111/57 58/112/57
f 60/110/57 58/112/57 61/113/57
f 56/114/58 59/115/58 62/116/58
f 56/114/58 62/116/58 57/117/58
f 63/118/59 64/119/59 65/120/59
f 63/118/59 65/120/59 66/121/59
f 67/119/60 68/118/60 69/121/60
f 67/119/60 69/121/60 70/120/60
f 66/122/61 65/123/61 70/124/61
f 66/122/61 70/124/61 69/125/61
f 68/125/62 67/124/62 64/123/62
f 68/125/62 64/123/62 63/122/62
f 68/126/63 63/127/63 66/128/63
f 68/126/63 66/128/63 69/129/63
f 64/130/64 67/131/64 70/132/64
f 64/130/64 70/132/64 65/133/64
f 71/134/65 72/135/65 73/136/65
f 71/134/65 73/136/65 74/137/65
f 75/135/66 76/134/66 77/137/66
f 75/135/66 77/137/66 78/136/66
f 74/138/67 73/139/67 78/140/67
f 74/138/67 78/140/67 77/141/67
f 76/141/68 75/140/68 72/139/68
f 76/141/68 72/139/68 71/138/68
f 76/142/69 71/143/69 74/144/69
f 76/142/69 74/144/69 77/145/69
f 72/146/70 75/147/70 78/148/70
f 72/146/70 78/148/70 73/149/70
f 79/150/71 80/151/71 81/152/71
f 79/150/71 81/152/71 82/153/71
f 83/151/72 84/150/72 85/153/72
f 83/151/72 85/153/72 86/152/72
f 82/154/73 81/155/73 86/156/73
f 82/154/73 86/156/73 85/157/73
f 84/157/74 83/156/74 80/155/74
f 84/157/74 80/155/74 79/154/74
f 84/158/75 79/159/75 82/160/75
f 84/158/75 82/160/75 85/161/75
f 80/162/76 83/163/76 86/164/76
f 80/162/76 86/164/76 81/165/76
f 87/166/77 88/167/77 89/168/77
f 87/166/77 89/168/77 90/169/77
f 91/167/78 92/166/78 93/169/78
f 91/167/78 93/169/78 94/168/78
f 90/170/79 89/171/79 94/172/79
f 90/170/79 94/172/79 93/173/79
f 92/173/80 91/172/80 88/171/80
f 92/173/80 88/171/80 87/170/80
f 92/174/81 87/175/81 90/176/81
f 92/174/81 90/176/81 93/177/81
f 88/178/82 91/179/82 94/180/82
f 88/178/82 94/180/82 89/181/82
f 95/182/83 96/183/83 97/184/83
f 95/182/83 97/184/83 98/185/83
f 99/183/84 100/182/84 101/185/84
f 99/183/84 101/185/84 102/184/84
f 98/186/85 97/187/85 102/188/85
f 98/186/85 102/188/85 101/189/85
f 100/189/86 99/188/86 96/187/86
f 100/189/86 96/187/86 95/186/86
f 100/190/87 95/191/87 98/192/87
f 100/190/87 98/192/87 101/193/87
f 96/194/88 99/195/88 102/196/88
f 96/194/88 102/196/88 97/197/88
f 103/198/89 104/199/89 105/200/89
f 103/198/89 105/200/89 106/201/89
f 107/199/90 108/198/90 109/201/90
f 107/199/90 109/201/90 110/200/90
f 106/202/91 105/203/91 110/204/91
f 106/202/91 110/204/91 109/205/91
f 108/205/92 107/204/92 104/203/92
f 108/205/92 104/203/92 103/202/92
f 108/206/93 103/207/93 106/208/93
f 108/206/93 106/208/93 109/209/93
f 104/210/94 107/211/94 110/212/94
f 104/210/94 110/212/94 105/213/94
f 111/214/95 112/215/95 113/216/95
f 111/214/95 113/216/95 114/217/95
f 115/215/96 116/214/96 117/217/96
f 115/215/96 117/217/96 118/216/96
f 114/218/97 113/219/97 118/220/97
f 114/218/97 118/220/97 117/221/97
f 116/221/98 115/220/98 112/219/98
f 116/221/98 112/219/98 111/218/98
f 116/222/99 111/223/99 114/224/99
f 116/222/99 114/224/99 117/225/99
f 112/226/100 115/227/100 118/228/100
f 112/226/100 118/228/100 113/229/100
f 119/230/101 120/231/101 121/232/101
f 119/230/101 121/232/101 122/233/101
f 123/231/102 124/230/102 125/233/102
f 123/231/102 125/233/102 126/232/102
f 122/234/103 121/235/103 126/236/103
f 122/234/103 126/236/103 125/237/103
f 124/237/104 123/236/104 120/235/104
f 124/237/104 120/235/104 119/234/104
f 124/238/105 119/239/105 122/240/105
f 124/238/105 122/240/105 125/241/105
f 120/242/106 123/243/106 126/244/106
f 120/242/106 126/244/106 121/245/106
f 127/246/107 128/247/107 129/248/107
f 127/246/107 129/248/107 130/249/107
f 131/247/108 132/246/108 133/249/108
f 131/247/108 133/249/108 134/248/108
f 130/250/109 129/251/109 134/252/109
f 130/250/109 134/252/109 133/253/109
f 132/253/110 131/252/110 128/251/110
f 132/253/110 128/251/110 127/250/110
f 132/254/111 127/255/111 130/256/111
f 132/254/111 130/256/111 133/257/111
f 128/258/112 131/259/112 134/260/112
f 128/258/112 134/260/112 129/261/112
f 135/262/113 136/263/113 137/264/113
f 135/262/113 137/264/113 138/265/113
f 139/263/114 140/262/114 141/265/114
f 139/263/114 141/265/114 142/264/114
f 138/266/115 137/267/115 142/268/115
f 138/266/115 142/268/115 141/269/115
f 140/269/116 139/268/116 136/267/116
f 140/269/116 136/267/116 135/266/116
f 140/270/117 135/271/117 138/272/117
f 140/270/117 138/272/117 141/273/117
f 136/274/118 139/275/118 142/276/118
f 136/274/118 142/276/118 137/277/118
f 143/278/119 144/279/119 145/280/119
f 143/278/119 145/280/119 146/281/119
f 147/279/120 148/278/120 149/281/120
f 147/279/120 149/281/120 150/280/120
f 146/282/121 145/283/121 150/284/121
f 146/282/121 150/284/121 149/285/121
f 148/285/122 147/284/122 144/283/122
f 148/285/122 144/283/122 143/282/122
f 148/286/123 143/287/123 146/288/123
f 148/286/123 146/288/123 149/289/123
f 144/290/124 147/291/124 150/292/124
f 144/290/124 150/292/124 145/293/124
f 151/294/125 152/295/125 153/296/125
f 151/294/125 153/296/125 154/297/125
f 155/295/126 156/294/126 157/297/126
f 155/295/126 157/297/126 158/296/126
f 154/298/127 153/299/127 158/300/127
f 154/298/127 158/300/127 157/301/127
f 156/301/128 155/300/128 152/299/128
f 156/301/128 152/299/128 151/298/128
f 156/302/129 151/303/129 154/304/129
f 156/302/129 154/304/129 157/305/129
f 152/306/130 155/307/130 158/308/130
f 152/306/130 158/308/130 153/309/130
f 159/310/131 160/311/131 161/312/131
f 159/310/131 161/312/131 162/313/131
f 163/311/132 164/310/132 165/313/132
f 163/311/132 165/313/132 166/312/132
f 162/314/133 161/315/133 166/316/133
f 162/314/133 166/316/133 165/317/133
f 164/317/134 163/316/134 160/315/134
f 164/317/134 160/315/134 159/314/134
f 164/318/135 159/319/135 162/320/135
f 164/318/135 162/320/135 165/321/135
f 160/322/136 163/323/136 166/324/136
f 160/322/136 166/324/136 161/325/136
f 167/326/137 168/327/137 169/328/137
f 167/326/137 169/328/137 170/329/137
f 171/327/138 172/326/138 173/329/138
f 171/327/138 173/329/138 174/328/138
f 170/330/139 169/331/139 174/332/139
f 170/330/139 174/332/139 173/333/139
f 172/333/140 171/332/140 168/331/140
f 172/333/140 168/331/140 167/330/140
f 172/334/141 167/335/141 170/336/141
f 172/334/141 170/336/141 173/337/141
f 168/338/142 171/339/142 174/340/142
f 168/338/142 174/340/142 169/341/142
f 175/342/143 176/343/143 177/344/143
f 175/342/143 177/344/143 178/345/143
f 179/343/144 180/342/144 181/345/144
f 179/343/144 181/345/144 182/344/144
f 178/346/145 177/347/145 182/348/145
f 178/346/145 182/348/145 181/349/145
f 180/349/146 179/348/146 176/347/146
f 180/349/146 176/347/146 175/346/146
f 180/350/147 175/351/147 178/352/147
f 180/350/147 178/352/147 181/353/147
f 176/354/148 179/355/148 182/356/148
f 176/354/148 182/356/148 177/357/148
f 183/358/149 184/359/149 185/360/149
f 183/358/149 185/360/149 186/361/149
f 187/359/150 188/358/150 189/361/150
f 187/359/150 189/361/150 190/360/150
f 186/362/151 185/363/151 190/364/151
f 186/362/151 190/364/151 189/365/151
f 188/365/152 187/364/152 184/363/152
f 188/365/152 184/363/152 183/362/152
f 188/366/153 183/367/153 186/368/153
f 188/366/153 186/368/153 189/369/153
f 184/370/154 187/371/154 190/372/154
f 184/370/154 190/372/154 185/373/154
f 191/374/155 192/375/155 193/376/155
f 191/374/155 193/376/155 194/377/155
f 194/378/156 193/379/156 195/380/156
f 194/378/156 195/380/156 196/381/156
f 196/382/157 195/383/157 197/384/157
f 196/382/157 197/384/157 198/385/157
f 198/385/158 197/384/158 199/386/158
f 198/385/158 199/386/158 200/387/158
f 200/381/159 199/380/159 201/379/159
f 200/381/159 201/379/159 202/378/159
f 202/388/160 201/389/160 192/375/160
f 202/388/160 192/375/160 191/374/160
f 192/375/161 203/390/161 204/391/161
f 192/375/161 204/391/161 193/376/161
f 193/379/156 204/392/156 205/393/156
f 193/379/156 205/393/156 195/380/156
f 195/383/162 205/394/162 206/395/162
f 195/383/162 206/395/162 197/384/162
f 197/384/163 206/395/163 207/396/163
f 197/384/163 207/396/163 199/386/163
f 199/380/159 207/393/159 208/392/159
f 199/380/159 208/392/159 201/379/159
f 201/389/164 208/397/164 203/390/164
f 201/389/164 203/390/164 192/375/164
f 203/390/165 209/398/165 210/399/165
f 203/390/165 210/399/165 204/391/165
f 204/392/156 210/400/156 211/401/156
f 204/392/156 211/401/156 205/393/156
f 205/394/166 211/402/166 212/403/166
f 205/394/166 212/403/166 206/395/166
f 206/395/167 212/403/167 213/404/167
f 206/395/167 213/404/167 207/396/167
f 207/393/159 213/401/159 214/400/159
f 207/393/159 214/400/159 208/392/159
f 208/397/168 214/405/168 209/398/168
f 208/397/168 209/398/168 203/390/168
f 209/406/169 215/407/169 216/408/169
f 209/406/169 216/408/169 210/409/169
f 210/400/156 216/410/156 217/411/156
f 210/400/156 217/411/156 211/401/156
f 211/412/170 217/413/170 218/414/170
f 211/412/170 218/414/170 212/415/170
f 212/415/171 218/414/171 219/416/171
f 212/415/171 219/416/171 213/417/171
f 213/401/159 219/411/159 220/410/159
f 213/401/159 220/410/159 214/400/159
f 214/418/172 220/419/172 215/407/172
f 214/418/172 215/407/172 209/406/172
f 215/407/173 221/420/173 222/421/173
f 215/407/173 222/421/173 216/408/173
f 216/410/156 222/422/156 223/423/156
f 216/410/156 223/423/156 217/411/156
f 217/413/174 223/424/174 224/425/174
f 217/413/174 224/425/174 218/414/174
f 218/414/175 224/425/175 225/426/175
f 218/414/175 225/426/175 219/416/175
f 219/411/159 225/423/159 226/422/159
f 219/411/159 226/422/159 220/410/159
f 220/419/176 226/427/176 221/420/176
f 220/419/176 221/420/176 215/407/176
f 221/420/177 227/428/177 228/429/177
f 221/420/177 228/429/177 222/421/177
f 222/422/156 228/430/156 229/431/156
f 222/422/156 229/431/156 223/423/156
f 223/424/178 229/429/178 230/428/178
f 223/424/178 230/428/178 224/425/178
f 224/425/179 230/428/179 231/432/179
f 224/425/179 231/432/179 225/426/179
f 225/423/159 231/431/159 232/430/159
f 225/423/159 232/430/159 226/422/159
f 226/427/180 232/432/180 227/428/180
f 226/427/180 227/428/180 221/420/180
f 227/428/181 233/433/181 234/434/181
f 227/428/181 234/434/181 228/429/181
f 228/430/156 234/435/156 235/436/156
f 228/430/156 235/436/156 229/431/156
f 229/429/182 235/437/182 236/438/182
f 229/429/182 236/438/182 230/428/182
f 230/428/183 236/438/183 237/439/183
f 230/428/183 237/439/183 231/432/183
f 231/431/159 237/436/159 238/435/159
f 231/431/159 238/435/159 232/430/159
f 232/432/184 238/440/184 233/433/184
f 232/432/184 233/433/184 227/428/184
f 233/433/185 239/441/185 240/442/185
f 233/433/185 240/442/185 234/434/185
f 234/435/156 240/443/156 241/444/156
f 234/435/156 241/444/156 235/436/156
f 235/437/186 241/445/186 242/446/186
f 235/437/186 242/446/186 236/438/186
f 236/438/187 242/446/187 243/447/187
f 236/438/187 243/447/187 237/439/187
f 237/436/159 243/444/159 244/443/159
f 237/436/159 244/443/159 238/435/159
f 238/440/188 244/448/188 239/441/188
f 238/440/188 239/441/188 233/433/188
f 239/441/189 245/449/189 246/450/189
f 239/441/189 246/450/189 240/442/189
f 240/443/156 246/451/156 247/452/156
f 240/443/156 247/452/156 241/444/156
f 241/445/190 247/453/190 248/454/190
f 241/445/190 248/454/190 242/446/190
f 242/446/191 248/454/191 249/455/191
f 242/446/191 249/455/191 243/447/191
f 243/444/159 249/452/159 250/451/159
f 243/444/159 250/451/159 244/443/159
f 244/448/192 250/456/192 245/449/192
f 244/448/192 245/449/192 239/441/192
f 245/457/193 251/458/193 252/459/193
f 245/457/193 252/459/193 246/460/193
f 246/451/156 252/461/156 253/462/156
f 246/451/156 253/462/156 247/452/156
f 247/463/194 253/464/194 254/465/194
f 247/463/194 254/465/194 248/466/194
f 248/466/195 254/465/195 255/467/195
f 248/466/195 255/467/195 249/468/195
f 249/452/159 255/462/159 256/461/159
f 249/452/159 256/461/159 250/451/159
f 250/469/196 256/470/196 251/458/196
f 250/469/196 251/458/196 245/457/196
f 251/458/197 257/471/197 258/472/197
f 251/458/197 258/472/197 252/459/197
f 252/461/156 258/473/156 259/474/156
f 252/461/156 259/474/156 253/462/156
f 253/464/198 259/475/198 260/476/198
f 253/464/198 260/476/198 254/465/198
f 254/465/199 260/476/199 261/477/199
f 254/465/199 261/477/199 255/467/199
f 255/462/159 261/474/159 262/473/159
f 255/462/159 262/473/159 256/461/159
f 256/470/200 262/478/200 257/471/200
f 256/470/200 257/471/200 251/458/200
f 257/471/201 263/385/201 264/382/201
f 257/471/201 264/382/201 258/472/201
f 258/473/156 264/479/156 265/480/156
f 258/473/156 265/480/156 259/474/156
f 259/475/202 265/377/202 266/374/202
f 259/475/202 266/374/202 260/476/202
f 260/476/203 266/374/203 267/388/203
f 260/476/203 267/388/203 261/477/203
f 261/474/159 267/480/159 268/479/159
f 261/474/159 268/479/159 262/473/159
f 262/478/204 268/387/204 263/385/204
f 262/478/204 263/385/204 257/471/204
f 263/385/157 269/481/157 270/482/157
f 263/385/157 270/482/157 264/382/157
f 264/479/156 270/483/156 271/484/156
f 264/479/156 271/484/156 265/480/156
f 265/377/155 271/485/155 272/486/155
f 265/377/155 272/486/155 266/374/155
f 266/374/160 272/486/160 273/487/160
f 266/374/160 273/487/160 267/388/160
f 267/480/159 273/484/159 274/483/159
f 267/480/159 274/483/159 268/479/159
f 268/387/158 274/488/158 269/481/158
f 268/387/158 269/481/158 263/385/158
f 269/481/162 275/489/162 276/490/162
f 269/481/162 276/490/162 270/482/162
f 270/483/156 276/491/156 277/492/156
f 270/483/156 277/492/156 271/484/156
f 271/485/161 277/493/161 278/494/161
f 271/485/161 278/494/161 272/486/161
f 272/486/164 278/494/164 279/495/164
f 272/486/164 279/495/164 273/487/164
f 273/484/159 279/492/159 280/491/159
f 273/484/159 280/491/159 274/483/159
f 274/488/163 280/496/163 275/489/163
f 274/488/163 275/489/163 269/481/163
f 275/489/166 281/497/166 282/498/166
f 275/489/166 282/498/166 276/490/166
f 276/491/156 282/499/156 283/500/156
f 276/491/156 283/500/156 277/492/156
f 277/493/165 283/501/165 284/502/165
f 277/493/165 284/502/165 278/494/165
f 278/494/168 284/502/168 285/503/168
f 278/494/168 285/503/168 279/495/168
f 279/492/159 285/500/159 286/499/159
f 279/492/159 286/499/159 280/491/159
f 280/496/167 286/504/167 281/497/167
f 280/496/167 281/497/167 275/489/167
f 281/449/170 287/441/170 288/442/170
f 281/449/170 288/442/170 282/450/170
f 282/499/156 288/505/156 289/506/156
f 282/499/156 289/506/156 283/500/156
f 283/453/169 289/445/169 290/446/169
f 283/453/169 290/446/169 284/454/169
f 284/454/172 290/446/172 291/447/172
f 284/454/172 291/447/172 285/455/172
f 285/500/159 291/506/159 292/505/159
f 285/500/159 292/505/159 286/499/159
f 286/456/171 292/448/171 287/441/171
f 286/456/171 287/441/171 281/449/171
f 287/441/174 293/433/174 294/434/174
f 287/441/174 294/434/174 288/442/174
f 288/505/156 294/507/156 295/508/156
f 288/505/156 295/508/156 289/506/156
f 289/445/173 295/437/173 296/438/173
f 289/445/173 296/438/173 290/446/173
f 290/446/176 296/438/176 297/439/176
f 290/446/176 297/439/176 291/447/176
f 291/506/159 297/508/159 298/507/159
f 291/506/159 298/507/159 292/505/159
f 292/448/175 298/440/175 293/433/175
f 292/448/175 293/433/175 287/441/175
f 293/433/178 299/428/178 300/429/178
f 293/433/178 300/429/178 294/434/178
f 294/507/156 300/509/156 301/510/156
f 294/507/156 301/510/156 295/508/156
f 295/437/177 301/429/177 302/428/177
f 295/437/177 302/428/177 296/438/177
f 296/438/180 302/428/180 303/432/180
f 296/438/180 303/432/180 297/439/180
f 297/508/159 303/510/159 304/509/159
f 297/508/159 304/509/159 298/507/159
f 298/440/179 304/432/179 299/428/179
f 298/440/179 299/428/179 293/433/179
f 299/428/182 305/420/182 306/421/182
f 299/428/182 306/421/182 300/429/182
f 300/509/156 306/511/156 307/512/156
f 300/509/156 307/512/156 301/510/156
f 301/429/181 307/424/181 308/425/181
f 301/429/181 308/425/181 302/428/181
f 302/428/184 308/425/184 309/426/184
f 302/428/184 309/426/184 303/432/184
f 303/510/159 309/512/159 310/511/159
f 303/510/159 310/511/159 304/509/159
f 304/432/183 310/427/183 305/420/183
f 304/432/183 305/420/183 299/428/183
f 305/420/186 311/407/186 312/408/186
f 305/420/186 312/408/186 306/421/186
f 306/511/156 312/513/156 313/514/156
f 306/511/156 313/514/156 307/512/156
f 307/424/185 313/413/185 314/414/185
f 307/424/185 314/414/185 308/425/185
f 308/425/188 314/414/188 315/416/188
f 308/425/188 315/416/188 309/426/188
f 309/512/159 315/514/159 316/513/159
f 309/512/159 316/513/159 310/511/159
f 310/427/187 316/419/187 311/407/187
f 310/427/187 311/407/187 305/420/187
f 311/407/190 317/406/190 318/409/190
f 311/407/190 318/409/190 312/408/190
f 312/513/156 318/515/156 319/516/156
f 312/513/156 319/516/156 313/514/156
f 313/413/189 319/412/189 320/415/189
f 313/413/189 320/415/189 314/414/189
f 314/414/192 320/415/192 321/417/192
f 314/414/192 321/417/192 315/416/192
f 315/514/159 321/516/159 322/515/159
f 315/514/159 322/515/159 316/513/159
f 316/419/191 322/418/191 317/406/191
f 316/419/191 317/406/191 311/407/191
f 317/517/194 323/518/194 324/519/194
f 317/517/194 324/519/194 318/520/194
f 318/515/156 324/521/156 325/522/156
f 318/515/156 325/522/156 319/516/156
f 319/523/193 325/524/193 326/525/193
f 319/523/193 326/525/193 320/526/193
f 320/526/196 326/525/196 327/527/196
f 320/526/196 327/527/196 321/528/196
f 321/516/159 327/522/159 328/521/159
f 321/516/159 328/521/159 322/515/159
f 322/529/195 328/530/195 323/518/195
f 322/529/195 323/518/195 317/517/195
f 323/518/198 329/531/198 330/532/198
f 323/518/198 330/532/198 324/519/198
f 324/521/156 330/533/156 331/534/156
f 324/521/156 331/534/156 325/522/156
f 325/524/197 331/535/197 332/536/197
f 325/524/197 332/536/197 326/525/197
f 326/525/200 332/536/200 333/537/200
f 326/525/200 333/537/200 327/527/200
f 327/522/159 333/534/159 334/533/159
f 327/522/159 334/533/159 328/521/159
f 328/530/199 334/538/199 329/531/199
f 328/530/199 329/531/199 323/518/199
f 329/531/202 191/374/202 194/377/202
f 329/531/202 194/377/202 330/532/202
f 330/533/156 194/378/156 196/381/156
f 330/533/156 196/381/156 331/534/156
f 331/535/201 196/382/201 198/385/201
f 331/535/201 198/385/201 332/536/201
f 332/536/204 198/385/204 200/387/204
f 332/536/204 200/387/204 333/537/204
f 333/534/159 200/381/159 202/378/159
f 333/534/159 202/378/159 334/533/159
f 334/538/203 202/388/203 191/374/203
f 334/538/203 191/374/203 329/531/203
f 335/539/205 336/540/205 337/541/205
f 335/539/205 337/541/205 338/542/205
f 339/543/206 340/544/206 341/545/206
f 339/543/206 341/545/206 342/546/206
f 338/547/207 337/548/207 342/549/207
f 338/547/207 342/549/207 341/550/207
f 340/550/208 339/549/208 336/548/208
f 340/550/208 336/548/208 335/547/208
f 340/551/209 335/552/209 338/553/209
f 340/551/209 338/553/209 341/554/209
f 336/552/210 339/551/210 342/554/210
f 336/552/210 342/554/210 337/553/210
f 343/555/211 344/556/211 345/557/211
f 343/555/211 345/557/211 346/558/211
f 347/559/212 348/560/212 349/561/212
f 347/559/212 349/561/212 350/562/212
f 346/563/213 345/564/213 350/565/213
f 346/563/213 350/565/213 349/566/213
f 348/566/214 347/565/214 344/564/214
f 348/566/214 344/564/214 343/563/214
f 348/567/215 343/568/215 346/569/215
f 348/567/215 346/569/215 349/570/215
f 344/568/216 347/567/216 350/570/216
f 344/568/216 350/570/216 345/569/216
f 351/571/217 352/572/217 353/573/217
f 351/571/217 353/573/217 354/574/217
f 355/575/218 356/576/218 357/577/218
f 355/575/218 357/577/218 358/578/218
f 354/579/219 353/580/219 358/581/219
f 354/579/219 358/581/219 357/582/219
f 356/582/220 355/581/220 352/580/220
f 356/582/220 352/580/220 351/579/220
f 356/583/221 351/584/221 354/585/221
f 356/583/221 354/585/221 357/586/221
f 352/584/222 355/583/222 358/586/222
f 352/584/222 358/586/222 353/585/222
f 359/587/223 360/588/223 361/589/223
f 359/587/223 361/589/223 362/590/223
f 363/591/224 364/592/224 365/593/224
f 363/591/224 365/593/224 366/594/224
f 362/595/225 361/596/225 366/597/225
f 362/595/225 366/597/225 365/598/225
f 364/598/226 363/597/226 360/596/226
f 364/598/226 360/596/226 359/595/226
f 364/599/227 359/600/227 362/601/227
f 364/599/227 362/601/227 365/602/227
f 360/600/228 363/599/228 366/602/228
f 360/600/228 366/602/228 361/601/228
f 367/603/229 368/604/229 369/605/229
f 367/603/229 369/605/229 370/606/229
f 371/607/230 372/608/230 373/609/230
f 371/607/230 373/609/230 374/610/230
f 370/611/231 369/612/231 374/613/231
f 370/611/231 374/613/231 373/614/231
f 372/614/232 371/613/232 368/612/232
f 372/614/232 368/612/232 367/611/232
f 372/615/233 367/616/233 370/617/233
f 372/615/233 370/617/233 373/618/233
f 368/616/234 371/615/234 374/618/234
f 368/616/234 374/618/234 369/617/234
f 375/619/235 376/620/235 377/621/235
f 375/619/235 377/621/235 378/622/235
f 379/623/236 380/624/236 381/625/236
f 379/623/236 381/625/236 382/626/236
f 378/627/237 377/628/237 382/629/237
f 378/627/237 382/629/237 381/630/237
f 380/630/238 379/629/238 376/628/238
f 380/630/238 376/628/238 375/627/238
f 380/631/239 375/632/239 378/633/239
f 380/631/239 378/633/239 381/634/239
f 376/632/240 379/631/240 382/634/240
f 376/632/240 382/634/240 377/633/240
f 383/635/241 384/636/241 385/637/241
f 383/635/241 386/638/241 384/636/241
f 383/635/241 387/639/241 386/638/241
f 383/635/241 388/640/241 387/639/241
f 383/635/241 389/641/241 388/640/241
f 383/635/241 390/642/241 389/641/241
f 383/635/241 391/643/241 390/642/241
f 383/635/241 385/637/241 391/643/241
f 385/644/242 384/645/242 392/646/242
f 385/644/242 392/646/242 393/647/242
f 384/648/243 386/649/243 394/650/243
f 384/648/243 394/650/243 392/651/243
f 386/649/244 387/652/244 395/653/244
f 386/649/244 395/653/244 394/650/244
f 387/645/245 388/644/245 396/647/245
f 387/645/245 396/647/245 395/646/245
f 388/644/246 389/654/246 397/655/246
f 388/644/246 397/655/246 396/647/246
f 389/652/247 390/649/247 398/650/247
f 389/652/247 398/650/247 397/653/247
f 390/649/248 391/648/248 399/651/248
f 390/649/248 399/651/248 398/650/248
f 391/654/249 385/644/249 393/647/249
f 391/654/249 393/647/249 399/655/249
f 393/656/250 392/657/250 400/658/250
f 392/657/250 394/659/250 400/658/250
f 394/659/250 395/660/250 400/658/250
f 395/660/250 396/661/250 400/658/250
f 396/661/250 397/662/250 400/658/250
f 397/662/250 398/663/250 400/658/250
f 398/663/250 399/664/250 400/658/250
f 399/664/250 393/656/250 400/658/250
f 401/665/251 402/666/251 403/667/251
f 401/665/251 403/667/251 404/668/251
f 402/666/252 405/669/252 406/670/252
f 402/666/252 406/670/252 403/667/252
f 405/669/253 407/671/253 408/672/253
f 405/669/253 408/672/253 406/670/253
f 407/671/254 409/673/254 410/674/254
f 407/671/254 410/674/254 408/672/254
f 409/673/255 411/675/255 412/676/255
f 409/673/255 412/676/255 410/674/255
f 411/675/256 413/677/256 414/678/256
f 411/675/256 414/678/256 412/676/256
f 413/677/257 415/679/257 416/680/257
f 413/677/257 416/680/257 414/678/257
f 415/679/258 401/665/258 404/668/258
f 415/679/258 404/668/258 416/680/258
f 404/668/259 403/667/259 417/681/259
f 403/667/260 406/670/260 417/681/260
f 406/670/261 408/672/261 417/681/261
f 408/672/262 410/674/262 417/681/262
f 410/674/263 412/676/263 417/681/263
f 412/676/264 414/678/264 417/681/264
f 414/678/265 416/680/265 417/681/265
f 416/680/266 404/668/266 417/681/266
f 418/682/267 419/683/267 420/684/267
f 418/682/267 421/685/267 419/683/267
f 418/682/267 422/686/267 421/685/267
f 418/682/267 423/687/267 422/686/267
f 418/682/267 424/688/267 423/687/267
f 418/682/267 425/689/267 424/688/267
f 418/682/267 426/690/267 425/689/267
f 418/682/267 420/684/267 426/690/267
f 420/691/268 419/692/268 427/693/268
f 420/691/268 427/693/268 428/694/268
f 419/695/269 421/696/269 429/697/269
f 419/695/269 429/697/269 427/698/269
f 421/696/270 422/699/270 430/700/270
f 421/696/270 430/700/270 429/697/270
f 422/692/271 423/691/271 431/694/271
f 422/692/271 431/694/271 430/693/271
f 423/691/272 424/701/272 432/702/272
f 423/691/272 432/702/272 431/694/272
f 424/699/273 425/696/273 433/697/273
f 424/699/273 433/697/273 432/700/273
f 425/696/274 426/695/274 434/698/274
f 425/696/274 434/698/274 433/697/274
f 426/701/275 420/691/275 428/694/275
f 426/701/275 428/694/275 434/702/275
f 428/703/276 427/704/276 435/705/276
f 427/704/276 429/706/276 435/705/276
f 429/706/276 430/707/276 435/705/276
f 430/707/276 431/708/276 435/705/276
f 431/708/276 432/709/276 435/705/276
f 432/709/276 433/710/276 435/705/276
f 433/710/276 434/711/276 435/705/276
f 434/711/276 428/703/276 435/705/276
f 436/712/277 437/713/277 438/714/277
f 436/712/277 438/714/277 439/715/277
f 437/713/278 440/716/278 441/717/278
f 437/713/278 441/717/278 438/714/278
f 440/716/279 442/718/279 443/719/279
f 440/716/279 443/719/279 441/717/279
f 442/718/280 444/720/280 445/721/280
f 442/718/280 445/721/280 443/719/280
f 444/720/281 446/722/281 447/723/281
f 444/720/281 447/723/281 445/721/281
f 446/722/282 448/724/282 449/725/282
f 446/722/282 449/725/282 447/723/282
f 448/724/283 450/726/283 451/727/283
f 448/724/283 451/727/283 449/725/283
f 450/726/284 436/712/284 439/715/284
f 450/726/284 439/715/284 451/727/284
f 439/715/285 438/714/285 452/728/285
f 438/714/286 441/717/286 452/728/286
f 441/717/287 443/719/287 452/728/287
f 443/719/288 445/721/288 452/728/288
f 445/721/289 447/723/289 452/728/289
f 447/723/290 449/725/290 452/728/290
f 449/725/291 451/727/291 452/728/291
f 451/727/292 439/715/292 452/728/292
f 453/729/293 454/730/293 455/731/293
f 453/729/293 456/732/293 454/730/293
f 453/729/293 457/733/293 456/732/293
f 453/729/293 458/734/293 457/733/293
f 453/729/293 459/735/293 458/734/293
f 453/729/293 460/736/293 459/735/293
f 453/729/293 461/737/293 460/736/293
f 453/729/293 455/731/293 461/737/293
f 455/738/294 454/739/294 462/740/294
f 455/738/294 462/740/294 463/741/294
f 454/742/295 456/743/295 464/744/295
f 454/742/295 464/744/295 462/745/295
f 456/743/296 457/746/296 465/747/296
f 456/743/296 465/747/296 464/744/296
f 457/739/297 458/738/297 466/741/297
f 457/739/297 466/741/297 465/740/297
f 458/738/298 459/748/298 467/749/298
f 458/738/298 467/749/298 466/741/298
f 459/746/299 460/743/299 468/744/299
f 459/746/299 468/744/299 467/747/299
f 460/743/300 461/742/300 469/745/300
f 460/743/300 469/745/300 468/744/300
f 461/748/301 455/738/301 463/741/301
f 461/748/301 463/741/301 469/749/301
f 463/750/302 462/751/302 470/752/302
f 462/751/302 464/753/302 470/752/302
f 464/753/302 465/754/302 470/752/302
f 465/754/302 466/755/302 470/752/302
f 466/755/302 467/756/302 470/752/302
f 467/756/302 468/757/302 470/752/302
f 468/757/302 469/758/302 470/752/302
f 469/758/302 463/750/302 470/752/302
f 471/759/303 472/760/303 473/761/303
f 471/759/303 473/761/303 474/762/303
f 472/760/304 475/763/304 476/764/304
f 472/760/304 476/764/304 473/761/304
f 475/763/305 477/765/305 478/766/305
f 475/763/305 478/766/305 476/764/305
f 477/765/306 479/767/306 480/768/306
f 477/765/306 480/768/306 478/766/306
f 479/767/307 481/769/307 482/770/307
f 479/767/307 482/770/307 480/768/307
f 481/769/308 483/771/308 484/772/308
f 481/769/308 484/772/308 482/770/308
f 483/771/309 485/773/309 486/774/309
f 483/771/309 486/774/309 484/772/309
f 485/773/310 471/759/310 474/762/310
f 485/773/310 474/762/310 486/774/310
f 474/762/311 473/761/311 487/775/311
f 473/761/312 476/764/312 487/775/312
f 476/764/313 478/766/313 487/775/313
f 478/766/314 480/768/314 487/775/314
f 480/768/315 482/770/315 487/775/315
f 482/770/316 484/772/316 487/775/316
f 484/772/317 486/774/317 487/775/317
f 486/774/318 474/762/318 487/775/318
f 488/776/319 489/777/319 490/778/319
f 488/776/319 491/779/319 489/777/319
f 488/776/319 492/780/319 491/779/319
f 488/776/319 493/781/319 492/780/319
f 488/776/319 494/782/319 493/781/319
f 488/776/319 495/783/319 494/782/319
f 488/776/319 496/784/319 495/783/319
f 488/776/319 490/778/319 496/784/319
f 490/785/320 489/786/320 497/787/320
f 490/785/320 497/787/320 498/788/320
f 489/789/321 491/790/321 499/791/321
f 489/789/321 499/791/321 497/792/321
f 491/790/322 492/793/322 500/794/322
f 491/790/322 500/794/322 499/791/322
f 492/786/323 493/785/323 501/788/323
f 492/786/323 501/788/323 500/787/323
f 493/785/324 494/795/324 502/796/324
f 493/785/324 502/796/324 501/788/324
f 494/793/325 495/790/325 503/791/325
f 494/793/325 503/791/325 502/794/325
f 495/790/326 496/789/326 504/792/326
f 495/790/326 504/792/326 503/791/326
f 496/795/327 490/785/327 498/788/327
f 496/795/327 498/788/327 504/796/327
f 498/797/328 497/798/328 505/799/328
f 497/798/328 499/800/328 505/799/328
f 499/800/328 500/801/328 505/799/328
f 500/801/328 501/802/328 505/799/328
f 501/802/328 502/803/328 505/799/328
f 502/803/328 503/804/328 505/799/328
f 503/804/328 504/805/328 505/799/328
f 504/805/328 498/797/328 505/799/328
f 506/806/329 507/807/329 508/808/329
f 506/806/329 508/808/329 509/809/329
f 507/807/330 510/810/330 511/811/330
f 507/807/330 511/811/330 508/808/330
f 510/810/331 512/812/331 513/813/331
f 510/810/331 513/813/331 511/811/331
f 512/812/332 514/814/332 515/815/332
f 512/812/332 515/815/332 513/813/332
f 514/814/333 516/816/333 517/817/333
f 514/814/333 517/817/333 515/815/333
f 516/816/334 518/818/334 519/819/334
f 516/816/334 519/819/334 517/817/334
f 518/818/335 520/820/335 521/821/335
f 518/818/335 521/821/335 519/819/335
f 520/820/336 506/806/336 509/809/336
f 520/820/336 509/809/336 521/821/336
f 509/809/337 508/808/337 522/822/337
f 508/808/338 511/811/338 522/822/338
f 511/811/339 513/813/339 522/822/339
f 513/813/340 515/815/340 522/822/340
f 515/815/341 517/817/341 522/822/341
f 517/817/342 519/819/342 522/822/342
f 519/819/343 521/821/343 522/822/343
f 521/821/344 509/809/344 522/822/344
f 523/823/345 524/824/345 525/825/345
f 523/823/345 525/825/345 526/826/345
f 527/827/346 528/828/346 529/829/346
f 527/827/346 529/829/346 530/830/346
f 526/831/347 525/832/347 530/833/347
f 526/831/347 530/833/347 529/834/347
f 528/834/348 527/833/348 524/832/348
f 528/834/348 524/832/348 523/831/348
f 528/835/349 523/836/349 526/837/349
f 528/835/349 526/837/349 529/838/349
f 524/836/350 527/835/350 530/838/350
f 524/836/350 530/838/350 525/837/350
f 531/839/351 532/840/351 533/841/351
f 531/839/351 533/841/351 534/842/351
f 535/843/352 536/844/352 537/845/352
f 535/843/352 537/845/352 538/846/352
f 534/847/353 533/848/353 538/849/353
f 534/847/353 538/849/353 537/850/353
f 536/850/354 535/849/354 532/848/354
f 536/850/354 532/848/354 531/847/354
f 536/851/355 531/852/355 534/853/355
f 536/851/355 534/853/355 537/854/355
f 532/852/356 535/851/356 538/854/356
f 532/852/356 538/854/356 533/853/356
f 539/855/357 540/856/357 541/857/357
f 539/855/357 541/857/357 542/858/357
f 543/859/358 544/860/358 545/861/358
f 543/859/358 545/861/358 546/862/358
f 542/863/359 541/864/359 546/865/359
f 542/863/359 546/865/359 545/866/359
f 544/866/360 543/865/360 540/864/360
f 544/866/360 540/864/360 539/863/360
f 544/867/361 539/868/361 542/869/361
f 544/867/361 542/869/361 545/870/361
f 540/868/362 543/867/362 546/870/362
f 540/868/362 546/870/362 541/869/362
