# Kthaari carrier, from tools/gen_fleet.py
# Generated by tools. Edit the generator script.
v -0.495567 0.419326 2.086144
v 0.495567 0.419326 2.086144
v 0.495567 0.602304 2.086144
v -0.495567 0.602304 2.086144
v 0.619458 0.396453 1.514337
v -0.619458 0.396453 1.514337
v -0.619458 0.625176 1.514337
v 0.619458 0.625176 1.514337
v -0.223005 0.548935 2.033729
v -0.200133 0.548935 2.033729
v -0.223005 0.526063 2.033729
v -0.223005 0.571808 2.033729
v -0.245877 0.548935 2.033729
v -0.223005 0.548935 2.367283
v 0.223005 0.548935 2.033729
v 0.245877 0.548935 2.033729
v 0.223005 0.526063 2.033729
v 0.223005 0.571808 2.033729
v 0.200133 0.548935 2.033729
v 0.223005 0.548935 2.367283
v -0.520345 0.510815 2.038494
v -0.484690 0.490230 2.038494
v -0.520345 0.469645 2.038494
v -0.484690 0.531400 2.038494
v -0.520345 0.551985 2.038494
v -0.555999 0.531400 2.038494
v -0.555999 0.490230 2.038494
v -0.493934 0.495567 2.443524
v -0.520345 0.480318 2.443524
v -0.493934 0.526063 2.443524
v -0.520345 0.541311 2.443524
v -0.546755 0.526063 2.443524
v -0.546755 0.495567 2.443524
v -0.499216 0.498616 2.515000
v -0.520345 0.486418 2.515000
v -0.499216 0.523013 2.515000
v -0.520345 0.535212 2.515000
v -0.541473 0.523013 2.515000
v -0.541473 0.498616 2.515000
v 0.520345 0.510815 2.038494
v 0.555999 0.490230 2.038494
v 0.520345 0.469645 2.038494
v 0.555999 0.531400 2.038494
v 0.520345 0.551985 2.038494
v 0.484690 0.531400 2.038494
v 0.484690 0.490230 2.038494
v 0.546755 0.495567 2.443524
v 0.520345 0.480318 2.443524
v 0.546755 0.526063 2.443524
v 0.520345 0.541311 2.443524
v 0.493934 0.526063 2.443524
v 0.493934 0.495567 2.443524
v 0.541473 0.498616 2.515000
v 0.520345 0.486418 2.515000
v 0.541473 0.523013 2.515000
v 0.520345 0.535212 2.515000
v 0.499216 0.523013 2.515000
v 0.499216 0.498616 2.515000
v -0.142952 0.339272 1.590578
v 0.142952 0.339272 1.590578
v 0.142952 0.587056 1.590578
v -0.142952 0.587056 1.590578
v 0.142952 0.339272 -0.925375
v -0.142952 0.339272 -0.925375
v -0.142952 0.587056 -0.925375
v 0.142952 0.587056 -0.925375
v -0.724290 0.285904 -0.849134
v 0.724290 0.285904 -0.849134
v 0.724290 0.545123 -0.849134
v -0.724290 0.545123 -0.849134
v 0.905362 0.253501 -2.469255
v -0.905362 0.253501 -2.469255
v -0.905362 0.577526 -2.469255
v 0.905362 0.577526 -2.469255
v -0.543217 0.415513 -2.515000
v -0.475829 0.348125 -2.515000
v -0.543217 0.320212 -2.515000
v -0.447916 0.415513 -2.515000
v -0.475829 0.482902 -2.515000
v -0.543217 0.510815 -2.515000
v -0.610605 0.482902 -2.515000
v -0.638518 0.415513 -2.515000
v -0.610605 0.348125 -2.515000
v -0.475829 0.348125 -2.423511
v -0.543217 0.320212 -2.423511
v -0.447916 0.415513 -2.423511
v -0.475829 0.482902 -2.423511
v -0.543217 0.510815 -2.423511
v -0.610605 0.482902 -2.423511
v -0.638518 0.415513 -2.423511
v -0.610605 0.348125 -2.423511
v -0.543217 0.415513 -2.423511
v 0.000000 0.415513 -2.515000
v 0.067388 0.348125 -2.515000
v 0.000000 0.320212 -2.515000
v 0.095301 0.415513 -2.515000
v 0.067388 0.482902 -2.515000
v 0.000000 0.510815 -2.515000
v -0.067388 0.482902 -2.515000
v -0.095301 0.415513 -2.515000
v -0.067388 0.348125 -2.515000
v 0.067388 0.348125 -2.423511
v 0.000000 0.320212 -2.423511
v 0.095301 0.415513 -2.423511
v 0.067388 0.482902 -2.423511
v 0.000000 0.510815 -2.423511
v -0.067388 0.482902 -2.423511
v -0.095301 0.415513 -2.423511
v -0.067388 0.348125 -2.423511
v 0.000000 0.415513 -2.423511
v 0.543217 0.415513 -2.515000
v 0.610605 0.348125 -2.515000
v 0.543217 0.320212 -2.515000
v 0.638518 0.415513 -2.515000
v 0.610605 0.482902 -2.515000
v 0.543217 0.510815 -2.515000
v 0.475829 0.482902 -2.515000
v 0.447916 0.415513 -2.515000
v 0.475829 0.348125 -2.515000
v 0.610605 0.348125 -2.423511
v 0.543217 0.320212 -2.423511
v 0.638518 0.415513 -2.423511
v 0.610605 0.482902 -2.423511
v 0.543217 0.510815 -2.423511
v 0.475829 0.482902 -2.423511
v 0.447916 0.415513 -2.423511
v 0.475829 0.348125 -2.423511
v 0.543217 0.415513 -2.423511
v 0.000000 0.554501 -1.350419
v 0.067220 0.554501 -1.372260
v 0.062103 0.598265 -1.379303
v 0.000000 0.598265 -1.359124
v 0.108764 0.554501 -1.429441
v 0.100485 0.598265 -1.432131
v 0.108764 0.554501 -1.500120
v 0.100485 0.598265 -1.497430
v 0.067220 0.554501 -1.557301
v 0.062103 0.598265 -1.550258
v 0.000000 0.554501 -1.579142
v 0.000000 0.598265 -1.570436
v -0.067220 0.554501 -1.557301
v -0.062103 0.598265 -1.550258
v -0.108764 0.554501 -1.500120
v -0.100485 0.598265 -1.497430
v -0.108764 0.554501 -1.429441
v -0.100485 0.598265 -1.432131
v -0.067220 0.554501 -1.372260
v -0.062103 0.598265 -1.379303
v 0.047532 0.635367 -1.399358
v 0.000000 0.635367 -1.383914
v 0.076908 0.635367 -1.439791
v 0.076908 0.635367 -1.489769
v 0.047532 0.635367 -1.530202
v 0.000000 0.635367 -1.545646
v -0.047532 0.635367 -1.530202
v -0.076908 0.635367 -1.489769
v -0.076908 0.635367 -1.439791
v -0.047532 0.635367 -1.399358
v 0.025724 0.660157 -1.429374
v 0.000000 0.660157 -1.421016
v 0.041622 0.660157 -1.451256
v 0.041622 0.660157 -1.478304
v 0.025724 0.660157 -1.500186
v 0.000000 0.660157 -1.508544
v -0.025724 0.660157 -1.500186
v -0.041622 0.660157 -1.478304
v -0.041622 0.660157 -1.451256
v -0.025724 0.660157 -1.429374
v 0.000000 0.668862 -1.464780
v -0.640958 0.291622 -1.077857
v -0.640958 0.291622 -1.268460
v -0.640958 0.425044 -1.268460
v -0.640958 0.425044 -1.077857
v -0.888741 0.291622 -1.268460
v -0.888741 0.291622 -1.077857
v -0.888741 0.425044 -1.077857
v -0.888741 0.425044 -1.268460
v -0.710490 0.291622 -1.401881
v -0.710490 0.291622 -1.592484
v -0.710490 0.425044 -1.592484
v -0.710490 0.425044 -1.401881
v -0.958273 0.291622 -1.592484
v -0.958273 0.291622 -1.401881
v -0.958273 0.425044 -1.401881
v -0.958273 0.425044 -1.592484
v -0.745256 0.291622 -1.725906
v -0.745256 0.291622 -1.916508
v -0.745256 0.425044 -1.916508
v -0.745256 0.425044 -1.725906
v -0.993039 0.291622 -1.916508
v -0.993039 0.291622 -1.725906
v -0.993039 0.425044 -1.725906
v -0.993039 0.425044 -1.916508
v -0.745256 0.291622 -2.049930
v -0.745256 0.291622 -2.240532
v -0.745256 0.425044 -2.240532
v -0.745256 0.425044 -2.049930
v -0.993039 0.291622 -2.240532
v -0.993039 0.291622 -2.049930
v -0.993039 0.425044 -2.049930
v -0.993039 0.425044 -2.240532
v 0.640958 0.291622 -1.268460
v 0.640958 0.291622 -1.077857
v 0.640958 0.425044 -1.077857
v 0.640958 0.425044 -1.268460
v 0.888741 0.291622 -1.077857
v 0.888741 0.291622 -1.268460
v 0.888741 0.425044 -1.268460
v 0.888741 0.425044 -1.077857
v 0.710490 0.291622 -1.592484
v 0.710490 0.291622 -1.401881
v 0.710490 0.425044 -1.401881
v 0.710490 0.425044 -1.592484
v 0.958273 0.291622 -1.401881
v 0.958273 0.291622 -1.592484
v 0.958273 0.425044 -1.592484
v 0.958273 0.425044 -1.401881
v 0.745256 0.291622 -1.916508
v 0.745256 0.291622 -1.725906
v 0.745256 0.425044 -1.725906
v 0.745256 0.425044 -1.916508
v 0.993039 0.291622 -1.725906
v 0.993039 0.291622 -1.916508
v 0.993039 0.425044 -1.916508
v 0.993039 0.425044 -1.725906
v 0.745256 0.291622 -2.240532
v 0.745256 0.291622 -2.049930
v 0.745256 0.425044 -2.049930
v 0.745256 0.425044 -2.240532
v 0.993039 0.291622 -2.049930
v 0.993039 0.291622 -2.240532
v 0.993039 0.425044 -2.240532
v 0.993039 0.425044 -2.049930
v -1.720188 0.329742 -1.163628
v -0.782233 0.329742 -0.973026
v -0.782233 0.329742 -2.021340
v -1.720188 0.215381 -1.163628
v -0.782233 0.215381 -2.021340
v -0.782233 0.215381 -0.973026
v -1.643947 0.329742 -1.926038
v -1.643947 0.215381 -1.926038
v 1.720188 0.329742 -1.163628
v 0.782233 0.329742 -2.021340
v 0.782233 0.329742 -0.973026
v 1.720188 0.215381 -1.163628
v 0.782233 0.215381 -0.973026
v 0.782233 0.215381 -2.021340
v 1.643947 0.329742 -1.926038
v 1.643947 0.215381 -1.926038
v -1.128424 0.325930 -1.376262
v -0.975942 0.325930 -1.376262
v -0.975942 0.356427 -1.376262
v -1.128424 0.356427 -1.376262
v -0.975942 0.325930 -1.643105
v -1.128424 0.325930 -1.643105
v -1.128424 0.356427 -1.643105
v -0.975942 0.356427 -1.643105
v -1.353383 0.325930 -1.386679
v -1.200901 0.325930 -1.386679
v -1.200901 0.356427 -1.386679
v -1.353383 0.356427 -1.386679
v -1.200901 0.325930 -1.653523
v -1.353383 0.325930 -1.653523
v -1.353383 0.356427 -1.653523
v -1.200901 0.356427 -1.653523
v -1.578341 0.325930 -1.397096
v -1.425859 0.325930 -1.397096
v -1.425859 0.356427 -1.397096
v -1.578341 0.356427 -1.397096
v -1.425859 0.325930 -1.663940
v -1.578341 0.325930 -1.663940
v -1.578341 0.356427 -1.663940
v -1.425859 0.356427 -1.663940
v 0.975942 0.325930 -1.376262
v 1.128424 0.325930 -1.376262
v 1.128424 0.356427 -1.376262
v 0.975942 0.356427 -1.376262
v 1.128424 0.325930 -1.643105
v 0.975942 0.325930 -1.643105
v 0.975942 0.356427 -1.643105
v 1.128424 0.356427 -1.643105
v 1.200901 0.325930 -1.386679
v 1.353383 0.325930 -1.386679
v 1.353383 0.356427 -1.386679
v 1.200901 0.356427 -1.386679
v 1.353383 0.325930 -1.653523
v 1.200901 0.325930 -1.653523
v 1.200901 0.356427 -1.653523
v 1.353383 0.356427 -1.653523
v 1.425859 0.325930 -1.397096
v 1.578341 0.325930 -1.397096
v 1.578341 0.356427 -1.397096
v 1.425859 0.356427 -1.397096
v 1.578341 0.325930 -1.663940
v 1.425859 0.325930 -1.663940
v 1.425859 0.356427 -1.663940
v 1.578341 0.356427 -1.663940
v -1.819777 0.019441 -1.163628
v -1.544357 0.019441 -1.163628
v -1.544357 0.239778 -1.163628
v -1.819777 0.239778 -1.163628
v -1.565418 0.036291 -2.497846
v -1.798716 0.036291 -2.497846
v -1.798716 0.222929 -2.497846
v -1.565418 0.222929 -2.497846
v -1.722570 0.236538 -1.417130
v -1.641564 0.236538 -1.417130
v -1.641564 0.275421 -1.417130
v -1.722570 0.275421 -1.417130
v -1.641564 0.236538 -2.244344
v -1.722570 0.236538 -2.244344
v -1.722570 0.275421 -2.244344
v -1.641564 0.275421 -2.244344
v -1.771174 0.056704 -2.307815
v -1.592960 0.056704 -2.307815
v -1.592960 0.202515 -2.307815
v -1.771174 0.202515 -2.307815
v -1.592960 0.056704 -2.346698
v -1.771174 0.056704 -2.346698
v -1.771174 0.202515 -2.346698
v -1.592960 0.202515 -2.346698
v 1.544357 0.019441 -1.163628
v 1.819777 0.019441 -1.163628
v 1.819777 0.239778 -1.163628
v 1.544357 0.239778 -1.163628
v 1.798716 0.036291 -2.497846
v 1.565418 0.036291 -2.497846
v 1.565418 0.222929 -2.497846
v 1.798716 0.222929 -2.497846
v 1.641564 0.236538 -1.417130
v 1.722570 0.236538 -1.417130
v 1.722570 0.275421 -1.417130
v 1.641564 0.275421 -1.417130
v 1.722570 0.236538 -2.244344
v 1.641564 0.236538 -2.244344
v 1.641564 0.275421 -2.244344
v 1.722570 0.275421 -2.244344
v 1.592960 0.056704 -2.307815
v 1.771174 0.056704 -2.307815
v 1.771174 0.202515 -2.307815
v 1.592960 0.202515 -2.307815
v 1.771174 0.056704 -2.346698
v 1.592960 0.056704 -2.346698
v 1.592960 0.202515 -2.346698
v 1.771174 0.202515 -2.346698
v -1.682067 0.000000 -1.171252
v -1.605884 0.024753 -1.171252
v -1.616091 0.038801 -1.106448
v -1.682067 0.017364 -1.106448
v -1.558801 0.089558 -1.171252
v -1.575315 0.094924 -1.106448
v -1.558801 0.169661 -1.171252
v -1.575315 0.164295 -1.106448
v -1.605884 0.234466 -1.171252
v -1.616091 0.220418 -1.106448
v -1.682067 0.259219 -1.171252
v -1.682067 0.241855 -1.106448
v -1.758250 0.234466 -1.171252
v -1.748043 0.220418 -1.106448
v -1.805333 0.169661 -1.171252
v -1.788819 0.164295 -1.106448
v -1.805333 0.089558 -1.171252
v -1.788819 0.094924 -1.106448
v -1.758250 0.024753 -1.171252
v -1.748043 0.038801 -1.106448
v -1.643976 0.077181 -1.059007
v -1.682067 0.064805 -1.059007
v -1.620434 0.109584 -1.059007
v -1.620434 0.149636 -1.059007
v -1.643976 0.182038 -1.059007
v -1.682067 0.194415 -1.059007
v -1.720158 0.182038 -1.059007
v -1.743700 0.149636 -1.059007
v -1.743700 0.109584 -1.059007
v -1.720158 0.077181 -1.059007
v -1.682067 0.129610 -1.041643
v -1.682067 0.081959 -1.211279
v -1.641956 0.058801 -1.211279
v -1.682067 0.035643 -1.211279
v -1.641956 0.105117 -1.211279
v -1.682067 0.128275 -1.211279
v -1.722178 0.105117 -1.211279
v -1.722178 0.058801 -1.211279
v -1.652355 0.064805 -0.401218
v -1.682067 0.047651 -0.401218
v -1.652355 0.099113 -0.401218
v -1.682067 0.116268 -0.401218
v -1.711779 0.099113 -0.401218
v -1.711779 0.064805 -0.401218
v -1.658297 0.068236 -0.258266
v -1.682067 0.054512 -0.258266
v -1.658297 0.095682 -0.258266
v -1.682067 0.109406 -0.258266
v -1.705837 0.095682 -0.258266
v -1.705837 0.068236 -0.258266
v 1.682067 0.000000 -1.171252
v 1.758250 0.024753 -1.171252
v 1.748043 0.038801 -1.106448
v 1.682067 0.017364 -1.106448
v 1.805333 0.089558 -1.171252
v 1.788819 0.094924 -1.106448
v 1.805333 0.169661 -1.171252
v 1.788819 0.164295 -1.106448
v 1.758250 0.234466 -1.171252
v 1.748043 0.220418 -1.106448
v 1.682067 0.259219 -1.171252
v 1.682067 0.241855 -1.106448
v 1.605884 0.234466 -1.171252
v 1.616091 0.220418 -1.106448
v 1.558801 0.169661 -1.171252
v 1.575315 0.164295 -1.106448
v 1.558801 0.089558 -1.171252
v 1.575315 0.094924 -1.106448
v 1.605884 0.024753 -1.171252
v 1.616091 0.038801 -1.106448
v 1.720158 0.077181 -1.059007
v 1.682067 0.064805 -1.059007
v 1.743700 0.109584 -1.059007
v 1.743700 0.149636 -1.059007
v 1.720158 0.182038 -1.059007
v 1.682067 0.194415 -1.059007
v 1.643976 0.182038 -1.059007
v 1.620434 0.149636 -1.059007
v 1.620434 0.109584 -1.059007
v 1.643976 0.077181 -1.059007
v 1.682067 0.129610 -1.041643
v 1.682067 0.081959 -1.211279
v 1.722178 0.058801 -1.211279
v 1.682067 0.035643 -1.211279
v 1.722178 0.105117 -1.211279
v 1.682067 0.128275 -1.211279
v 1.641956 0.105117 -1.211279
v 1.641956 0.058801 -1.211279
v 1.711779 0.064805 -0.401218
v 1.682067 0.047651 -0.401218
v 1.711779 0.099113 -0.401218
v 1.682067 0.116268 -0.401218
v 1.652355 0.099113 -0.401218
v 1.652355 0.064805 -0.401218
v 1.705837 0.068236 -0.258266
v 1.682067 0.054512 -0.258266
v 1.705837 0.095682 -0.258266
v 1.682067 0.109406 -0.258266
v 1.658297 0.095682 -0.258266
v 1.658297 0.068236 -0.258266
vt 0.478125 0.392188
vt 0.553125 0.392188
vt 0.553125 0.467187
vt 0.478125 0.467187
vt 0.195312 0.382812
vt 0.007812 0.382812
vt 0.007812 0.476562
vt 0.195312 0.476562
vt 0.025000 0.656250
vt 0.162500 0.656250
vt 0.179688 0.484375
vt 0.007812 0.484375
vt 0.007812 0.382812
vt 0.195312 0.392188
vt 0.195312 0.467187
vt 0.007812 0.476562
vt 0.718750 0.429688
vt 0.765625 0.429687
vt 0.718750 0.382812
vt 0.718750 0.476562
vt 0.671875 0.429688
vt 0.617188 0.382812
vt 0.664062 0.382812
vt 0.617188 0.476562
vt 0.671875 0.429687
vt 0.671875 0.476562
vt 0.765625 0.429688
vt 0.570312 0.382812
vt 0.671875 0.382812
vt 0.718750 0.429688
vt 0.765625 0.429687
vt 0.718750 0.382812
vt 0.718750 0.476562
vt 0.671875 0.429688
vt 0.617188 0.382812
vt 0.664062 0.382812
vt 0.617188 0.476562
vt 0.671875 0.429687
vt 0.671875 0.476562
vt 0.765625 0.429688
vt 0.570312 0.382812
vt 0.671875 0.382812
vt 0.718750 0.429687
vt 0.765625 0.406250
vt 0.718750 0.382812
vt 0.765625 0.453125
vt 0.718750 0.476562
vt 0.671875 0.453125
vt 0.671875 0.406250
vt 0.617187 0.382812
vt 0.664062 0.382812
vt 0.651910 0.462500
vt 0.617187 0.462500
vt 0.671875 0.406250
vt 0.671875 0.453125
vt 0.751563 0.447049
vt 0.751563 0.412326
vt 0.570312 0.382812
vt 0.582465 0.462500
vt 0.644965 0.476562
vt 0.617187 0.476562
vt 0.765625 0.443576
vt 0.765625 0.415799
vt 0.589410 0.476562
vt 0.718750 0.429687
vt 0.765625 0.406250
vt 0.718750 0.382812
vt 0.765625 0.453125
vt 0.718750 0.476562
vt 0.671875 0.453125
vt 0.671875 0.406250
vt 0.617188 0.382812
vt 0.664062 0.382812
vt 0.651910 0.462500
vt 0.617188 0.462500
vt 0.671875 0.406250
vt 0.671875 0.453125
vt 0.751563 0.447049
vt 0.751563 0.412326
vt 0.570312 0.382812
vt 0.582465 0.462500
vt 0.644965 0.476562
vt 0.617188 0.476562
vt 0.765625 0.443576
vt 0.765625 0.415799
vt 0.589410 0.476562
vt 0.187500 0.484375
vt 0.312500 0.484375
vt 0.312500 0.656250
vt 0.187500 0.656250
vt 0.312500 0.484375
vt 0.187500 0.484375
vt 0.187500 0.656250
vt 0.312500 0.656250
vt 0.320312 0.656250
vt 0.382812 0.656250
vt 0.382812 0.484375
vt 0.320312 0.484375
vt 0.187500 0.484375
vt 0.312500 0.484375
vt 0.312500 0.656250
vt 0.187500 0.656250
vt 0.215625 0.392188
vt 0.315625 0.392188
vt 0.315625 0.467187
vt 0.215625 0.467187
vt 0.460938 0.382812
vt 0.335938 0.382812
vt 0.335938 0.476562
vt 0.460938 0.476562
vt 0.364063 0.992188
vt 0.526563 0.992188
vt 0.546875 0.664062
vt 0.343750 0.664062
vt 0.109375 0.296875
vt 0.484375 0.304688
vt 0.484375 0.367188
vt 0.109375 0.375000
vt 0.054688 0.328125
vt 0.087833 0.294979
vt 0.054688 0.281250
vt 0.101562 0.328125
vt 0.087833 0.361271
vt 0.054688 0.375000
vt 0.021542 0.361271
vt 0.007812 0.328125
vt 0.021542 0.294979
vt 0.054688 0.281250
vt 0.087833 0.281250
vt 0.087833 0.375000
vt 0.054688 0.375000
vt 0.007812 0.294979
vt 0.007812 0.328125
vt 0.101562 0.328125
vt 0.101562 0.294979
vt 0.007812 0.361271
vt 0.101562 0.361271
vt 0.021542 0.281250
vt 0.021542 0.375000
vt 0.054688 0.281250
vt 0.087833 0.294979
vt 0.054688 0.328125
vt 0.101562 0.328125
vt 0.087833 0.361271
vt 0.054688 0.375000
vt 0.021542 0.361271
vt 0.007812 0.328125
vt 0.021542 0.294979
vt 0.054688 0.328125
vt 0.087833 0.294979
vt 0.054688 0.281250
vt 0.101562 0.328125
vt 0.087833 0.361271
vt 0.054688 0.375000
vt 0.021542 0.361271
vt 0.007812 0.328125
vt 0.021542 0.294979
vt 0.054688 0.281250
vt 0.087833 0.281250
vt 0.087833 0.375000
vt 0.054688 0.375000
vt 0.007812 0.294979
vt 0.007812 0.328125
vt 0.101562 0.328125
vt 0.101562 0.294979
vt 0.007812 0.361271
vt 0.101562 0.361271
vt 0.021542 0.281250
vt 0.021542 0.375000
vt 0.054688 0.281250
vt 0.087833 0.294979
vt 0.054688 0.328125
vt 0.101562 0.328125
vt 0.087833 0.361271
vt 0.054688 0.375000
vt 0.021542 0.361271
vt 0.007812 0.328125
vt 0.021542 0.294979
vt 0.054687 0.328125
vt 0.087833 0.294979
vt 0.054687 0.281250
vt 0.101562 0.328125
vt 0.087833 0.361271
vt 0.054687 0.375000
vt 0.021542 0.361271
vt 0.007812 0.328125
vt 0.021542 0.294979
vt 0.054687 0.281250
vt 0.087833 0.281250
vt 0.087833 0.375000
vt 0.054687 0.375000
vt 0.007812 0.294979
vt 0.007812 0.328125
vt 0.101562 0.328125
vt 0.101562 0.294979
vt 0.007812 0.361271
vt 0.101562 0.361271
vt 0.021542 0.281250
vt 0.021542 0.375000
vt 0.054687 0.281250
vt 0.087833 0.294979
vt 0.054687 0.328125
vt 0.101562 0.328125
vt 0.087833 0.361271
vt 0.054687 0.375000
vt 0.021542 0.361271
vt 0.007812 0.328125
vt 0.021542 0.294979
vt 0.718750 0.382812
vt 0.747720 0.382812
vt 0.745515 0.418689
vt 0.718750 0.418689
vt 0.756673 0.382812
vt 0.733235 0.382812
vt 0.732133 0.418689
vt 0.753786 0.418689
vt 0.704265 0.382812
vt 0.705367 0.418689
vt 0.680827 0.382812
vt 0.683714 0.418689
vt 0.747720 0.382812
vt 0.718750 0.382812
vt 0.718750 0.418689
vt 0.745515 0.418689
vt 0.689780 0.382812
vt 0.691985 0.418689
vt 0.689780 0.382812
vt 0.691985 0.418689
vt 0.739235 0.449104
vt 0.718750 0.449104
vt 0.728993 0.449104
vt 0.745565 0.449104
vt 0.708507 0.449104
vt 0.691935 0.449104
vt 0.718750 0.449104
vt 0.739235 0.449104
vt 0.698265 0.449104
vt 0.698265 0.449104
vt 0.617188 0.462833
vt 0.637673 0.456503
vt 0.628274 0.444200
vt 0.617188 0.447626
vt 0.650333 0.439930
vt 0.635126 0.435231
vt 0.650333 0.419445
vt 0.635126 0.424144
vt 0.637673 0.402872
vt 0.628274 0.415175
vt 0.617188 0.396542
vt 0.617188 0.411749
vt 0.596702 0.402872
vt 0.606101 0.415175
vt 0.584042 0.419445
vt 0.599249 0.424144
vt 0.584042 0.439930
vt 0.599249 0.435231
vt 0.596702 0.456503
vt 0.606101 0.444200
vt 0.617188 0.429688
vt 0.945312 0.210938
vt 0.851562 0.210938
vt 0.851562 0.273438
vt 0.945312 0.273438
vt 0.945312 0.273438
vt 0.945312 0.210938
vt 0.851562 0.210938
vt 0.851562 0.273438
vt 0.773438 0.140625
vt 0.835938 0.140625
vt 0.835938 0.187500
vt 0.773438 0.187500
vt 0.945312 0.210938
vt 0.851562 0.210938
vt 0.851562 0.273438
vt 0.945312 0.273438
vt 0.945312 0.210938
vt 0.851562 0.210938
vt 0.851562 0.273438
vt 0.945312 0.273438
vt 0.945312 0.273438
vt 0.945312 0.210938
vt 0.851562 0.210938
vt 0.851562 0.273438
vt 0.773438 0.140625
vt 0.835938 0.140625
vt 0.835938 0.187500
vt 0.773438 0.187500
vt 0.945312 0.210938
vt 0.851562 0.210938
vt 0.851562 0.273438
vt 0.945312 0.273438
vt 0.945312 0.210938
vt 0.851562 0.210938
vt 0.851562 0.273438
vt 0.945312 0.273438
vt 0.945312 0.273438
vt 0.945312 0.210938
vt 0.851562 0.210938
vt 0.851562 0.273438
vt 0.773438 0.140625
vt 0.835938 0.140625
vt 0.835938 0.187500
vt 0.773438 0.187500
vt 0.945312 0.210938
vt 0.851562 0.210938
vt 0.851562 0.273438
vt 0.945312 0.273438
vt 0.945312 0.210938
vt 0.851562 0.210938
vt 0.851562 0.273438
vt 0.945312 0.273438
vt 0.945312 0.273438
vt 0.945312 0.210938
vt 0.851562 0.210938
vt 0.851562 0.273438
vt 0.773438 0.140625
vt 0.835938 0.140625
vt 0.835938 0.187500
vt 0.773438 0.187500
vt 0.945312 0.210938
vt 0.851562 0.210938
vt 0.851562 0.273438
vt 0.945312 0.273438
vt 0.851562 0.210938
vt 0.945312 0.210938
vt 0.945312 0.273438
vt 0.851562 0.273438
vt 0.851562 0.210938
vt 0.851562 0.273438
vt 0.945312 0.273438
vt 0.945312 0.210938
vt 0.945312 0.210938
vt 0.851562 0.210938
vt 0.851562 0.273438
vt 0.945312 0.273438
vt 0.773438 0.140625
vt 0.835938 0.140625
vt 0.835938 0.187500
vt 0.773438 0.187500
vt 0.851562 0.210938
vt 0.945312 0.210938
vt 0.945312 0.273438
vt 0.851562 0.273438
vt 0.851562 0.210938
vt 0.851562 0.273438
vt 0.945312 0.273438
vt 0.945312 0.210938
vt 0.945312 0.210938
vt 0.851562 0.210938
vt 0.851562 0.273438
vt 0.945312 0.273438
vt 0.773438 0.140625
vt 0.835938 0.140625
vt 0.835938 0.187500
vt 0.773438 0.187500
vt 0.851562 0.210938
vt 0.945312 0.210938
vt 0.945312 0.273438
vt 0.851562 0.273438
vt 0.851562 0.210938
vt 0.851562 0.273438
vt 0.945312 0.273438
vt 0.945312 0.210938
vt 0.945312 0.210938
vt 0.851562 0.210938
vt 0.851562 0.273438
vt 0.945312 0.273438
vt 0.773438 0.140625
vt 0.835938 0.140625
vt 0.835938 0.187500
vt 0.773438 0.187500
vt 0.851562 0.210938
vt 0.945312 0.210938
vt 0.945312 0.273438
vt 0.851562 0.273438
vt 0.851562 0.210938
vt 0.851562 0.273438
vt 0.945312 0.273438
vt 0.945312 0.210938
vt 0.945312 0.210938
vt 0.851562 0.210938
vt 0.851562 0.273438
vt 0.945312 0.273438
vt 0.773438 0.140625
vt 0.835938 0.140625
vt 0.835938 0.187500
vt 0.773438 0.187500
vt 0.632812 0.952415
vt 0.976562 0.992188
vt 0.976562 0.773438
vt 0.660754 0.793324
vt 0.382812 0.132812
vt 0.007812 0.101562
vt 0.007812 0.132812
vt 0.382812 0.101562
vt 0.382812 0.132812
vt 0.038294 0.101562
vt 0.038294 0.132812
vt 0.382812 0.101562
vt 0.041903 0.132812
vt 0.314631 0.101562
vt 0.314631 0.132812
vt 0.041903 0.101562
vt 0.007812 0.132812
vt 0.382812 0.101562
vt 0.382812 0.132812
vt 0.007812 0.101562
vt 0.976562 0.952415
vt 0.632812 0.773438
vt 0.632812 0.992188
vt 0.948621 0.793324
vt 0.382812 0.132812
vt 0.007812 0.132812
vt 0.007812 0.101562
vt 0.382812 0.101562
vt 0.007812 0.132812
vt 0.352331 0.132812
vt 0.352331 0.101562
vt 0.007812 0.101562
vt 0.041903 0.132812
vt 0.314631 0.132812
vt 0.314631 0.101562
vt 0.041903 0.101562
vt 0.382812 0.132812
vt 0.007812 0.132812
vt 0.007812 0.101562
vt 0.382812 0.101562
vt 0.741895 0.382812
vt 0.765625 0.382812
vt 0.765625 0.476562
vt 0.741895 0.476562
vt 0.765625 0.382812
vt 0.741895 0.382812
vt 0.741895 0.476562
vt 0.765625 0.476562
vt 0.640332 0.476562
vt 0.664062 0.476562
vt 0.664062 0.389602
vt 0.640332 0.389602
vt 0.678665 0.382812
vt 0.765625 0.382812
vt 0.765625 0.476562
vt 0.678665 0.476562
vt 0.706885 0.382812
vt 0.730615 0.382812
vt 0.730615 0.476562
vt 0.706885 0.476562
vt 0.730615 0.382812
vt 0.706885 0.382812
vt 0.706885 0.476562
vt 0.730615 0.476562
vt 0.605322 0.473168
vt 0.629053 0.473168
vt 0.629053 0.386207
vt 0.605322 0.386207
vt 0.675270 0.382812
vt 0.762230 0.382812
vt 0.762230 0.476562
vt 0.675270 0.476562
vt 0.671875 0.382812
vt 0.695605 0.382812
vt 0.695605 0.476562
vt 0.671875 0.476562
vt 0.695605 0.382812
vt 0.671875 0.382812
vt 0.671875 0.476562
vt 0.695605 0.476562
vt 0.570312 0.469773
vt 0.594043 0.469773
vt 0.594043 0.382812
vt 0.570312 0.382812
vt 0.671875 0.382812
vt 0.758835 0.382812
vt 0.758835 0.476562
vt 0.671875 0.476562
vt 0.671875 0.382812
vt 0.695605 0.382812
vt 0.695605 0.476562
vt 0.671875 0.476562
vt 0.695605 0.382812
vt 0.671875 0.382812
vt 0.671875 0.476562
vt 0.695605 0.476562
vt 0.570312 0.476562
vt 0.594043 0.476562
vt 0.594043 0.389602
vt 0.570312 0.389602
vt 0.678665 0.382812
vt 0.765625 0.382812
vt 0.765625 0.476562
vt 0.678665 0.476562
vt 0.706885 0.382812
vt 0.730615 0.382812
vt 0.730615 0.476562
vt 0.706885 0.476562
vt 0.730615 0.382812
vt 0.706885 0.382812
vt 0.706885 0.476562
vt 0.730615 0.476562
vt 0.605322 0.473168
vt 0.629053 0.473168
vt 0.629053 0.386207
vt 0.605322 0.386207
vt 0.675270 0.382812
vt 0.762230 0.382812
vt 0.762230 0.476562
vt 0.675270 0.476562
vt 0.741895 0.382812
vt 0.765625 0.382812
vt 0.765625 0.476562
vt 0.741895 0.476562
vt 0.765625 0.382812
vt 0.741895 0.382812
vt 0.741895 0.476562
vt 0.765625 0.476562
vt 0.640332 0.469773
vt 0.664062 0.469773
vt 0.664062 0.382812
vt 0.640332 0.382812
vt 0.671875 0.382812
vt 0.758835 0.382812
vt 0.758835 0.476562
vt 0.671875 0.476562
vt 0.390625 0.195312
vt 0.484375 0.195312
vt 0.484375 0.262559
vt 0.390625 0.262559
vt 0.578768 0.200455
vt 0.499357 0.200455
vt 0.499357 0.257417
vt 0.578768 0.257417
vt 0.554688 0.992188
vt 0.625000 0.992188
vt 0.619623 0.664062
vt 0.560064 0.664062
vt 0.492188 0.302017
vt 0.867188 0.296875
vt 0.867188 0.364122
vt 0.492188 0.358979
vt 0.382812 0.195312
vt 0.354136 0.200455
vt 0.354136 0.257417
vt 0.382812 0.262559
vt 0.423713 0.261570
vt 0.451287 0.261570
vt 0.451287 0.273438
vt 0.423713 0.273438
vt 0.552849 0.261570
vt 0.525276 0.261570
vt 0.525276 0.273438
vt 0.552849 0.273438
vt 0.579504 0.929844
vt 0.600184 0.929844
vt 0.600184 0.726406
vt 0.579504 0.726406
vt 0.563438 0.363133
vt 0.795937 0.363133
vt 0.795937 0.375000
vt 0.563438 0.375000
vt 0.250460 0.261570
vt 0.250460 0.273438
vt 0.407169 0.206685
vt 0.467831 0.206685
vt 0.467831 0.251187
vt 0.407169 0.251187
vt 0.569393 0.206685
vt 0.508732 0.206685
vt 0.508732 0.251187
vt 0.569393 0.251187
vt 0.567096 0.710797
vt 0.612592 0.710797
vt 0.612592 0.701234
vt 0.567096 0.701234
vt 0.534670 0.308248
vt 0.545598 0.308248
vt 0.545598 0.352749
vt 0.534670 0.352749
vt 0.316636 0.206685
vt 0.316636 0.251187
vt 0.390625 0.195312
vt 0.484375 0.195312
vt 0.484375 0.262559
vt 0.390625 0.262559
vt 0.578768 0.200455
vt 0.499357 0.200455
vt 0.499357 0.257417
vt 0.578768 0.257417
vt 0.554688 0.992188
vt 0.625000 0.992188
vt 0.619623 0.664062
vt 0.560064 0.664062
vt 0.036489 0.200455
vt 0.007812 0.195312
vt 0.007812 0.262559
vt 0.036489 0.257417
vt 0.867188 0.296875
vt 0.492188 0.302017
vt 0.492188 0.358979
vt 0.867188 0.364122
vt 0.423713 0.261570
vt 0.451287 0.261570
vt 0.451287 0.273438
vt 0.423713 0.273438
vt 0.552849 0.261570
vt 0.525276 0.261570
vt 0.525276 0.273438
vt 0.552849 0.273438
vt 0.579504 0.929844
vt 0.600184 0.929844
vt 0.600184 0.726406
vt 0.579504 0.726406
vt 0.140165 0.261570
vt 0.140165 0.273438
vt 0.795937 0.363133
vt 0.563438 0.363133
vt 0.563438 0.375000
vt 0.795937 0.375000
vt 0.407169 0.206685
vt 0.467831 0.206685
vt 0.467831 0.251187
vt 0.407169 0.251187
vt 0.569393 0.206685
vt 0.508732 0.206685
vt 0.508732 0.251187
vt 0.569393 0.251187
vt 0.567096 0.710797
vt 0.612592 0.710797
vt 0.612592 0.701234
vt 0.567096 0.701234
vt 0.073989 0.206685
vt 0.073989 0.251187
vt 0.545598 0.308248
vt 0.534670 0.308248
vt 0.534670 0.352749
vt 0.545598 0.352749
vt 0.054687 0.281250
vt 0.083658 0.281250
vt 0.079777 0.328125
vt 0.054687 0.328125
vt 0.007812 0.290202
vt 0.007812 0.313640
vt 0.054687 0.315580
vt 0.054688 0.295283
vt 0.007812 0.342610
vt 0.054687 0.340670
vt 0.007812 0.366048
vt 0.054687 0.360967
vt 0.025717 0.281250
vt 0.029598 0.328125
vt 0.069173 0.362440
vt 0.054687 0.362440
vt 0.079777 0.295283
vt 0.095282 0.315580
vt 0.078125 0.320882
vt 0.069173 0.309164
vt 0.089002 0.335368
vt 0.089002 0.320882
vt 0.095282 0.340670
vt 0.079777 0.360967
vt 0.069173 0.347086
vt 0.078125 0.335368
vt 0.040202 0.362440
vt 0.029598 0.360967
vt 0.014093 0.340670
vt 0.031250 0.335368
vt 0.040202 0.347086
vt 0.014093 0.315580
vt 0.029598 0.295283
vt 0.040202 0.309164
vt 0.031250 0.320882
vt 0.054687 0.304688
vt 0.054687 0.328125
vt 0.054687 0.351562
vt 0.718750 0.429688
vt 0.765625 0.406250
vt 0.718750 0.382812
vt 0.765625 0.453125
vt 0.718750 0.476562
vt 0.671875 0.453125
vt 0.671875 0.406250
vt 0.617187 0.382812
vt 0.664062 0.382812
vt 0.651910 0.462500
vt 0.617187 0.462500
vt 0.671875 0.406250
vt 0.671875 0.453125
vt 0.751563 0.447049
vt 0.751563 0.412326
vt 0.570312 0.382812
vt 0.582465 0.462500
vt 0.644965 0.476562
vt 0.617187 0.476562
vt 0.765625 0.443576
vt 0.765625 0.415799
vt 0.589410 0.476562
vt 0.054688 0.281250
vt 0.083658 0.281250
vt 0.079777 0.328125
vt 0.054688 0.328125
vt 0.007812 0.290202
vt 0.007812 0.313640
vt 0.054687 0.315580
vt 0.054688 0.295283
vt 0.007812 0.342610
vt 0.054687 0.340670
vt 0.007812 0.366048
vt 0.054687 0.360967
vt 0.025717 0.281250
vt 0.029598 0.328125
vt 0.069173 0.362440
vt 0.054688 0.362440
vt 0.079777 0.295283
vt 0.095282 0.315580
vt 0.078125 0.320882
vt 0.069173 0.309164
vt 0.089002 0.335368
vt 0.089002 0.320882
vt 0.095282 0.340670
vt 0.079777 0.360967
vt 0.069173 0.347086
vt 0.078125 0.335368
vt 0.040202 0.362440
vt 0.029598 0.360967
vt 0.014093 0.340670
vt 0.031250 0.335368
vt 0.040202 0.347086
vt 0.014093 0.315580
vt 0.029598 0.295283
vt 0.040202 0.309164
vt 0.031250 0.320882
vt 0.054688 0.304688
vt 0.054688 0.328125
vt 0.054688 0.351562
vt 0.718750 0.429688
vt 0.765625 0.406250
vt 0.718750 0.382812
vt 0.765625 0.453125
vt 0.718750 0.476562
vt 0.671875 0.453125
vt 0.671875 0.406250
vt 0.617188 0.382812
vt 0.664062 0.382812
vt 0.651910 0.462500
vt 0.617188 0.462500
vt 0.671875 0.406250
vt 0.671875 0.453125
vt 0.751563 0.447049
vt 0.751563 0.412326
vt 0.570312 0.382812
vt 0.582465 0.462500
vt 0.644965 0.476562
vt 0.617188 0.476562
vt 0.765625 0.443576
vt 0.765625 0.415799
vt 0.589410 0.476562
vn 0.000000 0.000000 1.000000
vn 0.000000 0.000000 -1.000000
vn -0.000000 0.999201 0.039968
vn 0.000000 -0.999201 0.039968
vn -0.977323 0.000000 0.211753
vn 0.977323 0.000000 0.211753
vn 0.000000 0.000000 -1.000000
vn 0.706277 -0.706277 0.048430
vn 0.706277 0.706277 0.048430
vn -0.706277 0.706277 0.048430
vn -0.706277 -0.706277 0.048430
vn 0.000000 0.000000 -1.000000
vn 0.706277 -0.706277 0.048430
vn 0.706277 0.706277 0.048430
vn -0.706277 0.706277 0.048430
vn -0.706277 -0.706277 0.048430
vn 0.000000 0.000000 -1.000000
vn 0.499870 -0.865800 0.022816
vn 0.999740 -0.000000 0.022816
vn 0.499870 0.865800 0.022816
vn -0.499870 0.865800 0.022816
vn -0.999740 0.000000 0.022816
vn -0.499870 -0.865800 0.022816
vn 0.498640 -0.863670 0.073700
vn 0.997280 -0.000000 0.073700
vn 0.498640 0.863670 0.073700
vn -0.498640 0.863670 0.073700
vn -0.997280 0.000000 0.073700
vn -0.498640 -0.863670 0.073700
vn 0.000000 0.000000 -1.000000
vn 0.499870 -0.865800 0.022816
vn 0.999740 -0.000000 0.022816
vn 0.499870 0.865800 0.022816
vn -0.499870 0.865800 0.022816
vn -0.999740 0.000000 0.022816
vn -0.499870 -0.865800 0.022816
vn 0.498640 -0.863670 0.073700
vn 0.997280 -0.000000 0.073700
vn 0.498640 0.863670 0.073700
vn -0.498640 0.863670 0.073700
vn -0.997280 0.000000 0.073700
vn -0.498640 -0.863670 0.073700
vn 0.000000 0.000000 1.000000
vn 0.000000 0.000000 -1.000000
vn -0.000000 1.000000 0.000000
vn 0.000000 -1.000000 0.000000
vn -1.000000 0.000000 0.000000
vn 1.000000 0.000000 0.000000
vn 0.000000 0.000000 1.000000
vn 0.000000 0.000000 -1.000000
vn -0.000000 0.999800 0.019996
vn 0.000000 -0.999800 0.019996
vn -0.993812 0.000000 0.111073
vn 0.993812 0.000000 0.111073
vn 0.000000 0.000000 -1.000000
vn 0.382683 -0.923880 0.000000
vn 0.923880 -0.382683 0.000000
vn 0.923880 0.382683 0.000000
vn 0.382683 0.923880 0.000000
vn -0.382683 0.923880 0.000000
vn -0.923880 0.382683 0.000000
vn -0.923880 -0.382683 0.000000
vn -0.382683 -0.923880 0.000000
vn 0.000000 0.000000 1.000000
vn 0.000000 0.000000 -1.000000
vn 0.382683 -0.923880 0.000000
vn 0.923880 -0.382683 0.000000
vn 0.923880 0.382683 0.000000
vn 0.382683 0.923880 0.000000
vn -0.382683 0.923880 0.000000
vn -0.923880 0.382683 0.000000
vn -0.923880 -0.382683 0.000000
vn -0.382683 -0.923880 0.000000
vn 0.000000 0.000000 1.000000
vn 0.000000 0.000000 -1.000000
vn 0.382683 -0.923880 0.000000
vn 0.923880 -0.382683 0.000000
vn 0.923880 0.382683 0.000000
vn 0.382683 0.923880 0.000000
vn -0.382683 0.923880 0.000000
vn -0.923880 0.382683 0.000000
vn -0.923880 -0.382683 0.000000
vn -0.382683 -0.923880 0.000000
vn 0.000000 0.000000 1.000000
vn 0.303632 0.185880 0.934482
vn 0.794918 0.185880 0.577542
vn 0.982572 0.185880 0.000000
vn 0.794918 0.185880 -0.577542
vn 0.303632 0.185880 -0.934482
vn -0.303632 0.185880 -0.934482
vn -0.794918 0.185880 -0.577542
vn -0.982572 0.185880 -0.000000
vn -0.794918 0.185880 0.577542
vn -0.303632 0.185880 0.934482
vn 0.260811 0.536342 0.802692
vn 0.682811 0.536342 0.496091
vn 0.844001 0.536342 0.000000
vn 0.682811 0.536342 -0.496091
vn 0.260811 0.536342 -0.802692
vn -0.260811 0.536342 -0.802692
vn -0.682811 0.536342 -0.496091
vn -0.844001 0.536342 -0.000000
vn -0.682811 0.536342 0.496091
vn -0.260811 0.536342 0.802692
vn 0.177645 0.818245 0.546734
vn 0.465079 0.818245 0.337900
vn 0.574870 0.818245 0.000000
vn 0.465079 0.818245 -0.337900
vn 0.177645 0.818245 -0.546734
vn -0.177645 0.818245 -0.546734
vn -0.465079 0.818245 -0.337900
vn -0.574870 0.818245 0.000000
vn -0.465079 0.818245 0.337900
vn -0.177645 0.818245 0.546734
vn 0.063262 0.978821 0.194700
vn 0.165621 0.978821 0.120331
vn 0.204719 0.978821 0.000000
vn 0.165621 0.978821 -0.120331
vn 0.063262 0.978821 -0.194700
vn -0.063262 0.978821 -0.194700
vn -0.165621 0.978821 -0.120331
vn -0.204719 0.978821 -0.000000
vn -0.165621 0.978821 0.120331
vn -0.063262 0.978821 0.194700
vn 1.000000 0.000000 0.000000
vn -1.000000 0.000000 0.000000
vn 0.000000 1.000000 0.000000
vn 0.000000 -1.000000 0.000000
vn 0.000000 0.000000 1.000000
vn 0.000000 0.000000 -1.000000
vn 1.000000 0.000000 0.000000
vn -1.000000 0.000000 0.000000
vn 0.000000 1.000000 0.000000
vn 0.000000 -1.000000 0.000000
vn 0.000000 0.000000 1.000000
vn 0.000000 0.000000 -1.000000
vn 1.000000 0.000000 0.000000
vn -1.000000 0.000000 0.000000
vn 0.000000 1.000000 0.000000
vn 0.000000 -1.000000 0.000000
vn 0.000000 0.000000 1.000000
vn 0.000000 0.000000 -1.000000
vn 1.000000 0.000000 0.000000
vn -1.000000 0.000000 0.000000
vn 0.000000 1.000000 0.000000
vn 0.000000 -1.000000 0.000000
vn 0.000000 0.000000 1.000000
vn 0.000000 0.000000 -1.000000
vn -1.000000 0.000000 0.000000
vn 1.000000 0.000000 0.000000
vn 0.000000 1.000000 0.000000
vn 0.000000 -1.000000 0.000000
vn 0.000000 0.000000 -1.000000
vn 0.000000 0.000000 1.000000
vn -1.000000 0.000000 0.000000
vn 1.000000 0.000000 0.000000
vn 0.000000 1.000000 0.000000
vn 0.000000 -1.000000 0.000000
vn 0.000000 0.000000 -1.000000
vn 0.000000 0.000000 1.000000
vn -1.000000 0.000000 0.000000
vn 1.000000 0.000000 0.000000
vn 0.000000 1.000000 0.000000
vn 0.000000 -1.000000 0.000000
vn 0.000000 0.000000 -1.000000
vn 0.000000 0.000000 1.000000
vn -1.000000 0.000000 0.000000
vn 1.000000 0.000000 0.000000
vn 0.000000 1.000000 0.000000
vn 0.000000 -1.000000 0.000000
vn 0.000000 0.000000 -1.000000
vn 0.000000 0.000000 1.000000
vn -0.000000 1.000000 0.000000
vn 0.000000 -1.000000 0.000000
vn 1.000000 0.000000 0.000000
vn -0.109925 0.000000 -0.993940
vn -0.995037 0.000000 -0.099504
vn -0.199141 0.000000 0.979971
vn 0.000000 1.000000 0.000000
vn -0.000000 -1.000000 0.000000
vn -1.000000 0.000000 -0.000000
vn 0.109925 0.000000 -0.993940
vn 0.995037 0.000000 -0.099504
vn 0.199141 0.000000 0.979971
vn 0.000000 0.000000 1.000000
vn 0.000000 0.000000 -1.000000
vn -0.000000 1.000000 0.000000
vn 0.000000 -1.000000 0.000000
vn -1.000000 0.000000 0.000000
vn 1.000000 0.000000 0.000000
vn 0.000000 0.000000 1.000000
vn 0.000000 0.000000 -1.000000
vn -0.000000 1.000000 0.000000
vn 0.000000 -1.000000 0.000000
vn -1.000000 0.000000 0.000000
vn 1.000000 0.000000 0.000000
vn 0.000000 0.000000 1.000000
vn 0.000000 0.000000 -1.000000
vn 0.000000 0.999920 -0.012628
vn 0.000000 -0.999920 -0.012628
vn -0.999875 0.000000 -0.015784
vn 0.999875 0.000000 -0.015784
vn -0.000000 1.000000 0.000000
vn 0.000000 -1.000000 0.000000
vn -1.000000 0.000000 0.000000
vn 1.000000 0.000000 0.000000
vn 0.000000 0.000000 1.000000
vn 0.000000 0.000000 -1.000000
vn 0.000000 0.999920 -0.012628
vn 0.000000 -0.999920 -0.012628
vn -0.999875 0.000000 -0.015784
vn 0.999875 0.000000 -0.015784
vn -0.000000 1.000000 0.000000
vn 0.000000 -1.000000 0.000000
vn -1.000000 0.000000 0.000000
vn 1.000000 0.000000 0.000000
vn 0.299447 -0.921602 0.246943
vn 0.783962 -0.569582 0.246943
vn 0.969030 -0.000000 0.246943
vn 0.783962 0.569582 0.246943
vn 0.299447 0.921602 0.246943
vn -0.299447 0.921602 0.246943
vn -0.783962 0.569582 0.246943
vn -0.969030 0.000000 0.246943
vn -0.783962 -0.569582 0.246943
vn -0.299447 -0.921602 0.246943
vn 0.223919 -0.689152 0.689152
vn 0.586227 -0.425919 0.689152
vn 0.724617 -0.000000 0.689152
vn 0.586227 0.425919 0.689152
vn 0.223919 0.689152 0.689152
vn -0.223919 0.689152 0.689152
vn -0.586227 0.425919 0.689152
vn -0.724617 0.000000 0.689152
vn -0.586227 -0.425919 0.689152
vn -0.223919 -0.689152 0.689152
vn 0.083800 -0.257909 0.962528
vn 0.219390 -0.159396 0.962528
vn 0.271181 -0.000000 0.962528
vn 0.219390 0.159396 0.962528
vn 0.083800 0.257909 0.962528
vn -0.083800 0.257909 0.962528
vn -0.219390 0.159396 0.962528
vn -0.271181 0.000000 0.962528
vn -0.219390 -0.159396 0.962528
vn -0.083800 -0.257909 0.962528
vn 0.000000 0.000000 -1.000000
vn 0.499959 -0.865954 0.012836
vn 0.999918 -0.000000 0.012836
vn 0.499959 0.865954 0.012836
vn -0.499959 0.865954 0.012836
vn -0.999918 0.000000 0.012836
vn -0.499959 -0.865954 0.012836
vn 0.499569 -0.865278 0.041533
vn 0.999137 -0.000000 0.041533
vn 0.499569 0.865278 0.041533
vn -0.499569 0.865278 0.041533
vn -0.999137 0.000000 0.041533
vn -0.499569 -0.865278 0.041533
vn 0.299447 -0.921602 0.246943
vn 0.783962 -0.569582 0.246943
vn 0.969030 -0.000000 0.246943
vn 0.783962 0.569582 0.246943
vn 0.299447 0.921602 0.246943
vn -0.299447 0.921602 0.246943
vn -0.783962 0.569582 0.246943
vn -0.969030 0.000000 0.246943
vn -0.783962 -0.569582 0.246943
vn -0.299447 -0.921602 0.246943
vn 0.223919 -0.689152 0.689152
vn 0.586227 -0.425919 0.689152
vn 0.724617 -0.000000 0.689152
vn 0.586227 0.425919 0.689152
vn 0.223919 0.689152 0.689152
vn -0.223919 0.689152 0.689152
vn -0.586227 0.425919 0.689152
vn -0.724617 0.000000 0.689152
vn -0.586227 -0.425919 0.689152
vn -0.223919 -0.689152 0.689152
vn 0.083800 -0.257909 0.962528
vn 0.219390 -0.159396 0.962528
vn 0.271181 -0.000000 0.962528
vn 0.219390 0.159396 0.962528
vn 0.083800 0.257909 0.962528
vn -0.083800 0.257909 0.962528
vn -0.219390 0.159396 0.962528
vn -0.271181 0.000000 0.962528
vn -0.219390 -0.159396 0.962528
vn -0.083800 -0.257909 0.962528
vn 0.000000 0.000000 -1.000000
vn 0.499959 -0.865954 0.012836
vn 0.999918 -0.000000 0.012836
vn 0.499959 0.865954 0.012836
vn -0.499959 0.865954 0.012836
vn -0.999918 0.000000 0.012836
vn -0.499959 -0.865954 0.012836
vn 0.499569 -0.865278 0.041533
vn 0.999137 -0.000000 0.041533
vn 0.499569 0.865278 0.041533
vn -0.499569 0.865278 0.041533
vn -0.999137 0.000000 0.041533
vn -0.499569 -0.865278 0.041533
f 1/1/1 2/2/1 3/3/1
f 1/1/1 3/3/1 4/4/1
f 5/5/2 6/6/2 7/7/2
f 5/5/2 7/7/2 8/8/2
f 4/9/3 3/10/3 8/11/3
f 4/9/3 8/11/3 7/12/3
f 6/12/4 5/11/4 2/10/4
f 6/12/4 2/10/4 1/9/4
f 6/13/5 1/14/5 4/15/5
f 6/13/5 4/15/5 7/16/5
f 2/14/6 5/13/6 8/16/6
f 2/14/6 8/16/6 3/15/6
f 9/17/7 10/18/7 11/19/7
f 9/17/7 12/20/7 10/18/7
f 9/17/7 13/21/7 12/20/7
f 9/17/7 11/19/7 13/21/7
f 11/22/8 10/23/8 14/24/8
f 10/25/9 12/26/9 14/27/9
f 12/22/10 13/28/10 14/24/10
f 13/25/11 11/29/11 14/27/11
f 15/30/12 16/31/12 17/32/12
f 15/30/12 18/33/12 16/31/12
f 15/30/12 19/34/12 18/33/12
f 15/30/12 17/32/12 19/34/12
f 17/35/13 16/36/13 20/37/13
f 16/38/14 18/39/14 20/40/14
f 18/35/15 19/41/15 20/37/15
f 19/38/16 17/42/16 20/40/16
f 21/43/17 22/44/17 23/45/17
f 21/43/17 24/46/17 22/44/17
f 21/43/17 25/47/17 24/46/17
f 21/43/17 26/48/17 25/47/17
f 21/43/17 27/49/17 26/48/17
f 21/43/17 23/45/17 27/49/17
f 23/50/18 22/51/18 28/52/18
f 23/50/18 28/52/18 29/53/18
f 22/54/19 24/55/19 30/56/19
f 22/54/19 30/56/19 28/57/19
f 24/51/20 25/50/20 31/53/20
f 24/51/20 31/53/20 30/52/20
f 25/50/21 26/58/21 32/59/21
f 25/50/21 32/59/21 31/53/21
f 26/55/22 27/54/22 33/57/22
f 26/55/22 33/57/22 32/56/22
f 27/58/23 23/50/23 29/53/23
f 27/58/23 29/53/23 33/59/23
f 29/53/24 28/52/24 34/60/24
f 29/53/24 34/60/24 35/61/24
f 28/57/25 30/56/25 36/62/25
f 28/57/25 36/62/25 34/63/25
f 30/52/26 31/53/26 37/61/26
f 30/52/26 37/61/26 36/60/26
f 31/53/27 32/59/27 38/64/27
f 31/53/27 38/64/27 37/61/27
f 32/56/28 33/57/28 39/63/28
f 32/56/28 39/63/28 38/62/28
f 33/59/29 29/53/29 35/61/29
f 33/59/29 35/61/29 39/64/29
f 40/65/30 41/66/30 42/67/30
f 40/65/30 43/68/30 41/66/30
f 40/65/30 44/69/30 43/68/30
f 40/65/30 45/70/30 44/69/30
f 40/65/30 46/71/30 45/70/30
f 40/65/30 42/67/30 46/71/30
f 42/72/31 41/73/31 47/74/31
f 42/72/31 47/74/31 48/75/31
f 41/76/32 43/77/32 49/78/32
f 41/76/32 49/78/32 47/79/32
f 43/73/33 44/72/33 50/75/33
f 43/73/33 50/75/33 49/74/33
f 44/72/34 45/80/34 51/81/34
f 44/72/34 51/81/34 50/75/34
f 45/77/35 46/76/35 52/79/35
f 45/77/35 52/79/35 51/78/35
f 46/80/36 42/72/36 48/75/36
f 46/80/36 48/75/36 52/81/36
f 48/75/37 47/74/37 53/82/37
f 48/75/37 53/82/37 54/83/37
f 47/79/38 49/78/38 55/84/38
f 47/79/38 55/84/38 53/85/38
f 49/74/39 50/75/39 56/83/39
f 49/74/39 56/83/39 55/82/39
f 50/75/40 51/81/40 57/86/40
f 50/75/40 57/86/40 56/83/40
f 51/78/41 52/79/41 58/85/41
f 51/78/41 58/85/41 57/84/41
f 52/81/42 48/75/42 54/83/42
f 52/81/42 54/83/42 58/86/42
f 59/87/43 60/88/43 61/89/43
f 59/87/43 61/89/43 62/90/43
f 63/91/44 64/92/44 65/93/44
f 63/91/44 65/93/44 66/94/44
f 62/95/45 61/96/45 66/97/45
f 62/95/45 66/97/45 65/98/45
f 64/98/46 63/97/46 60/96/46
f 64/98/46 60/96/46 59/95/46
f 64/99/47 59/100/47 62/101/47
f 64/99/47 62/101/47 65/102/47
f 60/100/48 63/99/48 66/102/48
f 60/100/48 66/102/48 61/101/48
f 67/103/49 68/104/49 69/105/49
f 67/103/49 69/105/49 70/106/49
f 71/107/50 72/108/50 73/109/50
f 71/107/50 73/109/50 74/110/50
f 70/111/51 69/112/51 74/113/51
f 70/111/51 74/113/51 73/114/51
f 72/114/52 71/113/52 68/112/52
f 72/114/52 68/112/52 67/111/52
f 72/115/53 67/116/53 70/117/53
f 72/115/53 70/117/53 73/118/53
f 68/116/54 71/115/54 74/118/54
f 68/116/54 74/118/54 69/117/54
f 75/119/55 76/120/55 77/121/55
f 75/119/55 78/122/55 76/120/55
f 75/119/55 79/123/55 78/122/55
f 75/119/55 80/124/55 79/123/55
f 75/119/55 81/125/55 80/124/55
f 75/119/55 82/126/55 81/125/55
f 75/119/55 83/127/55 82/126/55
f 75/119/55 77/121/55 83/127/55
f 77/128/56 76/129/56 84/130/56
f 77/128/56 84/130/56 85/131/56
f 76/132/57 78/133/57 86/134/57
f 76/132/57 86/134/57 84/135/57
f 78/133/58 79/136/58 87/137/58
f 78/133/58 87/137/58 86/134/58
f 79/129/59 80/128/59 88/131/59
f 79/129/59 88/131/59 87/130/59
f 80/128/60 81/138/60 89/139/60
f 80/128/60 89/139/60 88/131/60
f 81/136/61 82/133/61 90/134/61
f 81/136/61 90/134/61 89/137/61
f 82/133/62 83/132/62 91/135/62
f 82/133/62 91/135/62 90/134/62
f 83/138/63 77/128/63 85/131/63
f 83/138/63 85/131/63 91/139/63
f 85/140/64 84/141/64 92/142/64
f 84/141/64 86/143/64 92/142/64
f 86/143/64 87/144/64 92/142/64
f 87/144/64 88/145/64 92/142/64
f 88/145/64 89/146/64 92/142/64
f 89/146/64 90/147/64 92/142/64
f 90/147/64 91/148/64 92/142/64
f 91/148/64 85/140/64 92/142/64
f 93/149/65 94/150/65 95/151/65
f 93/149/65 96/152/65 94/150/65
f 93/149/65 97/153/65 96/152/65
f 93/149/65 98/154/65 97/153/65
f 93/149/65 99/155/65 98/154/65
f 93/149/65 100/156/65 99/155/65
f 93/149/65 101/157/65 100/156/65
f 93/149/65 95/151/65 101/157/65
f 95/158/66 94/159/66 102/160/66
f 95/158/66 102/160/66 103/161/66
f 94/162/67 96/163/67 104/164/67
f 94/162/67 104/164/67 102/165/67
f 96/163/68 97/166/68 105/167/68
f 96/163/68 105/167/68 104/164/68
f 97/159/69 98/158/69 106/161/69
f 97/159/69 106/161/69 105/160/69
f 98/158/70 99/168/70 107/169/70
f 98/158/70 107/169/70 106/161/70
f 99/166/71 100/163/71 108/164/71
f 99/166/71 108/164/71 107/167/71
f 100/163/72 101/162/72 109/165/72
f 100/163/72 109/165/72 108/164/72
f 101/168/73 95/158/73 103/161/73
f 101/168/73 103/161/73 109/169/73
f 103/170/74 102/171/74 110/172/74
f 102/171/74 104/173/74 110/172/74
f 104/173/74 105/174/74 110/172/74
f 105/174/74 106/175/74 110/172/74
f 106/175/74 107/176/74 110/172/74
f 107/176/74 108/177/74 110/172/74
f 108/177/74 109/178/74 110/172/74
f 109/178/74 103/170/74 110/172/74
f 111/179/75 112/180/75 113/181/75
f 111/179/75 114/182/75 112/180/75
f 111/179/75 115/183/75 114/182/75
f 111/179/75 116/184/75 115/183/75
f 111/179/75 117/185/75 116/184/75
f 111/179/75 118/186/75 117/185/75
f 111/179/75 119/187/75 118/186/75
f 111/179/75 113/181/75 119/187/75
f 113/188/76 112/189/76 120/190/76
f 113/188/76 120/190/76 121/191/76
f 112/192/77 114/193/77 122/194/77
f 112/192/77 122/194/77 120/195/77
f 114/193/78 115/196/78 123/197/78
f 114/193/78 123/197/78 122/194/78
f 115/189/79 116/188/79 124/191/79
f 115/189/79 124/191/79 123/190/79
f 116/188/80 117/198/80 125/199/80
f 116/188/80 125/199/80 124/191/80
f 117/196/81 118/193/81 126/194/81
f 117/196/81 126/194/81 125/197/81
f 118/193/82 119/192/82 127/195/82
f 118/193/82 127/195/82 126/194/82
f 119/198/83 113/188/83 121/191/83
f 119/198/83 121/191/83 127/199/83
f 121/200/84 120/201/84 128/202/84
f 120/201/84 122/203/84 128/202/84
f 122/203/84 123/204/84 128/202/84
f 123/204/84 124/205/84 128/202/84
f 124/205/84 125/206/84 128/202/84
f 125/206/84 126/207/84 128/202/84
f 126/207/84 127/208/84 128/202/84
f 127/208/84 121/200/84 128/202/84
f 129/209/85 130/210/85 131/211/85
f 129/209/85 131/211/85 132/212/85
f 130/213/86 133/214/86 134/215/86
f 130/213/86 134/215/86 131/216/86
f 133/214/87 135/217/87 136/218/87
f 133/214/87 136/218/87 134/215/87
f 135/217/88 137/219/88 138/220/88
f 135/217/88 138/220/88 136/218/88
f 137/221/89 139/222/89 140/223/89
f 137/221/89 140/223/89 138/224/89
f 139/222/90 141/225/90 142/226/90
f 139/222/90 142/226/90 140/223/90
f 141/219/91 143/217/91 144/218/91
f 141/219/91 144/218/91 142/220/91
f 143/217/92 145/214/92 146/215/92
f 143/217/92 146/215/92 144/218/92
f 145/214/93 147/213/93 148/216/93
f 145/214/93 148/216/93 146/215/93
f 147/227/94 129/209/94 132/212/94
f 147/227/94 132/212/94 148/228/94
f 132/212/95 131/211/95 149/229/95
f 132/212/95 149/229/95 150/230/95
f 131/216/96 134/215/96 151/231/96
f 131/216/96 151/231/96 149/232/96
f 134/215/97 136/218/97 152/233/97
f 134/215/97 152/233/97 151/231/97
f 136/218/98 138/220/98 153/234/98
f 136/218/98 153/234/98 152/233/98
f 138/224/99 140/223/99 154/235/99
f 138/224/99 154/235/99 153/236/99
f 140/223/100 142/226/100 155/237/100
f 140/223/100 155/237/100 154/235/100
f 142/220/101 144/218/101 156/233/101
f 142/220/101 156/233/101 155/234/101
f 144/218/102 146/215/102 157/231/102
f 144/218/102 157/231/102 156/233/102
f 146/215/103 148/216/103 158/232/103
f 146/215/103 158/232/103 157/231/103
f 148/228/104 132/212/104 150/230/104
f 148/228/104 150/230/104 158/238/104
f 150/239/105 149/240/105 159/241/105
f 150/239/105 159/241/105 160/242/105
f 149/240/106 151/243/106 161/244/106
f 149/240/106 161/244/106 159/241/106
f 151/243/107 152/245/107 162/246/107
f 151/243/107 162/246/107 161/244/107
f 152/245/108 153/247/108 163/248/108
f 152/245/108 163/248/108 162/246/108
f 153/247/109 154/249/109 164/250/109
f 153/247/109 164/250/109 163/248/109
f 154/249/110 155/251/110 165/252/110
f 154/249/110 165/252/110 164/250/110
f 155/251/111 156/253/111 166/254/111
f 155/251/111 166/254/111 165/252/111
f 156/253/112 157/255/112 167/256/112
f 156/253/112 167/256/112 166/254/112
f 157/255/113 158/257/113 168/258/113
f 157/255/113 168/258/113 167/256/113
f 158/257/114 150/239/114 160/242/114
f 158/257/114 160/242/114 168/258/114
f 160/242/115 159/241/115 169/259/115
f 159/241/116 161/244/116 169/259/116
f 161/244/117 162/246/117 169/259/117
f 162/246/118 163/248/118 169/259/118
f 163/248/119 164/250/119 169/259/119
f 164/250/120 165/252/120 169/259/120
f 165/252/121 166/254/121 169/259/121
f 166/254/122 167/256/122 169/259/122
f 167/256/123 168/258/123 169/259/123
f 168/258/124 160/242/124 169/259/124
f 170/260/125 171/261/125 172/262/125
f 170/260/125 172/262/125 173/263/125
f 174/261/126 175/260/126 176/263/126
f 174/261/126 176/263/126 177/262/126
f 173/264/127 172/265/127 177/266/127
f 173/264/127 177/266/127 176/267/127
f 175/267/128 174/266/128 171/265/128
f 175/267/128 171/265/128 170/264/128
f 175/268/129 170/269/129 173/270/129
f 175/268/129 173/270/129 176/271/129
f 171/272/130 174/273/130 177/274/130
f 171/272/130 177/274/130 172/275/130
f 178/276/131 179/277/131 180/278/131
f 178/276/131 180/278/131 181/279/131
f 182/277/132 183/276/132 184/279/132
f 182/277/132 184/279/132 185/278/132
f 181/280/133 180/281/133 185/282/133
f 181/280/133 185/282/133 184/283/133
f 183/283/134 182/282/134 179/281/134
f 183/283/134 179/281/134 178/280/134
f 183/284/135 178/285/135 181/286/135
f 183/284/135 181/286/135 184/287/135
f 179/288/136 182/289/136 185/290/136
f 179/288/136 185/290/136 180/291/136
f 186/292/137 187/293/137 188/294/137
f 186/292/137 188/294/137 189/295/137
f 190/293/138 191/292/138 192/295/138
f 190/293/138 192/295/138 193/294/138
f 189/296/139 188/297/139 193/298/139
f 189/296/139 193/298/139 192/299/139
f 191/299/140 190/298/140 187/297/140
f 191/299/140 187/297/140 186/296/140
f 191/300/141 186/301/141 189/302/141
f 191/300/141 189/302/141 192/303/141
f 187/304/142 190/305/142 193/306/142
f 187/304/142 193/306/142 188/307/142
f 194/308/143 195/309/143 196/310/143
f 194/308/143 196/310/143 197/311/143
f 198/309/144 199/308/144 200/311/144
f 198/309/144 200/311/144 201/310/144
f 197/312/145 196/313/145 201/314/145
f 197/312/145 201/314/145 200/315/145
f 199/315/146 198/314/146 195/313/146
f 199/315/146 195/313/146 194/312/146
f 199/316/147 194/317/147 197/318/147
f 199/316/147 197/318/147 200/319/147
f 195/320/148 198/321/148 201/322/148
f 195/320/148 201/322/148 196/323/148
f 202/324/149 203/325/149 204/326/149
f 202/324/149 204/326/149 205/327/149
f 206/325/150 207/324/150 208/327/150
f 206/325/150 208/327/150 209/326/150
f 205/328/151 204/329/151 209/330/151
f 205/328/151 209/330/151 208/331/151
f 207/331/152 206/330/152 203/329/152
f 207/331/152 203/329/152 202/328/152
f 207/332/153 202/333/153 205/334/153
f 207/332/153 205/334/153 208/335/153
f 203/336/154 206/337/154 209/338/154
f 203/336/154 209/338/154 204/339/154
f 210/340/155 211/341/155 212/342/155
f 210/340/155 212/342/155 213/343/155
f 214/341/156 215/340/156 216/343/156
f 214/341/156 216/343/156 217/342/156
f 213/344/157 212/345/157 217/346/157
f 213/344/157 217/346/157 216/347/157
f 215/347/158 214/346/158 211/345/158
f 215/347/158 211/345/158 210/344/158
f 215/348/159 210/349/159 213/350/159
f 215/348/159 213/350/159 216/351/159
f 211/352/160 214/353/160 217/354/160
f 211/352/160 217/354/160 212/355/160
f 218/356/161 219/357/161 220/358/161
f 218/356/161 220/358/161 221/359/161
f 222/357/162 223/356/162 224/359/162
f 222/357/162 224/359/162 225/358/162
f 221/360/163 220/361/163 225/362/163
f 221/360/163 225/362/163 224/363/163
f 223/363/164 222/362/164 219/361/164
f 223/363/164 219/361/164 218/360/164
f 223/364/165 218/365/165 221/366/165
f 223/364/165 221/366/165 224/367/165
f 219/368/166 222/369/166 225/370/166
f 219/368/166 225/370/166 220/371/166
f 226/372/167 227/373/167 228/374/167
f 226/372/167 228/374/167 229/375/167
f 230/373/168 231/372/168 232/375/168
f 230/373/168 232/375/168 233/374/168
f 229/376/169 228/377/169 233/378/169
f 229/376/169 233/378/169 232/379/169
f 231/379/170 230/378/170 227/377/170
f 231/379/170 227/377/170 226/376/170
f 231/380/171 226/381/171 229/382/171
f 231/380/171 229/382/171 232/383/171
f 227/384/172 230/385/172 233/386/172
f 227/384/172 233/386/172 228/387/172
f 234/388/173 235/389/173 236/390/173
f 237/388/174 238/390/174 239/389/174
f 236/390/173 240/391/173 234/388/173
f 238/390/174 237/388/174 241/391/174
f 235/392/175 238/393/175 236/394/175
f 235/392/175 239/395/175 238/393/175
f 236/396/176 241/397/176 240/398/176
f 236/396/176 238/399/176 241/397/176
f 240/400/177 237/401/177 234/402/177
f 240/400/177 241/403/177 237/401/177
f 234/404/178 239/405/178 235/406/178
f 234/404/178 237/407/178 239/405/178
f 242/408/179 243/409/179 244/410/179
f 245/408/180 246/410/180 247/409/180
f 243/409/179 242/408/179 248/411/179
f 247/409/180 249/411/180 245/408/180
f 244/412/181 243/413/181 247/414/181
f 244/412/181 247/414/181 246/415/181
f 243/416/182 248/417/182 249/418/182
f 243/416/182 249/418/182 247/419/182
f 248/420/183 242/421/183 245/422/183
f 248/420/183 245/422/183 249/423/183
f 242/424/184 244/425/184 246/426/184
f 242/424/184 246/426/184 245/427/184
f 250/428/185 251/429/185 252/430/185
f 250/428/185 252/430/185 253/431/185
f 254/432/186 255/433/186 256/434/186
f 254/432/186 256/434/186 257/435/186
f 253/436/187 252/437/187 257/438/187
f 253/436/187 257/438/187 256/439/187
f 255/439/188 254/438/188 251/437/188
f 255/439/188 251/437/188 250/436/188
f 255/440/189 250/441/189 253/442/189
f 255/440/189 253/442/189 256/443/189
f 251/441/190 254/440/190 257/443/190
f 251/441/190 257/443/190 252/442/190
f 258/444/185 259/445/185 260/446/185
f 258/444/185 260/446/185 261/447/185
f 262/448/186 263/449/186 264/450/186
f 262/448/186 264/450/186 265/451/186
f 261/452/187 260/453/187 265/454/187
f 261/452/187 265/454/187 264/455/187
f 263/455/188 262/454/188 259/453/188
f 263/455/188 259/453/188 258/452/188
f 263/456/189 258/457/189 261/458/189
f 263/456/189 261/458/189 264/459/189
f 259/457/190 262/456/190 265/459/190
f 259/457/190 265/459/190 260/458/190
f 266/460/185 267/461/185 268/462/185
f 266/460/185 268/462/185 269/463/185
f 270/464/186 271/465/186 272/466/186
f 270/464/186 272/466/186 273/467/186
f 269/468/187 268/469/187 273/470/187
f 269/468/187 273/470/187 272/471/187
f 271/471/188 270/470/188 267/469/188
f 271/471/188 267/469/188 266/468/188
f 271/472/189 266/473/189 269/474/189
f 271/472/189 269/474/189 272/475/189
f 267/473/190 270/472/190 273/475/190
f 267/473/190 273/475/190 268/474/190
f 274/476/191 275/477/191 276/478/191
f 274/476/191 276/478/191 277/479/191
f 278/480/192 279/481/192 280/482/192
f 278/480/192 280/482/192 281/483/192
f 277/484/193 276/485/193 281/486/193
f 277/484/193 281/486/193 280/487/193
f 279/487/194 278/486/194 275/485/194
f 279/487/194 275/485/194 274/484/194
f 279/488/195 274/489/195 277/490/195
f 279/488/195 277/490/195 280/491/195
f 275/489/196 278/488/196 281/491/196
f 275/489/196 281/491/196 276/490/196
f 282/492/191 283/493/191 284/494/191
f 282/492/191 284/494/191 285/495/191
f 286/496/192 287/497/192 288/498/192
f 286/496/192 288/498/192 289/499/192
f 285/500/193 284/501/193 289/502/193
f 285/500/193 289/502/193 288/503/193
f 287/503/194 286/502/194 283/501/194
f 287/503/194 283/501/194 282/500/194
f 287/504/195 282/505/195 285/506/195
f 287/504/195 285/506/195 288/507/195
f 283/505/196 286/504/196 289/507/196
f 283/505/196 289/507/196 284/506/196
f 290/508/191 291/509/191 292/510/191
f 290/508/191 292/510/191 293/511/191
f 294/512/192 295/513/192 296/514/192
f 294/512/192 296/514/192 297/515/192
f 293/516/193 292/517/193 297/518/193
f 293/516/193 297/518/193 296/519/193
f 295/519/194 294/518/194 291/517/194
f 295/519/194 291/517/194 290/516/194
f 295/520/195 290/521/195 293/522/195
f 295/520/195 293/522/195 296/523/195
f 291/521/196 294/520/196 297/523/196
f 291/521/196 297/523/196 292/522/196
f 298/524/197 299/525/197 300/526/197
f 298/524/197 300/526/197 301/527/197
f 302/528/198 303/529/198 304/530/198
f 302/528/198 304/530/198 305/531/198
f 301/532/199 300/533/199 305/534/199
f 301/532/199 305/534/199 304/535/199
f 303/535/200 302/534/200 299/533/200
f 303/535/200 299/533/200 298/532/200
f 303/536/201 298/537/201 301/538/201
f 303/536/201 301/538/201 304/539/201
f 299/540/202 302/541/202 305/542/202
f 299/540/202 305/542/202 300/543/202
f 306/544/197 307/545/197 308/546/197
f 306/544/197 308/546/197 309/547/197
f 310/548/198 311/549/198 312/550/198
f 310/548/198 312/550/198 313/551/198
f 309/552/203 308/553/203 313/554/203
f 309/552/203 313/554/203 312/555/203
f 311/555/204 310/554/204 307/553/204
f 311/555/204 307/553/204 306/552/204
f 311/556/205 306/557/205 309/558/205
f 311/556/205 309/558/205 312/559/205
f 307/560/206 310/560/206 313/561/206
f 307/560/206 313/561/206 308/561/206
f 314/562/197 315/563/197 316/564/197
f 314/562/197 316/564/197 317/565/197
f 318/566/198 319/567/198 320/568/198
f 318/566/198 320/568/198 321/569/198
f 317/570/203 316/571/203 321/572/203
f 317/570/203 321/572/203 320/573/203
f 319/573/204 318/572/204 315/571/204
f 319/573/204 315/571/204 314/570/204
f 319/574/205 314/575/205 317/576/205
f 319/574/205 317/576/205 320/577/205
f 315/578/206 318/578/206 321/579/206
f 315/578/206 321/579/206 316/579/206
f 322/580/207 323/581/207 324/582/207
f 322/580/207 324/582/207 325/583/207
f 326/584/208 327/585/208 328/586/208
f 326/584/208 328/586/208 329/587/208
f 325/588/209 324/589/209 329/590/209
f 325/588/209 329/590/209 328/591/209
f 327/591/210 326/590/210 323/589/210
f 327/591/210 323/589/210 322/588/210
f 327/592/211 322/593/211 325/594/211
f 327/592/211 325/594/211 328/595/211
f 323/596/212 326/597/212 329/598/212
f 323/596/212 329/598/212 324/599/212
f 330/600/207 331/601/207 332/602/207
f 330/600/207 332/602/207 333/603/207
f 334/604/208 335/605/208 336/606/208
f 334/604/208 336/606/208 337/607/208
f 333/608/213 332/609/213 337/610/213
f 333/608/213 337/610/213 336/611/213
f 335/611/214 334/610/214 331/609/214
f 335/611/214 331/609/214 330/608/214
f 335/612/215 330/612/215 333/613/215
f 335/612/215 333/613/215 336/613/215
f 331/614/216 334/615/216 337/616/216
f 331/614/216 337/616/216 332/617/216
f 338/618/207 339/619/207 340/620/207
f 338/618/207 340/620/207 341/621/207
f 342/622/208 343/623/208 344/624/208
f 342/622/208 344/624/208 345/625/208
f 341/626/213 340/627/213 345/628/213
f 341/626/213 345/628/213 344/629/213
f 343/629/214 342/628/214 339/627/214
f 343/629/214 339/627/214 338/626/214
f 343/630/215 338/630/215 341/631/215
f 343/630/215 341/631/215 344/631/215
f 339/632/216 342/633/216 345/634/216
f 339/632/216 345/634/216 340/635/216
f 346/636/217 347/637/217 348/638/217
f 346/636/217 348/638/217 349/639/217
f 347/640/218 350/641/218 351/642/218
f 347/640/218 351/642/218 348/643/218
f 350/641/219 352/644/219 353/645/219
f 350/641/219 353/645/219 351/642/219
f 352/644/220 354/646/220 355/647/220
f 352/644/220 355/647/220 353/645/220
f 354/637/221 356/636/221 357/639/221
f 354/637/221 357/639/221 355/638/221
f 356/636/222 358/648/222 359/649/222
f 356/636/222 359/649/222 357/639/222
f 358/646/223 360/644/223 361/645/223
f 358/646/223 361/645/223 359/647/223
f 360/644/224 362/641/224 363/642/224
f 360/644/224 363/642/224 361/645/224
f 362/641/225 364/640/225 365/643/225
f 362/641/225 365/643/225 363/642/225
f 364/648/226 346/636/226 349/639/226
f 364/648/226 349/639/226 365/649/226
f 349/639/227 348/638/227 366/650/227
f 349/639/227 366/650/227 367/651/227
f 348/652/228 351/653/228 368/654/228
f 348/652/228 368/654/228 366/655/228
f 351/642/229 353/645/229 369/656/229
f 351/642/229 369/656/229 368/657/229
f 353/658/230 355/659/230 370/660/230
f 353/658/230 370/660/230 369/661/230
f 355/638/231 357/639/231 371/651/231
f 355/638/231 371/651/231 370/650/231
f 357/639/232 359/649/232 372/662/232
f 357/639/232 372/662/232 371/651/232
f 359/663/233 361/664/233 373/665/233
f 359/663/233 373/665/233 372/666/233
f 361/645/234 363/642/234 374/657/234
f 361/645/234 374/657/234 373/656/234
f 363/667/235 365/668/235 375/669/235
f 363/667/235 375/669/235 374/670/235
f 365/649/236 349/639/236 367/651/236
f 365/649/236 367/651/236 375/662/236
f 367/671/237 366/655/237 376/672/237
f 366/655/238 368/654/238 376/672/238
f 368/654/239 369/661/239 376/672/239
f 369/661/240 370/660/240 376/672/240
f 370/660/241 371/673/241 376/672/241
f 371/673/242 372/666/242 376/672/242
f 372/666/243 373/665/243 376/672/243
f 373/665/244 374/670/244 376/672/244
f 374/670/245 375/669/245 376/672/245
f 375/669/246 367/671/246 376/672/246
f 377/674/247 378/675/247 379/676/247
f 377/674/247 380/677/247 378/675/247
f 377/674/247 381/678/247 380/677/247
f 377/674/247 382/679/247 381/678/247
f 377/674/247 383/680/247 382/679/247
f 377/674/247 379/676/247 383/680/247
f 379/681/248 378/682/248 384/683/248
f 379/681/248 384/683/248 385/684/248
f 378/685/249 380/686/249 386/687/249
f 378/685/249 386/687/249 384/688/249
f 380/682/250 381/681/250 387/684/250
f 380/682/250 387/684/250 386/683/250
f 381/681/251 382/689/251 388/690/251
f 381/681/251 388/690/251 387/684/251
f 382/686/252 383/685/252 389/688/252
f 382/686/252 389/688/252 388/687/252
f 383/689/253 379/681/253 385/684/253
f 383/689/253 385/684/253 389/690/253
f 385/684/254 384/683/254 390/691/254
f 385/684/254 390/691/254 391/692/254
f 384/688/255 386/687/255 392/693/255
f 384/688/255 392/693/255 390/694/255
f 386/683/256 387/684/256 393/692/256
f 386/683/256 393/692/256 392/691/256
f 387/684/257 388/690/257 394/695/257
f 387/684/257 394/695/257 393/692/257
f 388/687/258 389/688/258 395/694/258
f 388/687/258 395/694/258 394/693/258
f 389/690/259 385/684/259 391/692/259
f 389/690/259 391/692/259 395/695/259
f 396/696/260 397/697/260 398/698/260
f 396/696/260 398/698/260 399/699/260
f 397/700/261 400/701/261 401/702/261
f 397/700/261 401/702/261 398/703/261
f 400/701/262 402/704/262 403/705/262
f 400/701/262 403/705/262 401/702/262
f 402/704/263 404/706/263 405/707/263
f 402/704/263 405/707/263 403/705/263
f 404/697/264 406/696/264 407/699/264
f 404/697/264 407/699/264 405/698/264
f 406/696/265 408/708/265 409/709/265
f 406/696/265 409/709/265 407/699/265
f 408/706/266 410/704/266 411/705/266
f 408/706/266 411/705/266 409/707/266
f 410/704/267 412/701/267 413/702/267
f 410/704/267 413/702/267 411/705/267
f 412/701/268 414/700/268 415/703/268
f 412/701/268 415/703/268 413/702/268
f 414/708/269 396/696/269 399/699/269
f 414/708/269 399/699/269 415/709/269
f 399/699/270 398/698/270 416/710/270
f 399/699/270 416/710/270 417/711/270
f 398/712/271 401/713/271 418/714/271
f 398/712/271 418/714/271 416/715/271
f 401/702/272 403/705/272 419/716/272
f 401/702/272 419/716/272 418/717/272
f 403/718/273 405/719/273 420/720/273
f 403/718/273 420/720/273 419/721/273
f 405/698/274 407/699/274 421/711/274
f 405/698/274 421/711/274 420/710/274
f 407/699/275 409/709/275 422/722/275
f 407/699/275 422/722/275 421/711/275
f 409/723/276 411/724/276 423/725/276
f 409/723/276 423/725/276 422/726/276
f 411/705/277 413/702/277 424/717/277
f 411/705/277 424/717/277 423/716/277
f 413/727/278 415/728/278 425/729/278
f 413/727/278 425/729/278 424/730/278
f 415/709/279 399/699/279 417/711/279
f 415/709/279 417/711/279 425/722/279
f 417/731/280 416/715/280 426/732/280
f 416/715/281 418/714/281 426/732/281
f 418/714/282 419/721/282 426/732/282
f 419/721/283 420/720/283 426/732/283
f 420/720/284 421/733/284 426/732/284
f 421/733/285 422/726/285 426/732/285
f 422/726/286 423/725/286 426/732/286
f 423/725/287 424/730/287 426/732/287
f 424/730/288 425/729/288 426/732/288
f 425/729/289 417/731/289 426/732/289
f 427/734/290 428/735/290 429/736/290
f 427/734/290 430/737/290 428/735/290
f 427/734/290 431/738/290 430/737/290
f 427/734/290 432/739/290 431/738/290
f 427/734/290 433/740/290 432/739/290
f 427/734/290 429/736/290 433/740/290
f 429/741/291 428/742/291 434/743/291
f 429/741/291 434/743/291 435/744/291
f 428/745/292 430/746/292 436/747/292
f 428/745/292 436/747/292 434/748/292
f 430/742/293 431/741/293 437/744/293
f 430/742/293 437/744/293 436/743/293
f 431/741/294 432/749/294 438/750/294
f 431/741/294 438/750/294 437/744/294
f 432/746/295 433/745/295 439/748/295
f 432/746/295 439/748/295 438/747/295
f 433/749/296 429/741/296 435/744/296
f 433/749/296 435/744/296 439/750/296
f 435/744/297 434/743/297 440/751/297
f 435/744/297 440/751/297 441/752/297
f 434/748/298 436/747/298 442/753/298
f 434/748/298 442/753/298 440/754/298
f 436/743/299 437/744/299 443/752/299
f 436/743/299 443/752/299 442/751/299
f 437/744/300 438/750/300 444/755/300
f 437/744/300 444/755/300 443/752/300
f 438/747/301 439/748/301 445/754/301
f 438/747/301 445/754/301 444/753/301
f 439/750/302 435/744/302 441/752/302
f 439/750/302 441/752/302 445/755/302
