# Terran freighter, from tools/gen_fleet.py
# Generated by tools. Edit the generator script.
v 0.000000 0.502659 1.301602
v 0.207561 0.502659 1.871872
v 0.000000 0.502659 1.908471
v 0.390088 0.502659 1.766490
v 0.525564 0.502659 1.605036
v 0.597649 0.502659 1.406983
v 0.597649 0.502659 1.196220
v 0.525564 0.502659 0.998167
v 0.390088 0.502659 0.836713
v 0.207561 0.502659 0.731331
v 0.000000 0.502659 0.694732
v -0.207561 0.502659 0.731331
v -0.390088 0.502659 0.836713
v -0.525564 0.502659 0.998167
v -0.597649 0.502659 1.196220
v -0.597649 0.502659 1.406983
v -0.525564 0.502659 1.605036
v -0.390088 0.502659 1.766490
v -0.207561 0.502659 1.871872
v 0.339646 0.539439 2.234771
v 0.000000 0.539439 2.294660
v 0.638326 0.539439 2.062329
v 0.860014 0.539439 1.798131
v 0.977972 0.539439 1.474044
v 0.977972 0.539439 1.129159
v 0.860014 0.539439 0.805072
v 0.638326 0.539439 0.540874
v 0.339646 0.539439 0.368432
v 0.000000 0.539439 0.308543
v -0.339646 0.539439 0.368432
v -0.638326 0.539439 0.540874
v -0.860014 0.539439 0.805072
v -0.977972 0.539439 1.129159
v -0.977972 0.539439 1.474044
v -0.860014 0.539439 1.798131
v -0.638326 0.539439 2.062329
v -0.339646 0.539439 2.234771
v 0.377385 0.539439 2.338457
v 0.000000 0.539439 2.405000
v 0.709251 0.539439 2.146854
v 0.955571 0.539439 1.853301
v 1.086635 0.539439 1.493205
v 1.086635 0.539439 1.109998
v 0.955571 0.539439 0.749902
v 0.709251 0.539439 0.456349
v 0.377385 0.539439 0.264746
v 0.000000 0.539439 0.198203
v -0.377385 0.539439 0.264746
v -0.709251 0.539439 0.456349
v -0.955571 0.539439 0.749902
v -1.086635 0.539439 1.109998
v -1.086635 0.539439 1.493205
v -0.955571 0.539439 1.853301
v -0.709251 0.539439 2.146854
v -0.377385 0.539439 2.338457
v 0.377385 0.747859 2.338457
v 0.000000 0.747859 2.405000
v 0.709251 0.747859 2.146854
v 0.955571 0.747859 1.853301
v 1.086635 0.747859 1.493205
v 1.086635 0.747859 1.109998
v 0.955571 0.747859 0.749902
v 0.709251 0.747859 0.456349
v 0.377385 0.747859 0.264746
v 0.000000 0.747859 0.198203
v -0.377385 0.747859 0.264746
v -0.709251 0.747859 0.456349
v -0.955571 0.747859 0.749902
v -1.086635 0.747859 1.109998
v -1.086635 0.747859 1.493205
v -0.955571 0.747859 1.853301
v -0.709251 0.747859 2.146854
v -0.377385 0.747859 2.338457
v 0.339646 0.747859 2.234771
v 0.000000 0.747859 2.294660
v 0.638326 0.747859 2.062329
v 0.860014 0.747859 1.798131
v 0.977972 0.747859 1.474044
v 0.977972 0.747859 1.129159
v 0.860014 0.747859 0.805072
v 0.638326 0.747859 0.540874
v 0.339646 0.747859 0.368432
v 0.000000 0.747859 0.308543
v -0.339646 0.747859 0.368432
v -0.638326 0.747859 0.540874
v -0.860014 0.747859 0.805072
v -0.977972 0.747859 1.129159
v -0.977972 0.747859 1.474044
v -0.860014 0.747859 1.798131
v -0.638326 0.747859 2.062329
v -0.339646 0.747859 2.234771
v 0.332098 0.785048 2.214034
v 0.000000 0.785048 2.272592
v 0.624141 0.785048 2.045424
v 0.840903 0.785048 1.787097
v 0.956239 0.785048 1.470212
v 0.956239 0.785048 1.132991
v 0.840903 0.785048 0.816106
v 0.624141 0.785048 0.557780
v 0.332098 0.785048 0.389169
v 0.000000 0.785048 0.330611
v -0.332098 0.785048 0.389169
v -0.624141 0.785048 0.557780
v -0.840903 0.785048 0.816106
v -0.956239 0.785048 1.132991
v -0.956239 0.785048 1.470212
v -0.840903 0.785048 1.787097
v -0.624141 0.785048 2.045424
v -0.332098 0.785048 2.214034
v 0.207561 0.785048 1.871872
v 0.000000 0.785048 1.908471
v 0.390088 0.785048 1.766490
v 0.525564 0.785048 1.605036
v 0.597649 0.785048 1.406983
v 0.597649 0.785048 1.196220
v 0.525564 0.785048 0.998167
v 0.390088 0.785048 0.836713
v 0.207561 0.785048 0.731331
v 0.000000 0.785048 0.694732
v -0.207561 0.785048 0.731331
v -0.390088 0.785048 0.836713
v -0.525564 0.785048 0.998167
v -0.597649 0.785048 1.196220
v -0.597649 0.785048 1.406983
v -0.525564 0.785048 1.605036
v -0.390088 0.785048 1.766490
v -0.207561 0.785048 1.871872
v 0.188692 0.832862 1.820029
v 0.000000 0.832862 1.853301
v 0.354625 0.832862 1.724228
v 0.477786 0.832862 1.577451
v 0.543318 0.832862 1.397403
v 0.543318 0.832862 1.205800
v 0.477786 0.832862 1.025752
v 0.354625 0.832862 0.878975
v 0.188692 0.832862 0.783174
v 0.000000 0.832862 0.749902
v -0.188692 0.832862 0.783174
v -0.354625 0.832862 0.878975
v -0.477786 0.832862 1.025752
v -0.543318 0.832862 1.205800
v -0.543318 0.832862 1.397403
v -0.477786 0.832862 1.577451
v -0.354625 0.832862 1.724228
v -0.188692 0.832862 1.820029
v 0.094346 0.854112 1.560815
v 0.000000 0.854112 1.577451
v 0.177313 0.854112 1.512915
v 0.238893 0.854112 1.439526
v 0.271659 0.854112 1.349502
v 0.271659 0.854112 1.253701
v 0.238893 0.854112 1.163677
v 0.177313 0.854112 1.090288
v 0.094346 0.854112 1.042388
v 0.000000 0.854112 1.025752
v -0.094346 0.854112 1.042388
v -0.177313 0.854112 1.090288
v -0.238893 0.854112 1.163677
v -0.271659 0.854112 1.253701
v -0.271659 0.854112 1.349502
v -0.238893 0.854112 1.439526
v -0.177313 0.854112 1.512915
v -0.094346 0.854112 1.560815
v 0.000000 0.854112 1.301602
v -0.224766 0.559873 0.361669
v 0.224766 0.559873 0.361669
v 0.224766 0.690646 0.361669
v -0.224766 0.690646 0.361669
v 0.224766 0.559873 0.116470
v -0.224766 0.559873 0.116470
v -0.224766 0.690646 0.116470
v 0.224766 0.690646 0.116470
v 0.000000 0.502659 1.056402
v 0.144125 0.502659 1.103231
v 0.124816 0.380059 1.129807
v 0.000000 0.380059 1.089252
v 0.233199 0.502659 1.225831
v 0.201956 0.380059 1.235982
v 0.233199 0.502659 1.377372
v 0.201956 0.380059 1.367221
v 0.144125 0.502659 1.499972
v 0.124816 0.380059 1.473396
v 0.000000 0.502659 1.546801
v 0.000000 0.380059 1.513951
v -0.144125 0.502659 1.499972
v -0.124816 0.380059 1.473396
v -0.233199 0.502659 1.377372
v -0.201956 0.380059 1.367221
v -0.233199 0.502659 1.225831
v -0.201956 0.380059 1.235982
v -0.144125 0.502659 1.103231
v -0.124816 0.380059 1.129807
v 0.072062 0.290310 1.202416
v 0.000000 0.290310 1.179002
v 0.116599 0.290310 1.263716
v 0.116599 0.290310 1.339487
v 0.072062 0.290310 1.400787
v 0.000000 0.290310 1.424201
v -0.072062 0.290310 1.400787
v -0.116599 0.290310 1.339487
v -0.116599 0.290310 1.263716
v -0.072062 0.290310 1.202416
v 0.000000 0.257460 1.301602
v 0.000000 0.845939 1.500213
v 0.138706 0.845939 1.638919
v 0.000000 0.845939 1.696373
v 0.196160 0.845939 1.500213
v 0.138706 0.845939 1.361507
v 0.000000 0.845939 1.304054
v -0.138706 0.845939 1.361507
v -0.196160 0.845939 1.500213
v -0.138706 0.845939 1.638919
v 0.138706 0.944019 1.638919
v 0.000000 0.944019 1.696373
v 0.196160 0.944019 1.500213
v 0.138706 0.944019 1.361507
v 0.000000 0.944019 1.304054
v -0.138706 0.944019 1.361507
v -0.196160 0.944019 1.500213
v -0.138706 0.944019 1.638919
v 0.000000 0.944019 1.500213
v -0.106253 0.306500 1.546801
v 0.106253 0.306500 1.546801
v 0.106253 0.519006 1.546801
v -0.106253 0.519006 1.546801
v 0.106253 0.306500 -1.510021
v -0.106253 0.306500 -1.510021
v -0.106253 0.519006 -1.510021
v 0.106253 0.519006 -1.510021
v -0.429099 0.000000 -0.857300
v -0.020433 0.000000 -0.857300
v -0.020433 0.367799 -0.857300
v -0.429099 0.367799 -0.857300
v -0.020433 0.000000 -1.306832
v -0.429099 0.000000 -1.306832
v -0.429099 0.367799 -1.306832
v -0.020433 0.367799 -1.306832
v 0.020433 0.000000 -0.857300
v 0.429099 0.000000 -0.857300
v 0.429099 0.367799 -0.857300
v 0.020433 0.367799 -0.857300
v 0.429099 0.000000 -1.306832
v 0.020433 0.000000 -1.306832
v 0.020433 0.367799 -1.306832
v 0.429099 0.367799 -1.306832
v -0.429099 0.000000 -0.184799
v -0.020433 0.000000 -0.184799
v -0.020433 0.367799 -0.184799
v -0.429099 0.367799 -0.184799
v -0.020433 0.000000 -0.634332
v -0.429099 0.000000 -0.634332
v -0.429099 0.367799 -0.634332
v -0.020433 0.367799 -0.634332
v 0.020433 0.000000 -0.184799
v 0.429099 0.000000 -0.184799
v 0.429099 0.367799 -0.184799
v 0.020433 0.367799 -0.184799
v 0.429099 0.000000 -0.634332
v 0.020433 0.000000 -0.634332
v 0.020433 0.367799 -0.634332
v 0.429099 0.367799 -0.634332
v -0.429099 0.000000 0.487702
v -0.020433 0.000000 0.487702
v -0.020433 0.367799 0.487702
v -0.429099 0.367799 0.487702
v -0.020433 0.000000 0.038169
v -0.429099 0.000000 0.038169
v -0.429099 0.367799 0.038169
v -0.020433 0.367799 0.038169
v 0.020433 0.000000 0.487702
v 0.429099 0.000000 0.487702
v 0.429099 0.367799 0.487702
v 0.020433 0.367799 0.487702
v 0.429099 0.000000 0.038169
v 0.020433 0.000000 0.038169
v 0.020433 0.367799 0.038169
v 0.429099 0.367799 0.038169
v -0.429099 0.000000 1.160203
v -0.020433 0.000000 1.160203
v -0.020433 0.367799 1.160203
v -0.429099 0.367799 1.160203
v -0.020433 0.000000 0.710670
v -0.429099 0.000000 0.710670
v -0.429099 0.367799 0.710670
v -0.020433 0.367799 0.710670
v 0.020433 0.000000 1.160203
v 0.429099 0.000000 1.160203
v 0.429099 0.367799 1.160203
v 0.020433 0.367799 1.160203
v 0.429099 0.000000 0.710670
v 0.020433 0.000000 0.710670
v 0.020433 0.367799 0.710670
v 0.429099 0.367799 0.710670
v 0.000000 0.412753 -1.845127
v 0.092471 0.320282 -1.845127
v 0.000000 0.281980 -1.845127
v 0.130773 0.412753 -1.845127
v 0.092471 0.505223 -1.845127
v 0.000000 0.543526 -1.845127
v -0.092471 0.505223 -1.845127
v -0.130773 0.412753 -1.845127
v -0.092471 0.320282 -1.845127
v 0.092471 0.320282 -1.436461
v 0.000000 0.281980 -1.436461
v 0.130773 0.412753 -1.436461
v 0.092471 0.505223 -1.436461
v 0.000000 0.543526 -1.436461
v -0.092471 0.505223 -1.436461
v -0.130773 0.412753 -1.436461
v -0.092471 0.320282 -1.436461
v 0.000000 0.412753 -1.436461
v -1.636708 1.086234 -0.443403
v -1.358815 1.086234 -0.443403
v -1.358815 1.308549 -0.443403
v -1.636708 1.308549 -0.443403
v -1.380065 1.103235 -2.405000
v -1.615457 1.103235 -2.405000
v -1.615457 1.291548 -2.405000
v -1.380065 1.291548 -2.405000
v -1.538628 1.305280 -0.816106
v -1.456895 1.305280 -0.816106
v -1.456895 1.344511 -0.816106
v -1.538628 1.344511 -0.816106
v -1.456895 1.305280 -2.032297
v -1.538628 1.305280 -2.032297
v -1.538628 1.344511 -2.032297
v -1.456895 1.344511 -2.032297
v -1.587668 1.123832 -2.127107
v -1.407855 1.123832 -2.127107
v -1.407855 1.270952 -2.127107
v -1.587668 1.270952 -2.127107
v -1.407855 1.123832 -2.166339
v -1.587668 1.123832 -2.166339
v -1.587668 1.270952 -2.166339
v -1.407855 1.270952 -2.166339
v 1.358815 1.086234 -0.443403
v 1.636708 1.086234 -0.443403
v 1.636708 1.308549 -0.443403
v 1.358815 1.308549 -0.443403
v 1.615457 1.103235 -2.405000
v 1.380065 1.103235 -2.405000
v 1.380065 1.291548 -2.405000
v 1.615457 1.291548 -2.405000
v 1.456895 1.305280 -0.816106
v 1.538628 1.305280 -0.816106
v 1.538628 1.344511 -0.816106
v 1.456895 1.344511 -0.816106
v 1.538628 1.305280 -2.032297
v 1.456895 1.305280 -2.032297
v 1.456895 1.344511 -2.032297
v 1.538628 1.344511 -2.032297
v 1.407855 1.123832 -2.127107
v 1.587668 1.123832 -2.127107
v 1.587668 1.270952 -2.127107
v 1.407855 1.270952 -2.127107
v 1.587668 1.123832 -2.166339
v 1.407855 1.123832 -2.166339
v 1.407855 1.270952 -2.166339
v 1.587668 1.270952 -2.166339
v -1.497761 1.058445 -0.451576
v -1.416091 1.084982 -0.451576
v -1.427032 1.100042 -0.382103
v -1.497761 1.077060 -0.382103
v -1.365615 1.154455 -0.451576
v -1.383320 1.160207 -0.382103
v -1.365615 1.240328 -0.451576
v -1.383320 1.234576 -0.382103
v -1.416091 1.309802 -0.451576
v -1.427032 1.294742 -0.382103
v -1.497761 1.336338 -0.451576
v -1.497761 1.317723 -0.382103
v -1.579432 1.309802 -0.451576
v -1.568490 1.294742 -0.382103
v -1.629907 1.240328 -0.451576
v -1.612203 1.234576 -0.382103
v -1.629907 1.154455 -0.451576
v -1.612203 1.160207 -0.382103
v -1.579432 1.084982 -0.451576
v -1.568490 1.100042 -0.382103
v -1.456926 1.141187 -0.331245
v -1.497761 1.127918 -0.331245
v -1.431688 1.175923 -0.331245
v -1.431688 1.218860 -0.331245
v -1.456926 1.253597 -0.331245
v -1.497761 1.266865 -0.331245
v -1.538597 1.253597 -0.331245
v -1.563834 1.218860 -0.331245
v -1.563834 1.175923 -0.331245
v -1.538597 1.141187 -0.331245
v -1.497761 1.197392 -0.312630
v -0.081733 0.494486 -1.246023
v -0.016347 0.494486 -1.246023
v -1.366988 1.115658 -1.499396
v -1.432375 1.115658 -1.499396
v -0.016347 0.494486 -1.455260
v -0.081733 0.494486 -1.455260
v -1.432375 1.115658 -1.708633
v -1.366988 1.115658 -1.708633
v 1.497761 1.058445 -0.451576
v 1.579432 1.084982 -0.451576
v 1.568490 1.100042 -0.382103
v 1.497761 1.077060 -0.382103
v 1.629907 1.154455 -0.451576
v 1.612203 1.160207 -0.382103
v 1.629907 1.240328 -0.451576
v 1.612203 1.234576 -0.382103
v 1.579432 1.309802 -0.451576
v 1.568490 1.294742 -0.382103
v 1.497761 1.336338 -0.451576
v 1.497761 1.317723 -0.382103
v 1.416091 1.309802 -0.451576
v 1.427032 1.294742 -0.382103
v 1.365615 1.240328 -0.451576
v 1.383320 1.234576 -0.382103
v 1.365615 1.154455 -0.451576
v 1.383320 1.160207 -0.382103
v 1.416091 1.084982 -0.451576
v 1.427032 1.100042 -0.382103
v 1.538597 1.141187 -0.331245
v 1.497761 1.127918 -0.331245
v 1.563834 1.175923 -0.331245
v 1.563834 1.218860 -0.331245
v 1.538597 1.253597 -0.331245
v 1.497761 1.266865 -0.331245
v 1.456926 1.253597 -0.331245
v 1.431688 1.218860 -0.331245
v 1.431688 1.175923 -0.331245
v 1.456926 1.141187 -0.331245
v 1.497761 1.197392 -0.312630
v 0.016347 0.494486 -1.246023
v 0.081733 0.494486 -1.246023
v 1.432375 1.115658 -1.499396
v 1.366988 1.115658 -1.499396
v 0.081733 0.494486 -1.455260
v 0.016347 0.494486 -1.455260
v 1.366988 1.115658 -1.708633
v 1.432375 1.115658 -1.708633
vt 0.171875 0.828125
vt 0.203213 0.912918
vt 0.171875 0.918359
vt 0.230771 0.897249
vt 0.251226 0.873242
vt 0.262109 0.843794
vt 0.262109 0.812456
vt 0.251226 0.783008
vt 0.230771 0.759001
vt 0.203213 0.743332
vt 0.171875 0.737891
vt 0.140537 0.743332
vt 0.112979 0.759001
vt 0.092524 0.783008
vt 0.081641 0.812456
vt 0.081641 0.843794
vt 0.092524 0.873242
vt 0.112979 0.897249
vt 0.140537 0.912918
vt 0.223155 0.966876
vt 0.171875 0.975781
vt 0.268251 0.941236
vt 0.301722 0.901953
vt 0.319531 0.853765
vt 0.319531 0.802485
vt 0.301722 0.754297
vt 0.268251 0.715014
vt 0.223155 0.689374
vt 0.171875 0.680469
vt 0.120595 0.689374
vt 0.075499 0.715014
vt 0.042028 0.754297
vt 0.024219 0.802485
vt 0.024219 0.853765
vt 0.042028 0.901953
vt 0.075499 0.941236
vt 0.120595 0.966876
vt 0.228853 0.982293
vt 0.171875 0.992188
vt 0.278959 0.953804
vt 0.316149 0.910156
vt 0.335938 0.856614
vt 0.335938 0.799636
vt 0.316149 0.746094
vt 0.278959 0.702446
vt 0.228853 0.673957
vt 0.171875 0.664062
vt 0.114897 0.673957
vt 0.064791 0.702446
vt 0.027601 0.746094
vt 0.007813 0.799636
vt 0.007812 0.856614
vt 0.027601 0.910156
vt 0.064791 0.953804
vt 0.114897 0.982293
vt 0.195313 0.145531
vt 0.260431 0.145531
vt 0.260431 0.173328
vt 0.195313 0.173328
vt 0.317694 0.145531
vt 0.317694 0.173328
vt 0.338946 0.145531
vt 0.289063 0.145531
vt 0.289063 0.173328
vt 0.338946 0.173328
vt 0.227872 0.145531
vt 0.227872 0.173328
vt 0.162753 0.145531
vt 0.162753 0.173328
vt 0.101563 0.145531
vt 0.101563 0.173328
vt 0.051679 0.145531
vt 0.051679 0.173328
vt 0.700507 0.145531
vt 0.643243 0.145531
vt 0.643243 0.173328
vt 0.700507 0.173328
vt 0.578125 0.145531
vt 0.578125 0.173328
vt 0.513007 0.145531
vt 0.513007 0.173328
vt 0.455743 0.145531
vt 0.455743 0.173328
vt 0.072931 0.145531
vt 0.130194 0.145531
vt 0.130194 0.173328
vt 0.072931 0.173328
vt 0.253919 0.173328
vt 0.252616 0.178289
vt 0.195313 0.178289
vt 0.305456 0.173328
vt 0.303009 0.178289
vt 0.324582 0.173328
vt 0.279688 0.173328
vt 0.277813 0.178289
vt 0.321710 0.178289
vt 0.224616 0.173328
vt 0.223964 0.178289
vt 0.166009 0.173328
vt 0.166661 0.178289
vt 0.110938 0.173328
vt 0.112813 0.178289
vt 0.066043 0.173328
vt 0.068915 0.178289
vt 0.688269 0.173328
vt 0.636731 0.173328
vt 0.635429 0.178289
vt 0.685821 0.178289
vt 0.578125 0.178289
vt 0.519519 0.173328
vt 0.520821 0.178289
vt 0.467981 0.173328
vt 0.470429 0.178289
vt 0.085169 0.173328
vt 0.136706 0.173328
vt 0.138009 0.178289
vt 0.087616 0.178289
vt 0.171875 0.972500
vt 0.222016 0.963793
vt 0.266109 0.938723
vt 0.298836 0.900313
vt 0.316250 0.853195
vt 0.316250 0.803055
vt 0.298836 0.755938
vt 0.266109 0.717527
vt 0.222016 0.692457
vt 0.171875 0.683750
vt 0.121734 0.692457
vt 0.077641 0.717527
vt 0.044914 0.755937
vt 0.027500 0.803055
vt 0.027500 0.853195
vt 0.044914 0.900312
vt 0.077641 0.938723
vt 0.121734 0.963793
vt 0.200364 0.905209
vt 0.171875 0.910156
vt 0.225417 0.890965
vt 0.244012 0.869141
vt 0.253906 0.842370
vt 0.253906 0.813880
vt 0.244012 0.787109
vt 0.225417 0.765285
vt 0.200364 0.751041
vt 0.171875 0.746094
vt 0.143386 0.751041
vt 0.118333 0.765285
vt 0.099738 0.787109
vt 0.089844 0.813880
vt 0.089844 0.842370
vt 0.099738 0.869141
vt 0.118333 0.890965
vt 0.143386 0.905209
vt 0.186120 0.866667
vt 0.171875 0.869141
vt 0.198646 0.859545
vt 0.207944 0.848633
vt 0.212891 0.835247
vt 0.212891 0.821003
vt 0.207944 0.807617
vt 0.198646 0.796705
vt 0.186120 0.789583
vt 0.171875 0.787109
vt 0.157630 0.789583
vt 0.145104 0.796705
vt 0.135806 0.807617
vt 0.130859 0.821003
vt 0.130859 0.835247
vt 0.135806 0.848633
vt 0.145104 0.859545
vt 0.157630 0.866667
vt 0.007812 0.281250
vt 0.101562 0.281250
vt 0.101562 0.375000
vt 0.007812 0.375000
vt 0.101562 0.281250
vt 0.007812 0.281250
vt 0.007812 0.375000
vt 0.101562 0.375000
vt 0.007812 0.375000
vt 0.101562 0.375000
vt 0.101562 0.281250
vt 0.007812 0.281250
vt 0.007812 0.281250
vt 0.101562 0.281250
vt 0.101562 0.375000
vt 0.007812 0.375000
vt 0.718750 0.476562
vt 0.747720 0.476562
vt 0.743839 0.429688
vt 0.718750 0.429688
vt 0.680827 0.476562
vt 0.704265 0.476562
vt 0.706205 0.429688
vt 0.685908 0.429688
vt 0.733235 0.476562
vt 0.731295 0.429688
vt 0.756673 0.476562
vt 0.751592 0.429688
vt 0.747720 0.476562
vt 0.718750 0.476562
vt 0.718750 0.429688
vt 0.743839 0.429688
vt 0.689780 0.476562
vt 0.693661 0.429688
vt 0.689780 0.476562
vt 0.693661 0.429688
vt 0.617188 0.389093
vt 0.642277 0.396846
vt 0.631673 0.410726
vt 0.617188 0.406250
vt 0.657782 0.417143
vt 0.640625 0.422445
vt 0.725993 0.395373
vt 0.711507 0.395373
vt 0.657782 0.442232
vt 0.642277 0.462529
vt 0.631673 0.448649
vt 0.640625 0.436930
vt 0.718750 0.395373
vt 0.733235 0.395373
vt 0.704265 0.395373
vt 0.592098 0.462529
vt 0.576593 0.442232
vt 0.593750 0.436930
vt 0.602702 0.448649
vt 0.576593 0.417143
vt 0.592098 0.396846
vt 0.602702 0.410726
vt 0.593750 0.422445
vt 0.718750 0.395373
vt 0.704265 0.395373
vt 0.617188 0.429688
vt 0.617188 0.453125
vt 0.617188 0.429688
vt 0.650333 0.462833
vt 0.617188 0.476562
vt 0.664062 0.429688
vt 0.650333 0.396542
vt 0.617188 0.382812
vt 0.584042 0.396542
vt 0.570312 0.429688
vt 0.584042 0.462833
vt 0.718750 0.382812
vt 0.751896 0.382812
vt 0.751896 0.476562
vt 0.718750 0.476562
vt 0.751896 0.382812
vt 0.718750 0.382812
vt 0.718750 0.476562
vt 0.751896 0.476562
vt 0.685604 0.382812
vt 0.685604 0.476562
vt 0.751896 0.382812
vt 0.718750 0.382812
vt 0.718750 0.476562
vt 0.751896 0.476562
vt 0.685604 0.382812
vt 0.685604 0.476562
vt 0.685604 0.382812
vt 0.685604 0.476562
vt 0.843750 0.531250
vt 0.968750 0.531250
vt 0.968750 0.656250
vt 0.843750 0.656250
vt 0.968750 0.531250
vt 0.843750 0.531250
vt 0.843750 0.656250
vt 0.968750 0.656250
vt 0.843750 0.656250
vt 0.968750 0.656250
vt 0.968750 0.531250
vt 0.843750 0.531250
vt 0.843750 0.531250
vt 0.968750 0.531250
vt 0.968750 0.656250
vt 0.843750 0.656250
vt 0.875000 0.382812
vt 0.968750 0.382812
vt 0.968750 0.476562
vt 0.875000 0.476562
vt 0.968750 0.382812
vt 0.875000 0.382812
vt 0.875000 0.476562
vt 0.968750 0.476562
vt 0.773438 0.476562
vt 0.867188 0.476562
vt 0.867188 0.382812
vt 0.773438 0.382812
vt 0.875000 0.382812
vt 0.968750 0.382812
vt 0.968750 0.476562
vt 0.875000 0.476562
vt 0.875000 0.382812
vt 0.968750 0.382812
vt 0.968750 0.476562
vt 0.875000 0.476562
vt 0.968750 0.382812
vt 0.875000 0.382812
vt 0.875000 0.476562
vt 0.968750 0.476562
vt 0.773438 0.476562
vt 0.867188 0.476562
vt 0.867188 0.382812
vt 0.773438 0.382812
vt 0.875000 0.382812
vt 0.968750 0.382812
vt 0.968750 0.476562
vt 0.875000 0.476562
vt 0.875000 0.382812
vt 0.968750 0.382812
vt 0.968750 0.476562
vt 0.875000 0.476562
vt 0.968750 0.382812
vt 0.875000 0.382812
vt 0.875000 0.476562
vt 0.968750 0.476562
vt 0.773438 0.476562
vt 0.867188 0.476562
vt 0.867188 0.382812
vt 0.773438 0.382812
vt 0.875000 0.382812
vt 0.968750 0.382812
vt 0.968750 0.476562
vt 0.875000 0.476562
vt 0.875000 0.382812
vt 0.968750 0.382812
vt 0.968750 0.476562
vt 0.875000 0.476562
vt 0.968750 0.382812
vt 0.875000 0.382812
vt 0.875000 0.476562
vt 0.968750 0.476562
vt 0.773438 0.476562
vt 0.867188 0.476562
vt 0.867188 0.382812
vt 0.773438 0.382812
vt 0.875000 0.382812
vt 0.968750 0.382812
vt 0.968750 0.476562
vt 0.875000 0.476562
vt 0.875000 0.382812
vt 0.968750 0.382812
vt 0.968750 0.476562
vt 0.875000 0.476562
vt 0.968750 0.382812
vt 0.875000 0.382812
vt 0.875000 0.476562
vt 0.968750 0.476562
vt 0.773438 0.476562
vt 0.867188 0.476562
vt 0.867188 0.382812
vt 0.773438 0.382812
vt 0.875000 0.382812
vt 0.968750 0.382812
vt 0.968750 0.476562
vt 0.875000 0.476562
vt 0.875000 0.382812
vt 0.968750 0.382812
vt 0.968750 0.476562
vt 0.875000 0.476562
vt 0.968750 0.382812
vt 0.875000 0.382812
vt 0.875000 0.476562
vt 0.968750 0.476562
vt 0.773438 0.476562
vt 0.867188 0.476562
vt 0.867188 0.382812
vt 0.773438 0.382812
vt 0.875000 0.382812
vt 0.968750 0.382812
vt 0.968750 0.476562
vt 0.875000 0.476562
vt 0.875000 0.382812
vt 0.968750 0.382812
vt 0.968750 0.476562
vt 0.875000 0.476562
vt 0.968750 0.382812
vt 0.875000 0.382812
vt 0.875000 0.476562
vt 0.968750 0.476562
vt 0.773438 0.476562
vt 0.867188 0.476562
vt 0.867188 0.382812
vt 0.773438 0.382812
vt 0.875000 0.382812
vt 0.968750 0.382812
vt 0.968750 0.476562
vt 0.875000 0.476562
vt 0.875000 0.382812
vt 0.968750 0.382812
vt 0.968750 0.476562
vt 0.875000 0.476562
vt 0.968750 0.382812
vt 0.875000 0.382812
vt 0.875000 0.476562
vt 0.968750 0.476562
vt 0.773438 0.476562
vt 0.867188 0.476562
vt 0.867188 0.382812
vt 0.773438 0.382812
vt 0.875000 0.382812
vt 0.968750 0.382812
vt 0.968750 0.476562
vt 0.875000 0.476562
vt 0.054688 0.328125
vt 0.087833 0.294979
vt 0.054688 0.281250
vt 0.101562 0.328125
vt 0.087833 0.361271
vt 0.054688 0.375000
vt 0.021542 0.361271
vt 0.007812 0.328125
vt 0.021542 0.294979
vt 0.054688 0.281250
vt 0.087833 0.281250
vt 0.087833 0.375000
vt 0.054688 0.375000
vt 0.007812 0.294979
vt 0.007812 0.328125
vt 0.101562 0.328125
vt 0.101562 0.294979
vt 0.007812 0.361271
vt 0.101562 0.361271
vt 0.021542 0.281250
vt 0.021542 0.375000
vt 0.054688 0.281250
vt 0.087833 0.294979
vt 0.054688 0.328125
vt 0.101562 0.328125
vt 0.087833 0.361271
vt 0.054688 0.375000
vt 0.021542 0.361271
vt 0.007812 0.328125
vt 0.021542 0.294979
vt 0.390625 0.195312
vt 0.484375 0.195312
vt 0.484375 0.262559
vt 0.390625 0.262559
vt 0.578768 0.200455
vt 0.499357 0.200455
vt 0.499357 0.257417
vt 0.578768 0.257417
vt 0.554688 0.992188
vt 0.625000 0.992188
vt 0.619623 0.664062
vt 0.560064 0.664062
vt 0.492188 0.302017
vt 0.867188 0.296875
vt 0.867188 0.364122
vt 0.492188 0.358979
vt 0.382812 0.195312
vt 0.354136 0.200455
vt 0.354136 0.257417
vt 0.382812 0.262559
vt 0.423713 0.261570
vt 0.451287 0.261570
vt 0.451287 0.273438
vt 0.423713 0.273438
vt 0.552849 0.261570
vt 0.525276 0.261570
vt 0.525276 0.273438
vt 0.552849 0.273438
vt 0.579504 0.929844
vt 0.600184 0.929844
vt 0.600184 0.726406
vt 0.579504 0.726406
vt 0.563438 0.363133
vt 0.795937 0.363133
vt 0.795937 0.375000
vt 0.563438 0.375000
vt 0.250460 0.261570
vt 0.250460 0.273438
vt 0.407169 0.206685
vt 0.467831 0.206685
vt 0.467831 0.251187
vt 0.407169 0.251187
vt 0.569393 0.206685
vt 0.508732 0.206685
vt 0.508732 0.251187
vt 0.569393 0.251187
vt 0.567096 0.710547
vt 0.612592 0.710547
vt 0.612592 0.703984
vt 0.567096 0.703984
vt 0.537813 0.308248
vt 0.545312 0.308248
vt 0.545312 0.352749
vt 0.537813 0.352749
vt 0.316636 0.206685
vt 0.316636 0.251187
vt 0.390625 0.195312
vt 0.484375 0.195312
vt 0.484375 0.262559
vt 0.390625 0.262559
vt 0.578768 0.200455
vt 0.499357 0.200455
vt 0.499357 0.257417
vt 0.578768 0.257417
vt 0.554688 0.992188
vt 0.625000 0.992188
vt 0.619623 0.664062
vt 0.560064 0.664062
vt 0.036489 0.200455
vt 0.007812 0.195312
vt 0.007812 0.262559
vt 0.036489 0.257417
vt 0.867188 0.296875
vt 0.492188 0.302017
vt 0.492188 0.358979
vt 0.867188 0.364122
vt 0.423713 0.261570
vt 0.451287 0.261570
vt 0.451287 0.273438
vt 0.423713 0.273438
vt 0.552849 0.261570
vt 0.525276 0.261570
vt 0.525276 0.273438
vt 0.552849 0.273438
vt 0.579504 0.929844
vt 0.600184 0.929844
vt 0.600184 0.726406
vt 0.579504 0.726406
vt 0.140165 0.261570
vt 0.140165 0.273438
vt 0.795937 0.363133
vt 0.563438 0.363133
vt 0.563438 0.375000
vt 0.795937 0.375000
vt 0.407169 0.206685
vt 0.467831 0.206685
vt 0.467831 0.251187
vt 0.407169 0.251187
vt 0.569393 0.206685
vt 0.508732 0.206685
vt 0.508732 0.251187
vt 0.569393 0.251187
vt 0.567096 0.710547
vt 0.612592 0.710547
vt 0.612592 0.703984
vt 0.567096 0.703984
vt 0.073989 0.206685
vt 0.073989 0.251187
vt 0.545312 0.308248
vt 0.537813 0.308248
vt 0.537813 0.352749
vt 0.545312 0.352749
vt 0.054688 0.281250
vt 0.083658 0.281250
vt 0.079777 0.328125
vt 0.054688 0.328125
vt 0.007812 0.290202
vt 0.007812 0.313640
vt 0.054687 0.315580
vt 0.054688 0.295283
vt 0.007812 0.342610
vt 0.054687 0.340670
vt 0.007812 0.366048
vt 0.054687 0.360967
vt 0.025717 0.281250
vt 0.029598 0.328125
vt 0.054688 0.287530
vt 0.079777 0.295283
vt 0.069173 0.309164
vt 0.069173 0.362440
vt 0.054688 0.362440
vt 0.095282 0.315580
vt 0.078125 0.320882
vt 0.089002 0.335368
vt 0.089002 0.320882
vt 0.095282 0.340670
vt 0.079777 0.360967
vt 0.069173 0.347086
vt 0.078125 0.335368
vt 0.054688 0.351562
vt 0.040202 0.362440
vt 0.029598 0.360967
vt 0.014093 0.340670
vt 0.031250 0.335368
vt 0.040202 0.347086
vt 0.014093 0.315580
vt 0.029598 0.295283
vt 0.040202 0.309164
vt 0.031250 0.320882
vt 0.054688 0.304688
vt 0.054688 0.328125
vt 0.306728 0.484375
vt 0.312500 0.484375
vt 0.193272 0.656250
vt 0.187500 0.656250
vt 0.312500 0.484375
vt 0.306728 0.484375
vt 0.187500 0.656250
vt 0.193272 0.656250
vt 0.320312 0.562114
vt 0.323199 0.562114
vt 0.323199 0.484375
vt 0.320312 0.484375
vt 0.379926 0.578511
vt 0.382812 0.578511
vt 0.382812 0.656250
vt 0.379926 0.656250
vt 0.054688 0.281250
vt 0.083658 0.281250
vt 0.079777 0.328125
vt 0.054688 0.328125
vt 0.007812 0.290202
vt 0.007812 0.313640
vt 0.054687 0.315580
vt 0.054688 0.295283
vt 0.007812 0.342610
vt 0.054687 0.340670
vt 0.007812 0.366048
vt 0.054687 0.360967
vt 0.025717 0.281250
vt 0.029598 0.328125
vt 0.054688 0.287530
vt 0.079777 0.295283
vt 0.069173 0.309164
vt 0.069173 0.362440
vt 0.054688 0.362440
vt 0.095282 0.315580
vt 0.078125 0.320882
vt 0.089002 0.335368
vt 0.089002 0.320882
vt 0.095282 0.340670
vt 0.079777 0.360967
vt 0.069173 0.347086
vt 0.078125 0.335368
vt 0.054688 0.351562
vt 0.054688 0.368720
vt 0.029598 0.360967
vt 0.040202 0.347086
vt 0.040202 0.362440
vt 0.014093 0.340670
vt 0.031250 0.335368
vt 0.014093 0.315580
vt 0.029598 0.295283
vt 0.040202 0.309164
vt 0.031250 0.320882
vt 0.054688 0.304688
vt 0.054688 0.328125
vt 0.187500 0.484375
vt 0.193272 0.484375
vt 0.312500 0.656250
vt 0.306728 0.656250
vt 0.193272 0.484375
vt 0.187500 0.484375
vt 0.306728 0.656250
vt 0.312500 0.656250
vt 0.379926 0.562114
vt 0.382812 0.562114
vt 0.382812 0.484375
vt 0.379926 0.484375
vt 0.320312 0.578511
vt 0.323199 0.578511
vt 0.323199 0.656250
vt 0.320312 0.656250
vn 0.000000 -1.000000 0.000000
vn 0.016715 -0.995356 0.094796
vn 0.048129 -0.995356 0.083362
vn 0.073738 -0.995356 0.061874
vn 0.090453 -0.995356 0.032922
vn 0.096258 -0.995356 0.000000
vn 0.090453 -0.995356 -0.032922
vn 0.073738 -0.995356 -0.061874
vn 0.048129 -0.995356 -0.083362
vn 0.016715 -0.995356 -0.094796
vn -0.016715 -0.995356 -0.094796
vn -0.048129 -0.995356 -0.083362
vn -0.073738 -0.995356 -0.061874
vn -0.090453 -0.995356 -0.032922
vn -0.096258 -0.995356 -0.000000
vn -0.090453 -0.995356 0.032922
vn -0.073738 -0.995356 0.061874
vn -0.048129 -0.995356 0.083362
vn -0.016715 -0.995356 0.094796
vn 0.173648 0.000000 0.984808
vn 0.500000 0.000000 0.866025
vn 0.766044 0.000000 0.642788
vn 0.939693 0.000000 0.342020
vn 1.000000 0.000000 0.000000
vn 0.939693 0.000000 -0.342020
vn 0.766044 0.000000 -0.642788
vn 0.500000 0.000000 -0.866025
vn 0.173648 0.000000 -0.984808
vn -0.173648 0.000000 -0.984808
vn -0.500000 0.000000 -0.866025
vn -0.766044 0.000000 -0.642788
vn -0.939693 0.000000 -0.342020
vn -1.000000 0.000000 -0.000000
vn -0.939693 0.000000 0.342020
vn -0.766044 0.000000 0.642788
vn -0.500000 0.000000 0.866025
vn -0.173648 0.000000 0.984808
vn 0.000000 1.000000 0.000000
vn 0.149925 0.504552 0.850264
vn 0.431691 0.504552 0.747710
vn 0.661388 0.504552 0.554971
vn 0.811313 0.504552 0.295294
vn 0.863381 0.504552 0.000000
vn 0.811313 0.504552 -0.295294
vn 0.661388 0.504552 -0.554971
vn 0.431691 0.504552 -0.747710
vn 0.149925 0.504552 -0.850264
vn -0.149925 0.504552 -0.850264
vn -0.431691 0.504552 -0.747710
vn -0.661388 0.504552 -0.554971
vn -0.811313 0.504552 -0.295294
vn -0.863381 0.504552 -0.000000
vn -0.811313 0.504552 0.295294
vn -0.661388 0.504552 0.554971
vn -0.431691 0.504552 0.747710
vn -0.149925 0.504552 0.850264
vn 0.114720 0.750700 0.650607
vn 0.330322 0.750700 0.572134
vn 0.506082 0.750700 0.424653
vn 0.620802 0.750700 0.225953
vn 0.660643 0.750700 0.000000
vn 0.620802 0.750700 -0.225953
vn 0.506082 0.750700 -0.424653
vn 0.330322 0.750700 -0.572134
vn 0.114720 0.750700 -0.650607
vn -0.114720 0.750700 -0.650607
vn -0.330322 0.750700 -0.572134
vn -0.506082 0.750700 -0.424653
vn -0.620802 0.750700 -0.225953
vn -0.660643 0.750700 -0.000000
vn -0.620802 0.750700 0.225953
vn -0.506082 0.750700 0.424653
vn -0.330322 0.750700 0.572134
vn -0.114720 0.750700 0.650607
vn 0.013542 0.996954 0.076802
vn 0.038994 0.996954 0.067539
vn 0.059742 0.996954 0.050129
vn 0.073284 0.996954 0.026673
vn 0.077987 0.996954 0.000000
vn 0.073284 0.996954 -0.026673
vn 0.059742 0.996954 -0.050129
vn 0.038994 0.996954 -0.067539
vn 0.013542 0.996954 -0.076802
vn -0.013542 0.996954 -0.076802
vn -0.038994 0.996954 -0.067539
vn -0.059742 0.996954 -0.050129
vn -0.073284 0.996954 -0.026673
vn -0.077987 0.996954 -0.000000
vn -0.073284 0.996954 0.026673
vn -0.059742 0.996954 0.050129
vn -0.038994 0.996954 0.067539
vn -0.013542 0.996954 0.076802
vn 0.000000 0.000000 1.000000
vn 0.000000 0.000000 -1.000000
vn -0.000000 1.000000 0.000000
vn 0.000000 -1.000000 0.000000
vn -1.000000 0.000000 0.000000
vn 1.000000 0.000000 0.000000
vn 0.299447 -0.246943 -0.921602
vn 0.783962 -0.246943 -0.569582
vn 0.969030 -0.246943 -0.000000
vn 0.783962 -0.246943 0.569582
vn 0.299447 -0.246943 0.921602
vn -0.299447 -0.246943 0.921602
vn -0.783962 -0.246943 0.569582
vn -0.969030 -0.246943 0.000000
vn -0.783962 -0.246943 -0.569582
vn -0.299447 -0.246943 -0.921602
vn 0.223919 -0.689152 -0.689152
vn 0.586227 -0.689152 -0.425919
vn 0.724617 -0.689152 0.000000
vn 0.586227 -0.689152 0.425919
vn 0.223919 -0.689152 0.689152
vn -0.223919 -0.689152 0.689152
vn -0.586227 -0.689152 0.425919
vn -0.724617 -0.689152 -0.000000
vn -0.586227 -0.689152 -0.425919
vn -0.223919 -0.689152 -0.689152
vn 0.083800 -0.962528 -0.257909
vn 0.219390 -0.962528 -0.159396
vn 0.271181 -0.962528 -0.000000
vn 0.219390 -0.962528 0.159396
vn 0.083800 -0.962528 0.257909
vn -0.083800 -0.962528 0.257909
vn -0.219390 -0.962528 0.159396
vn -0.271181 -0.962528 0.000000
vn -0.219390 -0.962528 -0.159396
vn -0.083800 -0.962528 -0.257909
vn 0.000000 -1.000000 0.000000
vn 0.382683 0.000000 0.923880
vn 0.923880 0.000000 0.382683
vn 0.923880 0.000000 -0.382683
vn 0.382683 0.000000 -0.923880
vn -0.382683 0.000000 -0.923880
vn -0.923880 0.000000 -0.382683
vn -0.923880 0.000000 0.382683
vn -0.382683 0.000000 0.923880
vn 0.000000 1.000000 0.000000
vn 0.000000 0.000000 1.000000
vn 0.000000 0.000000 -1.000000
vn -0.000000 1.000000 0.000000
vn 0.000000 -1.000000 0.000000
vn -1.000000 0.000000 0.000000
vn 1.000000 0.000000 0.000000
vn 0.000000 0.000000 1.000000
vn 0.000000 0.000000 -1.000000
vn -0.000000 1.000000 0.000000
vn 0.000000 -1.000000 0.000000
vn -1.000000 0.000000 0.000000
vn 1.000000 0.000000 0.000000
vn 0.000000 0.000000 1.000000
vn 0.000000 0.000000 -1.000000
vn -0.000000 1.000000 0.000000
vn 0.000000 -1.000000 0.000000
vn -1.000000 0.000000 0.000000
vn 1.000000 0.000000 0.000000
vn 0.000000 0.000000 1.000000
vn 0.000000 0.000000 -1.000000
vn -0.000000 1.000000 0.000000
vn 0.000000 -1.000000 0.000000
vn -1.000000 0.000000 0.000000
vn 1.000000 0.000000 0.000000
vn 0.000000 0.000000 1.000000
vn 0.000000 0.000000 -1.000000
vn -0.000000 1.000000 0.000000
vn 0.000000 -1.000000 0.000000
vn -1.000000 0.000000 0.000000
vn 1.000000 0.000000 0.000000
vn 0.000000 0.000000 1.000000
vn 0.000000 0.000000 -1.000000
vn -0.000000 1.000000 0.000000
vn 0.000000 -1.000000 0.000000
vn -1.000000 0.000000 0.000000
vn 1.000000 0.000000 0.000000
vn 0.000000 0.000000 1.000000
vn 0.000000 0.000000 -1.000000
vn -0.000000 1.000000 0.000000
vn 0.000000 -1.000000 0.000000
vn -1.000000 0.000000 0.000000
vn 1.000000 0.000000 0.000000
vn 0.000000 0.000000 1.000000
vn 0.000000 0.000000 -1.000000
vn -0.000000 1.000000 0.000000
vn 0.000000 -1.000000 0.000000
vn -1.000000 0.000000 0.000000
vn 1.000000 0.000000 0.000000
vn 0.000000 0.000000 1.000000
vn 0.000000 0.000000 -1.000000
vn -0.000000 1.000000 0.000000
vn 0.000000 -1.000000 0.000000
vn -1.000000 0.000000 0.000000
vn 1.000000 0.000000 0.000000
vn 0.000000 0.000000 -1.000000
vn 0.382683 -0.923880 0.000000
vn 0.923880 -0.382683 0.000000
vn 0.923880 0.382683 0.000000
vn 0.382683 0.923880 0.000000
vn -0.382683 0.923880 0.000000
vn -0.923880 0.382683 -0.000000
vn -0.923880 -0.382683 0.000000
vn -0.382683 -0.923880 0.000000
vn 0.000000 0.000000 1.000000
vn 0.000000 0.000000 1.000000
vn 0.000000 0.000000 -1.000000
vn 0.000000 0.999962 -0.008666
vn 0.000000 -0.999962 -0.008666
vn -0.999941 0.000000 -0.010833
vn 0.999941 0.000000 -0.010833
vn -0.000000 1.000000 0.000000
vn 0.000000 -1.000000 0.000000
vn -1.000000 0.000000 0.000000
vn 1.000000 0.000000 0.000000
vn 0.000000 0.000000 1.000000
vn 0.000000 0.000000 -1.000000
vn 0.000000 0.999962 -0.008666
vn 0.000000 -0.999962 -0.008666
vn -0.999941 0.000000 -0.010833
vn 0.999941 0.000000 -0.010833
vn -0.000000 1.000000 0.000000
vn 0.000000 -1.000000 0.000000
vn -1.000000 0.000000 0.000000
vn 1.000000 0.000000 0.000000
vn 0.299447 -0.921602 0.246943
vn 0.783962 -0.569582 0.246943
vn 0.969030 -0.000000 0.246943
vn 0.783962 0.569582 0.246943
vn 0.299447 0.921602 0.246943
vn -0.299447 0.921602 0.246943
vn -0.783962 0.569582 0.246943
vn -0.969030 0.000000 0.246943
vn -0.783962 -0.569582 0.246943
vn -0.299447 -0.921602 0.246943
vn 0.223919 -0.689152 0.689152
vn 0.586227 -0.425919 0.689152
vn 0.724617 -0.000000 0.689152
vn 0.586227 0.425919 0.689152
vn 0.223919 0.689152 0.689152
vn -0.223919 0.689152 0.689152
vn -0.586227 0.425919 0.689152
vn -0.724617 0.000000 0.689152
vn -0.586227 -0.425919 0.689152
vn -0.223919 -0.689152 0.689152
vn 0.083800 -0.257909 0.962528
vn 0.219390 -0.159396 0.962528
vn 0.271181 -0.000000 0.962528
vn 0.219390 0.159396 0.962528
vn 0.083800 0.257909 0.962528
vn -0.083800 0.257909 0.962528
vn -0.219390 0.159396 0.962528
vn -0.271181 0.000000 0.962528
vn -0.219390 -0.159396 0.962528
vn -0.083800 -0.257909 0.962528
vn -0.000000 0.377684 0.925935
vn -0.000000 -0.377684 -0.925935
vn -0.000000 1.000000 0.000000
vn 0.000000 -1.000000 0.000000
vn -0.417838 -0.908522 0.000000
vn 0.417838 0.908522 0.000000
vn 0.299447 -0.921602 0.246943
vn 0.783962 -0.569582 0.246943
vn 0.969030 -0.000000 0.246943
vn 0.783962 0.569582 0.246943
vn 0.299447 0.921602 0.246943
vn -0.299447 0.921602 0.246943
vn -0.783962 0.569582 0.246943
vn -0.969030 0.000000 0.246943
vn -0.783962 -0.569582 0.246943
vn -0.299447 -0.921602 0.246943
vn 0.223919 -0.689152 0.689152
vn 0.586227 -0.425919 0.689152
vn 0.724617 -0.000000 0.689152
vn 0.586227 0.425919 0.689152
vn 0.223919 0.689152 0.689152
vn -0.223919 0.689152 0.689152
vn -0.586227 0.425919 0.689152
vn -0.724617 0.000000 0.689152
vn -0.586227 -0.425919 0.689152
vn -0.223919 -0.689152 0.689152
vn 0.083800 -0.257909 0.962528
vn 0.219390 -0.159396 0.962528
vn 0.271181 -0.000000 0.962528
vn 0.219390 0.159396 0.962528
vn 0.083800 0.257909 0.962528
vn -0.083800 0.257909 0.962528
vn -0.219390 0.159396 0.962528
vn -0.271181 0.000000 0.962528
vn -0.219390 -0.159396 0.962528
vn -0.083800 -0.257909 0.962528
vn -0.000000 0.377684 0.925935
vn -0.000000 -0.377684 -0.925935
vn -0.000000 1.000000 0.000000
vn 0.000000 -1.000000 0.000000
vn -0.417838 0.908522 0.000000
vn 0.417838 -0.908522 0.000000
f 1/1/1 2/2/1 3/3/1
f 1/1/1 4/4/1 2/2/1
f 1/1/1 5/5/1 4/4/1
f 1/1/1 6/6/1 5/5/1
f 1/1/1 7/7/1 6/6/1
f 1/1/1 8/8/1 7/7/1
f 1/1/1 9/9/1 8/8/1
f 1/1/1 10/10/1 9/9/1
f 1/1/1 11/11/1 10/10/1
f 1/1/1 12/12/1 11/11/1
f 1/1/1 13/13/1 12/12/1
f 1/1/1 14/14/1 13/13/1
f 1/1/1 15/15/1 14/14/1
f 1/1/1 16/16/1 15/15/1
f 1/1/1 17/17/1 16/16/1
f 1/1/1 18/18/1 17/17/1
f 1/1/1 19/19/1 18/18/1
f 1/1/1 3/3/1 19/19/1
f 3/3/2 2/2/2 20/20/2
f 3/3/2 20/20/2 21/21/2
f 2/2/3 4/4/3 22/22/3
f 2/2/3 22/22/3 20/20/3
f 4/4/4 5/5/4 23/23/4
f 4/4/4 23/23/4 22/22/4
f 5/5/5 6/6/5 24/24/5
f 5/5/5 24/24/5 23/23/5
f 6/6/6 7/7/6 25/25/6
f 6/6/6 25/25/6 24/24/6
f 7/7/7 8/8/7 26/26/7
f 7/7/7 26/26/7 25/25/7
f 8/8/8 9/9/8 27/27/8
f 8/8/8 27/27/8 26/26/8
f 9/9/9 10/10/9 28/28/9
f 9/9/9 28/28/9 27/27/9
f 10/10/10 11/11/10 29/29/10
f 10/10/10 29/29/10 28/28/10
f 11/11/11 12/12/11 30/30/11
f 11/11/11 30/30/11 29/29/11
f 12/12/12 13/13/12 31/31/12
f 12/12/12 31/31/12 30/30/12
f 13/13/13 14/14/13 32/32/13
f 13/13/13 32/32/13 31/31/13
f 14/14/14 15/15/14 33/33/14
f 14/14/14 33/33/14 32/32/14
f 15/15/15 16/16/15 34/34/15
f 15/15/15 34/34/15 33/33/15
f 16/16/16 17/17/16 35/35/16
f 16/16/16 35/35/16 34/34/16
f 17/17/17 18/18/17 36/36/17
f 17/17/17 36/36/17 35/35/17
f 18/18/18 19/19/18 37/37/18
f 18/18/18 37/37/18 36/36/18
f 19/19/19 3/3/19 21/21/19
f 19/19/19 21/21/19 37/37/19
f 21/21/1 20/20/1 38/38/1
f 21/21/1 38/38/1 39/39/1
f 20/20/1 22/22/1 40/40/1
f 20/20/1 40/40/1 38/38/1
f 22/22/1 23/23/1 41/41/1
f 22/22/1 41/41/1 40/40/1
f 23/23/1 24/24/1 42/42/1
f 23/23/1 42/42/1 41/41/1
f 24/24/1 25/25/1 43/43/1
f 24/24/1 43/43/1 42/42/1
f 25/25/1 26/26/1 44/44/1
f 25/25/1 44/44/1 43/43/1
f 26/26/1 27/27/1 45/45/1
f 26/26/1 45/45/1 44/44/1
f 27/27/1 28/28/1 46/46/1
f 27/27/1 46/46/1 45/45/1
f 28/28/1 29/29/1 47/47/1
f 28/28/1 47/47/1 46/46/1
f 29/29/1 30/30/1 48/48/1
f 29/29/1 48/48/1 47/47/1
f 30/30/1 31/31/1 49/49/1
f 30/30/1 49/49/1 48/48/1
f 31/31/1 32/32/1 50/50/1
f 31/31/1 50/50/1 49/49/1
f 32/32/1 33/33/1 51/51/1
f 32/32/1 51/51/1 50/50/1
f 33/33/1 34/34/1 52/52/1
f 33/33/1 52/52/1 51/51/1
f 34/34/1 35/35/1 53/53/1
f 34/34/1 53/53/1 52/52/1
f 35/35/1 36/36/1 54/54/1
f 35/35/1 54/54/1 53/53/1
f 36/36/1 37/37/1 55/55/1
f 36/36/1 55/55/1 54/54/1
f 37/37/1 21/21/1 39/39/1
f 37/37/1 39/39/1 55/55/1
f 39/56/20 38/57/20 56/58/20
f 39/56/20 56/58/20 57/59/20
f 38/57/21 40/60/21 58/61/21
f 38/57/21 58/61/21 56/58/21
f 40/62/22 41/63/22 59/64/22
f 40/62/22 59/64/22 58/65/22
f 41/63/23 42/66/23 60/67/23
f 41/63/23 60/67/23 59/64/23
f 42/66/24 43/68/24 61/69/24
f 42/66/24 61/69/24 60/67/24
f 43/68/25 44/70/25 62/71/25
f 43/68/25 62/71/25 61/69/25
f 44/70/26 45/72/26 63/73/26
f 44/70/26 63/73/26 62/71/26
f 45/74/27 46/75/27 64/76/27
f 45/74/27 64/76/27 63/77/27
f 46/75/28 47/78/28 65/79/28
f 46/75/28 65/79/28 64/76/28
f 47/78/29 48/80/29 66/81/29
f 47/78/29 66/81/29 65/79/29
f 48/80/30 49/82/30 67/83/30
f 48/80/30 67/83/30 66/81/30
f 49/72/31 50/70/31 68/71/31
f 49/72/31 68/71/31 67/73/31
f 50/70/32 51/68/32 69/69/32
f 50/70/32 69/69/32 68/71/32
f 51/68/33 52/66/33 70/67/33
f 51/68/33 70/67/33 69/69/33
f 52/66/34 53/63/34 71/64/34
f 52/66/34 71/64/34 70/67/34
f 53/63/35 54/62/35 72/65/35
f 53/63/35 72/65/35 71/64/35
f 54/84/36 55/85/36 73/86/36
f 54/84/36 73/86/36 72/87/36
f 55/85/37 39/56/37 57/59/37
f 55/85/37 57/59/37 73/86/37
f 57/39/38 56/38/38 74/20/38
f 57/39/38 74/20/38 75/21/38
f 56/38/38 58/40/38 76/22/38
f 56/38/38 76/22/38 74/20/38
f 58/40/38 59/41/38 77/23/38
f 58/40/38 77/23/38 76/22/38
f 59/41/38 60/42/38 78/24/38
f 59/41/38 78/24/38 77/23/38
f 60/42/38 61/43/38 79/25/38
f 60/42/38 79/25/38 78/24/38
f 61/43/38 62/44/38 80/26/38
f 61/43/38 80/26/38 79/25/38
f 62/44/38 63/45/38 81/27/38
f 62/44/38 81/27/38 80/26/38
f 63/45/38 64/46/38 82/28/38
f 63/45/38 82/28/38 81/27/38
f 64/46/38 65/47/38 83/29/38
f 64/46/38 83/29/38 82/28/38
f 65/47/38 66/48/38 84/30/38
f 65/47/38 84/30/38 83/29/38
f 66/48/38 67/49/38 85/31/38
f 66/48/38 85/31/38 84/30/38
f 67/49/38 68/50/38 86/32/38
f 67/49/38 86/32/38 85/31/38
f 68/50/38 69/51/38 87/33/38
f 68/50/38 87/33/38 86/32/38
f 69/51/38 70/52/38 88/34/38
f 69/51/38 88/34/38 87/33/38
f 70/52/38 71/53/38 89/35/38
f 70/52/38 89/35/38 88/34/38
f 71/53/38 72/54/38 90/36/38
f 71/53/38 90/36/38 89/35/38
f 72/54/38 73/55/38 91/37/38
f 72/54/38 91/37/38 90/36/38
f 73/55/38 57/39/38 75/21/38
f 73/55/38 75/21/38 91/37/38
f 75/59/39 74/88/39 92/89/39
f 75/59/39 92/89/39 93/90/39
f 74/88/40 76/91/40 94/92/40
f 74/88/40 94/92/40 92/89/40
f 76/93/41 77/94/41 95/95/41
f 76/93/41 95/95/41 94/96/41
f 77/94/42 78/97/42 96/98/42
f 77/94/42 96/98/42 95/95/42
f 78/97/43 79/99/43 97/100/43
f 78/97/43 97/100/43 96/98/43
f 79/99/44 80/101/44 98/102/44
f 79/99/44 98/102/44 97/100/44
f 80/101/45 81/103/45 99/104/45
f 80/101/45 99/104/45 98/102/45
f 81/105/46 82/106/46 100/107/46
f 81/105/46 100/107/46 99/108/46
f 82/106/47 83/79/47 101/109/47
f 82/106/47 101/109/47 100/107/47
f 83/79/48 84/110/48 102/111/48
f 83/79/48 102/111/48 101/109/48
f 84/110/49 85/112/49 103/113/49
f 84/110/49 103/113/49 102/111/49
f 85/103/50 86/101/50 104/102/50
f 85/103/50 104/102/50 103/104/50
f 86/101/51 87/99/51 105/100/51
f 86/101/51 105/100/51 104/102/51
f 87/99/52 88/97/52 106/98/52
f 87/99/52 106/98/52 105/100/52
f 88/97/53 89/94/53 107/95/53
f 88/97/53 107/95/53 106/98/53
f 89/94/54 90/93/54 108/96/54
f 89/94/54 108/96/54 107/95/54
f 90/114/55 91/115/55 109/116/55
f 90/114/55 109/116/55 108/117/55
f 91/115/56 75/59/56 93/90/56
f 91/115/56 93/90/56 109/116/56
f 93/118/38 92/119/38 110/2/38
f 93/118/38 110/2/38 111/3/38
f 92/119/38 94/120/38 112/4/38
f 92/119/38 112/4/38 110/2/38
f 94/120/38 95/121/38 113/5/38
f 94/120/38 113/5/38 112/4/38
f 95/121/38 96/122/38 114/6/38
f 95/121/38 114/6/38 113/5/38
f 96/122/38 97/123/38 115/7/38
f 96/122/38 115/7/38 114/6/38
f 97/123/38 98/124/38 116/8/38
f 97/123/38 116/8/38 115/7/38
f 98/124/38 99/125/38 117/9/38
f 98/124/38 117/9/38 116/8/38
f 99/125/38 100/126/38 118/10/38
f 99/125/38 118/10/38 117/9/38
f 100/126/38 101/127/38 119/11/38
f 100/126/38 119/11/38 118/10/38
f 101/127/38 102/128/38 120/12/38
f 101/127/38 120/12/38 119/11/38
f 102/128/38 103/129/38 121/13/38
f 102/128/38 121/13/38 120/12/38
f 103/129/38 104/130/38 122/14/38
f 103/129/38 122/14/38 121/13/38
f 104/130/38 105/131/38 123/15/38
f 104/130/38 123/15/38 122/14/38
f 105/131/38 106/132/38 124/16/38
f 105/131/38 124/16/38 123/15/38
f 106/132/38 107/133/38 125/17/38
f 106/132/38 125/17/38 124/16/38
f 107/133/38 108/134/38 126/18/38
f 107/133/38 126/18/38 125/17/38
f 108/134/38 109/135/38 127/19/38
f 108/134/38 127/19/38 126/18/38
f 109/135/38 93/118/38 111/3/38
f 109/135/38 111/3/38 127/19/38
f 111/3/57 110/2/57 128/136/57
f 111/3/57 128/136/57 129/137/57
f 110/2/58 112/4/58 130/138/58
f 110/2/58 130/138/58 128/136/58
f 112/4/59 113/5/59 131/139/59
f 112/4/59 131/139/59 130/138/59
f 113/5/60 114/6/60 132/140/60
f 113/5/60 132/140/60 131/139/60
f 114/6/61 115/7/61 133/141/61
f 114/6/61 133/141/61 132/140/61
f 115/7/62 116/8/62 134/142/62
f 115/7/62 134/142/62 133/141/62
f 116/8/63 117/9/63 135/143/63
f 116/8/63 135/143/63 134/142/63
f 117/9/64 118/10/64 136/144/64
f 117/9/64 136/144/64 135/143/64
f 118/10/65 119/11/65 137/145/65
f 118/10/65 137/145/65 136/144/65
f 119/11/66 120/12/66 138/146/66
f 119/11/66 138/146/66 137/145/66
f 120/12/67 121/13/67 139/147/67
f 120/12/67 139/147/67 138/146/67
f 121/13/68 122/14/68 140/148/68
f 121/13/68 140/148/68 139/147/68
f 122/14/69 123/15/69 141/149/69
f 122/14/69 141/149/69 140/148/69
f 123/15/70 124/16/70 142/150/70
f 123/15/70 142/150/70 141/149/70
f 124/16/71 125/17/71 143/151/71
f 124/16/71 143/151/71 142/150/71
f 125/17/72 126/18/72 144/152/72
f 125/17/72 144/152/72 143/151/72
f 126/18/73 127/19/73 145/153/73
f 126/18/73 145/153/73 144/152/73
f 127/19/74 111/3/74 129/137/74
f 127/19/74 129/137/74 145/153/74
f 129/137/75 128/136/75 146/154/75
f 129/137/75 146/154/75 147/155/75
f 128/136/76 130/138/76 148/156/76
f 128/136/76 148/156/76 146/154/76
f 130/138/77 131/139/77 149/157/77
f 130/138/77 149/157/77 148/156/77
f 131/139/78 132/140/78 150/158/78
f 131/139/78 150/158/78 149/157/78
f 132/140/79 133/141/79 151/159/79
f 132/140/79 151/159/79 150/158/79
f 133/141/80 134/142/80 152/160/80
f 133/141/80 152/160/80 151/159/80
f 134/142/81 135/143/81 153/161/81
f 134/142/81 153/161/81 152/160/81
f 135/143/82 136/144/82 154/162/82
f 135/143/82 154/162/82 153/161/82
f 136/144/83 137/145/83 155/163/83
f 136/144/83 155/163/83 154/162/83
f 137/145/84 138/146/84 156/164/84
f 137/145/84 156/164/84 155/163/84
f 138/146/85 139/147/85 157/165/85
f 138/146/85 157/165/85 156/164/85
f 139/147/86 140/148/86 158/166/86
f 139/147/86 158/166/86 157/165/86
f 140/148/87 141/149/87 159/167/87
f 140/148/87 159/167/87 158/166/87
f 141/149/88 142/150/88 160/168/88
f 141/149/88 160/168/88 159/167/88
f 142/150/89 143/151/89 161/169/89
f 142/150/89 161/169/89 160/168/89
f 143/151/90 144/152/90 162/170/90
f 143/151/90 162/170/90 161/169/90
f 144/152/91 145/153/91 163/171/91
f 144/152/91 163/171/91 162/170/91
f 145/153/92 129/137/92 147/155/92
f 145/153/92 147/155/92 163/171/92
f 147/155/38 146/154/38 164/1/38
f 146/154/38 148/156/38 164/1/38
f 148/156/38 149/157/38 164/1/38
f 149/157/38 150/158/38 164/1/38
f 150/158/38 151/159/38 164/1/38
f 151/159/38 152/160/38 164/1/38
f 152/160/38 153/161/38 164/1/38
f 153/161/38 154/162/38 164/1/38
f 154/162/38 155/163/38 164/1/38
f 155/163/38 156/164/38 164/1/38
f 156/164/38 157/165/38 164/1/38
f 157/165/38 158/166/38 164/1/38
f 158/166/38 159/167/38 164/1/38
f 159/167/38 160/168/38 164/1/38
f 160/168/38 161/169/38 164/1/38
f 161/169/38 162/170/38 164/1/38
f 162/170/38 163/171/38 164/1/38
f 163/171/38 147/155/38 164/1/38
f 165/172/93 166/173/93 167/174/93
f 165/172/93 167/174/93 168/175/93
f 169/176/94 170/177/94 171/178/94
f 169/176/94 171/178/94 172/179/94
f 168/180/95 167/181/95 172/182/95
f 168/180/95 172/182/95 171/183/95
f 170/183/96 169/182/96 166/181/96
f 170/183/96 166/181/96 165/180/96
f 170/184/97 165/185/97 168/186/97
f 170/184/97 168/186/97 171/187/97
f 166/185/98 169/184/98 172/187/98
f 166/185/98 172/187/98 167/186/98
f 173/188/99 174/189/99 175/190/99
f 173/188/99 175/190/99 176/191/99
f 174/192/100 177/193/100 178/194/100
f 174/192/100 178/194/100 175/195/100
f 177/193/101 179/196/101 180/197/101
f 177/193/101 180/197/101 178/194/101
f 179/196/102 181/198/102 182/199/102
f 179/196/102 182/199/102 180/197/102
f 181/200/103 183/201/103 184/202/103
f 181/200/103 184/202/103 182/203/103
f 183/201/104 185/204/104 186/205/104
f 183/201/104 186/205/104 184/202/104
f 185/198/105 187/196/105 188/197/105
f 185/198/105 188/197/105 186/199/105
f 187/196/106 189/193/106 190/194/106
f 187/196/106 190/194/106 188/197/106
f 189/193/107 191/192/107 192/195/107
f 189/193/107 192/195/107 190/194/107
f 191/206/108 173/188/108 176/191/108
f 191/206/108 176/191/108 192/207/108
f 176/208/109 175/209/109 193/210/109
f 176/208/109 193/210/109 194/211/109
f 175/209/110 178/212/110 195/213/110
f 175/209/110 195/213/110 193/210/110
f 178/194/111 180/197/111 196/214/111
f 178/194/111 196/214/111 195/215/111
f 180/216/112 182/217/112 197/218/112
f 180/216/112 197/218/112 196/219/112
f 182/203/113 184/202/113 198/220/113
f 182/203/113 198/220/113 197/221/113
f 184/202/114 186/205/114 199/222/114
f 184/202/114 199/222/114 198/220/114
f 186/223/115 188/224/115 200/225/115
f 186/223/115 200/225/115 199/226/115
f 188/197/116 190/194/116 201/215/116
f 188/197/116 201/215/116 200/214/116
f 190/227/117 192/228/117 202/229/117
f 190/227/117 202/229/117 201/230/117
f 192/228/118 176/208/118 194/211/118
f 192/207/118 194/231/118 202/232/118
f 194/211/119 193/210/119 203/233/119
f 193/210/120 195/213/120 203/233/120
f 195/213/121 196/219/121 203/233/121
f 196/219/122 197/218/122 203/233/122
f 197/218/123 198/234/123 203/233/123
f 198/234/124 199/226/124 203/233/124
f 199/226/125 200/225/125 203/233/125
f 200/225/126 201/230/126 203/233/126
f 201/230/127 202/229/127 203/233/127
f 202/229/128 194/211/128 203/233/128
f 204/235/129 205/236/129 206/237/129
f 204/235/129 207/238/129 205/236/129
f 204/235/129 208/239/129 207/238/129
f 204/235/129 209/240/129 208/239/129
f 204/235/129 210/241/129 209/240/129
f 204/235/129 211/242/129 210/241/129
f 204/235/129 212/243/129 211/242/129
f 204/235/129 206/237/129 212/243/129
f 206/244/130 205/245/130 213/246/130
f 206/244/130 213/246/130 214/247/130
f 205/248/131 207/249/131 215/250/131
f 205/248/131 215/250/131 213/251/131
f 207/249/132 208/252/132 216/253/132
f 207/249/132 216/253/132 215/250/132
f 208/254/133 209/255/133 217/256/133
f 208/254/133 217/256/133 216/257/133
f 209/255/134 210/258/134 218/259/134
f 209/255/134 218/259/134 217/256/134
f 210/252/135 211/249/135 219/250/135
f 210/252/135 219/250/135 218/253/135
f 211/249/136 212/248/136 220/251/136
f 211/249/136 220/251/136 219/250/136
f 212/260/137 206/244/137 214/247/137
f 212/260/137 214/247/137 220/261/137
f 214/237/138 213/236/138 221/235/138
f 213/236/138 215/238/138 221/235/138
f 215/238/138 216/239/138 221/235/138
f 216/239/138 217/240/138 221/235/138
f 217/240/138 218/241/138 221/235/138
f 218/241/138 219/242/138 221/235/138
f 219/242/138 220/243/138 221/235/138
f 220/243/138 214/237/138 221/235/138
f 222/262/139 223/263/139 224/264/139
f 222/262/139 224/264/139 225/265/139
f 226/266/140 227/267/140 228/268/140
f 226/266/140 228/268/140 229/269/140
f 225/270/141 224/271/141 229/272/141
f 225/270/141 229/272/141 228/273/141
f 227/273/142 226/272/142 223/271/142
f 227/273/142 223/271/142 222/270/142
f 227/274/143 222/275/143 225/276/143
f 227/274/143 225/276/143 228/277/143
f 223/275/144 226/274/144 229/277/144
f 223/275/144 229/277/144 224/276/144
f 230/278/145 231/279/145 232/280/145
f 230/278/145 232/280/145 233/281/145
f 234/282/146 235/283/146 236/284/146
f 234/282/146 236/284/146 237/285/146
f 233/286/147 232/287/147 237/288/147
f 233/286/147 237/288/147 236/289/147
f 235/289/148 234/288/148 231/287/148
f 235/289/148 231/287/148 230/286/148
f 235/290/149 230/291/149 233/292/149
f 235/290/149 233/292/149 236/293/149
f 231/291/150 234/290/150 237/293/150
f 231/291/150 237/293/150 232/292/150
f 238/294/151 239/295/151 240/296/151
f 238/294/151 240/296/151 241/297/151
f 242/298/152 243/299/152 244/300/152
f 242/298/152 244/300/152 245/301/152
f 241/302/153 240/303/153 245/304/153
f 241/302/153 245/304/153 244/305/153
f 243/305/154 242/304/154 239/303/154
f 243/305/154 239/303/154 238/302/154
f 243/306/155 238/307/155 241/308/155
f 243/306/155 241/308/155 244/309/155
f 239/307/156 242/306/156 245/309/156
f 239/307/156 245/309/156 240/308/156
f 246/310/157 247/311/157 248/312/157
f 246/310/157 248/312/157 249/313/157
f 250/314/158 251/315/158 252/316/158
f 250/314/158 252/316/158 253/317/158
f 249/318/159 248/319/159 253/320/159
f 249/318/159 253/320/159 252/321/159
f 251/321/160 250/320/160 247/319/160
f 251/321/160 247/319/160 246/318/160
f 251/322/161 246/323/161 249/324/161
f 251/322/161 249/324/161 252/325/161
f 247/323/162 250/322/162 253/325/162
f 247/323/162 253/325/162 248/324/162
f 254/326/163 255/327/163 256/328/163
f 254/326/163 256/328/163 257/329/163
f 258/330/164 259/331/164 260/332/164
f 258/330/164 260/332/164 261/333/164
f 257/334/165 256/335/165 261/336/165
f 257/334/165 261/336/165 260/337/165
f 259/337/166 258/336/166 255/335/166
f 259/337/166 255/335/166 254/334/166
f 259/338/167 254/339/167 257/340/167
f 259/338/167 257/340/167 260/341/167
f 255/339/168 258/338/168 261/341/168
f 255/339/168 261/341/168 256/340/168
f 262/342/169 263/343/169 264/344/169
f 262/342/169 264/344/169 265/345/169
f 266/346/170 267/347/170 268/348/170
f 266/346/170 268/348/170 269/349/170
f 265/350/171 264/351/171 269/352/171
f 265/350/171 269/352/171 268/353/171
f 267/353/172 266/352/172 263/351/172
f 267/353/172 263/351/172 262/350/172
f 267/354/173 262/355/173 265/356/173
f 267/354/173 265/356/173 268/357/173
f 263/355/174 266/354/174 269/357/174
f 263/355/174 269/357/174 264/356/174
f 270/358/175 271/359/175 272/360/175
f 270/358/175 272/360/175 273/361/175
f 274/362/176 275/363/176 276/364/176
f 274/362/176 276/364/176 277/365/176
f 273/366/177 272/367/177 277/368/177
f 273/366/177 277/368/177 276/369/177
f 275/369/178 274/368/178 271/367/178
f 275/369/178 271/367/178 270/366/178
f 275/370/179 270/371/179 273/372/179
f 275/370/179 273/372/179 276/373/179
f 271/371/180 274/370/180 277/373/180
f 271/371/180 277/373/180 272/372/180
f 278/374/181 279/375/181 280/376/181
f 278/374/181 280/376/181 281/377/181
f 282/378/182 283/379/182 284/380/182
f 282/378/182 284/380/182 285/381/182
f 281/382/183 280/383/183 285/384/183
f 281/382/183 285/384/183 284/385/183
f 283/385/184 282/384/184 279/383/184
f 283/385/184 279/383/184 278/382/184
f 283/386/185 278/387/185 281/388/185
f 283/386/185 281/388/185 284/389/185
f 279/387/186 282/386/186 285/389/186
f 279/387/186 285/389/186 280/388/186
f 286/390/187 287/391/187 288/392/187
f 286/390/187 288/392/187 289/393/187
f 290/394/188 291/395/188 292/396/188
f 290/394/188 292/396/188 293/397/188
f 289/398/189 288/399/189 293/400/189
f 289/398/189 293/400/189 292/401/189
f 291/401/190 290/400/190 287/399/190
f 291/401/190 287/399/190 286/398/190
f 291/402/191 286/403/191 289/404/191
f 291/402/191 289/404/191 292/405/191
f 287/403/192 290/402/192 293/405/192
f 287/403/192 293/405/192 288/404/192
f 294/406/193 295/407/193 296/408/193
f 294/406/193 297/409/193 295/407/193
f 294/406/193 298/410/193 297/409/193
f 294/406/193 299/411/193 298/410/193
f 294/406/193 300/412/193 299/411/193
f 294/406/193 301/413/193 300/412/193
f 294/406/193 302/414/193 301/413/193
f 294/406/193 296/408/193 302/414/193
f 296/415/194 295/416/194 303/417/194
f 296/415/194 303/417/194 304/418/194
f 295/419/195 297/420/195 305/421/195
f 295/419/195 305/421/195 303/422/195
f 297/420/196 298/423/196 306/424/196
f 297/420/196 306/424/196 305/421/196
f 298/416/197 299/415/197 307/418/197
f 298/416/197 307/418/197 306/417/197
f 299/415/198 300/425/198 308/426/198
f 299/415/198 308/426/198 307/418/198
f 300/423/199 301/420/199 309/421/199
f 300/423/199 309/421/199 308/424/199
f 301/420/200 302/419/200 310/422/200
f 301/420/200 310/422/200 309/421/200
f 302/425/201 296/415/201 304/418/201
f 302/425/201 304/418/201 310/426/201
f 304/427/202 303/428/202 311/429/202
f 303/428/202 305/430/202 311/429/202
f 305/430/202 306/431/202 311/429/202
f 306/431/202 307/432/202 311/429/202
f 307/432/202 308/433/202 311/429/202
f 308/433/202 309/434/202 311/429/202
f 309/434/202 310/435/202 311/429/202
f 310/435/202 304/427/202 311/429/202
f 312/436/203 313/437/203 314/438/203
f 312/436/203 314/438/203 315/439/203
f 316/440/204 317/441/204 318/442/204
f 316/440/204 318/442/204 319/443/204
f 315/444/205 314/445/205 319/446/205
f 315/444/205 319/446/205 318/447/205
f 317/447/206 316/446/206 313/445/206
f 317/447/206 313/445/206 312/444/206
f 317/448/207 312/449/207 315/450/207
f 317/448/207 315/450/207 318/451/207
f 313/452/208 316/453/208 319/454/208
f 313/452/208 319/454/208 314/455/208
f 320/456/203 321/457/203 322/458/203
f 320/456/203 322/458/203 323/459/203
f 324/460/204 325/461/204 326/462/204
f 324/460/204 326/462/204 327/463/204
f 323/464/209 322/465/209 327/466/209
f 323/464/209 327/466/209 326/467/209
f 325/467/210 324/466/210 321/465/210
f 325/467/210 321/465/210 320/464/210
f 325/468/211 320/469/211 323/470/211
f 325/468/211 323/470/211 326/471/211
f 321/472/212 324/472/212 327/473/212
f 321/472/212 327/473/212 322/473/212
f 328/474/203 329/475/203 330/476/203
f 328/474/203 330/476/203 331/477/203
f 332/478/204 333/479/204 334/480/204
f 332/478/204 334/480/204 335/481/204
f 331/482/209 330/483/209 335/484/209
f 331/482/209 335/484/209 334/485/209
f 333/485/210 332/484/210 329/483/210
f 333/485/210 329/483/210 328/482/210
f 333/486/211 328/487/211 331/488/211
f 333/486/211 331/488/211 334/489/211
f 329/490/212 332/490/212 335/491/212
f 329/490/212 335/491/212 330/491/212
f 336/492/213 337/493/213 338/494/213
f 336/492/213 338/494/213 339/495/213
f 340/496/214 341/497/214 342/498/214
f 340/496/214 342/498/214 343/499/214
f 339/500/215 338/501/215 343/502/215
f 339/500/215 343/502/215 342/503/215
f 341/503/216 340/502/216 337/501/216
f 341/503/216 337/501/216 336/500/216
f 341/504/217 336/505/217 339/506/217
f 341/504/217 339/506/217 342/507/217
f 337/508/218 340/509/218 343/510/218
f 337/508/218 343/510/218 338/511/218
f 344/512/213 345/513/213 346/514/213
f 344/512/213 346/514/213 347/515/213
f 348/516/214 349/517/214 350/518/214
f 348/516/214 350/518/214 351/519/214
f 347/520/219 346/521/219 351/522/219
f 347/520/219 351/522/219 350/523/219
f 349/523/220 348/522/220 345/521/220
f 349/523/220 345/521/220 344/520/220
f 349/524/221 344/524/221 347/525/221
f 349/524/221 347/525/221 350/525/221
f 345/526/222 348/527/222 351/528/222
f 345/526/222 351/528/222 346/529/222
f 352/530/213 353/531/213 354/532/213
f 352/530/213 354/532/213 355/533/213
f 356/534/214 357/535/214 358/536/214
f 356/534/214 358/536/214 359/537/214
f 355/538/219 354/539/219 359/540/219
f 355/538/219 359/540/219 358/541/219
f 357/541/220 356/540/220 353/539/220
f 357/541/220 353/539/220 352/538/220
f 357/542/221 352/542/221 355/543/221
f 357/542/221 355/543/221 358/543/221
f 353/544/222 356/545/222 359/546/222
f 353/544/222 359/546/222 354/547/222
f 360/548/223 361/549/223 362/550/223
f 360/548/223 362/550/223 363/551/223
f 361/552/224 364/553/224 365/554/224
f 361/552/224 365/554/224 362/555/224
f 364/553/225 366/556/225 367/557/225
f 364/553/225 367/557/225 365/554/225
f 366/556/226 368/558/226 369/559/226
f 366/556/226 369/559/226 367/557/226
f 368/549/227 370/548/227 371/551/227
f 368/549/227 371/551/227 369/550/227
f 370/548/228 372/560/228 373/561/228
f 370/548/228 373/561/228 371/551/228
f 372/558/229 374/556/229 375/557/229
f 372/558/229 375/557/229 373/559/229
f 374/556/230 376/553/230 377/554/230
f 374/556/230 377/554/230 375/557/230
f 376/553/231 378/552/231 379/555/231
f 376/553/231 379/555/231 377/554/231
f 378/560/232 360/548/232 363/551/232
f 378/560/232 363/551/232 379/561/232
f 363/562/233 362/563/233 380/564/233
f 363/551/233 380/565/233 381/566/233
f 362/563/234 365/567/234 382/568/234
f 362/563/234 382/568/234 380/564/234
f 365/554/235 367/557/235 383/569/235
f 365/554/235 383/569/235 382/570/235
f 367/571/236 369/572/236 384/573/236
f 367/571/236 384/573/236 383/574/236
f 369/550/237 371/551/237 385/566/237
f 369/572/237 385/575/237 384/573/237
f 371/551/238 373/561/238 386/576/238
f 371/551/238 386/576/238 385/566/238
f 373/577/239 375/578/239 387/579/239
f 373/577/239 387/579/239 386/580/239
f 375/557/240 377/554/240 388/570/240
f 375/557/240 388/570/240 387/569/240
f 377/581/241 379/582/241 389/583/241
f 377/581/241 389/583/241 388/584/241
f 379/561/242 363/551/242 381/566/242
f 379/582/242 381/585/242 389/583/242
f 381/585/243 380/564/243 390/586/243
f 380/564/244 382/568/244 390/586/244
f 382/568/245 383/574/245 390/586/245
f 383/574/246 384/573/246 390/586/246
f 384/573/247 385/575/247 390/586/247
f 385/575/248 386/580/248 390/586/248
f 386/580/249 387/579/249 390/586/249
f 387/579/250 388/584/250 390/586/250
f 388/584/251 389/583/251 390/586/251
f 389/583/252 381/585/252 390/586/252
f 391/587/253 392/588/253 393/589/253
f 391/587/253 393/589/253 394/590/253
f 395/591/254 396/592/254 397/593/254
f 395/591/254 397/593/254 398/594/254
f 394/595/255 393/596/255 398/597/255
f 394/595/255 398/597/255 397/598/255
f 396/599/256 395/600/256 392/601/256
f 396/599/256 392/601/256 391/602/256
f 396/599/257 391/602/257 394/595/257
f 396/599/257 394/595/257 397/598/257
f 392/601/258 395/600/258 398/597/258
f 392/601/258 398/597/258 393/596/258
f 399/603/259 400/604/259 401/605/259
f 399/603/259 401/605/259 402/606/259
f 400/607/260 403/608/260 404/609/260
f 400/607/260 404/609/260 401/610/260
f 403/608/261 405/611/261 406/612/261
f 403/608/261 406/612/261 404/609/261
f 405/611/262 407/613/262 408/614/262
f 405/611/262 408/614/262 406/612/262
f 407/604/263 409/603/263 410/606/263
f 407/604/263 410/606/263 408/605/263
f 409/603/264 411/615/264 412/616/264
f 409/603/264 412/616/264 410/606/264
f 411/613/265 413/611/265 414/612/265
f 411/613/265 414/612/265 412/614/265
f 413/611/266 415/608/266 416/609/266
f 413/611/266 416/609/266 414/612/266
f 415/608/267 417/607/267 418/610/267
f 415/608/267 418/610/267 416/609/267
f 417/615/268 399/603/268 402/606/268
f 417/615/268 402/606/268 418/616/268
f 402/617/269 401/618/269 419/619/269
f 402/606/269 419/620/269 420/621/269
f 401/618/270 404/622/270 421/623/270
f 401/618/270 421/623/270 419/619/270
f 404/609/271 406/612/271 422/624/271
f 404/609/271 422/624/271 421/625/271
f 406/626/272 408/627/272 423/628/272
f 406/626/272 423/628/272 422/629/272
f 408/605/273 410/606/273 424/621/273
f 408/627/273 424/630/273 423/628/273
f 410/631/274 412/632/274 425/633/274
f 410/606/274 425/634/274 424/621/274
f 412/632/275 414/635/275 426/636/275
f 412/632/275 426/636/275 425/633/275
f 414/612/276 416/609/276 427/625/276
f 414/612/276 427/625/276 426/624/276
f 416/637/277 418/638/277 428/639/277
f 416/637/277 428/639/277 427/640/277
f 418/616/278 402/606/278 420/621/278
f 418/638/278 420/641/278 428/639/278
f 420/641/279 419/619/279 429/642/279
f 419/619/280 421/623/280 429/642/280
f 421/623/281 422/629/281 429/642/281
f 422/629/282 423/628/282 429/642/282
f 423/628/283 424/630/283 429/642/283
f 424/630/284 425/633/284 429/642/284
f 425/633/285 426/636/285 429/642/285
f 426/636/286 427/640/286 429/642/286
f 427/640/287 428/639/287 429/642/287
f 428/639/288 420/641/288 429/642/288
f 430/643/289 431/644/289 432/645/289
f 430/643/289 432/645/289 433/646/289
f 434/647/290 435/648/290 436/649/290
f 434/647/290 436/649/290 437/650/290
f 433/651/291 432/652/291 437/653/291
f 433/651/291 437/653/291 436/654/291
f 435/655/292 434/656/292 431/657/292
f 435/655/292 431/657/292 430/658/292
f 435/655/293 430/658/293 433/651/293
f 435/655/293 433/651/293 436/654/293
f 431/657/294 434/656/294 437/653/294
f 431/657/294 437/653/294 432/652/294
