# Top down wireframe of hull_bloom_heavy_cruiser.obj, 308 edges
# Generated by tools/gen_meshes.py. Edit the script, not this file.
v 0.665000 0.000000 0.720000
v 0.735000 0.000000 0.720000
v 0.735000 0.000000 0.140000
v 0.665000 0.000000 0.140000
v -0.625000 0.000000 0.140000
v -0.695000 0.000000 0.140000
v -0.695000 0.000000 0.720000
v -0.625000 0.000000 0.720000
v 0.432999 0.000000 1.972497
v 0.407001 0.000000 1.907503
v 0.007001 0.000000 2.067503
v 0.032999 0.000000 2.132497
v 0.055000 0.000000 1.700000
v -0.015000 0.000000 1.700000
v -0.015000 0.000000 2.100000
v 0.055000 0.000000 2.100000
v 0.390684 0.000000 1.920881
v 0.449316 0.000000 1.959119
v 0.749316 0.000000 1.499119
v 0.690684 0.000000 1.460881
v 0.686165 0.000000 1.471044
v 0.753835 0.000000 1.488956
v 0.933835 0.000000 0.808956
v 0.866165 0.000000 0.791044
v 0.865000 0.000000 0.800000
v 0.935000 0.000000 0.800000
v 0.935000 0.000000 0.060000
v 0.865000 0.000000 0.060000
v 0.866233 0.000000 0.069209
v 0.933767 0.000000 0.050791
v 0.753767 0.000000 -0.609209
v 0.686233 0.000000 -0.590791
v 0.690684 0.000000 -0.580881
v 0.749316 0.000000 -0.619119
v 0.449316 0.000000 -1.079119
v 0.390684 0.000000 -1.040881
v -0.015000 0.000000 -0.840000
v 0.055000 0.000000 -0.840000
v 0.055000 0.000000 -1.240000
v -0.015000 0.000000 -1.240000
v 0.405637 0.000000 -1.028083
v 0.434363 0.000000 -1.091917
v 0.034363 0.000000 -1.271917
v 0.005637 0.000000 -1.208083
v 0.034363 0.000000 -1.208083
v 0.005637 0.000000 -1.271917
v -0.394363 0.000000 -1.091917
v -0.365637 0.000000 -1.028083
v -0.351268 0.000000 -1.040013
v -0.408732 0.000000 -1.079987
v -0.728732 0.000000 -0.619987
v -0.671268 0.000000 -0.580013
v -0.665985 0.000000 -0.591754
v -0.734015 0.000000 -0.608246
v -0.894015 0.000000 0.051754
v -0.825985 0.000000 0.068246
v -0.825000 0.000000 0.060000
v -0.895000 0.000000 0.060000
v -0.895000 0.000000 0.800000
v -0.825000 0.000000 0.800000
v -0.825930 0.000000 0.791984
v -0.894070 0.000000 0.808016
v -0.734070 0.000000 1.488016
v -0.665930 0.000000 1.471984
v -0.671268 0.000000 1.460013
v -0.728732 0.000000 1.499987
v -0.408732 0.000000 1.959987
v -0.351268 0.000000 1.920013
v 0.007001 0.000000 2.132497
v 0.032999 0.000000 2.067503
v -0.367001 0.000000 1.907503
v -0.392999 0.000000 1.972497
v 0.454524 0.000000 1.934246
v 0.385476 0.000000 1.945754
v 0.405476 0.000000 2.065754
v 0.474524 0.000000 2.054246
v 0.453787 0.000000 2.092170
v 0.426213 0.000000 2.027830
v 0.006213 0.000000 2.207830
v 0.033787 0.000000 2.272170
v 0.055000 0.000000 2.100000
v -0.015000 0.000000 2.100000
v -0.015000 0.000000 2.240000
v 0.055000 0.000000 2.240000
v 0.411058 0.000000 2.040319
v 0.468942 0.000000 2.079681
v 0.808942 0.000000 1.579681
v 0.751058 0.000000 1.540319
v 0.746277 0.000000 1.550632
v 0.813723 0.000000 1.569368
v 1.013723 0.000000 0.849368
v 0.946277 0.000000 0.830632
v 0.945000 0.000000 0.840000
v 1.015000 0.000000 0.840000
v 1.015000 0.000000 0.040000
v 0.945000 0.000000 0.040000
v 0.946212 0.000000 0.049132
v 1.013788 0.000000 0.030868
v 0.813788 0.000000 -0.709132
v 0.746212 0.000000 -0.690868
v 0.385352 0.000000 -1.064950
v 0.454648 0.000000 -1.055050
v 0.474648 0.000000 -1.195050
v 0.405352 0.000000 -1.204950
v 0.751058 0.000000 -0.680319
v 0.808942 0.000000 -0.719681
v 0.468942 0.000000 -1.219681
v 0.411058 0.000000 -1.180319
v -0.015000 0.000000 -1.240000
v 0.055000 0.000000 -1.240000
v 0.055000 0.000000 -1.360000
v -0.015000 0.000000 -1.360000
v 0.427540 0.000000 -1.167293
v 0.452460 0.000000 -1.232707
v 0.032460 0.000000 -1.392707
v 0.007540 0.000000 -1.327293
v -0.414648 0.000000 -1.055050
v -0.345352 0.000000 -1.064950
v -0.365352 0.000000 -1.204950
v -0.434648 0.000000 -1.195050
v 0.032460 0.000000 -1.327293
v 0.007540 0.000000 -1.392707
v -0.412460 0.000000 -1.232707
v -0.387540 0.000000 -1.167293
v -0.371596 0.000000 -1.179549
v -0.428404 0.000000 -1.220451
v -0.788404 0.000000 -0.720451
v -0.731596 0.000000 -0.679549
v -0.725992 0.000000 -0.691728
v -0.794008 0.000000 -0.708272
v -0.974008 0.000000 0.031728
v -0.905992 0.000000 0.048272
v -0.905000 0.000000 0.040000
v -0.975000 0.000000 0.040000
v -0.975000 0.000000 0.840000
v -0.905000 0.000000 0.840000
v -0.906045 0.000000 0.831511
v -0.973955 0.000000 0.848489
v -0.793955 0.000000 1.568489
v -0.726045 0.000000 1.551511
v -0.345476 0.000000 1.945754
v -0.414524 0.000000 1.934246
v -0.434524 0.000000 2.054246
v -0.365476 0.000000 2.065754
v -0.731596 0.000000 1.539549
v -0.788404 0.000000 1.580451
v -0.428404 0.000000 2.080451
v -0.371596 0.000000 2.039549
v 0.006213 0.000000 2.272170
v 0.033787 0.000000 2.207830
v -0.386213 0.000000 2.027830
v -0.413787 0.000000 2.092170
v 0.815659 0.000000 0.054730
v 0.824341 0.000000 -0.014730
v 0.664341 0.000000 -0.034730
v 0.655659 0.000000 0.034730
v 0.803002 0.000000 -0.010596
v 0.836998 0.000000 0.050596
v 1.016998 0.000000 -0.049404
v 0.983002 0.000000 -0.110596
v 0.970878 0.000000 -0.099415
v 1.029122 0.000000 -0.060585
v 1.149122 0.000000 -0.240585
v 1.090878 0.000000 -0.279415
v 1.085000 0.000000 -0.260000
v 1.155000 0.000000 -0.260000
v 1.155000 0.000000 -0.460000
v 1.085000 0.000000 -0.460000
v 1.090878 0.000000 -0.440585
v 1.149122 0.000000 -0.479415
v 1.069122 0.000000 -0.599415
v 1.010878 0.000000 -0.560585
v 1.031511 0.000000 -0.546045
v 1.048489 0.000000 -0.613955
v 0.888489 0.000000 -0.653955
v 0.871511 0.000000 -0.586045
v 0.896998 0.000000 -0.589404
v 0.863002 0.000000 -0.650596
v 0.683002 0.000000 -0.550596
v 0.716998 0.000000 -0.489404
v 0.730596 0.000000 -0.503002
v 0.669404 0.000000 -0.536998
v 0.569404 0.000000 -0.356998
v 0.630596 0.000000 -0.323002
v 0.634826 0.000000 -0.336517
v 0.565174 0.000000 -0.343483
v 0.545174 0.000000 -0.143483
v 0.614826 0.000000 -0.136517
v 0.629611 0.000000 0.017365
v 0.690389 0.000000 -0.017365
v 0.610389 0.000000 -0.157365
v 0.549611 0.000000 -0.122635
v 0.854826 0.000000 0.023483
v 0.785174 0.000000 0.016517
v 0.765174 0.000000 0.216517
v 0.834826 0.000000 0.223483
v 0.794678 0.000000 0.254593
v 0.805322 0.000000 0.185407
v 0.545322 0.000000 0.145407
v 0.534678 0.000000 0.214593
v 0.689122 0.000000 0.019415
v 0.630878 0.000000 -0.019415
v 0.510878 0.000000 0.160585
v 0.569122 0.000000 0.199415
v 1.030389 0.000000 -0.097365
v 0.969611 0.000000 -0.062635
v 1.049611 0.000000 0.077365
v 1.110389 0.000000 0.042635
v 0.782635 0.000000 0.189611
v 0.817365 0.000000 0.250389
v 1.097365 0.000000 0.090389
v 1.062635 0.000000 0.029611
v 1.124341 0.000000 -0.294730
v 1.115659 0.000000 -0.225270
v 1.275659 0.000000 -0.205270
v 1.284341 0.000000 -0.274730
v 1.050878 0.000000 0.040585
v 1.109122 0.000000 0.079415
v 1.309122 0.000000 -0.220585
v 1.250878 0.000000 -0.259415
v 1.103002 0.000000 -0.490596
v 1.136998 0.000000 -0.429404
v 1.316998 0.000000 -0.529404
v 1.283002 0.000000 -0.590596
v 1.245068 0.000000 -0.242183
v 1.314932 0.000000 -0.237817
v 1.334932 0.000000 -0.557817
v 1.265068 0.000000 -0.562183
v 1.009988 0.000000 -0.598007
v 1.070012 0.000000 -0.561993
v 1.190012 0.000000 -0.761993
v 1.129988 0.000000 -0.798007
v 1.270472 0.000000 -0.541209
v 1.329528 0.000000 -0.578791
v 1.189528 0.000000 -0.798791
v 1.130472 0.000000 -0.761209
v 0.845214 0.000000 -0.623865
v 0.914786 0.000000 -0.616135
v 0.934786 0.000000 -0.796135
v 0.865214 0.000000 -0.803865
v 1.157316 0.000000 -0.745103
v 1.162684 0.000000 -0.814897
v 0.902684 0.000000 -0.834897
v 0.897316 0.000000 -0.765103
v 0.670878 0.000000 -0.500585
v 0.729122 0.000000 -0.539415
v 0.649122 0.000000 -0.659415
v 0.590878 0.000000 -0.620585
v 0.917365 0.000000 -0.769611
v 0.882635 0.000000 -0.830389
v 0.602635 0.000000 -0.670389
v 0.637365 0.000000 -0.609611
v 0.595659 0.000000 -0.305270
v 0.604341 0.000000 -0.374730
v 0.444341 0.000000 -0.394730
v 0.435659 0.000000 -0.325270
v 0.649441 0.000000 -0.621073
v 0.590559 0.000000 -0.658927
v 0.410559 0.000000 -0.378927
v 0.469441 0.000000 -0.341073
v 0.596998 0.000000 -0.109404
v 0.563002 0.000000 -0.170596
v 0.383002 0.000000 -0.070596
v 0.416998 0.000000 -0.009404
v 0.474730 0.000000 -0.355659
v 0.405270 0.000000 -0.364341
v 0.365270 0.000000 -0.044341
v 0.434730 0.000000 -0.035659
v 0.510472 0.000000 0.198791
v 0.569528 0.000000 0.161209
v 0.429528 0.000000 -0.058791
v 0.370472 0.000000 -0.021209
v 0.860000 0.000000 -0.215000
v 0.860000 0.000000 -0.145000
v 0.940000 0.000000 -0.145000
v 0.940000 0.000000 -0.215000
v 0.940000 0.000000 -0.165000
v 0.940000 0.000000 -0.235000
v 0.860000 0.000000 -0.235000
v 0.860000 0.000000 -0.165000
v 0.912000 0.000000 -0.201000
v 0.968000 0.000000 -0.159000
v 1.028000 0.000000 -0.239000
v 0.972000 0.000000 -0.281000
v 0.906796 0.000000 -0.211068
v 0.973204 0.000000 -0.188932
v 0.993204 0.000000 -0.248932
v 0.926796 0.000000 -0.271068
v 0.968695 0.000000 -0.244348
v 1.031305 0.000000 -0.275652
v 0.991305 0.000000 -0.355652
v 0.928695 0.000000 -0.324348
v 0.960000 0.000000 -0.305000
v 0.960000 0.000000 -0.375000
v 0.860000 0.000000 -0.375000
v 0.860000 0.000000 -0.305000
v 0.940000 0.000000 -0.265000
v 0.940000 0.000000 -0.335000
v 0.860000 0.000000 -0.335000
v 0.860000 0.000000 -0.265000
v 0.891305 0.000000 -0.324348
v 0.828695 0.000000 -0.355652
v 0.788695 0.000000 -0.275652
v 0.851305 0.000000 -0.244348
v 0.828695 0.000000 -0.164348
v 0.891305 0.000000 -0.195652
v 0.851305 0.000000 -0.275652
v 0.788695 0.000000 -0.244348
v 0.826796 0.000000 -0.188932
v 0.893204 0.000000 -0.211068
v 0.873204 0.000000 -0.271068
v 0.806796 0.000000 -0.248932
v 0.971068 0.000000 -0.226796
v 0.948932 0.000000 -0.293204
v 0.888932 0.000000 -0.273204
v 0.911068 0.000000 -0.206796
v 0.969122 0.000000 -0.280585
v 0.910878 0.000000 -0.319415
v 0.870878 0.000000 -0.259415
v 0.929122 0.000000 -0.220585
v 0.889122 0.000000 -0.319415
v 0.830878 0.000000 -0.280585
v 0.870878 0.000000 -0.220585
v 0.929122 0.000000 -0.259415
v 0.851068 0.000000 -0.293204
v 0.828932 0.000000 -0.226796
v 0.888932 0.000000 -0.206796
v 0.911068 0.000000 -0.273204
v 1.155652 0.000000 -0.091305
v 1.124348 0.000000 -0.028695
v 1.204348 0.000000 0.011305
v 1.235652 0.000000 -0.051305
v 1.244749 0.000000 0.004749
v 1.195251 0.000000 -0.044749
v 1.135251 0.000000 0.015251
v 1.184749 0.000000 0.064749
v 1.140585 0.000000 0.069122
v 1.179415 0.000000 0.010878
v 1.119415 0.000000 -0.029122
v 1.080585 0.000000 0.029122
v 1.169122 0.000000 -0.040585
v 1.110878 0.000000 -0.079415
v 1.070878 0.000000 -0.019415
v 1.129122 0.000000 0.019415
v 1.239415 0.000000 0.029122
v 1.200585 0.000000 -0.029122
v 1.140585 0.000000 0.010878
v 1.179415 0.000000 0.069122
v 1.211511 0.000000 0.033955
v 1.228489 0.000000 -0.033955
v 1.148489 0.000000 -0.053955
v 1.131511 0.000000 0.013955
v 1.148932 0.000000 0.073204
v 1.171068 0.000000 0.006796
v 1.111068 0.000000 -0.013204
v 1.088932 0.000000 0.053204
v 1.115251 0.000000 0.004749
v 1.164749 0.000000 -0.044749
v 1.104749 0.000000 -0.104749
v 1.055251 0.000000 -0.055251
v 1.113204 0.000000 -0.068932
v 1.046796 0.000000 -0.091068
v 1.026796 0.000000 -0.031068
v 1.093204 0.000000 -0.008932
v 1.113955 0.000000 -0.091511
v 1.046045 0.000000 -0.108489
v 1.026045 0.000000 -0.028489
v 1.093955 0.000000 -0.011511
v 1.120585 0.000000 -0.030878
v 1.159415 0.000000 -0.089122
v 1.099415 0.000000 -0.129122
v 1.060585 0.000000 -0.070878
v 1.089122 0.000000 -0.039415
v 1.030878 0.000000 -0.000585
v 1.070878 0.000000 0.059415
v 1.129122 0.000000 0.020585
v 0.317093 0.000000 1.114879
v 0.322907 0.000000 1.045121
v 0.082907 0.000000 1.025121
v 0.077093 0.000000 1.094879
v 0.302365 0.000000 1.049768
v 0.337635 0.000000 1.110232
v 0.577635 0.000000 0.970232
v 0.542365 0.000000 0.909768
v 0.529611 0.000000 0.922635
v 0.590389 0.000000 0.957365
v 0.750389 0.000000 0.677365
v 0.689611 0.000000 0.642635
v 0.685078 0.000000 0.657672
v 0.754922 0.000000 0.662328
v 0.774922 0.000000 0.362328
v 0.705078 0.000000 0.357672
v 0.712373 0.000000 0.381488
v 0.767627 0.000000 0.338512
v 0.627627 0.000000 0.158512
v 0.572373 0.000000 0.201488
v 0.594246 0.000000 0.214524
v 0.605754 0.000000 0.145476
v 0.365754 0.000000 0.105476
v 0.354246 0.000000 0.174524
v 0.379415 0.000000 0.169122
v 0.340585 0.000000 0.110878
v 0.100585 0.000000 0.270878
v 0.139415 0.000000 0.329122
v 0.150389 0.000000 0.317365
v 0.089611 0.000000 0.282635
v -0.070389 0.000000 0.562635
v -0.009611 0.000000 0.597365
v -0.005078 0.000000 0.582328
v -0.074922 0.000000 0.577672
v -0.094922 0.000000 0.877672
v -0.025078 0.000000 0.882328
v 0.052373 0.000000 1.081488
v 0.107627 0.000000 1.038512
v -0.032373 0.000000 0.858512
v -0.087627 0.000000 0.901488
v 0.355000 0.000000 1.080000
v 0.285000 0.000000 1.080000
v 0.285000 0.000000 1.380000
v 0.355000 0.000000 1.380000
v 0.316517 0.000000 1.414826
v 0.323483 0.000000 1.345174
v -0.076517 0.000000 1.305174
v -0.083483 0.000000 1.374826
v 0.110389 0.000000 1.077365
v 0.049611 0.000000 1.042635
v -0.110389 0.000000 1.322635
v -0.049611 0.000000 1.357365
v 0.587627 0.000000 0.918512
v 0.532373 0.000000 0.961488
v 0.672373 0.000000 1.141488
v 0.727627 0.000000 1.098512
v 0.300236 0.000000 1.351114
v 0.339764 0.000000 1.408886
v 0.719764 0.000000 1.148886
v 0.680236 0.000000 1.091114
v 0.722907 0.000000 0.625121
v 0.717093 0.000000 0.694879
v 0.957093 0.000000 0.714879
v 0.962907 0.000000 0.645121
v 0.669868 0.000000 1.102194
v 0.730132 0.000000 1.137806
v 0.990132 0.000000 0.697806
v 0.929868 0.000000 0.662194
v 0.720585 0.000000 0.330878
v 0.759415 0.000000 0.389122
v 0.999415 0.000000 0.229122
v 0.960585 0.000000 0.170878
v 0.925030 0.000000 0.678543
v 0.994970 0.000000 0.681457
v 1.014970 0.000000 0.201457
v 0.945030 0.000000 0.198543
v 0.569611 0.000000 0.162635
v 0.630389 0.000000 0.197365
v 0.790389 0.000000 -0.082635
v 0.729611 0.000000 -0.117365
v 0.951776 0.000000 0.220698
v 1.008224 0.000000 0.179302
v 0.788224 0.000000 -0.120698
v 0.731776 0.000000 -0.079302
v 0.325089 0.000000 0.137506
v 0.394911 0.000000 0.142494
v 0.414911 0.000000 -0.137506
v 0.345089 0.000000 -0.142494
v 0.756336 0.000000 -0.065192
v 0.763664 0.000000 -0.134808
v 0.383664 0.000000 -0.174808
v 0.376336 0.000000 -0.105192
v 0.091327 0.000000 0.320071
v 0.148673 0.000000 0.279929
v 0.008673 0.000000 0.079929
v -0.048673 0.000000 0.120071
v 0.398007 0.000000 -0.109988
v 0.361993 0.000000 -0.170012
v -0.038007 0.000000 0.069988
v -0.001993 0.000000 0.130012
v -0.042907 0.000000 0.614879
v -0.037093 0.000000 0.545121
v -0.277093 0.000000 0.525121
v -0.282907 0.000000 0.594879
v 0.010470 0.000000 0.117222
v -0.050470 0.000000 0.082778
v -0.310470 0.000000 0.542778
v -0.249530 0.000000 0.577222
v -0.042365 0.000000 0.910232
v -0.077635 0.000000 0.849768
v -0.317635 0.000000 0.989768
v -0.282365 0.000000 1.050232
v -0.245033 0.000000 0.561520
v -0.314967 0.000000 0.558480
v -0.334967 0.000000 1.018480
v -0.265033 0.000000 1.021520
v -0.108841 0.000000 1.359829
v -0.051159 0.000000 1.320171
v -0.271159 0.000000 1.000171
v -0.328841 0.000000 1.039829
v -0.099415 0.000000 1.209122
v -0.060585 0.000000 1.150878
v -0.120585 0.000000 1.110878
v -0.159415 0.000000 1.169122
v -0.325000 0.000000 0.620000
v -0.395000 0.000000 0.620000
v -0.395000 0.000000 0.700000
v -0.325000 0.000000 0.700000
v -0.286796 0.000000 0.671068
v -0.353204 0.000000 0.648932
v -0.373204 0.000000 0.708932
v -0.306796 0.000000 0.731068
v -0.286045 0.000000 0.648489
v -0.353955 0.000000 0.631511
v -0.373955 0.000000 0.711511
v -0.306045 0.000000 0.728489
v -0.299000 0.000000 0.612000
v -0.341000 0.000000 0.668000
v -0.261000 0.000000 0.728000
v -0.219000 0.000000 0.672000
v -0.328932 0.000000 0.686796
v -0.351068 0.000000 0.753204
v -0.291068 0.000000 0.773204
v -0.268932 0.000000 0.706796
v -0.228932 0.000000 0.666796
v -0.251068 0.000000 0.733204
v -0.191068 0.000000 0.753204
v -0.168932 0.000000 0.686796
v -0.160585 0.000000 0.749122
v -0.199415 0.000000 0.690878
v -0.259415 0.000000 0.730878
v -0.220585 0.000000 0.789122
v -0.195251 0.000000 0.724749
v -0.244749 0.000000 0.675251
v -0.304749 0.000000 0.735251
v -0.255251 0.000000 0.784749
v -0.307001 0.000000 0.627503
v -0.332999 0.000000 0.692497
v -0.232999 0.000000 0.732497
v -0.207001 0.000000 0.667503
v -0.320585 0.000000 0.690878
v -0.359415 0.000000 0.749122
v -0.299415 0.000000 0.789122
v -0.260585 0.000000 0.730878
v -0.330878 0.000000 0.680585
v -0.389122 0.000000 0.719415
v -0.349122 0.000000 0.779415
v -0.290878 0.000000 0.740585
v -0.240000 0.000000 0.795000
v -0.240000 0.000000 0.725000
v -0.320000 0.000000 0.725000
v -0.320000 0.000000 0.795000
v 0.666045 0.000000 0.391511
v 0.733955 0.000000 0.408489
v 0.753955 0.000000 0.328489
v 0.686045 0.000000 0.311511
v 0.713204 0.000000 0.351068
v 0.646796 0.000000 0.328932
v 0.626796 0.000000 0.388932
v 0.693204 0.000000 0.411068
v 0.692000 0.000000 0.341000
v 0.748000 0.000000 0.299000
v 0.688000 0.000000 0.219000
v 0.632000 0.000000 0.261000
v 0.693204 0.000000 0.251068
v 0.626796 0.000000 0.228932
v 0.606796 0.000000 0.288932
v 0.673204 0.000000 0.311068
v 0.668489 0.000000 0.273955
v 0.651511 0.000000 0.206045
v 0.571511 0.000000 0.226045
v 0.588489 0.000000 0.293955
v 0.640000 0.000000 0.335000
v 0.640000 0.000000 0.265000
v 0.580000 0.000000 0.265000
v 0.580000 0.000000 0.335000
v 0.609122 0.000000 0.279415
v 0.550878 0.000000 0.240585
v 0.510878 0.000000 0.300585
v 0.569122 0.000000 0.339415
v 0.613204 0.000000 0.311068
v 0.546796 0.000000 0.288932
v 0.526796 0.000000 0.348932
v 0.593204 0.000000 0.371068
v 0.564749 0.000000 0.295251
v 0.515251 0.000000 0.344749
v 0.595251 0.000000 0.424749
v 0.644749 0.000000 0.375251
v 0.700000 0.000000 0.435000
v 0.700000 0.000000 0.365000
v 0.620000 0.000000 0.365000
v 0.620000 0.000000 0.435000
v 0.660000 0.000000 0.435000
v 0.660000 0.000000 0.365000
v 0.600000 0.000000 0.365000
v 0.600000 0.000000 0.435000
v 0.691068 0.000000 0.373204
v 0.668932 0.000000 0.306796
v 0.608932 0.000000 0.326796
v 0.631068 0.000000 0.393204
v 0.673204 0.000000 0.311068
v 0.606796 0.000000 0.288932
v 0.586796 0.000000 0.348932
v 0.653204 0.000000 0.371068
v 0.609122 0.000000 0.280585
v 0.550878 0.000000 0.319415
v 0.590878 0.000000 0.379415
v 0.649122 0.000000 0.340585
v 0.580000 0.000000 1.455000
v 0.580000 0.000000 1.385000
v 0.360000 0.000000 1.385000
v 0.360000 0.000000 1.455000
v 0.559000 0.000000 1.392000
v 0.601000 0.000000 1.448000
v 0.841000 0.000000 1.268000
v 0.799000 0.000000 1.212000
v 0.789118 0.000000 1.223529
v 0.850882 0.000000 1.256471
v 1.010882 0.000000 0.956471
v 0.949118 0.000000 0.923529
v 0.945000 0.000000 0.940000
v 1.015000 0.000000 0.940000
v 1.015000 0.000000 0.660000
v 0.945000 0.000000 0.660000
v 0.952373 0.000000 0.681488
v 1.007627 0.000000 0.638512
v 0.867627 0.000000 0.458512
v 0.812373 0.000000 0.501488
v 0.837093 0.000000 0.514879
v 0.842907 0.000000 0.445121
v 0.602907 0.000000 0.425121
v 0.597093 0.000000 0.494879
v 0.622163 0.000000 0.487089
v 0.577837 0.000000 0.432911
v 0.357837 0.000000 0.612911
v 0.402163 0.000000 0.667089
v 0.410882 0.000000 0.656471
v 0.349118 0.000000 0.623529
v 0.189118 0.000000 0.923529
v 0.250882 0.000000 0.956471
v 0.255000 0.000000 0.940000
v 0.185000 0.000000 0.940000
v 0.185000 0.000000 1.220000
v 0.255000 0.000000 1.220000
v 0.331327 0.000000 1.440071
v 0.388673 0.000000 1.399929
v 0.248673 0.000000 1.199929
v 0.191327 0.000000 1.240071
v 0.615000 0.000000 1.420000
v 0.545000 0.000000 1.420000
v 0.545000 0.000000 1.720000
v 0.615000 0.000000 1.720000
v 0.578160 0.000000 1.754952
v 0.581840 0.000000 1.685048
v 0.201840 0.000000 1.665048
v 0.198160 0.000000 1.734952
v 0.390389 0.000000 1.437365
v 0.329611 0.000000 1.402635
v 0.169611 0.000000 1.682635
v 0.230389 0.000000 1.717365
v 0.558312 0.000000 1.692529
v 0.601688 0.000000 1.747471
v 0.981688 0.000000 1.447471
v 0.938312 0.000000 1.392529
v 0.928970 0.000000 1.403810
v 0.991030 0.000000 1.436190
v 1.231030 0.000000 0.976190
v 1.168970 0.000000 0.943810
v 0.959000 0.000000 0.632000
v 1.001000 0.000000 0.688000
v 1.241000 0.000000 0.508000
v 1.199000 0.000000 0.452000
v 1.165030 0.000000 0.958543
v 1.234970 0.000000 0.961457
v 1.254970 0.000000 0.481457
v 1.185030 0.000000 0.478543
v 0.808284 0.000000 0.465199
v 0.871716 0.000000 0.494801
v 1.011716 0.000000 0.194801
v 0.948284 0.000000 0.165199
v 1.192670 0.000000 0.501864
v 1.247330 0.000000 0.458136
v 1.007330 0.000000 0.158136
v 0.952670 0.000000 0.201864
v 0.565089 0.000000 0.457506
v 0.634911 0.000000 0.462494
v 0.654911 0.000000 0.182494
v 0.585089 0.000000 0.177506
v 0.980000 0.000000 0.215000
v 0.980000 0.000000 0.145000
v 0.620000 0.000000 0.145000
v 0.620000 0.000000 0.215000
v 0.640762 0.000000 0.208177
v 0.599238 0.000000 0.151823
v 0.219238 0.000000 0.431823
v 0.260762 0.000000 0.488177
v 0.271030 0.000000 0.476190
v 0.208970 0.000000 0.443810
v -0.031030 0.000000 0.903810
v 0.031030 0.000000 0.936190
v 0.241000 0.000000 1.248000
v 0.199000 0.000000 1.192000
v -0.041000 0.000000 1.372000
v 0.001000 0.000000 1.428000
v 0.034970 0.000000 0.921457
v -0.034970 0.000000 0.918543
v -0.054970 0.000000 1.398543
v 0.014970 0.000000 1.401457
v 0.171776 0.000000 1.720698
v 0.228224 0.000000 1.679302
v 0.008224 0.000000 1.379302
v -0.048224 0.000000 1.420698
v 0.549122 0.000000 0.939415
v 0.490878 0.000000 0.900585
v 0.450878 0.000000 0.960585
v 0.509122 0.000000 0.999415
v 0.511068 0.000000 0.986796
v 0.488932 0.000000 1.053204
v 0.548932 0.000000 1.073204
v 0.571068 0.000000 1.006796
v 0.530878 0.000000 1.020585
v 0.589122 0.000000 1.059415
v 0.629122 0.000000 0.999415
v 0.570878 0.000000 0.960585
v 0.531068 0.000000 0.886796
v 0.508932 0.000000 0.953204
v 0.568932 0.000000 0.973204
v 0.591068 0.000000 0.906796
v 0.726796 0.000000 0.891068
v 0.793204 0.000000 0.868932
v 0.773204 0.000000 0.808932
v 0.706796 0.000000 0.831068
v 0.693204 0.000000 0.848932
v 0.626796 0.000000 0.871068
v 0.646796 0.000000 0.931068
v 0.713204 0.000000 0.908932
v 0.548932 0.000000 0.853204
v 0.571068 0.000000 0.786796
v 0.511068 0.000000 0.766796
v 0.488932 0.000000 0.833204
v 0.466045 0.000000 0.808489
v 0.533955 0.000000 0.791511
v 0.513955 0.000000 0.711511
v 0.446045 0.000000 0.728489
v 0.465000 0.000000 0.800000
v 0.535000 0.000000 0.800000
v 0.535000 0.000000 0.740000
v 0.465000 0.000000 0.740000
v 0.460585 0.000000 0.690878
v 0.499415 0.000000 0.749122
v 0.559415 0.000000 0.709122
v 0.520585 0.000000 0.650878
v 0.551068 0.000000 0.646796
v 0.528932 0.000000 0.713204
v 0.588932 0.000000 0.733204
v 0.611068 0.000000 0.666796
v 0.633955 0.000000 0.691511
v 0.566045 0.000000 0.708489
v 0.586045 0.000000 0.788489
v 0.653955 0.000000 0.771511
v 0.540585 0.000000 0.790878
v 0.579415 0.000000 0.849122
v 0.639415 0.000000 0.809122
v 0.600585 0.000000 0.750878
v 0.575000 0.000000 0.720000
v 0.505000 0.000000 0.720000
v 0.505000 0.000000 0.780000
v 0.575000 0.000000 0.780000
v 0.940000 0.000000 -0.165000
v 0.940000 0.000000 -0.235000
v 0.700000 0.000000 -0.235000
v 0.700000 0.000000 -0.165000
v 0.921993 0.000000 -0.230012
v 0.958007 0.000000 -0.169988
v 1.158007 0.000000 -0.289988
v 1.121993 0.000000 -0.350012
v 1.106233 0.000000 -0.329209
v 1.173767 0.000000 -0.310791
v 1.233767 0.000000 -0.530791
v 1.166233 0.000000 -0.549209
v 1.166233 0.000000 -0.530791
v 1.233767 0.000000 -0.549209
v 1.173767 0.000000 -0.769209
v 1.106233 0.000000 -0.750791
v 1.119929 0.000000 -0.731327
v 1.160071 0.000000 -0.788673
v 0.960071 0.000000 -0.928673
v 0.919929 0.000000 -0.871327
v 0.940000 0.000000 -0.865000
v 0.940000 0.000000 -0.935000
v 0.700000 0.000000 -0.935000
v 0.700000 0.000000 -0.865000
v 0.719415 0.000000 -0.870878
v 0.680585 0.000000 -0.929122
v 0.500585 0.000000 -0.809122
v 0.539415 0.000000 -0.750878
v 0.552893 0.000000 -0.768039
v 0.487107 0.000000 -0.791961
v 0.407107 0.000000 -0.571961
v 0.472893 0.000000 -0.548039
v 0.472893 0.000000 -0.571961
v 0.407107 0.000000 -0.548039
v 0.487107 0.000000 -0.328039
v 0.552893 0.000000 -0.351961
v 0.678512 0.000000 -0.172373
v 0.721488 0.000000 -0.227627
v 0.541488 0.000000 -0.367627
v 0.498512 0.000000 -0.312373
v 0.972893 0.000000 -0.211961
v 0.907107 0.000000 -0.188039
v 0.987107 0.000000 0.031961
v 1.052893 0.000000 0.008039
v 1.018160 0.000000 0.054952
v 1.021840 0.000000 -0.014952
v 0.641840 0.000000 -0.034952
v 0.638160 0.000000 0.034952
v 0.733524 0.000000 -0.189943
v 0.666476 0.000000 -0.210057
v 0.606476 0.000000 -0.010057
v 0.673524 0.000000 0.010057
v 1.161488 0.000000 -0.347627
v 1.118512 0.000000 -0.292373
v 1.298512 0.000000 -0.152373
v 1.341488 0.000000 -0.207627
v 1.000585 0.000000 -0.009122
v 1.039415 0.000000 0.049122
v 1.339415 0.000000 -0.150878
v 1.300585 0.000000 -0.209122
v 1.200000 0.000000 -0.575000
v 1.200000 0.000000 -0.505000
v 1.440000 0.000000 -0.505000
v 1.440000 0.000000 -0.575000
v 1.286796 0.000000 -0.191068
v 1.353204 0.000000 -0.168932
v 1.473204 0.000000 -0.528932
v 1.406796 0.000000 -0.551068
v 1.120585 0.000000 -0.789122
v 1.159415 0.000000 -0.730878
v 1.339415 0.000000 -0.850878
v 1.300585 0.000000 -0.909122
v 1.406995 0.000000 -0.528351
v 1.473005 0.000000 -0.551649
v 1.353005 0.000000 -0.891649
v 1.286995 0.000000 -0.868351
v 0.907503 0.000000 -0.912999
v 0.972497 0.000000 -0.887001
v 1.052497 0.000000 -1.087001
v 0.987503 0.000000 -1.112999
v 1.299302 0.000000 -0.851776
v 1.340698 0.000000 -0.908224
v 1.040698 0.000000 -1.128224
v 0.999302 0.000000 -1.071776
v 0.666233 0.000000 -0.890791
v 0.733767 0.000000 -0.909209
v 0.673767 0.000000 -1.129209
v 0.606233 0.000000 -1.110791
v 1.018160 0.000000 -1.065048
v 1.021840 0.000000 -1.134952
v 0.641840 0.000000 -1.154952
v 0.638160 0.000000 -1.085048
v 0.499929 0.000000 -0.751327
v 0.540071 0.000000 -0.808673
v 0.340071 0.000000 -0.948673
v 0.299929 0.000000 -0.891327
v 0.658550 0.000000 -1.090320
v 0.621450 0.000000 -1.149680
v 0.301450 0.000000 -0.949680
v 0.338550 0.000000 -0.890320
v 0.440000 0.000000 -0.525000
v 0.440000 0.000000 -0.595000
v 0.200000 0.000000 -0.595000
v 0.200000 0.000000 -0.525000
v 0.353204 0.000000 -0.908932
v 0.286796 0.000000 -0.931068
v 0.166796 0.000000 -0.571068
v 0.233204 0.000000 -0.548932
v 0.538007 0.000000 -0.309988
v 0.501993 0.000000 -0.370012
v 0.301993 0.000000 -0.250012
v 0.338007 0.000000 -0.189988
v 0.233005 0.000000 -0.571649
v 0.166995 0.000000 -0.548351
v 0.286995 0.000000 -0.208351
v 0.353005 0.000000 -0.231649
v 0.620171 0.000000 0.028841
v 0.659829 0.000000 -0.028841
v 0.339829 0.000000 -0.248841
v 0.300171 0.000000 -0.191159
v 0.793955 0.000000 -0.571511
v 0.726045 0.000000 -0.588489
v 0.706045 0.000000 -0.508489
v 0.773955 0.000000 -0.491511
v 0.726796 0.000000 -0.531068
v 0.793204 0.000000 -0.508932
v 0.813204 0.000000 -0.568932
v 0.746796 0.000000 -0.591068
v 0.755652 0.000000 -0.531305
v 0.724348 0.000000 -0.468695
v 0.804348 0.000000 -0.428695
v 0.835652 0.000000 -0.491305
v 0.779415 0.000000 -0.549122
v 0.740585 0.000000 -0.490878
v 0.800585 0.000000 -0.450878
v 0.839415 0.000000 -0.509122
v 0.800585 0.000000 -0.489122
v 0.839415 0.000000 -0.430878
v 0.899415 0.000000 -0.470878
v 0.860585 0.000000 -0.529122
v 0.845000 0.000000 -0.500000
v 0.915000 0.000000 -0.500000
v 0.915000 0.000000 -0.580000
v 0.845000 0.000000 -0.580000
v 0.860585 0.000000 -0.550878
v 0.899415 0.000000 -0.609122
v 0.839415 0.000000 -0.649122
v 0.800585 0.000000 -0.590878
v 0.740585 0.000000 -0.609122
v 0.779415 0.000000 -0.550878
v 0.839415 0.000000 -0.590878
v 0.800585 0.000000 -0.649122
v 0.748932 0.000000 -0.553204
v 0.771068 0.000000 -0.486796
v 0.831068 0.000000 -0.506796
v 0.808932 0.000000 -0.573204
v 0.785000 0.000000 -0.480000
v 0.855000 0.000000 -0.480000
v 0.855000 0.000000 -0.540000
v 0.785000 0.000000 -0.540000
v 1.428932 0.000000 -0.466796
v 1.451068 0.000000 -0.533204
v 1.391068 0.000000 -0.553204
v 1.368932 0.000000 -0.486796
v 1.375000 0.000000 -0.540000
v 1.305000 0.000000 -0.540000
v 1.305000 0.000000 -0.480000
v 1.375000 0.000000 -0.480000
v 1.408932 0.000000 -0.466796
v 1.431068 0.000000 -0.533204
v 1.371068 0.000000 -0.553204
v 1.348932 0.000000 -0.486796
v 0.506045 0.000000 -0.348489
v 0.573955 0.000000 -0.331511
v 0.593955 0.000000 -0.411511
v 0.526045 0.000000 -0.428489
v 0.595000 0.000000 -0.420000
v 0.525000 0.000000 -0.420000
v 0.525000 0.000000 -0.360000
v 0.595000 0.000000 -0.360000
v 0.560000 0.000000 -0.455000
v 0.560000 0.000000 -0.385000
v 0.640000 0.000000 -0.385000
v 0.640000 0.000000 -0.455000
v 0.673204 0.000000 -0.408932
v 0.606796 0.000000 -0.431068
v 0.586796 0.000000 -0.371068
v 0.653204 0.000000 -0.348932
v 0.664749 0.000000 -0.444749
v 0.615251 0.000000 -0.395251
v 0.675251 0.000000 -0.335251
v 0.724749 0.000000 -0.384749
v 0.729122 0.000000 -0.340585
v 0.670878 0.000000 -0.379415
v 0.630878 0.000000 -0.319415
v 0.689122 0.000000 -0.280585
v 0.668489 0.000000 -0.266045
v 0.651511 0.000000 -0.333955
v 0.571511 0.000000 -0.313955
v 0.588489 0.000000 -0.246045
v 0.640000 0.000000 -0.245000
v 0.640000 0.000000 -0.315000
v 0.580000 0.000000 -0.315000
v 0.580000 0.000000 -0.245000
v 0.569122 0.000000 -0.359415
v 0.510878 0.000000 -0.320585
v 0.550878 0.000000 -0.260585
v 0.609122 0.000000 -0.299415
v 0.660000 0.000000 -0.285000
v 0.660000 0.000000 -0.355000
v 0.600000 0.000000 -0.355000
v 0.600000 0.000000 -0.285000
v -0.631511 0.000000 1.373955
v -0.648489 0.000000 1.306045
v -0.888489 0.000000 1.366045
v -0.871511 0.000000 1.433955
v -0.668000 0.000000 1.319000
v -0.612000 0.000000 1.361000
v -0.432000 0.000000 1.121000
v -0.488000 0.000000 1.079000
v -0.494467 0.000000 1.093918
v -0.425533 0.000000 1.106082
v -0.365533 0.000000 0.766082
v -0.434467 0.000000 0.753918
v -0.432961 0.000000 0.771772
v -0.367039 0.000000 0.748228
v -0.467039 0.000000 0.468228
v -0.532961 0.000000 0.491772
v -0.518791 0.000000 0.509528
v -0.481209 0.000000 0.450472
v -0.701209 0.000000 0.310472
v -0.738791 0.000000 0.369528
v -0.712130 0.000000 0.374104
v -0.727870 0.000000 0.305896
v -0.987870 0.000000 0.365896
v -0.972130 0.000000 0.434104
v -0.952000 0.000000 0.421000
v -1.008000 0.000000 0.379000
v -1.188000 0.000000 0.619000
v -1.132000 0.000000 0.661000
v -1.125599 0.000000 0.646450
v -1.194401 0.000000 0.633550
v -1.254401 0.000000 0.953550
v -1.185599 0.000000 0.966450
v -1.187503 0.000000 0.947001
v -1.252497 0.000000 0.972999
v -1.132497 0.000000 1.272999
v -1.067503 0.000000 1.247001
v -0.898791 0.000000 1.429528
v -0.861209 0.000000 1.370472
v -1.081209 0.000000 1.230472
v -1.118791 0.000000 1.289528
v -0.607039 0.000000 1.328228
v -0.672961 0.000000 1.351772
v -0.572961 0.000000 1.631772
v -0.507039 0.000000 1.608228
v -0.531511 0.000000 1.653955
v -0.548489 0.000000 1.586045
v -0.948489 0.000000 1.686045
v -0.931511 0.000000 1.753955
v -0.845599 0.000000 1.406450
v -0.914401 0.000000 1.393550
v -0.974401 0.000000 1.713550
v -0.905599 0.000000 1.726450
v -0.443240 0.000000 1.069274
v -0.476760 0.000000 1.130726
v -0.256760 0.000000 1.250726
v -0.223240 0.000000 1.189274
v -0.568000 0.000000 1.599000
v -0.512000 0.000000 1.641000
v -0.212000 0.000000 1.241000
v -0.268000 0.000000 1.199000
v -0.407870 0.000000 0.725896
v -0.392130 0.000000 0.794104
v -0.132130 0.000000 0.734104
v -0.147870 0.000000 0.665896
v -0.274370 0.000000 1.213390
v -0.205630 0.000000 1.226610
v -0.105630 0.000000 0.706610
v -0.174370 0.000000 0.693390
v -0.528000 0.000000 0.459000
v -0.472000 0.000000 0.501000
v -0.292000 0.000000 0.261000
v -0.348000 0.000000 0.219000
v -0.172593 0.000000 0.712754
v -0.107407 0.000000 0.687246
v -0.287407 0.000000 0.227246
v -0.352593 0.000000 0.252754
v -0.754401 0.000000 0.333550
v -0.685599 0.000000 0.346450
v -0.625599 0.000000 0.026450
v -0.694401 0.000000 0.013550
v -0.339014 0.000000 0.269385
v -0.300986 0.000000 0.210615
v -0.640986 0.000000 -0.009385
v -0.679014 0.000000 0.049385
v -1.012961 0.000000 0.411772
v -0.947039 0.000000 0.388228
v -1.047039 0.000000 0.108228
v -1.112961 0.000000 0.131772
v -0.651893 0.000000 0.054048
v -0.668107 0.000000 -0.014048
v -1.088107 0.000000 0.085952
v -1.071893 0.000000 0.154048
v -1.178791 0.000000 0.669528
v -1.141209 0.000000 0.610472
v -1.361209 0.000000 0.470472
v -1.398791 0.000000 0.529528
v -1.052529 0.000000 0.141688
v -1.107471 0.000000 0.098312
v -1.407471 0.000000 0.478312
v -1.352529 0.000000 0.521688
v -1.208932 0.000000 0.993204
v -1.231068 0.000000 0.926796
v -1.471068 0.000000 1.006796
v -1.448932 0.000000 1.073204
v -1.345378 0.000000 0.505129
v -1.414622 0.000000 0.494871
v -1.494622 0.000000 1.034871
v -1.425378 0.000000 1.045129
v -1.073112 0.000000 1.282406
v -1.126888 0.000000 1.237594
v -1.326888 0.000000 1.477594
v -1.273112 0.000000 1.522406
v -1.426943 0.000000 1.028502
v -1.493057 0.000000 1.051498
v -1.333057 0.000000 1.511498
v -1.266943 0.000000 1.488502
v -0.958251 0.000000 1.749865
v -0.921749 0.000000 1.690135
v -1.281749 0.000000 1.470135
v -1.318251 0.000000 1.529865
v -1.048932 0.000000 0.706796
v -1.071068 0.000000 0.773204
v -1.011068 0.000000 0.793204
v -0.988932 0.000000 0.726796
v -0.965000 0.000000 0.760000
v -1.035000 0.000000 0.760000
v -1.035000 0.000000 0.820000
v -0.965000 0.000000 0.820000
v -1.071068 0.000000 0.806796
v -1.048932 0.000000 0.873204
v -0.988932 0.000000 0.853204
v -1.011068 0.000000 0.786796
v -1.340000 0.000000 0.595000
v -1.340000 0.000000 0.525000
v -1.400000 0.000000 0.525000
v -1.400000 0.000000 0.595000
v -1.380000 0.000000 0.545000
v -1.380000 0.000000 0.615000
v -1.320000 0.000000 0.615000
v -1.320000 0.000000 0.545000
v -0.968932 0.000000 1.546796
v -0.991068 0.000000 1.613204
v -0.931068 0.000000 1.633204
v -0.908932 0.000000 1.566796
v -0.968932 0.000000 1.586796
v -0.991068 0.000000 1.653204
v -0.931068 0.000000 1.673204
v -0.908932 0.000000 1.606796
v 0.374883 0.000000 -2.077141
v 0.305117 0.000000 -2.082859
v 0.205117 0.000000 -0.862859
v 0.274883 0.000000 -0.857141
v 0.233136 0.000000 -0.825680
v 0.246864 0.000000 -0.894320
v 0.146864 0.000000 -0.914320
v 0.133136 0.000000 -0.845680
v 0.334703 0.000000 -2.095449
v 0.265297 0.000000 -2.104551
v 0.105297 0.000000 -0.884551
v 0.174703 0.000000 -0.875449
v 0.374887 0.000000 -2.077187
v 0.305113 0.000000 -2.082813
v 0.205113 0.000000 -0.842813
v 0.274887 0.000000 -0.837187
v 0.334703 0.000000 -2.075449
v 0.265297 0.000000 -2.084551
v 0.105297 0.000000 -0.864551
v 0.174703 0.000000 -0.855449
v 0.233136 0.000000 -0.805680
v 0.246864 0.000000 -0.874320
v 0.146864 0.000000 -0.894320
v 0.133136 0.000000 -0.825680
v 0.294444 0.000000 -2.093789
v 0.225556 0.000000 -2.106211
v 0.005556 0.000000 -0.886211
v 0.074444 0.000000 -0.873789
v 0.133136 0.000000 -0.825680
v 0.146864 0.000000 -0.894320
v 0.046864 0.000000 -0.914320
v 0.033136 0.000000 -0.845680
v 0.140000 0.000000 -0.845000
v 0.140000 0.000000 -0.915000
v 0.040000 0.000000 -0.915000
v 0.040000 0.000000 -0.845000
v 0.014482 0.000000 -2.214003
v -0.054482 0.000000 -2.225997
v -0.294482 0.000000 -0.845997
v -0.225518 0.000000 -0.834003
v -0.272999 0.000000 -0.807503
v -0.247001 0.000000 -0.872497
v -0.347001 0.000000 -0.912497
v -0.372999 0.000000 -0.847503
v -0.025845 0.000000 -2.212353
v -0.094155 0.000000 -2.227647
v -0.394155 0.000000 -0.887647
v -0.325845 0.000000 -0.872353
v -0.025822 0.000000 -2.212461
v -0.094178 0.000000 -2.227539
v -0.394178 0.000000 -0.867539
v -0.325822 0.000000 -0.852461
v -0.266864 0.000000 -0.805680
v -0.253136 0.000000 -0.874320
v -0.353136 0.000000 -0.894320
v -0.366864 0.000000 -0.825680
v -0.046291 0.000000 -2.230581
v -0.113709 0.000000 -2.249419
v -0.493709 0.000000 -0.889419
v -0.426291 0.000000 -0.870581
v -0.366864 0.000000 -0.825680
v -0.353136 0.000000 -0.894320
v -0.453136 0.000000 -0.914320
v -0.466864 0.000000 -0.845680
v -0.046328 0.000000 -2.230451
v -0.113672 0.000000 -2.249549
v -0.493672 0.000000 -0.909549
v -0.426328 0.000000 -0.890451
v -0.366864 0.000000 -0.845680
v -0.353136 0.000000 -0.914320
v -0.453136 0.000000 -0.934320
v -0.466864 0.000000 -0.865680
v -0.145048 0.000000 -1.618160
v -0.214952 0.000000 -1.621840
v -0.254952 0.000000 -0.861840
v -0.185048 0.000000 -0.858160
v -0.226864 0.000000 -0.825680
v -0.213136 0.000000 -0.894320
v -0.313136 0.000000 -0.914320
v -0.326864 0.000000 -0.845680
v -0.185315 0.000000 -1.615313
v -0.254685 0.000000 -1.624687
v -0.354685 0.000000 -0.884687
v -0.285315 0.000000 -0.875313
v -0.145051 0.000000 -1.618111
v -0.214949 0.000000 -1.621889
v -0.254949 0.000000 -0.881889
v -0.185051 0.000000 -0.878111
v -0.185315 0.000000 -1.635313
v -0.254685 0.000000 -1.644687
v -0.354685 0.000000 -0.904687
v -0.285315 0.000000 -0.895313
v -0.226864 0.000000 -0.845680
v -0.213136 0.000000 -0.914320
v -0.313136 0.000000 -0.934320
v -0.326864 0.000000 -0.865680
v -0.225791 0.000000 -1.632603
v -0.294209 0.000000 -1.647397
v -0.454209 0.000000 -0.907397
v -0.385791 0.000000 -0.892603
v -0.320000 0.000000 -0.865000
v -0.320000 0.000000 -0.935000
v -0.420000 0.000000 -0.935000
v -0.420000 0.000000 -0.865000
v -0.326864 0.000000 -0.845680
v -0.313136 0.000000 -0.914320
v -0.413136 0.000000 -0.934320
v -0.426864 0.000000 -0.865680
vn 0.000000 1.000000 0.000000
vn 0.000000 1.000000 0.000000
vn 0.000000 1.000000 0.000000
vn 0.000000 1.000000 0.000000
vn 0.000000 1.000000 0.000000
vn 0.000000 1.000000 0.000000
vn 0.000000 1.000000 0.000000
vn 0.000000 1.000000 0.000000
vn 0.000000 1.000000 0.000000
vn 0.000000 1.000000 0.000000
vn 0.000000 1.000000 0.000000
vn 0.000000 1.000000 0.000000
vn 0.000000 1.000000 0.000000
vn 0.000000 1.000000 0.000000
vn 0.000000 1.000000 0.000000
vn 0.000000 1.000000 0.000000
vn 0.000000 1.000000 0.000000
vn 0.000000 1.000000 0.000000
vn 0.000000 1.000000 0.000000
vn 0.000000 1.000000 0.000000
vn 0.000000 1.000000 0.000000
vn 0.000000 1.000000 0.000000
vn 0.000000 1.000000 0.000000
vn 0.000000 1.000000 0.000000
vn 0.000000 1.000000 0.000000
vn 0.000000 1.000000 0.000000
vn 0.000000 1.000000 0.000000
vn 0.000000 1.000000 0.000000
vn 0.000000 1.000000 0.000000
vn 0.000000 1.000000 0.000000
vn 0.000000 1.000000 0.000000
vn 0.000000 1.000000 0.000000
vn 0.000000 1.000000 0.000000
vn 0.000000 1.000000 0.000000
vn 0.000000 1.000000 0.000000
vn 0.000000 1.000000 0.000000
vn 0.000000 1.000000 0.000000
vn 0.000000 1.000000 0.000000
vn 0.000000 1.000000 0.000000
vn 0.000000 1.000000 0.000000
vn 0.000000 1.000000 0.000000
vn 0.000000 1.000000 0.000000
vn 0.000000 1.000000 0.000000
vn 0.000000 1.000000 0.000000
vn 0.000000 1.000000 0.000000
vn 0.000000 1.000000 0.000000
vn 0.000000 1.000000 0.000000
vn 0.000000 1.000000 0.000000
vn 0.000000 1.000000 0.000000
vn 0.000000 1.000000 0.000000
vn 0.000000 1.000000 0.000000
vn 0.000000 1.000000 0.000000
vn 0.000000 1.000000 0.000000
vn 0.000000 1.000000 0.000000
vn 0.000000 1.000000 0.000000
vn 0.000000 1.000000 0.000000
vn 0.000000 1.000000 0.000000
vn 0.000000 1.000000 0.000000
vn 0.000000 1.000000 0.000000
vn 0.000000 1.000000 0.000000
vn 0.000000 1.000000 0.000000
vn 0.000000 1.000000 0.000000
vn 0.000000 1.000000 0.000000
vn 0.000000 1.000000 0.000000
vn 0.000000 1.000000 0.000000
vn 0.000000 1.000000 0.000000
vn 0.000000 1.000000 0.000000
vn 0.000000 1.000000 0.000000
vn 0.000000 1.000000 0.000000
vn 0.000000 1.000000 0.000000
vn 0.000000 1.000000 0.000000
vn 0.000000 1.000000 0.000000
vn 0.000000 1.000000 0.000000
vn 0.000000 1.000000 0.000000
vn 0.000000 1.000000 0.000000
vn 0.000000 1.000000 0.000000
vn 0.000000 1.000000 0.000000
vn 0.000000 1.000000 0.000000
vn 0.000000 1.000000 0.000000
vn 0.000000 1.000000 0.000000
vn 0.000000 1.000000 0.000000
vn 0.000000 1.000000 0.000000
vn 0.000000 1.000000 0.000000
vn 0.000000 1.000000 0.000000
vn 0.000000 1.000000 0.000000
vn 0.000000 1.000000 0.000000
vn 0.000000 1.000000 0.000000
vn 0.000000 1.000000 0.000000
vn 0.000000 1.000000 0.000000
vn 0.000000 1.000000 0.000000
vn 0.000000 1.000000 0.000000
vn 0.000000 1.000000 0.000000
vn 0.000000 1.000000 0.000000
vn 0.000000 1.000000 0.000000
vn 0.000000 1.000000 0.000000
vn 0.000000 1.000000 0.000000
vn 0.000000 1.000000 0.000000
vn 0.000000 1.000000 0.000000
vn 0.000000 1.000000 0.000000
vn 0.000000 1.000000 0.000000
vn 0.000000 1.000000 0.000000
vn 0.000000 1.000000 0.000000
vn 0.000000 1.000000 0.000000
vn 0.000000 1.000000 0.000000
vn 0.000000 1.000000 0.000000
vn 0.000000 1.000000 0.000000
vn 0.000000 1.000000 0.000000
vn 0.000000 1.000000 0.000000
vn 0.000000 1.000000 0.000000
vn 0.000000 1.000000 0.000000
vn 0.000000 1.000000 0.000000
vn 0.000000 1.000000 0.000000
vn 0.000000 1.000000 0.000000
vn 0.000000 1.000000 0.000000
vn 0.000000 1.000000 0.000000
vn 0.000000 1.000000 0.000000
vn 0.000000 1.000000 0.000000
vn 0.000000 1.000000 0.000000
vn 0.000000 1.000000 0.000000
vn 0.000000 1.000000 0.000000
vn 0.000000 1.000000 0.000000
vn 0.000000 1.000000 0.000000
vn 0.000000 1.000000 0.000000
vn 0.000000 1.000000 0.000000
vn 0.000000 1.000000 0.000000
vn 0.000000 1.000000 0.000000
vn 0.000000 1.000000 0.000000
vn 0.000000 1.000000 0.000000
vn 0.000000 1.000000 0.000000
vn 0.000000 1.000000 0.000000
vn 0.000000 1.000000 0.000000
vn 0.000000 1.000000 0.000000
vn 0.000000 1.000000 0.000000
vn 0.000000 1.000000 0.000000
vn 0.000000 1.000000 0.000000
vn 0.000000 1.000000 0.000000
vn 0.000000 1.000000 0.000000
vn 0.000000 1.000000 0.000000
vn 0.000000 1.000000 0.000000
vn 0.000000 1.000000 0.000000
vn 0.000000 1.000000 0.000000
vn 0.000000 1.000000 0.000000
vn 0.000000 1.000000 0.000000
vn 0.000000 1.000000 0.000000
vn 0.000000 1.000000 0.000000
vn 0.000000 1.000000 0.000000
vn 0.000000 1.000000 0.000000
vn 0.000000 1.000000 0.000000
vn 0.000000 1.000000 0.000000
vn 0.000000 1.000000 0.000000
vn 0.000000 1.000000 0.000000
vn 0.000000 1.000000 0.000000
vn 0.000000 1.000000 0.000000
vn 0.000000 1.000000 0.000000
vn 0.000000 1.000000 0.000000
vn 0.000000 1.000000 0.000000
vn 0.000000 1.000000 0.000000
vn 0.000000 1.000000 0.000000
vn 0.000000 1.000000 0.000000
vn 0.000000 1.000000 0.000000
vn 0.000000 1.000000 0.000000
vn 0.000000 1.000000 0.000000
vn 0.000000 1.000000 0.000000
vn 0.000000 1.000000 0.000000
vn 0.000000 1.000000 0.000000
vn 0.000000 1.000000 0.000000
vn 0.000000 1.000000 0.000000
vn 0.000000 1.000000 0.000000
vn 0.000000 1.000000 0.000000
vn 0.000000 1.000000 0.000000
vn 0.000000 1.000000 0.000000
vn 0.000000 1.000000 0.000000
vn 0.000000 1.000000 0.000000
vn 0.000000 1.000000 0.000000
vn 0.000000 1.000000 0.000000
vn 0.000000 1.000000 0.000000
vn 0.000000 1.000000 0.000000
vn 0.000000 1.000000 0.000000
vn 0.000000 1.000000 0.000000
vn 0.000000 1.000000 0.000000
vn 0.000000 1.000000 0.000000
vn 0.000000 1.000000 0.000000
vn 0.000000 1.000000 0.000000
vn 0.000000 1.000000 0.000000
vn 0.000000 1.000000 0.000000
vn 0.000000 1.000000 0.000000
vn 0.000000 1.000000 0.000000
vn 0.000000 1.000000 0.000000
vn 0.000000 1.000000 0.000000
vn 0.000000 1.000000 0.000000
vn 0.000000 1.000000 0.000000
vn 0.000000 1.000000 0.000000
vn 0.000000 1.000000 0.000000
vn 0.000000 1.000000 0.000000
vn 0.000000 1.000000 0.000000
vn 0.000000 1.000000 0.000000
vn 0.000000 1.000000 0.000000
vn 0.000000 1.000000 0.000000
vn 0.000000 1.000000 0.000000
vn 0.000000 1.000000 0.000000
vn 0.000000 1.000000 0.000000
vn 0.000000 1.000000 0.000000
vn 0.000000 1.000000 0.000000
vn 0.000000 1.000000 0.000000
vn 0.000000 1.000000 0.000000
vn 0.000000 1.000000 0.000000
vn 0.000000 1.000000 0.000000
vn 0.000000 1.000000 0.000000
vn 0.000000 1.000000 0.000000
vn 0.000000 1.000000 0.000000
vn 0.000000 1.000000 0.000000
vn 0.000000 1.000000 0.000000
vn 0.000000 1.000000 0.000000
vn 0.000000 1.000000 0.000000
vn 0.000000 1.000000 0.000000
vn 0.000000 1.000000 0.000000
vn 0.000000 1.000000 0.000000
vn 0.000000 1.000000 0.000000
vn 0.000000 1.000000 0.000000
vn 0.000000 1.000000 0.000000
vn 0.000000 1.000000 0.000000
vn 0.000000 1.000000 0.000000
vn 0.000000 1.000000 0.000000
vn 0.000000 1.000000 0.000000
vn 0.000000 1.000000 0.000000
vn 0.000000 1.000000 0.000000
vn 0.000000 1.000000 0.000000
vn 0.000000 1.000000 0.000000
vn 0.000000 1.000000 0.000000
vn 0.000000 1.000000 0.000000
vn 0.000000 1.000000 0.000000
vn 0.000000 1.000000 0.000000
vn 0.000000 1.000000 0.000000
vn 0.000000 1.000000 0.000000
vn 0.000000 1.000000 0.000000
vn 0.000000 1.000000 0.000000
vn 0.000000 1.000000 0.000000
vn 0.000000 1.000000 0.000000
vn 0.000000 1.000000 0.000000
vn 0.000000 1.000000 0.000000
vn 0.000000 1.000000 0.000000
vn 0.000000 1.000000 0.000000
vn 0.000000 1.000000 0.000000
vn 0.000000 1.000000 0.000000
vn 0.000000 1.000000 0.000000
vn 0.000000 1.000000 0.000000
vn 0.000000 1.000000 0.000000
vn 0.000000 1.000000 0.000000
vn 0.000000 1.000000 0.000000
vn 0.000000 1.000000 0.000000
vn 0.000000 1.000000 0.000000
vn 0.000000 1.000000 0.000000
vn 0.000000 1.000000 0.000000
vn 0.000000 1.000000 0.000000
vn 0.000000 1.000000 0.000000
vn 0.000000 1.000000 0.000000
vn 0.000000 1.000000 0.000000
vn 0.000000 1.000000 0.000000
vn 0.000000 1.000000 0.000000
vn 0.000000 1.000000 0.000000
vn 0.000000 1.000000 0.000000
vn 0.000000 1.000000 0.000000
vn 0.000000 1.000000 0.000000
vn 0.000000 1.000000 0.000000
vn 0.000000 1.000000 0.000000
vn 0.000000 1.000000 0.000000
vn 0.000000 1.000000 0.000000
vn 0.000000 1.000000 0.000000
vn 0.000000 1.000000 0.000000
vn 0.000000 1.000000 0.000000
vn 0.000000 1.000000 0.000000
vn 0.000000 1.000000 0.000000
vn 0.000000 1.000000 0.000000
vn 0.000000 1.000000 0.000000
vn 0.000000 1.000000 0.000000
vn 0.000000 1.000000 0.000000
vn 0.000000 1.000000 0.000000
vn 0.000000 1.000000 0.000000
vn 0.000000 1.000000 0.000000
vn 0.000000 1.000000 0.000000
vn 0.000000 1.000000 0.000000
vn 0.000000 1.000000 0.000000
vn 0.000000 1.000000 0.000000
vn 0.000000 1.000000 0.000000
vn 0.000000 1.000000 0.000000
vn 0.000000 1.000000 0.000000
vn 0.000000 1.000000 0.000000
vn 0.000000 1.000000 0.000000
vn 0.000000 1.000000 0.000000
vn 0.000000 1.000000 0.000000
vn 0.000000 1.000000 0.000000
vn 0.000000 1.000000 0.000000
vn 0.000000 1.000000 0.000000
vn 0.000000 1.000000 0.000000
vn 0.000000 1.000000 0.000000
vn 0.000000 1.000000 0.000000
vn 0.000000 1.000000 0.000000
vn 0.000000 1.000000 0.000000
vn 0.000000 1.000000 0.000000
vn 0.000000 1.000000 0.000000
vn 0.000000 1.000000 0.000000
vn 0.000000 1.000000 0.000000
vn 0.000000 1.000000 0.000000
vn 0.000000 1.000000 0.000000
vn 0.000000 1.000000 0.000000
vn 0.000000 1.000000 0.000000
vn 0.000000 1.000000 0.000000
vn 0.000000 1.000000 0.000000
f 1//1 3//1 2//1
f 1//1 4//1 3//1
f 5//2 7//2 6//2
f 5//2 8//2 7//2
f 9//3 11//3 10//3
f 9//3 12//3 11//3
f 13//4 15//4 14//4
f 13//4 16//4 15//4
f 17//5 19//5 18//5
f 17//5 20//5 19//5
f 21//6 23//6 22//6
f 21//6 24//6 23//6
f 25//7 27//7 26//7
f 25//7 28//7 27//7
f 29//8 31//8 30//8
f 29//8 32//8 31//8
f 33//9 35//9 34//9
f 33//9 36//9 35//9
f 37//10 39//10 38//10
f 37//10 40//10 39//10
f 41//11 43//11 42//11
f 41//11 44//11 43//11
f 45//12 47//12 46//12
f 45//12 48//12 47//12
f 49//13 51//13 50//13
f 49//13 52//13 51//13
f 53//14 55//14 54//14
f 53//14 56//14 55//14
f 57//15 59//15 58//15
f 57//15 60//15 59//15
f 61//16 63//16 62//16
f 61//16 64//16 63//16
f 65//17 67//17 66//17
f 65//17 68//17 67//17
f 69//18 71//18 70//18
f 69//18 72//18 71//18
f 73//19 75//19 74//19
f 73//19 76//19 75//19
f 77//20 79//20 78//20
f 77//20 80//20 79//20
f 81//21 83//21 82//21
f 81//21 84//21 83//21
f 85//22 87//22 86//22
f 85//22 88//22 87//22
f 89//23 91//23 90//23
f 89//23 92//23 91//23
f 93//24 95//24 94//24
f 93//24 96//24 95//24
f 97//25 99//25 98//25
f 97//25 100//25 99//25
f 101//26 103//26 102//26
f 101//26 104//26 103//26
f 105//27 107//27 106//27
f 105//27 108//27 107//27
f 109//28 111//28 110//28
f 109//28 112//28 111//28
f 113//29 115//29 114//29
f 113//29 116//29 115//29
f 117//30 119//30 118//30
f 117//30 120//30 119//30
f 121//31 123//31 122//31
f 121//31 124//31 123//31
f 125//32 127//32 126//32
f 125//32 128//32 127//32
f 129//33 131//33 130//33
f 129//33 132//33 131//33
f 133//34 135//34 134//34
f 133//34 136//34 135//34
f 137//35 139//35 138//35
f 137//35 140//35 139//35
f 141//36 143//36 142//36
f 141//36 144//36 143//36
f 145//37 147//37 146//37
f 145//37 148//37 147//37
f 149//38 151//38 150//38
f 149//38 152//38 151//38
f 153//39 155//39 154//39
f 153//39 156//39 155//39
f 157//40 159//40 158//40
f 157//40 160//40 159//40
f 161//41 163//41 162//41
f 161//41 164//41 163//41
f 165//42 167//42 166//42
f 165//42 168//42 167//42
f 169//43 171//43 170//43
f 169//43 172//43 171//43
f 173//44 175//44 174//44
f 173//44 176//44 175//44
f 177//45 179//45 178//45
f 177//45 180//45 179//45
f 181//46 183//46 182//46
f 181//46 184//46 183//46
f 185//47 187//47 186//47
f 185//47 188//47 187//47
f 189//48 191//48 190//48
f 189//48 192//48 191//48
f 193//49 195//49 194//49
f 193//49 196//49 195//49
f 197//50 199//50 198//50
f 197//50 200//50 199//50
f 201//51 203//51 202//51
f 201//51 204//51 203//51
f 205//52 207//52 206//52
f 205//52 208//52 207//52
f 209//53 211//53 210//53
f 209//53 212//53 211//53
f 213//54 215//54 214//54
f 213//54 216//54 215//54
f 217//55 219//55 218//55
f 217//55 220//55 219//55
f 221//56 223//56 222//56
f 221//56 224//56 223//56
f 225//57 227//57 226//57
f 225//57 228//57 227//57
f 229//58 231//58 230//58
f 229//58 232//58 231//58
f 233//59 235//59 234//59
f 233//59 236//59 235//59
f 237//60 239//60 238//60
f 237//60 240//60 239//60
f 241//61 243//61 242//61
f 241//61 244//61 243//61
f 245//62 247//62 246//62
f 245//62 248//62 247//62
f 249//63 251//63 250//63
f 249//63 252//63 251//63
f 253//64 255//64 254//64
f 253//64 256//64 255//64
f 257//65 259//65 258//65
f 257//65 260//65 259//65
f 261//66 263//66 262//66
f 261//66 264//66 263//66
f 265//67 267//67 266//67
f 265//67 268//67 267//67
f 269//68 271//68 270//68
f 269//68 272//68 271//68
f 273//69 275//69 274//69
f 273//69 276//69 275//69
f 277//70 279//70 278//70
f 277//70 280//70 279//70
f 281//71 283//71 282//71
f 281//71 284//71 283//71
f 285//72 287//72 286//72
f 285//72 288//72 287//72
f 289//73 291//73 290//73
f 289//73 292//73 291//73
f 293//74 295//74 294//74
f 293//74 296//74 295//74
f 297//75 299//75 298//75
f 297//75 300//75 299//75
f 301//76 303//76 302//76
f 301//76 304//76 303//76
f 305//77 307//77 306//77
f 305//77 308//77 307//77
f 309//78 311//78 310//78
f 309//78 312//78 311//78
f 313//79 315//79 314//79
f 313//79 316//79 315//79
f 317//80 319//80 318//80
f 317//80 320//80 319//80
f 321//81 323//81 322//81
f 321//81 324//81 323//81
f 325//82 327//82 326//82
f 325//82 328//82 327//82
f 329//83 331//83 330//83
f 329//83 332//83 331//83
f 333//84 335//84 334//84
f 333//84 336//84 335//84
f 337//85 339//85 338//85
f 337//85 340//85 339//85
f 341//86 343//86 342//86
f 341//86 344//86 343//86
f 345//87 347//87 346//87
f 345//87 348//87 347//87
f 349//88 351//88 350//88
f 349//88 352//88 351//88
f 353//89 355//89 354//89
f 353//89 356//89 355//89
f 357//90 359//90 358//90
f 357//90 360//90 359//90
f 361//91 363//91 362//91
f 361//91 364//91 363//91
f 365//92 367//92 366//92
f 365//92 368//92 367//92
f 369//93 371//93 370//93
f 369//93 372//93 371//93
f 373//94 375//94 374//94
f 373//94 376//94 375//94
f 377//95 379//95 378//95
f 377//95 380//95 379//95
f 381//96 383//96 382//96
f 381//96 384//96 383//96
f 385//97 387//97 386//97
f 385//97 388//97 387//97
f 389//98 391//98 390//98
f 389//98 392//98 391//98
f 393//99 395//99 394//99
f 393//99 396//99 395//99
f 397//100 399//100 398//100
f 397//100 400//100 399//100
f 401//101 403//101 402//101
f 401//101 404//101 403//101
f 405//102 407//102 406//102
f 405//102 408//102 407//102
f 409//103 411//103 410//103
f 409//103 412//103 411//103
f 413//104 415//104 414//104
f 413//104 416//104 415//104
f 417//105 419//105 418//105
f 417//105 420//105 419//105
f 421//106 423//106 422//106
f 421//106 424//106 423//106
f 425//107 427//107 426//107
f 425//107 428//107 427//107
f 429//108 431//108 430//108
f 429//108 432//108 431//108
f 433//109 435//109 434//109
f 433//109 436//109 435//109
f 437//110 439//110 438//110
f 437//110 440//110 439//110
f 441//111 443//111 442//111
f 441//111 444//111 443//111
f 445//112 447//112 446//112
f 445//112 448//112 447//112
f 449//113 451//113 450//113
f 449//113 452//113 451//113
f 453//114 455//114 454//114
f 453//114 456//114 455//114
f 457//115 459//115 458//115
f 457//115 460//115 459//115
f 461//116 463//116 462//116
f 461//116 464//116 463//116
f 465//117 467//117 466//117
f 465//117 468//117 467//117
f 469//118 471//118 470//118
f 469//118 472//118 471//118
f 473//119 475//119 474//119
f 473//119 476//119 475//119
f 477//120 479//120 478//120
f 477//120 480//120 479//120
f 481//121 483//121 482//121
f 481//121 484//121 483//121
f 485//122 487//122 486//122
f 485//122 488//122 487//122
f 489//123 491//123 490//123
f 489//123 492//123 491//123
f 493//124 495//124 494//124
f 493//124 496//124 495//124
f 497//125 499//125 498//125
f 497//125 500//125 499//125
f 501//126 503//126 502//126
f 501//126 504//126 503//126
f 505//127 507//127 506//127
f 505//127 508//127 507//127
f 509//128 511//128 510//128
f 509//128 512//128 511//128
f 513//129 515//129 514//129
f 513//129 516//129 515//129
f 517//130 519//130 518//130
f 517//130 520//130 519//130
f 521//131 523//131 522//131
f 521//131 524//131 523//131
f 525//132 527//132 526//132
f 525//132 528//132 527//132
f 529//133 531//133 530//133
f 529//133 532//133 531//133
f 533//134 535//134 534//134
f 533//134 536//134 535//134
f 537//135 539//135 538//135
f 537//135 540//135 539//135
f 541//136 543//136 542//136
f 541//136 544//136 543//136
f 545//137 547//137 546//137
f 545//137 548//137 547//137
f 549//138 551//138 550//138
f 549//138 552//138 551//138
f 553//139 555//139 554//139
f 553//139 556//139 555//139
f 557//140 559//140 558//140
f 557//140 560//140 559//140
f 561//141 563//141 562//141
f 561//141 564//141 563//141
f 565//142 567//142 566//142
f 565//142 568//142 567//142
f 569//143 571//143 570//143
f 569//143 572//143 571//143
f 573//144 575//144 574//144
f 573//144 576//144 575//144
f 577//145 579//145 578//145
f 577//145 580//145 579//145
f 581//146 583//146 582//146
f 581//146 584//146 583//146
f 585//147 587//147 586//147
f 585//147 588//147 587//147
f 589//148 591//148 590//148
f 589//148 592//148 591//148
f 593//149 595//149 594//149
f 593//149 596//149 595//149
f 597//150 599//150 598//150
f 597//150 600//150 599//150
f 601//151 603//151 602//151
f 601//151 604//151 603//151
f 605//152 607//152 606//152
f 605//152 608//152 607//152
f 609//153 611//153 610//153
f 609//153 612//153 611//153
f 613//154 615//154 614//154
f 613//154 616//154 615//154
f 617//155 619//155 618//155
f 617//155 620//155 619//155
f 621//156 623//156 622//156
f 621//156 624//156 623//156
f 625//157 627//157 626//157
f 625//157 628//157 627//157
f 629//158 631//158 630//158
f 629//158 632//158 631//158
f 633//159 635//159 634//159
f 633//159 636//159 635//159
f 637//160 639//160 638//160
f 637//160 640//160 639//160
f 641//161 643//161 642//161
f 641//161 644//161 643//161
f 645//162 647//162 646//162
f 645//162 648//162 647//162
f 649//163 651//163 650//163
f 649//163 652//163 651//163
f 653//164 655//164 654//164
f 653//164 656//164 655//164
f 657//165 659//165 658//165
f 657//165 660//165 659//165
f 661//166 663//166 662//166
f 661//166 664//166 663//166
f 665//167 667//167 666//167
f 665//167 668//167 667//167
f 669//168 671//168 670//168
f 669//168 672//168 671//168
f 673//169 675//169 674//169
f 673//169 676//169 675//169
f 677//170 679//170 678//170
f 677//170 680//170 679//170
f 681//171 683//171 682//171
f 681//171 684//171 683//171
f 685//172 687//172 686//172
f 685//172 688//172 687//172
f 689//173 691//173 690//173
f 689//173 692//173 691//173
f 693//174 695//174 694//174
f 693//174 696//174 695//174
f 697//175 699//175 698//175
f 697//175 700//175 699//175
f 701//176 703//176 702//176
f 701//176 704//176 703//176
f 705//177 707//177 706//177
f 705//177 708//177 707//177
f 709//178 711//178 710//178
f 709//178 712//178 711//178
f 713//179 715//179 714//179
f 713//179 716//179 715//179
f 717//180 719//180 718//180
f 717//180 720//180 719//180
f 721//181 723//181 722//181
f 721//181 724//181 723//181
f 725//182 727//182 726//182
f 725//182 728//182 727//182
f 729//183 731//183 730//183
f 729//183 732//183 731//183
f 733//184 735//184 734//184
f 733//184 736//184 735//184
f 737//185 739//185 738//185
f 737//185 740//185 739//185
f 741//186 743//186 742//186
f 741//186 744//186 743//186
f 745//187 747//187 746//187
f 745//187 748//187 747//187
f 749//188 751//188 750//188
f 749//188 752//188 751//188
f 753//189 755//189 754//189
f 753//189 756//189 755//189
f 757//190 759//190 758//190
f 757//190 760//190 759//190
f 761//191 763//191 762//191
f 761//191 764//191 763//191
f 765//192 767//192 766//192
f 765//192 768//192 767//192
f 769//193 771//193 770//193
f 769//193 772//193 771//193
f 773//194 775//194 774//194
f 773//194 776//194 775//194
f 777//195 779//195 778//195
f 777//195 780//195 779//195
f 781//196 783//196 782//196
f 781//196 784//196 783//196
f 785//197 787//197 786//197
f 785//197 788//197 787//197
f 789//198 791//198 790//198
f 789//198 792//198 791//198
f 793//199 795//199 794//199
f 793//199 796//199 795//199
f 797//200 799//200 798//200
f 797//200 800//200 799//200
f 801//201 803//201 802//201
f 801//201 804//201 803//201
f 805//202 807//202 806//202
f 805//202 808//202 807//202
f 809//203 811//203 810//203
f 809//203 812//203 811//203
f 813//204 815//204 814//204
f 813//204 816//204 815//204
f 817//205 819//205 818//205
f 817//205 820//205 819//205
f 821//206 823//206 822//206
f 821//206 824//206 823//206
f 825//207 827//207 826//207
f 825//207 828//207 827//207
f 829//208 831//208 830//208
f 829//208 832//208 831//208
f 833//209 835//209 834//209
f 833//209 836//209 835//209
f 837//210 839//210 838//210
f 837//210 840//210 839//210
f 841//211 843//211 842//211
f 841//211 844//211 843//211
f 845//212 847//212 846//212
f 845//212 848//212 847//212
f 849//213 851//213 850//213
f 849//213 852//213 851//213
f 853//214 855//214 854//214
f 853//214 856//214 855//214
f 857//215 859//215 858//215
f 857//215 860//215 859//215
f 861//216 863//216 862//216
f 861//216 864//216 863//216
f 865//217 867//217 866//217
f 865//217 868//217 867//217
f 869//218 871//218 870//218
f 869//218 872//218 871//218
f 873//219 875//219 874//219
f 873//219 876//219 875//219
f 877//220 879//220 878//220
f 877//220 880//220 879//220
f 881//221 883//221 882//221
f 881//221 884//221 883//221
f 885//222 887//222 886//222
f 885//222 888//222 887//222
f 889//223 891//223 890//223
f 889//223 892//223 891//223
f 893//224 895//224 894//224
f 893//224 896//224 895//224
f 897//225 899//225 898//225
f 897//225 900//225 899//225
f 901//226 903//226 902//226
f 901//226 904//226 903//226
f 905//227 907//227 906//227
f 905//227 908//227 907//227
f 909//228 911//228 910//228
f 909//228 912//228 911//228
f 913//229 915//229 914//229
f 913//229 916//229 915//229
f 917//230 919//230 918//230
f 917//230 920//230 919//230
f 921//231 923//231 922//231
f 921//231 924//231 923//231
f 925//232 927//232 926//232
f 925//232 928//232 927//232
f 929//233 931//233 930//233
f 929//233 932//233 931//233
f 933//234 935//234 934//234
f 933//234 936//234 935//234
f 937//235 939//235 938//235
f 937//235 940//235 939//235
f 941//236 943//236 942//236
f 941//236 944//236 943//236
f 945//237 947//237 946//237
f 945//237 948//237 947//237
f 949//238 951//238 950//238
f 949//238 952//238 951//238
f 953//239 955//239 954//239
f 953//239 956//239 955//239
f 957//240 959//240 958//240
f 957//240 960//240 959//240
f 961//241 963//241 962//241
f 961//241 964//241 963//241
f 965//242 967//242 966//242
f 965//242 968//242 967//242
f 969//243 971//243 970//243
f 969//243 972//243 971//243
f 973//244 975//244 974//244
f 973//244 976//244 975//244
f 977//245 979//245 978//245
f 977//245 980//245 979//245
f 981//246 983//246 982//246
f 981//246 984//246 983//246
f 985//247 987//247 986//247
f 985//247 988//247 987//247
f 989//248 991//248 990//248
f 989//248 992//248 991//248
f 993//249 995//249 994//249
f 993//249 996//249 995//249
f 997//250 999//250 998//250
f 997//250 1000//250 999//250
f 1001//251 1003//251 1002//251
f 1001//251 1004//251 1003//251
f 1005//252 1007//252 1006//252
f 1005//252 1008//252 1007//252
f 1009//253 1011//253 1010//253
f 1009//253 1012//253 1011//253
f 1013//254 1015//254 1014//254
f 1013//254 1016//254 1015//254
f 1017//255 1019//255 1018//255
f 1017//255 1020//255 1019//255
f 1021//256 1023//256 1022//256
f 1021//256 1024//256 1023//256
f 1025//257 1027//257 1026//257
f 1025//257 1028//257 1027//257
f 1029//258 1031//258 1030//258
f 1029//258 1032//258 1031//258
f 1033//259 1035//259 1034//259
f 1033//259 1036//259 1035//259
f 1037//260 1039//260 1038//260
f 1037//260 1040//260 1039//260
f 1041//261 1043//261 1042//261
f 1041//261 1044//261 1043//261
f 1045//262 1047//262 1046//262
f 1045//262 1048//262 1047//262
f 1049//263 1051//263 1050//263
f 1049//263 1052//263 1051//263
f 1053//264 1055//264 1054//264
f 1053//264 1056//264 1055//264
f 1057//265 1059//265 1058//265
f 1057//265 1060//265 1059//265
f 1061//266 1063//266 1062//266
f 1061//266 1064//266 1063//266
f 1065//267 1067//267 1066//267
f 1065//267 1068//267 1067//267
f 1069//268 1071//268 1070//268
f 1069//268 1072//268 1071//268
f 1073//269 1075//269 1074//269
f 1073//269 1076//269 1075//269
f 1077//270 1079//270 1078//270
f 1077//270 1080//270 1079//270
f 1081//271 1083//271 1082//271
f 1081//271 1084//271 1083//271
f 1085//272 1087//272 1086//272
f 1085//272 1088//272 1087//272
f 1089//273 1091//273 1090//273
f 1089//273 1092//273 1091//273
f 1093//274 1095//274 1094//274
f 1093//274 1096//274 1095//274
f 1097//275 1099//275 1098//275
f 1097//275 1100//275 1099//275
f 1101//276 1103//276 1102//276
f 1101//276 1104//276 1103//276
f 1105//277 1107//277 1106//277
f 1105//277 1108//277 1107//277
f 1109//278 1111//278 1110//278
f 1109//278 1112//278 1111//278
f 1113//279 1115//279 1114//279
f 1113//279 1116//279 1115//279
f 1117//280 1119//280 1118//280
f 1117//280 1120//280 1119//280
f 1121//281 1123//281 1122//281
f 1121//281 1124//281 1123//281
f 1125//282 1127//282 1126//282
f 1125//282 1128//282 1127//282
f 1129//283 1131//283 1130//283
f 1129//283 1132//283 1131//283
f 1133//284 1135//284 1134//284
f 1133//284 1136//284 1135//284
f 1137//285 1139//285 1138//285
f 1137//285 1140//285 1139//285
f 1141//286 1143//286 1142//286
f 1141//286 1144//286 1143//286
f 1145//287 1147//287 1146//287
f 1145//287 1148//287 1147//287
f 1149//288 1151//288 1150//288
f 1149//288 1152//288 1151//288
f 1153//289 1155//289 1154//289
f 1153//289 1156//289 1155//289
f 1157//290 1159//290 1158//290
f 1157//290 1160//290 1159//290
f 1161//291 1163//291 1162//291
f 1161//291 1164//291 1163//291
f 1165//292 1167//292 1166//292
f 1165//292 1168//292 1167//292
f 1169//293 1171//293 1170//293
f 1169//293 1172//293 1171//293
f 1173//294 1175//294 1174//294
f 1173//294 1176//294 1175//294
f 1177//295 1179//295 1178//295
f 1177//295 1180//295 1179//295
f 1181//296 1183//296 1182//296
f 1181//296 1184//296 1183//296
f 1185//297 1187//297 1186//297
f 1185//297 1188//297 1187//297
f 1189//298 1191//298 1190//298
f 1189//298 1192//298 1191//298
f 1193//299 1195//299 1194//299
f 1193//299 1196//299 1195//299
f 1197//300 1199//300 1198//300
f 1197//300 1200//300 1199//300
f 1201//301 1203//301 1202//301
f 1201//301 1204//301 1203//301
f 1205//302 1207//302 1206//302
f 1205//302 1208//302 1207//302
f 1209//303 1211//303 1210//303
f 1209//303 1212//303 1211//303
f 1213//304 1215//304 1214//304
f 1213//304 1216//304 1215//304
f 1217//305 1219//305 1218//305
f 1217//305 1220//305 1219//305
f 1221//306 1223//306 1222//306
f 1221//306 1224//306 1223//306
f 1225//307 1227//307 1226//307
f 1225//307 1228//307 1227//307
f 1229//308 1231//308 1230//308
f 1229//308 1232//308 1231//308
