# Vaelith heavy cruiser, fragment 0 of 8
# Generated by tools. Edit the generator script.
v 0.788873 0.112501 -1.735247
v 0.448243 0.112501 -1.422158
v 0.679155 0.112501 -1.882406
v 0.679155 0.007500 -1.882406
v 0.448243 0.007500 -1.422158
v 0.520656 0.007500 -1.325033
v 0.788873 0.007500 -1.735247
v 0.368159 0.112501 -1.503996
v 0.557817 0.112501 -2.006404
v 0.557817 0.007500 -2.006404
v 0.368159 0.007500 -1.503996
v 0.281777 0.112501 -1.569148
v 0.426935 0.112501 -2.105118
v 0.426935 0.007500 -2.105118
v 0.281777 0.007500 -1.569148
v 0.190573 0.112501 -1.616498
v 0.288748 0.112501 -2.176860
v 0.288748 0.007500 -2.176860
v 0.190573 0.007500 -1.616498
v 0.096109 0.112501 -1.645236
v 0.145620 0.112501 -2.220403
v 0.145620 0.007500 -2.220403
v 0.096109 0.007500 -1.645236
v -0.000000 0.112501 -1.654870
v 0.000000 0.112501 -2.235000
v 0.000000 0.007500 -2.235000
v -0.000000 0.007500 -1.654870
v -0.096109 0.112501 -1.645236
v -0.145620 0.112501 -2.220403
v -0.145620 0.007500 -2.220403
v -0.096109 0.007500 -1.645236
v -0.190573 0.112501 -1.616498
v -0.288748 0.112501 -2.176860
v -0.288748 0.007500 -2.176860
v -0.190573 0.007500 -1.616498
v -0.281777 0.112501 -1.569148
v -0.426935 0.112501 -2.105118
v -0.426935 0.007500 -2.105118
v -0.281777 0.007500 -1.569148
v -0.368159 0.112501 -1.503996
v -0.557817 0.112501 -2.006404
v -0.557817 0.007500 -2.006404
v -0.368159 0.007500 -1.503996
v -0.448243 0.112501 -1.422158
v -0.679155 0.112501 -1.882406
v -0.679155 0.007500 -1.882406
v -0.508574 0.070501 -1.638993
v 0.598977 0.049500 -1.527968
vt 0.807138 0.220090
vt 0.768973 0.225825
vt 0.794845 0.217395
vt 0.777086 0.227603
vt 0.416456 0.132812
vt 0.427237 0.132812
vt 0.427237 0.101562
vt 0.416456 0.101562
vt 0.760000 0.224326
vt 0.781250 0.215124
vt 0.407372 0.132812
vt 0.407372 0.101562
vt 0.450173 0.132812
vt 0.444178 0.132812
vt 0.444178 0.101562
vt 0.450173 0.101562
vt 0.750321 0.223132
vt 0.766585 0.213316
vt 0.563460 0.132812
vt 0.578125 0.132812
vt 0.578125 0.101562
vt 0.563460 0.101562
vt 0.556875 0.132812
vt 0.547196 0.132812
vt 0.547196 0.101562
vt 0.556875 0.101562
vt 0.740103 0.222265
vt 0.751102 0.212002
vt 0.547977 0.132812
vt 0.547977 0.101562
vt 0.536978 0.132812
vt 0.536978 0.101562
vt 0.729518 0.221739
vt 0.735066 0.211205
vt 0.531941 0.132812
vt 0.531941 0.101562
vt 0.526393 0.132812
vt 0.526393 0.101562
vt 0.718750 0.221562
vt 0.718750 0.210938
vt 0.515625 0.132812
vt 0.515625 0.101562
vt 0.515625 0.132812
vt 0.515625 0.101562
vt 0.707982 0.221739
vt 0.702434 0.211205
vt 0.499309 0.132812
vt 0.499309 0.101562
vt 0.504857 0.132812
vt 0.504857 0.101562
vt 0.697397 0.222265
vt 0.686398 0.212002
vt 0.483273 0.132812
vt 0.483273 0.101562
vt 0.494272 0.132812
vt 0.494272 0.101562
vt 0.687179 0.223132
vt 0.670915 0.213316
vt 0.467790 0.132812
vt 0.467790 0.101562
vt 0.484054 0.132812
vt 0.484054 0.101562
vt 0.677500 0.224326
vt 0.656250 0.215124
vt 0.453125 0.132812
vt 0.453125 0.101562
vt 0.474375 0.132812
vt 0.474375 0.101562
vt 0.668527 0.225825
vt 0.642655 0.217395
vt 0.525409 0.542679
vt 0.783524 0.940000
vt 0.783524 0.940000
vt 0.060000 0.060000
vt 0.060000 0.060000
vt 0.940000 0.713395
vt 0.504658 0.449415
vt 0.060000 0.940000
vt 0.731645 0.060000
vt 0.731645 0.060000
vt 0.940000 0.247076
vt 0.060000 0.940000
vn 0.000000 -1.000000 0.000000
vn 0.000000 1.000000 0.000000
vn 0.801702 0.000000 -0.597724
vn 0.714731 0.000000 -0.699400
vn -0.714731 0.000000 0.699400
vn 0.602155 0.000000 -0.798379
vn -0.602155 0.000000 0.798379
vn 0.460770 0.000000 -0.887520
vn -0.460770 0.000000 0.887520
vn 0.291049 0.000000 -0.956708
vn -0.291049 0.000000 0.956708
vn 0.099743 0.000000 -0.995013
vn -0.099743 0.000000 0.995013
vn -0.099743 0.000000 -0.995013
vn 0.099743 0.000000 0.995013
vn -0.291049 0.000000 -0.956708
vn 0.291049 0.000000 0.956708
vn -0.460770 0.000000 -0.887520
vn 0.460770 0.000000 0.887520
vn -0.602155 0.000000 -0.798379
vn 0.602155 0.000000 0.798379
vn -0.714731 0.000000 -0.699400
vn 0.000000 1.000000 0.000000
vn 0.000000 -1.000000 0.000000
vn 0.000000 1.000000 0.000000
vn 0.000000 -1.000000 0.000000
usemtl skin
f 1/1/1 2/2/1 3/3/1
f 4/3/2 5/2/2 6/4/2
f 4/3/2 6/4/2 7/1/2
f 3/5/3 1/6/3 7/7/3
f 3/5/3 7/7/3 4/8/3
f 3/3/1 2/2/1 8/9/1
f 3/3/1 8/9/1 9/10/1
f 10/10/2 11/9/2 5/2/2
f 10/10/2 5/2/2 4/3/2
f 9/11/4 3/5/4 4/8/4
f 9/11/4 4/8/4 10/12/4
f 2/13/5 8/14/5 11/15/5
f 2/13/5 11/15/5 5/16/5
f 9/10/1 8/9/1 12/17/1
f 9/10/1 12/17/1 13/18/1
f 14/18/2 15/17/2 11/9/2
f 14/18/2 11/9/2 10/10/2
f 13/19/6 9/20/6 10/21/6
f 13/19/6 10/21/6 14/22/6
f 8/23/7 12/24/7 15/25/7
f 8/23/7 15/25/7 11/26/7
f 13/18/1 12/17/1 16/27/1
f 13/18/1 16/27/1 17/28/1
f 18/28/2 19/27/2 15/17/2
f 18/28/2 15/17/2 14/18/2
f 17/29/8 13/19/8 14/22/8
f 17/29/8 14/22/8 18/30/8
f 12/24/9 16/31/9 19/32/9
f 12/24/9 19/32/9 15/25/9
f 17/28/1 16/27/1 20/33/1
f 17/28/1 20/33/1 21/34/1
f 22/34/2 23/33/2 19/27/2
f 22/34/2 19/27/2 18/28/2
f 21/35/10 17/29/10 18/30/10
f 21/35/10 18/30/10 22/36/10
f 16/31/11 20/37/11 23/38/11
f 16/31/11 23/38/11 19/32/11
f 21/34/1 20/33/1 24/39/1
f 21/34/1 24/39/1 25/40/1
f 26/40/2 27/39/2 23/33/2
f 26/40/2 23/33/2 22/34/2
f 25/41/12 21/35/12 22/36/12
f 25/41/12 22/36/12 26/42/12
f 20/37/13 24/43/13 27/44/13
f 20/37/13 27/44/13 23/38/13
f 25/40/1 24/39/1 28/45/1
f 25/40/1 28/45/1 29/46/1
f 30/46/2 31/45/2 27/39/2
f 30/46/2 27/39/2 26/40/2
f 29/47/14 25/41/14 26/42/14
f 29/47/14 26/42/14 30/48/14
f 24/43/15 28/49/15 31/50/15
f 24/43/15 31/50/15 27/44/15
f 29/46/1 28/45/1 32/51/1
f 29/46/1 32/51/1 33/52/1
f 34/52/2 35/51/2 31/45/2
f 34/52/2 31/45/2 30/46/2
f 33/53/16 29/47/16 30/48/16
f 33/53/16 30/48/16 34/54/16
f 28/49/17 32/55/17 35/56/17
f 28/49/17 35/56/17 31/50/17
f 33/52/1 32/51/1 36/57/1
f 33/52/1 36/57/1 37/58/1
f 38/58/2 39/57/2 35/51/2
f 38/58/2 35/51/2 34/52/2
f 37/59/18 33/53/18 34/54/18
f 37/59/18 34/54/18 38/60/18
f 32/55/19 36/61/19 39/62/19
f 32/55/19 39/62/19 35/56/19
f 37/58/1 36/57/1 40/63/1
f 37/58/1 40/63/1 41/64/1
f 42/64/2 43/63/2 39/57/2
f 42/64/2 39/57/2 38/58/2
f 41/65/20 37/59/20 38/60/20
f 41/65/20 38/60/20 42/66/20
f 36/61/21 40/67/21 43/68/21
f 36/61/21 43/68/21 39/62/21
f 41/64/1 40/63/1 44/69/1
f 41/64/1 44/69/1 45/70/1
f 46/70/2 43/63/2 42/64/2
f 45/5/22 41/11/22 42/12/22
f 45/5/22 42/12/22 46/8/22
usemtl interior
f 47/71/23 40/72/23 43/73/23
f 47/71/24 43/73/24 40/72/24
f 47/71/23 43/73/23 46/74/23
f 47/71/24 46/74/24 43/73/24
f 47/71/23 46/74/23 45/75/23
f 47/71/24 45/75/24 46/74/24
f 47/71/23 45/75/23 44/76/23
f 47/71/24 44/76/24 45/75/24
f 47/71/23 44/76/23 40/72/23
f 47/71/24 40/72/24 44/76/24
f 48/77/25 1/78/25 2/79/25
f 48/77/26 2/79/26 1/78/26
f 48/77/25 2/79/25 5/80/25
f 48/77/26 5/80/26 2/79/26
f 48/77/25 5/80/25 6/81/25
f 48/77/26 6/81/26 5/80/26
f 48/77/25 6/81/25 7/82/25
f 48/77/26 7/82/26 6/81/26
f 48/77/25 7/82/25 1/78/25
f 48/77/26 1/78/26 7/82/26
