# Placeholder capital ship hull, nose at +Z
# Generated by tools/gen_meshes.py. Edit the script, not this file.
v 0.000000 0.550000 3.000000
v 0.700000 0.550000 0.600000
v 2.000000 0.550000 -1.600000
v 0.900000 0.550000 -1.200000
v 0.000000 0.550000 -1.900000
v -0.900000 0.550000 -1.200000
v -2.000000 0.550000 -1.600000
v -0.700000 0.550000 0.600000
v 0.000000 0.000000 3.000000
v 0.700000 0.000000 0.600000
v 2.000000 0.000000 -1.600000
v 0.900000 0.000000 -1.200000
v 0.000000 0.000000 -1.900000
v -0.900000 0.000000 -1.200000
v -2.000000 0.000000 -1.600000
v -0.700000 0.000000 0.600000
vn 0.000000 1.000000 0.000000
vn 0.000000 -1.000000 0.000000
vn 0.960000 0.000000 0.280000
vn 0.860927 0.000000 0.508729
vn -0.341743 0.000000 -0.939793
vn 0.613941 0.000000 -0.789352
vn -0.613941 0.000000 -0.789352
vn 0.341743 0.000000 -0.939793
vn -0.860927 0.000000 0.508729
vn -0.960000 0.000000 0.280000
f 1//1 3//1 2//1
f 9//2 10//2 11//2
f 1//1 3//1 4//1
f 9//2 12//2 11//2
f 1//1 4//1 5//1
f 9//2 13//2 12//2
f 1//1 5//1 6//1
f 9//2 14//2 13//2
f 1//1 6//1 7//1
f 9//2 15//2 14//2
f 1//1 8//1 7//1
f 9//2 15//2 16//2
f 1//3 9//3 10//3
f 1//3 10//3 2//3
f 2//4 10//4 11//4
f 2//4 11//4 3//4
f 3//5 11//5 12//5
f 3//5 12//5 4//5
f 4//6 12//6 13//6
f 4//6 13//6 5//6
f 5//7 13//7 14//7
f 5//7 14//7 6//7
f 6//8 14//8 15//8
f 6//8 15//8 7//8
f 7//9 15//9 16//9
f 7//9 16//9 8//9
f 8//10 16//10 9//10
f 8//10 9//10 1//10
