# Vaelith freighter, from tools/gen_fleet.py
# Generated by tools. Edit the generator script.
v -0.091537 0.391913 2.368115
v 0.091537 0.391913 2.368115
v 0.091537 0.486637 2.358611
v -0.091537 0.486637 2.358611
v 0.261536 0.178628 1.127842
v -0.261536 0.178628 1.127842
v -0.261536 0.449266 1.100687
v 0.261536 0.449266 1.100687
v 0.000000 0.374731 2.348811
v 0.036894 0.386659 2.347615
v 0.031951 0.396562 2.378163
v 0.000000 0.386232 2.379199
v 0.059696 0.417887 2.344481
v 0.051699 0.423606 2.375450
v 0.059696 0.456486 2.340609
v 0.051699 0.457033 2.372096
v 0.036894 0.487713 2.337475
v 0.031951 0.484077 2.369382
v 0.000000 0.499641 2.336279
v 0.000000 0.494407 2.368346
v -0.036894 0.487713 2.337475
v -0.031951 0.484077 2.369382
v -0.059696 0.456486 2.340609
v -0.051699 0.457033 2.372096
v -0.059696 0.417887 2.344481
v -0.051699 0.423606 2.375450
v -0.036894 0.386659 2.347615
v -0.031951 0.396562 2.378163
v 0.018447 0.417350 2.399167
v 0.000000 0.411386 2.399766
v 0.029848 0.432963 2.397601
v 0.029848 0.452263 2.395664
v 0.018447 0.467877 2.394098
v 0.000000 0.473841 2.393499
v -0.018447 0.467877 2.394098
v -0.029848 0.452263 2.395664
v -0.029848 0.432963 2.397601
v -0.018447 0.417350 2.399167
v 0.000000 0.443453 2.405000
v -1.050074 0.313843 -2.405000
v -0.693049 0.313843 -1.818632
v -0.818355 0.313843 -1.702706
v -1.239932 0.313843 -2.229354
v -1.239932 0.167383 -2.229354
v -0.818355 0.167383 -1.702706
v -0.693049 0.167383 -1.818632
v -1.050074 0.167383 -2.405000
v -0.929164 0.313843 -1.568669
v -1.407825 0.313843 -2.026267
v -1.407825 0.167383 -2.026267
v -0.929164 0.167383 -1.568669
v -1.023513 0.313843 -1.418896
v -1.550778 0.313843 -1.799339
v -1.550778 0.167383 -1.799339
v -1.023513 0.167383 -1.418896
v -1.099731 0.313843 -1.256041
v -1.666259 0.313843 -1.552588
v -1.666259 0.167383 -1.552588
v -1.099731 0.167383 -1.256041
v -1.156466 0.313843 -1.082988
v -1.752222 0.313843 -1.290387
v -1.752222 0.167383 -1.290387
v -1.156466 0.167383 -1.082988
v -1.192715 0.313843 -0.902802
v -1.807144 0.313843 -1.017379
v -1.807144 0.167383 -1.017379
v -1.192715 0.167383 -0.902802
v -1.207835 0.313843 -0.718677
v -1.830053 0.313843 -0.738401
v -1.830053 0.167383 -0.738401
v -1.207835 0.167383 -0.718677
v -1.201558 0.313843 -0.533874
v -1.820543 0.313843 -0.458396
v -1.820543 0.167383 -0.458396
v -1.201558 0.167383 -0.533874
v -1.173996 0.313843 -0.351666
v -1.778782 0.313843 -0.182323
v -1.778782 0.167383 -0.182323
v -1.173996 0.167383 -0.351666
v -1.125636 0.313843 -0.175281
v -1.705509 0.313843 0.084926
v -1.705509 0.167383 0.084926
v -1.125636 0.167383 -0.175281
v -1.057335 0.313843 -0.007845
v -1.602023 0.313843 0.338618
v -1.602023 0.167383 0.338618
v -1.057335 0.167383 -0.007845
v -0.970304 0.313843 0.147678
v -1.470158 0.313843 0.574258
v -1.470158 0.167383 0.574258
v -0.970304 0.167383 0.147678
v -0.866084 0.313843 0.288531
v -1.312249 0.313843 0.787672
v -1.312249 0.167383 0.787672
v -0.866084 0.167383 0.288531
v -0.746521 0.313843 0.412220
v -1.131093 0.313843 0.975079
v -1.131093 0.167383 0.975079
v -0.746521 0.167383 0.412220
v -0.613734 0.313843 0.516553
v -0.929900 0.313843 1.133160
v -0.929900 0.167383 1.133160
v -0.613734 0.167383 0.516553
v -0.470074 0.313843 0.599682
v -0.712233 0.313843 1.259113
v -0.712233 0.167383 1.259113
v -0.470074 0.167383 0.599682
v -0.318087 0.313843 0.660135
v -0.481950 0.313843 1.350709
v -0.481950 0.167383 1.350709
v -0.318087 0.167383 0.660135
v -0.160465 0.313843 0.696841
v -0.243128 0.313843 1.406323
v -0.243128 0.167383 1.406323
v -0.160465 0.167383 0.696841
v -0.000000 0.313843 0.709149
v -0.000000 0.313843 1.424971
v -0.000000 0.167383 1.424971
v -0.000000 0.167383 0.709149
v 0.160465 0.313843 0.696841
v 0.243128 0.313843 1.406323
v 0.243128 0.167383 1.406323
v 0.160465 0.167383 0.696841
v 0.318087 0.313843 0.660135
v 0.481950 0.313843 1.350709
v 0.481950 0.167383 1.350709
v 0.318087 0.167383 0.660135
v 0.470074 0.313843 0.599682
v 0.712233 0.313843 1.259113
v 0.712233 0.167383 1.259113
v 0.470074 0.167383 0.599682
v 0.613734 0.313843 0.516553
v 0.929900 0.313843 1.133160
v 0.929900 0.167383 1.133160
v 0.613734 0.167383 0.516553
v 0.746521 0.313843 0.412220
v 1.131093 0.313843 0.975079
v 1.131093 0.167383 0.975079
v 0.746521 0.167383 0.412220
v 0.866084 0.313843 0.288531
v 1.312249 0.313843 0.787672
v 1.312249 0.167383 0.787672
v 0.866084 0.167383 0.288531
v 0.970304 0.313843 0.147678
v 1.470158 0.313843 0.574258
v 1.470158 0.167383 0.574258
v 0.970304 0.167383 0.147678
v 1.057335 0.313843 -0.007845
v 1.602023 0.313843 0.338618
v 1.602023 0.167383 0.338618
v 1.057335 0.167383 -0.007845
v 1.125636 0.313843 -0.175281
v 1.705509 0.313843 0.084926
v 1.705509 0.167383 0.084926
v 1.125636 0.167383 -0.175281
v 1.173996 0.313843 -0.351666
v 1.778782 0.313843 -0.182323
v 1.778782 0.167383 -0.182323
v 1.173996 0.167383 -0.351666
v 1.201558 0.313843 -0.533874
v 1.820543 0.313843 -0.458396
v 1.820543 0.167383 -0.458396
v 1.201558 0.167383 -0.533874
v 1.207835 0.313843 -0.718677
v 1.830053 0.313843 -0.738401
v 1.830053 0.167383 -0.738401
v 1.207835 0.167383 -0.718677
v 1.192715 0.313843 -0.902802
v 1.807144 0.313843 -1.017379
v 1.807144 0.167383 -1.017379
v 1.192715 0.167383 -0.902802
v 1.156466 0.313843 -1.082988
v 1.752222 0.313843 -1.290387
v 1.752222 0.167383 -1.290387
v 1.156466 0.167383 -1.082988
v 1.099731 0.313843 -1.256041
v 1.666259 0.313843 -1.552588
v 1.666259 0.167383 -1.552588
v 1.099731 0.167383 -1.256041
v 1.023513 0.313843 -1.418896
v 1.550778 0.313843 -1.799339
v 1.550778 0.167383 -1.799339
v 1.023513 0.167383 -1.418896
v 0.929164 0.313843 -1.568669
v 1.407825 0.313843 -2.026267
v 1.407825 0.167383 -2.026267
v 0.929164 0.167383 -1.568669
v 0.818355 0.313843 -1.702706
v 1.239932 0.313843 -2.229354
v 1.239932 0.167383 -2.229354
v 0.818355 0.167383 -1.702706
v 0.693049 0.313843 -1.818632
v 1.050074 0.313843 -2.405000
v 1.050074 0.167383 -2.405000
v 0.693049 0.167383 -1.818632
v 1.360551 0.240613 -1.465904
v 1.334398 0.240613 -1.511203
v 1.360551 0.188306 -1.465904
v 1.360551 0.292920 -1.465904
v 1.386705 0.240613 -1.420605
v 1.813544 0.240613 -1.727440
v -1.360551 0.240613 -1.465904
v -1.386705 0.240613 -1.420605
v -1.360551 0.188306 -1.465904
v -1.360551 0.292920 -1.465904
v -1.334398 0.240613 -1.511203
v -1.813544 0.240613 -1.727440
v -0.580347 0.203998 0.764730
v -0.507117 0.203998 0.764730
v -0.507117 0.277228 0.764730
v -0.580347 0.277228 0.764730
v -0.507117 0.203998 -2.125509
v -0.580347 0.203998 -2.125509
v -0.580347 0.277228 -2.125509
v -0.507117 0.277228 -2.125509
v 0.507117 0.203998 0.764730
v 0.580347 0.203998 0.764730
v 0.580347 0.277228 0.764730
v 0.507117 0.277228 0.764730
v 0.580347 0.203998 -2.125509
v 0.507117 0.203998 -2.125509
v 0.507117 0.277228 -2.125509
v 0.580347 0.277228 -2.125509
v -0.549225 0.000000 -1.278730
v -0.026154 0.000000 -1.278730
v -0.026154 0.376611 -1.278730
v -0.549225 0.376611 -1.278730
v -0.026154 0.000000 -1.749494
v -0.549225 0.000000 -1.749494
v -0.549225 0.376611 -1.749494
v -0.026154 0.376611 -1.749494
v 0.026154 0.000000 -1.278730
v 0.549225 0.000000 -1.278730
v 0.549225 0.376611 -1.278730
v 0.026154 0.376611 -1.278730
v 0.549225 0.000000 -1.749494
v 0.026154 0.000000 -1.749494
v 0.026154 0.376611 -1.749494
v 0.549225 0.376611 -1.749494
v -0.549225 0.000000 -0.722915
v -0.026154 0.000000 -0.722915
v -0.026154 0.376611 -0.722915
v -0.549225 0.376611 -0.722915
v -0.026154 0.000000 -1.193679
v -0.549225 0.000000 -1.193679
v -0.549225 0.376611 -1.193679
v -0.026154 0.376611 -1.193679
v 0.026154 0.000000 -0.722915
v 0.549225 0.000000 -0.722915
v 0.549225 0.376611 -0.722915
v 0.026154 0.376611 -0.722915
v 0.549225 0.000000 -1.193679
v 0.026154 0.000000 -1.193679
v 0.026154 0.376611 -1.193679
v 0.549225 0.376611 -1.193679
v -0.549225 0.000000 -0.167100
v -0.026154 0.000000 -0.167100
v -0.026154 0.376611 -0.167100
v -0.549225 0.376611 -0.167100
v -0.026154 0.000000 -0.637864
v -0.549225 0.000000 -0.637864
v -0.549225 0.376611 -0.637864
v -0.026154 0.376611 -0.637864
v 0.026154 0.000000 -0.167100
v 0.549225 0.000000 -0.167100
v 0.549225 0.376611 -0.167100
v 0.026154 0.376611 -0.167100
v 0.549225 0.000000 -0.637864
v 0.026154 0.000000 -0.637864
v 0.026154 0.376611 -0.637864
v 0.549225 0.376611 -0.637864
v -0.549225 0.000000 0.388715
v -0.026154 0.000000 0.388715
v -0.026154 0.376611 0.388715
v -0.549225 0.376611 0.388715
v -0.026154 0.000000 -0.082048
v -0.549225 0.000000 -0.082048
v -0.549225 0.376611 -0.082048
v -0.026154 0.376611 -0.082048
v 0.026154 0.000000 0.388715
v 0.549225 0.000000 0.388715
v 0.549225 0.376611 0.388715
v 0.026154 0.376611 0.388715
v 0.549225 0.000000 -0.082048
v 0.026154 0.000000 -0.082048
v 0.026154 0.376611 -0.082048
v 0.549225 0.376611 -0.082048
v -1.111526 0.332673 0.156524
v -0.844760 0.332673 0.156524
v -0.844760 0.546086 0.156524
v -1.111526 0.546086 0.156524
v -0.865159 0.348993 -1.517303
v -1.091126 0.348993 -1.517303
v -1.091126 0.529766 -1.517303
v -0.865159 0.529766 -1.517303
v -1.017373 0.542948 -0.161503
v -0.938912 0.542948 -0.161503
v -0.938912 0.580609 -0.161503
v -1.017373 0.580609 -0.161503
v -0.938912 0.542948 -1.199276
v -1.017373 0.542948 -1.199276
v -1.017373 0.580609 -1.199276
v -0.938912 0.580609 -1.199276
v -1.064449 0.368765 -1.279829
v -0.891836 0.368765 -1.279829
v -0.891836 0.509994 -1.279829
v -1.064449 0.509994 -1.279829
v -0.891836 0.368765 -1.317490
v -1.064449 0.368765 -1.317490
v -1.064449 0.509994 -1.317490
v -0.891836 0.509994 -1.317490
v 0.844760 0.332673 0.156524
v 1.111526 0.332673 0.156524
v 1.111526 0.546086 0.156524
v 0.844760 0.546086 0.156524
v 1.091126 0.348993 -1.517303
v 0.865159 0.348993 -1.517303
v 0.865159 0.529766 -1.517303
v 1.091126 0.529766 -1.517303
v 0.938912 0.542948 -0.161503
v 1.017373 0.542948 -0.161503
v 1.017373 0.580609 -0.161503
v 0.938912 0.580609 -0.161503
v 1.017373 0.542948 -1.199276
v 0.938912 0.542948 -1.199276
v 0.938912 0.580609 -1.199276
v 1.017373 0.580609 -1.199276
v 0.891836 0.368765 -1.279829
v 1.064449 0.368765 -1.279829
v 1.064449 0.509994 -1.279829
v 0.891836 0.509994 -1.279829
v 1.064449 0.368765 -1.317490
v 0.891836 0.368765 -1.317490
v 0.891836 0.509994 -1.317490
v 1.064449 0.509994 -1.317490
v -0.978143 0.313843 0.135601
v -0.904354 0.337818 0.135601
v -0.914240 0.351425 0.198370
v -0.978143 0.330661 0.198370
v -0.858750 0.400587 0.135601
v -0.874746 0.405784 0.198370
v -0.858750 0.478173 0.135601
v -0.874746 0.472975 0.198370
v -0.904354 0.540941 0.135601
v -0.914240 0.527335 0.198370
v -0.978143 0.564917 0.135601
v -0.978143 0.548098 0.198370
v -1.051932 0.540941 0.135601
v -1.042046 0.527335 0.198370
v -1.097536 0.478173 0.135601
v -1.081540 0.472975 0.198370
v -1.097536 0.400587 0.135601
v -1.081540 0.405784 0.198370
v -1.051932 0.337818 0.135601
v -1.042046 0.351425 0.198370
v -0.941248 0.388599 0.244320
v -0.978143 0.376611 0.244320
v -0.918446 0.419983 0.244320
v -0.918446 0.458776 0.244320
v -0.941248 0.490160 0.244320
v -0.978143 0.502148 0.244320
v -1.015037 0.490160 0.244320
v -1.037839 0.458776 0.244320
v -1.037839 0.419983 0.244320
v -1.015037 0.388599 0.244320
v -0.978143 0.439380 0.261138
v -1.417522 0.292920 -0.523468
v -1.061834 0.292920 -0.523468
v -1.061834 0.460302 -0.523468
v -1.417522 0.460302 -0.523468
v -1.061834 0.292920 -0.837311
v -1.417522 0.292920 -0.837311
v -1.417522 0.460302 -0.837311
v -1.061834 0.460302 -0.837311
v 0.978143 0.313843 0.135601
v 1.051932 0.337818 0.135601
v 1.042046 0.351425 0.198370
v 0.978143 0.330661 0.198370
v 1.097536 0.400587 0.135601
v 1.081540 0.405784 0.198370
v 1.097536 0.478173 0.135601
v 1.081540 0.472975 0.198370
v 1.051932 0.540941 0.135601
v 1.042046 0.527335 0.198370
v 0.978143 0.564917 0.135601
v 0.978143 0.548098 0.198370
v 0.904354 0.540941 0.135601
v 0.914240 0.527335 0.198370
v 0.858750 0.478173 0.135601
v 0.874746 0.472975 0.198370
v 0.858750 0.400587 0.135601
v 0.874746 0.405784 0.198370
v 0.904354 0.337818 0.135601
v 0.914240 0.351425 0.198370
v 1.015037 0.388599 0.244320
v 0.978143 0.376611 0.244320
v 1.037839 0.419983 0.244320
v 1.037839 0.458776 0.244320
v 1.015037 0.490160 0.244320
v 0.978143 0.502148 0.244320
v 0.941248 0.490160 0.244320
v 0.918446 0.458776 0.244320
v 0.918446 0.419983 0.244320
v 0.941248 0.388599 0.244320
v 0.978143 0.439380 0.261138
v 1.061834 0.292920 -0.523468
v 1.417522 0.292920 -0.523468
v 1.417522 0.460302 -0.523468
v 1.061834 0.460302 -0.523468
v 1.417522 0.292920 -0.837311
v 1.061834 0.292920 -0.837311
v 1.061834 0.460302 -0.837311
v 1.417522 0.460302 -0.837311
vt 0.499219 0.447731
vt 0.532031 0.447731
vt 0.532031 0.476562
vt 0.499219 0.476562
vt 0.195312 0.382812
vt 0.007812 0.382812
vt 0.007812 0.465188
vt 0.195312 0.465188
vt 0.063672 0.654961
vt 0.123828 0.654961
vt 0.179688 0.484375
vt 0.007812 0.484375
vt 0.007812 0.488057
vt 0.179688 0.488057
vt 0.123828 0.656250
vt 0.063672 0.656250
vt 0.011830 0.382812
vt 0.195312 0.447731
vt 0.193906 0.476562
vt 0.007812 0.465188
vt 0.054688 0.298347
vt 0.083658 0.296715
vt 0.079777 0.338389
vt 0.054688 0.339803
vt 0.023277 0.290202
vt 0.019003 0.313640
vt 0.061250 0.317932
vt 0.064951 0.297635
vt 0.013719 0.342610
vt 0.056674 0.343021
vt 0.009445 0.366048
vt 0.052972 0.363319
vt 0.083658 0.282883
vt 0.054688 0.281250
vt 0.054688 0.324996
vt 0.079777 0.326410
vt 0.025717 0.282883
vt 0.029598 0.326410
vt 0.025717 0.296715
vt 0.029598 0.338389
vt 0.054688 0.289882
vt 0.079777 0.297635
vt 0.069173 0.313237
vt 0.054688 0.308761
vt 0.095282 0.317932
vt 0.078125 0.324955
vt 0.088827 0.339441
vt 0.091469 0.324955
vt 0.095282 0.343021
vt 0.079777 0.363319
vt 0.069173 0.351159
vt 0.078125 0.339441
vt 0.054688 0.359311
vt 0.069173 0.360127
vt 0.040202 0.360127
vt 0.029598 0.363319
vt 0.014093 0.343021
vt 0.031250 0.339441
vt 0.040202 0.351159
vt 0.014093 0.317932
vt 0.029598 0.297635
vt 0.040202 0.313237
vt 0.031250 0.324955
vt 0.054688 0.332828
vt 0.054688 0.355636
vt 0.647026 0.210938
vt 0.671412 0.220506
vt 0.662853 0.222398
vt 0.634058 0.213804
vt 0.430933 0.132812
vt 0.443901 0.132812
vt 0.443901 0.101562
vt 0.430933 0.101562
vt 0.468287 0.132812
vt 0.459728 0.132812
vt 0.459728 0.101562
vt 0.468287 0.101562
vt 0.655284 0.224585
vt 0.622590 0.217118
vt 0.415347 0.132812
vt 0.402090 0.132812
vt 0.402090 0.101562
vt 0.415347 0.101562
vt 0.436467 0.132812
vt 0.445216 0.132812
vt 0.445216 0.101562
vt 0.436467 0.101562
vt 0.648840 0.227029
vt 0.612826 0.220821
vt 0.430159 0.132812
vt 0.430159 0.101562
vt 0.454993 0.132812
vt 0.454993 0.101562
vt 0.643634 0.229687
vt 0.604938 0.224848
vt 0.446266 0.132812
vt 0.446266 0.101562
vt 0.465623 0.132812
vt 0.465623 0.101562
vt 0.639759 0.232511
vt 0.599066 0.229126
vt 0.463381 0.132812
vt 0.463381 0.101562
vt 0.476919 0.132812
vt 0.476919 0.101562
vt 0.637283 0.235451
vt 0.595315 0.233582
vt 0.481201 0.132812
vt 0.481201 0.101562
vt 0.488680 0.132812
vt 0.488680 0.101562
vt 0.636250 0.238456
vt 0.593750 0.238134
vt 0.499412 0.132812
vt 0.499412 0.101562
vt 0.500699 0.132812
vt 0.500699 0.101562
vt 0.636679 0.241472
vt 0.594400 0.242703
vt 0.517689 0.132812
vt 0.517689 0.101562
vt 0.512762 0.132812
vt 0.512762 0.101562
vt 0.638561 0.244445
vt 0.597252 0.247209
vt 0.535709 0.132812
vt 0.535709 0.101562
vt 0.524656 0.132812
vt 0.524656 0.101562
vt 0.641865 0.247324
vt 0.602257 0.251570
vt 0.553154 0.132812
vt 0.553154 0.101562
vt 0.536169 0.132812
vt 0.536169 0.101562
vt 0.646530 0.250056
vt 0.609325 0.255710
vt 0.569714 0.132812
vt 0.569714 0.101562
vt 0.547098 0.132812
vt 0.547098 0.101562
vt 0.652474 0.252594
vt 0.618332 0.259555
vt 0.585095 0.132812
vt 0.585095 0.101562
vt 0.557250 0.132812
vt 0.557250 0.101562
vt 0.659593 0.254892
vt 0.629118 0.263038
vt 0.599026 0.132812
vt 0.599026 0.101562
vt 0.566444 0.132812
vt 0.566444 0.101562
vt 0.667760 0.256911
vt 0.641492 0.266096
vt 0.611258 0.132812
vt 0.611258 0.101562
vt 0.574518 0.132812
vt 0.574518 0.101562
vt 0.676830 0.258613
vt 0.655234 0.268676
vt 0.452109 0.132812
vt 0.438367 0.132812
vt 0.438367 0.101562
vt 0.452109 0.101562
vt 0.464635 0.132812
vt 0.473705 0.132812
vt 0.473705 0.101562
vt 0.464635 0.101562
vt 0.686642 0.259970
vt 0.670102 0.270731
vt 0.466977 0.132812
vt 0.466977 0.101562
vt 0.483517 0.132812
vt 0.483517 0.101562
vt 0.697023 0.260956
vt 0.685831 0.272226
vt 0.482706 0.132812
vt 0.482706 0.101562
vt 0.493898 0.132812
vt 0.493898 0.101562
vt 0.707790 0.261555
vt 0.702143 0.273133
vt 0.499018 0.132812
vt 0.499018 0.101562
vt 0.504665 0.132812
vt 0.504665 0.101562
vt 0.718750 0.261756
vt 0.718750 0.273438
vt 0.515625 0.132812
vt 0.515625 0.101562
vt 0.515625 0.132812
vt 0.515625 0.101562
vt 0.729710 0.261555
vt 0.735357 0.273133
vt 0.532232 0.132812
vt 0.532232 0.101562
vt 0.526585 0.132812
vt 0.526585 0.101562
vt 0.740477 0.260956
vt 0.751669 0.272226
vt 0.548544 0.132812
vt 0.548544 0.101562
vt 0.537352 0.132812
vt 0.537352 0.101562
vt 0.750858 0.259970
vt 0.767398 0.270731
vt 0.564273 0.132812
vt 0.564273 0.101562
vt 0.547733 0.132812
vt 0.547733 0.101562
vt 0.760670 0.258613
vt 0.782266 0.268676
vt 0.579141 0.132812
vt 0.579141 0.101562
vt 0.557545 0.132812
vt 0.557545 0.101562
vt 0.769740 0.256911
vt 0.796008 0.266096
vt 0.592883 0.132812
vt 0.592883 0.101562
vt 0.566615 0.132812
vt 0.566615 0.101562
vt 0.777907 0.254892
vt 0.808382 0.263038
vt 0.785026 0.252594
vt 0.819168 0.259555
vt 0.790970 0.250056
vt 0.828175 0.255710
vt 0.795635 0.247324
vt 0.835243 0.251570
vt 0.798939 0.244445
vt 0.840248 0.247209
vt 0.800821 0.241472
vt 0.843100 0.242703
vt 0.801250 0.238456
vt 0.843750 0.238134
vt 0.800217 0.235451
vt 0.842185 0.233582
vt 0.797741 0.232511
vt 0.838434 0.229126
vt 0.793866 0.229687
vt 0.832562 0.224848
vt 0.788660 0.227029
vt 0.824674 0.220821
vt 0.782216 0.224585
vt 0.814910 0.217118
vt 0.774647 0.222398
vt 0.803442 0.213804
vt 0.766088 0.220506
vt 0.790474 0.210938
vt 0.587349 0.132812
vt 0.600317 0.132812
vt 0.600317 0.101562
vt 0.587349 0.101562
vt 0.571522 0.132812
vt 0.562963 0.132812
vt 0.562963 0.101562
vt 0.571522 0.101562
vt 0.390625 0.132812
vt 0.390625 0.101562
vt 0.428900 0.101562
vt 0.428900 0.132812
vt 0.751784 0.429688
vt 0.737944 0.429688
vt 0.751784 0.382812
vt 0.751784 0.476562
vt 0.765625 0.429688
vt 0.575430 0.462722
vt 0.570312 0.448881
vt 0.664062 0.382812
vt 0.580547 0.476562
vt 0.751784 0.429688
vt 0.765625 0.429688
vt 0.751784 0.382812
vt 0.751784 0.476562
vt 0.737944 0.429688
vt 0.658945 0.462722
vt 0.653828 0.476562
vt 0.570312 0.382812
vt 0.664062 0.448881
vt 0.843750 0.531250
vt 0.968750 0.531250
vt 0.968750 0.656250
vt 0.843750 0.656250
vt 0.968750 0.531250
vt 0.843750 0.531250
vt 0.843750 0.656250
vt 0.968750 0.656250
vt 0.843750 0.656250
vt 0.968750 0.656250
vt 0.968750 0.531250
vt 0.843750 0.531250
vt 0.843750 0.531250
vt 0.968750 0.531250
vt 0.968750 0.656250
vt 0.843750 0.656250
vt 0.843750 0.531250
vt 0.968750 0.531250
vt 0.968750 0.656250
vt 0.843750 0.656250
vt 0.968750 0.531250
vt 0.843750 0.531250
vt 0.843750 0.656250
vt 0.968750 0.656250
vt 0.843750 0.656250
vt 0.968750 0.656250
vt 0.968750 0.531250
vt 0.843750 0.531250
vt 0.843750 0.531250
vt 0.968750 0.531250
vt 0.968750 0.656250
vt 0.843750 0.656250
vt 0.875000 0.382812
vt 0.968750 0.382812
vt 0.968750 0.476562
vt 0.875000 0.476562
vt 0.968750 0.382812
vt 0.875000 0.382812
vt 0.875000 0.476562
vt 0.968750 0.476562
vt 0.773438 0.476562
vt 0.867188 0.476562
vt 0.867188 0.382812
vt 0.773438 0.382812
vt 0.875000 0.382812
vt 0.968750 0.382812
vt 0.968750 0.476562
vt 0.875000 0.476562
vt 0.875000 0.382812
vt 0.968750 0.382812
vt 0.968750 0.476562
vt 0.875000 0.476562
vt 0.968750 0.382812
vt 0.875000 0.382812
vt 0.875000 0.476562
vt 0.968750 0.476562
vt 0.773438 0.476562
vt 0.867188 0.476562
vt 0.867188 0.382812
vt 0.773438 0.382812
vt 0.875000 0.382812
vt 0.968750 0.382812
vt 0.968750 0.476562
vt 0.875000 0.476562
vt 0.875000 0.382812
vt 0.968750 0.382812
vt 0.968750 0.476562
vt 0.875000 0.476562
vt 0.968750 0.382812
vt 0.875000 0.382812
vt 0.875000 0.476562
vt 0.968750 0.476562
vt 0.773438 0.476562
vt 0.867188 0.476562
vt 0.867188 0.382812
vt 0.773438 0.382812
vt 0.875000 0.382812
vt 0.968750 0.382812
vt 0.968750 0.476562
vt 0.875000 0.476562
vt 0.875000 0.382812
vt 0.968750 0.382812
vt 0.968750 0.476562
vt 0.875000 0.476562
vt 0.968750 0.382812
vt 0.875000 0.382812
vt 0.875000 0.476562
vt 0.968750 0.476562
vt 0.773438 0.476562
vt 0.867188 0.476562
vt 0.867188 0.382812
vt 0.773438 0.382812
vt 0.875000 0.382812
vt 0.968750 0.382812
vt 0.968750 0.476562
vt 0.875000 0.476562
vt 0.875000 0.382812
vt 0.968750 0.382812
vt 0.968750 0.476562
vt 0.875000 0.476562
vt 0.968750 0.382812
vt 0.875000 0.382812
vt 0.875000 0.476562
vt 0.968750 0.476562
vt 0.773438 0.476562
vt 0.867188 0.476562
vt 0.867188 0.382812
vt 0.773438 0.382812
vt 0.875000 0.382812
vt 0.968750 0.382812
vt 0.968750 0.476562
vt 0.875000 0.476562
vt 0.875000 0.382812
vt 0.968750 0.382812
vt 0.968750 0.476562
vt 0.875000 0.476562
vt 0.968750 0.382812
vt 0.875000 0.382812
vt 0.875000 0.476562
vt 0.968750 0.476562
vt 0.773438 0.476562
vt 0.867188 0.476562
vt 0.867188 0.382812
vt 0.773438 0.382812
vt 0.875000 0.382812
vt 0.968750 0.382812
vt 0.968750 0.476562
vt 0.875000 0.476562
vt 0.875000 0.382812
vt 0.968750 0.382812
vt 0.968750 0.476562
vt 0.875000 0.476562
vt 0.968750 0.382812
vt 0.875000 0.382812
vt 0.875000 0.476562
vt 0.968750 0.476562
vt 0.773438 0.476562
vt 0.867188 0.476562
vt 0.867188 0.382812
vt 0.773438 0.382812
vt 0.875000 0.382812
vt 0.968750 0.382812
vt 0.968750 0.476562
vt 0.875000 0.476562
vt 0.875000 0.382812
vt 0.968750 0.382812
vt 0.968750 0.476562
vt 0.875000 0.476562
vt 0.968750 0.382812
vt 0.875000 0.382812
vt 0.875000 0.476562
vt 0.968750 0.476562
vt 0.773438 0.476562
vt 0.867188 0.476562
vt 0.867188 0.382812
vt 0.773438 0.382812
vt 0.875000 0.382812
vt 0.968750 0.382812
vt 0.968750 0.476562
vt 0.875000 0.476562
vt 0.390625 0.195312
vt 0.484375 0.195312
vt 0.484375 0.262559
vt 0.390625 0.262559
vt 0.578768 0.200455
vt 0.499357 0.200455
vt 0.499357 0.257417
vt 0.578768 0.257417
vt 0.554688 0.992188
vt 0.625000 0.992188
vt 0.619623 0.664062
vt 0.560064 0.664062
vt 0.492188 0.302017
vt 0.867188 0.296875
vt 0.867188 0.364122
vt 0.492188 0.358979
vt 0.382812 0.195312
vt 0.354136 0.200455
vt 0.354136 0.257417
vt 0.382812 0.262559
vt 0.423713 0.261570
vt 0.451287 0.261570
vt 0.451287 0.273438
vt 0.423713 0.273438
vt 0.552849 0.261570
vt 0.525276 0.261570
vt 0.525276 0.273438
vt 0.552849 0.273438
vt 0.579504 0.929844
vt 0.600184 0.929844
vt 0.600184 0.726406
vt 0.579504 0.726406
vt 0.563438 0.363133
vt 0.795937 0.363133
vt 0.795937 0.375000
vt 0.563438 0.375000
vt 0.250460 0.261570
vt 0.250460 0.273438
vt 0.407169 0.206685
vt 0.467831 0.206685
vt 0.467831 0.251187
vt 0.407169 0.251187
vt 0.569393 0.206685
vt 0.508732 0.206685
vt 0.508732 0.251187
vt 0.569393 0.251187
vt 0.567096 0.710615
vt 0.612592 0.710615
vt 0.612592 0.703232
vt 0.567096 0.703232
vt 0.536953 0.308248
vt 0.545391 0.308248
vt 0.545391 0.352749
vt 0.536953 0.352749
vt 0.316636 0.206685
vt 0.316636 0.251187
vt 0.390625 0.195312
vt 0.484375 0.195312
vt 0.484375 0.262559
vt 0.390625 0.262559
vt 0.578768 0.200455
vt 0.499357 0.200455
vt 0.499357 0.257417
vt 0.578768 0.257417
vt 0.554688 0.992188
vt 0.625000 0.992188
vt 0.619623 0.664062
vt 0.560064 0.664062
vt 0.036489 0.200455
vt 0.007812 0.195312
vt 0.007812 0.262559
vt 0.036489 0.257417
vt 0.867188 0.296875
vt 0.492188 0.302017
vt 0.492188 0.358979
vt 0.867188 0.364122
vt 0.423713 0.261570
vt 0.451287 0.261570
vt 0.451287 0.273438
vt 0.423713 0.273438
vt 0.552849 0.261570
vt 0.525276 0.261570
vt 0.525276 0.273438
vt 0.552849 0.273438
vt 0.579504 0.929844
vt 0.600184 0.929844
vt 0.600184 0.726406
vt 0.579504 0.726406
vt 0.140165 0.261570
vt 0.140165 0.273438
vt 0.795937 0.363133
vt 0.563438 0.363133
vt 0.563438 0.375000
vt 0.795937 0.375000
vt 0.407169 0.206685
vt 0.467831 0.206685
vt 0.467831 0.251187
vt 0.407169 0.251187
vt 0.569393 0.206685
vt 0.508732 0.206685
vt 0.508732 0.251187
vt 0.569393 0.251187
vt 0.567096 0.710615
vt 0.612592 0.710615
vt 0.612592 0.703232
vt 0.567096 0.703232
vt 0.073989 0.206685
vt 0.073989 0.251187
vt 0.545391 0.308248
vt 0.536953 0.308248
vt 0.536953 0.352749
vt 0.545391 0.352749
vt 0.054687 0.281250
vt 0.083658 0.281250
vt 0.079777 0.328125
vt 0.054687 0.328125
vt 0.007812 0.290202
vt 0.007812 0.313640
vt 0.054687 0.315580
vt 0.054688 0.295283
vt 0.007812 0.342610
vt 0.054687 0.340670
vt 0.007812 0.366048
vt 0.054687 0.360967
vt 0.025717 0.281250
vt 0.029598 0.328125
vt 0.054687 0.287530
vt 0.079777 0.295283
vt 0.069173 0.309164
vt 0.054687 0.304688
vt 0.095282 0.315580
vt 0.078125 0.320882
vt 0.089002 0.335368
vt 0.089002 0.320882
vt 0.095282 0.340670
vt 0.079777 0.360967
vt 0.069173 0.347086
vt 0.078125 0.335368
vt 0.054687 0.368720
vt 0.054687 0.351562
vt 0.054687 0.362440
vt 0.069173 0.362440
vt 0.029598 0.360967
vt 0.040202 0.347086
vt 0.014093 0.340670
vt 0.031250 0.335368
vt 0.014093 0.315580
vt 0.029598 0.295283
vt 0.040202 0.309164
vt 0.031250 0.320882
vt 0.054687 0.328125
vt 0.187500 0.484375
vt 0.312500 0.484375
vt 0.312500 0.656250
vt 0.187500 0.656250
vt 0.312500 0.484375
vt 0.187500 0.484375
vt 0.187500 0.656250
vt 0.312500 0.656250
vt 0.320312 0.656250
vt 0.382812 0.656250
vt 0.382812 0.484375
vt 0.320312 0.484375
vt 0.187500 0.484375
vt 0.312500 0.484375
vt 0.312500 0.656250
vt 0.187500 0.656250
vt 0.054688 0.281250
vt 0.083658 0.281250
vt 0.079777 0.328125
vt 0.054688 0.328125
vt 0.007812 0.290202
vt 0.007812 0.313640
vt 0.054687 0.315580
vt 0.054688 0.295283
vt 0.007812 0.342610
vt 0.054687 0.340670
vt 0.007812 0.366048
vt 0.054687 0.360967
vt 0.025717 0.281250
vt 0.029598 0.328125
vt 0.054688 0.287530
vt 0.079777 0.295283
vt 0.069173 0.309164
vt 0.054688 0.304688
vt 0.095282 0.315580
vt 0.078125 0.320882
vt 0.089002 0.335368
vt 0.089002 0.320882
vt 0.095282 0.340670
vt 0.079777 0.360967
vt 0.069173 0.347086
vt 0.078125 0.335368
vt 0.054688 0.368720
vt 0.054688 0.351562
vt 0.054688 0.362440
vt 0.069173 0.362440
vt 0.029598 0.360967
vt 0.040202 0.347086
vt 0.014093 0.340670
vt 0.031250 0.335368
vt 0.014093 0.315580
vt 0.029598 0.295283
vt 0.040202 0.309164
vt 0.031250 0.320882
vt 0.054688 0.328125
vt 0.187500 0.484375
vt 0.312500 0.484375
vt 0.312500 0.656250
vt 0.187500 0.656250
vt 0.312500 0.484375
vt 0.187500 0.484375
vt 0.187500 0.656250
vt 0.312500 0.656250
vt 0.320312 0.656250
vt 0.382812 0.656250
vt 0.382812 0.484375
vt 0.320312 0.484375
vt 0.187500 0.484375
vt 0.312500 0.484375
vt 0.312500 0.656250
vt 0.187500 0.656250
vn -0.000000 0.099833 0.995004
vn -0.000000 -0.099833 -0.995004
vn 0.000000 0.999559 -0.029695
vn 0.000000 -0.985534 0.169479
vn -0.990955 0.013397 0.133521
vn 0.990955 0.013397 0.133521
vn 0.299447 -0.892345 0.337716
vn 0.783962 -0.542083 0.302572
vn 0.969030 0.024653 0.245709
vn 0.783962 0.591389 0.188846
vn 0.299447 0.941651 0.153702
vn -0.299447 0.941651 0.153702
vn -0.783962 0.591389 0.188846
vn -0.969030 0.024653 0.245709
vn -0.783962 -0.542083 0.302572
vn -0.299447 -0.892345 0.337716
vn 0.223919 -0.616908 0.754509
vn 0.586227 -0.354991 0.728230
vn 0.724617 0.068800 0.685709
vn 0.586227 0.492592 0.643188
vn 0.223919 0.754509 0.616908
vn -0.223919 0.754509 0.616908
vn -0.586227 0.492592 0.643188
vn -0.724617 0.068800 0.685709
vn -0.586227 -0.354991 0.728230
vn -0.223919 -0.616908 0.754509
vn 0.083800 -0.160528 0.983468
vn 0.219390 -0.062508 0.973633
vn 0.271181 0.096092 0.957720
vn 0.219390 0.254693 0.941807
vn 0.083800 0.352713 0.931972
vn -0.083800 0.352713 0.931972
vn -0.219390 0.254693 0.941807
vn -0.271181 0.096092 0.957720
vn -0.219390 -0.062508 0.973633
vn -0.083800 -0.160528 0.983468
vn 0.000000 -1.000000 0.000000
vn 0.000000 1.000000 0.000000
vn -0.679100 0.000000 -0.734046
vn 0.679100 0.000000 0.734046
vn -0.770727 0.000000 -0.637165
vn 0.770727 0.000000 0.637165
vn -0.846112 0.000000 -0.533006
vn 0.846112 0.000000 0.533006
vn -0.905718 0.000000 -0.423882
vn 0.905718 0.000000 0.423882
vn -0.950234 0.000000 -0.311536
vn 0.950234 0.000000 0.311536
vn -0.980358 0.000000 -0.197224
vn 0.980358 0.000000 0.197224
vn -0.996645 0.000000 -0.081842
vn 0.996645 0.000000 0.081842
vn -0.999424 0.000000 0.033946
vn 0.999424 0.000000 -0.033946
vn -0.988751 0.000000 0.149568
vn 0.988751 0.000000 -0.149568
vn -0.964409 0.000000 0.264415
vn 0.964409 0.000000 -0.264415
vn -0.925927 0.000000 0.377703
vn 0.925927 0.000000 -0.377703
vn -0.872653 0.000000 0.488341
vn 0.872653 0.000000 -0.488341
vn -0.803873 0.000000 0.594802
vn 0.803873 0.000000 -0.594802
vn -0.718997 0.000000 0.695013
vn 0.718997 0.000000 -0.695013
vn -0.617822 0.000000 0.786318
vn 0.617822 0.000000 -0.786318
vn -0.500846 0.000000 0.865536
vn 0.500846 0.000000 -0.865536
vn -0.369588 0.000000 0.929196
vn 0.369588 0.000000 -0.929196
vn -0.226802 0.000000 0.973941
vn 0.226802 0.000000 -0.973941
vn -0.076477 0.000000 0.997071
vn 0.076477 0.000000 -0.997071
vn 0.076477 0.000000 0.997071
vn -0.076477 0.000000 -0.997071
vn 0.226802 0.000000 0.973941
vn -0.226802 0.000000 -0.973941
vn 0.369588 0.000000 0.929196
vn -0.369588 0.000000 -0.929196
vn 0.500846 0.000000 0.865536
vn -0.500846 0.000000 -0.865536
vn 0.617822 0.000000 0.786318
vn -0.617822 0.000000 -0.786318
vn 0.718997 0.000000 0.695013
vn -0.718997 0.000000 -0.695013
vn 0.803873 0.000000 0.594802
vn -0.803873 0.000000 -0.594802
vn 0.872653 0.000000 0.488341
vn -0.872653 0.000000 -0.488341
vn 0.925927 0.000000 0.377703
vn -0.925927 0.000000 -0.377703
vn 0.964409 0.000000 0.264415
vn -0.964409 0.000000 -0.264415
vn 0.988751 0.000000 0.149568
vn -0.988751 0.000000 -0.149568
vn 0.999424 0.000000 0.033946
vn -0.999424 0.000000 -0.033946
vn 0.996645 0.000000 -0.081842
vn -0.996645 0.000000 0.081842
vn 0.980358 0.000000 -0.197224
vn -0.980358 0.000000 0.197224
vn 0.950234 0.000000 -0.311536
vn -0.950234 0.000000 0.311536
vn 0.905718 0.000000 -0.423882
vn -0.905718 0.000000 0.423882
vn 0.846112 0.000000 -0.533006
vn -0.846112 0.000000 0.533006
vn 0.770727 0.000000 -0.637165
vn -0.770727 0.000000 0.637165
vn 0.679100 0.000000 -0.734046
vn -0.679100 0.000000 0.734046
vn -0.854130 0.000000 0.520059
vn 0.854130 0.000000 0.520059
vn -0.866025 0.000000 0.500000
vn -0.291588 -0.705346 -0.646115
vn -0.291588 0.705346 -0.646115
vn 0.413758 0.705346 0.575580
vn 0.413758 -0.705346 0.575580
vn 0.866025 0.000000 0.500000
vn -0.413758 -0.705346 0.575580
vn -0.413758 0.705346 0.575580
vn 0.291588 0.705346 -0.646115
vn 0.291588 -0.705346 -0.646115
vn 0.000000 0.000000 1.000000
vn 0.000000 0.000000 -1.000000
vn -0.000000 1.000000 0.000000
vn 0.000000 -1.000000 0.000000
vn -1.000000 0.000000 0.000000
vn 1.000000 0.000000 0.000000
vn 0.000000 0.000000 1.000000
vn 0.000000 0.000000 -1.000000
vn -0.000000 1.000000 0.000000
vn 0.000000 -1.000000 0.000000
vn -1.000000 0.000000 0.000000
vn 1.000000 0.000000 0.000000
vn 0.000000 0.000000 1.000000
vn 0.000000 0.000000 -1.000000
vn -0.000000 1.000000 0.000000
vn 0.000000 -1.000000 0.000000
vn -1.000000 0.000000 0.000000
vn 1.000000 0.000000 0.000000
vn 0.000000 0.000000 1.000000
vn 0.000000 0.000000 -1.000000
vn -0.000000 1.000000 0.000000
vn 0.000000 -1.000000 0.000000
vn -1.000000 0.000000 0.000000
vn 1.000000 0.000000 0.000000
vn 0.000000 0.000000 1.000000
vn 0.000000 0.000000 -1.000000
vn -0.000000 1.000000 0.000000
vn 0.000000 -1.000000 0.000000
vn -1.000000 0.000000 0.000000
vn 1.000000 0.000000 0.000000
vn 0.000000 0.000000 1.000000
vn 0.000000 0.000000 -1.000000
vn -0.000000 1.000000 0.000000
vn 0.000000 -1.000000 0.000000
vn -1.000000 0.000000 0.000000
vn 1.000000 0.000000 0.000000
vn 0.000000 0.000000 1.000000
vn 0.000000 0.000000 -1.000000
vn -0.000000 1.000000 0.000000
vn 0.000000 -1.000000 0.000000
vn -1.000000 0.000000 0.000000
vn 1.000000 0.000000 0.000000
vn 0.000000 0.000000 1.000000
vn 0.000000 0.000000 -1.000000
vn -0.000000 1.000000 0.000000
vn 0.000000 -1.000000 0.000000
vn -1.000000 0.000000 0.000000
vn 1.000000 0.000000 0.000000
vn 0.000000 0.000000 1.000000
vn 0.000000 0.000000 -1.000000
vn -0.000000 1.000000 0.000000
vn 0.000000 -1.000000 0.000000
vn -1.000000 0.000000 0.000000
vn 1.000000 0.000000 0.000000
vn 0.000000 0.000000 1.000000
vn 0.000000 0.000000 -1.000000
vn -0.000000 1.000000 0.000000
vn 0.000000 -1.000000 0.000000
vn -1.000000 0.000000 0.000000
vn 1.000000 0.000000 0.000000
vn 0.000000 0.000000 1.000000
vn 0.000000 0.000000 -1.000000
vn 0.000000 0.999952 -0.009750
vn 0.000000 -0.999952 -0.009750
vn -0.999926 0.000000 -0.012187
vn 0.999926 0.000000 -0.012187
vn -0.000000 1.000000 0.000000
vn 0.000000 -1.000000 0.000000
vn -1.000000 0.000000 0.000000
vn 1.000000 0.000000 0.000000
vn 0.000000 0.000000 1.000000
vn 0.000000 0.000000 -1.000000
vn 0.000000 0.999952 -0.009750
vn 0.000000 -0.999952 -0.009750
vn -0.999926 0.000000 -0.012187
vn 0.999926 0.000000 -0.012187
vn -0.000000 1.000000 0.000000
vn 0.000000 -1.000000 0.000000
vn -1.000000 0.000000 0.000000
vn 1.000000 0.000000 0.000000
vn 0.299447 -0.921602 0.246943
vn 0.783962 -0.569582 0.246943
vn 0.969030 -0.000000 0.246943
vn 0.783962 0.569582 0.246943
vn 0.299447 0.921602 0.246943
vn -0.299447 0.921602 0.246943
vn -0.783962 0.569582 0.246943
vn -0.969030 0.000000 0.246943
vn -0.783962 -0.569582 0.246943
vn -0.299447 -0.921602 0.246943
vn 0.223919 -0.689152 0.689152
vn 0.586227 -0.425919 0.689152
vn 0.724617 -0.000000 0.689152
vn 0.586227 0.425919 0.689152
vn 0.223919 0.689152 0.689152
vn -0.223919 0.689152 0.689152
vn -0.586227 0.425919 0.689152
vn -0.724617 0.000000 0.689152
vn -0.586227 -0.425919 0.689152
vn -0.223919 -0.689152 0.689152
vn 0.083800 -0.257909 0.962528
vn 0.219390 -0.159396 0.962528
vn 0.271181 -0.000000 0.962528
vn 0.219390 0.159396 0.962528
vn 0.083800 0.257909 0.962528
vn -0.083800 0.257909 0.962528
vn -0.219390 0.159396 0.962528
vn -0.271181 0.000000 0.962528
vn -0.219390 -0.159396 0.962528
vn -0.083800 -0.257909 0.962528
vn 0.000000 0.000000 1.000000
vn 0.000000 0.000000 -1.000000
vn -0.000000 1.000000 0.000000
vn 0.000000 -1.000000 0.000000
vn -1.000000 0.000000 0.000000
vn 1.000000 0.000000 0.000000
vn 0.299447 -0.921602 0.246943
vn 0.783962 -0.569582 0.246943
vn 0.969030 -0.000000 0.246943
vn 0.783962 0.569582 0.246943
vn 0.299447 0.921602 0.246943
vn -0.299447 0.921602 0.246943
vn -0.783962 0.569582 0.246943
vn -0.969030 0.000000 0.246943
vn -0.783962 -0.569582 0.246943
vn -0.299447 -0.921602 0.246943
vn 0.223919 -0.689152 0.689152
vn 0.586227 -0.425919 0.689152
vn 0.724617 -0.000000 0.689152
vn 0.586227 0.425919 0.689152
vn 0.223919 0.689152 0.689152
vn -0.223919 0.689152 0.689152
vn -0.586227 0.425919 0.689152
vn -0.724617 0.000000 0.689152
vn -0.586227 -0.425919 0.689152
vn -0.223919 -0.689152 0.689152
vn 0.083800 -0.257909 0.962528
vn 0.219390 -0.159396 0.962528
vn 0.271181 -0.000000 0.962528
vn 0.219390 0.159396 0.962528
vn 0.083800 0.257909 0.962528
vn -0.083800 0.257909 0.962528
vn -0.219390 0.159396 0.962528
vn -0.271181 0.000000 0.962528
vn -0.219390 -0.159396 0.962528
vn -0.083800 -0.257909 0.962528
vn 0.000000 0.000000 1.000000
vn 0.000000 0.000000 -1.000000
vn -0.000000 1.000000 0.000000
vn 0.000000 -1.000000 0.000000
vn -1.000000 0.000000 0.000000
vn 1.000000 0.000000 0.000000
f 1/1/1 2/2/1 3/3/1
f 1/1/1 3/3/1 4/4/1
f 5/5/2 6/6/2 7/7/2
f 5/5/2 7/7/2 8/8/2
f 4/9/3 3/10/3 8/11/3
f 4/9/3 8/11/3 7/12/3
f 6/13/4 5/14/4 2/15/4
f 6/13/4 2/15/4 1/16/4
f 6/17/5 1/18/5 4/19/5
f 6/17/5 4/19/5 7/20/5
f 2/18/6 5/17/6 8/20/6
f 2/18/6 8/20/6 3/19/6
f 9/21/7 10/22/7 11/23/7
f 9/21/7 11/23/7 12/24/7
f 10/25/8 13/26/8 14/27/8
f 10/25/8 14/27/8 11/28/8
f 13/26/9 15/29/9 16/30/9
f 13/26/9 16/30/9 14/27/9
f 15/29/10 17/31/10 18/32/10
f 15/29/10 18/32/10 16/30/10
f 17/33/11 19/34/11 20/35/11
f 17/33/11 20/35/11 18/36/11
f 19/34/12 21/37/12 22/38/12
f 19/34/12 22/38/12 20/35/12
f 21/31/13 23/29/13 24/30/13
f 21/31/13 24/30/13 22/32/13
f 23/29/14 25/26/14 26/27/14
f 23/29/14 26/27/14 24/30/14
f 25/26/15 27/25/15 28/28/15
f 25/26/15 28/28/15 26/27/15
f 27/39/16 9/21/16 12/24/16
f 27/39/16 12/24/16 28/40/16
f 12/41/17 11/42/17 29/43/17
f 12/41/17 29/43/17 30/44/17
f 11/42/18 14/45/18 31/46/18
f 11/42/18 31/46/18 29/43/18
f 14/27/19 16/30/19 32/47/19
f 14/27/19 32/47/19 31/48/19
f 16/49/20 18/50/20 33/51/20
f 16/49/20 33/51/20 32/52/20
f 18/36/21 20/35/21 34/53/21
f 18/36/21 34/53/21 33/54/21
f 20/35/22 22/38/22 35/55/22
f 20/35/22 35/55/22 34/53/22
f 22/56/23 24/57/23 36/58/23
f 22/56/23 36/58/23 35/59/23
f 24/30/24 26/27/24 37/48/24
f 24/30/24 37/48/24 36/47/24
f 26/60/25 28/61/25 38/62/25
f 26/60/25 38/62/25 37/63/25
f 28/61/26 12/41/26 30/44/26
f 28/61/26 30/44/26 38/62/26
f 30/44/27 29/43/27 39/64/27
f 29/43/28 31/46/28 39/64/28
f 31/46/29 32/52/29 39/64/29
f 32/52/30 33/51/30 39/64/30
f 33/51/31 34/65/31 39/64/31
f 34/65/32 35/59/32 39/64/32
f 35/59/33 36/58/33 39/64/33
f 36/58/34 37/63/34 39/64/34
f 37/63/35 38/62/35 39/64/35
f 38/62/36 30/44/36 39/64/36
f 40/66/37 41/67/37 42/68/37
f 40/66/37 42/68/37 43/69/37
f 44/69/38 45/68/38 46/67/38
f 44/69/38 46/67/38 47/66/38
f 43/70/39 40/71/39 47/72/39
f 43/70/39 47/72/39 44/73/39
f 41/74/40 42/75/40 45/76/40
f 41/74/40 45/76/40 46/77/40
f 43/69/37 42/68/37 48/78/37
f 43/69/37 48/78/37 49/79/37
f 50/79/38 51/78/38 45/68/38
f 50/79/38 45/68/38 44/69/38
f 49/80/41 43/81/41 44/82/41
f 49/80/41 44/82/41 50/83/41
f 42/84/42 48/85/42 51/86/42
f 42/84/42 51/86/42 45/87/42
f 49/79/37 48/78/37 52/88/37
f 49/79/37 52/88/37 53/89/37
f 54/89/38 55/88/38 51/78/38
f 54/89/38 51/78/38 50/79/38
f 53/90/43 49/80/43 50/83/43
f 53/90/43 50/83/43 54/91/43
f 48/85/44 52/92/44 55/93/44
f 48/85/44 55/93/44 51/86/44
f 53/89/37 52/88/37 56/94/37
f 53/89/37 56/94/37 57/95/37
f 58/95/38 59/94/38 55/88/38
f 58/95/38 55/88/38 54/89/38
f 57/96/45 53/90/45 54/91/45
f 57/96/45 54/91/45 58/97/45
f 52/92/46 56/98/46 59/99/46
f 52/92/46 59/99/46 55/93/46
f 57/95/37 56/94/37 60/100/37
f 57/95/37 60/100/37 61/101/37
f 62/101/38 63/100/38 59/94/38
f 62/101/38 59/94/38 58/95/38
f 61/102/47 57/96/47 58/97/47
f 61/102/47 58/97/47 62/103/47
f 56/98/48 60/104/48 63/105/48
f 56/98/48 63/105/48 59/99/48
f 61/101/37 60/100/37 64/106/37
f 61/101/37 64/106/37 65/107/37
f 66/107/38 67/106/38 63/100/38
f 66/107/38 63/100/38 62/101/38
f 65/108/49 61/102/49 62/103/49
f 65/108/49 62/103/49 66/109/49
f 60/104/50 64/110/50 67/111/50
f 60/104/50 67/111/50 63/105/50
f 65/107/37 64/106/37 68/112/37
f 65/107/37 68/112/37 69/113/37
f 70/113/38 71/112/38 67/106/38
f 70/113/38 67/106/38 66/107/38
f 69/114/51 65/108/51 66/109/51
f 69/114/51 66/109/51 70/115/51
f 64/110/52 68/116/52 71/117/52
f 64/110/52 71/117/52 67/111/52
f 69/113/37 68/112/37 72/118/37
f 69/113/37 72/118/37 73/119/37
f 74/119/38 75/118/38 71/112/38
f 74/119/38 71/112/38 70/113/38
f 73/120/53 69/114/53 70/115/53
f 73/120/53 70/115/53 74/121/53
f 68/116/54 72/122/54 75/123/54
f 68/116/54 75/123/54 71/117/54
f 73/119/37 72/118/37 76/124/37
f 73/119/37 76/124/37 77/125/37
f 78/125/38 79/124/38 75/118/38
f 78/125/38 75/118/38 74/119/38
f 77/126/55 73/120/55 74/121/55
f 77/126/55 74/121/55 78/127/55
f 72/122/56 76/128/56 79/129/56
f 72/122/56 79/129/56 75/123/56
f 77/125/37 76/124/37 80/130/37
f 77/125/37 80/130/37 81/131/37
f 82/131/38 83/130/38 79/124/38
f 82/131/38 79/124/38 78/125/38
f 81/132/57 77/126/57 78/127/57
f 81/132/57 78/127/57 82/133/57
f 76/128/58 80/134/58 83/135/58
f 76/128/58 83/135/58 79/129/58
f 81/131/37 80/130/37 84/136/37
f 81/131/37 84/136/37 85/137/37
f 86/137/38 87/136/38 83/130/38
f 86/137/38 83/130/38 82/131/38
f 85/138/59 81/132/59 82/133/59
f 85/138/59 82/133/59 86/139/59
f 80/134/60 84/140/60 87/141/60
f 80/134/60 87/141/60 83/135/60
f 85/137/37 84/136/37 88/142/37
f 85/137/37 88/142/37 89/143/37
f 90/143/38 91/142/38 87/136/38
f 90/143/38 87/136/38 86/137/38
f 89/144/61 85/138/61 86/139/61
f 89/144/61 86/139/61 90/145/61
f 84/140/62 88/146/62 91/147/62
f 84/140/62 91/147/62 87/141/62
f 89/143/37 88/142/37 92/148/37
f 89/143/37 92/148/37 93/149/37
f 94/149/38 95/148/38 91/142/38
f 94/149/38 91/142/38 90/143/38
f 93/150/63 89/144/63 90/145/63
f 93/150/63 90/145/63 94/151/63
f 88/146/64 92/152/64 95/153/64
f 88/146/64 95/153/64 91/147/64
f 93/149/37 92/148/37 96/154/37
f 93/149/37 96/154/37 97/155/37
f 98/155/38 99/154/38 95/148/38
f 98/155/38 95/148/38 94/149/38
f 97/156/65 93/150/65 94/151/65
f 97/156/65 94/151/65 98/157/65
f 92/152/66 96/158/66 99/159/66
f 92/152/66 99/159/66 95/153/66
f 97/155/37 96/154/37 100/160/37
f 97/155/37 100/160/37 101/161/37
f 102/161/38 103/160/38 99/154/38
f 102/161/38 99/154/38 98/155/38
f 101/162/67 97/163/67 98/164/67
f 101/162/67 98/164/67 102/165/67
f 96/166/68 100/167/68 103/168/68
f 96/166/68 103/168/68 99/169/68
f 101/161/37 100/160/37 104/170/37
f 101/161/37 104/170/37 105/171/37
f 106/171/38 107/170/38 103/160/38
f 106/171/38 103/160/38 102/161/38
f 105/172/69 101/162/69 102/165/69
f 105/172/69 102/165/69 106/173/69
f 100/167/70 104/174/70 107/175/70
f 100/167/70 107/175/70 103/168/70
f 105/171/37 104/170/37 108/176/37
f 105/171/37 108/176/37 109/177/37
f 110/177/38 111/176/38 107/170/38
f 110/177/38 107/170/38 106/171/38
f 109/178/71 105/172/71 106/173/71
f 109/178/71 106/173/71 110/179/71
f 104/174/72 108/180/72 111/181/72
f 104/174/72 111/181/72 107/175/72
f 109/177/37 108/176/37 112/182/37
f 109/177/37 112/182/37 113/183/37
f 114/183/38 115/182/38 111/176/38
f 114/183/38 111/176/38 110/177/38
f 113/184/73 109/178/73 110/179/73
f 113/184/73 110/179/73 114/185/73
f 108/180/74 112/186/74 115/187/74
f 108/180/74 115/187/74 111/181/74
f 113/183/37 112/182/37 116/188/37
f 113/183/37 116/188/37 117/189/37
f 118/189/38 119/188/38 115/182/38
f 118/189/38 115/182/38 114/183/38
f 117/190/75 113/184/75 114/185/75
f 117/190/75 114/185/75 118/191/75
f 112/186/76 116/192/76 119/193/76
f 112/186/76 119/193/76 115/187/76
f 117/189/37 116/188/37 120/194/37
f 117/189/37 120/194/37 121/195/37
f 122/195/38 123/194/38 119/188/38
f 122/195/38 119/188/38 118/189/38
f 121/196/77 117/190/77 118/191/77
f 121/196/77 118/191/77 122/197/77
f 116/192/78 120/198/78 123/199/78
f 116/192/78 123/199/78 119/193/78
f 121/195/37 120/194/37 124/200/37
f 121/195/37 124/200/37 125/201/37
f 126/201/38 127/200/38 123/194/38
f 126/201/38 123/194/38 122/195/38
f 125/202/79 121/196/79 122/197/79
f 125/202/79 122/197/79 126/203/79
f 120/198/80 124/204/80 127/205/80
f 120/198/80 127/205/80 123/199/80
f 125/201/37 124/200/37 128/206/37
f 125/201/37 128/206/37 129/207/37
f 130/207/38 131/206/38 127/200/38
f 130/207/38 127/200/38 126/201/38
f 129/208/81 125/202/81 126/203/81
f 129/208/81 126/203/81 130/209/81
f 124/204/82 128/210/82 131/211/82
f 124/204/82 131/211/82 127/205/82
f 129/207/37 128/206/37 132/212/37
f 129/207/37 132/212/37 133/213/37
f 134/213/38 135/212/38 131/206/38
f 134/213/38 131/206/38 130/207/38
f 133/214/83 129/208/83 130/209/83
f 133/214/83 130/209/83 134/215/83
f 128/210/84 132/216/84 135/217/84
f 128/210/84 135/217/84 131/211/84
f 133/213/37 132/212/37 136/218/37
f 133/213/37 136/218/37 137/219/37
f 138/219/38 139/218/38 135/212/38
f 138/219/38 135/212/38 134/213/38
f 137/220/85 133/214/85 134/215/85
f 137/220/85 134/215/85 138/221/85
f 132/216/86 136/222/86 139/223/86
f 132/216/86 139/223/86 135/217/86
f 137/219/37 136/218/37 140/224/37
f 137/219/37 140/224/37 141/225/37
f 142/225/38 143/224/38 139/218/38
f 142/225/38 139/218/38 138/219/38
f 141/150/87 137/156/87 138/157/87
f 141/150/87 138/157/87 142/151/87
f 136/158/88 140/152/88 143/153/88
f 136/158/88 143/153/88 139/159/88
f 141/225/37 140/224/37 144/226/37
f 141/225/37 144/226/37 145/227/37
f 146/227/38 147/226/38 143/224/38
f 146/227/38 143/224/38 142/225/38
f 145/144/89 141/150/89 142/151/89
f 145/144/89 142/151/89 146/145/89
f 140/152/90 144/146/90 147/147/90
f 140/152/90 147/147/90 143/153/90
f 145/227/37 144/226/37 148/228/37
f 145/227/37 148/228/37 149/229/37
f 150/229/38 151/228/38 147/226/38
f 150/229/38 147/226/38 146/227/38
f 149/138/91 145/144/91 146/145/91
f 149/138/91 146/145/91 150/139/91
f 144/146/92 148/140/92 151/141/92
f 144/146/92 151/141/92 147/147/92
f 149/229/37 148/228/37 152/230/37
f 149/229/37 152/230/37 153/231/37
f 154/231/38 155/230/38 151/228/38
f 154/231/38 151/228/38 150/229/38
f 153/132/93 149/138/93 150/139/93
f 153/132/93 150/139/93 154/133/93
f 148/140/94 152/134/94 155/135/94
f 148/140/94 155/135/94 151/141/94
f 153/231/37 152/230/37 156/232/37
f 153/231/37 156/232/37 157/233/37
f 158/233/38 159/232/38 155/230/38
f 158/233/38 155/230/38 154/231/38
f 157/126/95 153/132/95 154/133/95
f 157/126/95 154/133/95 158/127/95
f 152/134/96 156/128/96 159/129/96
f 152/134/96 159/129/96 155/135/96
f 157/233/37 156/232/37 160/234/37
f 157/233/37 160/234/37 161/235/37
f 162/235/38 163/234/38 159/232/38
f 162/235/38 159/232/38 158/233/38
f 161/120/97 157/126/97 158/127/97
f 161/120/97 158/127/97 162/121/97
f 156/128/98 160/122/98 163/123/98
f 156/128/98 163/123/98 159/129/98
f 161/235/37 160/234/37 164/236/37
f 161/235/37 164/236/37 165/237/37
f 166/237/38 167/236/38 163/234/38
f 166/237/38 163/234/38 162/235/38
f 165/114/99 161/120/99 162/121/99
f 165/114/99 162/121/99 166/115/99
f 160/122/100 164/116/100 167/117/100
f 160/122/100 167/117/100 163/123/100
f 165/237/37 164/236/37 168/238/37
f 165/237/37 168/238/37 169/239/37
f 170/239/38 171/238/38 167/236/38
f 170/239/38 167/236/38 166/237/38
f 169/108/101 165/114/101 166/115/101
f 169/108/101 166/115/101 170/109/101
f 164/116/102 168/110/102 171/111/102
f 164/116/102 171/111/102 167/117/102
f 169/239/37 168/238/37 172/240/37
f 169/239/37 172/240/37 173/241/37
f 174/241/38 175/240/38 171/238/38
f 174/241/38 171/238/38 170/239/38
f 173/102/103 169/108/103 170/109/103
f 173/102/103 170/109/103 174/103/103
f 168/110/104 172/104/104 175/105/104
f 168/110/104 175/105/104 171/111/104
f 173/241/37 172/240/37 176/242/37
f 173/241/37 176/242/37 177/243/37
f 178/243/38 179/242/38 175/240/38
f 178/243/38 175/240/38 174/241/38
f 177/96/105 173/102/105 174/103/105
f 177/96/105 174/103/105 178/97/105
f 172/104/106 176/98/106 179/99/106
f 172/104/106 179/99/106 175/105/106
f 177/243/37 176/242/37 180/244/37
f 177/243/37 180/244/37 181/245/37
f 182/245/38 183/244/38 179/242/38
f 182/245/38 179/242/38 178/243/38
f 181/90/107 177/96/107 178/97/107
f 181/90/107 178/97/107 182/91/107
f 176/98/108 180/92/108 183/93/108
f 176/98/108 183/93/108 179/99/108
f 181/245/37 180/244/37 184/246/37
f 181/245/37 184/246/37 185/247/37
f 186/247/38 187/246/38 183/244/38
f 186/247/38 183/244/38 182/245/38
f 185/80/109 181/90/109 182/91/109
f 185/80/109 182/91/109 186/83/109
f 180/92/110 184/85/110 187/86/110
f 180/92/110 187/86/110 183/93/110
f 185/247/37 184/246/37 188/248/37
f 185/247/37 188/248/37 189/249/37
f 190/249/38 191/248/38 187/246/38
f 190/249/38 187/246/38 186/247/38
f 189/81/111 185/80/111 186/83/111
f 189/81/111 186/83/111 190/82/111
f 184/85/112 188/84/112 191/87/112
f 184/85/112 191/87/112 187/86/112
f 189/249/37 188/248/37 192/250/37
f 189/249/37 192/250/37 193/251/37
f 194/251/38 195/250/38 191/248/38
f 194/251/38 191/248/38 190/249/38
f 193/252/113 189/253/113 190/254/113
f 193/252/113 190/254/113 194/255/113
f 188/256/114 192/257/114 195/258/114
f 188/256/114 195/258/114 191/259/114
f 40/260/115 47/261/115 46/262/115
f 40/260/115 46/262/115 41/263/115
f 192/263/116 195/262/116 194/261/116
f 192/263/116 194/261/116 193/260/116
f 196/264/117 197/265/117 198/266/117
f 196/264/117 199/267/117 197/265/117
f 196/264/117 200/268/117 199/267/117
f 196/264/117 198/266/117 200/268/117
f 198/269/118 197/270/118 201/271/118
f 197/270/119 199/269/119 201/271/119
f 199/269/120 200/272/120 201/271/120
f 200/272/121 198/269/121 201/271/121
f 202/273/122 203/274/122 204/275/122
f 202/273/122 205/276/122 203/274/122
f 202/273/122 206/277/122 205/276/122
f 202/273/122 204/275/122 206/277/122
f 204/278/123 203/279/123 207/280/123
f 203/279/124 205/278/124 207/280/124
f 205/278/125 206/281/125 207/280/125
f 206/281/126 204/278/126 207/280/126
f 208/282/127 209/283/127 210/284/127
f 208/282/127 210/284/127 211/285/127
f 212/286/128 213/287/128 214/288/128
f 212/286/128 214/288/128 215/289/128
f 211/290/129 210/291/129 215/292/129
f 211/290/129 215/292/129 214/293/129
f 213/293/130 212/292/130 209/291/130
f 213/293/130 209/291/130 208/290/130
f 213/294/131 208/295/131 211/296/131
f 213/294/131 211/296/131 214/297/131
f 209/295/132 212/294/132 215/297/132
f 209/295/132 215/297/132 210/296/132
f 216/298/133 217/299/133 218/300/133
f 216/298/133 218/300/133 219/301/133
f 220/302/134 221/303/134 222/304/134
f 220/302/134 222/304/134 223/305/134
f 219/306/135 218/307/135 223/308/135
f 219/306/135 223/308/135 222/309/135
f 221/309/136 220/308/136 217/307/136
f 221/309/136 217/307/136 216/306/136
f 221/310/137 216/311/137 219/312/137
f 221/310/137 219/312/137 222/313/137
f 217/311/138 220/310/138 223/313/138
f 217/311/138 223/313/138 218/312/138
f 224/314/139 225/315/139 226/316/139
f 224/314/139 226/316/139 227/317/139
f 228/318/140 229/319/140 230/320/140
f 228/318/140 230/320/140 231/321/140
f 227/322/141 226/323/141 231/324/141
f 227/322/141 231/324/141 230/325/141
f 229/325/142 228/324/142 225/323/142
f 229/325/142 225/323/142 224/322/142
f 229/326/143 224/327/143 227/328/143
f 229/326/143 227/328/143 230/329/143
f 225/327/144 228/326/144 231/329/144
f 225/327/144 231/329/144 226/328/144
f 232/330/145 233/331/145 234/332/145
f 232/330/145 234/332/145 235/333/145
f 236/334/146 237/335/146 238/336/146
f 236/334/146 238/336/146 239/337/146
f 235/338/147 234/339/147 239/340/147
f 235/338/147 239/340/147 238/341/147
f 237/341/148 236/340/148 233/339/148
f 237/341/148 233/339/148 232/338/148
f 237/342/149 232/343/149 235/344/149
f 237/342/149 235/344/149 238/345/149
f 233/343/150 236/342/150 239/345/150
f 233/343/150 239/345/150 234/344/150
f 240/346/151 241/347/151 242/348/151
f 240/346/151 242/348/151 243/349/151
f 244/350/152 245/351/152 246/352/152
f 244/350/152 246/352/152 247/353/152
f 243/354/153 242/355/153 247/356/153
f 243/354/153 247/356/153 246/357/153
f 245/357/154 244/356/154 241/355/154
f 245/357/154 241/355/154 240/354/154
f 245/358/155 240/359/155 243/360/155
f 245/358/155 243/360/155 246/361/155
f 241/359/156 244/358/156 247/361/156
f 241/359/156 247/361/156 242/360/156
f 248/362/157 249/363/157 250/364/157
f 248/362/157 250/364/157 251/365/157
f 252/366/158 253/367/158 254/368/158
f 252/366/158 254/368/158 255/369/158
f 251/370/159 250/371/159 255/372/159
f 251/370/159 255/372/159 254/373/159
f 253/373/160 252/372/160 249/371/160
f 253/373/160 249/371/160 248/370/160
f 253/374/161 248/375/161 251/376/161
f 253/374/161 251/376/161 254/377/161
f 249/375/162 252/374/162 255/377/162
f 249/375/162 255/377/162 250/376/162
f 256/378/163 257/379/163 258/380/163
f 256/378/163 258/380/163 259/381/163
f 260/382/164 261/383/164 262/384/164
f 260/382/164 262/384/164 263/385/164
f 259/386/165 258/387/165 263/388/165
f 259/386/165 263/388/165 262/389/165
f 261/389/166 260/388/166 257/387/166
f 261/389/166 257/387/166 256/386/166
f 261/390/167 256/391/167 259/392/167
f 261/390/167 259/392/167 262/393/167
f 257/391/168 260/390/168 263/393/168
f 257/391/168 263/393/168 258/392/168
f 264/394/169 265/395/169 266/396/169
f 264/394/169 266/396/169 267/397/169
f 268/398/170 269/399/170 270/400/170
f 268/398/170 270/400/170 271/401/170
f 267/402/171 266/403/171 271/404/171
f 267/402/171 271/404/171 270/405/171
f 269/405/172 268/404/172 265/403/172
f 269/405/172 265/403/172 264/402/172
f 269/406/173 264/407/173 267/408/173
f 269/406/173 267/408/173 270/409/173
f 265/407/174 268/406/174 271/409/174
f 265/407/174 271/409/174 266/408/174
f 272/410/175 273/411/175 274/412/175
f 272/410/175 274/412/175 275/413/175
f 276/414/176 277/415/176 278/416/176
f 276/414/176 278/416/176 279/417/176
f 275/418/177 274/419/177 279/420/177
f 275/418/177 279/420/177 278/421/177
f 277/421/178 276/420/178 273/419/178
f 277/421/178 273/419/178 272/418/178
f 277/422/179 272/423/179 275/424/179
f 277/422/179 275/424/179 278/425/179
f 273/423/180 276/422/180 279/425/180
f 273/423/180 279/425/180 274/424/180
f 280/426/181 281/427/181 282/428/181
f 280/426/181 282/428/181 283/429/181
f 284/430/182 285/431/182 286/432/182
f 284/430/182 286/432/182 287/433/182
f 283/434/183 282/435/183 287/436/183
f 283/434/183 287/436/183 286/437/183
f 285/437/184 284/436/184 281/435/184
f 285/437/184 281/435/184 280/434/184
f 285/438/185 280/439/185 283/440/185
f 285/438/185 283/440/185 286/441/185
f 281/439/186 284/438/186 287/441/186
f 281/439/186 287/441/186 282/440/186
f 288/442/187 289/443/187 290/444/187
f 288/442/187 290/444/187 291/445/187
f 292/446/188 293/447/188 294/448/188
f 292/446/188 294/448/188 295/449/188
f 291/450/189 290/451/189 295/452/189
f 291/450/189 295/452/189 294/453/189
f 293/453/190 292/452/190 289/451/190
f 293/453/190 289/451/190 288/450/190
f 293/454/191 288/455/191 291/456/191
f 293/454/191 291/456/191 294/457/191
f 289/458/192 292/459/192 295/460/192
f 289/458/192 295/460/192 290/461/192
f 296/462/187 297/463/187 298/464/187
f 296/462/187 298/464/187 299/465/187
f 300/466/188 301/467/188 302/468/188
f 300/466/188 302/468/188 303/469/188
f 299/470/193 298/471/193 303/472/193
f 299/470/193 303/472/193 302/473/193
f 301/473/194 300/472/194 297/471/194
f 301/473/194 297/471/194 296/470/194
f 301/474/195 296/475/195 299/476/195
f 301/474/195 299/476/195 302/477/195
f 297/478/196 300/478/196 303/479/196
f 297/478/196 303/479/196 298/479/196
f 304/480/187 305/481/187 306/482/187
f 304/480/187 306/482/187 307/483/187
f 308/484/188 309/485/188 310/486/188
f 308/484/188 310/486/188 311/487/188
f 307/488/193 306/489/193 311/490/193
f 307/488/193 311/490/193 310/491/193
f 309/491/194 308/490/194 305/489/194
f 309/491/194 305/489/194 304/488/194
f 309/492/195 304/493/195 307/494/195
f 309/492/195 307/494/195 310/495/195
f 305/496/196 308/496/196 311/497/196
f 305/496/196 311/497/196 306/497/196
f 312/498/197 313/499/197 314/500/197
f 312/498/197 314/500/197 315/501/197
f 316/502/198 317/503/198 318/504/198
f 316/502/198 318/504/198 319/505/198
f 315/506/199 314/507/199 319/508/199
f 315/506/199 319/508/199 318/509/199
f 317/509/200 316/508/200 313/507/200
f 317/509/200 313/507/200 312/506/200
f 317/510/201 312/511/201 315/512/201
f 317/510/201 315/512/201 318/513/201
f 313/514/202 316/515/202 319/516/202
f 313/514/202 319/516/202 314/517/202
f 320/518/197 321/519/197 322/520/197
f 320/518/197 322/520/197 323/521/197
f 324/522/198 325/523/198 326/524/198
f 324/522/198 326/524/198 327/525/198
f 323/526/203 322/527/203 327/528/203
f 323/526/203 327/528/203 326/529/203
f 325/529/204 324/528/204 321/527/204
f 325/529/204 321/527/204 320/526/204
f 325/530/205 320/530/205 323/531/205
f 325/530/205 323/531/205 326/531/205
f 321/532/206 324/533/206 327/534/206
f 321/532/206 327/534/206 322/535/206
f 328/536/197 329/537/197 330/538/197
f 328/536/197 330/538/197 331/539/197
f 332/540/198 333/541/198 334/542/198
f 332/540/198 334/542/198 335/543/198
f 331/544/203 330/545/203 335/546/203
f 331/544/203 335/546/203 334/547/203
f 333/547/204 332/546/204 329/545/204
f 333/547/204 329/545/204 328/544/204
f 333/548/205 328/548/205 331/549/205
f 333/548/205 331/549/205 334/549/205
f 329/550/206 332/551/206 335/552/206
f 329/550/206 335/552/206 330/553/206
f 336/554/207 337/555/207 338/556/207
f 336/554/207 338/556/207 339/557/207
f 337/558/208 340/559/208 341/560/208
f 337/558/208 341/560/208 338/561/208
f 340/559/209 342/562/209 343/563/209
f 340/559/209 343/563/209 341/560/209
f 342/562/210 344/564/210 345/565/210
f 342/562/210 345/565/210 343/563/210
f 344/555/211 346/554/211 347/557/211
f 344/555/211 347/557/211 345/556/211
f 346/554/212 348/566/212 349/567/212
f 346/554/212 349/567/212 347/557/212
f 348/564/213 350/562/213 351/563/213
f 348/564/213 351/563/213 349/565/213
f 350/562/214 352/559/214 353/560/214
f 350/562/214 353/560/214 351/563/214
f 352/559/215 354/558/215 355/561/215
f 352/559/215 355/561/215 353/560/215
f 354/566/216 336/554/216 339/557/216
f 354/566/216 339/557/216 355/567/216
f 339/568/217 338/569/217 356/570/217
f 339/568/217 356/570/217 357/571/217
f 338/569/218 341/572/218 358/573/218
f 338/569/218 358/573/218 356/570/218
f 341/560/219 343/563/219 359/574/219
f 341/560/219 359/574/219 358/575/219
f 343/576/220 345/577/220 360/578/220
f 343/576/220 360/578/220 359/579/220
f 345/577/221 347/580/221 361/581/221
f 345/556/221 361/582/221 360/583/221
f 347/580/222 349/584/222 362/585/222
f 347/580/222 362/585/222 361/581/222
f 349/584/223 351/586/223 363/587/223
f 349/584/223 363/587/223 362/585/223
f 351/563/224 353/560/224 364/575/224
f 351/563/224 364/575/224 363/574/224
f 353/588/225 355/589/225 365/590/225
f 353/588/225 365/590/225 364/591/225
f 355/589/226 339/568/226 357/571/226
f 355/589/226 357/571/226 365/590/226
f 357/571/227 356/570/227 366/592/227
f 356/570/228 358/573/228 366/592/228
f 358/573/229 359/579/229 366/592/229
f 359/579/230 360/578/230 366/592/230
f 360/578/231 361/581/231 366/592/231
f 361/581/232 362/585/232 366/592/232
f 362/585/233 363/587/233 366/592/233
f 363/587/234 364/591/234 366/592/234
f 364/591/235 365/590/235 366/592/235
f 365/590/236 357/571/236 366/592/236
f 367/593/237 368/594/237 369/595/237
f 367/593/237 369/595/237 370/596/237
f 371/597/238 372/598/238 373/599/238
f 371/597/238 373/599/238 374/600/238
f 370/601/239 369/602/239 374/603/239
f 370/601/239 374/603/239 373/604/239
f 372/604/240 371/603/240 368/602/240
f 372/604/240 368/602/240 367/601/240
f 372/605/241 367/606/241 370/607/241
f 372/605/241 370/607/241 373/608/241
f 368/606/242 371/605/242 374/608/242
f 368/606/242 374/608/242 369/607/242
f 375/609/243 376/610/243 377/611/243
f 375/609/243 377/611/243 378/612/243
f 376/613/244 379/614/244 380/615/244
f 376/613/244 380/615/244 377/616/244
f 379/614/245 381/617/245 382/618/245
f 379/614/245 382/618/245 380/615/245
f 381/617/246 383/619/246 384/620/246
f 381/617/246 384/620/246 382/618/246
f 383/610/247 385/609/247 386/612/247
f 383/610/247 386/612/247 384/611/247
f 385/609/248 387/621/248 388/622/248
f 385/609/248 388/622/248 386/612/248
f 387/619/249 389/617/249 390/618/249
f 387/619/249 390/618/249 388/620/249
f 389/617/250 391/614/250 392/615/250
f 389/617/250 392/615/250 390/618/250
f 391/614/251 393/613/251 394/616/251
f 391/614/251 394/616/251 392/615/251
f 393/621/252 375/609/252 378/612/252
f 393/621/252 378/612/252 394/622/252
f 378/623/253 377/624/253 395/625/253
f 378/623/253 395/625/253 396/626/253
f 377/624/254 380/627/254 397/628/254
f 377/624/254 397/628/254 395/625/254
f 380/615/255 382/618/255 398/629/255
f 380/615/255 398/629/255 397/630/255
f 382/631/256 384/632/256 399/633/256
f 382/631/256 399/633/256 398/634/256
f 384/632/257 386/635/257 400/636/257
f 384/611/257 400/637/257 399/638/257
f 386/635/258 388/639/258 401/640/258
f 386/635/258 401/640/258 400/636/258
f 388/639/259 390/641/259 402/642/259
f 388/639/259 402/642/259 401/640/259
f 390/618/260 392/615/260 403/630/260
f 390/618/260 403/630/260 402/629/260
f 392/643/261 394/644/261 404/645/261
f 392/643/261 404/645/261 403/646/261
f 394/644/262 378/623/262 396/626/262
f 394/644/262 396/626/262 404/645/262
f 396/626/263 395/625/263 405/647/263
f 395/625/264 397/628/264 405/647/264
f 397/628/265 398/634/265 405/647/265
f 398/634/266 399/633/266 405/647/266
f 399/633/267 400/636/267 405/647/267
f 400/636/268 401/640/268 405/647/268
f 401/640/269 402/642/269 405/647/269
f 402/642/270 403/646/270 405/647/270
f 403/646/271 404/645/271 405/647/271
f 404/645/272 396/626/272 405/647/272
f 406/648/273 407/649/273 408/650/273
f 406/648/273 408/650/273 409/651/273
f 410/652/274 411/653/274 412/654/274
f 410/652/274 412/654/274 413/655/274
f 409/656/275 408/657/275 413/658/275
f 409/656/275 413/658/275 412/659/275
f 411/659/276 410/658/276 407/657/276
f 411/659/276 407/657/276 406/656/276
f 411/660/277 406/661/277 409/662/277
f 411/660/277 409/662/277 412/663/277
f 407/661/278 410/660/278 413/663/278
f 407/661/278 413/663/278 408/662/278
