# Sarn tender, fragment 7 of 8
# Generated by tools. Edit the generator script.
v -0.474460 0.595533 1.204690
v 0.000000 0.595533 1.565428
v 0.000000 0.726300 0.847666
v 0.000000 0.595533 1.457801
v -0.217484 0.721098 1.457801
v 0.000000 0.846662 1.457801
v -0.217484 0.469969 1.457801
v 0.000000 0.344405 1.457801
v 0.000000 0.595533 2.265000
v -0.022422 0.703160 1.547490
v -0.022422 0.703160 1.995934
v -0.022422 0.810786 1.861401
v 0.022422 0.703160 1.547490
v 0.022422 0.810786 1.861401
v 0.022422 0.703160 1.995934
v -0.022422 0.810786 1.637179
v 0.022422 0.810786 1.637179
v -0.081996 0.522302 1.547490
v -0.081996 0.522302 1.995934
v -0.175203 0.468489 1.861401
v -0.104418 0.561138 1.547490
v -0.197626 0.507325 1.861401
v -0.104418 0.561138 1.995934
v -0.175203 0.468489 1.637179
v -0.197626 0.507325 1.637179
v -0.269066 0.469521 1.412957
v -0.241795 0.469521 1.505902
v -0.315505 0.469521 1.497963
v -0.184060 0.469521 1.459396
v -0.176121 0.469521 1.385686
v -0.222627 0.469521 1.327951
v -0.296337 0.469521 1.320011
v -0.354072 0.469521 1.366518
v -0.362012 0.469521 1.440228
v -0.241795 0.542169 1.505902
v -0.315505 0.542169 1.497963
v -0.184060 0.542169 1.459396
v -0.176121 0.542169 1.385686
v -0.222627 0.542169 1.327951
v -0.296337 0.542169 1.320011
v -0.354072 0.542169 1.366518
v -0.362012 0.542169 1.440228
v -0.269066 0.542169 1.412957
v -0.684393 0.521989 2.105861
v -0.627723 0.521989 2.136820
v -0.627723 0.586565 2.136820
v -0.684393 0.586565 2.105861
v -0.240731 0.521989 1.428436
v -0.297402 0.521989 1.397477
v -0.297402 0.586565 1.397477
v -0.240731 0.586565 1.428436
v -0.673440 0.400909 2.102647
v -0.630937 0.400909 2.125866
v -0.630937 0.546205 2.125866
v -0.673440 0.546205 2.102647
v -0.607717 0.400909 2.083363
v -0.650220 0.400909 2.060144
v -0.650220 0.546205 2.060144
v -0.607717 0.546205 2.083363
v -0.158153 0.639122 1.205928
v 0.000000 0.595533 1.659601
vt 0.382543 0.960854
vt 0.445312 0.992188
vt 0.445312 0.929844
vt 0.101562 0.429688
vt 0.007813 0.453125
vt 0.101562 0.476562
vt 0.007812 0.406250
vt 0.101562 0.382812
vt 0.093750 0.484375
vt 0.007813 0.484375
vt 0.093750 0.656250
vt 0.007812 0.453125
vt 0.007812 0.406250
vt 0.195312 0.429688
vt 0.671875 0.382812
vt 0.765625 0.382812
vt 0.737500 0.476562
vt 0.690625 0.476562
vt 0.570312 0.382812
vt 0.664062 0.382812
vt 0.664062 0.476562
vt 0.570312 0.476562
vt 0.664062 0.448437
vt 0.570312 0.448437
vt 0.664062 0.401563
vt 0.570312 0.401563
vt 0.671875 0.476562
vt 0.765625 0.476562
vt 0.765625 0.382812
vt 0.671875 0.382812
vt 0.664062 0.382812
vt 0.664062 0.476562
vt 0.588492 0.448437
vt 0.645883 0.382812
vt 0.570312 0.448437
vt 0.645883 0.476562
vt 0.588492 0.401563
vt 0.570312 0.401563
vt 0.671875 0.437265
vt 0.671875 0.476562
vt 0.765625 0.476562
vt 0.765625 0.437265
vt 0.737500 0.422110
vt 0.737500 0.382812
vt 0.690625 0.422110
vt 0.690625 0.382812
vt 0.690054 0.382812
vt 0.671875 0.422110
vt 0.747446 0.476562
vt 0.765625 0.437265
vt 0.646919 0.393480
vt 0.651949 0.404148
vt 0.638353 0.403237
vt 0.662598 0.398811
vt 0.664062 0.390350
vt 0.655484 0.383724
vt 0.641889 0.382812
vt 0.631240 0.388150
vt 0.629775 0.396610
vt 0.739916 0.417459
vt 0.753511 0.417459
vt 0.753511 0.454144
vt 0.739916 0.454144
vt 0.764161 0.417459
vt 0.764161 0.454144
vt 0.687873 0.417459
vt 0.679413 0.417459
vt 0.679413 0.454144
vt 0.687873 0.454144
vt 0.672786 0.417459
vt 0.672786 0.454144
vt 0.757047 0.417459
vt 0.743451 0.417459
vt 0.743451 0.454144
vt 0.757047 0.454144
vt 0.732802 0.417459
vt 0.732802 0.454144
vt 0.677213 0.417459
vt 0.685673 0.417459
vt 0.685673 0.454144
vt 0.677213 0.454144
vt 0.692300 0.417459
vt 0.692300 0.454144
vt 0.671875 0.443954
vt 0.682328 0.443954
vt 0.682328 0.476562
vt 0.671875 0.476562
vt 0.753708 0.443954
vt 0.743255 0.443954
vt 0.743255 0.476562
vt 0.753708 0.476562
vt 0.570312 0.473009
vt 0.580765 0.476562
vt 0.652145 0.395257
vt 0.641692 0.391704
vt 0.680766 0.443954
vt 0.762072 0.443954
vt 0.762072 0.476562
vt 0.680766 0.476562
vt 0.765625 0.443954
vt 0.684320 0.443954
vt 0.684320 0.476562
vt 0.765625 0.476562
vt 0.673895 0.382812
vt 0.681735 0.382812
vt 0.681735 0.456182
vt 0.673895 0.456182
vt 0.686018 0.382812
vt 0.678178 0.382812
vt 0.678178 0.456182
vt 0.686018 0.456182
vt 0.572333 0.472640
vt 0.580173 0.475305
vt 0.584455 0.470427
vt 0.576616 0.467762
vt 0.756824 0.382812
vt 0.761703 0.382812
vt 0.761703 0.456182
vt 0.756824 0.456182
vt 0.764368 0.382812
vt 0.759489 0.382812
vt 0.759489 0.456182
vt 0.764368 0.456182
vt 0.499241 0.646667
vt 0.497724 0.060000
vt 0.940000 0.940000
vt 0.060000 0.940000
vt 0.280000 0.500000
vt 0.060000 0.940000
vt 0.940000 0.500000
vt 0.060000 0.060000
vt 0.060000 0.500000
vn -0.135027 0.974796 0.177594
vn 0.000000 0.000000 -1.000000
vn -0.482784 0.836206 0.260153
vn -0.965567 0.000000 0.260153
vn -0.482784 -0.836206 0.260153
vn -1.000000 0.000000 0.000000
vn 1.000000 -0.000000 0.000000
vn 0.000000 -1.000000 0.000000
vn -0.000000 0.780869 0.624695
vn -0.000000 1.000000 0.000000
vn 0.000000 0.640184 -0.768221
vn 0.500000 -0.866025 0.000000
vn -0.500000 0.866025 0.000000
vn 0.866025 0.500000 0.000000
vn -0.676252 -0.390434 0.624695
vn -0.866025 -0.500000 0.000000
vn -0.554416 -0.320092 -0.768221
vn 0.000000 -1.000000 0.000000
vn -0.107095 0.000000 0.994249
vn 0.627312 0.000000 0.778768
vn 0.994249 0.000000 0.107095
vn 0.778768 0.000000 -0.627312
vn 0.107095 0.000000 -0.994249
vn -0.627312 0.000000 -0.778768
vn -0.994249 0.000000 -0.107095
vn -0.778768 0.000000 0.627312
vn -0.000000 1.000000 0.000000
vn -0.479426 0.000000 0.877583
vn 0.479426 0.000000 -0.877583
vn -0.877583 0.000000 -0.479426
vn 0.877583 0.000000 0.479426
vn 0.000000 1.000000 0.000000
vn 0.000000 -1.000000 0.000000
vn 0.000000 1.000000 0.000000
vn 0.000000 -1.000000 0.000000
usemtl skin
f 1/1/1 2/2/1 3/3/1
f 4/4/2 5/5/2 6/6/2
f 4/4/2 7/7/2 5/5/2
f 4/4/2 8/8/2 7/7/2
f 6/9/3 5/10/3 9/11/3
f 5/12/4 7/13/4 9/14/4
f 7/10/5 8/9/5 9/11/5
f 10/15/6 11/16/6 12/17/6
f 13/15/7 14/17/7 15/16/7
f 10/15/6 12/17/6 16/18/6
f 13/15/7 17/18/7 14/17/7
f 10/19/8 13/20/8 15/21/8
f 10/19/8 15/21/8 11/22/8
f 11/22/9 15/21/9 14/23/9
f 11/22/9 14/23/9 12/24/9
f 12/24/10 14/23/10 17/25/10
f 12/24/10 17/25/10 16/26/10
f 16/27/11 17/28/11 13/29/11
f 16/27/11 13/29/11 10/30/11
f 18/31/12 19/32/12 20/33/12
f 21/34/13 22/35/13 23/36/13
f 18/31/12 20/33/12 24/37/12
f 21/34/13 25/38/13 22/35/13
f 18/39/14 21/40/14 23/41/14
f 18/39/14 23/41/14 19/42/14
f 19/42/15 23/41/15 22/43/15
f 19/42/15 22/43/15 20/44/15
f 20/44/16 22/43/16 25/45/16
f 20/44/16 25/45/16 24/46/16
f 24/47/17 25/48/17 21/49/17
f 24/47/17 21/49/17 18/50/17
f 26/51/18 27/52/18 28/53/18
f 26/51/18 29/54/18 27/52/18
f 26/51/18 30/55/18 29/54/18
f 26/51/18 31/56/18 30/55/18
f 26/51/18 32/57/18 31/56/18
f 26/51/18 33/58/18 32/57/18
f 26/51/18 34/59/18 33/58/18
f 26/51/18 28/53/18 34/59/18
f 28/60/19 27/61/19 35/62/19
f 28/60/19 35/62/19 36/63/19
f 27/61/20 29/64/20 37/65/20
f 27/61/20 37/65/20 35/62/20
f 29/66/21 30/67/21 38/68/21
f 29/66/21 38/68/21 37/69/21
f 30/67/22 31/70/22 39/71/22
f 30/67/22 39/71/22 38/68/22
f 31/72/23 32/73/23 40/74/23
f 31/72/23 40/74/23 39/75/23
f 32/73/24 33/76/24 41/77/24
f 32/73/24 41/77/24 40/74/24
f 33/78/25 34/79/25 42/80/25
f 33/78/25 42/80/25 41/81/25
f 34/79/26 28/82/26 36/83/26
f 34/79/26 36/83/26 42/80/26
f 36/53/27 35/52/27 43/51/27
f 35/52/27 37/54/27 43/51/27
f 37/54/27 38/55/27 43/51/27
f 38/55/27 39/56/27 43/51/27
f 39/56/27 40/57/27 43/51/27
f 40/57/27 41/58/27 43/51/27
f 41/58/27 42/59/27 43/51/27
f 42/59/27 36/53/27 43/51/27
f 44/84/28 45/85/28 46/86/28
f 44/84/28 46/86/28 47/87/28
f 48/88/29 49/89/29 50/90/29
f 48/88/29 50/90/29 51/91/29
f 47/92/27 46/93/27 51/94/27
f 47/92/27 51/94/27 50/95/27
f 49/95/18 48/94/18 45/93/18
f 49/95/18 45/93/18 44/92/18
f 49/96/30 44/97/30 47/98/30
f 49/96/30 47/98/30 50/99/30
f 45/100/31 48/101/31 51/102/31
f 45/100/31 51/102/31 46/103/31
f 52/104/28 53/105/28 54/106/28
f 52/104/28 54/106/28 55/107/28
f 56/108/29 57/109/29 58/110/29
f 56/108/29 58/110/29 59/111/29
f 55/112/27 54/113/27 59/114/27
f 55/112/27 59/114/27 58/115/27
f 57/115/18 56/114/18 53/113/18
f 57/115/18 53/113/18 52/112/18
f 57/116/30 52/117/30 55/118/30
f 57/116/30 55/118/30 58/119/30
f 53/120/31 56/121/31 59/122/31
f 53/120/31 59/122/31 54/123/31
usemtl interior
f 60/124/32 1/125/32 2/126/32
f 60/124/33 2/126/33 1/125/33
f 60/124/32 2/126/32 3/127/32
f 60/124/33 3/127/33 2/126/33
f 60/124/32 3/127/32 1/125/32
f 60/124/33 1/125/33 3/127/33
f 61/128/34 6/129/34 9/130/34
f 61/128/35 9/130/35 6/129/35
f 61/128/34 9/130/34 8/131/34
f 61/128/35 8/131/35 9/130/35
f 61/128/34 8/131/34 4/132/34
f 61/128/35 4/132/35 8/131/35
f 61/128/34 4/132/34 6/129/34
f 61/128/35 6/129/35 4/132/35
