# Okinawa inspired frigate, nose at +Z, atlas mapped
# Generated by tools. Edit the generator script.
v 0.000000 0.420000 2.670000
v 0.000000 0.100000 2.670000
v 0.505142 0.420000 2.584745
v 0.505142 0.100000 2.584745
v 0.933381 0.420000 2.341960
v 0.933381 0.100000 2.341960
v 1.219521 0.420000 1.978605
v 1.219521 0.100000 1.978605
v 1.320000 0.420000 1.550000
v 1.320000 0.100000 1.550000
v 1.219521 0.420000 1.121395
v 1.219521 0.100000 1.121395
v 0.933381 0.420000 0.758040
v 0.933381 0.100000 0.758040
v 0.505142 0.420000 0.515255
v 0.505142 0.100000 0.515255
v 0.000000 0.420000 0.430000
v 0.000000 0.100000 0.430000
v -0.505142 0.420000 0.515255
v -0.505142 0.100000 0.515255
v -0.933381 0.420000 0.758040
v -0.933381 0.100000 0.758040
v -1.219521 0.420000 1.121395
v -1.219521 0.100000 1.121395
v -1.320000 0.420000 1.550000
v -1.320000 0.100000 1.550000
v -1.219521 0.420000 1.978605
v -1.219521 0.100000 1.978605
v -0.933381 0.420000 2.341960
v -0.933381 0.100000 2.341960
v -0.505142 0.420000 2.584745
v -0.505142 0.100000 2.584745
v 0.000000 0.560000 1.880000
v 0.000000 0.420000 1.880000
v 0.212132 0.560000 1.803848
v 0.212132 0.420000 1.803848
v 0.300000 0.560000 1.620000
v 0.300000 0.420000 1.620000
v 0.212132 0.560000 1.436152
v 0.212132 0.420000 1.436152
v 0.000000 0.560000 1.360000
v 0.000000 0.420000 1.360000
v -0.212132 0.560000 1.436152
v -0.212132 0.420000 1.436152
v -0.300000 0.560000 1.620000
v -0.300000 0.420000 1.620000
v -0.212132 0.560000 1.803848
v -0.212132 0.420000 1.803848
v -0.340000 0.380000 0.620000
v -0.340000 0.140000 0.620000
v 0.340000 0.380000 0.620000
v 0.340000 0.140000 0.620000
v 0.240000 0.380000 -1.200000
v 0.240000 0.140000 -1.200000
v -0.240000 0.380000 -1.200000
v -0.240000 0.140000 -1.200000
v -0.460000 0.440000 -0.600000
v -0.460000 0.020000 -0.600000
v 0.460000 0.440000 -0.600000
v 0.460000 0.020000 -0.600000
v 0.380000 0.440000 -1.720000
v 0.380000 0.020000 -1.720000
v -0.380000 0.440000 -1.720000
v -0.380000 0.020000 -1.720000
v -0.440000 0.460000 -0.550000
v -0.440000 0.300000 -0.550000
v -0.300000 0.460000 -0.720000
v -0.300000 0.300000 -0.720000
v -1.020000 0.460000 -1.300000
v -1.020000 0.300000 -1.300000
v -1.160000 0.460000 -1.100000
v -1.160000 0.300000 -1.100000
v 0.300000 0.460000 -0.720000
v 0.300000 0.300000 -0.720000
v 0.440000 0.460000 -0.550000
v 0.440000 0.300000 -0.550000
v 1.160000 0.460000 -1.100000
v 1.160000 0.300000 -1.100000
v 1.020000 0.460000 -1.300000
v 1.020000 0.300000 -1.300000
v -1.290000 0.740000 0.720000
v -1.290000 0.460000 0.720000
v -0.950000 0.740000 0.720000
v -0.950000 0.460000 0.720000
v -0.910000 0.740000 -1.620000
v -0.910000 0.460000 -1.620000
v -1.330000 0.740000 -1.620000
v -1.330000 0.460000 -1.620000
v 0.950000 0.740000 0.720000
v 0.950000 0.460000 0.720000
v 1.290000 0.740000 0.720000
v 1.290000 0.460000 0.720000
v 1.330000 0.740000 -1.620000
v 1.330000 0.460000 -1.620000
v 0.910000 0.740000 -1.620000
v 0.910000 0.460000 -1.620000
vt 0.250000 0.515625
vt 0.339691 0.533466
vt 0.415728 0.584272
vt 0.466534 0.660309
vt 0.484375 0.750000
vt 0.466534 0.839691
vt 0.415728 0.915728
vt 0.339691 0.966534
vt 0.250000 0.984375
vt 0.160309 0.966534
vt 0.084272 0.915728
vt 0.033466 0.839691
vt 0.015625 0.750000
vt 0.033466 0.660309
vt 0.084272 0.584272
vt 0.160309 0.533466
vt 0.015625 0.421875
vt 0.484375 0.421875
vt 0.484375 0.492188
vt 0.015625 0.492188
vt 0.015625 0.421875
vt 0.484375 0.421875
vt 0.484375 0.492188
vt 0.015625 0.492188
vt 0.015625 0.421875
vt 0.484375 0.421875
vt 0.484375 0.492188
vt 0.015625 0.492188
vt 0.015625 0.421875
vt 0.484375 0.421875
vt 0.484375 0.492188
vt 0.015625 0.492188
vt 0.015625 0.421875
vt 0.484375 0.421875
vt 0.484375 0.492188
vt 0.015625 0.492188
vt 0.015625 0.421875
vt 0.484375 0.421875
vt 0.484375 0.492188
vt 0.015625 0.492188
vt 0.015625 0.421875
vt 0.484375 0.421875
vt 0.484375 0.492188
vt 0.015625 0.492188
vt 0.015625 0.421875
vt 0.484375 0.421875
vt 0.484375 0.492188
vt 0.015625 0.492188
vt 0.015625 0.421875
vt 0.484375 0.421875
vt 0.484375 0.492188
vt 0.015625 0.492188
vt 0.015625 0.421875
vt 0.484375 0.421875
vt 0.484375 0.492188
vt 0.015625 0.492188
vt 0.015625 0.421875
vt 0.484375 0.421875
vt 0.484375 0.492188
vt 0.015625 0.492188
vt 0.015625 0.421875
vt 0.484375 0.421875
vt 0.484375 0.492188
vt 0.015625 0.492188
vt 0.015625 0.421875
vt 0.484375 0.421875
vt 0.484375 0.492188
vt 0.015625 0.492188
vt 0.015625 0.421875
vt 0.484375 0.421875
vt 0.484375 0.492188
vt 0.015625 0.492188
vt 0.015625 0.421875
vt 0.484375 0.421875
vt 0.484375 0.492188
vt 0.015625 0.492188
vt 0.015625 0.421875
vt 0.484375 0.421875
vt 0.484375 0.492188
vt 0.015625 0.492188
vt 0.578125 0.359375
vt 0.622319 0.377681
vt 0.640625 0.421875
vt 0.622319 0.466069
vt 0.578125 0.484375
vt 0.533931 0.466069
vt 0.515625 0.421875
vt 0.533931 0.377681
vt 0.515625 0.273438
vt 0.640625 0.273438
vt 0.640625 0.335938
vt 0.515625 0.335938
vt 0.515625 0.273438
vt 0.640625 0.273438
vt 0.640625 0.335938
vt 0.515625 0.335938
vt 0.515625 0.273438
vt 0.640625 0.273438
vt 0.640625 0.335938
vt 0.515625 0.335938
vt 0.515625 0.273438
vt 0.640625 0.273438
vt 0.640625 0.335938
vt 0.515625 0.335938
vt 0.515625 0.273438
vt 0.640625 0.273438
vt 0.640625 0.335938
vt 0.515625 0.335938
vt 0.515625 0.273438
vt 0.640625 0.273438
vt 0.640625 0.335938
vt 0.515625 0.335938
vt 0.515625 0.273438
vt 0.640625 0.273438
vt 0.640625 0.335938
vt 0.515625 0.335938
vt 0.515625 0.273438
vt 0.640625 0.273438
vt 0.640625 0.335938
vt 0.515625 0.335938
vt 0.671875 0.750000
vt 0.921875 0.750000
vt 0.885110 0.984375
vt 0.708640 0.984375
vt 0.671875 0.664062
vt 0.921875 0.664062
vt 0.921875 0.726562
vt 0.671875 0.726562
vt 0.671875 0.664062
vt 0.921875 0.664062
vt 0.921875 0.726562
vt 0.671875 0.726562
vt 0.671875 0.664062
vt 0.921875 0.664062
vt 0.921875 0.726562
vt 0.671875 0.726562
vt 0.671875 0.664062
vt 0.921875 0.664062
vt 0.921875 0.726562
vt 0.671875 0.726562
vt 0.671875 0.398438
vt 0.921875 0.398438
vt 0.900136 0.632812
vt 0.693614 0.632812
vt 0.671875 0.312500
vt 0.921875 0.312500
vt 0.921875 0.375000
vt 0.671875 0.375000
vt 0.671875 0.312500
vt 0.921875 0.312500
vt 0.921875 0.375000
vt 0.671875 0.375000
vt 0.671875 0.046875
vt 0.921875 0.046875
vt 0.921875 0.140625
vt 0.671875 0.140625
vt 0.671875 0.312500
vt 0.921875 0.312500
vt 0.921875 0.375000
vt 0.671875 0.375000
vt 0.881177 0.164062
vt 0.921875 0.192396
vt 0.712573 0.289062
vt 0.671875 0.255729
vt 0.671875 0.164062
vt 0.921875 0.164062
vt 0.921875 0.289062
vt 0.671875 0.289062
vt 0.671875 0.164062
vt 0.921875 0.164062
vt 0.921875 0.289062
vt 0.671875 0.289062
vt 0.671875 0.164062
vt 0.921875 0.164062
vt 0.921875 0.289062
vt 0.671875 0.289062
vt 0.671875 0.164062
vt 0.921875 0.164062
vt 0.921875 0.289062
vt 0.671875 0.289062
vt 0.671875 0.192396
vt 0.712573 0.164062
vt 0.921875 0.255729
vt 0.881177 0.289062
vt 0.671875 0.164062
vt 0.921875 0.164062
vt 0.921875 0.289062
vt 0.671875 0.289062
vt 0.671875 0.164062
vt 0.921875 0.164062
vt 0.921875 0.289062
vt 0.671875 0.289062
vt 0.671875 0.164062
vt 0.921875 0.164062
vt 0.921875 0.289062
vt 0.671875 0.289062
vt 0.671875 0.164062
vt 0.921875 0.164062
vt 0.921875 0.289062
vt 0.671875 0.289062
vt 0.527530 0.515625
vt 0.628720 0.515625
vt 0.640625 0.984375
vt 0.515625 0.984375
vt 0.515625 0.039062
vt 0.640625 0.039062
vt 0.640625 0.132812
vt 0.515625 0.132812
vt 0.015625 0.304688
vt 0.484375 0.304688
vt 0.484375 0.398438
vt 0.015625 0.398438
vt 0.515625 0.156250
vt 0.640625 0.156250
vt 0.640625 0.250000
vt 0.515625 0.250000
vt 0.015625 0.304688
vt 0.484375 0.304688
vt 0.484375 0.398438
vt 0.015625 0.398438
vt 0.527530 0.515625
vt 0.628720 0.515625
vt 0.640625 0.984375
vt 0.515625 0.984375
vt 0.515625 0.039062
vt 0.640625 0.039062
vt 0.640625 0.132812
vt 0.515625 0.132812
vt 0.015625 0.304688
vt 0.484375 0.304688
vt 0.484375 0.398438
vt 0.015625 0.398438
vt 0.515625 0.156250
vt 0.640625 0.156250
vt 0.640625 0.250000
vt 0.515625 0.250000
vt 0.015625 0.304688
vt 0.484375 0.304688
vt 0.484375 0.398438
vt 0.015625 0.398438
vn 0.000000 1.000000 0.000000
vn 0.000000 -1.000000 0.000000
vn 0.166421 0.000000 0.986055
vn 0.493192 0.000000 0.869920
vn 0.785638 0.000000 0.618687
vn 0.973604 0.000000 0.228244
vn 0.973604 0.000000 -0.228244
vn 0.785638 0.000000 -0.618687
vn 0.493192 0.000000 -0.869920
vn 0.166421 0.000000 -0.986055
vn -0.166421 0.000000 -0.986055
vn -0.493192 0.000000 -0.869920
vn -0.785638 0.000000 -0.618687
vn -0.973604 0.000000 -0.228244
vn -0.973604 0.000000 0.228244
vn -0.785638 0.000000 0.618687
vn -0.493192 0.000000 0.869920
vn -0.166421 0.000000 0.986055
vn 0.000000 1.000000 0.000000
vn 0.000000 -1.000000 0.000000
vn 0.337874 0.000000 0.941191
vn 0.902247 0.000000 0.431219
vn 0.902247 0.000000 -0.431219
vn 0.337874 0.000000 -0.941191
vn -0.337874 0.000000 -0.941191
vn -0.902247 0.000000 -0.431219
vn -0.902247 0.000000 0.431219
vn -0.337874 0.000000 0.941191
vn 0.000000 1.000000 0.000000
vn 0.000000 -1.000000 0.000000
vn -0.000000 0.000000 1.000000
vn 0.998494 0.000000 -0.054862
vn -0.000000 0.000000 -1.000000
vn -0.998494 0.000000 -0.054862
vn 0.000000 1.000000 0.000000
vn 0.000000 -1.000000 0.000000
vn -0.000000 0.000000 1.000000
vn 0.997459 0.000000 -0.071247
vn -0.000000 0.000000 -1.000000
vn -0.997459 0.000000 -0.071247
vn 0.000000 1.000000 0.000000
vn 0.000000 -1.000000 0.000000
vn 0.771930 0.000000 0.635707
vn 0.627330 0.000000 -0.778754
vn -0.819232 0.000000 -0.573462
vn -0.607040 0.000000 0.794671
vn 0.000000 1.000000 0.000000
vn 0.000000 -1.000000 0.000000
vn -0.771930 0.000000 0.635707
vn 0.607040 0.000000 0.794671
vn 0.819232 0.000000 -0.573462
vn -0.627330 0.000000 -0.778754
vn 0.000000 1.000000 0.000000
vn 0.000000 -1.000000 0.000000
vn -0.000000 0.000000 1.000000
vn 0.999854 0.000000 0.017092
vn -0.000000 0.000000 -1.000000
vn -0.999854 0.000000 0.017092
vn 0.000000 1.000000 0.000000
vn 0.000000 -1.000000 0.000000
vn -0.000000 0.000000 1.000000
vn 0.999854 0.000000 0.017092
vn -0.000000 0.000000 -1.000000
vn -0.999854 0.000000 0.017092
f 1/1/1 3/2/1 5/3/1
f 2/1/2 6/3/2 4/2/2
f 1/1/1 5/3/1 7/4/1
f 2/1/2 8/4/2 6/3/2
f 1/1/1 7/4/1 9/5/1
f 2/1/2 10/5/2 8/4/2
f 1/1/1 9/5/1 11/6/1
f 2/1/2 12/6/2 10/5/2
f 1/1/1 11/6/1 13/7/1
f 2/1/2 14/7/2 12/6/2
f 1/1/1 13/7/1 15/8/1
f 2/1/2 16/8/2 14/7/2
f 1/1/1 15/8/1 17/9/1
f 2/1/2 18/9/2 16/8/2
f 1/1/1 17/9/1 19/10/1
f 2/1/2 20/10/2 18/9/2
f 1/1/1 19/10/1 21/11/1
f 2/1/2 22/11/2 20/10/2
f 1/1/1 21/11/1 23/12/1
f 2/1/2 24/12/2 22/11/2
f 1/1/1 23/12/1 25/13/1
f 2/1/2 26/13/2 24/12/2
f 1/1/1 25/13/1 27/14/1
f 2/1/2 28/14/2 26/13/2
f 1/1/1 27/14/1 29/15/1
f 2/1/2 30/15/2 28/14/2
f 1/1/1 29/15/1 31/16/1
f 2/1/2 32/16/2 30/15/2
f 1/20/3 2/17/3 4/18/3
f 1/20/3 4/18/3 3/19/3
f 3/24/4 4/21/4 6/22/4
f 3/24/4 6/22/4 5/23/4
f 5/28/5 6/25/5 8/26/5
f 5/28/5 8/26/5 7/27/5
f 7/32/6 8/29/6 10/30/6
f 7/32/6 10/30/6 9/31/6
f 9/36/7 10/33/7 12/34/7
f 9/36/7 12/34/7 11/35/7
f 11/40/8 12/37/8 14/38/8
f 11/40/8 14/38/8 13/39/8
f 13/44/9 14/41/9 16/42/9
f 13/44/9 16/42/9 15/43/9
f 15/48/10 16/45/10 18/46/10
f 15/48/10 18/46/10 17/47/10
f 17/52/11 18/49/11 20/50/11
f 17/52/11 20/50/11 19/51/11
f 19/56/12 20/53/12 22/54/12
f 19/56/12 22/54/12 21/55/12
f 21/60/13 22/57/13 24/58/13
f 21/60/13 24/58/13 23/59/13
f 23/64/14 24/61/14 26/62/14
f 23/64/14 26/62/14 25/63/14
f 25/68/15 26/65/15 28/66/15
f 25/68/15 28/66/15 27/67/15
f 27/72/16 28/69/16 30/70/16
f 27/72/16 30/70/16 29/71/16
f 29/76/17 30/73/17 32/74/17
f 29/76/17 32/74/17 31/75/17
f 31/80/18 32/77/18 2/78/18
f 31/80/18 2/78/18 1/79/18
f 33/81/19 35/82/19 37/83/19
f 34/81/20 38/83/20 36/82/20
f 33/81/19 37/83/19 39/84/19
f 34/81/20 40/84/20 38/83/20
f 33/81/19 39/84/19 41/85/19
f 34/81/20 42/85/20 40/84/20
f 33/81/19 41/85/19 43/86/19
f 34/81/20 44/86/20 42/85/20
f 33/81/19 43/86/19 45/87/19
f 34/81/20 46/87/20 44/86/20
f 33/81/19 45/87/19 47/88/19
f 34/81/20 48/88/20 46/87/20
f 33/92/21 34/89/21 36/90/21
f 33/92/21 36/90/21 35/91/21
f 35/96/22 36/93/22 38/94/22
f 35/96/22 38/94/22 37/95/22
f 37/100/23 38/97/23 40/98/23
f 37/100/23 40/98/23 39/99/23
f 39/104/24 40/101/24 42/102/24
f 39/104/24 42/102/24 41/103/24
f 41/108/25 42/105/25 44/106/25
f 41/108/25 44/106/25 43/107/25
f 43/112/26 44/109/26 46/110/26
f 43/112/26 46/110/26 45/111/26
f 45/116/27 46/113/27 48/114/27
f 45/116/27 48/114/27 47/115/27
f 47/120/28 48/117/28 34/118/28
f 47/120/28 34/118/28 33/119/28
f 49/121/29 51/122/29 53/123/29
f 50/121/30 54/123/30 52/122/30
f 49/121/29 53/123/29 55/124/29
f 50/121/30 56/124/30 54/123/30
f 49/128/31 50/125/31 52/126/31
f 49/128/31 52/126/31 51/127/31
f 51/132/32 52/129/32 54/130/32
f 51/132/32 54/130/32 53/131/32
f 53/136/33 54/133/33 56/134/33
f 53/136/33 56/134/33 55/135/33
f 55/140/34 56/137/34 50/138/34
f 55/140/34 50/138/34 49/139/34
f 57/141/35 59/142/35 61/143/35
f 58/141/36 62/143/36 60/142/36
f 57/141/35 61/143/35 63/144/35
f 58/141/36 64/144/36 62/143/36
f 57/148/37 58/145/37 60/146/37
f 57/148/37 60/146/37 59/147/37
f 59/152/38 60/149/38 62/150/38
f 59/152/38 62/150/38 61/151/38
f 61/156/39 62/153/39 64/154/39
f 61/156/39 64/154/39 63/155/39
f 63/160/40 64/157/40 58/158/40
f 63/160/40 58/158/40 57/159/40
f 65/161/41 67/162/41 69/163/41
f 66/161/42 70/163/42 68/162/42
f 65/161/41 69/163/41 71/164/41
f 66/161/42 72/164/42 70/163/42
f 65/168/43 66/165/43 68/166/43
f 65/168/43 68/166/43 67/167/43
f 67/172/44 68/169/44 70/170/44
f 67/172/44 70/170/44 69/171/44
f 69/176/45 70/173/45 72/174/45
f 69/176/45 72/174/45 71/175/45
f 71/180/46 72/177/46 66/178/46
f 71/180/46 66/178/46 65/179/46
f 73/181/47 75/182/47 77/183/47
f 74/181/48 78/183/48 76/182/48
f 73/181/47 77/183/47 79/184/47
f 74/181/48 80/184/48 78/183/48
f 73/188/49 74/185/49 76/186/49
f 73/188/49 76/186/49 75/187/49
f 75/192/50 76/189/50 78/190/50
f 75/192/50 78/190/50 77/191/50
f 77/196/51 78/193/51 80/194/51
f 77/196/51 80/194/51 79/195/51
f 79/200/52 80/197/52 74/198/52
f 79/200/52 74/198/52 73/199/52
f 81/201/53 83/202/53 85/203/53
f 82/201/54 86/203/54 84/202/54
f 81/201/53 85/203/53 87/204/53
f 82/201/54 88/204/54 86/203/54
f 81/208/55 82/205/55 84/206/55
f 81/208/55 84/206/55 83/207/55
f 83/212/56 84/209/56 86/210/56
f 83/212/56 86/210/56 85/211/56
f 85/216/57 86/213/57 88/214/57
f 85/216/57 88/214/57 87/215/57
f 87/220/58 88/217/58 82/218/58
f 87/220/58 82/218/58 81/219/58
f 89/221/59 91/222/59 93/223/59
f 90/221/60 94/223/60 92/222/60
f 89/221/59 93/223/59 95/224/59
f 90/221/60 96/224/60 94/223/60
f 89/228/61 90/225/61 92/226/61
f 89/228/61 92/226/61 91/227/61
f 91/232/62 92/229/62 94/230/62
f 91/232/62 94/230/62 93/231/62
f 93/236/63 94/233/63 96/234/63
f 93/236/63 96/234/63 95/235/63
f 95/240/64 96/237/64 90/238/64
f 95/240/64 90/238/64 89/239/64
