# Okinawa inspired frigate, fragment 2 of 8
# Generated by tools. Edit the generator script.
v -0.340000 0.380000 0.620000
v 0.340000 0.380000 0.620000
v 0.240000 0.380000 -1.200000
v -0.340000 0.140000 0.620000
v 0.240000 0.140000 -1.200000
v 0.340000 0.140000 0.620000
v -0.460000 0.440000 -0.600000
v 0.460000 0.020000 -0.600000
v 0.460000 0.440000 -0.600000
v 0.300000 0.460000 -0.720000
v 0.300000 0.300000 -0.720000
v 0.440000 0.300000 -0.550000
v 0.440000 0.460000 -0.550000
v 0.950000 0.740000 0.720000
v 1.290000 0.740000 0.720000
v 1.330000 0.740000 -1.620000
v 0.950000 0.460000 0.720000
v 1.330000 0.460000 -1.620000
v 1.290000 0.460000 0.720000
v 0.910000 0.740000 -1.620000
vt 0.671875 0.750000
vt 0.921875 0.750000
vt 0.885110 0.984375
vt 0.671875 0.726562
vt 0.671875 0.664062
vt 0.921875 0.664062
vt 0.921875 0.726562
vt 0.671875 0.375000
vt 0.921875 0.312500
vt 0.921875 0.375000
vt 0.671875 0.289062
vt 0.671875 0.164062
vt 0.921875 0.164062
vt 0.921875 0.289062
vt 0.527530 0.515625
vt 0.628720 0.515625
vt 0.640625 0.984375
vt 0.015625 0.398438
vt 0.015625 0.304688
vt 0.484375 0.304688
vt 0.015625 0.398438
vt 0.484375 0.304688
vt 0.484375 0.398438
vn 0.000000 1.000000 0.000000
vn 0.000000 -1.000000 0.000000
vn 0.998494 0.000000 -0.054862
vn -0.000000 0.000000 1.000000
vn -0.771930 0.000000 0.635707
vn 0.000000 1.000000 0.000000
vn 0.000000 -1.000000 0.000000
vn 0.999854 0.000000 0.017092
vn -0.999854 0.000000 0.017092
f 1/1/1 2/2/1 3/3/1
f 4/1/2 5/3/2 6/2/2
f 2/4/3 6/5/3 5/6/3
f 2/4/3 5/6/3 3/7/3
f 7/8/4 8/9/4 9/10/4
f 10/11/5 11/12/5 12/13/5
f 10/11/5 12/13/5 13/14/5
f 14/15/6 15/16/6 16/17/6
f 17/15/7 18/17/7 19/16/7
f 15/18/8 19/19/8 18/20/8
f 20/21/9 17/22/9 14/23/9
