# Vaelith carrier, from tools/gen_fleet.py
# Generated by tools. Edit the generator script.
v -0.173529 0.158623 2.424569
v 0.173529 0.158623 2.424569
v 0.173529 0.234595 2.416946
v -0.173529 0.234595 2.416946
v 0.308497 0.059783 1.736883
v -0.308497 0.059783 1.736883
v -0.308497 0.194843 1.723332
v 0.308497 0.194843 1.723332
v -0.000000 0.149026 2.410029
v 0.027199 0.157819 2.409147
v 0.023555 0.165120 2.431668
v -0.000000 0.157504 2.432432
v 0.044010 0.180841 2.406837
v 0.038114 0.185057 2.429668
v 0.044010 0.209297 2.403982
v 0.038114 0.209701 2.427195
v 0.027199 0.232319 2.401672
v 0.023555 0.229638 2.425195
v -0.000000 0.241112 2.400790
v -0.000000 0.237254 2.424431
v -0.027199 0.232319 2.401672
v -0.023555 0.229638 2.425195
v -0.044010 0.209297 2.403982
v -0.038114 0.209701 2.427195
v -0.044010 0.180841 2.406837
v -0.038114 0.185057 2.429668
v -0.027199 0.157819 2.409147
v -0.023555 0.165120 2.431668
v 0.013600 0.180445 2.447153
v -0.000000 0.176048 2.447594
v 0.022005 0.191956 2.445998
v 0.022005 0.206184 2.444571
v 0.013600 0.217695 2.443416
v -0.000000 0.222091 2.442974
v -0.013600 0.217695 2.443416
v -0.022005 0.206184 2.444571
v -0.022005 0.191956 2.445998
v -0.013600 0.180445 2.447153
v -0.000000 0.199689 2.451453
v -0.246797 0.159651 2.052411
v -0.215238 0.141521 2.054230
v -0.246797 0.123392 2.056049
v -0.215238 0.177781 2.050592
v -0.246797 0.195910 2.048773
v -0.278356 0.177781 2.050592
v -0.278356 0.141521 2.054230
v -0.223420 0.185489 2.445127
v -0.246797 0.172060 2.446474
v -0.223420 0.212348 2.442432
v -0.246797 0.225777 2.441084
v -0.270174 0.212348 2.442432
v -0.270174 0.185489 2.445127
v -0.228096 0.195105 2.513922
v -0.246797 0.184361 2.515000
v -0.228096 0.216592 2.511766
v -0.246797 0.227335 2.510688
v -0.265499 0.216592 2.511766
v -0.265499 0.195105 2.513922
v 0.246797 0.159651 2.052411
v 0.278356 0.141521 2.054230
v 0.246797 0.123392 2.056049
v 0.278356 0.177781 2.050592
v 0.246797 0.195910 2.048773
v 0.215238 0.177781 2.050592
v 0.215238 0.141521 2.054230
v 0.270174 0.185489 2.445127
v 0.246797 0.172060 2.446474
v 0.270174 0.212348 2.442432
v 0.246797 0.225777 2.441084
v 0.223420 0.212348 2.442432
v 0.223420 0.185489 2.445127
v 0.265499 0.195105 2.513922
v 0.246797 0.184361 2.515000
v 0.265499 0.216592 2.511766
v 0.246797 0.227335 2.510688
v 0.228096 0.216592 2.511766
v 0.228096 0.195105 2.513922
v -0.239085 0.000000 2.245106
v 0.239085 0.000000 2.245106
v 0.239085 0.262222 2.245106
v -0.239085 0.262222 2.245106
v 0.239085 0.000000 0.424975
v -0.239085 0.000000 0.424975
v -0.239085 0.262222 0.424975
v 0.239085 0.262222 0.424975
v -0.000000 0.115686 1.080530
v -0.000000 0.115686 0.529863
v 0.127898 0.115686 0.520718
v 0.193785 0.115686 1.066674
v 0.193785 0.007712 1.066674
v 0.127898 0.007712 0.520718
v -0.000000 0.007712 0.529863
v -0.000000 0.007712 1.080530
v 0.253607 0.115686 0.493440
v 0.384253 0.115686 1.025343
v 0.384253 0.007712 1.025343
v 0.253607 0.007712 0.493440
v 0.374977 0.115686 0.448495
v 0.568147 0.115686 0.957245
v 0.568147 0.007712 0.957245
v 0.374977 0.007712 0.448495
v 0.489931 0.115686 0.386652
v 0.742320 0.115686 0.863544
v 0.742320 0.007712 0.863544
v 0.489931 0.007712 0.386652
v 0.596503 0.115686 0.308970
v 0.903792 0.115686 0.745844
v 0.903792 0.007712 0.745844
v 0.596503 0.007712 0.308970
v 0.692868 0.115686 0.216778
v 1.049800 0.115686 0.606158
v 1.049800 0.007712 0.606158
v 0.692868 0.007712 0.216778
v 0.777378 0.115686 0.111652
v 1.177845 0.115686 0.446877
v 1.177845 0.007712 0.446877
v 0.777378 0.007712 0.111652
v 0.848586 0.115686 -0.004607
v 1.285737 0.115686 0.270726
v 1.285737 0.007712 0.270726
v 0.848586 0.007712 -0.004607
v 0.905275 0.115686 -0.130012
v 1.371629 0.115686 0.080719
v 1.371629 0.007712 0.080719
v 0.905275 0.007712 -0.130012
v 0.946475 0.115686 -0.262416
v 1.434053 0.115686 -0.119893
v 1.434053 0.007712 -0.119893
v 0.946475 0.007712 -0.262416
v 0.971480 0.115686 -0.399553
v 1.471940 0.115686 -0.327677
v 1.471940 0.007712 -0.327677
v 0.971480 0.007712 -0.399553
v 0.979863 0.115686 -0.539078
v 1.484641 0.115686 -0.539078
v 1.484641 0.007712 -0.539078
v 0.979863 0.007712 -0.539078
v 0.999377 0.115686 -0.682609
v 1.514207 0.115686 -0.756550
v 1.514207 0.007712 -0.756550
v 0.999377 0.007712 -0.682609
v 1.000367 0.115686 -0.831494
v 1.515708 0.115686 -0.982132
v 1.515708 0.007712 -0.982132
v 1.000367 0.007712 -0.831494
v 0.981491 0.115686 -0.982584
v 1.487107 0.115686 -1.211056
v 1.487107 0.007712 -1.211056
v 0.981491 0.007712 -0.982584
v 0.941931 0.115686 -1.132340
v 1.427168 0.115686 -1.437961
v 1.427168 0.007712 -1.437961
v 0.941931 0.007712 -1.132340
v 0.881490 0.115686 -1.276959
v 1.335591 0.115686 -1.657080
v 1.335591 0.007712 -1.657080
v 0.881490 0.007712 -1.276959
v 0.800653 0.115686 -1.412517
v 1.213110 0.115686 -1.862471
v 1.213110 0.007712 -1.862471
v 0.800653 0.007712 -1.412517
v 0.700615 0.115686 -1.535143
v 1.061538 0.115686 -2.048267
v 1.061538 0.007712 -2.048267
v 0.700615 0.007712 -1.535143
v 0.583276 0.115686 -1.641184
v 0.883751 0.115686 -2.208935
v 0.883751 0.007712 -2.208935
v 0.583276 0.007712 -1.641184
v 0.451193 0.115686 -1.727379
v 0.683625 0.115686 -2.339534
v 0.683625 0.007712 -2.339534
v 0.451193 0.007712 -1.727379
v 0.307500 0.115686 -1.791010
v 0.465909 0.115686 -2.435945
v 0.465909 0.007712 -2.435945
v 0.307500 0.007712 -1.791010
v 0.155795 0.115686 -1.830035
v 0.236052 0.115686 -2.495073
v 0.236052 0.007712 -2.495073
v 0.155795 0.007712 -1.830035
v 0.000000 0.115686 -1.843187
v 0.000000 0.115686 -2.515000
v 0.000000 0.007712 -2.515000
v 0.000000 0.007712 -1.843187
v -0.155795 0.115686 -1.830035
v -0.236052 0.115686 -2.495073
v -0.236052 0.007712 -2.495073
v -0.155795 0.007712 -1.830035
v -0.307500 0.115686 -1.791010
v -0.465909 0.115686 -2.435945
v -0.465909 0.007712 -2.435945
v -0.307500 0.007712 -1.791010
v -0.451193 0.115686 -1.727379
v -0.683625 0.115686 -2.339534
v -0.683625 0.007712 -2.339534
v -0.451193 0.007712 -1.727379
v -0.583276 0.115686 -1.641184
v -0.883751 0.115686 -2.208935
v -0.883751 0.007712 -2.208935
v -0.583276 0.007712 -1.641184
v -0.700615 0.115686 -1.535143
v -1.061538 0.115686 -2.048267
v -1.061538 0.007712 -2.048267
v -0.700615 0.007712 -1.535143
v -0.800653 0.115686 -1.412517
v -1.213110 0.115686 -1.862471
v -1.213110 0.007712 -1.862471
v -0.800653 0.007712 -1.412517
v -0.881490 0.115686 -1.276959
v -1.335591 0.115686 -1.657080
v -1.335591 0.007712 -1.657080
v -0.881490 0.007712 -1.276959
v -0.941931 0.115686 -1.132340
v -1.427168 0.115686 -1.437961
v -1.427168 0.007712 -1.437961
v -0.941931 0.007712 -1.132340
v -0.981491 0.115686 -0.982584
v -1.487107 0.115686 -1.211056
v -1.487107 0.007712 -1.211056
v -0.981491 0.007712 -0.982584
v -1.000367 0.115686 -0.831494
v -1.515708 0.115686 -0.982132
v -1.515708 0.007712 -0.982132
v -1.000367 0.007712 -0.831494
v -0.999377 0.115686 -0.682609
v -1.514207 0.115686 -0.756550
v -1.514207 0.007712 -0.756550
v -0.999377 0.007712 -0.682609
v -0.979863 0.115686 -0.539078
v -1.484641 0.115686 -0.539078
v -1.484641 0.007712 -0.539078
v -0.979863 0.007712 -0.539078
v -0.971480 0.115686 -0.399553
v -1.471940 0.115686 -0.327677
v -1.471940 0.007712 -0.327677
v -0.971480 0.007712 -0.399553
v -0.946475 0.115686 -0.262416
v -1.434053 0.115686 -0.119893
v -1.434053 0.007712 -0.119893
v -0.946475 0.007712 -0.262416
v -0.905275 0.115686 -0.130012
v -1.371629 0.115686 0.080719
v -1.371629 0.007712 0.080719
v -0.905275 0.007712 -0.130012
v -0.848586 0.115686 -0.004607
v -1.285737 0.115686 0.270726
v -1.285737 0.007712 0.270726
v -0.848586 0.007712 -0.004607
v -0.777378 0.115686 0.111652
v -1.177845 0.115686 0.446877
v -1.177845 0.007712 0.446877
v -0.777378 0.007712 0.111652
v -0.692868 0.115686 0.216778
v -1.049800 0.115686 0.606158
v -1.049800 0.007712 0.606158
v -0.692868 0.007712 0.216778
v -0.596503 0.115686 0.308970
v -0.903792 0.115686 0.745844
v -0.903792 0.007712 0.745844
v -0.596503 0.007712 0.308970
v -0.489931 0.115686 0.386652
v -0.742320 0.115686 0.863544
v -0.742320 0.007712 0.863544
v -0.489931 0.007712 0.386652
v -0.374977 0.115686 0.448495
v -0.568147 0.115686 0.957245
v -0.568147 0.007712 0.957245
v -0.374977 0.007712 0.448495
v -0.253607 0.115686 0.493440
v -0.384253 0.115686 1.025343
v -0.384253 0.007712 1.025343
v -0.253607 0.007712 0.493440
v -0.127898 0.115686 0.520718
v -0.193785 0.115686 1.066674
v -0.193785 0.007712 1.066674
v -0.127898 0.007712 0.520718
v 0.886546 0.100261 0.227490
v 0.766568 0.100261 0.347468
v 0.766568 0.208235 0.347468
v 0.886546 0.208235 0.227490
v 0.930174 0.100261 0.511073
v 1.050151 0.100261 0.391096
v 1.050151 0.208235 0.391096
v 0.930174 0.208235 0.511073
v 1.116566 0.100261 -0.623915
v 1.116566 0.100261 -0.454241
v 1.116566 0.208235 -0.454241
v 1.116566 0.208235 -0.623915
v 1.347938 0.100261 -0.454241
v 1.347938 0.100261 -0.623915
v 1.347938 0.208235 -0.623915
v 1.347938 0.208235 -0.454241
v 0.907876 0.100261 -1.566931
v 1.027853 0.100261 -1.446954
v 1.027853 0.208235 -1.446954
v 0.907876 0.208235 -1.566931
v 1.191458 0.100261 -1.610559
v 1.071481 0.100261 -1.730536
v 1.071481 0.208235 -1.730536
v 1.191458 0.208235 -1.610559
v -0.084837 0.100261 -2.063407
v 0.084837 0.100261 -2.063407
v 0.084837 0.208235 -2.063407
v -0.084837 0.208235 -2.063407
v 0.084837 0.100261 -2.294780
v -0.084837 0.100261 -2.294780
v -0.084837 0.208235 -2.294780
v 0.084837 0.208235 -2.294780
v -1.027853 0.100261 -1.446954
v -0.907876 0.100261 -1.566931
v -0.907876 0.208235 -1.566931
v -1.027853 0.208235 -1.446954
v -1.071481 0.100261 -1.730536
v -1.191458 0.100261 -1.610559
v -1.191458 0.208235 -1.610559
v -1.071481 0.208235 -1.730536
v -1.116566 0.100261 -0.454241
v -1.116566 0.100261 -0.623915
v -1.116566 0.208235 -0.623915
v -1.116566 0.208235 -0.454241
v -1.347938 0.100261 -0.623915
v -1.347938 0.100261 -0.454241
v -1.347938 0.208235 -0.454241
v -1.347938 0.208235 -0.623915
v -0.766568 0.100261 0.347468
v -0.886546 0.100261 0.227490
v -0.886546 0.208235 0.227490
v -0.766568 0.208235 0.347468
v -1.050151 0.100261 0.391096
v -0.930174 0.100261 0.511073
v -0.930174 0.208235 0.511073
v -1.050151 0.208235 0.391096
v 1.245869 0.061699 -1.258381
v 1.226588 0.061699 -1.291777
v 1.245869 0.023137 -1.258381
v 1.245869 0.100261 -1.258381
v 1.265150 0.061699 -1.224985
v 1.579827 0.061699 -1.451191
v -1.245869 0.061699 -1.258381
v -1.265150 0.061699 -1.224985
v -1.245869 0.023137 -1.258381
v -1.245869 0.100261 -1.258381
v -1.226588 0.061699 -1.291777
v -1.579827 0.061699 -1.451191
v -0.908523 0.129569 0.077916
v -0.711856 0.129569 0.077916
v -0.711856 0.286902 0.077916
v -0.908523 0.286902 0.077916
v -0.726896 0.141600 -1.156072
v -0.893484 0.141600 -1.156072
v -0.893484 0.274871 -1.156072
v -0.726896 0.274871 -1.156072
v -0.839111 0.284588 -0.156542
v -0.781268 0.284588 -0.156542
v -0.781268 0.312353 -0.156542
v -0.839111 0.312353 -0.156542
v -0.781268 0.284588 -0.921614
v -0.839111 0.284588 -0.921614
v -0.839111 0.312353 -0.921614
v -0.781268 0.312353 -0.921614
v -0.873817 0.156177 -0.981000
v -0.746562 0.156177 -0.981000
v -0.746562 0.260294 -0.981000
v -0.873817 0.260294 -0.981000
v -0.746562 0.156177 -1.008764
v -0.873817 0.156177 -1.008764
v -0.873817 0.260294 -1.008764
v -0.746562 0.260294 -1.008764
v 0.711856 0.129569 0.077916
v 0.908523 0.129569 0.077916
v 0.908523 0.286902 0.077916
v 0.711856 0.286902 0.077916
v 0.893484 0.141600 -1.156072
v 0.726896 0.141600 -1.156072
v 0.726896 0.274871 -1.156072
v 0.893484 0.274871 -1.156072
v 0.781268 0.284588 -0.156542
v 0.839111 0.284588 -0.156542
v 0.839111 0.312353 -0.156542
v 0.781268 0.312353 -0.156542
v 0.839111 0.284588 -0.921614
v 0.781268 0.284588 -0.921614
v 0.781268 0.312353 -0.921614
v 0.839111 0.312353 -0.921614
v 0.746562 0.156177 -0.981000
v 0.873817 0.156177 -0.981000
v 0.873817 0.260294 -0.981000
v 0.746562 0.260294 -0.981000
v 0.873817 0.156177 -1.008764
v 0.746562 0.156177 -1.008764
v 0.746562 0.260294 -1.008764
v 0.873817 0.260294 -1.008764
v -0.810190 0.115686 0.062491
v -0.755791 0.133362 0.062491
v -0.763079 0.143393 0.108765
v -0.810190 0.128086 0.108765
v -0.722170 0.179636 0.062491
v -0.733963 0.183468 0.108765
v -0.722170 0.236835 0.062491
v -0.733963 0.233003 0.108765
v -0.755791 0.283109 0.062491
v -0.763079 0.273078 0.108765
v -0.810190 0.300784 0.062491
v -0.810190 0.288385 0.108765
v -0.864589 0.283109 0.062491
v -0.857301 0.273078 0.108765
v -0.898209 0.236835 0.062491
v -0.886417 0.233003 0.108765
v -0.898209 0.179636 0.062491
v -0.886417 0.183468 0.108765
v -0.864589 0.133362 0.062491
v -0.857301 0.143393 0.108765
v -0.782990 0.170798 0.142641
v -0.810190 0.161961 0.142641
v -0.766180 0.193936 0.142641
v -0.766180 0.222535 0.142641
v -0.782990 0.245672 0.142641
v -0.810190 0.254510 0.142641
v -0.837389 0.245672 0.142641
v -0.854199 0.222535 0.142641
v -0.854199 0.193936 0.142641
v -0.837389 0.170798 0.142641
v -0.810190 0.208235 0.155040
v -1.134111 0.100261 -0.423392
v -0.871889 0.100261 -0.423392
v -0.871889 0.223660 -0.423392
v -1.134111 0.223660 -0.423392
v -0.871889 0.100261 -0.654764
v -1.134111 0.100261 -0.654764
v -1.134111 0.223660 -0.654764
v -0.871889 0.223660 -0.654764
v 0.810190 0.115686 0.062491
v 0.864589 0.133362 0.062491
v 0.857301 0.143393 0.108765
v 0.810190 0.128086 0.108765
v 0.898209 0.179636 0.062491
v 0.886417 0.183468 0.108765
v 0.898209 0.236835 0.062491
v 0.886417 0.233003 0.108765
v 0.864589 0.283109 0.062491
v 0.857301 0.273078 0.108765
v 0.810190 0.300784 0.062491
v 0.810190 0.288385 0.108765
v 0.755791 0.283109 0.062491
v 0.763079 0.273078 0.108765
v 0.722170 0.236835 0.062491
v 0.733963 0.233003 0.108765
v 0.722170 0.179636 0.062491
v 0.733963 0.183468 0.108765
v 0.755791 0.133362 0.062491
v 0.763079 0.143393 0.108765
v 0.837389 0.170798 0.142641
v 0.810190 0.161961 0.142641
v 0.854199 0.193936 0.142641
v 0.854199 0.222535 0.142641
v 0.837389 0.245672 0.142641
v 0.810190 0.254510 0.142641
v 0.782990 0.245672 0.142641
v 0.766180 0.222535 0.142641
v 0.766180 0.193936 0.142641
v 0.782990 0.170798 0.142641
v 0.810190 0.208235 0.155040
v 0.871889 0.100261 -0.423392
v 1.134111 0.100261 -0.423392
v 1.134111 0.223660 -0.423392
v 0.871889 0.223660 -0.423392
v 1.134111 0.100261 -0.654764
v 0.871889 0.100261 -0.654764
v 0.871889 0.223660 -0.654764
v 1.134111 0.223660 -0.654764
v -0.908523 0.422641 0.077916
v -0.711856 0.422641 0.077916
v -0.711856 0.579974 0.077916
v -0.908523 0.579974 0.077916
v -0.726896 0.434672 -1.156072
v -0.893484 0.434672 -1.156072
v -0.893484 0.567943 -1.156072
v -0.726896 0.567943 -1.156072
v -0.839111 0.577660 -0.156542
v -0.781268 0.577660 -0.156542
v -0.781268 0.605425 -0.156542
v -0.839111 0.605425 -0.156542
v -0.781268 0.577660 -0.921614
v -0.839111 0.577660 -0.921614
v -0.839111 0.605425 -0.921614
v -0.781268 0.605425 -0.921614
v -0.873817 0.449248 -0.981000
v -0.746562 0.449248 -0.981000
v -0.746562 0.553366 -0.981000
v -0.873817 0.553366 -0.981000
v -0.746562 0.449248 -1.008764
v -0.873817 0.449248 -1.008764
v -0.873817 0.553366 -1.008764
v -0.746562 0.553366 -1.008764
v 0.711856 0.422641 0.077916
v 0.908523 0.422641 0.077916
v 0.908523 0.579974 0.077916
v 0.711856 0.579974 0.077916
v 0.893484 0.434672 -1.156072
v 0.726896 0.434672 -1.156072
v 0.726896 0.567943 -1.156072
v 0.893484 0.567943 -1.156072
v 0.781268 0.577660 -0.156542
v 0.839111 0.577660 -0.156542
v 0.839111 0.605425 -0.156542
v 0.781268 0.605425 -0.156542
v 0.839111 0.577660 -0.921614
v 0.781268 0.577660 -0.921614
v 0.781268 0.605425 -0.921614
v 0.839111 0.605425 -0.921614
v 0.746562 0.449248 -0.981000
v 0.873817 0.449248 -0.981000
v 0.873817 0.553366 -0.981000
v 0.746562 0.553366 -0.981000
v 0.873817 0.449248 -1.008764
v 0.746562 0.449248 -1.008764
v 0.746562 0.553366 -1.008764
v 0.873817 0.553366 -1.008764
v -0.810190 0.408758 0.062491
v -0.755791 0.426434 0.062491
v -0.763079 0.436465 0.108765
v -0.810190 0.421157 0.108765
v -0.722170 0.472708 0.062491
v -0.733963 0.476540 0.108765
v -0.722170 0.529907 0.062491
v -0.733963 0.526075 0.108765
v -0.755791 0.576181 0.062491
v -0.763079 0.566150 0.108765
v -0.810190 0.593856 0.062491
v -0.810190 0.581457 0.108765
v -0.864589 0.576181 0.062491
v -0.857301 0.566150 0.108765
v -0.898209 0.529907 0.062491
v -0.886417 0.526075 0.108765
v -0.898209 0.472708 0.062491
v -0.886417 0.476540 0.108765
v -0.864589 0.426434 0.062491
v -0.857301 0.436465 0.108765
v -0.782990 0.463870 0.142641
v -0.810190 0.455033 0.142641
v -0.766180 0.487008 0.142641
v -0.766180 0.515607 0.142641
v -0.782990 0.538744 0.142641
v -0.810190 0.547582 0.142641
v -0.837389 0.538744 0.142641
v -0.854199 0.515607 0.142641
v -0.854199 0.487008 0.142641
v -0.837389 0.463870 0.142641
v -0.810190 0.501307 0.155040
v -0.933588 0.038562 -0.423392
v -0.871889 0.038562 -0.423392
v -0.871889 0.501307 -0.423392
v -0.933588 0.501307 -0.423392
v -0.871889 0.038562 -0.654764
v -0.933588 0.038562 -0.654764
v -0.933588 0.501307 -0.654764
v -0.871889 0.501307 -0.654764
v 0.810190 0.408758 0.062491
v 0.864589 0.426434 0.062491
v 0.857301 0.436465 0.108765
v 0.810190 0.421157 0.108765
v 0.898209 0.472708 0.062491
v 0.886417 0.476540 0.108765
v 0.898209 0.529907 0.062491
v 0.886417 0.526075 0.108765
v 0.864589 0.576181 0.062491
v 0.857301 0.566150 0.108765
v 0.810190 0.593856 0.062491
v 0.810190 0.581457 0.108765
v 0.755791 0.576181 0.062491
v 0.763079 0.566150 0.108765
v 0.722170 0.529907 0.062491
v 0.733963 0.526075 0.108765
v 0.722170 0.472708 0.062491
v 0.733963 0.476540 0.108765
v 0.755791 0.426434 0.062491
v 0.763079 0.436465 0.108765
v 0.837389 0.463870 0.142641
v 0.810190 0.455033 0.142641
v 0.854199 0.487008 0.142641
v 0.854199 0.515607 0.142641
v 0.837389 0.538744 0.142641
v 0.810190 0.547582 0.142641
v 0.782990 0.538744 0.142641
v 0.766180 0.515607 0.142641
v 0.766180 0.487008 0.142641
v 0.782990 0.463870 0.142641
v 0.810190 0.501307 0.155040
v 0.871889 0.038562 -0.423392
v 0.933588 0.038562 -0.423392
v 0.933588 0.501307 -0.423392
v 0.871889 0.501307 -0.423392
v 0.933588 0.038562 -0.654764
v 0.871889 0.038562 -0.654764
v 0.871889 0.501307 -0.654764
v 0.933588 0.501307 -0.654764
vt 0.489258 0.435820
vt 0.541992 0.435820
vt 0.541992 0.476562
vt 0.489258 0.476562
vt 0.195312 0.382812
vt 0.007812 0.382812
vt 0.007812 0.455244
vt 0.195312 0.455244
vt 0.045410 0.654382
vt 0.142090 0.654382
vt 0.179688 0.484375
vt 0.007812 0.484375
vt 0.007812 0.487696
vt 0.179688 0.487696
vt 0.142090 0.656250
vt 0.045410 0.656250
vt 0.011436 0.382812
vt 0.195312 0.435820
vt 0.193274 0.476562
vt 0.007812 0.455244
vt 0.054688 0.298347
vt 0.083658 0.296715
vt 0.079777 0.338389
vt 0.054688 0.339803
vt 0.023277 0.290202
vt 0.019003 0.313640
vt 0.061250 0.317932
vt 0.064951 0.297635
vt 0.013719 0.342610
vt 0.056674 0.343021
vt 0.009445 0.366048
vt 0.052972 0.363319
vt 0.083658 0.282883
vt 0.054688 0.281250
vt 0.054688 0.324996
vt 0.079777 0.326410
vt 0.025717 0.282883
vt 0.029598 0.326410
vt 0.025717 0.296715
vt 0.029598 0.338389
vt 0.054688 0.289882
vt 0.079777 0.297635
vt 0.069173 0.313237
vt 0.054688 0.308761
vt 0.095282 0.317932
vt 0.078125 0.324955
vt 0.088827 0.339441
vt 0.091469 0.324955
vt 0.095282 0.343021
vt 0.079777 0.363319
vt 0.069173 0.351159
vt 0.078125 0.339441
vt 0.054688 0.359311
vt 0.069173 0.360127
vt 0.040202 0.360127
vt 0.029598 0.363319
vt 0.014093 0.343021
vt 0.031250 0.339441
vt 0.040202 0.351159
vt 0.014093 0.317932
vt 0.029598 0.297635
vt 0.040202 0.313237
vt 0.031250 0.324955
vt 0.054688 0.332828
vt 0.054688 0.355636
vt 0.718750 0.415516
vt 0.765625 0.399164
vt 0.718750 0.382812
vt 0.765625 0.431867
vt 0.718750 0.448219
vt 0.671875 0.431867
vt 0.671875 0.399164
vt 0.617188 0.384276
vt 0.664062 0.383910
vt 0.651910 0.462512
vt 0.617188 0.462783
vt 0.672972 0.399164
vt 0.672241 0.431867
vt 0.751033 0.463045
vt 0.751575 0.438820
vt 0.664062 0.383178
vt 0.617188 0.382812
vt 0.617188 0.461699
vt 0.651910 0.461970
vt 0.570312 0.383178
vt 0.582465 0.461970
vt 0.570312 0.383910
vt 0.582465 0.462512
vt 0.644965 0.476346
vt 0.617188 0.476562
vt 0.764975 0.466873
vt 0.765408 0.447493
vt 0.617188 0.475695
vt 0.644965 0.475912
vt 0.589410 0.475912
vt 0.589410 0.476346
vt 0.718750 0.415516
vt 0.765625 0.399164
vt 0.718750 0.382812
vt 0.765625 0.431867
vt 0.718750 0.448219
vt 0.671875 0.431867
vt 0.671875 0.399164
vt 0.617188 0.384276
vt 0.664062 0.383910
vt 0.651910 0.462512
vt 0.617188 0.462783
vt 0.672972 0.399164
vt 0.672241 0.431867
vt 0.751033 0.463045
vt 0.751575 0.438820
vt 0.664062 0.383178
vt 0.617188 0.382812
vt 0.617188 0.461699
vt 0.651910 0.461970
vt 0.570312 0.383178
vt 0.582465 0.461970
vt 0.570312 0.383910
vt 0.582465 0.462512
vt 0.644965 0.476346
vt 0.617188 0.476562
vt 0.764975 0.466873
vt 0.765408 0.447493
vt 0.617188 0.475695
vt 0.644965 0.475912
vt 0.589410 0.475912
vt 0.589410 0.476346
vt 0.203125 0.382812
vt 0.328125 0.382812
vt 0.328125 0.476562
vt 0.203125 0.476562
vt 0.460938 0.382812
vt 0.335938 0.382812
vt 0.335938 0.476562
vt 0.460938 0.476562
vt 0.343750 0.992188
vt 0.546875 0.992188
vt 0.546875 0.664062
vt 0.343750 0.664062
vt 0.109375 0.296875
vt 0.484375 0.296875
vt 0.484375 0.375000
vt 0.109375 0.375000
vt 0.718750 0.273438
vt 0.718750 0.263865
vt 0.729298 0.263706
vt 0.734731 0.273197
vt 0.531606 0.132812
vt 0.515625 0.132812
vt 0.515625 0.101562
vt 0.531606 0.101562
vt 0.515625 0.132812
vt 0.526173 0.132812
vt 0.526173 0.101562
vt 0.515625 0.101562
vt 0.739665 0.263232
vt 0.750439 0.272478
vt 0.547314 0.132812
vt 0.547314 0.101562
vt 0.536540 0.132812
vt 0.536540 0.101562
vt 0.749674 0.262451
vt 0.765605 0.271294
vt 0.562480 0.132812
vt 0.562480 0.101562
vt 0.546549 0.132812
vt 0.546549 0.101562
vt 0.759155 0.261376
vt 0.779969 0.269666
vt 0.576844 0.132812
vt 0.576844 0.101562
vt 0.556030 0.132812
vt 0.556030 0.101562
vt 0.767943 0.260026
vt 0.793285 0.267620
vt 0.590160 0.132812
vt 0.590160 0.101562
vt 0.564818 0.132812
vt 0.564818 0.101562
vt 0.775891 0.258423
vt 0.805327 0.265192
vt 0.602202 0.132812
vt 0.602202 0.101562
vt 0.572766 0.132812
vt 0.572766 0.101562
vt 0.782860 0.256596
vt 0.815887 0.262423
vt 0.596567 0.132812
vt 0.607642 0.132812
vt 0.607642 0.101562
vt 0.596567 0.101562
vt 0.580568 0.132812
vt 0.573258 0.132812
vt 0.573258 0.101562
vt 0.580568 0.101562
vt 0.788733 0.254575
vt 0.824784 0.259361
vt 0.584319 0.132812
vt 0.584319 0.101562
vt 0.565175 0.132812
vt 0.565175 0.101562
vt 0.793408 0.252395
vt 0.831868 0.256058
vt 0.571107 0.132812
vt 0.571107 0.101562
vt 0.556455 0.132812
vt 0.556455 0.101562
vt 0.796806 0.250093
vt 0.837016 0.252571
vt 0.557159 0.132812
vt 0.557159 0.101562
vt 0.547249 0.132812
vt 0.547249 0.101562
vt 0.798868 0.247710
vt 0.840140 0.248959
vt 0.542711 0.132812
vt 0.542711 0.101562
vt 0.537714 0.132812
vt 0.537714 0.101562
vt 0.799559 0.245284
vt 0.841188 0.245284
vt 0.528012 0.132812
vt 0.528012 0.101562
vt 0.801168 0.242789
vt 0.843626 0.241504
vt 0.512891 0.132812
vt 0.512891 0.101562
vt 0.518033 0.132812
vt 0.518033 0.101562
vt 0.801250 0.240201
vt 0.843750 0.237583
vt 0.497207 0.132812
vt 0.497207 0.101562
vt 0.507681 0.132812
vt 0.507681 0.101562
vt 0.799693 0.237575
vt 0.841391 0.233604
vt 0.481289 0.132812
vt 0.481289 0.101562
vt 0.497175 0.132812
vt 0.497175 0.101562
vt 0.796431 0.234972
vt 0.836448 0.229659
vt 0.465512 0.132812
vt 0.465512 0.101562
vt 0.486762 0.132812
vt 0.486762 0.101562
vt 0.791446 0.232458
vt 0.828896 0.225850
vt 0.450277 0.132812
vt 0.450277 0.101562
vt 0.476707 0.132812
vt 0.476707 0.101562
vt 0.784780 0.230102
vt 0.818795 0.222280
vt 0.435996 0.132812
vt 0.435996 0.101562
vt 0.467281 0.132812
vt 0.467281 0.101562
vt 0.776530 0.227970
vt 0.806295 0.219051
vt 0.423077 0.132812
vt 0.423077 0.101562
vt 0.458755 0.132812
vt 0.458755 0.101562
vt 0.766853 0.226127
vt 0.791633 0.216258
vt 0.588508 0.132812
vt 0.603170 0.132812
vt 0.603170 0.101562
vt 0.588508 0.101562
vt 0.573405 0.132812
vt 0.563728 0.132812
vt 0.563728 0.101562
vt 0.573405 0.101562
vt 0.755960 0.224628
vt 0.775128 0.213988
vt 0.572003 0.132812
vt 0.572003 0.101562
vt 0.552835 0.132812
vt 0.552835 0.101562
vt 0.744109 0.223522
vt 0.757173 0.212312
vt 0.554048 0.132812
vt 0.554048 0.101562
vt 0.540984 0.132812
vt 0.540984 0.101562
vt 0.731598 0.222844
vt 0.738217 0.211284
vt 0.535092 0.132812
vt 0.535092 0.101562
vt 0.528473 0.132812
vt 0.528473 0.101562
vt 0.718750 0.222615
vt 0.718750 0.210938
vt 0.705902 0.222844
vt 0.699283 0.211284
vt 0.496158 0.132812
vt 0.496158 0.101562
vt 0.502777 0.132812
vt 0.502777 0.101562
vt 0.693391 0.223522
vt 0.680327 0.212312
vt 0.477202 0.132812
vt 0.477202 0.101562
vt 0.490266 0.132812
vt 0.490266 0.101562
vt 0.681540 0.224628
vt 0.662372 0.213988
vt 0.459247 0.132812
vt 0.459247 0.101562
vt 0.478415 0.132812
vt 0.478415 0.101562
vt 0.670647 0.226127
vt 0.645867 0.216258
vt 0.442742 0.132812
vt 0.442742 0.101562
vt 0.467522 0.132812
vt 0.467522 0.101562
vt 0.660970 0.227970
vt 0.631205 0.219051
vt 0.428080 0.132812
vt 0.428080 0.101562
vt 0.457845 0.132812
vt 0.457845 0.101562
vt 0.652720 0.230102
vt 0.618705 0.222280
vt 0.646054 0.232458
vt 0.608604 0.225850
vt 0.641069 0.234972
vt 0.601052 0.229659
vt 0.637807 0.237575
vt 0.596109 0.233604
vt 0.636250 0.240201
vt 0.593750 0.237583
vt 0.636332 0.242789
vt 0.593874 0.241504
vt 0.637941 0.245284
vt 0.596312 0.245284
vt 0.638632 0.247710
vt 0.597360 0.248959
vt 0.640694 0.250093
vt 0.600484 0.252571
vt 0.644092 0.252395
vt 0.605632 0.256058
vt 0.648767 0.254575
vt 0.612716 0.259361
vt 0.654640 0.256596
vt 0.621613 0.262423
vt 0.661609 0.258423
vt 0.632173 0.265192
vt 0.669557 0.260026
vt 0.644215 0.267620
vt 0.441090 0.132812
vt 0.429048 0.132812
vt 0.429048 0.101562
vt 0.441090 0.101562
vt 0.458484 0.132812
vt 0.466432 0.132812
vt 0.466432 0.101562
vt 0.458484 0.101562
vt 0.678345 0.261376
vt 0.657531 0.269666
vt 0.454406 0.132812
vt 0.454406 0.101562
vt 0.475220 0.132812
vt 0.475220 0.101562
vt 0.687826 0.262451
vt 0.671895 0.271294
vt 0.468770 0.132812
vt 0.468770 0.101562
vt 0.484701 0.132812
vt 0.484701 0.101562
vt 0.697835 0.263232
vt 0.687061 0.272478
vt 0.483936 0.132812
vt 0.483936 0.101562
vt 0.494710 0.132812
vt 0.494710 0.101562
vt 0.708202 0.263706
vt 0.702769 0.273197
vt 0.499644 0.132812
vt 0.499644 0.101562
vt 0.505077 0.132812
vt 0.505077 0.101562
vt 0.851562 0.210938
vt 0.891226 0.210938
vt 0.891226 0.273438
vt 0.851562 0.273438
vt 0.809495 0.140625
vt 0.835938 0.140625
vt 0.835938 0.187500
vt 0.809495 0.187500
vt 0.891226 0.210938
vt 0.851562 0.237380
vt 0.905649 0.273438
vt 0.945312 0.246995
vt 0.945312 0.210938
vt 0.891226 0.210938
vt 0.891226 0.273438
vt 0.945312 0.273438
vt 0.773438 0.140625
vt 0.773438 0.187500
vt 0.851562 0.210938
vt 0.945312 0.210938
vt 0.945312 0.273438
vt 0.851562 0.273438
vt 0.851562 0.210938
vt 0.851562 0.273438
vt 0.945312 0.273438
vt 0.945312 0.210938
vt 0.945312 0.210938
vt 0.851562 0.210938
vt 0.851562 0.273438
vt 0.945312 0.273438
vt 0.773438 0.140625
vt 0.835937 0.140625
vt 0.835937 0.187500
vt 0.773438 0.187500
vt 0.773438 0.140625
vt 0.799880 0.140625
vt 0.799880 0.187500
vt 0.773438 0.187500
vt 0.891226 0.210938
vt 0.851562 0.210938
vt 0.851562 0.273438
vt 0.891226 0.273438
vt 0.851562 0.246995
vt 0.891226 0.273438
vt 0.945312 0.237380
vt 0.905649 0.210938
vt 0.905649 0.210938
vt 0.905649 0.273438
vt 0.835938 0.140625
vt 0.835938 0.187500
vt 0.773438 0.140625
vt 0.835938 0.140625
vt 0.835938 0.187500
vt 0.773438 0.187500
vt 0.945312 0.210938
vt 0.851562 0.210938
vt 0.851562 0.273438
vt 0.945312 0.273438
vt 0.851562 0.273438
vt 0.945312 0.273438
vt 0.945312 0.210938
vt 0.851562 0.210938
vt 0.851562 0.210938
vt 0.945312 0.210938
vt 0.945312 0.273438
vt 0.851562 0.273438
vt 0.945312 0.210938
vt 0.905649 0.210938
vt 0.905649 0.273438
vt 0.945312 0.273438
vt 0.851562 0.210938
vt 0.891226 0.210938
vt 0.891226 0.273438
vt 0.851562 0.273438
vt 0.905649 0.273438
vt 0.945312 0.246995
vt 0.891226 0.210938
vt 0.851562 0.237380
vt 0.773438 0.140625
vt 0.809495 0.140625
vt 0.809495 0.187500
vt 0.773438 0.187500
vt 0.945312 0.210938
vt 0.851563 0.210938
vt 0.851563 0.273438
vt 0.945312 0.273438
vt 0.945312 0.273438
vt 0.945312 0.210938
vt 0.851563 0.210938
vt 0.851562 0.273438
vt 0.773438 0.140625
vt 0.835938 0.140625
vt 0.835938 0.187500
vt 0.773438 0.187500
vt 0.945312 0.210938
vt 0.851563 0.210938
vt 0.851563 0.273438
vt 0.945312 0.273438
vt 0.891226 0.210938
vt 0.851562 0.210938
vt 0.851562 0.273438
vt 0.891226 0.273438
vt 0.905649 0.210938
vt 0.945312 0.210938
vt 0.945312 0.273438
vt 0.905649 0.273438
vt 0.945312 0.237380
vt 0.905649 0.210938
vt 0.851562 0.246995
vt 0.891226 0.273438
vt 0.799880 0.140625
vt 0.835938 0.140625
vt 0.835938 0.187500
vt 0.799880 0.187500
vt 0.751784 0.429688
vt 0.737944 0.429688
vt 0.751784 0.382812
vt 0.751784 0.476562
vt 0.765625 0.429688
vt 0.575430 0.462722
vt 0.570312 0.448881
vt 0.664062 0.382812
vt 0.580547 0.476562
vt 0.751784 0.429688
vt 0.765625 0.429688
vt 0.751784 0.382812
vt 0.751784 0.476562
vt 0.737944 0.429688
vt 0.658945 0.462722
vt 0.653828 0.476562
vt 0.570312 0.382812
vt 0.664062 0.448881
vt 0.390625 0.195312
vt 0.484375 0.195312
vt 0.484375 0.262559
vt 0.390625 0.262559
vt 0.578768 0.200455
vt 0.499357 0.200455
vt 0.499357 0.257417
vt 0.578768 0.257417
vt 0.554688 0.992188
vt 0.625000 0.992188
vt 0.619623 0.664062
vt 0.560064 0.664062
vt 0.492188 0.302017
vt 0.867188 0.296875
vt 0.867188 0.364122
vt 0.492188 0.358979
vt 0.382812 0.195312
vt 0.354136 0.200455
vt 0.354136 0.257417
vt 0.382812 0.262559
vt 0.423713 0.261570
vt 0.451287 0.261570
vt 0.451287 0.273438
vt 0.423713 0.273438
vt 0.552849 0.261570
vt 0.525276 0.261570
vt 0.525276 0.273438
vt 0.552849 0.273438
vt 0.579504 0.929844
vt 0.600184 0.929844
vt 0.600184 0.726406
vt 0.579504 0.726406
vt 0.563438 0.363133
vt 0.795937 0.363133
vt 0.795937 0.375000
vt 0.563438 0.375000
vt 0.250460 0.261570
vt 0.250460 0.273438
vt 0.407169 0.206685
vt 0.467831 0.206685
vt 0.467831 0.251187
vt 0.407169 0.251187
vt 0.569393 0.206685
vt 0.508732 0.206685
vt 0.508732 0.251187
vt 0.569393 0.251187
vt 0.567096 0.710615
vt 0.612592 0.710615
vt 0.612592 0.703232
vt 0.567096 0.703232
vt 0.536953 0.308248
vt 0.545391 0.308248
vt 0.545391 0.352749
vt 0.536953 0.352749
vt 0.316636 0.206685
vt 0.316636 0.251187
vt 0.390625 0.195312
vt 0.484375 0.195312
vt 0.484375 0.262559
vt 0.390625 0.262559
vt 0.578768 0.200455
vt 0.499357 0.200455
vt 0.499357 0.257417
vt 0.578768 0.257417
vt 0.554688 0.992188
vt 0.625000 0.992188
vt 0.619623 0.664062
vt 0.560064 0.664062
vt 0.036489 0.200455
vt 0.007812 0.195312
vt 0.007812 0.262559
vt 0.036489 0.257417
vt 0.867188 0.296875
vt 0.492188 0.302017
vt 0.492188 0.358979
vt 0.867188 0.364122
vt 0.423713 0.261570
vt 0.451287 0.261570
vt 0.451287 0.273438
vt 0.423713 0.273438
vt 0.552849 0.261570
vt 0.525276 0.261570
vt 0.525276 0.273438
vt 0.552849 0.273438
vt 0.579504 0.929844
vt 0.600184 0.929844
vt 0.600184 0.726406
vt 0.579504 0.726406
vt 0.140165 0.261570
vt 0.140165 0.273438
vt 0.795937 0.363133
vt 0.563438 0.363133
vt 0.563438 0.375000
vt 0.795937 0.375000
vt 0.407169 0.206685
vt 0.467831 0.206685
vt 0.467831 0.251187
vt 0.407169 0.251187
vt 0.569393 0.206685
vt 0.508732 0.206685
vt 0.508732 0.251187
vt 0.569393 0.251187
vt 0.567096 0.710615
vt 0.612592 0.710615
vt 0.612592 0.703232
vt 0.567096 0.703232
vt 0.073989 0.206685
vt 0.073989 0.251187
vt 0.545391 0.308248
vt 0.536953 0.308248
vt 0.536953 0.352749
vt 0.545391 0.352749
vt 0.054688 0.281250
vt 0.083658 0.281250
vt 0.079777 0.328125
vt 0.054688 0.328125
vt 0.007812 0.290202
vt 0.007812 0.313640
vt 0.054688 0.315580
vt 0.054688 0.295283
vt 0.007812 0.342610
vt 0.054688 0.340670
vt 0.007812 0.366048
vt 0.054688 0.360967
vt 0.025717 0.281250
vt 0.029598 0.328125
vt 0.069173 0.362440
vt 0.054688 0.362440
vt 0.079777 0.295283
vt 0.095282 0.315580
vt 0.078125 0.320882
vt 0.069173 0.309164
vt 0.089002 0.335368
vt 0.089002 0.320882
vt 0.095282 0.340670
vt 0.079777 0.360967
vt 0.069173 0.347086
vt 0.078125 0.335368
vt 0.040202 0.362440
vt 0.029598 0.360967
vt 0.014093 0.340670
vt 0.031250 0.335368
vt 0.040202 0.347086
vt 0.014093 0.315580
vt 0.029598 0.295283
vt 0.040202 0.309164
vt 0.031250 0.320882
vt 0.054688 0.304688
vt 0.054688 0.328125
vt 0.054688 0.351562
vt 0.187500 0.484375
vt 0.312500 0.484375
vt 0.312500 0.656250
vt 0.187500 0.656250
vt 0.312500 0.484375
vt 0.187500 0.484375
vt 0.187500 0.656250
vt 0.312500 0.656250
vt 0.320312 0.656250
vt 0.382812 0.656250
vt 0.382812 0.484375
vt 0.320312 0.484375
vt 0.187500 0.484375
vt 0.312500 0.484375
vt 0.312500 0.656250
vt 0.187500 0.656250
vt 0.054688 0.281250
vt 0.083658 0.281250
vt 0.079777 0.328125
vt 0.054688 0.328125
vt 0.007812 0.290202
vt 0.007812 0.313640
vt 0.054688 0.315580
vt 0.054688 0.295283
vt 0.007812 0.342610
vt 0.054688 0.340670
vt 0.007812 0.366048
vt 0.054688 0.360967
vt 0.025717 0.281250
vt 0.029598 0.328125
vt 0.069173 0.362440
vt 0.054688 0.362440
vt 0.079777 0.295283
vt 0.095282 0.315580
vt 0.078125 0.320882
vt 0.069173 0.309164
vt 0.089002 0.335368
vt 0.089002 0.320882
vt 0.095282 0.340670
vt 0.079777 0.360967
vt 0.069173 0.347086
vt 0.078125 0.335368
vt 0.040202 0.362440
vt 0.029598 0.360967
vt 0.014093 0.340670
vt 0.031250 0.335368
vt 0.040202 0.347086
vt 0.014093 0.315580
vt 0.029598 0.295283
vt 0.040202 0.309164
vt 0.031250 0.320882
vt 0.054688 0.304688
vt 0.054688 0.328125
vt 0.054688 0.351562
vt 0.187500 0.484375
vt 0.312500 0.484375
vt 0.312500 0.656250
vt 0.187500 0.656250
vt 0.312500 0.484375
vt 0.187500 0.484375
vt 0.187500 0.656250
vt 0.312500 0.656250
vt 0.320312 0.656250
vt 0.382812 0.656250
vt 0.382812 0.484375
vt 0.320312 0.484375
vt 0.187500 0.484375
vt 0.312500 0.484375
vt 0.312500 0.656250
vt 0.187500 0.656250
vt 0.390625 0.195312
vt 0.484375 0.195312
vt 0.484375 0.262559
vt 0.390625 0.262559
vt 0.578768 0.200455
vt 0.499357 0.200455
vt 0.499357 0.257417
vt 0.578768 0.257417
vt 0.554688 0.992188
vt 0.625000 0.992188
vt 0.619623 0.664062
vt 0.560064 0.664062
vt 0.492188 0.302017
vt 0.867188 0.296875
vt 0.867188 0.364122
vt 0.492188 0.358979
vt 0.382812 0.195312
vt 0.354136 0.200455
vt 0.354136 0.257417
vt 0.382812 0.262559
vt 0.423713 0.261570
vt 0.451287 0.261570
vt 0.451287 0.273438
vt 0.423713 0.273438
vt 0.552849 0.261570
vt 0.525276 0.261570
vt 0.525276 0.273438
vt 0.552849 0.273438
vt 0.579504 0.929844
vt 0.600184 0.929844
vt 0.600184 0.726406
vt 0.579504 0.726406
vt 0.563438 0.363133
vt 0.795937 0.363133
vt 0.795937 0.375000
vt 0.563438 0.375000
vt 0.250460 0.261570
vt 0.250460 0.273438
vt 0.407169 0.206685
vt 0.467831 0.206685
vt 0.467831 0.251187
vt 0.407169 0.251187
vt 0.569393 0.206685
vt 0.508732 0.206685
vt 0.508732 0.251187
vt 0.569393 0.251187
vt 0.567096 0.710615
vt 0.612592 0.710615
vt 0.612592 0.703232
vt 0.567096 0.703232
vt 0.536953 0.308248
vt 0.545391 0.308248
vt 0.545391 0.352749
vt 0.536953 0.352749
vt 0.316636 0.206685
vt 0.316636 0.251187
vt 0.390625 0.195312
vt 0.484375 0.195312
vt 0.484375 0.262559
vt 0.390625 0.262559
vt 0.578768 0.200455
vt 0.499357 0.200455
vt 0.499357 0.257417
vt 0.578768 0.257417
vt 0.554688 0.992188
vt 0.625000 0.992188
vt 0.619623 0.664062
vt 0.560064 0.664062
vt 0.036489 0.200455
vt 0.007812 0.195312
vt 0.007812 0.262559
vt 0.036489 0.257417
vt 0.867188 0.296875
vt 0.492188 0.302017
vt 0.492188 0.358979
vt 0.867188 0.364122
vt 0.423713 0.261570
vt 0.451287 0.261570
vt 0.451287 0.273438
vt 0.423713 0.273438
vt 0.552849 0.261570
vt 0.525276 0.261570
vt 0.525276 0.273438
vt 0.552849 0.273438
vt 0.579504 0.929844
vt 0.600184 0.929844
vt 0.600184 0.726406
vt 0.579504 0.726406
vt 0.140165 0.261570
vt 0.140165 0.273438
vt 0.795937 0.363133
vt 0.563438 0.363133
vt 0.563438 0.375000
vt 0.795937 0.375000
vt 0.407169 0.206685
vt 0.467831 0.206685
vt 0.467831 0.251187
vt 0.407169 0.251187
vt 0.569393 0.206685
vt 0.508732 0.206685
vt 0.508732 0.251187
vt 0.569393 0.251187
vt 0.567096 0.710615
vt 0.612592 0.710615
vt 0.612592 0.703232
vt 0.567096 0.703232
vt 0.073989 0.206685
vt 0.073989 0.251187
vt 0.545391 0.308248
vt 0.536953 0.308248
vt 0.536953 0.352749
vt 0.545391 0.352749
vt 0.054688 0.281250
vt 0.083658 0.281250
vt 0.079777 0.328125
vt 0.054688 0.328125
vt 0.007812 0.290202
vt 0.007812 0.313640
vt 0.054688 0.315580
vt 0.054688 0.295283
vt 0.007812 0.342610
vt 0.054688 0.340670
vt 0.007812 0.366048
vt 0.054688 0.360967
vt 0.025717 0.281250
vt 0.029598 0.328125
vt 0.069173 0.362440
vt 0.054688 0.362440
vt 0.079777 0.295283
vt 0.095282 0.315580
vt 0.078125 0.320882
vt 0.069173 0.309164
vt 0.089002 0.335368
vt 0.089002 0.320882
vt 0.095282 0.340670
vt 0.079777 0.360967
vt 0.069173 0.347086
vt 0.078125 0.335368
vt 0.040202 0.362440
vt 0.029598 0.360967
vt 0.014093 0.340670
vt 0.031250 0.335368
vt 0.040202 0.347086
vt 0.014093 0.315580
vt 0.029598 0.295283
vt 0.040202 0.309164
vt 0.031250 0.320882
vt 0.054688 0.304688
vt 0.054688 0.328125
vt 0.054688 0.351562
vt 0.187500 0.484375
vt 0.312500 0.484375
vt 0.312500 0.656250
vt 0.187500 0.656250
vt 0.312500 0.484375
vt 0.187500 0.484375
vt 0.187500 0.656250
vt 0.312500 0.656250
vt 0.320312 0.656250
vt 0.382812 0.656250
vt 0.382812 0.484375
vt 0.320312 0.484375
vt 0.187500 0.484375
vt 0.312500 0.484375
vt 0.312500 0.656250
vt 0.187500 0.656250
vt 0.054688 0.281250
vt 0.083658 0.281250
vt 0.079777 0.328125
vt 0.054688 0.328125
vt 0.007812 0.290202
vt 0.007812 0.313640
vt 0.054688 0.315580
vt 0.054688 0.295283
vt 0.007812 0.342610
vt 0.054688 0.340670
vt 0.007812 0.366048
vt 0.054688 0.360967
vt 0.025717 0.281250
vt 0.029598 0.328125
vt 0.069173 0.362440
vt 0.054688 0.362440
vt 0.079777 0.295283
vt 0.095282 0.315580
vt 0.078125 0.320882
vt 0.069173 0.309164
vt 0.089002 0.335368
vt 0.089002 0.320882
vt 0.095282 0.340670
vt 0.079777 0.360967
vt 0.069173 0.347086
vt 0.078125 0.335368
vt 0.040202 0.362440
vt 0.029598 0.360967
vt 0.014093 0.340670
vt 0.031250 0.335368
vt 0.040202 0.347086
vt 0.014093 0.315580
vt 0.029598 0.295283
vt 0.040202 0.309164
vt 0.031250 0.320882
vt 0.054688 0.304688
vt 0.054688 0.328125
vt 0.054688 0.351562
vt 0.187500 0.484375
vt 0.312500 0.484375
vt 0.312500 0.656250
vt 0.187500 0.656250
vt 0.312500 0.484375
vt 0.187500 0.484375
vt 0.187500 0.656250
vt 0.312500 0.656250
vt 0.320312 0.656250
vt 0.382812 0.656250
vt 0.382812 0.484375
vt 0.320312 0.484375
vt 0.187500 0.484375
vt 0.312500 0.484375
vt 0.312500 0.656250
vt 0.187500 0.656250
vn -0.000000 0.099833 0.995004
vn -0.000000 -0.099833 -0.995004
vn 0.000000 0.998362 -0.057217
vn 0.000000 -0.989828 0.142267
vn -0.981615 0.019055 0.189916
vn 0.981615 0.019055 0.189916
vn 0.299447 -0.892345 0.337716
vn 0.783962 -0.542083 0.302572
vn 0.969030 0.024653 0.245709
vn 0.783962 0.591389 0.188846
vn 0.299447 0.941651 0.153702
vn -0.299447 0.941651 0.153702
vn -0.783962 0.591389 0.188846
vn -0.969030 0.024653 0.245709
vn -0.783962 -0.542083 0.302572
vn -0.299447 -0.892345 0.337716
vn 0.223919 -0.616908 0.754509
vn 0.586227 -0.354991 0.728230
vn 0.724617 0.068800 0.685709
vn 0.586227 0.492592 0.643188
vn 0.223919 0.754509 0.616908
vn -0.223919 0.754509 0.616908
vn -0.586227 0.492592 0.643188
vn -0.724617 0.068800 0.685709
vn -0.586227 -0.354991 0.728230
vn -0.223919 -0.616908 0.754509
vn 0.083800 -0.160528 0.983468
vn 0.219390 -0.062508 0.973633
vn 0.271181 0.096092 0.957720
vn 0.219390 0.254693 0.941807
vn 0.083800 0.352713 0.931972
vn -0.083800 0.352713 0.931972
vn -0.219390 0.254693 0.941807
vn -0.271181 0.096092 0.957720
vn -0.219390 -0.062508 0.973633
vn -0.083800 -0.160528 0.983468
vn -0.000000 -0.099833 -0.995004
vn 0.499892 -0.859436 0.107133
vn 0.999784 0.002076 0.020693
vn 0.499892 0.863589 -0.065746
vn -0.499892 0.863589 -0.065746
vn -0.999784 0.002076 0.020693
vn -0.499892 -0.859436 0.107133
vn 0.498870 -0.853041 0.153132
vn 0.997739 0.006709 0.066870
vn 0.498870 0.866460 -0.019393
vn -0.498870 0.866460 -0.019393
vn -0.997739 0.006709 0.066870
vn -0.498870 -0.853041 0.153132
vn -0.000000 -0.099833 -0.995004
vn 0.499892 -0.859436 0.107133
vn 0.999784 0.002076 0.020693
vn 0.499892 0.863589 -0.065746
vn -0.499892 0.863589 -0.065746
vn -0.999784 0.002076 0.020693
vn -0.499892 -0.859436 0.107133
vn 0.498870 -0.853041 0.153132
vn 0.997739 0.006709 0.066870
vn 0.498870 0.866460 -0.019393
vn -0.498870 0.866460 -0.019393
vn -0.997739 0.006709 0.066870
vn -0.498870 -0.853041 0.153132
vn 0.000000 0.000000 1.000000
vn 0.000000 0.000000 -1.000000
vn -0.000000 1.000000 0.000000
vn 0.000000 -1.000000 0.000000
vn -1.000000 0.000000 0.000000
vn 1.000000 0.000000 0.000000
vn 0.000000 -1.000000 0.000000
vn 0.000000 1.000000 0.000000
vn 0.071320 0.000000 0.997453
vn -0.071320 0.000000 -0.997453
vn 0.212060 0.000000 0.977257
vn -0.212060 0.000000 -0.977257
vn 0.347268 0.000000 0.937766
vn -0.347268 0.000000 -0.937766
vn 0.473769 0.000000 0.880649
vn -0.473769 0.000000 -0.880649
vn 0.589043 0.000000 0.808102
vn -0.589043 0.000000 -0.808102
vn 0.691291 0.000000 0.722577
vn -0.691291 0.000000 -0.722577
vn 0.779386 0.000000 0.626544
vn -0.779386 0.000000 -0.626544
vn 0.852756 0.000000 0.522310
vn -0.852756 0.000000 -0.522310
vn 0.911221 0.000000 0.411917
vn -0.911221 0.000000 -0.411917
vn 0.954842 0.000000 0.297115
vn -0.954842 0.000000 -0.297115
vn 0.983780 0.000000 0.179379
vn -0.983780 0.000000 -0.179379
vn 0.998200 0.000000 0.059973
vn -0.998200 0.000000 -0.059973
vn 0.990884 0.000000 0.134716
vn -0.990884 0.000000 -0.134716
vn 0.999978 0.000000 0.006653
vn -0.999978 0.000000 -0.006653
vn 0.992286 0.000000 -0.123972
vn -0.992286 0.000000 0.123972
vn 0.966835 0.000000 -0.255401
vn -0.966835 0.000000 0.255401
vn 0.922661 0.000000 -0.385611
vn -0.922661 0.000000 0.385611
vn 0.858881 0.000000 -0.512175
vn -0.858881 0.000000 0.512175
vn 0.774861 0.000000 -0.632131
vn -0.774861 0.000000 0.632131
vn 0.670486 0.000000 -0.741922
vn -0.670486 0.000000 0.741922
vn 0.546507 0.000000 -0.837454
vn -0.546507 0.000000 0.837454
vn 0.404903 0.000000 -0.914359
vn -0.404903 0.000000 0.914359
vn 0.249132 0.000000 -0.968470
vn -0.249132 0.000000 0.968470
vn 0.084117 0.000000 -0.996456
vn -0.084117 0.000000 0.996456
vn -0.084117 0.000000 -0.996456
vn 0.084117 0.000000 0.996456
vn -0.249132 0.000000 -0.968470
vn 0.249132 0.000000 0.968470
vn -0.404903 0.000000 -0.914359
vn 0.404903 0.000000 0.914359
vn -0.546507 0.000000 -0.837454
vn 0.546507 0.000000 0.837454
vn -0.670486 0.000000 -0.741922
vn 0.670486 0.000000 0.741922
vn -0.774861 0.000000 -0.632131
vn 0.774861 0.000000 0.632131
vn -0.858881 0.000000 -0.512175
vn 0.858881 0.000000 0.512175
vn -0.922661 0.000000 -0.385611
vn 0.922661 0.000000 0.385611
vn -0.966835 0.000000 -0.255401
vn 0.966835 0.000000 0.255401
vn -0.992286 0.000000 -0.123972
vn 0.992286 0.000000 0.123972
vn -0.999978 0.000000 0.006653
vn 0.999978 0.000000 -0.006653
vn -0.990884 0.000000 0.134716
vn 0.990884 0.000000 -0.134716
vn -0.998200 0.000000 0.059973
vn 0.998200 0.000000 -0.059973
vn -0.983780 0.000000 0.179379
vn 0.983780 0.000000 -0.179379
vn -0.954842 0.000000 0.297115
vn 0.954842 0.000000 -0.297115
vn -0.911221 0.000000 0.411917
vn 0.911221 0.000000 -0.411917
vn -0.852756 0.000000 0.522310
vn 0.852756 0.000000 -0.522310
vn -0.779386 0.000000 0.626544
vn 0.779386 0.000000 -0.626544
vn -0.691291 0.000000 0.722577
vn 0.691291 0.000000 -0.722577
vn -0.589043 0.000000 0.808102
vn 0.589043 0.000000 -0.808102
vn -0.473769 0.000000 0.880649
vn 0.473769 0.000000 -0.880649
vn -0.347268 0.000000 0.937766
vn 0.347268 0.000000 -0.937766
vn -0.212060 0.000000 0.977257
vn 0.212060 0.000000 -0.977257
vn -0.071320 0.000000 0.997453
vn 0.071320 0.000000 -0.997453
vn -0.707107 0.000000 -0.707107
vn 0.707107 0.000000 0.707107
vn 0.000000 1.000000 -0.000000
vn -0.000000 -1.000000 0.000000
vn 0.707107 0.000000 -0.707107
vn -0.707107 0.000000 0.707107
vn -1.000000 0.000000 0.000000
vn 1.000000 0.000000 0.000000
vn 0.000000 1.000000 0.000000
vn 0.000000 -1.000000 0.000000
vn 0.000000 0.000000 -1.000000
vn -0.000000 0.000000 1.000000
vn -0.707107 0.000000 0.707107
vn 0.707107 0.000000 -0.707107
vn -0.000000 1.000000 0.000000
vn 0.000000 -1.000000 0.000000
vn -0.707107 0.000000 -0.707107
vn 0.707107 0.000000 0.707107
vn 0.000000 0.000000 1.000000
vn 0.000000 0.000000 -1.000000
vn -0.000000 1.000000 0.000000
vn 0.000000 -1.000000 0.000000
vn -1.000000 0.000000 -0.000000
vn 1.000000 0.000000 0.000000
vn 0.707107 0.000000 0.707107
vn -0.707107 0.000000 -0.707107
vn 0.000000 1.000000 0.000000
vn 0.000000 -1.000000 0.000000
vn -0.707107 0.000000 0.707107
vn 0.707107 0.000000 -0.707107
vn 1.000000 0.000000 0.000000
vn -1.000000 0.000000 -0.000000
vn 0.000000 1.000000 0.000000
vn 0.000000 -1.000000 0.000000
vn -0.000000 0.000000 1.000000
vn 0.000000 0.000000 -1.000000
vn 0.707107 0.000000 -0.707107
vn -0.707107 0.000000 0.707107
vn 0.000000 1.000000 0.000000
vn 0.000000 -1.000000 -0.000000
vn 0.707107 0.000000 0.707107
vn -0.707107 0.000000 -0.707107
vn -0.866025 0.000000 0.500000
vn -0.291588 -0.705346 -0.646115
vn -0.291588 0.705346 -0.646115
vn 0.413758 0.705346 0.575580
vn 0.413758 -0.705346 0.575580
vn 0.866025 0.000000 0.500000
vn -0.413758 -0.705346 0.575580
vn -0.413758 0.705346 0.575580
vn 0.291588 0.705346 -0.646115
vn 0.291588 -0.705346 -0.646115
vn 0.000000 0.000000 1.000000
vn 0.000000 0.000000 -1.000000
vn 0.000000 0.999952 -0.009750
vn 0.000000 -0.999952 -0.009750
vn -0.999926 0.000000 -0.012187
vn 0.999926 0.000000 -0.012187
vn -0.000000 1.000000 0.000000
vn 0.000000 -1.000000 0.000000
vn -1.000000 0.000000 0.000000
vn 1.000000 0.000000 0.000000
vn 0.000000 0.000000 1.000000
vn 0.000000 0.000000 -1.000000
vn 0.000000 0.999952 -0.009750
vn 0.000000 -0.999952 -0.009750
vn -0.999926 0.000000 -0.012187
vn 0.999926 0.000000 -0.012187
vn -0.000000 1.000000 0.000000
vn 0.000000 -1.000000 0.000000
vn -1.000000 0.000000 0.000000
vn 1.000000 0.000000 0.000000
vn 0.299447 -0.921602 0.246943
vn 0.783962 -0.569582 0.246943
vn 0.969030 -0.000000 0.246943
vn 0.783962 0.569582 0.246943
vn 0.299447 0.921602 0.246943
vn -0.299447 0.921602 0.246943
vn -0.783962 0.569582 0.246943
vn -0.969030 0.000000 0.246943
vn -0.783962 -0.569582 0.246943
vn -0.299447 -0.921602 0.246943
vn 0.223919 -0.689152 0.689152
vn 0.586227 -0.425919 0.689152
vn 0.724617 -0.000000 0.689152
vn 0.586227 0.425919 0.689152
vn 0.223919 0.689152 0.689152
vn -0.223919 0.689152 0.689152
vn -0.586227 0.425919 0.689152
vn -0.724617 0.000000 0.689152
vn -0.586227 -0.425919 0.689152
vn -0.223919 -0.689152 0.689152
vn 0.083800 -0.257909 0.962528
vn 0.219390 -0.159396 0.962528
vn 0.271181 -0.000000 0.962528
vn 0.219390 0.159396 0.962528
vn 0.083800 0.257909 0.962528
vn -0.083800 0.257909 0.962528
vn -0.219390 0.159396 0.962528
vn -0.271181 0.000000 0.962528
vn -0.219390 -0.159396 0.962528
vn -0.083800 -0.257909 0.962528
vn 0.000000 0.000000 1.000000
vn 0.000000 0.000000 -1.000000
vn -0.000000 1.000000 0.000000
vn 0.000000 -1.000000 0.000000
vn -1.000000 0.000000 0.000000
vn 1.000000 0.000000 0.000000
vn 0.299447 -0.921602 0.246943
vn 0.783962 -0.569582 0.246943
vn 0.969030 -0.000000 0.246943
vn 0.783962 0.569582 0.246943
vn 0.299447 0.921602 0.246943
vn -0.299447 0.921602 0.246943
vn -0.783962 0.569582 0.246943
vn -0.969030 0.000000 0.246943
vn -0.783962 -0.569582 0.246943
vn -0.299447 -0.921602 0.246943
vn 0.223919 -0.689152 0.689152
vn 0.586227 -0.425919 0.689152
vn 0.724617 -0.000000 0.689152
vn 0.586227 0.425919 0.689152
vn 0.223919 0.689152 0.689152
vn -0.223919 0.689152 0.689152
vn -0.586227 0.425919 0.689152
vn -0.724617 0.000000 0.689152
vn -0.586227 -0.425919 0.689152
vn -0.223919 -0.689152 0.689152
vn 0.083800 -0.257909 0.962528
vn 0.219390 -0.159396 0.962528
vn 0.271181 -0.000000 0.962528
vn 0.219390 0.159396 0.962528
vn 0.083800 0.257909 0.962528
vn -0.083800 0.257909 0.962528
vn -0.219390 0.159396 0.962528
vn -0.271181 0.000000 0.962528
vn -0.219390 -0.159396 0.962528
vn -0.083800 -0.257909 0.962528
vn 0.000000 0.000000 1.000000
vn 0.000000 0.000000 -1.000000
vn -0.000000 1.000000 0.000000
vn 0.000000 -1.000000 0.000000
vn -1.000000 0.000000 0.000000
vn 1.000000 0.000000 0.000000
vn 0.000000 0.000000 1.000000
vn 0.000000 0.000000 -1.000000
vn 0.000000 0.999952 -0.009750
vn 0.000000 -0.999952 -0.009750
vn -0.999926 0.000000 -0.012187
vn 0.999926 0.000000 -0.012187
vn -0.000000 1.000000 0.000000
vn 0.000000 -1.000000 0.000000
vn -1.000000 0.000000 0.000000
vn 1.000000 0.000000 0.000000
vn 0.000000 0.000000 1.000000
vn 0.000000 0.000000 -1.000000
vn 0.000000 0.999952 -0.009750
vn 0.000000 -0.999952 -0.009750
vn -0.999926 0.000000 -0.012187
vn 0.999926 0.000000 -0.012187
vn -0.000000 1.000000 0.000000
vn 0.000000 -1.000000 0.000000
vn -1.000000 0.000000 0.000000
vn 1.000000 0.000000 0.000000
vn 0.299447 -0.921602 0.246943
vn 0.783962 -0.569582 0.246943
vn 0.969030 -0.000000 0.246943
vn 0.783962 0.569582 0.246943
vn 0.299447 0.921602 0.246943
vn -0.299447 0.921602 0.246943
vn -0.783962 0.569582 0.246943
vn -0.969030 0.000000 0.246943
vn -0.783962 -0.569582 0.246943
vn -0.299447 -0.921602 0.246943
vn 0.223919 -0.689152 0.689152
vn 0.586227 -0.425919 0.689152
vn 0.724617 -0.000000 0.689152
vn 0.586227 0.425919 0.689152
vn 0.223919 0.689152 0.689152
vn -0.223919 0.689152 0.689152
vn -0.586227 0.425919 0.689152
vn -0.724617 0.000000 0.689152
vn -0.586227 -0.425919 0.689152
vn -0.223919 -0.689152 0.689152
vn 0.083800 -0.257909 0.962528
vn 0.219390 -0.159396 0.962528
vn 0.271181 -0.000000 0.962528
vn 0.219390 0.159396 0.962528
vn 0.083800 0.257909 0.962528
vn -0.083800 0.257909 0.962528
vn -0.219390 0.159396 0.962528
vn -0.271181 0.000000 0.962528
vn -0.219390 -0.159396 0.962528
vn -0.083800 -0.257909 0.962528
vn 0.000000 0.000000 1.000000
vn 0.000000 0.000000 -1.000000
vn -0.000000 1.000000 0.000000
vn 0.000000 -1.000000 0.000000
vn -1.000000 0.000000 0.000000
vn 1.000000 0.000000 0.000000
vn 0.299447 -0.921602 0.246943
vn 0.783962 -0.569582 0.246943
vn 0.969030 -0.000000 0.246943
vn 0.783962 0.569582 0.246943
vn 0.299447 0.921602 0.246943
vn -0.299447 0.921602 0.246943
vn -0.783962 0.569582 0.246943
vn -0.969030 0.000000 0.246943
vn -0.783962 -0.569582 0.246943
vn -0.299447 -0.921602 0.246943
vn 0.223919 -0.689152 0.689152
vn 0.586227 -0.425919 0.689152
vn 0.724617 -0.000000 0.689152
vn 0.586227 0.425919 0.689152
vn 0.223919 0.689152 0.689152
vn -0.223919 0.689152 0.689152
vn -0.586227 0.425919 0.689152
vn -0.724617 0.000000 0.689152
vn -0.586227 -0.425919 0.689152
vn -0.223919 -0.689152 0.689152
vn 0.083800 -0.257909 0.962528
vn 0.219390 -0.159396 0.962528
vn 0.271181 -0.000000 0.962528
vn 0.219390 0.159396 0.962528
vn 0.083800 0.257909 0.962528
vn -0.083800 0.257909 0.962528
vn -0.219390 0.159396 0.962528
vn -0.271181 0.000000 0.962528
vn -0.219390 -0.159396 0.962528
vn -0.083800 -0.257909 0.962528
vn 0.000000 0.000000 1.000000
vn 0.000000 0.000000 -1.000000
vn -0.000000 1.000000 0.000000
vn 0.000000 -1.000000 0.000000
vn -1.000000 0.000000 0.000000
vn 1.000000 0.000000 0.000000
f 1/1/1 2/2/1 3/3/1
f 1/1/1 3/3/1 4/4/1
f 5/5/2 6/6/2 7/7/2
f 5/5/2 7/7/2 8/8/2
f 4/9/3 3/10/3 8/11/3
f 4/9/3 8/11/3 7/12/3
f 6/13/4 5/14/4 2/15/4
f 6/13/4 2/15/4 1/16/4
f 6/17/5 1/18/5 4/19/5
f 6/17/5 4/19/5 7/20/5
f 2/18/6 5/17/6 8/20/6
f 2/18/6 8/20/6 3/19/6
f 9/21/7 10/22/7 11/23/7
f 9/21/7 11/23/7 12/24/7
f 10/25/8 13/26/8 14/27/8
f 10/25/8 14/27/8 11/28/8
f 13/26/9 15/29/9 16/30/9
f 13/26/9 16/30/9 14/27/9
f 15/29/10 17/31/10 18/32/10
f 15/29/10 18/32/10 16/30/10
f 17/33/11 19/34/11 20/35/11
f 17/33/11 20/35/11 18/36/11
f 19/34/12 21/37/12 22/38/12
f 19/34/12 22/38/12 20/35/12
f 21/31/13 23/29/13 24/30/13
f 21/31/13 24/30/13 22/32/13
f 23/29/14 25/26/14 26/27/14
f 23/29/14 26/27/14 24/30/14
f 25/26/15 27/25/15 28/28/15
f 25/26/15 28/28/15 26/27/15
f 27/39/16 9/21/16 12/24/16
f 27/39/16 12/24/16 28/40/16
f 12/41/17 11/42/17 29/43/17
f 12/41/17 29/43/17 30/44/17
f 11/42/18 14/45/18 31/46/18
f 11/42/18 31/46/18 29/43/18
f 14/27/19 16/30/19 32/47/19
f 14/27/19 32/47/19 31/48/19
f 16/49/20 18/50/20 33/51/20
f 16/49/20 33/51/20 32/52/20
f 18/36/21 20/35/21 34/53/21
f 18/36/21 34/53/21 33/54/21
f 20/35/22 22/38/22 35/55/22
f 20/35/22 35/55/22 34/53/22
f 22/56/23 24/57/23 36/58/23
f 22/56/23 36/58/23 35/59/23
f 24/30/24 26/27/24 37/48/24
f 24/30/24 37/48/24 36/47/24
f 26/60/25 28/61/25 38/62/25
f 26/60/25 38/62/25 37/63/25
f 28/61/26 12/41/26 30/44/26
f 28/61/26 30/44/26 38/62/26
f 30/44/27 29/43/27 39/64/27
f 29/43/28 31/46/28 39/64/28
f 31/46/29 32/52/29 39/64/29
f 32/52/30 33/51/30 39/64/30
f 33/51/31 34/65/31 39/64/31
f 34/65/32 35/59/32 39/64/32
f 35/59/33 36/58/33 39/64/33
f 36/58/34 37/63/34 39/64/34
f 37/63/35 38/62/35 39/64/35
f 38/62/36 30/44/36 39/64/36
f 40/66/37 41/67/37 42/68/37
f 40/66/37 43/69/37 41/67/37
f 40/66/37 44/70/37 43/69/37
f 40/66/37 45/71/37 44/70/37
f 40/66/37 46/72/37 45/71/37
f 40/66/37 42/68/37 46/72/37
f 42/73/38 41/74/38 47/75/38
f 42/73/38 47/75/38 48/76/38
f 41/77/39 43/78/39 49/79/39
f 41/77/39 49/79/39 47/80/39
f 43/81/40 44/82/40 50/83/40
f 43/81/40 50/83/40 49/84/40
f 44/82/41 45/85/41 51/86/41
f 44/82/41 51/86/41 50/83/41
f 45/78/42 46/77/42 52/80/42
f 45/78/42 52/80/42 51/79/42
f 46/87/43 42/73/43 48/76/43
f 46/87/43 48/76/43 52/88/43
f 48/76/44 47/75/44 53/89/44
f 48/76/44 53/89/44 54/90/44
f 47/80/45 49/79/45 55/91/45
f 47/80/45 55/91/45 53/92/45
f 49/84/46 50/83/46 56/93/46
f 49/84/46 56/93/46 55/94/46
f 50/83/47 51/86/47 57/95/47
f 50/83/47 57/95/47 56/93/47
f 51/79/48 52/80/48 58/92/48
f 51/79/48 58/92/48 57/91/48
f 52/88/49 48/76/49 54/90/49
f 52/88/49 54/90/49 58/96/49
f 59/97/50 60/98/50 61/99/50
f 59/97/50 62/100/50 60/98/50
f 59/97/50 63/101/50 62/100/50
f 59/97/50 64/102/50 63/101/50
f 59/97/50 65/103/50 64/102/50
f 59/97/50 61/99/50 65/103/50
f 61/104/51 60/105/51 66/106/51
f 61/104/51 66/106/51 67/107/51
f 60/108/52 62/109/52 68/110/52
f 60/108/52 68/110/52 66/111/52
f 62/112/53 63/113/53 69/114/53
f 62/112/53 69/114/53 68/115/53
f 63/113/54 64/116/54 70/117/54
f 63/113/54 70/117/54 69/114/54
f 64/109/55 65/108/55 71/111/55
f 64/109/55 71/111/55 70/110/55
f 65/118/56 61/104/56 67/107/56
f 65/118/56 67/107/56 71/119/56
f 67/107/57 66/106/57 72/120/57
f 67/107/57 72/120/57 73/121/57
f 66/111/58 68/110/58 74/122/58
f 66/111/58 74/122/58 72/123/58
f 68/115/59 69/114/59 75/124/59
f 68/115/59 75/124/59 74/125/59
f 69/114/60 70/117/60 76/126/60
f 69/114/60 76/126/60 75/124/60
f 70/110/61 71/111/61 77/123/61
f 70/110/61 77/123/61 76/122/61
f 71/119/62 67/107/62 73/121/62
f 71/119/62 73/121/62 77/127/62
f 78/128/63 79/129/63 80/130/63
f 78/128/63 80/130/63 81/131/63
f 82/132/64 83/133/64 84/134/64
f 82/132/64 84/134/64 85/135/64
f 81/136/65 80/137/65 85/138/65
f 81/136/65 85/138/65 84/139/65
f 83/139/66 82/138/66 79/137/66
f 83/139/66 79/137/66 78/136/66
f 83/140/67 78/141/67 81/142/67
f 83/140/67 81/142/67 84/143/67
f 79/141/68 82/140/68 85/143/68
f 79/141/68 85/143/68 80/142/68
f 86/144/69 87/145/69 88/146/69
f 86/144/69 88/146/69 89/147/69
f 90/147/70 91/146/70 92/145/70
f 90/147/70 92/145/70 93/144/70
f 89/148/71 86/149/71 93/150/71
f 89/148/71 93/150/71 90/151/71
f 87/152/72 88/153/72 91/154/72
f 87/152/72 91/154/72 92/155/72
f 89/147/69 88/146/69 94/156/69
f 89/147/69 94/156/69 95/157/69
f 96/157/70 97/156/70 91/146/70
f 96/157/70 91/146/70 90/147/70
f 95/158/73 89/148/73 90/151/73
f 95/158/73 90/151/73 96/159/73
f 88/153/74 94/160/74 97/161/74
f 88/153/74 97/161/74 91/154/74
f 95/157/69 94/156/69 98/162/69
f 95/157/69 98/162/69 99/163/69
f 100/163/70 101/162/70 97/156/70
f 100/163/70 97/156/70 96/157/70
f 99/164/75 95/158/75 96/159/75
f 99/164/75 96/159/75 100/165/75
f 94/160/76 98/166/76 101/167/76
f 94/160/76 101/167/76 97/161/76
f 99/163/69 98/162/69 102/168/69
f 99/163/69 102/168/69 103/169/69
f 104/169/70 105/168/70 101/162/70
f 104/169/70 101/162/70 100/163/70
f 103/170/77 99/164/77 100/165/77
f 103/170/77 100/165/77 104/171/77
f 98/166/78 102/172/78 105/173/78
f 98/166/78 105/173/78 101/167/78
f 103/169/69 102/168/69 106/174/69
f 103/169/69 106/174/69 107/175/69
f 108/175/70 109/174/70 105/168/70
f 108/175/70 105/168/70 104/169/70
f 107/176/79 103/170/79 104/171/79
f 107/176/79 104/171/79 108/177/79
f 102/172/80 106/178/80 109/179/80
f 102/172/80 109/179/80 105/173/80
f 107/175/69 106/174/69 110/180/69
f 107/175/69 110/180/69 111/181/69
f 112/181/70 113/180/70 109/174/70
f 112/181/70 109/174/70 108/175/70
f 111/182/81 107/176/81 108/177/81
f 111/182/81 108/177/81 112/183/81
f 106/178/82 110/184/82 113/185/82
f 106/178/82 113/185/82 109/179/82
f 111/181/69 110/180/69 114/186/69
f 111/181/69 114/186/69 115/187/69
f 116/187/70 117/186/70 113/180/70
f 116/187/70 113/180/70 112/181/70
f 115/188/83 111/189/83 112/190/83
f 115/188/83 112/190/83 116/191/83
f 110/192/84 114/193/84 117/194/84
f 110/192/84 117/194/84 113/195/84
f 115/187/69 114/186/69 118/196/69
f 115/187/69 118/196/69 119/197/69
f 120/197/70 121/196/70 117/186/70
f 120/197/70 117/186/70 116/187/70
f 119/198/85 115/188/85 116/191/85
f 119/198/85 116/191/85 120/199/85
f 114/193/86 118/200/86 121/201/86
f 114/193/86 121/201/86 117/194/86
f 119/197/69 118/196/69 122/202/69
f 119/197/69 122/202/69 123/203/69
f 124/203/70 125/202/70 121/196/70
f 124/203/70 121/196/70 120/197/70
f 123/204/87 119/198/87 120/199/87
f 123/204/87 120/199/87 124/205/87
f 118/200/88 122/206/88 125/207/88
f 118/200/88 125/207/88 121/201/88
f 123/203/69 122/202/69 126/208/69
f 123/203/69 126/208/69 127/209/69
f 128/209/70 129/208/70 125/202/70
f 128/209/70 125/202/70 124/203/70
f 127/210/89 123/204/89 124/205/89
f 127/210/89 124/205/89 128/211/89
f 122/206/90 126/212/90 129/213/90
f 122/206/90 129/213/90 125/207/90
f 127/209/69 126/208/69 130/214/69
f 127/209/69 130/214/69 131/215/69
f 132/215/70 133/214/70 129/208/70
f 132/215/70 129/208/70 128/209/70
f 131/216/91 127/210/91 128/211/91
f 131/216/91 128/211/91 132/217/91
f 126/212/92 130/218/92 133/219/92
f 126/212/92 133/219/92 129/213/92
f 131/215/69 130/214/69 134/220/69
f 131/215/69 134/220/69 135/221/69
f 136/221/70 137/220/70 133/214/70
f 136/221/70 133/214/70 132/215/70
f 135/222/93 131/216/93 132/217/93
f 135/222/93 132/217/93 136/223/93
f 130/218/94 134/222/94 137/223/94
f 130/218/94 137/223/94 133/219/94
f 135/221/69 134/220/69 138/224/69
f 135/221/69 138/224/69 139/225/69
f 140/225/70 141/224/70 137/220/70
f 140/225/70 137/220/70 136/221/70
f 139/226/95 135/222/95 136/223/95
f 139/226/95 136/223/95 140/227/95
f 134/222/96 138/228/96 141/229/96
f 134/222/96 141/229/96 137/223/96
f 139/225/69 138/224/69 142/230/69
f 139/225/69 142/230/69 143/231/69
f 144/231/70 145/230/70 141/224/70
f 144/231/70 141/224/70 140/225/70
f 143/232/97 139/226/97 140/227/97
f 143/232/97 140/227/97 144/233/97
f 138/228/98 142/234/98 145/235/98
f 138/228/98 145/235/98 141/229/98
f 143/231/69 142/230/69 146/236/69
f 143/231/69 146/236/69 147/237/69
f 148/237/70 149/236/70 145/230/70
f 148/237/70 145/230/70 144/231/70
f 147/238/99 143/232/99 144/233/99
f 147/238/99 144/233/99 148/239/99
f 142/234/100 146/240/100 149/241/100
f 142/234/100 149/241/100 145/235/100
f 147/237/69 146/236/69 150/242/69
f 147/237/69 150/242/69 151/243/69
f 152/243/70 153/242/70 149/236/70
f 152/243/70 149/236/70 148/237/70
f 151/244/101 147/238/101 148/239/101
f 151/244/101 148/239/101 152/245/101
f 146/240/102 150/246/102 153/247/102
f 146/240/102 153/247/102 149/241/102
f 151/243/69 150/242/69 154/248/69
f 151/243/69 154/248/69 155/249/69
f 156/249/70 157/248/70 153/242/70
f 156/249/70 153/242/70 152/243/70
f 155/250/103 151/244/103 152/245/103
f 155/250/103 152/245/103 156/251/103
f 150/246/104 154/252/104 157/253/104
f 150/246/104 157/253/104 153/247/104
f 155/249/69 154/248/69 158/254/69
f 155/249/69 158/254/69 159/255/69
f 160/255/70 161/254/70 157/248/70
f 160/255/70 157/248/70 156/249/70
f 159/256/105 155/250/105 156/251/105
f 159/256/105 156/251/105 160/257/105
f 154/252/106 158/258/106 161/259/106
f 154/252/106 161/259/106 157/253/106
f 159/255/69 158/254/69 162/260/69
f 159/255/69 162/260/69 163/261/69
f 164/261/70 165/260/70 161/254/70
f 164/261/70 161/254/70 160/255/70
f 163/262/107 159/256/107 160/257/107
f 163/262/107 160/257/107 164/263/107
f 158/258/108 162/264/108 165/265/108
f 158/258/108 165/265/108 161/259/108
f 163/261/69 162/260/69 166/266/69
f 163/261/69 166/266/69 167/267/69
f 168/267/70 169/266/70 165/260/70
f 168/267/70 165/260/70 164/261/70
f 167/268/109 163/269/109 164/270/109
f 167/268/109 164/270/109 168/271/109
f 162/272/110 166/273/110 169/274/110
f 162/272/110 169/274/110 165/275/110
f 167/267/69 166/266/69 170/276/69
f 167/267/69 170/276/69 171/277/69
f 172/277/70 173/276/70 169/266/70
f 172/277/70 169/266/70 168/267/70
f 171/278/111 167/268/111 168/271/111
f 171/278/111 168/271/111 172/279/111
f 166/273/112 170/280/112 173/281/112
f 166/273/112 173/281/112 169/274/112
f 171/277/69 170/276/69 174/282/69
f 171/277/69 174/282/69 175/283/69
f 176/283/70 177/282/70 173/276/70
f 176/283/70 173/276/70 172/277/70
f 175/284/113 171/278/113 172/279/113
f 175/284/113 172/279/113 176/285/113
f 170/280/114 174/286/114 177/287/114
f 170/280/114 177/287/114 173/281/114
f 175/283/69 174/282/69 178/288/69
f 175/283/69 178/288/69 179/289/69
f 180/289/70 181/288/70 177/282/70
f 180/289/70 177/282/70 176/283/70
f 179/290/115 175/284/115 176/285/115
f 179/290/115 176/285/115 180/291/115
f 174/286/116 178/292/116 181/293/116
f 174/286/116 181/293/116 177/287/116
f 179/289/69 178/288/69 182/294/69
f 179/289/69 182/294/69 183/295/69
f 184/295/70 185/294/70 181/288/70
f 184/295/70 181/288/70 180/289/70
f 183/152/117 179/290/117 180/291/117
f 183/152/117 180/291/117 184/155/117
f 178/292/118 182/149/118 185/150/118
f 178/292/118 185/150/118 181/293/118
f 183/295/69 182/294/69 186/296/69
f 183/295/69 186/296/69 187/297/69
f 188/297/70 189/296/70 185/294/70
f 188/297/70 185/294/70 184/295/70
f 187/298/119 183/152/119 184/155/119
f 187/298/119 184/155/119 188/299/119
f 182/149/120 186/300/120 189/301/120
f 182/149/120 189/301/120 185/150/120
f 187/297/69 186/296/69 190/302/69
f 187/297/69 190/302/69 191/303/69
f 192/303/70 193/302/70 189/296/70
f 192/303/70 189/296/70 188/297/70
f 191/304/121 187/298/121 188/299/121
f 191/304/121 188/299/121 192/305/121
f 186/300/122 190/306/122 193/307/122
f 186/300/122 193/307/122 189/301/122
f 191/303/69 190/302/69 194/308/69
f 191/303/69 194/308/69 195/309/69
f 196/309/70 197/308/70 193/302/70
f 196/309/70 193/302/70 192/303/70
f 195/310/123 191/304/123 192/305/123
f 195/310/123 192/305/123 196/311/123
f 190/306/124 194/312/124 197/313/124
f 190/306/124 197/313/124 193/307/124
f 195/309/69 194/308/69 198/314/69
f 195/309/69 198/314/69 199/315/69
f 200/315/70 201/314/70 197/308/70
f 200/315/70 197/308/70 196/309/70
f 199/316/125 195/310/125 196/311/125
f 199/316/125 196/311/125 200/317/125
f 194/312/126 198/318/126 201/319/126
f 194/312/126 201/319/126 197/313/126
f 199/315/69 198/314/69 202/320/69
f 199/315/69 202/320/69 203/321/69
f 204/321/70 205/320/70 201/314/70
f 204/321/70 201/314/70 200/315/70
f 203/322/127 199/316/127 200/317/127
f 203/322/127 200/317/127 204/323/127
f 198/318/128 202/324/128 205/325/128
f 198/318/128 205/325/128 201/319/128
f 203/321/69 202/320/69 206/326/69
f 203/321/69 206/326/69 207/327/69
f 208/327/70 209/326/70 205/320/70
f 208/327/70 205/320/70 204/321/70
f 207/256/129 203/262/129 204/263/129
f 207/256/129 204/263/129 208/257/129
f 202/264/130 206/258/130 209/259/130
f 202/264/130 209/259/130 205/265/130
f 207/327/69 206/326/69 210/328/69
f 207/327/69 210/328/69 211/329/69
f 212/329/70 213/328/70 209/326/70
f 212/329/70 209/326/70 208/327/70
f 211/250/131 207/256/131 208/257/131
f 211/250/131 208/257/131 212/251/131
f 206/258/132 210/252/132 213/253/132
f 206/258/132 213/253/132 209/259/132
f 211/329/69 210/328/69 214/330/69
f 211/329/69 214/330/69 215/331/69
f 216/331/70 217/330/70 213/328/70
f 216/331/70 213/328/70 212/329/70
f 215/244/133 211/250/133 212/251/133
f 215/244/133 212/251/133 216/245/133
f 210/252/134 214/246/134 217/247/134
f 210/252/134 217/247/134 213/253/134
f 215/331/69 214/330/69 218/332/69
f 215/331/69 218/332/69 219/333/69
f 220/333/70 221/332/70 217/330/70
f 220/333/70 217/330/70 216/331/70
f 219/238/135 215/244/135 216/245/135
f 219/238/135 216/245/135 220/239/135
f 214/246/136 218/240/136 221/241/136
f 214/246/136 221/241/136 217/247/136
f 219/333/69 218/332/69 222/334/69
f 219/333/69 222/334/69 223/335/69
f 224/335/70 225/334/70 221/332/70
f 224/335/70 221/332/70 220/333/70
f 223/232/137 219/238/137 220/239/137
f 223/232/137 220/239/137 224/233/137
f 218/240/138 222/234/138 225/235/138
f 218/240/138 225/235/138 221/241/138
f 223/335/69 222/334/69 226/336/69
f 223/335/69 226/336/69 227/337/69
f 228/337/70 229/336/70 225/334/70
f 228/337/70 225/334/70 224/335/70
f 227/226/139 223/232/139 224/233/139
f 227/226/139 224/233/139 228/227/139
f 222/234/140 226/228/140 229/229/140
f 222/234/140 229/229/140 225/235/140
f 227/337/69 226/336/69 230/338/69
f 227/337/69 230/338/69 231/339/69
f 232/339/70 233/338/70 229/336/70
f 232/339/70 229/336/70 228/337/70
f 231/222/141 227/226/141 228/227/141
f 231/222/141 228/227/141 232/223/141
f 226/228/142 230/222/142 233/223/142
f 226/228/142 233/223/142 229/229/142
f 231/339/69 230/338/69 234/340/69
f 231/339/69 234/340/69 235/341/69
f 236/341/70 237/340/70 233/338/70
f 236/341/70 233/338/70 232/339/70
f 235/216/143 231/222/143 232/223/143
f 235/216/143 232/223/143 236/217/143
f 230/222/144 234/218/144 237/219/144
f 230/222/144 237/219/144 233/223/144
f 235/341/69 234/340/69 238/342/69
f 235/341/69 238/342/69 239/343/69
f 240/343/70 241/342/70 237/340/70
f 240/343/70 237/340/70 236/341/70
f 239/210/145 235/216/145 236/217/145
f 239/210/145 236/217/145 240/211/145
f 234/218/146 238/212/146 241/213/146
f 234/218/146 241/213/146 237/219/146
f 239/343/69 238/342/69 242/344/69
f 239/343/69 242/344/69 243/345/69
f 244/345/70 245/344/70 241/342/70
f 244/345/70 241/342/70 240/343/70
f 243/204/147 239/210/147 240/211/147
f 243/204/147 240/211/147 244/205/147
f 238/212/148 242/206/148 245/207/148
f 238/212/148 245/207/148 241/213/148
f 243/345/69 242/344/69 246/346/69
f 243/345/69 246/346/69 247/347/69
f 248/347/70 249/346/70 245/344/70
f 248/347/70 245/344/70 244/345/70
f 247/198/149 243/204/149 244/205/149
f 247/198/149 244/205/149 248/199/149
f 242/206/150 246/200/150 249/201/150
f 242/206/150 249/201/150 245/207/150
f 247/347/69 246/346/69 250/348/69
f 247/347/69 250/348/69 251/349/69
f 252/349/70 253/348/70 249/346/70
f 252/349/70 249/346/70 248/347/70
f 251/188/151 247/198/151 248/199/151
f 251/188/151 248/199/151 252/191/151
f 246/200/152 250/193/152 253/194/152
f 246/200/152 253/194/152 249/201/152
f 251/349/69 250/348/69 254/350/69
f 251/349/69 254/350/69 255/351/69
f 256/351/70 257/350/70 253/348/70
f 256/351/70 253/348/70 252/349/70
f 255/189/153 251/188/153 252/191/153
f 255/189/153 252/191/153 256/190/153
f 250/193/154 254/192/154 257/195/154
f 250/193/154 257/195/154 253/194/154
f 255/351/69 254/350/69 258/352/69
f 255/351/69 258/352/69 259/353/69
f 260/353/70 261/352/70 257/350/70
f 260/353/70 257/350/70 256/351/70
f 259/354/155 255/355/155 256/356/155
f 259/354/155 256/356/155 260/357/155
f 254/358/156 258/359/156 261/360/156
f 254/358/156 261/360/156 257/361/156
f 259/353/69 258/352/69 262/362/69
f 259/353/69 262/362/69 263/363/69
f 264/363/70 265/362/70 261/352/70
f 264/363/70 261/352/70 260/353/70
f 263/364/157 259/354/157 260/357/157
f 263/364/157 260/357/157 264/365/157
f 258/359/158 262/366/158 265/367/158
f 258/359/158 265/367/158 261/360/158
f 263/363/69 262/362/69 266/368/69
f 263/363/69 266/368/69 267/369/69
f 268/369/70 269/368/70 265/362/70
f 268/369/70 265/362/70 264/363/70
f 267/370/159 263/364/159 264/365/159
f 267/370/159 264/365/159 268/371/159
f 262/366/160 266/372/160 269/373/160
f 262/366/160 269/373/160 265/367/160
f 267/369/69 266/368/69 270/374/69
f 267/369/69 270/374/69 271/375/69
f 272/375/70 273/374/70 269/368/70
f 272/375/70 269/368/70 268/369/70
f 271/376/161 267/370/161 268/371/161
f 271/376/161 268/371/161 272/377/161
f 266/372/162 270/378/162 273/379/162
f 266/372/162 273/379/162 269/373/162
f 271/375/69 270/374/69 274/380/69
f 271/375/69 274/380/69 275/381/69
f 276/381/70 277/380/70 273/374/70
f 276/381/70 273/374/70 272/375/70
f 275/382/163 271/376/163 272/377/163
f 275/382/163 272/377/163 276/383/163
f 270/378/164 274/384/164 277/385/164
f 270/378/164 277/385/164 273/379/164
f 275/381/69 274/380/69 87/145/69
f 275/381/69 87/145/69 86/144/69
f 93/144/70 92/145/70 277/380/70
f 93/144/70 277/380/70 276/381/70
f 86/149/165 275/382/165 276/383/165
f 86/149/165 276/383/165 93/150/165
f 274/384/166 87/152/166 92/155/166
f 274/384/166 92/155/166 277/385/166
f 278/386/167 279/387/167 280/388/167
f 278/386/167 280/388/167 281/389/167
f 282/390/168 283/391/168 284/392/168
f 282/390/168 284/392/168 285/393/168
f 281/394/169 280/395/169 285/396/169
f 281/394/169 285/396/169 284/397/169
f 283/397/170 282/396/170 279/395/170
f 283/397/170 279/395/170 278/394/170
f 283/398/171 278/399/171 281/400/171
f 283/398/171 281/400/171 284/401/171
f 279/402/172 282/390/172 285/393/172
f 279/402/172 285/393/172 280/403/172
f 286/404/173 287/405/173 288/406/173
f 286/404/173 288/406/173 289/407/173
f 290/405/174 291/404/174 292/407/174
f 290/405/174 292/407/174 293/406/174
f 289/408/175 288/409/175 293/410/175
f 289/408/175 293/410/175 292/411/175
f 291/411/176 290/410/176 287/409/176
f 291/411/176 287/409/176 286/408/176
f 291/412/177 286/413/177 289/414/177
f 291/412/177 289/414/177 292/415/177
f 287/416/178 290/417/178 293/418/178
f 287/416/178 293/418/178 288/419/178
f 294/420/179 295/421/179 296/422/179
f 294/420/179 296/422/179 297/423/179
f 298/424/180 299/425/180 300/426/180
f 298/424/180 300/426/180 301/427/180
f 297/428/181 296/429/181 301/430/181
f 297/428/181 301/430/181 300/431/181
f 299/431/182 298/430/182 295/429/182
f 299/431/182 295/429/182 294/428/182
f 299/425/183 294/432/183 297/433/183
f 299/425/183 297/433/183 300/426/183
f 295/421/184 298/434/184 301/435/184
f 295/421/184 301/435/184 296/422/184
f 302/436/185 303/437/185 304/438/185
f 302/436/185 304/438/185 305/439/185
f 306/440/186 307/441/186 308/442/186
f 306/440/186 308/442/186 309/443/186
f 305/444/187 304/445/187 309/446/187
f 305/444/187 309/446/187 308/447/187
f 307/447/188 306/446/188 303/445/188
f 307/447/188 303/445/188 302/444/188
f 307/448/189 302/449/189 305/450/189
f 307/448/189 305/450/189 308/451/189
f 303/449/190 306/448/190 309/451/190
f 303/449/190 309/451/190 304/450/190
f 310/452/191 311/453/191 312/454/191
f 310/452/191 312/454/191 313/455/191
f 314/456/192 315/457/192 316/458/192
f 314/456/192 316/458/192 317/459/192
f 313/460/193 312/461/193 317/462/193
f 313/460/193 317/462/193 316/463/193
f 315/463/194 314/462/194 311/461/194
f 315/463/194 311/461/194 310/460/194
f 315/464/195 310/465/195 313/466/195
f 315/464/195 313/466/195 316/467/195
f 311/453/196 314/456/196 317/459/196
f 311/453/196 317/459/196 312/454/196
f 318/468/197 319/469/197 320/470/197
f 318/468/197 320/470/197 321/471/197
f 322/469/198 323/468/198 324/471/198
f 322/469/198 324/471/198 325/470/198
f 321/472/199 320/473/199 325/474/199
f 321/472/199 325/474/199 324/475/199
f 323/475/200 322/474/200 319/473/200
f 323/475/200 319/473/200 318/472/200
f 323/476/201 318/477/201 321/478/201
f 323/476/201 321/478/201 324/479/201
f 319/480/202 322/481/202 325/482/202
f 319/480/202 325/482/202 320/483/202
f 326/484/203 327/485/203 328/486/203
f 326/484/203 328/486/203 329/487/203
f 330/488/204 331/489/204 332/490/204
f 330/488/204 332/490/204 333/491/204
f 329/492/205 328/493/205 333/494/205
f 329/492/205 333/494/205 332/495/205
f 331/495/206 330/494/206 327/493/206
f 331/495/206 327/493/206 326/492/206
f 331/496/207 326/497/207 329/498/207
f 331/496/207 329/498/207 332/499/207
f 327/485/208 330/488/208 333/491/208
f 327/485/208 333/491/208 328/486/208
f 334/500/209 335/501/209 336/502/209
f 334/500/209 337/503/209 335/501/209
f 334/500/209 338/504/209 337/503/209
f 334/500/209 336/502/209 338/504/209
f 336/505/210 335/506/210 339/507/210
f 335/506/211 337/505/211 339/507/211
f 337/505/212 338/508/212 339/507/212
f 338/508/213 336/505/213 339/507/213
f 340/509/214 341/510/214 342/511/214
f 340/509/214 343/512/214 341/510/214
f 340/509/214 344/513/214 343/512/214
f 340/509/214 342/511/214 344/513/214
f 342/514/215 341/515/215 345/516/215
f 341/515/216 343/514/216 345/516/216
f 343/514/217 344/517/217 345/516/217
f 344/517/218 342/514/218 345/516/218
f 346/518/219 347/519/219 348/520/219
f 346/518/219 348/520/219 349/521/219
f 350/522/220 351/523/220 352/524/220
f 350/522/220 352/524/220 353/525/220
f 349/526/221 348/527/221 353/528/221
f 349/526/221 353/528/221 352/529/221
f 351/529/222 350/528/222 347/527/222
f 351/529/222 347/527/222 346/526/222
f 351/530/223 346/531/223 349/532/223
f 351/530/223 349/532/223 352/533/223
f 347/534/224 350/535/224 353/536/224
f 347/534/224 353/536/224 348/537/224
f 354/538/219 355/539/219 356/540/219
f 354/538/219 356/540/219 357/541/219
f 358/542/220 359/543/220 360/544/220
f 358/542/220 360/544/220 361/545/220
f 357/546/225 356/547/225 361/548/225
f 357/546/225 361/548/225 360/549/225
f 359/549/226 358/548/226 355/547/226
f 359/549/226 355/547/226 354/546/226
f 359/550/227 354/551/227 357/552/227
f 359/550/227 357/552/227 360/553/227
f 355/554/228 358/554/228 361/555/228
f 355/554/228 361/555/228 356/555/228
f 362/556/219 363/557/219 364/558/219
f 362/556/219 364/558/219 365/559/219
f 366/560/220 367/561/220 368/562/220
f 366/560/220 368/562/220 369/563/220
f 365/564/225 364/565/225 369/566/225
f 365/564/225 369/566/225 368/567/225
f 367/567/226 366/566/226 363/565/226
f 367/567/226 363/565/226 362/564/226
f 367/568/227 362/569/227 365/570/227
f 367/568/227 365/570/227 368/571/227
f 363/572/228 366/572/228 369/573/228
f 363/572/228 369/573/228 364/573/228
f 370/574/229 371/575/229 372/576/229
f 370/574/229 372/576/229 373/577/229
f 374/578/230 375/579/230 376/580/230
f 374/578/230 376/580/230 377/581/230
f 373/582/231 372/583/231 377/584/231
f 373/582/231 377/584/231 376/585/231
f 375/585/232 374/584/232 371/583/232
f 375/585/232 371/583/232 370/582/232
f 375/586/233 370/587/233 373/588/233
f 375/586/233 373/588/233 376/589/233
f 371/590/234 374/591/234 377/592/234
f 371/590/234 377/592/234 372/593/234
f 378/594/229 379/595/229 380/596/229
f 378/594/229 380/596/229 381/597/229
f 382/598/230 383/599/230 384/600/230
f 382/598/230 384/600/230 385/601/230
f 381/602/235 380/603/235 385/604/235
f 381/602/235 385/604/235 384/605/235
f 383/605/236 382/604/236 379/603/236
f 383/605/236 379/603/236 378/602/236
f 383/606/237 378/606/237 381/607/237
f 383/606/237 381/607/237 384/607/237
f 379/608/238 382/609/238 385/610/238
f 379/608/238 385/610/238 380/611/238
f 386/612/229 387/613/229 388/614/229
f 386/612/229 388/614/229 389/615/229
f 390/616/230 391/617/230 392/618/230
f 390/616/230 392/618/230 393/619/230
f 389/620/235 388/621/235 393/622/235
f 389/620/235 393/622/235 392/623/235
f 391/623/236 390/622/236 387/621/236
f 391/623/236 387/621/236 386/620/236
f 391/624/237 386/624/237 389/625/237
f 391/624/237 389/625/237 392/625/237
f 387/626/238 390/627/238 393/628/238
f 387/626/238 393/628/238 388/629/238
f 394/630/239 395/631/239 396/632/239
f 394/630/239 396/632/239 397/633/239
f 395/634/240 398/635/240 399/636/240
f 395/634/240 399/636/240 396/637/240
f 398/635/241 400/638/241 401/639/241
f 398/635/241 401/639/241 399/636/241
f 400/638/242 402/640/242 403/641/242
f 400/638/242 403/641/242 401/639/242
f 402/631/243 404/630/243 405/633/243
f 402/631/243 405/633/243 403/632/243
f 404/630/244 406/642/244 407/643/244
f 404/630/244 407/643/244 405/633/244
f 406/640/245 408/638/245 409/639/245
f 406/640/245 409/639/245 407/641/245
f 408/638/246 410/635/246 411/636/246
f 408/638/246 411/636/246 409/639/246
f 410/635/247 412/634/247 413/637/247
f 410/635/247 413/637/247 411/636/247
f 412/642/248 394/630/248 397/633/248
f 412/642/248 397/633/248 413/643/248
f 397/633/249 396/632/249 414/644/249
f 397/633/249 414/644/249 415/645/249
f 396/646/250 399/647/250 416/648/250
f 396/646/250 416/648/250 414/649/250
f 399/636/251 401/639/251 417/650/251
f 399/636/251 417/650/251 416/651/251
f 401/652/252 403/653/252 418/654/252
f 401/652/252 418/654/252 417/655/252
f 403/632/253 405/633/253 419/645/253
f 403/632/253 419/645/253 418/644/253
f 405/633/254 407/643/254 420/656/254
f 405/633/254 420/656/254 419/645/254
f 407/657/255 409/658/255 421/659/255
f 407/657/255 421/659/255 420/660/255
f 409/639/256 411/636/256 422/651/256
f 409/639/256 422/651/256 421/650/256
f 411/661/257 413/662/257 423/663/257
f 411/661/257 423/663/257 422/664/257
f 413/643/258 397/633/258 415/645/258
f 413/643/258 415/645/258 423/656/258
f 415/665/259 414/649/259 424/666/259
f 414/649/260 416/648/260 424/666/260
f 416/648/261 417/655/261 424/666/261
f 417/655/262 418/654/262 424/666/262
f 418/654/263 419/667/263 424/666/263
f 419/667/264 420/660/264 424/666/264
f 420/660/265 421/659/265 424/666/265
f 421/659/266 422/664/266 424/666/266
f 422/664/267 423/663/267 424/666/267
f 423/663/268 415/665/268 424/666/268
f 425/668/269 426/669/269 427/670/269
f 425/668/269 427/670/269 428/671/269
f 429/672/270 430/673/270 431/674/270
f 429/672/270 431/674/270 432/675/270
f 428/676/271 427/677/271 432/678/271
f 428/676/271 432/678/271 431/679/271
f 430/679/272 429/678/272 426/677/272
f 430/679/272 426/677/272 425/676/272
f 430/680/273 425/681/273 428/682/273
f 430/680/273 428/682/273 431/683/273
f 426/681/274 429/680/274 432/683/274
f 426/681/274 432/683/274 427/682/274
f 433/684/275 434/685/275 435/686/275
f 433/684/275 435/686/275 436/687/275
f 434/688/276 437/689/276 438/690/276
f 434/688/276 438/690/276 435/691/276
f 437/689/277 439/692/277 440/693/277
f 437/689/277 440/693/277 438/690/277
f 439/692/278 441/694/278 442/695/278
f 439/692/278 442/695/278 440/693/278
f 441/685/279 443/684/279 444/687/279
f 441/685/279 444/687/279 442/686/279
f 443/684/280 445/696/280 446/697/280
f 443/684/280 446/697/280 444/687/280
f 445/694/281 447/692/281 448/693/281
f 445/694/281 448/693/281 446/695/281
f 447/692/282 449/689/282 450/690/282
f 447/692/282 450/690/282 448/693/282
f 449/689/283 451/688/283 452/691/283
f 449/689/283 452/691/283 450/690/283
f 451/696/284 433/684/284 436/687/284
f 451/696/284 436/687/284 452/697/284
f 436/687/285 435/686/285 453/698/285
f 436/687/285 453/698/285 454/699/285
f 435/700/286 438/701/286 455/702/286
f 435/700/286 455/702/286 453/703/286
f 438/690/287 440/693/287 456/704/287
f 438/690/287 456/704/287 455/705/287
f 440/706/288 442/707/288 457/708/288
f 440/706/288 457/708/288 456/709/288
f 442/686/289 444/687/289 458/699/289
f 442/686/289 458/699/289 457/698/289
f 444/687/290 446/697/290 459/710/290
f 444/687/290 459/710/290 458/699/290
f 446/711/291 448/712/291 460/713/291
f 446/711/291 460/713/291 459/714/291
f 448/693/292 450/690/292 461/705/292
f 448/693/292 461/705/292 460/704/292
f 450/715/293 452/716/293 462/717/293
f 450/715/293 462/717/293 461/718/293
f 452/697/294 436/687/294 454/699/294
f 452/697/294 454/699/294 462/710/294
f 454/719/295 453/703/295 463/720/295
f 453/703/296 455/702/296 463/720/296
f 455/702/297 456/709/297 463/720/297
f 456/709/298 457/708/298 463/720/298
f 457/708/299 458/721/299 463/720/299
f 458/721/300 459/714/300 463/720/300
f 459/714/301 460/713/301 463/720/301
f 460/713/302 461/718/302 463/720/302
f 461/718/303 462/717/303 463/720/303
f 462/717/304 454/719/304 463/720/304
f 464/722/305 465/723/305 466/724/305
f 464/722/305 466/724/305 467/725/305
f 468/726/306 469/727/306 470/728/306
f 468/726/306 470/728/306 471/729/306
f 467/730/307 466/731/307 471/732/307
f 467/730/307 471/732/307 470/733/307
f 469/733/308 468/732/308 465/731/308
f 469/733/308 465/731/308 464/730/308
f 469/734/309 464/735/309 467/736/309
f 469/734/309 467/736/309 470/737/309
f 465/735/310 468/734/310 471/737/310
f 465/735/310 471/737/310 466/736/310
f 472/738/311 473/739/311 474/740/311
f 472/738/311 474/740/311 475/741/311
f 476/742/312 477/743/312 478/744/312
f 476/742/312 478/744/312 479/745/312
f 475/746/313 474/747/313 479/748/313
f 475/746/313 479/748/313 478/749/313
f 477/749/314 476/748/314 473/747/314
f 477/749/314 473/747/314 472/746/314
f 477/750/315 472/751/315 475/752/315
f 477/750/315 475/752/315 478/753/315
f 473/754/316 476/755/316 479/756/316
f 473/754/316 479/756/316 474/757/316
f 480/758/311 481/759/311 482/760/311
f 480/758/311 482/760/311 483/761/311
f 484/762/312 485/763/312 486/764/312
f 484/762/312 486/764/312 487/765/312
f 483/766/317 482/767/317 487/768/317
f 483/766/317 487/768/317 486/769/317
f 485/769/318 484/768/318 481/767/318
f 485/769/318 481/767/318 480/766/318
f 485/770/319 480/771/319 483/772/319
f 485/770/319 483/772/319 486/773/319
f 481/774/320 484/774/320 487/775/320
f 481/774/320 487/775/320 482/775/320
f 488/776/311 489/777/311 490/778/311
f 488/776/311 490/778/311 491/779/311
f 492/780/312 493/781/312 494/782/312
f 492/780/312 494/782/312 495/783/312
f 491/784/317 490/785/317 495/786/317
f 491/784/317 495/786/317 494/787/317
f 493/787/318 492/786/318 489/785/318
f 493/787/318 489/785/318 488/784/318
f 493/788/319 488/789/319 491/790/319
f 493/788/319 491/790/319 494/791/319
f 489/792/320 492/792/320 495/793/320
f 489/792/320 495/793/320 490/793/320
f 496/794/321 497/795/321 498/796/321
f 496/794/321 498/796/321 499/797/321
f 500/798/322 501/799/322 502/800/322
f 500/798/322 502/800/322 503/801/322
f 499/802/323 498/803/323 503/804/323
f 499/802/323 503/804/323 502/805/323
f 501/805/324 500/804/324 497/803/324
f 501/805/324 497/803/324 496/802/324
f 501/806/325 496/807/325 499/808/325
f 501/806/325 499/808/325 502/809/325
f 497/810/326 500/811/326 503/812/326
f 497/810/326 503/812/326 498/813/326
f 504/814/321 505/815/321 506/816/321
f 504/814/321 506/816/321 507/817/321
f 508/818/322 509/819/322 510/820/322
f 508/818/322 510/820/322 511/821/322
f 507/822/327 506/823/327 511/824/327
f 507/822/327 511/824/327 510/825/327
f 509/825/328 508/824/328 505/823/328
f 509/825/328 505/823/328 504/822/328
f 509/826/329 504/826/329 507/827/329
f 509/826/329 507/827/329 510/827/329
f 505/828/330 508/829/330 511/830/330
f 505/828/330 511/830/330 506/831/330
f 512/832/321 513/833/321 514/834/321
f 512/832/321 514/834/321 515/835/321
f 516/836/322 517/837/322 518/838/322
f 516/836/322 518/838/322 519/839/322
f 515/840/327 514/841/327 519/842/327
f 515/840/327 519/842/327 518/843/327
f 517/843/328 516/842/328 513/841/328
f 517/843/328 513/841/328 512/840/328
f 517/844/329 512/844/329 515/845/329
f 517/844/329 515/845/329 518/845/329
f 513/846/330 516/847/330 519/848/330
f 513/846/330 519/848/330 514/849/330
f 520/850/331 521/851/331 522/852/331
f 520/850/331 522/852/331 523/853/331
f 521/854/332 524/855/332 525/856/332
f 521/854/332 525/856/332 522/857/332
f 524/855/333 526/858/333 527/859/333
f 524/855/333 527/859/333 525/856/333
f 526/858/334 528/860/334 529/861/334
f 526/858/334 529/861/334 527/859/334
f 528/851/335 530/850/335 531/853/335
f 528/851/335 531/853/335 529/852/335
f 530/850/336 532/862/336 533/863/336
f 530/850/336 533/863/336 531/853/336
f 532/860/337 534/858/337 535/859/337
f 532/860/337 535/859/337 533/861/337
f 534/858/338 536/855/338 537/856/338
f 534/858/338 537/856/338 535/859/338
f 536/855/339 538/854/339 539/857/339
f 536/855/339 539/857/339 537/856/339
f 538/862/340 520/850/340 523/853/340
f 538/862/340 523/853/340 539/863/340
f 523/853/341 522/852/341 540/864/341
f 523/853/341 540/864/341 541/865/341
f 522/866/342 525/867/342 542/868/342
f 522/866/342 542/868/342 540/869/342
f 525/856/343 527/859/343 543/870/343
f 525/856/343 543/870/343 542/871/343
f 527/872/344 529/873/344 544/874/344
f 527/872/344 544/874/344 543/875/344
f 529/852/345 531/853/345 545/865/345
f 529/852/345 545/865/345 544/864/345
f 531/853/346 533/863/346 546/876/346
f 531/853/346 546/876/346 545/865/346
f 533/877/347 535/878/347 547/879/347
f 533/877/347 547/879/347 546/880/347
f 535/859/348 537/856/348 548/871/348
f 535/859/348 548/871/348 547/870/348
f 537/881/349 539/882/349 549/883/349
f 537/881/349 549/883/349 548/884/349
f 539/863/350 523/853/350 541/865/350
f 539/863/350 541/865/350 549/876/350
f 541/885/351 540/869/351 550/886/351
f 540/869/352 542/868/352 550/886/352
f 542/868/353 543/875/353 550/886/353
f 543/875/354 544/874/354 550/886/354
f 544/874/355 545/887/355 550/886/355
f 545/887/356 546/880/356 550/886/356
f 546/880/357 547/879/357 550/886/357
f 547/879/358 548/884/358 550/886/358
f 548/884/359 549/883/359 550/886/359
f 549/883/360 541/885/360 550/886/360
f 551/888/361 552/889/361 553/890/361
f 551/888/361 553/890/361 554/891/361
f 555/892/362 556/893/362 557/894/362
f 555/892/362 557/894/362 558/895/362
f 554/896/363 553/897/363 558/898/363
f 554/896/363 558/898/363 557/899/363
f 556/899/364 555/898/364 552/897/364
f 556/899/364 552/897/364 551/896/364
f 556/900/365 551/901/365 554/902/365
f 556/900/365 554/902/365 557/903/365
f 552/901/366 555/900/366 558/903/366
f 552/901/366 558/903/366 553/902/366
f 559/904/367 560/905/367 561/906/367
f 559/904/367 561/906/367 562/907/367
f 560/908/368 563/909/368 564/910/368
f 560/908/368 564/910/368 561/911/368
f 563/909/369 565/912/369 566/913/369
f 563/909/369 566/913/369 564/910/369
f 565/912/370 567/914/370 568/915/370
f 565/912/370 568/915/370 566/913/370
f 567/905/371 569/904/371 570/907/371
f 567/905/371 570/907/371 568/906/371
f 569/904/372 571/916/372 572/917/372
f 569/904/372 572/917/372 570/907/372
f 571/914/373 573/912/373 574/913/373
f 571/914/373 574/913/373 572/915/373
f 573/912/374 575/909/374 576/910/374
f 573/912/374 576/910/374 574/913/374
f 575/909/375 577/908/375 578/911/375
f 575/909/375 578/911/375 576/910/375
f 577/916/376 559/904/376 562/907/376
f 577/916/376 562/907/376 578/917/376
f 562/907/377 561/906/377 579/918/377
f 562/907/377 579/918/377 580/919/377
f 561/920/378 564/921/378 581/922/378
f 561/920/378 581/922/378 579/923/378
f 564/910/379 566/913/379 582/924/379
f 564/910/379 582/924/379 581/925/379
f 566/926/380 568/927/380 583/928/380
f 566/926/380 583/928/380 582/929/380
f 568/906/381 570/907/381 584/919/381
f 568/906/381 584/919/381 583/918/381
f 570/907/382 572/917/382 585/930/382
f 570/907/382 585/930/382 584/919/382
f 572/931/383 574/932/383 586/933/383
f 572/931/383 586/933/383 585/934/383
f 574/913/384 576/910/384 587/925/384
f 574/913/384 587/925/384 586/924/384
f 576/935/385 578/936/385 588/937/385
f 576/935/385 588/937/385 587/938/385
f 578/917/386 562/907/386 580/919/386
f 578/917/386 580/919/386 588/930/386
f 580/939/387 579/923/387 589/940/387
f 579/923/388 581/922/388 589/940/388
f 581/922/389 582/929/389 589/940/389
f 582/929/390 583/928/390 589/940/390
f 583/928/391 584/941/391 589/940/391
f 584/941/392 585/934/392 589/940/392
f 585/934/393 586/933/393 589/940/393
f 586/933/394 587/938/394 589/940/394
f 587/938/395 588/937/395 589/940/395
f 588/937/396 580/939/396 589/940/396
f 590/942/397 591/943/397 592/944/397
f 590/942/397 592/944/397 593/945/397
f 594/946/398 595/947/398 596/948/398
f 594/946/398 596/948/398 597/949/398
f 593/950/399 592/951/399 597/952/399
f 593/950/399 597/952/399 596/953/399
f 595/953/400 594/952/400 591/951/400
f 595/953/400 591/951/400 590/950/400
f 595/954/401 590/955/401 593/956/401
f 595/954/401 593/956/401 596/957/401
f 591/955/402 594/954/402 597/957/402
f 591/955/402 597/957/402 592/956/402
