# Helion tender, fragment 0 of 8
# Generated by tools. Edit the generator script.
v 0.120798 0.342262 -2.079776
v -0.120798 0.583858 -2.079776
v 0.120798 0.583858 -2.079776
v 0.422794 0.000000 -1.704013
v 0.020133 0.362395 -1.704013
v 0.422794 0.362395 -1.704013
v 0.442927 0.463060 -2.240840
v 0.556817 0.349170 -2.240840
v 0.442927 0.301996 -2.240840
v 0.603991 0.463060 -2.240840
v 0.556817 0.576950 -2.240840
v 0.442927 0.624124 -2.240840
v 0.329037 0.576950 -2.240840
v 0.281863 0.463060 -2.240840
v 0.329037 0.349170 -2.240840
v 0.556817 0.349170 -1.596583
v 0.442927 0.301996 -1.596583
v 0.603991 0.463060 -1.596583
v 0.556817 0.576950 -1.596583
v 0.442927 0.624124 -1.596583
v 0.329037 0.576950 -1.596583
v 0.281863 0.463060 -1.596583
v 0.329037 0.349170 -1.596583
v 0.442927 0.463060 -1.596583
v 0.020133 0.430847 -1.886499
v 0.422794 0.430847 -1.886499
v 0.422794 0.495273 -1.886499
v 0.020133 0.495273 -1.886499
v 0.422794 0.430847 -1.950924
v 0.020133 0.430847 -1.950924
v 0.020133 0.495273 -1.950924
v 0.422794 0.495273 -1.950924
v 0.442927 0.273809 -1.918712
v 0.515350 0.288215 -1.918712
v 0.507897 0.306209 -1.891905
v 0.442927 0.293286 -1.891905
v 0.495837 0.335323 -1.902144
v 0.442927 0.324799 -1.902144
v 0.495837 0.335323 -1.935279
v 0.442927 0.324799 -1.935279
v 0.507897 0.306209 -1.945518
v 0.442927 0.293286 -1.945518
v 0.576747 0.329240 -1.918712
v 0.562976 0.343011 -1.891905
v 0.540692 0.365295 -1.902144
v 0.540692 0.365295 -1.935279
v 0.562976 0.343011 -1.945518
v 0.617772 0.390637 -1.918712
v 0.599778 0.398090 -1.891905
v 0.570664 0.410150 -1.902144
v 0.570664 0.410150 -1.935279
v 0.599778 0.398090 -1.945518
v 0.632178 0.463060 -1.918712
v 0.612701 0.463060 -1.891905
v 0.581188 0.463060 -1.902144
v 0.581188 0.463060 -1.935279
v 0.612701 0.463060 -1.945518
v 0.617772 0.535483 -1.918712
v 0.599778 0.528030 -1.891905
v 0.570664 0.515970 -1.902144
v 0.570664 0.515970 -1.935279
v 0.599778 0.528030 -1.945518
v 0.576747 0.596880 -1.918712
v 0.562976 0.583109 -1.891905
v 0.540692 0.560826 -1.902144
v 0.540692 0.560826 -1.935279
v 0.562976 0.583109 -1.945518
v 0.515350 0.637905 -1.918712
v 0.507897 0.619911 -1.891905
v 0.495837 0.590797 -1.902144
v 0.495837 0.590797 -1.935279
v 0.507897 0.619911 -1.945518
v 0.442927 0.652311 -1.918712
v 0.442927 0.632834 -1.891905
v 0.442927 0.601321 -1.902144
v 0.442927 0.601321 -1.935279
v 0.442927 0.632834 -1.945518
v 0.370504 0.637905 -1.918712
v 0.377957 0.619911 -1.891905
v 0.390017 0.590797 -1.902144
v 0.390017 0.590797 -1.935279
v 0.377957 0.619911 -1.945518
v 0.309107 0.596880 -1.918712
v 0.322878 0.583109 -1.891905
v 0.345162 0.560826 -1.902144
v 0.345162 0.560826 -1.935279
v 0.322878 0.583109 -1.945518
v 0.268082 0.535483 -1.918712
v 0.286076 0.528030 -1.891905
v 0.315190 0.515970 -1.902144
v 0.315190 0.515970 -1.935279
v 0.286076 0.528030 -1.945518
v 0.253676 0.463060 -1.918712
v 0.273153 0.463060 -1.891905
v 0.304666 0.463060 -1.902144
v 0.304666 0.463060 -1.935279
v 0.273153 0.463060 -1.945518
v 0.268082 0.390637 -1.918712
v 0.286076 0.398090 -1.891905
v 0.315190 0.410150 -1.902144
v 0.315190 0.410150 -1.935279
v 0.286076 0.398090 -1.945518
v 0.309107 0.329240 -1.918712
v 0.322878 0.343011 -1.891905
v 0.345162 0.365295 -1.902144
v 0.345162 0.365295 -1.935279
v 0.322878 0.343011 -1.945518
v 0.370504 0.288215 -1.918712
v 0.377957 0.306209 -1.891905
v 0.390017 0.335323 -1.902144
v 0.390017 0.335323 -1.935279
v 0.377957 0.306209 -1.945518
v 0.442927 0.463060 -2.265000
v 0.547706 0.358282 -2.265000
v 0.442927 0.314881 -2.265000
v 0.591106 0.463060 -2.265000
v 0.547706 0.567839 -2.265000
v 0.442927 0.611239 -2.265000
v 0.338148 0.567839 -2.265000
v 0.294748 0.463060 -2.265000
v 0.338148 0.358282 -2.265000
v 0.547706 0.358282 -2.184468
v 0.442927 0.314881 -2.184468
v 0.591106 0.463060 -2.184468
v 0.547706 0.567839 -2.184468
v 0.442927 0.611239 -2.184468
v 0.338148 0.567839 -2.184468
v 0.294748 0.463060 -2.184468
v 0.338148 0.358282 -2.184468
v 0.442927 0.463060 -2.184468
v 0.040266 0.503326 -2.079776
v 0.288574 0.241597 -1.704013
vt 0.968750 0.531250
vt 0.843750 0.656250
vt 0.968750 0.656250
vt 0.968750 0.382812
vt 0.875000 0.476562
vt 0.968750 0.476562
vt 0.539062 0.234375
vt 0.572208 0.206754
vt 0.539062 0.195312
vt 0.585938 0.234375
vt 0.572208 0.261996
vt 0.539062 0.273438
vt 0.505917 0.261996
vt 0.492188 0.234375
vt 0.505917 0.206754
vt 0.589844 0.664062
vt 0.614703 0.664062
vt 0.614703 0.992188
vt 0.589844 0.992188
vt 0.492188 0.308316
vt 0.492188 0.335938
vt 0.867188 0.335938
vt 0.867188 0.308316
vt 0.492188 0.363559
vt 0.867188 0.363559
vt 0.564985 0.664062
vt 0.564985 0.992188
vt 0.062730 0.261996
vt 0.007812 0.234375
vt 0.062730 0.206754
vt 0.437500 0.195312
vt 0.470646 0.206754
vt 0.437500 0.234375
vt 0.484375 0.234375
vt 0.470646 0.261996
vt 0.437500 0.273438
vt 0.404354 0.261996
vt 0.390625 0.234375
vt 0.404354 0.206754
vt 0.843750 0.531250
vt 0.968750 0.531250
vt 0.968750 0.656250
vt 0.843750 0.656250
vt 0.968750 0.531250
vt 0.843750 0.531250
vt 0.843750 0.656250
vt 0.968750 0.656250
vt 0.843750 0.656250
vt 0.968750 0.656250
vt 0.968750 0.531250
vt 0.843750 0.531250
vt 0.843750 0.531250
vt 0.968750 0.531250
vt 0.968750 0.656250
vt 0.843750 0.656250
vt 0.718750 0.242188
vt 0.766585 0.242188
vt 0.761663 0.273438
vt 0.718750 0.273438
vt 0.515625 0.103171
vt 0.558538 0.104237
vt 0.550572 0.106641
vt 0.515625 0.105772
vt 0.718750 0.261501
vt 0.753697 0.261501
vt 0.753697 0.222874
vt 0.718750 0.222874
vt 0.515625 0.105772
vt 0.550572 0.106641
vt 0.558538 0.104237
vt 0.515625 0.103171
vt 0.718750 0.210938
vt 0.761663 0.210938
vt 0.807138 0.242188
vt 0.798042 0.273438
vt 0.594917 0.107276
vt 0.580199 0.109116
vt 0.783324 0.261501
vt 0.783324 0.222874
vt 0.580199 0.109116
vt 0.594917 0.107276
vt 0.798042 0.210938
vt 0.515625 0.106139
vt 0.515625 0.111208
vt 0.640625 0.111823
vt 0.640625 0.107276
vt 0.619225 0.111823
vt 0.599995 0.112819
vt 0.592879 0.109116
vt 0.592879 0.112819
vt 0.438371 0.112819
vt 0.438371 0.109116
vt 0.599995 0.112819
vt 0.619225 0.111823
vt 0.390625 0.107276
vt 0.390625 0.111823
vt 0.515625 0.117188
vt 0.640625 0.117188
vt 0.627761 0.117188
vt 0.606946 0.117188
vt 0.592879 0.117188
vt 0.438371 0.117188
vt 0.606946 0.117188
vt 0.627761 0.117188
vt 0.390625 0.117188
vt 0.515625 0.123167
vt 0.640625 0.122552
vt 0.619225 0.122552
vt 0.599995 0.121556
vt 0.592879 0.121556
vt 0.438371 0.121556
vt 0.599995 0.121556
vt 0.619225 0.122552
vt 0.390625 0.122552
vt 0.515625 0.128236
vt 0.640625 0.127099
vt 0.594917 0.127099
vt 0.580199 0.125259
vt 0.592879 0.125259
vt 0.438371 0.125259
vt 0.580199 0.125259
vt 0.594917 0.127099
vt 0.390625 0.127099
vt 0.558538 0.130138
vt 0.550572 0.127734
vt 0.550572 0.127734
vt 0.558538 0.130138
vt 0.515625 0.131204
vt 0.515625 0.128603
vt 0.515625 0.128603
vt 0.515625 0.131204
vt 0.670915 0.242188
vt 0.675837 0.273438
vt 0.472712 0.130138
vt 0.480678 0.127734
vt 0.683803 0.261501
vt 0.683803 0.222874
vt 0.480678 0.127734
vt 0.472712 0.130138
vt 0.675837 0.210938
vt 0.630362 0.242188
vt 0.639458 0.273438
vt 0.436333 0.127099
vt 0.451051 0.125259
vt 0.654176 0.261501
vt 0.654176 0.222874
vt 0.451051 0.125259
vt 0.436333 0.127099
vt 0.639458 0.210938
vt 0.412025 0.122552
vt 0.431255 0.121556
vt 0.431255 0.121556
vt 0.412025 0.122552
vt 0.403489 0.117188
vt 0.424304 0.117188
vt 0.424304 0.117188
vt 0.403489 0.117188
vt 0.412025 0.111823
vt 0.431255 0.112819
vt 0.431255 0.112819
vt 0.412025 0.111823
vt 0.436333 0.107276
vt 0.451051 0.109116
vt 0.451051 0.109116
vt 0.436333 0.107276
vt 0.472712 0.104237
vt 0.480678 0.106641
vt 0.480678 0.106641
vt 0.472712 0.104237
vt 0.054687 0.328125
vt 0.087833 0.294979
vt 0.054687 0.281250
vt 0.101562 0.328125
vt 0.087833 0.361271
vt 0.054687 0.375000
vt 0.021542 0.361271
vt 0.007812 0.328125
vt 0.021542 0.294979
vt 0.054687 0.281250
vt 0.087833 0.281250
vt 0.087833 0.375000
vt 0.054687 0.375000
vt 0.007812 0.294979
vt 0.007812 0.328125
vt 0.101562 0.328125
vt 0.101562 0.294979
vt 0.007812 0.361271
vt 0.101562 0.361271
vt 0.021542 0.281250
vt 0.021542 0.375000
vt 0.054687 0.281250
vt 0.087833 0.294979
vt 0.054687 0.328125
vt 0.101562 0.328125
vt 0.087833 0.361271
vt 0.054687 0.375000
vt 0.021542 0.361271
vt 0.007812 0.328125
vt 0.021542 0.294979
vt 0.646667 0.646667
vt 0.060000 0.940000
vt 0.940000 0.060000
vt 0.940000 0.940000
vt 0.646667 0.646667
vt 0.940000 0.060000
vt 0.940000 0.940000
vt 0.060000 0.940000
vn 0.000000 0.000000 -1.000000
vn 0.000000 0.000000 -1.000000
vn 0.000000 0.000000 -1.000000
vn 0.382683 -0.923880 0.000000
vn 0.923880 -0.382683 0.000000
vn 0.923880 0.382683 0.000000
vn 0.382683 0.923880 0.000000
vn -0.382683 0.923880 -0.000000
vn -0.923880 0.382683 -0.000000
vn -0.923880 -0.382683 0.000000
vn -0.382683 -0.923880 0.000000
vn 0.000000 0.000000 1.000000
vn 0.000000 0.000000 1.000000
vn 0.000000 0.000000 -1.000000
vn -0.000000 1.000000 0.000000
vn 0.000000 -1.000000 0.000000
vn -1.000000 0.000000 0.000000
vn 1.000000 0.000000 0.000000
vn 0.158879 -0.798741 0.580319
vn -0.061352 0.308435 0.949265
vn -0.195090 0.980785 0.000000
vn -0.061352 0.308435 -0.949265
vn 0.158879 -0.798741 -0.580319
vn 0.452450 -0.677140 0.580319
vn -0.174714 0.261478 0.949265
vn -0.555570 0.831470 0.000000
vn -0.174714 0.261478 -0.949265
vn 0.452450 -0.677140 -0.580319
vn 0.677140 -0.452450 0.580319
vn -0.261478 0.174714 0.949265
vn -0.831470 0.555570 0.000000
vn -0.261478 0.174714 -0.949265
vn 0.677140 -0.452450 -0.580319
vn 0.798741 -0.158879 0.580319
vn -0.308435 0.061352 0.949265
vn -0.980785 0.195090 0.000000
vn -0.308435 0.061352 -0.949265
vn 0.798741 -0.158879 -0.580319
vn 0.798741 0.158879 0.580319
vn -0.308435 -0.061352 0.949265
vn -0.980785 -0.195090 0.000000
vn -0.308435 -0.061352 -0.949265
vn 0.798741 0.158879 -0.580319
vn 0.677140 0.452450 0.580319
vn -0.261478 -0.174714 0.949265
vn -0.831470 -0.555570 0.000000
vn -0.261478 -0.174714 -0.949265
vn 0.677140 0.452450 -0.580319
vn 0.452450 0.677140 0.580319
vn -0.174714 -0.261478 0.949265
vn -0.555570 -0.831470 0.000000
vn -0.174714 -0.261478 -0.949265
vn 0.452450 0.677140 -0.580319
vn 0.158879 0.798741 0.580319
vn -0.061352 -0.308435 0.949265
vn -0.195090 -0.980785 0.000000
vn -0.061352 -0.308435 -0.949265
vn 0.158879 0.798741 -0.580319
vn -0.158879 0.798741 0.580319
vn 0.061352 -0.308435 0.949265
vn 0.195090 -0.980785 0.000000
vn 0.061352 -0.308435 -0.949265
vn -0.158879 0.798741 -0.580319
vn -0.452450 0.677140 0.580319
vn 0.174714 -0.261478 0.949265
vn 0.555570 -0.831470 0.000000
vn 0.174714 -0.261478 -0.949265
vn -0.452450 0.677140 -0.580319
vn -0.677140 0.452450 0.580319
vn 0.261478 -0.174714 0.949265
vn 0.831470 -0.555570 0.000000
vn 0.261478 -0.174714 -0.949265
vn -0.677140 0.452450 -0.580319
vn -0.798741 0.158879 0.580319
vn 0.308435 -0.061352 0.949265
vn 0.980785 -0.195090 0.000000
vn 0.308435 -0.061352 -0.949265
vn -0.798741 0.158879 -0.580319
vn -0.798741 -0.158879 0.580319
vn 0.308435 0.061352 0.949265
vn 0.980785 0.195090 0.000000
vn 0.308435 0.061352 -0.949265
vn -0.798741 -0.158879 -0.580319
vn -0.677140 -0.452450 0.580319
vn 0.261478 0.174714 0.949265
vn 0.831470 0.555570 0.000000
vn 0.261478 0.174714 -0.949265
vn -0.677140 -0.452450 -0.580319
vn -0.452450 -0.677140 0.580319
vn 0.174714 0.261478 0.949265
vn 0.555570 0.831470 0.000000
vn 0.174714 0.261478 -0.949265
vn -0.452450 -0.677140 -0.580319
vn -0.158879 -0.798741 0.580319
vn 0.061352 0.308435 0.949265
vn 0.195090 0.980785 0.000000
vn 0.061352 0.308435 -0.949265
vn -0.158879 -0.798741 -0.580319
vn 0.000000 0.000000 -1.000000
vn 0.382683 -0.923880 0.000000
vn 0.923880 -0.382683 0.000000
vn 0.923880 0.382683 0.000000
vn 0.382683 0.923880 0.000000
vn -0.382683 0.923880 0.000000
vn -0.923880 0.382683 -0.000000
vn -0.923880 -0.382683 0.000000
vn -0.382683 -0.923880 0.000000
vn 0.000000 0.000000 1.000000
vn 0.000000 1.000000 0.000000
vn 0.000000 -1.000000 0.000000
vn 0.000000 1.000000 0.000000
vn 0.000000 -1.000000 0.000000
usemtl skin
f 1/1/1 2/2/1 3/3/1
f 4/4/2 5/5/2 6/6/2
f 7/7/3 8/8/3 9/9/3
f 7/7/3 10/10/3 8/8/3
f 7/7/3 11/11/3 10/10/3
f 7/7/3 12/12/3 11/11/3
f 7/7/3 13/13/3 12/12/3
f 7/7/3 14/14/3 13/13/3
f 7/7/3 15/15/3 14/14/3
f 7/7/3 9/9/3 15/15/3
f 9/16/4 8/17/4 16/18/4
f 9/16/4 16/18/4 17/19/4
f 8/20/5 10/21/5 18/22/5
f 8/20/5 18/22/5 16/23/5
f 10/21/6 11/24/6 19/25/6
f 10/21/6 19/25/6 18/22/6
f 11/17/7 12/16/7 20/19/7
f 11/17/7 20/19/7 19/18/7
f 12/16/8 13/26/8 21/27/8
f 12/16/8 21/27/8 20/19/8
f 13/28/9 14/29/9 22/29/9
f 13/28/9 22/29/9 21/28/9
f 14/29/10 15/30/10 23/30/10
f 14/29/10 23/30/10 22/29/10
f 15/26/11 9/16/11 17/19/11
f 15/26/11 17/19/11 23/27/11
f 17/31/12 16/32/12 24/33/12
f 16/32/12 18/34/12 24/33/12
f 18/34/12 19/35/12 24/33/12
f 19/35/12 20/36/12 24/33/12
f 20/36/12 21/37/12 24/33/12
f 21/37/12 22/38/12 24/33/12
f 22/38/12 23/39/12 24/33/12
f 23/39/12 17/31/12 24/33/12
f 25/40/13 26/41/13 27/42/13
f 25/40/13 27/42/13 28/43/13
f 29/44/14 30/45/14 31/46/14
f 29/44/14 31/46/14 32/47/14
f 28/48/15 27/49/15 32/50/15
f 28/48/15 32/50/15 31/51/15
f 30/51/16 29/50/16 26/49/16
f 30/51/16 26/49/16 25/48/16
f 30/52/17 25/53/17 28/54/17
f 30/52/17 28/54/17 31/55/17
f 26/53/18 29/52/18 32/55/18
f 26/53/18 32/55/18 27/54/18
f 33/56/19 34/57/19 35/58/19
f 33/56/19 35/58/19 36/59/19
f 36/60/20 35/61/20 37/62/20
f 36/60/20 37/62/20 38/63/20
f 38/64/21 37/65/21 39/66/21
f 38/64/21 39/66/21 40/67/21
f 40/68/22 39/69/22 41/70/22
f 40/68/22 41/70/22 42/71/22
f 42/72/23 41/73/23 34/57/23
f 42/72/23 34/57/23 33/56/23
f 34/57/24 43/74/24 44/75/24
f 34/57/24 44/75/24 35/58/24
f 35/61/25 44/76/25 45/77/25
f 35/61/25 45/77/25 37/62/25
f 37/65/26 45/78/26 46/79/26
f 37/65/26 46/79/26 39/66/26
f 39/69/27 46/80/27 47/81/27
f 39/69/27 47/81/27 41/70/27
f 41/73/28 47/82/28 43/74/28
f 41/73/28 43/74/28 34/57/28
f 43/83/29 48/84/29 49/85/29
f 43/83/29 49/85/29 44/86/29
f 44/76/30 49/87/30 50/88/30
f 44/76/30 50/88/30 45/77/30
f 45/89/31 50/90/31 51/91/31
f 45/89/31 51/91/31 46/92/31
f 46/80/32 51/93/32 52/94/32
f 46/80/32 52/94/32 47/81/32
f 47/95/33 52/96/33 48/84/33
f 47/95/33 48/84/33 43/83/33
f 48/84/34 53/97/34 54/98/34
f 48/84/34 54/98/34 49/85/34
f 49/87/35 54/99/35 55/100/35
f 49/87/35 55/100/35 50/88/35
f 50/90/36 55/101/36 56/102/36
f 50/90/36 56/102/36 51/91/36
f 51/93/37 56/103/37 57/104/37
f 51/93/37 57/104/37 52/94/37
f 52/96/38 57/105/38 53/97/38
f 52/96/38 53/97/38 48/84/38
f 53/97/39 58/106/39 59/107/39
f 53/97/39 59/107/39 54/98/39
f 54/99/40 59/108/40 60/109/40
f 54/99/40 60/109/40 55/100/40
f 55/101/41 60/110/41 61/111/41
f 55/101/41 61/111/41 56/102/41
f 56/103/42 61/112/42 62/113/42
f 56/103/42 62/113/42 57/104/42
f 57/105/43 62/114/43 58/106/43
f 57/105/43 58/106/43 53/97/43
f 58/106/44 63/115/44 64/116/44
f 58/106/44 64/116/44 59/107/44
f 59/108/45 64/117/45 65/118/45
f 59/108/45 65/118/45 60/109/45
f 60/110/46 65/119/46 66/120/46
f 60/110/46 66/120/46 61/111/46
f 61/112/47 66/121/47 67/122/47
f 61/112/47 67/122/47 62/113/47
f 62/114/48 67/123/48 63/115/48
f 62/114/48 63/115/48 58/106/48
f 63/74/49 68/57/49 69/58/49
f 63/74/49 69/58/49 64/75/49
f 64/117/50 69/124/50 70/125/50
f 64/117/50 70/125/50 65/118/50
f 65/78/51 70/65/51 71/66/51
f 65/78/51 71/66/51 66/79/51
f 66/121/52 71/126/52 72/127/52
f 66/121/52 72/127/52 67/122/52
f 67/82/53 72/73/53 68/57/53
f 67/82/53 68/57/53 63/74/53
f 68/57/54 73/56/54 74/59/54
f 68/57/54 74/59/54 69/58/54
f 69/124/55 74/128/55 75/129/55
f 69/124/55 75/129/55 70/125/55
f 70/65/56 75/64/56 76/67/56
f 70/65/56 76/67/56 71/66/56
f 71/126/57 76/130/57 77/131/57
f 71/126/57 77/131/57 72/127/57
f 72/73/58 77/72/58 73/56/58
f 72/73/58 73/56/58 68/57/58
f 73/56/59 78/132/59 79/133/59
f 73/56/59 79/133/59 74/59/59
f 74/128/60 79/134/60 80/135/60
f 74/128/60 80/135/60 75/129/60
f 75/64/61 80/136/61 81/137/61
f 75/64/61 81/137/61 76/67/61
f 76/130/62 81/138/62 82/139/62
f 76/130/62 82/139/62 77/131/62
f 77/72/63 82/140/63 78/132/63
f 77/72/63 78/132/63 73/56/63
f 78/132/64 83/141/64 84/142/64
f 78/132/64 84/142/64 79/133/64
f 79/134/65 84/143/65 85/144/65
f 79/134/65 85/144/65 80/135/65
f 80/136/66 85/145/66 86/146/66
f 80/136/66 86/146/66 81/137/66
f 81/138/67 86/147/67 87/148/67
f 81/138/67 87/148/67 82/139/67
f 82/140/68 87/149/68 83/141/68
f 82/140/68 83/141/68 78/132/68
f 83/115/69 88/106/69 89/107/69
f 83/115/69 89/107/69 84/116/69
f 84/143/70 89/150/70 90/151/70
f 84/143/70 90/151/70 85/144/70
f 85/119/71 90/110/71 91/111/71
f 85/119/71 91/111/71 86/120/71
f 86/147/72 91/152/72 92/153/72
f 86/147/72 92/153/72 87/148/72
f 87/123/73 92/114/73 88/106/73
f 87/123/73 88/106/73 83/115/73
f 88/106/74 93/97/74 94/98/74
f 88/106/74 94/98/74 89/107/74
f 89/150/75 94/154/75 95/155/75
f 89/150/75 95/155/75 90/151/75
f 90/110/76 95/101/76 96/102/76
f 90/110/76 96/102/76 91/111/76
f 91/152/77 96/156/77 97/157/77
f 91/152/77 97/157/77 92/153/77
f 92/114/78 97/105/78 93/97/78
f 92/114/78 93/97/78 88/106/78
f 93/97/79 98/84/79 99/85/79
f 93/97/79 99/85/79 94/98/79
f 94/154/80 99/158/80 100/159/80
f 94/154/80 100/159/80 95/155/80
f 95/101/81 100/90/81 101/91/81
f 95/101/81 101/91/81 96/102/81
f 96/156/82 101/160/82 102/161/82
f 96/156/82 102/161/82 97/157/82
f 97/105/83 102/96/83 98/84/83
f 97/105/83 98/84/83 93/97/83
f 98/84/84 103/83/84 104/86/84
f 98/84/84 104/86/84 99/85/84
f 99/158/85 104/162/85 105/163/85
f 99/158/85 105/163/85 100/159/85
f 100/90/86 105/89/86 106/92/86
f 100/90/86 106/92/86 101/91/86
f 101/160/87 106/164/87 107/165/87
f 101/160/87 107/165/87 102/161/87
f 102/96/88 107/95/88 103/83/88
f 102/96/88 103/83/88 98/84/88
f 103/141/89 108/132/89 109/133/89
f 103/141/89 109/133/89 104/142/89
f 104/162/90 109/166/90 110/167/90
f 104/162/90 110/167/90 105/163/90
f 105/145/91 110/136/91 111/137/91
f 105/145/91 111/137/91 106/146/91
f 106/164/92 111/168/92 112/169/92
f 106/164/92 112/169/92 107/165/92
f 107/149/93 112/140/93 108/132/93
f 107/149/93 108/132/93 103/141/93
f 108/132/94 33/56/94 36/59/94
f 108/132/94 36/59/94 109/133/94
f 109/166/95 36/60/95 38/63/95
f 109/166/95 38/63/95 110/167/95
f 110/136/96 38/64/96 40/67/96
f 110/136/96 40/67/96 111/137/96
f 111/168/97 40/68/97 42/71/97
f 111/168/97 42/71/97 112/169/97
f 112/140/98 42/72/98 33/56/98
f 112/140/98 33/56/98 108/132/98
f 113/170/99 114/171/99 115/172/99
f 113/170/99 116/173/99 114/171/99
f 113/170/99 117/174/99 116/173/99
f 113/170/99 118/175/99 117/174/99
f 113/170/99 119/176/99 118/175/99
f 113/170/99 120/177/99 119/176/99
f 113/170/99 121/178/99 120/177/99
f 113/170/99 115/172/99 121/178/99
f 115/179/100 114/180/100 122/181/100
f 115/179/100 122/181/100 123/182/100
f 114/183/101 116/184/101 124/185/101
f 114/183/101 124/185/101 122/186/101
f 116/184/102 117/187/102 125/188/102
f 116/184/102 125/188/102 124/185/102
f 117/180/103 118/179/103 126/182/103
f 117/180/103 126/182/103 125/181/103
f 118/179/104 119/189/104 127/190/104
f 118/179/104 127/190/104 126/182/104
f 119/187/105 120/184/105 128/185/105
f 119/187/105 128/185/105 127/188/105
f 120/184/106 121/183/106 129/186/106
f 120/184/106 129/186/106 128/185/106
f 121/189/107 115/179/107 123/182/107
f 121/189/107 123/182/107 129/190/107
f 123/191/108 122/192/108 130/193/108
f 122/192/108 124/194/108 130/193/108
f 124/194/108 125/195/108 130/193/108
f 125/195/108 126/196/108 130/193/108
f 126/196/108 127/197/108 130/193/108
f 127/197/108 128/198/108 130/193/108
f 128/198/108 129/199/108 130/193/108
f 129/199/108 123/191/108 130/193/108
usemtl interior
f 131/200/109 1/201/109 2/202/109
f 131/200/110 2/202/110 1/201/110
f 131/200/109 2/202/109 3/203/109
f 131/200/110 3/203/110 2/202/110
f 131/200/109 3/203/109 1/201/109
f 131/200/110 1/201/110 3/203/110
f 132/204/111 4/205/111 6/206/111
f 132/204/112 6/206/112 4/205/112
f 132/204/111 6/206/111 5/207/111
f 132/204/112 5/207/112 6/206/112
f 132/204/111 5/207/111 4/205/111
f 132/204/112 4/205/112 5/207/112
