# Bloom light cruiser, from tools/gen_fleet.py
# Generated by tools. Edit the generator script.
v 0.170715 0.191330 0.482496
v 0.352529 0.242267 1.048808
v 0.170715 0.242267 1.111055
v 0.498333 0.242267 0.874396
v 0.579248 0.242267 0.622363
v 0.579248 0.242267 0.342628
v 0.498333 0.242267 0.090596
v 0.352529 0.242267 -0.083816
v 0.170715 0.242267 -0.146063
v -0.011100 0.242267 -0.083816
v -0.156903 0.242267 0.090596
v -0.237818 0.242267 0.342628
v -0.237818 0.242267 0.622363
v -0.156903 0.242267 0.874396
v -0.011100 0.242267 1.048808
v 0.506664 0.387324 1.528904
v 0.170715 0.387324 1.643922
v 0.776074 0.387324 1.206633
v 0.925586 0.387324 0.740937
v 0.925586 0.387324 0.224054
v 0.776074 0.387324 -0.241641
v 0.506664 0.387324 -0.563913
v 0.170715 0.387324 -0.678930
v -0.165234 0.387324 -0.563913
v -0.434645 0.387324 -0.241641
v -0.584156 0.387324 0.224054
v -0.584156 0.387324 0.740937
v -0.434645 0.387324 1.206633
v -0.165234 0.387324 1.528904
v 0.609654 0.604418 1.849694
v 0.170715 0.604418 1.999972
v 0.961655 0.604418 1.428627
v 1.157001 0.604418 0.820166
v 1.157001 0.604418 0.144826
v 0.961655 0.604418 -0.463635
v 0.609654 0.604418 -0.884703
v 0.170715 0.604418 -1.034980
v -0.268224 0.604418 -0.884703
v -0.620226 0.604418 -0.463635
v -0.815572 0.604418 0.144826
v -0.815572 0.604418 0.820166
v -0.620226 0.604418 1.428627
v -0.268224 0.604418 1.849694
v 0.645819 0.860498 1.962341
v 0.170715 0.860498 2.125000
v 1.026822 0.860498 1.506580
v 1.238264 0.860498 0.847987
v 1.238264 0.860498 0.117004
v 1.026822 0.860498 -0.541589
v 0.645819 0.860498 -0.997349
v 0.170715 0.860498 -1.160008
v -0.304389 0.860498 -0.997349
v -0.685393 0.860498 -0.541589
v -0.896834 0.860498 0.117004
v -0.896834 0.860498 0.847987
v -0.685393 0.860498 1.506580
v -0.304389 0.860498 1.962341
v 0.609654 1.116578 1.849694
v 0.170715 1.116578 1.999972
v 0.961655 1.116578 1.428627
v 1.157001 1.116578 0.820166
v 1.157001 1.116578 0.144826
v 0.961655 1.116578 -0.463635
v 0.609654 1.116578 -0.884703
v 0.170715 1.116578 -1.034980
v -0.268224 1.116578 -0.884703
v -0.620226 1.116578 -0.463635
v -0.815572 1.116578 0.144826
v -0.815572 1.116578 0.820166
v -0.620226 1.116578 1.428627
v -0.268224 1.116578 1.849694
v 0.506664 1.333671 1.528904
v 0.170715 1.333671 1.643922
v 0.776074 1.333671 1.206633
v 0.925586 1.333671 0.740937
v 0.925586 1.333671 0.224054
v 0.776074 1.333671 -0.241641
v 0.506664 1.333671 -0.563913
v 0.170715 1.333671 -0.678930
v -0.165234 1.333671 -0.563913
v -0.434645 1.333671 -0.241641
v -0.584156 1.333671 0.224054
v -0.584156 1.333671 0.740937
v -0.434645 1.333671 1.206633
v -0.165234 1.333671 1.528904
v 0.352529 1.478729 1.048808
v 0.170715 1.478729 1.111055
v 0.498333 1.478729 0.874396
v 0.579248 1.478729 0.622363
v 0.579248 1.478729 0.342628
v 0.498333 1.478729 0.090596
v 0.352529 1.478729 -0.083816
v 0.170715 1.478729 -0.146063
v -0.011100 1.478729 -0.083816
v -0.156903 1.478729 0.090596
v -0.237818 1.478729 0.342628
v -0.237818 1.478729 0.622363
v -0.156903 1.478729 0.874396
v -0.011100 1.478729 1.048808
v 0.170715 1.529666 0.482496
v -0.236605 0.000000 0.183077
v -0.200110 0.072411 0.481526
v -0.378477 0.072411 0.454100
v -0.035682 0.072411 0.394954
v 0.052000 0.072411 0.227453
v 0.029445 0.072411 0.043002
v -0.094732 0.072411 -0.087946
v -0.273100 0.072411 -0.115372
v -0.437528 0.072411 -0.028801
v -0.525210 0.072411 0.138701
v -0.502655 0.072411 0.323152
v -0.177554 0.261984 0.665977
v -0.466159 0.261984 0.621601
v 0.088496 0.261984 0.525902
v 0.230368 0.261984 0.254879
v 0.193873 0.261984 -0.043569
v -0.007050 0.261984 -0.255447
v -0.295655 0.261984 -0.299823
v -0.561705 0.261984 -0.159748
v -0.703578 0.261984 0.111275
v -0.667082 0.261984 0.409723
v -0.177554 0.496310 0.665977
v -0.466159 0.496310 0.621601
v 0.088496 0.496310 0.525902
v 0.230368 0.496310 0.254879
v 0.193873 0.496310 -0.043569
v -0.007050 0.496310 -0.255447
v -0.295655 0.496310 -0.299823
v -0.561705 0.496310 -0.159748
v -0.703578 0.496310 0.111275
v -0.667082 0.496310 0.409723
v -0.200110 0.685884 0.481526
v -0.378477 0.685884 0.454100
v -0.035682 0.685884 0.394954
v 0.052000 0.685884 0.227453
v 0.029445 0.685884 0.043002
v -0.094732 0.685884 -0.087946
v -0.273100 0.685884 -0.115372
v -0.437528 0.685884 -0.028801
v -0.525210 0.685884 0.138701
v -0.502655 0.685884 0.323152
v -0.236605 0.758295 0.183077
v 0.202419 0.212131 0.305843
v 0.265215 0.274511 0.353461
v 0.207561 0.270102 0.404199
v 0.163158 0.225992 0.370528
v 0.241314 0.371579 0.363896
v 0.190661 0.338739 0.411578
v 0.154617 0.406266 0.326713
v 0.129356 0.363267 0.385285
v 0.091820 0.343885 0.279094
v 0.084952 0.319157 0.351614
v 0.115721 0.246818 0.268659
v 0.101853 0.250520 0.344235
v 0.132894 0.288595 0.403434
v 0.141769 0.172634 0.317930
v 0.175872 0.200399 0.352054
v 0.145151 0.188559 0.379092
v 0.121037 0.168926 0.354962
v 0.160399 0.249667 0.372829
v 0.134210 0.223397 0.393782
v 0.110823 0.271170 0.359480
v 0.099154 0.238602 0.384343
v 0.076720 0.243405 0.325355
v 0.075040 0.218969 0.360213
v 0.092193 0.194137 0.304580
v 0.085981 0.184131 0.345523
v 0.103385 0.196252 0.382471
v 0.112082 0.098576 0.205902
v 0.133367 0.130122 0.252259
v 0.102957 0.102959 0.273343
v 0.087906 0.080653 0.240564
v 0.098570 0.170745 0.279391
v 0.078352 0.131684 0.292529
v 0.042488 0.179822 0.260166
v 0.038696 0.138102 0.278934
v 0.021203 0.148276 0.213809
v 0.023645 0.115796 0.246155
v 0.056000 0.107653 0.186677
v 0.048250 0.087071 0.226970
v 0.057508 0.097025 0.270815
v -0.751554 0.452115 0.169940
v -0.612844 0.543882 0.407283
v -0.776085 0.543882 0.445890
v -0.502586 0.543882 0.278019
v -0.487425 0.543882 0.107473
v -0.573152 0.543882 -0.039213
v -0.727023 0.543882 -0.106010
v -0.890264 0.543882 -0.067403
v -1.000523 0.543882 0.061860
v -1.015684 0.543882 0.232407
v -0.929956 0.543882 0.379093
v -0.527117 0.784130 0.553969
v -0.791246 0.784130 0.616436
v -0.348715 0.784130 0.344816
v -0.324184 0.784130 0.068866
v -0.462894 0.784130 -0.168477
v -0.711862 0.784130 -0.276556
v -0.975992 0.784130 -0.214090
v -1.154394 0.784130 -0.004937
v -1.178925 0.784130 0.271013
v -1.040215 0.784130 0.508357
v -0.527117 1.081093 0.553969
v -0.791246 1.081093 0.616436
v -0.348715 1.081093 0.344816
v -0.324184 1.081093 0.068866
v -0.462894 1.081093 -0.168477
v -0.711862 1.081093 -0.276556
v -0.975992 1.081093 -0.214090
v -1.154394 1.081093 -0.004937
v -1.178925 1.081093 0.271013
v -1.040215 1.081093 0.508357
v -0.612844 1.321341 0.407283
v -0.776085 1.321341 0.445890
v -0.502586 1.321341 0.278019
v -0.487425 1.321341 0.107473
v -0.573152 1.321341 -0.039213
v -0.727023 1.321341 -0.106010
v -0.890264 1.321341 -0.067403
v -1.000523 1.321341 0.061860
v -1.015684 1.321341 0.232407
v -0.929956 1.321341 0.379093
v -0.751554 1.413107 0.169940
v -0.849615 1.264044 -0.103237
v -0.894885 1.279386 -0.123191
v -0.896842 1.295208 -0.086895
v -0.864832 1.284360 -0.072785
v -0.939143 1.258849 -0.105801
v -0.928137 1.280687 -0.074598
v -0.938130 1.222970 -0.068456
v -0.927422 1.255317 -0.048191
v -0.892860 1.207629 -0.048501
v -0.895411 1.244469 -0.034081
v -0.848602 1.228166 -0.065892
v -0.864116 1.258990 -0.046378
v -0.897060 1.280745 -0.049984
v -0.819172 1.299341 0.387638
v -0.773565 1.267397 0.446330
v -0.765884 1.327912 0.456965
v -0.798133 1.350499 0.415463
v -0.692977 1.273619 0.442853
v -0.708899 1.332311 0.454506
v -0.657997 1.311783 0.380683
v -0.684165 1.359297 0.410546
v -0.703605 1.343726 0.321991
v -0.716414 1.381884 0.369044
v -0.784192 1.337505 0.325469
v -0.773398 1.377485 0.371503
v -0.742211 1.375334 0.424952
v -0.707650 0.498643 0.101024
v -0.667808 0.500057 0.163745
v -0.689668 0.447589 0.165917
v -0.717840 0.446589 0.121567
v -0.702219 0.501703 0.229596
v -0.713999 0.448753 0.212481
v -0.776470 0.501935 0.232727
v -0.766503 0.448917 0.214695
v -0.816312 0.500522 0.170007
v -0.794675 0.447918 0.170345
v -0.781901 0.498875 0.104155
v -0.770344 0.446754 0.123781
v -0.742218 0.425992 0.168651
v -0.568018 0.617745 -0.374264
v -0.434682 0.726301 0.093866
v -0.690693 0.726301 0.135144
v -0.229601 0.726301 -0.126222
v -0.153783 0.726301 -0.441053
v -0.236189 0.726301 -0.730373
v -0.445343 0.726301 -0.883672
v -0.701354 0.726301 -0.842394
v -0.906435 0.726301 -0.622306
v -0.982252 0.726301 -0.307475
v -0.899846 0.726301 -0.018155
v -0.352276 1.010504 0.383186
v -0.766510 1.010504 0.449975
v -0.020447 1.010504 0.027077
v 0.102228 1.010504 -0.482331
v -0.031108 1.010504 -0.950461
v -0.369525 1.010504 -1.198503
v -0.783760 1.010504 -1.131714
v -1.115588 1.010504 -0.775605
v -1.238264 1.010504 -0.266197
v -1.104928 1.010504 0.201933
v -0.352276 1.361798 0.383186
v -0.766510 1.361798 0.449975
v -0.020447 1.361798 0.027077
v 0.102228 1.361798 -0.482331
v -0.031108 1.361798 -0.950461
v -0.369525 1.361798 -1.198503
v -0.783760 1.361798 -1.131714
v -1.115588 1.361798 -0.775605
v -1.238264 1.361798 -0.266197
v -1.104928 1.361798 0.201933
v -0.434682 1.646001 0.093866
v -0.690693 1.646001 0.135144
v -0.229601 1.646001 -0.126222
v -0.153783 1.646001 -0.441053
v -0.236189 1.646001 -0.730373
v -0.445343 1.646001 -0.883672
v -0.701354 1.646001 -0.842394
v -0.906435 1.646001 -0.622306
v -0.982252 1.646001 -0.307475
v -0.899846 1.646001 -0.018155
v -0.568018 1.754557 -0.374264
v -0.679801 1.450403 0.276449
v -0.626011 1.396601 0.326238
v -0.628376 1.453608 0.366079
v -0.666412 1.491652 0.330873
v -0.537515 1.415804 0.334402
v -0.565800 1.467186 0.371852
v -0.502809 1.488810 0.292777
v -0.541259 1.518809 0.342419
v -0.556598 1.542612 0.242988
v -0.579294 1.556853 0.307212
v -0.645095 1.523409 0.234824
v -0.641870 1.543275 0.301439
v -0.609026 1.519986 0.358198
v -1.071933 1.561254 -0.382021
v -1.132010 1.519960 -0.362804
v -1.121984 1.548419 -0.313621
v -1.079503 1.577618 -0.327209
v -1.124467 1.462735 -0.314306
v -1.116650 1.507955 -0.279328
v -1.056847 1.446803 -0.285026
v -1.068835 1.496689 -0.258623
v -0.996770 1.488097 -0.304243
v -1.026355 1.525888 -0.272212
v -1.004313 1.545322 -0.352741
v -1.031688 1.566352 -0.306505
v -1.078220 1.550874 -0.276096
v -0.670892 0.675994 -0.321085
v -0.661579 0.673919 -0.421994
v -0.637689 0.602490 -0.403410
v -0.644275 0.603957 -0.332057
v -0.569515 0.672621 -0.464376
v -0.572590 0.601572 -0.433379
v -0.486765 0.673397 -0.405848
v -0.514077 0.602121 -0.391994
v -0.496078 0.675472 -0.304940
v -0.520662 0.603588 -0.320641
v -0.588142 0.676770 -0.262558
v -0.585761 0.604506 -0.290672
v -0.579319 0.573358 -0.361429
v -0.597380 0.227321 -0.337382
v -0.506311 0.290504 -0.041540
v -0.667054 0.290504 -0.010551
v -0.380353 0.290504 -0.185530
v -0.337292 0.290504 -0.387522
v -0.393576 0.290504 -0.570363
v -0.527706 0.290504 -0.664212
v -0.688450 0.290504 -0.633224
v -0.814408 0.290504 -0.489234
v -0.857469 0.290504 -0.287242
v -0.801185 0.290504 -0.104401
v -0.450027 0.455919 0.141301
v -0.710115 0.455919 0.191441
v -0.246223 0.455919 -0.091680
v -0.176549 0.455919 -0.418510
v -0.267618 0.455919 -0.714352
v -0.484646 0.455919 -0.866205
v -0.744734 0.455919 -0.816064
v -0.948538 0.455919 -0.583084
v -1.018212 0.455919 -0.256253
v -0.927143 0.455919 0.039589
v -0.450027 0.660384 0.141301
v -0.710115 0.660384 0.191441
v -0.246223 0.660384 -0.091680
v -0.176549 0.660384 -0.418510
v -0.267618 0.660384 -0.714352
v -0.484646 0.660384 -0.866205
v -0.744734 0.660384 -0.816064
v -0.948538 0.660384 -0.583084
v -1.018212 0.660384 -0.256253
v -0.927143 0.660384 0.039589
v -0.506311 0.825799 -0.041540
v -0.667054 0.825799 -0.010551
v -0.380353 0.825799 -0.185530
v -0.337292 0.825799 -0.387522
v -0.393576 0.825799 -0.570363
v -0.527706 0.825799 -0.664212
v -0.688450 0.825799 -0.633224
v -0.814408 0.825799 -0.489234
v -0.857469 0.825799 -0.287242
v -0.801185 0.825799 -0.104401
v -0.597380 0.888982 -0.337382
v -0.593685 0.859555 -0.472187
v -0.657169 0.862991 -0.499824
v -0.657351 0.905894 -0.468606
v -0.612461 0.903464 -0.449064
v -0.712839 0.850505 -0.460444
v -0.696716 0.897065 -0.440760
v -0.705025 0.834584 -0.393427
v -0.691190 0.885806 -0.393372
v -0.641541 0.831148 -0.365790
v -0.646300 0.883377 -0.373830
v -0.585871 0.843633 -0.405170
v -0.606936 0.892206 -0.401676
v -0.652849 0.914338 -0.416418
v -0.534342 0.826782 -0.226356
v -0.453503 0.834540 -0.240501
v -0.472270 0.894648 -0.244437
v -0.529432 0.889162 -0.234435
v -0.426570 0.854576 -0.315791
v -0.453226 0.908815 -0.297675
v -0.480477 0.866852 -0.376935
v -0.491344 0.917496 -0.340911
v -0.561316 0.859094 -0.362790
v -0.548506 0.912010 -0.330909
v -0.588249 0.839059 -0.287500
v -0.567550 0.897843 -0.277671
v -0.511622 0.926736 -0.281885
v -1.015172 0.688262 -0.126840
v -1.054592 0.600351 -0.118401
v -1.041004 0.616646 -0.047486
v -1.013130 0.678809 -0.053453
v -0.999770 0.525075 -0.092292
v -1.002238 0.563419 -0.029024
v -0.905527 0.537711 -0.074622
v -0.935599 0.572354 -0.016530
v -0.866107 0.625623 -0.083061
v -0.907725 0.634516 -0.022497
v -0.920930 0.700898 -0.109170
v -0.946490 0.687744 -0.040958
v -0.980169 0.630798 -0.007761
v -0.196854 0.918908 0.678336
v -0.110723 1.001682 0.994211
v -0.295146 1.001682 1.007668
v 0.040801 1.001682 0.860101
v 0.101549 1.001682 0.656563
v 0.048317 1.001682 0.461342
v -0.098562 1.001682 0.349005
v -0.282985 1.001682 0.362462
v -0.434509 1.001682 0.496572
v -0.495257 1.001682 0.700110
v -0.442025 1.001682 0.895331
v -0.057491 1.218388 1.189432
v -0.355894 1.218388 1.211206
v 0.187680 1.218388 0.972438
v 0.285972 1.218388 0.643107
v 0.199841 1.218388 0.327232
v -0.037814 1.218388 0.145467
v -0.336217 1.218388 0.167240
v -0.581388 1.218388 0.384235
v -0.679680 1.218388 0.713566
v -0.593549 1.218388 1.029441
v -0.057491 1.486251 1.189432
v -0.355894 1.486251 1.211206
v 0.187680 1.486251 0.972438
v 0.285972 1.486251 0.643107
v 0.199841 1.486251 0.327232
v -0.037814 1.486251 0.145467
v -0.336217 1.486251 0.167240
v -0.581388 1.486251 0.384235
v -0.679680 1.486251 0.713566
v -0.593549 1.486251 1.029441
v -0.110723 1.702956 0.994211
v -0.295146 1.702956 1.007668
v 0.040801 1.702956 0.860101
v 0.101549 1.702956 0.656563
v 0.048317 1.702956 0.461342
v -0.098562 1.702956 0.349005
v -0.282985 1.702956 0.362462
v -0.434509 1.702956 0.496572
v -0.495257 1.702956 0.700110
v -0.442025 1.702956 0.895331
v -0.196854 1.785730 0.678336
v -0.107996 1.741946 0.593787
v -0.154926 1.751146 0.519655
v -0.169787 1.808751 0.551587
v -0.136603 1.802246 0.604006
v -0.242991 1.746709 0.522364
v -0.232059 1.805614 0.553502
v -0.284127 1.733073 0.599205
v -0.261146 1.795972 0.607837
v -0.237197 1.723873 0.673336
v -0.227962 1.789466 0.660256
v -0.149131 1.728309 0.670627
v -0.165690 1.792603 0.658340
v -0.200040 1.824624 0.609826
v 0.089718 1.067301 0.364836
v 0.059503 1.125778 0.412515
v 0.033242 1.075251 0.437554
v 0.054607 1.033901 0.403840
v -0.019261 1.145299 0.407934
v -0.022453 1.089054 0.434314
v -0.067811 1.106342 0.355673
v -0.056783 1.061507 0.397360
v -0.037596 1.047865 0.307994
v -0.035418 1.020157 0.363646
v 0.041169 1.028344 0.312575
v 0.020277 1.006354 0.366886
v -0.006076 1.031501 0.417312
v -0.018734 1.072324 0.343602
v -0.050727 1.105845 0.369440
v -0.063974 1.070107 0.383448
v -0.041351 1.046404 0.365178
v -0.102194 1.108439 0.356818
v -0.100366 1.071942 0.374523
v -0.121667 1.077513 0.318358
v -0.114136 1.050073 0.347328
v -0.089674 1.043991 0.292520
v -0.091514 1.026370 0.329058
v -0.038208 1.041397 0.305142
v -0.055121 1.024535 0.337983
v -0.080868 1.037187 0.366721
v 0.698543 0.636183 -2.114943
v 0.734345 0.614305 -2.110840
v 0.698543 0.594448 -2.120897
v 0.734345 0.656040 -2.104886
v 0.698543 0.677918 -2.108989
v 0.662740 0.658060 -2.119046
v 0.662740 0.616325 -2.125000
v 0.510224 0.374328 -0.686515
v 0.412581 0.320171 -0.713943
v 0.510224 0.488151 -0.670276
v 0.412581 0.547817 -0.681466
v 0.314938 0.493660 -0.708894
v 0.314938 0.379837 -0.725132
v 0.412581 0.433994 -0.697704
v -0.628096 0.867285 -1.945476
v -0.592510 0.846042 -1.953196
v -0.628096 0.825136 -1.944602
v -0.592510 0.888190 -1.954070
v -0.628096 0.909434 -1.946349
v -0.663682 0.888528 -1.937755
v -0.663682 0.846380 -1.936882
v -0.245847 0.835115 -0.722901
v -0.342900 0.778100 -0.699463
v -0.245847 0.950065 -0.725283
v -0.342900 1.008002 -0.704226
v -0.439953 0.950987 -0.680788
v -0.439953 0.836037 -0.678407
v -0.342900 0.893051 -0.701845
v -0.034468 0.505354 -2.095028
v 0.002001 0.484236 -2.093881
v -0.034468 0.463211 -2.096158
v 0.002001 0.526379 -2.092751
v -0.034468 0.547496 -2.093897
v -0.070938 0.526471 -2.096174
v -0.070938 0.484328 -2.097305
v -0.001486 0.409789 -0.676413
v -0.100948 0.352447 -0.682622
v -0.001486 0.524723 -0.673329
v -0.100948 0.582315 -0.676456
v -0.200410 0.524973 -0.682665
v -0.200410 0.410039 -0.685749
v -0.100948 0.467381 -0.679539
vt 0.500000 0.578125
vt 0.518628 0.605061
vt 0.500000 0.608022
vt 0.533566 0.596766
vt 0.541856 0.584778
vt 0.541856 0.571472
vt 0.533566 0.559484
vt 0.518628 0.551189
vt 0.500000 0.548228
vt 0.481372 0.551189
vt 0.466434 0.559484
vt 0.458144 0.571472
vt 0.458144 0.584778
vt 0.466434 0.596766
vt 0.481372 0.605061
vt 0.534419 0.627897
vt 0.500000 0.633368
vt 0.562022 0.612568
vt 0.577340 0.590418
vt 0.577340 0.565832
vt 0.562022 0.543682
vt 0.534419 0.528353
vt 0.500000 0.522882
vt 0.465581 0.528353
vt 0.437978 0.543682
vt 0.422660 0.565832
vt 0.422660 0.590418
vt 0.437978 0.612568
vt 0.465581 0.627897
vt 0.544971 0.643155
vt 0.500000 0.650303
vt 0.581035 0.623127
vt 0.601049 0.594186
vt 0.601049 0.562064
vt 0.581035 0.533123
vt 0.544971 0.513095
vt 0.500000 0.505947
vt 0.455029 0.513095
vt 0.418965 0.533123
vt 0.398951 0.562064
vt 0.398951 0.594186
vt 0.418965 0.623127
vt 0.455029 0.643155
vt 0.726562 0.548228
vt 0.771534 0.548228
vt 0.775239 0.578125
vt 0.726562 0.578125
vt 0.817605 0.548228
vt 0.789566 0.548228
vt 0.794757 0.578125
vt 0.825106 0.578125
vt 0.749048 0.548228
vt 0.750901 0.578125
vt 0.704077 0.548228
vt 0.702224 0.578125
vt 0.663559 0.548228
vt 0.658368 0.578125
vt 0.635520 0.548228
vt 0.628019 0.578125
vt 0.771534 0.548228
vt 0.726562 0.548228
vt 0.726562 0.578125
vt 0.775239 0.578125
vt 0.681591 0.548228
vt 0.677886 0.578125
vt 0.681591 0.548228
vt 0.677886 0.578125
vt 0.771534 0.608022
vt 0.726562 0.608022
vt 0.789566 0.608022
vt 0.817605 0.608022
vt 0.749048 0.608022
vt 0.704077 0.608022
vt 0.663559 0.608022
vt 0.635520 0.608022
vt 0.726562 0.608022
vt 0.771534 0.608022
vt 0.681591 0.608022
vt 0.681591 0.608022
vt 0.500000 0.578125
vt 0.508548 0.626409
vt 0.466770 0.621972
vt 0.547060 0.612403
vt 0.567597 0.585304
vt 0.562315 0.555463
vt 0.533230 0.534278
vt 0.491452 0.529841
vt 0.452940 0.543847
vt 0.432403 0.570946
vt 0.437685 0.600787
vt 0.693333 0.514921
vt 0.735110 0.514921
vt 0.740393 0.553983
vt 0.672796 0.553983
vt 0.576145 0.633588
vt 0.513831 0.656250
vt 0.609375 0.589741
vt 0.736614 0.514921
vt 0.694836 0.514921
vt 0.675228 0.553983
vt 0.742825 0.553983
vt 0.553767 0.507179
vt 0.600827 0.541457
vt 0.759792 0.514921
vt 0.718015 0.514921
vt 0.712732 0.553983
vt 0.780329 0.553983
vt 0.423855 0.522662
vt 0.486169 0.500000
vt 0.390625 0.566509
vt 0.716511 0.514921
vt 0.758289 0.514921
vt 0.777897 0.553983
vt 0.710300 0.553983
vt 0.446233 0.649071
vt 0.399173 0.614793
vt 0.740393 0.602267
vt 0.672796 0.602267
vt 0.802708 0.553983
vt 0.802708 0.602267
vt 0.804211 0.553983
vt 0.742825 0.602267
vt 0.804211 0.602267
vt 0.675228 0.602267
vt 0.627239 0.553983
vt 0.627239 0.602267
vt 0.712732 0.602267
vt 0.780329 0.602267
vt 0.650417 0.553983
vt 0.650417 0.602267
vt 0.648914 0.553983
vt 0.710300 0.602267
vt 0.648914 0.602267
vt 0.777897 0.602267
vt 0.825886 0.553983
vt 0.825886 0.602267
vt 0.735110 0.641329
vt 0.693333 0.641329
vt 0.694836 0.641329
vt 0.736614 0.641329
vt 0.718015 0.641329
vt 0.759792 0.641329
vt 0.758289 0.641329
vt 0.716511 0.641329
vt 0.068904 0.305641
vt 0.101562 0.336877
vt 0.071578 0.370160
vt 0.048485 0.348073
vt 0.101562 0.311374
vt 0.089132 0.358249
vt 0.062789 0.342391
vt 0.071578 0.309245
vt 0.089132 0.343722
vt 0.044043 0.319331
vt 0.030906 0.357753
vt 0.062789 0.375000
vt 0.045894 0.375000
vt 0.014657 0.344876
vt 0.062228 0.332934
vt 0.084315 0.354235
vt 0.007812 0.298001
vt 0.057388 0.299788
vt 0.023815 0.281250
vt 0.016602 0.330825
vt 0.048485 0.287944
vt 0.032746 0.318175
vt 0.030906 0.354235
vt 0.007812 0.332934
vt 0.096220 0.318175
vt 0.016602 0.299788
vt 0.632355 0.396843
vt 0.664062 0.432707
vt 0.635499 0.461123
vt 0.613079 0.435764
vt 0.765625 0.411670
vt 0.751239 0.456846
vt 0.726889 0.432758
vt 0.737062 0.400814
vt 0.705144 0.476562
vt 0.694296 0.446700
vt 0.729573 0.476562
vt 0.693709 0.451104
vt 0.730344 0.428698
vt 0.755704 0.446700
vt 0.671875 0.405928
vt 0.714905 0.396754
vt 0.586261 0.382812
vt 0.580485 0.425843
vt 0.596667 0.464675
vt 0.698229 0.407868
vt 0.671875 0.428698
vt 0.753738 0.407868
vt 0.688902 0.399757
vt 0.729959 0.429579
vt 0.748633 0.403900
vt 0.719601 0.382812
vt 0.765625 0.429579
vt 0.736541 0.467982
vt 0.719641 0.431055
vt 0.740207 0.403900
vt 0.689666 0.476562
vt 0.686496 0.437122
vt 0.736962 0.476562
vt 0.695905 0.446740
vt 0.724553 0.416035
vt 0.753585 0.437122
vt 0.671875 0.408337
vt 0.707561 0.388880
vt 0.599397 0.382812
vt 0.646272 0.399840
vt 0.626064 0.430539
vt 0.592919 0.418499
vt 0.638644 0.459571
vt 0.600657 0.457331
vt 0.702220 0.398290
vt 0.746394 0.398290
vt 0.572353 0.435491
vt 0.500000 0.578125
vt 0.535499 0.619654
vt 0.493722 0.626409
vt 0.563717 0.597036
vt 0.567597 0.567195
vt 0.545658 0.541529
vt 0.506278 0.529841
vt 0.464501 0.536596
vt 0.436283 0.559214
vt 0.432403 0.589055
vt 0.454342 0.614721
vt 0.720284 0.514921
vt 0.762062 0.514921
vt 0.784002 0.553983
vt 0.716404 0.553983
vt 0.784703 0.514921
vt 0.753038 0.514921
vt 0.769401 0.553983
vt 0.820635 0.553983
vt 0.711260 0.514921
vt 0.701803 0.553983
vt 0.675328 0.514921
vt 0.643663 0.553983
vt 0.772220 0.514921
vt 0.732841 0.514921
vt 0.736721 0.553983
vt 0.800438 0.553983
vt 0.691063 0.514921
vt 0.669123 0.553983
vt 0.668422 0.514921
vt 0.700087 0.514921
vt 0.683724 0.553983
vt 0.632490 0.553983
vt 0.741865 0.514921
vt 0.751322 0.553983
vt 0.777797 0.514921
vt 0.809462 0.553983
vt 0.680905 0.514921
vt 0.652687 0.553983
vt 0.784002 0.602267
vt 0.716404 0.602267
vt 0.769401 0.602267
vt 0.820635 0.602267
vt 0.701803 0.602267
vt 0.643663 0.602267
vt 0.736721 0.602267
vt 0.800438 0.602267
vt 0.669123 0.602267
vt 0.683724 0.602267
vt 0.632490 0.602267
vt 0.751322 0.602267
vt 0.809462 0.602267
vt 0.652687 0.602267
vt 0.762062 0.641329
vt 0.720284 0.641329
vt 0.753038 0.641329
vt 0.784703 0.641329
vt 0.711260 0.641329
vt 0.675328 0.641329
vt 0.732841 0.641329
vt 0.772220 0.641329
vt 0.691063 0.641329
vt 0.700087 0.641329
vt 0.668422 0.641329
vt 0.741865 0.641329
vt 0.777797 0.641329
vt 0.680905 0.641329
vt 0.100514 0.302244
vt 0.053639 0.281250
vt 0.051612 0.319436
vt 0.084758 0.334281
vt 0.007812 0.299546
vt 0.019208 0.332373
vt 0.026108 0.336079
vt 0.065398 0.297673
vt 0.086718 0.332298
vt 0.058936 0.359455
vt 0.008861 0.297673
vt 0.055736 0.281250
vt 0.053094 0.320685
vt 0.019949 0.332298
vt 0.101562 0.303234
vt 0.085499 0.336230
vt 0.068096 0.303234
vt 0.028806 0.341640
vt 0.060844 0.363388
vt 0.088625 0.336230
vt 0.051386 0.358269
vt 0.019949 0.360155
vt 0.051386 0.359518
vt 0.085499 0.362063
vt 0.717472 0.408970
vt 0.758238 0.382812
vt 0.765625 0.432366
vt 0.736799 0.450862
vt 0.698403 0.382812
vt 0.745278 0.387907
vt 0.736017 0.435968
vt 0.702871 0.432366
vt 0.755823 0.387907
vt 0.712641 0.419159
vt 0.733383 0.458066
vt 0.763917 0.435968
vt 0.671875 0.445316
vt 0.704557 0.476562
vt 0.637534 0.382812
vt 0.590659 0.385228
vt 0.596938 0.417202
vt 0.630083 0.415494
vt 0.674290 0.440222
vt 0.706265 0.472960
vt 0.684113 0.450862
vt 0.716641 0.471198
vt 0.634454 0.474855
vt 0.648842 0.444321
vt 0.615078 0.454327
vt 0.582550 0.447736
vt 0.007812 0.370935
vt 0.052459 0.372681
vt 0.054005 0.307911
vt 0.022435 0.306676
vt 0.099334 0.374713
vt 0.087151 0.309348
vt 0.079839 0.374713
vt 0.032964 0.375000
vt 0.039256 0.309551
vt 0.072402 0.309348
vt 0.101562 0.375000
vt 0.056916 0.373255
vt 0.057157 0.308316
vt 0.088727 0.309551
vt 0.010041 0.371222
vt 0.024011 0.306879
vt 0.029536 0.371222
vt 0.076411 0.370935
vt 0.069978 0.306676
vt 0.036832 0.306879
vt 0.069978 0.295873
vt 0.087763 0.327442
vt 0.054588 0.329388
vt 0.072402 0.360588
vt 0.039256 0.362164
vt 0.021471 0.330594
vt 0.036832 0.297449
vt 0.500000 0.578125
vt 0.521759 0.622496
vt 0.479981 0.626409
vt 0.555225 0.601636
vt 0.567597 0.571794
vt 0.554150 0.544371
vt 0.520019 0.529841
vt 0.478241 0.533754
vt 0.444775 0.554614
vt 0.432403 0.584456
vt 0.445850 0.611879
vt 0.535206 0.649919
vt 0.467609 0.656250
vt 0.589356 0.616166
vt 0.759477 0.514921
vt 0.717700 0.514921
vt 0.712222 0.553983
vt 0.779820 0.553983
vt 0.679307 0.514921
vt 0.650102 0.553983
vt 0.532391 0.500000
vt 0.587616 0.523511
vt 0.464794 0.506331
vt 0.410644 0.540084
vt 0.693648 0.514921
vt 0.735425 0.514921
vt 0.740903 0.553983
vt 0.673305 0.553983
vt 0.773818 0.514921
vt 0.803023 0.553983
vt 0.412384 0.632739
vt 0.694171 0.553983
vt 0.761769 0.553983
vt 0.761769 0.602267
vt 0.694171 0.602267
vt 0.827075 0.553983
vt 0.779820 0.602267
vt 0.827075 0.602267
vt 0.712222 0.602267
vt 0.650102 0.602267
vt 0.814179 0.553983
vt 0.758954 0.553983
vt 0.758954 0.602267
vt 0.814179 0.602267
vt 0.691356 0.553983
vt 0.691356 0.602267
vt 0.626050 0.553983
vt 0.673305 0.602267
vt 0.626050 0.602267
vt 0.740903 0.602267
vt 0.803023 0.602267
vt 0.638946 0.553983
vt 0.638946 0.602267
vt 0.717700 0.641329
vt 0.759477 0.641329
vt 0.679307 0.641329
vt 0.735425 0.641329
vt 0.693648 0.641329
vt 0.773818 0.641329
vt 0.700353 0.414288
vt 0.734417 0.382812
vt 0.761675 0.416162
vt 0.737588 0.438419
vt 0.700367 0.382812
vt 0.747242 0.394047
vt 0.732259 0.424106
vt 0.699114 0.416162
vt 0.740003 0.394047
vt 0.711525 0.436756
vt 0.745488 0.454306
vt 0.765625 0.424106
vt 0.664062 0.422462
vt 0.635571 0.388398
vt 0.623549 0.432338
vt 0.643696 0.456425
vt 0.588696 0.382812
vt 0.590404 0.428389
vt 0.671875 0.456997
vt 0.717451 0.468619
vt 0.678967 0.438419
vt 0.709364 0.454995
vt 0.745258 0.454306
vt 0.607801 0.467221
vt 0.577405 0.448526
vt 0.611958 0.382812
vt 0.570312 0.397413
vt 0.577263 0.434779
vt 0.606711 0.424455
vt 0.686475 0.435241
vt 0.723321 0.394230
vt 0.749895 0.426638
vt 0.723841 0.455637
vt 0.677104 0.394230
vt 0.723979 0.382812
vt 0.715669 0.418564
vt 0.682523 0.426638
vt 0.765625 0.412406
vt 0.745117 0.439490
vt 0.730966 0.412406
vt 0.694121 0.453417
vt 0.729247 0.468489
vt 0.755301 0.439490
vt 0.658833 0.405058
vt 0.639857 0.440185
vt 0.607601 0.463287
vt 0.678826 0.455637
vt 0.709163 0.457396
vt 0.741419 0.468489
vt 0.074375 0.374296
vt 0.027500 0.372415
vt 0.036132 0.307660
vt 0.069278 0.308990
vt 0.012555 0.372415
vt 0.059430 0.371238
vt 0.057864 0.306828
vt 0.024718 0.307660
vt 0.101562 0.371942
vt 0.087656 0.307326
vt 0.035000 0.371942
vt 0.081875 0.373823
vt 0.074581 0.308656
vt 0.041436 0.307326
vt 0.096820 0.373823
vt 0.049945 0.375000
vt 0.051158 0.309488
vt 0.084303 0.308656
vt 0.007812 0.374296
vt 0.021365 0.308990
vt 0.021365 0.342716
vt 0.024718 0.309570
vt 0.054438 0.329072
vt 0.057864 0.295649
vt 0.087656 0.314873
vt 0.084303 0.348019
vt 0.051158 0.361940
vt 0.500000 0.578125
vt 0.523669 0.621831
vt 0.481892 0.626409
vt 0.556406 0.600559
vt 0.567597 0.570718
vt 0.552969 0.543706
vt 0.518108 0.529841
vt 0.476331 0.534419
vt 0.443594 0.555691
vt 0.432403 0.585532
vt 0.447031 0.612544
vt 0.538297 0.648843
vt 0.470700 0.656250
vt 0.591267 0.614423
vt 0.757970 0.514921
vt 0.716192 0.514921
vt 0.709783 0.553983
vt 0.777380 0.553983
vt 0.585706 0.522434
vt 0.609375 0.566140
vt 0.529300 0.500000
vt 0.461703 0.507407
vt 0.408733 0.541827
vt 0.695155 0.514921
vt 0.736933 0.514921
vt 0.743342 0.553983
vt 0.675745 0.553983
vt 0.414294 0.633816
vt 0.390625 0.590110
vt 0.697262 0.553983
vt 0.764860 0.553983
vt 0.764860 0.602267
vt 0.697262 0.602267
vt 0.825567 0.553983
vt 0.777380 0.602267
vt 0.825567 0.602267
vt 0.709783 0.602267
vt 0.648595 0.553983
vt 0.648595 0.602267
vt 0.812268 0.553983
vt 0.755863 0.553983
vt 0.755863 0.602267
vt 0.812268 0.602267
vt 0.688265 0.553983
vt 0.688265 0.602267
vt 0.627558 0.553983
vt 0.675745 0.602267
vt 0.627558 0.602267
vt 0.743342 0.602267
vt 0.804530 0.553983
vt 0.804530 0.602267
vt 0.640857 0.553983
vt 0.640857 0.602267
vt 0.716192 0.641329
vt 0.757970 0.641329
vt 0.736933 0.641329
vt 0.695155 0.641329
vt 0.759855 0.414826
vt 0.712980 0.418698
vt 0.712846 0.467047
vt 0.745992 0.464309
vt 0.671875 0.404628
vt 0.683780 0.457097
vt 0.699419 0.404628
vt 0.746294 0.386685
vt 0.746333 0.444410
vt 0.713187 0.457097
vt 0.677645 0.386685
vt 0.724520 0.382812
vt 0.721006 0.441672
vt 0.687860 0.444410
vt 0.765625 0.396883
vt 0.750071 0.451621
vt 0.738081 0.396883
vt 0.691206 0.414826
vt 0.707379 0.464309
vt 0.740525 0.451621
vt 0.644429 0.418316
vt 0.611284 0.404648
vt 0.614608 0.441151
vt 0.582218 0.424124
vt 0.586298 0.457270
vt 0.619443 0.470939
vt 0.648509 0.451462
vt 0.039070 0.281250
vt 0.085945 0.288527
vt 0.075063 0.344903
vt 0.041917 0.339758
vt 0.092756 0.288527
vt 0.045881 0.307318
vt 0.057160 0.358191
vt 0.090305 0.344903
vt 0.007812 0.318833
vt 0.030241 0.366333
vt 0.070305 0.318833
vt 0.023430 0.311556
vt 0.030858 0.361187
vt 0.064003 0.366333
vt 0.016619 0.311556
vt 0.063494 0.292765
vt 0.069614 0.347900
vt 0.036468 0.361187
vt 0.101562 0.281250
vt 0.096532 0.339758
vt 0.041917 0.369970
vt 0.075063 0.363743
vt 0.052245 0.340428
vt 0.086106 0.330597
vt 0.064003 0.303679
vt 0.030858 0.309906
vt 0.019815 0.343052
vt 0.671875 0.469825
vt 0.678519 0.422950
vt 0.734350 0.431639
vt 0.729652 0.464784
vt 0.699074 0.382812
vt 0.748885 0.403257
vt 0.597581 0.410011
vt 0.644456 0.423923
vt 0.629498 0.469659
vt 0.596353 0.459822
vt 0.712985 0.389550
vt 0.706341 0.436425
vt 0.754024 0.441167
vt 0.758721 0.408022
vt 0.685786 0.476562
vt 0.739489 0.469549
vt 0.636794 0.396724
vt 0.589919 0.382812
vt 0.590935 0.440590
vt 0.624081 0.450426
vt 0.692498 0.464784
vt 0.678634 0.431639
vt 0.708892 0.439185
vt 0.697915 0.403257
vt 0.731061 0.408022
vt 0.744925 0.441167
vt 0.725644 0.469549
vt 0.500000 0.578125
vt 0.519511 0.624436
vt 0.477734 0.626409
vt 0.553836 0.604774
vt 0.567597 0.574933
vt 0.555539 0.546311
vt 0.522266 0.529841
vt 0.480489 0.531814
vt 0.446164 0.551476
vt 0.432403 0.581317
vt 0.444461 0.609939
vt 0.704296 0.514921
vt 0.746074 0.514921
vt 0.758133 0.553983
vt 0.690535 0.553983
vt 0.587109 0.621244
vt 0.531570 0.653058
vt 0.763871 0.514921
vt 0.722093 0.514921
vt 0.719331 0.553983
vt 0.786929 0.553983
vt 0.682023 0.514921
vt 0.654496 0.553983
vt 0.536027 0.500000
vt 0.589864 0.526649
vt 0.748829 0.514921
vt 0.707051 0.514921
vt 0.694992 0.553983
vt 0.762590 0.553983
vt 0.412891 0.535006
vt 0.468430 0.503192
vt 0.689254 0.514921
vt 0.731032 0.514921
vt 0.733794 0.553983
vt 0.666196 0.553983
vt 0.771102 0.514921
vt 0.798629 0.553983
vt 0.463973 0.656250
vt 0.410136 0.629601
vt 0.758133 0.602267
vt 0.690535 0.602267
vt 0.813671 0.553983
vt 0.813671 0.602267
vt 0.719331 0.602267
vt 0.786929 0.602267
vt 0.654496 0.602267
vt 0.816426 0.553983
vt 0.762590 0.602267
vt 0.816426 0.602267
vt 0.694992 0.602267
vt 0.639454 0.553983
vt 0.639454 0.602267
vt 0.733794 0.602267
vt 0.666196 0.602267
vt 0.798629 0.602267
vt 0.636699 0.553983
vt 0.636699 0.602267
vt 0.746074 0.641329
vt 0.704296 0.641329
vt 0.722093 0.641329
vt 0.763871 0.641329
vt 0.682023 0.641329
vt 0.707051 0.641329
vt 0.748829 0.641329
vt 0.731032 0.641329
vt 0.689254 0.641329
vt 0.771102 0.641329
vt 0.717097 0.399629
vt 0.671875 0.408190
vt 0.691354 0.461793
vt 0.723331 0.455739
vt 0.740645 0.408190
vt 0.693770 0.404062
vt 0.699589 0.458874
vt 0.732735 0.461793
vt 0.673528 0.404062
vt 0.720403 0.391373
vt 0.725669 0.449901
vt 0.692523 0.458874
vt 0.765625 0.382812
vt 0.757646 0.443848
vt 0.696855 0.382812
vt 0.743730 0.386941
vt 0.734916 0.446767
vt 0.701770 0.443848
vt 0.763972 0.386941
vt 0.756477 0.446767
vt 0.648836 0.434269
vt 0.631172 0.402292
vt 0.615070 0.437819
vt 0.598027 0.403460
vt 0.582544 0.436606
vt 0.600208 0.468583
vt 0.633353 0.467415
vt 0.713006 0.423935
vt 0.747507 0.463391
vt 0.765625 0.429299
vt 0.741229 0.401399
vt 0.747643 0.463391
vt 0.700768 0.476562
vt 0.698869 0.438612
vt 0.732014 0.429299
vt 0.744192 0.476562
vt 0.706376 0.450277
vt 0.736541 0.420026
vt 0.763281 0.438612
vt 0.671875 0.410821
vt 0.712145 0.392126
vt 0.588294 0.382812
vt 0.635169 0.386128
vt 0.622736 0.425427
vt 0.589591 0.423083
vt 0.664062 0.423944
vt 0.643167 0.452167
vt 0.744729 0.401399
vt 0.708615 0.399780
vt 0.678438 0.420026
vt 0.576876 0.447478
vt 0.607053 0.461915
vt 0.101562 0.334646
vt 0.072424 0.372101
vt 0.060359 0.332170
vt 0.080963 0.305685
vt 0.025549 0.375000
vt 0.027213 0.334219
vt 0.074106 0.375000
vt 0.034452 0.340444
vt 0.064321 0.309785
vt 0.092361 0.334219
vt 0.007812 0.302989
vt 0.045484 0.283300
vt 0.036951 0.281250
vt 0.083826 0.294264
vt 0.068422 0.328124
vt 0.035276 0.318922
vt 0.020826 0.300090
vt 0.060479 0.334646
vt 0.082725 0.305685
vt 0.054686 0.281250
vt 0.044972 0.295387
vt 0.014672 0.309785
vt 0.014672 0.337759
vt 0.044972 0.357754
vt 0.080963 0.356163
vt 0.817264 0.638022
vt 0.835938 0.628466
vt 0.817264 0.619793
vt 0.835938 0.646695
vt 0.817264 0.656250
vt 0.798591 0.647577
vt 0.798591 0.629349
vt 0.590702 0.500441
vt 0.609375 0.501521
vt 0.492480 0.654506
vt 0.441552 0.651560
vt 0.619317 0.628466
vt 0.620212 0.646695
vt 0.835938 0.573367
vt 0.833496 0.523654
vt 0.609375 0.502160
vt 0.590702 0.501720
vt 0.441552 0.655048
vt 0.492480 0.656250
vt 0.572028 0.500640
vt 0.390625 0.652102
vt 0.618083 0.647577
vt 0.617188 0.629349
vt 0.827689 0.526060
vt 0.830131 0.575773
vt 0.572028 0.500000
vt 0.390625 0.650358
vt 0.668115 0.500000
vt 0.719042 0.523654
vt 0.668115 0.549713
vt 0.719042 0.573367
vt 0.668115 0.599427
vt 0.617188 0.575773
vt 0.617188 0.526060
vt 0.635818 0.560613
vt 0.654449 0.546176
vt 0.635818 0.531968
vt 0.654449 0.574821
vt 0.635818 0.589259
vt 0.617188 0.575051
vt 0.617188 0.546405
vt 0.409256 0.501160
vt 0.427886 0.500107
vt 0.609375 0.650800
vt 0.558565 0.653671
vt 0.617337 0.546176
vt 0.617188 0.574821
vt 0.827899 0.616874
vt 0.828308 0.538749
vt 0.427886 0.500000
vt 0.409256 0.500946
vt 0.558565 0.653087
vt 0.609375 0.650508
vt 0.390625 0.501998
vt 0.507754 0.655958
vt 0.619985 0.575051
vt 0.620135 0.546405
vt 0.835938 0.539376
vt 0.835529 0.617501
vt 0.390625 0.502105
vt 0.507754 0.656250
vt 0.785127 0.500000
vt 0.835938 0.538749
vt 0.785127 0.578125
vt 0.835938 0.616874
vt 0.785127 0.656250
vt 0.734317 0.617501
vt 0.734317 0.539376
vt 0.796524 0.603936
vt 0.835938 0.589582
vt 0.796524 0.575291
vt 0.835938 0.618228
vt 0.796524 0.632582
vt 0.757111 0.618290
vt 0.757111 0.589645
vt 0.569962 0.500126
vt 0.609375 0.500376
vt 0.605606 0.655912
vt 0.498116 0.655230
vt 0.617713 0.589582
vt 0.617887 0.618228
vt 0.835938 0.617102
vt 0.835464 0.538977
vt 0.609375 0.500500
vt 0.569962 0.500374
vt 0.498116 0.655907
vt 0.605606 0.656250
vt 0.530549 0.500124
vt 0.390625 0.655226
vt 0.617361 0.618290
vt 0.617188 0.589645
vt 0.834030 0.539148
vt 0.834503 0.617273
vt 0.530549 0.500000
vt 0.390625 0.654887
vt 0.724678 0.500000
vt 0.832169 0.538977
vt 0.724678 0.578125
vt 0.832169 0.617102
vt 0.724678 0.656250
vt 0.617188 0.617273
vt 0.617188 0.539148
vn 0.027643 -0.996352 0.080743
vn 0.077343 -0.994906 0.064657
vn 0.111562 -0.993112 0.035817
vn 0.123726 -0.992316 0.000000
vn 0.111562 -0.993112 -0.035817
vn 0.077343 -0.994906 -0.064657
vn 0.027643 -0.996352 -0.080743
vn -0.027643 -0.996352 -0.080743
vn -0.077343 -0.994906 -0.064657
vn -0.111562 -0.993112 -0.035817
vn -0.123726 -0.992316 -0.000000
vn -0.111562 -0.993112 0.035817
vn -0.077343 -0.994906 0.064657
vn -0.027643 -0.996352 0.080743
vn 0.089565 -0.961010 0.261607
vn 0.247210 -0.946667 0.206661
vn 0.350808 -0.929650 0.112627
vn 0.386317 -0.922366 0.000000
vn 0.350808 -0.929650 -0.112627
vn 0.247210 -0.946667 -0.206661
vn 0.089565 -0.961010 -0.261607
vn -0.089565 -0.961010 -0.261607
vn -0.247210 -0.946667 -0.206661
vn -0.350808 -0.929650 -0.112627
vn -0.386317 -0.922366 -0.000000
vn -0.350808 -0.929650 0.112627
vn -0.247210 -0.946667 0.206661
vn -0.089565 -0.961010 0.261607
vn 0.175467 -0.840560 0.512513
vn 0.465148 -0.795256 0.388852
vn 0.632091 -0.747850 0.202933
vn 0.684179 -0.729314 0.000000
vn 0.632091 -0.747850 -0.202933
vn 0.465148 -0.795256 -0.388852
vn 0.175467 -0.840560 -0.512513
vn -0.175467 -0.840560 -0.512513
vn -0.465148 -0.795256 -0.388852
vn -0.632091 -0.747850 -0.202933
vn -0.684179 -0.729314 -0.000000
vn -0.632091 -0.747850 0.202933
vn -0.465148 -0.795256 0.388852
vn -0.175467 -0.840560 0.512513
vn 0.294053 -0.419342 0.858886
vn 0.714670 -0.363739 0.597445
vn 0.902725 -0.317951 0.289820
vn 0.953159 -0.302468 0.000000
vn 0.902725 -0.317951 -0.289820
vn 0.714670 -0.363739 -0.597445
vn 0.294053 -0.419342 -0.858886
vn -0.294053 -0.419342 -0.858886
vn -0.714670 -0.363739 -0.597445
vn -0.902725 -0.317951 -0.289820
vn -0.953159 -0.302468 -0.000000
vn -0.902725 -0.317951 0.289820
vn -0.714670 -0.363739 0.597445
vn -0.294053 -0.419342 0.858886
vn 0.294053 0.419342 0.858886
vn 0.714670 0.363739 0.597445
vn 0.902725 0.317951 0.289820
vn 0.953159 0.302468 0.000000
vn 0.902725 0.317951 -0.289820
vn 0.714670 0.363739 -0.597445
vn 0.294053 0.419342 -0.858886
vn -0.294053 0.419342 -0.858886
vn -0.714670 0.363739 -0.597445
vn -0.902725 0.317951 -0.289820
vn -0.953159 0.302468 -0.000000
vn -0.902725 0.317951 0.289820
vn -0.714670 0.363739 0.597445
vn -0.294053 0.419342 0.858886
vn 0.175467 0.840560 0.512513
vn 0.465148 0.795256 0.388852
vn 0.632091 0.747850 0.202933
vn 0.684179 0.729314 0.000000
vn 0.632091 0.747850 -0.202933
vn 0.465148 0.795256 -0.388852
vn 0.175467 0.840560 -0.512513
vn -0.175467 0.840560 -0.512513
vn -0.465148 0.795256 -0.388852
vn -0.632091 0.747850 -0.202933
vn -0.684179 0.729314 -0.000000
vn -0.632091 0.747850 0.202933
vn -0.465148 0.795256 0.388852
vn -0.175467 0.840560 0.512513
vn 0.089565 0.961010 0.261607
vn 0.247210 0.946667 0.206661
vn 0.350808 0.929650 0.112627
vn 0.386317 0.922366 0.000000
vn 0.350808 0.929650 -0.112627
vn 0.247210 0.946667 -0.206661
vn 0.089565 0.961010 -0.261607
vn -0.089565 0.961010 -0.261607
vn -0.247210 0.946667 -0.206661
vn -0.350808 0.929650 -0.112627
vn -0.386317 0.922366 0.000000
vn -0.350808 0.929650 0.112627
vn -0.247210 0.946667 0.206661
vn -0.089565 0.961010 0.261607
vn 0.027643 0.996352 0.080743
vn 0.077343 0.994906 0.064657
vn 0.111562 0.993112 0.035817
vn 0.123726 0.992316 0.000000
vn 0.111562 0.993112 -0.035817
vn 0.077343 0.994906 -0.064657
vn 0.027643 0.996352 -0.080743
vn -0.027643 0.996352 -0.080743
vn -0.077343 0.994906 -0.064657
vn -0.111562 0.993112 -0.035817
vn -0.123726 0.992316 -0.000000
vn -0.111562 0.993112 0.035817
vn -0.077343 0.994906 0.064657
vn -0.027643 0.996352 0.080743
vn -0.036884 -0.970102 0.239880
vn 0.116220 -0.968383 0.220741
vn 0.224621 -0.967326 0.117583
vn 0.247622 -0.968383 -0.030280
vn 0.176106 -0.970102 -0.167001
vn 0.036884 -0.970102 -0.239880
vn -0.116220 -0.968383 -0.220741
vn -0.224621 -0.967326 -0.117583
vn -0.247622 -0.968383 0.030280
vn -0.176106 -0.970102 0.167001
vn -0.110535 -0.686297 0.718873
vn 0.343471 -0.675606 0.652367
vn 0.658302 -0.669244 0.344602
vn 0.731811 -0.675606 -0.089488
vn 0.527756 -0.686297 -0.500470
vn 0.110535 -0.686297 -0.718873
vn -0.343471 -0.675606 -0.652367
vn -0.658302 -0.669244 -0.344602
vn -0.731811 -0.675606 0.089488
vn -0.527756 -0.686297 0.500470
vn -0.151975 0.000000 0.988384
vn 0.465874 -0.000000 0.884851
vn 0.885955 0.000000 0.463772
vn 0.992606 0.000000 -0.121379
vn 0.725616 -0.000000 -0.688100
vn 0.151975 0.000000 -0.988384
vn -0.465874 -0.000000 -0.884851
vn -0.885955 0.000000 -0.463772
vn -0.992606 0.000000 0.121379
vn -0.725616 -0.000000 0.688100
vn -0.110535 0.686297 0.718873
vn 0.343471 0.675606 0.652367
vn 0.658302 0.669244 0.344602
vn 0.731811 0.675606 -0.089488
vn 0.527756 0.686297 -0.500470
vn 0.110535 0.686297 -0.718873
vn -0.343471 0.675606 -0.652367
vn -0.658302 0.669244 -0.344602
vn -0.731811 0.675606 0.089488
vn -0.527756 0.686297 0.500470
vn -0.036884 0.970102 0.239880
vn 0.116220 0.968383 0.220741
vn 0.224621 0.967326 0.117583
vn 0.247622 0.968383 -0.030280
vn 0.176106 0.970102 -0.167001
vn 0.036884 0.970102 -0.239880
vn -0.116220 0.968383 -0.220741
vn -0.224621 0.967326 -0.117583
vn -0.247622 0.968383 0.030280
vn -0.176106 0.970102 0.167001
vn 0.444722 -0.781593 0.437419
vn 0.655023 0.080520 0.751306
vn 0.057033 0.792898 0.606680
vn -0.751258 0.643162 0.148165
vn -0.961560 -0.218951 -0.165722
vn -0.363569 -0.931328 -0.021096
vn -0.135376 -0.511480 0.848565
vn -0.038974 -0.116287 0.992451
vn -0.313092 0.210267 0.926154
vn -0.683613 0.141628 0.715971
vn -0.780015 -0.253564 0.572085
vn -0.505897 -0.580119 0.638382
vn 0.496106 -0.846541 0.192994
vn 0.677989 -0.094457 0.728978
vn 0.042907 0.596489 0.801474
vn -0.774058 0.535350 0.337985
vn -0.955941 -0.216734 -0.197999
vn -0.320859 -0.907680 -0.270495
vn -0.080188 -0.732442 0.676090
vn 0.003187 -0.387687 0.921786
vn -0.287935 -0.070957 0.955018
vn -0.662431 -0.098983 0.742554
vn -0.745807 -0.443738 0.496859
vn -0.454685 -0.760468 0.463627
vn 0.712107 -0.687756 0.141050
vn 0.589679 -0.033837 0.806928
vn -0.233768 0.416488 0.878573
vn -0.934787 0.212895 0.284340
vn -0.812359 -0.441024 -0.381538
vn 0.011088 -0.891349 -0.453183
vn 0.079996 -0.840785 0.535427
vn 0.023875 -0.541028 0.840665
vn -0.353593 -0.334599 0.873507
vn -0.674941 -0.427926 0.601111
vn -0.618820 -0.727682 0.295872
vn -0.241351 -0.934112 0.263030
vn 0.075849 -0.944135 0.320713
vn 0.253603 -0.942811 0.216317
vn 0.334306 -0.941996 0.029719
vn 0.287784 -0.942811 -0.168189
vn 0.131233 -0.944135 -0.302304
vn -0.075849 -0.944135 -0.320713
vn -0.253603 -0.942811 -0.216317
vn -0.334306 -0.941996 -0.029719
vn -0.287784 -0.942811 0.168189
vn -0.131233 -0.944135 0.302304
vn 0.190646 -0.560210 0.806113
vn 0.632736 -0.555303 0.539707
vn 0.830348 -0.552334 0.073815
vn 0.718018 -0.555303 -0.419630
vn 0.329855 -0.560210 -0.759842
vn -0.190646 -0.560210 -0.806113
vn -0.632736 -0.555303 -0.539707
vn -0.830348 -0.552334 -0.073815
vn -0.718018 -0.555303 0.419630
vn -0.329855 -0.560210 0.759842
vn 0.230152 0.000000 0.973155
vn 0.760822 0.000000 0.648961
vn 0.996072 -0.000000 0.088548
vn 0.863367 0.000000 -0.504576
vn 0.398207 -0.000000 -0.917296
vn -0.230152 0.000000 -0.973155
vn -0.760822 -0.000000 -0.648961
vn -0.996072 0.000000 -0.088548
vn -0.863367 0.000000 0.504576
vn -0.398207 0.000000 0.917296
vn 0.190646 0.560210 0.806113
vn 0.632736 0.555303 0.539707
vn 0.830348 0.552334 0.073815
vn 0.718018 0.555303 -0.419630
vn 0.329855 0.560210 -0.759842
vn -0.190646 0.560210 -0.806113
vn -0.632736 0.555303 -0.539707
vn -0.830348 0.552334 -0.073815
vn -0.718018 0.555303 0.419630
vn -0.329855 0.560210 0.759842
vn 0.075849 0.944135 0.320713
vn 0.253603 0.942811 0.216317
vn 0.334306 0.941996 0.029719
vn 0.287784 0.942811 -0.168189
vn 0.131233 0.944135 -0.302304
vn -0.075849 0.944135 -0.320713
vn -0.253603 0.942811 -0.216317
vn -0.334306 0.941996 -0.029719
vn -0.287784 0.942811 0.168189
vn -0.131233 0.944135 0.302304
vn 0.432940 0.834641 -0.340495
vn -0.506366 0.780135 -0.367399
vn -0.960088 0.188240 0.206872
vn -0.474504 -0.349149 0.808048
vn 0.464802 -0.294643 0.834952
vn 0.918524 0.297252 0.260680
vn 0.152462 0.919883 0.361346
vn -0.278116 0.894897 0.349013
vn -0.486102 0.623572 0.612260
vn -0.263511 0.377233 0.887839
vn 0.167068 0.402219 0.900171
vn 0.375054 0.673543 0.636925
vn -0.791436 -0.006954 0.611213
vn 0.056253 -0.179735 0.982105
vn 0.832555 0.118417 0.541138
vn 0.761167 0.589351 -0.270722
vn -0.086522 0.762132 -0.641614
vn -0.862823 0.463980 -0.200647
vn -0.396292 0.641337 0.656993
vn -0.007711 0.562134 0.827011
vn 0.348146 0.698807 0.624871
vn 0.315422 0.914683 0.252714
vn -0.073159 0.993886 0.082697
vn -0.429016 0.857213 0.284837
vn 0.793863 -0.351294 -0.496362
vn 0.833577 -0.328917 0.443805
vn 0.038998 -0.315178 0.948231
vn -0.795296 -0.323817 0.512490
vn -0.835011 -0.346193 -0.427676
vn -0.040432 -0.359932 -0.932102
vn 0.362320 -0.908161 -0.209683
vn 0.380525 -0.897904 0.221290
vn 0.016290 -0.891606 0.452519
vn -0.366151 -0.895566 0.252775
vn -0.384356 -0.905823 -0.178197
vn -0.020121 -0.912121 -0.409427
vn 0.034879 -0.975699 0.216323
vn 0.184444 -0.967699 0.171868
vn 0.262522 -0.962853 0.063220
vn 0.242464 -0.967699 -0.069060
vn 0.129533 -0.975699 -0.176729
vn -0.034879 -0.975699 -0.216323
vn -0.184444 -0.967699 -0.171868
vn -0.262522 -0.962853 -0.063220
vn -0.242464 -0.967699 0.069060
vn -0.129533 -0.975699 0.176729
vn 0.109714 -0.724525 0.680461
vn 0.542144 -0.671472 0.505178
vn 0.743777 -0.643982 0.179116
vn 0.712685 -0.671472 -0.202992
vn 0.407457 -0.724525 -0.555916
vn -0.109714 -0.724525 -0.680461
vn -0.542144 -0.671472 -0.505178
vn -0.743777 -0.643982 -0.179116
vn -0.712685 -0.671472 0.202992
vn -0.407457 -0.724525 0.555916
vn 0.159180 0.000000 0.987250
vn 0.731609 -0.000000 0.681725
vn 0.972206 -0.000000 0.234126
vn 0.961749 0.000000 -0.273932
vn 0.591161 -0.000000 -0.806553
vn -0.159180 0.000000 -0.987250
vn -0.731609 0.000000 -0.681725
vn -0.972206 0.000000 -0.234126
vn -0.961749 0.000000 0.273932
vn -0.591161 -0.000000 0.806553
vn 0.109714 0.724525 0.680461
vn 0.542144 0.671472 0.505178
vn 0.743777 0.643982 0.179116
vn 0.712685 0.671472 -0.202992
vn 0.407457 0.724525 -0.555916
vn -0.109714 0.724525 -0.680461
vn -0.542144 0.671472 -0.505178
vn -0.743777 0.643982 -0.179116
vn -0.712685 0.671472 0.202992
vn -0.407457 0.724525 0.555916
vn 0.034879 0.975699 0.216323
vn 0.184444 0.967699 0.171868
vn 0.262522 0.962853 0.063220
vn 0.242464 0.967699 -0.069060
vn 0.129533 0.975699 -0.176729
vn -0.034879 0.975699 -0.216323
vn -0.184444 0.967699 -0.171868
vn -0.262522 0.962853 -0.063220
vn -0.242464 0.967699 0.069060
vn -0.129533 0.975699 0.176729
vn -0.802185 -0.364037 0.473261
vn 0.048252 -0.570836 0.819645
vn 0.784629 -0.019707 0.619652
vn 0.670569 0.738219 0.073275
vn -0.179868 0.945018 -0.273110
vn -0.916245 0.393889 -0.073117
vn -0.513378 0.247224 0.821781
vn -0.123538 0.152427 0.980563
vn 0.214018 0.405065 0.888886
vn 0.161733 0.752498 0.638427
vn -0.228108 0.847295 0.479644
vn -0.565663 0.594657 0.571321
vn -0.603748 0.737157 -0.303460
vn -0.982432 0.026996 0.184659
vn -0.440623 -0.500351 0.745319
vn 0.479870 -0.317536 0.817860
vn 0.858554 0.392626 0.329741
vn 0.316745 0.919972 -0.230919
vn -0.413850 0.802298 0.430169
vn -0.587439 0.476760 0.653923
vn -0.339074 0.235024 0.910930
vn 0.082881 0.318827 0.944182
vn 0.256469 0.644365 0.720428
vn 0.008104 0.886101 0.463422
vn -0.938913 -0.334781 -0.079775
vn -0.395372 -0.352865 -0.848037
vn 0.541906 -0.355664 -0.761473
vn 0.935643 -0.340379 0.093354
vn 0.392102 -0.322295 0.861616
vn -0.545176 -0.319496 0.775052
vn -0.434017 -0.900647 -0.021542
vn -0.184857 -0.908937 -0.373713
vn 0.244791 -0.910220 -0.334032
vn 0.425280 -0.903213 0.057821
vn 0.176121 -0.894923 0.409992
vn -0.253528 -0.893640 0.370311
vn 0.038072 -0.979566 0.197486
vn 0.175609 -0.972401 0.153618
vn 0.245246 -0.968050 0.052282
vn 0.222991 -0.972401 -0.068644
vn 0.115302 -0.979566 -0.164790
vn -0.038072 -0.979566 -0.197486
vn -0.175609 -0.972401 -0.153618
vn -0.245246 -0.968050 -0.052282
vn -0.222991 -0.972401 0.068644
vn -0.115302 -0.979566 0.164790
vn 0.124226 -0.754540 0.644389
vn 0.536524 -0.701332 0.469335
vn 0.722868 -0.673583 0.154102
vn 0.681286 -0.701332 -0.209721
vn 0.376226 -0.754540 -0.537703
vn -0.124226 -0.754540 -0.644389
vn -0.536524 -0.701332 -0.469335
vn -0.722868 -0.673583 -0.154102
vn -0.681286 -0.701332 0.209721
vn -0.376226 -0.754540 0.537703
vn 0.189296 0.000000 0.981920
vn 0.752663 -0.000000 0.658406
vn 0.978023 -0.000000 0.208496
vn 0.955742 0.000000 -0.294207
vn 0.573292 0.000000 -0.819351
vn -0.189296 0.000000 -0.981920
vn -0.752663 -0.000000 -0.658406
vn -0.978023 0.000000 -0.208496
vn -0.955742 0.000000 0.294207
vn -0.573292 0.000000 0.819351
vn 0.124226 0.754540 0.644389
vn 0.536524 0.701332 0.469335
vn 0.722868 0.673583 0.154102
vn 0.681286 0.701332 -0.209721
vn 0.376226 0.754540 -0.537703
vn -0.124226 0.754540 -0.644389
vn -0.536524 0.701332 -0.469335
vn -0.722868 0.673583 -0.154102
vn -0.681286 0.701332 0.209721
vn -0.376226 0.754540 0.537703
vn 0.038072 0.979566 0.197486
vn 0.175609 0.972401 0.153618
vn 0.245246 0.968050 0.052282
vn 0.222991 0.972401 -0.068644
vn 0.115302 0.979566 -0.164790
vn -0.038072 0.979566 -0.197486
vn -0.175609 0.972401 -0.153618
vn -0.245246 0.968050 -0.052282
vn -0.222991 0.972401 0.068644
vn -0.115302 0.979566 0.164790
vn 0.358133 0.550331 -0.754239
vn -0.575935 0.479388 -0.662182
vn -0.951085 0.256697 0.171881
vn -0.392167 0.104948 0.913888
vn 0.541901 0.175890 0.821831
vn 0.917051 0.398581 -0.012233
vn 0.126504 0.977453 -0.169064
vn -0.301673 0.944933 -0.126865
vn -0.473642 0.842851 0.255470
vn -0.217434 0.773289 0.595606
vn 0.210743 0.805809 0.553407
vn 0.382712 0.907891 0.171072
vn 0.160571 0.114337 0.980380
vn 0.871059 0.297566 0.390782
vn 0.693233 0.510583 -0.508658
vn -0.195080 0.540370 -0.818501
vn -0.905568 0.357140 -0.228904
vn -0.727743 0.144124 0.670536
vn 0.035415 0.776960 0.628553
vn 0.361103 0.860952 0.358282
vn 0.279588 0.958599 -0.054022
vn -0.127616 0.972254 -0.196054
vn -0.453303 0.888261 0.074217
vn -0.371788 0.790614 0.486521
vn -0.906805 0.414160 0.078588
vn -0.820256 -0.502800 0.272712
vn 0.017354 -0.854776 0.518707
vn 0.768415 -0.289792 0.570578
vn 0.681866 0.627169 0.376454
vn -0.155744 0.979145 0.130459
vn -0.568832 0.327487 0.754441
vn -0.529158 -0.092848 0.843428
vn -0.145198 -0.254193 0.956192
vn 0.199089 0.004796 0.979970
vn 0.159415 0.425130 0.890983
vn -0.224546 0.586476 0.778219
vn 0.018155 -0.968382 0.248812
vn 0.179831 -0.962485 0.203182
vn 0.271910 -0.958895 0.081154
vn 0.261776 -0.962485 -0.071380
vn 0.151557 -0.968382 -0.198159
vn -0.018155 -0.968382 -0.248812
vn -0.179831 -0.962485 -0.203182
vn -0.271910 -0.958895 -0.081154
vn -0.261776 -0.962485 0.071380
vn -0.151557 -0.968382 0.198159
vn 0.053653 -0.675597 0.735317
vn 0.508136 -0.642018 0.574117
vn 0.749084 -0.623610 0.223571
vn 0.739684 -0.642018 -0.201693
vn 0.447900 -0.675597 -0.585623
vn -0.053653 -0.675597 -0.735317
vn -0.508136 -0.642018 -0.574117
vn -0.749084 -0.623610 -0.223571
vn -0.739684 -0.642018 0.201693
vn -0.447900 -0.675597 0.585623
vn 0.072772 0.000000 0.997349
vn 0.662767 0.000000 0.748826
vn 0.958232 0.000000 0.285993
vn 0.964777 0.000000 -0.263070
vn 0.607510 -0.000000 -0.794312
vn -0.072772 0.000000 -0.997349
vn -0.662767 0.000000 -0.748826
vn -0.958232 0.000000 -0.285993
vn -0.964777 0.000000 0.263070
vn -0.607510 0.000000 0.794312
vn 0.053653 0.675597 0.735317
vn 0.508136 0.642018 0.574117
vn 0.749084 0.623610 0.223571
vn 0.739684 0.642018 -0.201693
vn 0.447900 0.675597 -0.585623
vn -0.053653 0.675597 -0.735317
vn -0.508136 0.642018 -0.574117
vn -0.749084 0.623610 -0.223571
vn -0.739684 0.642018 0.201693
vn -0.447900 0.675597 0.585623
vn 0.018155 0.968382 0.248812
vn 0.179831 0.962485 0.203182
vn 0.271910 0.958895 0.081154
vn 0.261776 0.962485 -0.071380
vn 0.151557 0.968382 -0.198159
vn -0.018155 0.968382 -0.248812
vn -0.179831 0.962485 -0.203182
vn -0.271910 0.958895 -0.081154
vn -0.261776 0.962485 0.071380
vn -0.151557 0.968382 0.198159
vn 0.780673 0.444760 -0.439020
vn -0.050923 0.474105 -0.878995
vn -0.846823 0.362773 -0.388955
vn -0.811128 0.222096 0.541059
vn 0.020469 0.192751 0.981034
vn 0.816369 0.304083 0.490994
vn 0.324157 0.941871 -0.088322
vn -0.057047 0.955323 -0.290007
vn -0.421887 0.904288 -0.065372
vn -0.405525 0.839802 0.360946
vn -0.024321 0.826350 0.562631
vn 0.340520 0.877385 0.337997
vn 0.780519 -0.099864 0.617104
vn 0.051846 0.421661 0.905270
vn -0.799418 0.291705 0.525203
vn -0.922011 -0.359776 -0.143029
vn -0.193339 -0.881301 -0.431195
vn 0.657926 -0.751345 -0.051128
vn 0.201204 -0.554450 0.807528
vn -0.132820 -0.315383 0.939623
vn -0.523040 -0.374955 0.765401
vn -0.579236 -0.673594 0.459083
vn -0.245212 -0.912661 0.326987
vn 0.145008 -0.853089 0.501210
vn 0.658747 0.050085 0.750695
vn -0.196130 0.420018 0.886069
vn -0.922766 0.129809 0.362839
vn -0.794526 -0.530332 -0.295764
vn 0.060351 -0.900266 -0.431138
vn 0.786988 -0.610057 0.092092
vn 0.151707 -0.508520 0.847580
vn -0.240169 -0.338942 0.909636
vn -0.573259 -0.471974 0.669787
vn -0.514474 -0.774583 0.367883
vn -0.122598 -0.944161 0.305828
vn 0.210492 -0.811129 0.545677
vn 0.195882 0.138498 -0.970798
vn 0.498311 -0.864388 -0.067226
vn 0.988168 -0.021662 0.151841
vn 0.498311 0.848703 0.177170
vn -0.481403 0.876343 -0.016567
vn -0.971260 0.033616 -0.235634
vn -0.481403 -0.836749 -0.260963
vn -0.195882 -0.138498 0.970798
vn -0.223477 -0.020190 -0.974500
vn 0.475731 -0.868093 -0.141758
vn 0.962492 -0.005620 -0.271253
vn 0.475731 0.861476 -0.177592
vn -0.497790 0.866100 0.045566
vn -0.984551 0.003627 0.175061
vn -0.497790 -0.863469 0.081399
vn 0.223477 0.020190 0.974500
vn 0.046897 0.026787 -0.998540
vn 0.501041 -0.864296 -0.044161
vn 0.999997 -0.000066 0.002457
vn 0.501041 0.865421 0.002241
vn -0.496872 0.866677 -0.044594
vn -0.995829 0.002447 -0.091212
vn -0.496872 -0.863040 -0.090996
vn -0.046897 -0.026787 0.998540
f 1/1/1 2/2/1 3/3/1
f 1/1/2 4/4/2 2/2/2
f 1/1/3 5/5/3 4/4/3
f 1/1/4 6/6/4 5/5/4
f 1/1/5 7/7/5 6/6/5
f 1/1/6 8/8/6 7/7/6
f 1/1/7 9/9/7 8/8/7
f 1/1/8 10/10/8 9/9/8
f 1/1/9 11/11/9 10/10/9
f 1/1/10 12/12/10 11/11/10
f 1/1/11 13/13/11 12/12/11
f 1/1/12 14/14/12 13/13/12
f 1/1/13 15/15/13 14/14/13
f 1/1/14 3/3/14 15/15/14
f 3/3/15 2/2/15 16/16/15
f 3/3/15 16/16/15 17/17/15
f 2/2/16 4/4/16 18/18/16
f 2/2/16 18/18/16 16/16/16
f 4/4/17 5/5/17 19/19/17
f 4/4/17 19/19/17 18/18/17
f 5/5/18 6/6/18 20/20/18
f 5/5/18 20/20/18 19/19/18
f 6/6/19 7/7/19 21/21/19
f 6/6/19 21/21/19 20/20/19
f 7/7/20 8/8/20 22/22/20
f 7/7/20 22/22/20 21/21/20
f 8/8/21 9/9/21 23/23/21
f 8/8/21 23/23/21 22/22/21
f 9/9/22 10/10/22 24/24/22
f 9/9/22 24/24/22 23/23/22
f 10/10/23 11/11/23 25/25/23
f 10/10/23 25/25/23 24/24/23
f 11/11/24 12/12/24 26/26/24
f 11/11/24 26/26/24 25/25/24
f 12/12/25 13/13/25 27/27/25
f 12/12/25 27/27/25 26/26/25
f 13/13/26 14/14/26 28/28/26
f 13/13/26 28/28/26 27/27/26
f 14/14/27 15/15/27 29/29/27
f 14/14/27 29/29/27 28/28/27
f 15/15/28 3/3/28 17/17/28
f 15/15/28 17/17/28 29/29/28
f 17/17/29 16/16/29 30/30/29
f 17/17/29 30/30/29 31/31/29
f 16/16/30 18/18/30 32/32/30
f 16/16/30 32/32/30 30/30/30
f 18/18/31 19/19/31 33/33/31
f 18/18/31 33/33/31 32/32/31
f 19/19/32 20/20/32 34/34/32
f 19/19/32 34/34/32 33/33/32
f 20/20/33 21/21/33 35/35/33
f 20/20/33 35/35/33 34/34/33
f 21/21/34 22/22/34 36/36/34
f 21/21/34 36/36/34 35/35/34
f 22/22/35 23/23/35 37/37/35
f 22/22/35 37/37/35 36/36/35
f 23/23/36 24/24/36 38/38/36
f 23/23/36 38/38/36 37/37/36
f 24/24/37 25/25/37 39/39/37
f 24/24/37 39/39/37 38/38/37
f 25/25/38 26/26/38 40/40/38
f 25/25/38 40/40/38 39/39/38
f 26/26/39 27/27/39 41/41/39
f 26/26/39 41/41/39 40/40/39
f 27/27/40 28/28/40 42/42/40
f 27/27/40 42/42/40 41/41/40
f 28/28/41 29/29/41 43/43/41
f 28/28/41 43/43/41 42/42/41
f 29/29/42 17/17/42 31/31/42
f 29/29/42 31/31/42 43/43/42
f 31/44/43 30/45/43 44/46/43
f 31/44/43 44/46/43 45/47/43
f 30/48/44 32/49/44 46/50/44
f 30/48/44 46/50/44 44/51/44
f 32/49/45 33/52/45 47/53/45
f 32/49/45 47/53/45 46/50/45
f 33/52/46 34/54/46 48/55/46
f 33/52/46 48/55/46 47/53/46
f 34/54/47 35/56/47 49/57/47
f 34/54/47 49/57/47 48/55/47
f 35/56/48 36/58/48 50/59/48
f 35/56/48 50/59/48 49/57/48
f 36/60/49 37/61/49 51/62/49
f 36/60/49 51/62/49 50/63/49
f 37/61/50 38/64/50 52/65/50
f 37/61/50 52/65/50 51/62/50
f 38/58/51 39/56/51 53/57/51
f 38/58/51 53/57/51 52/59/51
f 39/56/52 40/54/52 54/55/52
f 39/56/52 54/55/52 53/57/52
f 40/54/53 41/52/53 55/53/53
f 40/54/53 55/53/53 54/55/53
f 41/52/54 42/49/54 56/50/54
f 41/52/54 56/50/54 55/53/54
f 42/49/55 43/48/55 57/51/55
f 42/49/55 57/51/55 56/50/55
f 43/66/56 31/44/56 45/47/56
f 43/66/56 45/47/56 57/67/56
f 45/47/57 44/46/57 58/68/57
f 45/47/57 58/68/57 59/69/57
f 44/51/58 46/50/58 60/70/58
f 44/51/58 60/70/58 58/71/58
f 46/50/59 47/53/59 61/72/59
f 46/50/59 61/72/59 60/70/59
f 47/53/60 48/55/60 62/73/60
f 47/53/60 62/73/60 61/72/60
f 48/55/61 49/57/61 63/74/61
f 48/55/61 63/74/61 62/73/61
f 49/57/62 50/59/62 64/75/62
f 49/57/62 64/75/62 63/74/62
f 50/63/63 51/62/63 65/76/63
f 50/63/63 65/76/63 64/77/63
f 51/62/64 52/65/64 66/78/64
f 51/62/64 66/78/64 65/76/64
f 52/59/65 53/57/65 67/74/65
f 52/59/65 67/74/65 66/75/65
f 53/57/66 54/55/66 68/73/66
f 53/57/66 68/73/66 67/74/66
f 54/55/67 55/53/67 69/72/67
f 54/55/67 69/72/67 68/73/67
f 55/53/68 56/50/68 70/70/68
f 55/53/68 70/70/68 69/72/68
f 56/50/69 57/51/69 71/71/69
f 56/50/69 71/71/69 70/70/69
f 57/67/70 45/47/70 59/69/70
f 57/67/70 59/69/70 71/79/70
f 59/31/71 58/30/71 72/16/71
f 59/31/71 72/16/71 73/17/71
f 58/30/72 60/32/72 74/18/72
f 58/30/72 74/18/72 72/16/72
f 60/32/73 61/33/73 75/19/73
f 60/32/73 75/19/73 74/18/73
f 61/33/74 62/34/74 76/20/74
f 61/33/74 76/20/74 75/19/74
f 62/34/75 63/35/75 77/21/75
f 62/34/75 77/21/75 76/20/75
f 63/35/76 64/36/76 78/22/76
f 63/35/76 78/22/76 77/21/76
f 64/36/77 65/37/77 79/23/77
f 64/36/77 79/23/77 78/22/77
f 65/37/78 66/38/78 80/24/78
f 65/37/78 80/24/78 79/23/78
f 66/38/79 67/39/79 81/25/79
f 66/38/79 81/25/79 80/24/79
f 67/39/80 68/40/80 82/26/80
f 67/39/80 82/26/80 81/25/80
f 68/40/81 69/41/81 83/27/81
f 68/40/81 83/27/81 82/26/81
f 69/41/82 70/42/82 84/28/82
f 69/41/82 84/28/82 83/27/82
f 70/42/83 71/43/83 85/29/83
f 70/42/83 85/29/83 84/28/83
f 71/43/84 59/31/84 73/17/84
f 71/43/84 73/17/84 85/29/84
f 73/17/85 72/16/85 86/2/85
f 73/17/85 86/2/85 87/3/85
f 72/16/86 74/18/86 88/4/86
f 72/16/86 88/4/86 86/2/86
f 74/18/87 75/19/87 89/5/87
f 74/18/87 89/5/87 88/4/87
f 75/19/88 76/20/88 90/6/88
f 75/19/88 90/6/88 89/5/88
f 76/20/89 77/21/89 91/7/89
f 76/20/89 91/7/89 90/6/89
f 77/21/90 78/22/90 92/8/90
f 77/21/90 92/8/90 91/7/90
f 78/22/91 79/23/91 93/9/91
f 78/22/91 93/9/91 92/8/91
f 79/23/92 80/24/92 94/10/92
f 79/23/92 94/10/92 93/9/92
f 80/24/93 81/25/93 95/11/93
f 80/24/93 95/11/93 94/10/93
f 81/25/94 82/26/94 96/12/94
f 81/25/94 96/12/94 95/11/94
f 82/26/95 83/27/95 97/13/95
f 82/26/95 97/13/95 96/12/95
f 83/27/96 84/28/96 98/14/96
f 83/27/96 98/14/96 97/13/96
f 84/28/97 85/29/97 99/15/97
f 84/28/97 99/15/97 98/14/97
f 85/29/98 73/17/98 87/3/98
f 85/29/98 87/3/98 99/15/98
f 87/3/99 86/2/99 100/1/99
f 86/2/100 88/4/100 100/1/100
f 88/4/101 89/5/101 100/1/101
f 89/5/102 90/6/102 100/1/102
f 90/6/103 91/7/103 100/1/103
f 91/7/104 92/8/104 100/1/104
f 92/8/105 93/9/105 100/1/105
f 93/9/106 94/10/106 100/1/106
f 94/10/107 95/11/107 100/1/107
f 95/11/108 96/12/108 100/1/108
f 96/12/109 97/13/109 100/1/109
f 97/13/110 98/14/110 100/1/110
f 98/14/111 99/15/111 100/1/111
f 99/15/112 87/3/112 100/1/112
f 101/80/113 102/81/113 103/82/113
f 101/80/114 104/83/114 102/81/114
f 101/80/115 105/84/115 104/83/115
f 101/80/116 106/85/116 105/84/116
f 101/80/117 107/86/117 106/85/117
f 101/80/118 108/87/118 107/86/118
f 101/80/119 109/88/119 108/87/119
f 101/80/120 110/89/120 109/88/120
f 101/80/121 111/90/121 110/89/121
f 101/80/122 103/82/122 111/90/122
f 103/91/123 102/92/123 112/93/123
f 103/91/123 112/93/123 113/94/123
f 102/81/124 104/83/124 114/95/124
f 102/81/124 114/95/124 112/96/124
f 104/83/125 105/84/125 115/97/125
f 104/83/125 115/97/125 114/95/125
f 105/98/126 106/99/126 116/100/126
f 105/98/126 116/100/126 115/101/126
f 106/85/127 107/86/127 117/102/127
f 106/85/127 117/102/127 116/103/127
f 107/104/128 108/105/128 118/106/128
f 107/104/128 118/106/128 117/107/128
f 108/87/129 109/88/129 119/108/129
f 108/87/129 119/108/129 118/109/129
f 109/88/130 110/89/130 120/110/130
f 109/88/130 120/110/130 119/108/130
f 110/111/131 111/112/131 121/113/131
f 110/111/131 121/113/131 120/114/131
f 111/90/132 103/82/132 113/115/132
f 111/90/132 113/115/132 121/116/132
f 113/94/133 112/93/133 122/117/133
f 113/94/133 122/117/133 123/118/133
f 112/93/134 114/119/134 124/120/134
f 112/93/134 124/120/134 122/117/134
f 114/121/135 115/101/135 125/122/135
f 114/121/135 125/122/135 124/123/135
f 115/101/136 116/100/136 126/124/136
f 115/101/136 126/124/136 125/122/136
f 116/100/137 117/125/137 127/126/137
f 116/100/137 127/126/137 126/124/137
f 117/107/138 118/106/138 128/127/138
f 117/107/138 128/127/138 127/128/138
f 118/106/139 119/129/139 129/130/139
f 118/106/139 129/130/139 128/127/139
f 119/131/140 120/114/140 130/132/140
f 119/131/140 130/132/140 129/133/140
f 120/114/141 121/113/141 131/134/141
f 120/114/141 131/134/141 130/132/141
f 121/113/142 113/135/142 123/136/142
f 121/113/142 123/136/142 131/134/142
f 123/118/143 122/117/143 132/137/143
f 123/118/143 132/137/143 133/138/143
f 122/96/144 124/95/144 134/83/144
f 122/96/144 134/83/144 132/81/144
f 124/95/145 125/97/145 135/84/145
f 124/95/145 135/84/145 134/83/145
f 125/122/146 126/124/146 136/139/146
f 125/122/146 136/139/146 135/140/146
f 126/103/147 127/102/147 137/86/147
f 126/103/147 137/86/147 136/85/147
f 127/128/148 128/127/148 138/141/148
f 127/128/148 138/141/148 137/142/148
f 128/109/149 129/108/149 139/88/149
f 128/109/149 139/88/149 138/87/149
f 129/108/150 130/110/150 140/89/150
f 129/108/150 140/89/150 139/88/150
f 130/132/151 131/134/151 141/143/151
f 130/132/151 141/143/151 140/144/151
f 131/116/152 123/115/152 133/82/152
f 131/116/152 133/82/152 141/90/152
f 133/82/153 132/81/153 142/80/153
f 132/81/154 134/83/154 142/80/154
f 134/83/155 135/84/155 142/80/155
f 135/84/156 136/85/156 142/80/156
f 136/85/157 137/86/157 142/80/157
f 137/86/158 138/87/158 142/80/158
f 138/87/159 139/88/159 142/80/159
f 139/88/160 140/89/160 142/80/160
f 140/89/161 141/90/161 142/80/161
f 141/90/162 133/82/162 142/80/162
f 143/145/163 144/146/163 145/147/163
f 143/145/163 145/147/163 146/148/163
f 144/149/164 147/150/164 148/151/164
f 144/149/164 148/151/164 145/152/164
f 147/153/165 149/154/165 150/155/165
f 147/153/165 150/155/165 148/156/165
f 149/157/166 151/158/166 152/159/166
f 149/157/166 152/159/166 150/160/166
f 151/158/167 153/161/167 154/162/167
f 151/158/167 154/162/167 152/159/167
f 153/163/168 143/145/168 146/148/168
f 153/163/168 146/148/168 154/164/168
f 146/165/169 145/152/169 155/166/169
f 145/152/170 148/151/170 155/166/170
f 148/151/171 150/167/171 155/166/171
f 150/167/172 152/168/172 155/166/172
f 152/159/173 154/162/173 155/169/173
f 154/170/174 146/165/174 155/166/174
f 156/171/175 157/172/175 158/173/175
f 156/171/175 158/173/175 159/174/175
f 157/175/176 160/176/176 161/177/176
f 157/175/176 161/177/176 158/178/176
f 160/176/177 162/179/177 163/180/177
f 160/176/177 163/180/177 161/177/177
f 162/181/178 164/182/178 165/183/178
f 162/181/178 165/183/178 163/184/178
f 164/182/179 166/185/179 167/186/179
f 164/182/179 167/186/179 165/183/179
f 166/187/180 156/171/180 159/174/180
f 166/187/180 159/174/180 167/188/180
f 159/174/181 158/173/181 168/189/181
f 158/178/182 161/177/182 168/190/182
f 161/177/183 163/180/183 168/190/183
f 163/180/184 165/191/184 168/190/184
f 165/183/185 167/186/185 168/192/185
f 167/188/186 159/174/186 168/189/186
f 169/193/187 170/194/187 171/195/187
f 169/193/187 171/195/187 172/196/187
f 170/197/188 173/198/188 174/199/188
f 170/197/188 174/199/188 171/200/188
f 173/198/189 175/201/189 176/202/189
f 173/198/189 176/202/189 174/199/189
f 175/203/190 177/204/190 178/205/190
f 175/203/190 178/205/190 176/206/190
f 177/204/191 179/207/191 180/208/191
f 177/204/191 180/208/191 178/205/191
f 179/209/192 169/210/192 172/211/192
f 179/209/192 172/211/192 180/212/192
f 172/211/193 171/213/193 181/214/193
f 171/200/194 174/199/194 181/215/194
f 174/199/195 176/202/195 181/215/195
f 176/206/196 178/205/196 181/216/196
f 178/217/197 180/212/197 181/214/197
f 180/212/198 172/211/198 181/214/198
f 182/218/199 183/219/199 184/220/199
f 182/218/200 185/221/200 183/219/200
f 182/218/201 186/222/201 185/221/201
f 182/218/202 187/223/202 186/222/202
f 182/218/203 188/224/203 187/223/203
f 182/218/204 189/225/204 188/224/204
f 182/218/205 190/226/205 189/225/205
f 182/218/206 191/227/206 190/226/206
f 182/218/207 192/228/207 191/227/207
f 182/218/208 184/220/208 192/228/208
f 184/229/209 183/230/209 193/231/209
f 184/229/209 193/231/209 194/232/209
f 183/233/210 185/234/210 195/235/210
f 183/233/210 195/235/210 193/236/210
f 185/234/211 186/237/211 196/238/211
f 185/234/211 196/238/211 195/235/211
f 186/237/212 187/239/212 197/240/212
f 186/237/212 197/240/212 196/238/212
f 187/241/213 188/242/213 198/243/213
f 187/241/213 198/243/213 197/244/213
f 188/242/214 189/245/214 199/246/214
f 188/242/214 199/246/214 198/243/214
f 189/247/215 190/248/215 200/249/215
f 189/247/215 200/249/215 199/250/215
f 190/248/216 191/251/216 201/252/216
f 190/248/216 201/252/216 200/249/216
f 191/251/217 192/253/217 202/254/217
f 191/251/217 202/254/217 201/252/217
f 192/255/218 184/229/218 194/232/218
f 192/255/218 194/232/218 202/256/218
f 194/232/219 193/231/219 203/257/219
f 194/232/219 203/257/219 204/258/219
f 193/236/220 195/235/220 205/259/220
f 193/236/220 205/259/220 203/260/220
f 195/235/221 196/238/221 206/261/221
f 195/235/221 206/261/221 205/259/221
f 196/238/222 197/240/222 207/262/222
f 196/238/222 207/262/222 206/261/222
f 197/244/223 198/243/223 208/263/223
f 197/244/223 208/263/223 207/264/223
f 198/243/224 199/246/224 209/265/224
f 198/243/224 209/265/224 208/263/224
f 199/250/225 200/249/225 210/266/225
f 199/250/225 210/266/225 209/267/225
f 200/249/226 201/252/226 211/268/226
f 200/249/226 211/268/226 210/266/226
f 201/252/227 202/254/227 212/269/227
f 201/252/227 212/269/227 211/268/227
f 202/256/228 194/232/228 204/258/228
f 202/256/228 204/258/228 212/270/228
f 204/258/229 203/257/229 213/271/229
f 204/258/229 213/271/229 214/272/229
f 203/260/230 205/259/230 215/273/230
f 203/260/230 215/273/230 213/274/230
f 205/259/231 206/261/231 216/275/231
f 205/259/231 216/275/231 215/273/231
f 206/261/232 207/262/232 217/276/232
f 206/261/232 217/276/232 216/275/232
f 207/264/233 208/263/233 218/277/233
f 207/264/233 218/277/233 217/278/233
f 208/263/234 209/265/234 219/279/234
f 208/263/234 219/279/234 218/277/234
f 209/267/235 210/266/235 220/280/235
f 209/267/235 220/280/235 219/281/235
f 210/266/236 211/268/236 221/282/236
f 210/266/236 221/282/236 220/280/236
f 211/268/237 212/269/237 222/283/237
f 211/268/237 222/283/237 221/282/237
f 212/270/238 204/258/238 214/272/238
f 212/270/238 214/272/238 222/284/238
f 214/220/239 213/219/239 223/218/239
f 213/219/240 215/221/240 223/218/240
f 215/221/241 216/222/241 223/218/241
f 216/222/242 217/223/242 223/218/242
f 217/223/243 218/224/243 223/218/243
f 218/224/244 219/225/244 223/218/244
f 219/225/245 220/226/245 223/218/245
f 220/226/246 221/227/246 223/218/246
f 221/227/247 222/228/247 223/218/247
f 222/228/248 214/220/248 223/218/248
f 224/285/249 225/286/249 226/287/249
f 224/285/249 226/287/249 227/288/249
f 225/286/250 228/289/250 229/290/250
f 225/286/250 229/290/250 226/287/250
f 228/291/251 230/292/251 231/293/251
f 228/291/251 231/293/251 229/294/251
f 230/295/252 232/296/252 233/297/252
f 230/295/252 233/297/252 231/298/252
f 232/296/253 234/299/253 235/300/253
f 232/296/253 235/300/253 233/297/253
f 234/301/254 224/302/254 227/303/254
f 234/301/254 227/303/254 235/304/254
f 227/288/255 226/287/255 236/305/255
f 226/287/256 229/290/256 236/305/256
f 229/290/257 231/306/257 236/305/257
f 231/298/258 233/297/258 236/307/258
f 233/297/259 235/300/259 236/307/259
f 235/308/260 227/288/260 236/305/260
f 237/309/261 238/310/261 239/311/261
f 237/309/261 239/311/261 240/312/261
f 238/313/262 241/314/262 242/315/262
f 238/313/262 242/315/262 239/316/262
f 241/317/263 243/318/263 244/319/263
f 241/317/263 244/319/263 242/320/263
f 243/318/264 245/321/264 246/322/264
f 243/318/264 246/322/264 244/319/264
f 245/323/265 247/324/265 248/325/265
f 245/323/265 248/325/265 246/326/265
f 247/327/266 237/309/266 240/312/266
f 247/327/266 240/312/266 248/328/266
f 240/329/267 239/316/267 249/330/267
f 239/316/268 242/315/268 249/330/268
f 242/331/269 244/332/269 249/333/269
f 244/332/270 246/326/270 249/333/270
f 246/326/271 248/325/271 249/333/271
f 248/325/272 240/334/272 249/333/272
f 250/335/273 251/336/273 252/337/273
f 250/335/273 252/337/273 253/338/273
f 251/336/274 254/339/274 255/340/274
f 251/336/274 255/340/274 252/337/274
f 254/341/275 256/342/275 257/343/275
f 254/341/275 257/343/275 255/344/275
f 256/345/276 258/346/276 259/347/276
f 256/345/276 259/347/276 257/348/276
f 258/346/277 260/349/277 261/350/277
f 258/346/277 261/350/277 259/347/277
f 260/351/278 250/352/278 253/353/278
f 260/351/278 253/353/278 261/354/278
f 253/355/279 252/356/279 262/357/279
f 252/356/280 255/358/280 262/357/280
f 255/358/281 257/359/281 262/357/281
f 257/359/282 259/360/282 262/357/282
f 259/360/283 261/361/283 262/357/283
f 261/361/284 253/355/284 262/357/284
f 263/362/285 264/363/285 265/364/285
f 263/362/286 266/365/286 264/363/286
f 263/362/287 267/366/287 266/365/287
f 263/362/288 268/367/288 267/366/288
f 263/362/289 269/368/289 268/367/289
f 263/362/290 270/369/290 269/368/290
f 263/362/291 271/370/291 270/369/291
f 263/362/292 272/371/292 271/370/292
f 263/362/293 273/372/293 272/371/293
f 263/362/294 265/364/294 273/372/294
f 265/364/295 264/363/295 274/373/295
f 265/364/295 274/373/295 275/374/295
f 264/363/296 266/365/296 276/375/296
f 264/363/296 276/375/296 274/373/296
f 266/376/297 267/377/297 277/378/297
f 266/376/297 277/378/297 276/379/297
f 267/377/298 268/380/298 278/381/298
f 267/377/298 278/381/298 277/378/298
f 268/367/299 269/368/299 279/382/299
f 268/367/299 279/382/299 278/383/299
f 269/368/300 270/369/300 280/384/300
f 269/368/300 280/384/300 279/382/300
f 270/369/301 271/370/301 281/385/301
f 270/369/301 281/385/301 280/384/301
f 271/386/302 272/387/302 282/388/302
f 271/386/302 282/388/302 281/389/302
f 272/387/303 273/390/303 283/391/303
f 272/387/303 283/391/303 282/388/303
f 273/372/304 265/364/304 275/374/304
f 273/372/304 275/374/304 283/392/304
f 275/393/305 274/394/305 284/395/305
f 275/393/305 284/395/305 285/396/305
f 274/397/306 276/379/306 286/398/306
f 274/397/306 286/398/306 284/399/306
f 276/379/307 277/378/307 287/400/307
f 276/379/307 287/400/307 286/398/307
f 277/378/308 278/381/308 288/401/308
f 277/378/308 288/401/308 287/400/308
f 278/402/309 279/403/309 289/404/309
f 278/402/309 289/404/309 288/405/309
f 279/403/310 280/406/310 290/407/310
f 279/403/310 290/407/310 289/404/310
f 280/408/311 281/389/311 291/409/311
f 280/408/311 291/409/311 290/410/311
f 281/389/312 282/388/312 292/411/312
f 281/389/312 292/411/312 291/409/312
f 282/388/313 283/391/313 293/412/313
f 282/388/313 293/412/313 292/411/313
f 283/413/314 275/393/314 285/396/314
f 283/413/314 285/396/314 293/414/314
f 285/374/315 284/373/315 294/363/315
f 285/374/315 294/363/315 295/364/315
f 284/373/316 286/375/316 296/365/316
f 284/373/316 296/365/316 294/363/316
f 286/398/317 287/400/317 297/415/317
f 286/398/317 297/415/317 296/416/317
f 287/400/318 288/401/318 298/417/318
f 287/400/318 298/417/318 297/415/318
f 288/383/319 289/382/319 299/368/319
f 288/383/319 299/368/319 298/367/319
f 289/382/320 290/384/320 300/369/320
f 289/382/320 300/369/320 299/368/320
f 290/384/321 291/385/321 301/370/321
f 290/384/321 301/370/321 300/369/321
f 291/409/322 292/411/322 302/418/322
f 291/409/322 302/418/322 301/419/322
f 292/411/323 293/412/323 303/420/323
f 292/411/323 303/420/323 302/418/323
f 293/392/324 285/374/324 295/364/324
f 293/392/324 295/364/324 303/372/324
f 295/364/325 294/363/325 304/362/325
f 294/363/326 296/365/326 304/362/326
f 296/365/327 297/366/327 304/362/327
f 297/366/328 298/367/328 304/362/328
f 298/367/329 299/368/329 304/362/329
f 299/368/330 300/369/330 304/362/330
f 300/369/331 301/370/331 304/362/331
f 301/370/332 302/371/332 304/362/332
f 302/371/333 303/372/333 304/362/333
f 303/372/334 295/364/334 304/362/334
f 305/421/335 306/422/335 307/423/335
f 305/421/335 307/423/335 308/424/335
f 306/425/336 309/426/336 310/427/336
f 306/425/336 310/427/336 307/428/336
f 309/429/337 311/430/337 312/431/337
f 309/429/337 312/431/337 310/432/337
f 311/433/338 313/434/338 314/435/338
f 311/433/338 314/435/338 312/436/338
f 313/434/339 315/437/339 316/438/339
f 313/434/339 316/438/339 314/435/339
f 315/439/340 305/421/340 308/424/340
f 315/439/340 308/424/340 316/440/340
f 308/441/341 307/428/341 317/442/341
f 307/428/342 310/427/342 317/442/342
f 310/427/343 312/443/343 317/442/343
f 312/436/344 314/435/344 317/444/344
f 314/435/345 316/438/345 317/444/345
f 316/438/346 308/445/346 317/444/346
f 318/446/347 319/447/347 320/448/347
f 318/446/347 320/448/347 321/449/347
f 319/450/348 322/451/348 323/452/348
f 319/450/348 323/452/348 320/453/348
f 322/454/349 324/455/349 325/456/349
f 322/454/349 325/456/349 323/457/349
f 324/455/350 326/458/350 327/459/350
f 324/455/350 327/459/350 325/456/350
f 326/460/351 328/461/351 329/462/351
f 326/460/351 329/462/351 327/463/351
f 328/464/352 318/446/352 321/449/352
f 328/464/352 321/449/352 329/465/352
f 321/449/353 320/448/353 330/466/353
f 320/467/354 323/457/354 330/468/354
f 323/457/355 325/456/355 330/468/355
f 325/456/356 327/459/356 330/468/356
f 327/459/357 329/469/357 330/468/357
f 329/465/358 321/449/358 330/466/358
f 331/470/359 332/471/359 333/472/359
f 331/470/359 333/472/359 334/473/359
f 332/474/360 335/475/360 336/476/360
f 332/474/360 336/476/360 333/477/360
f 335/475/361 337/478/361 338/479/361
f 335/475/361 338/479/361 336/476/361
f 337/480/362 339/481/362 340/482/362
f 337/480/362 340/482/362 338/483/362
f 339/484/363 341/485/363 342/486/363
f 339/484/363 342/486/363 340/487/363
f 341/485/364 331/488/364 334/489/364
f 341/485/364 334/489/364 342/486/364
f 334/490/365 333/491/365 343/492/365
f 333/491/366 336/493/366 343/492/366
f 336/493/367 338/494/367 343/492/367
f 338/494/368 340/495/368 343/492/368
f 340/495/369 342/496/369 343/492/369
f 342/496/370 334/490/370 343/492/370
f 344/497/371 345/498/371 346/499/371
f 344/497/372 347/500/372 345/498/372
f 344/497/373 348/501/373 347/500/373
f 344/497/374 349/502/374 348/501/374
f 344/497/375 350/503/375 349/502/375
f 344/497/376 351/504/376 350/503/376
f 344/497/377 352/505/377 351/504/377
f 344/497/378 353/506/378 352/505/378
f 344/497/379 354/507/379 353/506/379
f 344/497/380 346/499/380 354/507/380
f 346/499/381 345/498/381 355/508/381
f 346/499/381 355/508/381 356/509/381
f 345/498/382 347/500/382 357/510/382
f 345/498/382 357/510/382 355/508/382
f 347/511/383 348/512/383 358/513/383
f 347/511/383 358/513/383 357/514/383
f 348/501/384 349/502/384 359/515/384
f 348/501/384 359/515/384 358/516/384
f 349/502/385 350/503/385 360/517/385
f 349/502/385 360/517/385 359/515/385
f 350/503/386 351/504/386 361/518/386
f 350/503/386 361/518/386 360/517/386
f 351/504/387 352/505/387 362/519/387
f 351/504/387 362/519/387 361/518/387
f 352/520/388 353/521/388 363/522/388
f 352/520/388 363/522/388 362/523/388
f 353/506/389 354/507/389 364/524/389
f 353/506/389 364/524/389 363/525/389
f 354/507/390 346/499/390 356/509/390
f 354/507/390 356/509/390 364/524/390
f 356/526/391 355/527/391 365/528/391
f 356/526/391 365/528/391 366/529/391
f 355/530/392 357/514/392 367/531/392
f 355/530/392 367/531/392 365/532/392
f 357/514/393 358/513/393 368/533/393
f 357/514/393 368/533/393 367/531/393
f 358/513/394 359/534/394 369/535/394
f 358/513/394 369/535/394 368/533/394
f 359/536/395 360/537/395 370/538/395
f 359/536/395 370/538/395 369/539/395
f 360/537/396 361/540/396 371/541/396
f 360/537/396 371/541/396 370/538/396
f 361/542/397 362/523/397 372/543/397
f 361/542/397 372/543/397 371/544/397
f 362/523/398 363/522/398 373/545/398
f 362/523/398 373/545/398 372/543/398
f 363/522/399 364/546/399 374/547/399
f 363/522/399 374/547/399 373/545/399
f 364/548/400 356/526/400 366/529/400
f 364/548/400 366/529/400 374/549/400
f 366/509/401 365/508/401 375/498/401
f 366/509/401 375/498/401 376/499/401
f 365/508/402 367/510/402 377/500/402
f 365/508/402 377/500/402 375/498/402
f 367/531/403 368/533/403 378/550/403
f 367/531/403 378/550/403 377/551/403
f 368/516/404 369/515/404 379/502/404
f 368/516/404 379/502/404 378/501/404
f 369/515/405 370/517/405 380/503/405
f 369/515/405 380/503/405 379/502/405
f 370/517/406 371/518/406 381/504/406
f 370/517/406 381/504/406 380/503/406
f 371/518/407 372/519/407 382/505/407
f 371/518/407 382/505/407 381/504/407
f 372/543/408 373/545/408 383/552/408
f 372/543/408 383/552/408 382/553/408
f 373/525/409 374/524/409 384/507/409
f 373/525/409 384/507/409 383/506/409
f 374/524/410 366/509/410 376/499/410
f 374/524/410 376/499/410 384/507/410
f 376/499/411 375/498/411 385/497/411
f 375/498/412 377/500/412 385/497/412
f 377/500/413 378/501/413 385/497/413
f 378/501/414 379/502/414 385/497/414
f 379/502/415 380/503/415 385/497/415
f 380/503/416 381/504/416 385/497/416
f 381/504/417 382/505/417 385/497/417
f 382/505/418 383/506/418 385/497/418
f 383/506/419 384/507/419 385/497/419
f 384/507/420 376/499/420 385/497/420
f 386/554/421 387/555/421 388/556/421
f 386/554/421 388/556/421 389/557/421
f 387/555/422 390/558/422 391/559/422
f 387/555/422 391/559/422 388/556/422
f 390/560/423 392/561/423 393/562/423
f 390/560/423 393/562/423 391/563/423
f 392/564/424 394/565/424 395/566/424
f 392/564/424 395/566/424 393/567/424
f 394/565/425 396/568/425 397/569/425
f 394/565/425 397/569/425 395/566/425
f 396/570/426 386/571/426 389/572/426
f 396/570/426 389/572/426 397/573/426
f 389/574/427 388/575/427 398/576/427
f 388/575/428 391/577/428 398/576/428
f 391/577/429 393/578/429 398/576/429
f 393/578/430 395/579/430 398/576/430
f 395/579/431 397/580/431 398/576/431
f 397/580/432 389/574/432 398/576/432
f 399/581/433 400/582/433 401/583/433
f 399/581/433 401/583/433 402/584/433
f 400/585/434 403/586/434 404/587/434
f 400/585/434 404/587/434 401/588/434
f 403/586/435 405/589/435 406/590/435
f 403/586/435 406/590/435 404/587/435
f 405/591/436 407/592/436 408/593/436
f 405/591/436 408/593/436 406/594/436
f 407/595/437 409/596/437 410/597/437
f 407/595/437 410/597/437 408/598/437
f 409/596/438 399/599/438 402/600/438
f 409/596/438 402/600/438 410/597/438
f 402/601/439 401/602/439 411/603/439
f 401/602/440 404/604/440 411/603/440
f 404/604/441 406/605/441 411/603/441
f 406/605/442 408/606/442 411/603/442
f 408/606/443 410/607/443 411/603/443
f 410/607/444 402/601/444 411/603/444
f 412/608/445 413/609/445 414/610/445
f 412/608/445 414/610/445 415/611/445
f 413/609/446 416/612/446 417/613/446
f 413/609/446 417/613/446 414/610/446
f 416/614/447 418/615/447 419/616/447
f 416/614/447 419/616/447 417/617/447
f 418/618/448 420/619/448 421/620/448
f 418/618/448 421/620/448 419/621/448
f 420/619/449 422/622/449 423/623/449
f 420/619/449 423/623/449 421/620/449
f 422/624/450 412/625/450 415/626/450
f 422/624/450 415/626/450 423/627/450
f 415/628/451 414/629/451 424/630/451
f 414/629/452 417/631/452 424/630/452
f 417/631/453 419/632/453 424/630/453
f 419/632/454 421/633/454 424/630/454
f 421/633/455 423/634/455 424/630/455
f 423/634/456 415/628/456 424/630/456
f 425/635/457 426/636/457 427/637/457
f 425/635/458 428/638/458 426/636/458
f 425/635/459 429/639/459 428/638/459
f 425/635/460 430/640/460 429/639/460
f 425/635/461 431/641/461 430/640/461
f 425/635/462 432/642/462 431/641/462
f 425/635/463 433/643/463 432/642/463
f 425/635/464 434/644/464 433/643/464
f 425/635/465 435/645/465 434/644/465
f 425/635/466 427/637/466 435/645/466
f 427/646/467 426/647/467 436/648/467
f 427/646/467 436/648/467 437/649/467
f 426/636/468 428/638/468 438/650/468
f 426/636/468 438/650/468 436/651/468
f 428/652/469 429/653/469 439/654/469
f 428/652/469 439/654/469 438/655/469
f 429/653/470 430/656/470 440/657/470
f 429/653/470 440/657/470 439/654/470
f 430/640/471 431/641/471 441/658/471
f 430/640/471 441/658/471 440/659/471
f 431/660/472 432/661/472 442/662/472
f 431/660/472 442/662/472 441/663/472
f 432/642/473 433/643/473 443/664/473
f 432/642/473 443/664/473 442/665/473
f 433/666/474 434/667/474 444/668/474
f 433/666/474 444/668/474 443/669/474
f 434/667/475 435/670/475 445/671/475
f 434/667/475 445/671/475 444/668/475
f 435/645/476 427/637/476 437/672/476
f 435/645/476 437/672/476 445/673/476
f 437/649/477 436/648/477 446/674/477
f 437/649/477 446/674/477 447/675/477
f 436/648/478 438/676/478 448/677/478
f 436/648/478 448/677/478 446/674/478
f 438/655/479 439/654/479 449/678/479
f 438/655/479 449/678/479 448/679/479
f 439/654/480 440/657/480 450/680/480
f 439/654/480 450/680/480 449/678/480
f 440/681/481 441/663/481 451/682/481
f 440/681/481 451/682/481 450/683/481
f 441/663/482 442/662/482 452/684/482
f 441/663/482 452/684/482 451/682/482
f 442/662/483 443/685/483 453/686/483
f 442/662/483 453/686/483 452/684/483
f 443/669/484 444/668/484 454/687/484
f 443/669/484 454/687/484 453/688/484
f 444/668/485 445/671/485 455/689/485
f 444/668/485 455/689/485 454/687/485
f 445/690/486 437/649/486 447/675/486
f 445/690/486 447/675/486 455/691/486
f 447/675/487 446/674/487 456/692/487
f 447/675/487 456/692/487 457/693/487
f 446/651/488 448/650/488 458/638/488
f 446/651/488 458/638/488 456/636/488
f 448/679/489 449/678/489 459/694/489
f 448/679/489 459/694/489 458/695/489
f 449/678/490 450/680/490 460/696/490
f 449/678/490 460/696/490 459/694/490
f 450/659/491 451/658/491 461/641/491
f 450/659/491 461/641/491 460/640/491
f 451/682/492 452/684/492 462/697/492
f 451/682/492 462/697/492 461/698/492
f 452/665/493 453/664/493 463/643/493
f 452/665/493 463/643/493 462/642/493
f 453/688/494 454/687/494 464/699/494
f 453/688/494 464/699/494 463/700/494
f 454/687/495 455/689/495 465/701/495
f 454/687/495 465/701/495 464/699/495
f 455/673/496 447/672/496 457/637/496
f 455/673/496 457/637/496 465/645/496
f 457/637/497 456/636/497 466/635/497
f 456/636/498 458/638/498 466/635/498
f 458/638/499 459/639/499 466/635/499
f 459/639/500 460/640/500 466/635/500
f 460/640/501 461/641/501 466/635/501
f 461/641/502 462/642/502 466/635/502
f 462/642/503 463/643/503 466/635/503
f 463/643/504 464/644/504 466/635/504
f 464/644/505 465/645/505 466/635/505
f 465/645/506 457/637/506 466/635/506
f 467/702/507 468/703/507 469/704/507
f 467/702/507 469/704/507 470/705/507
f 468/706/508 471/707/508 472/708/508
f 468/706/508 472/708/508 469/709/508
f 471/710/509 473/711/509 474/712/509
f 471/710/509 474/712/509 472/713/509
f 473/711/510 475/714/510 476/715/510
f 473/711/510 476/715/510 474/712/510
f 475/716/511 477/717/511 478/718/511
f 475/716/511 478/718/511 476/719/511
f 477/720/512 467/702/512 470/705/512
f 477/720/512 470/705/512 478/721/512
f 470/722/513 469/723/513 479/724/513
f 469/723/514 472/725/514 479/724/514
f 472/725/515 474/726/515 479/724/515
f 474/726/516 476/727/516 479/724/516
f 476/727/517 478/728/517 479/724/517
f 478/728/518 470/722/518 479/724/518
f 480/729/519 481/730/519 482/731/519
f 480/729/519 482/731/519 483/732/519
f 481/733/520 484/734/520 485/735/520
f 481/733/520 485/735/520 482/736/520
f 484/737/521 486/738/521 487/739/521
f 484/737/521 487/739/521 485/740/521
f 486/738/522 488/741/522 489/742/522
f 486/738/522 489/742/522 487/739/522
f 488/743/523 490/744/523 491/745/523
f 488/743/523 491/745/523 489/746/523
f 490/744/524 480/747/524 483/748/524
f 490/744/524 483/748/524 491/745/524
f 483/749/525 482/736/525 492/750/525
f 482/736/526 485/735/526 492/750/526
f 485/735/527 487/751/527 492/750/527
f 487/752/528 489/746/528 492/753/528
f 489/746/529 491/745/529 492/753/529
f 491/745/530 483/748/530 492/753/530
f 493/754/531 494/755/531 495/756/531
f 493/754/531 495/756/531 496/757/531
f 494/755/532 497/758/532 498/759/532
f 494/755/532 498/759/532 495/756/532
f 497/760/533 499/761/533 500/762/533
f 497/760/533 500/762/533 498/763/533
f 499/761/534 501/764/534 502/765/534
f 499/761/534 502/765/534 500/762/534
f 501/766/535 503/767/535 504/768/535
f 501/766/535 504/768/535 502/769/535
f 503/770/536 493/771/536 496/772/536
f 503/770/536 496/772/536 504/773/536
f 496/757/537 495/756/537 505/774/537
f 495/756/538 498/759/538 505/774/538
f 498/759/539 500/775/539 505/774/539
f 500/776/540 502/769/540 505/777/540
f 502/769/541 504/768/541 505/777/541
f 504/768/542 496/778/542 505/777/542
f 506/779/543 507/780/543 508/781/543
f 506/779/543 509/782/543 507/780/543
f 506/779/543 510/783/543 509/782/543
f 506/779/543 511/784/543 510/783/543
f 506/779/543 512/785/543 511/784/543
f 506/779/543 508/781/543 512/785/543
f 508/786/544 507/787/544 513/788/544
f 508/786/544 513/788/544 514/789/544
f 507/790/545 509/791/545 515/792/545
f 507/790/545 515/792/545 513/793/545
f 509/794/546 510/795/546 516/796/546
f 509/794/546 516/796/546 515/797/546
f 510/795/547 511/798/547 517/799/547
f 510/795/547 517/799/547 516/796/547
f 511/800/548 512/801/548 518/802/548
f 511/800/548 518/802/548 517/803/548
f 512/804/549 508/786/549 514/789/549
f 512/804/549 514/789/549 518/805/549
f 514/806/550 513/807/550 519/808/550
f 513/807/550 515/809/550 519/808/550
f 515/809/550 516/810/550 519/808/550
f 516/810/550 517/811/550 519/808/550
f 517/811/550 518/812/550 519/808/550
f 518/812/550 514/806/550 519/808/550
f 520/813/551 521/814/551 522/815/551
f 520/813/551 523/816/551 521/814/551
f 520/813/551 524/817/551 523/816/551
f 520/813/551 525/818/551 524/817/551
f 520/813/551 526/819/551 525/818/551
f 520/813/551 522/815/551 526/819/551
f 522/820/552 521/821/552 527/822/552
f 522/820/552 527/822/552 528/823/552
f 521/824/553 523/825/553 529/826/553
f 521/824/553 529/826/553 527/827/553
f 523/828/554 524/829/554 530/830/554
f 523/828/554 530/830/554 529/831/554
f 524/829/555 525/832/555 531/833/555
f 524/829/555 531/833/555 530/830/555
f 525/834/556 526/835/556 532/836/556
f 525/834/556 532/836/556 531/837/556
f 526/838/557 522/820/557 528/823/557
f 526/838/557 528/823/557 532/839/557
f 528/840/558 527/841/558 533/842/558
f 527/841/558 529/843/558 533/842/558
f 529/843/558 530/844/558 533/842/558
f 530/844/558 531/845/558 533/842/558
f 531/845/558 532/846/558 533/842/558
f 532/846/558 528/840/558 533/842/558
f 534/847/559 535/848/559 536/849/559
f 534/847/559 537/850/559 535/848/559
f 534/847/559 538/851/559 537/850/559
f 534/847/559 539/852/559 538/851/559
f 534/847/559 540/853/559 539/852/559
f 534/847/559 536/849/559 540/853/559
f 536/854/560 535/855/560 541/856/560
f 536/854/560 541/856/560 542/857/560
f 535/858/561 537/859/561 543/860/561
f 535/858/561 543/860/561 541/861/561
f 537/862/562 538/863/562 544/864/562
f 537/862/562 544/864/562 543/865/562
f 538/863/563 539/866/563 545/867/563
f 538/863/563 545/867/563 544/864/563
f 539/868/564 540/869/564 546/870/564
f 539/868/564 546/870/564 545/871/564
f 540/872/565 536/854/565 542/857/565
f 540/872/565 542/857/565 546/873/565
f 542/874/566 541/875/566 547/876/566
f 541/875/566 543/877/566 547/876/566
f 543/877/566 544/878/566 547/876/566
f 544/878/566 545/879/566 547/876/566
f 545/879/566 546/880/566 547/876/566
f 546/880/566 542/874/566 547/876/566
