# Sarn carrier, fragment 7 of 8
# Generated by tools. Edit the generator script.
v -0.040567 0.146040 2.515000
v 0.040567 0.146040 2.515000
v 0.040567 0.156858 2.515000
v -0.040567 0.156858 2.515000
v 0.270445 0.115390 1.974110
v -0.270445 0.115390 1.974110
v -0.270445 0.187509 1.974110
v 0.270445 0.187509 1.974110
vt 0.508594 0.422656
vt 0.522656 0.422656
vt 0.522656 0.436719
vt 0.508594 0.436719
vt 0.195312 0.382812
vt 0.007812 0.382812
vt 0.007812 0.476562
vt 0.195312 0.476562
vt 0.080859 0.656250
vt 0.106641 0.656250
vt 0.179688 0.484375
vt 0.007812 0.484375
vt 0.007812 0.382812
vt 0.195312 0.422656
vt 0.195312 0.436719
vt 0.007812 0.476562
vn 0.000000 0.000000 1.000000
vn 0.000000 0.000000 -1.000000
vn -0.000000 0.998398 0.056576
vn 0.000000 -0.998398 0.056576
vn -0.920331 0.000000 0.391141
vn 0.920331 0.000000 0.391141
usemtl skin
f 1/1/1 2/2/1 3/3/1
f 1/1/1 3/3/1 4/4/1
f 5/5/2 6/6/2 7/7/2
f 5/5/2 7/7/2 8/8/2
f 4/9/3 3/10/3 8/11/3
f 4/9/3 8/11/3 7/12/3
f 6/12/4 5/11/4 2/10/4
f 6/12/4 2/10/4 1/9/4
f 6/13/5 1/14/5 4/15/5
f 6/13/5 4/15/5 7/16/5
f 2/14/6 5/13/6 8/16/6
f 2/14/6 8/16/6 3/15/6
