# Vaelith heavy cruiser, from tools/gen_fleet.py
# Generated by tools. Edit the generator script.
v -0.168751 0.154256 2.147059
v 0.168751 0.154256 2.147059
v 0.168751 0.228135 2.139646
v -0.168751 0.228135 2.139646
v 0.300003 0.058136 1.478308
v -0.300003 0.058136 1.478308
v -0.300003 0.189478 1.465130
v 0.300003 0.189478 1.465130
v -0.000000 0.144922 2.132920
v 0.026451 0.153474 2.132062
v 0.022907 0.160573 2.153963
v -0.000000 0.153167 2.154706
v 0.042798 0.175862 2.129815
v 0.037064 0.179962 2.152017
v 0.042798 0.203534 2.127039
v 0.037064 0.203927 2.149613
v 0.026451 0.225922 2.124793
v 0.022907 0.223315 2.147667
v -0.000000 0.234474 2.123935
v -0.000000 0.230721 2.146924
v -0.026451 0.225922 2.124793
v -0.022907 0.223315 2.147667
v -0.042798 0.203534 2.127039
v -0.037064 0.203927 2.149613
v -0.042798 0.175862 2.129815
v -0.037064 0.179962 2.152017
v -0.026451 0.153474 2.132062
v -0.022907 0.160573 2.153963
v 0.013225 0.175476 2.169021
v -0.000000 0.171201 2.169450
v 0.021399 0.186670 2.167898
v 0.021399 0.200507 2.166510
v 0.013225 0.211701 2.165387
v -0.000000 0.215976 2.164958
v -0.013225 0.211701 2.165387
v -0.021399 0.200507 2.166510
v -0.021399 0.186670 2.167898
v -0.013225 0.175476 2.169021
v -0.000000 0.194190 2.173203
v -0.240002 0.155255 1.785148
v -0.209312 0.137625 1.786917
v -0.240002 0.119994 1.788686
v -0.209312 0.172885 1.783379
v -0.240002 0.190516 1.781610
v -0.270692 0.172885 1.783379
v -0.270692 0.137625 1.786917
v -0.217269 0.180382 2.167050
v -0.240002 0.167323 2.168361
v -0.217269 0.206501 2.164430
v -0.240002 0.219561 2.163119
v -0.262735 0.206501 2.164430
v -0.262735 0.180382 2.167050
v -0.221815 0.189733 2.233952
v -0.240002 0.179285 2.235000
v -0.221815 0.210628 2.231855
v -0.240002 0.221076 2.230807
v -0.258189 0.210628 2.231855
v -0.258189 0.189733 2.233952
v 0.240002 0.155255 1.785148
v 0.270692 0.137625 1.786917
v 0.240002 0.119994 1.788686
v 0.270692 0.172885 1.783379
v 0.240002 0.190516 1.781610
v 0.209312 0.172885 1.783379
v 0.209312 0.137625 1.786917
v 0.262735 0.180382 2.167050
v 0.240002 0.167323 2.168361
v 0.262735 0.206501 2.164430
v 0.240002 0.219561 2.163119
v 0.217269 0.206501 2.164430
v 0.217269 0.180382 2.167050
v 0.258189 0.189733 2.233952
v 0.240002 0.179285 2.235000
v 0.258189 0.210628 2.231855
v 0.240002 0.221076 2.230807
v 0.221815 0.210628 2.231855
v 0.221815 0.189733 2.233952
v -0.232502 0.000000 1.991287
v 0.232502 0.000000 1.991287
v 0.232502 0.255002 1.991287
v -0.232502 0.255002 1.991287
v 0.232502 0.000000 0.633775
v -0.232502 0.000000 0.633775
v -0.232502 0.255002 0.633775
v 0.232502 0.255002 0.633775
v -0.000000 0.112501 1.177530
v -0.000000 0.112501 0.597400
v 0.096109 0.112501 0.587766
v 0.145620 0.112501 1.162933
v 0.145620 0.007500 1.162933
v 0.096109 0.007500 0.587766
v -0.000000 0.007500 0.597400
v -0.000000 0.007500 1.177530
v 0.190573 0.112501 0.559028
v 0.288748 0.112501 1.119390
v 0.288748 0.007500 1.119390
v 0.190573 0.007500 0.559028
v 0.281777 0.112501 0.511678
v 0.426935 0.112501 1.047648
v 0.426935 0.007500 1.047648
v 0.281777 0.007500 0.511678
v 0.368159 0.112501 0.446526
v 0.557817 0.112501 0.948934
v 0.557817 0.007500 0.948934
v 0.368159 0.007500 0.446526
v 0.448243 0.112501 0.364688
v 0.679155 0.112501 0.824936
v 0.679155 0.007500 0.824936
v 0.448243 0.007500 0.364688
v 0.520656 0.112501 0.267563
v 0.788873 0.112501 0.677777
v 0.788873 0.007500 0.677777
v 0.520656 0.007500 0.267563
v 0.584161 0.112501 0.156812
v 0.885093 0.112501 0.509973
v 0.885093 0.007500 0.509973
v 0.584161 0.007500 0.156812
v 0.637671 0.112501 0.034332
v 0.966168 0.112501 0.324397
v 0.966168 0.007500 0.324397
v 0.637671 0.007500 0.034332
v 0.680270 0.112501 -0.097782
v 1.030712 0.112501 0.124224
v 1.030712 0.007500 0.124224
v 0.680270 0.007500 -0.097782
v 0.711229 0.112501 -0.237270
v 1.077620 0.112501 -0.087121
v 1.077620 0.007500 -0.087121
v 0.711229 0.007500 -0.237270
v 0.730020 0.112501 -0.381745
v 1.106090 0.112501 -0.306023
v 1.106090 0.007500 -0.306023
v 0.730020 0.007500 -0.381745
v 0.736319 0.112501 -0.528735
v 1.115635 0.112501 -0.528735
v 1.115635 0.007500 -0.528735
v 0.736319 0.007500 -0.528735
v 0.730020 0.112501 -0.675725
v 1.106090 0.112501 -0.751447
v 1.106090 0.007500 -0.751447
v 0.730020 0.007500 -0.675725
v 0.711229 0.112501 -0.820200
v 1.077620 0.112501 -0.970349
v 1.077620 0.007500 -0.970349
v 0.711229 0.007500 -0.820200
v 0.680270 0.112501 -0.959688
v 1.030712 0.112501 -1.181694
v 1.030712 0.007500 -1.181694
v 0.680270 0.007500 -0.959688
v 0.637671 0.112501 -1.091802
v 0.966168 0.112501 -1.381868
v 0.966168 0.007500 -1.381868
v 0.637671 0.007500 -1.091802
v 0.584161 0.112501 -1.214283
v 0.885093 0.112501 -1.567443
v 0.885093 0.007500 -1.567443
v 0.584161 0.007500 -1.214283
v 0.520656 0.112501 -1.325033
v 0.788873 0.112501 -1.735247
v 0.788873 0.007500 -1.735247
v 0.520656 0.007500 -1.325033
v 0.448243 0.112501 -1.422158
v 0.679155 0.112501 -1.882406
v 0.679155 0.007500 -1.882406
v 0.448243 0.007500 -1.422158
v 0.368159 0.112501 -1.503996
v 0.557817 0.112501 -2.006404
v 0.557817 0.007500 -2.006404
v 0.368159 0.007500 -1.503996
v 0.281777 0.112501 -1.569148
v 0.426935 0.112501 -2.105118
v 0.426935 0.007500 -2.105118
v 0.281777 0.007500 -1.569148
v 0.190573 0.112501 -1.616498
v 0.288748 0.112501 -2.176860
v 0.288748 0.007500 -2.176860
v 0.190573 0.007500 -1.616498
v 0.096109 0.112501 -1.645236
v 0.145620 0.112501 -2.220403
v 0.145620 0.007500 -2.220403
v 0.096109 0.007500 -1.645236
v -0.000000 0.112501 -1.654870
v 0.000000 0.112501 -2.235000
v 0.000000 0.007500 -2.235000
v -0.000000 0.007500 -1.654870
v -0.096109 0.112501 -1.645236
v -0.145620 0.112501 -2.220403
v -0.145620 0.007500 -2.220403
v -0.096109 0.007500 -1.645236
v -0.190573 0.112501 -1.616498
v -0.288748 0.112501 -2.176860
v -0.288748 0.007500 -2.176860
v -0.190573 0.007500 -1.616498
v -0.281777 0.112501 -1.569148
v -0.426935 0.112501 -2.105118
v -0.426935 0.007500 -2.105118
v -0.281777 0.007500 -1.569148
v -0.368159 0.112501 -1.503996
v -0.557817 0.112501 -2.006404
v -0.557817 0.007500 -2.006404
v -0.368159 0.007500 -1.503996
v -0.448243 0.112501 -1.422158
v -0.679155 0.112501 -1.882406
v -0.679155 0.007500 -1.882406
v -0.448243 0.007500 -1.422158
v -0.520656 0.112501 -1.325033
v -0.788873 0.112501 -1.735247
v -0.788873 0.007500 -1.735247
v -0.520656 0.007500 -1.325033
v -0.584161 0.112501 -1.214283
v -0.885093 0.112501 -1.567443
v -0.885093 0.007500 -1.567443
v -0.584161 0.007500 -1.214283
v -0.637671 0.112501 -1.091802
v -0.966168 0.112501 -1.381868
v -0.966168 0.007500 -1.381868
v -0.637671 0.007500 -1.091802
v -0.680270 0.112501 -0.959688
v -1.030712 0.112501 -1.181694
v -1.030712 0.007500 -1.181694
v -0.680270 0.007500 -0.959688
v -0.711229 0.112501 -0.820200
v -1.077620 0.112501 -0.970349
v -1.077620 0.007500 -0.970349
v -0.711229 0.007500 -0.820200
v -0.730020 0.112501 -0.675725
v -1.106090 0.112501 -0.751447
v -1.106090 0.007500 -0.751447
v -0.730020 0.007500 -0.675725
v -0.736319 0.112501 -0.528735
v -1.115635 0.112501 -0.528735
v -1.115635 0.007500 -0.528735
v -0.736319 0.007500 -0.528735
v -0.730020 0.112501 -0.381745
v -1.106090 0.112501 -0.306023
v -1.106090 0.007500 -0.306023
v -0.730020 0.007500 -0.381745
v -0.711229 0.112501 -0.237270
v -1.077620 0.112501 -0.087121
v -1.077620 0.007500 -0.087121
v -0.711229 0.007500 -0.237270
v -0.680270 0.112501 -0.097782
v -1.030712 0.112501 0.124224
v -1.030712 0.007500 0.124224
v -0.680270 0.007500 -0.097782
v -0.637671 0.112501 0.034332
v -0.966168 0.112501 0.324397
v -0.966168 0.007500 0.324397
v -0.637671 0.007500 0.034332
v -0.584161 0.112501 0.156812
v -0.885093 0.112501 0.509973
v -0.885093 0.007500 0.509973
v -0.584161 0.007500 0.156812
v -0.520656 0.112501 0.267563
v -0.788873 0.112501 0.677777
v -0.788873 0.007500 0.677777
v -0.520656 0.007500 0.267563
v -0.448243 0.112501 0.364688
v -0.679155 0.112501 0.824936
v -0.679155 0.007500 0.824936
v -0.448243 0.007500 0.364688
v -0.368159 0.112501 0.446526
v -0.557817 0.112501 0.948934
v -0.557817 0.007500 0.948934
v -0.368159 0.007500 0.446526
v -0.281777 0.112501 0.511678
v -0.426935 0.112501 1.047648
v -0.426935 0.007500 1.047648
v -0.281777 0.007500 0.511678
v -0.190573 0.112501 0.559028
v -0.288748 0.112501 1.119390
v -0.288748 0.007500 1.119390
v -0.190573 0.007500 0.559028
v -0.096109 0.112501 0.587766
v -0.145620 0.112501 1.162933
v -0.145620 0.007500 1.162933
v -0.096109 0.007500 0.587766
v 0.850048 0.060001 -1.019511
v 0.831298 0.060001 -1.051987
v 0.850048 0.022500 -1.019511
v 0.850048 0.097501 -1.019511
v 0.868798 0.060001 -0.987034
v 1.174811 0.060001 -1.207012
v -0.850048 0.060001 -1.019511
v -0.868798 0.060001 -0.987034
v -0.850048 0.022500 -1.019511
v -0.850048 0.097501 -1.019511
v -0.831298 0.060001 -1.051987
v -1.174811 0.060001 -1.207012
v -0.666943 0.126001 0.161271
v -0.475692 0.126001 0.161271
v -0.475692 0.279002 0.161271
v -0.666943 0.279002 0.161271
v -0.490317 0.137701 -1.218741
v -0.652318 0.137701 -1.218741
v -0.652318 0.267302 -1.218741
v -0.490317 0.267302 -1.218741
v -0.599443 0.276752 -0.100931
v -0.543192 0.276752 -0.100931
v -0.543192 0.303753 -0.100931
v -0.599443 0.303753 -0.100931
v -0.543192 0.276752 -0.956539
v -0.599443 0.276752 -0.956539
v -0.599443 0.303753 -0.956539
v -0.543192 0.303753 -0.956539
v -0.633193 0.151876 -1.023289
v -0.509442 0.151876 -1.023289
v -0.509442 0.253127 -1.023289
v -0.633193 0.253127 -1.023289
v -0.509442 0.151876 -1.050290
v -0.633193 0.151876 -1.050290
v -0.633193 0.253127 -1.050290
v -0.509442 0.253127 -1.050290
v 0.475692 0.126001 0.161271
v 0.666943 0.126001 0.161271
v 0.666943 0.279002 0.161271
v 0.475692 0.279002 0.161271
v 0.652318 0.137701 -1.218741
v 0.490317 0.137701 -1.218741
v 0.490317 0.267302 -1.218741
v 0.652318 0.267302 -1.218741
v 0.543192 0.276752 -0.100931
v 0.599443 0.276752 -0.100931
v 0.599443 0.303753 -0.100931
v 0.543192 0.303753 -0.100931
v 0.599443 0.276752 -0.956539
v 0.543192 0.276752 -0.956539
v 0.543192 0.303753 -0.956539
v 0.599443 0.303753 -0.956539
v 0.509442 0.151876 -1.023289
v 0.633193 0.151876 -1.023289
v 0.633193 0.253127 -1.023289
v 0.509442 0.253127 -1.023289
v 0.633193 0.151876 -1.050290
v 0.509442 0.151876 -1.050290
v 0.509442 0.253127 -1.050290
v 0.633193 0.253127 -1.050290
v -0.571318 0.112501 0.146271
v -0.518416 0.129690 0.146271
v -0.525504 0.139445 0.191271
v -0.571318 0.124559 0.191271
v -0.485722 0.174690 0.146271
v -0.497189 0.178416 0.191271
v -0.485722 0.230314 0.146271
v -0.497189 0.226587 0.191271
v -0.518416 0.275314 0.146271
v -0.525504 0.265559 0.191271
v -0.571318 0.292503 0.146271
v -0.571318 0.280445 0.191271
v -0.624219 0.275314 0.146271
v -0.617131 0.265559 0.191271
v -0.656913 0.230314 0.146271
v -0.645446 0.226587 0.191271
v -0.656913 0.174690 0.146271
v -0.645446 0.178416 0.191271
v -0.624219 0.129690 0.146271
v -0.617131 0.139445 0.191271
v -0.544867 0.166096 0.224214
v -0.571318 0.157501 0.224214
v -0.528520 0.188596 0.224214
v -0.528520 0.216408 0.224214
v -0.544867 0.238908 0.224214
v -0.571318 0.247502 0.224214
v -0.597768 0.238908 0.224214
v -0.614115 0.216408 0.224214
v -0.614115 0.188596 0.224214
v -0.597768 0.166096 0.224214
v -0.571318 0.202502 0.236272
v -0.886320 0.097501 -0.416234
v -0.631318 0.097501 -0.416234
v -0.631318 0.217502 -0.416234
v -0.886320 0.217502 -0.416234
v -0.631318 0.097501 -0.641236
v -0.886320 0.097501 -0.641236
v -0.886320 0.217502 -0.641236
v -0.631318 0.217502 -0.641236
v 0.571318 0.112501 0.146271
v 0.624219 0.129690 0.146271
v 0.617131 0.139445 0.191271
v 0.571318 0.124559 0.191271
v 0.656913 0.174690 0.146271
v 0.645446 0.178416 0.191271
v 0.656913 0.230314 0.146271
v 0.645446 0.226587 0.191271
v 0.624219 0.275314 0.146271
v 0.617131 0.265559 0.191271
v 0.571318 0.292503 0.146271
v 0.571318 0.280445 0.191271
v 0.518416 0.275314 0.146271
v 0.525504 0.265559 0.191271
v 0.485722 0.230314 0.146271
v 0.497189 0.226587 0.191271
v 0.485722 0.174690 0.146271
v 0.497189 0.178416 0.191271
v 0.518416 0.129690 0.146271
v 0.525504 0.139445 0.191271
v 0.597768 0.166096 0.224214
v 0.571318 0.157501 0.224214
v 0.614115 0.188596 0.224214
v 0.614115 0.216408 0.224214
v 0.597768 0.238908 0.224214
v 0.571318 0.247502 0.224214
v 0.544867 0.238908 0.224214
v 0.528520 0.216408 0.224214
v 0.528520 0.188596 0.224214
v 0.544867 0.166096 0.224214
v 0.571318 0.202502 0.236272
v 0.631318 0.097501 -0.416234
v 0.886320 0.097501 -0.416234
v 0.886320 0.217502 -0.416234
v 0.631318 0.217502 -0.416234
v 0.886320 0.097501 -0.641236
v 0.631318 0.097501 -0.641236
v 0.631318 0.217502 -0.641236
v 0.886320 0.217502 -0.641236
vt 0.489258 0.435820
vt 0.541992 0.435820
vt 0.541992 0.476562
vt 0.489258 0.476562
vt 0.195312 0.382812
vt 0.007812 0.382812
vt 0.007812 0.455244
vt 0.195312 0.455244
vt 0.045410 0.654382
vt 0.142090 0.654382
vt 0.179688 0.484375
vt 0.007812 0.484375
vt 0.007812 0.487696
vt 0.179688 0.487696
vt 0.142090 0.656250
vt 0.045410 0.656250
vt 0.011436 0.382812
vt 0.195312 0.435820
vt 0.193274 0.476562
vt 0.007812 0.455244
vt 0.054688 0.298347
vt 0.083658 0.296715
vt 0.079777 0.338389
vt 0.054688 0.339803
vt 0.023277 0.290202
vt 0.019003 0.313640
vt 0.061250 0.317932
vt 0.064951 0.297635
vt 0.013719 0.342610
vt 0.056674 0.343021
vt 0.009445 0.366048
vt 0.052972 0.363319
vt 0.083658 0.282883
vt 0.054688 0.281250
vt 0.054688 0.324996
vt 0.079777 0.326410
vt 0.025717 0.282883
vt 0.029598 0.326410
vt 0.025717 0.296715
vt 0.029598 0.338389
vt 0.054688 0.289882
vt 0.079777 0.297635
vt 0.069173 0.313237
vt 0.054688 0.308761
vt 0.095282 0.317932
vt 0.078125 0.324955
vt 0.088827 0.339441
vt 0.091469 0.324955
vt 0.095282 0.343021
vt 0.079777 0.363319
vt 0.069173 0.351159
vt 0.078125 0.339441
vt 0.054688 0.359311
vt 0.069173 0.360127
vt 0.040202 0.360127
vt 0.029598 0.363319
vt 0.014093 0.343021
vt 0.031250 0.339441
vt 0.040202 0.351159
vt 0.014093 0.317932
vt 0.029598 0.297635
vt 0.040202 0.313237
vt 0.031250 0.324955
vt 0.054688 0.332828
vt 0.054688 0.355636
vt 0.718750 0.415516
vt 0.765625 0.399164
vt 0.718750 0.382812
vt 0.765625 0.431867
vt 0.718750 0.448219
vt 0.671875 0.431867
vt 0.671875 0.399164
vt 0.617188 0.384276
vt 0.664062 0.383910
vt 0.651910 0.462512
vt 0.617188 0.462783
vt 0.672972 0.399164
vt 0.672241 0.431867
vt 0.751033 0.463045
vt 0.751575 0.438820
vt 0.664062 0.383178
vt 0.617188 0.382812
vt 0.617188 0.461699
vt 0.651910 0.461970
vt 0.570312 0.383178
vt 0.582465 0.461970
vt 0.570312 0.383910
vt 0.582465 0.462512
vt 0.644965 0.476346
vt 0.617188 0.476562
vt 0.764975 0.466873
vt 0.765408 0.447493
vt 0.617188 0.475695
vt 0.644965 0.475912
vt 0.589410 0.475912
vt 0.589410 0.476346
vt 0.718750 0.415516
vt 0.765625 0.399164
vt 0.718750 0.382812
vt 0.765625 0.431867
vt 0.718750 0.448219
vt 0.671875 0.431867
vt 0.671875 0.399164
vt 0.617188 0.384276
vt 0.664062 0.383910
vt 0.651910 0.462512
vt 0.617188 0.462783
vt 0.672972 0.399164
vt 0.672241 0.431867
vt 0.751033 0.463045
vt 0.751575 0.438820
vt 0.664062 0.383178
vt 0.617188 0.382812
vt 0.617188 0.461699
vt 0.651910 0.461970
vt 0.570312 0.383178
vt 0.582465 0.461970
vt 0.570312 0.383910
vt 0.582465 0.462512
vt 0.644965 0.476346
vt 0.617188 0.476562
vt 0.764975 0.466873
vt 0.765408 0.447493
vt 0.617188 0.475695
vt 0.644965 0.475912
vt 0.589410 0.475912
vt 0.589410 0.476346
vt 0.203125 0.382812
vt 0.328125 0.382812
vt 0.328125 0.476562
vt 0.203125 0.476562
vt 0.460938 0.382812
vt 0.335938 0.382812
vt 0.335938 0.476562
vt 0.460938 0.476562
vt 0.343750 0.992188
vt 0.546875 0.992188
vt 0.546875 0.664062
vt 0.343750 0.664062
vt 0.109375 0.296875
vt 0.484375 0.296875
vt 0.484375 0.375000
vt 0.109375 0.375000
vt 0.718750 0.273438
vt 0.718750 0.262813
vt 0.729518 0.262636
vt 0.735066 0.273170
vt 0.531941 0.132812
vt 0.515625 0.132812
vt 0.515625 0.101562
vt 0.531941 0.101562
vt 0.515625 0.132812
vt 0.526393 0.132812
vt 0.526393 0.101562
vt 0.515625 0.101562
vt 0.740103 0.262110
vt 0.751102 0.272373
vt 0.547977 0.132812
vt 0.547977 0.101562
vt 0.536978 0.132812
vt 0.536978 0.101562
vt 0.750321 0.261243
vt 0.766585 0.271059
vt 0.563460 0.132812
vt 0.563460 0.101562
vt 0.547196 0.132812
vt 0.547196 0.101562
vt 0.760000 0.260049
vt 0.781250 0.269251
vt 0.578125 0.132812
vt 0.578125 0.101562
vt 0.556875 0.132812
vt 0.556875 0.101562
vt 0.768973 0.258550
vt 0.794845 0.266980
vt 0.614794 0.132812
vt 0.623878 0.132812
vt 0.623878 0.101562
vt 0.614794 0.101562
vt 0.587072 0.132812
vt 0.581077 0.132812
vt 0.581077 0.101562
vt 0.587072 0.101562
vt 0.777086 0.256772
vt 0.807138 0.264285
vt 0.604013 0.132812
vt 0.604013 0.101562
vt 0.573961 0.132812
vt 0.573961 0.101562
vt 0.784202 0.254743
vt 0.817919 0.261211
vt 0.591720 0.132812
vt 0.591720 0.101562
vt 0.565848 0.132812
vt 0.565848 0.101562
vt 0.790197 0.252500
vt 0.827003 0.257812
vt 0.578125 0.132812
vt 0.578125 0.101562
vt 0.556875 0.132812
vt 0.556875 0.101562
vt 0.794970 0.250080
vt 0.834235 0.254146
vt 0.563460 0.132812
vt 0.563460 0.101562
vt 0.547196 0.132812
vt 0.547196 0.101562
vt 0.798439 0.247526
vt 0.839491 0.250276
vt 0.547977 0.132812
vt 0.547977 0.101562
vt 0.536978 0.132812
vt 0.536978 0.101562
vt 0.800544 0.244880
vt 0.842681 0.246266
vt 0.531941 0.132812
vt 0.531941 0.101562
vt 0.526393 0.132812
vt 0.526393 0.101562
vt 0.801250 0.242188
vt 0.843750 0.242188
vt 0.515625 0.132812
vt 0.515625 0.101562
vt 0.800544 0.239495
vt 0.842681 0.238109
vt 0.499309 0.132812
vt 0.499309 0.101562
vt 0.504857 0.132812
vt 0.504857 0.101562
vt 0.798439 0.236849
vt 0.839491 0.234099
vt 0.483273 0.132812
vt 0.483273 0.101562
vt 0.494272 0.132812
vt 0.494272 0.101562
vt 0.794970 0.234295
vt 0.834235 0.230229
vt 0.467790 0.132812
vt 0.467790 0.101562
vt 0.484054 0.132812
vt 0.484054 0.101562
vt 0.790197 0.231875
vt 0.827003 0.226562
vt 0.453125 0.132812
vt 0.453125 0.101562
vt 0.474375 0.132812
vt 0.474375 0.101562
vt 0.784202 0.229632
vt 0.817919 0.223164
vt 0.439530 0.132812
vt 0.439530 0.101562
vt 0.465402 0.132812
vt 0.465402 0.101562
vt 0.777086 0.227603
vt 0.807138 0.220090
vt 0.427237 0.132812
vt 0.427237 0.101562
vt 0.457289 0.132812
vt 0.457289 0.101562
vt 0.768973 0.225825
vt 0.794845 0.217395
vt 0.416456 0.132812
vt 0.416456 0.101562
vt 0.450173 0.132812
vt 0.450173 0.101562
vt 0.760000 0.224326
vt 0.781250 0.215124
vt 0.407372 0.132812
vt 0.407372 0.101562
vt 0.444178 0.132812
vt 0.444178 0.101562
vt 0.750321 0.223132
vt 0.766585 0.213316
vt 0.563460 0.132812
vt 0.578125 0.132812
vt 0.578125 0.101562
vt 0.563460 0.101562
vt 0.556875 0.132812
vt 0.547196 0.132812
vt 0.547196 0.101562
vt 0.556875 0.101562
vt 0.740103 0.222265
vt 0.751102 0.212002
vt 0.547977 0.132812
vt 0.547977 0.101562
vt 0.536978 0.132812
vt 0.536978 0.101562
vt 0.729518 0.221739
vt 0.735066 0.211205
vt 0.531941 0.132812
vt 0.531941 0.101562
vt 0.526393 0.132812
vt 0.526393 0.101562
vt 0.718750 0.221562
vt 0.718750 0.210938
vt 0.707982 0.221739
vt 0.702434 0.211205
vt 0.499309 0.132812
vt 0.499309 0.101562
vt 0.504857 0.132812
vt 0.504857 0.101562
vt 0.697397 0.222265
vt 0.686398 0.212002
vt 0.483273 0.132812
vt 0.483273 0.101562
vt 0.494272 0.132812
vt 0.494272 0.101562
vt 0.687179 0.223132
vt 0.670915 0.213316
vt 0.467790 0.132812
vt 0.467790 0.101562
vt 0.484054 0.132812
vt 0.484054 0.101562
vt 0.677500 0.224326
vt 0.656250 0.215124
vt 0.453125 0.132812
vt 0.453125 0.101562
vt 0.474375 0.132812
vt 0.474375 0.101562
vt 0.668527 0.225825
vt 0.642655 0.217395
vt 0.660414 0.227603
vt 0.630362 0.220090
vt 0.653298 0.229632
vt 0.619581 0.223164
vt 0.647303 0.231875
vt 0.610497 0.226562
vt 0.642530 0.234295
vt 0.603265 0.230229
vt 0.639061 0.236849
vt 0.598009 0.234099
vt 0.636956 0.239495
vt 0.594819 0.238109
vt 0.636250 0.242188
vt 0.593750 0.242188
vt 0.636956 0.244880
vt 0.594819 0.246266
vt 0.639061 0.247526
vt 0.598009 0.250276
vt 0.642530 0.250080
vt 0.603265 0.254146
vt 0.647303 0.252500
vt 0.610497 0.257812
vt 0.653298 0.254743
vt 0.619581 0.261211
vt 0.660414 0.256772
vt 0.630362 0.264285
vt 0.668527 0.258550
vt 0.642655 0.266980
vt 0.677500 0.260049
vt 0.656250 0.269251
vt 0.687179 0.261243
vt 0.670915 0.271059
vt 0.467790 0.132812
vt 0.453125 0.132812
vt 0.453125 0.101562
vt 0.467790 0.101562
vt 0.474375 0.132812
vt 0.484054 0.132812
vt 0.484054 0.101562
vt 0.474375 0.101562
vt 0.697397 0.262110
vt 0.686398 0.272373
vt 0.483273 0.132812
vt 0.483273 0.101562
vt 0.494272 0.132812
vt 0.494272 0.101562
vt 0.707982 0.262636
vt 0.702434 0.273170
vt 0.499309 0.132812
vt 0.499309 0.101562
vt 0.504857 0.132812
vt 0.504857 0.101562
vt 0.751784 0.429688
vt 0.737944 0.429688
vt 0.751784 0.382812
vt 0.751784 0.476562
vt 0.765625 0.429688
vt 0.575430 0.462722
vt 0.570312 0.448881
vt 0.664062 0.382812
vt 0.580547 0.476562
vt 0.751784 0.429688
vt 0.765625 0.429688
vt 0.751784 0.382812
vt 0.751784 0.476562
vt 0.737944 0.429688
vt 0.658945 0.462722
vt 0.653828 0.476562
vt 0.570312 0.382812
vt 0.664062 0.448881
vt 0.390625 0.195312
vt 0.484375 0.195312
vt 0.484375 0.262559
vt 0.390625 0.262559
vt 0.578768 0.200455
vt 0.499357 0.200455
vt 0.499357 0.257417
vt 0.578768 0.257417
vt 0.554688 0.992188
vt 0.625000 0.992188
vt 0.619623 0.664062
vt 0.560064 0.664062
vt 0.492188 0.302017
vt 0.867188 0.296875
vt 0.867188 0.364122
vt 0.492188 0.358979
vt 0.382812 0.195312
vt 0.354136 0.200455
vt 0.354136 0.257417
vt 0.382812 0.262559
vt 0.423713 0.261570
vt 0.451287 0.261570
vt 0.451287 0.273438
vt 0.423713 0.273438
vt 0.552849 0.261570
vt 0.525276 0.261570
vt 0.525276 0.273438
vt 0.552849 0.273438
vt 0.579504 0.929844
vt 0.600184 0.929844
vt 0.600184 0.726406
vt 0.579504 0.726406
vt 0.563438 0.363133
vt 0.795937 0.363133
vt 0.795937 0.375000
vt 0.563438 0.375000
vt 0.250460 0.261570
vt 0.250460 0.273438
vt 0.407169 0.206685
vt 0.467831 0.206685
vt 0.467831 0.251187
vt 0.407169 0.251187
vt 0.569393 0.206685
vt 0.508732 0.206685
vt 0.508732 0.251187
vt 0.569393 0.251187
vt 0.567096 0.710535
vt 0.612592 0.710535
vt 0.612592 0.704115
vt 0.567096 0.704115
vt 0.537962 0.308248
vt 0.545299 0.308248
vt 0.545299 0.352749
vt 0.537962 0.352749
vt 0.316636 0.206685
vt 0.316636 0.251187
vt 0.390625 0.195312
vt 0.484375 0.195312
vt 0.484375 0.262559
vt 0.390625 0.262559
vt 0.578768 0.200455
vt 0.499357 0.200455
vt 0.499357 0.257417
vt 0.578768 0.257417
vt 0.554688 0.992188
vt 0.625000 0.992188
vt 0.619623 0.664062
vt 0.560064 0.664062
vt 0.036489 0.200455
vt 0.007812 0.195312
vt 0.007812 0.262559
vt 0.036489 0.257417
vt 0.867188 0.296875
vt 0.492188 0.302017
vt 0.492188 0.358979
vt 0.867188 0.364122
vt 0.423713 0.261570
vt 0.451287 0.261570
vt 0.451287 0.273438
vt 0.423713 0.273438
vt 0.552849 0.261570
vt 0.525276 0.261570
vt 0.525276 0.273438
vt 0.552849 0.273438
vt 0.579504 0.929844
vt 0.600184 0.929844
vt 0.600184 0.726406
vt 0.579504 0.726406
vt 0.140165 0.261570
vt 0.140165 0.273438
vt 0.795937 0.363133
vt 0.563438 0.363133
vt 0.563438 0.375000
vt 0.795937 0.375000
vt 0.407169 0.206685
vt 0.467831 0.206685
vt 0.467831 0.251187
vt 0.407169 0.251187
vt 0.569393 0.206685
vt 0.508732 0.206685
vt 0.508732 0.251187
vt 0.569393 0.251187
vt 0.567096 0.710535
vt 0.612592 0.710535
vt 0.612592 0.704115
vt 0.567096 0.704115
vt 0.073989 0.206685
vt 0.073989 0.251187
vt 0.545299 0.308248
vt 0.537962 0.308248
vt 0.537962 0.352749
vt 0.545299 0.352749
vt 0.054687 0.281250
vt 0.083658 0.281250
vt 0.079777 0.328125
vt 0.054687 0.328125
vt 0.007812 0.290202
vt 0.007812 0.313640
vt 0.054687 0.315580
vt 0.054687 0.295283
vt 0.007812 0.342610
vt 0.054687 0.340670
vt 0.007812 0.366048
vt 0.054687 0.360967
vt 0.025717 0.281250
vt 0.029598 0.328125
vt 0.069173 0.362440
vt 0.054687 0.362440
vt 0.079777 0.295283
vt 0.095282 0.315580
vt 0.078125 0.320882
vt 0.069173 0.309164
vt 0.089002 0.335368
vt 0.089002 0.320882
vt 0.095282 0.340670
vt 0.079777 0.360967
vt 0.069173 0.347086
vt 0.078125 0.335368
vt 0.054687 0.368720
vt 0.029598 0.360967
vt 0.040202 0.347086
vt 0.040202 0.362440
vt 0.014093 0.340670
vt 0.031250 0.335368
vt 0.014093 0.315580
vt 0.029598 0.295283
vt 0.040202 0.309164
vt 0.031250 0.320882
vt 0.054687 0.304688
vt 0.054687 0.328125
vt 0.054687 0.351562
vt 0.187500 0.484375
vt 0.312500 0.484375
vt 0.312500 0.656250
vt 0.187500 0.656250
vt 0.312500 0.484375
vt 0.187500 0.484375
vt 0.187500 0.656250
vt 0.312500 0.656250
vt 0.320312 0.656250
vt 0.382812 0.656250
vt 0.382812 0.484375
vt 0.320312 0.484375
vt 0.187500 0.484375
vt 0.312500 0.484375
vt 0.312500 0.656250
vt 0.187500 0.656250
vt 0.054688 0.281250
vt 0.083658 0.281250
vt 0.079777 0.328125
vt 0.054688 0.328125
vt 0.007812 0.290202
vt 0.007812 0.313640
vt 0.054687 0.315580
vt 0.054687 0.295283
vt 0.007812 0.342610
vt 0.054687 0.340670
vt 0.007812 0.366048
vt 0.054687 0.360967
vt 0.025717 0.281250
vt 0.029598 0.328125
vt 0.069173 0.362440
vt 0.054688 0.362440
vt 0.079777 0.295283
vt 0.095282 0.315580
vt 0.078125 0.320882
vt 0.069173 0.309164
vt 0.089002 0.335368
vt 0.089002 0.320882
vt 0.095282 0.340670
vt 0.079777 0.360967
vt 0.069173 0.347086
vt 0.078125 0.335368
vt 0.040202 0.362440
vt 0.029598 0.360967
vt 0.014093 0.340670
vt 0.031250 0.335368
vt 0.040202 0.347086
vt 0.014093 0.315580
vt 0.029598 0.295283
vt 0.040202 0.309164
vt 0.031250 0.320882
vt 0.054688 0.304688
vt 0.054688 0.328125
vt 0.054688 0.351562
vt 0.187500 0.484375
vt 0.312500 0.484375
vt 0.312500 0.656250
vt 0.187500 0.656250
vt 0.312500 0.484375
vt 0.187500 0.484375
vt 0.187500 0.656250
vt 0.312500 0.656250
vt 0.320312 0.656250
vt 0.382812 0.656250
vt 0.382812 0.484375
vt 0.320312 0.484375
vt 0.187500 0.484375
vt 0.312500 0.484375
vt 0.312500 0.656250
vt 0.187500 0.656250
vn -0.000000 0.099833 0.995004
vn -0.000000 -0.099833 -0.995004
vn 0.000000 0.998362 -0.057217
vn 0.000000 -0.989828 0.142267
vn -0.981615 0.019055 0.189916
vn 0.981615 0.019055 0.189916
vn 0.299447 -0.892345 0.337716
vn 0.783962 -0.542083 0.302572
vn 0.969030 0.024653 0.245709
vn 0.783962 0.591389 0.188846
vn 0.299447 0.941651 0.153702
vn -0.299447 0.941651 0.153702
vn -0.783962 0.591389 0.188846
vn -0.969030 0.024653 0.245709
vn -0.783962 -0.542083 0.302572
vn -0.299447 -0.892345 0.337716
vn 0.223919 -0.616908 0.754509
vn 0.586227 -0.354991 0.728230
vn 0.724617 0.068800 0.685709
vn 0.586227 0.492592 0.643188
vn 0.223919 0.754509 0.616908
vn -0.223919 0.754509 0.616908
vn -0.586227 0.492592 0.643188
vn -0.724617 0.068800 0.685709
vn -0.586227 -0.354991 0.728230
vn -0.223919 -0.616908 0.754509
vn 0.083800 -0.160528 0.983468
vn 0.219390 -0.062508 0.973633
vn 0.271181 0.096092 0.957720
vn 0.219390 0.254693 0.941807
vn 0.083800 0.352713 0.931972
vn -0.083800 0.352713 0.931972
vn -0.219390 0.254693 0.941807
vn -0.271181 0.096092 0.957720
vn -0.219390 -0.062508 0.973633
vn -0.083800 -0.160528 0.983468
vn -0.000000 -0.099833 -0.995004
vn 0.499892 -0.859436 0.107133
vn 0.999784 0.002076 0.020693
vn 0.499892 0.863589 -0.065746
vn -0.499892 0.863589 -0.065746
vn -0.999784 0.002076 0.020693
vn -0.499892 -0.859436 0.107133
vn 0.498870 -0.853041 0.153132
vn 0.997739 0.006709 0.066870
vn 0.498870 0.866460 -0.019393
vn -0.498870 0.866460 -0.019393
vn -0.997739 0.006709 0.066870
vn -0.498870 -0.853041 0.153132
vn -0.000000 -0.099833 -0.995004
vn 0.499892 -0.859436 0.107133
vn 0.999784 0.002076 0.020693
vn 0.499892 0.863589 -0.065746
vn -0.499892 0.863589 -0.065746
vn -0.999784 0.002076 0.020693
vn -0.499892 -0.859436 0.107133
vn 0.498870 -0.853041 0.153132
vn 0.997739 0.006709 0.066870
vn 0.498870 0.866460 -0.019393
vn -0.498870 0.866460 -0.019393
vn -0.997739 0.006709 0.066870
vn -0.498870 -0.853041 0.153132
vn 0.000000 0.000000 1.000000
vn 0.000000 0.000000 -1.000000
vn -0.000000 1.000000 0.000000
vn 0.000000 -1.000000 0.000000
vn -1.000000 0.000000 0.000000
vn 1.000000 0.000000 0.000000
vn 0.000000 -1.000000 0.000000
vn 0.000000 1.000000 0.000000
vn 0.099743 0.000000 0.995013
vn -0.099743 0.000000 -0.995013
vn 0.291049 0.000000 0.956708
vn -0.291049 0.000000 -0.956708
vn 0.460770 0.000000 0.887520
vn -0.460770 0.000000 -0.887520
vn 0.602155 0.000000 0.798379
vn -0.602155 0.000000 -0.798379
vn 0.714731 0.000000 0.699400
vn -0.714731 0.000000 -0.699400
vn 0.801702 0.000000 0.597724
vn -0.801702 0.000000 -0.597724
vn 0.867503 0.000000 0.497433
vn -0.867503 0.000000 -0.497433
vn 0.916364 0.000000 0.400347
vn -0.916364 0.000000 -0.400347
vn 0.951747 0.000000 0.306883
vn -0.951747 0.000000 -0.306883
vn 0.976243 0.000000 0.216678
vn -0.976243 0.000000 -0.216678
vn 0.991648 0.000000 0.128972
vn -0.991648 0.000000 -0.128972
vn 0.999083 0.000000 0.042816
vn -0.999083 0.000000 -0.042816
vn 0.999083 0.000000 -0.042816
vn -0.999083 0.000000 0.042816
vn 0.991648 0.000000 -0.128972
vn -0.991648 0.000000 0.128972
vn 0.976243 0.000000 -0.216678
vn -0.976243 0.000000 0.216678
vn 0.951747 0.000000 -0.306883
vn -0.951747 0.000000 0.306883
vn 0.916364 0.000000 -0.400347
vn -0.916364 0.000000 0.400347
vn 0.867503 0.000000 -0.497433
vn -0.867503 0.000000 0.497433
vn 0.801702 0.000000 -0.597724
vn -0.801702 0.000000 0.597724
vn 0.714731 0.000000 -0.699400
vn -0.714731 0.000000 0.699400
vn 0.602155 0.000000 -0.798379
vn -0.602155 0.000000 0.798379
vn 0.460770 0.000000 -0.887520
vn -0.460770 0.000000 0.887520
vn 0.291049 0.000000 -0.956708
vn -0.291049 0.000000 0.956708
vn 0.099743 0.000000 -0.995013
vn -0.099743 0.000000 0.995013
vn -0.866025 0.000000 0.500000
vn -0.291588 -0.705346 -0.646115
vn -0.291588 0.705346 -0.646115
vn 0.413758 0.705346 0.575580
vn 0.413758 -0.705346 0.575580
vn 0.866025 0.000000 0.500000
vn -0.413758 -0.705346 0.575580
vn -0.413758 0.705346 0.575580
vn 0.291588 0.705346 -0.646115
vn 0.291588 -0.705346 -0.646115
vn 0.000000 0.000000 1.000000
vn 0.000000 0.000000 -1.000000
vn 0.000000 0.999964 -0.008478
vn 0.000000 -0.999964 -0.008478
vn -0.999944 0.000000 -0.010597
vn 0.999944 0.000000 -0.010597
vn -0.000000 1.000000 0.000000
vn 0.000000 -1.000000 0.000000
vn -1.000000 0.000000 0.000000
vn 1.000000 0.000000 0.000000
vn 0.000000 0.000000 1.000000
vn 0.000000 0.000000 -1.000000
vn 0.000000 0.999964 -0.008478
vn 0.000000 -0.999964 -0.008478
vn -0.999944 0.000000 -0.010597
vn 0.999944 0.000000 -0.010597
vn -0.000000 1.000000 0.000000
vn 0.000000 -1.000000 0.000000
vn -1.000000 0.000000 0.000000
vn 1.000000 0.000000 0.000000
vn 0.299447 -0.921602 0.246943
vn 0.783962 -0.569582 0.246943
vn 0.969030 -0.000000 0.246943
vn 0.783962 0.569582 0.246943
vn 0.299447 0.921602 0.246943
vn -0.299447 0.921602 0.246943
vn -0.783962 0.569582 0.246943
vn -0.969030 0.000000 0.246943
vn -0.783962 -0.569582 0.246943
vn -0.299447 -0.921602 0.246943
vn 0.223919 -0.689152 0.689152
vn 0.586227 -0.425919 0.689152
vn 0.724617 -0.000000 0.689152
vn 0.586227 0.425919 0.689152
vn 0.223919 0.689152 0.689152
vn -0.223919 0.689152 0.689152
vn -0.586227 0.425919 0.689152
vn -0.724617 0.000000 0.689152
vn -0.586227 -0.425919 0.689152
vn -0.223919 -0.689152 0.689152
vn 0.083800 -0.257909 0.962528
vn 0.219390 -0.159396 0.962528
vn 0.271181 -0.000000 0.962528
vn 0.219390 0.159396 0.962528
vn 0.083800 0.257909 0.962528
vn -0.083800 0.257909 0.962528
vn -0.219390 0.159396 0.962528
vn -0.271181 0.000000 0.962528
vn -0.219390 -0.159396 0.962528
vn -0.083800 -0.257909 0.962528
vn 0.000000 0.000000 1.000000
vn 0.000000 0.000000 -1.000000
vn -0.000000 1.000000 0.000000
vn 0.000000 -1.000000 0.000000
vn -1.000000 0.000000 0.000000
vn 1.000000 0.000000 0.000000
vn 0.299447 -0.921602 0.246943
vn 0.783962 -0.569582 0.246943
vn 0.969030 -0.000000 0.246943
vn 0.783962 0.569582 0.246943
vn 0.299447 0.921602 0.246943
vn -0.299447 0.921602 0.246943
vn -0.783962 0.569582 0.246943
vn -0.969030 0.000000 0.246943
vn -0.783962 -0.569582 0.246943
vn -0.299447 -0.921602 0.246943
vn 0.223919 -0.689152 0.689152
vn 0.586227 -0.425919 0.689152
vn 0.724617 -0.000000 0.689152
vn 0.586227 0.425919 0.689152
vn 0.223919 0.689152 0.689152
vn -0.223919 0.689152 0.689152
vn -0.586227 0.425919 0.689152
vn -0.724617 0.000000 0.689152
vn -0.586227 -0.425919 0.689152
vn -0.223919 -0.689152 0.689152
vn 0.083800 -0.257909 0.962528
vn 0.219390 -0.159396 0.962528
vn 0.271181 -0.000000 0.962528
vn 0.219390 0.159396 0.962528
vn 0.083800 0.257909 0.962528
vn -0.083800 0.257909 0.962528
vn -0.219390 0.159396 0.962528
vn -0.271181 0.000000 0.962528
vn -0.219390 -0.159396 0.962528
vn -0.083800 -0.257909 0.962528
vn 0.000000 0.000000 1.000000
vn 0.000000 0.000000 -1.000000
vn -0.000000 1.000000 0.000000
vn 0.000000 -1.000000 0.000000
vn -1.000000 0.000000 0.000000
vn 1.000000 0.000000 0.000000
f 1/1/1 2/2/1 3/3/1
f 1/1/1 3/3/1 4/4/1
f 5/5/2 6/6/2 7/7/2
f 5/5/2 7/7/2 8/8/2
f 4/9/3 3/10/3 8/11/3
f 4/9/3 8/11/3 7/12/3
f 6/13/4 5/14/4 2/15/4
f 6/13/4 2/15/4 1/16/4
f 6/17/5 1/18/5 4/19/5
f 6/17/5 4/19/5 7/20/5
f 2/18/6 5/17/6 8/20/6
f 2/18/6 8/20/6 3/19/6
f 9/21/7 10/22/7 11/23/7
f 9/21/7 11/23/7 12/24/7
f 10/25/8 13/26/8 14/27/8
f 10/25/8 14/27/8 11/28/8
f 13/26/9 15/29/9 16/30/9
f 13/26/9 16/30/9 14/27/9
f 15/29/10 17/31/10 18/32/10
f 15/29/10 18/32/10 16/30/10
f 17/33/11 19/34/11 20/35/11
f 17/33/11 20/35/11 18/36/11
f 19/34/12 21/37/12 22/38/12
f 19/34/12 22/38/12 20/35/12
f 21/31/13 23/29/13 24/30/13
f 21/31/13 24/30/13 22/32/13
f 23/29/14 25/26/14 26/27/14
f 23/29/14 26/27/14 24/30/14
f 25/26/15 27/25/15 28/28/15
f 25/26/15 28/28/15 26/27/15
f 27/39/16 9/21/16 12/24/16
f 27/39/16 12/24/16 28/40/16
f 12/41/17 11/42/17 29/43/17
f 12/41/17 29/43/17 30/44/17
f 11/42/18 14/45/18 31/46/18
f 11/42/18 31/46/18 29/43/18
f 14/27/19 16/30/19 32/47/19
f 14/27/19 32/47/19 31/48/19
f 16/49/20 18/50/20 33/51/20
f 16/49/20 33/51/20 32/52/20
f 18/36/21 20/35/21 34/53/21
f 18/36/21 34/53/21 33/54/21
f 20/35/22 22/38/22 35/55/22
f 20/35/22 35/55/22 34/53/22
f 22/56/23 24/57/23 36/58/23
f 22/56/23 36/58/23 35/59/23
f 24/30/24 26/27/24 37/48/24
f 24/30/24 37/48/24 36/47/24
f 26/60/25 28/61/25 38/62/25
f 26/60/25 38/62/25 37/63/25
f 28/61/26 12/41/26 30/44/26
f 28/61/26 30/44/26 38/62/26
f 30/44/27 29/43/27 39/64/27
f 29/43/28 31/46/28 39/64/28
f 31/46/29 32/52/29 39/64/29
f 32/52/30 33/51/30 39/64/30
f 33/51/31 34/65/31 39/64/31
f 34/65/32 35/59/32 39/64/32
f 35/59/33 36/58/33 39/64/33
f 36/58/34 37/63/34 39/64/34
f 37/63/35 38/62/35 39/64/35
f 38/62/36 30/44/36 39/64/36
f 40/66/37 41/67/37 42/68/37
f 40/66/37 43/69/37 41/67/37
f 40/66/37 44/70/37 43/69/37
f 40/66/37 45/71/37 44/70/37
f 40/66/37 46/72/37 45/71/37
f 40/66/37 42/68/37 46/72/37
f 42/73/38 41/74/38 47/75/38
f 42/73/38 47/75/38 48/76/38
f 41/77/39 43/78/39 49/79/39
f 41/77/39 49/79/39 47/80/39
f 43/81/40 44/82/40 50/83/40
f 43/81/40 50/83/40 49/84/40
f 44/82/41 45/85/41 51/86/41
f 44/82/41 51/86/41 50/83/41
f 45/78/42 46/77/42 52/80/42
f 45/78/42 52/80/42 51/79/42
f 46/87/43 42/73/43 48/76/43
f 46/87/43 48/76/43 52/88/43
f 48/76/44 47/75/44 53/89/44
f 48/76/44 53/89/44 54/90/44
f 47/80/45 49/79/45 55/91/45
f 47/80/45 55/91/45 53/92/45
f 49/84/46 50/83/46 56/93/46
f 49/84/46 56/93/46 55/94/46
f 50/83/47 51/86/47 57/95/47
f 50/83/47 57/95/47 56/93/47
f 51/79/48 52/80/48 58/92/48
f 51/79/48 58/92/48 57/91/48
f 52/88/49 48/76/49 54/90/49
f 52/88/49 54/90/49 58/96/49
f 59/97/50 60/98/50 61/99/50
f 59/97/50 62/100/50 60/98/50
f 59/97/50 63/101/50 62/100/50
f 59/97/50 64/102/50 63/101/50
f 59/97/50 65/103/50 64/102/50
f 59/97/50 61/99/50 65/103/50
f 61/104/51 60/105/51 66/106/51
f 61/104/51 66/106/51 67/107/51
f 60/108/52 62/109/52 68/110/52
f 60/108/52 68/110/52 66/111/52
f 62/112/53 63/113/53 69/114/53
f 62/112/53 69/114/53 68/115/53
f 63/113/54 64/116/54 70/117/54
f 63/113/54 70/117/54 69/114/54
f 64/109/55 65/108/55 71/111/55
f 64/109/55 71/111/55 70/110/55
f 65/118/56 61/104/56 67/107/56
f 65/118/56 67/107/56 71/119/56
f 67/107/57 66/106/57 72/120/57
f 67/107/57 72/120/57 73/121/57
f 66/111/58 68/110/58 74/122/58
f 66/111/58 74/122/58 72/123/58
f 68/115/59 69/114/59 75/124/59
f 68/115/59 75/124/59 74/125/59
f 69/114/60 70/117/60 76/126/60
f 69/114/60 76/126/60 75/124/60
f 70/110/61 71/111/61 77/123/61
f 70/110/61 77/123/61 76/122/61
f 71/119/62 67/107/62 73/121/62
f 71/119/62 73/121/62 77/127/62
f 78/128/63 79/129/63 80/130/63
f 78/128/63 80/130/63 81/131/63
f 82/132/64 83/133/64 84/134/64
f 82/132/64 84/134/64 85/135/64
f 81/136/65 80/137/65 85/138/65
f 81/136/65 85/138/65 84/139/65
f 83/139/66 82/138/66 79/137/66
f 83/139/66 79/137/66 78/136/66
f 83/140/67 78/141/67 81/142/67
f 83/140/67 81/142/67 84/143/67
f 79/141/68 82/140/68 85/143/68
f 79/141/68 85/143/68 80/142/68
f 86/144/69 87/145/69 88/146/69
f 86/144/69 88/146/69 89/147/69
f 90/147/70 91/146/70 92/145/70
f 90/147/70 92/145/70 93/144/70
f 89/148/71 86/149/71 93/150/71
f 89/148/71 93/150/71 90/151/71
f 87/152/72 88/153/72 91/154/72
f 87/152/72 91/154/72 92/155/72
f 89/147/69 88/146/69 94/156/69
f 89/147/69 94/156/69 95/157/69
f 96/157/70 97/156/70 91/146/70
f 96/157/70 91/146/70 90/147/70
f 95/158/73 89/148/73 90/151/73
f 95/158/73 90/151/73 96/159/73
f 88/153/74 94/160/74 97/161/74
f 88/153/74 97/161/74 91/154/74
f 95/157/69 94/156/69 98/162/69
f 95/157/69 98/162/69 99/163/69
f 100/163/70 101/162/70 97/156/70
f 100/163/70 97/156/70 96/157/70
f 99/164/75 95/158/75 96/159/75
f 99/164/75 96/159/75 100/165/75
f 94/160/76 98/166/76 101/167/76
f 94/160/76 101/167/76 97/161/76
f 99/163/69 98/162/69 102/168/69
f 99/163/69 102/168/69 103/169/69
f 104/169/70 105/168/70 101/162/70
f 104/169/70 101/162/70 100/163/70
f 103/170/77 99/164/77 100/165/77
f 103/170/77 100/165/77 104/171/77
f 98/166/78 102/172/78 105/173/78
f 98/166/78 105/173/78 101/167/78
f 103/169/69 102/168/69 106/174/69
f 103/169/69 106/174/69 107/175/69
f 108/175/70 109/174/70 105/168/70
f 108/175/70 105/168/70 104/169/70
f 107/176/79 103/177/79 104/178/79
f 107/176/79 104/178/79 108/179/79
f 102/180/80 106/181/80 109/182/80
f 102/180/80 109/182/80 105/183/80
f 107/175/69 106/174/69 110/184/69
f 107/175/69 110/184/69 111/185/69
f 112/185/70 113/184/70 109/174/70
f 112/185/70 109/174/70 108/175/70
f 111/186/81 107/176/81 108/179/81
f 111/186/81 108/179/81 112/187/81
f 106/181/82 110/188/82 113/189/82
f 106/181/82 113/189/82 109/182/82
f 111/185/69 110/184/69 114/190/69
f 111/185/69 114/190/69 115/191/69
f 116/191/70 117/190/70 113/184/70
f 116/191/70 113/184/70 112/185/70
f 115/192/83 111/186/83 112/187/83
f 115/192/83 112/187/83 116/193/83
f 110/188/84 114/194/84 117/195/84
f 110/188/84 117/195/84 113/189/84
f 115/191/69 114/190/69 118/196/69
f 115/191/69 118/196/69 119/197/69
f 120/197/70 121/196/70 117/190/70
f 120/197/70 117/190/70 116/191/70
f 119/198/85 115/192/85 116/193/85
f 119/198/85 116/193/85 120/199/85
f 114/194/86 118/200/86 121/201/86
f 114/194/86 121/201/86 117/195/86
f 119/197/69 118/196/69 122/202/69
f 119/197/69 122/202/69 123/203/69
f 124/203/70 125/202/70 121/196/70
f 124/203/70 121/196/70 120/197/70
f 123/204/87 119/198/87 120/199/87
f 123/204/87 120/199/87 124/205/87
f 118/200/88 122/206/88 125/207/88
f 118/200/88 125/207/88 121/201/88
f 123/203/69 122/202/69 126/208/69
f 123/203/69 126/208/69 127/209/69
f 128/209/70 129/208/70 125/202/70
f 128/209/70 125/202/70 124/203/70
f 127/210/89 123/204/89 124/205/89
f 127/210/89 124/205/89 128/211/89
f 122/206/90 126/212/90 129/213/90
f 122/206/90 129/213/90 125/207/90
f 127/209/69 126/208/69 130/214/69
f 127/209/69 130/214/69 131/215/69
f 132/215/70 133/214/70 129/208/70
f 132/215/70 129/208/70 128/209/70
f 131/216/91 127/210/91 128/211/91
f 131/216/91 128/211/91 132/217/91
f 126/212/92 130/218/92 133/219/92
f 126/212/92 133/219/92 129/213/92
f 131/215/69 130/214/69 134/220/69
f 131/215/69 134/220/69 135/221/69
f 136/221/70 137/220/70 133/214/70
f 136/221/70 133/214/70 132/215/70
f 135/222/93 131/216/93 132/217/93
f 135/222/93 132/217/93 136/223/93
f 130/218/94 134/222/94 137/223/94
f 130/218/94 137/223/94 133/219/94
f 135/221/69 134/220/69 138/224/69
f 135/221/69 138/224/69 139/225/69
f 140/225/70 141/224/70 137/220/70
f 140/225/70 137/220/70 136/221/70
f 139/226/95 135/222/95 136/223/95
f 139/226/95 136/223/95 140/227/95
f 134/222/96 138/228/96 141/229/96
f 134/222/96 141/229/96 137/223/96
f 139/225/69 138/224/69 142/230/69
f 139/225/69 142/230/69 143/231/69
f 144/231/70 145/230/70 141/224/70
f 144/231/70 141/224/70 140/225/70
f 143/232/97 139/226/97 140/227/97
f 143/232/97 140/227/97 144/233/97
f 138/228/98 142/234/98 145/235/98
f 138/228/98 145/235/98 141/229/98
f 143/231/69 142/230/69 146/236/69
f 143/231/69 146/236/69 147/237/69
f 148/237/70 149/236/70 145/230/70
f 148/237/70 145/230/70 144/231/70
f 147/238/99 143/232/99 144/233/99
f 147/238/99 144/233/99 148/239/99
f 142/234/100 146/240/100 149/241/100
f 142/234/100 149/241/100 145/235/100
f 147/237/69 146/236/69 150/242/69
f 147/237/69 150/242/69 151/243/69
f 152/243/70 153/242/70 149/236/70
f 152/243/70 149/236/70 148/237/70
f 151/244/101 147/238/101 148/239/101
f 151/244/101 148/239/101 152/245/101
f 146/240/102 150/246/102 153/247/102
f 146/240/102 153/247/102 149/241/102
f 151/243/69 150/242/69 154/248/69
f 151/243/69 154/248/69 155/249/69
f 156/249/70 157/248/70 153/242/70
f 156/249/70 153/242/70 152/243/70
f 155/250/103 151/244/103 152/245/103
f 155/250/103 152/245/103 156/251/103
f 150/246/104 154/252/104 157/253/104
f 150/246/104 157/253/104 153/247/104
f 155/249/69 154/248/69 158/254/69
f 155/249/69 158/254/69 159/255/69
f 160/255/70 161/254/70 157/248/70
f 160/255/70 157/248/70 156/249/70
f 159/256/105 155/250/105 156/251/105
f 159/256/105 156/251/105 160/257/105
f 154/252/106 158/258/106 161/259/106
f 154/252/106 161/259/106 157/253/106
f 159/255/69 158/254/69 162/260/69
f 159/255/69 162/260/69 163/261/69
f 164/261/70 165/260/70 161/254/70
f 164/261/70 161/254/70 160/255/70
f 163/262/107 159/256/107 160/257/107
f 163/262/107 160/257/107 164/263/107
f 158/258/108 162/264/108 165/265/108
f 158/258/108 165/265/108 161/259/108
f 163/261/69 162/260/69 166/266/69
f 163/261/69 166/266/69 167/267/69
f 168/267/70 169/266/70 165/260/70
f 168/267/70 165/260/70 164/261/70
f 167/268/109 163/262/109 164/263/109
f 167/268/109 164/263/109 168/269/109
f 162/264/110 166/270/110 169/271/110
f 162/264/110 169/271/110 165/265/110
f 167/267/69 166/266/69 170/272/69
f 167/267/69 170/272/69 171/273/69
f 172/273/70 173/272/70 169/266/70
f 172/273/70 169/266/70 168/267/70
f 171/274/111 167/275/111 168/276/111
f 171/274/111 168/276/111 172/277/111
f 166/278/112 170/279/112 173/280/112
f 166/278/112 173/280/112 169/281/112
f 171/273/69 170/272/69 174/282/69
f 171/273/69 174/282/69 175/283/69
f 176/283/70 177/282/70 173/272/70
f 176/283/70 173/272/70 172/273/70
f 175/284/113 171/274/113 172/277/113
f 175/284/113 172/277/113 176/285/113
f 170/279/114 174/286/114 177/287/114
f 170/279/114 177/287/114 173/280/114
f 175/283/69 174/282/69 178/288/69
f 175/283/69 178/288/69 179/289/69
f 180/289/70 181/288/70 177/282/70
f 180/289/70 177/282/70 176/283/70
f 179/290/115 175/284/115 176/285/115
f 179/290/115 176/285/115 180/291/115
f 174/286/116 178/292/116 181/293/116
f 174/286/116 181/293/116 177/287/116
f 179/289/69 178/288/69 182/294/69
f 179/289/69 182/294/69 183/295/69
f 184/295/70 185/294/70 181/288/70
f 184/295/70 181/288/70 180/289/70
f 183/152/117 179/290/117 180/291/117
f 183/152/117 180/291/117 184/155/117
f 178/292/118 182/149/118 185/150/118
f 178/292/118 185/150/118 181/293/118
f 183/295/69 182/294/69 186/296/69
f 183/295/69 186/296/69 187/297/69
f 188/297/70 189/296/70 185/294/70
f 188/297/70 185/294/70 184/295/70
f 187/298/72 183/152/72 184/155/72
f 187/298/72 184/155/72 188/299/72
f 182/149/71 186/300/71 189/301/71
f 182/149/71 189/301/71 185/150/71
f 187/297/69 186/296/69 190/302/69
f 187/297/69 190/302/69 191/303/69
f 192/303/70 193/302/70 189/296/70
f 192/303/70 189/296/70 188/297/70
f 191/304/74 187/298/74 188/299/74
f 191/304/74 188/299/74 192/305/74
f 186/300/73 190/306/73 193/307/73
f 186/300/73 193/307/73 189/301/73
f 191/303/69 190/302/69 194/308/69
f 191/303/69 194/308/69 195/309/69
f 196/309/70 197/308/70 193/302/70
f 196/309/70 193/302/70 192/303/70
f 195/310/76 191/304/76 192/305/76
f 195/310/76 192/305/76 196/311/76
f 190/306/75 194/312/75 197/313/75
f 190/306/75 197/313/75 193/307/75
f 195/309/69 194/308/69 198/314/69
f 195/309/69 198/314/69 199/315/69
f 200/315/70 201/314/70 197/308/70
f 200/315/70 197/308/70 196/309/70
f 199/316/78 195/310/78 196/311/78
f 199/316/78 196/311/78 200/317/78
f 194/312/77 198/318/77 201/319/77
f 194/312/77 201/319/77 197/313/77
f 199/315/69 198/314/69 202/320/69
f 199/315/69 202/320/69 203/321/69
f 204/321/70 205/320/70 201/314/70
f 204/321/70 201/314/70 200/315/70
f 203/262/80 199/268/80 200/269/80
f 203/262/80 200/269/80 204/263/80
f 198/270/79 202/264/79 205/265/79
f 198/270/79 205/265/79 201/271/79
f 203/321/69 202/320/69 206/322/69
f 203/321/69 206/322/69 207/323/69
f 208/323/70 209/322/70 205/320/70
f 208/323/70 205/320/70 204/321/70
f 207/256/82 203/262/82 204/263/82
f 207/256/82 204/263/82 208/257/82
f 202/264/81 206/258/81 209/259/81
f 202/264/81 209/259/81 205/265/81
f 207/323/69 206/322/69 210/324/69
f 207/323/69 210/324/69 211/325/69
f 212/325/70 213/324/70 209/322/70
f 212/325/70 209/322/70 208/323/70
f 211/250/84 207/256/84 208/257/84
f 211/250/84 208/257/84 212/251/84
f 206/258/83 210/252/83 213/253/83
f 206/258/83 213/253/83 209/259/83
f 211/325/69 210/324/69 214/326/69
f 211/325/69 214/326/69 215/327/69
f 216/327/70 217/326/70 213/324/70
f 216/327/70 213/324/70 212/325/70
f 215/244/86 211/250/86 212/251/86
f 215/244/86 212/251/86 216/245/86
f 210/252/85 214/246/85 217/247/85
f 210/252/85 217/247/85 213/253/85
f 215/327/69 214/326/69 218/328/69
f 215/327/69 218/328/69 219/329/69
f 220/329/70 221/328/70 217/326/70
f 220/329/70 217/326/70 216/327/70
f 219/238/88 215/244/88 216/245/88
f 219/238/88 216/245/88 220/239/88
f 214/246/87 218/240/87 221/241/87
f 214/246/87 221/241/87 217/247/87
f 219/329/69 218/328/69 222/330/69
f 219/329/69 222/330/69 223/331/69
f 224/331/70 225/330/70 221/328/70
f 224/331/70 221/328/70 220/329/70
f 223/232/90 219/238/90 220/239/90
f 223/232/90 220/239/90 224/233/90
f 218/240/89 222/234/89 225/235/89
f 218/240/89 225/235/89 221/241/89
f 223/331/69 222/330/69 226/332/69
f 223/331/69 226/332/69 227/333/69
f 228/333/70 229/332/70 225/330/70
f 228/333/70 225/330/70 224/331/70
f 227/226/92 223/232/92 224/233/92
f 227/226/92 224/233/92 228/227/92
f 222/234/91 226/228/91 229/229/91
f 222/234/91 229/229/91 225/235/91
f 227/333/69 226/332/69 230/334/69
f 227/333/69 230/334/69 231/335/69
f 232/335/70 233/334/70 229/332/70
f 232/335/70 229/332/70 228/333/70
f 231/222/94 227/226/94 228/227/94
f 231/222/94 228/227/94 232/223/94
f 226/228/93 230/222/93 233/223/93
f 226/228/93 233/223/93 229/229/93
f 231/335/69 230/334/69 234/336/69
f 231/335/69 234/336/69 235/337/69
f 236/337/70 237/336/70 233/334/70
f 236/337/70 233/334/70 232/335/70
f 235/216/96 231/222/96 232/223/96
f 235/216/96 232/223/96 236/217/96
f 230/222/95 234/218/95 237/219/95
f 230/222/95 237/219/95 233/223/95
f 235/337/69 234/336/69 238/338/69
f 235/337/69 238/338/69 239/339/69
f 240/339/70 241/338/70 237/336/70
f 240/339/70 237/336/70 236/337/70
f 239/210/98 235/216/98 236/217/98
f 239/210/98 236/217/98 240/211/98
f 234/218/97 238/212/97 241/213/97
f 234/218/97 241/213/97 237/219/97
f 239/339/69 238/338/69 242/340/69
f 239/339/69 242/340/69 243/341/69
f 244/341/70 245/340/70 241/338/70
f 244/341/70 241/338/70 240/339/70
f 243/204/100 239/210/100 240/211/100
f 243/204/100 240/211/100 244/205/100
f 238/212/99 242/206/99 245/207/99
f 238/212/99 245/207/99 241/213/99
f 243/341/69 242/340/69 246/342/69
f 243/341/69 246/342/69 247/343/69
f 248/343/70 249/342/70 245/340/70
f 248/343/70 245/340/70 244/341/70
f 247/198/102 243/204/102 244/205/102
f 247/198/102 244/205/102 248/199/102
f 242/206/101 246/200/101 249/201/101
f 242/206/101 249/201/101 245/207/101
f 247/343/69 246/342/69 250/344/69
f 247/343/69 250/344/69 251/345/69
f 252/345/70 253/344/70 249/342/70
f 252/345/70 249/342/70 248/343/70
f 251/192/104 247/198/104 248/199/104
f 251/192/104 248/199/104 252/193/104
f 246/200/103 250/194/103 253/195/103
f 246/200/103 253/195/103 249/201/103
f 251/345/69 250/344/69 254/346/69
f 251/345/69 254/346/69 255/347/69
f 256/347/70 257/346/70 253/344/70
f 256/347/70 253/344/70 252/345/70
f 255/186/106 251/192/106 252/193/106
f 255/186/106 252/193/106 256/187/106
f 250/194/105 254/188/105 257/189/105
f 250/194/105 257/189/105 253/195/105
f 255/347/69 254/346/69 258/348/69
f 255/347/69 258/348/69 259/349/69
f 260/349/70 261/348/70 257/346/70
f 260/349/70 257/346/70 256/347/70
f 259/176/108 255/186/108 256/187/108
f 259/176/108 256/187/108 260/179/108
f 254/188/107 258/181/107 261/182/107
f 254/188/107 261/182/107 257/189/107
f 259/349/69 258/348/69 262/350/69
f 259/349/69 262/350/69 263/351/69
f 264/351/70 265/350/70 261/348/70
f 264/351/70 261/348/70 260/349/70
f 263/177/110 259/176/110 260/179/110
f 263/177/110 260/179/110 264/178/110
f 258/181/109 262/180/109 265/183/109
f 258/181/109 265/183/109 261/182/109
f 263/351/69 262/350/69 266/352/69
f 263/351/69 266/352/69 267/353/69
f 268/353/70 269/352/70 265/350/70
f 268/353/70 265/350/70 264/351/70
f 267/354/112 263/355/112 264/356/112
f 267/354/112 264/356/112 268/357/112
f 262/358/111 266/359/111 269/360/111
f 262/358/111 269/360/111 265/361/111
f 267/353/69 266/352/69 270/362/69
f 267/353/69 270/362/69 271/363/69
f 272/363/70 273/362/70 269/352/70
f 272/363/70 269/352/70 268/353/70
f 271/364/114 267/354/114 268/357/114
f 271/364/114 268/357/114 272/365/114
f 266/359/113 270/366/113 273/367/113
f 266/359/113 273/367/113 269/360/113
f 271/363/69 270/362/69 274/368/69
f 271/363/69 274/368/69 275/369/69
f 276/369/70 277/368/70 273/362/70
f 276/369/70 273/362/70 272/363/70
f 275/370/116 271/364/116 272/365/116
f 275/370/116 272/365/116 276/371/116
f 270/366/115 274/372/115 277/373/115
f 270/366/115 277/373/115 273/367/115
f 275/369/69 274/368/69 87/145/69
f 275/369/69 87/145/69 86/144/69
f 93/144/70 92/145/70 277/368/70
f 93/144/70 277/368/70 276/369/70
f 86/149/118 275/370/118 276/371/118
f 86/149/118 276/371/118 93/150/118
f 274/372/117 87/152/117 92/155/117
f 274/372/117 92/155/117 277/373/117
f 278/374/119 279/375/119 280/376/119
f 278/374/119 281/377/119 279/375/119
f 278/374/119 282/378/119 281/377/119
f 278/374/119 280/376/119 282/378/119
f 280/379/120 279/380/120 283/381/120
f 279/380/121 281/379/121 283/381/121
f 281/379/122 282/382/122 283/381/122
f 282/382/123 280/379/123 283/381/123
f 284/383/124 285/384/124 286/385/124
f 284/383/124 287/386/124 285/384/124
f 284/383/124 288/387/124 287/386/124
f 284/383/124 286/385/124 288/387/124
f 286/388/125 285/389/125 289/390/125
f 285/389/126 287/388/126 289/390/126
f 287/388/127 288/391/127 289/390/127
f 288/391/128 286/388/128 289/390/128
f 290/392/129 291/393/129 292/394/129
f 290/392/129 292/394/129 293/395/129
f 294/396/130 295/397/130 296/398/130
f 294/396/130 296/398/130 297/399/130
f 293/400/131 292/401/131 297/402/131
f 293/400/131 297/402/131 296/403/131
f 295/403/132 294/402/132 291/401/132
f 295/403/132 291/401/132 290/400/132
f 295/404/133 290/405/133 293/406/133
f 295/404/133 293/406/133 296/407/133
f 291/408/134 294/409/134 297/410/134
f 291/408/134 297/410/134 292/411/134
f 298/412/129 299/413/129 300/414/129
f 298/412/129 300/414/129 301/415/129
f 302/416/130 303/417/130 304/418/130
f 302/416/130 304/418/130 305/419/130
f 301/420/135 300/421/135 305/422/135
f 301/420/135 305/422/135 304/423/135
f 303/423/136 302/422/136 299/421/136
f 303/423/136 299/421/136 298/420/136
f 303/424/137 298/425/137 301/426/137
f 303/424/137 301/426/137 304/427/137
f 299/428/138 302/428/138 305/429/138
f 299/428/138 305/429/138 300/429/138
f 306/430/129 307/431/129 308/432/129
f 306/430/129 308/432/129 309/433/129
f 310/434/130 311/435/130 312/436/130
f 310/434/130 312/436/130 313/437/130
f 309/438/135 308/439/135 313/440/135
f 309/438/135 313/440/135 312/441/135
f 311/441/136 310/440/136 307/439/136
f 311/441/136 307/439/136 306/438/136
f 311/442/137 306/443/137 309/444/137
f 311/442/137 309/444/137 312/445/137
f 307/446/138 310/446/138 313/447/138
f 307/446/138 313/447/138 308/447/138
f 314/448/139 315/449/139 316/450/139
f 314/448/139 316/450/139 317/451/139
f 318/452/140 319/453/140 320/454/140
f 318/452/140 320/454/140 321/455/140
f 317/456/141 316/457/141 321/458/141
f 317/456/141 321/458/141 320/459/141
f 319/459/142 318/458/142 315/457/142
f 319/459/142 315/457/142 314/456/142
f 319/460/143 314/461/143 317/462/143
f 319/460/143 317/462/143 320/463/143
f 315/464/144 318/465/144 321/466/144
f 315/464/144 321/466/144 316/467/144
f 322/468/139 323/469/139 324/470/139
f 322/468/139 324/470/139 325/471/139
f 326/472/140 327/473/140 328/474/140
f 326/472/140 328/474/140 329/475/140
f 325/476/145 324/477/145 329/478/145
f 325/476/145 329/478/145 328/479/145
f 327/479/146 326/478/146 323/477/146
f 327/479/146 323/477/146 322/476/146
f 327/480/147 322/480/147 325/481/147
f 327/480/147 325/481/147 328/481/147
f 323/482/148 326/483/148 329/484/148
f 323/482/148 329/484/148 324/485/148
f 330/486/139 331/487/139 332/488/139
f 330/486/139 332/488/139 333/489/139
f 334/490/140 335/491/140 336/492/140
f 334/490/140 336/492/140 337/493/140
f 333/494/145 332/495/145 337/496/145
f 333/494/145 337/496/145 336/497/145
f 335/497/146 334/496/146 331/495/146
f 335/497/146 331/495/146 330/494/146
f 335/498/147 330/498/147 333/499/147
f 335/498/147 333/499/147 336/499/147
f 331/500/148 334/501/148 337/502/148
f 331/500/148 337/502/148 332/503/148
f 338/504/149 339/505/149 340/506/149
f 338/504/149 340/506/149 341/507/149
f 339/508/150 342/509/150 343/510/150
f 339/508/150 343/510/150 340/511/150
f 342/509/151 344/512/151 345/513/151
f 342/509/151 345/513/151 343/510/151
f 344/512/152 346/514/152 347/515/152
f 344/512/152 347/515/152 345/513/152
f 346/505/153 348/504/153 349/507/153
f 346/505/153 349/507/153 347/506/153
f 348/504/154 350/516/154 351/517/154
f 348/504/154 351/517/154 349/507/154
f 350/514/155 352/512/155 353/513/155
f 350/514/155 353/513/155 351/515/155
f 352/512/156 354/509/156 355/510/156
f 352/512/156 355/510/156 353/513/156
f 354/509/157 356/508/157 357/511/157
f 354/509/157 357/511/157 355/510/157
f 356/516/158 338/504/158 341/507/158
f 356/516/158 341/507/158 357/517/158
f 341/507/159 340/506/159 358/518/159
f 341/507/159 358/518/159 359/519/159
f 340/520/160 343/521/160 360/522/160
f 340/520/160 360/522/160 358/523/160
f 343/510/161 345/513/161 361/524/161
f 343/510/161 361/524/161 360/525/161
f 345/526/162 347/527/162 362/528/162
f 345/526/162 362/528/162 361/529/162
f 347/506/163 349/507/163 363/519/163
f 347/506/163 363/519/163 362/518/163
f 349/530/164 351/531/164 364/532/164
f 349/507/164 364/533/164 363/519/164
f 351/531/165 353/534/165 365/535/165
f 351/531/165 365/535/165 364/532/165
f 353/513/166 355/510/166 366/525/166
f 353/513/166 366/525/166 365/524/166
f 355/536/167 357/537/167 367/538/167
f 355/536/167 367/538/167 366/539/167
f 357/517/168 341/507/168 359/519/168
f 357/517/168 359/519/168 367/533/168
f 359/540/169 358/523/169 368/541/169
f 358/523/170 360/522/170 368/541/170
f 360/522/171 361/529/171 368/541/171
f 361/529/172 362/528/172 368/541/172
f 362/528/173 363/542/173 368/541/173
f 363/542/174 364/532/174 368/541/174
f 364/532/175 365/535/175 368/541/175
f 365/535/176 366/539/176 368/541/176
f 366/539/177 367/538/177 368/541/177
f 367/538/178 359/540/178 368/541/178
f 369/543/179 370/544/179 371/545/179
f 369/543/179 371/545/179 372/546/179
f 373/547/180 374/548/180 375/549/180
f 373/547/180 375/549/180 376/550/180
f 372/551/181 371/552/181 376/553/181
f 372/551/181 376/553/181 375/554/181
f 374/554/182 373/553/182 370/552/182
f 374/554/182 370/552/182 369/551/182
f 374/555/183 369/556/183 372/557/183
f 374/555/183 372/557/183 375/558/183
f 370/556/184 373/555/184 376/558/184
f 370/556/184 376/558/184 371/557/184
f 377/559/185 378/560/185 379/561/185
f 377/559/185 379/561/185 380/562/185
f 378/563/186 381/564/186 382/565/186
f 378/563/186 382/565/186 379/566/186
f 381/564/187 383/567/187 384/568/187
f 381/564/187 384/568/187 382/565/187
f 383/567/188 385/569/188 386/570/188
f 383/567/188 386/570/188 384/568/188
f 385/560/189 387/559/189 388/562/189
f 385/560/189 388/562/189 386/561/189
f 387/559/190 389/571/190 390/572/190
f 387/559/190 390/572/190 388/562/190
f 389/569/191 391/567/191 392/568/191
f 389/569/191 392/568/191 390/570/191
f 391/567/192 393/564/192 394/565/192
f 391/567/192 394/565/192 392/568/192
f 393/564/193 395/563/193 396/566/193
f 393/564/193 396/566/193 394/565/193
f 395/571/194 377/559/194 380/562/194
f 395/571/194 380/562/194 396/572/194
f 380/562/195 379/561/195 397/573/195
f 380/562/195 397/573/195 398/574/195
f 379/575/196 382/576/196 399/577/196
f 379/575/196 399/577/196 397/578/196
f 382/565/197 384/568/197 400/579/197
f 382/565/197 400/579/197 399/580/197
f 384/581/198 386/582/198 401/583/198
f 384/581/198 401/583/198 400/584/198
f 386/561/199 388/562/199 402/574/199
f 386/561/199 402/574/199 401/573/199
f 388/562/200 390/572/200 403/585/200
f 388/562/200 403/585/200 402/574/200
f 390/586/201 392/587/201 404/588/201
f 390/586/201 404/588/201 403/589/201
f 392/568/202 394/565/202 405/580/202
f 392/568/202 405/580/202 404/579/202
f 394/590/203 396/591/203 406/592/203
f 394/590/203 406/592/203 405/593/203
f 396/572/204 380/562/204 398/574/204
f 396/572/204 398/574/204 406/585/204
f 398/594/205 397/578/205 407/595/205
f 397/578/206 399/577/206 407/595/206
f 399/577/207 400/584/207 407/595/207
f 400/584/208 401/583/208 407/595/208
f 401/583/209 402/596/209 407/595/209
f 402/596/210 403/589/210 407/595/210
f 403/589/211 404/588/211 407/595/211
f 404/588/212 405/593/212 407/595/212
f 405/593/213 406/592/213 407/595/213
f 406/592/214 398/594/214 407/595/214
f 408/597/215 409/598/215 410/599/215
f 408/597/215 410/599/215 411/600/215
f 412/601/216 413/602/216 414/603/216
f 412/601/216 414/603/216 415/604/216
f 411/605/217 410/606/217 415/607/217
f 411/605/217 415/607/217 414/608/217
f 413/608/218 412/607/218 409/606/218
f 413/608/218 409/606/218 408/605/218
f 413/609/219 408/610/219 411/611/219
f 413/609/219 411/611/219 414/612/219
f 409/610/220 412/609/220 415/612/220
f 409/610/220 415/612/220 410/611/220
