# Sarn light cruiser, fragment 7 of 8
# Generated by tools. Edit the generator script.
v -0.699711 0.225692 1.057203
v -0.699711 0.225692 1.137807
v -0.699711 0.354659 1.137807
v -0.699711 0.354659 1.057203
v -0.506261 0.225692 1.137807
v -0.506261 0.225692 1.057203
v -0.506261 0.354659 1.057203
v -0.506261 0.354659 1.137807
v 0.000000 0.290176 1.399561
v 0.195455 0.177330 1.399561
v 0.000000 0.064483 1.399561
v 0.195455 0.403022 1.399561
v 0.000000 0.515868 1.399561
v -0.195455 0.403022 1.399561
v -0.195455 0.177330 1.399561
v 0.000000 0.290176 2.125000
v -0.022390 0.386901 1.480165
v -0.022390 0.386901 1.883187
v -0.022390 0.483626 1.762280
v 0.022390 0.386901 1.480165
v 0.022390 0.483626 1.762280
v 0.022390 0.386901 1.883187
v -0.022390 0.483626 1.560769
v 0.022390 0.483626 1.560769
v -0.072571 0.222423 1.480165
v -0.072571 0.222423 1.883187
v -0.156338 0.174060 1.762280
v -0.094962 0.261204 1.480165
v -0.178728 0.212841 1.762280
v -0.094962 0.261204 1.883187
v -0.156338 0.174060 1.560769
v -0.178728 0.212841 1.560769
v 0.094962 0.261204 1.480165
v 0.094962 0.261204 1.883187
v 0.178728 0.212841 1.762280
v 0.072571 0.222423 1.480165
v 0.156338 0.174060 1.762280
v 0.072571 0.222423 1.883187
v 0.178728 0.212841 1.560769
v 0.156338 0.174060 1.560769
vt 0.851562 0.210938
vt 0.945312 0.210938
vt 0.945312 0.273438
vt 0.851562 0.273438
vt 0.851562 0.210938
vt 0.851562 0.273438
vt 0.945312 0.273438
vt 0.945312 0.210938
vt 0.945312 0.210938
vt 0.851562 0.210938
vt 0.851562 0.273438
vt 0.945312 0.273438
vt 0.773438 0.140625
vt 0.835938 0.140625
vt 0.835938 0.187500
vt 0.773438 0.187500
vt 0.101562 0.429688
vt 0.195312 0.406250
vt 0.101562 0.382812
vt 0.195312 0.453125
vt 0.101563 0.476562
vt 0.007813 0.453125
vt 0.007812 0.406250
vt 0.093750 0.484375
vt 0.179688 0.484375
vt 0.093750 0.656250
vt 0.007812 0.406250
vt 0.007812 0.453125
vt 0.195312 0.429688
vt 0.007813 0.484375
vt 0.671875 0.382812
vt 0.765625 0.382812
vt 0.737500 0.476562
vt 0.690625 0.476562
vt 0.570312 0.382812
vt 0.664062 0.382812
vt 0.664062 0.476562
vt 0.570312 0.476562
vt 0.664062 0.448437
vt 0.570312 0.448437
vt 0.664062 0.401562
vt 0.570312 0.401562
vt 0.671875 0.476562
vt 0.765625 0.476562
vt 0.765625 0.382812
vt 0.671875 0.382812
vt 0.664062 0.382812
vt 0.664062 0.476562
vt 0.590086 0.448437
vt 0.644289 0.382812
vt 0.570312 0.448437
vt 0.644289 0.476562
vt 0.590086 0.401562
vt 0.570312 0.401562
vt 0.671875 0.434842
vt 0.671875 0.476562
vt 0.765625 0.476562
vt 0.765625 0.434842
vt 0.737500 0.424533
vt 0.737500 0.382812
vt 0.690625 0.424533
vt 0.690625 0.382812
vt 0.691648 0.382812
vt 0.671875 0.424533
vt 0.745852 0.476562
vt 0.765625 0.434842
vt 0.590086 0.382812
vt 0.590086 0.476562
vt 0.664062 0.448437
vt 0.570312 0.382812
vt 0.644289 0.448437
vt 0.570312 0.476562
vt 0.664062 0.401562
vt 0.644289 0.401562
vt 0.671875 0.476562
vt 0.671875 0.434842
vt 0.765625 0.434842
vt 0.765625 0.476562
vt 0.737500 0.382812
vt 0.737500 0.424533
vt 0.690625 0.382812
vt 0.690625 0.424533
vt 0.765625 0.424533
vt 0.745852 0.382812
vt 0.671875 0.434842
vt 0.691648 0.476562
vn -1.000000 0.000000 0.000000
vn 1.000000 0.000000 0.000000
vn 0.000000 1.000000 0.000000
vn 0.000000 -1.000000 0.000000
vn 0.000000 0.000000 -1.000000
vn 0.000000 0.000000 1.000000
vn 0.000000 0.000000 -1.000000
vn 0.482784 -0.836206 0.260153
vn 0.965567 -0.000000 0.260153
vn 0.482784 0.836206 0.260153
vn -0.482784 0.836206 0.260153
vn -0.965567 0.000000 0.260153
vn -0.482784 -0.836206 0.260153
vn -1.000000 0.000000 0.000000
vn 1.000000 -0.000000 0.000000
vn 0.000000 -1.000000 0.000000
vn -0.000000 0.780869 0.624695
vn -0.000000 1.000000 0.000000
vn 0.000000 0.640184 -0.768221
vn 0.500000 -0.866025 0.000000
vn -0.500000 0.866025 0.000000
vn 0.866025 0.500000 0.000000
vn -0.676252 -0.390434 0.624695
vn -0.866025 -0.500000 0.000000
vn -0.554416 -0.320092 -0.768221
vn 0.500000 0.866025 -0.000000
vn -0.500000 -0.866025 0.000000
vn -0.866025 0.500000 0.000000
vn 0.676252 -0.390434 0.624695
vn 0.866025 -0.500000 0.000000
vn 0.554416 -0.320092 -0.768221
usemtl skin
f 1/1/1 2/2/1 3/3/1
f 1/1/1 3/3/1 4/4/1
f 5/2/2 6/1/2 7/4/2
f 5/2/2 7/4/2 8/3/2
f 4/5/3 3/6/3 8/7/3
f 4/5/3 8/7/3 7/8/3
f 6/8/4 5/7/4 2/6/4
f 6/8/4 2/6/4 1/5/4
f 6/9/5 1/10/5 4/11/5
f 6/9/5 4/11/5 7/12/5
f 2/13/6 5/14/6 8/15/6
f 2/13/6 8/15/6 3/16/6
f 9/17/7 10/18/7 11/19/7
f 9/17/7 12/20/7 10/18/7
f 9/17/7 13/21/7 12/20/7
f 9/17/7 14/22/7 13/21/7
f 9/17/7 15/23/7 14/22/7
f 9/17/7 11/19/7 15/23/7
f 11/24/8 10/25/8 16/26/8
f 10/27/9 12/28/9 16/29/9
f 12/25/10 13/24/10 16/26/10
f 13/24/11 14/30/11 16/26/11
f 14/28/12 15/27/12 16/29/12
f 15/30/13 11/24/13 16/26/13
f 17/31/14 18/32/14 19/33/14
f 20/31/15 21/33/15 22/32/15
f 17/31/14 19/33/14 23/34/14
f 20/31/15 24/34/15 21/33/15
f 17/35/16 20/36/16 22/37/16
f 17/35/16 22/37/16 18/38/16
f 18/38/17 22/37/17 21/39/17
f 18/38/17 21/39/17 19/40/17
f 19/40/18 21/39/18 24/41/18
f 19/40/18 24/41/18 23/42/18
f 23/43/19 24/44/19 20/45/19
f 23/43/19 20/45/19 17/46/19
f 25/47/20 26/48/20 27/49/20
f 28/50/21 29/51/21 30/52/21
f 25/47/20 27/49/20 31/53/20
f 28/50/21 32/54/21 29/51/21
f 25/55/22 28/56/22 30/57/22
f 25/55/22 30/57/22 26/58/22
f 26/58/23 30/57/23 29/59/23
f 26/58/23 29/59/23 27/60/23
f 27/60/24 29/59/24 32/61/24
f 27/60/24 32/61/24 31/62/24
f 31/63/25 32/64/25 28/65/25
f 31/63/25 28/65/25 25/66/25
f 33/67/26 34/68/26 35/69/26
f 36/70/27 37/71/27 38/72/27
f 33/67/26 35/69/26 39/73/26
f 36/70/27 40/74/27 37/71/27
f 33/75/28 36/76/28 38/77/28
f 33/75/28 38/77/28 34/78/28
f 34/78/29 38/77/29 37/79/29
f 34/78/29 37/79/29 35/80/29
f 35/80/30 37/79/30 40/81/30
f 35/80/30 40/81/30 39/82/30
f 39/83/31 40/84/31 36/85/31
f 39/83/31 36/85/31 33/86/31
