# Helion tender, fragment 1 of 8
# Generated by tools. Edit the generator script.
v 0.120294 0.340833 -2.080549
v -0.120294 0.340833 -2.080549
v -0.120294 0.581420 -2.080549
v -0.020049 0.000000 -1.706355
v -0.421028 0.000000 -1.706355
v -0.421028 0.360881 -1.706355
v -0.421028 0.360881 -1.265278
v -0.441077 0.461126 -2.240941
v -0.327663 0.347712 -2.240941
v -0.441077 0.300735 -2.240941
v -0.280686 0.461126 -2.240941
v -0.327663 0.574540 -2.240941
v -0.441077 0.621518 -2.240941
v -0.554491 0.574540 -2.240941
v -0.601469 0.461126 -2.240941
v -0.554491 0.347712 -2.240941
v -0.327663 0.347712 -1.599374
v -0.441077 0.300735 -1.599374
v -0.280686 0.461126 -1.599374
v -0.327663 0.574540 -1.599374
v -0.441077 0.621518 -1.599374
v -0.554491 0.574540 -1.599374
v -0.601469 0.461126 -1.599374
v -0.554491 0.347712 -1.599374
v -0.441077 0.461126 -1.599374
v -0.020049 0.493205 -1.888079
v -0.421028 0.493205 -1.888079
v -0.421028 0.429048 -1.888079
v -0.020049 0.429048 -1.888079
v -0.421028 0.493205 -1.952236
v -0.020049 0.493205 -1.952236
v -0.020049 0.429048 -1.952236
v -0.421028 0.429048 -1.952236
v -0.441077 0.272666 -1.920158
v -0.368957 0.287012 -1.920158
v -0.376379 0.304930 -1.893463
v -0.441077 0.292061 -1.893463
v -0.388388 0.333923 -1.903659
v -0.441077 0.323443 -1.903659
v -0.388388 0.333923 -1.936656
v -0.441077 0.323443 -1.936656
v -0.376379 0.304930 -1.946852
v -0.441077 0.292061 -1.946852
v -0.307816 0.327865 -1.920158
v -0.321530 0.341579 -1.893463
v -0.343720 0.363769 -1.903659
v -0.343720 0.363769 -1.936656
v -0.321530 0.341579 -1.946852
v -0.266963 0.389006 -1.920158
v -0.284881 0.396428 -1.893463
v -0.313874 0.408437 -1.903659
v -0.313874 0.408437 -1.936656
v -0.284881 0.396428 -1.946852
v -0.252617 0.461126 -1.920158
v -0.272012 0.461126 -1.893463
v -0.303394 0.461126 -1.903659
v -0.303394 0.461126 -1.936656
v -0.272012 0.461126 -1.946852
v -0.266963 0.533247 -1.920158
v -0.284881 0.525825 -1.893463
v -0.313874 0.513816 -1.903659
v -0.313874 0.513816 -1.936656
v -0.284881 0.525825 -1.946852
v -0.307816 0.594388 -1.920158
v -0.321530 0.580674 -1.893463
v -0.343720 0.558484 -1.903659
v -0.343720 0.558484 -1.936656
v -0.321530 0.580674 -1.946852
v -0.368957 0.635241 -1.920158
v -0.376379 0.617322 -1.893463
v -0.388388 0.588330 -1.903659
v -0.388388 0.588330 -1.936656
v -0.376379 0.617322 -1.946852
v -0.441077 0.649587 -1.920158
v -0.441077 0.630192 -1.893463
v -0.441077 0.598810 -1.903659
v -0.441077 0.598810 -1.936656
v -0.441077 0.630192 -1.946852
v -0.513198 0.635241 -1.920158
v -0.505776 0.617322 -1.893463
v -0.493767 0.588330 -1.903659
v -0.493767 0.588330 -1.936656
v -0.505776 0.617322 -1.946852
v -0.574339 0.594388 -1.920158
v -0.560625 0.580674 -1.893463
v -0.538435 0.558484 -1.903659
v -0.538435 0.558484 -1.936656
v -0.560625 0.580674 -1.946852
v -0.615192 0.533247 -1.920158
v -0.597273 0.525825 -1.893463
v -0.568281 0.513816 -1.903659
v -0.568281 0.513816 -1.936656
v -0.597273 0.525825 -1.946852
v -0.629538 0.461126 -1.920158
v -0.610143 0.461126 -1.893463
v -0.578761 0.461126 -1.903659
v -0.578761 0.461126 -1.936656
v -0.610143 0.461126 -1.946852
v -0.615192 0.389006 -1.920158
v -0.597273 0.396428 -1.893463
v -0.568281 0.408437 -1.903659
v -0.568281 0.408437 -1.936656
v -0.597273 0.396428 -1.946852
v -0.574339 0.327865 -1.920158
v -0.560625 0.341579 -1.893463
v -0.538435 0.363769 -1.903659
v -0.538435 0.363769 -1.936656
v -0.560625 0.341579 -1.946852
v -0.513198 0.287012 -1.920158
v -0.505776 0.304930 -1.893463
v -0.493767 0.333923 -1.903659
v -0.493767 0.333923 -1.936656
v -0.505776 0.304930 -1.946852
v -0.441077 0.461126 -2.265000
v -0.336736 0.356785 -2.265000
v -0.441077 0.313566 -2.265000
v -0.293517 0.461126 -2.265000
v -0.336736 0.565467 -2.265000
v -0.441077 0.608687 -2.265000
v -0.545418 0.565467 -2.265000
v -0.588638 0.461126 -2.265000
v -0.545418 0.356785 -2.265000
v -0.336736 0.356785 -2.184804
v -0.441077 0.313566 -2.184804
v -0.293517 0.461126 -2.184804
v -0.336736 0.565467 -2.184804
v -0.441077 0.608687 -2.184804
v -0.545418 0.565467 -2.184804
v -0.588638 0.461126 -2.184804
v -0.545418 0.356785 -2.184804
v -0.441077 0.461126 -2.184804
v -0.040098 0.421028 -2.080549
v -0.320784 0.180441 -1.596086
vt 0.968750 0.531250
vt 0.843750 0.531250
vt 0.843750 0.656250
vt 0.968750 0.382812
vt 0.875000 0.382812
vt 0.875000 0.476562
vt 0.875000 0.382812
vt 0.968750 0.476562
vt 0.875000 0.476562
vt 0.539062 0.234375
vt 0.572208 0.206754
vt 0.539062 0.195312
vt 0.585938 0.234375
vt 0.572208 0.261996
vt 0.539062 0.273438
vt 0.505917 0.261996
vt 0.492188 0.234375
vt 0.505917 0.206754
vt 0.589844 0.664062
vt 0.614703 0.664062
vt 0.614703 0.992188
vt 0.589844 0.992188
vt 0.327895 0.206754
vt 0.382812 0.234375
vt 0.327895 0.261996
vt 0.564985 0.664062
vt 0.564985 0.992188
vt 0.492188 0.363559
vt 0.492188 0.335938
vt 0.867188 0.335938
vt 0.867188 0.363559
vt 0.492188 0.308316
vt 0.867188 0.308316
vt 0.437500 0.195312
vt 0.470646 0.206754
vt 0.437500 0.234375
vt 0.484375 0.234375
vt 0.470646 0.261996
vt 0.437500 0.273438
vt 0.404354 0.261996
vt 0.390625 0.234375
vt 0.404354 0.206754
vt 0.968750 0.656250
vt 0.843750 0.656250
vt 0.843750 0.531250
vt 0.968750 0.531250
vt 0.843750 0.656250
vt 0.968750 0.656250
vt 0.968750 0.531250
vt 0.843750 0.531250
vt 0.968750 0.656250
vt 0.843750 0.656250
vt 0.843750 0.531250
vt 0.968750 0.531250
vt 0.843750 0.656250
vt 0.968750 0.656250
vt 0.968750 0.531250
vt 0.843750 0.531250
vt 0.718750 0.242188
vt 0.766585 0.242188
vt 0.761663 0.273438
vt 0.718750 0.273438
vt 0.515625 0.103171
vt 0.558538 0.104237
vt 0.550572 0.106641
vt 0.515625 0.105772
vt 0.718750 0.261501
vt 0.753697 0.261501
vt 0.753697 0.222874
vt 0.718750 0.222874
vt 0.515625 0.105772
vt 0.550572 0.106641
vt 0.558538 0.104237
vt 0.515625 0.103171
vt 0.718750 0.210938
vt 0.761663 0.210938
vt 0.807138 0.242188
vt 0.798042 0.273438
vt 0.594917 0.107276
vt 0.580199 0.109116
vt 0.783324 0.261501
vt 0.783324 0.222874
vt 0.580199 0.109116
vt 0.594917 0.107276
vt 0.798042 0.210938
vt 0.515625 0.106139
vt 0.515625 0.111208
vt 0.640625 0.111823
vt 0.640625 0.107276
vt 0.619225 0.111823
vt 0.599995 0.112819
vt 0.592879 0.109116
vt 0.592879 0.112819
vt 0.438371 0.112819
vt 0.438371 0.109116
vt 0.599995 0.112819
vt 0.619225 0.111823
vt 0.390625 0.107276
vt 0.390625 0.111823
vt 0.515625 0.117188
vt 0.640625 0.117188
vt 0.627761 0.117188
vt 0.606946 0.117188
vt 0.592879 0.117188
vt 0.438371 0.117188
vt 0.606946 0.117188
vt 0.627761 0.117188
vt 0.390625 0.117188
vt 0.515625 0.123167
vt 0.640625 0.122552
vt 0.619225 0.122552
vt 0.599995 0.121556
vt 0.592879 0.121556
vt 0.438371 0.121556
vt 0.599995 0.121556
vt 0.619225 0.122552
vt 0.390625 0.122552
vt 0.515625 0.128236
vt 0.640625 0.127099
vt 0.594917 0.127099
vt 0.580199 0.125259
vt 0.592879 0.125259
vt 0.438371 0.125259
vt 0.580199 0.125259
vt 0.594917 0.127099
vt 0.390625 0.127099
vt 0.558538 0.130138
vt 0.550572 0.127734
vt 0.550572 0.127734
vt 0.558538 0.130138
vt 0.515625 0.131204
vt 0.515625 0.128603
vt 0.515625 0.128603
vt 0.515625 0.131204
vt 0.670915 0.242188
vt 0.675837 0.273438
vt 0.472712 0.130138
vt 0.480678 0.127734
vt 0.683803 0.261501
vt 0.683803 0.222874
vt 0.480678 0.127734
vt 0.472712 0.130138
vt 0.675837 0.210938
vt 0.630362 0.242188
vt 0.639458 0.273438
vt 0.436333 0.127099
vt 0.451051 0.125259
vt 0.654176 0.261501
vt 0.654176 0.222874
vt 0.451051 0.125259
vt 0.436333 0.127099
vt 0.639458 0.210938
vt 0.412025 0.122552
vt 0.431255 0.121556
vt 0.431255 0.121556
vt 0.412025 0.122552
vt 0.403489 0.117188
vt 0.424304 0.117188
vt 0.424304 0.117188
vt 0.403489 0.117188
vt 0.412025 0.111823
vt 0.431255 0.112819
vt 0.431255 0.112819
vt 0.412025 0.111823
vt 0.436333 0.107276
vt 0.451051 0.109116
vt 0.451051 0.109116
vt 0.436333 0.107276
vt 0.472712 0.104237
vt 0.480678 0.106641
vt 0.480678 0.106641
vt 0.472712 0.104237
vt 0.054688 0.328125
vt 0.087833 0.294979
vt 0.054688 0.281250
vt 0.101562 0.328125
vt 0.087833 0.361271
vt 0.054688 0.375000
vt 0.021542 0.361271
vt 0.007812 0.328125
vt 0.021542 0.294979
vt 0.054688 0.281250
vt 0.087833 0.281250
vt 0.087833 0.375000
vt 0.054688 0.375000
vt 0.007812 0.294979
vt 0.007812 0.328125
vt 0.101562 0.328125
vt 0.101562 0.294979
vt 0.007812 0.361271
vt 0.101562 0.361271
vt 0.021542 0.281250
vt 0.021542 0.375000
vt 0.054688 0.281250
vt 0.087833 0.294979
vt 0.054688 0.328125
vt 0.101562 0.328125
vt 0.087833 0.361271
vt 0.054688 0.375000
vt 0.021542 0.361271
vt 0.007812 0.328125
vt 0.021542 0.294979
vt 0.353333 0.353333
vt 0.060000 0.940000
vt 0.060000 0.060000
vt 0.940000 0.060000
vt 0.280000 0.280000
vt 0.060000 0.940000
vt 0.060000 0.060000
vt 0.940000 0.060000
vt 0.060000 0.060000
vn 0.000000 0.000000 -1.000000
vn 0.000000 0.000000 -1.000000
vn -1.000000 0.000000 0.000000
vn 0.000000 0.000000 -1.000000
vn 0.382683 -0.923880 0.000000
vn 0.923880 -0.382683 0.000000
vn 0.923880 0.382683 -0.000000
vn 0.382683 0.923880 -0.000000
vn -0.382683 0.923880 -0.000000
vn -0.923880 0.382683 -0.000000
vn -0.923880 -0.382683 0.000000
vn -0.382683 -0.923880 0.000000
vn 0.000000 0.000000 1.000000
vn 0.000000 0.000000 1.000000
vn 0.000000 0.000000 -1.000000
vn -0.000000 -1.000000 0.000000
vn 0.000000 1.000000 0.000000
vn 1.000000 0.000000 -0.000000
vn -1.000000 0.000000 -0.000000
vn 0.158879 -0.798741 0.580319
vn -0.061352 0.308435 0.949265
vn -0.195090 0.980785 0.000000
vn -0.061352 0.308435 -0.949265
vn 0.158879 -0.798741 -0.580319
vn 0.452450 -0.677140 0.580319
vn -0.174714 0.261478 0.949265
vn -0.555570 0.831470 0.000000
vn -0.174714 0.261478 -0.949265
vn 0.452450 -0.677140 -0.580319
vn 0.677140 -0.452450 0.580319
vn -0.261478 0.174714 0.949265
vn -0.831470 0.555570 0.000000
vn -0.261478 0.174714 -0.949265
vn 0.677140 -0.452450 -0.580319
vn 0.798741 -0.158879 0.580319
vn -0.308435 0.061352 0.949265
vn -0.980785 0.195090 0.000000
vn -0.308435 0.061352 -0.949265
vn 0.798741 -0.158879 -0.580319
vn 0.798741 0.158879 0.580319
vn -0.308435 -0.061352 0.949265
vn -0.980785 -0.195090 0.000000
vn -0.308435 -0.061352 -0.949265
vn 0.798741 0.158879 -0.580319
vn 0.677140 0.452450 0.580319
vn -0.261478 -0.174714 0.949265
vn -0.831470 -0.555570 0.000000
vn -0.261478 -0.174714 -0.949265
vn 0.677140 0.452450 -0.580319
vn 0.452450 0.677140 0.580319
vn -0.174714 -0.261478 0.949265
vn -0.555570 -0.831470 0.000000
vn -0.174714 -0.261478 -0.949265
vn 0.452450 0.677140 -0.580319
vn 0.158879 0.798741 0.580319
vn -0.061352 -0.308435 0.949265
vn -0.195090 -0.980785 0.000000
vn -0.061352 -0.308435 -0.949265
vn 0.158879 0.798741 -0.580319
vn -0.158879 0.798741 0.580319
vn 0.061352 -0.308435 0.949265
vn 0.195090 -0.980785 0.000000
vn 0.061352 -0.308435 -0.949265
vn -0.158879 0.798741 -0.580319
vn -0.452450 0.677140 0.580319
vn 0.174714 -0.261478 0.949265
vn 0.555570 -0.831470 0.000000
vn 0.174714 -0.261478 -0.949265
vn -0.452450 0.677140 -0.580319
vn -0.677140 0.452450 0.580319
vn 0.261478 -0.174714 0.949265
vn 0.831470 -0.555570 0.000000
vn 0.261478 -0.174714 -0.949265
vn -0.677140 0.452450 -0.580319
vn -0.798741 0.158879 0.580319
vn 0.308435 -0.061352 0.949265
vn 0.980785 -0.195090 0.000000
vn 0.308435 -0.061352 -0.949265
vn -0.798741 0.158879 -0.580319
vn -0.798741 -0.158879 0.580319
vn 0.308435 0.061352 0.949265
vn 0.980785 0.195090 0.000000
vn 0.308435 0.061352 -0.949265
vn -0.798741 -0.158879 -0.580319
vn -0.677140 -0.452450 0.580319
vn 0.261478 0.174714 0.949265
vn 0.831470 0.555570 0.000000
vn 0.261478 0.174714 -0.949265
vn -0.677140 -0.452450 -0.580319
vn -0.452450 -0.677140 0.580319
vn 0.174714 0.261478 0.949265
vn 0.555570 0.831470 0.000000
vn 0.174714 0.261478 -0.949265
vn -0.452450 -0.677140 -0.580319
vn -0.158879 -0.798741 0.580319
vn 0.061352 0.308435 0.949265
vn 0.195090 0.980785 0.000000
vn 0.061352 0.308435 -0.949265
vn -0.158879 -0.798741 -0.580319
vn 0.000000 0.000000 -1.000000
vn 0.382683 -0.923880 0.000000
vn 0.923880 -0.382683 0.000000
vn 0.923880 0.382683 0.000000
vn 0.382683 0.923880 0.000000
vn -0.382683 0.923880 0.000000
vn -0.923880 0.382683 -0.000000
vn -0.923880 -0.382683 0.000000
vn -0.382683 -0.923880 0.000000
vn 0.000000 0.000000 1.000000
vn 0.000000 1.000000 0.000000
vn 0.000000 -1.000000 0.000000
vn 0.000000 1.000000 0.000000
vn 0.000000 -1.000000 0.000000
usemtl skin
f 1/1/1 2/2/1 3/3/1
f 4/4/2 5/5/2 6/6/2
f 5/7/3 7/8/3 6/9/3
f 8/10/4 9/11/4 10/12/4
f 8/10/4 11/13/4 9/11/4
f 8/10/4 12/14/4 11/13/4
f 8/10/4 13/15/4 12/14/4
f 8/10/4 14/16/4 13/15/4
f 8/10/4 15/17/4 14/16/4
f 8/10/4 16/18/4 15/17/4
f 8/10/4 10/12/4 16/18/4
f 10/19/5 9/20/5 17/21/5
f 10/19/5 17/21/5 18/22/5
f 9/23/6 11/24/6 19/24/6
f 9/23/6 19/24/6 17/23/6
f 11/24/7 12/25/7 20/25/7
f 11/24/7 20/25/7 19/24/7
f 12/20/8 13/19/8 21/22/8
f 12/20/8 21/22/8 20/21/8
f 13/19/9 14/26/9 22/27/9
f 13/19/9 22/27/9 21/22/9
f 14/28/10 15/29/10 23/30/10
f 14/28/10 23/30/10 22/31/10
f 15/29/11 16/32/11 24/33/11
f 15/29/11 24/33/11 23/30/11
f 16/26/12 10/19/12 18/22/12
f 16/26/12 18/22/12 24/27/12
f 18/34/13 17/35/13 25/36/13
f 17/35/13 19/37/13 25/36/13
f 19/37/13 20/38/13 25/36/13
f 20/38/13 21/39/13 25/36/13
f 21/39/13 22/40/13 25/36/13
f 22/40/13 23/41/13 25/36/13
f 23/41/13 24/42/13 25/36/13
f 24/42/13 18/34/13 25/36/13
f 26/43/14 27/44/14 28/45/14
f 26/43/14 28/45/14 29/46/14
f 30/47/15 31/48/15 32/49/15
f 30/47/15 32/49/15 33/50/15
f 29/51/16 28/52/16 33/53/16
f 29/51/16 33/53/16 32/54/16
f 31/54/17 30/53/17 27/52/17
f 31/54/17 27/52/17 26/51/17
f 31/55/18 26/56/18 29/57/18
f 31/55/18 29/57/18 32/58/18
f 27/56/19 30/55/19 33/58/19
f 27/56/19 33/58/19 28/57/19
f 34/59/20 35/60/20 36/61/20
f 34/59/20 36/61/20 37/62/20
f 37/63/21 36/64/21 38/65/21
f 37/63/21 38/65/21 39/66/21
f 39/67/22 38/68/22 40/69/22
f 39/67/22 40/69/22 41/70/22
f 41/71/23 40/72/23 42/73/23
f 41/71/23 42/73/23 43/74/23
f 43/75/24 42/76/24 35/60/24
f 43/75/24 35/60/24 34/59/24
f 35/60/25 44/77/25 45/78/25
f 35/60/25 45/78/25 36/61/25
f 36/64/26 45/79/26 46/80/26
f 36/64/26 46/80/26 38/65/26
f 38/68/27 46/81/27 47/82/27
f 38/68/27 47/82/27 40/69/27
f 40/72/28 47/83/28 48/84/28
f 40/72/28 48/84/28 42/73/28
f 42/76/29 48/85/29 44/77/29
f 42/76/29 44/77/29 35/60/29
f 44/86/30 49/87/30 50/88/30
f 44/86/30 50/88/30 45/89/30
f 45/79/31 50/90/31 51/91/31
f 45/79/31 51/91/31 46/80/31
f 46/92/32 51/93/32 52/94/32
f 46/92/32 52/94/32 47/95/32
f 47/83/33 52/96/33 53/97/33
f 47/83/33 53/97/33 48/84/33
f 48/98/34 53/99/34 49/87/34
f 48/98/34 49/87/34 44/86/34
f 49/87/35 54/100/35 55/101/35
f 49/87/35 55/101/35 50/88/35
f 50/90/36 55/102/36 56/103/36
f 50/90/36 56/103/36 51/91/36
f 51/93/37 56/104/37 57/105/37
f 51/93/37 57/105/37 52/94/37
f 52/96/38 57/106/38 58/107/38
f 52/96/38 58/107/38 53/97/38
f 53/99/39 58/108/39 54/100/39
f 53/99/39 54/100/39 49/87/39
f 54/100/40 59/109/40 60/110/40
f 54/100/40 60/110/40 55/101/40
f 55/102/41 60/111/41 61/112/41
f 55/102/41 61/112/41 56/103/41
f 56/104/42 61/113/42 62/114/42
f 56/104/42 62/114/42 57/105/42
f 57/106/43 62/115/43 63/116/43
f 57/106/43 63/116/43 58/107/43
f 58/108/44 63/117/44 59/109/44
f 58/108/44 59/109/44 54/100/44
f 59/109/45 64/118/45 65/119/45
f 59/109/45 65/119/45 60/110/45
f 60/111/46 65/120/46 66/121/46
f 60/111/46 66/121/46 61/112/46
f 61/113/47 66/122/47 67/123/47
f 61/113/47 67/123/47 62/114/47
f 62/115/48 67/124/48 68/125/48
f 62/115/48 68/125/48 63/116/48
f 63/117/49 68/126/49 64/118/49
f 63/117/49 64/118/49 59/109/49
f 64/77/50 69/60/50 70/61/50
f 64/77/50 70/61/50 65/78/50
f 65/120/51 70/127/51 71/128/51
f 65/120/51 71/128/51 66/121/51
f 66/81/52 71/68/52 72/69/52
f 66/81/52 72/69/52 67/82/52
f 67/124/53 72/129/53 73/130/53
f 67/124/53 73/130/53 68/125/53
f 68/85/54 73/76/54 69/60/54
f 68/85/54 69/60/54 64/77/54
f 69/60/55 74/59/55 75/62/55
f 69/60/55 75/62/55 70/61/55
f 70/127/56 75/131/56 76/132/56
f 70/127/56 76/132/56 71/128/56
f 71/68/57 76/67/57 77/70/57
f 71/68/57 77/70/57 72/69/57
f 72/129/58 77/133/58 78/134/58
f 72/129/58 78/134/58 73/130/58
f 73/76/59 78/75/59 74/59/59
f 73/76/59 74/59/59 69/60/59
f 74/59/60 79/135/60 80/136/60
f 74/59/60 80/136/60 75/62/60
f 75/131/61 80/137/61 81/138/61
f 75/131/61 81/138/61 76/132/61
f 76/67/62 81/139/62 82/140/62
f 76/67/62 82/140/62 77/70/62
f 77/133/63 82/141/63 83/142/63
f 77/133/63 83/142/63 78/134/63
f 78/75/64 83/143/64 79/135/64
f 78/75/64 79/135/64 74/59/64
f 79/135/65 84/144/65 85/145/65
f 79/135/65 85/145/65 80/136/65
f 80/137/66 85/146/66 86/147/66
f 80/137/66 86/147/66 81/138/66
f 81/139/67 86/148/67 87/149/67
f 81/139/67 87/149/67 82/140/67
f 82/141/68 87/150/68 88/151/68
f 82/141/68 88/151/68 83/142/68
f 83/143/69 88/152/69 84/144/69
f 83/143/69 84/144/69 79/135/69
f 84/118/70 89/109/70 90/110/70
f 84/118/70 90/110/70 85/119/70
f 85/146/71 90/153/71 91/154/71
f 85/146/71 91/154/71 86/147/71
f 86/122/72 91/113/72 92/114/72
f 86/122/72 92/114/72 87/123/72
f 87/150/73 92/155/73 93/156/73
f 87/150/73 93/156/73 88/151/73
f 88/126/74 93/117/74 89/109/74
f 88/126/74 89/109/74 84/118/74
f 89/109/75 94/100/75 95/101/75
f 89/109/75 95/101/75 90/110/75
f 90/153/76 95/157/76 96/158/76
f 90/153/76 96/158/76 91/154/76
f 91/113/77 96/104/77 97/105/77
f 91/113/77 97/105/77 92/114/77
f 92/155/78 97/159/78 98/160/78
f 92/155/78 98/160/78 93/156/78
f 93/117/79 98/108/79 94/100/79
f 93/117/79 94/100/79 89/109/79
f 94/100/80 99/87/80 100/88/80
f 94/100/80 100/88/80 95/101/80
f 95/157/81 100/161/81 101/162/81
f 95/157/81 101/162/81 96/158/81
f 96/104/82 101/93/82 102/94/82
f 96/104/82 102/94/82 97/105/82
f 97/159/83 102/163/83 103/164/83
f 97/159/83 103/164/83 98/160/83
f 98/108/84 103/99/84 99/87/84
f 98/108/84 99/87/84 94/100/84
f 99/87/85 104/86/85 105/89/85
f 99/87/85 105/89/85 100/88/85
f 100/161/86 105/165/86 106/166/86
f 100/161/86 106/166/86 101/162/86
f 101/93/87 106/92/87 107/95/87
f 101/93/87 107/95/87 102/94/87
f 102/163/88 107/167/88 108/168/88
f 102/163/88 108/168/88 103/164/88
f 103/99/89 108/98/89 104/86/89
f 103/99/89 104/86/89 99/87/89
f 104/144/90 109/135/90 110/136/90
f 104/144/90 110/136/90 105/145/90
f 105/165/91 110/169/91 111/170/91
f 105/165/91 111/170/91 106/166/91
f 106/148/92 111/139/92 112/140/92
f 106/148/92 112/140/92 107/149/92
f 107/167/93 112/171/93 113/172/93
f 107/167/93 113/172/93 108/168/93
f 108/152/94 113/143/94 109/135/94
f 108/152/94 109/135/94 104/144/94
f 109/135/95 34/59/95 37/62/95
f 109/135/95 37/62/95 110/136/95
f 110/169/96 37/63/96 39/66/96
f 110/169/96 39/66/96 111/170/96
f 111/139/97 39/67/97 41/70/97
f 111/139/97 41/70/97 112/140/97
f 112/171/98 41/71/98 43/74/98
f 112/171/98 43/74/98 113/172/98
f 113/143/99 43/75/99 34/59/99
f 113/143/99 34/59/99 109/135/99
f 114/173/100 115/174/100 116/175/100
f 114/173/100 117/176/100 115/174/100
f 114/173/100 118/177/100 117/176/100
f 114/173/100 119/178/100 118/177/100
f 114/173/100 120/179/100 119/178/100
f 114/173/100 121/180/100 120/179/100
f 114/173/100 122/181/100 121/180/100
f 114/173/100 116/175/100 122/181/100
f 116/182/101 115/183/101 123/184/101
f 116/182/101 123/184/101 124/185/101
f 115/186/102 117/187/102 125/188/102
f 115/186/102 125/188/102 123/189/102
f 117/187/103 118/190/103 126/191/103
f 117/187/103 126/191/103 125/188/103
f 118/183/104 119/182/104 127/185/104
f 118/183/104 127/185/104 126/184/104
f 119/182/105 120/192/105 128/193/105
f 119/182/105 128/193/105 127/185/105
f 120/190/106 121/187/106 129/188/106
f 120/190/106 129/188/106 128/191/106
f 121/187/107 122/186/107 130/189/107
f 121/187/107 130/189/107 129/188/107
f 122/192/108 116/182/108 124/185/108
f 122/192/108 124/185/108 130/193/108
f 124/194/109 123/195/109 131/196/109
f 123/195/109 125/197/109 131/196/109
f 125/197/109 126/198/109 131/196/109
f 126/198/109 127/199/109 131/196/109
f 127/199/109 128/200/109 131/196/109
f 128/200/109 129/201/109 131/196/109
f 129/201/109 130/202/109 131/196/109
f 130/202/109 124/194/109 131/196/109
usemtl interior
f 132/203/110 1/204/110 2/205/110
f 132/203/111 2/205/111 1/204/111
f 132/203/110 2/205/110 3/206/110
f 132/203/111 3/206/111 2/205/111
f 132/203/110 3/206/110 1/204/110
f 132/203/111 1/204/111 3/206/111
f 133/207/112 4/208/112 6/209/112
f 133/207/113 6/209/113 4/208/113
f 133/207/112 6/209/112 7/210/112
f 133/207/113 7/210/113 6/209/113
f 133/207/112 7/210/112 5/211/112
f 133/207/113 5/211/113 7/210/113
f 133/207/112 5/211/112 4/208/112
f 133/207/113 4/208/113 5/211/113
