# Sarn freighter, fragment 5 of 8
# Generated by tools. Edit the generator script.
v 0.000000 0.395664 0.695965
v 0.033006 0.395664 0.695965
v 0.000000 0.395664 0.728971
v 0.000000 0.395664 0.662959
v -0.033006 0.395664 0.695965
v 0.000000 0.480536 0.695965
v -0.353526 0.275364 1.031369
v -0.353526 0.275364 1.078521
v -0.353526 0.350806 1.078521
v -0.353526 0.350806 1.031369
v -0.240363 0.275364 1.078521
v -0.240363 0.275364 1.031369
v -0.240363 0.350806 1.031369
v -0.240363 0.350806 1.078521
v -0.198036 0.000000 0.931333
v -0.009430 0.000000 0.931333
v -0.009430 0.169745 0.931333
v -0.198036 0.169745 0.931333
v -0.009430 0.000000 0.719152
v -0.198036 0.000000 0.719152
v -0.198036 0.169745 0.719152
v -0.009430 0.169745 0.719152
v 0.009430 0.000000 0.931333
v 0.198036 0.000000 0.931333
v 0.198036 0.169745 0.931333
v 0.009430 0.169745 0.931333
v 0.198036 0.000000 0.719152
v 0.009430 0.000000 0.719152
v 0.009430 0.169745 0.719152
v 0.198036 0.169745 0.719152
vt 0.617188 0.429688
vt 0.664062 0.429688
vt 0.617188 0.476562
vt 0.617188 0.382812
vt 0.570312 0.429688
vt 0.718750 0.382812
vt 0.765625 0.382812
vt 0.718750 0.476562
vt 0.718750 0.382812
vt 0.671875 0.382812
vt 0.718750 0.476562
vt 0.671875 0.382812
vt 0.851562 0.210938
vt 0.945312 0.210938
vt 0.945312 0.273438
vt 0.851562 0.273438
vt 0.851562 0.210938
vt 0.851562 0.273438
vt 0.945312 0.273438
vt 0.945312 0.210938
vt 0.945312 0.210938
vt 0.851562 0.210938
vt 0.851562 0.273438
vt 0.945312 0.273438
vt 0.773438 0.140625
vt 0.835938 0.140625
vt 0.835938 0.187500
vt 0.773438 0.187500
vt 0.875000 0.382812
vt 0.968750 0.382812
vt 0.968750 0.476562
vt 0.875000 0.476562
vt 0.968750 0.382812
vt 0.875000 0.382812
vt 0.875000 0.476562
vt 0.968750 0.476562
vt 0.773438 0.476562
vt 0.867188 0.476562
vt 0.867188 0.382812
vt 0.773438 0.382812
vt 0.875000 0.382812
vt 0.968750 0.382812
vt 0.968750 0.476562
vt 0.875000 0.476562
vt 0.875000 0.382812
vt 0.968750 0.382812
vt 0.968750 0.476562
vt 0.875000 0.476562
vt 0.968750 0.382812
vt 0.875000 0.382812
vt 0.875000 0.476562
vt 0.968750 0.476562
vt 0.773438 0.476562
vt 0.867188 0.476562
vt 0.867188 0.382812
vt 0.773438 0.382812
vt 0.875000 0.382812
vt 0.968750 0.382812
vt 0.968750 0.476562
vt 0.875000 0.476562
vn 0.000000 -1.000000 0.000000
vn 0.681799 0.265144 0.681799
vn 0.681799 0.265144 -0.681799
vn -0.681799 0.265144 -0.681799
vn -0.681799 0.265144 0.681799
vn -1.000000 0.000000 0.000000
vn 1.000000 0.000000 0.000000
vn 0.000000 1.000000 0.000000
vn 0.000000 -1.000000 0.000000
vn 0.000000 0.000000 -1.000000
vn 0.000000 0.000000 1.000000
vn 0.000000 0.000000 1.000000
vn 0.000000 0.000000 -1.000000
vn -0.000000 1.000000 0.000000
vn 0.000000 -1.000000 0.000000
vn -1.000000 0.000000 0.000000
vn 1.000000 0.000000 0.000000
vn 0.000000 0.000000 1.000000
vn 0.000000 0.000000 -1.000000
vn -0.000000 1.000000 0.000000
vn 0.000000 -1.000000 0.000000
vn -1.000000 0.000000 0.000000
vn 1.000000 0.000000 0.000000
usemtl skin
f 1/1/1 2/2/1 3/3/1
f 1/1/1 4/4/1 2/2/1
f 1/1/1 5/5/1 4/4/1
f 1/1/1 3/3/1 5/5/1
f 3/6/2 2/7/2 6/8/2
f 2/9/3 4/10/3 6/11/3
f 4/10/4 5/9/4 6/11/4
f 5/12/5 3/6/5 6/8/5
f 7/13/6 8/14/6 9/15/6
f 7/13/6 9/15/6 10/16/6
f 11/14/7 12/13/7 13/16/7
f 11/14/7 13/16/7 14/15/7
f 10/17/8 9/18/8 14/19/8
f 10/17/8 14/19/8 13/20/8
f 12/20/9 11/19/9 8/18/9
f 12/20/9 8/18/9 7/17/9
f 12/21/10 7/22/10 10/23/10
f 12/21/10 10/23/10 13/24/10
f 8/25/11 11/26/11 14/27/11
f 8/25/11 14/27/11 9/28/11
f 15/29/12 16/30/12 17/31/12
f 15/29/12 17/31/12 18/32/12
f 19/33/13 20/34/13 21/35/13
f 19/33/13 21/35/13 22/36/13
f 18/37/14 17/38/14 22/39/14
f 18/37/14 22/39/14 21/40/14
f 20/40/15 19/39/15 16/38/15
f 20/40/15 16/38/15 15/37/15
f 20/41/16 15/42/16 18/43/16
f 20/41/16 18/43/16 21/44/16
f 16/42/17 19/41/17 22/44/17
f 16/42/17 22/44/17 17/43/17
f 23/45/18 24/46/18 25/47/18
f 23/45/18 25/47/18 26/48/18
f 27/49/19 28/50/19 29/51/19
f 27/49/19 29/51/19 30/52/19
f 26/53/20 25/54/20 30/55/20
f 26/53/20 30/55/20 29/56/20
f 28/56/21 27/55/21 24/54/21
f 28/56/21 24/54/21 23/53/21
f 28/57/22 23/58/22 26/59/22
f 28/57/22 26/59/22 29/60/22
f 24/58/23 27/57/23 30/60/23
f 24/58/23 30/60/23 25/59/23
