# Helion heavy cruiser, fragment 1 of 8
# Generated by tools. Edit the generator script.
v 0.149000 0.521500 -2.006533
v -0.149000 0.521500 -2.006533
v -0.149000 0.819500 -2.006533
v 0.447000 0.794667 -1.703368
v -0.447000 0.794667 -1.703368
v -0.447000 1.341000 -1.703368
v -0.447000 1.341000 -1.008035
v 0.447000 0.000000 -1.703368
v -0.447000 0.000000 -1.703368
v -0.447000 0.546333 -1.703368
v -0.447000 0.546333 -1.008035
v -0.546333 0.670500 -2.205200
v -0.405855 0.530021 -2.205200
v -0.546333 0.471833 -2.205200
v -0.347667 0.670500 -2.205200
v -0.405855 0.810979 -2.205200
v -0.546333 0.869167 -2.205200
v -0.686812 0.810979 -2.205200
v -0.745000 0.670500 -2.205200
v -0.686812 0.530021 -2.205200
v -0.405855 0.530021 -1.410533
v -0.546333 0.471833 -1.410533
v -0.347667 0.670500 -1.410533
v -0.405855 0.810979 -1.410533
v -0.546333 0.869167 -1.410533
v -0.686812 0.810979 -1.410533
v -0.745000 0.670500 -1.410533
v -0.686812 0.530021 -1.410533
v -0.546333 0.670500 -1.410533
v -0.024833 0.710233 -1.768133
v -0.521500 0.710233 -1.768133
v -0.521500 0.630767 -1.768133
v -0.024833 0.630767 -1.768133
v -0.521500 0.710233 -1.847600
v -0.024833 0.710233 -1.847600
v -0.024833 0.630767 -1.847600
v -0.521500 0.630767 -1.847600
v -0.546333 0.437067 -1.807867
v -0.457002 0.454836 -1.807867
v -0.466196 0.477030 -1.774802
v -0.546333 0.461090 -1.774802
v -0.481071 0.512942 -1.787431
v -0.546333 0.499960 -1.787431
v -0.481071 0.512942 -1.828302
v -0.546333 0.499960 -1.828302
v -0.466196 0.477030 -1.840932
v -0.546333 0.461090 -1.840932
v -0.381271 0.505438 -1.807867
v -0.398258 0.522425 -1.774802
v -0.425743 0.549910 -1.787431
v -0.425743 0.549910 -1.828302
v -0.398258 0.522425 -1.840932
v -0.330669 0.581169 -1.807867
v -0.352864 0.590362 -1.774802
v -0.388775 0.605237 -1.787431
v -0.388775 0.605237 -1.828302
v -0.352864 0.590362 -1.840932
v -0.312900 0.670500 -1.807867
v -0.336923 0.670500 -1.774802
v -0.375793 0.670500 -1.787431
v -0.375793 0.670500 -1.828302
v -0.336923 0.670500 -1.840932
v -0.330669 0.759831 -1.807867
v -0.352864 0.750638 -1.774802
v -0.388775 0.735763 -1.787431
v -0.388775 0.735763 -1.828302
v -0.352864 0.750638 -1.840932
v -0.381271 0.835562 -1.807867
v -0.398258 0.818575 -1.774802
v -0.425743 0.791090 -1.787431
v -0.425743 0.791090 -1.828302
v -0.398258 0.818575 -1.840932
v -0.457002 0.886164 -1.807867
v -0.466196 0.863970 -1.774802
v -0.481071 0.828058 -1.787431
v -0.481071 0.828058 -1.828302
v -0.466196 0.863970 -1.840932
v -0.546333 0.903933 -1.807867
v -0.546333 0.879910 -1.774802
v -0.546333 0.841040 -1.787431
v -0.546333 0.841040 -1.828302
v -0.546333 0.879910 -1.840932
v -0.635664 0.886164 -1.807867
v -0.626471 0.863970 -1.774802
v -0.611596 0.828058 -1.787431
v -0.611596 0.828058 -1.828302
v -0.626471 0.863970 -1.840932
v -0.711396 0.835562 -1.807867
v -0.694409 0.818575 -1.774802
v -0.666923 0.791090 -1.787431
v -0.666923 0.791090 -1.828302
v -0.694409 0.818575 -1.840932
v -0.761998 0.759831 -1.807867
v -0.739803 0.750638 -1.774802
v -0.703892 0.735763 -1.787431
v -0.703892 0.735763 -1.828302
v -0.739803 0.750638 -1.840932
v -0.779767 0.670500 -1.807867
v -0.755743 0.670500 -1.774802
v -0.716873 0.670500 -1.787431
v -0.716873 0.670500 -1.828302
v -0.755743 0.670500 -1.840932
v -0.761998 0.581169 -1.807867
v -0.739803 0.590362 -1.774802
v -0.703892 0.605237 -1.787431
v -0.703892 0.605237 -1.828302
v -0.739803 0.590362 -1.840932
v -0.711396 0.505438 -1.807867
v -0.694409 0.522425 -1.774802
v -0.666923 0.549910 -1.787431
v -0.666923 0.549910 -1.828302
v -0.694409 0.522425 -1.840932
v -0.635664 0.454836 -1.807867
v -0.626471 0.477030 -1.774802
v -0.611596 0.512942 -1.787431
v -0.611596 0.512942 -1.828302
v -0.626471 0.477030 -1.840932
v -0.546333 0.670500 -2.235000
v -0.417093 0.541260 -2.235000
v -0.546333 0.487727 -2.235000
v -0.363560 0.670500 -2.235000
v -0.417093 0.799740 -2.235000
v -0.546333 0.853273 -2.235000
v -0.675574 0.799740 -2.235000
v -0.729107 0.670500 -2.235000
v -0.675574 0.541260 -2.235000
v -0.417093 0.541260 -2.135667
v -0.546333 0.487727 -2.135667
v -0.363560 0.670500 -2.135667
v -0.417093 0.799740 -2.135667
v -0.546333 0.853273 -2.135667
v -0.675574 0.799740 -2.135667
v -0.729107 0.670500 -2.135667
v -0.675574 0.541260 -2.135667
v -0.546333 0.670500 -2.135667
v -0.049667 0.620833 -2.006533
v -0.223500 0.273167 -1.529535
v -0.223500 1.067833 -1.529535
vt 0.968750 0.531250
vt 0.843750 0.531250
vt 0.843750 0.656250
vt 0.460938 0.382812
vt 0.335938 0.382812
vt 0.335938 0.476562
vt 0.109375 0.296875
vt 0.484375 0.375000
vt 0.109375 0.375000
vt 0.460938 0.382812
vt 0.335938 0.382812
vt 0.335938 0.476562
vt 0.109375 0.296875
vt 0.484375 0.375000
vt 0.109375 0.375000
vt 0.539062 0.234375
vt 0.572208 0.206754
vt 0.539062 0.195312
vt 0.585938 0.234375
vt 0.572208 0.261996
vt 0.539062 0.273438
vt 0.505917 0.261996
vt 0.492188 0.234375
vt 0.505917 0.206754
vt 0.589844 0.664062
vt 0.614703 0.664062
vt 0.614703 0.992188
vt 0.589844 0.992188
vt 0.327895 0.206754
vt 0.382812 0.234375
vt 0.327895 0.261996
vt 0.564985 0.664062
vt 0.564985 0.992188
vt 0.492188 0.363559
vt 0.492188 0.335938
vt 0.867188 0.335938
vt 0.867188 0.363559
vt 0.492188 0.308316
vt 0.867188 0.308316
vt 0.437500 0.195312
vt 0.470646 0.206754
vt 0.437500 0.234375
vt 0.484375 0.234375
vt 0.470646 0.261996
vt 0.437500 0.273438
vt 0.404354 0.261996
vt 0.390625 0.234375
vt 0.404354 0.206754
vt 0.968750 0.656250
vt 0.843750 0.656250
vt 0.843750 0.531250
vt 0.968750 0.531250
vt 0.843750 0.656250
vt 0.968750 0.656250
vt 0.968750 0.531250
vt 0.843750 0.531250
vt 0.968750 0.656250
vt 0.843750 0.656250
vt 0.843750 0.531250
vt 0.968750 0.531250
vt 0.843750 0.656250
vt 0.968750 0.656250
vt 0.968750 0.531250
vt 0.843750 0.531250
vt 0.718750 0.242188
vt 0.766585 0.242188
vt 0.761663 0.273438
vt 0.718750 0.273438
vt 0.515625 0.103171
vt 0.558538 0.104237
vt 0.550572 0.106641
vt 0.515625 0.105772
vt 0.718750 0.261501
vt 0.753697 0.261501
vt 0.753697 0.222874
vt 0.718750 0.222874
vt 0.515625 0.105772
vt 0.550572 0.106641
vt 0.558538 0.104237
vt 0.515625 0.103171
vt 0.718750 0.210938
vt 0.761663 0.210938
vt 0.807138 0.242188
vt 0.798042 0.273438
vt 0.594917 0.107276
vt 0.580199 0.109116
vt 0.783324 0.261501
vt 0.783324 0.222874
vt 0.580199 0.109116
vt 0.594917 0.107276
vt 0.798042 0.210938
vt 0.515625 0.106139
vt 0.515625 0.111208
vt 0.640625 0.111823
vt 0.640625 0.107276
vt 0.619225 0.111823
vt 0.599995 0.112819
vt 0.592879 0.109116
vt 0.592879 0.112819
vt 0.438371 0.112819
vt 0.438371 0.109116
vt 0.599995 0.112819
vt 0.619225 0.111823
vt 0.390625 0.107276
vt 0.390625 0.111823
vt 0.515625 0.117188
vt 0.640625 0.117188
vt 0.627761 0.117188
vt 0.606946 0.117188
vt 0.592879 0.117188
vt 0.438371 0.117188
vt 0.606946 0.117188
vt 0.627761 0.117188
vt 0.390625 0.117188
vt 0.515625 0.123167
vt 0.640625 0.122552
vt 0.619225 0.122552
vt 0.599995 0.121556
vt 0.592879 0.121556
vt 0.438371 0.121556
vt 0.599995 0.121556
vt 0.619225 0.122552
vt 0.390625 0.122552
vt 0.515625 0.128236
vt 0.640625 0.127099
vt 0.594917 0.127099
vt 0.580199 0.125259
vt 0.592879 0.125259
vt 0.438371 0.125259
vt 0.580199 0.125259
vt 0.594917 0.127099
vt 0.390625 0.127099
vt 0.558538 0.130138
vt 0.550572 0.127734
vt 0.550572 0.127734
vt 0.558538 0.130138
vt 0.515625 0.131204
vt 0.515625 0.128603
vt 0.515625 0.128603
vt 0.515625 0.131204
vt 0.670915 0.242188
vt 0.675837 0.273438
vt 0.472712 0.130138
vt 0.480678 0.127734
vt 0.683803 0.261501
vt 0.683803 0.222874
vt 0.480678 0.127734
vt 0.472712 0.130138
vt 0.675837 0.210938
vt 0.630362 0.242188
vt 0.639458 0.273438
vt 0.436333 0.127099
vt 0.451051 0.125259
vt 0.654176 0.261501
vt 0.654176 0.222874
vt 0.451051 0.125259
vt 0.436333 0.127099
vt 0.639458 0.210938
vt 0.412025 0.122552
vt 0.431255 0.121556
vt 0.431255 0.121556
vt 0.412025 0.122552
vt 0.403489 0.117188
vt 0.424304 0.117188
vt 0.424304 0.117188
vt 0.403489 0.117188
vt 0.412025 0.111823
vt 0.431255 0.112819
vt 0.431255 0.112819
vt 0.412025 0.111823
vt 0.436333 0.107276
vt 0.451051 0.109116
vt 0.451051 0.109116
vt 0.436333 0.107276
vt 0.472712 0.104237
vt 0.480678 0.106641
vt 0.480678 0.106641
vt 0.472712 0.104237
vt 0.054688 0.328125
vt 0.087833 0.294979
vt 0.054688 0.281250
vt 0.101562 0.328125
vt 0.087833 0.361271
vt 0.054688 0.375000
vt 0.021542 0.361271
vt 0.007812 0.328125
vt 0.021542 0.294979
vt 0.054688 0.281250
vt 0.087833 0.281250
vt 0.087833 0.375000
vt 0.054688 0.375000
vt 0.007812 0.294979
vt 0.007812 0.328125
vt 0.101562 0.328125
vt 0.101562 0.294979
vt 0.007812 0.361271
vt 0.101562 0.361271
vt 0.021542 0.281250
vt 0.021542 0.375000
vt 0.054688 0.281250
vt 0.087833 0.294979
vt 0.054688 0.328125
vt 0.101562 0.328125
vt 0.087833 0.361271
vt 0.054688 0.375000
vt 0.021542 0.361271
vt 0.007812 0.328125
vt 0.021542 0.294979
vt 0.353333 0.353333
vt 0.060000 0.940000
vt 0.060000 0.060000
vt 0.940000 0.060000
vt 0.280000 0.280000
vt 0.060000 0.060000
vt 0.060000 0.940000
vt 0.060000 0.060000
vt 0.940000 0.060000
vt 0.280000 0.280000
vt 0.940000 0.060000
vt 0.060000 0.060000
vt 0.060000 0.940000
vt 0.060000 0.060000
vn 0.000000 0.000000 -1.000000
vn 0.000000 0.000000 -1.000000
vn -1.000000 0.000000 0.000000
vn 0.000000 0.000000 -1.000000
vn -1.000000 0.000000 0.000000
vn 0.000000 0.000000 -1.000000
vn 0.382683 -0.923880 0.000000
vn 0.923880 -0.382683 0.000000
vn 0.923880 0.382683 -0.000000
vn 0.382683 0.923880 0.000000
vn -0.382683 0.923880 -0.000000
vn -0.923880 0.382683 -0.000000
vn -0.923880 -0.382683 0.000000
vn -0.382683 -0.923880 0.000000
vn 0.000000 0.000000 1.000000
vn 0.000000 0.000000 1.000000
vn 0.000000 0.000000 -1.000000
vn -0.000000 -1.000000 0.000000
vn 0.000000 1.000000 0.000000
vn 1.000000 0.000000 -0.000000
vn -1.000000 0.000000 -0.000000
vn 0.158879 -0.798741 0.580319
vn -0.061352 0.308435 0.949265
vn -0.195090 0.980785 0.000000
vn -0.061352 0.308435 -0.949265
vn 0.158879 -0.798741 -0.580319
vn 0.452450 -0.677140 0.580319
vn -0.174714 0.261478 0.949265
vn -0.555570 0.831470 0.000000
vn -0.174714 0.261478 -0.949265
vn 0.452450 -0.677140 -0.580319
vn 0.677140 -0.452450 0.580319
vn -0.261478 0.174714 0.949265
vn -0.831470 0.555570 0.000000
vn -0.261478 0.174714 -0.949265
vn 0.677140 -0.452450 -0.580319
vn 0.798741 -0.158879 0.580319
vn -0.308435 0.061352 0.949265
vn -0.980785 0.195090 0.000000
vn -0.308435 0.061352 -0.949265
vn 0.798741 -0.158879 -0.580319
vn 0.798741 0.158879 0.580319
vn -0.308435 -0.061352 0.949265
vn -0.980785 -0.195090 0.000000
vn -0.308435 -0.061352 -0.949265
vn 0.798741 0.158879 -0.580319
vn 0.677140 0.452450 0.580319
vn -0.261478 -0.174714 0.949265
vn -0.831470 -0.555570 0.000000
vn -0.261478 -0.174714 -0.949265
vn 0.677140 0.452450 -0.580319
vn 0.452450 0.677140 0.580319
vn -0.174714 -0.261478 0.949265
vn -0.555570 -0.831470 0.000000
vn -0.174714 -0.261478 -0.949265
vn 0.452450 0.677140 -0.580319
vn 0.158879 0.798741 0.580319
vn -0.061352 -0.308435 0.949265
vn -0.195090 -0.980785 0.000000
vn -0.061352 -0.308435 -0.949265
vn 0.158879 0.798741 -0.580319
vn -0.158879 0.798741 0.580319
vn 0.061352 -0.308435 0.949265
vn 0.195090 -0.980785 0.000000
vn 0.061352 -0.308435 -0.949265
vn -0.158879 0.798741 -0.580319
vn -0.452450 0.677140 0.580319
vn 0.174714 -0.261478 0.949265
vn 0.555570 -0.831470 0.000000
vn 0.174714 -0.261478 -0.949265
vn -0.452450 0.677140 -0.580319
vn -0.677140 0.452450 0.580319
vn 0.261478 -0.174714 0.949265
vn 0.831470 -0.555570 0.000000
vn 0.261478 -0.174714 -0.949265
vn -0.677140 0.452450 -0.580319
vn -0.798741 0.158879 0.580319
vn 0.308435 -0.061352 0.949265
vn 0.980785 -0.195090 0.000000
vn 0.308435 -0.061352 -0.949265
vn -0.798741 0.158879 -0.580319
vn -0.798741 -0.158879 0.580319
vn 0.308435 0.061352 0.949265
vn 0.980785 0.195090 0.000000
vn 0.308435 0.061352 -0.949265
vn -0.798741 -0.158879 -0.580319
vn -0.677140 -0.452450 0.580319
vn 0.261478 0.174714 0.949265
vn 0.831470 0.555570 0.000000
vn 0.261478 0.174714 -0.949265
vn -0.677140 -0.452450 -0.580319
vn -0.452450 -0.677140 0.580319
vn 0.174714 0.261478 0.949265
vn 0.555570 0.831470 0.000000
vn 0.174714 0.261478 -0.949265
vn -0.452450 -0.677140 -0.580319
vn -0.158879 -0.798741 0.580319
vn 0.061352 0.308435 0.949265
vn 0.195090 0.980785 0.000000
vn 0.061352 0.308435 -0.949265
vn -0.158879 -0.798741 -0.580319
vn 0.000000 0.000000 -1.000000
vn 0.382683 -0.923880 0.000000
vn 0.923880 -0.382683 0.000000
vn 0.923880 0.382683 0.000000
vn 0.382683 0.923880 0.000000
vn -0.382683 0.923880 0.000000
vn -0.923880 0.382683 0.000000
vn -0.923880 -0.382683 0.000000
vn -0.382683 -0.923880 0.000000
vn 0.000000 0.000000 1.000000
vn 0.000000 1.000000 0.000000
vn 0.000000 -1.000000 0.000000
vn 0.000000 1.000000 0.000000
vn 0.000000 -1.000000 0.000000
vn 0.000000 1.000000 0.000000
vn 0.000000 -1.000000 0.000000
usemtl skin
f 1/1/1 2/2/1 3/3/1
f 4/4/2 5/5/2 6/6/2
f 5/7/3 7/8/3 6/9/3
f 8/10/4 9/11/4 10/12/4
f 9/13/5 11/14/5 10/15/5
f 12/16/6 13/17/6 14/18/6
f 12/16/6 15/19/6 13/17/6
f 12/16/6 16/20/6 15/19/6
f 12/16/6 17/21/6 16/20/6
f 12/16/6 18/22/6 17/21/6
f 12/16/6 19/23/6 18/22/6
f 12/16/6 20/24/6 19/23/6
f 12/16/6 14/18/6 20/24/6
f 14/25/7 13/26/7 21/27/7
f 14/25/7 21/27/7 22/28/7
f 13/29/8 15/30/8 23/30/8
f 13/29/8 23/30/8 21/29/8
f 15/30/9 16/31/9 24/31/9
f 15/30/9 24/31/9 23/30/9
f 16/26/10 17/25/10 25/28/10
f 16/26/10 25/28/10 24/27/10
f 17/25/11 18/32/11 26/33/11
f 17/25/11 26/33/11 25/28/11
f 18/34/12 19/35/12 27/36/12
f 18/34/12 27/36/12 26/37/12
f 19/35/13 20/38/13 28/39/13
f 19/35/13 28/39/13 27/36/13
f 20/32/14 14/25/14 22/28/14
f 20/32/14 22/28/14 28/33/14
f 22/40/15 21/41/15 29/42/15
f 21/41/15 23/43/15 29/42/15
f 23/43/15 24/44/15 29/42/15
f 24/44/15 25/45/15 29/42/15
f 25/45/15 26/46/15 29/42/15
f 26/46/15 27/47/15 29/42/15
f 27/47/15 28/48/15 29/42/15
f 28/48/15 22/40/15 29/42/15
f 30/49/16 31/50/16 32/51/16
f 30/49/16 32/51/16 33/52/16
f 34/53/17 35/54/17 36/55/17
f 34/53/17 36/55/17 37/56/17
f 33/57/18 32/58/18 37/59/18
f 33/57/18 37/59/18 36/60/18
f 35/60/19 34/59/19 31/58/19
f 35/60/19 31/58/19 30/57/19
f 35/61/20 30/62/20 33/63/20
f 35/61/20 33/63/20 36/64/20
f 31/62/21 34/61/21 37/64/21
f 31/62/21 37/64/21 32/63/21
f 38/65/22 39/66/22 40/67/22
f 38/65/22 40/67/22 41/68/22
f 41/69/23 40/70/23 42/71/23
f 41/69/23 42/71/23 43/72/23
f 43/73/24 42/74/24 44/75/24
f 43/73/24 44/75/24 45/76/24
f 45/77/25 44/78/25 46/79/25
f 45/77/25 46/79/25 47/80/25
f 47/81/26 46/82/26 39/66/26
f 47/81/26 39/66/26 38/65/26
f 39/66/27 48/83/27 49/84/27
f 39/66/27 49/84/27 40/67/27
f 40/70/28 49/85/28 50/86/28
f 40/70/28 50/86/28 42/71/28
f 42/74/29 50/87/29 51/88/29
f 42/74/29 51/88/29 44/75/29
f 44/78/30 51/89/30 52/90/30
f 44/78/30 52/90/30 46/79/30
f 46/82/31 52/91/31 48/83/31
f 46/82/31 48/83/31 39/66/31
f 48/92/32 53/93/32 54/94/32
f 48/92/32 54/94/32 49/95/32
f 49/85/33 54/96/33 55/97/33
f 49/85/33 55/97/33 50/86/33
f 50/98/34 55/99/34 56/100/34
f 50/98/34 56/100/34 51/101/34
f 51/89/35 56/102/35 57/103/35
f 51/89/35 57/103/35 52/90/35
f 52/104/36 57/105/36 53/93/36
f 52/104/36 53/93/36 48/92/36
f 53/93/37 58/106/37 59/107/37
f 53/93/37 59/107/37 54/94/37
f 54/96/38 59/108/38 60/109/38
f 54/96/38 60/109/38 55/97/38
f 55/99/39 60/110/39 61/111/39
f 55/99/39 61/111/39 56/100/39
f 56/102/40 61/112/40 62/113/40
f 56/102/40 62/113/40 57/103/40
f 57/105/41 62/114/41 58/106/41
f 57/105/41 58/106/41 53/93/41
f 58/106/42 63/115/42 64/116/42
f 58/106/42 64/116/42 59/107/42
f 59/108/43 64/117/43 65/118/43
f 59/108/43 65/118/43 60/109/43
f 60/110/44 65/119/44 66/120/44
f 60/110/44 66/120/44 61/111/44
f 61/112/45 66/121/45 67/122/45
f 61/112/45 67/122/45 62/113/45
f 62/114/46 67/123/46 63/115/46
f 62/114/46 63/115/46 58/106/46
f 63/115/47 68/124/47 69/125/47
f 63/115/47 69/125/47 64/116/47
f 64/117/48 69/126/48 70/127/48
f 64/117/48 70/127/48 65/118/48
f 65/119/49 70/128/49 71/129/49
f 65/119/49 71/129/49 66/120/49
f 66/121/50 71/130/50 72/131/50
f 66/121/50 72/131/50 67/122/50
f 67/123/51 72/132/51 68/124/51
f 67/123/51 68/124/51 63/115/51
f 68/83/52 73/66/52 74/67/52
f 68/83/52 74/67/52 69/84/52
f 69/126/53 74/133/53 75/134/53
f 69/126/53 75/134/53 70/127/53
f 70/87/54 75/74/54 76/75/54
f 70/87/54 76/75/54 71/88/54
f 71/130/55 76/135/55 77/136/55
f 71/130/55 77/136/55 72/131/55
f 72/91/56 77/82/56 73/66/56
f 72/91/56 73/66/56 68/83/56
f 73/66/57 78/65/57 79/68/57
f 73/66/57 79/68/57 74/67/57
f 74/133/58 79/137/58 80/138/58
f 74/133/58 80/138/58 75/134/58
f 75/74/59 80/73/59 81/76/59
f 75/74/59 81/76/59 76/75/59
f 76/135/60 81/139/60 82/140/60
f 76/135/60 82/140/60 77/136/60
f 77/82/61 82/81/61 78/65/61
f 77/82/61 78/65/61 73/66/61
f 78/65/62 83/141/62 84/142/62
f 78/65/62 84/142/62 79/68/62
f 79/137/63 84/143/63 85/144/63
f 79/137/63 85/144/63 80/138/63
f 80/73/64 85/145/64 86/146/64
f 80/73/64 86/146/64 81/76/64
f 81/139/65 86/147/65 87/148/65
f 81/139/65 87/148/65 82/140/65
f 82/81/66 87/149/66 83/141/66
f 82/81/66 83/141/66 78/65/66
f 83/141/67 88/150/67 89/151/67
f 83/141/67 89/151/67 84/142/67
f 84/143/68 89/152/68 90/153/68
f 84/143/68 90/153/68 85/144/68
f 85/145/69 90/154/69 91/155/69
f 85/145/69 91/155/69 86/146/69
f 86/147/70 91/156/70 92/157/70
f 86/147/70 92/157/70 87/148/70
f 87/149/71 92/158/71 88/150/71
f 87/149/71 88/150/71 83/141/71
f 88/124/72 93/115/72 94/116/72
f 88/124/72 94/116/72 89/125/72
f 89/152/73 94/159/73 95/160/73
f 89/152/73 95/160/73 90/153/73
f 90/128/74 95/119/74 96/120/74
f 90/128/74 96/120/74 91/129/74
f 91/156/75 96/161/75 97/162/75
f 91/156/75 97/162/75 92/157/75
f 92/132/76 97/123/76 93/115/76
f 92/132/76 93/115/76 88/124/76
f 93/115/77 98/106/77 99/107/77
f 93/115/77 99/107/77 94/116/77
f 94/159/78 99/163/78 100/164/78
f 94/159/78 100/164/78 95/160/78
f 95/119/79 100/110/79 101/111/79
f 95/119/79 101/111/79 96/120/79
f 96/161/80 101/165/80 102/166/80
f 96/161/80 102/166/80 97/162/80
f 97/123/81 102/114/81 98/106/81
f 97/123/81 98/106/81 93/115/81
f 98/106/82 103/93/82 104/94/82
f 98/106/82 104/94/82 99/107/82
f 99/163/83 104/167/83 105/168/83
f 99/163/83 105/168/83 100/164/83
f 100/110/84 105/99/84 106/100/84
f 100/110/84 106/100/84 101/111/84
f 101/165/85 106/169/85 107/170/85
f 101/165/85 107/170/85 102/166/85
f 102/114/86 107/105/86 103/93/86
f 102/114/86 103/93/86 98/106/86
f 103/93/87 108/92/87 109/95/87
f 103/93/87 109/95/87 104/94/87
f 104/167/88 109/171/88 110/172/88
f 104/167/88 110/172/88 105/168/88
f 105/99/89 110/98/89 111/101/89
f 105/99/89 111/101/89 106/100/89
f 106/169/90 111/173/90 112/174/90
f 106/169/90 112/174/90 107/170/90
f 107/105/91 112/104/91 108/92/91
f 107/105/91 108/92/91 103/93/91
f 108/150/92 113/141/92 114/142/92
f 108/150/92 114/142/92 109/151/92
f 109/171/93 114/175/93 115/176/93
f 109/171/93 115/176/93 110/172/93
f 110/154/94 115/145/94 116/146/94
f 110/154/94 116/146/94 111/155/94
f 111/173/95 116/177/95 117/178/95
f 111/173/95 117/178/95 112/174/95
f 112/158/96 117/149/96 113/141/96
f 112/158/96 113/141/96 108/150/96
f 113/141/97 38/65/97 41/68/97
f 113/141/97 41/68/97 114/142/97
f 114/175/98 41/69/98 43/72/98
f 114/175/98 43/72/98 115/176/98
f 115/145/99 43/73/99 45/76/99
f 115/145/99 45/76/99 116/146/99
f 116/177/100 45/77/100 47/80/100
f 116/177/100 47/80/100 117/178/100
f 117/149/101 47/81/101 38/65/101
f 117/149/101 38/65/101 113/141/101
f 118/179/102 119/180/102 120/181/102
f 118/179/102 121/182/102 119/180/102
f 118/179/102 122/183/102 121/182/102
f 118/179/102 123/184/102 122/183/102
f 118/179/102 124/185/102 123/184/102
f 118/179/102 125/186/102 124/185/102
f 118/179/102 126/187/102 125/186/102
f 118/179/102 120/181/102 126/187/102
f 120/188/103 119/189/103 127/190/103
f 120/188/103 127/190/103 128/191/103
f 119/192/104 121/193/104 129/194/104
f 119/192/104 129/194/104 127/195/104
f 121/193/105 122/196/105 130/197/105
f 121/193/105 130/197/105 129/194/105
f 122/189/106 123/188/106 131/191/106
f 122/189/106 131/191/106 130/190/106
f 123/188/107 124/198/107 132/199/107
f 123/188/107 132/199/107 131/191/107
f 124/196/108 125/193/108 133/194/108
f 124/196/108 133/194/108 132/197/108
f 125/193/109 126/192/109 134/195/109
f 125/193/109 134/195/109 133/194/109
f 126/198/110 120/188/110 128/191/110
f 126/198/110 128/191/110 134/199/110
f 128/200/111 127/201/111 135/202/111
f 127/201/111 129/203/111 135/202/111
f 129/203/111 130/204/111 135/202/111
f 130/204/111 131/205/111 135/202/111
f 131/205/111 132/206/111 135/202/111
f 132/206/111 133/207/111 135/202/111
f 133/207/111 134/208/111 135/202/111
f 134/208/111 128/200/111 135/202/111
usemtl interior
f 136/209/112 1/210/112 2/211/112
f 136/209/113 2/211/113 1/210/113
f 136/209/112 2/211/112 3/212/112
f 136/209/113 3/212/113 2/211/113
f 136/209/112 3/212/112 1/210/112
f 136/209/113 1/210/113 3/212/113
f 137/213/114 10/214/114 11/215/114
f 137/213/115 11/215/115 10/214/115
f 137/213/114 11/215/114 9/216/114
f 137/213/115 9/216/115 11/215/115
f 137/213/114 9/216/114 8/217/114
f 137/213/115 8/217/115 9/216/115
f 137/213/114 8/217/114 10/214/114
f 137/213/115 10/214/115 8/217/115
f 138/218/116 4/219/116 6/220/116
f 138/218/117 6/220/117 4/219/117
f 138/218/116 6/220/116 7/221/116
f 138/218/117 7/221/117 6/220/117
f 138/218/116 7/221/116 5/222/116
f 138/218/117 5/222/117 7/221/117
f 138/218/116 5/222/116 4/219/116
f 138/218/117 4/219/117 5/222/117
