# Unit ordnance body, nose at +Z, scaled by the view
# Generated by tools/gen_meshes.py. Edit the script, not this file.
v 0.056000 0.000000 0.000000
v 0.039598 0.039598 0.000000
v 0.000000 0.056000 0.000000
v -0.039598 0.039598 0.000000
v -0.056000 0.000000 0.000000
v -0.039598 -0.039598 0.000000
v -0.000000 -0.056000 0.000000
v 0.039598 -0.039598 0.000000
v 0.194570 0.000000 0.125000
v 0.137581 0.137581 0.125000
v 0.000000 0.194570 0.125000
v -0.137581 0.137581 0.125000
v -0.194570 0.000000 0.125000
v -0.137581 -0.137581 0.125000
v -0.000000 -0.194570 0.125000
v 0.137581 -0.137581 0.125000
v 0.244361 0.000000 0.250000
v 0.172789 0.172789 0.250000
v 0.000000 0.244361 0.250000
v -0.172789 0.172789 0.250000
v -0.244361 0.000000 0.250000
v -0.172789 -0.172789 0.250000
v -0.000000 -0.244361 0.250000
v 0.172789 -0.172789 0.250000
v 0.271306 0.000000 0.375000
v 0.191842 0.191842 0.375000
v 0.000000 0.271306 0.375000
v -0.191842 0.191842 0.375000
v -0.271306 0.000000 0.375000
v -0.191842 -0.191842 0.375000
v -0.000000 -0.271306 0.375000
v 0.191842 -0.191842 0.375000
v 0.280000 0.000000 0.500000
v 0.197990 0.197990 0.500000
v 0.000000 0.280000 0.500000
v -0.197990 0.197990 0.500000
v -0.280000 0.000000 0.500000
v -0.197990 -0.197990 0.500000
v -0.000000 -0.280000 0.500000
v 0.197990 -0.197990 0.500000
v 0.271306 0.000000 0.625000
v 0.191842 0.191842 0.625000
v 0.000000 0.271306 0.625000
v -0.191842 0.191842 0.625000
v -0.271306 0.000000 0.625000
v -0.191842 -0.191842 0.625000
v -0.000000 -0.271306 0.625000
v 0.191842 -0.191842 0.625000
v 0.244361 0.000000 0.750000
v 0.172789 0.172789 0.750000
v 0.000000 0.244361 0.750000
v -0.172789 0.172789 0.750000
v -0.244361 0.000000 0.750000
v -0.172789 -0.172789 0.750000
v -0.000000 -0.244361 0.750000
v 0.172789 -0.172789 0.750000
v 0.194570 0.000000 0.875000
v 0.137581 0.137581 0.875000
v 0.000000 0.194570 0.875000
v -0.137581 0.137581 0.875000
v -0.194570 0.000000 0.875000
v -0.137581 -0.137581 0.875000
v -0.000000 -0.194570 0.875000
v 0.137581 -0.137581 0.875000
v 0.056000 0.000000 1.000000
v 0.039598 0.039598 1.000000
v 0.000000 0.056000 1.000000
v -0.039598 0.039598 1.000000
v -0.056000 0.000000 1.000000
v -0.039598 -0.039598 1.000000
v -0.000000 -0.056000 1.000000
v 0.039598 -0.039598 1.000000
vn 0.923880 0.382683 0.000000
vn 0.382683 0.923880 0.000000
vn -0.382683 0.923880 0.000000
vn -0.923880 0.382683 0.000000
vn -0.923880 -0.382683 0.000000
vn -0.382683 -0.923880 0.000000
vn 0.382683 -0.923880 0.000000
vn 0.923880 -0.382683 0.000000
vn 0.923880 0.382683 0.000000
vn 0.382683 0.923880 0.000000
vn -0.382683 0.923880 0.000000
vn -0.923880 0.382683 0.000000
vn -0.923880 -0.382683 0.000000
vn -0.382683 -0.923880 0.000000
vn 0.382683 -0.923880 0.000000
vn 0.923880 -0.382683 0.000000
vn 0.923880 0.382683 0.000000
vn 0.382683 0.923880 0.000000
vn -0.382683 0.923880 0.000000
vn -0.923880 0.382683 0.000000
vn -0.923880 -0.382683 0.000000
vn -0.382683 -0.923880 0.000000
vn 0.382683 -0.923880 0.000000
vn 0.923880 -0.382683 0.000000
vn 0.923880 0.382683 0.000000
vn 0.382683 0.923880 0.000000
vn -0.382683 0.923880 0.000000
vn -0.923880 0.382683 0.000000
vn -0.923880 -0.382683 0.000000
vn -0.382683 -0.923880 0.000000
vn 0.382683 -0.923880 0.000000
vn 0.923880 -0.382683 0.000000
vn 0.923880 0.382683 0.000000
vn 0.382683 0.923880 0.000000
vn -0.382683 0.923880 0.000000
vn -0.923880 0.382683 0.000000
vn -0.923880 -0.382683 0.000000
vn -0.382683 -0.923880 0.000000
vn 0.382683 -0.923880 0.000000
vn 0.923880 -0.382683 0.000000
vn 0.923880 0.382683 0.000000
vn 0.382683 0.923880 0.000000
vn -0.382683 0.923880 0.000000
vn -0.923880 0.382683 0.000000
vn -0.923880 -0.382683 0.000000
vn -0.382683 -0.923880 0.000000
vn 0.382683 -0.923880 0.000000
vn 0.923880 -0.382683 0.000000
vn 0.923880 0.382683 0.000000
vn 0.382683 0.923880 0.000000
vn -0.382683 0.923880 0.000000
vn -0.923880 0.382683 0.000000
vn -0.923880 -0.382683 0.000000
vn -0.382683 -0.923880 0.000000
vn 0.382683 -0.923880 0.000000
vn 0.923880 -0.382683 0.000000
vn 0.923880 0.382683 0.000000
vn 0.382683 0.923880 0.000000
vn -0.382683 0.923880 0.000000
vn -0.923880 0.382683 0.000000
vn -0.923880 -0.382683 0.000000
vn -0.382683 -0.923880 0.000000
vn 0.382683 -0.923880 0.000000
vn 0.923880 -0.382683 0.000000
f 1//1 10//1 9//1
f 1//1 2//1 10//1
f 2//2 11//2 10//2
f 2//2 3//2 11//2
f 3//3 12//3 11//3
f 3//3 4//3 12//3
f 4//4 13//4 12//4
f 4//4 5//4 13//4
f 5//5 14//5 13//5
f 5//5 6//5 14//5
f 6//6 15//6 14//6
f 6//6 7//6 15//6
f 7//7 16//7 15//7
f 7//7 8//7 16//7
f 8//8 9//8 16//8
f 8//8 1//8 9//8
f 9//9 18//9 17//9
f 9//9 10//9 18//9
f 10//10 19//10 18//10
f 10//10 11//10 19//10
f 11//11 20//11 19//11
f 11//11 12//11 20//11
f 12//12 21//12 20//12
f 12//12 13//12 21//12
f 13//13 22//13 21//13
f 13//13 14//13 22//13
f 14//14 23//14 22//14
f 14//14 15//14 23//14
f 15//15 24//15 23//15
f 15//15 16//15 24//15
f 16//16 17//16 24//16
f 16//16 9//16 17//16
f 17//17 26//17 25//17
f 17//17 18//17 26//17
f 18//18 27//18 26//18
f 18//18 19//18 27//18
f 19//19 28//19 27//19
f 19//19 20//19 28//19
f 20//20 29//20 28//20
f 20//20 21//20 29//20
f 21//21 30//21 29//21
f 21//21 22//21 30//21
f 22//22 31//22 30//22
f 22//22 23//22 31//22
f 23//23 32//23 31//23
f 23//23 24//23 32//23
f 24//24 25//24 32//24
f 24//24 17//24 25//24
f 25//25 34//25 33//25
f 25//25 26//25 34//25
f 26//26 35//26 34//26
f 26//26 27//26 35//26
f 27//27 36//27 35//27
f 27//27 28//27 36//27
f 28//28 37//28 36//28
f 28//28 29//28 37//28
f 29//29 38//29 37//29
f 29//29 30//29 38//29
f 30//30 39//30 38//30
f 30//30 31//30 39//30
f 31//31 40//31 39//31
f 31//31 32//31 40//31
f 32//32 33//32 40//32
f 32//32 25//32 33//32
f 33//33 42//33 41//33
f 33//33 34//33 42//33
f 34//34 43//34 42//34
f 34//34 35//34 43//34
f 35//35 44//35 43//35
f 35//35 36//35 44//35
f 36//36 45//36 44//36
f 36//36 37//36 45//36
f 37//37 46//37 45//37
f 37//37 38//37 46//37
f 38//38 47//38 46//38
f 38//38 39//38 47//38
f 39//39 48//39 47//39
f 39//39 40//39 48//39
f 40//40 41//40 48//40
f 40//40 33//40 41//40
f 41//41 50//41 49//41
f 41//41 42//41 50//41
f 42//42 51//42 50//42
f 42//42 43//42 51//42
f 43//43 52//43 51//43
f 43//43 44//43 52//43
f 44//44 53//44 52//44
f 44//44 45//44 53//44
f 45//45 54//45 53//45
f 45//45 46//45 54//45
f 46//46 55//46 54//46
f 46//46 47//46 55//46
f 47//47 56//47 55//47
f 47//47 48//47 56//47
f 48//48 49//48 56//48
f 48//48 41//48 49//48
f 49//49 58//49 57//49
f 49//49 50//49 58//49
f 50//50 59//50 58//50
f 50//50 51//50 59//50
f 51//51 60//51 59//51
f 51//51 52//51 60//51
f 52//52 61//52 60//52
f 52//52 53//52 61//52
f 53//53 62//53 61//53
f 53//53 54//53 62//53
f 54//54 63//54 62//54
f 54//54 55//54 63//54
f 55//55 64//55 63//55
f 55//55 56//55 64//55
f 56//56 57//56 64//56
f 56//56 49//56 57//56
f 57//57 66//57 65//57
f 57//57 58//57 66//57
f 58//58 67//58 66//58
f 58//58 59//58 67//58
f 59//59 68//59 67//59
f 59//59 60//59 68//59
f 60//60 69//60 68//60
f 60//60 61//60 69//60
f 61//61 70//61 69//61
f 61//61 62//61 70//61
f 62//62 71//62 70//62
f 62//62 63//62 71//62
f 63//63 72//63 71//63
f 63//63 64//63 72//63
f 64//64 65//64 72//64
f 64//64 57//64 65//64
