# Unit ring band on XY facing +Z, for the billboarded shock front
# Generated by tools/gen_meshes.py. Edit the script, not this file.
v 0.450000 0.000000 0.000000
v 0.500000 0.000000 0.000000
v 0.447833 0.044108 0.000000
v 0.497592 0.049009 0.000000
v 0.441353 0.087791 0.000000
v 0.490393 0.097545 0.000000
v 0.430623 0.130628 0.000000
v 0.478470 0.145142 0.000000
v 0.415746 0.172208 0.000000
v 0.461940 0.191342 0.000000
v 0.396865 0.212129 0.000000
v 0.440961 0.235698 0.000000
v 0.374161 0.250007 0.000000
v 0.415735 0.277785 0.000000
v 0.347855 0.285477 0.000000
v 0.386505 0.317197 0.000000
v 0.318198 0.318198 0.000000
v 0.353553 0.353553 0.000000
v 0.285477 0.347855 0.000000
v 0.317197 0.386505 0.000000
v 0.250007 0.374161 0.000000
v 0.277785 0.415735 0.000000
v 0.212129 0.396865 0.000000
v 0.235698 0.440961 0.000000
v 0.172208 0.415746 0.000000
v 0.191342 0.461940 0.000000
v 0.130628 0.430623 0.000000
v 0.145142 0.478470 0.000000
v 0.087791 0.441353 0.000000
v 0.097545 0.490393 0.000000
v 0.044108 0.447833 0.000000
v 0.049009 0.497592 0.000000
v 0.000000 0.450000 0.000000
v 0.000000 0.500000 0.000000
v -0.044108 0.447833 0.000000
v -0.049009 0.497592 0.000000
v -0.087791 0.441353 0.000000
v -0.097545 0.490393 0.000000
v -0.130628 0.430623 0.000000
v -0.145142 0.478470 0.000000
v -0.172208 0.415746 0.000000
v -0.191342 0.461940 0.000000
v -0.212129 0.396865 0.000000
v -0.235698 0.440961 0.000000
v -0.250007 0.374161 0.000000
v -0.277785 0.415735 0.000000
v -0.285477 0.347855 0.000000
v -0.317197 0.386505 0.000000
v -0.318198 0.318198 0.000000
v -0.353553 0.353553 0.000000
v -0.347855 0.285477 0.000000
v -0.386505 0.317197 0.000000
v -0.374161 0.250007 0.000000
v -0.415735 0.277785 0.000000
v -0.396865 0.212129 0.000000
v -0.440961 0.235698 0.000000
v -0.415746 0.172208 0.000000
v -0.461940 0.191342 0.000000
v -0.430623 0.130628 0.000000
v -0.478470 0.145142 0.000000
v -0.441353 0.087791 0.000000
v -0.490393 0.097545 0.000000
v -0.447833 0.044108 0.000000
v -0.497592 0.049009 0.000000
v -0.450000 0.000000 0.000000
v -0.500000 0.000000 0.000000
v -0.447833 -0.044108 0.000000
v -0.497592 -0.049009 0.000000
v -0.441353 -0.087791 0.000000
v -0.490393 -0.097545 0.000000
v -0.430623 -0.130628 0.000000
v -0.478470 -0.145142 0.000000
v -0.415746 -0.172208 0.000000
v -0.461940 -0.191342 0.000000
v -0.396865 -0.212129 0.000000
v -0.440961 -0.235698 0.000000
v -0.374161 -0.250007 0.000000
v -0.415735 -0.277785 0.000000
v -0.347855 -0.285477 0.000000
v -0.386505 -0.317197 0.000000
v -0.318198 -0.318198 0.000000
v -0.353553 -0.353553 0.000000
v -0.285477 -0.347855 0.000000
v -0.317197 -0.386505 0.000000
v -0.250007 -0.374161 0.000000
v -0.277785 -0.415735 0.000000
v -0.212129 -0.396865 0.000000
v -0.235698 -0.440961 0.000000
v -0.172208 -0.415746 0.000000
v -0.191342 -0.461940 0.000000
v -0.130628 -0.430623 0.000000
v -0.145142 -0.478470 0.000000
v -0.087791 -0.441353 0.000000
v -0.097545 -0.490393 0.000000
v -0.044108 -0.447833 0.000000
v -0.049009 -0.497592 0.000000
v -0.000000 -0.450000 0.000000
v -0.000000 -0.500000 0.000000
v 0.044108 -0.447833 0.000000
v 0.049009 -0.497592 0.000000
v 0.087791 -0.441353 0.000000
v 0.097545 -0.490393 0.000000
v 0.130628 -0.430623 0.000000
v 0.145142 -0.478470 0.000000
v 0.172208 -0.415746 0.000000
v 0.191342 -0.461940 0.000000
v 0.212129 -0.396865 0.000000
v 0.235698 -0.440961 0.000000
v 0.250007 -0.374161 0.000000
v 0.277785 -0.415735 0.000000
v 0.285477 -0.347855 0.000000
v 0.317197 -0.386505 0.000000
v 0.318198 -0.318198 0.000000
v 0.353553 -0.353553 0.000000
v 0.347855 -0.285477 0.000000
v 0.386505 -0.317197 0.000000
v 0.374161 -0.250007 0.000000
v 0.415735 -0.277785 0.000000
v 0.396865 -0.212129 0.000000
v 0.440961 -0.235698 0.000000
v 0.415746 -0.172208 0.000000
v 0.461940 -0.191342 0.000000
v 0.430623 -0.130628 0.000000
v 0.478470 -0.145142 0.000000
v 0.441353 -0.087791 0.000000
v 0.490393 -0.097545 0.000000
v 0.447833 -0.044108 0.000000
v 0.497592 -0.049009 0.000000
v 0.450000 -0.000000 0.000000
v 0.500000 -0.000000 0.000000
vn 0.000000 0.000000 1.000000
f 1//1 2//1 4//1
f 1//1 4//1 3//1
f 3//1 4//1 6//1
f 3//1 6//1 5//1
f 5//1 6//1 8//1
f 5//1 8//1 7//1
f 7//1 8//1 10//1
f 7//1 10//1 9//1
f 9//1 10//1 12//1
f 9//1 12//1 11//1
f 11//1 12//1 14//1
f 11//1 14//1 13//1
f 13//1 14//1 16//1
f 13//1 16//1 15//1
f 15//1 16//1 18//1
f 15//1 18//1 17//1
f 17//1 18//1 20//1
f 17//1 20//1 19//1
f 19//1 20//1 22//1
f 19//1 22//1 21//1
f 21//1 22//1 24//1
f 21//1 24//1 23//1
f 23//1 24//1 26//1
f 23//1 26//1 25//1
f 25//1 26//1 28//1
f 25//1 28//1 27//1
f 27//1 28//1 30//1
f 27//1 30//1 29//1
f 29//1 30//1 32//1
f 29//1 32//1 31//1
f 31//1 32//1 34//1
f 31//1 34//1 33//1
f 33//1 34//1 36//1
f 33//1 36//1 35//1
f 35//1 36//1 38//1
f 35//1 38//1 37//1
f 37//1 38//1 40//1
f 37//1 40//1 39//1
f 39//1 40//1 42//1
f 39//1 42//1 41//1
f 41//1 42//1 44//1
f 41//1 44//1 43//1
f 43//1 44//1 46//1
f 43//1 46//1 45//1
f 45//1 46//1 48//1
f 45//1 48//1 47//1
f 47//1 48//1 50//1
f 47//1 50//1 49//1
f 49//1 50//1 52//1
f 49//1 52//1 51//1
f 51//1 52//1 54//1
f 51//1 54//1 53//1
f 53//1 54//1 56//1
f 53//1 56//1 55//1
f 55//1 56//1 58//1
f 55//1 58//1 57//1
f 57//1 58//1 60//1
f 57//1 60//1 59//1
f 59//1 60//1 62//1
f 59//1 62//1 61//1
f 61//1 62//1 64//1
f 61//1 64//1 63//1
f 63//1 64//1 66//1
f 63//1 66//1 65//1
f 65//1 66//1 68//1
f 65//1 68//1 67//1
f 67//1 68//1 70//1
f 67//1 70//1 69//1
f 69//1 70//1 72//1
f 69//1 72//1 71//1
f 71//1 72//1 74//1
f 71//1 74//1 73//1
f 73//1 74//1 76//1
f 73//1 76//1 75//1
f 75//1 76//1 78//1
f 75//1 78//1 77//1
f 77//1 78//1 80//1
f 77//1 80//1 79//1
f 79//1 80//1 82//1
f 79//1 82//1 81//1
f 81//1 82//1 84//1
f 81//1 84//1 83//1
f 83//1 84//1 86//1
f 83//1 86//1 85//1
f 85//1 86//1 88//1
f 85//1 88//1 87//1
f 87//1 88//1 90//1
f 87//1 90//1 89//1
f 89//1 90//1 92//1
f 89//1 92//1 91//1
f 91//1 92//1 94//1
f 91//1 94//1 93//1
f 93//1 94//1 96//1
f 93//1 96//1 95//1
f 95//1 96//1 98//1
f 95//1 98//1 97//1
f 97//1 98//1 100//1
f 97//1 100//1 99//1
f 99//1 100//1 102//1
f 99//1 102//1 101//1
f 101//1 102//1 104//1
f 101//1 104//1 103//1
f 103//1 104//1 106//1
f 103//1 106//1 105//1
f 105//1 106//1 108//1
f 105//1 108//1 107//1
f 107//1 108//1 110//1
f 107//1 110//1 109//1
f 109//1 110//1 112//1
f 109//1 112//1 111//1
f 111//1 112//1 114//1
f 111//1 114//1 113//1
f 113//1 114//1 116//1
f 113//1 116//1 115//1
f 115//1 116//1 118//1
f 115//1 118//1 117//1
f 117//1 118//1 120//1
f 117//1 120//1 119//1
f 119//1 120//1 122//1
f 119//1 122//1 121//1
f 121//1 122//1 124//1
f 121//1 124//1 123//1
f 123//1 124//1 126//1
f 123//1 126//1 125//1
f 125//1 126//1 128//1
f 125//1 128//1 127//1
f 127//1 128//1 130//1
f 127//1 130//1 129//1
