# Unit band for the helm turn arc, masked by angle in the shader
# Generated by tools/gen_meshes.py. Edit the script, not this file.
v 0.000000 0.000000 0.900000
v 0.000000 0.000000 1.000000
v 0.047102 0.000000 0.898767
v 0.052336 0.000000 0.998630
v 0.094076 0.000000 0.895070
v 0.104528 0.000000 0.994522
v 0.140791 0.000000 0.888920
v 0.156434 0.000000 0.987688
v 0.187121 0.000000 0.880333
v 0.207912 0.000000 0.978148
v 0.232937 0.000000 0.869333
v 0.258819 0.000000 0.965926
v 0.278115 0.000000 0.855951
v 0.309017 0.000000 0.951057
v 0.322531 0.000000 0.840222
v 0.358368 0.000000 0.933580
v 0.366063 0.000000 0.822191
v 0.406737 0.000000 0.913545
v 0.408591 0.000000 0.801906
v 0.453990 0.000000 0.891007
v 0.450000 0.000000 0.779423
v 0.500000 0.000000 0.866025
v 0.490175 0.000000 0.754804
v 0.544639 0.000000 0.838671
v 0.529007 0.000000 0.728115
v 0.587785 0.000000 0.809017
v 0.566388 0.000000 0.699431
v 0.629320 0.000000 0.777146
v 0.602218 0.000000 0.668830
v 0.669131 0.000000 0.743145
v 0.636396 0.000000 0.636396
v 0.707107 0.000000 0.707107
v 0.668830 0.000000 0.602218
v 0.743145 0.000000 0.669131
v 0.699431 0.000000 0.566388
v 0.777146 0.000000 0.629320
v 0.728115 0.000000 0.529007
v 0.809017 0.000000 0.587785
v 0.754804 0.000000 0.490175
v 0.838671 0.000000 0.544639
v 0.779423 0.000000 0.450000
v 0.866025 0.000000 0.500000
v 0.801906 0.000000 0.408591
v 0.891007 0.000000 0.453990
v 0.822191 0.000000 0.366063
v 0.913545 0.000000 0.406737
v 0.840222 0.000000 0.322531
v 0.933580 0.000000 0.358368
v 0.855951 0.000000 0.278115
v 0.951057 0.000000 0.309017
v 0.869333 0.000000 0.232937
v 0.965926 0.000000 0.258819
v 0.880333 0.000000 0.187121
v 0.978148 0.000000 0.207912
v 0.888920 0.000000 0.140791
v 0.987688 0.000000 0.156434
v 0.895070 0.000000 0.094076
v 0.994522 0.000000 0.104528
v 0.898767 0.000000 0.047102
v 0.998630 0.000000 0.052336
v 0.900000 0.000000 0.000000
v 1.000000 0.000000 0.000000
v 0.898767 0.000000 -0.047102
v 0.998630 0.000000 -0.052336
v 0.895070 0.000000 -0.094076
v 0.994522 0.000000 -0.104528
v 0.888920 0.000000 -0.140791
v 0.987688 0.000000 -0.156434
v 0.880333 0.000000 -0.187121
v 0.978148 0.000000 -0.207912
v 0.869333 0.000000 -0.232937
v 0.965926 0.000000 -0.258819
v 0.855951 0.000000 -0.278115
v 0.951057 0.000000 -0.309017
v 0.840222 0.000000 -0.322531
v 0.933580 0.000000 -0.358368
v 0.822191 0.000000 -0.366063
v 0.913545 0.000000 -0.406737
v 0.801906 0.000000 -0.408591
v 0.891007 0.000000 -0.453990
v 0.779423 0.000000 -0.450000
v 0.866025 0.000000 -0.500000
v 0.754804 0.000000 -0.490175
v 0.838671 0.000000 -0.544639
v 0.728115 0.000000 -0.529007
v 0.809017 0.000000 -0.587785
v 0.699431 0.000000 -0.566388
v 0.777146 0.000000 -0.629320
v 0.668830 0.000000 -0.602218
v 0.743145 0.000000 -0.669131
v 0.636396 0.000000 -0.636396
v 0.707107 0.000000 -0.707107
v 0.602218 0.000000 -0.668830
v 0.669131 0.000000 -0.743145
v 0.566388 0.000000 -0.699431
v 0.629320 0.000000 -0.777146
v 0.529007 0.000000 -0.728115
v 0.587785 0.000000 -0.809017
v 0.490175 0.000000 -0.754804
v 0.544639 0.000000 -0.838671
v 0.450000 0.000000 -0.779423
v 0.500000 0.000000 -0.866025
v 0.408591 0.000000 -0.801906
v 0.453990 0.000000 -0.891007
v 0.366063 0.000000 -0.822191
v 0.406737 0.000000 -0.913545
v 0.322531 0.000000 -0.840222
v 0.358368 0.000000 -0.933580
v 0.278115 0.000000 -0.855951
v 0.309017 0.000000 -0.951057
v 0.232937 0.000000 -0.869333
v 0.258819 0.000000 -0.965926
v 0.187121 0.000000 -0.880333
v 0.207912 0.000000 -0.978148
v 0.140791 0.000000 -0.888920
v 0.156434 0.000000 -0.987688
v 0.094076 0.000000 -0.895070
v 0.104528 0.000000 -0.994522
v 0.047102 0.000000 -0.898767
v 0.052336 0.000000 -0.998630
v 0.000000 0.000000 -0.900000
v 0.000000 0.000000 -1.000000
v -0.047102 0.000000 -0.898767
v -0.052336 0.000000 -0.998630
v -0.094076 0.000000 -0.895070
v -0.104528 0.000000 -0.994522
v -0.140791 0.000000 -0.888920
v -0.156434 0.000000 -0.987688
v -0.187121 0.000000 -0.880333
v -0.207912 0.000000 -0.978148
v -0.232937 0.000000 -0.869333
v -0.258819 0.000000 -0.965926
v -0.278115 0.000000 -0.855951
v -0.309017 0.000000 -0.951057
v -0.322531 0.000000 -0.840222
v -0.358368 0.000000 -0.933580
v -0.366063 0.000000 -0.822191
v -0.406737 0.000000 -0.913545
v -0.408591 0.000000 -0.801906
v -0.453990 0.000000 -0.891007
v -0.450000 0.000000 -0.779423
v -0.500000 0.000000 -0.866025
v -0.490175 0.000000 -0.754804
v -0.544639 0.000000 -0.838671
v -0.529007 0.000000 -0.728115
v -0.587785 0.000000 -0.809017
v -0.566388 0.000000 -0.699431
v -0.629320 0.000000 -0.777146
v -0.602218 0.000000 -0.668830
v -0.669131 0.000000 -0.743145
v -0.636396 0.000000 -0.636396
v -0.707107 0.000000 -0.707107
v -0.668830 0.000000 -0.602218
v -0.743145 0.000000 -0.669131
v -0.699431 0.000000 -0.566388
v -0.777146 0.000000 -0.629320
v -0.728115 0.000000 -0.529007
v -0.809017 0.000000 -0.587785
v -0.754804 0.000000 -0.490175
v -0.838671 0.000000 -0.544639
v -0.779423 0.000000 -0.450000
v -0.866025 0.000000 -0.500000
v -0.801906 0.000000 -0.408591
v -0.891007 0.000000 -0.453990
v -0.822191 0.000000 -0.366063
v -0.913545 0.000000 -0.406737
v -0.840222 0.000000 -0.322531
v -0.933580 0.000000 -0.358368
v -0.855951 0.000000 -0.278115
v -0.951057 0.000000 -0.309017
v -0.869333 0.000000 -0.232937
v -0.965926 0.000000 -0.258819
v -0.880333 0.000000 -0.187121
v -0.978148 0.000000 -0.207912
v -0.888920 0.000000 -0.140791
v -0.987688 0.000000 -0.156434
v -0.895070 0.000000 -0.094076
v -0.994522 0.000000 -0.104528
v -0.898767 0.000000 -0.047102
v -0.998630 0.000000 -0.052336
v -0.900000 0.000000 -0.000000
v -1.000000 0.000000 -0.000000
v -0.898767 0.000000 0.047102
v -0.998630 0.000000 0.052336
v -0.895070 0.000000 0.094076
v -0.994522 0.000000 0.104528
v -0.888920 0.000000 0.140791
v -0.987688 0.000000 0.156434
v -0.880333 0.000000 0.187121
v -0.978148 0.000000 0.207912
v -0.869333 0.000000 0.232937
v -0.965926 0.000000 0.258819
v -0.855951 0.000000 0.278115
v -0.951057 0.000000 0.309017
v -0.840222 0.000000 0.322531
v -0.933580 0.000000 0.358368
v -0.822191 0.000000 0.366063
v -0.913545 0.000000 0.406737
v -0.801906 0.000000 0.408591
v -0.891007 0.000000 0.453990
v -0.779423 0.000000 0.450000
v -0.866025 0.000000 0.500000
v -0.754804 0.000000 0.490175
v -0.838671 0.000000 0.544639
v -0.728115 0.000000 0.529007
v -0.809017 0.000000 0.587785
v -0.699431 0.000000 0.566388
v -0.777146 0.000000 0.629320
v -0.668830 0.000000 0.602218
v -0.743145 0.000000 0.669131
v -0.636396 0.000000 0.636396
v -0.707107 0.000000 0.707107
v -0.602218 0.000000 0.668830
v -0.669131 0.000000 0.743145
v -0.566388 0.000000 0.699431
v -0.629320 0.000000 0.777146
v -0.529007 0.000000 0.728115
v -0.587785 0.000000 0.809017
v -0.490175 0.000000 0.754804
v -0.544639 0.000000 0.838671
v -0.450000 0.000000 0.779423
v -0.500000 0.000000 0.866025
v -0.408591 0.000000 0.801906
v -0.453990 0.000000 0.891007
v -0.366063 0.000000 0.822191
v -0.406737 0.000000 0.913545
v -0.322531 0.000000 0.840222
v -0.358368 0.000000 0.933580
v -0.278115 0.000000 0.855951
v -0.309017 0.000000 0.951057
v -0.232937 0.000000 0.869333
v -0.258819 0.000000 0.965926
v -0.187121 0.000000 0.880333
v -0.207912 0.000000 0.978148
v -0.140791 0.000000 0.888920
v -0.156434 0.000000 0.987688
v -0.094076 0.000000 0.895070
v -0.104528 0.000000 0.994522
v -0.047102 0.000000 0.898767
v -0.052336 0.000000 0.998630
v -0.000000 0.000000 0.900000
v -0.000000 0.000000 1.000000
vn 0.000000 1.000000 0.000000
f 1//1 2//1 4//1
f 1//1 4//1 3//1
f 3//1 4//1 6//1
f 3//1 6//1 5//1
f 5//1 6//1 8//1
f 5//1 8//1 7//1
f 7//1 8//1 10//1
f 7//1 10//1 9//1
f 9//1 10//1 12//1
f 9//1 12//1 11//1
f 11//1 12//1 14//1
f 11//1 14//1 13//1
f 13//1 14//1 16//1
f 13//1 16//1 15//1
f 15//1 16//1 18//1
f 15//1 18//1 17//1
f 17//1 18//1 20//1
f 17//1 20//1 19//1
f 19//1 20//1 22//1
f 19//1 22//1 21//1
f 21//1 22//1 24//1
f 21//1 24//1 23//1
f 23//1 24//1 26//1
f 23//1 26//1 25//1
f 25//1 26//1 28//1
f 25//1 28//1 27//1
f 27//1 28//1 30//1
f 27//1 30//1 29//1
f 29//1 30//1 32//1
f 29//1 32//1 31//1
f 31//1 32//1 34//1
f 31//1 34//1 33//1
f 33//1 34//1 36//1
f 33//1 36//1 35//1
f 35//1 36//1 38//1
f 35//1 38//1 37//1
f 37//1 38//1 40//1
f 37//1 40//1 39//1
f 39//1 40//1 42//1
f 39//1 42//1 41//1
f 41//1 42//1 44//1
f 41//1 44//1 43//1
f 43//1 44//1 46//1
f 43//1 46//1 45//1
f 45//1 46//1 48//1
f 45//1 48//1 47//1
f 47//1 48//1 50//1
f 47//1 50//1 49//1
f 49//1 50//1 52//1
f 49//1 52//1 51//1
f 51//1 52//1 54//1
f 51//1 54//1 53//1
f 53//1 54//1 56//1
f 53//1 56//1 55//1
f 55//1 56//1 58//1
f 55//1 58//1 57//1
f 57//1 58//1 60//1
f 57//1 60//1 59//1
f 59//1 60//1 62//1
f 59//1 62//1 61//1
f 61//1 62//1 64//1
f 61//1 64//1 63//1
f 63//1 64//1 66//1
f 63//1 66//1 65//1
f 65//1 66//1 68//1
f 65//1 68//1 67//1
f 67//1 68//1 70//1
f 67//1 70//1 69//1
f 69//1 70//1 72//1
f 69//1 72//1 71//1
f 71//1 72//1 74//1
f 71//1 74//1 73//1
f 73//1 74//1 76//1
f 73//1 76//1 75//1
f 75//1 76//1 78//1
f 75//1 78//1 77//1
f 77//1 78//1 80//1
f 77//1 80//1 79//1
f 79//1 80//1 82//1
f 79//1 82//1 81//1
f 81//1 82//1 84//1
f 81//1 84//1 83//1
f 83//1 84//1 86//1
f 83//1 86//1 85//1
f 85//1 86//1 88//1
f 85//1 88//1 87//1
f 87//1 88//1 90//1
f 87//1 90//1 89//1
f 89//1 90//1 92//1
f 89//1 92//1 91//1
f 91//1 92//1 94//1
f 91//1 94//1 93//1
f 93//1 94//1 96//1
f 93//1 96//1 95//1
f 95//1 96//1 98//1
f 95//1 98//1 97//1
f 97//1 98//1 100//1
f 97//1 100//1 99//1
f 99//1 100//1 102//1
f 99//1 102//1 101//1
f 101//1 102//1 104//1
f 101//1 104//1 103//1
f 103//1 104//1 106//1
f 103//1 106//1 105//1
f 105//1 106//1 108//1
f 105//1 108//1 107//1
f 107//1 108//1 110//1
f 107//1 110//1 109//1
f 109//1 110//1 112//1
f 109//1 112//1 111//1
f 111//1 112//1 114//1
f 111//1 114//1 113//1
f 113//1 114//1 116//1
f 113//1 116//1 115//1
f 115//1 116//1 118//1
f 115//1 118//1 117//1
f 117//1 118//1 120//1
f 117//1 120//1 119//1
f 119//1 120//1 122//1
f 119//1 122//1 121//1
f 121//1 122//1 124//1
f 121//1 124//1 123//1
f 123//1 124//1 126//1
f 123//1 126//1 125//1
f 125//1 126//1 128//1
f 125//1 128//1 127//1
f 127//1 128//1 130//1
f 127//1 130//1 129//1
f 129//1 130//1 132//1
f 129//1 132//1 131//1
f 131//1 132//1 134//1
f 131//1 134//1 133//1
f 133//1 134//1 136//1
f 133//1 136//1 135//1
f 135//1 136//1 138//1
f 135//1 138//1 137//1
f 137//1 138//1 140//1
f 137//1 140//1 139//1
f 139//1 140//1 142//1
f 139//1 142//1 141//1
f 141//1 142//1 144//1
f 141//1 144//1 143//1
f 143//1 144//1 146//1
f 143//1 146//1 145//1
f 145//1 146//1 148//1
f 145//1 148//1 147//1
f 147//1 148//1 150//1
f 147//1 150//1 149//1
f 149//1 150//1 152//1
f 149//1 152//1 151//1
f 151//1 152//1 154//1
f 151//1 154//1 153//1
f 153//1 154//1 156//1
f 153//1 156//1 155//1
f 155//1 156//1 158//1
f 155//1 158//1 157//1
f 157//1 158//1 160//1
f 157//1 160//1 159//1
f 159//1 160//1 162//1
f 159//1 162//1 161//1
f 161//1 162//1 164//1
f 161//1 164//1 163//1
f 163//1 164//1 166//1
f 163//1 166//1 165//1
f 165//1 166//1 168//1
f 165//1 168//1 167//1
f 167//1 168//1 170//1
f 167//1 170//1 169//1
f 169//1 170//1 172//1
f 169//1 172//1 171//1
f 171//1 172//1 174//1
f 171//1 174//1 173//1
f 173//1 174//1 176//1
f 173//1 176//1 175//1
f 175//1 176//1 178//1
f 175//1 178//1 177//1
f 177//1 178//1 180//1
f 177//1 180//1 179//1
f 179//1 180//1 182//1
f 179//1 182//1 181//1
f 181//1 182//1 184//1
f 181//1 184//1 183//1
f 183//1 184//1 186//1
f 183//1 186//1 185//1
f 185//1 186//1 188//1
f 185//1 188//1 187//1
f 187//1 188//1 190//1
f 187//1 190//1 189//1
f 189//1 190//1 192//1
f 189//1 192//1 191//1
f 191//1 192//1 194//1
f 191//1 194//1 193//1
f 193//1 194//1 196//1
f 193//1 196//1 195//1
f 195//1 196//1 198//1
f 195//1 198//1 197//1
f 197//1 198//1 200//1
f 197//1 200//1 199//1
f 199//1 200//1 202//1
f 199//1 202//1 201//1
f 201//1 202//1 204//1
f 201//1 204//1 203//1
f 203//1 204//1 206//1
f 203//1 206//1 205//1
f 205//1 206//1 208//1
f 205//1 208//1 207//1
f 207//1 208//1 210//1
f 207//1 210//1 209//1
f 209//1 210//1 212//1
f 209//1 212//1 211//1
f 211//1 212//1 214//1
f 211//1 214//1 213//1
f 213//1 214//1 216//1
f 213//1 216//1 215//1
f 215//1 216//1 218//1
f 215//1 218//1 217//1
f 217//1 218//1 220//1
f 217//1 220//1 219//1
f 219//1 220//1 222//1
f 219//1 222//1 221//1
f 221//1 222//1 224//1
f 221//1 224//1 223//1
f 223//1 224//1 226//1
f 223//1 226//1 225//1
f 225//1 226//1 228//1
f 225//1 228//1 227//1
f 227//1 228//1 230//1
f 227//1 230//1 229//1
f 229//1 230//1 232//1
f 229//1 232//1 231//1
f 231//1 232//1 234//1
f 231//1 234//1 233//1
f 233//1 234//1 236//1
f 233//1 236//1 235//1
f 235//1 236//1 238//1
f 235//1 238//1 237//1
f 237//1 238//1 240//1
f 237//1 240//1 239//1
f 239//1 240//1 242//1
f 239//1 242//1 241//1
